<?xml version="1.0" encoding="UTF-8"?>
<svg xmlns="http://www.w3.org/2000/svg" xmlns:xlink="http://www.w3.org/1999/xlink" viewBox="0 0 24 24" version="1.1">
<g>
<path d="M 9.257812 7.050781 L 8.894531 7.050781 C 8.8125 7.050781 8.730469 7.046875 8.65625 7.089844 C 8.632812 7.101562 8.613281 7.117188 8.59375 7.136719 C 8.546875 7.179688 8.515625 7.246094 8.507812 7.3125 C 8.503906 7.359375 8.507812 7.410156 8.507812 7.457031 L 8.507812 8.117188 L 3.363281 8.117188 C 3.199219 8.117188 3.035156 8.109375 2.871094 8.148438 C 2.609375 8.210938 2.371094 8.367188 2.210938 8.582031 C 2.085938 8.738281 2.007812 8.933594 1.980469 9.128906 C 1.96875 9.210938 1.96875 9.292969 1.96875 9.371094 L 1.96875 16.570312 C 1.96875 16.640625 1.96875 16.707031 1.976562 16.777344 C 1.996094 16.980469 2.074219 17.175781 2.195312 17.339844 C 2.378906 17.597656 2.667969 17.769531 2.980469 17.816406 C 3.0625 17.828125 3.140625 17.828125 3.222656 17.828125 L 4.160156 17.828125 C 4.160156 17.894531 4.179688 17.964844 4.195312 18.027344 C 4.230469 18.214844 4.292969 18.394531 4.375 18.566406 C 4.460938 18.75 4.574219 18.925781 4.707031 19.082031 C 4.914062 19.324219 5.167969 19.527344 5.449219 19.671875 C 5.898438 19.902344 6.417969 19.984375 6.914062 19.910156 C 7.617188 19.800781 8.253906 19.371094 8.613281 18.761719 C 8.734375 18.550781 8.832031 18.324219 8.882812 18.085938 C 8.898438 18.023438 8.910156 17.957031 8.921875 17.890625 C 8.925781 17.875 8.925781 17.859375 8.929688 17.84375 C 8.929688 17.839844 8.929688 17.828125 8.933594 17.828125 C 8.945312 17.824219 8.964844 17.828125 8.980469 17.828125 L 15.242188 17.828125 C 15.246094 17.910156 15.265625 18 15.285156 18.082031 C 15.335938 18.296875 15.414062 18.5 15.519531 18.695312 C 15.65625 18.941406 15.835938 19.160156 16.046875 19.347656 C 16.242188 19.515625 16.464844 19.652344 16.703125 19.753906 C 17.222656 19.972656 17.8125 19.992188 18.347656 19.828125 C 18.613281 19.742188 18.867188 19.609375 19.089844 19.441406 C 19.367188 19.226562 19.589844 18.953125 19.753906 18.648438 C 19.851562 18.464844 19.925781 18.265625 19.96875 18.066406 C 19.988281 17.988281 20.003906 17.90625 20.011719 17.828125 L 20.8125 17.828125 C 20.941406 17.828125 21.074219 17.835938 21.203125 17.816406 C 21.300781 17.804688 21.398438 17.773438 21.488281 17.734375 C 21.570312 17.695312 21.644531 17.644531 21.710938 17.589844 C 21.871094 17.453125 21.980469 17.261719 22.023438 17.054688 C 22.050781 16.933594 22.046875 16.8125 22.046875 16.6875 L 22.046875 15.902344 C 22.046875 15.761719 22.042969 15.628906 22 15.496094 C 21.941406 15.308594 21.824219 15.140625 21.667969 15.019531 C 21.613281 14.976562 21.546875 14.9375 21.480469 14.90625 C 21.464844 14.898438 21.445312 14.890625 21.429688 14.882812 C 21.421875 14.878906 21.414062 14.878906 21.410156 14.871094 C 21.40625 14.859375 21.410156 14.84375 21.410156 14.832031 L 21.410156 13.9375 C 21.410156 13.800781 21.414062 13.667969 21.386719 13.539062 C 21.347656 13.367188 21.273438 13.210938 21.164062 13.078125 C 21.074219 12.972656 20.964844 12.882812 20.847656 12.820312 C 20.773438 12.78125 20.695312 12.753906 20.621094 12.726562 C 20.515625 12.6875 20.414062 12.652344 20.308594 12.613281 C 19.796875 12.425781 19.285156 12.242188 18.773438 12.054688 C 18.617188 11.996094 18.460938 11.941406 18.308594 11.886719 C 18.261719 11.867188 18.214844 11.851562 18.167969 11.835938 C 18.152344 11.828125 18.125 11.824219 18.113281 11.8125 C 18.109375 11.808594 18.109375 11.800781 18.105469 11.792969 C 18.101562 11.78125 18.097656 11.765625 18.09375 11.75 C 18.078125 11.695312 18.058594 11.640625 18.042969 11.585938 C 17.984375 11.382812 17.925781 11.183594 17.863281 10.984375 C 17.714844 10.492188 17.570312 10 17.421875 9.507812 C 17.390625 9.398438 17.355469 9.289062 17.324219 9.179688 C 17.296875 9.085938 17.273438 8.988281 17.234375 8.898438 C 17.199219 8.8125 17.15625 8.730469 17.101562 8.652344 C 16.910156 8.375 16.597656 8.183594 16.265625 8.128906 C 16.160156 8.113281 16.054688 8.117188 15.949219 8.117188 L 12.527344 8.117188 L 12.527344 7.453125 C 12.527344 7.402344 12.53125 7.347656 12.523438 7.296875 C 12.511719 7.21875 12.464844 7.144531 12.398438 7.101562 C 12.316406 7.046875 12.226562 7.050781 12.132812 7.050781 L 11.738281 7.050781 L 11.738281 6.28125 C 11.738281 6.167969 11.742188 6.054688 11.730469 5.941406 C 11.71875 5.816406 11.671875 5.6875 11.605469 5.582031 C 11.566406 5.519531 11.519531 5.457031 11.464844 5.40625 C 11.339844 5.292969 11.199219 5.210938 11.03125 5.175781 C 10.941406 5.160156 10.851562 5.160156 10.757812 5.160156 L 10.226562 5.160156 C 10.15625 5.160156 10.085938 5.15625 10.019531 5.167969 C 9.773438 5.203125 9.554688 5.34375 9.414062 5.542969 C 9.335938 5.65625 9.285156 5.789062 9.265625 5.925781 C 9.25 6.046875 9.257812 6.171875 9.257812 6.296875 Z M 9.257812 7.050781 "/>
<path d="M 9.84375 7.050781 L 11.152344 7.050781 L 11.152344 6.105469 C 11.152344 6.03125 11.148438 5.957031 11.109375 5.890625 C 11.0625 5.816406 10.984375 5.761719 10.898438 5.75 C 10.839844 5.738281 10.777344 5.746094 10.71875 5.746094 L 10.199219 5.746094 C 10.160156 5.746094 10.125 5.742188 10.089844 5.75 C 10.003906 5.769531 9.929688 5.820312 9.886719 5.894531 C 9.847656 5.960938 9.84375 6.035156 9.84375 6.109375 L 9.84375 7.050781 M 9.09375 7.636719 L 9.09375 8.117188 L 11.941406 8.117188 L 11.941406 7.636719 L 9.09375 7.636719 M 4.160156 17.242188 C 4.160156 17.21875 4.167969 17.199219 4.167969 17.175781 C 4.175781 17.128906 4.183594 17.082031 4.195312 17.035156 C 4.234375 16.851562 4.292969 16.679688 4.371094 16.507812 C 4.640625 15.929688 5.15625 15.476562 5.753906 15.265625 C 6.125 15.132812 6.527344 15.097656 6.914062 15.160156 C 7.621094 15.269531 8.261719 15.703125 8.621094 16.324219 C 8.742188 16.527344 8.832031 16.753906 8.886719 16.984375 C 8.898438 17.046875 8.910156 17.113281 8.921875 17.175781 C 8.925781 17.191406 8.925781 17.207031 8.929688 17.222656 C 8.929688 17.226562 8.929688 17.238281 8.933594 17.238281 C 8.941406 17.242188 8.960938 17.242188 8.972656 17.242188 L 15.242188 17.242188 C 15.242188 17.175781 15.257812 17.105469 15.273438 17.042969 C 15.308594 16.871094 15.363281 16.699219 15.4375 16.539062 C 15.539062 16.316406 15.675781 16.109375 15.839844 15.929688 C 15.980469 15.773438 16.140625 15.632812 16.316406 15.519531 C 16.835938 15.179688 17.476562 15.058594 18.085938 15.175781 C 18.789062 15.308594 19.40625 15.773438 19.746094 16.402344 C 19.886719 16.660156 19.972656 16.949219 20.011719 17.242188 L 21 17.242188 C 21.089844 17.242188 21.175781 17.238281 21.257812 17.191406 C 21.363281 17.136719 21.4375 17.027344 21.457031 16.910156 C 21.464844 16.84375 21.460938 16.773438 21.460938 16.707031 L 21.460938 15.851562 C 21.460938 15.777344 21.457031 15.703125 21.425781 15.632812 C 21.386719 15.542969 21.3125 15.46875 21.222656 15.433594 C 21.15625 15.40625 21.082031 15.398438 21.015625 15.371094 C 20.953125 15.347656 20.894531 15.300781 20.863281 15.242188 C 20.847656 15.21875 20.839844 15.191406 20.832031 15.167969 C 20.820312 15.113281 20.824219 15.058594 20.824219 15.003906 L 20.824219 13.808594 C 20.824219 13.773438 20.824219 13.738281 20.820312 13.699219 C 20.804688 13.574219 20.734375 13.453125 20.628906 13.375 C 20.546875 13.316406 20.445312 13.285156 20.351562 13.253906 C 20.207031 13.199219 20.0625 13.148438 19.917969 13.09375 C 19.417969 12.914062 18.921875 12.734375 18.425781 12.550781 C 18.25 12.488281 18.074219 12.425781 17.898438 12.359375 C 17.800781 12.324219 17.699219 12.296875 17.632812 12.207031 C 17.605469 12.167969 17.59375 12.125 17.578125 12.078125 L 17.539062 11.941406 C 17.488281 11.773438 17.4375 11.605469 17.386719 11.433594 C 17.214844 10.867188 17.046875 10.300781 16.878906 9.730469 C 16.839844 9.601562 16.800781 9.472656 16.761719 9.347656 C 16.738281 9.261719 16.71875 9.171875 16.679688 9.09375 C 16.621094 8.964844 16.527344 8.863281 16.40625 8.792969 C 16.328125 8.742188 16.234375 8.714844 16.140625 8.703125 C 16.0625 8.695312 15.980469 8.703125 15.902344 8.703125 L 3.480469 8.703125 C 3.363281 8.703125 3.242188 8.695312 3.128906 8.703125 C 2.855469 8.714844 2.625 8.910156 2.566406 9.175781 C 2.546875 9.261719 2.554688 9.351562 2.554688 9.441406 L 2.554688 16.433594 C 2.554688 16.527344 2.546875 16.625 2.558594 16.71875 C 2.574219 16.84375 2.628906 16.960938 2.710938 17.050781 C 2.800781 17.144531 2.921875 17.210938 3.054688 17.234375 C 3.15625 17.25 3.265625 17.242188 3.371094 17.242188 Z M 4.160156 17.242188 "/>
<path d="M 3.320312 9.320312 C 3.289062 9.324219 3.257812 9.332031 3.230469 9.34375 C 3.203125 9.355469 3.179688 9.367188 3.160156 9.386719 C 3.101562 9.433594 3.066406 9.503906 3.058594 9.578125 C 3.050781 9.628906 3.054688 9.683594 3.054688 9.734375 L 3.054688 12.390625 C 3.054688 12.4375 3.050781 12.484375 3.058594 12.53125 C 3.066406 12.597656 3.09375 12.65625 3.140625 12.707031 C 3.183594 12.75 3.242188 12.777344 3.304688 12.789062 C 3.363281 12.796875 3.425781 12.789062 3.488281 12.789062 L 7.320312 12.789062 C 7.367188 12.789062 7.414062 12.792969 7.457031 12.785156 C 7.566406 12.761719 7.652344 12.679688 7.683594 12.574219 C 7.699219 12.515625 7.691406 12.449219 7.691406 12.386719 L 7.691406 9.722656 C 7.691406 9.671875 7.695312 9.625 7.691406 9.578125 C 7.683594 9.503906 7.648438 9.441406 7.59375 9.390625 C 7.496094 9.304688 7.367188 9.320312 7.242188 9.320312 L 3.433594 9.320312 C 3.398438 9.320312 3.355469 9.316406 3.320312 9.320312 M 8.300781 9.320312 C 8.269531 9.324219 8.238281 9.332031 8.207031 9.34375 C 8.183594 9.355469 8.160156 9.367188 8.140625 9.386719 C 8.085938 9.429688 8.050781 9.496094 8.039062 9.566406 C 8.03125 9.621094 8.035156 9.679688 8.035156 9.738281 L 8.035156 12.402344 C 8.035156 12.511719 8.035156 12.613281 8.113281 12.695312 C 8.152344 12.738281 8.203125 12.769531 8.261719 12.78125 C 8.328125 12.800781 8.40625 12.789062 8.476562 12.789062 L 12.296875 12.789062 C 12.347656 12.789062 12.398438 12.792969 12.445312 12.785156 C 12.550781 12.761719 12.636719 12.679688 12.664062 12.574219 C 12.679688 12.515625 12.671875 12.449219 12.671875 12.386719 L 12.671875 9.722656 C 12.671875 9.667969 12.675781 9.613281 12.667969 9.5625 C 12.660156 9.496094 12.625 9.433594 12.574219 9.390625 C 12.472656 9.300781 12.34375 9.320312 12.21875 9.320312 L 8.414062 9.320312 C 8.378906 9.320312 8.335938 9.316406 8.300781 9.320312 M 13.28125 9.320312 C 13.25 9.324219 13.21875 9.332031 13.191406 9.34375 C 13.097656 9.386719 13.035156 9.472656 13.019531 9.570312 C 13.011719 9.625 13.019531 9.679688 13.019531 9.734375 L 13.019531 12.394531 C 13.019531 12.441406 13.015625 12.492188 13.019531 12.535156 C 13.027344 12.589844 13.050781 12.644531 13.085938 12.6875 C 13.136719 12.742188 13.203125 12.78125 13.277344 12.789062 C 13.328125 12.796875 13.378906 12.789062 13.429688 12.789062 L 16.917969 12.789062 C 16.964844 12.789062 17.011719 12.792969 17.054688 12.785156 C 17.191406 12.753906 17.285156 12.625 17.28125 12.488281 C 17.28125 12.429688 17.257812 12.367188 17.242188 12.3125 C 17.214844 12.214844 17.1875 12.113281 17.160156 12.015625 C 16.996094 11.402344 16.828125 10.789062 16.65625 10.179688 C 16.609375 10.011719 16.566406 9.847656 16.519531 9.679688 C 16.496094 9.589844 16.480469 9.488281 16.417969 9.417969 C 16.367188 9.359375 16.296875 9.328125 16.226562 9.320312 C 16.183594 9.316406 16.140625 9.320312 16.097656 9.320312 L 13.367188 9.320312 C 13.339844 9.320312 13.308594 9.316406 13.28125 9.320312 Z M 13.28125 9.320312 "/>
<path d="M 3.640625 9.902344 L 3.640625 12.203125 L 7.105469 12.203125 L 7.105469 9.902344 L 3.640625 9.902344 M 8.621094 9.902344 L 8.621094 12.203125 L 12.085938 12.203125 L 12.085938 9.902344 L 8.621094 9.902344 M 13.605469 9.902344 L 13.605469 12.203125 L 16.605469 12.203125 L 16.550781 12.003906 L 16.4375 11.601562 L 16.15625 10.570312 L 16.039062 10.132812 L 15.992188 9.976562 L 15.976562 9.902344 Z M 13.605469 9.902344 "/>
<path d="M 10.140625 10.238281 L 10.140625 10.527344 C 10.082031 10.496094 10.023438 10.460938 9.964844 10.429688 C 9.941406 10.414062 9.914062 10.390625 9.886719 10.382812 C 9.867188 10.417969 9.847656 10.453125 9.828125 10.484375 C 9.773438 10.578125 9.722656 10.671875 9.667969 10.761719 C 9.648438 10.792969 9.632812 10.824219 9.613281 10.859375 C 9.609375 10.863281 9.59375 10.882812 9.597656 10.890625 C 9.597656 10.894531 9.609375 10.898438 9.613281 10.902344 C 9.628906 10.910156 9.644531 10.917969 9.65625 10.929688 C 9.699219 10.953125 9.742188 10.976562 9.785156 11 C 9.804688 11.011719 9.824219 11.027344 9.847656 11.035156 C 9.816406 11.058594 9.777344 11.078125 9.746094 11.09375 C 9.695312 11.125 9.644531 11.15625 9.59375 11.183594 L 9.625 11.238281 L 9.691406 11.351562 L 9.886719 11.691406 L 9.941406 11.660156 L 10.066406 11.589844 L 10.140625 11.546875 L 10.140625 11.835938 L 10.726562 11.835938 L 10.726562 11.546875 L 10.878906 11.632812 L 10.980469 11.691406 L 11.191406 11.328125 L 11.25 11.226562 L 11.273438 11.183594 L 11.210938 11.144531 L 11.023438 11.039062 L 11.023438 11.035156 L 11.109375 10.988281 L 11.273438 10.890625 L 11.238281 10.828125 L 11.164062 10.703125 L 10.980469 10.382812 L 10.914062 10.421875 L 10.796875 10.488281 L 10.726562 10.527344 L 10.726562 10.238281 L 10.140625 10.238281 M 3.082031 13.582031 L 3.082031 14.167969 L 20.046875 14.167969 L 20.046875 13.582031 Z M 3.082031 13.582031 "/>
<path d="M 6.496094 15.714844 C 6.453125 15.722656 6.410156 15.71875 6.367188 15.726562 C 6.257812 15.734375 6.152344 15.753906 6.046875 15.785156 C 5.597656 15.914062 5.210938 16.21875 4.976562 16.617188 C 4.695312 17.09375 4.652344 17.683594 4.851562 18.195312 C 4.929688 18.386719 5.035156 18.5625 5.167969 18.71875 C 5.277344 18.847656 5.40625 18.960938 5.546875 19.050781 C 5.714844 19.160156 5.898438 19.246094 6.09375 19.292969 C 6.320312 19.351562 6.554688 19.367188 6.785156 19.335938 C 6.980469 19.308594 7.167969 19.25 7.34375 19.167969 C 7.707031 18.992188 8.007812 18.6875 8.183594 18.324219 C 8.308594 18.066406 8.371094 17.777344 8.363281 17.488281 C 8.355469 17.234375 8.296875 16.980469 8.183594 16.75 C 7.960938 16.289062 7.542969 15.929688 7.050781 15.785156 C 6.921875 15.75 6.792969 15.730469 6.664062 15.71875 C 6.609375 15.714844 6.550781 15.710938 6.496094 15.714844 M 17.578125 15.714844 C 17.53125 15.722656 17.480469 15.722656 17.433594 15.726562 C 17.335938 15.734375 17.238281 15.753906 17.140625 15.78125 C 16.703125 15.902344 16.320312 16.191406 16.078125 16.582031 C 15.800781 17.027344 15.738281 17.582031 15.890625 18.078125 C 15.949219 18.261719 16.035156 18.433594 16.144531 18.585938 C 16.269531 18.761719 16.421875 18.910156 16.597656 19.03125 C 16.773438 19.152344 16.972656 19.242188 17.179688 19.296875 C 17.402344 19.351562 17.636719 19.363281 17.863281 19.335938 C 18.246094 19.285156 18.597656 19.113281 18.875 18.851562 C 19.246094 18.507812 19.464844 17.984375 19.441406 17.476562 C 19.433594 17.289062 19.402344 17.101562 19.339844 16.925781 C 19.285156 16.773438 19.210938 16.632812 19.121094 16.5 C 18.886719 16.160156 18.535156 15.910156 18.136719 15.789062 C 18 15.75 17.859375 15.726562 17.71875 15.71875 C 17.671875 15.714844 17.625 15.710938 17.578125 15.714844 Z M 17.578125 15.714844 "/>
<path d="M 6.523438 16.496094 C 6.492188 16.5 6.464844 16.496094 6.4375 16.5 C 6.375 16.507812 6.3125 16.519531 6.253906 16.535156 C 5.984375 16.617188 5.757812 16.804688 5.625 17.050781 C 5.574219 17.148438 5.539062 17.253906 5.523438 17.359375 C 5.496094 17.527344 5.507812 17.699219 5.558594 17.859375 C 5.589844 17.953125 5.632812 18.039062 5.6875 18.117188 C 5.90625 18.4375 6.296875 18.613281 6.679688 18.5625 C 6.800781 18.546875 6.921875 18.511719 7.03125 18.449219 C 7.363281 18.273438 7.574219 17.929688 7.582031 17.554688 C 7.589844 17.261719 7.46875 16.972656 7.253906 16.773438 C 7.140625 16.667969 7.003906 16.589844 6.859375 16.542969 C 6.777344 16.519531 6.695312 16.503906 6.609375 16.496094 C 6.582031 16.496094 6.550781 16.492188 6.523438 16.496094 M 17.601562 16.496094 C 17.570312 16.5 17.535156 16.5 17.503906 16.503906 C 17.441406 16.507812 17.375 16.523438 17.3125 16.542969 C 17.046875 16.625 16.824219 16.820312 16.699219 17.066406 C 16.648438 17.164062 16.613281 17.269531 16.597656 17.378906 C 16.578125 17.535156 16.585938 17.695312 16.632812 17.84375 C 16.683594 18 16.769531 18.144531 16.882812 18.261719 C 17.109375 18.492188 17.4375 18.605469 17.757812 18.5625 C 17.882812 18.546875 18.003906 18.507812 18.113281 18.449219 C 18.4375 18.273438 18.65625 17.933594 18.664062 17.5625 C 18.667969 17.398438 18.632812 17.230469 18.5625 17.085938 C 18.433594 16.824219 18.199219 16.621094 17.921875 16.539062 C 17.84375 16.515625 17.769531 16.503906 17.691406 16.496094 C 17.660156 16.496094 17.628906 16.492188 17.601562 16.496094 Z M 17.601562 16.496094 "/>
<path d="M 6.523438 17.082031 C 6.492188 17.085938 6.460938 17.089844 6.429688 17.097656 C 6.347656 17.117188 6.269531 17.164062 6.210938 17.230469 C 6.066406 17.390625 6.054688 17.640625 6.1875 17.8125 C 6.21875 17.847656 6.253906 17.882812 6.296875 17.910156 C 6.335938 17.9375 6.382812 17.957031 6.433594 17.972656 C 6.492188 17.984375 6.550781 17.988281 6.609375 17.980469 C 6.820312 17.953125 6.988281 17.765625 6.996094 17.550781 C 7.007812 17.339844 6.859375 17.144531 6.65625 17.09375 C 6.617188 17.085938 6.566406 17.078125 6.523438 17.082031 M 17.605469 17.082031 C 17.570312 17.085938 17.539062 17.089844 17.507812 17.097656 C 17.425781 17.117188 17.351562 17.164062 17.292969 17.226562 C 17.257812 17.265625 17.226562 17.3125 17.207031 17.367188 C 17.128906 17.5625 17.199219 17.789062 17.371094 17.90625 C 17.410156 17.933594 17.457031 17.953125 17.5 17.96875 C 17.5625 17.984375 17.625 17.988281 17.6875 17.980469 C 17.898438 17.953125 18.066406 17.769531 18.078125 17.554688 C 18.085938 17.34375 17.9375 17.140625 17.726562 17.09375 C 17.6875 17.085938 17.644531 17.078125 17.605469 17.082031 Z M 17.605469 17.082031 "/>
</g>
</svg>
