<?xml version="1.0" encoding="UTF-8"?>
<svg xmlns="http://www.w3.org/2000/svg" xmlns:xlink="http://www.w3.org/1999/xlink" viewBox="0 0 24 24" version="1.1">
<g>
<path style=" stroke:none;fill-rule:nonzero;fill:rgb(0.392157%,0.392157%,0.392157%);fill-opacity:1;" d="M 10.203125 6.300781 L 3.464844 6.300781 C 3.359375 6.300781 3.253906 6.300781 3.152344 6.3125 C 2.949219 6.339844 2.757812 6.414062 2.585938 6.519531 C 2.480469 6.582031 2.386719 6.660156 2.300781 6.75 C 2.117188 6.941406 1.984375 7.175781 1.921875 7.4375 C 1.878906 7.628906 1.882812 7.824219 1.882812 8.023438 L 1.882812 16.214844 C 1.882812 16.28125 1.882812 16.347656 1.890625 16.410156 C 1.914062 16.59375 1.996094 16.769531 2.125 16.902344 C 2.246094 17.027344 2.398438 17.121094 2.570312 17.160156 C 2.683594 17.183594 2.800781 17.179688 2.914062 17.179688 L 3.78125 17.179688 C 3.789062 17.179688 3.808594 17.175781 3.816406 17.183594 C 3.824219 17.1875 3.832031 17.214844 3.835938 17.222656 C 3.851562 17.257812 3.867188 17.296875 3.882812 17.332031 C 3.941406 17.453125 4.007812 17.570312 4.082031 17.683594 C 4.285156 17.988281 4.554688 18.257812 4.863281 18.460938 C 5.125 18.632812 5.414062 18.761719 5.71875 18.835938 C 6.363281 18.996094 7.066406 18.914062 7.652344 18.605469 C 7.921875 18.464844 8.164062 18.28125 8.375 18.0625 C 8.554688 17.875 8.714844 17.65625 8.832031 17.421875 C 8.859375 17.367188 8.886719 17.308594 8.914062 17.253906 C 8.921875 17.230469 8.9375 17.207031 8.941406 17.179688 L 13.921875 17.179688 C 13.933594 17.179688 13.953125 17.179688 13.96875 17.183594 C 13.976562 17.183594 13.980469 17.203125 13.984375 17.210938 C 13.996094 17.238281 14.007812 17.265625 14.019531 17.292969 C 14.070312 17.40625 14.128906 17.511719 14.195312 17.617188 C 14.390625 17.9375 14.660156 18.214844 14.96875 18.429688 C 15.238281 18.613281 15.539062 18.75 15.855469 18.832031 C 16.515625 19 17.234375 18.914062 17.832031 18.589844 C 18.089844 18.453125 18.328125 18.273438 18.527344 18.0625 C 18.710938 17.875 18.867188 17.65625 18.988281 17.421875 C 19.015625 17.367188 19.042969 17.308594 19.066406 17.253906 C 19.078125 17.230469 19.09375 17.207031 19.097656 17.179688 L 20.855469 17.179688 C 20.9375 17.179688 21.019531 17.183594 21.101562 17.167969 C 21.292969 17.140625 21.472656 17.054688 21.617188 16.929688 C 21.804688 16.765625 21.921875 16.539062 21.953125 16.296875 C 21.960938 16.234375 21.960938 16.171875 21.960938 16.109375 L 21.960938 14.761719 C 21.960938 14.554688 21.960938 14.355469 21.925781 14.152344 C 21.875 13.878906 21.78125 13.617188 21.699219 13.351562 C 21.578125 12.960938 21.449219 12.574219 21.328125 12.183594 C 21.25 11.925781 21.167969 11.667969 21.085938 11.410156 C 21.046875 11.277344 21.007812 11.140625 20.957031 11.011719 C 20.898438 10.859375 20.824219 10.710938 20.738281 10.570312 C 20.667969 10.453125 20.585938 10.339844 20.496094 10.234375 C 20.421875 10.148438 20.339844 10.066406 20.261719 9.984375 C 20.117188 9.832031 19.972656 9.679688 19.832031 9.523438 C 19.324219 8.980469 18.808594 8.4375 18.300781 7.894531 C 18.121094 7.703125 17.941406 7.511719 17.761719 7.320312 C 17.625 7.175781 17.492188 7.027344 17.339844 6.902344 C 17.085938 6.695312 16.796875 6.527344 16.484375 6.429688 C 16.296875 6.371094 16.101562 6.328125 15.90625 6.308594 C 15.765625 6.296875 15.625 6.300781 15.484375 6.300781 L 12.597656 6.300781 L 12.597656 5.875 C 12.597656 5.773438 12.601562 5.671875 12.589844 5.570312 C 12.578125 5.417969 12.53125 5.265625 12.457031 5.128906 C 12.390625 5.007812 12.308594 4.898438 12.207031 4.808594 C 11.894531 4.523438 11.449219 4.421875 11.046875 4.546875 C 10.929688 4.582031 10.824219 4.636719 10.726562 4.703125 C 10.613281 4.78125 10.511719 4.878906 10.433594 4.988281 C 10.328125 5.132812 10.253906 5.300781 10.222656 5.480469 C 10.203125 5.601562 10.203125 5.722656 10.203125 5.84375 Z M 10.203125 6.300781 "/>
<path style=" stroke:none;fill-rule:nonzero;fill:rgb(100%,100%,100%);fill-opacity:1;" d="M 10.792969 6.300781 L 12.011719 6.300781 L 12.011719 5.832031 C 12.011719 5.699219 12.015625 5.570312 11.957031 5.445312 C 11.925781 5.367188 11.878906 5.304688 11.820312 5.246094 C 11.78125 5.207031 11.734375 5.175781 11.6875 5.152344 C 11.410156 5.003906 11.054688 5.097656 10.886719 5.363281 C 10.839844 5.4375 10.808594 5.519531 10.796875 5.605469 C 10.785156 5.683594 10.792969 5.765625 10.792969 5.84375 L 10.792969 6.300781 M 3.65625 16.59375 C 3.632812 16.425781 3.617188 16.257812 3.621094 16.085938 C 3.628906 15.671875 3.734375 15.261719 3.921875 14.894531 C 4.0625 14.625 4.246094 14.378906 4.464844 14.167969 C 4.679688 13.964844 4.921875 13.792969 5.191406 13.664062 C 5.730469 13.402344 6.367188 13.324219 6.957031 13.453125 C 7.269531 13.523438 7.566406 13.640625 7.835938 13.808594 C 8.140625 14 8.410156 14.25 8.617188 14.539062 C 8.929688 14.972656 9.117188 15.492188 9.140625 16.027344 C 9.144531 16.152344 9.140625 16.277344 9.128906 16.402344 C 9.125 16.445312 9.121094 16.484375 9.117188 16.527344 C 9.113281 16.550781 9.105469 16.574219 9.105469 16.59375 L 13.808594 16.59375 C 13.792969 16.507812 13.785156 16.417969 13.78125 16.328125 C 13.765625 16.105469 13.777344 15.878906 13.816406 15.660156 C 13.878906 15.328125 14 15.011719 14.171875 14.722656 C 14.3125 14.496094 14.484375 14.289062 14.683594 14.109375 C 14.878906 13.929688 15.105469 13.78125 15.34375 13.664062 C 15.863281 13.414062 16.460938 13.335938 17.023438 13.4375 C 17.308594 13.488281 17.574219 13.585938 17.832031 13.71875 C 18.074219 13.84375 18.300781 14.015625 18.492188 14.210938 C 18.945312 14.671875 19.242188 15.289062 19.289062 15.9375 C 19.296875 16.082031 19.296875 16.226562 19.289062 16.367188 C 19.285156 16.421875 19.277344 16.472656 19.269531 16.527344 C 19.269531 16.546875 19.261719 16.570312 19.261719 16.59375 L 20.851562 16.59375 C 20.902344 16.59375 20.953125 16.597656 21.003906 16.589844 C 21.085938 16.582031 21.164062 16.546875 21.226562 16.492188 C 21.300781 16.429688 21.355469 16.335938 21.371094 16.234375 C 21.378906 16.171875 21.375 16.101562 21.375 16.035156 L 21.375 14.890625 C 21.375 14.703125 21.382812 14.511719 21.355469 14.324219 C 21.328125 14.105469 21.253906 13.898438 21.1875 13.683594 C 21.011719 13.121094 20.832031 12.554688 20.65625 11.992188 C 20.605469 11.832031 20.554688 11.675781 20.503906 11.515625 C 20.453125 11.34375 20.398438 11.171875 20.316406 11.011719 C 20.253906 10.890625 20.179688 10.773438 20.09375 10.667969 C 19.980469 10.53125 19.851562 10.40625 19.730469 10.273438 C 19.472656 10 19.210938 9.726562 18.953125 9.449219 C 18.519531 8.980469 18.074219 8.515625 17.636719 8.046875 C 17.515625 7.917969 17.394531 7.789062 17.273438 7.65625 C 17.128906 7.503906 16.988281 7.355469 16.8125 7.238281 C 16.550781 7.058594 16.246094 6.945312 15.929688 6.902344 C 15.792969 6.882812 15.652344 6.886719 15.515625 6.886719 L 3.671875 6.886719 C 3.554688 6.886719 3.441406 6.882812 3.324219 6.886719 C 2.941406 6.894531 2.601562 7.179688 2.503906 7.542969 C 2.472656 7.652344 2.472656 7.761719 2.472656 7.875 L 2.472656 16.214844 C 2.472656 16.304688 2.46875 16.390625 2.527344 16.46875 C 2.539062 16.488281 2.558594 16.507812 2.578125 16.523438 C 2.617188 16.558594 2.664062 16.582031 2.714844 16.589844 C 2.777344 16.601562 2.84375 16.59375 2.90625 16.59375 Z M 3.65625 16.59375 "/>
<path style=" stroke:none;fill-rule:nonzero;fill:rgb(0.392157%,0.392157%,0.392157%);fill-opacity:1;" d="M 3.9375 7.511719 C 3.90625 7.515625 3.878906 7.515625 3.847656 7.519531 C 3.777344 7.527344 3.707031 7.546875 3.640625 7.578125 C 3.574219 7.609375 3.507812 7.648438 3.453125 7.699219 C 3.328125 7.804688 3.238281 7.953125 3.199219 8.113281 C 3.179688 8.210938 3.183594 8.308594 3.183594 8.410156 L 3.183594 10.515625 C 3.183594 10.617188 3.175781 10.714844 3.199219 10.8125 C 3.230469 10.972656 3.316406 11.117188 3.4375 11.226562 C 3.550781 11.332031 3.699219 11.402344 3.855469 11.421875 C 3.960938 11.433594 4.070312 11.425781 4.179688 11.425781 L 8.058594 11.425781 C 8.128906 11.425781 8.195312 11.425781 8.265625 11.414062 C 8.539062 11.367188 8.777344 11.164062 8.863281 10.898438 C 8.902344 10.769531 8.902344 10.644531 8.902344 10.511719 L 8.902344 8.496094 C 8.902344 8.394531 8.910156 8.285156 8.894531 8.183594 C 8.871094 8 8.777344 7.824219 8.636719 7.703125 C 8.523438 7.605469 8.382812 7.539062 8.234375 7.519531 C 8.125 7.503906 8.011719 7.511719 7.902344 7.511719 L 4.058594 7.511719 C 4.019531 7.511719 3.976562 7.507812 3.9375 7.511719 M 14.558594 7.511719 C 14.539062 7.515625 14.519531 7.515625 14.5 7.515625 C 14.453125 7.523438 14.40625 7.53125 14.363281 7.546875 C 14.167969 7.609375 14.011719 7.761719 13.941406 7.953125 C 13.898438 8.070312 13.902344 8.191406 13.902344 8.316406 L 13.902344 10.664062 C 13.902344 10.734375 13.898438 10.804688 13.910156 10.871094 C 13.933594 11.003906 13.996094 11.125 14.089844 11.222656 C 14.191406 11.332031 14.335938 11.402344 14.484375 11.421875 C 14.578125 11.433594 14.679688 11.425781 14.773438 11.425781 L 18.417969 11.425781 C 18.484375 11.425781 18.554688 11.425781 18.621094 11.414062 C 18.746094 11.390625 18.859375 11.328125 18.953125 11.242188 C 19.140625 11.058594 19.210938 10.765625 19.117188 10.519531 C 19.074219 10.40625 19 10.320312 18.921875 10.230469 C 18.878906 10.183594 18.839844 10.132812 18.796875 10.085938 C 18.601562 9.867188 18.410156 9.648438 18.214844 9.429688 C 17.84375 9.015625 17.480469 8.59375 17.113281 8.175781 C 17.015625 8.066406 16.917969 7.957031 16.820312 7.84375 C 16.738281 7.75 16.65625 7.652344 16.542969 7.59375 C 16.464844 7.554688 16.382812 7.523438 16.296875 7.515625 C 16.230469 7.511719 16.160156 7.511719 16.09375 7.511719 L 14.699219 7.511719 C 14.652344 7.511719 14.601562 7.507812 14.558594 7.511719 Z M 14.558594 7.511719 "/>
<path style=" stroke:none;fill-rule:nonzero;fill:rgb(100%,100%,100%);fill-opacity:1;" d="M 3.941406 8.097656 C 3.867188 8.109375 3.800781 8.152344 3.777344 8.226562 C 3.761719 8.277344 3.769531 8.332031 3.769531 8.382812 L 3.769531 10.589844 C 3.769531 10.667969 3.769531 10.742188 3.832031 10.796875 C 3.886719 10.839844 3.945312 10.839844 4.011719 10.839844 L 8.046875 10.839844 C 8.089844 10.839844 8.132812 10.84375 8.171875 10.835938 C 8.234375 10.820312 8.289062 10.773438 8.308594 10.707031 C 8.320312 10.65625 8.316406 10.601562 8.316406 10.546875 L 8.316406 8.355469 C 8.316406 8.328125 8.316406 8.292969 8.316406 8.265625 C 8.308594 8.210938 8.277344 8.160156 8.234375 8.128906 C 8.183594 8.097656 8.128906 8.097656 8.074219 8.097656 L 4.054688 8.097656 C 4.019531 8.097656 3.976562 8.09375 3.941406 8.097656 M 14.566406 8.097656 C 14.554688 8.101562 14.546875 8.101562 14.535156 8.105469 C 14.480469 8.132812 14.488281 8.191406 14.488281 8.246094 L 14.488281 10.65625 C 14.488281 10.707031 14.472656 10.773438 14.511719 10.8125 C 14.539062 10.839844 14.570312 10.839844 14.605469 10.839844 L 18.414062 10.839844 C 18.445312 10.839844 18.484375 10.847656 18.511719 10.835938 C 18.5625 10.820312 18.585938 10.761719 18.5625 10.714844 C 18.546875 10.683594 18.515625 10.65625 18.492188 10.632812 C 18.449219 10.582031 18.40625 10.53125 18.359375 10.480469 C 18.261719 10.371094 18.167969 10.257812 18.070312 10.148438 C 17.871094 9.925781 17.671875 9.699219 17.472656 9.472656 C 17.191406 9.152344 16.910156 8.828125 16.625 8.507812 C 16.539062 8.414062 16.457031 8.320312 16.371094 8.226562 C 16.351562 8.203125 16.332031 8.175781 16.308594 8.152344 C 16.292969 8.136719 16.28125 8.117188 16.261719 8.105469 C 16.238281 8.097656 16.21875 8.097656 16.195312 8.097656 L 14.699219 8.097656 C 14.65625 8.097656 14.609375 8.09375 14.566406 8.097656 Z M 14.566406 8.097656 "/>
<path style=" stroke:none;fill-rule:nonzero;fill:rgb(0.392157%,0.392157%,0.392157%);fill-opacity:1;" d="M 11.109375 8.152344 L 11.109375 9.027344 C 11.085938 9.015625 11.066406 9.003906 11.042969 8.992188 C 11.007812 8.96875 10.96875 8.949219 10.933594 8.925781 C 10.804688 8.851562 10.675781 8.777344 10.546875 8.703125 C 10.5 8.675781 10.453125 8.648438 10.40625 8.621094 C 10.394531 8.613281 10.378906 8.605469 10.367188 8.597656 C 10.363281 8.597656 10.355469 8.589844 10.351562 8.589844 C 10.34375 8.59375 10.335938 8.613281 10.332031 8.621094 C 10.3125 8.648438 10.296875 8.679688 10.277344 8.710938 C 10.226562 8.800781 10.175781 8.886719 10.125 8.976562 C 10.109375 9.003906 10.09375 9.03125 10.078125 9.058594 C 10.070312 9.074219 10.058594 9.085938 10.054688 9.097656 C 10.105469 9.125 10.15625 9.15625 10.203125 9.183594 C 10.316406 9.25 10.429688 9.3125 10.539062 9.378906 C 10.597656 9.410156 10.65625 9.445312 10.714844 9.480469 C 10.746094 9.496094 10.785156 9.511719 10.8125 9.535156 C 10.789062 9.542969 10.765625 9.5625 10.742188 9.578125 C 10.695312 9.605469 10.652344 9.628906 10.605469 9.65625 C 10.484375 9.726562 10.363281 9.796875 10.242188 9.867188 C 10.179688 9.902344 10.121094 9.941406 10.054688 9.972656 L 10.089844 10.035156 L 10.148438 10.136719 L 10.347656 10.480469 L 10.410156 10.445312 L 11.039062 10.085938 L 11.109375 10.042969 L 11.109375 10.917969 L 11.695312 10.917969 L 11.695312 10.042969 C 11.714844 10.054688 11.738281 10.070312 11.757812 10.082031 C 11.792969 10.101562 11.832031 10.121094 11.867188 10.144531 C 11.996094 10.21875 12.128906 10.292969 12.257812 10.367188 C 12.320312 10.40625 12.386719 10.449219 12.453125 10.480469 L 12.523438 10.359375 L 12.65625 10.132812 L 12.71875 10.023438 L 12.746094 9.972656 L 12.5625 9.867188 L 12.199219 9.65625 L 12.0625 9.578125 L 11.988281 9.535156 L 12.066406 9.488281 L 12.238281 9.390625 L 12.746094 9.097656 L 12.714844 9.042969 L 12.667969 8.957031 L 12.527344 8.714844 L 12.453125 8.589844 C 12.429688 8.59375 12.40625 8.617188 12.382812 8.628906 C 12.328125 8.660156 12.277344 8.691406 12.222656 8.722656 C 12.109375 8.789062 11.996094 8.851562 11.886719 8.917969 C 11.839844 8.941406 11.796875 8.96875 11.75 8.996094 C 11.734375 9.003906 11.710938 9.015625 11.695312 9.027344 L 11.695312 8.152344 L 11.109375 8.152344 M 3 12.207031 L 3 12.796875 L 20.09375 12.796875 L 20.09375 12.207031 Z M 3 12.207031 "/>
<path style=" stroke:none;fill-rule:nonzero;fill:rgb(100%,100%,100%);fill-opacity:1;" d="M 6.34375 13.980469 C 6.292969 13.988281 6.238281 13.984375 6.1875 13.988281 C 6.0625 14 5.941406 14.019531 5.820312 14.050781 C 5.28125 14.199219 4.816406 14.546875 4.523438 15.023438 C 4.410156 15.210938 4.324219 15.414062 4.269531 15.628906 C 4.121094 16.214844 4.230469 16.855469 4.570312 17.359375 C 4.726562 17.59375 4.929688 17.796875 5.164062 17.957031 C 5.363281 18.09375 5.589844 18.195312 5.828125 18.257812 C 6.101562 18.332031 6.390625 18.347656 6.675781 18.308594 C 6.882812 18.28125 7.085938 18.222656 7.277344 18.136719 C 7.523438 18.023438 7.746094 17.867188 7.933594 17.675781 C 8.339844 17.261719 8.570312 16.6875 8.554688 16.109375 C 8.546875 15.800781 8.476562 15.5 8.347656 15.222656 C 8.089844 14.683594 7.605469 14.257812 7.035156 14.082031 C 6.871094 14.027344 6.699219 13.996094 6.527344 13.984375 C 6.492188 13.980469 6.457031 13.980469 6.421875 13.980469 C 6.398438 13.980469 6.371094 13.976562 6.34375 13.980469 M 16.496094 13.980469 C 16.445312 13.988281 16.394531 13.984375 16.339844 13.988281 C 16.21875 14 16.09375 14.019531 15.976562 14.050781 C 15.4375 14.199219 14.96875 14.546875 14.679688 15.023438 C 14.375 15.515625 14.285156 16.125 14.425781 16.6875 C 14.484375 16.921875 14.585938 17.148438 14.71875 17.351562 C 14.855469 17.558594 15.027344 17.738281 15.222656 17.886719 C 15.445312 18.058594 15.707031 18.183594 15.980469 18.257812 C 16.253906 18.332031 16.546875 18.347656 16.828125 18.308594 C 17.027344 18.285156 17.222656 18.226562 17.40625 18.148438 C 17.855469 17.953125 18.234375 17.597656 18.460938 17.160156 C 18.632812 16.839844 18.71875 16.472656 18.710938 16.109375 C 18.703125 15.800781 18.628906 15.5 18.5 15.222656 C 18.246094 14.683594 17.757812 14.257812 17.191406 14.082031 C 17.023438 14.027344 16.855469 13.996094 16.679688 13.984375 C 16.644531 13.980469 16.613281 13.980469 16.578125 13.980469 C 16.550781 13.980469 16.523438 13.976562 16.496094 13.980469 Z M 16.496094 13.980469 "/>
<path style=" stroke:none;fill-rule:nonzero;fill:rgb(0.392157%,0.392157%,0.392157%);fill-opacity:1;" d="M 6.359375 14.789062 C 6.324219 14.792969 6.289062 14.792969 6.257812 14.796875 C 6.183594 14.800781 6.113281 14.8125 6.042969 14.832031 C 5.71875 14.917969 5.425781 15.117188 5.242188 15.402344 C 5.160156 15.527344 5.097656 15.664062 5.058594 15.808594 C 4.957031 16.199219 5.039062 16.628906 5.277344 16.957031 C 5.363281 17.074219 5.464844 17.179688 5.585938 17.261719 C 5.722656 17.363281 5.878906 17.433594 6.042969 17.476562 C 6.214844 17.523438 6.394531 17.53125 6.566406 17.507812 C 6.957031 17.457031 7.316406 17.226562 7.527344 16.894531 C 7.625 16.742188 7.691406 16.570312 7.726562 16.390625 C 7.742188 16.304688 7.75 16.210938 7.746094 16.121094 C 7.738281 15.96875 7.714844 15.820312 7.660156 15.679688 C 7.511719 15.289062 7.191406 14.976562 6.789062 14.851562 C 6.6875 14.820312 6.582031 14.800781 6.476562 14.792969 C 6.4375 14.789062 6.398438 14.785156 6.359375 14.789062 M 16.511719 14.789062 C 16.480469 14.792969 16.445312 14.792969 16.410156 14.796875 C 16.332031 14.804688 16.25 14.816406 16.175781 14.835938 C 15.839844 14.929688 15.546875 15.152344 15.367188 15.449219 C 15.164062 15.785156 15.117188 16.203125 15.234375 16.574219 C 15.277344 16.710938 15.347656 16.839844 15.429688 16.957031 C 15.5 17.054688 15.589844 17.148438 15.683594 17.222656 C 15.832031 17.335938 15.996094 17.421875 16.175781 17.472656 C 16.351562 17.519531 16.539062 17.53125 16.722656 17.507812 C 17.113281 17.457031 17.46875 17.226562 17.683594 16.894531 C 17.785156 16.734375 17.855469 16.554688 17.882812 16.367188 C 17.894531 16.285156 17.902344 16.203125 17.898438 16.121094 C 17.894531 15.964844 17.867188 15.8125 17.8125 15.667969 C 17.664062 15.28125 17.339844 14.976562 16.945312 14.851562 C 16.84375 14.820312 16.738281 14.800781 16.632812 14.792969 C 16.59375 14.789062 16.550781 14.785156 16.511719 14.789062 Z M 16.511719 14.789062 "/>
<path style=" stroke:none;fill-rule:nonzero;fill:rgb(100%,100%,100%);fill-opacity:1;" d="M 6.355469 15.375 C 6.332031 15.378906 6.308594 15.378906 6.285156 15.382812 C 6.242188 15.386719 6.195312 15.394531 6.15625 15.410156 C 5.972656 15.464844 5.816406 15.585938 5.714844 15.75 C 5.558594 16.003906 5.566406 16.339844 5.734375 16.589844 C 5.789062 16.671875 5.859375 16.738281 5.9375 16.796875 C 6.015625 16.851562 6.105469 16.890625 6.199219 16.910156 C 6.289062 16.933594 6.382812 16.9375 6.476562 16.925781 C 6.742188 16.894531 6.976562 16.722656 7.089844 16.480469 C 7.132812 16.386719 7.15625 16.285156 7.160156 16.183594 C 7.175781 15.835938 6.941406 15.511719 6.609375 15.410156 C 6.546875 15.390625 6.480469 15.378906 6.414062 15.378906 C 6.394531 15.375 6.375 15.375 6.355469 15.375 M 16.507812 15.375 C 16.488281 15.378906 16.464844 15.378906 16.441406 15.382812 C 16.394531 15.386719 16.351562 15.394531 16.308594 15.410156 C 16.125 15.464844 15.960938 15.59375 15.863281 15.757812 C 15.703125 16.03125 15.726562 16.382812 15.917969 16.632812 C 15.972656 16.699219 16.039062 16.761719 16.109375 16.808594 C 16.1875 16.855469 16.269531 16.890625 16.355469 16.914062 C 16.445312 16.933594 16.539062 16.9375 16.628906 16.925781 C 16.894531 16.894531 17.132812 16.722656 17.242188 16.480469 C 17.285156 16.386719 17.308594 16.285156 17.3125 16.183594 C 17.328125 15.824219 17.078125 15.492188 16.730469 15.402344 C 16.675781 15.386719 16.621094 15.378906 16.566406 15.378906 C 16.546875 15.375 16.527344 15.375 16.507812 15.375 Z M 16.507812 15.375 "/>
</g>
</svg>
