<?xml version="1.0" encoding="UTF-8"?>
<svg xmlns="http://www.w3.org/2000/svg" xmlns:xlink="http://www.w3.org/1999/xlink" viewBox="0 0 24 24" version="1.1">
<g>
<path d="M 19.488281 8.988281 C 19.164062 8.898438 18.835938 8.816406 18.511719 8.730469 C 17.914062 8.574219 17.316406 8.414062 16.71875 8.253906 C 16.609375 8.226562 16.496094 8.1875 16.386719 8.179688 C 16.117188 8.167969 15.859375 8.34375 15.777344 8.601562 C 15.757812 8.667969 15.746094 8.738281 15.75 8.804688 C 15.757812 9.019531 15.875 9.21875 16.066406 9.320312 C 16.136719 9.359375 16.214844 9.378906 16.292969 9.398438 C 16.375 9.421875 16.453125 9.441406 16.535156 9.464844 C 17.449219 9.710938 18.367188 9.945312 19.285156 10.191406 C 19.550781 10.265625 19.820312 10.332031 20.089844 10.40625 C 20.160156 10.425781 20.230469 10.441406 20.300781 10.460938 C 20.394531 10.484375 20.484375 10.507812 20.582031 10.5 C 20.640625 10.496094 20.699219 10.484375 20.75 10.464844 C 20.894531 10.40625 21.023438 10.300781 21.085938 10.160156 C 21.128906 10.066406 21.148438 9.964844 21.175781 9.867188 C 21.207031 9.75 21.238281 9.628906 21.269531 9.507812 C 21.453125 8.816406 21.632812 8.125 21.820312 7.4375 C 21.910156 7.101562 22 6.765625 22.085938 6.429688 C 22.117188 6.300781 22.152344 6.171875 22.1875 6.046875 C 22.210938 5.957031 22.242188 5.863281 22.25 5.769531 C 22.265625 5.628906 22.226562 5.488281 22.148438 5.371094 C 22.117188 5.324219 22.082031 5.285156 22.042969 5.25 C 21.828125 5.070312 21.503906 5.0625 21.277344 5.230469 C 21.207031 5.285156 21.152344 5.355469 21.109375 5.433594 C 21.078125 5.488281 21.0625 5.546875 21.046875 5.605469 C 21.03125 5.667969 21.015625 5.730469 21 5.789062 C 20.945312 6.003906 20.886719 6.214844 20.832031 6.429688 C 20.734375 6.796875 20.636719 7.164062 20.539062 7.53125 C 20.507812 7.648438 20.476562 7.765625 20.445312 7.882812 C 20.429688 7.9375 20.40625 7.996094 20.398438 8.054688 C 20.382812 8.023438 20.367188 7.984375 20.351562 7.953125 C 20.320312 7.886719 20.289062 7.824219 20.253906 7.761719 C 20.152344 7.5625 20.042969 7.367188 19.921875 7.175781 C 19.601562 6.660156 19.238281 6.171875 18.824219 5.730469 C 18.695312 5.585938 18.558594 5.449219 18.417969 5.316406 C 18.09375 5.015625 17.757812 4.734375 17.402344 4.480469 C 17.0625 4.242188 16.710938 4.027344 16.347656 3.832031 C 15.992188 3.640625 15.613281 3.476562 15.230469 3.335938 C 14.074219 2.914062 12.84375 2.714844 11.613281 2.765625 C 10.777344 2.804688 9.953125 2.960938 9.15625 3.214844 C 8.949219 3.277344 8.75 3.355469 8.550781 3.4375 C 7.460938 3.875 6.453125 4.519531 5.601562 5.332031 C 5.113281 5.800781 4.675781 6.324219 4.300781 6.886719 C 4.042969 7.277344 3.808594 7.6875 3.613281 8.113281 C 3.570312 8.207031 3.519531 8.296875 3.492188 8.398438 C 3.453125 8.546875 3.472656 8.714844 3.546875 8.847656 C 3.578125 8.90625 3.621094 8.960938 3.671875 9.003906 C 3.859375 9.167969 4.132812 9.207031 4.355469 9.09375 C 4.421875 9.058594 4.480469 9.011719 4.53125 8.957031 C 4.601562 8.878906 4.636719 8.789062 4.679688 8.695312 C 4.726562 8.59375 4.773438 8.496094 4.824219 8.398438 C 4.976562 8.089844 5.15625 7.789062 5.351562 7.5 C 6.019531 6.519531 6.898438 5.699219 7.917969 5.09375 C 8.289062 4.871094 8.683594 4.683594 9.085938 4.527344 C 9.230469 4.472656 9.375 4.417969 9.523438 4.371094 C 10.339844 4.109375 11.199219 3.960938 12.054688 3.972656 C 12.5 3.976562 12.9375 4.015625 13.375 4.089844 C 14.324219 4.25 15.246094 4.585938 16.078125 5.070312 C 16.808594 5.496094 17.46875 6.035156 18.035156 6.664062 C 18.480469 7.160156 18.867188 7.714844 19.171875 8.308594 C 19.25 8.460938 19.324219 8.609375 19.390625 8.765625 C 19.414062 8.8125 19.433594 8.859375 19.453125 8.910156 C 19.464844 8.933594 19.480469 8.960938 19.488281 8.988281 M 3.640625 16.03125 C 3.652344 16.066406 3.671875 16.097656 3.691406 16.128906 C 3.71875 16.1875 3.746094 16.246094 3.777344 16.304688 C 3.871094 16.480469 3.964844 16.652344 4.066406 16.820312 C 4.359375 17.308594 4.695312 17.773438 5.074219 18.195312 C 5.222656 18.363281 5.371094 18.523438 5.53125 18.675781 C 5.75 18.882812 5.96875 19.085938 6.203125 19.273438 C 6.792969 19.75 7.449219 20.15625 8.136719 20.472656 C 8.910156 20.828125 9.734375 21.082031 10.578125 21.210938 C 11.007812 21.277344 11.4375 21.3125 11.871094 21.324219 C 12.203125 21.332031 12.535156 21.316406 12.859375 21.285156 C 14.101562 21.167969 15.320312 20.808594 16.421875 20.214844 C 16.878906 19.964844 17.316406 19.683594 17.726562 19.363281 C 18.621094 18.667969 19.386719 17.804688 19.972656 16.828125 C 20.140625 16.550781 20.292969 16.265625 20.429688 15.96875 C 20.472656 15.878906 20.523438 15.785156 20.550781 15.6875 C 20.59375 15.527344 20.566406 15.351562 20.480469 15.210938 C 20.445312 15.152344 20.398438 15.101562 20.34375 15.058594 C 20.089844 14.851562 19.695312 14.890625 19.488281 15.148438 C 19.433594 15.222656 19.398438 15.304688 19.363281 15.386719 C 19.308594 15.5 19.257812 15.613281 19.199219 15.722656 C 19.023438 16.0625 18.824219 16.390625 18.605469 16.703125 C 17.730469 17.941406 16.511719 18.917969 15.109375 19.496094 C 15.074219 19.511719 15.039062 19.527344 15 19.539062 C 14.980469 19.546875 14.960938 19.550781 14.941406 19.558594 C 14.347656 19.789062 13.726562 19.957031 13.097656 20.039062 C 12.773438 20.082031 12.453125 20.101562 12.128906 20.109375 C 11.804688 20.117188 11.476562 20.09375 11.152344 20.0625 C 10.800781 20.027344 10.457031 19.960938 10.117188 19.882812 C 9.5 19.734375 8.898438 19.507812 8.339844 19.21875 C 7.605469 18.84375 6.9375 18.355469 6.347656 17.78125 C 5.800781 17.25 5.335938 16.625 4.964844 15.960938 C 4.867188 15.777344 4.773438 15.59375 4.6875 15.40625 C 4.640625 15.304688 4.601562 15.195312 4.550781 15.09375 C 4.625 15.117188 4.699219 15.132812 4.773438 15.152344 C 4.914062 15.191406 5.054688 15.226562 5.195312 15.265625 C 5.617188 15.375 6.039062 15.488281 6.460938 15.597656 C 6.71875 15.667969 6.972656 15.734375 7.226562 15.800781 C 7.300781 15.820312 7.378906 15.839844 7.453125 15.859375 C 7.503906 15.875 7.558594 15.890625 7.613281 15.898438 C 7.859375 15.921875 8.109375 15.800781 8.222656 15.574219 C 8.265625 15.496094 8.285156 15.410156 8.289062 15.324219 C 8.296875 15.261719 8.285156 15.199219 8.273438 15.140625 C 8.261719 15.097656 8.242188 15.050781 8.21875 15.011719 C 8.160156 14.886719 8.046875 14.789062 7.917969 14.734375 C 7.84375 14.703125 7.765625 14.6875 7.6875 14.667969 C 7.570312 14.636719 7.457031 14.605469 7.34375 14.574219 C 6.460938 14.335938 5.574219 14.105469 4.691406 13.875 C 4.429688 13.804688 4.171875 13.734375 3.910156 13.667969 C 3.847656 13.648438 3.78125 13.632812 3.71875 13.617188 C 3.640625 13.59375 3.558594 13.574219 3.476562 13.578125 C 3.414062 13.585938 3.351562 13.59375 3.289062 13.617188 C 3.148438 13.671875 3.035156 13.773438 2.964844 13.90625 C 2.925781 13.980469 2.90625 14.066406 2.882812 14.148438 C 2.851562 14.273438 2.820312 14.402344 2.785156 14.527344 C 2.738281 14.691406 2.695312 14.855469 2.652344 15.019531 C 2.574219 15.324219 2.492188 15.625 2.410156 15.929688 C 2.265625 16.484375 2.113281 17.035156 1.972656 17.589844 C 1.9375 17.730469 1.898438 17.871094 1.859375 18.011719 C 1.832031 18.117188 1.796875 18.222656 1.789062 18.332031 C 1.773438 18.523438 1.855469 18.714844 2.003906 18.835938 C 2.183594 18.988281 2.4375 19.019531 2.652344 18.921875 C 2.714844 18.890625 2.769531 18.851562 2.820312 18.804688 C 2.867188 18.757812 2.90625 18.703125 2.933594 18.648438 C 2.988281 18.542969 3.007812 18.417969 3.039062 18.308594 C 3.09375 18.105469 3.144531 17.902344 3.199219 17.699219 C 3.296875 17.332031 3.394531 16.964844 3.492188 16.59375 C 3.523438 16.46875 3.558594 16.34375 3.589844 16.21875 C 3.609375 16.15625 3.628906 16.09375 3.640625 16.03125 Z M 3.640625 16.03125 "/>
</g>
</svg>
