<?xml version="1.0" encoding="UTF-8"?>
<svg xmlns="http://www.w3.org/2000/svg" xmlns:xlink="http://www.w3.org/1999/xlink" viewBox="0 0 24 24" version="1.1">
<g>
<path style="fill-rule:nonzero;fill:rgb(0%,0%,0%);fill-opacity:1;stroke-width:1;stroke-linecap:butt;stroke-linejoin:miter;stroke:rgb(0%,0%,0%);stroke-opacity:1;stroke-miterlimit:4;" d="M 1757.486979 225.543478 C 1738.28125 229.959239 1721.679688 244.225543 1714.518229 262.567935 L 1711.588542 270.380435 L 1710.9375 594.429348 C 1710.286458 915.421196 1710.286458 918.478261 1708.333333 927.98913 C 1705.403646 942.255435 1701.171875 957.201087 1698.567708 963.315217 C 1694.010417 974.184783 1682.942708 994.565217 1679.036458 999.660326 C 1676.757812 1002.377717 1673.828125 1006.11413 1672.526042 1008.152174 C 1667.317708 1016.304348 1640.299479 1041.100543 1633.138021 1044.497283 C 1631.184896 1045.516304 1628.580729 1046.875 1627.604167 1047.894022 C 1624.023438 1050.951087 1609.700521 1058.763587 1604.492188 1060.122283 C 1601.888021 1061.141304 1595.377604 1063.519022 1589.84375 1065.557065 C 1584.635417 1067.255435 1575.195312 1070.3125 1568.359375 1071.671196 L 1556.640625 1074.388587 L 324.869792 1075.067935 L 498.046875 901.154891 C 593.424479 805.706522 675.130208 723.845109 679.361979 719.769022 C 688.476562 710.258152 696.289062 699.048913 698.893229 691.236413 C 700.195312 686.820652 700.520833 682.065217 700.520833 672.554348 C 700.520833 659.986413 700.195312 659.307065 697.265625 651.834239 C 695.3125 647.418478 693.359375 643.342391 692.708333 642.663043 C 692.057292 641.983696 690.104167 639.605978 688.151042 636.888587 C 684.244792 631.11413 681.966146 629.076087 673.502604 623.641304 C 662.434896 616.168478 655.924479 614.470109 640.950521 614.470109 C 629.557292 614.809783 627.929688 614.809783 621.419271 617.527174 C 617.513021 619.225543 612.304688 621.942935 609.700521 623.641304 C 607.096354 625.679348 604.817708 627.038043 604.492188 627.038043 C 604.166667 627.038043 498.697917 732.336957 369.791667 861.07337 C 158.854167 1072.350543 135.416667 1096.127717 130.859375 1103.26087 C 124.023438 1114.809783 122.395833 1119.904891 122.395833 1133.831522 C 122.395833 1147.418478 124.674479 1155.570652 130.533854 1164.0625 C 132.486979 1166.779891 134.114583 1169.497283 134.114583 1169.836957 C 134.114583 1171.195652 604.817708 1641.983696 606.119792 1641.983696 C 606.770833 1641.983696 609.375 1643.682065 611.979167 1645.380435 C 620.442708 1651.154891 628.90625 1653.532609 641.601562 1653.532609 C 651.041667 1653.532609 653.645833 1653.192935 660.481771 1650.815217 C 665.039062 1649.116848 670.572917 1646.73913 672.526042 1645.040761 C 674.804688 1643.342391 677.083333 1641.983696 677.734375 1641.983696 C 679.361979 1641.983696 691.40625 1627.717391 694.335938 1622.282609 C 698.893229 1613.111413 700.195312 1608.355978 700.846354 1596.807065 C 701.171875 1586.277174 700.846354 1584.23913 698.567708 1577.105978 C 697.265625 1572.350543 694.010417 1566.236413 691.080729 1561.820652 C 687.5 1556.38587 639.648438 1508.152174 506.184896 1374.660326 L 326.497396 1194.633152 L 942.057292 1193.953804 C 1512.044271 1193.61413 1558.268229 1193.274457 1569.010417 1191.576087 C 1590.169271 1188.519022 1603.841146 1185.461957 1630.859375 1177.309783 C 1637.044271 1175.611413 1647.460938 1171.195652 1656.25 1166.779891 C 1659.505208 1165.421196 1662.434896 1164.0625 1663.085938 1164.0625 C 1663.736979 1164.0625 1669.270833 1161.345109 1675.130208 1157.608696 C 1681.315104 1154.211957 1688.476562 1150.13587 1691.40625 1148.777174 C 1694.010417 1147.078804 1697.591146 1145.040761 1698.567708 1144.021739 C 1706.705729 1137.907609 1711.914062 1133.831522 1712.565104 1133.831522 C 1712.890625 1133.831522 1718.75 1129.076087 1725.911458 1122.961957 C 1739.583333 1111.413043 1753.90625 1096.807065 1762.695312 1085.597826 C 1765.950521 1081.521739 1770.182292 1076.42663 1772.135417 1074.048913 C 1774.414062 1071.671196 1776.041667 1069.293478 1776.041667 1068.61413 C 1776.041667 1068.274457 1778.320312 1064.19837 1781.25 1060.122283 C 1784.505208 1056.046196 1788.411458 1049.252717 1790.364583 1045.516304 C 1792.643229 1041.779891 1796.223958 1034.307065 1799.153646 1029.55163 C 1801.757812 1024.456522 1804.6875 1018.342391 1805.338542 1015.625 C 1806.315104 1012.907609 1808.59375 1007.133152 1810.546875 1002.717391 C 1814.453125 992.866848 1819.661458 977.241848 1820.638021 971.467391 C 1820.963542 969.429348 1822.265625 961.956522 1823.567708 955.502717 C 1829.427083 926.630435 1829.101562 945.3125 1829.101562 596.467391 C 1829.101562 241.847826 1829.427083 271.399457 1822.591146 256.793478 C 1819.010417 249.320652 1810.872396 239.130435 1808.59375 239.130435 C 1807.942708 239.130435 1806.315104 237.771739 1805.338542 236.413043 C 1802.408854 233.355978 1791.015625 227.581522 1784.505208 226.222826 C 1776.692708 224.184783 1765.299479 223.845109 1757.486979 225.543478 " transform="matrix(0.012,0,0,0.0115,0,0.5)"/>
</g>
</svg>
