<?xml version="1.0" encoding="UTF-8"?>
<svg xmlns="http://www.w3.org/2000/svg" xmlns:xlink="http://www.w3.org/1999/xlink" viewBox="0 0 24 24" version="1.1">
<g>
<path style=" stroke:none;fill-rule:nonzero;fill:rgb(0.392157%,0.392157%,0.392157%);fill-opacity:1;" d="M 19.675781 11.457031 L 2.421875 11.457031 C 2.367188 11.457031 2.3125 11.453125 2.257812 11.457031 C 1.988281 11.484375 1.753906 11.664062 1.660156 11.917969 C 1.628906 12.007812 1.617188 12.101562 1.617188 12.195312 C 1.625 12.4375 1.777344 12.667969 1.988281 12.78125 C 2.082031 12.835938 2.191406 12.863281 2.300781 12.867188 C 2.429688 12.871094 2.5625 12.867188 2.691406 12.867188 L 19.675781 12.867188 C 19 13.542969 18.324219 14.21875 17.648438 14.894531 L 16.414062 16.128906 C 16.140625 16.402344 15.867188 16.675781 15.589844 16.953125 L 15.433594 17.109375 C 15.390625 17.152344 15.34375 17.195312 15.304688 17.242188 C 15.253906 17.308594 15.210938 17.386719 15.1875 17.46875 C 15.109375 17.71875 15.171875 18.007812 15.363281 18.191406 C 15.417969 18.242188 15.480469 18.289062 15.546875 18.320312 C 15.640625 18.367188 15.746094 18.390625 15.847656 18.390625 C 15.9375 18.394531 16.03125 18.375 16.117188 18.34375 C 16.1875 18.316406 16.253906 18.273438 16.3125 18.226562 C 16.355469 18.191406 16.390625 18.152344 16.429688 18.113281 L 16.636719 17.902344 L 17.542969 17 L 21.835938 12.707031 C 21.882812 12.660156 21.929688 12.617188 21.964844 12.5625 C 22.042969 12.445312 22.089844 12.304688 22.089844 12.164062 C 22.089844 12.007812 22.039062 11.855469 21.945312 11.734375 C 21.914062 11.6875 21.871094 11.652344 21.832031 11.609375 L 16.433594 6.210938 C 16.390625 6.171875 16.351562 6.125 16.304688 6.089844 C 16.246094 6.039062 16.179688 6.003906 16.109375 5.976562 C 15.804688 5.859375 15.445312 5.972656 15.265625 6.25 C 15.195312 6.355469 15.160156 6.476562 15.152344 6.601562 C 15.148438 6.683594 15.160156 6.765625 15.183594 6.84375 C 15.203125 6.910156 15.234375 6.976562 15.277344 7.035156 C 15.316406 7.09375 15.367188 7.144531 15.417969 7.195312 L 15.597656 7.371094 L 16.414062 8.191406 L 17.648438 9.425781 C 18.324219 10.101562 19 10.777344 19.675781 11.457031 Z M 19.675781 11.457031 "/>
</g>
</svg>
