<?xml version="1.0" encoding="UTF-8"?>
<svg xmlns="http://www.w3.org/2000/svg" xmlns:xlink="http://www.w3.org/1999/xlink" viewBox="0 0 24 24" version="1.1">
<g>
<path style=" stroke:none;fill-rule:nonzero;fill:rgb(0.392157%,0.392157%,0.392157%);fill-opacity:1;" d="M 11.9375 18.78125 L 10.195312 17.035156 C 9.839844 16.679688 9.484375 16.328125 9.128906 15.972656 L 8.421875 15.265625 C 8.285156 15.128906 8.160156 14.96875 7.96875 14.910156 C 7.714844 14.832031 7.429688 14.933594 7.28125 15.152344 C 7.242188 15.214844 7.214844 15.28125 7.195312 15.347656 C 7.183594 15.402344 7.175781 15.460938 7.179688 15.515625 C 7.1875 15.578125 7.195312 15.636719 7.214844 15.695312 C 7.238281 15.765625 7.273438 15.828125 7.320312 15.882812 C 7.355469 15.921875 7.394531 15.957031 7.429688 15.996094 L 8.371094 16.9375 L 11.183594 19.746094 L 12.074219 20.636719 C 12.113281 20.675781 12.152344 20.71875 12.199219 20.75 C 12.3125 20.824219 12.4375 20.859375 12.570312 20.855469 C 12.683594 20.855469 12.808594 20.816406 12.902344 20.746094 C 12.988281 20.683594 13.066406 20.59375 13.140625 20.515625 L 13.925781 19.734375 L 16.71875 16.9375 L 17.496094 16.164062 L 17.671875 15.988281 C 17.707031 15.953125 17.742188 15.917969 17.777344 15.878906 C 17.820312 15.828125 17.851562 15.769531 17.875 15.707031 C 17.976562 15.441406 17.875 15.128906 17.632812 14.976562 C 17.542969 14.921875 17.441406 14.890625 17.335938 14.882812 C 17.265625 14.878906 17.195312 14.890625 17.128906 14.910156 C 16.9375 14.96875 16.808594 15.128906 16.671875 15.265625 L 15.964844 15.972656 C 15.613281 16.328125 15.257812 16.679688 14.902344 17.035156 C 14.320312 17.617188 13.738281 18.199219 13.15625 18.78125 L 13.15625 4.144531 C 13.15625 4.035156 13.160156 3.921875 13.15625 3.808594 C 13.152344 3.710938 13.125 3.613281 13.074219 3.527344 C 12.96875 3.347656 12.769531 3.226562 12.558594 3.222656 C 12.464844 3.222656 12.371094 3.242188 12.285156 3.285156 C 12.089844 3.375 11.957031 3.574219 11.941406 3.792969 C 11.933594 3.910156 11.9375 4.03125 11.9375 4.148438 Z M 11.9375 18.78125 "/>
</g>
</svg>
