<?xml version="1.0" encoding="UTF-8"?>
<svg xmlns="http://www.w3.org/2000/svg" xmlns:xlink="http://www.w3.org/1999/xlink" viewBox="0 0 24 24" version="1.1">
<g>
<path style=" stroke:none;fill-rule:nonzero;fill:rgb(0.392157%,0.392157%,0.392157%);fill-opacity:1;" d="M 4.304688 12.867188 L 21.304688 12.867188 C 21.433594 12.867188 21.566406 12.871094 21.695312 12.867188 C 22.046875 12.851562 22.355469 12.550781 22.363281 12.195312 C 22.367188 12.101562 22.355469 12.011719 22.324219 11.921875 C 22.230469 11.660156 21.992188 11.484375 21.71875 11.457031 C 21.667969 11.453125 21.621094 11.457031 21.570312 11.457031 L 4.304688 11.457031 L 6.332031 9.429688 L 7.566406 8.191406 L 8.554688 7.203125 C 8.589844 7.171875 8.625 7.136719 8.65625 7.101562 C 8.71875 7.03125 8.769531 6.945312 8.796875 6.855469 C 8.882812 6.578125 8.800781 6.273438 8.570312 6.085938 C 8.515625 6.042969 8.457031 6.007812 8.394531 5.980469 C 8.304688 5.945312 8.210938 5.929688 8.117188 5.929688 C 8.035156 5.929688 7.953125 5.945312 7.875 5.972656 C 7.796875 6.003906 7.726562 6.046875 7.664062 6.097656 C 7.621094 6.136719 7.582031 6.179688 7.539062 6.21875 L 7.339844 6.421875 L 6.433594 7.324219 L 3.191406 10.566406 L 2.304688 11.457031 L 2.152344 11.605469 C 2.109375 11.652344 2.0625 11.695312 2.027344 11.746094 C 1.941406 11.863281 1.894531 12.015625 1.894531 12.160156 C 1.894531 12.308594 1.941406 12.457031 2.027344 12.574219 C 2.0625 12.625 2.109375 12.667969 2.152344 12.714844 L 2.316406 12.875 L 3.191406 13.753906 L 6.4375 17 C 6.742188 17.300781 7.042969 17.605469 7.34375 17.90625 L 7.550781 18.113281 C 7.644531 18.207031 7.738281 18.296875 7.863281 18.34375 C 8.140625 18.449219 8.460938 18.375 8.65625 18.152344 C 8.707031 18.097656 8.746094 18.03125 8.777344 17.960938 C 8.804688 17.890625 8.824219 17.8125 8.828125 17.734375 C 8.835938 17.648438 8.824219 17.558594 8.796875 17.472656 C 8.773438 17.386719 8.730469 17.308594 8.671875 17.238281 C 8.636719 17.191406 8.589844 17.152344 8.550781 17.109375 L 8.390625 16.949219 L 7.566406 16.128906 Z M 4.304688 12.867188 "/>
</g>
</svg>
