<?xml version="1.0" encoding="UTF-8"?>
<svg xmlns="http://www.w3.org/2000/svg" xmlns:xlink="http://www.w3.org/1999/xlink" viewBox="0 0 24 24" version="1.1">
<g>
<path style=" stroke:none;fill-rule:nonzero;fill:rgb(0.392157%,0.392157%,0.392157%);fill-opacity:1;" d="M 11.53125 5.300781 L 11.53125 19.9375 C 11.53125 20.046875 11.523438 20.160156 11.53125 20.273438 C 11.542969 20.535156 11.71875 20.761719 11.972656 20.835938 C 12.015625 20.847656 12.0625 20.855469 12.109375 20.855469 C 12.195312 20.859375 12.28125 20.847656 12.363281 20.8125 C 12.574219 20.730469 12.722656 20.53125 12.742188 20.308594 C 12.746094 20.261719 12.746094 20.214844 12.746094 20.167969 L 12.746094 5.304688 L 14.492188 7.050781 L 15.558594 8.113281 L 16.265625 8.824219 C 16.398438 8.957031 16.523438 9.113281 16.710938 9.171875 C 16.789062 9.195312 16.867188 9.203125 16.945312 9.199219 C 17.007812 9.195312 17.066406 9.179688 17.121094 9.160156 C 17.195312 9.128906 17.261719 9.085938 17.320312 9.03125 C 17.496094 8.863281 17.550781 8.597656 17.464844 8.371094 C 17.421875 8.261719 17.347656 8.183594 17.265625 8.101562 L 13.519531 4.355469 C 13.253906 4.089844 12.988281 3.824219 12.722656 3.558594 C 12.648438 3.484375 12.578125 3.402344 12.496094 3.339844 C 12.40625 3.273438 12.28125 3.226562 12.171875 3.226562 C 12.03125 3.222656 11.894531 3.253906 11.78125 3.339844 C 11.734375 3.375 11.695312 3.414062 11.65625 3.457031 L 11.496094 3.617188 L 10.777344 4.332031 C 9.839844 5.269531 8.902344 6.207031 7.964844 7.144531 L 7.191406 7.921875 L 7.019531 8.09375 C 6.976562 8.132812 6.933594 8.171875 6.898438 8.21875 C 6.859375 8.269531 6.828125 8.324219 6.804688 8.386719 C 6.78125 8.449219 6.769531 8.519531 6.769531 8.589844 C 6.769531 8.683594 6.792969 8.78125 6.835938 8.867188 C 6.96875 9.132812 7.28125 9.261719 7.5625 9.171875 C 7.75 9.113281 7.875 8.957031 8.007812 8.824219 L 9.78125 7.050781 C 10.367188 6.46875 10.945312 5.882812 11.53125 5.300781 Z M 11.53125 5.300781 "/>
</g>
</svg>
