<?xml version="1.0" encoding="UTF-8"?>
<svg xmlns="http://www.w3.org/2000/svg" xmlns:xlink="http://www.w3.org/1999/xlink" viewBox="0 0 24 24" version="1.1">
<g>
<path style=" stroke:none;fill-rule:nonzero;fill:rgb(0%,0%,0%);fill-opacity:1;" d="M 12.285156 2.761719 C 11.597656 2.773438 10.9375 2.855469 10.28125 3.015625 C 9.328125 3.242188 8.40625 3.628906 7.566406 4.140625 C 7.039062 4.464844 6.546875 4.839844 6.097656 5.265625 C 5.949219 5.402344 5.773438 5.578125 5.632812 5.726562 C 5.105469 6.296875 4.652344 6.929688 4.28125 7.609375 C 4.214844 7.738281 4.136719 7.890625 4.078125 8.015625 C 4.0625 8.042969 4.058594 8.050781 4.058594 8.046875 C 4.058594 8.046875 3.910156 7.484375 3.726562 6.796875 C 3.527344 6.039062 3.394531 5.539062 3.386719 5.523438 C 3.34375 5.386719 3.253906 5.273438 3.132812 5.199219 C 3.121094 5.191406 3.101562 5.179688 3.085938 5.171875 C 2.988281 5.125 2.890625 5.105469 2.785156 5.109375 C 2.59375 5.113281 2.417969 5.214844 2.3125 5.371094 C 2.253906 5.453125 2.222656 5.539062 2.210938 5.640625 C 2.203125 5.671875 2.203125 5.734375 2.207031 5.769531 C 2.210938 5.800781 2.214844 5.832031 2.222656 5.855469 C 2.226562 5.878906 3.332031 10.050781 3.335938 10.070312 C 3.394531 10.273438 3.5625 10.429688 3.769531 10.484375 C 3.859375 10.507812 3.957031 10.507812 4.046875 10.488281 C 4.082031 10.480469 8.277344 9.367188 8.296875 9.363281 C 8.464844 9.304688 8.601562 9.175781 8.664062 9.007812 C 8.683594 8.960938 8.695312 8.910156 8.703125 8.855469 C 8.707031 8.824219 8.707031 8.746094 8.703125 8.714844 C 8.699219 8.683594 8.695312 8.664062 8.6875 8.636719 C 8.652344 8.492188 8.5625 8.367188 8.4375 8.28125 C 8.382812 8.246094 8.3125 8.214844 8.246094 8.199219 C 8.203125 8.1875 8.164062 8.183594 8.117188 8.183594 C 8.070312 8.179688 8.03125 8.183594 7.984375 8.191406 C 7.96875 8.195312 7.289062 8.375 6.464844 8.59375 C 5.644531 8.8125 4.96875 8.988281 4.96875 8.988281 C 4.96875 8.988281 5.027344 8.851562 5.066406 8.761719 C 5.367188 8.078125 5.757812 7.453125 6.234375 6.878906 C 6.394531 6.6875 6.542969 6.523438 6.726562 6.339844 C 6.882812 6.183594 7.019531 6.058594 7.179688 5.921875 C 7.734375 5.445312 8.339844 5.054688 9.003906 4.742188 C 10.183594 4.1875 11.476562 3.925781 12.769531 3.976562 C 13.621094 4.011719 14.460938 4.183594 15.265625 4.488281 C 15.632812 4.625 15.980469 4.78125 16.3125 4.964844 C 17.0625 5.375 17.734375 5.894531 18.316406 6.515625 C 18.984375 7.230469 19.519531 8.058594 19.894531 8.96875 C 20.355469 10.089844 20.5625 11.292969 20.492188 12.496094 C 20.425781 13.679688 20.09375 14.851562 19.523438 15.902344 C 19.113281 16.65625 18.585938 17.335938 17.960938 17.921875 C 17.476562 18.378906 16.933594 18.773438 16.351562 19.097656 C 16.1875 19.1875 16.011719 19.277344 15.847656 19.355469 C 15.066406 19.71875 14.230469 19.953125 13.378906 20.054688 C 12.953125 20.105469 12.527344 20.121094 12.097656 20.105469 C 11.15625 20.066406 10.222656 19.855469 9.34375 19.492188 C 8.636719 19.199219 7.980469 18.8125 7.386719 18.335938 C 7.089844 18.097656 6.820312 17.847656 6.5625 17.574219 C 6.074219 17.054688 5.65625 16.46875 5.320312 15.839844 C 5.230469 15.675781 5.144531 15.496094 5.070312 15.328125 C 5.058594 15.304688 5.042969 15.273438 5.039062 15.261719 C 4.953125 15.089844 4.792969 14.96875 4.605469 14.933594 C 4.476562 14.910156 4.347656 14.925781 4.226562 14.984375 C 4.214844 14.992188 4.199219 15 4.191406 15.003906 C 4.171875 15.015625 4.132812 15.042969 4.113281 15.058594 C 4.09375 15.074219 4.054688 15.109375 4.035156 15.132812 C 3.953125 15.226562 3.902344 15.347656 3.890625 15.472656 C 3.886719 15.507812 3.890625 15.574219 3.894531 15.605469 C 3.898438 15.648438 3.90625 15.683594 3.917969 15.71875 C 3.925781 15.746094 3.933594 15.761719 3.957031 15.816406 C 4.1875 16.328125 4.460938 16.820312 4.773438 17.277344 C 5.160156 17.847656 5.605469 18.363281 6.109375 18.832031 C 6.671875 19.359375 7.304688 19.8125 7.984375 20.183594 C 9.21875 20.855469 10.582031 21.242188 11.972656 21.3125 C 12.144531 21.320312 12.226562 21.324219 12.433594 21.324219 C 12.632812 21.324219 12.695312 21.320312 12.855469 21.316406 C 14.316406 21.25 15.757812 20.832031 17.03125 20.105469 C 18.015625 19.542969 18.882812 18.8125 19.601562 17.945312 C 20.417969 16.949219 21.027344 15.785156 21.378906 14.527344 C 21.570312 13.835938 21.683594 13.117188 21.710938 12.398438 C 21.71875 12.265625 21.71875 12.226562 21.71875 12.042969 C 21.71875 11.839844 21.714844 11.757812 21.707031 11.59375 C 21.640625 10.210938 21.261719 8.859375 20.609375 7.640625 C 20.226562 6.933594 19.753906 6.277344 19.207031 5.691406 C 19.078125 5.554688 18.921875 5.398438 18.785156 5.269531 C 17.878906 4.417969 16.8125 3.765625 15.636719 3.332031 C 14.703125 2.988281 13.738281 2.800781 12.75 2.765625 C 12.621094 2.761719 12.402344 2.757812 12.285156 2.761719 Z M 12.285156 2.761719 "/>
</g>
</svg>
