<?xml version="1.0" encoding="UTF-8"?>
<svg xmlns="http://www.w3.org/2000/svg" xmlns:xlink="http://www.w3.org/1999/xlink" viewBox="0 0 24 24" version="1.1">
<g>
<path style=" stroke:none;fill-rule:nonzero;fill:rgb(0%,0%,0%);fill-opacity:1;" d="M 11.128906 2.761719 C 10.246094 2.777344 9.367188 2.917969 8.523438 3.183594 C 7.324219 3.558594 6.222656 4.167969 5.277344 4.96875 C 5.085938 5.128906 4.925781 5.277344 4.746094 5.457031 C 4.5625 5.640625 4.402344 5.8125 4.238281 6 C 3.679688 6.65625 3.210938 7.386719 2.851562 8.171875 C 2.355469 9.253906 2.070312 10.425781 2.015625 11.609375 C 2.007812 11.765625 2.007812 11.851562 2.007812 12.042969 C 2.007812 12.21875 2.007812 12.265625 2.011719 12.394531 C 2.035156 12.964844 2.109375 13.53125 2.234375 14.089844 C 2.507812 15.289062 3.019531 16.4375 3.734375 17.433594 C 4.152344 18.019531 4.625 18.542969 5.171875 19.023438 C 5.285156 19.121094 5.4375 19.246094 5.558594 19.34375 C 6.128906 19.789062 6.746094 20.167969 7.402344 20.46875 C 8.480469 20.96875 9.65625 21.257812 10.839844 21.3125 C 11.113281 21.328125 11.394531 21.328125 11.660156 21.316406 C 12.761719 21.273438 13.851562 21.027344 14.878906 20.597656 C 15.914062 20.164062 16.851562 19.554688 17.65625 18.792969 C 17.78125 18.675781 17.921875 18.535156 18.039062 18.414062 C 18.601562 17.816406 19.078125 17.148438 19.46875 16.421875 C 19.511719 16.34375 19.53125 16.300781 19.585938 16.195312 C 19.664062 16.042969 19.722656 15.910156 19.78125 15.78125 C 19.820312 15.691406 19.835938 15.617188 19.835938 15.527344 C 19.835938 15.476562 19.832031 15.441406 19.820312 15.390625 C 19.789062 15.257812 19.714844 15.140625 19.609375 15.054688 C 19.574219 15.027344 19.539062 15.007812 19.496094 14.984375 C 19.390625 14.933594 19.273438 14.914062 19.152344 14.929688 C 18.980469 14.949219 18.820312 15.046875 18.726562 15.191406 C 18.699219 15.230469 18.691406 15.25 18.664062 15.308594 C 18.566406 15.527344 18.457031 15.75 18.339844 15.960938 C 17.914062 16.726562 17.367188 17.421875 16.71875 18.007812 C 16.113281 18.5625 15.425781 19.019531 14.671875 19.363281 C 13.742188 19.796875 12.734375 20.046875 11.714844 20.101562 C 11.582031 20.105469 11.488281 20.109375 11.347656 20.109375 C 10.667969 20.117188 9.988281 20.035156 9.324219 19.867188 C 8.082031 19.554688 6.925781 18.949219 5.964844 18.105469 C 5.773438 17.9375 5.574219 17.746094 5.402344 17.5625 C 4.777344 16.898438 4.269531 16.125 3.898438 15.285156 C 3.511719 14.394531 3.285156 13.460938 3.230469 12.503906 C 3.222656 12.328125 3.21875 12.195312 3.21875 11.996094 C 3.21875 11.863281 3.21875 11.828125 3.222656 11.730469 C 3.253906 10.9375 3.402344 10.152344 3.664062 9.402344 C 4.039062 8.320312 4.640625 7.328125 5.421875 6.5 C 5.492188 6.425781 5.605469 6.3125 5.679688 6.238281 C 6.378906 5.5625 7.195312 5.019531 8.089844 4.636719 C 9.027344 4.234375 10.007812 4.011719 11.007812 3.976562 C 11.171875 3.972656 11.402344 3.972656 11.5625 3.976562 C 12.054688 3.996094 12.535156 4.054688 13.011719 4.160156 C 13.960938 4.367188 14.867188 4.75 15.683594 5.277344 C 16.390625 5.738281 17.023438 6.304688 17.554688 6.957031 C 18.019531 7.53125 18.40625 8.167969 18.699219 8.851562 C 18.71875 8.898438 18.757812 8.988281 18.753906 8.988281 C 18.753906 8.988281 18.082031 8.8125 17.257812 8.59375 C 16.433594 8.375 15.753906 8.195312 15.742188 8.191406 C 15.582031 8.160156 15.421875 8.195312 15.285156 8.285156 C 15.226562 8.324219 15.171875 8.375 15.132812 8.429688 C 15.066406 8.519531 15.03125 8.617188 15.019531 8.726562 C 15.015625 8.753906 15.015625 8.8125 15.019531 8.839844 C 15.035156 9.019531 15.128906 9.179688 15.273438 9.285156 C 15.324219 9.320312 15.386719 9.351562 15.445312 9.367188 C 15.460938 9.371094 19.605469 10.46875 19.660156 10.484375 C 19.75 10.507812 19.847656 10.507812 19.9375 10.488281 C 20.113281 10.449219 20.261719 10.335938 20.34375 10.175781 C 20.359375 10.144531 20.367188 10.125 20.378906 10.089844 C 20.386719 10.074219 20.558594 9.421875 20.945312 7.964844 C 21.25 6.8125 21.503906 5.859375 21.503906 5.851562 C 21.535156 5.71875 21.519531 5.578125 21.460938 5.449219 C 21.371094 5.261719 21.191406 5.136719 20.980469 5.109375 C 20.953125 5.109375 20.878906 5.105469 20.851562 5.109375 C 20.796875 5.117188 20.742188 5.128906 20.691406 5.148438 C 20.519531 5.214844 20.390625 5.355469 20.335938 5.53125 C 20.332031 5.539062 20.179688 6.113281 19.996094 6.800781 C 19.816406 7.488281 19.667969 8.050781 19.664062 8.050781 C 19.664062 8.050781 19.660156 8.039062 19.65625 8.027344 C 19.617188 7.949219 19.535156 7.789062 19.484375 7.6875 C 18.824219 6.445312 17.890625 5.367188 16.75 4.539062 C 15.949219 3.957031 15.058594 3.503906 14.113281 3.203125 C 13.148438 2.890625 12.140625 2.742188 11.128906 2.761719 Z M 11.128906 2.761719 "/>
</g>
</svg>
