<?xml version="1.0" encoding="UTF-8"?>
<svg xmlns="http://www.w3.org/2000/svg" xmlns:xlink="http://www.w3.org/1999/xlink" viewBox="0 0 24 24" version="1.1">
<g>
<path style=" stroke:none;fill-rule:nonzero;fill:rgb(0.392157%,0.392157%,0.392157%);fill-opacity:1;" d="M 2.746094 11.425781 C 2.765625 11.414062 2.785156 11.394531 2.800781 11.382812 C 2.839844 11.351562 2.878906 11.316406 2.917969 11.285156 C 3.046875 11.179688 3.171875 11.074219 3.300781 10.96875 C 3.707031 10.636719 4.113281 10.300781 4.519531 9.964844 C 5.800781 8.917969 7.074219 7.859375 8.351562 6.808594 C 8.644531 6.570312 8.9375 6.328125 9.230469 6.089844 C 9.324219 6.011719 9.417969 5.933594 9.511719 5.855469 C 9.566406 5.8125 9.625 5.769531 9.667969 5.71875 C 9.796875 5.5625 9.796875 5.328125 9.667969 5.171875 C 9.636719 5.136719 9.601562 5.105469 9.5625 5.078125 C 9.429688 4.996094 9.261719 4.996094 9.128906 5.070312 C 9.09375 5.089844 9.066406 5.113281 9.035156 5.136719 C 8.996094 5.167969 8.957031 5.199219 8.921875 5.230469 C 8.578125 5.515625 8.234375 5.804688 7.886719 6.082031 C 7.679688 6.25 7.472656 6.421875 7.265625 6.59375 C 6.773438 7 6.28125 7.40625 5.785156 7.8125 C 5.265625 8.238281 4.75 8.667969 4.230469 9.09375 C 3.875 9.386719 3.519531 9.675781 3.167969 9.96875 C 2.765625 10.304688 2.363281 10.636719 1.957031 10.964844 C 1.917969 10.996094 1.878906 11.03125 1.839844 11.0625 C 1.808594 11.089844 1.773438 11.117188 1.746094 11.152344 C 1.644531 11.273438 1.617188 11.441406 1.675781 11.585938 C 1.699219 11.636719 1.726562 11.683594 1.765625 11.722656 C 1.804688 11.765625 1.855469 11.800781 1.898438 11.835938 C 1.996094 11.914062 2.089844 11.992188 2.183594 12.070312 C 2.578125 12.390625 2.964844 12.714844 3.359375 13.039062 C 4.402344 13.894531 5.445312 14.757812 6.488281 15.617188 C 6.894531 15.949219 7.296875 16.285156 7.703125 16.613281 C 8.015625 16.871094 8.328125 17.132812 8.644531 17.390625 C 8.746094 17.476562 8.847656 17.558594 8.953125 17.644531 C 9.003906 17.6875 9.058594 17.738281 9.117188 17.773438 C 9.285156 17.875 9.511719 17.84375 9.648438 17.703125 C 9.679688 17.667969 9.707031 17.625 9.726562 17.582031 C 9.792969 17.4375 9.769531 17.261719 9.671875 17.140625 C 9.613281 17.066406 9.527344 17.007812 9.457031 16.949219 C 9.039062 16.609375 8.625 16.265625 8.210938 15.921875 C 7.6875 15.488281 7.160156 15.054688 6.632812 14.625 C 5.917969 14.039062 5.207031 13.445312 4.492188 12.859375 C 4.109375 12.546875 3.726562 12.230469 3.34375 11.914062 C 3.214844 11.8125 3.089844 11.707031 2.960938 11.601562 C 2.890625 11.542969 2.816406 11.488281 2.746094 11.425781 M 12.753906 13.988281 L 13.390625 13.988281 C 13.554688 13.988281 13.714844 13.988281 13.878906 13.996094 C 14.09375 14.003906 14.308594 14.027344 14.523438 14.058594 C 15.429688 14.191406 16.3125 14.542969 17.066406 15.058594 C 17.402344 15.289062 17.71875 15.550781 18 15.847656 C 18.484375 16.351562 18.898438 16.964844 19.078125 17.648438 C 19.113281 17.789062 19.140625 17.929688 19.152344 18.074219 C 19.160156 18.125 19.160156 18.175781 19.164062 18.230469 C 19.164062 18.253906 19.160156 18.28125 19.164062 18.304688 C 19.1875 18.511719 19.363281 18.6875 19.574219 18.6875 C 19.628906 18.6875 19.679688 18.683594 19.730469 18.664062 C 19.769531 18.652344 19.808594 18.632812 19.84375 18.609375 C 19.917969 18.550781 19.976562 18.472656 20 18.378906 C 20.019531 18.3125 20.019531 18.238281 20.015625 18.167969 C 20.011719 18.074219 20.007812 17.976562 19.992188 17.882812 C 19.894531 17.109375 19.539062 16.402344 19.074219 15.789062 C 18.757812 15.363281 18.375 14.988281 17.964844 14.65625 C 17.117188 13.984375 16.121094 13.519531 15.070312 13.289062 C 14.640625 13.195312 14.203125 13.144531 13.765625 13.136719 C 13.359375 13.125 12.957031 13.132812 12.550781 13.132812 L 12.390625 13.132812 C 12.347656 13.132812 12.308594 13.132812 12.265625 13.136719 C 12.171875 13.152344 12.078125 13.199219 12.011719 13.269531 C 11.953125 13.335938 11.914062 13.417969 11.902344 13.507812 C 11.894531 13.574219 11.898438 13.640625 11.898438 13.703125 L 11.898438 16.078125 L 10.546875 14.980469 L 7.945312 12.867188 L 6.730469 11.878906 L 6.34375 11.5625 L 6.226562 11.472656 L 6.171875 11.425781 L 6.222656 11.382812 L 6.335938 11.292969 L 6.695312 11 L 7.820312 10.085938 L 10.550781 7.867188 L 11.453125 7.132812 L 11.746094 6.898438 L 11.898438 6.769531 L 11.898438 8.761719 C 11.898438 8.808594 11.898438 8.855469 11.902344 8.902344 C 11.910156 8.992188 11.949219 9.085938 12.011719 9.148438 C 12.035156 9.175781 12.0625 9.203125 12.097656 9.222656 C 12.222656 9.304688 12.367188 9.289062 12.507812 9.289062 C 12.753906 9.289062 13 9.285156 13.246094 9.289062 C 13.433594 9.292969 13.617188 9.304688 13.804688 9.324219 C 14.28125 9.371094 14.753906 9.484375 15.199219 9.648438 C 15.851562 9.886719 16.453125 10.226562 17.011719 10.636719 C 17.308594 10.855469 17.589844 11.101562 17.859375 11.355469 C 18.132812 11.621094 18.386719 11.902344 18.625 12.199219 C 19.175781 12.878906 19.628906 13.625 19.992188 14.417969 C 20.226562 14.925781 20.417969 15.457031 20.5625 16 C 20.695312 16.507812 20.789062 17.019531 20.839844 17.542969 C 20.855469 17.722656 20.863281 17.90625 20.871094 18.085938 C 20.875 18.1875 20.859375 18.289062 20.890625 18.386719 C 20.902344 18.429688 20.921875 18.472656 20.949219 18.507812 C 21.03125 18.625 21.175781 18.695312 21.316406 18.6875 C 21.382812 18.6875 21.445312 18.667969 21.503906 18.636719 C 21.535156 18.621094 21.558594 18.601562 21.585938 18.582031 C 21.660156 18.515625 21.707031 18.421875 21.722656 18.324219 C 21.730469 18.28125 21.726562 18.242188 21.726562 18.203125 C 21.726562 18.164062 21.726562 18.128906 21.726562 18.089844 C 21.722656 18.019531 21.722656 17.949219 21.71875 17.878906 C 21.714844 17.769531 21.707031 17.660156 21.699219 17.550781 C 21.671875 17.1875 21.617188 16.824219 21.546875 16.46875 C 21.414062 15.777344 21.207031 15.101562 20.941406 14.449219 C 20.277344 12.84375 19.253906 11.367188 17.910156 10.253906 C 17.085938 9.566406 16.128906 9.015625 15.09375 8.714844 C 14.636719 8.578125 14.164062 8.484375 13.6875 8.453125 C 13.378906 8.433594 13.066406 8.433594 12.753906 8.433594 L 12.753906 6.011719 C 12.753906 5.941406 12.761719 5.867188 12.75 5.800781 C 12.730469 5.691406 12.671875 5.589844 12.582031 5.527344 C 12.449219 5.429688 12.269531 5.414062 12.121094 5.496094 C 12.082031 5.515625 12.046875 5.546875 12.011719 5.578125 C 11.972656 5.609375 11.933594 5.640625 11.894531 5.671875 C 11.703125 5.828125 11.507812 5.980469 11.316406 6.140625 C 11.011719 6.394531 10.703125 6.636719 10.398438 6.886719 C 9.59375 7.542969 8.785156 8.191406 7.984375 8.847656 C 7.574219 9.183594 7.164062 9.515625 6.753906 9.847656 C 6.425781 10.113281 6.101562 10.382812 5.773438 10.644531 C 5.636719 10.753906 5.503906 10.863281 5.371094 10.96875 L 5.257812 11.0625 C 5.230469 11.085938 5.203125 11.105469 5.179688 11.132812 C 5.101562 11.21875 5.0625 11.324219 5.0625 11.433594 C 5.0625 11.535156 5.105469 11.636719 5.171875 11.710938 C 5.21875 11.761719 5.277344 11.804688 5.332031 11.847656 C 5.511719 11.992188 5.691406 12.136719 5.871094 12.285156 C 6.71875 12.972656 7.566406 13.660156 8.410156 14.351562 C 9.410156 15.160156 10.40625 15.972656 11.40625 16.78125 C 11.570312 16.914062 11.734375 17.050781 11.902344 17.183594 C 11.972656 17.242188 12.042969 17.3125 12.128906 17.359375 C 12.261719 17.429688 12.433594 17.421875 12.558594 17.339844 C 12.664062 17.273438 12.734375 17.164062 12.75 17.042969 C 12.761719 16.96875 12.753906 16.890625 12.753906 16.816406 Z M 12.753906 13.988281 "/>
</g>
</svg>
