<?xml version="1.0" encoding="UTF-8"?>
<svg xmlns="http://www.w3.org/2000/svg" xmlns:xlink="http://www.w3.org/1999/xlink" viewBox="0 0 24 24" version="1.1">
<g>
<path style=" stroke:none;fill-rule:nonzero;fill:rgb(0.392157%,0.392157%,0.392157%);fill-opacity:1;" d="M 2.65625 18.695312 L 2.65625 18.699219 C 2.621094 18.710938 2.589844 18.738281 2.558594 18.757812 C 2.484375 18.8125 2.417969 18.871094 2.363281 18.941406 C 2.105469 19.265625 2.089844 19.738281 2.324219 20.078125 C 2.386719 20.171875 2.464844 20.25 2.554688 20.316406 C 2.644531 20.378906 2.742188 20.425781 2.84375 20.453125 C 2.949219 20.484375 3.058594 20.496094 3.164062 20.488281 C 3.296875 20.480469 3.429688 20.445312 3.550781 20.382812 C 3.644531 20.335938 3.730469 20.269531 3.804688 20.191406 C 3.875 20.117188 3.933594 20.03125 3.976562 19.9375 C 4.113281 19.636719 4.085938 19.28125 3.902344 19.007812 C 3.839844 18.914062 3.761719 18.835938 3.675781 18.769531 C 3.640625 18.742188 3.601562 18.710938 3.5625 18.699219 L 3.5625 18.695312 L 3.722656 18.695312 C 3.753906 18.695312 3.789062 18.699219 3.820312 18.695312 C 3.894531 18.679688 3.960938 18.640625 4.003906 18.582031 C 4.039062 18.535156 4.058594 18.484375 4.0625 18.429688 C 4.066406 18.390625 4.0625 18.351562 4.0625 18.316406 L 4.0625 16.597656 L 20.324219 16.597656 L 20.324219 18.3125 C 20.324219 18.410156 20.324219 18.5 20.382812 18.582031 C 20.429688 18.640625 20.496094 18.679688 20.566406 18.695312 C 20.597656 18.699219 20.632812 18.695312 20.667969 18.695312 L 20.824219 18.695312 L 20.824219 18.699219 C 20.808594 18.703125 20.792969 18.714844 20.78125 18.722656 C 20.753906 18.738281 20.730469 18.757812 20.707031 18.773438 C 20.59375 18.859375 20.503906 18.964844 20.4375 19.089844 C 20.292969 19.351562 20.289062 19.679688 20.417969 19.949219 C 20.484375 20.085938 20.582031 20.207031 20.703125 20.300781 C 20.785156 20.359375 20.878906 20.410156 20.976562 20.441406 C 21.078125 20.476562 21.1875 20.496094 21.296875 20.492188 C 21.429688 20.488281 21.558594 20.457031 21.679688 20.402344 C 21.777344 20.359375 21.867188 20.292969 21.945312 20.21875 C 22.234375 19.9375 22.316406 19.488281 22.140625 19.128906 C 22.074219 18.992188 21.980469 18.875 21.863281 18.785156 C 21.835938 18.761719 21.808594 18.742188 21.78125 18.726562 C 21.765625 18.714844 21.746094 18.703125 21.730469 18.699219 L 21.730469 18.695312 L 21.890625 18.695312 C 21.933594 18.695312 21.972656 18.699219 22.011719 18.6875 C 22.074219 18.675781 22.125 18.640625 22.164062 18.589844 C 22.234375 18.511719 22.230469 18.417969 22.230469 18.320312 L 22.230469 10.78125 C 22.230469 10.636719 22.230469 10.496094 22.179688 10.355469 C 22.140625 10.238281 22.078125 10.132812 22 10.039062 C 21.921875 9.949219 21.828125 9.878906 21.726562 9.820312 C 21.394531 9.644531 20.976562 9.6875 20.683594 9.917969 C 20.597656 9.988281 20.527344 10.070312 20.46875 10.160156 C 20.394531 10.28125 20.34375 10.421875 20.328125 10.5625 C 20.316406 10.695312 20.324219 10.832031 20.324219 10.964844 L 20.324219 14.125 L 16.601562 14.125 L 16.601562 14.121094 C 16.625 14.117188 16.652344 14.105469 16.675781 14.097656 C 16.722656 14.085938 16.769531 14.070312 16.8125 14.054688 C 16.953125 14.007812 17.09375 13.964844 17.234375 13.917969 C 17.683594 13.777344 18.128906 13.628906 18.578125 13.484375 C 18.714844 13.441406 18.855469 13.394531 18.992188 13.351562 C 19.078125 13.324219 19.160156 13.300781 19.238281 13.265625 C 19.359375 13.214844 19.472656 13.140625 19.570312 13.050781 C 19.707031 12.917969 19.808594 12.757812 19.871094 12.578125 C 19.980469 12.261719 19.9375 11.898438 19.757812 11.613281 C 19.699219 11.519531 19.628906 11.433594 19.542969 11.359375 C 19.441406 11.269531 19.320312 11.195312 19.195312 11.148438 C 18.996094 11.074219 18.78125 11.054688 18.570312 11.09375 C 18.453125 11.117188 18.339844 11.160156 18.222656 11.199219 C 18.050781 11.25 17.882812 11.304688 17.714844 11.363281 C 17 11.59375 16.28125 11.828125 15.5625 12.058594 C 15.328125 12.132812 15.097656 12.210938 14.867188 12.28125 C 14.800781 12.300781 14.734375 12.324219 14.667969 12.347656 C 14.636719 12.355469 14.601562 12.375 14.570312 12.378906 C 14.53125 12.378906 14.492188 12.378906 14.453125 12.378906 L 10.070312 12.378906 C 10.054688 12.378906 10.039062 12.378906 10.023438 12.375 C 9.988281 12.363281 9.953125 12.347656 9.914062 12.332031 C 9.835938 12.300781 9.757812 12.265625 9.683594 12.234375 C 9.445312 12.136719 9.210938 12.039062 8.976562 11.941406 C 8.273438 11.652344 7.566406 11.367188 6.863281 11.070312 C 6.628906 10.972656 6.394531 10.878906 6.160156 10.78125 C 6.035156 10.726562 5.90625 10.667969 5.777344 10.628906 C 5.65625 10.59375 5.53125 10.578125 5.40625 10.585938 C 5.269531 10.589844 5.132812 10.621094 5.007812 10.675781 C 4.882812 10.730469 4.765625 10.808594 4.664062 10.902344 C 4.351562 11.203125 4.234375 11.683594 4.378906 12.097656 C 4.433594 12.253906 4.519531 12.398438 4.636719 12.519531 C 4.722656 12.613281 4.828125 12.6875 4.941406 12.746094 C 5.023438 12.789062 5.109375 12.820312 5.195312 12.855469 C 5.371094 12.929688 5.550781 13 5.730469 13.074219 C 6.300781 13.3125 6.875 13.542969 7.445312 13.785156 C 7.628906 13.859375 7.8125 13.933594 7.996094 14.011719 C 8.054688 14.035156 8.117188 14.0625 8.175781 14.085938 C 8.203125 14.097656 8.234375 14.117188 8.265625 14.121094 L 8.265625 14.125 L 4.0625 14.125 L 4.0625 7.082031 L 4.046875 6.957031 L 4.035156 6.898438 L 6.488281 4.445312 L 9.445312 4.445312 L 9.445312 8.199219 C 9.257812 8.199219 9.070312 8.191406 8.882812 8.238281 C 8.449219 8.351562 8.105469 8.710938 8.011719 9.148438 C 7.984375 9.277344 7.984375 9.40625 7.984375 9.535156 L 7.984375 10.453125 C 7.984375 10.507812 7.980469 10.5625 7.988281 10.613281 C 7.996094 10.683594 8.03125 10.75 8.085938 10.796875 C 8.175781 10.871094 8.28125 10.863281 8.390625 10.863281 L 10.949219 10.863281 C 11.03125 10.863281 11.117188 10.867188 11.203125 10.863281 C 11.335938 10.859375 11.453125 10.777344 11.488281 10.640625 C 11.5 10.597656 11.496094 10.550781 11.496094 10.507812 L 11.496094 9.640625 C 11.496094 9.464844 11.503906 9.289062 11.460938 9.113281 C 11.359375 8.699219 11.035156 8.363281 10.625 8.246094 C 10.429688 8.191406 10.230469 8.199219 10.035156 8.199219 L 10.035156 4.320312 C 10.035156 4.238281 10.042969 4.148438 10.023438 4.070312 C 10.007812 4.027344 9.984375 3.984375 9.953125 3.953125 C 9.90625 3.898438 9.835938 3.867188 9.765625 3.859375 C 9.734375 3.855469 9.703125 3.859375 9.671875 3.859375 L 6.488281 3.859375 C 6.410156 3.859375 6.324219 3.851562 6.253906 3.882812 C 6.195312 3.90625 6.15625 3.945312 6.117188 3.988281 L 5.996094 4.105469 L 3.78125 6.320312 C 3.761719 6.339844 3.742188 6.367188 3.71875 6.382812 C 3.710938 6.390625 3.699219 6.375 3.691406 6.371094 C 3.667969 6.351562 3.640625 6.332031 3.617188 6.316406 C 3.511719 6.253906 3.398438 6.207031 3.277344 6.1875 C 2.894531 6.121094 2.507812 6.292969 2.300781 6.617188 C 2.226562 6.738281 2.175781 6.875 2.160156 7.015625 C 2.15625 7.078125 2.15625 7.144531 2.15625 7.207031 L 2.15625 18.277344 C 2.15625 18.335938 2.148438 18.394531 2.160156 18.453125 C 2.171875 18.527344 2.210938 18.59375 2.269531 18.640625 C 2.316406 18.671875 2.367188 18.691406 2.421875 18.695312 C 2.449219 18.699219 2.480469 18.695312 2.511719 18.695312 Z M 2.65625 18.695312 "/>
<path style=" stroke:none;fill-rule:nonzero;fill:rgb(100%,100%,100%);fill-opacity:1;" d="M 2.742188 18.113281 L 3.476562 18.113281 L 3.476562 7.351562 C 3.476562 7.191406 3.5 7.015625 3.386719 6.886719 C 3.367188 6.863281 3.347656 6.84375 3.320312 6.824219 C 3.292969 6.804688 3.257812 6.789062 3.222656 6.777344 C 3.179688 6.761719 3.136719 6.757812 3.089844 6.757812 C 3.050781 6.757812 3.003906 6.769531 2.96875 6.785156 C 2.933594 6.800781 2.902344 6.820312 2.875 6.84375 C 2.808594 6.894531 2.765625 6.972656 2.75 7.054688 C 2.738281 7.097656 2.742188 7.136719 2.742188 7.179688 L 2.742188 18.113281 M 8.570312 10.277344 L 10.910156 10.277344 L 10.910156 9.609375 C 10.910156 9.511719 10.917969 9.410156 10.902344 9.3125 C 10.886719 9.207031 10.84375 9.109375 10.78125 9.023438 C 10.683594 8.898438 10.53125 8.8125 10.371094 8.792969 C 10.273438 8.78125 10.171875 8.789062 10.074219 8.789062 L 9.269531 8.789062 C 9.195312 8.789062 9.125 8.785156 9.050781 8.800781 C 8.90625 8.835938 8.777344 8.921875 8.6875 9.039062 C 8.628906 9.117188 8.589844 9.210938 8.578125 9.308594 C 8.5625 9.402344 8.570312 9.5 8.570312 9.597656 L 8.570312 10.277344 M 20.910156 18.113281 L 21.644531 18.113281 L 21.644531 10.800781 C 21.644531 10.738281 21.652344 10.675781 21.644531 10.613281 C 21.621094 10.445312 21.46875 10.300781 21.296875 10.296875 C 21.246094 10.296875 21.195312 10.304688 21.144531 10.324219 C 21.027344 10.367188 20.941406 10.476562 20.917969 10.597656 C 20.90625 10.660156 20.910156 10.726562 20.910156 10.789062 L 20.910156 18.113281 M 5.449219 11.171875 C 5.410156 11.175781 5.371094 11.175781 5.332031 11.183594 C 5.234375 11.207031 5.136719 11.261719 5.066406 11.332031 C 4.867188 11.53125 4.851562 11.859375 5.027344 12.078125 C 5.0625 12.121094 5.105469 12.160156 5.152344 12.191406 C 5.203125 12.226562 5.261719 12.246094 5.316406 12.269531 L 5.511719 12.351562 C 5.726562 12.4375 5.9375 12.527344 6.152344 12.617188 C 6.824219 12.894531 7.496094 13.171875 8.171875 13.449219 C 8.515625 13.59375 8.863281 13.734375 9.210938 13.878906 C 9.316406 13.921875 9.425781 13.964844 9.53125 14.011719 C 9.566406 14.027344 9.601562 14.039062 9.636719 14.054688 C 9.65625 14.0625 9.671875 14.074219 9.6875 14.074219 C 9.710938 14.082031 9.734375 14.078125 9.757812 14.078125 L 14.734375 14.078125 C 14.769531 14.078125 14.808594 14.082031 14.839844 14.074219 C 14.867188 14.070312 14.890625 14.058594 14.914062 14.054688 C 14.957031 14.039062 15.003906 14.023438 15.050781 14.007812 C 15.191406 13.960938 15.328125 13.917969 15.46875 13.871094 C 15.917969 13.730469 16.367188 13.582031 16.820312 13.4375 C 17.363281 13.261719 17.902344 13.078125 18.445312 12.910156 C 18.570312 12.871094 18.691406 12.828125 18.816406 12.792969 C 18.890625 12.769531 18.964844 12.746094 19.035156 12.714844 C 19.09375 12.6875 19.148438 12.644531 19.195312 12.597656 C 19.386719 12.390625 19.390625 12.066406 19.207031 11.851562 C 19.171875 11.808594 19.128906 11.773438 19.082031 11.746094 C 19.023438 11.710938 18.960938 11.683594 18.898438 11.671875 C 18.832031 11.65625 18.765625 11.65625 18.703125 11.667969 C 18.648438 11.675781 18.597656 11.691406 18.546875 11.710938 C 18.484375 11.730469 18.425781 11.75 18.363281 11.769531 C 18.144531 11.835938 17.929688 11.910156 17.710938 11.980469 C 17.027344 12.199219 16.34375 12.421875 15.660156 12.640625 C 15.441406 12.710938 15.222656 12.785156 15.003906 12.851562 C 14.929688 12.878906 14.851562 12.902344 14.777344 12.925781 C 14.742188 12.9375 14.710938 12.949219 14.679688 12.957031 C 14.613281 12.972656 14.542969 12.964844 14.476562 12.964844 L 10.0625 12.964844 C 10.019531 12.964844 9.980469 12.964844 9.9375 12.960938 C 9.886719 12.957031 9.839844 12.933594 9.792969 12.914062 L 9.582031 12.828125 C 9.347656 12.730469 9.109375 12.636719 8.878906 12.535156 C 8.125 12.222656 7.371094 11.917969 6.617188 11.605469 C 6.363281 11.496094 6.105469 11.394531 5.847656 11.285156 C 5.75 11.242188 5.648438 11.191406 5.539062 11.175781 C 5.511719 11.171875 5.476562 11.167969 5.449219 11.171875 M 4.0625 14.710938 L 4.0625 16.011719 L 20.324219 16.011719 L 20.324219 14.710938 L 4.0625 14.710938 M 3.089844 19.171875 C 3.0625 19.175781 3.035156 19.175781 3.007812 19.183594 C 2.941406 19.203125 2.882812 19.238281 2.839844 19.289062 C 2.808594 19.320312 2.785156 19.359375 2.765625 19.402344 C 2.703125 19.570312 2.765625 19.761719 2.921875 19.855469 C 2.957031 19.875 2.996094 19.886719 3.035156 19.898438 C 3.074219 19.90625 3.117188 19.90625 3.15625 19.902344 C 3.339844 19.878906 3.472656 19.71875 3.476562 19.539062 C 3.480469 19.371094 3.351562 19.214844 3.191406 19.179688 C 3.160156 19.171875 3.121094 19.164062 3.089844 19.171875 M 21.257812 19.171875 C 21.167969 19.183594 21.082031 19.210938 21.019531 19.277344 C 20.898438 19.402344 20.875 19.597656 20.972656 19.742188 C 21 19.78125 21.03125 19.8125 21.070312 19.839844 C 21.105469 19.867188 21.148438 19.882812 21.191406 19.894531 C 21.234375 19.90625 21.28125 19.90625 21.328125 19.902344 C 21.5 19.878906 21.636719 19.730469 21.644531 19.554688 C 21.652344 19.382812 21.535156 19.222656 21.367188 19.179688 C 21.332031 19.171875 21.292969 19.164062 21.257812 19.171875 Z M 21.257812 19.171875 "/>
</g>
</svg>
