<?xml version="1.0" encoding="UTF-8"?>
<svg xmlns="http://www.w3.org/2000/svg" xmlns:xlink="http://www.w3.org/1999/xlink" viewBox="0 0 24 24" version="1.1">
<g>
<path style=" stroke:none;fill-rule:nonzero;fill:rgb(0.392157%,0.392157%,0.392157%);fill-opacity:1;" d="M 4.648438 14.546875 L 19.425781 14.546875 L 19.425781 16.558594 C 19.425781 16.605469 19.421875 16.65625 19.425781 16.703125 C 19.4375 16.777344 19.472656 16.847656 19.53125 16.898438 C 19.617188 16.964844 19.714844 16.964844 19.816406 16.964844 L 21.605469 16.964844 C 21.664062 16.964844 21.722656 16.964844 21.78125 16.964844 C 21.910156 16.957031 22.019531 16.886719 22.0625 16.761719 C 22.070312 16.734375 22.074219 16.699219 22.078125 16.667969 C 22.078125 16.609375 22.078125 16.546875 22.078125 16.488281 L 22.078125 10.105469 C 22.078125 10.023438 22.078125 9.941406 22.070312 9.859375 C 22.0625 9.746094 22.039062 9.632812 22.003906 9.527344 C 21.949219 9.378906 21.875 9.246094 21.777344 9.125 C 21.695312 9.023438 21.59375 8.929688 21.484375 8.859375 C 21.144531 8.632812 20.722656 8.582031 20.335938 8.703125 C 20.230469 8.738281 20.132812 8.785156 20.042969 8.84375 C 19.914062 8.921875 19.800781 9.023438 19.710938 9.140625 C 19.566406 9.328125 19.46875 9.550781 19.4375 9.785156 C 19.417969 9.941406 19.425781 10.101562 19.425781 10.261719 L 19.425781 10.902344 L 18.980469 10.902344 C 18.980469 10.792969 18.960938 10.679688 18.921875 10.578125 C 18.886719 10.488281 18.84375 10.402344 18.785156 10.332031 C 18.652344 10.160156 18.464844 10.03125 18.253906 9.984375 C 18.117188 9.949219 17.980469 9.957031 17.84375 9.957031 L 11.042969 9.957031 C 10.90625 9.957031 10.769531 9.945312 10.632812 9.964844 C 10.390625 10.003906 10.164062 10.136719 10.015625 10.335938 C 9.960938 10.40625 9.917969 10.484375 9.886719 10.570312 C 9.84375 10.675781 9.824219 10.789062 9.824219 10.902344 L 9.414062 10.902344 C 9.4375 10.847656 9.460938 10.796875 9.480469 10.742188 C 9.519531 10.632812 9.539062 10.523438 9.546875 10.410156 C 9.554688 10.328125 9.550781 10.246094 9.539062 10.167969 C 9.460938 9.589844 8.992188 9.164062 8.503906 8.902344 C 8.179688 8.726562 7.828125 8.613281 7.46875 8.539062 C 7.191406 8.480469 6.90625 8.453125 6.621094 8.441406 C 6.289062 8.425781 5.949219 8.449219 5.621094 8.503906 C 5.382812 8.542969 5.148438 8.597656 4.921875 8.675781 C 4.863281 8.699219 4.804688 8.71875 4.746094 8.742188 C 4.714844 8.753906 4.679688 8.765625 4.648438 8.78125 L 4.648438 8.382812 C 4.648438 8.265625 4.652344 8.152344 4.632812 8.035156 C 4.605469 7.855469 4.539062 7.683594 4.441406 7.53125 C 4.355469 7.394531 4.246094 7.277344 4.117188 7.179688 C 3.699219 6.867188 3.117188 6.832031 2.664062 7.09375 C 2.511719 7.179688 2.382812 7.296875 2.273438 7.433594 C 2.132812 7.617188 2.039062 7.839844 2.011719 8.070312 C 1.996094 8.160156 2 8.253906 2 8.347656 L 2 16.550781 C 2 16.632812 1.992188 16.714844 2.023438 16.789062 C 2.035156 16.8125 2.046875 16.832031 2.0625 16.851562 C 2.109375 16.910156 2.175781 16.949219 2.25 16.960938 C 2.292969 16.964844 2.335938 16.964844 2.378906 16.964844 L 4.257812 16.964844 C 4.304688 16.964844 4.351562 16.964844 4.394531 16.960938 C 4.472656 16.949219 4.542969 16.910156 4.589844 16.847656 C 4.652344 16.765625 4.648438 16.671875 4.648438 16.570312 Z M 4.648438 14.546875 "/>
<path style=" stroke:none;fill-rule:nonzero;fill:rgb(100%,100%,100%);fill-opacity:1;" d="M 2.585938 16.375 L 4.0625 16.375 L 4.0625 8.320312 C 4.0625 8.230469 4.0625 8.140625 4.039062 8.054688 C 4.015625 7.976562 3.984375 7.902344 3.9375 7.832031 C 3.804688 7.632812 3.578125 7.507812 3.339844 7.503906 C 3.003906 7.496094 2.699219 7.726562 2.609375 8.050781 C 2.585938 8.140625 2.585938 8.234375 2.585938 8.328125 L 2.585938 16.375 M 4.648438 10.902344 L 8.65625 10.902344 C 8.667969 10.902344 8.691406 10.90625 8.703125 10.898438 C 8.722656 10.886719 8.738281 10.863281 8.753906 10.84375 C 8.789062 10.800781 8.824219 10.75 8.855469 10.699219 C 8.894531 10.640625 8.921875 10.574219 8.941406 10.507812 C 8.953125 10.460938 8.960938 10.414062 8.964844 10.371094 C 8.976562 10.039062 8.75 9.769531 8.496094 9.585938 C 8.21875 9.378906 7.886719 9.25 7.554688 9.160156 C 6.90625 8.992188 6.214844 8.980469 5.558594 9.109375 C 5.324219 9.160156 5.09375 9.230469 4.871094 9.324219 C 4.816406 9.347656 4.765625 9.371094 4.710938 9.398438 C 4.695312 9.40625 4.679688 9.414062 4.667969 9.421875 C 4.664062 9.425781 4.652344 9.425781 4.652344 9.433594 C 4.644531 9.4375 4.648438 9.453125 4.648438 9.460938 L 4.648438 10.902344 M 20.011719 16.375 L 21.488281 16.375 L 21.488281 10.039062 C 21.488281 9.96875 21.492188 9.902344 21.476562 9.832031 C 21.433594 9.582031 21.257812 9.367188 21.019531 9.273438 C 20.941406 9.242188 20.851562 9.226562 20.769531 9.222656 C 20.679688 9.222656 20.589844 9.234375 20.503906 9.265625 C 20.257812 9.355469 20.070312 9.570312 20.023438 9.828125 C 20.011719 9.898438 20.011719 9.96875 20.011719 10.039062 L 20.011719 16.375 M 10.410156 12.429688 L 18.394531 12.429688 L 18.394531 10.96875 C 18.394531 10.925781 18.394531 10.886719 18.386719 10.84375 C 18.371094 10.757812 18.328125 10.679688 18.257812 10.621094 C 18.203125 10.578125 18.136719 10.550781 18.066406 10.542969 C 18.027344 10.539062 17.988281 10.542969 17.949219 10.542969 L 10.863281 10.542969 C 10.816406 10.542969 10.769531 10.539062 10.722656 10.546875 C 10.652344 10.554688 10.585938 10.585938 10.53125 10.636719 C 10.472656 10.6875 10.433594 10.757812 10.417969 10.832031 C 10.40625 10.878906 10.410156 10.925781 10.410156 10.972656 L 10.410156 12.429688 M 4.648438 11.488281 L 4.648438 13.960938 L 19.425781 13.960938 L 19.425781 11.488281 L 18.980469 11.488281 L 18.980469 12.53125 C 18.980469 12.660156 19 12.804688 18.914062 12.910156 C 18.898438 12.929688 18.878906 12.945312 18.859375 12.960938 C 18.78125 13.019531 18.6875 13.015625 18.597656 13.015625 L 10.210938 13.015625 C 10.121094 13.015625 10.035156 13.019531 9.957031 12.96875 C 9.9375 12.957031 9.917969 12.941406 9.902344 12.921875 C 9.800781 12.820312 9.824219 12.671875 9.824219 12.542969 L 9.824219 11.488281 Z M 4.648438 11.488281 "/>
</g>
</svg>
