<?xml version="1.0" encoding="UTF-8"?>
<svg xmlns="http://www.w3.org/2000/svg" xmlns:xlink="http://www.w3.org/1999/xlink" viewBox="0 0 24 24" version="1.1">
<g>
<path style=" stroke:none;fill-rule:nonzero;fill:rgb(9.019608%,9.019608%,9.019608%);fill-opacity:1;" d="M 8.113281 4.867188 L 2.085938 4.867188 L 2.085938 5.964844 L 4.277344 5.964844 L 4.277344 18.929688 C 4.277344 19.09375 4.277344 19.261719 4.296875 19.429688 C 4.339844 19.835938 4.484375 20.238281 4.707031 20.582031 C 4.828125 20.777344 4.976562 20.953125 5.144531 21.113281 C 5.546875 21.496094 6.074219 21.742188 6.621094 21.824219 C 6.859375 21.859375 7.101562 21.851562 7.34375 21.851562 L 16.777344 21.851562 C 16.867188 21.851562 16.953125 21.855469 17.039062 21.847656 C 17.164062 21.839844 17.289062 21.824219 17.414062 21.800781 C 18.167969 21.65625 18.847656 21.171875 19.238281 20.507812 C 19.433594 20.179688 19.5625 19.808594 19.601562 19.429688 C 19.621094 19.253906 19.621094 19.078125 19.621094 18.902344 L 19.621094 5.964844 L 21.8125 5.964844 L 21.8125 4.867188 L 15.785156 4.867188 L 15.785156 4.042969 C 15.785156 3.832031 15.792969 3.621094 15.746094 3.414062 C 15.675781 3.097656 15.511719 2.804688 15.277344 2.582031 C 15.027344 2.34375 14.703125 2.1875 14.363281 2.140625 C 14.253906 2.128906 14.144531 2.128906 14.035156 2.128906 L 9.933594 2.128906 C 9.785156 2.128906 9.640625 2.125 9.496094 2.148438 C 9.167969 2.199219 8.859375 2.355469 8.617188 2.585938 C 8.382812 2.8125 8.21875 3.109375 8.148438 3.429688 C 8.105469 3.632812 8.113281 3.839844 8.113281 4.046875 Z M 8.113281 4.867188 "/>
<path style=" stroke:none;fill-rule:nonzero;fill:rgb(100%,100%,100%);fill-opacity:1;" d="M 9.210938 4.867188 L 14.6875 4.867188 L 14.6875 3.988281 C 14.6875 3.886719 14.695312 3.785156 14.683594 3.6875 C 14.664062 3.566406 14.601562 3.457031 14.515625 3.371094 C 14.429688 3.289062 14.316406 3.242188 14.203125 3.226562 C 14.121094 3.21875 14.039062 3.222656 13.960938 3.222656 L 9.953125 3.222656 C 9.863281 3.222656 9.765625 3.214844 9.675781 3.230469 C 9.566406 3.246094 9.464844 3.296875 9.386719 3.371094 C 9.292969 3.457031 9.230469 3.574219 9.214844 3.699219 C 9.203125 3.785156 9.210938 3.875 9.210938 3.957031 L 9.210938 4.867188 M 5.375 5.964844 L 5.375 18.941406 C 5.375 19.074219 5.375 19.203125 5.390625 19.335938 C 5.417969 19.542969 5.488281 19.75 5.59375 19.929688 C 5.664062 20.054688 5.753906 20.171875 5.855469 20.273438 C 6.105469 20.523438 6.4375 20.695312 6.792969 20.738281 C 7.003906 20.769531 7.21875 20.753906 7.429688 20.753906 L 16.515625 20.753906 C 16.761719 20.753906 17.011719 20.769531 17.253906 20.710938 C 17.664062 20.617188 18.03125 20.359375 18.261719 20.003906 C 18.386719 19.804688 18.472656 19.582031 18.507812 19.347656 C 18.527344 19.21875 18.523438 19.089844 18.523438 18.960938 L 18.523438 5.964844 Z M 5.375 5.964844 "/>
<path style=" stroke:none;fill-rule:nonzero;fill:rgb(9.019608%,9.019608%,9.019608%);fill-opacity:1;" d="M 8.113281 8.15625 L 8.113281 18.566406 L 9.210938 18.566406 L 9.210938 8.15625 L 8.113281 8.15625 M 11.398438 8.15625 L 11.398438 18.566406 L 12.5 18.566406 L 12.5 8.15625 L 11.398438 8.15625 M 14.6875 8.15625 L 14.6875 18.566406 L 15.785156 18.566406 L 15.785156 8.15625 Z M 14.6875 8.15625 "/>
</g>
</svg>
