<?xml version="1.0" encoding="UTF-8"?>
<svg xmlns="http://www.w3.org/2000/svg" xmlns:xlink="http://www.w3.org/1999/xlink" viewBox="0 0 24 24" version="1.1">
<g>
<path style=" stroke:none;fill-rule:nonzero;fill:rgb(0.392157%,0.392157%,0.392157%);fill-opacity:1;" d="M 6.5 9.214844 C 6.46875 9.214844 6.4375 9.226562 6.410156 9.234375 C 6.335938 9.25 6.261719 9.28125 6.191406 9.316406 C 5.90625 9.464844 5.707031 9.75 5.660156 10.066406 C 5.648438 10.148438 5.648438 10.230469 5.648438 10.3125 L 5.648438 11.558594 C 5.648438 11.640625 5.648438 11.71875 5.660156 11.800781 C 5.707031 12.074219 5.871094 12.324219 6.101562 12.476562 C 6.183594 12.53125 6.277344 12.574219 6.371094 12.601562 C 6.546875 12.65625 6.730469 12.644531 6.914062 12.644531 C 6.914062 12.914062 6.945312 13.179688 7.003906 13.445312 C 7.148438 14.042969 7.46875 14.609375 7.914062 15.035156 C 8.015625 15.132812 8.121094 15.226562 8.230469 15.308594 C 8.347656 15.394531 8.46875 15.472656 8.585938 15.546875 C 8.707031 15.625 8.824219 15.703125 8.941406 15.777344 C 9.242188 15.972656 9.542969 16.167969 9.84375 16.359375 C 9.984375 16.453125 10.128906 16.550781 10.277344 16.632812 C 10.421875 16.710938 10.582031 16.765625 10.742188 16.800781 C 10.929688 16.84375 11.121094 16.839844 11.3125 16.84375 C 11.53125 16.847656 11.75 16.847656 11.972656 16.847656 C 12.136719 16.851562 12.300781 16.847656 12.46875 16.855469 C 12.601562 16.855469 12.742188 16.863281 12.875 16.851562 C 13.039062 16.84375 13.203125 16.8125 13.355469 16.757812 C 13.585938 16.675781 13.789062 16.539062 13.996094 16.410156 C 14.269531 16.246094 14.546875 16.078125 14.816406 15.910156 C 15.183594 15.683594 15.570312 15.476562 15.894531 15.1875 C 16.398438 14.730469 16.753906 14.121094 16.902344 13.457031 C 16.941406 13.277344 16.960938 13.101562 16.972656 12.917969 C 16.980469 12.828125 16.980469 12.738281 16.980469 12.644531 C 17.15625 12.644531 17.335938 12.65625 17.507812 12.609375 C 17.605469 12.582031 17.703125 12.539062 17.789062 12.480469 C 17.859375 12.4375 17.925781 12.378906 17.984375 12.316406 C 18.09375 12.195312 18.175781 12.050781 18.214844 11.890625 C 18.253906 11.746094 18.25 11.597656 18.25 11.445312 L 18.25 10.375 C 18.25 10.300781 18.253906 10.222656 18.25 10.148438 C 18.242188 10.054688 18.222656 9.960938 18.191406 9.875 C 18.109375 9.652344 17.953125 9.460938 17.753906 9.34375 C 17.675781 9.296875 17.59375 9.261719 17.507812 9.238281 C 17.488281 9.230469 17.464844 9.226562 17.445312 9.222656 C 17.4375 9.222656 17.425781 9.222656 17.421875 9.214844 C 17.417969 9.199219 17.421875 9.183594 17.421875 9.171875 L 17.421875 7.210938 C 17.421875 6.976562 17.421875 6.746094 17.398438 6.511719 C 17.339844 5.902344 17.164062 5.296875 16.882812 4.753906 C 16.640625 4.285156 16.328125 3.851562 15.953125 3.484375 C 15.585938 3.125 15.171875 2.820312 14.714844 2.585938 C 13.589844 2.003906 12.242188 1.890625 11.035156 2.253906 C 10.511719 2.410156 10.019531 2.652344 9.574219 2.964844 C 9.449219 3.054688 9.328125 3.152344 9.210938 3.25 C 9.164062 3.289062 9.121094 3.328125 9.074219 3.371094 C 9.046875 3.390625 9.023438 3.414062 9 3.433594 C 8.992188 3.4375 8.984375 3.4375 8.972656 3.4375 C 8.957031 3.4375 8.941406 3.4375 8.921875 3.441406 C 8.863281 3.441406 8.804688 3.449219 8.742188 3.457031 C 8.554688 3.480469 8.371094 3.527344 8.191406 3.59375 C 7.96875 3.675781 7.757812 3.789062 7.5625 3.929688 C 7.132812 4.238281 6.804688 4.6875 6.636719 5.1875 C 6.574219 5.367188 6.53125 5.554688 6.515625 5.742188 C 6.496094 5.902344 6.5 6.066406 6.5 6.226562 Z M 6.5 9.214844 "/>
<path style=" stroke:none;fill-rule:nonzero;fill:rgb(100%,100%,100%);fill-opacity:1;" d="M 7.101562 9.800781 L 6.789062 9.800781 C 6.734375 9.800781 6.675781 9.796875 6.621094 9.804688 C 6.527344 9.8125 6.4375 9.855469 6.371094 9.921875 C 6.308594 9.984375 6.265625 10.066406 6.253906 10.15625 C 6.242188 10.230469 6.246094 10.3125 6.246094 10.390625 L 6.246094 11.574219 C 6.246094 11.625 6.246094 11.679688 6.261719 11.730469 C 6.277344 11.800781 6.316406 11.867188 6.363281 11.917969 C 6.429688 11.988281 6.523438 12.03125 6.617188 12.042969 C 6.679688 12.050781 6.746094 12.046875 6.808594 12.046875 L 7.523438 12.046875 C 7.523438 12.1875 7.519531 12.332031 7.519531 12.472656 C 7.515625 12.617188 7.511719 12.765625 7.523438 12.910156 C 7.558594 13.261719 7.65625 13.601562 7.816406 13.914062 C 7.984375 14.238281 8.21875 14.527344 8.503906 14.757812 C 8.621094 14.855469 8.746094 14.9375 8.875 15.019531 C 9.019531 15.109375 9.160156 15.203125 9.300781 15.296875 C 9.585938 15.476562 9.867188 15.660156 10.148438 15.84375 C 10.230469 15.894531 10.308594 15.945312 10.390625 16 C 10.488281 16.0625 10.585938 16.125 10.695312 16.164062 C 10.808594 16.207031 10.925781 16.230469 11.042969 16.242188 C 11.117188 16.246094 11.191406 16.242188 11.265625 16.242188 C 11.429688 16.246094 11.59375 16.246094 11.757812 16.246094 C 12.015625 16.25 12.273438 16.253906 12.53125 16.253906 C 12.691406 16.253906 12.851562 16.265625 13.011719 16.230469 C 13.109375 16.210938 13.203125 16.175781 13.292969 16.132812 C 13.351562 16.105469 13.40625 16.070312 13.457031 16.039062 C 13.523438 15.996094 13.589844 15.957031 13.65625 15.917969 C 13.9375 15.742188 14.21875 15.570312 14.503906 15.398438 C 14.652344 15.308594 14.800781 15.214844 14.949219 15.125 C 15.085938 15.042969 15.222656 14.957031 15.347656 14.859375 C 15.660156 14.617188 15.917969 14.300781 16.09375 13.945312 C 16.230469 13.675781 16.320312 13.378906 16.359375 13.074219 C 16.367188 12.988281 16.375 12.902344 16.378906 12.816406 C 16.378906 12.765625 16.378906 12.714844 16.378906 12.664062 C 16.382812 12.457031 16.382812 12.253906 16.382812 12.046875 L 17.101562 12.046875 C 17.167969 12.046875 17.234375 12.050781 17.300781 12.042969 C 17.386719 12.027344 17.472656 11.984375 17.53125 11.921875 C 17.582031 11.867188 17.617188 11.804688 17.636719 11.734375 C 17.652344 11.683594 17.652344 11.628906 17.652344 11.574219 L 17.652344 10.410156 C 17.652344 10.320312 17.660156 10.226562 17.644531 10.140625 C 17.628906 10.066406 17.59375 9.992188 17.542969 9.9375 C 17.472656 9.867188 17.386719 9.816406 17.289062 9.804688 C 17.230469 9.796875 17.167969 9.800781 17.105469 9.800781 L 16.820312 9.800781 L 16.820312 7.15625 C 16.820312 6.980469 16.820312 6.804688 16.804688 6.628906 C 16.765625 6.195312 16.667969 5.773438 16.503906 5.367188 C 16.347656 4.984375 16.132812 4.621094 15.875 4.296875 C 15.652344 4.011719 15.390625 3.757812 15.101562 3.535156 C 14.320312 2.941406 13.339844 2.621094 12.355469 2.644531 C 11.957031 2.65625 11.5625 2.71875 11.183594 2.835938 C 10.710938 2.976562 10.261719 3.203125 9.863281 3.496094 C 9.707031 3.613281 9.5625 3.742188 9.414062 3.867188 L 9.285156 3.976562 C 9.265625 3.996094 9.246094 4.015625 9.222656 4.03125 C 9.210938 4.042969 9.179688 4.035156 9.164062 4.035156 C 9.113281 4.035156 9.066406 4.035156 9.015625 4.035156 C 8.871094 4.039062 8.726562 4.0625 8.585938 4.097656 C 8.089844 4.222656 7.652344 4.550781 7.386719 4.988281 C 7.253906 5.210938 7.160156 5.460938 7.121094 5.722656 C 7.097656 5.886719 7.101562 6.050781 7.101562 6.214844 Z M 7.101562 9.800781 "/>
<path style=" stroke:none;fill-rule:nonzero;fill:rgb(0.392157%,0.392157%,0.392157%);fill-opacity:1;" d="M 10.003906 5.972656 C 9.996094 6.007812 9.980469 6.039062 9.96875 6.070312 L 9.90625 6.261719 C 9.855469 6.414062 9.804688 6.566406 9.730469 6.714844 C 9.488281 7.203125 9.109375 7.632812 8.617188 7.886719 C 8.46875 7.964844 8.304688 8.023438 8.140625 8.0625 C 7.96875 8.101562 7.796875 8.121094 7.621094 8.121094 L 7.628906 8.722656 C 8.164062 8.722656 8.699219 8.566406 9.148438 8.273438 C 9.410156 8.101562 9.640625 7.886719 9.839844 7.648438 C 9.9375 7.53125 10.023438 7.40625 10.105469 7.277344 C 10.140625 7.222656 10.179688 7.164062 10.203125 7.105469 C 10.300781 7.199219 10.394531 7.292969 10.492188 7.382812 C 11.007812 7.847656 11.632812 8.253906 12.339844 8.335938 C 12.460938 8.351562 12.582031 8.359375 12.699219 8.355469 C 13.066406 8.339844 13.410156 8.238281 13.746094 8.097656 C 13.980469 8 14.207031 7.882812 14.445312 7.796875 C 14.65625 7.722656 14.878906 7.683594 15.097656 7.75 C 15.1875 7.777344 15.277344 7.824219 15.355469 7.878906 C 15.453125 7.945312 15.539062 8.027344 15.613281 8.117188 C 15.726562 8.246094 15.816406 8.394531 15.894531 8.546875 C 15.929688 8.613281 15.957031 8.683594 15.988281 8.75 L 16.148438 8.683594 L 16.542969 8.511719 C 16.53125 8.480469 16.515625 8.449219 16.5 8.421875 C 16.476562 8.367188 16.453125 8.316406 16.425781 8.265625 C 16.347656 8.117188 16.261719 7.96875 16.15625 7.835938 C 16.035156 7.667969 15.890625 7.519531 15.722656 7.398438 C 15.601562 7.316406 15.472656 7.246094 15.335938 7.195312 C 15.242188 7.160156 15.140625 7.140625 15.039062 7.125 C 14.96875 7.113281 14.902344 7.113281 14.832031 7.113281 C 14.277344 7.128906 13.808594 7.445312 13.300781 7.625 C 13.09375 7.699219 12.875 7.75 12.65625 7.753906 C 12.53125 7.757812 12.410156 7.746094 12.289062 7.722656 C 12.015625 7.667969 11.753906 7.550781 11.519531 7.410156 C 11.15625 7.1875 10.832031 6.898438 10.546875 6.589844 C 10.417969 6.453125 10.292969 6.308594 10.171875 6.164062 C 10.132812 6.121094 10.097656 6.078125 10.058594 6.035156 C 10.042969 6.015625 10.023438 5.988281 10.003906 5.972656 M 8.359375 9.984375 C 8.359375 10.042969 8.363281 10.101562 8.378906 10.15625 C 8.441406 10.453125 8.660156 10.683594 8.921875 10.820312 C 9.34375 11.046875 9.890625 11.050781 10.320312 10.835938 C 10.59375 10.699219 10.824219 10.460938 10.890625 10.152344 C 10.902344 10.097656 10.90625 10.039062 10.90625 9.984375 L 10.308594 9.984375 C 10.308594 10.125 10.179688 10.234375 10.0625 10.292969 C 9.808594 10.417969 9.480469 10.429688 9.226562 10.300781 C 9.101562 10.242188 8.960938 10.132812 8.960938 9.984375 L 8.359375 9.984375 M 12.929688 9.984375 C 12.929688 10.046875 12.9375 10.105469 12.949219 10.167969 C 13.015625 10.46875 13.25 10.703125 13.515625 10.835938 C 13.941406 11.046875 14.480469 11.046875 14.902344 10.828125 C 15.171875 10.691406 15.394531 10.457031 15.460938 10.15625 C 15.472656 10.097656 15.476562 10.039062 15.476562 9.984375 L 14.878906 9.984375 C 14.875 10.007812 14.875 10.03125 14.863281 10.054688 C 14.828125 10.164062 14.730469 10.238281 14.636719 10.289062 C 14.394531 10.417969 14.078125 10.425781 13.828125 10.316406 C 13.695312 10.261719 13.527344 10.144531 13.527344 9.984375 L 12.929688 9.984375 M 11.554688 10.800781 L 11.550781 13.019531 L 12.839844 13.019531 L 12.839844 12.417969 L 12.152344 12.417969 L 12.15625 10.800781 L 11.554688 10.800781 M 10.953125 14.15625 L 10.953125 14.753906 L 13.097656 14.753906 L 13.097656 14.15625 L 10.953125 14.15625 M 8.503906 16.351562 L 8.503906 17.4375 C 8.503906 17.484375 8.503906 17.535156 8.5 17.582031 C 8.488281 17.703125 8.460938 17.828125 8.410156 17.941406 C 8.300781 18.191406 8.101562 18.398438 7.855469 18.511719 C 7.714844 18.578125 7.5625 18.617188 7.417969 18.660156 C 7.09375 18.761719 6.769531 18.863281 6.445312 18.964844 C 6.332031 19 6.222656 19.035156 6.109375 19.070312 C 6.058594 19.085938 6 19.097656 5.953125 19.117188 L 6.019531 19.332031 L 6.132812 19.691406 C 6.167969 19.6875 6.203125 19.667969 6.238281 19.65625 C 6.304688 19.636719 6.371094 19.617188 6.4375 19.597656 C 6.640625 19.535156 6.839844 19.46875 7.042969 19.40625 C 7.25 19.34375 7.460938 19.277344 7.667969 19.210938 C 7.839844 19.160156 8.011719 19.109375 8.171875 19.027344 C 8.53125 18.839844 8.820312 18.523438 8.972656 18.148438 C 9.042969 17.980469 9.085938 17.800781 9.097656 17.617188 C 9.109375 17.480469 9.105469 17.339844 9.105469 17.199219 L 9.105469 16.351562 L 8.503906 16.351562 M 14.910156 16.351562 L 14.910156 17.199219 C 14.910156 17.351562 14.90625 17.507812 14.921875 17.65625 C 14.9375 17.824219 14.976562 17.988281 15.039062 18.140625 C 15.191406 18.515625 15.476562 18.832031 15.835938 19.019531 C 15.992188 19.105469 16.164062 19.15625 16.335938 19.207031 C 16.550781 19.273438 16.765625 19.34375 16.984375 19.410156 C 17.183594 19.472656 17.386719 19.535156 17.585938 19.597656 C 17.652344 19.621094 17.722656 19.640625 17.789062 19.660156 C 17.820312 19.671875 17.851562 19.6875 17.886719 19.691406 L 17.929688 19.546875 L 18.011719 19.292969 L 18.046875 19.179688 L 18.0625 19.117188 C 18.03125 19.109375 18 19.097656 17.972656 19.089844 C 17.910156 19.070312 17.851562 19.050781 17.792969 19.035156 C 17.605469 18.976562 17.417969 18.917969 17.234375 18.859375 C 17.023438 18.792969 16.816406 18.726562 16.609375 18.664062 C 16.453125 18.613281 16.289062 18.574219 16.144531 18.503906 C 15.917969 18.394531 15.730469 18.203125 15.625 17.980469 C 15.570312 17.863281 15.53125 17.742188 15.519531 17.613281 C 15.503906 17.480469 15.511719 17.339844 15.511719 17.207031 L 15.511719 16.351562 L 14.910156 16.351562 M 10.890625 17.21875 L 10.890625 18.261719 C 10.890625 18.269531 10.890625 18.28125 10.890625 18.289062 C 10.886719 18.300781 10.871094 18.308594 10.863281 18.316406 C 10.847656 18.335938 10.828125 18.351562 10.808594 18.371094 C 10.753906 18.4375 10.699219 18.503906 10.652344 18.574219 C 10.503906 18.800781 10.414062 19.082031 10.410156 19.355469 C 10.40625 19.65625 10.480469 19.949219 10.636719 20.207031 C 10.683594 20.28125 10.738281 20.351562 10.796875 20.417969 C 10.816406 20.4375 10.832031 20.457031 10.851562 20.476562 C 10.859375 20.484375 10.875 20.492188 10.878906 20.503906 C 10.878906 20.511719 10.878906 20.519531 10.878906 20.527344 L 10.878906 20.582031 C 10.878906 20.640625 10.878906 20.699219 10.878906 20.753906 C 10.878906 20.949219 10.882812 21.144531 10.882812 21.335938 L 11.480469 21.335938 C 11.480469 21.074219 11.480469 20.8125 11.480469 20.554688 C 11.480469 20.476562 11.476562 20.398438 11.476562 20.324219 L 11.476562 20.253906 C 11.476562 20.242188 11.480469 20.230469 11.476562 20.21875 C 11.472656 20.210938 11.464844 20.207031 11.457031 20.203125 C 11.441406 20.1875 11.425781 20.175781 11.40625 20.164062 C 11.351562 20.117188 11.296875 20.074219 11.25 20.019531 C 11.097656 19.855469 11.007812 19.628906 11.007812 19.402344 C 11.011719 19.164062 11.101562 18.945312 11.261719 18.773438 C 11.308594 18.71875 11.363281 18.675781 11.421875 18.632812 C 11.4375 18.617188 11.453125 18.605469 11.46875 18.59375 C 11.476562 18.589844 11.488281 18.585938 11.488281 18.578125 C 11.492188 18.566406 11.492188 18.550781 11.492188 18.542969 L 11.492188 17.21875 L 10.890625 17.21875 M 12.347656 17.21875 L 12.347656 18.53125 C 12.347656 18.539062 12.347656 18.554688 12.351562 18.566406 C 12.351562 18.570312 12.363281 18.578125 12.371094 18.582031 C 12.386719 18.59375 12.40625 18.605469 12.421875 18.617188 C 12.484375 18.664062 12.542969 18.707031 12.59375 18.761719 C 12.757812 18.925781 12.851562 19.15625 12.855469 19.390625 C 12.859375 19.621094 12.769531 19.855469 12.613281 20.027344 C 12.5625 20.078125 12.507812 20.125 12.449219 20.167969 C 12.429688 20.183594 12.410156 20.195312 12.394531 20.210938 C 12.386719 20.214844 12.375 20.222656 12.371094 20.230469 C 12.371094 20.238281 12.371094 20.25 12.371094 20.257812 L 12.371094 21.332031 L 12.972656 21.332031 L 12.972656 20.542969 C 12.972656 20.535156 12.972656 20.523438 12.972656 20.519531 C 12.976562 20.507812 12.992188 20.5 13 20.488281 C 13.023438 20.46875 13.042969 20.449219 13.0625 20.425781 C 13.121094 20.359375 13.171875 20.292969 13.21875 20.21875 C 13.335938 20.03125 13.414062 19.820312 13.441406 19.597656 C 13.453125 19.515625 13.457031 19.433594 13.453125 19.347656 C 13.453125 19.0625 13.347656 18.773438 13.1875 18.542969 C 13.140625 18.46875 13.085938 18.40625 13.027344 18.34375 C 13.007812 18.324219 12.992188 18.308594 12.972656 18.289062 C 12.964844 18.28125 12.953125 18.277344 12.949219 18.265625 C 12.949219 18.257812 12.949219 18.246094 12.949219 18.238281 L 12.949219 17.21875 L 12.347656 17.21875 M 9.949219 17.554688 C 9.867188 17.566406 9.789062 17.589844 9.726562 17.648438 C 9.59375 17.773438 9.570312 17.984375 9.683594 18.132812 C 9.707031 18.164062 9.734375 18.191406 9.769531 18.210938 C 9.800781 18.234375 9.839844 18.25 9.878906 18.261719 C 9.925781 18.273438 9.972656 18.277344 10.019531 18.269531 C 10.195312 18.246094 10.328125 18.09375 10.332031 17.914062 C 10.332031 17.75 10.214844 17.605469 10.058594 17.566406 C 10.023438 17.554688 9.984375 17.550781 9.949219 17.554688 M 13.871094 17.554688 C 13.839844 17.558594 13.8125 17.5625 13.78125 17.570312 C 13.707031 17.59375 13.640625 17.644531 13.59375 17.707031 C 13.492188 17.851562 13.511719 18.058594 13.640625 18.179688 C 13.6875 18.222656 13.742188 18.25 13.804688 18.265625 C 13.84375 18.277344 13.886719 18.277344 13.929688 18.273438 C 14.101562 18.253906 14.242188 18.109375 14.25 17.933594 C 14.257812 17.769531 14.152344 17.617188 13.992188 17.570312 C 13.957031 17.558594 13.910156 17.550781 13.871094 17.554688 M 9.578125 18.679688 C 9.558594 18.683594 9.539062 18.683594 9.519531 18.6875 C 9.449219 18.703125 9.382812 18.738281 9.332031 18.792969 C 9.191406 18.945312 9.207031 19.195312 9.375 19.324219 C 9.414062 19.355469 9.457031 19.375 9.503906 19.390625 C 9.550781 19.402344 9.597656 19.402344 9.648438 19.398438 C 9.820312 19.375 9.957031 19.214844 9.957031 19.039062 C 9.957031 18.878906 9.84375 18.730469 9.683594 18.691406 C 9.652344 18.683594 9.613281 18.675781 9.578125 18.679688 M 14.226562 18.6875 C 14.15625 18.695312 14.089844 18.714844 14.03125 18.761719 C 13.996094 18.789062 13.964844 18.824219 13.945312 18.863281 C 13.921875 18.898438 13.910156 18.9375 13.902344 18.976562 C 13.871094 19.132812 13.949219 19.296875 14.09375 19.367188 C 14.160156 19.398438 14.230469 19.410156 14.300781 19.402344 C 14.351562 19.394531 14.40625 19.378906 14.449219 19.347656 C 14.488281 19.324219 14.523438 19.289062 14.550781 19.25 C 14.65625 19.09375 14.625 18.878906 14.480469 18.765625 C 14.445312 18.734375 14.402344 18.714844 14.359375 18.703125 C 14.320312 18.6875 14.269531 18.679688 14.226562 18.6875 M 9.710938 19.859375 C 9.625 19.871094 9.554688 19.898438 9.488281 19.957031 C 9.457031 19.984375 9.433594 20.019531 9.414062 20.058594 C 9.316406 20.253906 9.417969 20.503906 9.632812 20.566406 C 9.679688 20.578125 9.734375 20.582031 9.78125 20.578125 C 9.957031 20.554688 10.085938 20.40625 10.09375 20.234375 C 10.101562 20.058594 9.976562 19.902344 9.808594 19.867188 C 9.777344 19.859375 9.742188 19.855469 9.710938 19.859375 M 14.070312 19.863281 C 14.007812 19.875 13.949219 19.890625 13.894531 19.929688 C 13.730469 20.046875 13.695312 20.285156 13.820312 20.445312 C 13.839844 20.472656 13.867188 20.5 13.898438 20.519531 C 13.933594 20.542969 13.972656 20.5625 14.011719 20.570312 C 14.058594 20.582031 14.101562 20.585938 14.148438 20.582031 C 14.199219 20.574219 14.253906 20.554688 14.296875 20.527344 C 14.332031 20.503906 14.363281 20.480469 14.386719 20.449219 C 14.507812 20.289062 14.480469 20.0625 14.324219 19.9375 C 14.289062 19.910156 14.246094 19.890625 14.203125 19.878906 C 14.160156 19.867188 14.113281 19.859375 14.070312 19.863281 Z M 14.070312 19.863281 "/>
</g>
</svg>
