<?xml version="1.0" encoding="UTF-8"?>
<svg xmlns="http://www.w3.org/2000/svg" xmlns:xlink="http://www.w3.org/1999/xlink" viewBox="0 0 24 24" version="1.1">
<g>
<path style=" stroke:none;fill-rule:nonzero;fill:rgb(0.392157%,0.392157%,0.392157%);fill-opacity:1;" d="M 6.367188 12.683594 C 6.367188 13.335938 6.574219 13.992188 6.933594 14.539062 C 7.074219 14.75 7.238281 14.945312 7.421875 15.125 C 7.550781 15.25 7.691406 15.363281 7.839844 15.464844 C 7.917969 15.523438 8.003906 15.574219 8.082031 15.625 C 8.136719 15.664062 8.195312 15.699219 8.25 15.734375 C 8.265625 15.746094 8.277344 15.753906 8.292969 15.761719 C 8.292969 15.765625 8.300781 15.773438 8.304688 15.769531 C 8.3125 15.769531 8.316406 15.757812 8.320312 15.753906 C 8.332031 15.734375 8.34375 15.714844 8.355469 15.699219 C 8.398438 15.628906 8.445312 15.558594 8.492188 15.492188 C 8.527344 15.4375 8.558594 15.386719 8.59375 15.332031 C 8.605469 15.320312 8.613281 15.304688 8.621094 15.289062 C 8.625 15.285156 8.632812 15.277344 8.632812 15.273438 C 8.632812 15.265625 8.621094 15.261719 8.617188 15.257812 C 8.597656 15.246094 8.578125 15.234375 8.5625 15.222656 C 8.484375 15.171875 8.40625 15.121094 8.332031 15.070312 C 8.222656 15 8.117188 14.925781 8.015625 14.847656 C 7.839844 14.703125 7.683594 14.539062 7.546875 14.359375 C 7.226562 13.949219 7.03125 13.441406 6.980469 12.921875 C 6.953125 12.644531 6.972656 12.363281 6.972656 12.082031 L 6.265625 12.082031 C 6.203125 12.082031 6.136719 12.089844 6.074219 12.082031 C 5.976562 12.074219 5.878906 12.027344 5.8125 11.953125 C 5.757812 11.894531 5.722656 11.824219 5.707031 11.746094 C 5.695312 11.703125 5.699219 11.660156 5.699219 11.613281 L 5.699219 10.421875 C 5.699219 10.347656 5.691406 10.265625 5.703125 10.191406 C 5.714844 10.105469 5.757812 10.023438 5.820312 9.960938 C 5.882812 9.894531 5.96875 9.851562 6.058594 9.839844 C 6.121094 9.832031 6.183594 9.839844 6.242188 9.839844 L 6.546875 9.839844 L 6.546875 6.253906 C 6.546875 6.089844 6.546875 5.929688 6.570312 5.765625 C 6.609375 5.511719 6.695312 5.261719 6.828125 5.039062 C 7.09375 4.597656 7.53125 4.261719 8.03125 4.136719 C 8.136719 4.109375 8.238281 4.089844 8.347656 4.082031 C 8.394531 4.078125 8.445312 4.074219 8.492188 4.074219 C 8.535156 4.070312 8.578125 4.074219 8.621094 4.074219 C 8.636719 4.074219 8.660156 4.078125 8.671875 4.070312 C 8.695312 4.054688 8.71875 4.03125 8.738281 4.011719 C 8.78125 3.976562 8.824219 3.941406 8.867188 3.902344 C 9.015625 3.777344 9.164062 3.648438 9.320312 3.53125 C 9.71875 3.238281 10.167969 3.011719 10.644531 2.867188 C 11.019531 2.753906 11.414062 2.691406 11.804688 2.683594 C 12.707031 2.660156 13.617188 2.925781 14.363281 3.4375 C 14.714844 3.679688 15.03125 3.96875 15.300781 4.300781 C 15.566406 4.632812 15.789062 5.003906 15.949219 5.398438 C 16.117188 5.808594 16.214844 6.238281 16.253906 6.679688 C 16.273438 6.851562 16.269531 7.027344 16.269531 7.203125 L 16.269531 9.839844 L 16.558594 9.839844 C 16.617188 9.839844 16.679688 9.832031 16.738281 9.839844 C 16.832031 9.855469 16.921875 9.902344 16.988281 9.96875 C 17.046875 10.03125 17.085938 10.117188 17.097656 10.199219 C 17.105469 10.277344 17.101562 10.359375 17.101562 10.4375 L 17.101562 11.609375 C 17.101562 11.664062 17.101562 11.71875 17.085938 11.773438 C 17.066406 11.839844 17.03125 11.902344 16.984375 11.953125 C 16.917969 12.027344 16.820312 12.074219 16.722656 12.082031 C 16.664062 12.085938 16.601562 12.082031 16.542969 12.082031 L 15.828125 12.082031 C 15.828125 12.222656 15.828125 12.363281 15.828125 12.503906 C 15.828125 12.679688 15.828125 12.851562 15.8125 13.023438 C 15.765625 13.472656 15.601562 13.917969 15.347656 14.292969 C 15.179688 14.542969 14.972656 14.765625 14.734375 14.953125 C 14.660156 15.011719 14.585938 15.0625 14.507812 15.113281 C 14.488281 15.125 14.464844 15.136719 14.445312 15.148438 C 14.441406 15.152344 14.425781 15.160156 14.425781 15.164062 C 14.425781 15.175781 14.441406 15.191406 14.445312 15.199219 C 14.464844 15.230469 14.484375 15.261719 14.503906 15.292969 C 14.558594 15.386719 14.617188 15.472656 14.671875 15.5625 C 14.695312 15.601562 14.722656 15.636719 14.738281 15.671875 C 14.761719 15.667969 14.785156 15.648438 14.804688 15.632812 C 14.851562 15.605469 14.898438 15.574219 14.945312 15.542969 C 15.113281 15.425781 15.273438 15.296875 15.417969 15.148438 C 15.875 14.691406 16.203125 14.105469 16.34375 13.472656 C 16.402344 13.210938 16.429688 12.949219 16.429688 12.683594 C 16.609375 12.683594 16.789062 12.695312 16.960938 12.644531 C 17.0625 12.617188 17.160156 12.574219 17.246094 12.515625 C 17.316406 12.46875 17.378906 12.414062 17.433594 12.355469 C 17.578125 12.199219 17.671875 11.988281 17.695312 11.777344 C 17.707031 11.660156 17.699219 11.542969 17.699219 11.425781 L 17.699219 10.421875 C 17.699219 10.332031 17.703125 10.246094 17.695312 10.15625 C 17.683594 10.039062 17.652344 9.921875 17.601562 9.816406 C 17.507812 9.625 17.359375 9.464844 17.175781 9.363281 C 17.105469 9.324219 17.03125 9.296875 16.953125 9.273438 C 16.933594 9.265625 16.910156 9.261719 16.890625 9.257812 C 16.886719 9.257812 16.875 9.257812 16.871094 9.25 C 16.867188 9.246094 16.871094 9.238281 16.871094 9.230469 L 16.871094 7.414062 C 16.871094 7.226562 16.875 7.039062 16.867188 6.851562 C 16.859375 6.683594 16.84375 6.515625 16.820312 6.347656 C 16.792969 6.121094 16.742188 5.894531 16.679688 5.671875 C 16.441406 4.84375 15.980469 4.070312 15.355469 3.472656 C 14.601562 2.753906 13.628906 2.265625 12.59375 2.128906 C 12.394531 2.101562 12.195312 2.082031 11.992188 2.082031 C 11.71875 2.078125 11.445312 2.09375 11.175781 2.136719 C 10.523438 2.230469 9.894531 2.460938 9.332031 2.800781 C 9.125 2.925781 8.925781 3.070312 8.738281 3.222656 C 8.671875 3.277344 8.605469 3.335938 8.539062 3.394531 C 8.515625 3.410156 8.496094 3.429688 8.476562 3.445312 C 8.46875 3.453125 8.457031 3.464844 8.445312 3.472656 C 8.4375 3.476562 8.425781 3.472656 8.414062 3.476562 C 8.398438 3.476562 8.378906 3.476562 8.363281 3.476562 C 8.300781 3.480469 8.238281 3.488281 8.175781 3.496094 C 7.992188 3.523438 7.808594 3.566406 7.632812 3.632812 C 6.890625 3.902344 6.308594 4.523438 6.066406 5.277344 C 6.007812 5.46875 5.96875 5.667969 5.957031 5.867188 C 5.949219 5.96875 5.949219 6.074219 5.949219 6.175781 L 5.949219 9.21875 C 5.949219 9.226562 5.953125 9.238281 5.949219 9.246094 C 5.945312 9.253906 5.9375 9.253906 5.933594 9.253906 C 5.921875 9.253906 5.90625 9.257812 5.894531 9.261719 C 5.839844 9.273438 5.785156 9.289062 5.734375 9.308594 C 5.582031 9.371094 5.441406 9.472656 5.335938 9.601562 C 5.222656 9.734375 5.144531 9.902344 5.113281 10.074219 C 5.09375 10.183594 5.097656 10.289062 5.097656 10.398438 L 5.097656 11.40625 C 5.097656 11.535156 5.089844 11.671875 5.105469 11.800781 C 5.136719 12.019531 5.238281 12.230469 5.394531 12.382812 C 5.445312 12.4375 5.5 12.484375 5.5625 12.523438 C 5.648438 12.574219 5.738281 12.617188 5.835938 12.644531 C 6.007812 12.695312 6.1875 12.683594 6.367188 12.683594 M 9.453125 6.011719 C 9.429688 6.058594 9.417969 6.113281 9.402344 6.164062 C 9.363281 6.28125 9.324219 6.398438 9.285156 6.515625 C 9.238281 6.644531 9.175781 6.765625 9.113281 6.878906 C 8.90625 7.246094 8.621094 7.578125 8.269531 7.808594 C 7.914062 8.039062 7.492188 8.160156 7.070312 8.160156 L 7.078125 8.757812 C 7.589844 8.757812 8.101562 8.617188 8.539062 8.347656 C 8.824219 8.171875 9.074219 7.949219 9.285156 7.691406 C 9.382812 7.570312 9.472656 7.445312 9.554688 7.3125 C 9.589844 7.257812 9.628906 7.199219 9.65625 7.140625 C 9.761719 7.246094 9.867188 7.351562 9.980469 7.453125 C 10.402344 7.832031 10.902344 8.164062 11.460938 8.3125 C 11.671875 8.367188 11.902344 8.402344 12.121094 8.390625 C 12.277344 8.386719 12.429688 8.371094 12.578125 8.335938 C 12.835938 8.28125 13.078125 8.1875 13.316406 8.082031 C 13.519531 7.992188 13.71875 7.890625 13.929688 7.820312 C 14.097656 7.765625 14.273438 7.730469 14.449219 7.761719 C 14.515625 7.773438 14.582031 7.796875 14.644531 7.824219 C 14.730469 7.863281 14.808594 7.914062 14.882812 7.972656 C 14.996094 8.066406 15.089844 8.179688 15.175781 8.300781 C 15.246094 8.398438 15.304688 8.507812 15.359375 8.617188 C 15.386719 8.671875 15.417969 8.726562 15.4375 8.785156 C 15.453125 8.785156 15.46875 8.773438 15.480469 8.769531 C 15.511719 8.757812 15.539062 8.742188 15.570312 8.730469 C 15.667969 8.691406 15.761719 8.648438 15.859375 8.605469 C 15.890625 8.59375 15.921875 8.578125 15.957031 8.5625 C 15.964844 8.5625 15.988281 8.554688 15.988281 8.546875 C 15.992188 8.539062 15.980469 8.527344 15.980469 8.519531 C 15.96875 8.496094 15.957031 8.46875 15.945312 8.441406 C 15.894531 8.339844 15.84375 8.242188 15.789062 8.140625 C 15.535156 7.707031 15.15625 7.324219 14.65625 7.195312 C 14.570312 7.171875 14.484375 7.160156 14.398438 7.152344 C 14.097656 7.132812 13.800781 7.21875 13.527344 7.332031 C 13.152344 7.484375 12.796875 7.6875 12.394531 7.761719 C 12.273438 7.785156 12.144531 7.796875 12.019531 7.792969 C 11.738281 7.785156 11.460938 7.699219 11.207031 7.574219 C 10.828125 7.390625 10.492188 7.121094 10.195312 6.828125 C 10.097656 6.734375 10.003906 6.636719 9.914062 6.535156 C 9.808594 6.421875 9.710938 6.304688 9.609375 6.191406 C 9.574219 6.152344 9.542969 6.113281 9.507812 6.070312 C 9.488281 6.050781 9.46875 6.03125 9.457031 6.011719 L 9.453125 6.011719 M 8 10.25 C 8 10.308594 8.007812 10.363281 8.019531 10.421875 C 8.082031 10.726562 8.316406 10.964844 8.589844 11.101562 C 9.019531 11.316406 9.574219 11.3125 10 11.082031 C 10.253906 10.945312 10.46875 10.71875 10.53125 10.429688 C 10.542969 10.371094 10.550781 10.3125 10.550781 10.25 L 9.949219 10.25 C 9.949219 10.390625 9.820312 10.5 9.703125 10.558594 C 9.449219 10.6875 9.140625 10.691406 8.882812 10.578125 C 8.753906 10.519531 8.601562 10.402344 8.601562 10.25 L 8 10.25 M 12.570312 10.25 C 12.570312 10.613281 12.816406 10.925781 13.132812 11.089844 C 13.425781 11.242188 13.769531 11.289062 14.09375 11.238281 C 14.25 11.214844 14.40625 11.167969 14.546875 11.09375 C 14.660156 11.035156 14.765625 10.960938 14.855469 10.871094 C 15.015625 10.703125 15.121094 10.484375 15.121094 10.25 L 14.519531 10.25 C 14.519531 10.402344 14.371094 10.515625 14.242188 10.574219 C 13.984375 10.691406 13.65625 10.691406 13.40625 10.554688 C 13.296875 10.492188 13.171875 10.386719 13.171875 10.25 L 12.570312 10.25 M 11.199219 11.367188 L 11.195312 13.585938 L 12.484375 13.585938 L 12.484375 12.984375 L 11.796875 12.984375 L 11.796875 11.367188 L 11.199219 11.367188 M 10.449219 14.773438 C 10.382812 14.78125 10.324219 14.800781 10.269531 14.839844 C 10.230469 14.867188 10.199219 14.902344 10.175781 14.941406 C 10.097656 15.070312 10.101562 15.238281 10.199219 15.359375 C 10.222656 15.390625 10.25 15.414062 10.285156 15.4375 C 10.316406 15.457031 10.355469 15.472656 10.390625 15.484375 C 10.433594 15.492188 10.480469 15.496094 10.527344 15.492188 C 10.578125 15.484375 10.628906 15.464844 10.675781 15.4375 C 10.773438 15.371094 10.84375 15.253906 10.839844 15.132812 C 10.835938 14.960938 10.71875 14.8125 10.550781 14.78125 C 10.519531 14.773438 10.480469 14.769531 10.449219 14.773438 M 11.523438 14.792969 C 11.433594 14.804688 11.359375 14.828125 11.292969 14.890625 C 11.261719 14.921875 11.234375 14.957031 11.21875 14.996094 C 11.148438 15.132812 11.183594 15.3125 11.296875 15.417969 C 11.378906 15.488281 11.484375 15.523438 11.589844 15.507812 C 11.765625 15.484375 11.898438 15.332031 11.902344 15.160156 C 11.90625 14.988281 11.78125 14.832031 11.617188 14.800781 C 11.585938 14.792969 11.550781 14.789062 11.523438 14.792969 M 12.574219 14.8125 C 12.507812 14.820312 12.445312 14.839844 12.390625 14.878906 C 12.355469 14.90625 12.324219 14.941406 12.300781 14.980469 C 12.203125 15.132812 12.238281 15.34375 12.378906 15.453125 C 12.421875 15.484375 12.46875 15.507812 12.519531 15.519531 C 12.558594 15.53125 12.605469 15.535156 12.648438 15.527344 C 12.703125 15.523438 12.753906 15.503906 12.800781 15.472656 C 12.96875 15.363281 13.011719 15.136719 12.902344 14.96875 C 12.878906 14.9375 12.855469 14.90625 12.824219 14.886719 C 12.785156 14.859375 12.746094 14.835938 12.703125 14.824219 C 12.660156 14.8125 12.613281 14.808594 12.574219 14.8125 M 10.226562 15.945312 C 10.191406 15.953125 10.160156 15.953125 10.128906 15.964844 C 10.050781 15.988281 9.984375 16.042969 9.9375 16.113281 C 9.847656 16.253906 9.871094 16.449219 9.992188 16.566406 C 10.039062 16.613281 10.097656 16.640625 10.160156 16.65625 C 10.199219 16.667969 10.242188 16.667969 10.285156 16.664062 C 10.457031 16.644531 10.589844 16.5 10.601562 16.328125 C 10.613281 16.15625 10.496094 16 10.332031 15.957031 C 10.296875 15.949219 10.257812 15.941406 10.226562 15.945312 M 12.8125 15.988281 C 12.730469 15.996094 12.660156 16.019531 12.597656 16.074219 C 12.5625 16.105469 12.535156 16.140625 12.515625 16.179688 C 12.445312 16.3125 12.46875 16.480469 12.570312 16.589844 C 12.617188 16.640625 12.679688 16.679688 12.746094 16.695312 C 12.792969 16.707031 12.835938 16.707031 12.882812 16.703125 C 13.046875 16.679688 13.183594 16.542969 13.195312 16.375 C 13.207031 16.195312 13.085938 16.027344 12.90625 15.992188 C 12.875 15.988281 12.84375 15.984375 12.8125 15.988281 M 11.511719 15.988281 C 11.488281 15.992188 11.464844 15.992188 11.441406 16 C 11.371094 16.011719 11.308594 16.050781 11.257812 16.101562 C 11.113281 16.257812 11.132812 16.523438 11.316406 16.644531 C 11.34375 16.664062 11.375 16.683594 11.410156 16.691406 C 11.464844 16.707031 11.519531 16.714844 11.574219 16.707031 C 11.746094 16.683594 11.886719 16.523438 11.878906 16.347656 C 11.875 16.191406 11.777344 16.046875 11.621094 16.003906 C 11.585938 15.992188 11.546875 15.984375 11.511719 15.988281 M 9.234375 19.945312 C 9.253906 20 9.28125 20.054688 9.304688 20.105469 C 9.371094 20.25 9.453125 20.382812 9.546875 20.511719 C 9.722656 20.75 9.9375 20.953125 10.183594 21.113281 C 10.421875 21.269531 10.6875 21.382812 10.960938 21.445312 C 11.597656 21.597656 12.289062 21.484375 12.839844 21.136719 C 13.121094 20.957031 13.363281 20.726562 13.554688 20.453125 C 13.617188 20.359375 13.675781 20.261719 13.726562 20.164062 C 13.742188 20.128906 13.757812 20.097656 13.773438 20.066406 C 13.777344 20.054688 13.78125 20.035156 13.792969 20.027344 C 13.796875 20.027344 13.800781 20.027344 13.804688 20.027344 C 13.816406 20.03125 13.828125 20.03125 13.839844 20.03125 C 13.882812 20.039062 13.929688 20.039062 13.972656 20.042969 C 14.121094 20.050781 14.273438 20.039062 14.421875 20.007812 C 14.789062 19.933594 15.125 19.753906 15.386719 19.488281 C 15.492188 19.382812 15.582031 19.261719 15.660156 19.136719 C 16 18.589844 16.019531 17.855469 15.710938 17.285156 C 15.550781 16.992188 15.320312 16.738281 15.03125 16.5625 C 14.929688 16.5 14.824219 16.449219 14.710938 16.40625 C 14.664062 16.386719 14.617188 16.371094 14.566406 16.359375 C 14.546875 16.402344 14.539062 16.453125 14.527344 16.496094 C 14.5 16.59375 14.472656 16.691406 14.445312 16.789062 C 14.433594 16.824219 14.421875 16.859375 14.414062 16.894531 C 14.410156 16.90625 14.398438 16.925781 14.402344 16.933594 C 14.40625 16.941406 14.417969 16.941406 14.421875 16.941406 C 14.445312 16.949219 14.464844 16.957031 14.484375 16.964844 C 14.5625 16.988281 14.632812 17.023438 14.703125 17.066406 C 14.894531 17.179688 15.050781 17.339844 15.164062 17.535156 C 15.414062 17.96875 15.375 18.53125 15.074219 18.929688 C 14.976562 19.0625 14.855469 19.171875 14.714844 19.257812 C 14.554688 19.359375 14.367188 19.417969 14.179688 19.4375 C 14.105469 19.445312 14.035156 19.441406 13.960938 19.441406 C 13.96875 19.414062 13.96875 19.382812 13.972656 19.351562 C 13.984375 19.28125 13.988281 19.214844 13.992188 19.144531 C 14.003906 18.867188 13.964844 18.582031 13.882812 18.316406 C 13.855469 18.242188 13.828125 18.164062 13.796875 18.089844 C 13.789062 18.070312 13.78125 18.050781 13.769531 18.03125 C 13.765625 18.019531 13.761719 18.007812 13.753906 17.996094 C 13.75 17.988281 13.730469 18.003906 13.726562 18.007812 C 13.695312 18.023438 13.664062 18.035156 13.632812 18.050781 C 13.53125 18.101562 13.429688 18.148438 13.324219 18.199219 L 13.242188 18.238281 C 13.238281 18.242188 13.21875 18.246094 13.214844 18.253906 C 13.210938 18.257812 13.214844 18.261719 13.21875 18.265625 C 13.222656 18.277344 13.230469 18.289062 13.234375 18.300781 C 13.253906 18.347656 13.273438 18.398438 13.292969 18.445312 C 13.355469 18.613281 13.378906 18.792969 13.390625 18.96875 C 13.398438 19.074219 13.390625 19.179688 13.378906 19.285156 C 13.316406 19.800781 13.019531 20.273438 12.597656 20.574219 C 12.152344 20.890625 11.578125 20.988281 11.054688 20.851562 C 10.863281 20.800781 10.679688 20.71875 10.515625 20.613281 C 10.347656 20.503906 10.195312 20.367188 10.074219 20.207031 C 9.929688 20.027344 9.820312 19.820312 9.75 19.597656 C 9.648438 19.269531 9.636719 18.910156 9.726562 18.578125 C 9.75 18.492188 9.78125 18.40625 9.816406 18.320312 C 9.828125 18.292969 9.839844 18.265625 9.855469 18.238281 C 9.863281 18.222656 9.875 18.207031 9.875 18.191406 C 9.839844 18.175781 9.804688 18.15625 9.769531 18.136719 C 9.671875 18.085938 9.578125 18.035156 9.480469 17.984375 C 9.449219 17.96875 9.414062 17.953125 9.382812 17.933594 C 9.375 17.929688 9.355469 17.914062 9.347656 17.917969 C 9.339844 17.917969 9.335938 17.929688 9.335938 17.933594 L 9.304688 17.992188 C 9.265625 18.070312 9.230469 18.15625 9.203125 18.238281 C 9.113281 18.507812 9.054688 18.800781 9.066406 19.089844 C 9.070312 19.152344 9.070312 19.214844 9.078125 19.277344 C 9.078125 19.300781 9.078125 19.328125 9.085938 19.355469 C 8.945312 19.355469 8.808594 19.34375 8.675781 19.300781 C 8.328125 19.199219 8.03125 18.941406 7.878906 18.613281 C 7.722656 18.269531 7.722656 17.871094 7.882812 17.53125 C 7.945312 17.40625 8.023438 17.292969 8.121094 17.191406 C 8.210938 17.09375 8.320312 17.011719 8.441406 16.949219 C 8.53125 16.898438 8.632812 16.855469 8.734375 16.835938 C 8.695312 16.691406 8.664062 16.546875 8.628906 16.402344 C 8.621094 16.367188 8.609375 16.328125 8.601562 16.292969 C 8.597656 16.285156 8.597656 16.257812 8.589844 16.253906 C 8.585938 16.25 8.570312 16.257812 8.566406 16.257812 C 8.546875 16.261719 8.523438 16.269531 8.503906 16.277344 C 8.410156 16.304688 8.320312 16.335938 8.238281 16.378906 C 8.132812 16.429688 8.03125 16.488281 7.9375 16.554688 C 7.707031 16.722656 7.519531 16.941406 7.382812 17.1875 C 7.105469 17.707031 7.089844 18.347656 7.339844 18.878906 C 7.460938 19.128906 7.636719 19.355469 7.847656 19.527344 C 8.019531 19.667969 8.207031 19.777344 8.414062 19.847656 C 8.609375 19.917969 8.816406 19.953125 9.023438 19.953125 C 9.074219 19.953125 9.121094 19.953125 9.171875 19.949219 C 9.191406 19.949219 9.214844 19.949219 9.234375 19.945312 M 11.46875 17.1875 C 11.40625 17.195312 11.34375 17.214844 11.289062 17.253906 C 11.25 17.28125 11.21875 17.316406 11.191406 17.355469 C 11.105469 17.496094 11.128906 17.691406 11.25 17.804688 C 11.292969 17.847656 11.347656 17.878906 11.410156 17.894531 C 11.453125 17.90625 11.5 17.910156 11.542969 17.902344 C 11.597656 17.898438 11.648438 17.878906 11.691406 17.851562 C 11.726562 17.828125 11.757812 17.800781 11.785156 17.765625 C 11.894531 17.625 11.878906 17.417969 11.753906 17.292969 C 11.710938 17.246094 11.65625 17.214844 11.597656 17.199219 C 11.558594 17.1875 11.511719 17.183594 11.46875 17.1875 Z M 11.46875 17.1875 "/>
</g>
</svg>
