<?xml version="1.0" encoding="UTF-8"?>
<svg xmlns="http://www.w3.org/2000/svg" xmlns:xlink="http://www.w3.org/1999/xlink" viewBox="0 0 24 24" version="1.1">
<g>
<path style=" stroke:none;fill-rule:nonzero;fill:rgb(0.392157%,0.392157%,0.392157%);fill-opacity:1;" d="M 6.453125 1.171875 L 6.453125 4.886719 L 7.546875 4.886719 L 7.546875 1.171875 Z M 6.453125 1.171875 "/>
<path style=" stroke:none;fill-rule:nonzero;fill:rgb(0.392157%,0.392157%,0.392157%);fill-opacity:1;" d="M 16.3125 1.171875 L 16.3125 4.886719 L 17.410156 4.886719 L 17.410156 1.171875 Z M 16.3125 1.171875 "/>
<path style=" stroke:none;fill-rule:nonzero;fill:rgb(9.019608%,9.019608%,9.019608%);fill-opacity:1;" d="M 17.410156 2.691406 L 17.410156 3.789062 L 18.917969 3.789062 C 19.042969 3.789062 19.167969 3.789062 19.289062 3.808594 C 19.625 3.855469 19.933594 4.007812 20.183594 4.238281 C 20.277344 4.332031 20.363281 4.433594 20.433594 4.542969 C 20.527344 4.683594 20.59375 4.839844 20.636719 5 C 20.714844 5.273438 20.695312 5.558594 20.695312 5.839844 L 20.695312 7.074219 L 3.164062 7.074219 L 3.164062 5.570312 C 3.164062 5.4375 3.164062 5.308594 3.1875 5.175781 C 3.253906 4.726562 3.519531 4.316406 3.902344 4.0625 C 4.035156 3.976562 4.179688 3.90625 4.335938 3.859375 C 4.445312 3.828125 4.558594 3.804688 4.675781 3.796875 C 4.75 3.789062 4.828125 3.789062 4.90625 3.789062 L 6.453125 3.789062 L 6.453125 2.691406 L 5.222656 2.691406 C 4.910156 2.691406 4.597656 2.683594 4.289062 2.742188 C 3.835938 2.828125 3.398438 3.035156 3.046875 3.335938 C 2.875 3.480469 2.71875 3.648438 2.585938 3.832031 C 2.316406 4.203125 2.136719 4.652344 2.085938 5.113281 C 2.070312 5.28125 2.070312 5.449219 2.070312 5.617188 L 2.070312 18.414062 C 2.070312 18.59375 2.070312 18.769531 2.09375 18.949219 C 2.164062 19.476562 2.394531 19.980469 2.742188 20.382812 C 3.167969 20.875 3.769531 21.199219 4.410156 21.292969 C 4.605469 21.324219 4.800781 21.324219 4.996094 21.324219 L 18.667969 21.324219 C 18.8125 21.324219 18.957031 21.324219 19.105469 21.324219 C 19.421875 21.316406 19.738281 21.253906 20.039062 21.140625 C 20.257812 21.054688 20.464844 20.941406 20.660156 20.804688 C 21.25 20.382812 21.65625 19.710938 21.765625 18.992188 C 21.792969 18.78125 21.792969 18.570312 21.792969 18.355469 L 21.792969 5.527344 C 21.792969 5.441406 21.796875 5.355469 21.789062 5.269531 C 21.78125 5.125 21.761719 4.980469 21.730469 4.839844 C 21.621094 4.351562 21.378906 3.898438 21.03125 3.535156 C 20.640625 3.125 20.121094 2.847656 19.566406 2.742188 C 19.261719 2.683594 18.953125 2.691406 18.648438 2.691406 Z M 17.410156 2.691406 "/>
<path style=" stroke:none;fill-rule:nonzero;fill:rgb(9.019608%,9.019608%,9.019608%);fill-opacity:1;" d="M 7.546875 2.691406 L 7.546875 3.789062 L 16.3125 3.789062 L 16.3125 2.691406 Z M 7.546875 2.691406 "/>
<path style=" stroke:none;fill-rule:nonzero;fill:rgb(4.313725%,4.313725%,4.313725%);fill-opacity:1;" d="M 16.3125 2.691406 L 16.3125 3.789062 L 16.316406 3.789062 L 16.316406 2.722656 L 16.3125 2.691406 M 7.546875 2.695312 L 7.546875 3.789062 Z M 7.546875 2.695312 "/>
<path style=" stroke:none;fill-rule:nonzero;fill:rgb(100%,100%,100%);fill-opacity:1;" d="M 3.164062 7.074219 L 20.695312 7.074219 L 20.695312 5.84375 C 20.695312 5.5625 20.714844 5.273438 20.636719 4.996094 C 20.59375 4.835938 20.527344 4.683594 20.433594 4.542969 C 20.363281 4.433594 20.28125 4.328125 20.183594 4.238281 C 19.9375 4.007812 19.625 3.855469 19.289062 3.808594 C 19.167969 3.789062 19.046875 3.789062 18.921875 3.789062 L 17.410156 3.789062 L 17.410156 4.886719 L 16.3125 4.886719 L 16.3125 3.789062 L 7.546875 3.789062 L 7.546875 4.886719 L 6.453125 4.886719 L 6.453125 3.789062 L 5.222656 3.789062 C 5.03125 3.789062 4.835938 3.78125 4.640625 3.796875 C 4.539062 3.808594 4.433594 3.828125 4.335938 3.859375 C 4.183594 3.902344 4.035156 3.972656 3.90625 4.0625 C 3.523438 4.316406 3.257812 4.722656 3.1875 5.175781 C 3.164062 5.308594 3.164062 5.4375 3.164062 5.570312 Z M 3.164062 7.074219 "/>
<path style=" stroke:none;fill-rule:nonzero;fill:rgb(100%,100%,100%);fill-opacity:1;" d="M 3.164062 8.171875 L 3.164062 18.449219 C 3.164062 18.566406 3.164062 18.683594 3.179688 18.796875 C 3.214844 19.058594 3.3125 19.3125 3.464844 19.527344 C 3.722656 19.894531 4.125 20.144531 4.570312 20.207031 C 4.707031 20.226562 4.839844 20.226562 4.976562 20.226562 L 18.890625 20.226562 C 19.027344 20.226562 19.164062 20.226562 19.300781 20.207031 C 19.714844 20.144531 20.09375 19.917969 20.351562 19.589844 C 20.527344 19.363281 20.644531 19.085938 20.683594 18.800781 C 20.699219 18.683594 20.695312 18.566406 20.695312 18.449219 L 20.695312 8.171875 Z M 3.164062 8.171875 "/>
<path style=" stroke:none;fill-rule:nonzero;fill:rgb(9.019608%,9.019608%,9.019608%);fill-opacity:1;" d="M 5.347656 9.269531 C 5.335938 9.269531 5.320312 9.269531 5.304688 9.269531 C 5.273438 9.269531 5.242188 9.273438 5.210938 9.277344 C 5.101562 9.292969 4.992188 9.320312 4.890625 9.371094 C 4.800781 9.414062 4.714844 9.46875 4.636719 9.535156 C 4.441406 9.703125 4.304688 9.949219 4.269531 10.207031 C 4.257812 10.296875 4.261719 10.386719 4.261719 10.476562 L 4.261719 12.332031 C 4.261719 12.441406 4.253906 12.554688 4.265625 12.664062 C 4.285156 12.863281 4.359375 13.058594 4.480469 13.214844 C 4.652344 13.441406 4.910156 13.597656 5.191406 13.640625 C 5.28125 13.652344 5.367188 13.652344 5.457031 13.652344 L 7.351562 13.652344 C 7.472656 13.652344 7.59375 13.65625 7.714844 13.640625 C 8.136719 13.578125 8.5 13.253906 8.609375 12.839844 C 8.628906 12.761719 8.640625 12.683594 8.644531 12.605469 C 8.644531 12.550781 8.644531 12.5 8.644531 12.445312 L 8.644531 10.511719 C 8.644531 10.390625 8.648438 10.273438 8.625 10.15625 C 8.597656 10.007812 8.535156 9.863281 8.449219 9.738281 C 8.277344 9.496094 8.011719 9.324219 7.714844 9.28125 C 7.621094 9.265625 7.53125 9.265625 7.4375 9.265625 L 5.449219 9.265625 C 5.414062 9.265625 5.382812 9.261719 5.347656 9.269531 M 10.828125 9.269531 C 10.8125 9.269531 10.796875 9.265625 10.78125 9.269531 C 10.75 9.269531 10.71875 9.273438 10.6875 9.277344 C 10.578125 9.292969 10.46875 9.324219 10.371094 9.371094 C 10.28125 9.414062 10.195312 9.464844 10.121094 9.53125 C 9.921875 9.699219 9.789062 9.941406 9.75 10.199219 C 9.738281 10.289062 9.738281 10.382812 9.738281 10.476562 L 9.738281 12.324219 C 9.738281 12.441406 9.734375 12.558594 9.746094 12.675781 C 9.765625 12.875 9.84375 13.066406 9.964844 13.222656 C 10.136719 13.445312 10.390625 13.597656 10.671875 13.640625 C 10.757812 13.652344 10.847656 13.652344 10.9375 13.652344 L 12.832031 13.652344 C 12.953125 13.652344 13.074219 13.65625 13.191406 13.640625 C 13.621094 13.578125 13.980469 13.25 14.089844 12.832031 C 14.121094 12.703125 14.125 12.578125 14.125 12.449219 L 14.125 10.515625 C 14.125 10.402344 14.128906 10.289062 14.109375 10.179688 C 14.082031 10.019531 14.019531 9.867188 13.925781 9.734375 C 13.757812 9.492188 13.488281 9.324219 13.191406 9.28125 C 13.101562 9.265625 13.011719 9.265625 12.917969 9.265625 L 10.925781 9.265625 C 10.894531 9.265625 10.859375 9.261719 10.828125 9.269531 M 16.304688 9.269531 C 16.292969 9.269531 16.277344 9.269531 16.261719 9.269531 C 16.230469 9.269531 16.199219 9.273438 16.167969 9.277344 C 16.058594 9.292969 15.945312 9.324219 15.847656 9.371094 C 15.757812 9.414062 15.671875 9.46875 15.597656 9.535156 C 15.402344 9.707031 15.269531 9.941406 15.230469 10.199219 C 15.214844 10.292969 15.21875 10.382812 15.21875 10.476562 L 15.21875 12.332031 C 15.21875 12.445312 15.210938 12.5625 15.222656 12.675781 C 15.242188 12.871094 15.320312 13.0625 15.4375 13.21875 C 15.609375 13.441406 15.867188 13.597656 16.148438 13.640625 C 16.238281 13.652344 16.324219 13.652344 16.414062 13.652344 L 18.308594 13.652344 C 18.429688 13.652344 18.550781 13.65625 18.671875 13.640625 C 19.09375 13.578125 19.453125 13.257812 19.566406 12.84375 C 19.601562 12.710938 19.601562 12.578125 19.601562 12.445312 L 19.601562 10.519531 C 19.601562 10.394531 19.605469 10.273438 19.582031 10.152344 C 19.550781 10 19.488281 9.855469 19.402344 9.730469 C 19.234375 9.496094 18.976562 9.332031 18.691406 9.28125 C 18.59375 9.265625 18.5 9.265625 18.402344 9.265625 L 16.402344 9.265625 C 16.371094 9.265625 16.339844 9.261719 16.304688 9.269531 Z M 16.304688 9.269531 "/>
<path style=" stroke:none;fill-rule:nonzero;fill:rgb(100%,100%,100%);fill-opacity:1;" d="M 5.359375 10.367188 L 5.359375 12.554688 L 7.546875 12.554688 L 7.546875 10.367188 L 5.359375 10.367188 M 10.835938 10.367188 L 10.835938 12.554688 L 13.027344 12.554688 L 13.027344 10.367188 L 10.835938 10.367188 M 16.316406 10.367188 L 16.316406 12.554688 L 18.503906 12.554688 L 18.503906 10.367188 Z M 16.316406 10.367188 "/>
<path style=" stroke:none;fill-rule:nonzero;fill:rgb(9.019608%,9.019608%,9.019608%);fill-opacity:1;" d="M 5.304688 14.746094 C 5.261719 14.753906 5.214844 14.753906 5.171875 14.761719 C 5.074219 14.777344 4.980469 14.808594 4.890625 14.851562 C 4.800781 14.890625 4.71875 14.945312 4.644531 15.007812 C 4.449219 15.175781 4.3125 15.410156 4.273438 15.667969 C 4.257812 15.761719 4.261719 15.859375 4.261719 15.953125 L 4.261719 17.816406 C 4.261719 17.925781 4.253906 18.035156 4.265625 18.144531 C 4.285156 18.335938 4.355469 18.527344 4.472656 18.683594 C 4.648438 18.921875 4.917969 19.082031 5.210938 19.121094 C 5.292969 19.132812 5.375 19.128906 5.457031 19.128906 L 7.359375 19.128906 C 7.476562 19.128906 7.597656 19.136719 7.714844 19.117188 C 8.140625 19.054688 8.5 18.734375 8.609375 18.320312 C 8.628906 18.242188 8.640625 18.164062 8.644531 18.085938 C 8.644531 18.03125 8.644531 17.976562 8.644531 17.925781 L 8.644531 15.988281 C 8.644531 15.875 8.648438 15.761719 8.628906 15.648438 C 8.597656 15.492188 8.535156 15.339844 8.441406 15.207031 C 8.273438 14.972656 8.011719 14.804688 7.722656 14.761719 C 7.632812 14.746094 7.542969 14.746094 7.449219 14.746094 L 5.402344 14.746094 C 5.371094 14.746094 5.335938 14.742188 5.304688 14.746094 M 10.78125 14.746094 C 10.734375 14.753906 10.683594 14.753906 10.636719 14.765625 C 10.542969 14.78125 10.453125 14.8125 10.367188 14.851562 C 10.28125 14.890625 10.199219 14.945312 10.125 15.003906 C 9.921875 15.175781 9.785156 15.425781 9.75 15.6875 C 9.738281 15.777344 9.738281 15.867188 9.738281 15.960938 L 9.738281 17.8125 C 9.738281 17.929688 9.730469 18.050781 9.746094 18.167969 C 9.769531 18.355469 9.84375 18.539062 9.957031 18.691406 C 10.128906 18.921875 10.394531 19.082031 10.679688 19.121094 C 10.765625 19.132812 10.851562 19.128906 10.9375 19.128906 L 12.839844 19.128906 C 12.957031 19.128906 13.078125 19.136719 13.195312 19.117188 C 13.621094 19.050781 13.976562 18.734375 14.085938 18.316406 C 14.121094 18.183594 14.125 18.054688 14.125 17.921875 L 14.125 16 C 14.125 15.878906 14.125 15.761719 14.105469 15.640625 C 14.078125 15.484375 14.011719 15.332031 13.917969 15.203125 C 13.746094 14.964844 13.476562 14.796875 13.183594 14.757812 C 13.097656 14.746094 13.015625 14.746094 12.929688 14.746094 L 10.878906 14.746094 C 10.847656 14.746094 10.8125 14.742188 10.78125 14.746094 M 16.261719 14.746094 C 16.210938 14.753906 16.164062 14.753906 16.113281 14.765625 C 16.019531 14.78125 15.929688 14.8125 15.84375 14.851562 C 15.757812 14.890625 15.675781 14.945312 15.605469 15.007812 C 15.402344 15.175781 15.269531 15.421875 15.230469 15.679688 C 15.214844 15.773438 15.21875 15.863281 15.21875 15.957031 L 15.21875 17.8125 C 15.21875 17.929688 15.214844 18.050781 15.226562 18.164062 C 15.246094 18.351562 15.320312 18.535156 15.429688 18.683594 C 15.601562 18.917969 15.867188 19.082031 16.15625 19.121094 C 16.242188 19.132812 16.332031 19.128906 16.417969 19.128906 L 18.316406 19.128906 C 18.4375 19.128906 18.554688 19.136719 18.671875 19.117188 C 19.097656 19.054688 19.457031 18.734375 19.566406 18.320312 C 19.601562 18.1875 19.601562 18.054688 19.601562 17.914062 L 19.601562 15.996094 C 19.601562 15.875 19.605469 15.75 19.582031 15.628906 C 19.550781 15.472656 19.484375 15.324219 19.390625 15.191406 C 19.21875 14.957031 18.949219 14.796875 18.660156 14.757812 C 18.578125 14.746094 18.496094 14.746094 18.410156 14.746094 L 16.355469 14.746094 C 16.324219 14.746094 16.292969 14.742188 16.261719 14.746094 Z M 16.261719 14.746094 "/>
<path style=" stroke:none;fill-rule:nonzero;fill:rgb(100%,100%,100%);fill-opacity:1;" d="M 5.359375 15.84375 L 5.359375 18.035156 L 7.546875 18.035156 L 7.546875 15.84375 L 5.359375 15.84375 M 10.835938 15.84375 L 10.835938 18.035156 L 13.027344 18.035156 L 13.027344 15.84375 L 10.835938 15.84375 M 16.316406 15.84375 L 16.316406 18.035156 L 18.503906 18.035156 L 18.503906 15.84375 Z M 16.316406 15.84375 "/>
</g>
</svg>
