<?xml version="1.0" encoding="UTF-8"?>
<svg xmlns="http://www.w3.org/2000/svg" xmlns:xlink="http://www.w3.org/1999/xlink" viewBox="0 0 24 24" version="1.1">
<g>
<path style=" stroke:none;fill-rule:nonzero;fill:rgb(0.392157%,0.392157%,0.392157%);fill-opacity:1;" d="M 8.003906 7.730469 C 7.660156 7.730469 7.3125 7.730469 6.96875 7.730469 C 6.675781 7.730469 6.382812 7.726562 6.09375 7.765625 C 5.3125 7.867188 4.554688 8.234375 4.003906 8.800781 C 3.453125 9.363281 3.105469 10.101562 3.003906 10.878906 C 2.972656 11.128906 2.972656 11.378906 2.972656 11.632812 C 2.972656 11.863281 2.96875 12.09375 2.972656 12.328125 C 2.972656 12.992188 2.972656 13.65625 2.972656 14.320312 L 2.972656 15.449219 C 2.972656 15.941406 2.980469 16.433594 3.109375 16.910156 C 3.167969 17.117188 3.246094 17.3125 3.34375 17.503906 C 3.558594 17.9375 3.863281 18.335938 4.238281 18.648438 C 4.640625 18.988281 5.113281 19.25 5.625 19.386719 C 6.09375 19.507812 6.582031 19.507812 7.066406 19.507812 L 14.53125 19.507812 C 14.839844 19.507812 15.148438 19.507812 15.457031 19.511719 C 15.644531 19.511719 15.832031 19.507812 16.019531 19.511719 C 16.261719 19.511719 16.507812 19.511719 16.75 19.511719 C 16.9375 19.511719 17.121094 19.511719 17.304688 19.511719 C 17.496094 19.507812 17.6875 19.511719 17.875 19.5 C 18.175781 19.480469 18.476562 19.417969 18.761719 19.324219 C 19.105469 19.210938 19.429688 19.046875 19.722656 18.835938 C 20.429688 18.332031 20.953125 17.578125 21.152344 16.734375 C 21.203125 16.527344 21.230469 16.316406 21.246094 16.105469 C 21.253906 15.980469 21.253906 15.855469 21.253906 15.730469 C 21.253906 15.5625 21.253906 15.394531 21.257812 15.226562 C 21.261719 14.808594 21.257812 14.394531 21.257812 13.980469 C 21.253906 13.671875 21.257812 13.363281 21.253906 13.058594 C 21.25 12.875 21.253906 12.6875 21.253906 12.503906 C 21.253906 12.285156 21.25 12.066406 21.253906 11.847656 C 21.257812 11.417969 21.261719 10.984375 21.171875 10.566406 C 21.070312 10.0625 20.84375 9.582031 20.539062 9.171875 C 20.363281 8.941406 20.167969 8.734375 19.945312 8.550781 C 19.4375 8.125 18.804688 7.851562 18.148438 7.765625 C 18.011719 7.746094 17.878906 7.738281 17.742188 7.730469 C 17.582031 7.722656 17.417969 7.730469 17.257812 7.730469 L 16.21875 7.730469 C 16.210938 7.65625 16.195312 7.578125 16.179688 7.507812 C 16.140625 7.332031 16.089844 7.15625 16.023438 6.992188 C 15.796875 6.40625 15.394531 5.890625 14.886719 5.527344 C 14.585938 5.3125 14.246094 5.148438 13.890625 5.042969 C 13.675781 4.980469 13.457031 4.945312 13.234375 4.921875 C 13.101562 4.910156 12.96875 4.914062 12.835938 4.910156 C 12.648438 4.90625 12.460938 4.90625 12.273438 4.902344 C 11.804688 4.890625 11.332031 4.890625 10.863281 4.945312 C 10.488281 4.992188 10.109375 5.085938 9.769531 5.25 C 9.570312 5.347656 9.390625 5.460938 9.21875 5.597656 C 9.023438 5.75 8.847656 5.925781 8.691406 6.121094 C 8.519531 6.335938 8.375 6.574219 8.261719 6.828125 C 8.171875 7.03125 8.101562 7.242188 8.054688 7.457031 C 8.035156 7.546875 8.011719 7.640625 8.003906 7.730469 Z M 8.003906 7.730469 "/>
<path style=" stroke:none;fill-rule:nonzero;fill:rgb(100%,100%,100%);fill-opacity:1;" d="M 12.347656 5.46875 C 12.320312 5.472656 12.289062 5.46875 12.257812 5.46875 C 12.179688 5.472656 12.101562 5.472656 12.019531 5.472656 C 11.835938 5.480469 11.652344 5.484375 11.464844 5.488281 C 11.320312 5.492188 11.171875 5.488281 11.027344 5.503906 C 10.289062 5.574219 9.574219 5.9375 9.113281 6.527344 C 8.863281 6.847656 8.691406 7.21875 8.609375 7.617188 C 8.585938 7.714844 8.574219 7.8125 8.5625 7.910156 C 8.558594 7.960938 8.5625 8.011719 8.550781 8.058594 C 8.535156 8.140625 8.492188 8.21875 8.421875 8.261719 C 8.351562 8.308594 8.273438 8.308594 8.195312 8.308594 L 8 8.308594 C 7.675781 8.308594 7.355469 8.3125 7.035156 8.304688 C 6.925781 8.300781 6.820312 8.304688 6.710938 8.304688 C 6.328125 8.316406 5.945312 8.351562 5.578125 8.472656 C 5.265625 8.574219 4.976562 8.738281 4.71875 8.9375 C 4.195312 9.34375 3.804688 9.933594 3.644531 10.574219 C 3.605469 10.71875 3.578125 10.867188 3.5625 11.015625 C 3.53125 11.335938 3.539062 11.65625 3.546875 11.976562 C 3.554688 12.277344 3.550781 12.582031 3.550781 12.886719 L 3.550781 15.648438 C 3.550781 15.882812 3.550781 16.109375 3.582031 16.339844 C 3.691406 17.078125 4.070312 17.765625 4.644531 18.242188 C 5.089844 18.613281 5.652344 18.847656 6.226562 18.90625 C 6.554688 18.941406 6.882812 18.929688 7.210938 18.929688 L 14.855469 18.929688 C 15.363281 18.929688 15.878906 18.925781 16.386719 18.9375 C 16.492188 18.941406 16.59375 18.9375 16.695312 18.941406 C 16.945312 18.945312 17.199219 18.945312 17.453125 18.9375 C 17.679688 18.933594 17.910156 18.929688 18.136719 18.894531 C 18.457031 18.84375 18.761719 18.738281 19.046875 18.589844 C 19.261719 18.480469 19.460938 18.339844 19.640625 18.183594 C 19.804688 18.042969 19.953125 17.882812 20.085938 17.707031 C 20.253906 17.476562 20.394531 17.222656 20.488281 16.949219 C 20.707031 16.324219 20.675781 15.65625 20.675781 15.003906 L 20.675781 11.84375 C 20.675781 11.664062 20.675781 11.484375 20.667969 11.304688 C 20.652344 10.941406 20.59375 10.574219 20.46875 10.234375 C 20.402344 10.066406 20.324219 9.902344 20.230469 9.746094 C 19.800781 9.042969 19.078125 8.546875 18.269531 8.375 C 18.089844 8.335938 17.902344 8.3125 17.71875 8.308594 C 17.273438 8.304688 16.832031 8.308594 16.386719 8.308594 L 16.046875 8.308594 C 15.96875 8.308594 15.890625 8.3125 15.820312 8.273438 C 15.800781 8.261719 15.78125 8.25 15.765625 8.234375 C 15.714844 8.183594 15.683594 8.125 15.671875 8.054688 C 15.664062 8.019531 15.667969 7.976562 15.664062 7.941406 C 15.65625 7.886719 15.652344 7.832031 15.644531 7.777344 C 15.597656 7.464844 15.496094 7.15625 15.34375 6.875 C 15.0625 6.355469 14.601562 5.921875 14.046875 5.703125 C 13.699219 5.566406 13.332031 5.507812 12.960938 5.480469 C 12.816406 5.472656 12.675781 5.46875 12.535156 5.46875 L 12.414062 5.46875 C 12.390625 5.46875 12.367188 5.464844 12.347656 5.46875 Z M 12.347656 5.46875 "/>
<path style=" stroke:none;fill-rule:nonzero;fill:rgb(0.392157%,0.392157%,0.392157%);fill-opacity:1;" d="M 12.058594 6.148438 C 12.03125 6.152344 12 6.152344 11.96875 6.152344 C 11.917969 6.152344 11.863281 6.152344 11.8125 6.152344 C 11.644531 6.160156 11.480469 6.167969 11.320312 6.1875 C 10.769531 6.257812 10.207031 6.4375 9.824219 6.859375 C 9.734375 6.960938 9.65625 7.074219 9.59375 7.191406 C 9.472656 7.414062 9.402344 7.660156 9.371094 7.910156 C 9.359375 8.007812 9.34375 8.121094 9.410156 8.203125 C 9.425781 8.21875 9.441406 8.234375 9.457031 8.246094 C 9.539062 8.304688 9.625 8.308594 9.722656 8.308594 L 14.46875 8.308594 C 14.519531 8.308594 14.574219 8.3125 14.625 8.304688 C 14.738281 8.28125 14.84375 8.1875 14.859375 8.070312 C 14.871094 8.003906 14.855469 7.929688 14.847656 7.863281 C 14.796875 7.511719 14.660156 7.167969 14.425781 6.894531 C 14.367188 6.824219 14.304688 6.761719 14.234375 6.703125 C 13.785156 6.320312 13.183594 6.203125 12.609375 6.164062 C 12.480469 6.15625 12.351562 6.152344 12.21875 6.152344 C 12.167969 6.152344 12.109375 6.144531 12.058594 6.148438 Z M 12.058594 6.148438 "/>
<path style=" stroke:none;fill-rule:nonzero;fill:rgb(100%,100%,100%);fill-opacity:1;" d="M 9.988281 7.730469 L 14.234375 7.730469 C 14.21875 7.660156 14.1875 7.589844 14.15625 7.523438 C 14.117188 7.453125 14.074219 7.382812 14.023438 7.320312 C 13.847656 7.101562 13.597656 6.96875 13.335938 6.882812 C 12.945312 6.753906 12.523438 6.730469 12.113281 6.730469 C 11.6875 6.730469 11.246094 6.753906 10.835938 6.898438 C 10.507812 7.015625 10.207031 7.222656 10.058594 7.546875 C 10.03125 7.605469 10.003906 7.667969 9.988281 7.730469 Z M 9.988281 7.730469 "/>
<path style=" stroke:none;fill-rule:nonzero;fill:rgb(0.392157%,0.392157%,0.392157%);fill-opacity:1;" d="M 10.828125 12.332031 L 9.09375 12.332031 C 9.007812 12.332031 8.925781 12.328125 8.851562 12.378906 C 8.78125 12.421875 8.730469 12.496094 8.71875 12.578125 C 8.710938 12.625 8.714844 12.671875 8.714844 12.71875 L 8.714844 14.523438 C 8.714844 14.570312 8.710938 14.621094 8.71875 14.667969 C 8.734375 14.742188 8.777344 14.808594 8.839844 14.851562 C 8.917969 14.90625 9 14.90625 9.089844 14.90625 L 10.828125 14.90625 L 10.828125 16.628906 C 10.828125 16.71875 10.824219 16.804688 10.875 16.882812 C 10.917969 16.949219 10.988281 17 11.066406 17.011719 C 11.113281 17.019531 11.164062 17.015625 11.210938 17.015625 L 13.019531 17.015625 C 13.0625 17.015625 13.109375 17.019531 13.15625 17.011719 C 13.226562 17 13.296875 16.957031 13.339844 16.898438 C 13.371094 16.859375 13.390625 16.8125 13.394531 16.761719 C 13.402344 16.71875 13.398438 16.675781 13.398438 16.632812 L 13.398438 14.90625 L 15.144531 14.90625 C 15.230469 14.90625 15.3125 14.90625 15.386719 14.855469 C 15.449219 14.808594 15.492188 14.742188 15.503906 14.667969 C 15.511719 14.621094 15.507812 14.574219 15.507812 14.527344 L 15.507812 12.71875 C 15.507812 12.671875 15.511719 12.621094 15.503906 12.574219 C 15.492188 12.496094 15.441406 12.425781 15.375 12.378906 C 15.296875 12.332031 15.214844 12.332031 15.128906 12.332031 L 13.398438 12.332031 L 13.398438 10.601562 C 13.398438 10.511719 13.398438 10.425781 13.34375 10.347656 C 13.300781 10.285156 13.230469 10.238281 13.152344 10.226562 C 13.105469 10.21875 13.058594 10.222656 13.015625 10.222656 L 11.210938 10.222656 C 11.164062 10.222656 11.113281 10.21875 11.0625 10.226562 C 10.988281 10.242188 10.917969 10.289062 10.875 10.355469 C 10.824219 10.433594 10.828125 10.515625 10.828125 10.605469 Z M 10.828125 12.332031 "/>
<path style=" stroke:none;fill-rule:nonzero;fill:rgb(100%,100%,100%);fill-opacity:1;" d="M 11.40625 10.800781 L 11.40625 12.527344 C 11.40625 12.566406 11.40625 12.605469 11.402344 12.640625 C 11.398438 12.707031 11.371094 12.773438 11.324219 12.820312 C 11.273438 12.871094 11.210938 12.90625 11.136719 12.910156 C 11.09375 12.914062 11.050781 12.910156 11.007812 12.910156 L 9.292969 12.910156 L 9.292969 14.328125 L 11.015625 14.328125 C 11.058594 14.328125 11.101562 14.324219 11.144531 14.328125 C 11.210938 14.335938 11.273438 14.367188 11.320312 14.414062 C 11.363281 14.457031 11.390625 14.511719 11.402344 14.574219 C 11.410156 14.621094 11.40625 14.671875 11.40625 14.71875 L 11.40625 16.4375 L 12.820312 16.4375 L 12.820312 14.703125 C 12.820312 14.664062 12.816406 14.625 12.820312 14.582031 C 12.828125 14.527344 12.851562 14.46875 12.894531 14.425781 C 12.910156 14.40625 12.929688 14.386719 12.953125 14.375 C 13.035156 14.320312 13.125 14.328125 13.222656 14.328125 L 14.929688 14.328125 L 14.929688 12.910156 L 13.210938 12.910156 C 13.164062 12.910156 13.113281 12.917969 13.0625 12.910156 C 13 12.898438 12.945312 12.867188 12.902344 12.820312 C 12.855469 12.777344 12.828125 12.71875 12.820312 12.65625 C 12.816406 12.613281 12.820312 12.570312 12.820312 12.527344 L 12.820312 10.800781 Z M 11.40625 10.800781 "/>
</g>
</svg>
