<?xml version="1.0" encoding="UTF-8"?>
<svg xmlns="http://www.w3.org/2000/svg" xmlns:xlink="http://www.w3.org/1999/xlink" viewBox="0 0 24 24" version="1.1">
<g>
<path style=" stroke:none;fill-rule:nonzero;fill:rgb(0%,0%,0%);fill-opacity:1;" d="M 10.015625 3.1875 C 9.800781 3.195312 9.582031 3.234375 9.386719 3.296875 C 9.371094 3.300781 9.359375 3.304688 9.355469 3.304688 C 9.34375 3.308594 9.277344 3.332031 9.25 3.34375 C 9.007812 3.433594 8.78125 3.566406 8.582031 3.730469 C 8.515625 3.785156 8.472656 3.824219 8.40625 3.890625 C 8.339844 3.960938 8.292969 4.011719 8.234375 4.082031 C 7.980469 4.398438 7.8125 4.773438 7.742188 5.171875 C 7.734375 5.226562 7.734375 5.242188 7.660156 5.816406 C 7.621094 6.121094 7.589844 6.371094 7.589844 6.371094 L 7.589844 6.375 L 5.921875 6.375 C 4.863281 6.375 4.238281 6.375 4.222656 6.375 C 3.882812 6.390625 3.566406 6.492188 3.28125 6.667969 C 2.882812 6.917969 2.582031 7.304688 2.449219 7.75 C 2.402344 7.902344 2.378906 8.042969 2.367188 8.210938 C 2.363281 8.25 2.363281 18.042969 2.367188 18.085938 C 2.375 18.191406 2.386719 18.273438 2.402344 18.367188 C 2.460938 18.636719 2.574219 18.894531 2.734375 19.121094 C 2.820312 19.238281 2.921875 19.34375 3.03125 19.441406 C 3.152344 19.546875 3.289062 19.640625 3.433594 19.714844 C 3.582031 19.789062 3.726562 19.839844 3.886719 19.875 C 3.992188 19.898438 4.085938 19.910156 4.214844 19.917969 C 4.25 19.921875 19.503906 19.921875 19.589844 19.921875 C 19.652344 19.917969 19.671875 19.917969 19.722656 19.914062 C 20.117188 19.878906 20.496094 19.71875 20.800781 19.460938 C 20.878906 19.394531 20.964844 19.308594 21.03125 19.234375 C 21.222656 19.007812 21.359375 18.738281 21.429688 18.453125 C 21.460938 18.332031 21.476562 18.222656 21.488281 18.085938 C 21.488281 18.042969 21.488281 8.25 21.488281 8.210938 C 21.480469 8.109375 21.46875 8.027344 21.453125 7.9375 C 21.410156 7.722656 21.328125 7.511719 21.214844 7.320312 C 20.949219 6.878906 20.523438 6.5625 20.027344 6.433594 C 19.910156 6.40625 19.808594 6.386719 19.671875 6.378906 C 19.644531 6.375 19.53125 6.375 17.953125 6.375 L 16.265625 6.375 L 16.261719 6.371094 C 16.261719 6.367188 16.230469 6.113281 16.191406 5.808594 C 16.125 5.257812 16.117188 5.214844 16.109375 5.152344 C 16.015625 4.625 15.738281 4.136719 15.335938 3.78125 C 15.128906 3.601562 14.894531 3.457031 14.644531 3.359375 C 14.386719 3.253906 14.117188 3.199219 13.832031 3.1875 C 13.785156 3.1875 10.0625 3.1875 10.015625 3.1875 Z M 13.832031 3.988281 C 14.152344 4.003906 14.453125 4.109375 14.710938 4.304688 C 14.773438 4.351562 14.824219 4.394531 14.882812 4.453125 C 14.921875 4.492188 14.941406 4.515625 14.972656 4.550781 C 15.097656 4.699219 15.199219 4.878906 15.261719 5.0625 C 15.289062 5.148438 15.3125 5.230469 15.324219 5.316406 C 15.332031 5.347656 15.339844 5.429688 15.410156 5.996094 C 15.4375 6.199219 15.457031 6.367188 15.460938 6.371094 L 15.460938 6.375 L 8.394531 6.375 L 8.394531 6.371094 C 8.394531 6.367188 8.5 5.527344 8.515625 5.402344 C 8.523438 5.339844 8.53125 5.300781 8.539062 5.257812 C 8.621094 4.859375 8.851562 4.507812 9.1875 4.273438 C 9.367188 4.148438 9.574219 4.058594 9.789062 4.015625 C 9.863281 4 9.945312 3.992188 10.019531 3.988281 C 10.054688 3.984375 13.796875 3.984375 13.832031 3.988281 Z M 19.621094 7.175781 C 19.707031 7.179688 19.777344 7.195312 19.847656 7.214844 C 20.117188 7.285156 20.347656 7.457031 20.5 7.6875 C 20.605469 7.84375 20.667969 8.019531 20.6875 8.203125 C 20.6875 8.21875 20.6875 8.234375 20.691406 8.246094 C 20.691406 8.261719 20.691406 8.484375 20.691406 9.113281 L 20.691406 9.960938 L 19.078125 9.960938 C 17.53125 9.960938 17.460938 9.960938 17.445312 9.964844 C 17.382812 9.976562 17.328125 9.996094 17.277344 10.03125 C 17.183594 10.09375 17.125 10.191406 17.109375 10.304688 C 17.105469 10.328125 17.105469 10.390625 17.109375 10.414062 C 17.128906 10.542969 17.207031 10.652344 17.320312 10.714844 C 17.363281 10.734375 17.398438 10.746094 17.449219 10.753906 C 17.464844 10.757812 17.574219 10.757812 19.078125 10.757812 L 20.691406 10.757812 L 20.691406 14.394531 C 20.691406 17.1875 20.691406 18.035156 20.691406 18.046875 C 20.683594 18.136719 20.671875 18.195312 20.65625 18.261719 C 20.558594 18.640625 20.273438 18.945312 19.898438 19.066406 C 19.8125 19.097656 19.722656 19.113281 19.621094 19.121094 C 19.585938 19.125 4.269531 19.125 4.234375 19.121094 C 4.132812 19.113281 4.039062 19.09375 3.949219 19.066406 C 3.628906 18.957031 3.371094 18.714844 3.242188 18.398438 C 3.195312 18.277344 3.167969 18.148438 3.164062 18.015625 C 3.164062 17.988281 3.164062 16.761719 3.164062 14.367188 L 3.164062 10.757812 L 6.390625 10.757812 L 6.410156 10.753906 C 6.453125 10.746094 6.488281 10.734375 6.527344 10.714844 C 6.566406 10.695312 6.597656 10.675781 6.632812 10.640625 C 6.695312 10.578125 6.730469 10.503906 6.746094 10.414062 C 6.746094 10.402344 6.746094 10.390625 6.746094 10.359375 C 6.746094 10.3125 6.746094 10.304688 6.738281 10.269531 C 6.71875 10.171875 6.65625 10.082031 6.570312 10.027344 C 6.523438 9.992188 6.472656 9.976562 6.410156 9.964844 C 6.394531 9.960938 6.316406 9.960938 4.777344 9.960938 L 3.164062 9.960938 L 3.164062 9.113281 C 3.164062 8.484375 3.164062 8.261719 3.164062 8.246094 C 3.171875 8.183594 3.175781 8.140625 3.183594 8.09375 C 3.25 7.765625 3.460938 7.480469 3.757812 7.3125 C 3.910156 7.230469 4.085938 7.179688 4.261719 7.171875 C 4.273438 7.171875 7.730469 7.171875 11.941406 7.171875 C 18.101562 7.171875 19.605469 7.171875 19.621094 7.175781 Z M 19.621094 7.175781 "/>
<path style=" stroke:none;fill-rule:nonzero;fill:rgb(0%,0%,0%);fill-opacity:1;" d="M 11.835938 8.367188 C 11.828125 8.367188 11.796875 8.367188 11.769531 8.367188 C 11.003906 8.394531 10.257812 8.601562 9.589844 8.976562 C 8.964844 9.324219 8.425781 9.8125 8.015625 10.398438 C 7.828125 10.660156 7.667969 10.945312 7.539062 11.242188 C 7.320312 11.75 7.191406 12.289062 7.15625 12.84375 C 7.144531 13.023438 7.144531 13.222656 7.152344 13.398438 C 7.183594 14 7.324219 14.582031 7.574219 15.128906 C 7.839844 15.707031 8.222656 16.238281 8.695312 16.671875 C 9.070312 17.015625 9.492188 17.292969 9.957031 17.503906 C 10.644531 17.816406 11.40625 17.960938 12.171875 17.921875 C 13.257812 17.867188 14.289062 17.445312 15.105469 16.722656 C 15.214844 16.621094 15.339844 16.5 15.445312 16.386719 C 15.703125 16.105469 15.941406 15.78125 16.125 15.441406 C 16.183594 15.335938 16.246094 15.210938 16.292969 15.101562 C 16.535156 14.558594 16.675781 13.976562 16.703125 13.382812 C 16.707031 13.296875 16.707031 13.246094 16.707031 13.148438 C 16.707031 13.023438 16.707031 12.9375 16.699219 12.824219 C 16.660156 12.253906 16.523438 11.707031 16.289062 11.183594 C 16.269531 11.144531 16.261719 11.121094 16.246094 11.097656 C 16.140625 10.941406 15.9375 10.878906 15.757812 10.953125 C 15.636719 11.003906 15.550781 11.109375 15.523438 11.238281 C 15.515625 11.269531 15.515625 11.289062 15.515625 11.320312 C 15.515625 11.355469 15.515625 11.375 15.523438 11.40625 C 15.53125 11.4375 15.539062 11.460938 15.558594 11.507812 C 15.574219 11.542969 15.609375 11.621094 15.625 11.664062 C 15.785156 12.066406 15.878906 12.488281 15.90625 12.921875 C 15.910156 13.003906 15.910156 13.046875 15.910156 13.148438 C 15.910156 13.25 15.910156 13.289062 15.90625 13.371094 C 15.867188 14.042969 15.664062 14.6875 15.308594 15.253906 C 14.898438 15.914062 14.300781 16.441406 13.59375 16.765625 C 13.160156 16.964844 12.6875 17.085938 12.214844 17.121094 C 12.113281 17.128906 12.070312 17.128906 11.964844 17.128906 C 11.847656 17.132812 11.757812 17.128906 11.652344 17.121094 C 11 17.078125 10.375 16.875 9.820312 16.527344 C 9.390625 16.257812 9.011719 15.910156 8.710938 15.5 C 8.535156 15.253906 8.382812 14.992188 8.265625 14.714844 C 8.085938 14.292969 7.976562 13.84375 7.953125 13.382812 C 7.945312 13.304688 7.945312 13.285156 7.945312 13.179688 C 7.945312 13.046875 7.945312 12.96875 7.953125 12.855469 C 8.003906 12.167969 8.230469 11.511719 8.613281 10.9375 C 9.074219 10.246094 9.746094 9.710938 10.519531 9.421875 C 10.898438 9.277344 11.292969 9.195312 11.699219 9.171875 C 11.773438 9.167969 11.800781 9.164062 11.890625 9.164062 C 12.054688 9.164062 12.195312 9.167969 12.351562 9.1875 C 12.960938 9.25 13.546875 9.457031 14.066406 9.785156 C 14.15625 9.84375 14.238281 9.902344 14.332031 9.972656 C 14.359375 9.992188 14.382812 10.011719 14.394531 10.015625 C 14.4375 10.042969 14.488281 10.0625 14.546875 10.070312 C 14.566406 10.074219 14.636719 10.074219 14.65625 10.070312 C 14.757812 10.054688 14.84375 10.007812 14.910156 9.929688 C 14.957031 9.875 14.984375 9.808594 14.996094 9.734375 C 15 9.707031 15.003906 9.648438 15 9.625 C 14.984375 9.53125 14.949219 9.457031 14.886719 9.394531 C 14.867188 9.375 14.851562 9.363281 14.800781 9.324219 C 14.289062 8.9375 13.710938 8.664062 13.09375 8.507812 C 12.761719 8.425781 12.441406 8.382812 12.089844 8.367188 C 12.050781 8.367188 11.875 8.367188 11.835938 8.367188 Z M 11.835938 8.367188 "/>
<path style=" stroke:none;fill-rule:nonzero;fill:rgb(0%,0%,0%);fill-opacity:1;" d="M 11.28125 11.160156 C 11.269531 11.164062 11.265625 11.175781 11.261719 11.183594 C 11.261719 11.1875 11.261719 11.480469 11.261719 11.835938 L 11.261719 12.484375 L 9.957031 12.484375 L 9.949219 12.488281 C 9.945312 12.492188 9.941406 12.496094 9.941406 12.5 L 9.9375 12.503906 L 9.933594 13.144531 C 9.933594 13.730469 9.933594 13.785156 9.9375 13.789062 C 9.941406 13.800781 9.945312 13.804688 9.953125 13.808594 L 9.960938 13.8125 L 11.261719 13.8125 L 11.261719 14.464844 C 11.261719 15.054688 11.261719 15.113281 11.265625 15.121094 C 11.269531 15.125 11.273438 15.132812 11.28125 15.136719 L 11.285156 15.140625 L 12.566406 15.140625 L 12.574219 15.136719 C 12.582031 15.132812 12.585938 15.128906 12.589844 15.121094 C 12.589844 15.117188 12.59375 15.097656 12.59375 14.464844 L 12.59375 13.8125 L 13.894531 13.8125 L 13.902344 13.808594 C 13.910156 13.804688 13.917969 13.796875 13.917969 13.789062 C 13.917969 13.785156 13.921875 13.625 13.921875 13.144531 L 13.921875 12.507812 L 13.917969 12.503906 C 13.914062 12.496094 13.910156 12.488281 13.902344 12.484375 L 12.59375 12.484375 L 12.59375 11.179688 L 12.589844 11.171875 C 12.582031 11.164062 12.578125 11.160156 12.570312 11.15625 C 12.566406 11.15625 12.472656 11.15625 11.925781 11.15625 L 11.289062 11.15625 Z M 11.28125 11.160156 "/>
</g>
</svg>
