<?xml version="1.0" encoding="UTF-8"?>
<svg xmlns="http://www.w3.org/2000/svg" xmlns:xlink="http://www.w3.org/1999/xlink" viewBox="0 0 24 24" version="1.1">
<g>
<path style=" stroke:none;fill-rule:nonzero;fill:rgb(0.392157%,0.392157%,0.392157%);fill-opacity:1;" d="M 11.875 2.601562 C 11.847656 2.605469 11.820312 2.601562 11.796875 2.601562 C 11.75 2.601562 11.703125 2.605469 11.660156 2.605469 C 11.507812 2.613281 11.359375 2.625 11.207031 2.636719 C 10.753906 2.683594 10.296875 2.773438 9.859375 2.910156 C 9.21875 3.109375 8.609375 3.394531 8.050781 3.757812 C 6.890625 4.515625 5.960938 5.613281 5.410156 6.878906 C 5.171875 7.425781 5 8 4.90625 8.589844 C 4.878906 8.78125 4.855469 8.972656 4.835938 9.167969 C 4.832031 9.230469 4.828125 9.296875 4.824219 9.359375 C 4.824219 9.386719 4.828125 9.417969 4.820312 9.441406 C 4.820312 9.449219 4.785156 9.453125 4.773438 9.457031 C 4.726562 9.46875 4.679688 9.484375 4.636719 9.5 C 4.472656 9.566406 4.324219 9.664062 4.199219 9.789062 C 4.023438 9.972656 3.910156 10.203125 3.863281 10.449219 C 3.84375 10.566406 3.847656 10.683594 3.847656 10.796875 C 3.847656 10.898438 3.84375 11 3.847656 11.101562 C 3.851562 11.222656 3.871094 11.335938 3.910156 11.449219 C 3.988281 11.699219 4.148438 11.917969 4.359375 12.070312 C 4.453125 12.140625 4.554688 12.195312 4.664062 12.234375 C 4.695312 12.246094 4.726562 12.253906 4.757812 12.261719 C 4.765625 12.265625 4.789062 12.265625 4.792969 12.277344 C 4.792969 12.285156 4.792969 12.292969 4.796875 12.304688 C 4.800781 12.324219 4.804688 12.347656 4.808594 12.371094 C 4.820312 12.441406 4.832031 12.511719 4.84375 12.578125 C 4.886719 12.820312 4.925781 13.0625 4.96875 13.304688 C 5.101562 14.074219 5.230469 14.839844 5.363281 15.609375 C 5.609375 17.015625 5.84375 18.421875 6.089844 19.824219 C 6.132812 20.085938 6.175781 20.34375 6.222656 20.601562 C 6.257812 20.800781 6.28125 21.003906 6.359375 21.191406 C 6.457031 21.421875 6.605469 21.621094 6.792969 21.785156 C 7.09375 22.054688 7.488281 22.214844 7.886719 22.261719 C 8.105469 22.289062 8.332031 22.277344 8.550781 22.277344 L 15.601562 22.277344 C 15.761719 22.277344 15.917969 22.277344 16.074219 22.253906 C 16.683594 22.164062 17.261719 21.804688 17.519531 21.234375 C 17.625 21.011719 17.648438 20.765625 17.691406 20.523438 C 17.757812 20.160156 17.816406 19.792969 17.878906 19.429688 C 18.027344 18.570312 18.171875 17.714844 18.320312 16.855469 C 18.386719 16.476562 18.449219 16.097656 18.515625 15.71875 C 18.65625 14.9375 18.785156 14.152344 18.921875 13.367188 C 18.960938 13.125 19.003906 12.882812 19.046875 12.640625 C 19.058594 12.5625 19.074219 12.480469 19.085938 12.402344 C 19.089844 12.375 19.097656 12.347656 19.101562 12.320312 C 19.101562 12.304688 19.101562 12.289062 19.109375 12.277344 C 19.113281 12.265625 19.132812 12.265625 19.140625 12.261719 C 19.175781 12.253906 19.207031 12.242188 19.238281 12.230469 C 19.355469 12.191406 19.46875 12.125 19.566406 12.050781 C 19.871094 11.820312 20.042969 11.457031 20.050781 11.078125 C 20.054688 10.984375 20.050781 10.890625 20.050781 10.792969 C 20.050781 10.6875 20.054688 10.578125 20.039062 10.472656 C 20.003906 10.226562 19.886719 9.984375 19.710938 9.804688 C 19.585938 9.675781 19.441406 9.570312 19.273438 9.503906 C 19.222656 9.484375 19.175781 9.46875 19.125 9.457031 C 19.117188 9.453125 19.082031 9.449219 19.078125 9.441406 C 19.074219 9.417969 19.078125 9.390625 19.074219 9.367188 C 19.070312 9.300781 19.070312 9.238281 19.0625 9.171875 C 19.042969 8.980469 19.023438 8.785156 18.992188 8.59375 C 18.890625 7.976562 18.714844 7.367188 18.453125 6.796875 C 18.144531 6.125 17.738281 5.5 17.246094 4.953125 C 16.515625 4.144531 15.605469 3.511719 14.597656 3.105469 C 14.292969 2.984375 13.976562 2.882812 13.65625 2.804688 C 13.238281 2.707031 12.816406 2.644531 12.390625 2.613281 C 12.273438 2.605469 12.152344 2.601562 12.035156 2.601562 C 11.980469 2.601562 11.925781 2.59375 11.875 2.601562 Z M 11.875 2.601562 "/>
<path style=" stroke:none;fill-rule:nonzero;fill:rgb(100%,100%,100%);fill-opacity:1;" d="M 5.535156 9.414062 L 18.363281 9.414062 C 18.363281 9.351562 18.355469 9.289062 18.351562 9.226562 C 18.339844 9.050781 18.316406 8.878906 18.289062 8.707031 C 18.207031 8.179688 18.054688 7.660156 17.839844 7.171875 C 17.632812 6.707031 17.378906 6.261719 17.070312 5.859375 C 16.898438 5.632812 16.707031 5.421875 16.511719 5.214844 C 16.441406 5.140625 16.363281 5.066406 16.285156 4.996094 C 16.097656 4.828125 15.902344 4.667969 15.699219 4.519531 C 14.785156 3.859375 13.699219 3.453125 12.578125 3.34375 C 12.34375 3.320312 12.101562 3.308594 11.863281 3.3125 C 11.632812 3.320312 11.410156 3.335938 11.183594 3.359375 C 10.785156 3.402344 10.394531 3.492188 10.015625 3.609375 C 9.308594 3.828125 8.644531 4.179688 8.058594 4.625 C 7.851562 4.785156 7.65625 4.957031 7.464844 5.136719 C 7.28125 5.316406 7.109375 5.507812 6.949219 5.707031 C 6.621094 6.113281 6.339844 6.5625 6.121094 7.039062 C 5.871094 7.582031 5.691406 8.160156 5.601562 8.75 C 5.582031 8.902344 5.566406 9.050781 5.550781 9.203125 C 5.542969 9.273438 5.535156 9.34375 5.535156 9.414062 M 5.066406 10.128906 C 5 10.136719 4.9375 10.144531 4.875 10.171875 C 4.832031 10.195312 4.789062 10.21875 4.75 10.253906 C 4.65625 10.328125 4.589844 10.441406 4.570312 10.558594 C 4.558594 10.613281 4.558594 10.667969 4.558594 10.722656 L 4.558594 10.910156 C 4.558594 11 4.554688 11.089844 4.570312 11.175781 C 4.609375 11.351562 4.738281 11.5 4.90625 11.5625 C 5.03125 11.609375 5.167969 11.597656 5.296875 11.597656 L 18.648438 11.597656 C 18.726562 11.597656 18.804688 11.601562 18.882812 11.589844 C 18.984375 11.578125 19.089844 11.53125 19.164062 11.457031 C 19.257812 11.371094 19.320312 11.257812 19.335938 11.132812 C 19.34375 11.054688 19.339844 10.976562 19.339844 10.898438 L 19.339844 10.722656 C 19.339844 10.671875 19.339844 10.625 19.332031 10.578125 C 19.320312 10.488281 19.28125 10.402344 19.226562 10.332031 C 19.199219 10.296875 19.167969 10.265625 19.132812 10.238281 C 19.09375 10.207031 19.046875 10.183594 19 10.164062 C 18.890625 10.121094 18.777344 10.128906 18.660156 10.128906 L 5.203125 10.128906 C 5.15625 10.128906 5.109375 10.121094 5.066406 10.128906 M 5.519531 12.308594 C 5.53125 12.386719 5.546875 12.460938 5.558594 12.535156 C 5.585938 12.6875 5.613281 12.84375 5.636719 12.996094 C 5.71875 13.464844 5.800781 13.9375 5.882812 14.410156 C 6.023438 15.234375 6.164062 16.058594 6.304688 16.878906 C 6.425781 17.570312 6.542969 18.257812 6.660156 18.949219 C 6.738281 19.40625 6.816406 19.863281 6.898438 20.320312 C 6.914062 20.429688 6.933594 20.535156 6.953125 20.640625 C 6.964844 20.722656 6.976562 20.804688 7.003906 20.882812 C 7.070312 21.066406 7.203125 21.21875 7.363281 21.328125 C 7.554688 21.464844 7.785156 21.539062 8.015625 21.558594 C 8.140625 21.570312 8.273438 21.566406 8.398438 21.566406 L 15.335938 21.566406 C 15.527344 21.566406 15.722656 21.574219 15.910156 21.558594 C 16.214844 21.527344 16.527344 21.390625 16.730469 21.15625 C 16.800781 21.074219 16.859375 20.980469 16.894531 20.878906 C 16.925781 20.796875 16.9375 20.710938 16.949219 20.625 C 16.96875 20.515625 16.988281 20.402344 17.007812 20.292969 C 17.101562 19.746094 17.195312 19.199219 17.289062 18.648438 C 17.539062 17.210938 17.78125 15.769531 18.03125 14.332031 C 18.109375 13.875 18.1875 13.414062 18.269531 12.957031 C 18.304688 12.742188 18.335938 12.523438 18.378906 12.308594 Z M 5.519531 12.308594 "/>
<path style=" stroke:none;fill-rule:nonzero;fill:rgb(0.392157%,0.392157%,0.392157%);fill-opacity:1;" d="M 16.238281 13.777344 C 16.105469 13.792969 15.992188 13.867188 15.941406 13.996094 C 15.921875 14.042969 15.914062 14.09375 15.910156 14.140625 C 15.902344 14.199219 15.898438 14.257812 15.890625 14.3125 C 15.863281 14.515625 15.84375 14.722656 15.816406 14.925781 C 15.761719 15.382812 15.707031 15.84375 15.65625 16.300781 C 15.625 16.59375 15.585938 16.886719 15.554688 17.179688 C 15.503906 17.671875 15.4375 18.15625 15.382812 18.648438 C 15.363281 18.851562 15.335938 19.058594 15.3125 19.265625 C 15.304688 19.328125 15.296875 19.386719 15.289062 19.449219 C 15.285156 19.496094 15.28125 19.539062 15.289062 19.585938 C 15.316406 19.769531 15.488281 19.902344 15.675781 19.886719 C 15.808594 19.871094 15.925781 19.78125 15.972656 19.65625 C 15.992188 19.613281 15.996094 19.566406 16 19.519531 C 16.007812 19.464844 16.011719 19.40625 16.019531 19.351562 C 16.046875 19.144531 16.066406 18.941406 16.089844 18.738281 C 16.15625 18.183594 16.226562 17.628906 16.285156 17.070312 C 16.324219 16.71875 16.371094 16.367188 16.410156 16.015625 C 16.445312 15.675781 16.488281 15.335938 16.527344 14.992188 C 16.550781 14.796875 16.574219 14.601562 16.597656 14.40625 C 16.605469 14.351562 16.609375 14.292969 16.617188 14.238281 C 16.621094 14.175781 16.628906 14.121094 16.621094 14.058594 C 16.585938 13.890625 16.414062 13.753906 16.238281 13.777344 Z M 16.238281 13.777344 "/>
</g>
</svg>
