<?xml version="1.0" encoding="UTF-8"?>
<svg xmlns="http://www.w3.org/2000/svg" xmlns:xlink="http://www.w3.org/1999/xlink" viewBox="0 0 24 24" version="1.1">
<g>
<path style=" stroke:none;fill-rule:nonzero;fill:rgb(0.392157%,0.392157%,0.392157%);fill-opacity:1;" d="M 16.859375 2.601562 C 16.816406 2.605469 16.777344 2.613281 16.734375 2.628906 C 16.703125 2.644531 16.671875 2.660156 16.648438 2.683594 C 16.585938 2.738281 16.542969 2.808594 16.527344 2.886719 C 16.519531 2.921875 16.523438 2.960938 16.519531 3 C 16.515625 3.042969 16.507812 3.089844 16.492188 3.132812 C 16.445312 3.285156 16.355469 3.425781 16.246094 3.539062 C 16.109375 3.6875 15.9375 3.808594 15.746094 3.867188 C 15.703125 3.878906 15.65625 3.886719 15.613281 3.890625 C 15.585938 3.890625 15.5625 3.890625 15.539062 3.894531 C 15.488281 3.902344 15.4375 3.917969 15.394531 3.949219 C 15.257812 4.035156 15.199219 4.203125 15.246094 4.355469 C 15.257812 4.386719 15.273438 4.421875 15.292969 4.449219 C 15.34375 4.527344 15.425781 4.578125 15.519531 4.597656 C 15.554688 4.605469 15.589844 4.601562 15.628906 4.605469 C 15.675781 4.609375 15.722656 4.621094 15.765625 4.632812 C 15.949219 4.691406 16.109375 4.8125 16.242188 4.949219 C 16.351562 5.066406 16.441406 5.207031 16.492188 5.359375 C 16.507812 5.402344 16.515625 5.449219 16.519531 5.496094 C 16.523438 5.546875 16.523438 5.597656 16.539062 5.644531 C 16.585938 5.804688 16.75 5.914062 16.914062 5.894531 C 17.0625 5.875 17.191406 5.769531 17.226562 5.621094 C 17.234375 5.578125 17.230469 5.539062 17.238281 5.496094 C 17.242188 5.453125 17.25 5.40625 17.261719 5.363281 C 17.308594 5.210938 17.402344 5.074219 17.507812 4.957031 C 17.636719 4.8125 17.808594 4.6875 18 4.632812 C 18.035156 4.621094 18.074219 4.609375 18.113281 4.605469 C 18.144531 4.605469 18.175781 4.605469 18.203125 4.601562 C 18.261719 4.597656 18.316406 4.578125 18.363281 4.546875 C 18.496094 4.460938 18.554688 4.292969 18.507812 4.140625 C 18.5 4.109375 18.484375 4.078125 18.464844 4.046875 C 18.414062 3.96875 18.328125 3.917969 18.238281 3.898438 C 18.199219 3.890625 18.164062 3.894531 18.125 3.890625 C 18.074219 3.882812 18.027344 3.875 17.980469 3.859375 C 17.808594 3.804688 17.648438 3.6875 17.527344 3.558594 C 17.414062 3.4375 17.320312 3.304688 17.269531 3.148438 C 17.253906 3.101562 17.242188 3.050781 17.238281 3 C 17.230469 2.953125 17.234375 2.90625 17.222656 2.863281 C 17.1875 2.738281 17.085938 2.636719 16.957031 2.609375 C 16.925781 2.601562 16.890625 2.597656 16.859375 2.601562 M 4.21875 5.570312 C 4.191406 5.648438 4.167969 5.730469 4.140625 5.808594 C 4.078125 5.984375 4.007812 6.152344 3.929688 6.324219 C 3.714844 6.792969 3.441406 7.230469 3.15625 7.660156 C 3.082031 7.773438 3 7.886719 2.921875 8 C 2.875 8.070312 2.816406 8.136719 2.78125 8.214844 C 2.730469 8.328125 2.722656 8.457031 2.761719 8.574219 C 2.777344 8.632812 2.808594 8.6875 2.851562 8.734375 C 2.878906 8.769531 2.914062 8.796875 2.953125 8.824219 C 3.074219 8.898438 3.230469 8.90625 3.363281 8.847656 C 3.429688 8.820312 3.492188 8.769531 3.554688 8.730469 C 3.664062 8.65625 3.769531 8.582031 3.878906 8.503906 C 4.488281 8.066406 5.039062 7.523438 5.445312 6.890625 C 5.550781 6.726562 5.652344 6.554688 5.734375 6.378906 C 5.753906 6.335938 5.777344 6.292969 5.796875 6.246094 C 5.804688 6.226562 5.816406 6.207031 5.824219 6.1875 C 5.84375 6.203125 5.855469 6.226562 5.871094 6.246094 C 5.902344 6.292969 5.9375 6.34375 5.960938 6.398438 C 5.921875 6.414062 5.882812 6.441406 5.851562 6.46875 C 5.757812 6.546875 5.695312 6.660156 5.679688 6.785156 C 5.675781 6.820312 5.675781 6.859375 5.675781 6.898438 L 5.675781 7.703125 C 5.675781 7.710938 5.679688 7.722656 5.675781 7.730469 C 5.671875 7.734375 5.664062 7.742188 5.65625 7.746094 C 5.640625 7.757812 5.625 7.773438 5.609375 7.785156 C 5.554688 7.828125 5.503906 7.878906 5.460938 7.929688 C 5.324219 8.078125 5.226562 8.257812 5.195312 8.457031 C 5.140625 8.765625 5.25 9.070312 5.410156 9.332031 C 5.457031 9.40625 5.507812 9.476562 5.554688 9.546875 C 5.574219 9.570312 5.589844 9.589844 5.605469 9.613281 C 5.609375 9.621094 5.621094 9.632812 5.625 9.640625 C 5.625 9.644531 5.621094 9.648438 5.617188 9.652344 C 5.609375 9.664062 5.601562 9.675781 5.59375 9.683594 C 5.566406 9.726562 5.539062 9.765625 5.511719 9.8125 C 5.4375 9.945312 5.386719 10.097656 5.371094 10.253906 C 5.347656 10.46875 5.378906 10.683594 5.449219 10.890625 C 5.472656 10.957031 5.5 11.023438 5.53125 11.085938 C 5.542969 11.105469 5.554688 11.128906 5.5625 11.148438 C 5.566406 11.15625 5.574219 11.164062 5.574219 11.175781 C 5.574219 11.183594 5.558594 11.199219 5.554688 11.203125 C 5.535156 11.230469 5.515625 11.253906 5.5 11.28125 C 5.441406 11.367188 5.394531 11.457031 5.355469 11.554688 C 5.265625 11.769531 5.234375 12.011719 5.257812 12.242188 C 5.265625 12.332031 5.277344 12.421875 5.300781 12.507812 C 5.285156 12.511719 5.273438 12.523438 5.261719 12.53125 C 5.238281 12.546875 5.214844 12.5625 5.191406 12.578125 C 5.117188 12.628906 5.039062 12.679688 4.964844 12.730469 C 4.699219 12.917969 4.4375 13.113281 4.195312 13.332031 C 3.765625 13.714844 3.386719 14.148438 3.113281 14.65625 C 3.007812 14.851562 2.929688 15.058594 2.859375 15.265625 C 2.765625 15.5625 2.691406 15.863281 2.644531 16.171875 C 2.453125 17.398438 2.613281 18.644531 2.925781 19.835938 C 3.054688 20.328125 3.21875 20.8125 3.398438 21.292969 C 3.496094 21.542969 3.574219 21.820312 3.777344 22.011719 C 3.917969 22.144531 4.089844 22.238281 4.285156 22.269531 C 4.355469 22.28125 4.429688 22.277344 4.503906 22.277344 L 10.429688 22.277344 C 10.527344 22.277344 10.625 22.28125 10.722656 22.257812 C 10.984375 22.199219 11.207031 22.023438 11.339844 21.792969 C 11.40625 21.675781 11.449219 21.550781 11.492188 21.421875 C 11.722656 20.785156 11.898438 20.121094 12 19.453125 C 12.09375 18.855469 12.152344 18.253906 12.136719 17.652344 C 12.132812 17.492188 12.132812 17.335938 12.121094 17.175781 C 12.089844 16.726562 12.035156 16.28125 11.949219 15.839844 C 11.761719 14.863281 11.414062 13.90625 10.941406 13.03125 C 10.667969 12.527344 10.359375 12.042969 10.015625 11.585938 C 9.925781 11.46875 9.835938 11.351562 9.746094 11.238281 C 9.667969 11.144531 9.585938 11.046875 9.519531 10.945312 C 9.390625 10.761719 9.292969 10.558594 9.222656 10.34375 C 9.117188 10.011719 9.097656 9.65625 9.132812 9.308594 C 9.140625 9.203125 9.15625 9.097656 9.171875 8.996094 C 9.183594 8.90625 9.199219 8.820312 9.203125 8.734375 C 9.207031 8.636719 9.203125 8.535156 9.183594 8.441406 C 9.144531 8.222656 9.039062 8.023438 8.890625 7.859375 C 8.835938 7.800781 8.773438 7.746094 8.707031 7.699219 C 8.6875 7.6875 8.671875 7.671875 8.652344 7.660156 C 8.644531 7.65625 8.632812 7.652344 8.628906 7.644531 C 8.625 7.625 8.628906 7.59375 8.628906 7.574219 L 8.628906 6.960938 C 8.628906 6.898438 8.632812 6.839844 8.625 6.78125 C 8.613281 6.6875 8.574219 6.601562 8.515625 6.527344 C 8.488281 6.496094 8.453125 6.464844 8.417969 6.4375 C 8.378906 6.410156 8.328125 6.382812 8.277344 6.371094 C 8.398438 6.25 8.566406 6.191406 8.730469 6.15625 C 9.023438 6.089844 9.324219 6.09375 9.621094 6.082031 C 9.859375 6.070312 10.144531 6.046875 10.296875 5.835938 C 10.316406 5.804688 10.335938 5.769531 10.351562 5.730469 C 10.433594 5.511719 10.3125 5.296875 10.199219 5.113281 C 9.90625 4.625 9.46875 4.234375 8.976562 3.953125 C 8.566406 3.714844 8.113281 3.558594 7.648438 3.488281 C 7.429688 3.453125 7.214844 3.445312 6.996094 3.4375 C 6.753906 3.425781 6.507812 3.429688 6.261719 3.433594 C 5.867188 3.445312 5.46875 3.460938 5.074219 3.488281 C 4.878906 3.503906 4.683594 3.511719 4.488281 3.53125 C 4.421875 3.539062 4.355469 3.546875 4.289062 3.550781 C 4.207031 3.554688 4.125 3.550781 4.042969 3.550781 L 3.289062 3.550781 C 3.226562 3.550781 3.164062 3.546875 3.105469 3.566406 C 2.980469 3.605469 2.882812 3.710938 2.859375 3.835938 C 2.851562 3.890625 2.851562 3.945312 2.851562 3.996094 L 2.851562 5.164062 C 2.851562 5.207031 2.851562 5.25 2.863281 5.296875 C 2.875 5.359375 2.910156 5.414062 2.953125 5.460938 C 3.003906 5.515625 3.074219 5.550781 3.148438 5.5625 C 3.21875 5.574219 3.296875 5.570312 3.367188 5.570312 Z M 4.21875 5.570312 "/>
<path style=" stroke:none;fill-rule:nonzero;fill:rgb(100%,100%,100%);fill-opacity:1;" d="M 16.878906 3.898438 C 16.773438 4.027344 16.65625 4.140625 16.527344 4.246094 L 16.527344 4.25 C 16.65625 4.351562 16.773438 4.46875 16.878906 4.597656 C 16.945312 4.511719 17.015625 4.433594 17.09375 4.359375 C 17.125 4.335938 17.152344 4.308594 17.183594 4.285156 C 17.195312 4.273438 17.214844 4.261719 17.226562 4.246094 C 17.140625 4.183594 17.058594 4.105469 16.988281 4.027344 C 16.964844 4 16.941406 3.972656 16.917969 3.945312 C 16.90625 3.929688 16.894531 3.910156 16.878906 3.898438 M 4.660156 4.234375 L 4.660156 4.871094 C 4.710938 4.875 4.761719 4.882812 4.8125 4.890625 C 4.917969 4.910156 5.027344 4.929688 5.132812 4.957031 C 5.648438 5.09375 6.125 5.378906 6.4375 5.816406 C 6.523438 5.933594 6.59375 6.058594 6.652344 6.191406 C 6.675781 6.242188 6.703125 6.296875 6.71875 6.351562 L 7.476562 6.351562 C 7.503906 6.246094 7.5625 6.144531 7.621094 6.054688 C 7.671875 5.980469 7.730469 5.910156 7.796875 5.847656 C 8.175781 5.480469 8.730469 5.40625 9.234375 5.382812 C 9.328125 5.378906 9.421875 5.371094 9.515625 5.371094 C 9.503906 5.339844 9.476562 5.3125 9.457031 5.289062 C 9.410156 5.226562 9.359375 5.164062 9.304688 5.105469 C 9.101562 4.886719 8.863281 4.703125 8.601562 4.558594 C 8.296875 4.386719 7.964844 4.265625 7.625 4.207031 C 7.414062 4.167969 7.207031 4.160156 6.996094 4.148438 C 6.804688 4.140625 6.609375 4.140625 6.417969 4.144531 C 6.03125 4.15625 5.644531 4.164062 5.257812 4.191406 C 5.132812 4.199219 5.007812 4.207031 4.882812 4.214844 C 4.808594 4.222656 4.734375 4.230469 4.660156 4.234375 M 3.566406 4.261719 L 3.566406 4.855469 L 3.949219 4.855469 L 3.949219 4.261719 Z M 3.566406 4.261719 "/>
<path style=" stroke:none;fill-rule:nonzero;fill:rgb(0.392157%,0.392157%,0.392157%);fill-opacity:1;" d="M 13.167969 5.507812 C 13.128906 5.511719 13.085938 5.519531 13.046875 5.539062 C 13.015625 5.554688 12.984375 5.574219 12.953125 5.601562 C 12.890625 5.65625 12.855469 5.738281 12.84375 5.820312 C 12.839844 5.859375 12.84375 5.894531 12.839844 5.929688 C 12.835938 5.984375 12.824219 6.039062 12.8125 6.09375 C 12.765625 6.273438 12.675781 6.441406 12.566406 6.589844 C 12.355469 6.875 12.054688 7.125 11.710938 7.230469 C 11.636719 7.253906 11.5625 7.269531 11.488281 7.277344 C 11.421875 7.285156 11.355469 7.277344 11.289062 7.304688 C 11.121094 7.375 11.03125 7.566406 11.082031 7.738281 C 11.09375 7.773438 11.109375 7.804688 11.128906 7.835938 C 11.175781 7.910156 11.253906 7.960938 11.339844 7.980469 C 11.386719 7.996094 11.4375 7.988281 11.488281 7.996094 C 11.554688 8 11.621094 8.011719 11.683594 8.03125 C 11.957031 8.109375 12.210938 8.28125 12.402344 8.488281 C 12.574219 8.675781 12.726562 8.890625 12.800781 9.136719 C 12.820312 9.203125 12.832031 9.269531 12.839844 9.339844 C 12.84375 9.378906 12.839844 9.414062 12.84375 9.449219 C 12.847656 9.496094 12.863281 9.542969 12.886719 9.582031 C 12.957031 9.710938 13.101562 9.78125 13.242188 9.765625 C 13.28125 9.757812 13.320312 9.75 13.355469 9.730469 C 13.382812 9.714844 13.414062 9.699219 13.4375 9.675781 C 13.488281 9.628906 13.527344 9.570312 13.542969 9.503906 C 13.558594 9.453125 13.554688 9.402344 13.558594 9.351562 C 13.5625 9.289062 13.574219 9.230469 13.589844 9.171875 C 13.636719 8.996094 13.722656 8.835938 13.828125 8.691406 C 14.035156 8.402344 14.339844 8.148438 14.6875 8.039062 C 14.761719 8.015625 14.835938 8 14.910156 7.996094 C 14.980469 7.988281 15.042969 7.992188 15.109375 7.964844 C 15.277344 7.894531 15.367188 7.707031 15.316406 7.53125 C 15.304688 7.5 15.289062 7.46875 15.269531 7.4375 C 15.214844 7.355469 15.128906 7.300781 15.035156 7.285156 C 14.984375 7.277344 14.933594 7.28125 14.882812 7.273438 C 14.816406 7.265625 14.753906 7.253906 14.695312 7.234375 C 14.421875 7.152344 14.175781 6.976562 13.984375 6.769531 C 13.8125 6.585938 13.664062 6.367188 13.59375 6.121094 C 13.574219 6.054688 13.5625 5.988281 13.558594 5.921875 C 13.554688 5.890625 13.558594 5.859375 13.554688 5.828125 C 13.550781 5.78125 13.535156 5.734375 13.511719 5.691406 C 13.453125 5.570312 13.304688 5.488281 13.167969 5.507812 Z M 13.167969 5.507812 "/>
<path style=" stroke:none;fill-rule:nonzero;fill:rgb(100%,100%,100%);fill-opacity:1;" d="M 4.941406 5.644531 C 4.929688 5.691406 4.914062 5.734375 4.902344 5.78125 C 4.875 5.867188 4.847656 5.949219 4.816406 6.035156 C 4.71875 6.304688 4.605469 6.570312 4.476562 6.828125 C 4.410156 6.964844 4.335938 7.09375 4.269531 7.226562 C 4.300781 7.203125 4.324219 7.167969 4.351562 7.140625 C 4.414062 7.074219 4.472656 7.003906 4.53125 6.933594 C 4.730469 6.6875 4.914062 6.421875 5.058594 6.136719 C 5.105469 6.046875 5.148438 5.957031 5.1875 5.863281 C 5.199219 5.839844 5.207031 5.8125 5.21875 5.785156 C 5.222656 5.773438 5.230469 5.757812 5.234375 5.746094 C 5.210938 5.738281 5.1875 5.726562 5.164062 5.71875 C 5.117188 5.699219 5.066406 5.683594 5.019531 5.667969 C 4.992188 5.660156 4.964844 5.648438 4.941406 5.644531 Z M 4.941406 5.644531 "/>
<path style=" stroke:none;fill-rule:nonzero;fill:rgb(0.392157%,0.392157%,0.392157%);fill-opacity:1;" d="M 18.617188 6.265625 C 18.574219 6.269531 18.535156 6.277344 18.496094 6.296875 C 18.46875 6.308594 18.445312 6.324219 18.421875 6.34375 C 18.355469 6.398438 18.308594 6.480469 18.296875 6.566406 C 18.289062 6.609375 18.292969 6.65625 18.289062 6.699219 C 18.285156 6.769531 18.277344 6.835938 18.261719 6.90625 C 18.210938 7.128906 18.113281 7.34375 17.988281 7.535156 C 17.878906 7.710938 17.746094 7.875 17.59375 8.019531 C 17.332031 8.269531 17.027344 8.476562 16.679688 8.589844 C 16.578125 8.621094 16.472656 8.644531 16.367188 8.652344 C 16.300781 8.660156 16.234375 8.652344 16.171875 8.667969 C 15.972656 8.710938 15.855469 8.925781 15.910156 9.117188 C 15.949219 9.238281 16.050781 9.335938 16.175781 9.363281 C 16.238281 9.378906 16.304688 9.371094 16.367188 9.375 C 16.453125 9.386719 16.535156 9.402344 16.617188 9.421875 C 17.019531 9.535156 17.390625 9.785156 17.671875 10.089844 C 17.925781 10.363281 18.140625 10.679688 18.238281 11.042969 C 18.265625 11.128906 18.28125 11.222656 18.289062 11.3125 C 18.292969 11.359375 18.289062 11.40625 18.296875 11.453125 C 18.300781 11.492188 18.3125 11.527344 18.328125 11.5625 C 18.386719 11.703125 18.546875 11.785156 18.695312 11.765625 C 18.816406 11.75 18.929688 11.671875 18.976562 11.554688 C 18.992188 11.519531 19 11.480469 19.003906 11.441406 C 19.007812 11.40625 19.003906 11.371094 19.007812 11.335938 C 19.011719 11.273438 19.019531 11.210938 19.035156 11.148438 C 19.082031 10.917969 19.179688 10.699219 19.304688 10.5 C 19.480469 10.226562 19.707031 9.980469 19.96875 9.785156 C 20.164062 9.636719 20.382812 9.515625 20.621094 9.441406 C 20.722656 9.410156 20.828125 9.386719 20.933594 9.375 C 20.996094 9.371094 21.0625 9.378906 21.121094 9.363281 C 21.320312 9.320312 21.445312 9.109375 21.386719 8.914062 C 21.351562 8.789062 21.246094 8.691406 21.117188 8.664062 C 21.050781 8.652344 20.984375 8.660156 20.917969 8.652344 C 20.832031 8.644531 20.746094 8.625 20.664062 8.601562 C 20.386719 8.523438 20.128906 8.375 19.902344 8.191406 C 19.804688 8.113281 19.710938 8.03125 19.625 7.9375 C 19.371094 7.664062 19.160156 7.34375 19.058594 6.984375 C 19.035156 6.894531 19.015625 6.804688 19.007812 6.714844 C 19.003906 6.636719 19.007812 6.558594 18.980469 6.484375 C 18.921875 6.34375 18.769531 6.242188 18.617188 6.265625 Z M 18.617188 6.265625 "/>
<path style=" stroke:none;fill-rule:nonzero;fill:rgb(100%,100%,100%);fill-opacity:1;" d="M 13.199219 6.929688 C 13.179688 6.949219 13.164062 6.976562 13.148438 7 C 13.121094 7.039062 13.089844 7.078125 13.058594 7.113281 C 12.945312 7.253906 12.816406 7.382812 12.675781 7.496094 C 12.617188 7.542969 12.558594 7.597656 12.492188 7.632812 L 12.492188 7.636719 C 12.523438 7.65625 12.554688 7.679688 12.582031 7.703125 C 12.636719 7.742188 12.6875 7.78125 12.738281 7.824219 C 12.855469 7.925781 12.960938 8.039062 13.058594 8.15625 C 13.109375 8.214844 13.160156 8.277344 13.199219 8.34375 C 13.257812 8.261719 13.316406 8.183594 13.378906 8.109375 C 13.535156 7.929688 13.710938 7.769531 13.90625 7.636719 L 13.90625 7.632812 C 13.722656 7.511719 13.554688 7.363281 13.40625 7.195312 C 13.359375 7.140625 13.3125 7.085938 13.269531 7.027344 C 13.253906 7.003906 13.238281 6.980469 13.222656 6.960938 C 13.214844 6.949219 13.207031 6.9375 13.199219 6.929688 M 6.386719 7.0625 L 6.386719 7.773438 C 6.480469 7.789062 6.566406 7.808594 6.660156 7.824219 C 6.855469 7.847656 7.050781 7.855469 7.25 7.847656 C 7.34375 7.847656 7.441406 7.84375 7.539062 7.835938 C 7.613281 7.828125 7.6875 7.820312 7.761719 7.808594 C 7.8125 7.800781 7.867188 7.785156 7.917969 7.777344 L 7.917969 7.0625 L 6.386719 7.0625 M 18.648438 7.824219 C 18.628906 7.867188 18.597656 7.910156 18.570312 7.949219 C 18.511719 8.039062 18.449219 8.128906 18.382812 8.210938 C 18.207031 8.429688 18.003906 8.628906 17.78125 8.796875 C 17.679688 8.875 17.574219 8.953125 17.460938 9.015625 C 17.511719 9.042969 17.558594 9.078125 17.605469 9.109375 C 17.691406 9.167969 17.777344 9.226562 17.859375 9.292969 C 18.078125 9.472656 18.277344 9.675781 18.449219 9.902344 C 18.519531 10 18.589844 10.097656 18.648438 10.203125 L 18.652344 10.203125 C 18.859375 9.851562 19.132812 9.539062 19.453125 9.28125 C 19.574219 9.1875 19.703125 9.089844 19.839844 9.015625 C 19.734375 8.957031 19.632812 8.886719 19.539062 8.8125 C 19.316406 8.648438 19.117188 8.457031 18.945312 8.246094 C 18.871094 8.15625 18.800781 8.0625 18.738281 7.964844 C 18.707031 7.917969 18.675781 7.875 18.652344 7.824219 L 18.648438 7.824219 M 8.390625 8.371094 C 8.371094 8.375 8.351562 8.386719 8.335938 8.394531 C 8.300781 8.40625 8.269531 8.417969 8.234375 8.429688 C 8.140625 8.460938 8.042969 8.484375 7.945312 8.5 C 7.710938 8.542969 7.476562 8.558594 7.238281 8.5625 C 7.011719 8.566406 6.785156 8.558594 6.558594 8.527344 C 6.425781 8.507812 6.289062 8.484375 6.15625 8.449219 C 6.121094 8.4375 6.082031 8.425781 6.042969 8.414062 C 6.03125 8.410156 6.007812 8.398438 5.996094 8.402344 C 5.988281 8.402344 5.984375 8.410156 5.980469 8.417969 C 5.964844 8.433594 5.953125 8.449219 5.941406 8.464844 C 5.921875 8.496094 5.90625 8.53125 5.898438 8.566406 C 5.875 8.675781 5.929688 8.796875 5.980469 8.890625 C 6.0625 9.042969 6.171875 9.175781 6.269531 9.316406 C 6.335938 9.417969 6.398438 9.535156 6.40625 9.65625 C 6.410156 9.761719 6.382812 9.867188 6.316406 9.949219 C 6.265625 10.011719 6.203125 10.054688 6.160156 10.121094 C 6.105469 10.199219 6.078125 10.289062 6.074219 10.382812 C 6.066406 10.558594 6.144531 10.738281 6.230469 10.882812 C 6.25 10.914062 6.269531 10.945312 6.292969 10.976562 C 6.308594 11 6.332031 11.023438 6.347656 11.054688 C 6.371094 11.097656 6.382812 11.144531 6.386719 11.195312 C 6.398438 11.296875 6.359375 11.394531 6.292969 11.46875 C 6.273438 11.488281 6.253906 11.5 6.230469 11.519531 C 6.207031 11.539062 6.183594 11.5625 6.160156 11.589844 C 6.074219 11.6875 6.011719 11.804688 5.980469 11.933594 C 5.945312 12.082031 5.964844 12.238281 6.007812 12.382812 C 6.027344 12.449219 6.058594 12.507812 6.074219 12.570312 C 6.089844 12.628906 6.089844 12.691406 6.074219 12.75 C 6.054688 12.8125 6.023438 12.871094 5.972656 12.917969 C 5.917969 12.96875 5.847656 13.003906 5.785156 13.042969 C 5.644531 13.132812 5.503906 13.222656 5.367188 13.320312 C 4.855469 13.671875 4.367188 14.085938 4 14.585938 C 3.882812 14.742188 3.777344 14.910156 3.695312 15.085938 C 3.507812 15.480469 3.402344 15.914062 3.339844 16.34375 C 3.160156 17.546875 3.359375 18.78125 3.695312 19.941406 C 3.808594 20.328125 3.941406 20.710938 4.085938 21.089844 C 4.117188 21.167969 4.144531 21.246094 4.175781 21.324219 C 4.207031 21.402344 4.238281 21.480469 4.3125 21.53125 C 4.359375 21.566406 4.410156 21.566406 4.464844 21.566406 L 10.484375 21.566406 C 10.535156 21.566406 10.578125 21.566406 10.625 21.539062 C 10.707031 21.488281 10.746094 21.394531 10.777344 21.308594 C 10.824219 21.179688 10.867188 21.054688 10.910156 20.925781 C 11.113281 20.324219 11.253906 19.699219 11.335938 19.070312 C 11.445312 18.234375 11.453125 17.386719 11.34375 16.550781 C 11.191406 15.382812 10.808594 14.25 10.234375 13.222656 C 10 12.804688 9.738281 12.398438 9.445312 12.015625 C 9.367188 11.910156 9.289062 11.808594 9.207031 11.707031 C 9.132812 11.613281 9.054688 11.523438 8.980469 11.425781 C 8.875 11.273438 8.777344 11.113281 8.695312 10.945312 C 8.511719 10.558594 8.417969 10.136719 8.40625 9.707031 C 8.402344 9.613281 8.402344 9.519531 8.410156 9.425781 C 8.417969 9.277344 8.433594 9.128906 8.453125 8.980469 C 8.472656 8.824219 8.519531 8.667969 8.46875 8.511719 C 8.449219 8.460938 8.421875 8.417969 8.390625 8.371094 Z M 8.390625 8.371094 "/>
<path style=" stroke:none;fill-rule:nonzero;fill:rgb(0.392157%,0.392157%,0.392157%);fill-opacity:1;" d="M 12.367188 12.746094 L 12.121094 12.746094 C 12.074219 12.746094 12.023438 12.746094 11.976562 12.75 C 11.921875 12.757812 11.867188 12.78125 11.820312 12.8125 C 11.789062 12.832031 11.765625 12.859375 11.742188 12.886719 C 11.628906 13.039062 11.652344 13.253906 11.796875 13.375 C 11.824219 13.402344 11.859375 13.421875 11.894531 13.4375 C 11.972656 13.464844 12.054688 13.460938 12.136719 13.460938 L 19.039062 13.460938 C 19.203125 13.460938 19.371094 13.453125 19.535156 13.46875 C 19.734375 13.488281 19.933594 13.550781 20.109375 13.644531 C 20.238281 13.714844 20.363281 13.800781 20.464844 13.902344 C 20.667969 14.105469 20.820312 14.347656 20.898438 14.625 C 20.929688 14.734375 20.945312 14.847656 20.953125 14.960938 C 20.960938 15.074219 20.953125 15.191406 20.953125 15.304688 L 20.953125 16.515625 C 20.953125 16.632812 20.957031 16.746094 20.921875 16.855469 C 20.882812 16.984375 20.8125 17.09375 20.714844 17.191406 C 20.667969 17.238281 20.605469 17.277344 20.542969 17.308594 C 20.46875 17.347656 20.386719 17.371094 20.300781 17.382812 C 20.191406 17.398438 20.074219 17.390625 19.960938 17.390625 L 15.863281 17.390625 L 15.863281 17.171875 C 15.863281 17.121094 15.867188 17.066406 15.859375 17.015625 C 15.839844 16.878906 15.777344 16.753906 15.683594 16.65625 C 15.597656 16.566406 15.484375 16.503906 15.359375 16.476562 C 15.289062 16.460938 15.21875 16.460938 15.148438 16.460938 L 14.570312 16.460938 C 14.492188 16.460938 14.414062 16.457031 14.335938 16.464844 C 14.1875 16.480469 14.042969 16.550781 13.941406 16.65625 C 13.847656 16.753906 13.785156 16.878906 13.765625 17.015625 C 13.757812 17.066406 13.761719 17.117188 13.761719 17.171875 L 13.761719 17.390625 L 13.132812 17.390625 C 13.019531 17.390625 12.898438 17.375 12.792969 17.425781 C 12.582031 17.53125 12.53125 17.828125 12.699219 17.996094 C 12.726562 18.019531 12.753906 18.042969 12.789062 18.0625 C 12.898438 18.117188 13.019531 18.101562 13.140625 18.101562 L 13.761719 18.101562 L 13.761719 18.460938 C 13.761719 18.535156 13.757812 18.613281 13.765625 18.6875 C 13.777344 18.8125 13.832031 18.933594 13.910156 19.027344 C 14.007812 19.148438 14.15625 19.230469 14.3125 19.253906 C 14.398438 19.269531 14.488281 19.261719 14.578125 19.261719 L 15.144531 19.261719 C 15.226562 19.261719 15.308594 19.261719 15.390625 19.238281 C 15.515625 19.203125 15.632812 19.132812 15.714844 19.03125 C 15.796875 18.933594 15.847656 18.8125 15.863281 18.6875 C 15.871094 18.613281 15.863281 18.535156 15.863281 18.460938 L 15.863281 18.101562 L 19.921875 18.101562 C 20.121094 18.101562 20.320312 18.113281 20.515625 18.070312 C 20.621094 18.046875 20.726562 18.011719 20.824219 17.96875 C 20.867188 17.945312 20.910156 17.917969 20.953125 17.898438 L 20.953125 20.484375 L 12.753906 20.484375 C 12.695312 20.484375 12.628906 20.480469 12.566406 20.484375 C 12.394531 20.496094 12.238281 20.640625 12.234375 20.816406 C 12.234375 20.867188 12.238281 20.914062 12.257812 20.960938 C 12.300781 21.085938 12.417969 21.175781 12.546875 21.191406 C 12.613281 21.199219 12.679688 21.195312 12.746094 21.195312 L 20.953125 21.195312 C 20.941406 21.238281 20.933594 21.277344 20.914062 21.316406 C 20.859375 21.4375 20.746094 21.527344 20.617188 21.554688 C 20.546875 21.574219 20.472656 21.566406 20.402344 21.566406 L 12.378906 21.566406 C 12.292969 21.566406 12.203125 21.558594 12.117188 21.574219 C 12.046875 21.589844 11.984375 21.625 11.933594 21.675781 C 11.910156 21.699219 11.890625 21.726562 11.875 21.753906 C 11.785156 21.921875 11.851562 22.140625 12.015625 22.234375 C 12.050781 22.253906 12.089844 22.265625 12.128906 22.273438 C 12.195312 22.285156 12.269531 22.277344 12.335938 22.277344 L 20.425781 22.277344 C 20.503906 22.277344 20.582031 22.28125 20.660156 22.269531 C 20.777344 22.257812 20.894531 22.226562 21.003906 22.175781 C 21.34375 22.019531 21.585938 21.699219 21.652344 21.332031 C 21.667969 21.238281 21.667969 21.144531 21.667969 21.046875 L 21.667969 15.320312 C 21.667969 15.089844 21.671875 14.859375 21.628906 14.628906 C 21.554688 14.210938 21.359375 13.828125 21.078125 13.511719 C 20.957031 13.371094 20.8125 13.246094 20.65625 13.140625 C 20.46875 13.019531 20.269531 12.917969 20.054688 12.851562 C 19.890625 12.800781 19.722656 12.765625 19.550781 12.753906 C 19.320312 12.738281 19.085938 12.746094 18.855469 12.746094 L 17.257812 12.746094 L 17.257812 12.261719 C 17.257812 12.144531 17.261719 12.023438 17.242188 11.902344 C 17.195312 11.640625 17.066406 11.402344 16.875 11.21875 C 16.691406 11.042969 16.445312 10.929688 16.191406 10.898438 C 16.109375 10.890625 16.023438 10.890625 15.9375 10.890625 L 13.632812 10.890625 C 13.539062 10.890625 13.449219 10.894531 13.359375 10.910156 C 13.132812 10.953125 12.917969 11.0625 12.75 11.21875 C 12.558594 11.402344 12.433594 11.640625 12.386719 11.902344 C 12.363281 12.019531 12.367188 12.140625 12.367188 12.261719 Z M 12.367188 12.746094 "/>
<path style=" stroke:none;fill-rule:nonzero;fill:rgb(100%,100%,100%);fill-opacity:1;" d="M 13.082031 12.746094 L 16.546875 12.746094 L 16.546875 12.285156 C 16.546875 12.195312 16.554688 12.101562 16.535156 12.011719 C 16.519531 11.90625 16.460938 11.8125 16.386719 11.738281 C 16.308594 11.667969 16.207031 11.621094 16.105469 11.605469 C 16.046875 11.601562 15.984375 11.605469 15.925781 11.605469 L 13.699219 11.605469 C 13.636719 11.605469 13.574219 11.601562 13.511719 11.609375 C 13.410156 11.621094 13.316406 11.667969 13.242188 11.738281 C 13.160156 11.8125 13.101562 11.917969 13.085938 12.027344 C 13.074219 12.113281 13.082031 12.199219 13.082031 12.28125 L 13.082031 12.746094 M 14.472656 17.171875 L 14.472656 18.550781 L 15.152344 18.550781 L 15.152344 17.171875 Z M 14.472656 17.171875 "/>
</g>
</svg>
