<?xml version="1.0" encoding="UTF-8"?>
<svg xmlns="http://www.w3.org/2000/svg" xmlns:xlink="http://www.w3.org/1999/xlink" viewBox="0 0 24 24" version="1.1">
<g>
<path style=" stroke:none;fill-rule:nonzero;fill:rgb(0%,0%,0%);fill-opacity:1;" d="M 9.425781 3.152344 C 8.496094 3.164062 7.554688 3.3125 6.625 3.601562 C 5.699219 3.886719 4.777344 4.3125 3.945312 4.835938 C 3.859375 4.890625 3.851562 4.898438 3.824219 4.925781 C 3.796875 4.953125 3.773438 4.984375 3.757812 5.019531 C 3.742188 5.046875 3.738281 5.066406 3.730469 5.09375 C 3.722656 5.121094 3.722656 5.136719 3.71875 5.164062 C 3.71875 5.199219 3.71875 5.214844 3.734375 5.292969 C 3.835938 5.863281 3.894531 6.453125 3.914062 7.066406 C 3.917969 7.226562 3.917969 7.273438 3.917969 7.5 C 3.917969 7.753906 3.917969 7.851562 3.910156 8.058594 C 3.863281 9.273438 3.660156 10.503906 3.304688 11.738281 C 3.292969 11.769531 3.277344 11.824219 3.269531 11.859375 C 3.222656 12.011719 3.191406 12.128906 3.15625 12.273438 C 2.867188 13.429688 2.800781 14.613281 2.953125 15.800781 C 3.085938 16.8125 3.378906 17.824219 3.824219 18.804688 C 4.046875 19.296875 4.3125 19.78125 4.597656 20.226562 C 4.632812 20.28125 4.652344 20.304688 4.675781 20.328125 C 4.761719 20.402344 4.867188 20.433594 4.976562 20.414062 C 5.019531 20.40625 5.054688 20.394531 5.105469 20.367188 C 5.117188 20.359375 5.160156 20.339844 5.203125 20.316406 C 5.828125 20 6.488281 19.746094 7.144531 19.566406 C 7.265625 19.53125 7.441406 19.488281 7.445312 19.488281 C 7.445312 19.492188 7.457031 19.523438 7.472656 19.5625 C 7.722656 20.183594 7.957031 20.644531 8.203125 20.984375 C 8.449219 21.320312 8.730469 21.621094 9.03125 21.871094 C 9.25 22.046875 9.480469 22.203125 9.726562 22.332031 C 9.796875 22.371094 9.921875 22.429688 9.996094 22.464844 C 10.625 22.738281 11.328125 22.859375 12.070312 22.820312 C 12.605469 22.792969 13.125 22.675781 13.585938 22.484375 C 13.714844 22.429688 13.847656 22.363281 13.96875 22.296875 C 14.644531 21.925781 15.152344 21.371094 15.46875 20.671875 C 15.523438 20.546875 15.574219 20.414062 15.617188 20.285156 C 15.625 20.265625 15.628906 20.25 15.628906 20.25 C 15.628906 20.25 15.644531 20.25 15.660156 20.253906 C 15.804688 20.261719 16.015625 20.273438 16.191406 20.277344 C 16.339844 20.28125 16.394531 20.28125 16.613281 20.28125 C 16.859375 20.28125 16.9375 20.28125 17.136719 20.273438 C 18.027344 20.242188 18.898438 20.125 19.667969 19.933594 C 19.824219 19.894531 20.035156 19.835938 20.074219 19.820312 C 20.160156 19.785156 20.222656 19.726562 20.261719 19.644531 C 20.285156 19.597656 20.296875 19.554688 20.300781 19.5 C 20.300781 19.449219 20.292969 19.402344 20.273438 19.355469 C 20.265625 19.335938 20.257812 19.316406 20.222656 19.257812 C 19.902344 18.675781 19.628906 18.046875 19.425781 17.429688 C 19.046875 16.261719 18.898438 15.089844 18.980469 13.929688 C 19.023438 13.367188 19.117188 12.808594 19.269531 12.261719 C 19.285156 12.199219 19.304688 12.132812 19.328125 12.050781 C 19.417969 11.75 19.488281 11.480469 19.554688 11.203125 C 19.820312 10.101562 19.96875 9.011719 20 7.925781 C 20.003906 7.777344 20.003906 7.730469 20.003906 7.503906 C 20.003906 7.226562 20.003906 7.125 19.996094 6.898438 C 19.957031 5.976562 19.824219 5.070312 19.617188 4.296875 C 19.585938 4.175781 19.578125 4.152344 19.558594 4.117188 C 19.523438 4.054688 19.46875 4.003906 19.40625 3.972656 C 19.378906 3.960938 19.363281 3.953125 19.335938 3.945312 C 19.300781 3.9375 19.269531 3.933594 19.234375 3.933594 C 19.207031 3.9375 19.191406 3.9375 19.152344 3.945312 C 19.105469 3.957031 19.007812 3.976562 18.941406 3.988281 C 18.335938 4.101562 17.699219 4.171875 17.042969 4.191406 C 16.882812 4.195312 16.832031 4.195312 16.613281 4.195312 C 16.398438 4.195312 16.351562 4.195312 16.203125 4.191406 C 15.019531 4.15625 13.816406 3.976562 12.617188 3.648438 C 12.5 3.617188 12.386719 3.585938 12.246094 3.542969 C 11.3125 3.269531 10.382812 3.136719 9.425781 3.152344 Z M 9.785156 3.867188 C 9.894531 3.867188 9.96875 3.871094 10.050781 3.875 C 10.59375 3.90625 11.128906 3.988281 11.660156 4.121094 C 11.808594 4.160156 11.90625 4.183594 12.078125 4.238281 C 13.441406 4.636719 14.808594 4.859375 16.15625 4.902344 C 16.472656 4.914062 16.8125 4.914062 17.128906 4.902344 C 17.753906 4.878906 18.375 4.816406 18.949219 4.710938 L 18.984375 4.707031 L 18.992188 4.738281 C 19.167969 5.480469 19.265625 6.28125 19.289062 7.125 C 19.296875 7.355469 19.296875 7.644531 19.289062 7.875 C 19.265625 8.777344 19.15625 9.671875 18.964844 10.585938 C 18.875 11.003906 18.769531 11.417969 18.644531 11.851562 C 18.617188 11.9375 18.601562 11.992188 18.582031 12.066406 C 18.28125 13.164062 18.183594 14.289062 18.285156 15.417969 C 18.386719 16.527344 18.679688 17.636719 19.160156 18.722656 C 19.230469 18.875 19.324219 19.078125 19.394531 19.214844 L 19.417969 19.261719 L 19.371094 19.273438 C 18.765625 19.414062 18.085938 19.507812 17.394531 19.546875 C 17.125 19.5625 16.898438 19.570312 16.613281 19.570312 C 16.398438 19.570312 16.253906 19.566406 16.050781 19.558594 C 15.972656 19.554688 15.796875 19.546875 15.792969 19.546875 C 15.792969 19.546875 15.792969 19.539062 15.796875 19.519531 C 15.828125 19.3125 15.84375 19.113281 15.851562 18.867188 C 15.855469 18.789062 15.855469 13.132812 15.851562 13.097656 C 15.839844 12.894531 15.792969 12.722656 15.707031 12.554688 C 15.644531 12.425781 15.570312 12.320312 15.472656 12.222656 C 15.265625 12.011719 14.996094 11.898438 14.714844 11.898438 C 14.613281 11.898438 14.515625 11.914062 14.414062 11.945312 C 14.375 11.957031 14.34375 11.96875 14.292969 11.992188 C 14.289062 11.992188 14.289062 11.898438 14.289062 11.523438 C 14.289062 11.0625 14.289062 10.992188 14.285156 10.933594 C 14.25 10.488281 14.035156 10.09375 13.695312 9.863281 C 13.453125 9.699219 13.167969 9.636719 12.882812 9.6875 C 12.804688 9.699219 12.730469 9.722656 12.65625 9.75 C 12.625 9.761719 12.605469 9.773438 12.566406 9.792969 L 12.535156 9.808594 L 12.53125 9.796875 C 12.46875 9.523438 12.34375 9.285156 12.164062 9.101562 C 11.996094 8.929688 11.792969 8.816406 11.570312 8.769531 C 11.492188 8.753906 11.433594 8.75 11.34375 8.75 C 11.28125 8.75 11.261719 8.75 11.210938 8.757812 C 10.875 8.796875 10.574219 8.992188 10.375 9.296875 C 10.339844 9.351562 10.316406 9.390625 10.285156 9.449219 C 10.207031 9.609375 10.15625 9.785156 10.136719 9.972656 C 10.132812 10.027344 10.132812 10.042969 10.128906 10.148438 L 10.128906 10.253906 L 10.117188 10.246094 C 9.957031 10.167969 9.777344 10.125 9.601562 10.132812 C 9.394531 10.136719 9.203125 10.195312 9.027344 10.308594 C 8.953125 10.351562 8.890625 10.402344 8.824219 10.46875 C 8.71875 10.574219 8.632812 10.691406 8.5625 10.832031 C 8.476562 11.003906 8.425781 11.1875 8.410156 11.386719 C 8.40625 11.453125 8.40625 11.441406 8.410156 13.074219 C 8.410156 13.949219 8.410156 14.75 8.410156 14.847656 L 8.410156 15.027344 L 8.402344 15.011719 C 8.351562 14.921875 8.277344 14.800781 8.21875 14.710938 C 8.144531 14.597656 8.066406 14.488281 7.988281 14.394531 C 7.824219 14.203125 7.660156 14.0625 7.488281 13.976562 C 7.269531 13.859375 7.035156 13.832031 6.808594 13.890625 C 6.765625 13.902344 6.71875 13.917969 6.675781 13.9375 C 6.648438 13.945312 6.582031 13.980469 6.554688 13.996094 C 6.511719 14.019531 6.46875 14.050781 6.429688 14.085938 C 6.402344 14.105469 6.34375 14.164062 6.324219 14.191406 C 6.179688 14.363281 6.105469 14.578125 6.089844 14.851562 C 6.089844 14.898438 6.089844 14.996094 6.09375 15.042969 C 6.113281 15.339844 6.1875 15.675781 6.347656 16.175781 C 6.378906 16.269531 6.414062 16.386719 6.480469 16.578125 C 6.582031 16.878906 6.609375 16.976562 6.757812 17.441406 C 6.84375 17.722656 6.859375 17.773438 6.894531 17.890625 C 7.003906 18.234375 7.09375 18.511719 7.183594 18.773438 L 7.199219 18.816406 L 7.191406 18.816406 C 7.191406 18.816406 7.167969 18.820312 7.148438 18.828125 C 6.785156 18.917969 6.386719 19.042969 6.011719 19.183594 C 5.707031 19.296875 5.363281 19.445312 5.089844 19.578125 C 5.074219 19.585938 5.058594 19.59375 5.054688 19.59375 L 5.046875 19.597656 L 5.027344 19.566406 C 4.847656 19.265625 4.679688 18.945312 4.527344 18.621094 C 4.316406 18.175781 4.140625 17.714844 4 17.253906 C 3.71875 16.339844 3.578125 15.414062 3.585938 14.503906 C 3.585938 14.390625 3.589844 14.335938 3.589844 14.246094 C 3.617188 13.542969 3.726562 12.851562 3.921875 12.164062 C 3.929688 12.140625 3.945312 12.085938 3.957031 12.046875 C 4.355469 10.6875 4.578125 9.347656 4.625 8.003906 C 4.632812 7.824219 4.632812 7.730469 4.632812 7.5 C 4.632812 7.269531 4.632812 7.183594 4.625 7 C 4.605469 6.460938 4.554688 5.917969 4.476562 5.410156 C 4.472656 5.378906 4.46875 5.351562 4.46875 5.351562 C 4.46875 5.351562 4.585938 5.28125 4.628906 5.257812 C 4.957031 5.066406 5.300781 4.886719 5.644531 4.734375 C 6.851562 4.191406 8.101562 3.898438 9.332031 3.867188 C 9.363281 3.863281 9.398438 3.863281 9.410156 3.863281 C 9.453125 3.863281 9.742188 3.863281 9.785156 3.867188 Z M 11.390625 9.464844 C 11.496094 9.476562 11.59375 9.53125 11.675781 9.625 C 11.777344 9.738281 11.839844 9.898438 11.851562 10.074219 C 11.851562 10.085938 11.851562 10.257812 11.851562 10.539062 C 11.851562 10.929688 11.859375 14.9375 11.859375 15.320312 C 11.859375 15.476562 11.859375 15.476562 11.867188 15.511719 C 11.882812 15.578125 11.914062 15.640625 11.964844 15.691406 C 11.992188 15.71875 12.023438 15.738281 12.058594 15.757812 C 12.09375 15.773438 12.125 15.785156 12.164062 15.789062 C 12.1875 15.792969 12.238281 15.796875 12.257812 15.792969 C 12.367188 15.777344 12.457031 15.722656 12.515625 15.632812 C 12.550781 15.578125 12.570312 15.519531 12.574219 15.453125 C 12.574219 15.4375 12.570312 14.445312 12.570312 13.246094 C 12.566406 12.050781 12.566406 11.050781 12.566406 11.03125 C 12.570312 10.914062 12.59375 10.804688 12.640625 10.703125 C 12.714844 10.539062 12.847656 10.421875 12.988281 10.390625 C 13.019531 10.386719 13.039062 10.382812 13.070312 10.382812 C 13.105469 10.382812 13.128906 10.386719 13.160156 10.394531 C 13.320312 10.433594 13.457031 10.574219 13.527344 10.769531 C 13.550781 10.832031 13.566406 10.898438 13.574219 10.976562 C 13.574219 10.996094 13.574219 11.121094 13.578125 12.4375 C 13.578125 13.636719 13.582031 15.164062 13.582031 15.480469 C 13.582031 15.558594 13.582031 15.566406 13.589844 15.597656 C 13.605469 15.664062 13.636719 15.726562 13.6875 15.777344 C 13.796875 15.886719 13.964844 15.910156 14.101562 15.839844 C 14.136719 15.824219 14.164062 15.800781 14.191406 15.773438 C 14.238281 15.730469 14.269531 15.671875 14.285156 15.609375 C 14.292969 15.582031 14.292969 15.566406 14.296875 15.539062 C 14.296875 15.523438 14.292969 15.054688 14.292969 14.492188 C 14.289062 13.238281 14.289062 13.152344 14.292969 13.121094 C 14.300781 13.003906 14.335938 12.902344 14.394531 12.8125 C 14.460938 12.707031 14.554688 12.640625 14.652344 12.617188 C 14.699219 12.609375 14.753906 12.609375 14.800781 12.625 C 14.855469 12.640625 14.914062 12.671875 14.960938 12.722656 C 15.007812 12.765625 15.039062 12.808594 15.066406 12.863281 C 15.105469 12.9375 15.128906 13.015625 15.140625 13.109375 C 15.140625 13.128906 15.140625 13.273438 15.140625 15.941406 C 15.140625 18.804688 15.140625 18.808594 15.136719 18.921875 C 15.109375 19.558594 14.972656 20.101562 14.730469 20.558594 C 14.550781 20.890625 14.316406 21.175781 14.023438 21.410156 C 13.523438 21.804688 12.855469 22.050781 12.109375 22.105469 C 11.996094 22.113281 11.925781 22.113281 11.796875 22.113281 C 11.671875 22.113281 11.605469 22.113281 11.496094 22.105469 C 10.894531 22.0625 10.34375 21.886719 9.855469 21.585938 C 9.460938 21.339844 9.117188 21.015625 8.808594 20.605469 C 8.683594 20.433594 8.570312 20.246094 8.445312 19.996094 C 8.308594 19.722656 8.179688 19.417969 8.035156 19.039062 C 8.023438 19.007812 8.011719 18.972656 8.007812 18.964844 C 8.003906 18.953125 8 18.9375 7.992188 18.925781 C 7.964844 18.847656 7.890625 18.632812 7.832031 18.46875 C 7.726562 18.148438 7.636719 17.875 7.4375 17.230469 C 7.292969 16.765625 7.261719 16.671875 7.164062 16.378906 C 7.09375 16.164062 7.066406 16.085938 7.039062 15.996094 C 6.890625 15.53125 6.820312 15.230469 6.804688 14.992188 C 6.804688 14.960938 6.804688 14.886719 6.804688 14.859375 C 6.8125 14.765625 6.832031 14.699219 6.863281 14.65625 C 6.886719 14.625 6.925781 14.597656 6.980469 14.582031 C 7.023438 14.570312 7.066406 14.570312 7.109375 14.585938 C 7.230469 14.625 7.378906 14.761719 7.535156 14.972656 C 7.714844 15.222656 7.90625 15.578125 8.109375 16.035156 C 8.152344 16.140625 8.1875 16.222656 8.238281 16.363281 C 8.269531 16.453125 8.28125 16.488281 8.367188 16.738281 C 8.441406 16.960938 8.4375 16.949219 8.445312 16.96875 C 8.457031 16.996094 8.476562 17.023438 8.496094 17.050781 C 8.617188 17.195312 8.832031 17.21875 8.984375 17.105469 C 9.003906 17.089844 9.03125 17.0625 9.046875 17.046875 C 9.089844 16.988281 9.117188 16.925781 9.125 16.851562 C 9.125 16.839844 9.125 16.085938 9.121094 14.265625 C 9.121094 12.855469 9.121094 11.644531 9.121094 11.574219 C 9.121094 11.46875 9.121094 11.445312 9.121094 11.429688 C 9.132812 11.324219 9.15625 11.238281 9.199219 11.15625 C 9.234375 11.085938 9.269531 11.03125 9.324219 10.976562 C 9.394531 10.90625 9.480469 10.859375 9.570312 10.847656 C 9.59375 10.84375 9.648438 10.84375 9.675781 10.847656 C 9.75 10.859375 9.820312 10.890625 9.882812 10.941406 C 10.019531 11.050781 10.113281 11.238281 10.128906 11.445312 C 10.132812 11.5 10.132812 11.621094 10.132812 13.519531 C 10.136719 15.550781 10.136719 15.472656 10.144531 15.503906 C 10.160156 15.597656 10.21875 15.683594 10.300781 15.738281 C 10.40625 15.804688 10.546875 15.8125 10.660156 15.753906 C 10.761719 15.699219 10.832031 15.601562 10.847656 15.484375 C 10.851562 15.460938 10.851562 15.558594 10.847656 12.832031 C 10.84375 9.949219 10.84375 10.089844 10.84375 10.0625 C 10.855469 9.949219 10.878906 9.855469 10.925781 9.765625 C 10.957031 9.699219 10.996094 9.644531 11.046875 9.597656 C 11.121094 9.523438 11.210938 9.472656 11.296875 9.464844 C 11.304688 9.464844 11.3125 9.460938 11.3125 9.460938 C 11.324219 9.460938 11.375 9.460938 11.390625 9.464844 Z M 11.390625 9.464844 "/>
<path style=" stroke:none;fill-rule:nonzero;fill:rgb(0%,0%,0%);fill-opacity:1;" d="M 9.425781 5.15625 C 8.714844 5.171875 8.003906 5.277344 7.289062 5.476562 C 7.183594 5.507812 7.167969 5.511719 7.136719 5.527344 C 7.03125 5.582031 6.964844 5.683594 6.949219 5.800781 C 6.945312 5.820312 6.945312 5.867188 6.949219 5.886719 C 6.953125 5.929688 6.964844 5.964844 6.980469 6.003906 C 7.035156 6.109375 7.140625 6.183594 7.261719 6.199219 C 7.28125 6.199219 7.324219 6.199219 7.34375 6.199219 C 7.371094 6.195312 7.382812 6.191406 7.441406 6.175781 C 8.0625 5.996094 8.671875 5.898438 9.289062 5.875 C 9.378906 5.871094 9.417969 5.871094 9.539062 5.867188 C 9.664062 5.867188 9.75 5.867188 9.847656 5.871094 C 10.464844 5.894531 11.066406 5.992188 11.667969 6.164062 C 11.742188 6.1875 11.804688 6.207031 11.90625 6.238281 C 12.605469 6.460938 13.316406 6.632812 14.015625 6.742188 C 14.140625 6.765625 14.152344 6.765625 14.191406 6.761719 C 14.28125 6.753906 14.359375 6.71875 14.417969 6.660156 C 14.539062 6.539062 14.558594 6.351562 14.464844 6.210938 C 14.429688 6.15625 14.378906 6.113281 14.324219 6.085938 C 14.28125 6.066406 14.261719 6.0625 14.171875 6.046875 C 13.488281 5.9375 12.8125 5.777344 12.144531 5.566406 C 11.976562 5.511719 11.875 5.480469 11.753906 5.449219 C 11.125 5.277344 10.492188 5.179688 9.851562 5.160156 C 9.726562 5.15625 9.550781 5.152344 9.425781 5.15625 Z M 9.425781 5.15625 "/>
<path style=" stroke:none;fill-rule:nonzero;fill:rgb(0%,0%,0%);fill-opacity:1;" d="M 9.441406 6.324219 C 9.257812 6.332031 9.128906 6.335938 8.984375 6.347656 C 8.875 6.355469 8.726562 6.367188 8.667969 6.375 C 8.628906 6.382812 8.589844 6.394531 8.554688 6.410156 C 8.484375 6.445312 8.429688 6.503906 8.394531 6.570312 C 8.382812 6.597656 8.375 6.613281 8.367188 6.640625 C 8.359375 6.671875 8.359375 6.691406 8.359375 6.730469 C 8.359375 6.761719 8.359375 6.78125 8.367188 6.808594 C 8.398438 6.945312 8.507812 7.050781 8.644531 7.078125 C 8.6875 7.085938 8.722656 7.085938 8.792969 7.078125 C 8.949219 7.0625 9.144531 7.046875 9.316406 7.042969 C 9.441406 7.039062 9.644531 7.035156 9.761719 7.039062 C 10.175781 7.050781 10.570312 7.09375 10.976562 7.167969 C 11.269531 7.226562 11.574219 7.300781 11.855469 7.390625 C 11.894531 7.40625 11.910156 7.410156 11.933594 7.414062 C 12.136719 7.445312 12.324219 7.300781 12.34375 7.09375 C 12.347656 7.074219 12.347656 7.027344 12.34375 7.007812 C 12.328125 6.902344 12.261719 6.808594 12.171875 6.753906 C 12.140625 6.738281 12.125 6.730469 12.066406 6.710938 C 11.433594 6.511719 10.808594 6.390625 10.167969 6.34375 C 10.054688 6.335938 9.957031 6.332031 9.816406 6.328125 C 9.773438 6.328125 9.480469 6.324219 9.441406 6.324219 Z M 9.441406 6.324219 "/>
</g>
</svg>
