<?xml version="1.0" encoding="UTF-8"?>
<svg xmlns="http://www.w3.org/2000/svg" xmlns:xlink="http://www.w3.org/1999/xlink" viewBox="0 0 24 24" version="1.1">
<g>
<path style=" stroke:none;fill-rule:nonzero;fill:rgb(0%,0%,0%);fill-opacity:1;" d="M 10.972656 2.234375 C 10.417969 2.242188 9.738281 2.277344 9.039062 2.332031 C 8.917969 2.34375 8.78125 2.355469 8.777344 2.355469 C 8.773438 2.355469 8.507812 2.359375 8.179688 2.359375 C 7.617188 2.359375 7.585938 2.359375 7.574219 2.363281 C 7.527344 2.371094 7.484375 2.382812 7.449219 2.40625 C 7.351562 2.460938 7.285156 2.558594 7.273438 2.671875 C 7.273438 2.6875 7.273438 2.765625 7.273438 3.40625 L 7.273438 4.121094 L 7.277344 4.140625 C 7.285156 4.191406 7.304688 4.238281 7.332031 4.277344 C 7.386719 4.359375 7.46875 4.414062 7.570312 4.433594 L 7.585938 4.4375 L 8.148438 4.4375 C 8.453125 4.4375 8.707031 4.4375 8.707031 4.4375 C 8.707031 4.441406 8.679688 4.527344 8.660156 4.585938 C 8.472656 5.148438 8.191406 5.710938 7.796875 6.332031 C 7.679688 6.511719 7.578125 6.660156 7.371094 6.960938 C 7.21875 7.179688 7.21875 7.179688 7.199219 7.21875 C 7.175781 7.265625 7.160156 7.3125 7.152344 7.367188 C 7.148438 7.394531 7.148438 7.453125 7.152344 7.480469 C 7.15625 7.554688 7.179688 7.625 7.21875 7.6875 C 7.238281 7.722656 7.257812 7.75 7.289062 7.777344 C 7.359375 7.851562 7.445312 7.890625 7.546875 7.90625 C 7.570312 7.90625 7.625 7.910156 7.644531 7.90625 C 7.714844 7.898438 7.777344 7.875 7.835938 7.839844 C 7.90625 7.792969 8.066406 7.6875 8.171875 7.613281 C 8.671875 7.261719 9.09375 6.890625 9.453125 6.484375 C 9.8125 6.070312 10.105469 5.628906 10.316406 5.15625 C 10.328125 5.132812 10.34375 5.101562 10.347656 5.089844 C 10.351562 5.078125 10.359375 5.066406 10.359375 5.066406 C 10.359375 5.070312 10.375 5.085938 10.390625 5.109375 C 10.425781 5.15625 10.464844 5.210938 10.496094 5.265625 C 10.511719 5.292969 10.527344 5.324219 10.527344 5.324219 C 10.527344 5.328125 10.519531 5.332031 10.511719 5.335938 C 10.4375 5.371094 10.367188 5.425781 10.320312 5.496094 C 10.273438 5.554688 10.246094 5.628906 10.230469 5.699219 C 10.222656 5.746094 10.222656 5.707031 10.222656 6.238281 L 10.222656 6.722656 L 10.214844 6.730469 C 10.105469 6.8125 10 6.917969 9.925781 7.011719 C 9.8125 7.160156 9.746094 7.3125 9.71875 7.480469 C 9.707031 7.539062 9.703125 7.574219 9.703125 7.644531 C 9.703125 7.703125 9.707031 7.71875 9.710938 7.765625 C 9.730469 7.933594 9.789062 8.109375 9.890625 8.289062 C 9.949219 8.394531 10.007812 8.484375 10.125 8.644531 C 10.15625 8.6875 10.175781 8.714844 10.175781 8.714844 C 10.175781 8.71875 10.167969 8.722656 10.164062 8.726562 C 10.121094 8.785156 10.070312 8.859375 10.035156 8.925781 C 9.957031 9.078125 9.910156 9.234375 9.898438 9.414062 C 9.894531 9.449219 9.894531 9.5625 9.898438 9.601562 C 9.910156 9.769531 9.949219 9.925781 10.015625 10.089844 C 10.042969 10.152344 10.078125 10.234375 10.109375 10.292969 C 10.117188 10.308594 10.121094 10.316406 10.121094 10.320312 C 10.121094 10.320312 10.117188 10.328125 10.109375 10.335938 C 10.027344 10.441406 9.945312 10.574219 9.890625 10.703125 C 9.765625 11.011719 9.742188 11.355469 9.828125 11.695312 C 9.832031 11.707031 9.832031 11.714844 9.832031 11.714844 C 9.832031 11.714844 9.820312 11.722656 9.804688 11.734375 C 9.335938 12.035156 8.914062 12.355469 8.570312 12.671875 C 8.445312 12.789062 8.304688 12.933594 8.195312 13.050781 C 7.804688 13.480469 7.523438 13.929688 7.351562 14.390625 C 7.128906 14.996094 7 15.652344 6.972656 16.371094 C 6.96875 16.476562 6.96875 16.511719 6.96875 16.6875 C 6.96875 16.871094 6.96875 16.902344 6.972656 17.027344 C 7.011719 17.953125 7.195312 18.945312 7.53125 20.003906 C 7.617188 20.273438 7.71875 20.558594 7.828125 20.859375 C 7.878906 20.984375 7.972656 21.234375 7.988281 21.269531 C 8.082031 21.492188 8.238281 21.679688 8.433594 21.789062 C 8.550781 21.855469 8.671875 21.894531 8.808594 21.910156 C 8.832031 21.910156 8.964844 21.910156 12.089844 21.910156 C 15.214844 21.910156 15.347656 21.910156 15.367188 21.910156 C 15.53125 21.890625 15.667969 21.84375 15.796875 21.753906 C 15.910156 21.679688 16.011719 21.574219 16.089844 21.453125 C 16.128906 21.390625 16.167969 21.316406 16.195312 21.25 C 16.230469 21.15625 16.339844 20.847656 16.394531 20.675781 C 16.699219 19.726562 16.882812 18.746094 16.933594 17.773438 C 16.941406 17.578125 16.945312 17.425781 16.945312 17.214844 C 16.945312 17.0625 16.945312 16.992188 16.941406 16.875 C 16.910156 15.910156 16.753906 14.984375 16.464844 14.070312 C 16.445312 14.007812 16.386719 13.839844 16.363281 13.773438 C 16.15625 13.183594 15.902344 12.621094 15.585938 12.0625 C 15.257812 11.476562 14.855469 10.886719 14.410156 10.347656 C 14.300781 10.210938 14.257812 10.15625 14.195312 10.058594 C 14.089844 9.90625 14.011719 9.75 13.949219 9.585938 C 13.8125 9.226562 13.765625 8.847656 13.800781 8.398438 C 13.8125 8.273438 13.828125 8.140625 13.855469 7.976562 C 13.867188 7.898438 13.871094 7.863281 13.875 7.808594 C 13.898438 7.515625 13.828125 7.242188 13.675781 7.011719 C 13.632812 6.949219 13.589844 6.894531 13.53125 6.835938 C 13.480469 6.785156 13.433594 6.746094 13.375 6.699219 C 13.355469 6.683594 13.300781 6.652344 13.285156 6.640625 L 13.277344 6.636719 L 13.277344 6.1875 C 13.277344 5.691406 13.277344 5.738281 13.269531 5.6875 C 13.253906 5.609375 13.21875 5.535156 13.167969 5.472656 C 13.152344 5.453125 13.113281 5.414062 13.09375 5.398438 C 13.039062 5.355469 12.976562 5.324219 12.914062 5.304688 C 12.90625 5.304688 12.898438 5.300781 12.898438 5.300781 C 12.898438 5.300781 12.941406 5.257812 12.953125 5.246094 C 13.097656 5.125 13.328125 5.046875 13.652344 5.007812 C 13.78125 4.996094 13.894531 4.988281 14.136719 4.980469 C 14.363281 4.972656 14.445312 4.96875 14.539062 4.957031 C 14.738281 4.933594 14.871094 4.878906 14.96875 4.785156 C 15.007812 4.746094 15.035156 4.710938 15.0625 4.660156 C 15.085938 4.613281 15.097656 4.5625 15.105469 4.507812 C 15.109375 4.484375 15.109375 4.429688 15.105469 4.402344 C 15.097656 4.351562 15.085938 4.296875 15.0625 4.246094 C 15.042969 4.207031 14.996094 4.109375 14.953125 4.039062 C 14.808594 3.789062 14.621094 3.546875 14.402344 3.335938 C 14.347656 3.285156 14.34375 3.28125 14.308594 3.25 C 13.71875 2.71875 12.925781 2.363281 12.128906 2.273438 C 11.953125 2.253906 11.710938 2.242188 11.425781 2.234375 C 11.363281 2.234375 11.050781 2.234375 10.972656 2.234375 Z M 11.328125 2.949219 C 11.6875 2.953125 11.949219 2.964844 12.136719 2.992188 C 12.691406 3.074219 13.238281 3.308594 13.675781 3.648438 C 13.773438 3.726562 13.847656 3.792969 13.941406 3.882812 C 14.035156 3.976562 14.101562 4.050781 14.175781 4.148438 C 14.210938 4.199219 14.253906 4.261719 14.253906 4.261719 C 14.25 4.261719 14.238281 4.261719 14.152344 4.265625 C 13.832031 4.277344 13.675781 4.289062 13.507812 4.308594 C 13.101562 4.363281 12.792969 4.472656 12.554688 4.652344 C 12.347656 4.808594 12.199219 5.015625 12.109375 5.261719 L 12.101562 5.285156 L 11.285156 5.285156 L 11.277344 5.261719 C 11.179688 5.003906 11.046875 4.773438 10.878906 4.582031 C 10.828125 4.519531 10.753906 4.441406 10.699219 4.394531 C 10.503906 4.214844 10.285156 4.074219 10.027344 3.964844 C 9.765625 3.855469 9.460938 3.773438 9.160156 3.742188 C 9.148438 3.742188 9.136719 3.738281 9.132812 3.738281 L 9.128906 3.738281 L 9.128906 3.042969 L 9.132812 3.042969 C 9.140625 3.039062 9.3125 3.027344 9.421875 3.019531 C 10.019531 2.976562 10.574219 2.953125 11.03125 2.949219 C 11.1875 2.945312 11.199219 2.945312 11.328125 2.949219 Z M 8.417969 3.398438 L 8.417969 3.726562 L 7.984375 3.726562 L 7.984375 3.070312 L 8.417969 3.070312 Z M 9.457031 4.523438 C 9.5625 4.550781 9.667969 4.585938 9.753906 4.625 L 9.765625 4.628906 L 9.765625 4.636719 C 9.753906 4.664062 9.703125 4.789062 9.675781 4.847656 C 9.605469 5.003906 9.523438 5.15625 9.4375 5.304688 C 9.269531 5.582031 9.070312 5.847656 8.839844 6.101562 C 8.769531 6.175781 8.65625 6.292969 8.664062 6.28125 C 8.664062 6.277344 8.675781 6.253906 8.691406 6.230469 C 9.011719 5.667969 9.246094 5.128906 9.40625 4.589844 C 9.410156 4.566406 9.417969 4.539062 9.421875 4.53125 C 9.425781 4.519531 9.425781 4.515625 9.425781 4.515625 C 9.429688 4.515625 9.441406 4.515625 9.457031 4.523438 Z M 12.566406 6.386719 L 12.566406 6.777344 L 12.542969 6.78125 C 12.328125 6.832031 12.042969 6.855469 11.726562 6.855469 C 11.441406 6.855469 11.183594 6.828125 10.957031 6.777344 L 10.9375 6.769531 L 10.9375 6 L 12.566406 6 Z M 13.066406 7.386719 C 13.132812 7.472656 13.167969 7.578125 13.167969 7.703125 C 13.167969 7.75 13.164062 7.78125 13.148438 7.875 C 13.121094 8.066406 13.101562 8.226562 13.089844 8.375 C 13.070312 8.601562 13.074219 8.816406 13.09375 9.019531 C 13.125 9.371094 13.210938 9.699219 13.355469 10.015625 C 13.375 10.0625 13.429688 10.167969 13.453125 10.210938 C 13.558594 10.40625 13.671875 10.570312 13.828125 10.761719 C 13.882812 10.828125 13.902344 10.851562 13.941406 10.898438 C 14.609375 11.734375 15.132812 12.613281 15.507812 13.53125 C 15.945312 14.59375 16.1875 15.707031 16.226562 16.859375 C 16.234375 16.992188 16.234375 17.042969 16.234375 17.214844 C 16.234375 17.378906 16.234375 17.433594 16.230469 17.554688 C 16.195312 18.574219 16.007812 19.59375 15.671875 20.585938 C 15.640625 20.683594 15.605469 20.785156 15.558594 20.917969 C 15.53125 20.992188 15.523438 21.007812 15.507812 21.039062 C 15.484375 21.078125 15.464844 21.105469 15.4375 21.132812 C 15.398438 21.167969 15.363281 21.1875 15.316406 21.195312 C 15.300781 21.199219 15.203125 21.199219 12.089844 21.199219 C 8.988281 21.199219 8.875 21.199219 8.859375 21.195312 C 8.792969 21.183594 8.734375 21.140625 8.683594 21.066406 C 8.660156 21.027344 8.652344 21.011719 8.550781 20.746094 C 8.300781 20.101562 8.125 19.550781 7.988281 18.996094 C 7.808594 18.28125 7.707031 17.613281 7.683594 16.972656 C 7.675781 16.796875 7.675781 16.578125 7.683594 16.410156 C 7.710938 15.765625 7.820312 15.171875 8.019531 14.636719 C 8.085938 14.460938 8.171875 14.285156 8.28125 14.113281 C 8.539062 13.695312 8.917969 13.285156 9.421875 12.882812 C 9.617188 12.726562 9.816406 12.582031 10.046875 12.425781 C 10.175781 12.34375 10.261719 12.285156 10.4375 12.175781 C 10.46875 12.15625 10.488281 12.144531 10.511719 12.125 C 10.597656 12.035156 10.636719 11.914062 10.609375 11.789062 C 10.605469 11.769531 10.597656 11.75 10.585938 11.714844 C 10.535156 11.589844 10.503906 11.484375 10.492188 11.367188 C 10.488281 11.320312 10.488281 11.242188 10.496094 11.191406 C 10.507812 11.085938 10.542969 10.980469 10.597656 10.882812 C 10.648438 10.792969 10.730469 10.699219 10.796875 10.648438 C 10.8125 10.636719 10.84375 10.605469 10.855469 10.589844 C 10.898438 10.539062 10.921875 10.480469 10.933594 10.417969 C 10.9375 10.394531 10.9375 10.34375 10.933594 10.320312 C 10.929688 10.28125 10.917969 10.246094 10.902344 10.210938 C 10.886719 10.183594 10.878906 10.171875 10.851562 10.136719 C 10.804688 10.070312 10.765625 10.007812 10.726562 9.929688 C 10.660156 9.804688 10.625 9.691406 10.613281 9.574219 C 10.609375 9.550781 10.609375 9.484375 10.609375 9.457031 C 10.613281 9.40625 10.625 9.359375 10.640625 9.316406 C 10.648438 9.292969 10.671875 9.246094 10.6875 9.226562 C 10.71875 9.175781 10.757812 9.125 10.8125 9.078125 C 10.894531 9.003906 10.9375 8.914062 10.953125 8.804688 C 10.953125 8.785156 10.953125 8.730469 10.949219 8.707031 C 10.941406 8.617188 10.90625 8.535156 10.84375 8.433594 C 10.816406 8.386719 10.789062 8.347656 10.710938 8.238281 C 10.648438 8.148438 10.621094 8.113281 10.59375 8.074219 C 10.492188 7.917969 10.4375 7.796875 10.421875 7.695312 C 10.417969 7.675781 10.417969 7.632812 10.417969 7.613281 C 10.425781 7.546875 10.457031 7.484375 10.519531 7.414062 C 10.527344 7.402344 10.535156 7.394531 10.535156 7.394531 C 10.535156 7.394531 10.550781 7.398438 10.570312 7.40625 C 10.824219 7.492188 11.140625 7.546875 11.476562 7.5625 C 11.566406 7.566406 11.613281 7.570312 11.730469 7.570312 C 11.914062 7.570312 12.050781 7.5625 12.210938 7.550781 C 12.550781 7.523438 12.84375 7.457031 13.03125 7.371094 L 13.046875 7.363281 L 13.054688 7.371094 C 13.054688 7.375 13.0625 7.382812 13.066406 7.386719 Z M 13.066406 7.386719 "/>
</g>
</svg>
