<?xml version="1.0" encoding="UTF-8"?>
<svg xmlns="http://www.w3.org/2000/svg" xmlns:xlink="http://www.w3.org/1999/xlink" viewBox="0 0 24 24" version="1.1">
<g>
<path style=" stroke:none;fill-rule:nonzero;fill:rgb(0.392157%,0.392157%,0.392157%);fill-opacity:1;" d="M 14.542969 4.675781 C 14.527344 4.679688 14.507812 4.679688 14.488281 4.679688 C 14.449219 4.679688 14.410156 4.679688 14.367188 4.683594 C 14.261719 4.6875 14.152344 4.695312 14.042969 4.703125 C 13.683594 4.738281 13.320312 4.792969 12.96875 4.878906 C 12.457031 5.007812 11.964844 5.183594 11.492188 5.414062 C 10.515625 5.886719 9.65625 6.589844 8.984375 7.4375 C 8.75 7.730469 8.539062 8.042969 8.355469 8.371094 C 8.265625 8.523438 8.183594 8.679688 8.109375 8.839844 C 7.996094 9.085938 7.898438 9.332031 7.808594 9.585938 C 7.777344 9.671875 7.75 9.757812 7.726562 9.84375 C 7.707031 9.902344 7.683594 9.960938 7.679688 10.023438 C 7.667969 10.128906 7.703125 10.226562 7.773438 10.304688 C 7.796875 10.335938 7.832031 10.355469 7.863281 10.375 C 7.90625 10.398438 7.957031 10.414062 8.003906 10.414062 C 8.144531 10.425781 8.28125 10.355469 8.347656 10.230469 C 8.367188 10.191406 8.378906 10.148438 8.390625 10.105469 C 8.402344 10.0625 8.417969 10.019531 8.429688 9.976562 C 8.46875 9.851562 8.511719 9.730469 8.558594 9.609375 C 8.894531 8.722656 9.429688 7.921875 10.105469 7.257812 C 10.515625 6.847656 10.992188 6.492188 11.5 6.214844 C 12.074219 5.898438 12.683594 5.667969 13.324219 5.53125 C 14.453125 5.289062 15.636719 5.359375 16.734375 5.714844 C 17.554688 5.984375 18.320312 6.421875 18.972656 6.988281 C 19.515625 7.457031 19.980469 8.011719 20.34375 8.632812 C 20.941406 9.652344 21.253906 10.832031 21.242188 12.011719 C 21.230469 12.816406 21.074219 13.609375 20.78125 14.359375 C 20.535156 14.992188 20.179688 15.582031 19.75 16.109375 C 19.25 16.71875 18.636719 17.230469 17.953125 17.628906 C 17.238281 18.042969 16.441406 18.3125 15.625 18.433594 C 15.277344 18.484375 14.929688 18.5 14.578125 18.5 C 14.28125 18.5 13.980469 18.472656 13.6875 18.425781 C 13.59375 18.410156 13.503906 18.394531 13.414062 18.378906 C 13.335938 18.363281 13.261719 18.34375 13.183594 18.355469 C 13.136719 18.363281 13.09375 18.378906 13.054688 18.402344 C 13.011719 18.429688 12.972656 18.464844 12.945312 18.507812 C 12.859375 18.632812 12.867188 18.800781 12.957031 18.921875 C 12.980469 18.953125 13.007812 18.976562 13.035156 19 C 13.070312 19.023438 13.109375 19.039062 13.152344 19.050781 C 13.230469 19.070312 13.316406 19.085938 13.398438 19.101562 C 13.617188 19.140625 13.839844 19.164062 14.0625 19.1875 C 14.304688 19.210938 14.554688 19.21875 14.800781 19.210938 C 14.957031 19.207031 15.109375 19.203125 15.265625 19.191406 C 15.640625 19.164062 16.015625 19.101562 16.378906 19.015625 C 17.226562 18.8125 18.050781 18.457031 18.765625 17.960938 C 19.136719 17.707031 19.476562 17.425781 19.796875 17.113281 C 19.984375 16.933594 20.15625 16.738281 20.316406 16.539062 C 20.882812 15.847656 21.328125 15.046875 21.597656 14.195312 C 21.734375 13.765625 21.835938 13.328125 21.894531 12.878906 C 21.925781 12.621094 21.945312 12.363281 21.949219 12.105469 C 21.953125 11.984375 21.957031 11.863281 21.949219 11.742188 C 21.9375 11.457031 21.917969 11.171875 21.878906 10.890625 C 21.800781 10.359375 21.664062 9.835938 21.472656 9.335938 C 20.980469 8.046875 20.105469 6.910156 19 6.09375 C 18.328125 5.597656 17.574219 5.222656 16.773438 4.980469 C 16.257812 4.828125 15.726562 4.730469 15.1875 4.695312 C 15.035156 4.683594 14.886719 4.675781 14.734375 4.675781 L 14.609375 4.675781 C 14.589844 4.675781 14.566406 4.675781 14.542969 4.675781 M 14.65625 6.398438 C 14.613281 6.40625 14.570312 6.414062 14.535156 6.433594 C 14.503906 6.449219 14.472656 6.464844 14.449219 6.488281 C 14.386719 6.539062 14.347656 6.613281 14.335938 6.691406 C 14.328125 6.730469 14.328125 6.773438 14.328125 6.816406 L 14.328125 6.96875 C 14.328125 7.058594 14.316406 7.15625 14.339844 7.242188 C 14.390625 7.414062 14.558594 7.519531 14.738281 7.496094 C 14.777344 7.492188 14.816406 7.480469 14.851562 7.460938 C 14.882812 7.441406 14.914062 7.421875 14.941406 7.394531 C 14.984375 7.351562 15.015625 7.292969 15.03125 7.230469 C 15.042969 7.183594 15.039062 7.136719 15.039062 7.089844 L 15.039062 6.910156 C 15.039062 6.804688 15.050781 6.695312 15.003906 6.597656 C 14.945312 6.472656 14.796875 6.382812 14.65625 6.398438 M 12.066406 7.09375 C 12.015625 7.101562 11.96875 7.113281 11.917969 7.136719 C 11.882812 7.15625 11.847656 7.183594 11.820312 7.214844 C 11.796875 7.242188 11.777344 7.273438 11.765625 7.304688 C 11.726562 7.390625 11.722656 7.484375 11.753906 7.574219 C 11.769531 7.609375 11.789062 7.640625 11.804688 7.671875 C 11.835938 7.722656 11.867188 7.773438 11.894531 7.824219 C 11.933594 7.894531 11.96875 7.96875 12.019531 8.027344 C 12.097656 8.113281 12.214844 8.15625 12.328125 8.140625 C 12.378906 8.136719 12.429688 8.117188 12.472656 8.09375 C 12.507812 8.070312 12.539062 8.042969 12.566406 8.007812 C 12.585938 7.980469 12.605469 7.949219 12.617188 7.917969 C 12.644531 7.839844 12.648438 7.757812 12.625 7.679688 C 12.609375 7.636719 12.585938 7.597656 12.5625 7.554688 C 12.53125 7.5 12.496094 7.441406 12.464844 7.382812 C 12.429688 7.328125 12.402344 7.265625 12.359375 7.214844 C 12.289062 7.136719 12.175781 7.082031 12.066406 7.09375 M 17.257812 7.09375 C 17.203125 7.101562 17.15625 7.113281 17.105469 7.136719 C 17.027344 7.179688 16.984375 7.25 16.941406 7.324219 C 16.910156 7.378906 16.878906 7.433594 16.847656 7.488281 C 16.792969 7.578125 16.734375 7.664062 16.730469 7.773438 C 16.714844 7.992188 16.917969 8.167969 17.128906 8.140625 C 17.210938 8.132812 17.289062 8.09375 17.34375 8.035156 C 17.378906 7.996094 17.402344 7.953125 17.425781 7.910156 C 17.464844 7.847656 17.5 7.785156 17.535156 7.722656 C 17.578125 7.644531 17.632812 7.566406 17.636719 7.472656 C 17.636719 7.414062 17.628906 7.359375 17.605469 7.308594 C 17.550781 7.179688 17.402344 7.074219 17.257812 7.09375 M 5.785156 8.324219 C 5.738281 8.332031 5.695312 8.339844 5.652344 8.363281 C 5.566406 8.40625 5.496094 8.488281 5.472656 8.582031 C 5.460938 8.621094 5.460938 8.660156 5.457031 8.703125 C 5.453125 8.738281 5.445312 8.773438 5.433594 8.808594 C 5.394531 8.921875 5.316406 9.027344 5.226562 9.109375 C 5.144531 9.183594 5.042969 9.253906 4.933594 9.285156 C 4.882812 9.300781 4.828125 9.296875 4.777344 9.304688 C 4.710938 9.316406 4.648438 9.347656 4.597656 9.390625 C 4.496094 9.480469 4.457031 9.632812 4.496094 9.761719 C 4.535156 9.882812 4.632812 9.972656 4.753906 10.003906 C 4.789062 10.011719 4.824219 10.011719 4.863281 10.015625 C 4.894531 10.015625 4.921875 10.023438 4.953125 10.035156 C 5.074219 10.070312 5.179688 10.152344 5.265625 10.246094 C 5.335938 10.320312 5.398438 10.40625 5.429688 10.503906 C 5.445312 10.539062 5.453125 10.574219 5.457031 10.609375 C 5.460938 10.652344 5.460938 10.695312 5.472656 10.742188 C 5.523438 10.902344 5.6875 11.007812 5.855469 10.988281 C 6 10.96875 6.121094 10.863281 6.15625 10.722656 C 6.167969 10.683594 6.167969 10.644531 6.171875 10.605469 C 6.175781 10.574219 6.183594 10.539062 6.191406 10.507812 C 6.234375 10.390625 6.3125 10.28125 6.40625 10.199219 C 6.492188 10.121094 6.589844 10.054688 6.703125 10.023438 C 6.75 10.011719 6.796875 10.015625 6.84375 10.007812 C 6.914062 9.996094 6.980469 9.96875 7.03125 9.917969 C 7.132812 9.828125 7.167969 9.675781 7.128906 9.546875 C 7.089844 9.429688 6.992188 9.335938 6.875 9.308594 C 6.8125 9.296875 6.746094 9.304688 6.6875 9.285156 C 6.558594 9.242188 6.449219 9.164062 6.359375 9.066406 C 6.289062 8.992188 6.226562 8.902344 6.195312 8.808594 C 6.183594 8.773438 6.175781 8.742188 6.171875 8.707031 C 6.167969 8.664062 6.167969 8.621094 6.15625 8.578125 C 6.105469 8.425781 5.949219 8.304688 5.785156 8.324219 M 15.039062 11.589844 L 15.039062 8.949219 C 15.039062 8.882812 15.046875 8.808594 15.035156 8.742188 C 15.011719 8.613281 14.921875 8.507812 14.800781 8.46875 C 14.613281 8.402344 14.398438 8.511719 14.34375 8.703125 C 14.328125 8.761719 14.328125 8.820312 14.328125 8.878906 L 14.328125 11.882812 C 14.328125 11.9375 14.328125 11.992188 14.34375 12.042969 C 14.351562 12.078125 14.367188 12.109375 14.386719 12.140625 C 14.402344 12.164062 14.417969 12.183594 14.4375 12.203125 C 14.5625 12.328125 14.742188 12.300781 14.902344 12.300781 L 16.734375 12.300781 C 16.78125 12.300781 16.828125 12.304688 16.875 12.296875 C 16.953125 12.289062 17.035156 12.25 17.089844 12.191406 C 17.109375 12.167969 17.128906 12.140625 17.144531 12.113281 C 17.234375 11.945312 17.171875 11.726562 17 11.632812 C 16.964844 11.613281 16.921875 11.597656 16.882812 11.59375 C 16.8125 11.582031 16.734375 11.589844 16.664062 11.589844 L 15.039062 11.589844 M 10.164062 8.996094 C 10.101562 9.003906 10.039062 9.019531 9.988281 9.058594 C 9.839844 9.160156 9.792969 9.363281 9.878906 9.523438 C 9.925781 9.609375 10.003906 9.652344 10.085938 9.703125 C 10.148438 9.738281 10.210938 9.773438 10.273438 9.8125 C 10.316406 9.832031 10.355469 9.859375 10.394531 9.875 C 10.453125 9.898438 10.515625 9.90625 10.578125 9.898438 C 10.617188 9.890625 10.65625 9.878906 10.695312 9.859375 C 10.863281 9.773438 10.929688 9.5625 10.851562 9.394531 C 10.828125 9.339844 10.785156 9.292969 10.738281 9.257812 C 10.707031 9.230469 10.667969 9.214844 10.632812 9.195312 C 10.558594 9.148438 10.484375 9.105469 10.410156 9.0625 C 10.335938 9.019531 10.253906 8.984375 10.164062 8.996094 M 19.152344 8.996094 C 19.117188 9 19.085938 9.003906 19.054688 9.015625 C 19.011719 9.03125 18.96875 9.058594 18.929688 9.082031 C 18.871094 9.113281 18.816406 9.148438 18.757812 9.179688 C 18.664062 9.234375 18.566406 9.285156 18.519531 9.386719 C 18.484375 9.46875 18.476562 9.558594 18.5 9.644531 C 18.546875 9.808594 18.710938 9.917969 18.878906 9.898438 C 18.96875 9.890625 19.042969 9.84375 19.117188 9.796875 C 19.171875 9.765625 19.226562 9.734375 19.28125 9.703125 C 19.320312 9.683594 19.359375 9.664062 19.390625 9.636719 C 19.441406 9.597656 19.484375 9.546875 19.507812 9.488281 C 19.574219 9.332031 19.519531 9.144531 19.375 9.050781 C 19.339844 9.03125 19.304688 9.015625 19.265625 9.003906 C 19.230469 8.996094 19.1875 8.988281 19.152344 8.996094 Z M 19.152344 8.996094 "/>
<path style=" stroke:none;fill-rule:nonzero;fill:rgb(100%,100%,100%);fill-opacity:1;" d="M 5.8125 9.53125 C 5.800781 9.53125 5.789062 9.550781 5.785156 9.558594 C 5.761719 9.582031 5.738281 9.605469 5.714844 9.625 C 5.710938 9.632812 5.6875 9.648438 5.6875 9.65625 C 5.6875 9.664062 5.707031 9.679688 5.714844 9.683594 C 5.738281 9.707031 5.761719 9.730469 5.785156 9.753906 C 5.789062 9.761719 5.804688 9.785156 5.816406 9.78125 C 5.824219 9.78125 5.835938 9.761719 5.839844 9.753906 C 5.863281 9.730469 5.886719 9.707031 5.910156 9.683594 C 5.917969 9.679688 5.941406 9.664062 5.941406 9.65625 C 5.941406 9.652344 5.929688 9.644531 5.925781 9.640625 C 5.910156 9.625 5.894531 9.609375 5.878906 9.597656 C 5.863281 9.578125 5.847656 9.5625 5.832031 9.546875 C 5.828125 9.542969 5.816406 9.527344 5.8125 9.53125 Z M 5.8125 9.53125 "/>
<path style=" stroke:none;fill-rule:nonzero;fill:rgb(0.392157%,0.392157%,0.392157%);fill-opacity:1;" d="M 3.863281 10.480469 C 3.824219 10.484375 3.78125 10.492188 3.742188 10.511719 C 3.710938 10.523438 3.683594 10.542969 3.65625 10.566406 C 3.601562 10.613281 3.5625 10.675781 3.542969 10.75 C 3.535156 10.792969 3.535156 10.835938 3.53125 10.882812 C 3.527344 10.929688 3.515625 10.972656 3.503906 11.019531 C 3.453125 11.171875 3.355469 11.304688 3.25 11.421875 C 3.125 11.550781 2.960938 11.664062 2.785156 11.714844 C 2.742188 11.726562 2.703125 11.734375 2.660156 11.738281 C 2.628906 11.742188 2.597656 11.738281 2.566406 11.742188 C 2.515625 11.753906 2.46875 11.773438 2.425781 11.800781 C 2.296875 11.890625 2.246094 12.058594 2.292969 12.203125 C 2.300781 12.238281 2.320312 12.269531 2.339844 12.296875 C 2.390625 12.371094 2.46875 12.421875 2.554688 12.441406 C 2.59375 12.453125 2.632812 12.449219 2.667969 12.453125 C 2.71875 12.457031 2.761719 12.46875 2.808594 12.480469 C 2.980469 12.535156 3.136719 12.652344 3.257812 12.78125 C 3.359375 12.890625 3.449219 13.019531 3.5 13.160156 C 3.515625 13.214844 3.527344 13.265625 3.535156 13.320312 C 3.539062 13.367188 3.535156 13.410156 3.550781 13.453125 C 3.597656 13.621094 3.765625 13.730469 3.9375 13.707031 C 4.082031 13.691406 4.203125 13.582031 4.238281 13.4375 C 4.246094 13.398438 4.246094 13.359375 4.25 13.320312 C 4.253906 13.277344 4.261719 13.234375 4.273438 13.191406 C 4.316406 13.046875 4.402344 12.914062 4.503906 12.800781 C 4.632812 12.65625 4.800781 12.53125 4.992188 12.476562 C 5.03125 12.464844 5.070312 12.457031 5.113281 12.453125 C 5.148438 12.449219 5.183594 12.449219 5.21875 12.445312 C 5.265625 12.4375 5.308594 12.417969 5.347656 12.390625 C 5.472656 12.308594 5.535156 12.144531 5.492188 11.996094 C 5.457031 11.871094 5.355469 11.773438 5.226562 11.746094 C 5.191406 11.738281 5.15625 11.742188 5.121094 11.738281 C 5.074219 11.734375 5.027344 11.726562 4.984375 11.710938 C 4.8125 11.65625 4.652344 11.546875 4.527344 11.414062 C 4.425781 11.304688 4.335938 11.175781 4.285156 11.03125 C 4.265625 10.980469 4.253906 10.925781 4.25 10.871094 C 4.242188 10.824219 4.246094 10.78125 4.234375 10.738281 C 4.191406 10.582031 4.027344 10.457031 3.863281 10.480469 M 9.835938 10.5625 C 9.804688 10.566406 9.769531 10.5625 9.738281 10.5625 C 9.660156 10.566406 9.578125 10.570312 9.5 10.578125 C 9.265625 10.601562 9.03125 10.640625 8.804688 10.703125 C 8.082031 10.890625 7.425781 11.269531 6.886719 11.785156 C 6.675781 11.984375 6.492188 12.207031 6.328125 12.445312 C 6.03125 12.867188 5.824219 13.351562 5.699219 13.851562 C 5.679688 13.929688 5.652344 14.011719 5.65625 14.089844 C 5.667969 14.265625 5.808594 14.40625 5.980469 14.425781 C 6.121094 14.4375 6.257812 14.363281 6.328125 14.242188 C 6.351562 14.199219 6.359375 14.152344 6.371094 14.105469 C 6.378906 14.058594 6.390625 14.015625 6.402344 13.972656 C 6.4375 13.828125 6.484375 13.683594 6.542969 13.550781 C 6.636719 13.328125 6.742188 13.117188 6.871094 12.914062 C 7.203125 12.410156 7.660156 11.992188 8.191406 11.703125 C 8.585938 11.492188 9.019531 11.351562 9.464844 11.300781 C 9.910156 11.246094 10.371094 11.273438 10.808594 11.386719 C 11.214844 11.496094 11.601562 11.667969 11.953125 11.910156 C 12.246094 12.113281 12.515625 12.363281 12.738281 12.644531 C 12.992188 12.964844 13.191406 13.328125 13.328125 13.714844 C 13.542969 14.335938 13.582031 15.019531 13.441406 15.660156 C 13.367188 15.996094 13.242188 16.324219 13.078125 16.628906 C 12.921875 16.921875 12.71875 17.183594 12.488281 17.425781 C 12.347656 17.574219 12.1875 17.707031 12.019531 17.824219 C 11.734375 18.03125 11.417969 18.195312 11.085938 18.3125 C 10.277344 18.59375 9.382812 18.570312 8.589844 18.265625 C 8.082031 18.066406 7.625 17.753906 7.253906 17.355469 C 7.144531 17.238281 7.042969 17.113281 6.949219 16.984375 C 6.921875 16.941406 6.894531 16.902344 6.867188 16.859375 C 6.839844 16.816406 6.8125 16.777344 6.769531 16.746094 C 6.601562 16.609375 6.34375 16.65625 6.238281 16.847656 C 6.183594 16.941406 6.175781 17.058594 6.21875 17.160156 C 6.242188 17.222656 6.285156 17.277344 6.324219 17.332031 C 6.449219 17.511719 6.578125 17.679688 6.726562 17.839844 C 7.4375 18.601562 8.414062 19.097656 9.453125 19.199219 C 10.066406 19.261719 10.683594 19.195312 11.273438 19.003906 C 12.359375 18.648438 13.296875 17.828125 13.792969 16.800781 C 14.09375 16.175781 14.25 15.484375 14.234375 14.789062 C 14.21875 14.160156 14.0625 13.542969 13.789062 12.972656 C 13.277344 11.921875 12.3125 11.105469 11.199219 10.757812 C 10.878906 10.65625 10.546875 10.59375 10.210938 10.570312 C 10.132812 10.566406 10.054688 10.566406 9.976562 10.5625 C 9.929688 10.558594 9.882812 10.554688 9.835938 10.5625 M 19.457031 11.589844 C 19.371094 11.601562 19.296875 11.628906 19.234375 11.691406 C 19.089844 11.832031 19.09375 12.074219 19.242188 12.207031 C 19.289062 12.25 19.34375 12.277344 19.40625 12.292969 C 19.449219 12.300781 19.492188 12.300781 19.539062 12.300781 L 19.6875 12.300781 C 19.765625 12.300781 19.851562 12.308594 19.929688 12.296875 C 19.972656 12.289062 20.011719 12.277344 20.046875 12.257812 C 20.257812 12.140625 20.292969 11.84375 20.117188 11.683594 C 20.074219 11.644531 20.019531 11.613281 19.957031 11.597656 C 19.914062 11.585938 19.871094 11.589844 19.828125 11.589844 L 19.53125 11.589844 C 19.507812 11.589844 19.480469 11.585938 19.457031 11.589844 Z M 19.457031 11.589844 "/>
<path style=" stroke:none;fill-rule:nonzero;fill:rgb(100%,100%,100%);fill-opacity:1;" d="M 3.566406 12.097656 C 3.632812 12.144531 3.691406 12.203125 3.75 12.261719 C 3.796875 12.3125 3.847656 12.363281 3.890625 12.421875 C 3.90625 12.398438 3.925781 12.378906 3.945312 12.355469 C 3.984375 12.308594 4.027344 12.265625 4.074219 12.222656 C 4.117188 12.179688 4.164062 12.128906 4.21875 12.097656 C 4.210938 12.085938 4.199219 12.078125 4.191406 12.070312 C 4.171875 12.054688 4.152344 12.039062 4.132812 12.023438 C 4.074219 11.96875 4.015625 11.914062 3.964844 11.851562 C 3.945312 11.832031 3.929688 11.8125 3.910156 11.792969 C 3.90625 11.785156 3.898438 11.769531 3.890625 11.769531 C 3.882812 11.769531 3.875 11.785156 3.871094 11.792969 C 3.855469 11.8125 3.835938 11.832031 3.820312 11.851562 C 3.765625 11.914062 3.710938 11.96875 3.652344 12.019531 C 3.632812 12.035156 3.613281 12.054688 3.59375 12.070312 C 3.582031 12.078125 3.570312 12.085938 3.566406 12.097656 Z M 3.566406 12.097656 "/>
<path style=" stroke:none;fill-rule:nonzero;fill:rgb(0.392157%,0.392157%,0.392157%);fill-opacity:1;" d="M 9.878906 12.328125 C 9.859375 12.332031 9.839844 12.328125 9.816406 12.328125 C 9.769531 12.332031 9.722656 12.332031 9.675781 12.335938 C 9.53125 12.351562 9.386719 12.375 9.246094 12.414062 C 8.609375 12.578125 8.054688 12.996094 7.710938 13.554688 C 7.292969 14.238281 7.222656 15.105469 7.523438 15.847656 C 7.617188 16.085938 7.746094 16.308594 7.90625 16.503906 C 8.066406 16.699219 8.25 16.871094 8.453125 17.007812 C 8.691406 17.167969 8.949219 17.292969 9.226562 17.367188 C 9.558594 17.457031 9.90625 17.480469 10.246094 17.433594 C 10.78125 17.363281 11.277344 17.117188 11.671875 16.75 C 12.09375 16.355469 12.371094 15.804688 12.445312 15.230469 C 12.464844 15.097656 12.472656 14.960938 12.46875 14.828125 C 12.453125 14.53125 12.402344 14.238281 12.292969 13.960938 C 12.015625 13.242188 11.40625 12.671875 10.667969 12.445312 C 10.484375 12.386719 10.292969 12.347656 10.101562 12.335938 C 10.046875 12.332031 9.992188 12.328125 9.9375 12.328125 C 9.917969 12.328125 9.898438 12.324219 9.878906 12.328125 Z M 9.878906 12.328125 "/>
<path style=" stroke:none;fill-rule:nonzero;fill:rgb(100%,100%,100%);fill-opacity:1;" d="M 9.863281 13.039062 C 9.8125 13.046875 9.761719 13.042969 9.710938 13.050781 C 9.597656 13.0625 9.488281 13.082031 9.378906 13.113281 C 8.917969 13.25 8.515625 13.574219 8.28125 13.996094 C 8 14.5 7.976562 15.132812 8.21875 15.660156 C 8.296875 15.835938 8.40625 16 8.539062 16.144531 C 8.65625 16.273438 8.796875 16.386719 8.949219 16.480469 C 9.117188 16.578125 9.300781 16.65625 9.492188 16.699219 C 9.703125 16.746094 9.921875 16.757812 10.136719 16.730469 C 10.335938 16.703125 10.53125 16.648438 10.710938 16.558594 C 11.128906 16.359375 11.460938 15.996094 11.628906 15.5625 C 11.707031 15.367188 11.746094 15.164062 11.753906 14.953125 C 11.777344 14.457031 11.578125 13.964844 11.238281 13.605469 C 11.023438 13.382812 10.75 13.214844 10.457031 13.125 C 10.3125 13.078125 10.167969 13.054688 10.019531 13.042969 C 9.96875 13.039062 9.914062 13.035156 9.863281 13.039062 Z M 9.863281 13.039062 "/>
<path style=" stroke:none;fill-rule:nonzero;fill:rgb(0.392157%,0.392157%,0.392157%);fill-opacity:1;" d="M 4.988281 13.578125 C 4.941406 13.582031 4.898438 13.589844 4.859375 13.609375 C 4.828125 13.621094 4.796875 13.640625 4.769531 13.664062 C 4.707031 13.71875 4.664062 13.796875 4.652344 13.878906 C 4.648438 13.917969 4.652344 13.960938 4.648438 14 C 4.640625 14.0625 4.632812 14.121094 4.617188 14.175781 C 4.570312 14.355469 4.484375 14.523438 4.378906 14.671875 C 4.152344 14.988281 3.832031 15.261719 3.457031 15.378906 C 3.382812 15.402344 3.308594 15.421875 3.234375 15.425781 C 3.160156 15.433594 3.089844 15.429688 3.019531 15.457031 C 2.851562 15.519531 2.757812 15.714844 2.808594 15.886719 C 2.820312 15.921875 2.832031 15.953125 2.851562 15.984375 C 2.902344 16.066406 2.996094 16.121094 3.089844 16.140625 C 3.136719 16.148438 3.183594 16.144531 3.234375 16.148438 C 3.300781 16.15625 3.371094 16.167969 3.4375 16.1875 C 3.640625 16.246094 3.824219 16.359375 3.988281 16.488281 C 4.054688 16.542969 4.125 16.601562 4.183594 16.667969 C 4.367188 16.867188 4.527344 17.097656 4.605469 17.359375 C 4.625 17.429688 4.640625 17.5 4.648438 17.574219 C 4.648438 17.605469 4.648438 17.636719 4.652344 17.667969 C 4.65625 17.714844 4.667969 17.761719 4.6875 17.804688 C 4.753906 17.933594 4.898438 18.015625 5.042969 17.996094 C 5.082031 17.992188 5.121094 17.984375 5.15625 17.964844 C 5.183594 17.953125 5.210938 17.9375 5.234375 17.917969 C 5.300781 17.863281 5.347656 17.78125 5.359375 17.699219 C 5.367188 17.652344 5.363281 17.609375 5.367188 17.5625 C 5.371094 17.503906 5.382812 17.445312 5.398438 17.390625 C 5.445312 17.210938 5.535156 17.042969 5.640625 16.890625 C 5.785156 16.695312 5.960938 16.523438 6.164062 16.386719 C 6.28125 16.308594 6.40625 16.242188 6.539062 16.199219 C 6.617188 16.175781 6.699219 16.15625 6.78125 16.148438 C 6.855469 16.140625 6.925781 16.144531 6.996094 16.117188 C 7.171875 16.046875 7.253906 15.855469 7.203125 15.679688 C 7.191406 15.648438 7.175781 15.617188 7.160156 15.589844 C 7.105469 15.507812 7.019531 15.453125 6.921875 15.4375 C 6.875 15.429688 6.828125 15.433594 6.78125 15.425781 C 6.707031 15.421875 6.636719 15.40625 6.570312 15.386719 C 6.28125 15.300781 6.019531 15.113281 5.816406 14.894531 C 5.632812 14.699219 5.476562 14.464844 5.402344 14.203125 C 5.382812 14.136719 5.371094 14.066406 5.363281 13.996094 C 5.363281 13.964844 5.363281 13.933594 5.363281 13.902344 C 5.355469 13.855469 5.34375 13.8125 5.324219 13.769531 C 5.277344 13.671875 5.183594 13.605469 5.078125 13.582031 C 5.046875 13.578125 5.015625 13.574219 4.988281 13.578125 M 18.8125 13.988281 C 18.75 13.996094 18.691406 14.015625 18.640625 14.050781 C 18.492188 14.152344 18.441406 14.355469 18.527344 14.515625 C 18.578125 14.609375 18.667969 14.65625 18.757812 14.707031 C 18.8125 14.738281 18.867188 14.773438 18.921875 14.804688 C 18.957031 14.824219 18.992188 14.847656 19.027344 14.863281 C 19.09375 14.890625 19.164062 14.902344 19.234375 14.890625 C 19.464844 14.859375 19.601562 14.597656 19.5 14.386719 C 19.480469 14.339844 19.449219 14.300781 19.410156 14.269531 C 19.371094 14.234375 19.320312 14.207031 19.273438 14.183594 C 19.210938 14.144531 19.144531 14.109375 19.078125 14.070312 C 18.996094 14.023438 18.910156 13.976562 18.8125 13.988281 Z M 18.8125 13.988281 "/>
<path style=" stroke:none;fill-rule:nonzero;fill:rgb(100%,100%,100%);fill-opacity:1;" d="M 5.007812 15.019531 C 4.984375 15.046875 4.96875 15.074219 4.945312 15.105469 C 4.898438 15.167969 4.851562 15.230469 4.800781 15.292969 C 4.632812 15.480469 4.445312 15.644531 4.238281 15.785156 L 4.238281 15.789062 C 4.4375 15.921875 4.621094 16.078125 4.777344 16.261719 C 4.835938 16.324219 4.886719 16.390625 4.9375 16.457031 C 4.953125 16.480469 4.96875 16.503906 4.984375 16.523438 C 4.992188 16.535156 4.996094 16.546875 5.007812 16.558594 C 5.027344 16.519531 5.054688 16.488281 5.078125 16.457031 C 5.125 16.394531 5.171875 16.332031 5.222656 16.273438 C 5.339844 16.140625 5.464844 16.019531 5.605469 15.914062 C 5.660156 15.871094 5.714844 15.824219 5.773438 15.789062 L 5.773438 15.785156 C 5.699219 15.742188 5.628906 15.683594 5.5625 15.628906 C 5.417969 15.511719 5.289062 15.382812 5.171875 15.242188 C 5.132812 15.195312 5.09375 15.144531 5.058594 15.09375 C 5.042969 15.070312 5.027344 15.039062 5.007812 15.019531 Z M 5.007812 15.019531 "/>
<path style=" stroke:none;fill-rule:nonzero;fill:rgb(0.392157%,0.392157%,0.392157%);fill-opacity:1;" d="M 17.058594 15.746094 C 17.007812 15.753906 16.957031 15.765625 16.910156 15.789062 C 16.871094 15.8125 16.839844 15.839844 16.8125 15.871094 C 16.789062 15.898438 16.773438 15.929688 16.757812 15.960938 C 16.722656 16.042969 16.71875 16.136719 16.75 16.222656 C 16.761719 16.261719 16.785156 16.296875 16.804688 16.332031 C 16.835938 16.382812 16.863281 16.433594 16.894531 16.484375 C 16.929688 16.546875 16.960938 16.613281 17.007812 16.667969 C 17.082031 16.757812 17.203125 16.808594 17.324219 16.792969 C 17.375 16.785156 17.421875 16.769531 17.464844 16.742188 C 17.503906 16.722656 17.535156 16.695312 17.558594 16.660156 C 17.578125 16.632812 17.597656 16.605469 17.609375 16.574219 C 17.640625 16.5 17.644531 16.414062 17.621094 16.335938 C 17.605469 16.289062 17.578125 16.246094 17.554688 16.199219 C 17.519531 16.144531 17.488281 16.085938 17.457031 16.03125 C 17.421875 15.976562 17.394531 15.914062 17.355469 15.867188 C 17.285156 15.785156 17.167969 15.730469 17.058594 15.746094 M 14.667969 16.390625 C 14.621094 16.394531 14.578125 16.402344 14.535156 16.421875 C 14.503906 16.433594 14.476562 16.453125 14.453125 16.472656 C 14.394531 16.523438 14.351562 16.59375 14.335938 16.667969 C 14.328125 16.714844 14.328125 16.761719 14.328125 16.808594 L 14.328125 16.980469 C 14.328125 17.0625 14.320312 17.152344 14.34375 17.234375 C 14.394531 17.402344 14.5625 17.511719 14.734375 17.488281 C 14.773438 17.480469 14.808594 17.46875 14.84375 17.453125 C 14.875 17.4375 14.902344 17.421875 14.925781 17.398438 C 14.972656 17.351562 15.007812 17.296875 15.027344 17.234375 C 15.042969 17.183594 15.039062 17.132812 15.039062 17.082031 L 15.039062 16.90625 C 15.039062 16.804688 15.054688 16.695312 15.011719 16.597656 C 14.964844 16.496094 14.871094 16.421875 14.765625 16.398438 C 14.734375 16.390625 14.699219 16.382812 14.667969 16.390625 Z M 14.667969 16.390625 "/>
</g>
</svg>
