<?xml version="1.0" encoding="UTF-8"?>
<svg xmlns="http://www.w3.org/2000/svg" xmlns:xlink="http://www.w3.org/1999/xlink" viewBox="0 0 24 24" version="1.1">
<g>
<path style=" stroke:none;fill-rule:nonzero;fill:rgb(0%,0%,0%);fill-opacity:1;" d="M 12.828125 2.4375 C 12.378906 2.445312 11.914062 2.496094 11.46875 2.589844 C 10.472656 2.796875 9.535156 3.214844 8.710938 3.816406 C 8.28125 4.132812 7.882812 4.503906 7.53125 4.910156 C 6.851562 5.695312 6.351562 6.617188 6.066406 7.609375 C 5.914062 8.148438 5.824219 8.699219 5.800781 9.261719 C 5.800781 9.28125 5.800781 9.28125 5.796875 9.28125 C 5.589844 9.328125 5.394531 9.429688 5.234375 9.574219 C 5.207031 9.601562 5.152344 9.652344 5.132812 9.679688 C 4.945312 9.894531 4.839844 10.15625 4.828125 10.4375 C 4.824219 10.476562 4.824219 10.921875 4.828125 10.960938 C 4.839844 11.207031 4.921875 11.4375 5.0625 11.636719 C 5.179688 11.792969 5.335938 11.925781 5.511719 12.015625 C 5.585938 12.054688 5.664062 12.082031 5.746094 12.105469 C 5.761719 12.109375 5.769531 12.113281 5.769531 12.113281 C 5.769531 12.113281 5.804688 12.3125 5.847656 12.558594 C 5.890625 12.800781 5.925781 13.007812 5.925781 13.015625 C 5.929688 13.039062 5.941406 13.070312 5.953125 13.09375 C 5.984375 13.152344 6.023438 13.199219 6.078125 13.234375 C 6.097656 13.246094 6.132812 13.265625 6.15625 13.273438 C 6.175781 13.277344 6.203125 13.285156 6.222656 13.289062 C 6.234375 13.289062 6.246094 13.289062 6.273438 13.289062 C 6.3125 13.289062 6.328125 13.289062 6.359375 13.28125 C 6.460938 13.257812 6.542969 13.1875 6.589844 13.097656 C 6.621094 13.039062 6.632812 12.976562 6.628906 12.914062 C 6.628906 12.890625 6.628906 12.902344 6.542969 12.402344 C 6.519531 12.261719 6.5 12.148438 6.5 12.148438 C 6.5 12.148438 9.394531 12.148438 12.929688 12.148438 L 19.355469 12.148438 L 18.632812 16.375 C 18.230469 18.699219 17.90625 20.605469 17.902344 20.613281 C 17.898438 20.636719 17.886719 20.675781 17.878906 20.703125 C 17.78125 21 17.5 21.242188 17.132812 21.347656 C 17.039062 21.375 16.945312 21.390625 16.832031 21.402344 C 16.804688 21.402344 16.605469 21.402344 13.492188 21.402344 C 10.332031 21.40625 10.179688 21.40625 10.164062 21.40625 C 10.082031 21.417969 10.015625 21.453125 9.960938 21.507812 C 9.941406 21.527344 9.929688 21.542969 9.914062 21.566406 C 9.886719 21.605469 9.867188 21.652344 9.859375 21.699219 C 9.855469 21.722656 9.855469 21.777344 9.855469 21.800781 C 9.867188 21.890625 9.910156 21.972656 9.976562 22.03125 C 10.03125 22.074219 10.085938 22.101562 10.160156 22.113281 C 10.175781 22.117188 10.308594 22.117188 13.464844 22.117188 C 15.828125 22.117188 16.769531 22.117188 16.800781 22.117188 C 16.882812 22.113281 16.953125 22.105469 17.03125 22.09375 C 17.421875 22.042969 17.785156 21.882812 18.066406 21.640625 C 18.117188 21.597656 18.1875 21.53125 18.230469 21.484375 C 18.429688 21.257812 18.558594 21 18.609375 20.71875 C 18.609375 20.703125 18.945312 18.757812 19.351562 16.398438 L 20.085938 12.109375 L 20.097656 12.105469 C 20.117188 12.101562 20.160156 12.089844 20.183594 12.082031 C 20.441406 11.996094 20.667969 11.824219 20.820312 11.597656 C 20.949219 11.40625 21.019531 11.1875 21.03125 10.953125 C 21.03125 10.910156 21.03125 10.492188 21.03125 10.449219 C 21.019531 10.234375 20.960938 10.039062 20.855469 9.855469 C 20.804688 9.773438 20.746094 9.695312 20.675781 9.625 C 20.578125 9.527344 20.472656 9.449219 20.347656 9.386719 C 20.253906 9.339844 20.164062 9.308594 20.058594 9.28125 C 20.058594 9.28125 20.058594 9.28125 20.054688 9.261719 C 20.050781 9.121094 20.042969 9.003906 20.027344 8.878906 C 19.953125 8.089844 19.75 7.328125 19.417969 6.609375 C 19.359375 6.476562 19.28125 6.316406 19.210938 6.191406 C 18.820312 5.46875 18.3125 4.820312 17.703125 4.269531 C 17.027344 3.664062 16.242188 3.1875 15.394531 2.875 C 14.742188 2.636719 14.050781 2.492188 13.351562 2.449219 C 13.179688 2.441406 13.007812 2.4375 12.828125 2.4375 Z M 13.0625 3.152344 C 13.722656 3.167969 14.34375 3.273438 14.960938 3.480469 C 15.335938 3.605469 15.699219 3.765625 16.046875 3.957031 C 16.691406 4.316406 17.273438 4.789062 17.765625 5.347656 C 18.183594 5.828125 18.527344 6.363281 18.789062 6.949219 C 19.105469 7.648438 19.292969 8.421875 19.339844 9.191406 C 19.339844 9.210938 19.339844 9.234375 19.34375 9.242188 L 19.34375 9.253906 L 19.195312 9.253906 L 19.179688 9.230469 C 19.121094 9.164062 19.042969 9.097656 18.96875 9.046875 C 18.863281 8.976562 18.753906 8.929688 18.628906 8.898438 C 18.605469 8.890625 18.558594 8.882812 18.539062 8.882812 L 18.53125 8.878906 L 18.53125 8.863281 C 18.527344 8.855469 18.523438 8.832031 18.515625 8.808594 C 18.449219 8.527344 18.308594 8.265625 18.109375 8.046875 C 18.085938 8.023438 18.019531 7.957031 17.992188 7.933594 C 17.703125 7.671875 17.347656 7.519531 16.960938 7.488281 C 16.867188 7.480469 16.75 7.484375 16.65625 7.492188 L 16.632812 7.496094 L 16.628906 7.480469 C 16.625 7.457031 16.613281 7.375 16.605469 7.339844 C 16.519531 6.890625 16.328125 6.46875 16.050781 6.097656 C 15.890625 5.882812 15.699219 5.6875 15.484375 5.523438 C 15.371094 5.433594 15.25 5.355469 15.125 5.285156 C 15.03125 5.230469 14.917969 5.171875 14.820312 5.128906 C 14.34375 4.925781 13.824219 4.847656 13.304688 4.902344 C 12.542969 4.980469 11.839844 5.34375 11.335938 5.921875 C 11.085938 6.203125 10.894531 6.527344 10.765625 6.878906 C 10.761719 6.894531 10.757812 6.90625 10.757812 6.90625 C 10.757812 6.90625 10.738281 6.902344 10.71875 6.894531 C 10.542969 6.835938 10.371094 6.804688 10.171875 6.792969 C 10.105469 6.789062 9.988281 6.792969 9.910156 6.796875 C 9.238281 6.847656 8.628906 7.222656 8.28125 7.804688 C 8.246094 7.867188 8.207031 7.9375 8.175781 8 C 8.171875 8.015625 8.164062 8.027344 8.164062 8.027344 C 8.164062 8.027344 8.160156 8.027344 8.15625 8.023438 C 8.125 8.019531 8.066406 8.011719 8.015625 8.007812 C 7.980469 8.003906 7.871094 8.003906 7.828125 8.003906 C 7.425781 8.027344 7.050781 8.207031 6.785156 8.511719 C 6.691406 8.621094 6.609375 8.75 6.550781 8.882812 C 6.546875 8.894531 6.542969 8.902344 6.542969 8.902344 C 6.542969 8.898438 6.550781 8.808594 6.558594 8.757812 C 6.671875 7.867188 6.96875 7.011719 7.433594 6.246094 C 7.789062 5.664062 8.230469 5.144531 8.746094 4.699219 C 9.257812 4.261719 9.832031 3.90625 10.449219 3.648438 C 11.175781 3.34375 11.953125 3.175781 12.742188 3.152344 C 12.84375 3.152344 12.972656 3.152344 13.0625 3.152344 Z M 13.691406 5.597656 C 14.097656 5.613281 14.476562 5.722656 14.824219 5.933594 C 14.949219 6.007812 15.066406 6.097656 15.183594 6.203125 C 15.214844 6.230469 15.304688 6.316406 15.332031 6.347656 C 15.664062 6.710938 15.871094 7.152344 15.929688 7.636719 C 15.941406 7.726562 15.949219 7.796875 15.949219 7.910156 C 15.949219 7.976562 15.949219 7.988281 15.953125 8 C 15.960938 8.039062 15.96875 8.066406 15.984375 8.097656 C 16.03125 8.191406 16.113281 8.261719 16.214844 8.285156 C 16.242188 8.292969 16.261719 8.296875 16.292969 8.296875 C 16.351562 8.300781 16.386719 8.292969 16.449219 8.269531 C 16.554688 8.226562 16.652344 8.207031 16.761719 8.199219 C 16.808594 8.195312 16.882812 8.195312 16.929688 8.203125 C 17.34375 8.242188 17.695312 8.535156 17.8125 8.933594 C 17.839844 9.03125 17.855469 9.144531 17.855469 9.230469 C 17.851562 9.261719 17.855469 9.289062 17.859375 9.316406 C 17.882812 9.433594 17.960938 9.53125 18.070312 9.578125 C 18.109375 9.59375 18.144531 9.601562 18.1875 9.605469 C 18.226562 9.609375 18.261719 9.605469 18.308594 9.59375 C 18.34375 9.585938 18.359375 9.582031 18.386719 9.582031 C 18.417969 9.582031 18.4375 9.585938 18.46875 9.59375 C 18.546875 9.613281 18.617188 9.664062 18.664062 9.730469 C 18.683594 9.761719 18.703125 9.804688 18.710938 9.835938 C 18.734375 9.941406 18.710938 10.046875 18.644531 10.128906 C 18.59375 10.195312 18.519531 10.238281 18.4375 10.25 C 18.402344 10.257812 18.363281 10.257812 18.328125 10.25 C 18.238281 10.234375 18.160156 10.179688 18.105469 10.101562 C 18.101562 10.09375 18.09375 10.078125 18.085938 10.070312 C 18.066406 10.035156 18.046875 10.007812 18.019531 9.980469 C 17.992188 9.953125 17.964844 9.933594 17.933594 9.917969 C 17.894531 9.898438 17.851562 9.886719 17.8125 9.882812 C 17.789062 9.878906 17.746094 9.878906 17.726562 9.882812 C 17.652344 9.890625 17.585938 9.921875 17.527344 9.976562 C 17.492188 10.007812 17.46875 10.027344 17.4375 10.050781 C 17.203125 10.226562 16.910156 10.292969 16.625 10.234375 C 16.410156 10.191406 16.210938 10.082031 16.066406 9.917969 C 15.992188 9.835938 15.933594 9.746094 15.886719 9.648438 C 15.863281 9.59375 15.839844 9.5625 15.804688 9.527344 C 15.777344 9.5 15.75 9.480469 15.714844 9.464844 C 15.664062 9.441406 15.621094 9.429688 15.566406 9.425781 C 15.527344 9.425781 15.496094 9.429688 15.457031 9.441406 C 15.414062 9.453125 15.367188 9.476562 15.332031 9.507812 C 15.328125 9.511719 15.296875 9.539062 15.269531 9.566406 C 15.207031 9.628906 15.160156 9.671875 15.101562 9.71875 C 14.832031 9.945312 14.519531 10.101562 14.179688 10.1875 C 13.800781 10.28125 13.398438 10.277344 13.023438 10.175781 C 12.691406 10.085938 12.386719 9.925781 12.121094 9.703125 C 12.039062 9.632812 11.953125 9.546875 11.875 9.460938 C 11.835938 9.417969 11.804688 9.394531 11.757812 9.371094 C 11.707031 9.347656 11.65625 9.335938 11.601562 9.335938 C 11.503906 9.335938 11.414062 9.371094 11.34375 9.441406 C 11.316406 9.472656 11.304688 9.488281 11.277344 9.539062 C 11.210938 9.660156 11.140625 9.753906 11.042969 9.851562 C 10.996094 9.898438 10.960938 9.929688 10.910156 9.96875 C 10.730469 10.105469 10.523438 10.199219 10.300781 10.234375 C 10.160156 10.257812 10.015625 10.261719 9.875 10.242188 C 9.621094 10.203125 9.382812 10.097656 9.1875 9.933594 C 9.160156 9.910156 9.140625 9.890625 9.109375 9.863281 C 9.070312 9.824219 9.046875 9.804688 9.011719 9.789062 C 8.96875 9.765625 8.925781 9.753906 8.878906 9.75 C 8.855469 9.746094 8.8125 9.75 8.792969 9.75 C 8.71875 9.761719 8.652344 9.796875 8.597656 9.847656 C 8.578125 9.867188 8.5625 9.886719 8.542969 9.914062 C 8.511719 9.960938 8.488281 9.992188 8.449219 10.027344 C 8.410156 10.070312 8.375 10.09375 8.332031 10.125 C 8.257812 10.175781 8.175781 10.210938 8.089844 10.230469 C 8.027344 10.246094 7.972656 10.253906 7.90625 10.253906 C 7.867188 10.253906 7.84375 10.253906 7.804688 10.25 C 7.691406 10.234375 7.578125 10.191406 7.480469 10.125 C 7.402344 10.074219 7.332031 10.007812 7.277344 9.929688 C 7.148438 9.75 7.105469 9.519531 7.160156 9.300781 C 7.1875 9.1875 7.238281 9.082031 7.316406 8.992188 C 7.335938 8.96875 7.390625 8.914062 7.410156 8.898438 C 7.460938 8.855469 7.507812 8.824219 7.5625 8.796875 C 7.707031 8.726562 7.867188 8.699219 8.027344 8.726562 C 8.09375 8.738281 8.160156 8.757812 8.21875 8.785156 C 8.277344 8.808594 8.300781 8.816406 8.34375 8.824219 C 8.363281 8.824219 8.410156 8.824219 8.429688 8.824219 C 8.566406 8.808594 8.679688 8.71875 8.726562 8.585938 C 8.730469 8.578125 8.734375 8.5625 8.738281 8.546875 C 8.757812 8.464844 8.785156 8.386719 8.816406 8.316406 C 8.96875 7.980469 9.242188 7.722656 9.582031 7.59375 C 9.8125 7.503906 10.074219 7.480469 10.320312 7.527344 C 10.445312 7.550781 10.558594 7.589844 10.671875 7.644531 C 10.714844 7.664062 10.738281 7.679688 10.78125 7.703125 C 10.800781 7.714844 10.824219 7.726562 10.828125 7.730469 C 10.855469 7.746094 10.894531 7.757812 10.925781 7.761719 C 10.945312 7.765625 10.953125 7.765625 10.984375 7.765625 C 11.027344 7.765625 11.039062 7.765625 11.070312 7.757812 C 11.191406 7.730469 11.292969 7.636719 11.328125 7.515625 C 11.332031 7.507812 11.335938 7.484375 11.339844 7.46875 C 11.371094 7.316406 11.410156 7.191406 11.464844 7.054688 C 11.566406 6.796875 11.71875 6.554688 11.910156 6.347656 C 11.9375 6.320312 12.007812 6.25 12.039062 6.222656 C 12.40625 5.878906 12.867188 5.667969 13.359375 5.613281 C 13.46875 5.601562 13.585938 5.597656 13.691406 5.597656 Z M 6.511719 9.988281 C 6.5625 10.132812 6.644531 10.277344 6.738281 10.402344 C 6.964844 10.6875 7.285156 10.878906 7.644531 10.945312 C 7.691406 10.953125 7.746094 10.960938 7.804688 10.964844 C 7.84375 10.96875 7.976562 10.96875 8.015625 10.964844 C 8.074219 10.960938 8.125 10.953125 8.179688 10.941406 C 8.429688 10.894531 8.667969 10.78125 8.863281 10.617188 L 8.882812 10.597656 L 8.917969 10.621094 C 9.070312 10.722656 9.234375 10.800781 9.40625 10.859375 C 9.59375 10.921875 9.777344 10.957031 9.976562 10.964844 C 10.019531 10.96875 10.121094 10.96875 10.164062 10.964844 C 10.457031 10.953125 10.738281 10.878906 11 10.75 C 11.148438 10.675781 11.292969 10.582031 11.421875 10.472656 C 11.492188 10.414062 11.574219 10.332031 11.632812 10.265625 C 11.644531 10.253906 11.652344 10.242188 11.652344 10.242188 C 11.652344 10.242188 11.660156 10.246094 11.664062 10.25 C 11.703125 10.28125 11.769531 10.335938 11.8125 10.371094 C 12.136719 10.609375 12.5 10.78125 12.886719 10.878906 C 13.050781 10.917969 13.21875 10.945312 13.386719 10.957031 C 13.472656 10.964844 13.527344 10.96875 13.621094 10.96875 C 13.699219 10.96875 13.738281 10.964844 13.804688 10.960938 C 14.308594 10.933594 14.796875 10.777344 15.230469 10.507812 C 15.304688 10.460938 15.390625 10.398438 15.457031 10.347656 C 15.46875 10.339844 15.480469 10.332031 15.480469 10.332031 C 15.480469 10.332031 15.488281 10.339844 15.496094 10.351562 C 15.550781 10.417969 15.628906 10.492188 15.695312 10.550781 C 15.75 10.597656 15.820312 10.652344 15.882812 10.691406 C 16.121094 10.84375 16.398438 10.9375 16.675781 10.960938 C 16.769531 10.96875 16.871094 10.96875 16.964844 10.960938 C 17.195312 10.945312 17.425781 10.878906 17.628906 10.769531 C 17.652344 10.757812 17.699219 10.730469 17.710938 10.726562 C 17.714844 10.722656 17.714844 10.726562 17.730469 10.738281 C 17.882812 10.859375 18.066406 10.9375 18.257812 10.960938 C 18.300781 10.964844 18.3125 10.964844 18.367188 10.964844 C 18.421875 10.96875 18.453125 10.964844 18.492188 10.960938 C 18.824219 10.929688 19.121094 10.738281 19.289062 10.445312 C 19.308594 10.417969 19.335938 10.359375 19.347656 10.332031 C 19.398438 10.21875 19.421875 10.109375 19.433594 9.976562 L 19.433594 9.964844 L 19.632812 9.964844 C 19.847656 9.964844 19.835938 9.964844 19.882812 9.976562 C 20.027344 10 20.152344 10.085938 20.230469 10.207031 C 20.269531 10.265625 20.296875 10.328125 20.308594 10.398438 C 20.316406 10.445312 20.316406 10.433594 20.316406 10.683594 C 20.320312 10.925781 20.316406 10.941406 20.3125 10.980469 C 20.296875 11.089844 20.246094 11.191406 20.167969 11.273438 C 20.078125 11.363281 19.96875 11.417969 19.84375 11.429688 C 19.820312 11.433594 6.035156 11.433594 6.011719 11.429688 C 6.003906 11.429688 5.988281 11.429688 5.976562 11.425781 C 5.757812 11.386719 5.585938 11.214844 5.546875 10.996094 C 5.539062 10.953125 5.539062 10.960938 5.539062 10.699219 C 5.539062 10.472656 5.539062 10.453125 5.542969 10.433594 C 5.554688 10.332031 5.59375 10.242188 5.65625 10.164062 C 5.675781 10.140625 5.714844 10.101562 5.738281 10.082031 C 5.824219 10.015625 5.921875 9.976562 6.03125 9.96875 C 6.039062 9.964844 6.148438 9.964844 6.273438 9.964844 L 6.503906 9.964844 Z M 6.511719 9.988281 "/>
<path style=" stroke:none;fill-rule:nonzero;fill:rgb(0%,0%,0%);fill-opacity:1;" d="M 7.613281 13.359375 C 7.132812 13.367188 6.652344 13.511719 6.230469 13.769531 C 6.191406 13.792969 6.117188 13.84375 6.078125 13.871094 C 5.867188 14.019531 5.683594 14.195312 5.523438 14.394531 C 5.273438 14.710938 5.09375 15.078125 5.003906 15.476562 C 4.941406 15.761719 4.921875 16.054688 4.953125 16.347656 C 4.957031 16.421875 4.972656 16.503906 4.984375 16.574219 C 4.992188 16.617188 4.992188 16.628906 4.996094 16.65625 C 5 16.785156 4.945312 16.910156 4.847656 16.992188 C 4.75 17.074219 4.667969 17.15625 4.589844 17.242188 C 4.230469 17.640625 3.996094 18.144531 3.921875 18.675781 C 3.902344 18.800781 3.894531 18.914062 3.894531 19.046875 C 3.894531 19.179688 3.902344 19.292969 3.921875 19.417969 C 3.996094 19.949219 4.222656 20.449219 4.574219 20.855469 C 4.628906 20.917969 4.726562 21.019531 4.785156 21.074219 C 5.050781 21.316406 5.347656 21.5 5.679688 21.621094 C 5.695312 21.625 5.726562 21.636719 5.746094 21.644531 C 5.878906 21.695312 6.039062 21.75 6.191406 21.800781 C 6.527344 21.914062 6.808594 21.988281 7.019531 22.023438 C 7.34375 22.078125 7.652344 22.097656 7.9375 22.078125 C 8.402344 22.050781 8.808594 21.933594 9.160156 21.71875 C 9.367188 21.597656 9.554688 21.4375 9.71875 21.246094 C 9.792969 21.160156 9.863281 21.0625 9.929688 20.960938 C 10.074219 20.734375 10.203125 20.445312 10.28125 20.175781 C 10.394531 19.785156 10.414062 19.371094 10.347656 18.972656 C 10.335938 18.902344 10.335938 18.902344 10.332031 18.863281 C 10.332031 18.839844 10.332031 18.820312 10.335938 18.808594 C 10.34375 18.722656 10.375 18.640625 10.425781 18.574219 C 10.445312 18.542969 10.46875 18.519531 10.515625 18.480469 C 10.589844 18.414062 10.667969 18.335938 10.734375 18.261719 C 10.953125 18.011719 11.132812 17.710938 11.273438 17.359375 C 11.371094 17.117188 11.429688 16.867188 11.445312 16.621094 C 11.449219 16.5625 11.453125 16.527344 11.453125 16.457031 C 11.449219 16.363281 11.449219 16.296875 11.4375 16.210938 C 11.386719 15.75 11.191406 15.308594 10.859375 14.917969 C 10.742188 14.777344 10.601562 14.636719 10.449219 14.511719 C 10.296875 14.386719 10.132812 14.269531 9.949219 14.160156 C 9.882812 14.121094 9.664062 14 9.566406 13.945312 C 9.277344 13.789062 9.023438 13.671875 8.765625 13.578125 C 8.707031 13.554688 8.53125 13.496094 8.464844 13.476562 C 8.191406 13.390625 7.90625 13.351562 7.613281 13.359375 Z M 7.746094 14.070312 C 7.914062 14.078125 8.0625 14.101562 8.214844 14.148438 C 8.605469 14.257812 8.949219 14.484375 9.207031 14.792969 C 9.316406 14.921875 9.410156 15.070312 9.480469 15.21875 C 9.585938 15.441406 9.648438 15.675781 9.667969 15.914062 C 9.671875 15.976562 9.675781 16.007812 9.675781 16.082031 C 9.675781 16.15625 9.671875 16.183594 9.667969 16.246094 C 9.632812 16.644531 9.480469 17.027344 9.234375 17.335938 C 9.1875 17.394531 9.144531 17.441406 9.089844 17.496094 C 9.046875 17.539062 9.03125 17.554688 8.984375 17.597656 C 8.949219 17.625 8.910156 17.664062 8.886719 17.691406 C 8.71875 17.875 8.613281 18.101562 8.585938 18.34375 C 8.578125 18.382812 8.578125 18.417969 8.578125 18.464844 C 8.574219 18.550781 8.582031 18.613281 8.597656 18.710938 C 8.617188 18.828125 8.628906 18.921875 8.628906 19.039062 C 8.632812 19.308594 8.582031 19.582031 8.476562 19.835938 C 8.355469 20.125 8.171875 20.375 7.9375 20.582031 C 7.609375 20.867188 7.191406 21.039062 6.757812 21.070312 C 6.667969 21.074219 6.558594 21.074219 6.46875 21.070312 C 6.152344 21.042969 5.839844 20.945312 5.574219 20.78125 C 5.289062 20.605469 5.050781 20.359375 4.878906 20.0625 C 4.667969 19.691406 4.578125 19.265625 4.617188 18.851562 C 4.648438 18.542969 4.753906 18.242188 4.925781 17.976562 C 5.027344 17.8125 5.152344 17.671875 5.304688 17.539062 C 5.40625 17.453125 5.476562 17.367188 5.542969 17.261719 C 5.667969 17.054688 5.726562 16.808594 5.703125 16.566406 C 5.699219 16.523438 5.695312 16.492188 5.683594 16.429688 C 5.65625 16.289062 5.644531 16.121094 5.652344 15.972656 C 5.664062 15.753906 5.710938 15.542969 5.792969 15.339844 C 5.878906 15.125 5.996094 14.933594 6.152344 14.753906 C 6.183594 14.71875 6.273438 14.628906 6.308594 14.597656 C 6.429688 14.492188 6.550781 14.40625 6.6875 14.328125 C 6.726562 14.304688 6.808594 14.265625 6.851562 14.246094 C 7.09375 14.140625 7.351562 14.082031 7.613281 14.070312 C 7.644531 14.070312 7.71875 14.070312 7.746094 14.070312 Z M 10.320312 15.382812 C 10.5625 15.675781 10.703125 15.992188 10.734375 16.320312 C 10.738281 16.371094 10.738281 16.394531 10.738281 16.457031 C 10.738281 16.535156 10.734375 16.59375 10.726562 16.660156 C 10.699219 16.871094 10.628906 17.074219 10.511719 17.316406 C 10.398438 17.542969 10.269531 17.722656 10.117188 17.878906 C 10.082031 17.910156 10.066406 17.925781 10.015625 17.972656 C 9.820312 18.144531 9.6875 18.382812 9.640625 18.636719 C 9.625 18.71875 9.617188 18.785156 9.621094 18.871094 C 9.621094 18.949219 9.625 18.988281 9.640625 19.078125 C 9.675781 19.269531 9.679688 19.441406 9.664062 19.625 C 9.640625 19.851562 9.578125 20.074219 9.472656 20.3125 C 9.457031 20.347656 9.414062 20.433594 9.394531 20.46875 C 9.226562 20.769531 9.007812 20.992188 8.738281 21.140625 C 8.566406 21.238281 8.359375 21.304688 8.144531 21.339844 C 8.125 21.34375 8.109375 21.347656 8.105469 21.347656 C 8.101562 21.347656 8.101562 21.347656 8.128906 21.328125 C 8.242188 21.253906 8.359375 21.164062 8.46875 21.0625 C 8.503906 21.03125 8.589844 20.945312 8.621094 20.910156 C 8.800781 20.714844 8.9375 20.511719 9.054688 20.28125 C 9.285156 19.820312 9.378906 19.304688 9.328125 18.792969 C 9.320312 18.726562 9.3125 18.65625 9.300781 18.589844 C 9.292969 18.542969 9.289062 18.519531 9.289062 18.488281 C 9.289062 18.445312 9.292969 18.40625 9.304688 18.371094 C 9.320312 18.308594 9.34375 18.257812 9.378906 18.210938 C 9.402344 18.179688 9.421875 18.160156 9.457031 18.128906 C 9.542969 18.050781 9.628906 17.96875 9.699219 17.886719 C 9.992188 17.558594 10.199219 17.171875 10.304688 16.742188 C 10.410156 16.332031 10.414062 15.902344 10.320312 15.488281 C 10.316406 15.457031 10.296875 15.386719 10.289062 15.355469 L 10.285156 15.34375 L 10.292969 15.347656 C 10.296875 15.351562 10.308594 15.367188 10.320312 15.382812 Z M 10.320312 15.382812 "/>
<path style=" stroke:none;fill-rule:nonzero;fill:rgb(0%,0%,0%);fill-opacity:1;" d="M 17.203125 13.617188 C 17.050781 13.632812 16.925781 13.75 16.898438 13.902344 C 16.898438 13.910156 16.753906 15.136719 16.578125 16.625 C 16.238281 19.539062 16.261719 19.359375 16.265625 19.402344 C 16.273438 19.484375 16.304688 19.558594 16.363281 19.617188 C 16.421875 19.675781 16.488281 19.707031 16.570312 19.722656 C 16.589844 19.722656 16.644531 19.726562 16.664062 19.722656 C 16.71875 19.714844 16.769531 19.695312 16.8125 19.667969 C 16.894531 19.613281 16.949219 19.53125 16.96875 19.4375 C 16.96875 19.429688 17.113281 18.203125 17.289062 16.714844 L 17.601562 14.003906 L 17.605469 13.96875 C 17.605469 13.941406 17.601562 13.929688 17.601562 13.917969 C 17.589844 13.839844 17.554688 13.773438 17.5 13.71875 C 17.441406 13.660156 17.371094 13.625 17.289062 13.617188 C 17.269531 13.613281 17.226562 13.613281 17.203125 13.617188 Z M 17.203125 13.617188 "/>
</g>
</svg>
