<?xml version="1.0" encoding="UTF-8"?>
<svg xmlns="http://www.w3.org/2000/svg" xmlns:xlink="http://www.w3.org/1999/xlink" viewBox="0 0 24 24" version="1.1">
<g>
<path style=" stroke:none;fill-rule:nonzero;fill:rgb(0.392157%,0.392157%,0.392157%);fill-opacity:1;" d="M 5.3125 7.769531 C 5.324219 7.789062 5.339844 7.808594 5.355469 7.828125 C 5.382812 7.863281 5.410156 7.898438 5.4375 7.933594 C 5.511719 8.03125 5.589844 8.132812 5.664062 8.230469 L 6.136719 8.847656 C 6.257812 9.011719 6.382812 9.171875 6.496094 9.335938 C 7.035156 10.117188 7.363281 11.027344 7.480469 11.96875 L 7.601562 11.953125 L 7.816406 11.925781 L 7.980469 11.90625 L 8.078125 11.898438 C 8.039062 11.59375 7.984375 11.296875 7.90625 11.003906 C 7.730469 10.335938 7.449219 9.703125 7.078125 9.125 C 6.882812 8.824219 6.664062 8.546875 6.449219 8.265625 C 6.386719 8.183594 6.324219 8.101562 6.261719 8.019531 C 6.238281 7.992188 6.21875 7.964844 6.195312 7.9375 C 6.183594 7.921875 6.167969 7.90625 6.160156 7.886719 C 6.175781 7.878906 6.191406 7.867188 6.207031 7.855469 C 6.234375 7.832031 6.261719 7.8125 6.289062 7.792969 C 6.371094 7.730469 6.453125 7.667969 6.539062 7.609375 C 6.816406 7.40625 7.085938 7.191406 7.367188 7 C 7.992188 6.566406 8.703125 6.257812 9.445312 6.097656 C 9.757812 6.027344 10.078125 5.988281 10.398438 5.964844 C 10.523438 5.957031 10.648438 5.957031 10.773438 5.960938 C 10.914062 5.960938 11.058594 5.960938 11.199219 5.960938 C 11.480469 5.964844 11.757812 5.960938 12.039062 5.960938 C 12.179688 5.964844 12.324219 5.960938 12.46875 5.964844 C 12.597656 5.964844 12.726562 5.964844 12.855469 5.960938 C 13.515625 5.929688 14.164062 5.804688 14.785156 5.582031 C 15.242188 5.421875 15.683594 5.203125 16.09375 4.941406 C 16.347656 4.777344 16.585938 4.59375 16.828125 4.414062 C 16.984375 4.296875 17.136719 4.179688 17.292969 4.0625 C 17.332031 4.035156 17.367188 4.007812 17.402344 3.980469 C 17.410156 3.972656 17.433594 3.949219 17.441406 3.957031 C 17.449219 3.960938 17.453125 3.972656 17.460938 3.980469 L 17.503906 4.039062 C 17.546875 4.097656 17.59375 4.160156 17.640625 4.222656 C 17.792969 4.425781 17.945312 4.628906 18.097656 4.835938 C 18.296875 5.097656 18.472656 5.371094 18.628906 5.660156 C 18.777344 5.929688 18.898438 6.214844 18.996094 6.503906 C 19.164062 6.980469 19.269531 7.484375 19.304688 7.988281 C 19.324219 8.292969 19.320312 8.597656 19.316406 8.902344 C 19.308594 9.21875 19.308594 9.535156 19.300781 9.851562 C 19.292969 10.179688 19.292969 10.511719 19.324219 10.839844 C 19.371094 11.335938 19.472656 11.828125 19.628906 12.304688 C 19.753906 12.675781 19.914062 13.039062 20.105469 13.382812 C 20.320312 13.78125 20.589844 14.140625 20.855469 14.503906 C 20.96875 14.660156 21.082031 14.820312 21.195312 14.976562 L 21.308594 15.132812 C 21.332031 15.164062 21.351562 15.195312 21.375 15.226562 C 21.335938 15.246094 21.296875 15.277344 21.261719 15.304688 L 21.035156 15.464844 L 20.367188 15.9375 C 20.117188 16.117188 19.867188 16.296875 19.601562 16.453125 C 19.164062 16.707031 18.691406 16.90625 18.203125 17.042969 C 18.03125 17.089844 17.859375 17.128906 17.6875 17.160156 C 17.636719 17.171875 17.585938 17.179688 17.535156 17.1875 C 17.511719 17.191406 17.484375 17.199219 17.460938 17.199219 C 17.460938 17.25 17.472656 17.308594 17.480469 17.359375 C 17.496094 17.453125 17.507812 17.542969 17.519531 17.636719 C 17.527344 17.6875 17.539062 17.742188 17.542969 17.792969 C 17.578125 17.792969 17.613281 17.785156 17.644531 17.777344 C 17.714844 17.765625 17.785156 17.753906 17.855469 17.742188 C 18.113281 17.695312 18.371094 17.625 18.621094 17.546875 C 19.0625 17.40625 19.488281 17.214844 19.890625 16.980469 C 20.179688 16.8125 20.445312 16.617188 20.71875 16.425781 C 21.070312 16.179688 21.421875 15.929688 21.773438 15.679688 C 21.921875 15.574219 22.066406 15.46875 22.21875 15.367188 C 22.210938 15.351562 22.199219 15.339844 22.191406 15.328125 C 22.175781 15.304688 22.15625 15.28125 22.140625 15.257812 C 22.085938 15.183594 22.03125 15.105469 21.976562 15.03125 C 21.796875 14.785156 21.617188 14.535156 21.4375 14.285156 C 21.203125 13.960938 20.957031 13.644531 20.75 13.304688 C 20.488281 12.867188 20.277344 12.394531 20.136719 11.90625 C 19.996094 11.429688 19.921875 10.945312 19.898438 10.453125 C 19.890625 10.246094 19.898438 10.035156 19.902344 9.828125 C 19.910156 9.511719 19.90625 9.195312 19.914062 8.878906 C 19.921875 8.527344 19.925781 8.171875 19.890625 7.816406 C 19.835938 7.222656 19.695312 6.636719 19.480469 6.078125 C 19.375 5.804688 19.25 5.542969 19.109375 5.285156 C 18.921875 4.933594 18.6875 4.617188 18.449219 4.296875 C 18.238281 4.015625 18.027344 3.734375 17.816406 3.453125 C 17.757812 3.371094 17.695312 3.292969 17.632812 3.210938 L 17.582031 3.140625 C 17.578125 3.132812 17.570312 3.117188 17.558594 3.113281 C 17.554688 3.109375 17.550781 3.113281 17.546875 3.117188 C 17.539062 3.125 17.527344 3.132812 17.519531 3.140625 C 17.476562 3.171875 17.4375 3.203125 17.394531 3.230469 C 17.222656 3.363281 17.046875 3.496094 16.875 3.625 C 16.679688 3.769531 16.484375 3.917969 16.289062 4.066406 C 16.128906 4.183594 15.96875 4.304688 15.800781 4.414062 C 15.4375 4.648438 15.050781 4.84375 14.644531 4.996094 C 14.105469 5.195312 13.53125 5.3125 12.957031 5.351562 C 12.703125 5.371094 12.453125 5.363281 12.199219 5.363281 C 11.832031 5.363281 11.464844 5.359375 11.097656 5.359375 C 10.871094 5.359375 10.644531 5.355469 10.421875 5.363281 C 10.074219 5.378906 9.730469 5.425781 9.390625 5.492188 C 8.675781 5.640625 7.988281 5.910156 7.367188 6.285156 C 7.074219 6.460938 6.804688 6.664062 6.527344 6.867188 C 6.238281 7.082031 5.949219 7.296875 5.65625 7.511719 C 5.542969 7.597656 5.429688 7.683594 5.3125 7.769531 M 11.714844 9.867188 C 11.703125 9.832031 11.671875 9.800781 11.652344 9.773438 C 11.59375 9.695312 11.523438 9.625 11.445312 9.566406 C 11.347656 9.492188 11.238281 9.433594 11.121094 9.398438 C 10.824219 9.300781 10.488281 9.339844 10.21875 9.507812 C 10.121094 9.566406 10.03125 9.644531 9.957031 9.734375 C 9.910156 9.792969 9.867188 9.859375 9.828125 9.921875 C 9.785156 9.988281 9.746094 10.054688 9.703125 10.121094 C 9.523438 10.414062 9.335938 10.703125 9.15625 10.992188 C 8.75 11.644531 8.335938 12.292969 7.929688 12.945312 C 7.824219 13.113281 7.71875 13.277344 7.617188 13.445312 C 7.503906 13.621094 7.394531 13.800781 7.296875 13.984375 C 7.105469 14.347656 6.957031 14.730469 6.851562 15.125 C 6.714844 15.636719 6.652344 16.167969 6.664062 16.695312 C 6.671875 16.90625 6.6875 17.113281 6.695312 17.324219 C 6.699219 17.382812 6.699219 17.4375 6.703125 17.496094 C 6.703125 17.515625 6.707031 17.535156 6.707031 17.550781 C 6.707031 17.5625 6.710938 17.570312 6.707031 17.582031 C 6.703125 17.589844 6.695312 17.601562 6.691406 17.609375 C 6.679688 17.628906 6.667969 17.648438 6.65625 17.667969 C 6.617188 17.726562 6.578125 17.789062 6.539062 17.851562 C 6.410156 18.050781 6.285156 18.25 6.160156 18.449219 C 6.121094 18.511719 6.082031 18.574219 6.042969 18.636719 C 6.027344 18.664062 6.003906 18.691406 5.992188 18.722656 L 6.113281 18.796875 L 6.359375 18.949219 L 6.457031 19.011719 L 6.503906 19.039062 C 6.691406 18.730469 6.886719 18.429688 7.078125 18.121094 C 7.132812 18.03125 7.191406 17.941406 7.246094 17.851562 C 7.261719 17.828125 7.277344 17.804688 7.292969 17.777344 C 7.300781 17.769531 7.3125 17.753906 7.316406 17.742188 C 7.320312 17.726562 7.316406 17.703125 7.3125 17.6875 C 7.3125 17.660156 7.3125 17.632812 7.308594 17.601562 C 7.304688 17.515625 7.304688 17.429688 7.296875 17.347656 C 7.289062 17.207031 7.285156 17.066406 7.277344 16.929688 C 7.269531 16.773438 7.261719 16.617188 7.265625 16.460938 C 7.285156 15.695312 7.472656 14.9375 7.832031 14.257812 C 7.929688 14.070312 8.042969 13.894531 8.15625 13.714844 C 8.308594 13.472656 8.457031 13.234375 8.609375 12.996094 C 9.097656 12.214844 9.589844 11.4375 10.078125 10.652344 C 10.15625 10.53125 10.230469 10.410156 10.308594 10.289062 C 10.355469 10.210938 10.402344 10.125 10.476562 10.0625 C 10.660156 9.90625 10.941406 9.90625 11.117188 10.074219 C 11.144531 10.101562 11.171875 10.128906 11.191406 10.164062 C 11.214844 10.199219 11.230469 10.238281 11.246094 10.28125 C 11.28125 10.398438 11.269531 10.53125 11.21875 10.640625 C 11.191406 10.707031 11.152344 10.761719 11.117188 10.820312 C 11.066406 10.902344 11.015625 10.980469 10.964844 11.0625 C 10.695312 11.488281 10.429688 11.917969 10.15625 12.347656 C 10.070312 12.484375 9.984375 12.621094 9.898438 12.757812 C 9.867188 12.808594 9.835938 12.855469 9.804688 12.90625 C 9.789062 12.929688 9.769531 12.957031 9.757812 12.984375 C 9.882812 13.066406 10.015625 13.140625 10.140625 13.222656 C 10.171875 13.246094 10.203125 13.261719 10.234375 13.285156 C 10.242188 13.289062 10.257812 13.304688 10.265625 13.300781 C 10.273438 13.296875 10.273438 13.289062 10.277344 13.285156 L 10.300781 13.246094 C 10.335938 13.195312 10.367188 13.144531 10.398438 13.09375 C 10.515625 12.90625 10.632812 12.710938 10.753906 12.523438 C 10.910156 12.28125 11.0625 12.039062 11.210938 11.796875 C 11.523438 11.304688 11.832031 10.808594 12.144531 10.316406 C 12.230469 10.175781 12.316406 10.039062 12.40625 9.898438 C 12.441406 9.84375 12.476562 9.785156 12.511719 9.730469 C 12.539062 9.683594 12.566406 9.636719 12.605469 9.597656 C 12.734375 9.464844 12.933594 9.421875 13.109375 9.476562 C 13.171875 9.5 13.226562 9.535156 13.273438 9.574219 C 13.3125 9.609375 13.347656 9.652344 13.375 9.699219 C 13.394531 9.738281 13.410156 9.777344 13.421875 9.820312 C 13.449219 9.925781 13.4375 10.035156 13.394531 10.132812 C 13.367188 10.195312 13.324219 10.257812 13.285156 10.316406 C 13.234375 10.390625 13.1875 10.46875 13.140625 10.546875 C 12.734375 11.1875 12.328125 11.832031 11.925781 12.480469 C 11.824219 12.640625 11.722656 12.808594 11.617188 12.96875 C 11.589844 13.011719 11.5625 13.054688 11.535156 13.097656 C 11.53125 13.109375 11.523438 13.121094 11.515625 13.128906 C 11.515625 13.132812 11.507812 13.140625 11.511719 13.144531 C 11.511719 13.152344 11.53125 13.160156 11.539062 13.164062 C 11.566406 13.183594 11.597656 13.203125 11.625 13.21875 C 11.714844 13.277344 11.804688 13.332031 11.894531 13.390625 C 11.921875 13.40625 11.949219 13.421875 11.976562 13.441406 C 11.988281 13.449219 12.003906 13.460938 12.015625 13.464844 C 12.0625 13.378906 12.117188 13.300781 12.167969 13.222656 C 12.261719 13.074219 12.355469 12.929688 12.445312 12.78125 C 12.742188 12.304688 13.042969 11.832031 13.339844 11.355469 C 13.550781 11.019531 13.765625 10.683594 13.976562 10.34375 C 14.046875 10.234375 14.117188 10.121094 14.1875 10.007812 C 14.230469 9.941406 14.269531 9.867188 14.316406 9.808594 C 14.355469 9.757812 14.402344 9.71875 14.457031 9.6875 C 14.625 9.589844 14.835938 9.605469 14.988281 9.722656 C 15.035156 9.753906 15.070312 9.796875 15.101562 9.84375 C 15.128906 9.882812 15.152344 9.929688 15.164062 9.980469 C 15.179688 10.039062 15.183594 10.105469 15.175781 10.167969 C 15.160156 10.300781 15.078125 10.40625 15.007812 10.519531 C 14.894531 10.699219 14.78125 10.878906 14.671875 11.058594 C 14.257812 11.714844 13.84375 12.371094 13.433594 13.027344 C 13.289062 13.257812 13.140625 13.488281 13 13.71875 C 12.964844 13.773438 12.929688 13.828125 12.894531 13.882812 L 12.871094 13.921875 C 12.871094 13.925781 12.863281 13.933594 12.867188 13.9375 C 12.871094 13.945312 12.890625 13.953125 12.898438 13.957031 C 12.925781 13.976562 12.953125 13.992188 12.980469 14.007812 C 13.070312 14.066406 13.164062 14.125 13.253906 14.179688 L 13.34375 14.238281 C 13.347656 14.242188 13.367188 14.253906 13.371094 14.25 C 13.378906 14.25 13.382812 14.242188 13.382812 14.238281 C 13.390625 14.222656 13.402344 14.210938 13.410156 14.195312 C 13.4375 14.148438 13.46875 14.101562 13.496094 14.054688 C 13.613281 13.875 13.726562 13.691406 13.839844 13.507812 C 14.257812 12.839844 14.679688 12.167969 15.101562 11.5 C 15.140625 11.441406 15.175781 11.378906 15.21875 11.324219 C 15.265625 11.261719 15.328125 11.214844 15.398438 11.179688 C 15.605469 11.070312 15.863281 11.132812 16 11.320312 C 16.035156 11.371094 16.058594 11.421875 16.074219 11.480469 C 16.105469 11.59375 16.09375 11.710938 16.042969 11.816406 C 16.011719 11.882812 15.964844 11.945312 15.925781 12.007812 C 15.777344 12.242188 15.628906 12.476562 15.484375 12.710938 C 14.878906 13.675781 14.277344 14.644531 13.664062 15.605469 C 13.582031 15.738281 13.496094 15.875 13.410156 16.011719 C 13.351562 16.105469 13.285156 16.199219 13.246094 16.304688 C 13.175781 16.5 13.183594 16.726562 13.273438 16.914062 C 13.332031 17.03125 13.414062 17.132812 13.515625 17.210938 C 13.585938 17.261719 13.660156 17.300781 13.742188 17.328125 C 13.988281 17.410156 14.269531 17.363281 14.472656 17.203125 C 14.535156 17.15625 14.585938 17.097656 14.640625 17.039062 C 14.695312 16.976562 14.746094 16.914062 14.800781 16.851562 C 14.9375 16.695312 15.078125 16.535156 15.214844 16.378906 C 15.308594 16.273438 15.394531 16.164062 15.515625 16.085938 C 15.785156 15.914062 16.144531 15.890625 16.429688 16.050781 C 16.488281 16.082031 16.542969 16.121094 16.59375 16.164062 C 16.621094 16.1875 16.644531 16.210938 16.652344 16.246094 C 16.667969 16.300781 16.632812 16.332031 16.597656 16.371094 C 16.539062 16.433594 16.476562 16.496094 16.417969 16.5625 C 16.332031 16.65625 16.238281 16.75 16.152344 16.84375 C 15.96875 17.042969 15.777344 17.238281 15.59375 17.4375 C 15.1875 17.875 14.769531 18.308594 14.363281 18.746094 C 14.265625 18.847656 14.167969 18.949219 14.070312 19.054688 C 13.984375 19.148438 13.894531 19.246094 13.796875 19.332031 C 13.578125 19.519531 13.324219 19.667969 13.054688 19.769531 C 12.8125 19.859375 12.558594 19.90625 12.300781 19.917969 C 12.117188 19.925781 11.933594 19.90625 11.753906 19.894531 C 11.601562 19.882812 11.449219 19.871094 11.296875 19.863281 C 11.257812 19.863281 11.222656 19.859375 11.183594 19.855469 C 11.171875 19.855469 11.148438 19.847656 11.136719 19.855469 C 11.128906 19.859375 11.125 19.875 11.117188 19.882812 C 11.105469 19.902344 11.09375 19.921875 11.082031 19.941406 C 11.035156 20.015625 10.988281 20.089844 10.941406 20.164062 C 10.765625 20.4375 10.601562 20.714844 10.425781 20.984375 C 10.371094 21.066406 10.320312 21.15625 10.265625 21.238281 C 10.253906 21.261719 10.238281 21.285156 10.222656 21.304688 C 10.222656 21.3125 10.210938 21.324219 10.210938 21.328125 C 10.214844 21.335938 10.234375 21.347656 10.238281 21.351562 C 10.269531 21.367188 10.296875 21.386719 10.328125 21.40625 C 10.421875 21.464844 10.511719 21.523438 10.605469 21.582031 C 10.632812 21.597656 10.660156 21.613281 10.683594 21.628906 C 10.691406 21.632812 10.707031 21.648438 10.714844 21.648438 C 10.722656 21.648438 10.726562 21.636719 10.730469 21.632812 C 10.742188 21.613281 10.75 21.597656 10.761719 21.582031 C 10.804688 21.511719 10.851562 21.441406 10.894531 21.371094 C 11.03125 21.148438 11.167969 20.921875 11.3125 20.703125 C 11.347656 20.648438 11.382812 20.59375 11.417969 20.539062 L 11.445312 20.496094 C 11.449219 20.488281 11.453125 20.480469 11.457031 20.476562 C 11.464844 20.472656 11.46875 20.476562 11.476562 20.476562 C 11.492188 20.476562 11.503906 20.480469 11.519531 20.480469 C 11.5625 20.484375 11.605469 20.484375 11.652344 20.488281 C 11.8125 20.5 11.976562 20.511719 12.140625 20.519531 C 12.234375 20.523438 12.332031 20.519531 12.429688 20.511719 C 12.710938 20.492188 12.992188 20.429688 13.257812 20.332031 C 13.601562 20.207031 13.921875 20.019531 14.195312 19.78125 C 14.320312 19.671875 14.433594 19.546875 14.546875 19.425781 C 14.652344 19.316406 14.757812 19.207031 14.859375 19.09375 C 15.285156 18.640625 15.714844 18.191406 16.136719 17.738281 C 16.367188 17.492188 16.601562 17.246094 16.828125 17 C 16.890625 16.9375 16.949219 16.875 17.007812 16.8125 C 17.058594 16.757812 17.105469 16.707031 17.148438 16.648438 C 17.28125 16.441406 17.289062 16.179688 17.1875 15.957031 C 17.109375 15.789062 16.945312 15.660156 16.792969 15.566406 C 16.320312 15.269531 15.699219 15.269531 15.226562 15.558594 C 15.132812 15.617188 15.039062 15.6875 14.960938 15.765625 C 14.894531 15.828125 14.835938 15.898438 14.777344 15.96875 C 14.695312 16.058594 14.617188 16.152344 14.535156 16.246094 C 14.4375 16.355469 14.34375 16.464844 14.246094 16.574219 C 14.21875 16.605469 14.191406 16.640625 14.160156 16.671875 C 14.140625 16.695312 14.121094 16.71875 14.09375 16.738281 C 13.992188 16.800781 13.855469 16.753906 13.8125 16.644531 C 13.792969 16.597656 13.796875 16.546875 13.816406 16.5 C 13.828125 16.46875 13.851562 16.441406 13.867188 16.410156 C 13.894531 16.371094 13.921875 16.328125 13.945312 16.289062 C 14.125 16 14.304688 15.710938 14.488281 15.425781 C 14.664062 15.15625 14.832031 14.878906 15.003906 14.605469 C 15.316406 14.109375 15.628906 13.613281 15.9375 13.117188 C 16.085938 12.882812 16.234375 12.644531 16.382812 12.410156 C 16.480469 12.253906 16.589844 12.101562 16.644531 11.921875 C 16.761719 11.535156 16.652344 11.101562 16.359375 10.820312 C 16.265625 10.734375 16.160156 10.660156 16.042969 10.609375 C 15.964844 10.574219 15.882812 10.550781 15.800781 10.539062 C 15.765625 10.53125 15.730469 10.527344 15.699219 10.527344 C 15.710938 10.488281 15.726562 10.453125 15.738281 10.414062 C 15.757812 10.339844 15.773438 10.257812 15.777344 10.175781 C 15.800781 9.855469 15.671875 9.523438 15.433594 9.308594 C 15.351562 9.234375 15.261719 9.171875 15.164062 9.125 C 14.847656 8.980469 14.484375 8.988281 14.175781 9.152344 C 14.097656 9.195312 14.023438 9.25 13.957031 9.3125 C 13.933594 9.332031 13.90625 9.359375 13.886719 9.386719 C 13.871094 9.367188 13.859375 9.34375 13.847656 9.324219 C 13.824219 9.292969 13.800781 9.261719 13.777344 9.230469 C 13.691406 9.128906 13.582031 9.042969 13.460938 8.976562 C 13.066406 8.769531 12.570312 8.828125 12.234375 9.121094 C 12.09375 9.246094 12 9.410156 11.902344 9.570312 C 11.859375 9.636719 11.820312 9.703125 11.777344 9.769531 C 11.757812 9.796875 11.730469 9.832031 11.714844 9.867188 M 1.515625 9.597656 L 1.515625 10.195312 L 5.503906 10.195312 L 5.503906 9.597656 L 1.515625 9.597656 M 3.960938 11.613281 L 3.960938 12.210938 L 6.445312 12.210938 L 6.445312 11.613281 Z M 3.960938 11.613281 "/>
</g>
</svg>
