<?xml version="1.0" encoding="UTF-8"?>
<svg xmlns="http://www.w3.org/2000/svg" xmlns:xlink="http://www.w3.org/1999/xlink" viewBox="0 0 24 24" version="1.1">
<g>
<path style=" stroke:none;fill-rule:nonzero;fill:rgb(0.392157%,0.392157%,0.392157%);fill-opacity:1;" d="M 17.652344 3.136719 C 17.617188 3.140625 17.585938 3.144531 17.554688 3.15625 C 17.445312 3.195312 17.363281 3.289062 17.335938 3.398438 C 17.324219 3.441406 17.324219 3.480469 17.320312 3.519531 C 17.316406 3.5625 17.308594 3.601562 17.292969 3.640625 C 17.25 3.773438 17.160156 3.890625 17.054688 3.988281 C 16.960938 4.078125 16.84375 4.15625 16.71875 4.1875 C 16.664062 4.203125 16.609375 4.199219 16.554688 4.207031 C 16.492188 4.21875 16.433594 4.242188 16.382812 4.285156 C 16.269531 4.375 16.226562 4.535156 16.273438 4.671875 C 16.308594 4.792969 16.414062 4.882812 16.535156 4.910156 C 16.570312 4.917969 16.605469 4.914062 16.640625 4.917969 C 16.671875 4.921875 16.707031 4.925781 16.738281 4.9375 C 16.882812 4.984375 17.007812 5.078125 17.109375 5.1875 C 17.1875 5.269531 17.257812 5.371094 17.292969 5.480469 C 17.308594 5.519531 17.316406 5.558594 17.320312 5.597656 C 17.328125 5.648438 17.324219 5.695312 17.339844 5.742188 C 17.390625 5.898438 17.550781 6.003906 17.714844 5.984375 C 17.863281 5.96875 17.984375 5.867188 18.023438 5.722656 C 18.035156 5.679688 18.035156 5.636719 18.039062 5.589844 C 18.042969 5.554688 18.050781 5.515625 18.066406 5.480469 C 18.109375 5.347656 18.199219 5.230469 18.296875 5.136719 C 18.394531 5.046875 18.515625 4.964844 18.644531 4.929688 C 18.695312 4.917969 18.746094 4.921875 18.800781 4.914062 C 18.859375 4.902344 18.917969 4.878906 18.96875 4.839844 C 19.082031 4.753906 19.132812 4.597656 19.089844 4.460938 C 19.054688 4.335938 18.953125 4.242188 18.828125 4.210938 C 18.792969 4.203125 18.757812 4.207031 18.722656 4.203125 C 18.6875 4.199219 18.652344 4.191406 18.617188 4.179688 C 18.480469 4.140625 18.355469 4.050781 18.261719 3.949219 C 18.175781 3.855469 18.105469 3.753906 18.0625 3.636719 C 18.050781 3.597656 18.039062 3.554688 18.035156 3.515625 C 18.03125 3.472656 18.035156 3.429688 18.019531 3.390625 C 17.976562 3.238281 17.816406 3.113281 17.652344 3.136719 Z M 17.652344 3.136719 "/>
<path style=" stroke:none;fill-rule:nonzero;fill:rgb(100%,100%,100%);fill-opacity:1;" d="M 17.675781 4.367188 C 17.65625 4.398438 17.628906 4.421875 17.605469 4.449219 C 17.566406 4.488281 17.527344 4.527344 17.488281 4.558594 C 17.507812 4.585938 17.539062 4.609375 17.566406 4.632812 C 17.605469 4.671875 17.640625 4.714844 17.679688 4.753906 C 17.699219 4.734375 17.71875 4.710938 17.734375 4.691406 C 17.761719 4.660156 17.792969 4.632812 17.820312 4.605469 C 17.832031 4.59375 17.84375 4.585938 17.859375 4.574219 C 17.859375 4.570312 17.871094 4.566406 17.871094 4.558594 C 17.871094 4.554688 17.863281 4.550781 17.859375 4.546875 C 17.847656 4.535156 17.835938 4.527344 17.824219 4.515625 C 17.789062 4.484375 17.753906 4.449219 17.722656 4.417969 C 17.710938 4.402344 17.695312 4.375 17.675781 4.367188 Z M 17.675781 4.367188 "/>
<path style=" stroke:none;fill-rule:nonzero;fill:rgb(0.392157%,0.392157%,0.392157%);fill-opacity:1;" d="M 2.953125 16.527344 C 2.644531 17.117188 2.492188 17.777344 2.445312 18.441406 C 2.417969 18.828125 2.425781 19.214844 2.425781 19.601562 L 2.425781 19.921875 C 2.425781 20.03125 2.425781 20.144531 2.445312 20.253906 C 2.515625 20.632812 2.769531 20.972656 3.117188 21.140625 C 3.25 21.207031 3.394531 21.25 3.539062 21.265625 C 3.675781 21.277344 3.816406 21.269531 3.953125 21.269531 L 11.769531 21.269531 C 11.824219 21.269531 11.882812 21.277344 11.941406 21.269531 C 12.019531 21.257812 12.09375 21.222656 12.152344 21.167969 C 12.285156 21.027344 12.289062 20.796875 12.148438 20.660156 C 12.113281 20.625 12.070312 20.597656 12.023438 20.582031 C 11.949219 20.550781 11.871094 20.558594 11.792969 20.558594 L 11.429688 20.558594 L 11.429688 17.996094 C 11.429688 17.941406 11.433594 17.886719 11.425781 17.832031 C 11.410156 17.738281 11.351562 17.648438 11.273438 17.59375 C 11.246094 17.578125 11.214844 17.5625 11.179688 17.550781 C 11.140625 17.539062 11.097656 17.535156 11.054688 17.535156 C 11.011719 17.539062 10.972656 17.546875 10.933594 17.5625 C 10.902344 17.574219 10.875 17.59375 10.851562 17.613281 C 10.78125 17.667969 10.734375 17.746094 10.722656 17.832031 C 10.714844 17.886719 10.71875 17.945312 10.71875 18 L 10.71875 20.558594 L 5.65625 20.558594 L 5.65625 18 C 5.65625 17.9375 5.65625 17.878906 5.648438 17.820312 C 5.628906 17.730469 5.574219 17.652344 5.5 17.597656 C 5.472656 17.578125 5.4375 17.5625 5.40625 17.550781 C 5.363281 17.539062 5.320312 17.535156 5.277344 17.535156 C 5.238281 17.539062 5.195312 17.546875 5.15625 17.5625 C 5.128906 17.574219 5.101562 17.59375 5.074219 17.613281 C 5.003906 17.667969 4.957031 17.75 4.945312 17.839844 C 4.9375 17.890625 4.941406 17.945312 4.941406 17.996094 L 4.941406 20.558594 L 3.898438 20.558594 C 3.796875 20.558594 3.691406 20.566406 3.59375 20.554688 C 3.480469 20.535156 3.378906 20.484375 3.300781 20.40625 C 3.210938 20.324219 3.15625 20.207031 3.140625 20.089844 C 3.132812 20.015625 3.140625 19.9375 3.140625 19.863281 L 3.140625 19.457031 C 3.140625 19.167969 3.128906 18.875 3.148438 18.589844 C 3.179688 18.136719 3.25 17.6875 3.40625 17.261719 C 3.472656 17.085938 3.550781 16.914062 3.644531 16.757812 C 3.667969 16.71875 3.691406 16.679688 3.714844 16.644531 C 3.726562 16.628906 3.738281 16.601562 3.753906 16.589844 C 3.757812 16.585938 3.765625 16.585938 3.773438 16.585938 L 3.820312 16.585938 C 3.882812 16.585938 3.945312 16.585938 4.003906 16.585938 C 4.207031 16.582031 4.417969 16.558594 4.617188 16.527344 C 5.273438 16.417969 5.90625 16.164062 6.40625 15.714844 C 6.515625 15.613281 6.621094 15.507812 6.714844 15.394531 C 6.738281 15.363281 6.765625 15.332031 6.789062 15.300781 C 6.800781 15.285156 6.816406 15.269531 6.824219 15.25 C 6.894531 15.292969 6.960938 15.34375 7.027344 15.390625 C 7.113281 15.445312 7.203125 15.492188 7.296875 15.535156 C 7.742188 15.742188 8.257812 15.785156 8.730469 15.660156 C 8.941406 15.601562 9.140625 15.515625 9.324219 15.398438 C 9.378906 15.367188 9.433594 15.328125 9.488281 15.289062 C 9.5 15.28125 9.511719 15.273438 9.527344 15.261719 C 9.53125 15.257812 9.539062 15.253906 9.542969 15.253906 C 9.550781 15.253906 9.554688 15.269531 9.558594 15.273438 C 9.574219 15.292969 9.589844 15.3125 9.605469 15.332031 C 9.660156 15.402344 9.714844 15.46875 9.777344 15.53125 C 9.832031 15.585938 9.878906 15.636719 9.933594 15.6875 C 10.046875 15.789062 10.160156 15.878906 10.285156 15.964844 C 10.328125 15.992188 10.371094 16.019531 10.414062 16.046875 C 10.449219 16.070312 10.488281 16.09375 10.53125 16.105469 C 10.664062 16.148438 10.8125 16.113281 10.90625 16.003906 C 10.933594 15.980469 10.949219 15.949219 10.964844 15.917969 C 10.980469 15.882812 10.992188 15.847656 10.996094 15.8125 C 11.007812 15.699219 10.964844 15.582031 10.882812 15.503906 C 10.847656 15.476562 10.8125 15.457031 10.777344 15.433594 C 10.730469 15.402344 10.683594 15.375 10.640625 15.34375 C 10.5 15.242188 10.367188 15.121094 10.25 14.992188 C 9.949219 14.652344 9.753906 14.230469 9.636719 13.792969 C 9.589844 13.625 9.5625 13.453125 9.53125 13.28125 C 9.554688 13.273438 9.582031 13.246094 9.601562 13.230469 C 9.65625 13.1875 9.707031 13.144531 9.757812 13.101562 C 9.949219 12.929688 10.121094 12.738281 10.277344 12.535156 C 10.722656 11.949219 11.035156 11.261719 11.222656 10.550781 C 11.28125 10.332031 11.324219 10.109375 11.351562 9.882812 C 11.363281 9.78125 11.378906 9.683594 11.378906 9.582031 C 11.515625 9.582031 11.664062 9.613281 11.792969 9.554688 C 12.011719 9.453125 12.058594 9.144531 11.886719 8.976562 C 11.835938 8.925781 11.769531 8.894531 11.695312 8.882812 C 11.621094 8.867188 11.539062 8.875 11.460938 8.875 C 11.207031 8.863281 10.957031 8.835938 10.710938 8.789062 C 10.21875 8.691406 9.738281 8.523438 9.292969 8.292969 C 9.085938 8.1875 8.882812 8.070312 8.691406 7.9375 C 8.496094 7.800781 8.304688 7.65625 8.125 7.496094 C 8.085938 7.460938 8.046875 7.421875 8.007812 7.382812 C 7.972656 7.347656 7.9375 7.3125 7.894531 7.289062 C 7.832031 7.257812 7.769531 7.246094 7.703125 7.246094 C 7.609375 7.25 7.519531 7.296875 7.457031 7.363281 C 7.414062 7.414062 7.378906 7.472656 7.335938 7.527344 C 7.171875 7.734375 6.984375 7.929688 6.78125 8.101562 C 6.410156 8.425781 5.976562 8.675781 5.5 8.800781 C 5.351562 8.839844 5.195312 8.859375 5.042969 8.871094 C 4.929688 8.878906 4.816406 8.863281 4.710938 8.925781 C 4.664062 8.957031 4.625 8.996094 4.59375 9.042969 C 4.5 9.191406 4.53125 9.390625 4.664062 9.503906 C 4.71875 9.550781 4.789062 9.582031 4.863281 9.585938 C 4.90625 9.589844 4.949219 9.585938 4.992188 9.585938 C 4.992188 9.683594 5.007812 9.78125 5.019531 9.875 C 5.042969 10.0625 5.078125 10.25 5.121094 10.4375 C 5.289062 11.144531 5.589844 11.835938 6.015625 12.425781 C 6.171875 12.644531 6.347656 12.859375 6.550781 13.042969 C 6.617188 13.105469 6.6875 13.164062 6.757812 13.21875 C 6.777344 13.234375 6.796875 13.25 6.816406 13.265625 C 6.824219 13.269531 6.835938 13.277344 6.839844 13.285156 C 6.839844 13.292969 6.835938 13.300781 6.835938 13.304688 C 6.835938 13.324219 6.832031 13.339844 6.828125 13.355469 C 6.820312 13.417969 6.808594 13.476562 6.792969 13.539062 C 6.742188 13.785156 6.671875 14.03125 6.574219 14.261719 C 6.480469 14.484375 6.359375 14.691406 6.210938 14.882812 C 6.121094 14.996094 6.019531 15.101562 5.910156 15.199219 C 5.417969 15.640625 4.753906 15.820312 4.109375 15.867188 C 3.921875 15.878906 3.734375 15.882812 3.546875 15.867188 C 3.492188 15.867188 3.433594 15.863281 3.378906 15.859375 C 3.34375 15.855469 3.304688 15.847656 3.269531 15.847656 C 3.390625 15.765625 3.507812 15.6875 3.625 15.597656 C 3.785156 15.46875 3.9375 15.328125 4.078125 15.175781 C 4.246094 14.996094 4.386719 14.796875 4.503906 14.582031 C 4.742188 14.140625 4.84375 13.632812 4.796875 13.132812 C 4.78125 12.988281 4.757812 12.84375 4.722656 12.699219 C 4.679688 12.519531 4.617188 12.339844 4.570312 12.160156 C 4.464844 11.769531 4.371094 11.371094 4.304688 10.96875 C 4.152344 10.074219 4.097656 9.152344 4.253906 8.257812 C 4.359375 7.65625 4.554688 7.070312 4.886719 6.558594 C 5.25 6.003906 5.796875 5.546875 6.453125 5.398438 C 6.59375 5.363281 6.730469 5.351562 6.875 5.347656 C 7.003906 5.34375 7.132812 5.355469 7.261719 5.382812 C 7.449219 5.417969 7.628906 5.484375 7.792969 5.582031 C 7.839844 5.605469 7.878906 5.632812 7.921875 5.660156 C 7.953125 5.679688 7.980469 5.703125 8.015625 5.722656 C 8.0625 5.75 8.117188 5.761719 8.171875 5.765625 C 8.234375 5.769531 8.296875 5.753906 8.351562 5.726562 C 8.394531 5.703125 8.429688 5.671875 8.472656 5.644531 C 8.542969 5.597656 8.613281 5.558594 8.6875 5.519531 C 8.929688 5.402344 9.195312 5.351562 9.464844 5.34375 C 9.671875 5.339844 9.886719 5.378906 10.085938 5.441406 C 10.210938 5.484375 10.335938 5.535156 10.449219 5.59375 C 11.214844 5.996094 11.703125 6.769531 11.953125 7.574219 C 11.992188 7.699219 12.027344 7.824219 12.054688 7.949219 C 12.222656 8.703125 12.238281 9.476562 12.164062 10.238281 C 12.144531 10.464844 12.109375 10.6875 12.074219 10.910156 C 12.058594 11.011719 12.035156 11.117188 12.019531 11.21875 C 11.992188 11.433594 12.179688 11.640625 12.398438 11.621094 C 12.523438 11.609375 12.640625 11.539062 12.695312 11.421875 C 12.714844 11.375 12.726562 11.328125 12.734375 11.28125 C 12.746094 11.222656 12.753906 11.164062 12.765625 11.105469 C 12.808594 10.871094 12.839844 10.636719 12.863281 10.40625 C 12.945312 9.65625 12.949219 8.890625 12.820312 8.148438 C 12.730469 7.621094 12.578125 7.101562 12.335938 6.621094 C 12.148438 6.242188 11.90625 5.886719 11.609375 5.582031 C 11.136719 5.097656 10.507812 4.746094 9.832031 4.65625 C 9.667969 4.636719 9.496094 4.625 9.332031 4.636719 C 9.0625 4.65625 8.796875 4.707031 8.546875 4.804688 C 8.453125 4.839844 8.367188 4.882812 8.28125 4.929688 C 8.257812 4.941406 8.234375 4.953125 8.210938 4.964844 C 8.207031 4.96875 8.191406 4.980469 8.183594 4.980469 C 8.171875 4.980469 8.152344 4.960938 8.140625 4.957031 C 8.105469 4.9375 8.066406 4.914062 8.03125 4.898438 C 7.914062 4.839844 7.792969 4.789062 7.671875 4.75 C 7.289062 4.632812 6.890625 4.605469 6.492188 4.664062 C 6.199219 4.707031 5.910156 4.800781 5.644531 4.933594 C 5.421875 5.046875 5.214844 5.183594 5.023438 5.339844 C 4.863281 5.476562 4.714844 5.621094 4.578125 5.78125 C 4.480469 5.898438 4.386719 6.023438 4.300781 6.152344 C 3.695312 7.0625 3.476562 8.167969 3.449219 9.246094 C 3.445312 9.511719 3.457031 9.777344 3.472656 10.042969 C 3.5 10.425781 3.550781 10.808594 3.617188 11.1875 C 3.691406 11.59375 3.785156 11.996094 3.894531 12.394531 C 3.945312 12.582031 4.011719 12.769531 4.050781 12.960938 C 4.101562 13.214844 4.109375 13.484375 4.058594 13.738281 C 4.039062 13.839844 4.007812 13.941406 3.96875 14.035156 C 3.75 14.601562 3.265625 15.019531 2.757812 15.324219 C 2.578125 15.433594 2.390625 15.527344 2.199219 15.605469 C 2.160156 15.621094 2.121094 15.636719 2.082031 15.652344 C 2.054688 15.664062 2.027344 15.671875 2 15.683594 C 1.917969 15.730469 1.855469 15.804688 1.828125 15.894531 C 1.773438 16.070312 1.863281 16.261719 2.035156 16.332031 C 2.113281 16.363281 2.203125 16.382812 2.285156 16.402344 C 2.441406 16.4375 2.601562 16.472656 2.757812 16.5 C 2.824219 16.507812 2.890625 16.511719 2.953125 16.527344 M 15.109375 5.039062 C 15.066406 5.042969 15.023438 5.050781 14.984375 5.070312 C 14.957031 5.082031 14.925781 5.101562 14.898438 5.125 C 14.84375 5.175781 14.804688 5.242188 14.785156 5.316406 C 14.777344 5.359375 14.78125 5.402344 14.777344 5.445312 C 14.769531 5.496094 14.761719 5.546875 14.746094 5.597656 C 14.699219 5.753906 14.613281 5.898438 14.511719 6.023438 C 14.347656 6.222656 14.128906 6.394531 13.878906 6.472656 C 13.828125 6.488281 13.773438 6.5 13.722656 6.503906 C 13.6875 6.507812 13.65625 6.507812 13.625 6.511719 C 13.574219 6.515625 13.53125 6.53125 13.488281 6.554688 C 13.34375 6.632812 13.277344 6.8125 13.324219 6.96875 C 13.332031 7.003906 13.351562 7.035156 13.371094 7.066406 C 13.417969 7.140625 13.5 7.191406 13.585938 7.210938 C 13.628906 7.222656 13.675781 7.21875 13.71875 7.222656 C 13.769531 7.226562 13.824219 7.238281 13.875 7.253906 C 14.085938 7.316406 14.28125 7.453125 14.429688 7.613281 C 14.5625 7.753906 14.671875 7.917969 14.738281 8.101562 C 14.757812 8.160156 14.769531 8.21875 14.777344 8.28125 C 14.78125 8.324219 14.777344 8.367188 14.785156 8.410156 C 14.808594 8.503906 14.863281 8.585938 14.945312 8.636719 C 14.976562 8.65625 15.011719 8.671875 15.046875 8.679688 C 15.089844 8.691406 15.132812 8.695312 15.175781 8.6875 C 15.214844 8.683594 15.25 8.671875 15.285156 8.65625 C 15.316406 8.644531 15.34375 8.628906 15.367188 8.605469 C 15.425781 8.554688 15.464844 8.488281 15.484375 8.410156 C 15.492188 8.371094 15.488281 8.332031 15.492188 8.292969 C 15.496094 8.238281 15.507812 8.1875 15.523438 8.132812 C 15.570312 7.972656 15.660156 7.828125 15.765625 7.699219 C 15.921875 7.503906 16.140625 7.332031 16.382812 7.257812 C 16.4375 7.242188 16.496094 7.226562 16.550781 7.222656 C 16.585938 7.21875 16.617188 7.222656 16.648438 7.21875 C 16.695312 7.214844 16.742188 7.195312 16.785156 7.171875 C 16.929688 7.089844 16.992188 6.910156 16.945312 6.753906 C 16.933594 6.71875 16.917969 6.6875 16.898438 6.660156 C 16.847656 6.589844 16.777344 6.539062 16.695312 6.519531 C 16.648438 6.507812 16.597656 6.507812 16.546875 6.503906 C 16.488281 6.5 16.429688 6.484375 16.375 6.46875 C 16.164062 6.402344 15.980469 6.261719 15.828125 6.101562 C 15.703125 5.972656 15.597656 5.816406 15.539062 5.644531 C 15.515625 5.582031 15.5 5.515625 15.492188 5.449219 C 15.488281 5.398438 15.492188 5.347656 15.476562 5.292969 C 15.453125 5.210938 15.402344 5.140625 15.332031 5.09375 C 15.300781 5.074219 15.269531 5.058594 15.234375 5.050781 C 15.195312 5.039062 15.148438 5.03125 15.109375 5.039062 M 19.117188 6.167969 C 19.078125 6.175781 19.035156 6.183594 18.996094 6.203125 C 18.960938 6.21875 18.933594 6.238281 18.902344 6.261719 C 18.84375 6.320312 18.804688 6.402344 18.792969 6.484375 C 18.789062 6.527344 18.789062 6.570312 18.785156 6.613281 C 18.78125 6.667969 18.773438 6.722656 18.757812 6.777344 C 18.710938 6.972656 18.621094 7.152344 18.507812 7.316406 C 18.265625 7.664062 17.910156 7.96875 17.5 8.097656 C 17.421875 8.125 17.335938 8.140625 17.253906 8.148438 C 17.183594 8.15625 17.113281 8.148438 17.046875 8.171875 C 16.867188 8.234375 16.765625 8.429688 16.820312 8.613281 C 16.828125 8.644531 16.84375 8.675781 16.863281 8.707031 C 16.917969 8.789062 17.003906 8.847656 17.105469 8.863281 C 17.152344 8.871094 17.207031 8.867188 17.257812 8.871094 C 17.328125 8.878906 17.398438 8.894531 17.46875 8.914062 C 17.789062 9.007812 18.078125 9.210938 18.300781 9.453125 C 18.5 9.664062 18.667969 9.921875 18.75 10.207031 C 18.769531 10.277344 18.785156 10.355469 18.789062 10.429688 C 18.792969 10.503906 18.789062 10.578125 18.824219 10.652344 C 18.890625 10.78125 19.035156 10.867188 19.183594 10.851562 C 19.222656 10.847656 19.261719 10.835938 19.300781 10.820312 C 19.328125 10.808594 19.351562 10.789062 19.375 10.769531 C 19.4375 10.71875 19.476562 10.648438 19.496094 10.574219 C 19.503906 10.527344 19.503906 10.476562 19.503906 10.429688 C 19.511719 10.371094 19.519531 10.308594 19.535156 10.253906 C 19.578125 10.0625 19.667969 9.878906 19.78125 9.71875 C 19.9375 9.488281 20.136719 9.289062 20.371094 9.132812 C 20.5 9.046875 20.636719 8.972656 20.785156 8.925781 C 20.867188 8.902344 20.953125 8.878906 21.039062 8.871094 C 21.113281 8.863281 21.183594 8.871094 21.253906 8.847656 C 21.429688 8.785156 21.527344 8.585938 21.476562 8.410156 C 21.464844 8.375 21.449219 8.34375 21.429688 8.316406 C 21.378906 8.234375 21.289062 8.175781 21.191406 8.160156 C 21.144531 8.152344 21.089844 8.15625 21.042969 8.148438 C 20.96875 8.144531 20.894531 8.128906 20.824219 8.109375 C 20.511719 8.015625 20.222656 7.816406 20.003906 7.578125 C 19.796875 7.359375 19.625 7.101562 19.542969 6.808594 C 19.523438 6.738281 19.511719 6.667969 19.503906 6.59375 C 19.503906 6.558594 19.503906 6.519531 19.5 6.484375 C 19.496094 6.441406 19.484375 6.402344 19.464844 6.367188 C 19.40625 6.242188 19.257812 6.152344 19.117188 6.167969 Z M 19.117188 6.167969 "/>
<path style=" stroke:none;fill-rule:nonzero;fill:rgb(100%,100%,100%);fill-opacity:1;" d="M 14.652344 6.863281 C 14.671875 6.875 14.691406 6.890625 14.707031 6.90625 C 14.75 6.9375 14.789062 6.972656 14.828125 7.007812 C 14.90625 7.078125 14.980469 7.152344 15.046875 7.234375 C 15.078125 7.269531 15.113281 7.304688 15.132812 7.34375 C 15.152344 7.328125 15.167969 7.304688 15.179688 7.285156 C 15.214844 7.246094 15.246094 7.207031 15.28125 7.167969 C 15.378906 7.054688 15.492188 6.953125 15.613281 6.863281 C 15.535156 6.808594 15.460938 6.738281 15.386719 6.671875 C 15.296875 6.585938 15.207031 6.488281 15.136719 6.382812 C 15.128906 6.386719 15.125 6.394531 15.121094 6.402344 C 15.109375 6.414062 15.101562 6.429688 15.089844 6.441406 C 15.058594 6.480469 15.023438 6.519531 14.988281 6.558594 C 14.925781 6.632812 14.855469 6.699219 14.78125 6.761719 C 14.753906 6.785156 14.726562 6.808594 14.699219 6.828125 C 14.683594 6.839844 14.664062 6.851562 14.652344 6.863281 M 19.144531 7.644531 C 19.09375 7.71875 19.042969 7.796875 18.984375 7.867188 C 18.875 8.007812 18.746094 8.140625 18.613281 8.257812 C 18.542969 8.320312 18.46875 8.378906 18.394531 8.433594 C 18.367188 8.449219 18.34375 8.46875 18.316406 8.484375 C 18.304688 8.492188 18.289062 8.5 18.277344 8.511719 C 18.617188 8.742188 18.929688 9.027344 19.144531 9.378906 L 19.148438 9.378906 C 19.269531 9.199219 19.402344 9.023438 19.5625 8.875 C 19.703125 8.738281 19.855469 8.621094 20.015625 8.511719 C 20.007812 8.5 19.992188 8.492188 19.976562 8.484375 C 19.953125 8.46875 19.929688 8.453125 19.902344 8.433594 C 19.828125 8.378906 19.753906 8.320312 19.679688 8.257812 C 19.546875 8.140625 19.421875 8.007812 19.308594 7.867188 C 19.25 7.796875 19.199219 7.71875 19.148438 7.644531 L 19.144531 7.644531 M 5.699219 9.484375 C 5.699219 9.585938 5.714844 9.6875 5.726562 9.785156 C 5.75 9.988281 5.792969 10.191406 5.84375 10.386719 C 6.03125 11.105469 6.371094 11.800781 6.871094 12.351562 C 7.195312 12.710938 7.636719 13.027344 8.136719 13.050781 C 8.648438 13.070312 9.109375 12.761719 9.449219 12.40625 C 9.679688 12.164062 9.875 11.890625 10.039062 11.601562 C 10.253906 11.210938 10.417969 10.800781 10.53125 10.371094 C 10.582031 10.1875 10.617188 10 10.640625 9.8125 C 10.65625 9.710938 10.667969 9.609375 10.667969 9.503906 C 10.449219 9.464844 10.234375 9.414062 10.019531 9.351562 C 9.535156 9.207031 9.066406 9 8.628906 8.742188 C 8.410156 8.609375 8.195312 8.46875 7.992188 8.3125 C 7.9375 8.265625 7.878906 8.222656 7.824219 8.175781 C 7.808594 8.164062 7.796875 8.152344 7.78125 8.140625 C 7.777344 8.136719 7.769531 8.128906 7.765625 8.128906 C 7.761719 8.128906 7.757812 8.136719 7.753906 8.136719 C 7.746094 8.148438 7.738281 8.15625 7.730469 8.164062 C 7.699219 8.199219 7.667969 8.234375 7.636719 8.269531 C 7.507812 8.402344 7.375 8.535156 7.234375 8.65625 C 6.90625 8.929688 6.546875 9.164062 6.152344 9.332031 C 6.054688 9.371094 5.957031 9.40625 5.855469 9.4375 C 5.808594 9.453125 5.753906 9.476562 5.699219 9.484375 Z M 5.699219 9.484375 "/>
<path style=" stroke:none;fill-rule:nonzero;fill:rgb(0.392157%,0.392157%,0.392157%);fill-opacity:1;" d="M 15.59375 10.765625 C 15.558594 10.769531 15.519531 10.769531 15.488281 10.769531 C 15.40625 10.777344 15.328125 10.78125 15.246094 10.789062 C 15.007812 10.816406 14.765625 10.867188 14.535156 10.941406 C 13.5 11.261719 12.632812 12.03125 12.179688 13.011719 C 12.050781 13.296875 11.953125 13.597656 11.898438 13.90625 C 11.878906 14.007812 11.863281 14.113281 11.851562 14.21875 C 11.847656 14.25 11.84375 14.28125 11.84375 14.3125 C 11.84375 14.328125 11.84375 14.347656 11.839844 14.363281 C 11.835938 14.371094 11.824219 14.375 11.816406 14.378906 C 11.792969 14.390625 11.773438 14.402344 11.753906 14.414062 C 11.683594 14.457031 11.617188 14.511719 11.5625 14.574219 C 11.449219 14.695312 11.375 14.851562 11.34375 15.015625 C 11.332031 15.097656 11.328125 15.183594 11.332031 15.265625 C 11.335938 15.496094 11.441406 15.722656 11.605469 15.878906 C 11.652344 15.925781 11.707031 15.964844 11.761719 15.996094 C 11.777344 16.007812 11.796875 16.015625 11.8125 16.027344 C 11.820312 16.027344 11.832031 16.03125 11.832031 16.039062 C 11.839844 16.050781 11.839844 16.070312 11.84375 16.085938 C 11.847656 16.117188 11.851562 16.152344 11.859375 16.183594 C 11.882812 16.308594 11.902344 16.429688 11.921875 16.550781 C 11.992188 16.9375 12.054688 17.324219 12.121094 17.710938 C 12.242188 18.433594 12.375 19.15625 12.492188 19.878906 C 12.515625 20 12.535156 20.125 12.558594 20.246094 C 12.578125 20.359375 12.59375 20.476562 12.632812 20.585938 C 12.6875 20.726562 12.78125 20.855469 12.890625 20.957031 C 13.0625 21.113281 13.277344 21.210938 13.503906 21.253906 C 13.628906 21.273438 13.753906 21.269531 13.878906 21.269531 L 17.371094 21.269531 C 17.53125 21.269531 17.691406 21.277344 17.847656 21.257812 C 18.203125 21.203125 18.546875 20.988281 18.707031 20.660156 C 18.777344 20.519531 18.796875 20.367188 18.824219 20.214844 C 18.855469 20.03125 18.886719 19.851562 18.917969 19.667969 C 19.027344 19.027344 19.140625 18.390625 19.246094 17.753906 C 19.3125 17.363281 19.378906 16.972656 19.445312 16.585938 C 19.46875 16.460938 19.488281 16.339844 19.511719 16.214844 C 19.515625 16.175781 19.523438 16.132812 19.53125 16.089844 C 19.535156 16.074219 19.535156 16.054688 19.539062 16.039062 C 19.542969 16.03125 19.558594 16.027344 19.566406 16.023438 C 19.585938 16.011719 19.609375 16 19.628906 15.988281 C 19.695312 15.945312 19.753906 15.898438 19.804688 15.839844 C 19.925781 15.714844 20.003906 15.550781 20.03125 15.378906 C 20.046875 15.296875 20.042969 15.214844 20.042969 15.132812 C 20.039062 14.910156 19.929688 14.6875 19.773438 14.53125 C 19.722656 14.484375 19.667969 14.441406 19.605469 14.40625 C 19.589844 14.394531 19.574219 14.386719 19.554688 14.378906 C 19.546875 14.375 19.539062 14.371094 19.535156 14.363281 C 19.53125 14.351562 19.535156 14.335938 19.53125 14.324219 C 19.527344 14.289062 19.527344 14.25 19.523438 14.214844 C 19.511719 14.109375 19.496094 14 19.476562 13.894531 C 19.414062 13.570312 19.308594 13.253906 19.164062 12.953125 C 18.671875 11.910156 17.695312 11.132812 16.578125 10.867188 C 16.347656 10.8125 16.109375 10.78125 15.871094 10.769531 C 15.808594 10.765625 15.742188 10.765625 15.679688 10.765625 C 15.652344 10.765625 15.621094 10.761719 15.59375 10.765625 Z M 15.59375 10.765625 "/>
<path style=" stroke:none;fill-rule:nonzero;fill:rgb(100%,100%,100%);fill-opacity:1;" d="M 12.5625 14.285156 L 18.8125 14.285156 C 18.8125 14.242188 18.804688 14.195312 18.796875 14.15625 C 18.785156 14.082031 18.773438 14.011719 18.757812 13.941406 C 18.691406 13.640625 18.578125 13.347656 18.425781 13.082031 C 18.277344 12.816406 18.089844 12.566406 17.867188 12.355469 C 17.648438 12.148438 17.398438 11.96875 17.128906 11.828125 C 16.542969 11.523438 15.871094 11.417969 15.214844 11.511719 C 14.90625 11.558594 14.613281 11.65625 14.328125 11.785156 C 14.050781 11.914062 13.789062 12.09375 13.566406 12.300781 C 13.285156 12.5625 13.046875 12.871094 12.875 13.21875 C 12.757812 13.453125 12.671875 13.699219 12.613281 13.957031 C 12.589844 14.0625 12.570312 14.175781 12.5625 14.285156 M 7.5 13.644531 C 7.5 13.671875 7.488281 13.703125 7.484375 13.730469 C 7.472656 13.78125 7.460938 13.828125 7.449219 13.878906 C 7.40625 14.042969 7.359375 14.203125 7.300781 14.359375 C 7.277344 14.425781 7.25 14.492188 7.222656 14.558594 C 7.214844 14.578125 7.207031 14.59375 7.199219 14.613281 C 7.195312 14.617188 7.1875 14.628906 7.191406 14.632812 C 7.195312 14.640625 7.210938 14.648438 7.214844 14.652344 C 7.242188 14.667969 7.265625 14.6875 7.289062 14.703125 C 7.386719 14.773438 7.488281 14.839844 7.597656 14.890625 C 7.964844 15.054688 8.390625 15.058594 8.761719 14.894531 C 8.914062 14.828125 9.042969 14.726562 9.179688 14.632812 C 9.179688 14.621094 9.167969 14.605469 9.164062 14.59375 C 9.152344 14.566406 9.140625 14.542969 9.128906 14.515625 C 9.097656 14.433594 9.066406 14.351562 9.035156 14.269531 C 8.988281 14.128906 8.949219 13.988281 8.914062 13.847656 C 8.898438 13.78125 8.886719 13.710938 8.867188 13.644531 C 8.847656 13.644531 8.824219 13.65625 8.804688 13.664062 C 8.753906 13.679688 8.707031 13.695312 8.65625 13.707031 C 8.519531 13.738281 8.378906 13.757812 8.238281 13.761719 C 8.074219 13.765625 7.90625 13.75 7.742188 13.710938 C 7.6875 13.699219 7.632812 13.683594 7.578125 13.667969 C 7.554688 13.660156 7.527344 13.648438 7.5 13.644531 M 12.199219 14.996094 C 12.128906 15.007812 12.070312 15.054688 12.050781 15.121094 C 12.042969 15.148438 12.042969 15.175781 12.042969 15.207031 C 12.042969 15.226562 12.042969 15.25 12.046875 15.273438 C 12.0625 15.335938 12.109375 15.386719 12.171875 15.40625 C 12.199219 15.410156 12.226562 15.410156 12.25 15.410156 L 19.085938 15.410156 C 19.167969 15.410156 19.242188 15.410156 19.296875 15.339844 C 19.324219 15.300781 19.332031 15.257812 19.332031 15.210938 C 19.332031 15.179688 19.332031 15.148438 19.324219 15.121094 C 19.304688 15.054688 19.242188 15.003906 19.175781 14.996094 C 19.121094 14.992188 19.0625 14.996094 19.011719 14.996094 L 12.265625 14.996094 C 12.242188 14.996094 12.21875 14.996094 12.199219 14.996094 M 12.570312 16.121094 C 12.582031 16.15625 12.585938 16.195312 12.589844 16.230469 C 12.605469 16.304688 12.617188 16.382812 12.628906 16.457031 C 12.667969 16.6875 12.707031 16.917969 12.746094 17.144531 C 12.867188 17.835938 12.984375 18.523438 13.101562 19.210938 C 13.152344 19.488281 13.195312 19.761719 13.246094 20.039062 C 13.253906 20.101562 13.265625 20.164062 13.277344 20.222656 C 13.289062 20.292969 13.300781 20.351562 13.347656 20.40625 C 13.367188 20.429688 13.390625 20.449219 13.414062 20.464844 C 13.574219 20.578125 13.773438 20.558594 13.957031 20.558594 L 17.527344 20.558594 C 17.582031 20.558594 17.636719 20.5625 17.6875 20.558594 C 17.785156 20.546875 17.882812 20.519531 17.964844 20.460938 C 18.007812 20.429688 18.046875 20.390625 18.070312 20.339844 C 18.085938 20.304688 18.089844 20.269531 18.097656 20.230469 C 18.105469 20.1875 18.113281 20.140625 18.121094 20.097656 C 18.160156 19.847656 18.207031 19.597656 18.25 19.34375 C 18.371094 18.640625 18.488281 17.9375 18.613281 17.234375 C 18.652344 16.992188 18.695312 16.746094 18.738281 16.503906 C 18.757812 16.378906 18.785156 16.25 18.800781 16.121094 Z M 12.570312 16.121094 "/>
<path style=" stroke:none;fill-rule:nonzero;fill:rgb(0.392157%,0.392157%,0.392157%);fill-opacity:1;" d="M 17.890625 16.535156 C 17.851562 16.542969 17.8125 16.546875 17.777344 16.5625 C 17.679688 16.609375 17.605469 16.691406 17.574219 16.792969 C 17.558594 16.851562 17.558594 16.914062 17.550781 16.976562 C 17.535156 17.078125 17.523438 17.175781 17.515625 17.277344 C 17.457031 17.824219 17.382812 18.371094 17.324219 18.917969 C 17.304688 19.085938 17.28125 19.253906 17.265625 19.421875 C 17.253906 19.503906 17.242188 19.585938 17.234375 19.667969 C 17.226562 19.804688 17.3125 19.9375 17.433594 20 C 17.492188 20.027344 17.5625 20.039062 17.628906 20.035156 C 17.667969 20.03125 17.703125 20.019531 17.738281 20.003906 C 17.828125 19.964844 17.902344 19.886719 17.933594 19.789062 C 17.949219 19.730469 17.953125 19.664062 17.960938 19.601562 C 17.96875 19.515625 17.980469 19.433594 17.992188 19.347656 C 18.015625 19.152344 18.039062 18.953125 18.058594 18.757812 C 18.085938 18.511719 18.121094 18.265625 18.144531 18.019531 C 18.179688 17.71875 18.214844 17.414062 18.25 17.113281 C 18.257812 17.070312 18.261719 17.027344 18.265625 16.984375 C 18.273438 16.933594 18.277344 16.878906 18.269531 16.828125 C 18.238281 16.65625 18.070312 16.511719 17.890625 16.535156 Z M 17.890625 16.535156 "/>
</g>
</svg>
