<?xml version="1.0" encoding="UTF-8"?>
<svg xmlns="http://www.w3.org/2000/svg" xmlns:xlink="http://www.w3.org/1999/xlink" viewBox="0 0 24 24" version="1.1">
<g>
<path style=" stroke:none;fill-rule:nonzero;fill:rgb(0%,0%,0%);fill-opacity:1;" d="M 7.152344 4.972656 C 7.132812 4.972656 7.097656 4.972656 7.066406 4.972656 C 6.238281 4.996094 5.617188 5.144531 5.152344 5.421875 C 4.875 5.589844 4.648438 5.808594 4.476562 6.074219 C 4.152344 6.585938 4.019531 7.273438 4.078125 8.183594 C 4.105469 8.605469 4.171875 9.085938 4.28125 9.621094 C 4.296875 9.703125 4.324219 9.828125 4.328125 9.847656 C 4.347656 9.917969 4.382812 9.984375 4.429688 10.039062 C 4.445312 10.058594 4.480469 10.089844 4.496094 10.105469 C 4.507812 10.113281 4.550781 10.144531 4.554688 10.144531 C 4.554688 10.144531 4.5625 10.164062 4.570312 10.1875 C 4.695312 10.566406 4.875 10.9375 5.089844 11.269531 C 5.21875 11.46875 5.359375 11.644531 5.515625 11.8125 C 5.550781 11.851562 5.65625 11.957031 5.691406 11.992188 C 5.761719 12.058594 5.832031 12.117188 5.898438 12.167969 L 5.925781 12.1875 L 5.921875 12.222656 C 5.914062 12.433594 5.890625 12.652344 5.859375 12.820312 C 5.832031 12.960938 5.796875 13.085938 5.761719 13.15625 L 5.757812 13.167969 L 5.738281 13.171875 C 5.679688 13.183594 5.570312 13.210938 5.5 13.226562 C 5.082031 13.335938 4.714844 13.46875 4.394531 13.628906 C 4.074219 13.785156 3.796875 13.96875 3.5625 14.179688 C 3.476562 14.253906 3.386719 14.347656 3.308594 14.433594 C 3.078125 14.691406 2.894531 14.996094 2.757812 15.332031 C 2.675781 15.539062 2.609375 15.761719 2.5625 16 C 2.507812 16.261719 2.476562 16.53125 2.464844 16.839844 C 2.460938 16.941406 2.460938 17.019531 2.460938 17.503906 C 2.464844 18.042969 2.460938 18.007812 2.472656 18.070312 C 2.515625 18.425781 2.730469 18.734375 3.050781 18.898438 C 3.183594 18.96875 3.335938 19.007812 3.488281 19.015625 C 3.507812 19.019531 4.066406 19.019531 5.527344 19.019531 L 7.542969 19.019531 L 7.558594 19.015625 C 7.59375 19.007812 7.621094 19 7.648438 18.988281 C 7.78125 18.925781 7.867188 18.785156 7.855469 18.640625 C 7.851562 18.566406 7.828125 18.503906 7.78125 18.445312 C 7.769531 18.429688 7.742188 18.398438 7.726562 18.386719 C 7.671875 18.34375 7.609375 18.316406 7.539062 18.308594 C 7.53125 18.308594 7.136719 18.308594 6.390625 18.308594 L 5.25 18.308594 L 5.25 17.226562 C 5.25 16.476562 5.25 16.136719 5.25 16.128906 C 5.234375 16.003906 5.15625 15.894531 5.042969 15.84375 C 4.96875 15.808594 4.886719 15.800781 4.808594 15.820312 C 4.714844 15.84375 4.636719 15.90625 4.589844 15.984375 C 4.566406 16.023438 4.550781 16.058594 4.542969 16.105469 L 4.539062 16.125 L 4.539062 18.308594 L 4.042969 18.308594 C 3.722656 18.308594 3.539062 18.308594 3.527344 18.304688 C 3.429688 18.300781 3.347656 18.261719 3.28125 18.191406 C 3.222656 18.132812 3.191406 18.0625 3.175781 17.976562 C 3.175781 17.960938 3.175781 17.925781 3.175781 17.550781 C 3.171875 17.070312 3.175781 16.941406 3.179688 16.8125 C 3.214844 16.125 3.367188 15.585938 3.648438 15.160156 C 3.839844 14.871094 4.09375 14.628906 4.425781 14.425781 C 4.785156 14.199219 5.253906 14.019531 5.808594 13.886719 C 5.84375 13.878906 5.871094 13.871094 5.875 13.871094 C 5.878906 13.871094 5.878906 13.871094 5.882812 13.871094 C 5.882812 13.871094 6.152344 14.058594 6.480469 14.285156 C 6.808594 14.511719 7.082031 14.703125 7.085938 14.707031 C 7.109375 14.722656 7.136719 14.734375 7.164062 14.746094 C 7.265625 14.777344 7.375 14.765625 7.464844 14.710938 C 7.46875 14.707031 7.746094 14.519531 8.074219 14.289062 C 8.40625 14.058594 8.675781 13.871094 8.675781 13.871094 C 8.679688 13.867188 8.839844 13.90625 8.953125 13.9375 C 9.363281 14.050781 9.71875 14.1875 10.011719 14.351562 C 10.417969 14.578125 10.726562 14.863281 10.941406 15.207031 C 10.964844 15.246094 10.976562 15.261719 10.992188 15.277344 C 11.078125 15.382812 11.21875 15.425781 11.351562 15.390625 C 11.414062 15.375 11.472656 15.339844 11.515625 15.296875 C 11.554688 15.257812 11.582031 15.210938 11.601562 15.160156 C 11.613281 15.121094 11.617188 15.089844 11.617188 15.046875 C 11.617188 15.011719 11.617188 14.992188 11.609375 14.964844 C 11.597656 14.917969 11.582031 14.886719 11.542969 14.820312 C 11.359375 14.53125 11.128906 14.277344 10.855469 14.058594 C 10.355469 13.664062 9.699219 13.375 8.851562 13.175781 L 8.800781 13.167969 L 8.796875 13.152344 C 8.78125 13.121094 8.761719 13.066406 8.746094 13.015625 C 8.691406 12.824219 8.652344 12.5625 8.636719 12.242188 C 8.636719 12.21875 8.632812 12.199219 8.632812 12.195312 L 8.632812 12.1875 L 8.644531 12.179688 C 8.757812 12.09375 8.859375 12.003906 8.96875 11.890625 C 9.035156 11.824219 9.085938 11.769531 9.144531 11.703125 C 9.480469 11.3125 9.757812 10.828125 9.945312 10.308594 C 9.960938 10.265625 9.996094 10.167969 9.996094 10.164062 C 9.996094 10.164062 10.003906 10.160156 10.011719 10.15625 C 10.046875 10.132812 10.074219 10.109375 10.105469 10.082031 C 10.160156 10.023438 10.203125 9.953125 10.226562 9.875 C 10.234375 9.847656 10.261719 9.703125 10.296875 9.542969 C 10.515625 8.441406 10.550781 7.582031 10.410156 6.917969 C 10.296875 6.390625 10.070312 5.972656 9.722656 5.664062 C 9.417969 5.390625 9.023438 5.203125 8.523438 5.089844 C 8.222656 5.023438 7.871094 4.984375 7.480469 4.972656 C 7.453125 4.972656 7.410156 4.972656 7.390625 4.972656 C 7.34375 4.96875 7.195312 4.96875 7.152344 4.972656 Z M 7.378906 5.683594 C 7.621094 5.6875 7.820312 5.703125 8.015625 5.726562 C 8.542969 5.792969 8.929688 5.933594 9.203125 6.15625 C 9.269531 6.207031 9.335938 6.277344 9.390625 6.34375 C 9.460938 6.429688 9.53125 6.542969 9.582031 6.652344 C 9.695312 6.90625 9.757812 7.210938 9.777344 7.589844 C 9.78125 7.6875 9.78125 7.882812 9.777344 7.980469 C 9.773438 8.152344 9.761719 8.292969 9.746094 8.457031 C 9.738281 8.511719 9.726562 8.609375 9.726562 8.617188 C 9.726562 8.621094 9.722656 8.609375 9.707031 8.535156 C 9.660156 8.304688 9.636719 8.164062 9.628906 8.136719 C 9.617188 8.042969 9.589844 7.964844 9.539062 7.890625 C 9.515625 7.855469 9.492188 7.832031 9.460938 7.796875 C 9.359375 7.699219 9.226562 7.640625 9.078125 7.628906 C 9.070312 7.628906 9.039062 7.625 9.011719 7.625 C 8.9375 7.625 8.882812 7.621094 8.808594 7.609375 C 8.472656 7.566406 8.082031 7.445312 7.671875 7.257812 C 7.601562 7.222656 7.492188 7.167969 7.441406 7.140625 C 7.382812 7.109375 7.363281 7.097656 7.328125 7.089844 C 7.289062 7.078125 7.25 7.074219 7.199219 7.074219 C 7.152344 7.074219 7.121094 7.078125 7.078125 7.089844 C 6.941406 7.117188 6.816406 7.207031 6.746094 7.324219 C 6.703125 7.390625 6.679688 7.464844 6.671875 7.542969 C 6.667969 7.570312 6.671875 7.632812 6.675781 7.660156 C 6.683594 7.707031 6.683594 7.714844 6.71875 7.804688 L 6.722656 7.816406 L 6.714844 7.8125 C 6.683594 7.796875 5.957031 7.410156 5.941406 7.40625 C 5.789062 7.335938 5.617188 7.320312 5.453125 7.359375 C 5.320312 7.394531 5.195312 7.464844 5.105469 7.5625 C 5.0625 7.609375 5.035156 7.65625 5.019531 7.710938 C 5.015625 7.722656 4.972656 7.917969 4.921875 8.152344 C 4.871094 8.386719 4.832031 8.578125 4.828125 8.578125 C 4.828125 8.578125 4.828125 8.558594 4.824219 8.53125 C 4.800781 8.324219 4.789062 8.15625 4.78125 7.953125 C 4.777344 7.894531 4.777344 7.679688 4.78125 7.621094 C 4.785156 7.449219 4.800781 7.316406 4.820312 7.179688 C 4.882812 6.804688 5.003906 6.519531 5.199219 6.300781 C 5.21875 6.273438 5.289062 6.203125 5.316406 6.183594 C 5.410156 6.101562 5.511719 6.035156 5.632812 5.972656 C 5.6875 5.945312 5.71875 5.929688 5.773438 5.910156 C 6.054688 5.796875 6.402344 5.726562 6.835938 5.699219 C 7.019531 5.6875 7.222656 5.679688 7.378906 5.683594 Z M 7.59375 8 C 8.066406 8.199219 8.519531 8.3125 8.910156 8.335938 C 8.925781 8.335938 8.941406 8.335938 8.941406 8.335938 C 8.941406 8.339844 8.945312 8.351562 8.949219 8.363281 C 9.074219 9.015625 9.179688 9.511719 9.261719 9.824219 C 9.28125 9.890625 9.285156 9.910156 9.304688 9.945312 L 9.3125 9.964844 L 9.308594 9.976562 C 9.289062 10.03125 9.257812 10.117188 9.230469 10.1875 C 8.976562 10.816406 8.582031 11.351562 8.140625 11.667969 C 7.941406 11.808594 7.734375 11.902344 7.53125 11.945312 C 7.449219 11.960938 7.382812 11.96875 7.296875 11.96875 C 7.242188 11.96875 7.207031 11.96875 7.160156 11.964844 C 6.824219 11.929688 6.492188 11.761719 6.171875 11.464844 C 6.140625 11.433594 6.0625 11.355469 6.03125 11.320312 C 5.863281 11.136719 5.707031 10.925781 5.570312 10.691406 C 5.464844 10.503906 5.371094 10.304688 5.292969 10.101562 C 5.277344 10.058594 5.257812 9.996094 5.246094 9.96875 L 5.242188 9.953125 L 5.253906 9.933594 C 5.269531 9.902344 5.277344 9.871094 5.289062 9.835938 C 5.289062 9.824219 5.378906 9.421875 5.480469 8.941406 C 5.585938 8.460938 5.667969 8.070312 5.667969 8.070312 C 5.671875 8.066406 6.019531 8.253906 6.449219 8.476562 C 6.875 8.703125 7.230469 8.890625 7.242188 8.894531 C 7.285156 8.914062 7.332031 8.925781 7.382812 8.925781 C 7.414062 8.925781 7.4375 8.921875 7.460938 8.917969 C 7.550781 8.898438 7.632812 8.84375 7.683594 8.765625 C 7.703125 8.734375 7.722656 8.6875 7.730469 8.648438 C 7.746094 8.589844 7.742188 8.523438 7.726562 8.46875 C 7.722656 8.460938 7.683594 8.347656 7.632812 8.21875 C 7.585938 8.089844 7.546875 7.980469 7.546875 7.980469 C 7.546875 7.980469 7.546875 7.980469 7.550781 7.984375 C 7.554688 7.984375 7.574219 7.992188 7.59375 8 Z M 6.652344 12.582031 C 6.835938 12.640625 7.011719 12.671875 7.207031 12.679688 C 7.246094 12.683594 7.351562 12.683594 7.390625 12.679688 C 7.519531 12.671875 7.636719 12.652344 7.757812 12.625 C 7.8125 12.609375 7.886719 12.585938 7.929688 12.574219 C 7.9375 12.570312 7.945312 12.566406 7.945312 12.566406 C 7.945312 12.566406 7.949219 12.585938 7.949219 12.609375 C 7.984375 12.921875 8.039062 13.175781 8.113281 13.363281 L 8.121094 13.386719 L 8.113281 13.394531 C 8.070312 13.425781 7.28125 13.972656 7.277344 13.972656 C 7.277344 13.972656 6.4375 13.390625 6.4375 13.386719 C 6.4375 13.386719 6.445312 13.375 6.449219 13.359375 C 6.46875 13.308594 6.496094 13.226562 6.515625 13.15625 C 6.546875 13.03125 6.574219 12.878906 6.59375 12.714844 C 6.601562 12.671875 6.613281 12.578125 6.613281 12.570312 C 6.613281 12.570312 6.613281 12.566406 6.613281 12.566406 C 6.613281 12.566406 6.632812 12.574219 6.652344 12.582031 Z M 6.652344 12.582031 "/>
<path style=" stroke:none;fill-rule:nonzero;fill:rgb(0%,0%,0%);fill-opacity:1;" d="M 12.886719 6.960938 C 12.667969 6.96875 12.457031 7.0625 12.304688 7.21875 C 12.148438 7.375 12.058594 7.574219 12.042969 7.796875 C 12.042969 7.8125 12.042969 8.890625 12.042969 11.238281 L 12.042969 14.65625 L 12.023438 14.667969 C 11.875 14.742188 11.769531 14.882812 11.742188 15.042969 C 11.734375 15.085938 11.734375 15.078125 11.734375 15.304688 L 11.734375 15.515625 L 10.550781 15.515625 C 9.792969 15.515625 9.355469 15.515625 9.339844 15.515625 C 9.089844 15.527344 8.867188 15.648438 8.71875 15.84375 C 8.636719 15.953125 8.582031 16.082031 8.5625 16.214844 C 8.554688 16.269531 8.554688 16.253906 8.554688 16.570312 C 8.554688 16.773438 8.554688 16.867188 8.558594 16.878906 C 8.5625 16.933594 8.578125 16.980469 8.601562 17.027344 L 8.613281 17.039062 L 8.359375 17.796875 C 8.222656 18.210938 8.105469 18.558594 8.101562 18.566406 C 8.074219 18.667969 8.09375 18.773438 8.148438 18.859375 C 8.207031 18.945312 8.300781 19.003906 8.410156 19.015625 C 8.417969 19.019531 9.9375 19.019531 12.929688 19.019531 C 16.976562 19.019531 17.441406 19.019531 17.457031 19.015625 C 17.550781 19.003906 17.632812 18.960938 17.691406 18.890625 C 17.726562 18.84375 17.753906 18.789062 17.765625 18.734375 C 17.769531 18.703125 17.769531 18.691406 17.769531 18.65625 C 17.769531 18.621094 17.765625 18.601562 17.757812 18.574219 C 17.757812 18.566406 17.640625 18.21875 17.503906 17.800781 C 17.363281 17.382812 17.25 17.042969 17.25 17.042969 C 17.25 17.039062 17.253906 17.035156 17.257812 17.027344 C 17.277344 16.992188 17.292969 16.945312 17.300781 16.898438 L 17.304688 16.878906 L 17.304688 16.585938 C 17.304688 16.265625 17.304688 16.277344 17.296875 16.21875 C 17.277344 16.085938 17.226562 15.957031 17.144531 15.847656 C 17.097656 15.785156 17.035156 15.722656 16.976562 15.675781 C 16.933594 15.648438 16.898438 15.625 16.851562 15.601562 C 16.746094 15.550781 16.640625 15.523438 16.523438 15.515625 C 16.503906 15.515625 16.097656 15.515625 15.308594 15.515625 L 14.128906 15.515625 L 14.128906 15.308594 C 14.128906 15.160156 14.125 15.09375 14.125 15.085938 C 14.113281 14.996094 14.089844 14.921875 14.042969 14.851562 C 13.992188 14.773438 13.917969 14.707031 13.835938 14.667969 L 13.820312 14.660156 L 13.820312 11.25 C 13.820312 9.125 13.816406 7.832031 13.816406 7.8125 C 13.816406 7.746094 13.808594 7.691406 13.792969 7.632812 C 13.734375 7.398438 13.582031 7.195312 13.367188 7.074219 C 13.222656 6.992188 13.054688 6.949219 12.886719 6.960938 Z M 12.964844 7.675781 C 13 7.679688 13.027344 7.699219 13.054688 7.722656 C 13.078125 7.746094 13.09375 7.773438 13.101562 7.8125 L 13.105469 7.824219 L 13.105469 14.613281 L 12.753906 14.613281 L 12.757812 11.214844 C 12.757812 8.003906 12.757812 7.820312 12.757812 7.808594 C 12.769531 7.773438 12.78125 7.746094 12.808594 7.722656 C 12.835938 7.695312 12.867188 7.679688 12.902344 7.671875 C 12.917969 7.671875 12.949219 7.671875 12.964844 7.675781 Z M 13.414062 15.417969 L 13.414062 15.515625 L 12.445312 15.515625 L 12.445312 15.324219 L 13.414062 15.324219 Z M 16.511719 16.230469 C 16.546875 16.242188 16.574219 16.265625 16.585938 16.304688 L 16.59375 16.316406 L 16.59375 16.492188 L 9.269531 16.492188 L 9.269531 16.40625 C 9.269531 16.3125 9.269531 16.3125 9.28125 16.289062 C 9.296875 16.257812 9.328125 16.234375 9.363281 16.230469 C 9.363281 16.226562 10.972656 16.226562 12.933594 16.226562 C 16.347656 16.226562 16.503906 16.226562 16.511719 16.230469 Z M 9.402344 17.207031 C 9.402344 17.207031 9.328125 17.453125 9.242188 17.75 C 9.152344 18.050781 9.082031 18.296875 9.078125 18.300781 L 9.078125 18.308594 L 8.941406 18.308594 L 9.125 17.757812 C 9.226562 17.453125 9.308594 17.207031 9.308594 17.207031 C 9.308594 17.203125 9.320312 17.203125 9.355469 17.203125 L 9.402344 17.203125 Z M 10.347656 17.207031 C 10.347656 17.207031 10.285156 17.453125 10.207031 17.757812 L 10.0625 18.308594 L 9.820312 18.308594 L 9.820312 18.304688 C 9.820312 18.300781 9.894531 18.058594 9.984375 17.761719 C 10.070312 17.460938 10.144531 17.214844 10.144531 17.210938 L 10.148438 17.203125 L 10.25 17.203125 C 10.328125 17.203125 10.351562 17.203125 10.347656 17.207031 Z M 11.242188 17.207031 C 11.242188 17.207031 11.195312 17.457031 11.140625 17.757812 C 11.085938 18.058594 11.039062 18.308594 11.039062 18.308594 C 11.039062 18.308594 10.984375 18.308594 10.917969 18.308594 L 10.800781 18.308594 L 10.941406 17.753906 C 11.023438 17.453125 11.085938 17.203125 11.085938 17.203125 C 11.085938 17.203125 11.121094 17.203125 11.164062 17.203125 L 11.242188 17.203125 Z M 12.148438 17.207031 C 12.148438 17.207031 12.070312 18.289062 12.070312 18.296875 L 12.066406 18.308594 L 11.914062 18.308594 C 11.796875 18.308594 11.765625 18.308594 11.765625 18.304688 C 11.765625 18.304688 11.8125 18.054688 11.867188 17.753906 L 11.96875 17.203125 L 12.058594 17.203125 C 12.128906 17.203125 12.148438 17.203125 12.148438 17.207031 Z M 12.996094 17.207031 C 12.996094 17.214844 13.078125 18.300781 13.078125 18.304688 L 13.078125 18.308594 L 12.78125 18.308594 L 12.78125 18.300781 C 12.785156 18.289062 12.863281 17.210938 12.863281 17.207031 L 12.863281 17.203125 L 12.996094 17.203125 Z M 13.894531 17.207031 C 13.894531 17.210938 14.097656 18.304688 14.097656 18.304688 C 14.097656 18.308594 14.046875 18.308594 13.945312 18.308594 L 13.792969 18.308594 L 13.792969 18.304688 C 13.792969 18.300781 13.710938 17.214844 13.710938 17.207031 L 13.710938 17.203125 L 13.890625 17.203125 Z M 14.777344 17.214844 C 14.777344 17.21875 14.84375 17.464844 14.921875 17.765625 C 14.996094 18.0625 15.058594 18.304688 15.058594 18.308594 C 15.058594 18.308594 15.007812 18.308594 14.941406 18.308594 L 14.820312 18.308594 L 14.820312 18.304688 C 14.820312 18.296875 14.617188 17.207031 14.617188 17.203125 C 14.617188 17.203125 14.636719 17.203125 14.695312 17.203125 L 14.773438 17.203125 Z M 15.875 17.753906 L 16.039062 18.308594 L 15.917969 18.308594 C 15.851562 18.308594 15.796875 18.308594 15.796875 18.308594 C 15.796875 18.304688 15.511719 17.207031 15.511719 17.207031 C 15.511719 17.203125 15.53125 17.203125 15.613281 17.203125 L 15.714844 17.203125 Z M 16.734375 17.753906 C 16.835938 18.058594 16.917969 18.304688 16.917969 18.304688 C 16.917969 18.308594 16.890625 18.308594 16.851562 18.308594 L 16.785156 18.308594 L 16.625 17.773438 C 16.539062 17.476562 16.464844 17.230469 16.460938 17.21875 L 16.457031 17.203125 L 16.550781 17.203125 Z M 16.734375 17.753906 "/>
<path style=" stroke:none;fill-rule:nonzero;fill:rgb(0%,0%,0%);fill-opacity:1;" d="M 18.082031 9.367188 C 17.464844 9.378906 16.875 9.542969 16.347656 9.847656 C 15.980469 10.0625 15.652344 10.34375 15.382812 10.671875 C 15.128906 10.980469 14.929688 11.328125 14.792969 11.703125 C 14.683594 12.007812 14.617188 12.324219 14.589844 12.648438 C 14.589844 12.667969 14.589844 12.679688 14.585938 12.679688 C 14.585938 12.679688 14.574219 12.6875 14.5625 12.695312 C 14.464844 12.75 14.371094 12.832031 14.300781 12.925781 C 14.203125 13.054688 14.144531 13.203125 14.128906 13.367188 C 14.125 13.394531 14.125 13.472656 14.125 13.503906 C 14.140625 13.699219 14.210938 13.875 14.339844 14.023438 C 14.371094 14.058594 14.421875 14.105469 14.457031 14.136719 C 14.492188 14.160156 14.535156 14.1875 14.566406 14.207031 C 14.578125 14.214844 14.582031 14.21875 14.582031 14.21875 C 14.582031 14.222656 14.734375 15.117188 14.738281 15.128906 C 14.765625 15.253906 14.863281 15.355469 14.988281 15.390625 C 15.019531 15.398438 15.046875 15.402344 15.082031 15.402344 C 15.179688 15.402344 15.265625 15.367188 15.335938 15.296875 C 15.386719 15.246094 15.421875 15.179688 15.433594 15.101562 C 15.4375 15.082031 15.441406 15.03125 15.4375 15.011719 C 15.4375 15 15.328125 14.339844 15.324219 14.324219 L 15.324219 14.320312 L 20.9375 14.320312 L 20.9375 14.328125 C 20.933594 14.347656 20.292969 18.085938 20.289062 18.09375 C 20.273438 18.164062 20.199219 18.234375 20.105469 18.269531 C 20.066406 18.289062 20.03125 18.296875 19.976562 18.304688 C 19.960938 18.304688 19.902344 18.304688 19.140625 18.308594 C 18.367188 18.308594 18.320312 18.308594 18.304688 18.3125 C 18.222656 18.324219 18.15625 18.359375 18.101562 18.417969 C 18.015625 18.503906 17.984375 18.632812 18.015625 18.753906 C 18.035156 18.839844 18.09375 18.917969 18.171875 18.964844 C 18.203125 18.984375 18.246094 19.003906 18.28125 19.011719 C 18.320312 19.019531 18.253906 19.019531 19.167969 19.019531 C 20.070312 19.019531 20 19.019531 20.066406 19.011719 C 20.226562 18.992188 20.378906 18.941406 20.515625 18.863281 C 20.769531 18.71875 20.941406 18.484375 20.992188 18.21875 C 20.996094 18.207031 21.148438 17.304688 21.339844 16.207031 L 21.679688 14.21875 L 21.691406 14.210938 C 21.761719 14.171875 21.820312 14.128906 21.878906 14.070312 C 21.949219 14.003906 22.003906 13.925781 22.046875 13.839844 C 22.097656 13.742188 22.125 13.648438 22.136719 13.535156 C 22.140625 13.503906 22.140625 13.398438 22.136719 13.363281 C 22.125 13.257812 22.097656 13.160156 22.054688 13.070312 C 21.976562 12.910156 21.84375 12.769531 21.6875 12.6875 L 21.675781 12.679688 L 21.675781 12.65625 C 21.671875 12.640625 21.671875 12.613281 21.667969 12.59375 C 21.605469 11.875 21.324219 11.199219 20.863281 10.648438 C 20.570312 10.296875 20.214844 10.007812 19.8125 9.789062 C 19.773438 9.769531 19.667969 9.714844 19.632812 9.699219 C 19.214844 9.503906 18.78125 9.398438 18.324219 9.371094 C 18.261719 9.367188 18.144531 9.367188 18.082031 9.367188 Z M 18.253906 10.082031 C 18.339844 10.085938 18.417969 10.09375 18.5 10.105469 C 18.882812 10.152344 19.25 10.28125 19.582031 10.480469 C 19.902344 10.667969 20.183594 10.921875 20.40625 11.21875 C 20.570312 11.4375 20.699219 11.675781 20.792969 11.929688 C 20.867188 12.128906 20.921875 12.347656 20.949219 12.550781 C 20.949219 12.5625 20.949219 12.570312 20.949219 12.574219 L 20.953125 12.578125 L 15.3125 12.578125 L 15.3125 12.574219 C 15.316406 12.574219 15.316406 12.558594 15.320312 12.542969 C 15.386719 12.019531 15.605469 11.515625 15.949219 11.101562 C 16.042969 10.992188 16.152344 10.878906 16.261719 10.785156 C 16.574219 10.507812 16.945312 10.304688 17.347656 10.191406 C 17.574219 10.125 17.804688 10.089844 18.046875 10.082031 C 18.089844 10.078125 18.210938 10.082031 18.253906 10.082031 Z M 21.308594 13.296875 C 21.355469 13.308594 21.394531 13.339844 21.414062 13.382812 C 21.457031 13.480469 21.394531 13.59375 21.289062 13.605469 C 21.269531 13.609375 14.996094 13.609375 14.976562 13.605469 C 14.902344 13.597656 14.84375 13.535156 14.839844 13.464844 C 14.835938 13.40625 14.855469 13.355469 14.902344 13.324219 C 14.921875 13.308594 14.941406 13.300781 14.964844 13.296875 C 14.976562 13.292969 15.078125 13.292969 18.136719 13.292969 L 21.296875 13.292969 Z M 21.308594 13.296875 "/>
<path style=" stroke:none;fill-rule:nonzero;fill:rgb(0%,0%,0%);fill-opacity:1;" d="M 20.140625 14.636719 C 20.140625 14.636719 20.132812 14.636719 20.125 14.636719 C 20.074219 14.644531 20.019531 14.664062 19.972656 14.691406 C 19.933594 14.71875 19.890625 14.761719 19.863281 14.804688 C 19.855469 14.820312 19.839844 14.855469 19.832031 14.871094 C 19.828125 14.890625 19.820312 14.914062 19.816406 14.933594 C 19.816406 14.941406 19.746094 15.523438 19.664062 16.226562 L 19.515625 17.507812 L 19.515625 17.535156 C 19.515625 17.558594 19.515625 17.570312 19.519531 17.582031 C 19.53125 17.679688 19.582031 17.765625 19.660156 17.824219 C 19.757812 17.894531 19.890625 17.910156 20 17.867188 C 20.117188 17.820312 20.203125 17.71875 20.222656 17.597656 C 20.222656 17.589844 20.292969 17.007812 20.375 16.304688 L 20.523438 15.023438 L 20.523438 14.988281 C 20.523438 14.953125 20.523438 14.9375 20.515625 14.902344 C 20.488281 14.796875 20.414062 14.710938 20.3125 14.664062 C 20.285156 14.652344 20.25 14.644531 20.21875 14.636719 C 20.203125 14.636719 20.152344 14.632812 20.140625 14.636719 Z M 20.140625 14.636719 "/>
</g>
</svg>
