<?xml version="1.0" encoding="UTF-8"?>
<svg xmlns="http://www.w3.org/2000/svg" xmlns:xlink="http://www.w3.org/1999/xlink" viewBox="0 0 24 24" version="1.1">
<g>
<path style=" stroke:none;fill-rule:nonzero;fill:rgb(0%,0%,0%);fill-opacity:1;" d="M 8.09375 4.035156 C 8.027344 4.042969 7.96875 4.066406 7.914062 4.105469 C 7.898438 4.117188 7.871094 4.144531 7.859375 4.164062 C 7.824219 4.203125 7.800781 4.25 7.789062 4.300781 C 7.78125 4.328125 7.777344 4.351562 7.777344 4.394531 C 7.777344 4.433594 7.773438 4.460938 7.765625 4.496094 C 7.722656 4.726562 7.546875 4.984375 7.308594 5.164062 C 7.207031 5.238281 7.105469 5.292969 7.003906 5.328125 C 6.933594 5.351562 6.878906 5.359375 6.808594 5.363281 C 6.789062 5.363281 6.765625 5.363281 6.757812 5.367188 C 6.679688 5.375 6.609375 5.410156 6.554688 5.464844 C 6.5 5.519531 6.464844 5.585938 6.449219 5.667969 C 6.445312 5.6875 6.445312 5.75 6.449219 5.769531 C 6.457031 5.800781 6.464844 5.828125 6.476562 5.855469 C 6.515625 5.953125 6.589844 6.023438 6.6875 6.054688 C 6.726562 6.070312 6.753906 6.074219 6.808594 6.074219 C 6.859375 6.078125 6.890625 6.082031 6.933594 6.089844 C 7.054688 6.117188 7.183594 6.183594 7.308594 6.273438 C 7.363281 6.316406 7.398438 6.34375 7.449219 6.398438 C 7.503906 6.453125 7.535156 6.488281 7.578125 6.542969 C 7.667969 6.664062 7.730469 6.785156 7.757812 6.90625 C 7.769531 6.953125 7.777344 6.988281 7.777344 7.042969 C 7.78125 7.097656 7.785156 7.128906 7.796875 7.164062 C 7.828125 7.253906 7.890625 7.328125 7.976562 7.367188 C 8.011719 7.386719 8.042969 7.394531 8.082031 7.402344 C 8.101562 7.40625 8.164062 7.40625 8.1875 7.402344 C 8.296875 7.382812 8.386719 7.320312 8.441406 7.230469 C 8.464844 7.191406 8.480469 7.144531 8.488281 7.097656 C 8.488281 7.089844 8.488281 7.066406 8.492188 7.046875 C 8.492188 6.992188 8.496094 6.957031 8.507812 6.910156 C 8.5625 6.679688 8.75 6.425781 8.984375 6.257812 C 9.113281 6.164062 9.246094 6.105469 9.371094 6.082031 C 9.398438 6.078125 9.421875 6.078125 9.460938 6.074219 C 9.484375 6.074219 9.507812 6.074219 9.515625 6.070312 C 9.59375 6.058594 9.664062 6.023438 9.71875 5.96875 C 9.769531 5.917969 9.804688 5.851562 9.816406 5.777344 C 9.820312 5.753906 9.820312 5.707031 9.820312 5.683594 C 9.800781 5.519531 9.679688 5.390625 9.515625 5.367188 C 9.503906 5.363281 9.484375 5.363281 9.460938 5.363281 C 9.417969 5.359375 9.390625 5.359375 9.359375 5.351562 C 9.195312 5.320312 9.015625 5.222656 8.859375 5.078125 C 8.835938 5.054688 8.78125 5.003906 8.761719 4.980469 C 8.636719 4.839844 8.546875 4.683594 8.511719 4.539062 C 8.5 4.488281 8.492188 4.449219 8.492188 4.390625 C 8.488281 4.339844 8.484375 4.3125 8.472656 4.277344 C 8.429688 4.144531 8.3125 4.050781 8.175781 4.035156 C 8.152344 4.03125 8.113281 4.03125 8.09375 4.035156 Z M 8.195312 5.414062 C 8.28125 5.515625 8.378906 5.609375 8.480469 5.695312 L 8.511719 5.71875 L 8.5 5.730469 C 8.402344 5.804688 8.300781 5.902344 8.214844 6 C 8.195312 6.023438 8.160156 6.0625 8.144531 6.082031 L 8.132812 6.097656 L 8.113281 6.070312 C 8.03125 5.964844 7.9375 5.871094 7.835938 5.785156 C 7.8125 5.765625 7.765625 5.726562 7.757812 5.722656 C 7.753906 5.71875 7.753906 5.71875 7.777344 5.703125 C 7.898438 5.605469 8.023438 5.480469 8.121094 5.359375 L 8.132812 5.339844 L 8.15625 5.367188 C 8.167969 5.382812 8.183594 5.402344 8.195312 5.414062 Z M 8.195312 5.414062 "/>
<path style=" stroke:none;fill-rule:nonzero;fill:rgb(0%,0%,0%);fill-opacity:1;" d="M 14.621094 5.398438 C 14.273438 5.40625 13.953125 5.4375 13.621094 5.492188 C 12.863281 5.617188 12.136719 5.867188 11.457031 6.230469 C 11.054688 6.445312 10.667969 6.707031 10.3125 7 C 9.210938 7.90625 8.410156 9.121094 8.019531 10.484375 C 7.863281 11.023438 7.773438 11.582031 7.75 12.140625 C 7.746094 12.234375 7.746094 12.261719 7.746094 12.394531 C 7.746094 12.5625 7.746094 12.710938 7.753906 12.75 C 7.761719 12.8125 7.789062 12.878906 7.828125 12.929688 C 7.839844 12.945312 7.867188 12.96875 7.882812 12.984375 C 7.972656 13.054688 8.085938 13.078125 8.195312 13.050781 C 8.222656 13.042969 8.238281 13.039062 8.261719 13.023438 C 8.371094 12.972656 8.441406 12.875 8.457031 12.753906 C 8.460938 12.730469 8.464844 12.707031 8.460938 12.667969 C 8.457031 12.507812 8.457031 12.308594 8.464844 12.136719 C 8.527344 10.832031 8.984375 9.589844 9.785156 8.558594 C 10.113281 8.140625 10.488281 7.761719 10.90625 7.4375 C 11.664062 6.851562 12.539062 6.441406 13.46875 6.246094 C 13.851562 6.164062 14.230469 6.121094 14.632812 6.109375 C 14.703125 6.109375 14.945312 6.109375 15.003906 6.109375 C 15.070312 6.113281 15.105469 6.117188 15.144531 6.117188 C 15.863281 6.15625 16.566406 6.320312 17.226562 6.59375 C 17.859375 6.859375 18.449219 7.226562 18.964844 7.679688 C 18.996094 7.710938 19.007812 7.71875 19.050781 7.757812 C 19.175781 7.871094 19.3125 8.007812 19.429688 8.132812 C 19.785156 8.515625 20.097656 8.949219 20.347656 9.40625 C 20.386719 9.476562 20.410156 9.527344 20.453125 9.613281 C 20.507812 9.71875 20.535156 9.773438 20.578125 9.875 C 20.898438 10.589844 21.078125 11.359375 21.113281 12.144531 C 21.117188 12.253906 21.117188 12.289062 21.117188 12.441406 C 21.117188 12.59375 21.117188 12.625 21.113281 12.734375 C 21.109375 12.796875 21.109375 12.84375 21.101562 12.902344 C 21.097656 12.96875 21.097656 13.007812 21.101562 13.03125 C 21.117188 13.179688 21.222656 13.296875 21.367188 13.335938 C 21.394531 13.339844 21.410156 13.34375 21.441406 13.34375 C 21.484375 13.347656 21.515625 13.34375 21.550781 13.332031 C 21.683594 13.292969 21.785156 13.179688 21.808594 13.042969 C 21.8125 13.007812 21.820312 12.851562 21.828125 12.730469 C 21.832031 12.632812 21.832031 12.578125 21.832031 12.441406 C 21.832031 12.273438 21.828125 12.1875 21.820312 12.046875 C 21.746094 10.679688 21.277344 9.371094 20.464844 8.265625 C 20.0625 7.71875 19.578125 7.226562 19.035156 6.816406 C 18.726562 6.585938 18.402344 6.378906 18.054688 6.195312 C 18.003906 6.171875 17.851562 6.09375 17.800781 6.070312 C 17.449219 5.902344 17.09375 5.769531 16.71875 5.664062 C 16.214844 5.519531 15.6875 5.433594 15.15625 5.40625 C 15.113281 5.402344 15.070312 5.402344 15.003906 5.398438 C 14.953125 5.394531 14.679688 5.394531 14.621094 5.398438 Z M 14.621094 5.398438 "/>
<path style=" stroke:none;fill-rule:nonzero;fill:rgb(0%,0%,0%);fill-opacity:1;" d="M 4.320312 7.027344 C 4.285156 7.027344 4.261719 7.035156 4.230469 7.042969 C 4.113281 7.082031 4.027344 7.175781 3.996094 7.292969 C 3.988281 7.324219 3.988281 7.339844 3.984375 7.386719 C 3.984375 7.4375 3.980469 7.46875 3.976562 7.507812 C 3.933594 7.792969 3.761719 8.109375 3.5 8.367188 C 3.386719 8.480469 3.261719 8.582031 3.128906 8.660156 C 2.964844 8.757812 2.796875 8.824219 2.640625 8.847656 C 2.601562 8.851562 2.578125 8.851562 2.535156 8.855469 C 2.480469 8.855469 2.464844 8.859375 2.441406 8.863281 C 2.328125 8.886719 2.230469 8.960938 2.1875 9.066406 C 2.132812 9.1875 2.148438 9.324219 2.226562 9.429688 C 2.242188 9.449219 2.277344 9.480469 2.296875 9.496094 C 2.34375 9.53125 2.394531 9.554688 2.453125 9.5625 C 2.46875 9.566406 2.476562 9.566406 2.539062 9.570312 C 2.621094 9.574219 2.691406 9.585938 2.777344 9.609375 C 3.222656 9.734375 3.679688 10.144531 3.882812 10.601562 C 3.945312 10.746094 3.980469 10.890625 3.984375 11.027344 C 3.984375 11.082031 3.988281 11.109375 4 11.144531 C 4.023438 11.226562 4.078125 11.296875 4.152344 11.34375 C 4.167969 11.355469 4.199219 11.371094 4.21875 11.375 C 4.3125 11.410156 4.425781 11.402344 4.515625 11.355469 C 4.613281 11.296875 4.683594 11.195312 4.695312 11.082031 C 4.695312 11.074219 4.699219 11.046875 4.699219 11.023438 C 4.699219 10.976562 4.703125 10.953125 4.707031 10.914062 C 4.757812 10.570312 5.003906 10.183594 5.351562 9.90625 C 5.539062 9.753906 5.746094 9.648438 5.9375 9.597656 C 6.019531 9.578125 6.074219 9.570312 6.175781 9.566406 C 6.238281 9.566406 6.277344 9.554688 6.328125 9.53125 C 6.363281 9.515625 6.394531 9.492188 6.421875 9.464844 C 6.511719 9.375 6.546875 9.246094 6.515625 9.128906 C 6.484375 8.988281 6.371094 8.886719 6.230469 8.859375 C 6.214844 8.859375 6.203125 8.855469 6.171875 8.855469 C 6.121094 8.855469 6.097656 8.851562 6.066406 8.847656 C 5.867188 8.824219 5.648438 8.734375 5.445312 8.589844 C 5.351562 8.523438 5.273438 8.457031 5.1875 8.371094 C 5.109375 8.292969 5.058594 8.234375 4.996094 8.152344 C 4.929688 8.0625 4.878906 7.980469 4.832031 7.886719 C 4.785156 7.796875 4.753906 7.71875 4.734375 7.632812 C 4.710938 7.550781 4.699219 7.484375 4.699219 7.398438 C 4.695312 7.335938 4.691406 7.3125 4.679688 7.269531 C 4.671875 7.242188 4.652344 7.210938 4.640625 7.1875 C 4.582031 7.101562 4.492188 7.042969 4.390625 7.03125 C 4.375 7.027344 4.335938 7.023438 4.320312 7.027344 Z M 4.355469 8.480469 C 4.5 8.699219 4.691406 8.90625 4.902344 9.074219 C 4.957031 9.117188 5.023438 9.167969 5.078125 9.203125 C 5.085938 9.207031 5.089844 9.210938 5.089844 9.210938 C 5.089844 9.210938 5.082031 9.21875 5.066406 9.226562 C 4.96875 9.292969 4.859375 9.382812 4.761719 9.472656 C 4.710938 9.519531 4.625 9.601562 4.578125 9.65625 C 4.5 9.746094 4.414062 9.855469 4.351562 9.945312 C 4.347656 9.953125 4.339844 9.960938 4.339844 9.960938 C 4.339844 9.960938 4.335938 9.957031 4.332031 9.949219 C 4.308594 9.910156 4.25 9.832031 4.210938 9.78125 C 4.0625 9.59375 3.882812 9.421875 3.695312 9.285156 C 3.667969 9.265625 3.613281 9.226562 3.601562 9.21875 C 3.59375 9.214844 3.589844 9.210938 3.589844 9.210938 C 3.589844 9.210938 3.601562 9.203125 3.613281 9.195312 C 3.695312 9.140625 3.800781 9.058594 3.882812 8.984375 C 3.964844 8.914062 4.042969 8.835938 4.113281 8.757812 C 4.191406 8.671875 4.269531 8.570312 4.324219 8.484375 C 4.332031 8.472656 4.339844 8.460938 4.339844 8.460938 C 4.339844 8.460938 4.347656 8.46875 4.355469 8.480469 Z M 4.355469 8.480469 "/>
<path style=" stroke:none;fill-rule:nonzero;fill:rgb(0%,0%,0%);fill-opacity:1;" d="M 14.730469 7.992188 C 14.378906 7.996094 14.039062 8.039062 13.703125 8.125 C 13.3125 8.222656 12.933594 8.375 12.582031 8.574219 C 11.765625 9.042969 11.117188 9.757812 10.730469 10.613281 C 10.515625 11.089844 10.386719 11.597656 10.351562 12.121094 C 10.34375 12.21875 10.339844 12.292969 10.339844 12.398438 C 10.339844 12.554688 10.34375 12.703125 10.359375 12.855469 C 10.445312 13.804688 10.835938 14.695312 11.472656 15.40625 C 11.605469 15.554688 11.761719 15.707031 11.917969 15.835938 C 12.355469 16.210938 12.871094 16.496094 13.414062 16.671875 C 13.515625 16.703125 13.542969 16.710938 13.597656 16.707031 C 13.648438 16.707031 13.695312 16.695312 13.742188 16.671875 C 13.808594 16.640625 13.859375 16.589844 13.894531 16.53125 C 13.914062 16.492188 13.929688 16.453125 13.9375 16.410156 C 13.941406 16.394531 13.941406 16.386719 13.941406 16.351562 C 13.941406 16.3125 13.9375 16.300781 13.929688 16.265625 C 13.917969 16.21875 13.894531 16.167969 13.863281 16.128906 C 13.847656 16.109375 13.820312 16.082031 13.804688 16.070312 C 13.777344 16.050781 13.75 16.035156 13.722656 16.023438 C 13.714844 16.019531 13.691406 16.011719 13.671875 16.007812 C 13.652344 16 13.617188 15.988281 13.59375 15.980469 C 13.113281 15.820312 12.660156 15.554688 12.28125 15.207031 C 12.191406 15.128906 12.089844 15.027344 12.011719 14.9375 C 11.699219 14.589844 11.453125 14.183594 11.289062 13.75 C 11.15625 13.398438 11.078125 13.023438 11.058594 12.652344 C 11.054688 12.582031 11.054688 12.5625 11.054688 12.476562 C 11.050781 12.359375 11.054688 12.277344 11.0625 12.171875 C 11.101562 11.625 11.257812 11.097656 11.527344 10.617188 C 11.828125 10.078125 12.261719 9.621094 12.78125 9.285156 C 12.9375 9.1875 13.101562 9.097656 13.273438 9.023438 C 13.644531 8.859375 14.039062 8.753906 14.449219 8.71875 C 14.566406 8.707031 14.660156 8.703125 14.789062 8.703125 C 14.945312 8.703125 15.066406 8.710938 15.214844 8.726562 C 15.929688 8.808594 16.601562 9.09375 17.15625 9.550781 C 17.296875 9.664062 17.433594 9.796875 17.554688 9.929688 C 17.8125 10.214844 18.03125 10.542969 18.191406 10.890625 C 18.269531 11.0625 18.328125 11.230469 18.382812 11.414062 C 18.398438 11.464844 18.402344 11.484375 18.417969 11.507812 C 18.464844 11.601562 18.546875 11.667969 18.648438 11.691406 C 18.679688 11.699219 18.695312 11.699219 18.734375 11.699219 C 18.765625 11.699219 18.773438 11.699219 18.789062 11.695312 C 18.867188 11.683594 18.929688 11.652344 18.984375 11.597656 C 19.039062 11.542969 19.070312 11.480469 19.085938 11.402344 C 19.089844 11.386719 19.089844 11.378906 19.089844 11.347656 C 19.089844 11.292969 19.085938 11.277344 19.058594 11.183594 C 18.949219 10.8125 18.796875 10.472656 18.597656 10.140625 C 18.316406 9.671875 17.945312 9.257812 17.511719 8.921875 C 16.957031 8.488281 16.308594 8.199219 15.621094 8.066406 C 15.390625 8.023438 15.164062 8 14.929688 7.992188 C 14.878906 7.992188 14.773438 7.992188 14.730469 7.992188 Z M 14.730469 7.992188 "/>
<path style=" stroke:none;fill-rule:nonzero;fill:rgb(0%,0%,0%);fill-opacity:1;" d="M 6.667969 11.285156 C 6.585938 11.296875 6.507812 11.332031 6.453125 11.390625 C 6.398438 11.441406 6.363281 11.511719 6.351562 11.585938 C 6.351562 11.597656 6.347656 11.621094 6.347656 11.648438 C 6.347656 11.675781 6.34375 11.710938 6.34375 11.726562 C 6.320312 12.210938 6.097656 12.742188 5.71875 13.230469 C 5.34375 13.714844 4.84375 14.109375 4.328125 14.332031 C 4.101562 14.429688 3.878906 14.492188 3.664062 14.515625 C 3.601562 14.523438 3.554688 14.527344 3.476562 14.527344 C 3.417969 14.53125 3.40625 14.53125 3.375 14.539062 C 3.234375 14.574219 3.132812 14.683594 3.109375 14.824219 C 3.105469 14.851562 3.101562 14.894531 3.105469 14.917969 C 3.113281 15.003906 3.152344 15.082031 3.210938 15.140625 C 3.253906 15.183594 3.304688 15.210938 3.363281 15.226562 C 3.398438 15.238281 3.433594 15.242188 3.480469 15.242188 C 3.546875 15.242188 3.632812 15.25 3.714844 15.257812 C 4.011719 15.300781 4.324219 15.414062 4.628906 15.585938 C 4.851562 15.714844 5.070312 15.875 5.273438 16.054688 C 5.332031 16.113281 5.429688 16.207031 5.488281 16.269531 C 5.886719 16.695312 6.171875 17.191406 6.289062 17.664062 C 6.324219 17.808594 6.34375 17.941406 6.347656 18.082031 C 6.347656 18.105469 6.347656 18.136719 6.347656 18.148438 C 6.351562 18.214844 6.375 18.285156 6.417969 18.34375 C 6.441406 18.375 6.476562 18.40625 6.507812 18.425781 C 6.527344 18.441406 6.5625 18.457031 6.582031 18.464844 C 6.601562 18.472656 6.632812 18.480469 6.65625 18.484375 C 6.679688 18.484375 6.726562 18.484375 6.75 18.484375 C 6.832031 18.472656 6.902344 18.433594 6.957031 18.378906 C 7.011719 18.324219 7.046875 18.25 7.058594 18.171875 C 7.058594 18.164062 7.058594 18.128906 7.0625 18.097656 C 7.0625 18.007812 7.066406 17.949219 7.078125 17.875 C 7.128906 17.507812 7.285156 17.125 7.53125 16.753906 C 7.667969 16.554688 7.8125 16.375 7.988281 16.199219 C 8.097656 16.085938 8.199219 15.996094 8.316406 15.902344 C 8.773438 15.539062 9.269531 15.3125 9.730469 15.253906 C 9.792969 15.246094 9.847656 15.242188 9.921875 15.242188 C 9.992188 15.242188 10.007812 15.238281 10.046875 15.226562 C 10.132812 15.203125 10.207031 15.144531 10.25 15.074219 C 10.277344 15.027344 10.292969 14.980469 10.300781 14.929688 C 10.304688 14.90625 10.304688 14.867188 10.300781 14.847656 C 10.292969 14.765625 10.257812 14.691406 10.199219 14.632812 C 10.152344 14.585938 10.089844 14.550781 10.023438 14.539062 C 9.996094 14.53125 9.984375 14.53125 9.933594 14.527344 C 9.832031 14.527344 9.769531 14.519531 9.683594 14.507812 C 9.394531 14.46875 9.089844 14.359375 8.785156 14.1875 C 8.5625 14.0625 8.339844 13.898438 8.136719 13.714844 C 8.050781 13.636719 7.953125 13.539062 7.875 13.453125 C 7.425781 12.960938 7.136719 12.386719 7.074219 11.863281 C 7.066406 11.796875 7.0625 11.75 7.0625 11.675781 C 7.058594 11.601562 7.054688 11.582031 7.046875 11.542969 C 7.035156 11.5 7.011719 11.457031 6.980469 11.417969 C 6.96875 11.402344 6.945312 11.375 6.929688 11.363281 C 6.902344 11.339844 6.859375 11.320312 6.824219 11.304688 C 6.804688 11.300781 6.773438 11.292969 6.753906 11.289062 C 6.734375 11.285156 6.683594 11.285156 6.667969 11.285156 Z M 6.742188 13.085938 C 6.972656 13.515625 7.300781 13.925781 7.6875 14.269531 C 7.953125 14.507812 8.246094 14.710938 8.546875 14.871094 L 8.578125 14.886719 L 8.550781 14.898438 C 8.472656 14.9375 8.375 14.996094 8.289062 15.046875 C 7.851562 15.320312 7.449219 15.6875 7.125 16.101562 C 6.96875 16.304688 6.820312 16.53125 6.714844 16.742188 C 6.707031 16.75 6.703125 16.757812 6.703125 16.757812 C 6.703125 16.757812 6.695312 16.746094 6.6875 16.730469 C 6.398438 16.171875 5.949219 15.648438 5.417969 15.253906 C 5.238281 15.117188 5.046875 15 4.859375 14.902344 C 4.84375 14.890625 4.832031 14.886719 4.832031 14.882812 C 4.832031 14.882812 4.84375 14.875 4.859375 14.867188 C 5.136719 14.722656 5.410156 14.539062 5.660156 14.324219 C 5.839844 14.167969 6.011719 13.992188 6.164062 13.8125 C 6.367188 13.570312 6.554688 13.300781 6.683594 13.046875 C 6.691406 13.035156 6.699219 13.019531 6.699219 13.015625 L 6.703125 13.011719 L 6.714844 13.035156 C 6.722656 13.046875 6.734375 13.070312 6.742188 13.085938 Z M 6.742188 13.085938 "/>
<path style=" stroke:none;fill-rule:nonzero;fill:rgb(0%,0%,0%);fill-opacity:1;" d="M 17.917969 11.886719 C 17.257812 11.90625 16.621094 12.09375 16.0625 12.433594 C 15.84375 12.566406 15.640625 12.71875 15.445312 12.902344 C 15.40625 12.933594 15.3125 13.03125 15.273438 13.070312 C 14.960938 13.402344 14.714844 13.773438 14.539062 14.1875 C 14.363281 14.597656 14.261719 15.035156 14.238281 15.484375 C 14.230469 15.613281 14.230469 15.769531 14.238281 15.894531 C 14.261719 16.3125 14.351562 16.714844 14.503906 17.097656 C 14.71875 17.628906 15.046875 18.105469 15.476562 18.496094 C 15.613281 18.621094 15.761719 18.738281 15.917969 18.84375 C 16.480469 19.21875 17.125 19.4375 17.800781 19.476562 C 17.886719 19.480469 17.90625 19.480469 18.03125 19.480469 C 18.160156 19.480469 18.183594 19.480469 18.265625 19.476562 C 19.121094 19.425781 19.921875 19.089844 20.5625 18.519531 C 20.65625 18.4375 20.761719 18.332031 20.84375 18.238281 C 21.316406 17.722656 21.632812 17.089844 21.765625 16.40625 C 21.8125 16.15625 21.835938 15.910156 21.832031 15.648438 C 21.832031 15.5625 21.832031 15.53125 21.828125 15.460938 C 21.777344 14.597656 21.433594 13.78125 20.855469 13.136719 C 20.773438 13.046875 20.667969 12.945312 20.578125 12.863281 C 20.265625 12.578125 19.910156 12.351562 19.519531 12.183594 C 19.109375 12.011719 18.667969 11.910156 18.214844 11.886719 C 18.128906 11.882812 18.003906 11.882812 17.917969 11.886719 Z M 18.175781 12.597656 C 18.277344 12.605469 18.355469 12.613281 18.4375 12.621094 C 18.839844 12.675781 19.21875 12.804688 19.570312 13.003906 C 20.027344 13.269531 20.410156 13.644531 20.683594 14.097656 C 20.941406 14.527344 21.085938 15.007812 21.117188 15.511719 C 21.121094 15.621094 21.121094 15.753906 21.113281 15.867188 C 21.078125 16.46875 20.871094 17.046875 20.507812 17.53125 C 20.246094 17.878906 19.921875 18.164062 19.542969 18.375 C 19.453125 18.425781 19.347656 18.480469 19.253906 18.519531 C 18.800781 18.714844 18.3125 18.796875 17.820312 18.765625 C 17.359375 18.734375 16.917969 18.601562 16.519531 18.375 C 16.132812 18.15625 15.792969 17.855469 15.53125 17.496094 C 15.234375 17.085938 15.046875 16.613281 14.976562 16.117188 C 14.945312 15.894531 14.9375 15.667969 14.953125 15.449219 C 14.960938 15.351562 14.972656 15.257812 14.988281 15.164062 C 15.109375 14.457031 15.476562 13.808594 16.027344 13.335938 C 16.285156 13.117188 16.578125 12.9375 16.894531 12.8125 C 17.21875 12.683594 17.558594 12.613281 17.917969 12.597656 C 17.957031 12.597656 18.140625 12.597656 18.175781 12.597656 Z M 18.175781 12.597656 "/>
<path style=" stroke:none;fill-rule:nonzero;fill:rgb(0%,0%,0%);fill-opacity:1;" d="M 17.957031 13.222656 C 17.65625 13.230469 17.367188 13.292969 17.097656 13.40625 C 16.34375 13.714844 15.792969 14.375 15.625 15.164062 C 15.597656 15.292969 15.582031 15.410156 15.570312 15.554688 C 15.570312 15.59375 15.570312 15.726562 15.570312 15.773438 C 15.582031 16.019531 15.621094 16.246094 15.699219 16.472656 C 15.753906 16.636719 15.828125 16.796875 15.914062 16.945312 C 16.183594 17.390625 16.582031 17.742188 17.054688 17.945312 C 17.292969 18.050781 17.546875 18.113281 17.808594 18.136719 C 17.890625 18.144531 17.96875 18.148438 18.0625 18.148438 C 18.136719 18.144531 18.160156 18.144531 18.222656 18.140625 C 18.863281 18.089844 19.453125 17.796875 19.882812 17.3125 C 20.238281 16.910156 20.453125 16.398438 20.492188 15.859375 C 20.496094 15.792969 20.496094 15.761719 20.496094 15.683594 C 20.496094 15.605469 20.496094 15.570312 20.492188 15.507812 C 20.464844 15.132812 20.351562 14.769531 20.160156 14.441406 C 20.03125 14.21875 19.863281 14.011719 19.667969 13.839844 C 19.261719 13.480469 18.75 13.265625 18.207031 13.226562 C 18.132812 13.222656 18.023438 13.21875 17.957031 13.222656 Z M 18.101562 13.933594 C 18.117188 13.933594 18.140625 13.9375 18.152344 13.9375 C 18.628906 13.96875 19.070312 14.195312 19.378906 14.5625 C 19.503906 14.714844 19.605469 14.886719 19.675781 15.074219 C 19.726562 15.210938 19.761719 15.355469 19.773438 15.503906 C 19.785156 15.605469 19.785156 15.714844 19.777344 15.816406 C 19.753906 16.152344 19.636719 16.464844 19.433594 16.734375 C 19.382812 16.800781 19.335938 16.855469 19.269531 16.921875 C 19.226562 16.964844 19.195312 16.996094 19.152344 17.03125 C 18.878906 17.253906 18.554688 17.390625 18.203125 17.425781 C 18.109375 17.4375 17.988281 17.4375 17.894531 17.429688 C 17.695312 17.414062 17.503906 17.367188 17.324219 17.285156 C 17.289062 17.269531 17.21875 17.234375 17.183594 17.214844 C 16.957031 17.089844 16.765625 16.917969 16.613281 16.710938 C 16.53125 16.59375 16.457031 16.464844 16.40625 16.332031 C 16.347656 16.183594 16.308594 16.023438 16.292969 15.863281 C 16.285156 15.796875 16.28125 15.773438 16.28125 15.683594 C 16.28125 15.597656 16.285156 15.585938 16.289062 15.519531 C 16.320312 15.160156 16.46875 14.820312 16.703125 14.546875 C 16.761719 14.476562 16.839844 14.398438 16.90625 14.34375 C 17.046875 14.226562 17.199219 14.132812 17.363281 14.066406 C 17.554688 13.988281 17.753906 13.941406 17.960938 13.933594 C 17.996094 13.933594 18.066406 13.933594 18.101562 13.933594 Z M 18.101562 13.933594 "/>
<path style=" stroke:none;fill-rule:nonzero;fill:rgb(0%,0%,0%);fill-opacity:1;" d="M 9.339844 15.996094 C 9.25 16.003906 9.175781 16.039062 9.113281 16.101562 C 9.082031 16.128906 9.0625 16.160156 9.042969 16.199219 C 9.023438 16.242188 9.011719 16.289062 9.007812 16.339844 C 9.007812 16.40625 9.023438 16.472656 9.054688 16.53125 C 9.074219 16.566406 9.191406 16.71875 9.289062 16.839844 C 9.394531 16.972656 9.511719 17.109375 9.625 17.230469 C 9.746094 17.359375 9.902344 17.519531 10.03125 17.636719 C 10.414062 17.984375 10.839844 18.296875 11.285156 18.554688 C 12.214844 19.085938 13.246094 19.398438 14.316406 19.46875 C 14.503906 19.480469 14.671875 19.484375 14.878906 19.484375 C 15.046875 19.480469 15.273438 19.46875 15.324219 19.460938 C 15.371094 19.453125 15.417969 19.433594 15.460938 19.40625 C 15.484375 19.390625 15.496094 19.382812 15.515625 19.359375 C 15.570312 19.308594 15.605469 19.238281 15.617188 19.164062 C 15.621094 19.136719 15.621094 19.089844 15.617188 19.0625 C 15.609375 19.015625 15.59375 18.972656 15.574219 18.933594 C 15.523438 18.847656 15.4375 18.785156 15.339844 18.761719 C 15.304688 18.753906 15.269531 18.753906 15.207031 18.757812 C 14.859375 18.78125 14.5 18.773438 14.148438 18.738281 C 13.5 18.675781 12.867188 18.507812 12.269531 18.25 C 11.617188 17.96875 11.015625 17.574219 10.496094 17.09375 C 10.40625 17.011719 10.277344 16.882812 10.199219 16.800781 C 10.003906 16.59375 9.835938 16.394531 9.664062 16.160156 C 9.652344 16.140625 9.636719 16.121094 9.628906 16.113281 C 9.574219 16.050781 9.492188 16.011719 9.410156 16 C 9.390625 15.996094 9.355469 15.996094 9.339844 15.996094 Z M 9.339844 15.996094 "/>
</g>
</svg>
