<?xml version="1.0" encoding="UTF-8"?>
<svg xmlns="http://www.w3.org/2000/svg" xmlns:xlink="http://www.w3.org/1999/xlink" viewBox="0 0 24 24" version="1.1">
<g>
<path style=" stroke:none;fill-rule:nonzero;fill:rgb(0%,0%,0%);fill-opacity:1;" d="M 7.871094 2.523438 C 7.820312 2.53125 7.785156 2.539062 7.742188 2.5625 C 7.675781 2.597656 7.617188 2.65625 7.582031 2.726562 C 7.566406 2.765625 7.554688 2.804688 7.550781 2.847656 C 7.550781 2.875 7.550781 7.035156 7.550781 7.058594 C 7.566406 7.222656 7.683594 7.351562 7.839844 7.382812 C 7.941406 7.398438 8.039062 7.375 8.121094 7.316406 C 8.140625 7.300781 8.175781 7.269531 8.1875 7.25 C 8.226562 7.199219 8.25 7.144531 8.261719 7.078125 C 8.261719 7.066406 8.261719 6.941406 8.261719 4.957031 C 8.261719 3.210938 8.261719 2.847656 8.261719 2.835938 C 8.25 2.753906 8.214844 2.683594 8.160156 2.628906 C 8.117188 2.582031 8.058594 2.550781 7.996094 2.535156 C 7.964844 2.527344 7.949219 2.523438 7.910156 2.523438 C 7.894531 2.523438 7.875 2.523438 7.871094 2.523438 Z M 7.871094 2.523438 "/>
<path style=" stroke:none;fill-rule:nonzero;fill:rgb(0%,0%,0%);fill-opacity:1;" d="M 5.363281 3.050781 C 5.359375 3.050781 5.351562 3.050781 5.34375 3.054688 C 5.234375 3.066406 5.136719 3.132812 5.078125 3.230469 C 5.019531 3.332031 5.019531 3.460938 5.070312 3.566406 C 5.085938 3.597656 5.101562 3.617188 5.132812 3.65625 C 5.328125 3.878906 5.496094 4.167969 5.648438 4.535156 C 5.792969 4.898438 5.914062 5.335938 6.007812 5.816406 C 6.082031 6.21875 6.136719 6.65625 6.15625 7.035156 C 6.160156 7.101562 6.167969 7.140625 6.195312 7.191406 C 6.214844 7.226562 6.234375 7.253906 6.261719 7.285156 C 6.28125 7.304688 6.292969 7.3125 6.316406 7.328125 C 6.4375 7.40625 6.59375 7.40625 6.710938 7.328125 C 6.742188 7.308594 6.777344 7.273438 6.796875 7.246094 C 6.835938 7.195312 6.859375 7.132812 6.867188 7.066406 C 6.871094 7.039062 6.867188 6.949219 6.855469 6.800781 C 6.820312 6.355469 6.75 5.867188 6.65625 5.4375 C 6.453125 4.496094 6.140625 3.757812 5.734375 3.261719 C 5.703125 3.222656 5.664062 3.175781 5.644531 3.160156 C 5.589844 3.101562 5.519531 3.066406 5.4375 3.054688 C 5.425781 3.050781 5.375 3.050781 5.363281 3.050781 Z M 5.363281 3.050781 "/>
<path style=" stroke:none;fill-rule:nonzero;fill:rgb(0%,0%,0%);fill-opacity:1;" d="M 10.390625 3.050781 C 10.3125 3.058594 10.238281 3.089844 10.183594 3.144531 C 10.164062 3.160156 10.113281 3.21875 10.070312 3.269531 C 9.976562 3.382812 9.886719 3.511719 9.804688 3.648438 C 9.671875 3.871094 9.550781 4.121094 9.445312 4.402344 C 9.238281 4.957031 9.082031 5.628906 8.996094 6.367188 C 8.976562 6.542969 8.957031 6.742188 8.949219 6.902344 C 8.941406 7.035156 8.941406 7.058594 8.949219 7.101562 C 8.972656 7.222656 9.0625 7.328125 9.179688 7.367188 C 9.285156 7.402344 9.402344 7.390625 9.496094 7.328125 C 9.5625 7.285156 9.613281 7.21875 9.640625 7.140625 C 9.648438 7.105469 9.652344 7.078125 9.65625 7.027344 C 9.667969 6.796875 9.695312 6.492188 9.734375 6.210938 C 9.832031 5.519531 9.992188 4.910156 10.203125 4.425781 C 10.257812 4.308594 10.320312 4.179688 10.378906 4.078125 C 10.472656 3.917969 10.570312 3.78125 10.675781 3.660156 C 10.699219 3.632812 10.710938 3.621094 10.722656 3.601562 C 10.742188 3.570312 10.757812 3.53125 10.769531 3.492188 C 10.777344 3.460938 10.777344 3.445312 10.777344 3.40625 C 10.777344 3.367188 10.777344 3.351562 10.769531 3.320312 C 10.742188 3.214844 10.667969 3.125 10.566406 3.082031 C 10.539062 3.066406 10.507812 3.058594 10.472656 3.054688 C 10.457031 3.050781 10.410156 3.050781 10.390625 3.050781 Z M 10.390625 3.050781 "/>
<path style=" stroke:none;fill-rule:nonzero;fill:rgb(0%,0%,0%);fill-opacity:1;" d="M 16.035156 3.851562 C 15.988281 3.855469 15.929688 3.875 15.886719 3.902344 C 15.8125 3.949219 15.753906 4.023438 15.730469 4.113281 C 15.722656 4.140625 15.71875 4.160156 15.71875 4.195312 C 15.714844 4.257812 15.714844 4.277344 15.703125 4.316406 C 15.652344 4.53125 15.464844 4.765625 15.242188 4.894531 C 15.132812 4.960938 15.019531 4.996094 14.929688 4.996094 C 14.800781 4.996094 14.683594 5.0625 14.621094 5.171875 C 14.570312 5.253906 14.558594 5.351562 14.582031 5.441406 C 14.605469 5.542969 14.675781 5.625 14.769531 5.671875 C 14.820312 5.699219 14.859375 5.707031 14.925781 5.710938 C 14.945312 5.710938 14.96875 5.710938 14.976562 5.714844 C 15.1875 5.738281 15.4375 5.917969 15.589844 6.148438 C 15.65625 6.246094 15.699219 6.347656 15.714844 6.441406 C 15.714844 6.453125 15.714844 6.472656 15.71875 6.496094 C 15.71875 6.550781 15.722656 6.578125 15.734375 6.613281 C 15.761719 6.691406 15.808594 6.753906 15.875 6.796875 C 15.921875 6.828125 15.972656 6.847656 16.03125 6.855469 C 16.050781 6.859375 16.105469 6.859375 16.125 6.855469 C 16.285156 6.832031 16.402344 6.710938 16.425781 6.550781 C 16.429688 6.542969 16.429688 6.523438 16.429688 6.503906 C 16.429688 6.484375 16.433594 6.460938 16.433594 6.453125 C 16.449219 6.332031 16.511719 6.195312 16.613281 6.070312 C 16.769531 5.875 16.984375 5.738281 17.167969 5.714844 C 17.179688 5.710938 17.203125 5.710938 17.21875 5.710938 C 17.238281 5.710938 17.261719 5.707031 17.269531 5.707031 C 17.386719 5.691406 17.484375 5.621094 17.539062 5.515625 C 17.566406 5.464844 17.578125 5.414062 17.578125 5.355469 C 17.578125 5.296875 17.566406 5.246094 17.539062 5.191406 C 17.496094 5.105469 17.421875 5.042969 17.328125 5.015625 C 17.292969 5.003906 17.269531 5 17.21875 4.996094 C 17.179688 4.996094 17.160156 4.992188 17.128906 4.988281 C 17.019531 4.964844 16.894531 4.898438 16.78125 4.808594 C 16.738281 4.773438 16.683594 4.71875 16.648438 4.679688 C 16.527344 4.542969 16.449219 4.390625 16.433594 4.257812 C 16.433594 4.246094 16.429688 4.222656 16.429688 4.203125 C 16.429688 4.183594 16.429688 4.164062 16.425781 4.160156 C 16.410156 4.054688 16.355469 3.964844 16.273438 3.910156 C 16.226562 3.878906 16.179688 3.863281 16.125 3.855469 C 16.109375 3.851562 16.054688 3.851562 16.035156 3.851562 Z M 16.082031 5.117188 C 16.140625 5.183594 16.222656 5.269531 16.300781 5.335938 C 16.3125 5.34375 16.320312 5.355469 16.320312 5.355469 C 16.320312 5.355469 16.308594 5.363281 16.296875 5.375 C 16.230469 5.433594 16.148438 5.515625 16.089844 5.582031 C 16.082031 5.589844 16.074219 5.601562 16.074219 5.601562 C 16.074219 5.601562 16.066406 5.589844 16.054688 5.578125 C 15.992188 5.503906 15.917969 5.433594 15.84375 5.367188 C 15.835938 5.359375 15.828125 5.355469 15.828125 5.355469 C 15.828125 5.355469 15.835938 5.347656 15.84375 5.339844 C 15.917969 5.277344 15.992188 5.203125 16.054688 5.128906 C 16.066406 5.117188 16.074219 5.105469 16.074219 5.105469 C 16.074219 5.105469 16.078125 5.113281 16.082031 5.117188 Z M 16.082031 5.117188 "/>
<path style=" stroke:none;fill-rule:nonzero;fill:rgb(0%,0%,0%);fill-opacity:1;" d="M 2.957031 3.914062 C 2.871094 3.921875 2.796875 3.957031 2.738281 4.015625 C 2.648438 4.101562 2.609375 4.222656 2.636719 4.347656 C 2.644531 4.386719 2.667969 4.433594 2.6875 4.46875 C 2.722656 4.519531 2.769531 4.5625 2.828125 4.589844 C 2.878906 4.613281 2.917969 4.625 2.992188 4.625 C 3.070312 4.628906 3.128906 4.636719 3.199219 4.65625 C 3.375 4.699219 3.550781 4.796875 3.71875 4.945312 C 3.765625 4.988281 3.835938 5.054688 3.878906 5.097656 C 4.179688 5.425781 4.457031 5.914062 4.6875 6.511719 C 4.761719 6.703125 4.832031 6.917969 4.875 7.078125 C 4.882812 7.101562 4.890625 7.128906 4.894531 7.140625 C 4.910156 7.199219 4.941406 7.246094 4.988281 7.289062 C 5.117188 7.414062 5.316406 7.421875 5.457031 7.308594 C 5.484375 7.285156 5.515625 7.253906 5.535156 7.21875 C 5.574219 7.160156 5.59375 7.082031 5.589844 7.007812 C 5.585938 6.980469 5.585938 6.964844 5.578125 6.9375 C 5.542969 6.796875 5.460938 6.550781 5.386719 6.351562 C 5.277344 6.046875 5.144531 5.753906 5.007812 5.496094 C 4.65625 4.835938 4.25 4.378906 3.792969 4.128906 C 3.757812 4.109375 3.691406 4.074219 3.65625 4.0625 C 3.476562 3.980469 3.289062 3.933594 3.101562 3.917969 C 3.046875 3.914062 2.980469 3.914062 2.957031 3.914062 Z M 2.957031 3.914062 "/>
<path style=" stroke:none;fill-rule:nonzero;fill:rgb(0%,0%,0%);fill-opacity:1;" d="M 12.765625 3.914062 C 12.550781 3.925781 12.347656 3.972656 12.144531 4.0625 C 12.109375 4.078125 12.03125 4.117188 11.996094 4.136719 C 11.761719 4.269531 11.542969 4.453125 11.335938 4.691406 C 11.027344 5.046875 10.753906 5.519531 10.519531 6.089844 C 10.414062 6.355469 10.308594 6.664062 10.246094 6.90625 C 10.226562 6.96875 10.222656 6.988281 10.222656 7.03125 C 10.222656 7.089844 10.234375 7.140625 10.261719 7.191406 C 10.3125 7.296875 10.410156 7.367188 10.527344 7.382812 C 10.554688 7.386719 10.601562 7.386719 10.628906 7.386719 C 10.710938 7.371094 10.777344 7.339844 10.835938 7.277344 C 10.863281 7.25 10.882812 7.222656 10.902344 7.1875 C 10.914062 7.164062 10.921875 7.136719 10.9375 7.070312 C 10.992188 6.871094 11.078125 6.617188 11.167969 6.394531 C 11.464844 5.65625 11.828125 5.113281 12.21875 4.839844 C 12.378906 4.726562 12.542969 4.660156 12.707031 4.636719 C 12.746094 4.628906 12.773438 4.628906 12.820312 4.625 C 12.863281 4.625 12.882812 4.621094 12.90625 4.617188 C 12.996094 4.597656 13.074219 4.542969 13.128906 4.464844 C 13.152344 4.421875 13.171875 4.378906 13.179688 4.328125 C 13.183594 4.3125 13.183594 4.304688 13.183594 4.269531 C 13.183594 4.226562 13.183594 4.214844 13.171875 4.179688 C 13.15625 4.121094 13.125 4.0625 13.082031 4.015625 C 13.050781 3.988281 13.023438 3.96875 12.984375 3.949219 C 12.953125 3.933594 12.917969 3.921875 12.878906 3.917969 C 12.863281 3.914062 12.800781 3.914062 12.765625 3.914062 Z M 12.765625 3.914062 "/>
<path style=" stroke:none;fill-rule:nonzero;fill:rgb(0%,0%,0%);fill-opacity:1;" d="M 18.972656 6.105469 C 18.910156 6.113281 18.84375 6.140625 18.792969 6.183594 C 18.734375 6.230469 18.691406 6.296875 18.671875 6.371094 C 18.664062 6.398438 18.660156 6.417969 18.660156 6.460938 C 18.660156 6.507812 18.65625 6.535156 18.652344 6.570312 C 18.628906 6.714844 18.566406 6.867188 18.46875 7.019531 C 18.335938 7.21875 18.148438 7.398438 17.945312 7.519531 C 17.820312 7.59375 17.691406 7.648438 17.574219 7.667969 C 17.527344 7.675781 17.496094 7.679688 17.441406 7.683594 C 17.386719 7.683594 17.363281 7.6875 17.320312 7.703125 C 17.300781 7.707031 17.269531 7.722656 17.25 7.734375 C 17.175781 7.78125 17.117188 7.855469 17.09375 7.945312 C 17.066406 8.050781 17.085938 8.164062 17.15625 8.253906 C 17.167969 8.269531 17.195312 8.300781 17.210938 8.3125 C 17.265625 8.355469 17.332031 8.382812 17.398438 8.390625 C 17.40625 8.394531 17.429688 8.394531 17.453125 8.394531 C 17.472656 8.394531 17.5 8.398438 17.507812 8.398438 C 17.714844 8.417969 17.945312 8.53125 18.15625 8.707031 C 18.222656 8.761719 18.292969 8.835938 18.351562 8.902344 C 18.433594 9 18.496094 9.09375 18.546875 9.195312 C 18.621094 9.34375 18.660156 9.488281 18.660156 9.621094 C 18.660156 9.699219 18.6875 9.777344 18.738281 9.839844 C 18.753906 9.859375 18.78125 9.886719 18.800781 9.898438 C 18.847656 9.9375 18.90625 9.960938 18.96875 9.96875 C 18.992188 9.972656 19.039062 9.972656 19.058594 9.96875 C 19.132812 9.960938 19.199219 9.929688 19.257812 9.878906 C 19.3125 9.832031 19.351562 9.757812 19.367188 9.683594 C 19.371094 9.660156 19.371094 9.644531 19.375 9.601562 C 19.375 9.578125 19.375 9.550781 19.375 9.542969 C 19.386719 9.46875 19.402344 9.398438 19.429688 9.320312 C 19.515625 9.097656 19.679688 8.871094 19.890625 8.695312 C 20.0625 8.550781 20.257812 8.449219 20.433594 8.414062 C 20.484375 8.402344 20.523438 8.398438 20.582031 8.394531 C 20.605469 8.394531 20.628906 8.394531 20.632812 8.390625 C 20.714844 8.382812 20.789062 8.347656 20.847656 8.289062 C 20.925781 8.210938 20.964844 8.09375 20.945312 7.980469 C 20.929688 7.882812 20.875 7.796875 20.789062 7.742188 C 20.757812 7.71875 20.71875 7.703125 20.683594 7.691406 C 20.652344 7.683594 20.636719 7.683594 20.589844 7.683594 C 20.519531 7.679688 20.46875 7.671875 20.402344 7.65625 C 20.296875 7.628906 20.179688 7.578125 20.070312 7.507812 C 20.003906 7.46875 19.929688 7.414062 19.867188 7.359375 C 19.800781 7.304688 19.730469 7.230469 19.675781 7.164062 C 19.539062 7 19.441406 6.824219 19.398438 6.65625 C 19.382812 6.589844 19.375 6.542969 19.375 6.476562 C 19.371094 6.429688 19.371094 6.414062 19.367188 6.390625 C 19.347656 6.292969 19.285156 6.207031 19.199219 6.15625 C 19.160156 6.132812 19.121094 6.117188 19.074219 6.109375 C 19.050781 6.105469 18.996094 6.101562 18.972656 6.105469 Z M 19.078125 7.558594 C 19.1875 7.703125 19.324219 7.839844 19.46875 7.957031 C 19.496094 7.980469 19.554688 8.023438 19.570312 8.03125 C 19.574219 8.035156 19.574219 8.039062 19.574219 8.039062 C 19.574219 8.039062 19.5625 8.046875 19.550781 8.058594 C 19.355469 8.199219 19.179688 8.378906 19.035156 8.570312 C 19.027344 8.585938 19.015625 8.597656 19.015625 8.597656 C 19.015625 8.597656 19.007812 8.585938 18.996094 8.570312 C 18.859375 8.382812 18.679688 8.199219 18.488281 8.0625 C 18.472656 8.050781 18.460938 8.042969 18.460938 8.039062 L 18.457031 8.039062 L 18.464844 8.03125 C 18.621094 7.921875 18.773438 7.777344 18.902344 7.625 C 18.9375 7.585938 18.984375 7.523438 19.007812 7.488281 L 19.015625 7.476562 L 19.035156 7.503906 C 19.046875 7.519531 19.066406 7.542969 19.078125 7.558594 Z M 19.078125 7.558594 "/>
<path style=" stroke:none;fill-rule:nonzero;fill:rgb(0%,0%,0%);fill-opacity:1;" d="M 4.429688 7.855469 C 4.394531 7.859375 4.351562 7.871094 4.320312 7.882812 C 4.253906 7.914062 4.199219 7.960938 4.164062 8.019531 C 4.152344 8.035156 4.136719 8.070312 4.132812 8.085938 C 4.125 8.105469 4.117188 8.136719 4.113281 8.15625 L 4.109375 8.175781 L 4.109375 8.664062 C 4.109375 9.160156 4.109375 9.191406 4.113281 9.242188 C 4.136719 9.488281 4.234375 9.710938 4.394531 9.898438 C 4.414062 9.921875 4.460938 9.964844 4.484375 9.988281 C 4.667969 10.152344 4.902344 10.257812 5.144531 10.28125 C 5.15625 10.28125 5.167969 10.285156 5.171875 10.285156 C 5.175781 10.285156 5.414062 10.285156 5.703125 10.285156 L 6.230469 10.285156 L 6.492188 10.691406 C 6.636719 10.914062 6.757812 11.105469 6.765625 11.113281 C 6.777344 11.128906 6.800781 11.15625 6.820312 11.171875 C 6.859375 11.207031 6.917969 11.234375 6.972656 11.246094 C 7.007812 11.253906 6.992188 11.253906 7.28125 11.253906 L 7.550781 11.253906 L 7.550781 16.464844 L 6.667969 16.464844 C 6.007812 16.464844 5.78125 16.464844 5.761719 16.464844 C 5.683594 16.472656 5.648438 16.476562 5.597656 16.480469 C 5.28125 16.519531 4.984375 16.621094 4.710938 16.777344 C 4.453125 16.925781 4.226562 17.121094 4.039062 17.351562 C 3.660156 17.828125 3.476562 18.421875 3.527344 19.03125 C 3.566406 19.480469 3.726562 19.90625 4 20.265625 C 4.324219 20.691406 4.78125 21 5.296875 21.132812 C 5.457031 21.171875 5.621094 21.195312 5.792969 21.203125 C 5.84375 21.207031 5.988281 21.207031 6.035156 21.203125 C 6.25 21.1875 6.445312 21.148438 6.640625 21.085938 C 6.964844 20.976562 7.261719 20.800781 7.511719 20.566406 C 7.542969 20.539062 7.609375 20.472656 7.632812 20.445312 C 7.816406 20.246094 7.960938 20.023438 8.070312 19.777344 C 8.175781 19.527344 8.242188 19.253906 8.257812 18.976562 C 8.261719 18.914062 8.261719 18.847656 8.261719 18.027344 L 8.261719 17.175781 L 9.765625 17.175781 L 9.765625 17.605469 C 9.765625 18.085938 9.765625 18.039062 9.777344 18.082031 C 9.808594 18.214844 9.910156 18.3125 10.039062 18.34375 C 10.082031 18.355469 10.046875 18.351562 10.464844 18.351562 L 10.84375 18.355469 L 10.84375 18.761719 C 10.84375 19.164062 10.84375 19.191406 10.847656 19.25 C 10.875 19.589844 11.003906 19.914062 11.222656 20.175781 C 11.285156 20.25 11.363281 20.328125 11.4375 20.390625 C 11.511719 20.453125 11.589844 20.507812 11.675781 20.554688 C 11.714844 20.578125 11.742188 20.589844 11.777344 20.597656 C 11.808594 20.605469 11.828125 20.609375 11.863281 20.609375 C 11.898438 20.609375 11.910156 20.605469 11.9375 20.601562 C 12.082031 20.570312 12.195312 20.453125 12.21875 20.304688 C 12.230469 20.21875 12.210938 20.128906 12.164062 20.058594 C 12.128906 20.007812 12.09375 19.972656 12.035156 19.9375 C 11.980469 19.90625 11.9375 19.878906 11.890625 19.839844 C 11.726562 19.703125 11.613281 19.511719 11.574219 19.304688 C 11.566406 19.273438 11.5625 19.238281 11.558594 19.207031 C 11.554688 19.183594 11.554688 19.097656 11.554688 17.195312 C 11.554688 15.292969 11.554688 15.210938 11.558594 15.183594 C 11.566406 15.097656 11.578125 15.03125 11.597656 14.957031 C 11.640625 14.808594 11.714844 14.667969 11.808594 14.546875 C 11.839844 14.507812 11.859375 14.484375 11.902344 14.445312 C 11.964844 14.382812 12.015625 14.339844 12.085938 14.296875 C 12.246094 14.1875 12.429688 14.121094 12.625 14.105469 C 12.691406 14.097656 12.738281 14.097656 12.851562 14.105469 C 13.890625 14.160156 14.832031 14.25 15.675781 14.375 C 15.722656 14.382812 15.765625 14.386719 15.765625 14.386719 C 15.765625 14.386719 15.773438 14.402344 15.785156 14.4375 C 15.792969 14.46875 15.886719 14.75 15.992188 15.066406 C 16.09375 15.382812 16.183594 15.652344 16.1875 15.664062 C 16.304688 15.980469 16.53125 16.234375 16.832031 16.382812 C 16.890625 16.414062 16.9375 16.433594 17.011719 16.457031 C 17.285156 16.550781 17.507812 16.640625 17.75 16.757812 C 17.828125 16.792969 17.964844 16.863281 18.042969 16.90625 C 18.625 17.21875 19.136719 17.613281 19.554688 18.066406 C 19.910156 18.449219 20.191406 18.878906 20.398438 19.335938 C 20.496094 19.558594 20.578125 19.792969 20.640625 20.027344 L 20.648438 20.058594 L 18.960938 20.0625 C 17.378906 20.0625 17.269531 20.0625 17.257812 20.0625 C 17.195312 20.074219 17.144531 20.097656 17.097656 20.132812 C 17.078125 20.144531 17.042969 20.183594 17.027344 20.199219 C 16.988281 20.253906 16.96875 20.308594 16.957031 20.375 C 16.957031 20.394531 16.957031 20.441406 16.960938 20.464844 C 16.96875 20.542969 17.003906 20.609375 17.058594 20.664062 C 17.113281 20.722656 17.179688 20.753906 17.257812 20.769531 C 17.269531 20.773438 17.34375 20.773438 19.164062 20.773438 C 20.207031 20.773438 21.070312 20.773438 21.085938 20.773438 C 21.113281 20.773438 21.15625 20.773438 21.203125 20.769531 C 21.445312 20.75 21.671875 20.65625 21.859375 20.503906 C 21.921875 20.453125 21.988281 20.386719 22.039062 20.328125 C 22.195312 20.132812 22.285156 19.902344 22.304688 19.648438 C 22.308594 19.566406 22.304688 19.367188 22.292969 19.199219 C 22.25 18.574219 22.101562 17.972656 21.84375 17.40625 C 21.789062 17.289062 21.730469 17.164062 21.664062 17.050781 C 21.457031 16.667969 21.191406 16.300781 20.886719 15.972656 C 20.78125 15.859375 20.640625 15.714844 20.523438 15.609375 C 19.78125 14.925781 18.839844 14.402344 17.792969 14.089844 C 17.703125 14.0625 17.621094 14.039062 17.523438 14.011719 C 16.367188 13.707031 14.789062 13.496094 12.914062 13.394531 C 12.765625 13.386719 12.691406 13.386719 12.601562 13.390625 C 12.269531 13.414062 11.957031 13.523438 11.683594 13.707031 C 11.480469 13.839844 11.304688 14.015625 11.167969 14.214844 C 10.992188 14.476562 10.882812 14.777344 10.851562 15.089844 C 10.847656 15.128906 10.84375 15.1875 10.84375 15.203125 C 10.84375 15.207031 10.84375 15.214844 10.84375 15.21875 L 10.839844 15.222656 L 10.464844 15.222656 C 10.039062 15.222656 10.078125 15.222656 10.035156 15.234375 C 9.90625 15.265625 9.808594 15.363281 9.777344 15.492188 C 9.765625 15.535156 9.765625 15.488281 9.765625 16.003906 L 9.765625 16.464844 L 8.261719 16.464844 L 8.261719 11.253906 L 8.53125 11.253906 C 8.828125 11.253906 8.808594 11.253906 8.847656 11.242188 C 8.925781 11.226562 9 11.179688 9.046875 11.113281 C 9.054688 11.105469 9.175781 10.917969 9.320312 10.695312 L 9.585938 10.285156 L 10.109375 10.285156 C 10.679688 10.285156 10.636719 10.285156 10.699219 10.277344 C 11.03125 10.234375 11.328125 10.050781 11.511719 9.773438 C 11.625 9.605469 11.6875 9.421875 11.703125 9.21875 C 11.703125 9.179688 11.703125 8.1875 11.703125 8.167969 C 11.6875 8.074219 11.644531 7.992188 11.574219 7.933594 C 11.523438 7.894531 11.464844 7.867188 11.398438 7.855469 C 11.382812 7.855469 11.242188 7.855469 7.914062 7.855469 C 5.851562 7.855469 4.4375 7.855469 4.429688 7.855469 Z M 10.992188 8.875 L 10.988281 9.179688 L 10.988281 9.199219 C 10.980469 9.234375 10.972656 9.269531 10.960938 9.296875 C 10.921875 9.398438 10.847656 9.480469 10.75 9.527344 C 10.695312 9.554688 10.644531 9.570312 10.582031 9.574219 C 10.5625 9.574219 9.78125 9.574219 7.890625 9.574219 C 5.398438 9.574219 5.222656 9.574219 5.207031 9.570312 C 5.125 9.558594 5.058594 9.535156 4.996094 9.488281 C 4.902344 9.417969 4.84375 9.316406 4.824219 9.199219 L 4.824219 8.871094 L 4.820312 8.566406 L 10.992188 8.566406 Z M 8.730469 10.292969 C 8.730469 10.296875 8.691406 10.355469 8.648438 10.421875 L 8.570312 10.539062 L 7.242188 10.539062 L 7.160156 10.414062 L 7.078125 10.285156 L 8.734375 10.285156 Z M 16.632812 14.539062 C 16.921875 14.597656 17.203125 14.664062 17.4375 14.730469 C 17.984375 14.878906 18.507812 15.097656 18.984375 15.367188 C 19.375 15.589844 19.726562 15.847656 20.042969 16.136719 C 20.148438 16.230469 20.273438 16.355469 20.367188 16.460938 C 20.761719 16.890625 21.066406 17.375 21.273438 17.890625 C 21.449219 18.332031 21.554688 18.789062 21.585938 19.273438 C 21.59375 19.414062 21.597656 19.582031 21.589844 19.628906 C 21.570312 19.769531 21.5 19.890625 21.382812 19.972656 C 21.363281 19.984375 21.367188 19.984375 21.359375 19.96875 C 21.289062 19.65625 21.183594 19.351562 21.054688 19.0625 C 20.609375 18.054688 19.839844 17.183594 18.816406 16.53125 C 18.554688 16.367188 18.269531 16.210938 17.980469 16.078125 C 17.746094 15.96875 17.515625 15.878906 17.257812 15.789062 C 17.199219 15.769531 17.183594 15.761719 17.148438 15.746094 C 17.058594 15.699219 16.988281 15.636719 16.929688 15.554688 C 16.902344 15.519531 16.875 15.464844 16.859375 15.421875 C 16.851562 15.40625 16.582031 14.582031 16.5625 14.527344 C 16.5625 14.527344 16.5625 14.527344 16.566406 14.527344 C 16.566406 14.527344 16.597656 14.53125 16.632812 14.539062 Z M 10.84375 16.789062 L 10.84375 17.640625 L 10.480469 17.640625 L 10.480469 15.933594 L 10.84375 15.933594 Z M 7.550781 18.046875 C 7.550781 19 7.550781 18.925781 7.542969 19.003906 C 7.503906 19.378906 7.339844 19.726562 7.074219 19.996094 C 6.828125 20.246094 6.511719 20.414062 6.167969 20.472656 C 5.902344 20.515625 5.628906 20.496094 5.375 20.410156 C 4.957031 20.273438 4.613281 19.976562 4.414062 19.585938 C 4.265625 19.300781 4.207031 18.976562 4.242188 18.652344 C 4.289062 18.222656 4.503906 17.828125 4.839844 17.550781 C 4.988281 17.429688 5.15625 17.335938 5.339844 17.269531 C 5.503906 17.210938 5.683594 17.179688 5.863281 17.175781 C 5.875 17.175781 6.257812 17.175781 6.71875 17.175781 L 7.550781 17.175781 Z M 7.550781 18.046875 "/>
<path style=" stroke:none;fill-rule:nonzero;fill:rgb(0%,0%,0%);fill-opacity:1;" d="M 14.890625 7.953125 C 14.808594 7.964844 14.726562 8 14.667969 8.058594 C 14.613281 8.113281 14.578125 8.191406 14.570312 8.265625 C 14.566406 8.277344 14.566406 8.300781 14.566406 8.320312 C 14.566406 8.378906 14.5625 8.414062 14.554688 8.46875 C 14.511719 8.765625 14.34375 9.097656 14.09375 9.382812 C 14.027344 9.460938 13.933594 9.550781 13.859375 9.617188 C 13.59375 9.847656 13.296875 10.003906 13.019531 10.0625 C 12.945312 10.074219 12.894531 10.082031 12.804688 10.085938 C 12.738281 10.085938 12.714844 10.089844 12.675781 10.105469 C 12.621094 10.125 12.578125 10.152344 12.535156 10.191406 C 12.480469 10.25 12.449219 10.320312 12.4375 10.402344 C 12.433594 10.421875 12.4375 10.464844 12.4375 10.484375 C 12.445312 10.546875 12.472656 10.609375 12.507812 10.65625 C 12.523438 10.675781 12.550781 10.703125 12.566406 10.71875 C 12.605469 10.75 12.65625 10.773438 12.703125 10.785156 C 12.730469 10.792969 12.75 10.796875 12.792969 10.796875 C 12.84375 10.796875 12.859375 10.800781 12.886719 10.800781 C 13.15625 10.828125 13.449219 10.949219 13.726562 11.15625 C 14.03125 11.386719 14.289062 11.695312 14.433594 12.015625 C 14.503906 12.175781 14.546875 12.328125 14.5625 12.476562 C 14.5625 12.503906 14.566406 12.519531 14.566406 12.574219 C 14.566406 12.605469 14.570312 12.617188 14.570312 12.632812 C 14.585938 12.707031 14.621094 12.773438 14.675781 12.828125 C 14.714844 12.863281 14.757812 12.894531 14.8125 12.910156 C 14.851562 12.921875 14.882812 12.925781 14.921875 12.925781 C 14.964844 12.925781 14.996094 12.921875 15.035156 12.910156 C 15.085938 12.894531 15.132812 12.867188 15.167969 12.828125 C 15.226562 12.773438 15.261719 12.707031 15.273438 12.632812 C 15.277344 12.621094 15.277344 12.605469 15.277344 12.59375 C 15.277344 12.585938 15.277344 12.558594 15.28125 12.539062 C 15.28125 12.46875 15.289062 12.410156 15.304688 12.34375 C 15.34375 12.144531 15.4375 11.933594 15.570312 11.734375 C 15.636719 11.636719 15.710938 11.542969 15.792969 11.449219 C 15.820312 11.421875 15.917969 11.328125 15.945312 11.300781 C 16.085938 11.175781 16.226562 11.074219 16.375 10.992188 C 16.40625 10.976562 16.480469 10.9375 16.511719 10.925781 C 16.660156 10.859375 16.800781 10.820312 16.9375 10.804688 C 16.96875 10.800781 17 10.796875 17.050781 10.796875 C 17.101562 10.796875 17.125 10.792969 17.160156 10.78125 C 17.242188 10.757812 17.3125 10.703125 17.355469 10.628906 C 17.367188 10.613281 17.382812 10.578125 17.390625 10.558594 C 17.398438 10.539062 17.402344 10.511719 17.40625 10.488281 C 17.410156 10.460938 17.410156 10.414062 17.40625 10.390625 C 17.382812 10.234375 17.269531 10.117188 17.113281 10.089844 C 17.101562 10.085938 17.082031 10.085938 17.039062 10.085938 C 16.984375 10.082031 16.953125 10.082031 16.914062 10.074219 C 16.585938 10.03125 16.226562 9.84375 15.917969 9.554688 C 15.886719 9.527344 15.824219 9.460938 15.796875 9.433594 C 15.585938 9.203125 15.429688 8.949219 15.34375 8.691406 C 15.316406 8.601562 15.296875 8.511719 15.285156 8.425781 C 15.28125 8.394531 15.28125 8.363281 15.277344 8.308594 C 15.277344 8.265625 15.273438 8.25 15.269531 8.222656 C 15.253906 8.175781 15.230469 8.125 15.199219 8.085938 C 15.144531 8.015625 15.0625 7.972656 14.972656 7.957031 C 14.953125 7.953125 14.910156 7.953125 14.890625 7.953125 Z M 14.933594 9.476562 C 15.007812 9.597656 15.113281 9.738281 15.214844 9.855469 C 15.410156 10.074219 15.644531 10.277344 15.878906 10.425781 C 15.894531 10.433594 15.902344 10.441406 15.902344 10.441406 C 15.902344 10.441406 15.898438 10.445312 15.886719 10.453125 C 15.847656 10.476562 15.777344 10.523438 15.730469 10.558594 C 15.480469 10.738281 15.253906 10.964844 15.070312 11.207031 C 15.027344 11.265625 14.964844 11.355469 14.933594 11.40625 C 14.929688 11.414062 14.921875 11.421875 14.921875 11.421875 C 14.921875 11.421875 14.917969 11.414062 14.914062 11.40625 C 14.898438 11.382812 14.847656 11.308594 14.824219 11.277344 C 14.625 10.992188 14.371094 10.738281 14.089844 10.539062 C 14.054688 10.515625 13.980469 10.464844 13.957031 10.449219 C 13.949219 10.445312 13.941406 10.441406 13.941406 10.441406 C 13.941406 10.441406 13.949219 10.433594 13.960938 10.429688 C 13.972656 10.421875 14 10.402344 14.019531 10.390625 C 14.257812 10.234375 14.476562 10.035156 14.664062 9.8125 C 14.75 9.710938 14.847656 9.582031 14.910156 9.480469 C 14.917969 9.46875 14.921875 9.460938 14.921875 9.460938 C 14.921875 9.460938 14.929688 9.46875 14.933594 9.476562 Z M 14.933594 9.476562 "/>
<path style=" stroke:none;fill-rule:nonzero;fill:rgb(0%,0%,0%);fill-opacity:1;" d="M 13.234375 14.671875 C 13.03125 14.6875 12.847656 14.785156 12.726562 14.949219 C 12.699219 14.980469 12.679688 15.019531 12.65625 15.058594 C 12.617188 15.136719 12.597656 15.214844 12.589844 15.304688 C 12.585938 15.332031 12.585938 15.40625 12.589844 15.4375 C 12.605469 15.597656 12.675781 15.742188 12.789062 15.855469 C 12.902344 15.972656 13.046875 16.039062 13.210938 16.058594 C 13.226562 16.058594 13.246094 16.058594 13.28125 16.058594 C 13.332031 16.058594 13.351562 16.058594 13.398438 16.050781 C 13.613281 16.011719 13.800781 15.875 13.898438 15.675781 C 13.953125 15.566406 13.980469 15.445312 13.972656 15.324219 C 13.964844 15.1875 13.917969 15.058594 13.832031 14.949219 C 13.8125 14.921875 13.796875 14.90625 13.773438 14.878906 C 13.714844 14.820312 13.65625 14.777344 13.585938 14.742188 C 13.511719 14.707031 13.429688 14.683594 13.347656 14.675781 C 13.320312 14.671875 13.261719 14.671875 13.234375 14.671875 Z M 13.234375 14.671875 "/>
<path style=" stroke:none;fill-rule:nonzero;fill:rgb(0%,0%,0%);fill-opacity:1;" d="M 14.539062 17.238281 C 14.535156 17.238281 14.519531 17.242188 14.503906 17.242188 C 14.246094 17.253906 13.984375 17.316406 13.746094 17.421875 C 13.699219 17.445312 13.617188 17.484375 13.574219 17.507812 C 13.441406 17.585938 13.316406 17.671875 13.203125 17.773438 C 13.125 17.835938 13.046875 17.917969 12.980469 17.992188 C 12.6875 18.335938 12.507812 18.765625 12.46875 19.21875 C 12.464844 19.289062 12.464844 19.308594 12.464844 19.398438 C 12.464844 19.488281 12.464844 19.507812 12.46875 19.578125 C 12.503906 20.007812 12.667969 20.414062 12.9375 20.75 C 13.023438 20.855469 13.121094 20.957031 13.222656 21.042969 C 13.40625 21.203125 13.625 21.332031 13.855469 21.417969 C 14.050781 21.492188 14.257812 21.539062 14.46875 21.554688 C 14.527344 21.558594 14.570312 21.558594 14.648438 21.558594 C 14.722656 21.558594 14.742188 21.558594 14.796875 21.550781 C 15.226562 21.519531 15.636719 21.355469 15.972656 21.085938 C 16.199219 20.90625 16.382812 20.683594 16.523438 20.429688 C 16.777344 19.96875 16.847656 19.417969 16.726562 18.898438 C 16.675781 18.6875 16.59375 18.480469 16.480469 18.292969 C 16.355469 18.085938 16.199219 17.898438 16.011719 17.742188 C 15.671875 17.457031 15.257812 17.285156 14.816406 17.246094 C 14.75 17.242188 14.726562 17.238281 14.636719 17.238281 C 14.585938 17.238281 14.542969 17.238281 14.539062 17.238281 Z M 14.707031 17.953125 C 14.875 17.964844 15.035156 18 15.1875 18.0625 C 15.394531 18.152344 15.578125 18.285156 15.726562 18.460938 C 15.847656 18.601562 15.941406 18.773438 16 18.949219 C 16.058594 19.132812 16.082031 19.328125 16.066406 19.519531 C 16.054688 19.65625 16.023438 19.789062 15.976562 19.914062 C 15.945312 20 15.898438 20.089844 15.851562 20.164062 C 15.683594 20.429688 15.441406 20.632812 15.152344 20.746094 C 14.917969 20.839844 14.664062 20.867188 14.410156 20.832031 C 14.167969 20.796875 13.9375 20.695312 13.738281 20.546875 C 13.660156 20.484375 13.578125 20.40625 13.511719 20.324219 C 13.324219 20.101562 13.210938 19.832031 13.183594 19.542969 C 13.175781 19.492188 13.175781 19.472656 13.175781 19.398438 C 13.175781 19.324219 13.175781 19.304688 13.183594 19.253906 C 13.195312 19.125 13.226562 19 13.269531 18.882812 C 13.300781 18.796875 13.347656 18.710938 13.394531 18.632812 C 13.523438 18.425781 13.707031 18.25 13.917969 18.132812 C 14.101562 18.03125 14.300781 17.972656 14.511719 17.953125 C 14.570312 17.949219 14.648438 17.949219 14.707031 17.953125 Z M 14.707031 17.953125 "/>
<path style=" stroke:none;fill-rule:nonzero;fill:rgb(0%,0%,0%);fill-opacity:1;" d="M 14.589844 18.480469 C 14.371094 18.488281 14.171875 18.570312 14.011719 18.710938 C 13.988281 18.730469 13.945312 18.773438 13.925781 18.796875 C 13.8125 18.929688 13.738281 19.089844 13.710938 19.265625 C 13.707031 19.316406 13.703125 19.332031 13.703125 19.398438 C 13.703125 19.460938 13.703125 19.476562 13.710938 19.523438 C 13.742188 19.757812 13.863281 19.972656 14.050781 20.121094 C 14.273438 20.296875 14.566406 20.359375 14.84375 20.292969 C 15.078125 20.234375 15.285156 20.085938 15.410156 19.875 C 15.550781 19.648438 15.582031 19.367188 15.5 19.113281 C 15.402344 18.8125 15.15625 18.585938 14.851562 18.507812 C 14.765625 18.484375 14.675781 18.476562 14.589844 18.480469 Z M 14.664062 19.195312 C 14.746094 19.210938 14.808594 19.273438 14.828125 19.355469 C 14.832031 19.375 14.832031 19.40625 14.828125 19.429688 C 14.824219 19.472656 14.800781 19.511719 14.769531 19.546875 C 14.742188 19.574219 14.703125 19.59375 14.660156 19.601562 C 14.644531 19.605469 14.605469 19.605469 14.585938 19.601562 C 14.542969 19.59375 14.507812 19.574219 14.476562 19.546875 C 14.453125 19.519531 14.4375 19.496094 14.425781 19.464844 C 14.410156 19.414062 14.414062 19.359375 14.4375 19.308594 C 14.453125 19.269531 14.492188 19.234375 14.53125 19.210938 C 14.5625 19.195312 14.59375 19.191406 14.628906 19.191406 C 14.640625 19.191406 14.652344 19.191406 14.664062 19.195312 Z M 14.664062 19.195312 "/>
</g>
</svg>
