<?xml version="1.0" encoding="UTF-8"?>
<svg xmlns="http://www.w3.org/2000/svg" xmlns:xlink="http://www.w3.org/1999/xlink" viewBox="0 0 24 24" version="1.1">
<g>
<path style=" stroke:none;fill-rule:nonzero;fill:rgb(0.392157%,0.392157%,0.392157%);fill-opacity:1;" d="M 19.59375 19.800781 L 14.253906 19.800781 C 14.199219 19.800781 14.144531 19.796875 14.089844 19.8125 C 13.933594 19.851562 13.828125 20.003906 13.832031 20.164062 C 13.835938 20.324219 13.949219 20.464844 14.105469 20.503906 C 14.152344 20.515625 14.203125 20.511719 14.253906 20.511719 L 19.636719 20.511719 C 19.636719 20.570312 19.640625 20.625 19.644531 20.683594 C 19.652344 20.769531 19.65625 20.851562 19.660156 20.9375 C 19.664062 20.996094 19.671875 21.058594 19.667969 21.117188 C 19.65625 21.246094 19.597656 21.363281 19.5 21.449219 C 19.429688 21.507812 19.34375 21.550781 19.253906 21.5625 C 19.171875 21.570312 19.089844 21.566406 19.007812 21.566406 L 13.832031 21.566406 C 13.769531 21.566406 13.707031 21.5625 13.644531 21.574219 C 13.519531 21.597656 13.417969 21.6875 13.375 21.804688 C 13.3125 21.996094 13.421875 22.214844 13.621094 22.265625 C 13.679688 22.28125 13.738281 22.277344 13.796875 22.277344 L 19.007812 22.277344 C 19.140625 22.277344 19.269531 22.28125 19.398438 22.261719 C 19.667969 22.210938 19.914062 22.070312 20.09375 21.859375 C 20.253906 21.675781 20.351562 21.441406 20.375 21.195312 C 20.386719 21.085938 20.378906 20.980469 20.371094 20.871094 C 20.363281 20.75 20.359375 20.632812 20.347656 20.511719 C 20.339844 20.386719 20.335938 20.261719 20.328125 20.136719 C 20.28125 19.464844 20.253906 18.792969 20.207031 18.121094 C 20.171875 17.582031 20.152344 17.042969 20.113281 16.503906 C 20.085938 16.066406 20.066406 15.628906 20.039062 15.191406 C 19.96875 14.199219 19.929688 13.207031 19.863281 12.214844 C 19.84375 11.945312 19.832031 11.671875 19.8125 11.402344 C 19.789062 11.058594 19.777344 10.714844 19.753906 10.375 C 19.699219 9.601562 19.667969 8.828125 19.617188 8.054688 C 19.601562 7.855469 19.59375 7.65625 19.582031 7.457031 C 19.574219 7.351562 19.574219 7.246094 19.558594 7.140625 C 19.542969 7.011719 19.511719 6.882812 19.46875 6.757812 C 19.34375 6.402344 19.101562 6.09375 18.789062 5.882812 C 18.6875 5.8125 18.574219 5.761719 18.464844 5.703125 L 18.078125 5.511719 L 17.476562 5.210938 C 17.460938 5.203125 17.433594 5.195312 17.421875 5.179688 C 17.414062 5.171875 17.417969 5.15625 17.414062 5.148438 C 17.410156 5.113281 17.40625 5.082031 17.40625 5.046875 C 17.390625 4.933594 17.378906 4.820312 17.367188 4.707031 C 17.320312 4.265625 17.265625 3.824219 17.21875 3.386719 C 17.210938 3.304688 17.203125 3.222656 17.191406 3.144531 C 17.1875 3.09375 17.183594 3.039062 17.171875 2.988281 C 17.148438 2.894531 17.089844 2.8125 17.003906 2.765625 C 16.9375 2.726562 16.863281 2.710938 16.789062 2.691406 C 16.648438 2.660156 16.507812 2.640625 16.367188 2.628906 C 16.171875 2.609375 15.980469 2.605469 15.789062 2.601562 C 15.503906 2.59375 15.21875 2.609375 14.933594 2.644531 C 14.847656 2.65625 14.757812 2.671875 14.667969 2.691406 C 14.597656 2.707031 14.519531 2.722656 14.453125 2.757812 C 14.375 2.796875 14.3125 2.871094 14.28125 2.953125 C 14.257812 3.015625 14.257812 3.089844 14.25 3.15625 C 14.238281 3.269531 14.222656 3.382812 14.210938 3.496094 C 14.171875 3.863281 14.128906 4.226562 14.089844 4.59375 C 14.074219 4.734375 14.058594 4.878906 14.042969 5.023438 C 14.039062 5.0625 14.03125 5.097656 14.027344 5.136719 C 14.027344 5.148438 14.03125 5.171875 14.023438 5.179688 C 14.015625 5.191406 14 5.195312 13.988281 5.199219 L 13.910156 5.238281 L 13.632812 5.375 L 13.050781 5.667969 C 12.914062 5.738281 12.773438 5.800781 12.644531 5.890625 C 12.527344 5.972656 12.417969 6.066406 12.320312 6.175781 C 12.113281 6.40625 11.972656 6.6875 11.910156 6.988281 C 11.875 7.132812 11.871094 7.28125 11.863281 7.425781 C 11.847656 7.644531 11.839844 7.859375 11.824219 8.074219 C 11.78125 8.726562 11.753906 9.382812 11.710938 10.035156 C 11.703125 10.136719 11.699219 10.242188 11.691406 10.34375 C 11.6875 10.40625 11.675781 10.472656 11.683594 10.535156 C 11.691406 10.628906 11.734375 10.714844 11.808594 10.777344 C 11.953125 10.902344 12.175781 10.882812 12.304688 10.742188 C 12.332031 10.710938 12.355469 10.675781 12.371094 10.636719 C 12.390625 10.582031 12.394531 10.527344 12.398438 10.46875 C 12.402344 10.390625 12.40625 10.308594 12.410156 10.230469 C 12.429688 9.964844 12.441406 9.695312 12.460938 9.429688 C 12.496094 8.878906 12.519531 8.332031 12.554688 7.78125 C 12.5625 7.667969 12.566406 7.554688 12.574219 7.445312 C 12.582031 7.367188 12.582031 7.292969 12.589844 7.21875 C 12.609375 7.09375 12.648438 6.96875 12.707031 6.859375 C 12.789062 6.710938 12.898438 6.582031 13.039062 6.484375 C 13.109375 6.433594 13.1875 6.398438 13.265625 6.359375 L 14.351562 5.816406 L 14.410156 5.785156 C 14.421875 5.78125 14.429688 5.773438 14.441406 5.773438 C 14.457031 5.769531 14.476562 5.769531 14.492188 5.769531 L 16.96875 5.769531 C 16.980469 5.769531 16.992188 5.769531 17.003906 5.773438 C 17.023438 5.777344 17.042969 5.792969 17.058594 5.800781 L 17.171875 5.855469 L 17.535156 6.039062 L 18.054688 6.296875 C 18.160156 6.351562 18.269531 6.398438 18.371094 6.460938 C 18.515625 6.554688 18.640625 6.6875 18.722656 6.839844 C 18.785156 6.949219 18.828125 7.074219 18.847656 7.203125 C 18.859375 7.285156 18.863281 7.367188 18.867188 7.449219 C 18.878906 7.59375 18.882812 7.738281 18.894531 7.878906 C 18.9375 8.527344 18.960938 9.171875 19.007812 9.816406 C 19.039062 10.304688 19.058594 10.789062 19.09375 11.277344 C 19.152344 12.148438 19.1875 13.019531 19.246094 13.890625 C 19.261719 14.132812 19.273438 14.371094 19.289062 14.609375 C 19.308594 14.914062 19.320312 15.214844 19.34375 15.519531 C 19.371094 15.910156 19.382812 16.300781 19.410156 16.691406 C 19.460938 17.40625 19.488281 18.125 19.539062 18.84375 C 19.554688 19.066406 19.5625 19.289062 19.578125 19.511719 C 19.582031 19.609375 19.582031 19.703125 19.59375 19.800781 M 5.398438 4.910156 C 5.382812 4.941406 5.378906 4.972656 5.367188 5.003906 C 5.351562 5.058594 5.332031 5.113281 5.3125 5.164062 C 5.253906 5.332031 5.1875 5.5 5.113281 5.660156 C 4.878906 6.175781 4.589844 6.667969 4.265625 7.132812 C 4.191406 7.242188 4.117188 7.347656 4.042969 7.457031 C 3.992188 7.527344 3.9375 7.597656 3.898438 7.675781 C 3.839844 7.792969 3.835938 7.9375 3.878906 8.0625 C 3.902344 8.117188 3.933594 8.171875 3.972656 8.214844 C 4.09375 8.347656 4.28125 8.394531 4.449219 8.335938 C 4.53125 8.304688 4.601562 8.25 4.671875 8.203125 C 4.792969 8.125 4.914062 8.042969 5.027344 7.957031 C 5.238281 7.796875 5.445312 7.632812 5.640625 7.457031 C 6.027344 7.105469 6.378906 6.703125 6.660156 6.261719 C 6.757812 6.105469 6.847656 5.945312 6.929688 5.777344 C 6.957031 5.726562 6.984375 5.671875 7.007812 5.617188 C 7.019531 5.59375 7.035156 5.566406 7.039062 5.539062 C 7.109375 5.617188 7.15625 5.707031 7.207031 5.792969 C 7.175781 5.804688 7.140625 5.824219 7.117188 5.84375 C 7.027344 5.90625 6.964844 5.996094 6.929688 6.097656 C 6.894531 6.199219 6.90625 6.308594 6.90625 6.414062 L 6.90625 7.15625 C 6.90625 7.160156 6.90625 7.171875 6.90625 7.179688 C 6.902344 7.1875 6.890625 7.191406 6.886719 7.195312 C 6.871094 7.207031 6.855469 7.21875 6.839844 7.234375 C 6.789062 7.277344 6.738281 7.320312 6.691406 7.371094 C 6.558594 7.511719 6.453125 7.691406 6.414062 7.882812 C 6.394531 7.96875 6.386719 8.054688 6.390625 8.140625 C 6.402344 8.390625 6.5 8.621094 6.628906 8.828125 C 6.675781 8.90625 6.726562 8.984375 6.78125 9.058594 C 6.800781 9.082031 6.816406 9.105469 6.832031 9.128906 C 6.839844 9.136719 6.851562 9.148438 6.855469 9.160156 C 6.855469 9.164062 6.851562 9.167969 6.847656 9.171875 C 6.839844 9.183594 6.832031 9.191406 6.824219 9.203125 C 6.792969 9.242188 6.765625 9.285156 6.742188 9.332031 C 6.65625 9.476562 6.609375 9.632812 6.585938 9.796875 C 6.558594 10.019531 6.597656 10.246094 6.671875 10.453125 C 6.695312 10.523438 6.722656 10.59375 6.757812 10.660156 C 6.765625 10.679688 6.777344 10.703125 6.789062 10.722656 C 6.792969 10.730469 6.804688 10.742188 6.804688 10.753906 C 6.804688 10.761719 6.789062 10.777344 6.78125 10.78125 C 6.761719 10.8125 6.742188 10.839844 6.722656 10.867188 C 6.660156 10.957031 6.609375 11.058594 6.566406 11.160156 C 6.445312 11.46875 6.425781 11.824219 6.519531 12.144531 C 6.476562 12.160156 6.441406 12.191406 6.40625 12.214844 C 6.339844 12.257812 6.273438 12.304688 6.207031 12.347656 C 5.980469 12.503906 5.761719 12.664062 5.554688 12.839844 C 5.042969 13.261719 4.578125 13.753906 4.261719 14.339844 C 4.128906 14.585938 4.027344 14.847656 3.945312 15.117188 C 3.855469 15.40625 3.789062 15.703125 3.746094 16 C 3.566406 17.214844 3.714844 18.445312 4.015625 19.625 C 4.152344 20.175781 4.332031 20.714844 4.53125 21.246094 C 4.566406 21.332031 4.597656 21.417969 4.632812 21.503906 C 4.65625 21.570312 4.679688 21.632812 4.707031 21.695312 C 4.765625 21.816406 4.84375 21.929688 4.945312 22.019531 C 5.082031 22.144531 5.246094 22.234375 5.429688 22.265625 C 5.507812 22.28125 5.585938 22.277344 5.664062 22.277344 L 11.601562 22.277344 C 11.824219 22.277344 12.054688 22.300781 12.269531 22.21875 C 12.5 22.128906 12.683594 21.941406 12.796875 21.726562 C 12.859375 21.605469 12.898438 21.472656 12.945312 21.34375 C 13.175781 20.691406 13.347656 20.011719 13.457031 19.328125 C 13.59375 18.441406 13.636719 17.539062 13.546875 16.648438 C 13.496094 16.109375 13.410156 15.570312 13.273438 15.042969 C 13.203125 14.773438 13.125 14.507812 13.03125 14.242188 C 12.839844 13.695312 12.605469 13.160156 12.328125 12.648438 C 12.050781 12.132812 11.730469 11.636719 11.375 11.167969 C 11.289062 11.054688 11.199219 10.941406 11.109375 10.828125 C 11.03125 10.734375 10.953125 10.640625 10.882812 10.539062 C 10.757812 10.355469 10.652344 10.15625 10.582031 9.945312 C 10.457031 9.582031 10.433594 9.191406 10.46875 8.808594 C 10.5 8.511719 10.582031 8.214844 10.523438 7.917969 C 10.480469 7.6875 10.375 7.480469 10.214844 7.3125 C 10.160156 7.25 10.09375 7.195312 10.023438 7.144531 C 10.003906 7.132812 9.984375 7.117188 9.964844 7.105469 C 9.960938 7.101562 9.949219 7.097656 9.945312 7.089844 C 9.941406 7.066406 9.945312 7.039062 9.945312 7.015625 L 9.945312 6.394531 C 9.945312 6.296875 9.953125 6.199219 9.925781 6.105469 C 9.882812 5.976562 9.796875 5.867188 9.675781 5.808594 C 9.644531 5.792969 9.605469 5.769531 9.570312 5.769531 C 9.691406 5.636719 9.867188 5.570312 10.039062 5.527344 C 10.253906 5.476562 10.476562 5.464844 10.699219 5.453125 C 10.800781 5.449219 10.898438 5.449219 11 5.445312 C 11.21875 5.429688 11.464844 5.417969 11.632812 5.253906 C 11.65625 5.226562 11.679688 5.199219 11.699219 5.167969 C 11.714844 5.136719 11.730469 5.105469 11.742188 5.070312 C 11.8125 4.847656 11.6875 4.640625 11.578125 4.453125 C 11.277344 3.953125 10.824219 3.546875 10.316406 3.257812 C 9.902344 3.023438 9.441406 2.855469 8.96875 2.78125 C 8.726562 2.742188 8.488281 2.734375 8.246094 2.722656 C 7.980469 2.710938 7.71875 2.71875 7.457031 2.722656 C 7.066406 2.734375 6.675781 2.75 6.285156 2.777344 C 6.082031 2.792969 5.878906 2.800781 5.675781 2.820312 C 5.597656 2.828125 5.519531 2.839844 5.445312 2.84375 C 5.359375 2.84375 5.277344 2.84375 5.191406 2.84375 L 4.410156 2.84375 C 4.34375 2.84375 4.277344 2.839844 4.210938 2.859375 C 4.085938 2.902344 3.992188 3.015625 3.972656 3.148438 C 3.96875 3.195312 3.972656 3.25 3.972656 3.300781 L 3.972656 4.5 C 3.972656 4.546875 3.96875 4.59375 3.980469 4.636719 C 3.996094 4.703125 4.027344 4.761719 4.074219 4.808594 C 4.128906 4.863281 4.199219 4.898438 4.273438 4.910156 C 4.347656 4.917969 4.429688 4.910156 4.503906 4.910156 Z M 5.398438 4.910156 "/>
<path style=" stroke:none;fill-rule:nonzero;fill:rgb(100%,100%,100%);fill-opacity:1;" d="M 14.941406 3.363281 L 14.925781 3.503906 L 14.894531 3.796875 L 14.796875 4.6875 L 14.769531 4.941406 L 14.753906 5.058594 L 16.6875 5.058594 C 16.6875 5.011719 16.675781 4.960938 16.671875 4.914062 C 16.660156 4.816406 16.652344 4.722656 16.640625 4.625 C 16.609375 4.34375 16.582031 4.066406 16.546875 3.789062 C 16.535156 3.683594 16.523438 3.578125 16.511719 3.472656 C 16.507812 3.445312 16.503906 3.421875 16.503906 3.394531 C 16.503906 3.386719 16.503906 3.367188 16.5 3.363281 C 16.492188 3.359375 16.476562 3.359375 16.472656 3.359375 C 16.445312 3.355469 16.421875 3.351562 16.398438 3.347656 C 16.304688 3.335938 16.210938 3.332031 16.117188 3.324219 C 15.839844 3.304688 15.5625 3.308594 15.289062 3.324219 C 15.214844 3.332031 15.136719 3.339844 15.0625 3.347656 C 15.023438 3.351562 14.984375 3.363281 14.941406 3.363281 M 5.824219 4.214844 C 6.058594 4.246094 6.289062 4.285156 6.515625 4.363281 C 7 4.527344 7.433594 4.828125 7.71875 5.257812 C 7.789062 5.363281 7.847656 5.476562 7.898438 5.589844 C 7.921875 5.640625 7.949219 5.695312 7.964844 5.75 L 8.753906 5.75 C 8.761719 5.75 8.765625 5.753906 8.769531 5.75 C 8.777344 5.746094 8.78125 5.730469 8.78125 5.722656 C 8.789062 5.699219 8.800781 5.679688 8.808594 5.65625 C 8.835938 5.585938 8.875 5.519531 8.914062 5.453125 C 9.035156 5.265625 9.203125 5.117188 9.398438 5.011719 C 9.75 4.820312 10.15625 4.765625 10.550781 4.75 C 10.671875 4.742188 10.789062 4.734375 10.910156 4.734375 C 10.898438 4.710938 10.878906 4.6875 10.859375 4.664062 C 10.824219 4.609375 10.78125 4.558594 10.738281 4.507812 C 10.578125 4.324219 10.394531 4.160156 10.195312 4.023438 C 9.820312 3.765625 9.390625 3.582031 8.941406 3.5 C 8.671875 3.449219 8.402344 3.441406 8.132812 3.433594 C 7.777344 3.425781 7.417969 3.433594 7.0625 3.449219 C 6.761719 3.460938 6.460938 3.480469 6.15625 3.5 C 6.074219 3.503906 5.992188 3.511719 5.910156 3.519531 C 5.890625 3.519531 5.871094 3.523438 5.851562 3.523438 C 5.84375 3.523438 5.832031 3.523438 5.824219 3.527344 C 5.820312 3.53125 5.824219 3.558594 5.824219 3.566406 L 5.824219 4.214844 M 4.683594 3.554688 L 4.683594 4.199219 L 5.109375 4.199219 L 5.109375 3.554688 L 4.683594 3.554688 M 5.363281 6.734375 C 5.382812 6.722656 5.402344 6.699219 5.417969 6.679688 C 5.441406 6.65625 5.460938 6.632812 5.484375 6.609375 C 5.5625 6.527344 5.640625 6.441406 5.710938 6.351562 C 5.933594 6.082031 6.128906 5.789062 6.285156 5.476562 C 6.324219 5.398438 6.363281 5.316406 6.398438 5.234375 C 6.414062 5.191406 6.4375 5.148438 6.449219 5.101562 C 6.425781 5.09375 6.398438 5.078125 6.371094 5.070312 C 6.316406 5.046875 6.257812 5.027344 6.199219 5.011719 C 6.179688 5.003906 6.160156 5 6.140625 4.996094 C 6.132812 4.992188 6.121094 4.988281 6.117188 4.992188 C 6.109375 4.996094 6.109375 5.019531 6.105469 5.027344 C 6.097656 5.058594 6.085938 5.089844 6.078125 5.125 C 6.039062 5.246094 6 5.371094 5.953125 5.492188 C 5.851562 5.757812 5.742188 6.023438 5.609375 6.277344 C 5.5625 6.371094 5.511719 6.46875 5.460938 6.5625 C 5.429688 6.621094 5.394531 6.675781 5.363281 6.734375 M 7.617188 6.464844 L 7.617188 7.210938 C 7.617188 7.214844 7.617188 7.222656 7.617188 7.226562 C 7.621094 7.230469 7.632812 7.230469 7.636719 7.230469 C 7.65625 7.238281 7.675781 7.242188 7.695312 7.246094 C 7.769531 7.261719 7.84375 7.273438 7.921875 7.285156 C 8.238281 7.324219 8.5625 7.320312 8.882812 7.289062 C 8.96875 7.28125 9.058594 7.269531 9.144531 7.253906 C 9.167969 7.25 9.1875 7.246094 9.210938 7.238281 C 9.214844 7.238281 9.226562 7.238281 9.230469 7.234375 C 9.234375 7.230469 9.234375 7.222656 9.234375 7.214844 L 9.234375 6.464844 L 7.617188 6.464844 M 9.710938 7.824219 C 9.695312 7.824219 9.675781 7.839844 9.65625 7.847656 C 9.621094 7.863281 9.585938 7.875 9.546875 7.886719 C 9.441406 7.921875 9.332031 7.941406 9.226562 7.960938 C 9.019531 8 8.8125 8.011719 8.609375 8.019531 C 8.375 8.03125 8.140625 8.023438 7.910156 8 C 7.738281 7.980469 7.5625 7.953125 7.390625 7.90625 C 7.347656 7.890625 7.304688 7.878906 7.261719 7.867188 C 7.25 7.863281 7.226562 7.847656 7.214844 7.855469 C 7.195312 7.871094 7.179688 7.894531 7.164062 7.914062 C 7.144531 7.945312 7.125 7.976562 7.117188 8.011719 C 7.082031 8.113281 7.117188 8.214844 7.15625 8.308594 C 7.230469 8.480469 7.351562 8.625 7.457031 8.777344 C 7.546875 8.902344 7.625 9.03125 7.636719 9.1875 C 7.640625 9.289062 7.605469 9.394531 7.542969 9.472656 C 7.496094 9.53125 7.4375 9.574219 7.390625 9.632812 C 7.324219 9.722656 7.292969 9.832031 7.292969 9.941406 C 7.289062 10.121094 7.367188 10.304688 7.457031 10.457031 C 7.476562 10.492188 7.5 10.523438 7.519531 10.554688 C 7.539062 10.582031 7.558594 10.605469 7.574219 10.632812 C 7.605469 10.691406 7.621094 10.761719 7.617188 10.828125 C 7.613281 10.910156 7.578125 10.984375 7.523438 11.042969 C 7.503906 11.066406 7.476562 11.085938 7.453125 11.105469 C 7.421875 11.132812 7.390625 11.164062 7.363281 11.195312 C 7.253906 11.328125 7.1875 11.492188 7.175781 11.664062 C 7.167969 11.792969 7.191406 11.921875 7.230469 12.046875 C 7.25 12.097656 7.273438 12.148438 7.289062 12.203125 C 7.3125 12.285156 7.304688 12.378906 7.265625 12.453125 C 7.238281 12.503906 7.203125 12.542969 7.160156 12.578125 C 7.132812 12.601562 7.101562 12.617188 7.070312 12.636719 C 7.023438 12.667969 6.972656 12.699219 6.921875 12.730469 C 6.707031 12.867188 6.492188 13.011719 6.289062 13.167969 C 5.898438 13.460938 5.527344 13.789062 5.226562 14.175781 C 5.023438 14.433594 4.847656 14.714844 4.730469 15.019531 C 4.558594 15.46875 4.457031 15.945312 4.410156 16.421875 C 4.394531 16.605469 4.386719 16.785156 4.382812 16.96875 C 4.375 17.265625 4.390625 17.566406 4.417969 17.867188 C 4.492188 18.601562 4.65625 19.324219 4.867188 20.03125 C 4.980469 20.398438 5.109375 20.761719 5.25 21.121094 C 5.269531 21.179688 5.292969 21.238281 5.316406 21.296875 C 5.351562 21.390625 5.390625 21.480469 5.480469 21.535156 C 5.535156 21.570312 5.597656 21.566406 5.664062 21.566406 L 11.796875 21.566406 C 11.851562 21.566406 11.914062 21.574219 11.96875 21.5625 C 12.046875 21.550781 12.105469 21.492188 12.144531 21.425781 C 12.183594 21.367188 12.203125 21.296875 12.226562 21.234375 C 12.257812 21.140625 12.292969 21.046875 12.324219 20.957031 C 12.539062 20.304688 12.699219 19.636719 12.789062 18.960938 C 12.953125 17.722656 12.894531 16.460938 12.589844 15.246094 C 12.375 14.410156 12.046875 13.605469 11.628906 12.851562 C 11.386719 12.417969 11.109375 11.996094 10.808594 11.601562 C 10.578125 11.300781 10.320312 11.019531 10.136719 10.6875 C 9.894531 10.253906 9.765625 9.777344 9.742188 9.285156 C 9.730469 9 9.757812 8.71875 9.796875 8.4375 C 9.820312 8.273438 9.859375 8.113281 9.796875 7.953125 C 9.78125 7.917969 9.761719 7.882812 9.738281 7.851562 C 9.734375 7.84375 9.722656 7.824219 9.710938 7.824219 Z M 9.710938 7.824219 "/>
<path style=" stroke:none;fill-rule:nonzero;fill:rgb(0.392157%,0.392157%,0.392157%);fill-opacity:1;" d="M 17.328125 7.953125 C 17.292969 7.957031 17.257812 7.957031 17.222656 7.960938 C 17.148438 7.96875 17.070312 7.988281 16.996094 8.011719 C 16.6875 8.125 16.441406 8.371094 16.332031 8.679688 C 16.292969 8.785156 16.273438 8.894531 16.269531 9.003906 C 16.265625 9.101562 16.273438 9.199219 16.277344 9.300781 C 16.289062 9.519531 16.296875 9.742188 16.304688 9.964844 C 16.335938 10.652344 16.363281 11.339844 16.394531 12.027344 C 16.402344 12.214844 16.410156 12.40625 16.417969 12.59375 C 16.425781 12.765625 16.425781 12.933594 16.484375 13.097656 C 16.523438 13.203125 16.574219 13.300781 16.640625 13.386719 C 16.871094 13.703125 17.265625 13.867188 17.65625 13.820312 C 18.101562 13.769531 18.480469 13.425781 18.582031 12.992188 C 18.632812 12.789062 18.609375 12.578125 18.597656 12.371094 C 18.585938 12.070312 18.574219 11.769531 18.5625 11.472656 C 18.535156 10.882812 18.511719 10.296875 18.484375 9.710938 C 18.476562 9.53125 18.472656 9.355469 18.464844 9.175781 C 18.457031 9.039062 18.457031 8.898438 18.421875 8.765625 C 18.316406 8.382812 18.011719 8.078125 17.628906 7.984375 C 17.554688 7.964844 17.480469 7.957031 17.402344 7.953125 C 17.378906 7.949219 17.351562 7.949219 17.328125 7.953125 Z M 17.328125 7.953125 "/>
<path style=" stroke:none;fill-rule:nonzero;fill:rgb(100%,100%,100%);fill-opacity:1;" d="M 17.339844 8.664062 C 17.292969 8.671875 17.25 8.679688 17.207031 8.699219 C 17.171875 8.710938 17.140625 8.734375 17.113281 8.753906 C 17.042969 8.816406 16.996094 8.90625 16.984375 9 C 16.980469 9.03125 16.980469 9.0625 16.984375 9.089844 C 16.984375 9.148438 16.988281 9.203125 16.988281 9.257812 C 16.992188 9.34375 16.992188 9.429688 17 9.511719 C 17.007812 9.589844 17.007812 9.667969 17.007812 9.742188 C 17.015625 9.910156 17.023438 10.078125 17.03125 10.242188 C 17.050781 10.703125 17.070312 11.160156 17.089844 11.617188 C 17.097656 11.761719 17.101562 11.90625 17.109375 12.050781 C 17.109375 12.113281 17.109375 12.175781 17.117188 12.238281 C 17.125 12.363281 17.125 12.492188 17.132812 12.617188 C 17.136719 12.695312 17.132812 12.773438 17.152344 12.847656 C 17.191406 12.972656 17.300781 13.074219 17.425781 13.105469 C 17.472656 13.117188 17.519531 13.121094 17.566406 13.113281 C 17.609375 13.109375 17.652344 13.097656 17.6875 13.078125 C 17.804688 13.019531 17.886719 12.898438 17.898438 12.769531 C 17.90625 12.707031 17.898438 12.640625 17.894531 12.578125 C 17.890625 12.472656 17.886719 12.363281 17.882812 12.257812 C 17.839844 11.347656 17.804688 10.441406 17.765625 9.53125 L 17.75 9.152344 C 17.746094 9.074219 17.75 8.992188 17.722656 8.917969 C 17.679688 8.792969 17.566406 8.695312 17.4375 8.671875 C 17.40625 8.664062 17.371094 8.660156 17.339844 8.664062 Z M 17.339844 8.664062 "/>
</g>
</svg>
