<?xml version="1.0" encoding="UTF-8"?>
<svg xmlns="http://www.w3.org/2000/svg" xmlns:xlink="http://www.w3.org/1999/xlink" viewBox="0 0 24 24" version="1.1">
<g>
<path style=" stroke:none;fill-rule:nonzero;fill:rgb(0.392157%,0.392157%,0.392157%);fill-opacity:1;" d="M 10.105469 15.332031 L 7.347656 15.332031 C 7.269531 15.332031 7.191406 15.332031 7.113281 15.34375 C 6.921875 15.371094 6.742188 15.460938 6.605469 15.597656 C 6.550781 15.652344 6.503906 15.714844 6.464844 15.78125 C 6.398438 15.898438 6.355469 16.027344 6.34375 16.160156 C 6.335938 16.246094 6.339844 16.332031 6.339844 16.417969 C 6.339844 16.566406 6.339844 16.714844 6.339844 16.863281 C 6.339844 16.90625 6.351562 16.953125 6.371094 16.992188 C 6.378906 17.007812 6.386719 17.027344 6.398438 17.042969 C 6.402344 17.046875 6.410156 17.058594 6.414062 17.066406 C 6.414062 17.074219 6.40625 17.089844 6.402344 17.097656 L 5.871094 18.691406 L 5.824219 18.835938 C 5.8125 18.867188 5.800781 18.902344 5.792969 18.9375 C 5.78125 19.015625 5.792969 19.101562 5.832031 19.171875 C 5.847656 19.199219 5.863281 19.222656 5.886719 19.242188 C 5.910156 19.269531 5.9375 19.292969 5.972656 19.308594 C 6.074219 19.367188 6.191406 19.355469 6.304688 19.355469 L 16.5 19.355469 C 16.601562 19.355469 16.703125 19.359375 16.804688 19.355469 C 17.023438 19.339844 17.171875 19.117188 17.117188 18.910156 C 17.105469 18.855469 17.082031 18.800781 17.066406 18.75 L 16.96875 18.453125 L 16.671875 17.566406 L 16.558594 17.230469 L 16.523438 17.121094 C 16.519531 17.105469 16.507812 17.085938 16.507812 17.070312 C 16.503906 17.0625 16.511719 17.054688 16.515625 17.046875 C 16.527344 17.035156 16.535156 17.019531 16.542969 17.003906 C 16.5625 16.964844 16.574219 16.914062 16.578125 16.867188 C 16.582031 16.734375 16.578125 16.601562 16.578125 16.472656 C 16.578125 16.359375 16.585938 16.242188 16.570312 16.132812 C 16.550781 15.964844 16.484375 15.800781 16.375 15.667969 C 16.332031 15.613281 16.277344 15.5625 16.222656 15.519531 C 16.109375 15.4375 15.984375 15.378906 15.847656 15.351562 C 15.753906 15.332031 15.65625 15.332031 15.558594 15.332031 L 12.8125 15.332031 L 12.8125 14.941406 C 12.8125 14.816406 12.8125 14.695312 12.757812 14.578125 C 12.710938 14.488281 12.644531 14.410156 12.558594 14.355469 C 12.53125 14.335938 12.503906 14.320312 12.472656 14.308594 C 12.464844 14.304688 12.445312 14.300781 12.445312 14.289062 C 12.441406 14.257812 12.445312 14.226562 12.445312 14.195312 L 12.445312 5.152344 C 12.445312 5.039062 12.445312 4.925781 12.414062 4.816406 C 12.339844 4.503906 12.105469 4.246094 11.808594 4.132812 C 11.679688 4.085938 11.550781 4.066406 11.414062 4.070312 C 10.992188 4.082031 10.621094 4.394531 10.507812 4.796875 C 10.476562 4.914062 10.472656 5.027344 10.472656 5.148438 L 10.472656 14.007812 C 10.472656 14.101562 10.476562 14.195312 10.472656 14.289062 C 10.472656 14.300781 10.453125 14.304688 10.445312 14.308594 C 10.414062 14.320312 10.382812 14.335938 10.355469 14.355469 C 10.269531 14.410156 10.203125 14.492188 10.160156 14.585938 C 10.105469 14.699219 10.105469 14.816406 10.105469 14.941406 Z M 10.105469 15.332031 "/>
<path style=" stroke:none;fill-rule:nonzero;fill:rgb(100%,100%,100%);fill-opacity:1;" d="M 11.1875 14.265625 L 11.730469 14.265625 L 11.730469 5.113281 C 11.730469 5.066406 11.734375 5.023438 11.722656 4.980469 C 11.707031 4.921875 11.671875 4.875 11.625 4.839844 C 11.605469 4.824219 11.578125 4.808594 11.554688 4.800781 C 11.523438 4.789062 11.492188 4.78125 11.460938 4.78125 C 11.425781 4.78125 11.394531 4.789062 11.363281 4.800781 C 11.335938 4.808594 11.316406 4.824219 11.292969 4.839844 C 11.238281 4.882812 11.199219 4.949219 11.1875 5.019531 C 11.183594 5.054688 11.1875 5.089844 11.1875 5.128906 Z M 11.1875 14.265625 "/>
<path style=" stroke:none;fill-rule:nonzero;fill:rgb(0.392157%,0.392157%,0.392157%);fill-opacity:1;" d="M 3.769531 7.453125 C 3.761719 7.496094 3.738281 7.535156 3.722656 7.578125 C 3.6875 7.671875 3.648438 7.765625 3.605469 7.855469 C 3.460938 8.171875 3.28125 8.46875 3.085938 8.753906 C 3.027344 8.847656 2.964844 8.933594 2.902344 9.023438 C 2.867188 9.074219 2.828125 9.121094 2.800781 9.175781 C 2.765625 9.246094 2.746094 9.332031 2.753906 9.410156 C 2.769531 9.621094 2.933594 9.800781 3.144531 9.816406 C 3.1875 9.816406 3.230469 9.8125 3.273438 9.804688 C 3.316406 9.792969 3.359375 9.773438 3.398438 9.75 C 3.804688 9.488281 4.183594 9.1875 4.503906 8.824219 C 4.589844 8.730469 4.667969 8.632812 4.746094 8.53125 C 4.765625 8.5 4.789062 8.46875 4.808594 8.441406 C 4.820312 8.421875 4.835938 8.402344 4.847656 8.382812 L 4.847656 8.796875 C 4.847656 8.808594 4.851562 8.828125 4.847656 8.839844 C 4.84375 8.84375 4.832031 8.851562 4.828125 8.855469 C 4.8125 8.867188 4.800781 8.878906 4.785156 8.890625 C 4.75 8.925781 4.714844 8.964844 4.683594 9.003906 C 4.574219 9.140625 4.503906 9.308594 4.496094 9.480469 C 4.484375 9.671875 4.542969 9.855469 4.636719 10.019531 C 4.667969 10.074219 4.703125 10.128906 4.738281 10.179688 C 4.75 10.195312 4.761719 10.214844 4.769531 10.230469 C 4.777344 10.234375 4.785156 10.242188 4.785156 10.25 C 4.785156 10.261719 4.769531 10.277344 4.761719 10.289062 C 4.742188 10.320312 4.722656 10.355469 4.707031 10.390625 C 4.660156 10.5 4.632812 10.613281 4.625 10.726562 C 4.617188 10.867188 4.640625 11.007812 4.679688 11.140625 C 4.695312 11.1875 4.710938 11.230469 4.730469 11.273438 C 4.738281 11.285156 4.742188 11.300781 4.75 11.316406 C 4.753906 11.320312 4.757812 11.324219 4.757812 11.332031 C 4.757812 11.339844 4.75 11.347656 4.746094 11.351562 C 4.734375 11.367188 4.722656 11.386719 4.710938 11.402344 C 4.679688 11.457031 4.648438 11.515625 4.625 11.578125 C 4.566406 11.730469 4.539062 11.890625 4.542969 12.050781 C 4.546875 12.117188 4.550781 12.183594 4.566406 12.242188 C 4.542969 12.253906 4.519531 12.273438 4.496094 12.289062 C 4.449219 12.320312 4.402344 12.355469 4.355469 12.386719 C 4.1875 12.503906 4.03125 12.625 3.878906 12.757812 C 3.539062 13.054688 3.230469 13.394531 3.019531 13.800781 C 2.839844 14.148438 2.738281 14.546875 2.679688 14.933594 C 2.554688 15.804688 2.664062 16.699219 2.894531 17.542969 C 2.992188 17.90625 3.113281 18.261719 3.242188 18.617188 C 3.28125 18.714844 3.3125 18.816406 3.359375 18.910156 C 3.445312 19.074219 3.578125 19.210938 3.746094 19.289062 C 3.820312 19.324219 3.90625 19.34375 3.988281 19.351562 C 4.058594 19.359375 4.132812 19.355469 4.203125 19.355469 L 5.039062 19.355469 C 5.132812 19.355469 5.226562 19.359375 5.308594 19.3125 C 5.351562 19.289062 5.390625 19.261719 5.417969 19.222656 C 5.523438 19.09375 5.523438 18.90625 5.417969 18.773438 C 5.394531 18.742188 5.359375 18.710938 5.324219 18.691406 C 5.21875 18.628906 5.09375 18.640625 4.976562 18.640625 L 4.128906 18.640625 C 4.105469 18.640625 4.066406 18.648438 4.042969 18.636719 C 3.992188 18.613281 3.980469 18.539062 3.960938 18.492188 C 3.90625 18.359375 3.859375 18.222656 3.808594 18.089844 C 3.605469 17.515625 3.441406 16.914062 3.378906 16.308594 C 3.324219 15.808594 3.324219 15.300781 3.429688 14.800781 C 3.476562 14.589844 3.535156 14.371094 3.632812 14.175781 C 3.742188 13.945312 3.898438 13.742188 4.070312 13.558594 C 4.3125 13.296875 4.605469 13.074219 4.902344 12.878906 C 4.964844 12.835938 5.03125 12.792969 5.097656 12.75 C 5.136719 12.726562 5.175781 12.707031 5.210938 12.675781 C 5.261719 12.636719 5.300781 12.582031 5.324219 12.519531 C 5.347656 12.453125 5.351562 12.378906 5.332031 12.308594 C 5.316406 12.25 5.289062 12.195312 5.273438 12.136719 C 5.253906 12.066406 5.25 11.984375 5.265625 11.914062 C 5.285156 11.832031 5.324219 11.757812 5.382812 11.695312 C 5.417969 11.65625 5.464844 11.628906 5.496094 11.582031 C 5.542969 11.515625 5.566406 11.425781 5.558594 11.34375 C 5.554688 11.292969 5.539062 11.242188 5.511719 11.199219 C 5.492188 11.160156 5.464844 11.128906 5.441406 11.09375 C 5.382812 10.996094 5.332031 10.886719 5.335938 10.773438 C 5.339844 10.707031 5.371094 10.652344 5.414062 10.605469 C 5.4375 10.582031 5.464844 10.558594 5.488281 10.53125 C 5.546875 10.453125 5.578125 10.351562 5.570312 10.25 C 5.558594 10.054688 5.410156 9.902344 5.304688 9.746094 C 5.277344 9.707031 5.253906 9.664062 5.234375 9.621094 C 5.214844 9.574219 5.199219 9.53125 5.214844 9.484375 C 5.261719 9.503906 5.316406 9.511719 5.363281 9.523438 C 5.46875 9.546875 5.570312 9.5625 5.675781 9.570312 C 5.839844 9.585938 6.007812 9.589844 6.175781 9.582031 C 6.398438 9.570312 6.625 9.542969 6.839844 9.472656 C 6.84375 9.496094 6.851562 9.519531 6.851562 9.542969 C 6.855469 9.625 6.835938 9.707031 6.824219 9.789062 C 6.8125 9.882812 6.800781 9.980469 6.796875 10.078125 C 6.773438 10.40625 6.820312 10.746094 6.9375 11.054688 C 6.996094 11.21875 7.078125 11.375 7.175781 11.515625 C 7.253906 11.628906 7.339844 11.730469 7.421875 11.835938 C 7.515625 11.949219 7.601562 12.066406 7.6875 12.1875 C 8.019531 12.660156 8.304688 13.171875 8.511719 13.710938 C 8.601562 13.953125 8.683594 14.203125 8.746094 14.453125 C 8.765625 14.535156 8.785156 14.613281 8.800781 14.691406 C 8.816406 14.757812 8.824219 14.828125 8.859375 14.886719 C 8.960938 15.070312 9.207031 15.125 9.378906 15.003906 C 9.402344 14.984375 9.425781 14.960938 9.449219 14.9375 C 9.503906 14.867188 9.53125 14.78125 9.527344 14.695312 C 9.523438 14.621094 9.5 14.546875 9.484375 14.476562 C 9.394531 14.085938 9.28125 13.695312 9.121094 13.320312 C 9.046875 13.140625 8.96875 12.964844 8.882812 12.789062 C 8.703125 12.433594 8.492188 12.089844 8.261719 11.765625 C 8.175781 11.640625 8.085938 11.519531 7.988281 11.402344 C 7.921875 11.316406 7.847656 11.234375 7.785156 11.144531 C 7.695312 11.011719 7.621094 10.871094 7.574219 10.71875 C 7.503906 10.488281 7.492188 10.246094 7.515625 10.007812 C 7.527344 9.886719 7.554688 9.769531 7.5625 9.648438 C 7.570312 9.558594 7.566406 9.46875 7.550781 9.378906 C 7.519531 9.21875 7.445312 9.066406 7.339844 8.941406 C 7.300781 8.894531 7.257812 8.855469 7.214844 8.816406 C 7.199219 8.808594 7.1875 8.796875 7.171875 8.785156 C 7.167969 8.78125 7.160156 8.777344 7.15625 8.769531 C 7.152344 8.753906 7.15625 8.730469 7.15625 8.710938 L 7.15625 8.335938 C 7.15625 8.25 7.15625 8.167969 7.121094 8.085938 C 7.09375 8.015625 7.050781 7.964844 7 7.914062 C 7.015625 7.910156 7.035156 7.898438 7.050781 7.894531 C 7.082031 7.882812 7.113281 7.875 7.148438 7.867188 C 7.277344 7.839844 7.410156 7.828125 7.542969 7.824219 C 7.675781 7.820312 7.8125 7.820312 7.945312 7.800781 C 8.0625 7.785156 8.179688 7.746094 8.265625 7.664062 C 8.296875 7.636719 8.324219 7.601562 8.34375 7.566406 C 8.363281 7.535156 8.375 7.503906 8.386719 7.472656 C 8.441406 7.273438 8.335938 7.085938 8.230469 6.925781 C 7.925781 6.445312 7.441406 6.101562 6.914062 5.90625 C 6.71875 5.832031 6.515625 5.785156 6.308594 5.757812 C 6.050781 5.722656 5.792969 5.722656 5.535156 5.726562 C 5.195312 5.730469 4.855469 5.742188 4.519531 5.765625 C 4.332031 5.777344 4.148438 5.792969 3.960938 5.808594 C 3.898438 5.8125 3.832031 5.808594 3.765625 5.808594 L 3.378906 5.808594 C 3.3125 5.808594 3.246094 5.804688 3.179688 5.808594 C 3.027344 5.8125 2.890625 5.917969 2.851562 6.066406 C 2.835938 6.113281 2.835938 6.160156 2.835938 6.207031 L 2.835938 7.027344 C 2.835938 7.117188 2.839844 7.203125 2.886719 7.28125 C 2.902344 7.308594 2.921875 7.328125 2.941406 7.351562 C 2.996094 7.402344 3.0625 7.4375 3.132812 7.445312 C 3.203125 7.457031 3.273438 7.453125 3.34375 7.453125 Z M 3.769531 7.453125 "/>
<path style=" stroke:none;fill-rule:nonzero;fill:rgb(100%,100%,100%);fill-opacity:1;" d="M 4.328125 6.492188 L 4.328125 6.761719 C 4.421875 6.769531 4.519531 6.796875 4.609375 6.820312 C 4.914062 6.90625 5.207031 7.058594 5.425781 7.285156 C 5.53125 7.398438 5.621094 7.523438 5.695312 7.660156 C 5.714844 7.695312 5.730469 7.730469 5.746094 7.769531 C 5.75 7.777344 5.757812 7.800781 5.765625 7.804688 C 5.796875 7.808594 5.832031 7.804688 5.863281 7.804688 L 6.132812 7.804688 C 6.140625 7.804688 6.15625 7.804688 6.160156 7.800781 C 6.164062 7.796875 6.167969 7.789062 6.167969 7.785156 C 6.175781 7.773438 6.179688 7.757812 6.1875 7.746094 C 6.207031 7.703125 6.234375 7.664062 6.257812 7.625 C 6.328125 7.523438 6.421875 7.433594 6.523438 7.363281 C 6.734375 7.222656 6.988281 7.160156 7.238281 7.132812 C 7.316406 7.125 7.398438 7.113281 7.480469 7.113281 C 7.46875 7.09375 7.449219 7.074219 7.433594 7.058594 C 7.398438 7.023438 7.363281 6.992188 7.328125 6.960938 C 7.175781 6.824219 7 6.71875 6.820312 6.636719 C 6.640625 6.554688 6.453125 6.5 6.261719 6.46875 C 6.132812 6.449219 6.003906 6.445312 5.871094 6.441406 C 5.695312 6.433594 5.515625 6.4375 5.335938 6.441406 C 5.117188 6.445312 4.902344 6.453125 4.683594 6.46875 C 4.566406 6.476562 4.445312 6.476562 4.328125 6.492188 M 3.550781 6.519531 L 3.550781 6.738281 L 3.617188 6.738281 L 3.617188 6.519531 L 3.550781 6.519531 M 4.496094 7.53125 L 4.480469 7.574219 L 4.484375 7.574219 L 4.5 7.53125 L 4.496094 7.53125 M 4.480469 7.578125 Z M 4.480469 7.578125 "/>
<path style=" stroke:none;fill-rule:nonzero;fill:rgb(0.392157%,0.392157%,0.392157%);fill-opacity:1;" d="M 13.484375 13.714844 C 13.484375 13.746094 13.492188 13.773438 13.496094 13.800781 C 13.507812 13.867188 13.519531 13.929688 13.527344 13.992188 C 13.558594 14.195312 13.59375 14.394531 13.628906 14.59375 C 13.652344 14.734375 13.660156 14.878906 13.769531 14.980469 C 13.933594 15.121094 14.1875 15.089844 14.308594 14.910156 C 14.328125 14.878906 14.34375 14.84375 14.355469 14.804688 C 14.371094 14.730469 14.363281 14.664062 14.351562 14.589844 C 14.34375 14.539062 14.335938 14.492188 14.324219 14.441406 C 14.289062 14.222656 14.257812 14.003906 14.21875 13.785156 L 21.027344 13.785156 C 21.015625 13.828125 21.011719 13.878906 21.003906 13.921875 C 20.992188 14.003906 20.976562 14.082031 20.964844 14.160156 C 20.921875 14.402344 20.878906 14.648438 20.839844 14.890625 C 20.707031 15.648438 20.582031 16.410156 20.445312 17.167969 C 20.394531 17.457031 20.34375 17.746094 20.296875 18.039062 C 20.285156 18.101562 20.273438 18.167969 20.265625 18.230469 C 20.25 18.3125 20.238281 18.382812 20.1875 18.449219 C 20.101562 18.5625 19.953125 18.625 19.8125 18.640625 C 19.730469 18.648438 19.648438 18.640625 19.566406 18.640625 L 17.917969 18.640625 C 17.859375 18.640625 17.800781 18.636719 17.742188 18.648438 C 17.636719 18.664062 17.542969 18.730469 17.492188 18.824219 C 17.472656 18.855469 17.460938 18.890625 17.453125 18.925781 C 17.441406 18.972656 17.445312 19.019531 17.449219 19.0625 C 17.472656 19.203125 17.585938 19.316406 17.722656 19.347656 C 17.789062 19.363281 17.855469 19.355469 17.921875 19.355469 L 19.648438 19.355469 C 19.742188 19.355469 19.832031 19.355469 19.925781 19.34375 C 20.230469 19.304688 20.523438 19.160156 20.722656 18.925781 C 20.8125 18.816406 20.882812 18.695312 20.921875 18.5625 C 20.957031 18.449219 20.96875 18.335938 20.988281 18.222656 C 21.011719 18.085938 21.035156 17.949219 21.058594 17.8125 C 21.1875 17.070312 21.3125 16.328125 21.441406 15.585938 C 21.515625 15.160156 21.589844 14.730469 21.664062 14.304688 C 21.6875 14.167969 21.707031 14.035156 21.734375 13.898438 C 21.738281 13.855469 21.746094 13.8125 21.753906 13.769531 C 21.757812 13.753906 21.757812 13.738281 21.761719 13.722656 C 21.765625 13.714844 21.777344 13.710938 21.785156 13.707031 C 21.804688 13.699219 21.824219 13.691406 21.84375 13.679688 C 21.910156 13.640625 21.972656 13.597656 22.03125 13.542969 C 22.203125 13.382812 22.296875 13.15625 22.308594 12.921875 C 22.308594 12.882812 22.308594 12.839844 22.308594 12.800781 C 22.308594 12.734375 22.304688 12.664062 22.296875 12.597656 C 22.265625 12.429688 22.191406 12.269531 22.074219 12.144531 C 22.011719 12.074219 21.9375 12.015625 21.855469 11.96875 C 21.832031 11.957031 21.808594 11.941406 21.785156 11.933594 C 21.777344 11.929688 21.761719 11.925781 21.757812 11.917969 C 21.753906 11.902344 21.753906 11.886719 21.753906 11.871094 C 21.75 11.839844 21.75 11.808594 21.746094 11.777344 C 21.734375 11.671875 21.722656 11.570312 21.703125 11.46875 C 21.648438 11.160156 21.558594 10.859375 21.4375 10.570312 C 21.226562 10.074219 20.917969 9.621094 20.535156 9.246094 C 19.921875 8.640625 19.121094 8.230469 18.269531 8.097656 C 17.714844 8.011719 17.144531 8.039062 16.597656 8.175781 C 16.085938 8.304688 15.597656 8.539062 15.167969 8.851562 C 14.886719 9.0625 14.628906 9.304688 14.40625 9.578125 C 14.117188 9.933594 13.894531 10.335938 13.734375 10.761719 C 13.640625 11.011719 13.574219 11.273438 13.53125 11.535156 C 13.519531 11.621094 13.507812 11.707031 13.5 11.796875 C 13.496094 11.824219 13.496094 11.851562 13.492188 11.878906 C 13.492188 11.890625 13.492188 11.90625 13.488281 11.917969 C 13.484375 11.929688 13.457031 11.933594 13.449219 11.9375 C 13.410156 11.957031 13.371094 11.980469 13.335938 12.003906 C 13.230469 12.074219 13.144531 12.164062 13.074219 12.269531 C 13.007812 12.375 12.964844 12.496094 12.949219 12.617188 C 12.941406 12.679688 12.941406 12.742188 12.941406 12.804688 C 12.941406 12.882812 12.9375 12.957031 12.949219 13.03125 C 12.976562 13.207031 13.054688 13.375 13.175781 13.503906 C 13.242188 13.574219 13.316406 13.632812 13.402344 13.679688 C 13.425781 13.691406 13.457031 13.710938 13.484375 13.714844 Z M 13.484375 13.714844 "/>
<path style=" stroke:none;fill-rule:nonzero;fill:rgb(100%,100%,100%);fill-opacity:1;" d="M 5.558594 8.515625 L 5.558594 8.8125 C 5.558594 8.816406 5.558594 8.828125 5.5625 8.835938 C 5.5625 8.839844 5.570312 8.839844 5.574219 8.839844 C 5.589844 8.839844 5.601562 8.84375 5.613281 8.84375 C 5.664062 8.855469 5.714844 8.859375 5.769531 8.863281 C 5.992188 8.886719 6.21875 8.867188 6.441406 8.839844 L 6.441406 8.515625 L 5.558594 8.515625 M 14.210938 11.855469 L 21.035156 11.855469 C 21.011719 11.53125 20.925781 11.207031 20.804688 10.90625 C 20.640625 10.503906 20.398438 10.132812 20.097656 9.816406 C 19.8125 9.515625 19.464844 9.261719 19.085938 9.085938 C 18.839844 8.976562 18.585938 8.886719 18.320312 8.832031 C 17.5625 8.675781 16.75 8.78125 16.0625 9.136719 C 15.289062 9.535156 14.683594 10.21875 14.390625 11.039062 C 14.328125 11.214844 14.28125 11.394531 14.25 11.578125 C 14.238281 11.636719 14.226562 11.695312 14.222656 11.757812 C 14.21875 11.789062 14.214844 11.824219 14.210938 11.855469 M 13.820312 12.566406 C 13.796875 12.570312 13.773438 12.574219 13.753906 12.585938 C 13.738281 12.589844 13.726562 12.597656 13.714844 12.609375 C 13.640625 12.671875 13.652344 12.757812 13.652344 12.84375 C 13.652344 12.875 13.652344 12.90625 13.65625 12.933594 C 13.667969 12.996094 13.714844 13.050781 13.773438 13.066406 C 13.804688 13.074219 13.835938 13.074219 13.867188 13.074219 L 21.351562 13.074219 C 21.429688 13.074219 21.503906 13.074219 21.558594 13.007812 C 21.597656 12.957031 21.59375 12.898438 21.59375 12.839844 C 21.59375 12.761719 21.601562 12.679688 21.542969 12.617188 C 21.53125 12.605469 21.519531 12.597656 21.503906 12.589844 C 21.488281 12.582031 21.46875 12.574219 21.453125 12.570312 C 21.394531 12.558594 21.328125 12.566406 21.269531 12.566406 L 13.890625 12.566406 C 13.867188 12.566406 13.84375 12.566406 13.820312 12.566406 Z M 13.820312 12.566406 "/>
<path style=" stroke:none;fill-rule:nonzero;fill:rgb(0.392157%,0.392157%,0.392157%);fill-opacity:1;" d="M 20.019531 14.289062 C 19.972656 14.296875 19.929688 14.300781 19.890625 14.320312 C 19.792969 14.367188 19.71875 14.453125 19.691406 14.558594 C 19.675781 14.617188 19.675781 14.679688 19.667969 14.738281 C 19.65625 14.835938 19.640625 14.929688 19.632812 15.027344 C 19.613281 15.25 19.578125 15.472656 19.554688 15.695312 C 19.496094 16.238281 19.421875 16.78125 19.367188 17.324219 C 19.359375 17.394531 19.347656 17.464844 19.339844 17.535156 C 19.335938 17.582031 19.328125 17.632812 19.328125 17.679688 C 19.332031 17.757812 19.363281 17.839844 19.417969 17.898438 C 19.4375 17.917969 19.457031 17.9375 19.480469 17.953125 C 19.511719 17.976562 19.542969 17.992188 19.578125 18.003906 C 19.625 18.015625 19.671875 18.023438 19.714844 18.019531 C 19.753906 18.015625 19.789062 18.003906 19.824219 17.992188 C 19.921875 17.949219 19.996094 17.867188 20.027344 17.765625 C 20.042969 17.707031 20.046875 17.644531 20.054688 17.582031 C 20.0625 17.492188 20.074219 17.398438 20.085938 17.304688 C 20.105469 17.148438 20.125 16.992188 20.140625 16.835938 C 20.160156 16.632812 20.1875 16.433594 20.210938 16.230469 C 20.253906 15.816406 20.3125 15.398438 20.355469 14.984375 C 20.363281 14.917969 20.371094 14.851562 20.378906 14.785156 C 20.386719 14.734375 20.394531 14.683594 20.394531 14.632812 C 20.390625 14.5625 20.367188 14.492188 20.324219 14.4375 C 20.308594 14.410156 20.285156 14.390625 20.261719 14.371094 C 20.234375 14.347656 20.199219 14.328125 20.164062 14.3125 C 20.121094 14.296875 20.066406 14.285156 20.019531 14.289062 Z M 20.019531 14.289062 "/>
<path style=" stroke:none;fill-rule:nonzero;fill:rgb(100%,100%,100%);fill-opacity:1;" d="M 10.820312 14.976562 L 10.820312 15.332031 L 12.097656 15.332031 L 12.097656 14.976562 L 10.820312 14.976562 M 7.050781 16.492188 L 15.863281 16.492188 L 15.863281 16.308594 C 15.863281 16.28125 15.867188 16.25 15.863281 16.222656 C 15.859375 16.175781 15.835938 16.128906 15.800781 16.097656 C 15.746094 16.046875 15.675781 16.046875 15.605469 16.046875 L 7.316406 16.046875 C 7.246094 16.046875 7.175781 16.042969 7.121094 16.09375 C 7.050781 16.152344 7.050781 16.230469 7.050781 16.316406 L 7.050781 16.492188 M 7.121094 17.203125 L 7.085938 17.304688 L 7.019531 17.507812 L 6.683594 18.515625 L 6.640625 18.640625 L 6.941406 18.640625 L 6.949219 18.613281 L 6.972656 18.546875 L 7.054688 18.269531 L 7.257812 17.574219 L 7.332031 17.332031 L 7.367188 17.203125 L 7.121094 17.203125 M 7.6875 18.640625 L 8.113281 18.640625 L 8.148438 18.511719 L 8.214844 18.246094 L 8.390625 17.570312 L 8.449219 17.34375 L 8.488281 17.203125 L 8.140625 17.203125 C 8.132812 17.203125 8.117188 17.199219 8.113281 17.203125 C 8.109375 17.207031 8.105469 17.222656 8.105469 17.230469 C 8.097656 17.25 8.089844 17.273438 8.085938 17.296875 C 8.058594 17.386719 8.03125 17.472656 8.003906 17.5625 C 7.933594 17.796875 7.867188 18.035156 7.796875 18.269531 C 7.773438 18.347656 7.75 18.429688 7.726562 18.511719 C 7.710938 18.550781 7.691406 18.597656 7.6875 18.640625 M 8.847656 18.640625 L 9.273438 18.640625 L 9.292969 18.539062 L 9.328125 18.347656 L 9.472656 17.558594 L 9.515625 17.328125 L 9.539062 17.203125 L 9.222656 17.203125 L 9.214844 17.230469 L 9.199219 17.296875 L 9.125 17.578125 L 8.960938 18.214844 L 8.847656 18.640625 M 10 18.640625 L 10.5 18.640625 C 10.5 18.554688 10.511719 18.464844 10.519531 18.378906 C 10.53125 18.199219 10.546875 18.023438 10.558594 17.847656 C 10.566406 17.707031 10.578125 17.566406 10.589844 17.429688 C 10.59375 17.378906 10.597656 17.328125 10.601562 17.277344 C 10.601562 17.253906 10.601562 17.226562 10.605469 17.203125 L 10.265625 17.203125 L 10.261719 17.230469 L 10.246094 17.300781 L 10.195312 17.570312 L 10 18.640625 M 11.320312 17.203125 L 11.25 18.152344 L 11.222656 18.496094 L 11.214844 18.640625 L 11.707031 18.640625 L 11.679688 18.289062 L 11.621094 17.519531 L 11.597656 17.203125 L 11.320312 17.203125 M 12.3125 17.203125 L 12.335938 17.488281 L 12.371094 17.964844 L 12.402344 18.417969 L 12.417969 18.640625 L 12.921875 18.640625 L 12.722656 17.570312 L 12.671875 17.300781 L 12.660156 17.230469 L 12.652344 17.203125 L 12.3125 17.203125 M 13.378906 17.203125 L 13.402344 17.332031 L 13.449219 17.59375 L 13.585938 18.320312 L 13.625 18.546875 L 13.644531 18.640625 L 14.066406 18.640625 C 14.066406 18.605469 14.050781 18.566406 14.039062 18.53125 C 14.019531 18.453125 14 18.378906 13.980469 18.300781 C 13.917969 18.058594 13.851562 17.8125 13.789062 17.566406 C 13.765625 17.476562 13.742188 17.386719 13.71875 17.296875 C 13.714844 17.273438 13.707031 17.253906 13.703125 17.230469 C 13.699219 17.222656 13.699219 17.207031 13.695312 17.203125 C 13.6875 17.199219 13.675781 17.203125 13.671875 17.203125 L 13.378906 17.203125 M 14.433594 17.203125 L 14.464844 17.324219 L 14.53125 17.589844 L 14.726562 18.34375 L 14.804688 18.640625 L 15.230469 18.640625 L 15.199219 18.53125 L 15.132812 18.300781 L 14.914062 17.570312 L 14.835938 17.300781 L 14.816406 17.230469 L 14.804688 17.203125 L 14.433594 17.203125 M 15.550781 17.203125 C 15.554688 17.246094 15.574219 17.289062 15.585938 17.328125 C 15.609375 17.40625 15.632812 17.480469 15.65625 17.558594 C 15.726562 17.796875 15.796875 18.039062 15.867188 18.277344 C 15.894531 18.367188 15.921875 18.457031 15.949219 18.546875 C 15.953125 18.570312 15.960938 18.59375 15.96875 18.617188 C 15.96875 18.621094 15.972656 18.636719 15.976562 18.640625 C 15.980469 18.644531 15.992188 18.640625 16 18.640625 L 16.277344 18.640625 L 16.160156 18.289062 L 15.925781 17.578125 L 15.832031 17.304688 L 15.808594 17.230469 L 15.796875 17.203125 Z M 15.550781 17.203125 "/>
</g>
</svg>
