<?xml version="1.0" encoding="UTF-8"?>
<svg xmlns="http://www.w3.org/2000/svg" xmlns:xlink="http://www.w3.org/1999/xlink" viewBox="0 0 24 24" version="1.1">
<g>
<path style=" stroke:none;fill-rule:nonzero;fill:rgb(0.392157%,0.392157%,0.392157%);fill-opacity:1;" d="M 7.382812 16.128906 L 4.023438 16.128906 C 3.917969 16.128906 3.8125 16.125 3.710938 16.144531 C 3.476562 16.183594 3.265625 16.304688 3.109375 16.480469 C 2.984375 16.625 2.902344 16.804688 2.875 16.996094 C 2.851562 17.144531 2.863281 17.304688 2.863281 17.457031 L 2.863281 17.746094 C 2.863281 17.796875 2.859375 17.851562 2.863281 17.90625 C 2.871094 17.957031 2.886719 18.011719 2.914062 18.054688 C 2.921875 18.074219 2.933594 18.089844 2.945312 18.105469 C 2.953125 18.109375 2.960938 18.117188 2.960938 18.125 C 2.957031 18.144531 2.945312 18.171875 2.9375 18.191406 L 2.886719 18.339844 L 2.730469 18.808594 L 2.390625 19.832031 C 2.332031 20.003906 2.273438 20.171875 2.21875 20.34375 C 2.171875 20.496094 2.230469 20.667969 2.363281 20.753906 C 2.417969 20.789062 2.476562 20.804688 2.539062 20.8125 C 2.574219 20.816406 2.613281 20.8125 2.652344 20.8125 L 15.128906 20.8125 C 15.25 20.8125 15.378906 20.828125 15.488281 20.765625 C 15.523438 20.746094 15.554688 20.722656 15.578125 20.691406 C 15.601562 20.667969 15.617188 20.640625 15.632812 20.609375 C 15.667969 20.542969 15.675781 20.460938 15.660156 20.386719 C 15.652344 20.339844 15.636719 20.296875 15.621094 20.253906 L 15.554688 20.0625 L 14.914062 18.140625 C 14.914062 18.132812 14.910156 18.125 14.910156 18.121094 C 14.910156 18.113281 14.921875 18.105469 14.929688 18.097656 C 14.941406 18.082031 14.953125 18.066406 14.960938 18.046875 C 14.992188 17.992188 15.003906 17.9375 15.007812 17.875 C 15.007812 17.824219 15.007812 17.773438 15.007812 17.722656 L 15.007812 17.402344 C 15.007812 17.277344 15.011719 17.152344 15 17.027344 C 14.984375 16.886719 14.9375 16.742188 14.859375 16.621094 C 14.8125 16.542969 14.757812 16.476562 14.695312 16.414062 C 14.550781 16.269531 14.351562 16.171875 14.152344 16.144531 C 14.058594 16.128906 13.960938 16.128906 13.863281 16.128906 L 10.488281 16.128906 L 10.488281 15.601562 C 10.488281 15.460938 10.492188 15.324219 10.433594 15.191406 C 10.382812 15.082031 10.296875 14.988281 10.191406 14.925781 C 10.15625 14.90625 10.121094 14.890625 10.082031 14.878906 C 10.074219 14.875 10.046875 14.871094 10.046875 14.859375 C 10.042969 14.824219 10.046875 14.785156 10.046875 14.75 L 10.046875 3.851562 C 10.046875 3.707031 10.046875 3.566406 10.007812 3.425781 C 9.921875 3.125 9.707031 2.863281 9.425781 2.726562 C 9.269531 2.648438 9.09375 2.609375 8.917969 2.613281 C 8.433594 2.617188 7.996094 2.953125 7.867188 3.417969 C 7.824219 3.5625 7.824219 3.707031 7.824219 3.851562 L 7.824219 14.75 C 7.824219 14.785156 7.824219 14.824219 7.824219 14.859375 C 7.820312 14.871094 7.796875 14.875 7.785156 14.878906 C 7.75 14.890625 7.710938 14.90625 7.679688 14.925781 C 7.574219 14.988281 7.488281 15.082031 7.4375 15.191406 C 7.378906 15.324219 7.382812 15.460938 7.382812 15.601562 Z M 7.382812 16.128906 "/>
<path style=" stroke:none;fill-rule:nonzero;fill:rgb(100%,100%,100%);fill-opacity:1;" d="M 8.535156 14.84375 L 9.335938 14.84375 L 9.335938 3.777344 C 9.335938 3.726562 9.335938 3.679688 9.324219 3.632812 C 9.28125 3.460938 9.125 3.328125 8.949219 3.324219 C 8.765625 3.324219 8.597656 3.441406 8.550781 3.621094 C 8.523438 3.714844 8.535156 3.820312 8.535156 3.917969 Z M 8.535156 14.84375 "/>
<path style=" stroke:none;fill-rule:nonzero;fill:rgb(0.392157%,0.392157%,0.392157%);fill-opacity:1;" d="M 11.441406 11.984375 C 11.421875 11.988281 11.398438 11.996094 11.375 12.003906 C 11.316406 12.023438 11.261719 12.050781 11.210938 12.082031 C 10.984375 12.21875 10.832031 12.453125 10.792969 12.710938 C 10.773438 12.839844 10.785156 12.972656 10.785156 13.105469 C 10.785156 13.183594 10.78125 13.261719 10.789062 13.339844 C 10.800781 13.472656 10.847656 13.605469 10.921875 13.71875 C 11.003906 13.84375 11.109375 13.949219 11.242188 14.019531 C 11.285156 14.042969 11.332031 14.066406 11.382812 14.082031 C 11.394531 14.085938 11.429688 14.089844 11.433594 14.101562 C 11.445312 14.136719 11.445312 14.175781 11.449219 14.210938 C 11.460938 14.28125 11.472656 14.351562 11.488281 14.425781 C 11.523438 14.652344 11.5625 14.878906 11.597656 15.101562 L 11.632812 15.304688 C 11.648438 15.390625 11.660156 15.464844 11.714844 15.535156 C 11.742188 15.570312 11.777344 15.597656 11.816406 15.621094 C 11.992188 15.722656 12.226562 15.652344 12.316406 15.46875 C 12.339844 15.421875 12.351562 15.375 12.351562 15.324219 C 12.355469 15.28125 12.34375 15.238281 12.335938 15.195312 L 12.304688 15.007812 C 12.273438 14.8125 12.242188 14.621094 12.210938 14.425781 L 12.175781 14.230469 C 12.171875 14.199219 12.164062 14.164062 12.160156 14.128906 L 20.503906 14.128906 C 20.488281 14.171875 20.484375 14.222656 20.480469 14.265625 C 20.460938 14.359375 20.445312 14.453125 20.429688 14.546875 C 20.375 14.851562 20.324219 15.15625 20.273438 15.460938 C 20.160156 16.125 20.046875 16.785156 19.933594 17.445312 C 19.882812 17.722656 19.839844 17.996094 19.789062 18.273438 C 19.726562 18.625 19.671875 18.976562 19.609375 19.328125 C 19.59375 19.40625 19.582031 19.484375 19.570312 19.5625 C 19.554688 19.65625 19.535156 19.746094 19.476562 19.828125 C 19.363281 19.984375 19.171875 20.070312 18.984375 20.09375 C 18.894531 20.105469 18.800781 20.097656 18.707031 20.097656 L 16.785156 20.097656 C 16.714844 20.097656 16.636719 20.09375 16.566406 20.109375 C 16.4375 20.140625 16.339844 20.246094 16.308594 20.375 C 16.265625 20.554688 16.371094 20.742188 16.550781 20.796875 C 16.640625 20.824219 16.742188 20.8125 16.835938 20.8125 L 18.746094 20.8125 C 18.859375 20.8125 18.972656 20.8125 19.082031 20.800781 C 19.417969 20.753906 19.738281 20.605469 19.96875 20.355469 C 20.046875 20.269531 20.113281 20.171875 20.164062 20.066406 C 20.261719 19.867188 20.277344 19.640625 20.316406 19.421875 C 20.382812 19.058594 20.441406 18.691406 20.503906 18.328125 C 20.667969 17.390625 20.824219 16.453125 20.988281 15.515625 C 21.042969 15.195312 21.097656 14.871094 21.152344 14.550781 C 21.171875 14.453125 21.1875 14.359375 21.203125 14.261719 C 21.210938 14.210938 21.214844 14.15625 21.230469 14.105469 C 21.230469 14.09375 21.242188 14.09375 21.25 14.09375 C 21.269531 14.085938 21.285156 14.082031 21.304688 14.074219 C 21.375 14.046875 21.445312 14.011719 21.507812 13.96875 C 21.671875 13.851562 21.792969 13.679688 21.847656 13.484375 C 21.882812 13.355469 21.878906 13.222656 21.878906 13.089844 C 21.878906 12.957031 21.890625 12.824219 21.867188 12.695312 C 21.828125 12.441406 21.671875 12.214844 21.453125 12.082031 C 21.402344 12.050781 21.34375 12.023438 21.285156 12.003906 C 21.265625 11.996094 21.246094 11.988281 21.222656 11.984375 C 21.222656 11.9375 21.214844 11.886719 21.210938 11.839844 C 21.203125 11.730469 21.1875 11.621094 21.171875 11.515625 C 21.101562 11.070312 20.96875 10.640625 20.78125 10.230469 C 20.605469 9.851562 20.378906 9.492188 20.113281 9.167969 C 20.039062 9.078125 19.960938 8.996094 19.882812 8.910156 C 19.839844 8.863281 19.796875 8.816406 19.75 8.773438 C 19.695312 8.726562 19.644531 8.675781 19.589844 8.628906 C 19.464844 8.515625 19.335938 8.410156 19.199219 8.3125 C 18.726562 7.96875 18.195312 7.71875 17.632812 7.5625 C 16.824219 7.335938 15.957031 7.332031 15.144531 7.53125 C 14.472656 7.699219 13.839844 8.011719 13.296875 8.441406 C 13.128906 8.574219 12.96875 8.714844 12.820312 8.871094 C 12.445312 9.261719 12.132812 9.703125 11.902344 10.195312 C 11.714844 10.589844 11.585938 11.007812 11.507812 11.4375 C 11.484375 11.554688 11.46875 11.675781 11.457031 11.792969 C 11.453125 11.855469 11.441406 11.921875 11.441406 11.984375 Z M 11.441406 11.984375 "/>
<path style=" stroke:none;fill-rule:nonzero;fill:rgb(100%,100%,100%);fill-opacity:1;" d="M 12.15625 11.957031 L 20.503906 11.957031 C 20.503906 11.910156 20.496094 11.863281 20.492188 11.816406 C 20.484375 11.734375 20.472656 11.648438 20.457031 11.5625 C 20.402344 11.257812 20.316406 10.960938 20.199219 10.675781 C 20.027344 10.265625 19.792969 9.882812 19.5 9.546875 C 19.246094 9.257812 18.957031 9 18.636719 8.789062 C 18.320312 8.582031 17.980469 8.417969 17.621094 8.300781 C 16.742188 8.019531 15.789062 8.035156 14.921875 8.34375 C 13.785156 8.746094 12.851562 9.660156 12.421875 10.785156 C 12.328125 11.03125 12.257812 11.285156 12.210938 11.546875 C 12.195312 11.632812 12.183594 11.722656 12.171875 11.808594 C 12.167969 11.859375 12.167969 11.90625 12.15625 11.957031 M 11.664062 12.667969 C 11.589844 12.675781 11.53125 12.714844 11.503906 12.785156 C 11.492188 12.828125 11.496094 12.875 11.496094 12.917969 L 11.496094 13.152344 C 11.496094 13.1875 11.492188 13.226562 11.496094 13.261719 C 11.503906 13.3125 11.53125 13.359375 11.570312 13.386719 C 11.585938 13.394531 11.601562 13.402344 11.617188 13.410156 C 11.648438 13.417969 11.683594 13.417969 11.714844 13.417969 L 20.921875 13.417969 C 20.996094 13.417969 21.070312 13.421875 21.125 13.359375 C 21.171875 13.308594 21.167969 13.246094 21.167969 13.183594 L 21.167969 12.929688 C 21.167969 12.882812 21.175781 12.828125 21.15625 12.78125 C 21.136719 12.730469 21.097656 12.691406 21.042969 12.675781 C 21.015625 12.667969 20.984375 12.667969 20.953125 12.667969 L 11.753906 12.667969 C 11.722656 12.667969 11.691406 12.664062 11.664062 12.667969 Z M 11.664062 12.667969 "/>
<path style=" stroke:none;fill-rule:nonzero;fill:rgb(0.392157%,0.392157%,0.392157%);fill-opacity:1;" d="M 19.195312 14.878906 C 19.15625 14.882812 19.121094 14.890625 19.082031 14.90625 C 19.054688 14.917969 19.027344 14.9375 19.003906 14.957031 C 18.949219 15 18.910156 15.058594 18.886719 15.125 C 18.863281 15.203125 18.863281 15.292969 18.851562 15.371094 C 18.839844 15.484375 18.824219 15.597656 18.8125 15.710938 C 18.71875 16.597656 18.597656 17.480469 18.503906 18.371094 C 18.492188 18.476562 18.476562 18.582031 18.464844 18.6875 C 18.460938 18.75 18.445312 18.808594 18.449219 18.871094 C 18.453125 18.976562 18.511719 19.085938 18.601562 19.144531 C 18.632812 19.164062 18.664062 19.179688 18.695312 19.191406 C 18.742188 19.207031 18.792969 19.210938 18.84375 19.207031 C 18.972656 19.195312 19.089844 19.105469 19.136719 18.984375 C 19.164062 18.914062 19.167969 18.835938 19.175781 18.761719 C 19.1875 18.636719 19.203125 18.511719 19.21875 18.386719 C 19.242188 18.21875 19.261719 18.050781 19.277344 17.878906 C 19.304688 17.644531 19.335938 17.40625 19.359375 17.167969 C 19.414062 16.679688 19.480469 16.191406 19.53125 15.703125 C 19.542969 15.605469 19.554688 15.503906 19.566406 15.40625 C 19.574219 15.34375 19.585938 15.28125 19.585938 15.21875 C 19.578125 15.109375 19.523438 15.003906 19.433594 14.941406 C 19.40625 14.921875 19.375 14.90625 19.34375 14.894531 C 19.296875 14.878906 19.242188 14.871094 19.195312 14.878906 Z M 19.195312 14.878906 "/>
<path style=" stroke:none;fill-rule:nonzero;fill:rgb(100%,100%,100%);fill-opacity:1;" d="M 8.09375 15.558594 L 8.09375 16.128906 L 9.773438 16.128906 L 9.773438 15.558594 L 8.09375 15.558594 M 3.574219 17.515625 L 14.292969 17.515625 L 14.292969 17.253906 C 14.292969 17.203125 14.296875 17.152344 14.289062 17.101562 C 14.28125 17.035156 14.246094 16.972656 14.199219 16.925781 C 14.152344 16.878906 14.089844 16.851562 14.023438 16.84375 C 13.980469 16.839844 13.933594 16.84375 13.890625 16.84375 L 3.976562 16.84375 C 3.933594 16.84375 3.890625 16.839844 3.847656 16.84375 C 3.773438 16.851562 3.707031 16.886719 3.65625 16.941406 C 3.613281 16.988281 3.582031 17.050781 3.578125 17.113281 C 3.574219 17.15625 3.574219 17.199219 3.574219 17.242188 L 3.574219 17.515625 M 3.054688 20.097656 L 3.566406 20.097656 L 3.578125 20.066406 L 3.605469 19.972656 L 3.710938 19.613281 L 3.964844 18.761719 L 4.121094 18.230469 L 3.675781 18.230469 L 3.664062 18.265625 L 3.632812 18.355469 L 3.519531 18.707031 L 3.203125 19.644531 L 3.101562 19.949219 L 3.070312 20.046875 L 3.054688 20.097656 M 4.3125 20.097656 L 4.929688 20.097656 C 4.9375 20.097656 4.964844 20.105469 4.972656 20.097656 C 4.980469 20.09375 4.984375 20.070312 4.984375 20.0625 C 4.992188 20.035156 5 20.003906 5.007812 19.972656 C 5.035156 19.859375 5.066406 19.742188 5.097656 19.628906 C 5.179688 19.308594 5.261719 18.992188 5.34375 18.671875 C 5.371094 18.574219 5.398438 18.472656 5.421875 18.371094 C 5.429688 18.339844 5.441406 18.308594 5.449219 18.273438 C 5.453125 18.261719 5.457031 18.246094 5.457031 18.230469 L 4.910156 18.230469 C 4.898438 18.230469 4.875 18.226562 4.867188 18.230469 C 4.859375 18.238281 4.855469 18.257812 4.855469 18.265625 C 4.84375 18.296875 4.835938 18.328125 4.828125 18.359375 C 4.792969 18.476562 4.757812 18.59375 4.722656 18.710938 C 4.628906 19.027344 4.535156 19.34375 4.441406 19.660156 C 4.410156 19.761719 4.382812 19.863281 4.351562 19.960938 C 4.339844 20.007812 4.320312 20.054688 4.3125 20.097656 M 6.195312 18.230469 L 6.152344 18.40625 L 6.070312 18.707031 L 5.847656 19.574219 L 5.757812 19.917969 L 5.730469 20.03125 L 5.710938 20.097656 L 6.371094 20.097656 L 6.597656 18.886719 L 6.679688 18.433594 L 6.71875 18.230469 L 6.195312 18.230469 M 7.441406 18.230469 C 7.441406 18.273438 7.425781 18.316406 7.417969 18.359375 C 7.402344 18.449219 7.386719 18.535156 7.371094 18.625 C 7.308594 18.960938 7.242188 19.296875 7.183594 19.636719 C 7.164062 19.742188 7.140625 19.847656 7.125 19.953125 C 7.113281 20 7.097656 20.050781 7.097656 20.097656 L 7.847656 20.097656 C 7.859375 20.042969 7.855469 19.984375 7.859375 19.929688 C 7.867188 19.816406 7.878906 19.703125 7.886719 19.585938 C 7.90625 19.300781 7.929688 19.011719 7.949219 18.722656 C 7.957031 18.621094 7.964844 18.519531 7.972656 18.421875 C 7.976562 18.355469 7.980469 18.292969 7.988281 18.230469 L 7.441406 18.230469 M 8.703125 18.230469 L 8.671875 18.640625 L 8.601562 19.601562 L 8.574219 19.941406 L 8.5625 20.097656 L 9.308594 20.097656 L 9.304688 20.042969 L 9.292969 19.910156 L 9.261719 19.496094 L 9.167969 18.230469 L 8.703125 18.230469 M 9.882812 18.230469 C 9.894531 18.285156 9.890625 18.34375 9.894531 18.402344 C 9.902344 18.515625 9.914062 18.628906 9.921875 18.742188 C 9.941406 19.03125 9.964844 19.316406 9.984375 19.605469 C 9.992188 19.707031 10 19.808594 10.007812 19.910156 C 10.011719 19.972656 10.015625 20.035156 10.023438 20.097656 L 10.773438 20.097656 L 10.761719 20.039062 L 10.746094 19.945312 L 10.683594 19.621094 L 10.511719 18.6875 L 10.449219 18.347656 L 10.433594 18.261719 L 10.425781 18.230469 L 9.882812 18.230469 M 11.152344 18.230469 L 11.195312 18.472656 L 11.273438 18.886719 L 11.5 20.097656 L 12.15625 20.097656 C 12.152344 20.046875 12.132812 19.992188 12.117188 19.941406 C 12.089844 19.828125 12.058594 19.714844 12.03125 19.601562 C 11.953125 19.304688 11.875 19.007812 11.796875 18.707031 C 11.773438 18.609375 11.746094 18.507812 11.722656 18.410156 C 11.707031 18.351562 11.6875 18.289062 11.675781 18.230469 L 11.152344 18.230469 M 12.410156 18.230469 C 12.414062 18.246094 12.417969 18.261719 12.421875 18.277344 C 12.429688 18.3125 12.441406 18.34375 12.449219 18.375 C 12.472656 18.472656 12.5 18.574219 12.527344 18.671875 C 12.609375 18.988281 12.691406 19.308594 12.773438 19.625 C 12.800781 19.742188 12.832031 19.855469 12.863281 19.972656 C 12.871094 20.003906 12.878906 20.035156 12.886719 20.066406 C 12.886719 20.074219 12.890625 20.09375 12.894531 20.097656 C 12.902344 20.105469 12.929688 20.097656 12.941406 20.097656 L 13.558594 20.097656 C 13.546875 20.050781 13.53125 20 13.515625 19.949219 C 13.488281 19.859375 13.460938 19.773438 13.4375 19.683594 C 13.339844 19.359375 13.242188 19.039062 13.148438 18.71875 C 13.113281 18.597656 13.078125 18.476562 13.042969 18.355469 C 13.035156 18.328125 13.023438 18.296875 13.015625 18.265625 C 13.011719 18.257812 13.011719 18.238281 13.003906 18.230469 C 12.996094 18.226562 12.972656 18.230469 12.960938 18.230469 L 12.410156 18.230469 M 13.75 18.230469 L 13.800781 18.40625 L 13.890625 18.710938 L 14.160156 19.621094 L 14.265625 19.972656 L 14.292969 20.066406 L 14.304688 20.097656 L 14.816406 20.097656 L 14.238281 18.363281 L 14.207031 18.265625 L 14.195312 18.230469 Z M 13.75 18.230469 "/>
</g>
</svg>
