<?xml version="1.0" encoding="UTF-8"?>
<svg xmlns="http://www.w3.org/2000/svg" xmlns:xlink="http://www.w3.org/1999/xlink" viewBox="0 0 24 24" version="1.1">
<g>
<path style=" stroke:none;fill-rule:nonzero;fill:rgb(0%,0%,0%);fill-opacity:1;" d="M 12.03125 3.019531 C 11.667969 3.042969 11.332031 3.191406 11.078125 3.441406 C 11 3.519531 10.9375 3.59375 10.878906 3.679688 C 10.730469 3.910156 10.648438 4.164062 10.636719 4.4375 C 10.632812 4.460938 10.632812 5.796875 10.632812 8.464844 L 10.632812 12.460938 L 10.617188 12.460938 C 10.558594 12.46875 10.488281 12.484375 10.429688 12.507812 C 10.402344 12.519531 10.351562 12.542969 10.328125 12.558594 C 10.273438 12.589844 10.230469 12.625 10.1875 12.667969 C 10.132812 12.722656 10.089844 12.785156 10.054688 12.855469 C 10.015625 12.933594 9.992188 13.003906 9.984375 13.097656 C 9.980469 13.117188 9.980469 13.15625 9.980469 13.5 L 9.980469 13.878906 L 7.261719 13.878906 C 5.125 13.878906 4.535156 13.878906 4.515625 13.882812 C 4.398438 13.890625 4.308594 13.90625 4.207031 13.9375 C 4.136719 13.960938 4.074219 13.984375 4 14.019531 C 3.742188 14.148438 3.53125 14.359375 3.398438 14.621094 C 3.324219 14.765625 3.28125 14.921875 3.265625 15.089844 C 3.257812 15.144531 3.257812 15.136719 3.257812 15.746094 C 3.257812 16.292969 3.257812 16.332031 3.261719 16.347656 C 3.277344 16.449219 3.328125 16.53125 3.40625 16.589844 C 3.417969 16.597656 3.425781 16.601562 3.429688 16.605469 L 3.433594 16.605469 L 2.863281 18.320312 C 2.546875 19.261719 2.289062 20.042969 2.285156 20.050781 C 2.277344 20.085938 2.273438 20.117188 2.277344 20.152344 C 2.277344 20.164062 2.277344 20.183594 2.277344 20.191406 C 2.292969 20.273438 2.328125 20.34375 2.382812 20.394531 C 2.441406 20.449219 2.511719 20.484375 2.589844 20.496094 C 2.613281 20.496094 21.613281 20.496094 21.636719 20.496094 C 21.746094 20.480469 21.839844 20.421875 21.898438 20.332031 C 21.949219 20.25 21.96875 20.144531 21.941406 20.046875 C 21.9375 20.039062 21.679688 19.261719 21.367188 18.320312 C 21.050781 17.378906 20.796875 16.605469 20.796875 16.605469 C 20.796875 16.605469 20.804688 16.601562 20.8125 16.59375 C 20.894531 16.539062 20.949219 16.457031 20.964844 16.351562 C 20.96875 16.339844 20.96875 16.308594 20.96875 15.761719 C 20.96875 15.359375 20.96875 15.171875 20.96875 15.152344 C 20.953125 14.847656 20.835938 14.566406 20.636719 14.335938 C 20.457031 14.128906 20.214844 13.984375 19.949219 13.917969 C 19.855469 13.894531 19.769531 13.882812 19.671875 13.878906 C 19.644531 13.878906 18.628906 13.878906 16.941406 13.878906 L 14.25 13.878906 L 14.25 13.503906 C 14.25 13.238281 14.246094 13.125 14.246094 13.113281 C 14.242188 13.0625 14.238281 13.035156 14.226562 12.996094 C 14.199219 12.890625 14.148438 12.789062 14.074219 12.703125 C 14.054688 12.679688 14.011719 12.640625 13.988281 12.621094 C 13.898438 12.542969 13.789062 12.496094 13.675781 12.472656 C 13.648438 12.464844 13.609375 12.460938 13.597656 12.460938 L 13.59375 12.460938 L 13.59375 8.4375 C 13.59375 4.652344 13.59375 4.417969 13.589844 4.390625 C 13.582031 4.304688 13.574219 4.242188 13.558594 4.171875 C 13.476562 3.804688 13.253906 3.480469 12.941406 3.273438 C 12.785156 3.167969 12.613281 3.09375 12.429688 3.050781 C 12.367188 3.039062 12.300781 3.027344 12.226562 3.023438 C 12.195312 3.019531 12.066406 3.019531 12.03125 3.019531 Z M 12.175781 3.734375 C 12.410156 3.753906 12.621094 3.875 12.75 4.070312 C 12.800781 4.144531 12.835938 4.226562 12.859375 4.3125 C 12.867188 4.355469 12.875 4.386719 12.878906 4.441406 C 12.882812 4.453125 12.882812 5.332031 12.882812 8.457031 L 12.882812 12.457031 L 11.347656 12.457031 L 11.347656 8.464844 C 11.347656 5.828125 11.347656 4.464844 11.347656 4.449219 C 11.351562 4.382812 11.363281 4.324219 11.382812 4.261719 C 11.460938 4.027344 11.644531 3.84375 11.878906 3.769531 C 11.972656 3.738281 12.074219 3.726562 12.175781 3.734375 Z M 13.535156 13.523438 L 13.535156 13.878906 L 10.691406 13.878906 L 10.691406 13.171875 L 13.535156 13.171875 Z M 19.6875 14.59375 C 19.695312 14.597656 19.710938 14.597656 19.722656 14.597656 C 19.910156 14.625 20.078125 14.742188 20.175781 14.910156 C 20.191406 14.933594 20.21875 14.996094 20.21875 15.003906 C 20.21875 15.003906 16.570312 15.003906 12.113281 15.003906 C 5.628906 15.003906 4.007812 15.003906 4.007812 15.003906 C 4.035156 14.9375 4.058594 14.894531 4.097656 14.84375 C 4.164062 14.753906 4.257812 14.679688 4.363281 14.636719 C 4.425781 14.613281 4.492188 14.597656 4.558594 14.59375 C 4.570312 14.59375 7.972656 14.59375 12.125 14.59375 C 17.980469 14.59375 19.675781 14.59375 19.6875 14.59375 Z M 20.257812 15.828125 L 20.257812 15.945312 L 3.972656 15.945312 L 3.972656 15.714844 L 20.257812 15.714844 Z M 5.1875 16.65625 C 5.1875 16.65625 4.980469 17.363281 4.722656 18.222656 L 4.261719 19.785156 L 3.695312 19.785156 C 3.238281 19.785156 3.125 19.785156 3.125 19.78125 C 3.125 19.78125 3.359375 19.078125 3.648438 18.21875 L 4.167969 16.65625 L 4.679688 16.65625 C 4.957031 16.65625 5.1875 16.65625 5.1875 16.65625 Z M 7.171875 16.65625 C 7.171875 16.65625 6.988281 17.359375 6.765625 18.21875 L 6.359375 19.785156 L 5.003906 19.785156 L 5.292969 18.8125 C 5.453125 18.277344 5.660156 17.574219 5.757812 17.25 L 5.933594 16.65625 L 6.550781 16.65625 C 6.890625 16.65625 7.171875 16.65625 7.171875 16.65625 Z M 9.023438 16.660156 C 9.023438 16.660156 8.894531 17.363281 8.734375 18.222656 C 8.578125 19.078125 8.445312 19.78125 8.445312 19.78125 C 8.445312 19.785156 8.410156 19.785156 7.769531 19.785156 C 7.128906 19.785156 7.09375 19.785156 7.097656 19.78125 C 7.097656 19.78125 7.277344 19.078125 7.5 18.21875 C 7.722656 17.363281 7.90625 16.660156 7.90625 16.65625 C 7.90625 16.65625 8.019531 16.65625 8.464844 16.65625 L 9.023438 16.65625 Z M 10.890625 16.664062 C 10.890625 16.667969 10.839844 17.371094 10.773438 18.222656 C 10.710938 19.074219 10.660156 19.773438 10.660156 19.777344 L 10.660156 19.785156 L 9.171875 19.785156 L 9.171875 19.78125 C 9.171875 19.777344 9.300781 19.074219 9.460938 18.21875 L 9.75 16.65625 L 10.890625 16.65625 Z M 12.621094 16.660156 C 12.625 16.660156 12.675781 17.359375 12.738281 18.214844 C 12.800781 19.066406 12.851562 19.769531 12.855469 19.773438 L 12.855469 19.785156 L 11.375 19.785156 L 11.375 19.777344 C 11.375 19.773438 11.605469 16.660156 11.605469 16.65625 C 11.605469 16.65625 11.835938 16.65625 12.113281 16.65625 L 12.621094 16.65625 Z M 14.480469 16.660156 C 14.480469 16.664062 14.609375 17.367188 14.769531 18.222656 L 15.058594 19.785156 L 14.3125 19.785156 C 13.902344 19.785156 13.570312 19.785156 13.570312 19.785156 C 13.570312 19.78125 13.335938 16.664062 13.335938 16.660156 L 13.335938 16.65625 L 14.476562 16.65625 Z M 16.320312 16.65625 C 16.320312 16.65625 16.503906 17.359375 16.726562 18.21875 C 16.949219 19.078125 17.132812 19.78125 17.132812 19.78125 C 17.132812 19.785156 16.828125 19.785156 16.457031 19.785156 L 15.78125 19.785156 L 15.78125 19.769531 C 15.777344 19.765625 15.648438 19.0625 15.492188 18.210938 C 15.332031 17.359375 15.203125 16.660156 15.203125 16.660156 C 15.203125 16.65625 15.273438 16.65625 15.761719 16.65625 C 16.070312 16.65625 16.320312 16.65625 16.320312 16.65625 Z M 18.757812 18.21875 C 19.015625 19.078125 19.222656 19.785156 19.222656 19.785156 C 19.222656 19.785156 18.917969 19.785156 18.546875 19.785156 C 18.171875 19.785156 17.867188 19.785156 17.867188 19.785156 C 17.867188 19.785156 17.6875 19.082031 17.464844 18.222656 C 17.242188 17.363281 17.058594 16.660156 17.058594 16.65625 C 17.058594 16.65625 17.335938 16.65625 17.675781 16.65625 L 18.296875 16.65625 Z M 20.582031 18.21875 C 20.867188 19.078125 21.101562 19.78125 21.101562 19.78125 C 21.101562 19.785156 20.847656 19.785156 20.535156 19.785156 L 19.964844 19.785156 L 19.503906 18.222656 C 19.25 17.363281 19.042969 16.660156 19.039062 16.660156 L 19.039062 16.65625 L 20.058594 16.65625 Z M 20.582031 18.21875 "/>
</g>
</svg>
