<?xml version="1.0" encoding="UTF-8"?>
<svg xmlns="http://www.w3.org/2000/svg" xmlns:xlink="http://www.w3.org/1999/xlink" viewBox="0 0 24 24" version="1.1">
<g>
<path style=" stroke:none;fill-rule:nonzero;fill:rgb(0%,0%,0%);fill-opacity:1;" d="M 16.484375 2.203125 C 16.457031 2.207031 16.421875 2.214844 16.398438 2.226562 C 16.378906 2.230469 13.871094 3.433594 13.851562 3.441406 C 13.8125 3.464844 13.769531 3.5 13.746094 3.535156 C 13.691406 3.605469 13.664062 3.695312 13.671875 3.777344 C 13.675781 3.828125 13.6875 3.867188 13.707031 3.910156 C 13.734375 3.964844 13.777344 4.015625 13.832031 4.050781 C 13.929688 4.113281 14.054688 4.125 14.160156 4.082031 C 14.175781 4.078125 16.640625 2.898438 16.683594 2.875 C 16.769531 2.832031 16.835938 2.757812 16.863281 2.664062 C 16.894531 2.578125 16.882812 2.480469 16.84375 2.394531 C 16.832031 2.378906 16.816406 2.347656 16.800781 2.332031 C 16.789062 2.320312 16.765625 2.292969 16.75 2.28125 C 16.699219 2.238281 16.632812 2.210938 16.566406 2.203125 C 16.546875 2.203125 16.503906 2.203125 16.484375 2.203125 Z M 16.484375 2.203125 "/>
<path style=" stroke:none;fill-rule:nonzero;fill:rgb(0%,0%,0%);fill-opacity:1;" d="M 9.34375 3.796875 C 9.105469 3.800781 8.925781 3.808594 8.765625 3.824219 C 8.25 3.871094 7.726562 4.035156 7.261719 4.300781 C 7.046875 4.425781 6.84375 4.570312 6.667969 4.726562 C 6.589844 4.800781 6.492188 4.894531 6.421875 4.972656 C 6.253906 5.160156 6.113281 5.363281 6 5.582031 C 5.953125 5.675781 5.933594 5.730469 5.921875 5.800781 C 5.921875 5.824219 5.917969 5.882812 5.921875 5.902344 C 5.933594 6.046875 6.007812 6.167969 6.132812 6.246094 C 6.214844 6.300781 6.320312 6.332031 6.457031 6.347656 C 6.546875 6.359375 6.625 6.363281 6.835938 6.371094 C 7.003906 6.378906 7.097656 6.382812 7.1875 6.390625 C 7.496094 6.414062 7.707031 6.472656 7.851562 6.570312 C 7.878906 6.585938 7.917969 6.621094 7.917969 6.621094 C 7.914062 6.621094 7.910156 6.625 7.898438 6.628906 C 7.789062 6.671875 7.695312 6.761719 7.644531 6.871094 C 7.617188 6.925781 7.601562 6.980469 7.597656 7.042969 C 7.59375 7.054688 7.59375 7.203125 7.59375 7.453125 L 7.59375 7.839844 L 7.570312 7.859375 C 7.457031 7.933594 7.359375 8.023438 7.28125 8.128906 C 7.21875 8.207031 7.164062 8.300781 7.125 8.394531 C 7.0625 8.554688 7.035156 8.730469 7.046875 8.917969 C 7.050781 8.96875 7.054688 9.015625 7.066406 9.085938 C 7.109375 9.355469 7.125 9.539062 7.125 9.734375 C 7.125 9.808594 7.125 9.851562 7.121094 9.910156 C 7.09375 10.324219 6.964844 10.6875 6.730469 11.027344 C 6.6875 11.085938 6.652344 11.128906 6.578125 11.222656 C 6.433594 11.402344 6.308594 11.5625 6.183594 11.730469 C 5.542969 12.605469 5.054688 13.535156 4.730469 14.503906 C 4.441406 15.359375 4.28125 16.246094 4.242188 17.152344 C 4.238281 17.3125 4.234375 17.425781 4.234375 17.601562 C 4.238281 17.761719 4.238281 17.839844 4.246094 17.980469 C 4.289062 18.960938 4.476562 19.949219 4.800781 20.898438 C 4.84375 21.027344 4.90625 21.203125 4.925781 21.25 C 5.007812 21.457031 5.140625 21.625 5.308594 21.734375 C 5.4375 21.820312 5.578125 21.867188 5.730469 21.878906 C 5.75 21.878906 6.585938 21.878906 8.730469 21.878906 C 11.5625 21.878906 11.707031 21.878906 11.726562 21.875 C 11.757812 21.871094 11.792969 21.867188 11.816406 21.863281 C 12.042969 21.816406 12.238281 21.683594 12.382812 21.484375 C 12.421875 21.425781 12.464844 21.351562 12.496094 21.28125 C 12.519531 21.222656 12.644531 20.898438 12.703125 20.734375 C 13.140625 19.542969 13.378906 18.457031 13.429688 17.445312 C 13.429688 17.382812 13.429688 17.347656 13.417969 17.304688 C 13.40625 17.253906 13.375 17.199219 13.335938 17.15625 C 13.234375 17.042969 13.070312 17.007812 12.929688 17.070312 C 12.902344 17.082031 12.871094 17.101562 12.847656 17.121094 C 12.835938 17.132812 12.808594 17.15625 12.796875 17.171875 C 12.765625 17.210938 12.742188 17.253906 12.730469 17.296875 C 12.722656 17.328125 12.71875 17.355469 12.71875 17.390625 C 12.703125 17.738281 12.65625 18.121094 12.589844 18.5 C 12.472656 19.136719 12.289062 19.792969 12.027344 20.507812 C 11.960938 20.691406 11.847656 20.988281 11.832031 21.019531 C 11.792969 21.097656 11.738281 21.148438 11.679688 21.160156 C 11.675781 21.164062 11.664062 21.164062 11.65625 21.167969 C 11.636719 21.167969 5.792969 21.167969 5.773438 21.167969 C 5.71875 21.160156 5.667969 21.125 5.625 21.058594 C 5.601562 21.027344 5.59375 21.007812 5.5625 20.917969 C 5.484375 20.703125 5.433594 20.546875 5.378906 20.371094 C 5.132812 19.574219 4.992188 18.75 4.957031 17.9375 C 4.949219 17.777344 4.949219 17.683594 4.949219 17.5 C 4.949219 17.351562 4.949219 17.316406 4.953125 17.210938 C 4.992188 16.175781 5.207031 15.175781 5.59375 14.222656 C 5.875 13.535156 6.238281 12.878906 6.691406 12.242188 C 6.824219 12.058594 6.976562 11.863281 7.117188 11.6875 C 7.171875 11.625 7.195312 11.59375 7.222656 11.5625 C 7.386719 11.351562 7.523438 11.117188 7.621094 10.878906 C 7.742188 10.585938 7.8125 10.277344 7.832031 9.953125 C 7.835938 9.882812 7.839844 9.859375 7.839844 9.769531 C 7.839844 9.523438 7.824219 9.304688 7.773438 8.984375 C 7.765625 8.949219 7.761719 8.914062 7.761719 8.910156 C 7.746094 8.777344 7.769531 8.667969 7.832031 8.578125 L 7.84375 8.5625 L 7.851562 8.566406 C 7.890625 8.582031 7.972656 8.613281 8.027344 8.628906 C 8.238281 8.6875 8.488281 8.722656 8.785156 8.738281 C 8.953125 8.746094 9.140625 8.746094 9.28125 8.738281 C 9.554688 8.722656 9.804688 8.683594 10.023438 8.621094 C 10.054688 8.613281 10.117188 8.59375 10.125 8.589844 C 10.128906 8.585938 10.164062 8.632812 10.179688 8.65625 C 10.195312 8.683594 10.207031 8.710938 10.210938 8.738281 C 10.214844 8.75 10.214844 8.757812 10.214844 8.78125 C 10.214844 8.816406 10.214844 8.828125 10.207031 8.863281 C 10.195312 8.898438 10.179688 8.941406 10.160156 8.984375 C 10.117188 9.070312 10.066406 9.148438 9.964844 9.289062 C 9.867188 9.429688 9.832031 9.476562 9.800781 9.535156 C 9.757812 9.613281 9.734375 9.683594 9.726562 9.757812 C 9.722656 9.796875 9.726562 9.851562 9.734375 9.890625 C 9.746094 9.953125 9.773438 10.015625 9.816406 10.066406 C 9.832031 10.085938 9.839844 10.09375 9.867188 10.121094 C 9.945312 10.195312 9.992188 10.257812 10.015625 10.335938 C 10.050781 10.4375 10.050781 10.554688 10.007812 10.691406 C 9.96875 10.8125 9.894531 10.953125 9.816406 11.054688 C 9.800781 11.074219 9.789062 11.09375 9.777344 11.117188 C 9.753906 11.164062 9.742188 11.210938 9.742188 11.261719 C 9.738281 11.375 9.789062 11.484375 9.875 11.554688 C 9.898438 11.574219 9.921875 11.59375 9.941406 11.613281 C 10.050781 11.726562 10.121094 11.867188 10.140625 12.011719 C 10.148438 12.0625 10.152344 12.132812 10.148438 12.183594 C 10.136719 12.289062 10.109375 12.390625 10.066406 12.5 C 10.054688 12.527344 10.046875 12.542969 10.042969 12.5625 C 10.011719 12.683594 10.046875 12.8125 10.136719 12.902344 C 10.160156 12.929688 10.171875 12.9375 10.246094 12.980469 C 10.722656 13.277344 11.109375 13.5625 11.429688 13.851562 C 11.546875 13.953125 11.679688 14.085938 11.777344 14.195312 C 11.839844 14.265625 11.90625 14.34375 11.960938 14.414062 C 11.976562 14.429688 11.992188 14.453125 12 14.460938 C 12.03125 14.5 12.074219 14.535156 12.121094 14.558594 C 12.144531 14.570312 12.164062 14.578125 12.191406 14.582031 C 12.222656 14.589844 12.242188 14.59375 12.277344 14.59375 C 12.328125 14.59375 12.367188 14.585938 12.410156 14.570312 C 12.53125 14.519531 12.617188 14.40625 12.632812 14.273438 C 12.632812 14.253906 12.632812 14.203125 12.628906 14.183594 C 12.621094 14.144531 12.613281 14.113281 12.59375 14.074219 C 12.578125 14.042969 12.566406 14.027344 12.5 13.941406 C 12.3125 13.710938 12.089844 13.480469 11.832031 13.253906 C 11.574219 13.027344 11.269531 12.796875 10.933594 12.574219 C 10.890625 12.546875 10.820312 12.5 10.816406 12.496094 C 10.816406 12.496094 10.816406 12.484375 10.820312 12.46875 C 10.84375 12.378906 10.855469 12.292969 10.859375 12.199219 C 10.863281 12.167969 10.863281 12.070312 10.859375 12.039062 C 10.84375 11.753906 10.746094 11.488281 10.574219 11.257812 L 10.550781 11.226562 L 10.5625 11.203125 C 10.589844 11.152344 10.621094 11.085938 10.644531 11.03125 C 10.789062 10.664062 10.792969 10.3125 10.652344 10 C 10.617188 9.929688 10.574219 9.855469 10.523438 9.785156 L 10.503906 9.761719 L 10.539062 9.710938 C 10.644531 9.566406 10.707031 9.476562 10.761719 9.375 C 10.894531 9.132812 10.949219 8.902344 10.921875 8.679688 C 10.894531 8.402344 10.742188 8.15625 10.480469 7.945312 L 10.453125 7.925781 L 10.453125 7.484375 C 10.453125 7.003906 10.453125 7.039062 10.445312 6.992188 C 10.421875 6.863281 10.347656 6.75 10.238281 6.675781 C 10.226562 6.667969 10.210938 6.660156 10.203125 6.652344 C 10.195312 6.648438 10.1875 6.644531 10.1875 6.644531 C 10.1875 6.644531 10.207031 6.609375 10.21875 6.589844 C 10.242188 6.546875 10.292969 6.480469 10.292969 6.480469 C 10.292969 6.480469 10.300781 6.496094 10.308594 6.511719 C 10.355469 6.617188 10.417969 6.738281 10.472656 6.839844 C 10.75 7.34375 11.121094 7.804688 11.59375 8.230469 C 11.816406 8.433594 12.070312 8.628906 12.351562 8.824219 C 12.433594 8.878906 12.578125 8.976562 12.605469 8.992188 C 12.65625 9.023438 12.710938 9.039062 12.769531 9.050781 C 12.785156 9.050781 12.796875 9.050781 12.828125 9.050781 C 12.859375 9.050781 12.871094 9.050781 12.882812 9.050781 C 12.9375 9.042969 12.976562 9.027344 13.023438 9.007812 C 13.0625 8.984375 13.097656 8.960938 13.128906 8.929688 C 13.167969 8.890625 13.199219 8.851562 13.222656 8.800781 C 13.28125 8.679688 13.285156 8.539062 13.238281 8.414062 C 13.226562 8.394531 13.210938 8.355469 13.199219 8.335938 C 13.191406 8.324219 13.136719 8.246094 13.039062 8.109375 C 12.847656 7.832031 12.730469 7.660156 12.613281 7.472656 C 12.289062 6.953125 12.050781 6.46875 11.890625 5.988281 C 11.878906 5.949219 11.855469 5.875 11.855469 5.875 C 11.855469 5.875 12.074219 5.875 12.339844 5.875 C 12.867188 5.875 12.839844 5.875 12.875 5.867188 C 12.945312 5.851562 13.019531 5.8125 13.066406 5.757812 C 13.113281 5.703125 13.144531 5.640625 13.15625 5.566406 C 13.15625 5.550781 13.15625 5.507812 13.15625 4.890625 C 13.15625 4.277344 13.15625 4.234375 13.15625 4.21875 C 13.144531 4.144531 13.113281 4.082031 13.066406 4.027344 C 13.019531 3.972656 12.945312 3.933594 12.871094 3.917969 C 12.839844 3.910156 12.867188 3.910156 12.300781 3.910156 L 11.773438 3.910156 L 11.722656 3.90625 C 11.398438 3.875 10.96875 3.847656 10.609375 3.828125 C 10.339844 3.8125 10.128906 3.804688 9.847656 3.800781 C 9.789062 3.796875 9.398438 3.796875 9.34375 3.796875 Z M 9.773438 4.511719 C 10.148438 4.515625 10.535156 4.535156 10.984375 4.5625 C 11.113281 4.574219 11.382812 4.59375 11.390625 4.59375 L 11.394531 4.59375 L 11.394531 5.179688 L 11.367188 5.179688 C 11.304688 5.1875 11.214844 5.203125 11.144531 5.214844 C 10.832031 5.277344 10.550781 5.382812 10.304688 5.53125 C 10.21875 5.582031 10.144531 5.632812 10.070312 5.695312 C 10.003906 5.746094 9.96875 5.78125 9.90625 5.84375 C 9.84375 5.90625 9.808594 5.945312 9.757812 6.003906 C 9.636719 6.15625 9.539062 6.320312 9.464844 6.503906 C 9.453125 6.527344 9.433594 6.578125 9.429688 6.589844 C 9.429688 6.59375 9.359375 6.59375 9.078125 6.59375 L 8.726562 6.59375 L 8.722656 6.582031 C 8.714844 6.5625 8.695312 6.519531 8.6875 6.496094 C 8.554688 6.199219 8.320312 5.976562 7.992188 5.839844 C 7.785156 5.757812 7.546875 5.703125 7.25 5.679688 C 7.136719 5.671875 7.042969 5.664062 6.855469 5.660156 C 6.820312 5.65625 6.789062 5.65625 6.789062 5.65625 C 6.785156 5.65625 6.835938 5.589844 6.867188 5.550781 C 7.0625 5.304688 7.324219 5.085938 7.621094 4.917969 C 7.691406 4.878906 7.789062 4.828125 7.859375 4.796875 C 8.152344 4.660156 8.460938 4.574219 8.761719 4.539062 C 8.890625 4.527344 9.089844 4.515625 9.296875 4.511719 C 9.378906 4.507812 9.683594 4.507812 9.773438 4.511719 Z M 12.445312 4.890625 L 12.445312 5.164062 L 12.109375 5.164062 L 12.109375 4.621094 L 12.445312 4.621094 Z M 11.136719 5.960938 C 11.253906 6.363281 11.410156 6.757812 11.617188 7.160156 C 11.648438 7.222656 11.707031 7.328125 11.714844 7.347656 C 11.71875 7.351562 11.710938 7.34375 11.691406 7.320312 C 11.382812 6.980469 11.136719 6.609375 10.960938 6.222656 C 10.925781 6.148438 10.878906 6.039062 10.882812 6.035156 C 10.886719 6.03125 10.972656 6 11.027344 5.984375 C 11.058594 5.972656 11.128906 5.953125 11.132812 5.953125 C 11.132812 5.949219 11.132812 5.957031 11.136719 5.960938 Z M 9.742188 7.632812 L 9.742188 7.957031 L 9.734375 7.960938 C 9.710938 7.964844 9.636719 7.980469 9.589844 7.988281 C 9.464844 8.007812 9.347656 8.019531 9.191406 8.027344 C 9.144531 8.03125 8.945312 8.03125 8.886719 8.027344 C 8.664062 8.019531 8.5 8.003906 8.347656 7.972656 C 8.328125 7.96875 8.308594 7.964844 8.308594 7.964844 C 8.308594 7.964844 8.308594 7.816406 8.308594 7.636719 L 8.308594 7.304688 L 9.742188 7.304688 Z M 9.742188 7.632812 "/>
<path style=" stroke:none;fill-rule:nonzero;fill:rgb(0%,0%,0%);fill-opacity:1;" d="M 13.980469 4.539062 C 13.847656 4.554688 13.734375 4.648438 13.691406 4.773438 C 13.675781 4.8125 13.671875 4.847656 13.671875 4.890625 C 13.671875 4.945312 13.679688 4.988281 13.699219 5.035156 C 13.734375 5.109375 13.792969 5.171875 13.867188 5.210938 C 13.90625 5.230469 13.949219 5.242188 13.992188 5.246094 C 14.003906 5.246094 14.476562 5.246094 15.722656 5.246094 L 17.433594 5.246094 L 17.453125 5.242188 C 17.503906 5.234375 17.550781 5.214844 17.589844 5.191406 C 17.613281 5.175781 17.625 5.164062 17.644531 5.144531 C 17.699219 5.089844 17.730469 5.027344 17.746094 4.953125 C 17.746094 4.933594 17.75 4.929688 17.75 4.894531 C 17.75 4.851562 17.746094 4.839844 17.738281 4.808594 C 17.703125 4.660156 17.582031 4.554688 17.433594 4.539062 C 17.421875 4.535156 16.910156 4.535156 15.707031 4.535156 C 14.25 4.535156 13.996094 4.535156 13.980469 4.539062 Z M 13.980469 4.539062 "/>
<path style=" stroke:none;fill-rule:nonzero;fill:rgb(0%,0%,0%);fill-opacity:1;" d="M 13.996094 5.675781 C 13.96875 5.679688 13.929688 5.6875 13.90625 5.695312 C 13.882812 5.707031 13.851562 5.722656 13.828125 5.734375 C 13.777344 5.773438 13.738281 5.816406 13.707031 5.875 C 13.6875 5.917969 13.675781 5.957031 13.671875 6.007812 C 13.667969 6.046875 13.671875 6.082031 13.683594 6.121094 C 13.707031 6.214844 13.769531 6.296875 13.855469 6.34375 C 13.871094 6.351562 16.375 7.550781 16.390625 7.558594 C 16.417969 7.566406 16.441406 7.574219 16.472656 7.578125 C 16.492188 7.582031 16.554688 7.582031 16.578125 7.578125 C 16.644531 7.566406 16.699219 7.542969 16.75 7.503906 C 16.863281 7.414062 16.910156 7.257812 16.863281 7.121094 C 16.835938 7.027344 16.773438 6.953125 16.6875 6.910156 C 16.660156 6.898438 14.175781 5.707031 14.164062 5.703125 C 14.140625 5.691406 14.109375 5.683594 14.078125 5.679688 C 14.058594 5.675781 14.015625 5.675781 13.996094 5.675781 Z M 13.996094 5.675781 "/>
<path style=" stroke:none;fill-rule:nonzero;fill:rgb(0%,0%,0%);fill-opacity:1;" d="M 15.453125 8.960938 C 15.4375 8.960938 15.414062 8.964844 15.398438 8.96875 C 15.3125 8.992188 15.238281 9.042969 15.1875 9.117188 C 15.15625 9.160156 15.136719 9.210938 15.128906 9.265625 C 15.128906 9.273438 15.128906 9.296875 15.125 9.316406 C 15.125 9.335938 15.125 9.359375 15.121094 9.367188 C 15.105469 9.503906 15.027344 9.660156 14.90625 9.800781 C 14.886719 9.824219 14.832031 9.878906 14.808594 9.898438 C 14.691406 10.007812 14.554688 10.085938 14.429688 10.117188 C 14.386719 10.128906 14.351562 10.132812 14.304688 10.136719 C 14.289062 10.136719 14.269531 10.136719 14.261719 10.136719 C 14.183594 10.148438 14.109375 10.183594 14.054688 10.238281 C 13.972656 10.320312 13.933594 10.441406 13.957031 10.554688 C 13.972656 10.652344 14.027344 10.734375 14.109375 10.789062 C 14.140625 10.808594 14.179688 10.828125 14.21875 10.835938 C 14.246094 10.84375 14.265625 10.847656 14.304688 10.847656 C 14.324219 10.847656 14.34375 10.847656 14.351562 10.851562 C 14.453125 10.863281 14.566406 10.90625 14.675781 10.980469 C 14.914062 11.136719 15.09375 11.394531 15.121094 11.617188 C 15.125 11.625 15.125 11.648438 15.125 11.667969 C 15.128906 11.71875 15.132812 11.742188 15.144531 11.78125 C 15.164062 11.835938 15.191406 11.882812 15.234375 11.925781 C 15.324219 12.011719 15.453125 12.042969 15.574219 12.011719 C 15.597656 12.007812 15.617188 12 15.640625 11.988281 C 15.746094 11.933594 15.820312 11.835938 15.835938 11.714844 C 15.835938 11.707031 15.839844 11.683594 15.839844 11.664062 C 15.839844 11.613281 15.847656 11.578125 15.859375 11.535156 C 15.90625 11.363281 16.03125 11.1875 16.199219 11.046875 C 16.304688 10.957031 16.429688 10.890625 16.542969 10.863281 C 16.585938 10.851562 16.609375 10.847656 16.660156 10.847656 C 16.679688 10.847656 16.703125 10.84375 16.710938 10.84375 C 16.8125 10.828125 16.902344 10.773438 16.957031 10.6875 C 16.984375 10.644531 17.003906 10.597656 17.011719 10.546875 C 17.015625 10.527344 17.015625 10.480469 17.015625 10.457031 C 17.007812 10.40625 16.992188 10.355469 16.96875 10.3125 C 16.914062 10.214844 16.816406 10.152344 16.703125 10.136719 C 16.695312 10.136719 16.671875 10.136719 16.652344 10.132812 C 16.632812 10.132812 16.609375 10.132812 16.601562 10.132812 C 16.441406 10.109375 16.265625 10.007812 16.117188 9.859375 C 15.996094 9.742188 15.910156 9.605469 15.867188 9.472656 C 15.851562 9.421875 15.839844 9.363281 15.839844 9.324219 C 15.839844 9.261719 15.828125 9.210938 15.800781 9.15625 C 15.765625 9.085938 15.710938 9.03125 15.640625 8.996094 C 15.601562 8.976562 15.558594 8.964844 15.515625 8.960938 C 15.503906 8.960938 15.464844 8.957031 15.453125 8.960938 Z M 15.53125 10.28125 C 15.589844 10.347656 15.65625 10.410156 15.726562 10.46875 C 15.738281 10.480469 15.75 10.492188 15.75 10.492188 C 15.75 10.492188 15.742188 10.5 15.734375 10.503906 C 15.65625 10.570312 15.570312 10.65625 15.503906 10.734375 C 15.492188 10.746094 15.484375 10.757812 15.484375 10.757812 C 15.484375 10.757812 15.480469 10.757812 15.46875 10.742188 C 15.417969 10.679688 15.363281 10.621094 15.304688 10.570312 C 15.28125 10.546875 15.242188 10.515625 15.226562 10.5 C 15.21875 10.496094 15.214844 10.492188 15.214844 10.492188 C 15.214844 10.492188 15.226562 10.484375 15.238281 10.472656 C 15.320312 10.402344 15.402344 10.320312 15.46875 10.242188 L 15.484375 10.222656 L 15.496094 10.242188 C 15.503906 10.25 15.519531 10.265625 15.53125 10.28125 Z M 15.53125 10.28125 "/>
<path style=" stroke:none;fill-rule:nonzero;fill:rgb(0%,0%,0%);fill-opacity:1;" d="M 18.46875 11.269531 C 18.414062 11.277344 18.382812 11.285156 18.339844 11.304688 C 18.300781 11.324219 18.277344 11.34375 18.246094 11.375 C 18.21875 11.402344 18.199219 11.429688 18.179688 11.46875 C 18.164062 11.5 18.152344 11.535156 18.144531 11.574219 C 18.144531 11.582031 18.144531 11.605469 18.144531 11.625 C 18.140625 11.714844 18.128906 11.773438 18.109375 11.851562 C 18.054688 12.035156 17.941406 12.230469 17.785156 12.402344 C 17.761719 12.429688 17.695312 12.5 17.667969 12.523438 C 17.484375 12.691406 17.273438 12.8125 17.078125 12.859375 C 17.011719 12.878906 16.960938 12.882812 16.886719 12.886719 C 16.828125 12.886719 16.792969 12.894531 16.75 12.910156 C 16.632812 12.957031 16.546875 13.0625 16.527344 13.191406 C 16.523438 13.21875 16.523438 13.265625 16.527344 13.292969 C 16.550781 13.429688 16.636719 13.535156 16.765625 13.578125 C 16.804688 13.59375 16.832031 13.597656 16.890625 13.597656 C 16.9375 13.601562 16.964844 13.601562 17.003906 13.609375 C 17.101562 13.625 17.199219 13.660156 17.304688 13.710938 C 17.425781 13.773438 17.542969 13.851562 17.65625 13.953125 C 17.683594 13.976562 17.765625 14.058594 17.789062 14.082031 C 17.890625 14.199219 17.96875 14.316406 18.03125 14.4375 C 18.09375 14.5625 18.128906 14.6875 18.140625 14.804688 C 18.140625 14.8125 18.140625 14.839844 18.144531 14.859375 C 18.144531 14.890625 18.144531 14.902344 18.148438 14.917969 C 18.171875 15.058594 18.273438 15.171875 18.414062 15.207031 C 18.445312 15.214844 18.460938 15.214844 18.5 15.214844 C 18.535156 15.214844 18.550781 15.214844 18.585938 15.207031 C 18.609375 15.199219 18.632812 15.191406 18.65625 15.179688 C 18.691406 15.160156 18.722656 15.140625 18.75 15.109375 C 18.804688 15.058594 18.839844 14.992188 18.851562 14.914062 C 18.851562 14.90625 18.855469 14.878906 18.855469 14.851562 C 18.859375 14.789062 18.863281 14.753906 18.871094 14.707031 C 18.890625 14.613281 18.921875 14.523438 18.972656 14.425781 C 19.03125 14.308594 19.109375 14.195312 19.207031 14.085938 C 19.230469 14.058594 19.3125 13.976562 19.339844 13.953125 C 19.453125 13.851562 19.570312 13.769531 19.691406 13.710938 C 19.800781 13.65625 19.898438 13.625 19.996094 13.609375 C 20.035156 13.601562 20.058594 13.601562 20.105469 13.597656 C 20.164062 13.597656 20.191406 13.59375 20.230469 13.578125 C 20.359375 13.535156 20.449219 13.429688 20.46875 13.292969 C 20.472656 13.265625 20.472656 13.21875 20.46875 13.191406 C 20.464844 13.152344 20.453125 13.121094 20.4375 13.085938 C 20.382812 12.980469 20.285156 12.910156 20.167969 12.890625 C 20.15625 12.890625 20.132812 12.886719 20.109375 12.886719 C 20.039062 12.882812 19.988281 12.878906 19.921875 12.859375 C 19.738281 12.816406 19.546875 12.710938 19.375 12.5625 C 19.304688 12.503906 19.226562 12.425781 19.167969 12.355469 C 19.011719 12.167969 18.90625 11.964844 18.871094 11.777344 C 18.859375 11.726562 18.859375 11.695312 18.855469 11.632812 C 18.851562 11.578125 18.851562 11.5625 18.84375 11.535156 C 18.804688 11.390625 18.6875 11.289062 18.539062 11.269531 C 18.523438 11.269531 18.480469 11.269531 18.46875 11.269531 Z M 18.511719 12.671875 C 18.566406 12.75 18.636719 12.835938 18.710938 12.914062 C 18.742188 12.949219 18.820312 13.023438 18.851562 13.054688 C 18.921875 13.117188 19 13.179688 19.070312 13.230469 C 19.082031 13.238281 19.085938 13.242188 19.085938 13.242188 C 19.085938 13.246094 19.078125 13.25 19.066406 13.257812 C 18.882812 13.390625 18.703125 13.5625 18.5625 13.746094 C 18.542969 13.769531 18.507812 13.820312 18.503906 13.828125 C 18.5 13.828125 18.5 13.832031 18.5 13.832031 C 18.496094 13.832031 18.488281 13.820312 18.476562 13.804688 C 18.332031 13.597656 18.136719 13.40625 17.933594 13.261719 C 17.921875 13.25 17.910156 13.246094 17.910156 13.242188 C 17.910156 13.242188 17.917969 13.238281 17.925781 13.230469 C 18.136719 13.078125 18.339844 12.875 18.488281 12.667969 C 18.492188 12.660156 18.5 12.65625 18.5 12.65625 C 18.5 12.65625 18.503906 12.660156 18.511719 12.671875 Z M 18.511719 12.671875 "/>
<path style=" stroke:none;fill-rule:nonzero;fill:rgb(0%,0%,0%);fill-opacity:1;" d="M 14.273438 13.164062 C 14.207031 13.171875 14.15625 13.191406 14.105469 13.226562 C 14.03125 13.273438 13.976562 13.351562 13.957031 13.441406 C 13.949219 13.464844 13.949219 13.480469 13.945312 13.535156 C 13.945312 13.609375 13.9375 13.652344 13.929688 13.710938 C 13.898438 13.898438 13.820312 14.09375 13.707031 14.289062 C 13.539062 14.566406 13.300781 14.824219 13.027344 15.015625 C 12.804688 15.175781 12.570312 15.28125 12.347656 15.324219 C 12.273438 15.339844 12.21875 15.347656 12.136719 15.347656 C 12.089844 15.351562 12.066406 15.351562 12.042969 15.355469 C 11.976562 15.371094 11.914062 15.40625 11.867188 15.453125 C 11.839844 15.480469 11.816406 15.511719 11.800781 15.546875 C 11.78125 15.585938 11.773438 15.613281 11.765625 15.65625 C 11.761719 15.683594 11.761719 15.726562 11.765625 15.75 C 11.785156 15.910156 11.90625 16.035156 12.066406 16.058594 C 12.074219 16.058594 12.097656 16.0625 12.125 16.0625 C 12.191406 16.0625 12.226562 16.066406 12.277344 16.074219 C 12.699219 16.132812 13.164062 16.425781 13.507812 16.839844 C 13.746094 17.128906 13.898438 17.457031 13.9375 17.75 C 13.941406 17.789062 13.945312 17.820312 13.945312 17.875 C 13.949219 17.9375 13.949219 17.949219 13.957031 17.984375 C 13.976562 18.046875 14.003906 18.097656 14.050781 18.140625 C 14.085938 18.175781 14.121094 18.199219 14.164062 18.21875 C 14.210938 18.238281 14.253906 18.246094 14.300781 18.246094 C 14.332031 18.246094 14.351562 18.242188 14.378906 18.238281 C 14.5 18.210938 14.601562 18.121094 14.640625 18.003906 C 14.652344 17.964844 14.65625 17.941406 14.660156 17.886719 C 14.660156 17.863281 14.660156 17.832031 14.660156 17.820312 C 14.683594 17.511719 14.832031 17.171875 15.082031 16.859375 C 15.261719 16.636719 15.484375 16.441406 15.722656 16.300781 C 15.800781 16.253906 15.890625 16.207031 15.96875 16.175781 C 16.113281 16.117188 16.253906 16.078125 16.386719 16.066406 C 16.421875 16.0625 16.433594 16.0625 16.480469 16.0625 C 16.527344 16.058594 16.546875 16.058594 16.574219 16.050781 C 16.714844 16.015625 16.820312 15.898438 16.839844 15.75 C 16.84375 15.726562 16.84375 15.683594 16.839844 15.65625 C 16.835938 15.632812 16.828125 15.605469 16.820312 15.585938 C 16.808594 15.550781 16.785156 15.507812 16.761719 15.480469 C 16.714844 15.417969 16.640625 15.375 16.5625 15.355469 C 16.539062 15.351562 16.515625 15.351562 16.464844 15.347656 C 16.40625 15.347656 16.371094 15.34375 16.316406 15.335938 C 15.890625 15.273438 15.417969 14.96875 15.078125 14.546875 C 14.835938 14.246094 14.691406 13.917969 14.664062 13.617188 C 14.660156 13.589844 14.660156 13.574219 14.660156 13.523438 C 14.65625 13.488281 14.65625 13.476562 14.652344 13.460938 C 14.636719 13.359375 14.574219 13.269531 14.484375 13.214844 C 14.445312 13.191406 14.398438 13.175781 14.351562 13.167969 C 14.335938 13.167969 14.285156 13.164062 14.273438 13.164062 Z M 14.316406 14.707031 C 14.324219 14.71875 14.339844 14.742188 14.355469 14.761719 C 14.59375 15.128906 14.929688 15.457031 15.296875 15.6875 L 15.328125 15.707031 L 15.300781 15.722656 C 15.144531 15.820312 14.992188 15.9375 14.84375 16.070312 C 14.804688 16.105469 14.703125 16.210938 14.667969 16.246094 C 14.535156 16.394531 14.417969 16.546875 14.320312 16.699219 C 14.3125 16.714844 14.304688 16.726562 14.300781 16.726562 C 14.300781 16.726562 14.292969 16.71875 14.285156 16.703125 C 14.265625 16.667969 14.222656 16.605469 14.199219 16.570312 C 14.035156 16.34375 13.835938 16.125 13.617188 15.945312 C 13.519531 15.867188 13.414062 15.789062 13.3125 15.726562 L 13.277344 15.707031 L 13.308594 15.6875 C 13.625 15.488281 13.914062 15.21875 14.144531 14.914062 C 14.195312 14.84375 14.246094 14.769531 14.285156 14.707031 C 14.292969 14.695312 14.300781 14.683594 14.300781 14.683594 C 14.304688 14.683594 14.308594 14.691406 14.316406 14.707031 Z M 14.316406 14.707031 "/>
</g>
</svg>
