<?xml version="1.0" encoding="UTF-8"?>
<svg xmlns="http://www.w3.org/2000/svg" xmlns:xlink="http://www.w3.org/1999/xlink" viewBox="0 0 24 24" version="1.1">
<g>
<path style=" stroke:none;fill-rule:nonzero;fill:rgb(0%,0%,0%);fill-opacity:1;" d="M 12.46875 2.816406 C 12.160156 2.832031 11.871094 2.917969 11.605469 3.074219 C 11.4375 3.175781 11.285156 3.304688 11.152344 3.453125 C 11.042969 3.582031 10.941406 3.730469 10.867188 3.878906 L 10.847656 3.917969 L 10.632812 3.917969 C 10.496094 3.917969 10.40625 3.917969 10.394531 3.917969 C 10.289062 3.925781 10.199219 3.992188 10.152344 4.085938 C 10.144531 4.105469 10.136719 4.128906 10.128906 4.152344 L 10.125 4.171875 L 10.125 4.691406 L 9.8125 4.691406 C 9.257812 4.691406 8.390625 4.695312 8.320312 4.699219 C 7.996094 4.714844 7.703125 4.785156 7.425781 4.917969 C 7.234375 5.007812 7.058594 5.128906 6.886719 5.28125 C 6.84375 5.320312 6.816406 5.351562 6.765625 5.410156 C 6.445312 5.773438 6.261719 6.207031 6.222656 6.683594 C 6.21875 6.730469 6.21875 6.757812 6.214844 6.804688 C 6.214844 6.863281 6.214844 18.398438 6.214844 18.445312 C 6.230469 18.765625 6.304688 19.066406 6.445312 19.347656 C 6.675781 19.804688 7.050781 20.164062 7.515625 20.359375 C 7.742188 20.457031 7.996094 20.511719 8.316406 20.53125 C 8.417969 20.539062 8.492188 20.542969 8.640625 20.542969 C 8.769531 20.542969 8.847656 20.542969 9.070312 20.539062 C 9.136719 20.535156 9.246094 20.535156 9.308594 20.535156 C 9.480469 20.53125 15.613281 20.53125 15.691406 20.535156 C 15.722656 20.535156 15.785156 20.539062 15.824219 20.539062 C 15.867188 20.539062 15.945312 20.542969 16 20.542969 C 16.191406 20.546875 16.234375 20.550781 16.382812 20.550781 C 16.535156 20.550781 16.578125 20.546875 16.675781 20.542969 C 16.910156 20.53125 17.105469 20.507812 17.273438 20.464844 C 17.542969 20.394531 17.804688 20.265625 18.03125 20.089844 C 18.15625 19.992188 18.273438 19.882812 18.375 19.761719 C 18.515625 19.59375 18.628906 19.40625 18.710938 19.210938 C 18.765625 19.082031 18.804688 18.945312 18.832031 18.8125 C 18.855469 18.6875 18.867188 18.570312 18.871094 18.402344 C 18.871094 18.328125 18.871094 7.085938 18.871094 7.007812 C 18.867188 6.847656 18.859375 6.722656 18.84375 6.605469 C 18.800781 6.210938 18.6875 5.898438 18.492188 5.621094 C 18.375 5.453125 18.234375 5.304688 18.074219 5.179688 C 17.851562 5 17.59375 4.867188 17.320312 4.789062 C 17.128906 4.730469 16.9375 4.703125 16.734375 4.699219 C 16.703125 4.699219 16.304688 4.699219 15.820312 4.699219 L 14.960938 4.699219 L 14.960938 4.441406 C 14.960938 4.167969 14.960938 4.175781 14.953125 4.140625 C 14.941406 4.097656 14.921875 4.058594 14.894531 4.023438 C 14.859375 3.980469 14.8125 3.949219 14.757812 3.933594 C 14.738281 3.925781 14.714844 3.921875 14.691406 3.917969 C 14.679688 3.917969 14.589844 3.917969 14.457031 3.917969 L 14.238281 3.917969 L 14.214844 3.875 C 14.078125 3.597656 13.878906 3.359375 13.636719 3.179688 C 13.4375 3.03125 13.214844 2.925781 12.980469 2.867188 C 12.871094 2.839844 12.765625 2.824219 12.648438 2.816406 C 12.617188 2.816406 12.5 2.816406 12.46875 2.816406 Z M 12.609375 3.417969 C 12.851562 3.429688 13.074219 3.503906 13.269531 3.628906 C 13.496094 3.78125 13.664062 4 13.761719 4.269531 C 13.777344 4.320312 13.785156 4.335938 13.804688 4.363281 C 13.855469 4.4375 13.925781 4.480469 14.007812 4.492188 C 14.019531 4.496094 14.050781 4.496094 14.203125 4.496094 L 14.382812 4.496094 L 14.382812 5.816406 L 10.703125 5.816406 L 10.703125 4.496094 L 10.886719 4.496094 C 11.085938 4.496094 11.082031 4.496094 11.117188 4.488281 C 11.144531 4.480469 11.167969 4.46875 11.191406 4.457031 C 11.25 4.421875 11.292969 4.359375 11.324219 4.273438 C 11.371094 4.144531 11.433594 4.023438 11.511719 3.917969 C 11.582031 3.824219 11.667969 3.742188 11.761719 3.671875 C 11.964844 3.519531 12.210938 3.429688 12.472656 3.417969 C 12.503906 3.414062 12.578125 3.414062 12.609375 3.417969 Z M 16.050781 5.273438 C 16.453125 5.273438 16.710938 5.277344 16.75 5.277344 C 17.09375 5.292969 17.421875 5.40625 17.6875 5.605469 C 17.933594 5.789062 18.117188 6.042969 18.210938 6.328125 C 18.261719 6.480469 18.285156 6.640625 18.292969 6.871094 C 18.292969 6.90625 18.292969 8.375 18.292969 11 C 18.292969 13.464844 18.292969 15.183594 18.292969 15.347656 C 18.296875 15.5 18.296875 15.773438 18.296875 15.957031 C 18.300781 16.617188 18.304688 16.789062 18.304688 17.179688 C 18.304688 17.644531 18.300781 17.917969 18.296875 18.242188 C 18.292969 18.378906 18.292969 18.449219 18.289062 18.480469 C 18.277344 18.667969 18.234375 18.839844 18.160156 19.011719 C 18.144531 19.042969 18.109375 19.117188 18.089844 19.148438 C 17.957031 19.390625 17.761719 19.589844 17.523438 19.730469 C 17.351562 19.832031 17.164062 19.898438 16.96875 19.933594 C 16.886719 19.945312 16.816406 19.953125 16.730469 19.953125 C 16.640625 19.957031 8.390625 19.953125 8.355469 19.953125 C 8.265625 19.949219 8.230469 19.945312 8.179688 19.9375 C 8.023438 19.921875 7.898438 19.894531 7.773438 19.84375 C 7.546875 19.753906 7.347656 19.613281 7.1875 19.429688 C 6.964844 19.175781 6.828125 18.847656 6.796875 18.5 C 6.796875 18.460938 6.792969 18.429688 6.792969 18.375 C 6.792969 18.332031 6.789062 10.753906 6.789062 8.214844 C 6.789062 7.332031 6.792969 6.863281 6.792969 6.8125 C 6.796875 6.753906 6.800781 6.714844 6.808594 6.664062 C 6.847656 6.347656 6.96875 6.066406 7.171875 5.824219 C 7.21875 5.765625 7.253906 5.730469 7.296875 5.691406 C 7.402344 5.597656 7.511719 5.527344 7.628906 5.46875 C 7.863281 5.351562 8.125 5.292969 8.480469 5.277344 C 8.589844 5.273438 8.78125 5.269531 9.003906 5.273438 C 9.066406 5.273438 9.332031 5.277344 9.621094 5.277344 L 10.125 5.277344 L 10.125 6.144531 L 10.128906 6.160156 C 10.140625 6.207031 10.15625 6.242188 10.183594 6.277344 C 10.21875 6.324219 10.269531 6.363281 10.328125 6.378906 C 10.351562 6.386719 10.371094 6.390625 10.398438 6.394531 C 10.414062 6.394531 11.125 6.394531 12.558594 6.394531 C 14.5625 6.394531 14.699219 6.394531 14.710938 6.390625 C 14.773438 6.382812 14.828125 6.355469 14.871094 6.3125 C 14.910156 6.273438 14.941406 6.226562 14.953125 6.171875 C 14.960938 6.136719 14.960938 6.164062 14.960938 5.699219 L 14.960938 5.269531 L 15.367188 5.269531 C 15.59375 5.269531 15.902344 5.269531 16.050781 5.273438 Z M 16.050781 5.273438 "/>
<path style=" stroke:none;fill-rule:nonzero;fill:rgb(0%,0%,0%);fill-opacity:1;" d="M 12.496094 3.847656 C 12.367188 3.859375 12.257812 3.921875 12.175781 4.023438 C 12.128906 4.078125 12.097656 4.144531 12.078125 4.21875 C 12.074219 4.230469 12.070312 4.246094 12.070312 4.25 C 12.0625 4.273438 12.0625 4.292969 12.0625 4.324219 C 12.0625 4.363281 12.0625 4.375 12.074219 4.417969 C 12.089844 4.484375 12.105469 4.523438 12.136719 4.574219 C 12.164062 4.621094 12.207031 4.671875 12.25 4.707031 C 12.316406 4.757812 12.394531 4.792969 12.480469 4.804688 C 12.503906 4.808594 12.558594 4.808594 12.582031 4.804688 C 12.738281 4.792969 12.875 4.703125 12.957031 4.566406 C 13.015625 4.46875 13.035156 4.351562 13.019531 4.246094 C 13.007812 4.167969 12.972656 4.097656 12.921875 4.03125 C 12.90625 4.011719 12.863281 3.96875 12.84375 3.953125 C 12.773438 3.898438 12.6875 3.859375 12.597656 3.847656 C 12.578125 3.84375 12.515625 3.84375 12.496094 3.847656 Z M 12.496094 3.847656 "/>
<path style=" stroke:none;fill-rule:nonzero;fill:rgb(0%,0%,0%);fill-opacity:1;" d="M 15.222656 8.714844 C 15.191406 8.71875 15.164062 8.726562 15.140625 8.734375 C 15.066406 8.765625 15.007812 8.828125 14.976562 8.902344 C 14.96875 8.917969 14.964844 8.9375 14.960938 8.957031 C 14.957031 8.96875 14.957031 9.023438 14.957031 9.8125 C 14.957031 10.40625 14.957031 10.660156 14.960938 10.671875 C 14.964844 10.726562 14.980469 10.773438 15.011719 10.8125 C 15.027344 10.832031 15.058594 10.863281 15.078125 10.878906 C 15.117188 10.90625 15.167969 10.925781 15.21875 10.929688 C 15.234375 10.929688 15.484375 10.929688 16.074219 10.929688 C 16.871094 10.929688 16.914062 10.929688 16.925781 10.925781 C 16.980469 10.917969 17.027344 10.894531 17.066406 10.863281 C 17.128906 10.8125 17.164062 10.742188 17.171875 10.664062 C 17.171875 10.652344 17.171875 10.394531 17.171875 9.8125 C 17.171875 9.03125 17.171875 8.972656 17.167969 8.960938 C 17.160156 8.914062 17.140625 8.871094 17.113281 8.832031 C 17.101562 8.816406 17.078125 8.792969 17.066406 8.78125 C 17.019531 8.746094 16.96875 8.722656 16.914062 8.71875 C 16.902344 8.714844 16.640625 8.714844 16.0625 8.714844 C 15.601562 8.714844 15.222656 8.714844 15.222656 8.714844 Z M 16.59375 9.824219 L 16.59375 10.351562 L 15.535156 10.351562 L 15.535156 9.292969 L 16.59375 9.292969 Z M 16.59375 9.824219 "/>
<path style=" stroke:none;fill-rule:nonzero;fill:rgb(0%,0%,0%);fill-opacity:1;" d="M 8.660156 9.535156 C 8.609375 9.542969 8.558594 9.5625 8.523438 9.589844 C 8.484375 9.621094 8.453125 9.667969 8.433594 9.71875 C 8.425781 9.753906 8.417969 9.785156 8.417969 9.824219 C 8.417969 9.859375 8.425781 9.890625 8.433594 9.925781 C 8.472656 10.035156 8.554688 10.101562 8.667969 10.109375 C 8.679688 10.113281 9.378906 10.113281 11.203125 10.113281 C 13.542969 10.109375 13.726562 10.109375 13.738281 10.109375 C 13.78125 10.101562 13.8125 10.085938 13.847656 10.066406 C 13.863281 10.054688 13.886719 10.03125 13.902344 10.015625 C 13.964844 9.9375 13.984375 9.820312 13.949219 9.71875 C 13.925781 9.652344 13.882812 9.597656 13.824219 9.566406 C 13.796875 9.550781 13.773438 9.542969 13.742188 9.539062 L 13.726562 9.535156 L 11.199219 9.535156 C 9.800781 9.535156 8.667969 9.535156 8.660156 9.535156 Z M 8.660156 9.535156 "/>
<path style=" stroke:none;fill-rule:nonzero;fill:rgb(0%,0%,0%);fill-opacity:1;" d="M 15.226562 11.867188 C 15.140625 11.871094 15.054688 11.921875 15.003906 11.996094 C 14.980469 12.03125 14.964844 12.078125 14.960938 12.125 C 14.957031 12.132812 14.957031 12.410156 14.957031 12.972656 C 14.957031 13.894531 14.957031 13.828125 14.964844 13.863281 C 14.976562 13.902344 14.992188 13.9375 15.015625 13.96875 C 15.027344 13.980469 15.0625 14.015625 15.074219 14.023438 C 15.113281 14.054688 15.15625 14.070312 15.203125 14.078125 C 15.222656 14.078125 15.296875 14.078125 16.070312 14.078125 L 16.921875 14.078125 L 16.9375 14.074219 C 16.996094 14.0625 17.046875 14.035156 17.085938 13.992188 C 17.132812 13.949219 17.160156 13.890625 17.171875 13.828125 C 17.171875 13.816406 17.171875 13.667969 17.171875 12.96875 L 17.171875 12.125 L 17.167969 12.109375 C 17.152344 12.015625 17.089844 11.933594 17.003906 11.894531 C 16.972656 11.875 16.9375 11.867188 16.898438 11.867188 C 16.875 11.863281 15.253906 11.863281 15.226562 11.867188 Z M 16.59375 12.972656 L 16.59375 13.5 L 15.535156 13.5 L 15.535156 12.445312 L 16.59375 12.445312 Z M 16.59375 12.972656 "/>
<path style=" stroke:none;fill-rule:nonzero;fill:rgb(0%,0%,0%);fill-opacity:1;" d="M 8.679688 12.628906 C 8.636719 12.628906 8.601562 12.640625 8.566406 12.65625 C 8.542969 12.667969 8.527344 12.679688 8.503906 12.699219 C 8.449219 12.753906 8.421875 12.824219 8.417969 12.90625 C 8.417969 12.949219 8.421875 12.984375 8.433594 13.019531 C 8.46875 13.125 8.550781 13.1875 8.660156 13.203125 C 8.679688 13.207031 13.707031 13.207031 13.726562 13.203125 C 13.773438 13.195312 13.808594 13.183594 13.84375 13.160156 C 13.910156 13.117188 13.949219 13.050781 13.964844 12.960938 C 13.964844 12.941406 13.964844 12.890625 13.964844 12.871094 C 13.949219 12.777344 13.90625 12.707031 13.835938 12.664062 C 13.804688 12.648438 13.773438 12.636719 13.734375 12.628906 C 13.71875 12.628906 13.617188 12.628906 11.203125 12.625 C 9.816406 12.625 8.683594 12.628906 8.679688 12.628906 Z M 8.679688 12.628906 "/>
<path style=" stroke:none;fill-rule:nonzero;fill:rgb(0%,0%,0%);fill-opacity:1;" d="M 15.214844 15.015625 C 15.144531 15.023438 15.078125 15.058594 15.027344 15.117188 C 14.988281 15.164062 14.964844 15.214844 14.960938 15.273438 C 14.957031 15.285156 14.957031 15.53125 14.957031 16.132812 L 14.957031 16.976562 L 14.960938 16.992188 C 14.972656 17.039062 14.984375 17.078125 15.011719 17.109375 C 15.023438 17.125 15.058594 17.164062 15.074219 17.175781 C 15.117188 17.207031 15.164062 17.222656 15.21875 17.226562 C 15.230469 17.230469 15.476562 17.230469 16.074219 17.230469 L 16.914062 17.226562 L 16.929688 17.226562 C 16.992188 17.210938 17.039062 17.1875 17.082031 17.148438 C 17.128906 17.101562 17.15625 17.050781 17.167969 16.984375 L 17.171875 16.96875 L 17.171875 16.132812 C 17.171875 15.546875 17.171875 15.292969 17.171875 15.28125 C 17.164062 15.210938 17.136719 15.148438 17.082031 15.097656 C 17.035156 15.050781 16.976562 15.023438 16.914062 15.015625 C 16.894531 15.015625 15.234375 15.015625 15.214844 15.015625 Z M 16.59375 16.121094 L 16.59375 16.652344 L 15.535156 16.652344 L 15.535156 15.59375 L 16.59375 15.59375 Z M 16.59375 16.121094 "/>
<path style=" stroke:none;fill-rule:nonzero;fill:rgb(0%,0%,0%);fill-opacity:1;" d="M 8.671875 15.871094 C 8.582031 15.878906 8.507812 15.921875 8.464844 15.992188 C 8.445312 16.023438 8.429688 16.0625 8.421875 16.105469 C 8.417969 16.125 8.417969 16.167969 8.421875 16.191406 C 8.429688 16.296875 8.488281 16.382812 8.570312 16.421875 C 8.597656 16.433594 8.621094 16.441406 8.652344 16.445312 C 8.667969 16.449219 8.808594 16.449219 11.175781 16.449219 C 12.949219 16.449219 13.691406 16.449219 13.707031 16.445312 C 13.78125 16.441406 13.835938 16.417969 13.882812 16.371094 C 13.925781 16.328125 13.953125 16.273438 13.964844 16.207031 C 13.964844 16.183594 13.964844 16.136719 13.964844 16.113281 C 13.953125 16.046875 13.925781 15.992188 13.886719 15.949219 C 13.84375 15.90625 13.796875 15.882812 13.726562 15.871094 C 13.71875 15.871094 13.21875 15.871094 11.199219 15.871094 C 9.816406 15.871094 8.679688 15.871094 8.671875 15.871094 Z M 8.671875 15.871094 "/>
</g>
</svg>
