<?xml version="1.0" encoding="UTF-8"?>
<svg xmlns="http://www.w3.org/2000/svg" xmlns:xlink="http://www.w3.org/1999/xlink" viewBox="0 0 24 24" version="1.1">
<g>
<path style=" stroke:none;fill-rule:nonzero;fill:rgb(0%,0%,0%);fill-opacity:1;" d="M 5.242188 2.152344 C 5.070312 2.160156 4.929688 2.171875 4.773438 2.199219 C 4.40625 2.261719 4.058594 2.382812 3.738281 2.5625 C 3.265625 2.824219 2.867188 3.207031 2.582031 3.664062 C 2.390625 3.96875 2.25 4.300781 2.171875 4.652344 C 2.125 4.851562 2.097656 5.050781 2.089844 5.261719 C 2.089844 5.308594 2.089844 5.441406 2.089844 5.492188 C 2.101562 5.792969 2.152344 6.074219 2.242188 6.359375 C 2.320312 6.601562 2.433594 6.84375 2.566406 7.0625 C 2.597656 7.113281 2.625 7.152344 2.796875 7.410156 L 2.964844 7.664062 L 2.96875 7.660156 C 3.019531 7.628906 3.875 7.054688 3.875 7.054688 C 3.875 7.054688 3.796875 6.9375 3.703125 6.792969 C 3.605469 6.648438 3.519531 6.519531 3.511719 6.507812 C 3.328125 6.214844 3.222656 5.890625 3.195312 5.550781 C 3.1875 5.484375 3.1875 5.460938 3.1875 5.375 C 3.1875 5.289062 3.1875 5.265625 3.195312 5.199219 C 3.242188 4.617188 3.527344 4.082031 3.984375 3.714844 C 4.285156 3.476562 4.640625 3.324219 5.023438 3.269531 C 5.199219 3.246094 5.382812 3.242188 5.558594 3.265625 C 5.859375 3.300781 6.148438 3.398438 6.410156 3.554688 C 6.449219 3.582031 6.457031 3.585938 6.730469 3.769531 C 6.875 3.863281 6.992188 3.941406 6.992188 3.941406 C 6.996094 3.9375 7.597656 3.03125 7.597656 3.027344 C 7.597656 3.027344 7.128906 2.714844 7.070312 2.675781 C 6.660156 2.410156 6.199219 2.238281 5.714844 2.179688 C 5.625 2.167969 5.539062 2.160156 5.441406 2.15625 C 5.410156 2.15625 5.269531 2.152344 5.242188 2.152344 Z M 5.242188 2.152344 "/>
<path style=" stroke:none;fill-rule:nonzero;fill:rgb(0%,0%,0%);fill-opacity:1;" d="M 18.503906 2.152344 C 18.246094 2.160156 18.027344 2.191406 17.792969 2.25 C 17.46875 2.332031 17.167969 2.457031 16.875 2.636719 C 16.839844 2.660156 16.289062 3.027344 16.289062 3.027344 C 16.289062 3.03125 16.894531 3.9375 16.894531 3.941406 C 16.898438 3.941406 17.011719 3.863281 17.15625 3.769531 C 17.296875 3.675781 17.421875 3.589844 17.4375 3.582031 C 17.839844 3.324219 18.320312 3.210938 18.796875 3.261719 C 19.386719 3.324219 19.925781 3.628906 20.28125 4.109375 C 20.523438 4.433594 20.667969 4.816406 20.695312 5.226562 C 20.703125 5.328125 20.703125 5.457031 20.691406 5.5625 C 20.664062 5.894531 20.554688 6.214844 20.378906 6.5 C 20.371094 6.511719 20.285156 6.640625 20.1875 6.789062 C 20.082031 6.945312 20.011719 7.054688 20.011719 7.054688 C 20.011719 7.058594 20.917969 7.660156 20.921875 7.664062 C 20.921875 7.664062 20.980469 7.578125 21.101562 7.394531 C 21.203125 7.246094 21.289062 7.113281 21.300781 7.097656 C 21.410156 6.921875 21.496094 6.75 21.570312 6.5625 C 21.699219 6.246094 21.773438 5.910156 21.792969 5.566406 C 21.800781 5.449219 21.800781 5.300781 21.792969 5.183594 C 21.769531 4.777344 21.667969 4.386719 21.496094 4.015625 C 21.464844 3.949219 21.414062 3.84375 21.375 3.777344 C 21.203125 3.476562 20.980469 3.203125 20.71875 2.96875 C 20.199219 2.503906 19.542969 2.222656 18.84375 2.164062 C 18.804688 2.160156 18.75 2.15625 18.707031 2.15625 C 18.671875 2.15625 18.535156 2.152344 18.503906 2.152344 Z M 18.503906 2.152344 "/>
<path style=" stroke:none;fill-rule:nonzero;fill:rgb(0%,0%,0%);fill-opacity:1;" d="M 11.757812 3.242188 C 10.957031 3.261719 10.171875 3.382812 9.414062 3.609375 C 8.785156 3.800781 8.175781 4.0625 7.601562 4.390625 C 6.695312 4.910156 5.886719 5.585938 5.214844 6.386719 C 4.835938 6.84375 4.503906 7.328125 4.222656 7.851562 C 4.144531 7.996094 4.058594 8.164062 3.992188 8.316406 C 3.613281 9.121094 3.367188 9.976562 3.25 10.863281 C 3.183594 11.378906 3.164062 11.910156 3.1875 12.433594 C 3.246094 13.652344 3.554688 14.835938 4.097656 15.925781 C 4.664062 17.054688 5.46875 18.050781 6.460938 18.847656 C 6.484375 18.867188 6.503906 18.882812 6.503906 18.886719 C 6.503906 18.886719 6.03125 19.480469 5.449219 20.207031 C 4.867188 20.933594 4.394531 21.527344 4.394531 21.527344 C 4.394531 21.527344 5.246094 22.210938 5.25 22.210938 C 5.25 22.210938 5.734375 21.605469 6.328125 20.863281 C 6.921875 20.121094 7.410156 19.515625 7.410156 19.511719 C 7.410156 19.511719 7.414062 19.515625 7.421875 19.519531 C 7.472656 19.550781 7.605469 19.628906 7.679688 19.671875 C 7.871094 19.777344 8.074219 19.878906 8.273438 19.972656 C 9.289062 20.441406 10.378906 20.707031 11.5 20.761719 C 11.675781 20.773438 11.800781 20.773438 11.996094 20.773438 C 12.140625 20.773438 12.175781 20.773438 12.289062 20.765625 C 13.660156 20.714844 14.996094 20.339844 16.195312 19.675781 C 16.277344 19.628906 16.378906 19.570312 16.457031 19.527344 C 16.46875 19.519531 16.476562 19.511719 16.476562 19.511719 C 16.476562 19.511719 16.964844 20.121094 17.558594 20.863281 C 18.152344 21.605469 18.636719 22.210938 18.636719 22.210938 C 18.640625 22.210938 19.492188 21.527344 19.492188 21.527344 C 19.496094 21.527344 19.019531 20.933594 18.4375 20.207031 C 17.546875 19.089844 17.382812 18.886719 17.382812 18.882812 C 17.386719 18.882812 17.402344 18.867188 17.421875 18.851562 C 17.738281 18.601562 18.046875 18.316406 18.328125 18.015625 C 19.246094 17.042969 19.929688 15.867188 20.324219 14.59375 C 20.632812 13.59375 20.757812 12.542969 20.695312 11.484375 C 20.59375 9.785156 20.007812 8.164062 18.992188 6.792969 C 18.78125 6.511719 18.554688 6.242188 18.3125 5.980469 C 18.21875 5.882812 18.09375 5.761719 17.996094 5.664062 C 17.292969 4.996094 16.488281 4.449219 15.613281 4.042969 C 14.582031 3.566406 13.464844 3.296875 12.324219 3.25 C 12.1875 3.242188 12.085938 3.242188 11.933594 3.242188 C 11.863281 3.242188 11.785156 3.242188 11.757812 3.242188 Z M 12.09375 4.339844 C 12.167969 4.339844 12.222656 4.34375 12.292969 4.347656 C 13.234375 4.386719 14.152344 4.601562 15.011719 4.976562 C 15.960938 5.390625 16.824219 6 17.535156 6.757812 C 18.105469 7.367188 18.570312 8.058594 18.917969 8.808594 C 19.335938 9.71875 19.570312 10.699219 19.609375 11.707031 C 19.613281 11.902344 19.613281 12.113281 19.609375 12.308594 C 19.570312 13.25 19.363281 14.167969 18.996094 15.027344 C 18.910156 15.226562 18.804688 15.445312 18.699219 15.636719 C 18.140625 16.679688 17.34375 17.578125 16.378906 18.265625 C 16.292969 18.328125 16.164062 18.410156 16.078125 18.46875 C 15.476562 18.851562 14.832031 19.148438 14.152344 19.355469 C 13.328125 19.601562 12.464844 19.707031 11.59375 19.667969 C 10.671875 19.628906 9.769531 19.421875 8.925781 19.0625 C 8.113281 18.710938 7.363281 18.222656 6.714844 17.617188 C 6.550781 17.464844 6.390625 17.300781 6.242188 17.136719 C 5.4375 16.242188 4.855469 15.179688 4.542969 14.027344 C 4.386719 13.460938 4.300781 12.878906 4.277344 12.285156 C 4.273438 12.121094 4.273438 11.894531 4.277344 11.730469 C 4.324219 10.496094 4.65625 9.308594 5.261719 8.238281 C 5.722656 7.421875 6.339844 6.691406 7.066406 6.089844 C 7.484375 5.746094 7.929688 5.449219 8.414062 5.195312 C 8.460938 5.171875 8.597656 5.105469 8.648438 5.082031 C 9.613281 4.621094 10.660156 4.371094 11.738281 4.339844 C 11.84375 4.339844 11.996094 4.335938 12.09375 4.339844 Z M 12.09375 4.339844 "/>
<path style=" stroke:none;fill-rule:nonzero;fill:rgb(0%,0%,0%);fill-opacity:1;" d="M 11.394531 9.539062 C 11.394531 10.96875 11.394531 12.015625 11.394531 12.03125 C 11.398438 12.078125 11.40625 12.117188 11.417969 12.160156 C 11.449219 12.269531 11.515625 12.367188 11.609375 12.441406 C 11.621094 12.453125 14.921875 14.65625 14.925781 14.65625 C 14.929688 14.65625 15.535156 13.746094 15.535156 13.742188 C 15.535156 13.742188 14.851562 13.285156 14.015625 12.726562 L 12.492188 11.714844 L 12.492188 7.074219 L 11.394531 7.074219 Z M 11.394531 9.539062 "/>
</g>
</svg>
