<?xml version="1.0" encoding="UTF-8"?>
<svg xmlns="http://www.w3.org/2000/svg" xmlns:xlink="http://www.w3.org/1999/xlink" viewBox="0 0 24 24" version="1.1">
<g>
<path style=" stroke:none;fill-rule:nonzero;fill:rgb(0%,0%,0%);fill-opacity:1;" d="M 11.894531 2.144531 C 11.503906 2.152344 11.148438 2.175781 10.78125 2.222656 C 9.464844 2.386719 8.195312 2.816406 7.050781 3.484375 C 5.910156 4.152344 4.914062 5.039062 4.121094 6.097656 C 3.800781 6.527344 3.515625 6.980469 3.265625 7.457031 C 3.214844 7.554688 3.128906 7.730469 3.078125 7.835938 C 2.519531 9.035156 2.210938 10.328125 2.164062 11.652344 C 2.160156 11.765625 2.160156 11.796875 2.15625 11.953125 C 2.15625 12.144531 2.160156 12.246094 2.164062 12.398438 C 2.242188 14.363281 2.894531 16.242188 4.054688 17.828125 C 4.773438 18.808594 5.671875 19.65625 6.695312 20.3125 C 7.679688 20.941406 8.765625 21.394531 9.902344 21.640625 C 10.726562 21.820312 11.570312 21.894531 12.417969 21.863281 C 13.964844 21.800781 15.46875 21.378906 16.816406 20.625 C 17.710938 20.128906 18.523438 19.492188 19.226562 18.738281 C 20.003906 17.90625 20.636719 16.941406 21.085938 15.894531 C 21.558594 14.796875 21.824219 13.625 21.871094 12.421875 C 21.878906 12.273438 21.878906 12.171875 21.878906 12.007812 C 21.878906 11.785156 21.875 11.613281 21.863281 11.398438 C 21.75 9.527344 21.105469 7.734375 20 6.214844 C 19.546875 5.589844 19.019531 5.019531 18.4375 4.515625 C 17.359375 3.59375 16.101562 2.914062 14.746094 2.527344 C 14.074219 2.332031 13.378906 2.210938 12.675781 2.167969 C 12.539062 2.15625 12.40625 2.152344 12.25 2.148438 C 12.195312 2.144531 11.945312 2.144531 11.894531 2.144531 Z M 12.21875 3.242188 C 13.648438 3.277344 15.027344 3.648438 16.269531 4.339844 C 17.199219 4.855469 18.035156 5.542969 18.726562 6.363281 C 19.113281 6.824219 19.457031 7.328125 19.742188 7.855469 C 19.8125 7.988281 19.890625 8.144531 19.953125 8.28125 C 20.167969 8.734375 20.34375 9.214844 20.476562 9.695312 C 20.652344 10.339844 20.753906 11.003906 20.777344 11.675781 C 20.78125 11.78125 20.78125 11.8125 20.785156 11.957031 C 20.785156 12.160156 20.78125 12.300781 20.773438 12.480469 C 20.703125 13.785156 20.34375 15.050781 19.71875 16.195312 C 19.265625 17.03125 18.671875 17.792969 17.972656 18.441406 C 17.308594 19.054688 16.558594 19.558594 15.75 19.941406 C 14.683594 20.441406 13.535156 20.722656 12.351562 20.765625 C 12.230469 20.769531 12.171875 20.773438 12.019531 20.773438 C 11.867188 20.773438 11.808594 20.769531 11.6875 20.765625 C 10.710938 20.730469 9.75 20.53125 8.84375 20.179688 C 8.101562 19.890625 7.398438 19.5 6.757812 19.015625 C 5.859375 18.339844 5.09375 17.5 4.511719 16.535156 C 4.324219 16.226562 4.152344 15.894531 4.003906 15.5625 C 3.554688 14.550781 3.304688 13.464844 3.261719 12.347656 C 3.253906 12.222656 3.253906 12.175781 3.253906 12.007812 C 3.253906 11.816406 3.257812 11.730469 3.265625 11.566406 C 3.328125 10.265625 3.679688 9 4.296875 7.855469 C 4.824219 6.875 5.535156 6.003906 6.390625 5.289062 C 7.347656 4.484375 8.464844 3.894531 9.660156 3.5625 C 10.398438 3.355469 11.152344 3.25 11.929688 3.242188 C 11.984375 3.242188 12.15625 3.242188 12.21875 3.242188 Z M 12.21875 3.242188 "/>
<path style=" stroke:none;fill-rule:nonzero;fill:rgb(0%,0%,0%);fill-opacity:1;" d="M 8.53125 8.519531 C 8.320312 8.730469 8.144531 8.90625 8.144531 8.90625 C 8.144531 8.910156 8.84375 9.605469 9.695312 10.457031 L 11.242188 12.007812 L 9.695312 13.554688 C 8.84375 14.40625 8.144531 15.105469 8.144531 15.105469 C 8.144531 15.105469 8.320312 15.28125 8.53125 15.496094 L 8.917969 15.882812 L 12.019531 12.78125 L 13.570312 14.332031 L 15.117188 15.882812 L 15.503906 15.496094 C 15.71875 15.28125 15.894531 15.105469 15.894531 15.105469 C 15.894531 15.105469 15.195312 14.40625 14.34375 13.554688 L 12.796875 12.007812 L 14.34375 10.457031 L 15.894531 8.90625 L 15.507812 8.519531 L 15.117188 8.132812 L 12.019531 11.230469 L 10.46875 9.679688 C 9.617188 8.828125 8.921875 8.132812 8.917969 8.132812 C 8.917969 8.132812 8.746094 8.304688 8.53125 8.519531 Z M 8.53125 8.519531 "/>
</g>
</svg>
