<?xml version="1.0" encoding="UTF-8"?>
<svg xmlns="http://www.w3.org/2000/svg" xmlns:xlink="http://www.w3.org/1999/xlink" viewBox="0 0 24 24" version="1.1">
<g>
<path style=" stroke:none;fill-rule:nonzero;fill:rgb(0%,0%,0%);fill-opacity:1;" d="M 12.492188 3.679688 C 11.046875 3.714844 9.628906 4.101562 8.367188 4.800781 C 7.746094 5.144531 7.175781 5.5625 6.660156 6.042969 C 6.585938 6.113281 6.550781 6.144531 6.457031 6.238281 C 6.332031 6.363281 6.257812 6.441406 6.152344 6.558594 C 5.53125 7.25 5.019531 8.050781 4.644531 8.917969 C 4.210938 9.929688 3.964844 11.023438 3.925781 12.132812 C 3.921875 12.324219 3.921875 12.554688 3.925781 12.742188 C 3.972656 14.078125 4.316406 15.359375 4.929688 16.515625 C 5.371094 17.347656 5.957031 18.105469 6.648438 18.753906 C 7.621094 19.660156 8.789062 20.339844 10.066406 20.734375 C 11.023438 21.035156 12.027344 21.167969 13.019531 21.128906 C 13.449219 21.113281 13.875 21.066406 14.296875 20.984375 C 15.183594 20.816406 16.035156 20.507812 16.839844 20.0625 C 17.472656 19.710938 18.070312 19.277344 18.605469 18.773438 C 18.671875 18.707031 18.707031 18.675781 18.804688 18.578125 C 18.925781 18.457031 18.976562 18.402344 19.074219 18.300781 C 19.761719 17.550781 20.3125 16.691406 20.703125 15.769531 C 20.972656 15.128906 21.164062 14.460938 21.265625 13.78125 C 21.316406 13.46875 21.347656 13.15625 21.363281 12.84375 C 21.378906 12.53125 21.378906 12.273438 21.363281 11.96875 C 21.28125 10.496094 20.824219 9.058594 20.035156 7.796875 C 19.785156 7.390625 19.496094 7.003906 19.183594 6.644531 C 18.945312 6.371094 18.683594 6.109375 18.414062 5.867188 C 17.46875 5.027344 16.351562 4.398438 15.152344 4.039062 C 14.453125 3.828125 13.722656 3.710938 12.980469 3.683594 C 12.855469 3.679688 12.609375 3.679688 12.492188 3.679688 Z M 12.875 4.253906 C 13.082031 4.257812 13.273438 4.269531 13.472656 4.292969 C 14.582031 4.402344 15.664062 4.75 16.644531 5.308594 C 17.210938 5.632812 17.734375 6.023438 18.214844 6.472656 C 18.300781 6.550781 18.4375 6.691406 18.515625 6.773438 C 18.9375 7.214844 19.304688 7.6875 19.617188 8.203125 C 20.167969 9.109375 20.542969 10.121094 20.703125 11.15625 C 20.777344 11.621094 20.808594 12.171875 20.792969 12.652344 C 20.75 13.925781 20.402344 15.179688 19.785156 16.3125 C 19.175781 17.425781 18.320312 18.386719 17.296875 19.105469 C 16.894531 19.390625 16.464844 19.632812 16.019531 19.835938 C 15.082031 20.261719 14.058594 20.503906 13.011719 20.546875 C 12.890625 20.554688 12.847656 20.554688 12.679688 20.554688 C 12.511719 20.554688 12.476562 20.554688 12.351562 20.546875 C 11.472656 20.511719 10.59375 20.335938 9.765625 20.023438 C 8.746094 19.640625 7.816406 19.0625 7.03125 18.324219 C 6.914062 18.214844 6.78125 18.082031 6.671875 17.964844 C 6.195312 17.457031 5.792969 16.898438 5.464844 16.285156 C 5.398438 16.160156 5.316406 16 5.257812 15.867188 C 4.800781 14.882812 4.542969 13.800781 4.503906 12.699219 C 4.496094 12.519531 4.496094 12.296875 4.503906 12.121094 C 4.550781 10.675781 4.96875 9.292969 5.714844 8.097656 C 6.179688 7.351562 6.773438 6.679688 7.460938 6.117188 C 8.304688 5.429688 9.277344 4.914062 10.324219 4.601562 C 11.042969 4.382812 11.78125 4.265625 12.535156 4.253906 C 12.609375 4.25 12.804688 4.25 12.875 4.253906 Z M 12.875 4.253906 "/>
<path style=" stroke:none;fill-rule:nonzero;fill:rgb(0%,0%,0%);fill-opacity:1;" d="M 10.976562 7.019531 C 10.921875 7.027344 10.875 7.042969 10.832031 7.078125 C 10.816406 7.089844 10.789062 7.117188 10.777344 7.132812 C 10.75 7.167969 10.734375 7.207031 10.722656 7.242188 C 10.714844 7.273438 10.714844 7.164062 10.714844 8.882812 L 10.714844 10.484375 L 9.109375 10.484375 C 7.613281 10.484375 7.503906 10.484375 7.492188 10.488281 C 7.460938 10.492188 7.445312 10.5 7.417969 10.511719 C 7.386719 10.527344 7.367188 10.539062 7.339844 10.566406 C 7.292969 10.609375 7.261719 10.671875 7.253906 10.734375 C 7.253906 10.75 7.25 10.945312 7.25 12.40625 C 7.25 13.828125 7.253906 14.066406 7.253906 14.078125 C 7.257812 14.109375 7.265625 14.136719 7.277344 14.164062 C 7.292969 14.195312 7.308594 14.21875 7.332031 14.242188 C 7.375 14.289062 7.425781 14.3125 7.488281 14.328125 L 7.503906 14.332031 L 10.714844 14.332031 L 10.714844 15.929688 C 10.714844 17.339844 10.71875 17.53125 10.71875 17.542969 C 10.730469 17.632812 10.78125 17.710938 10.859375 17.757812 C 10.886719 17.773438 10.917969 17.785156 10.949219 17.792969 L 10.96875 17.796875 L 12.632812 17.796875 C 14.148438 17.796875 14.300781 17.796875 14.316406 17.792969 C 14.347656 17.789062 14.371094 17.78125 14.402344 17.769531 C 14.472656 17.734375 14.527344 17.671875 14.550781 17.597656 C 14.558594 17.570312 14.5625 17.550781 14.566406 17.527344 C 14.566406 17.511719 14.566406 17 14.566406 15.917969 L 14.566406 14.332031 L 16.167969 14.332031 C 17.609375 14.332031 17.769531 14.332031 17.78125 14.328125 C 17.8125 14.324219 17.839844 14.316406 17.867188 14.304688 C 17.9375 14.269531 17.992188 14.207031 18.015625 14.132812 C 18.023438 14.105469 18.027344 14.085938 18.03125 14.058594 C 18.03125 14.027344 18.03125 10.746094 18.027344 10.730469 C 18.023438 10.695312 18.015625 10.667969 18 10.640625 C 17.988281 10.617188 17.976562 10.597656 17.957031 10.578125 C 17.933594 10.550781 17.917969 10.539062 17.902344 10.527344 C 17.867188 10.503906 17.828125 10.492188 17.785156 10.484375 C 17.769531 10.484375 17.597656 10.484375 16.167969 10.484375 L 14.566406 10.484375 L 14.566406 8.882812 C 14.566406 7.375 14.566406 7.28125 14.5625 7.265625 C 14.554688 7.203125 14.523438 7.148438 14.480469 7.101562 C 14.460938 7.085938 14.453125 7.078125 14.433594 7.0625 C 14.398438 7.042969 14.355469 7.027344 14.316406 7.019531 C 14.300781 7.019531 14.140625 7.019531 12.640625 7.019531 C 11.726562 7.019531 10.980469 7.019531 10.976562 7.019531 Z M 13.988281 9.199219 L 13.988281 10.800781 L 13.992188 10.816406 C 14.003906 10.882812 14.03125 10.933594 14.078125 10.976562 C 14.125 11.023438 14.183594 11.054688 14.25 11.058594 C 14.257812 11.0625 14.765625 11.0625 15.859375 11.0625 L 17.453125 11.0625 L 17.453125 13.753906 L 15.851562 13.753906 C 14.324219 13.753906 14.246094 13.753906 14.234375 13.757812 C 14.167969 13.769531 14.113281 13.796875 14.070312 13.84375 C 14.023438 13.894531 13.996094 13.953125 13.988281 14.019531 C 13.988281 14.03125 13.988281 14.542969 13.988281 15.625 L 13.988281 17.21875 L 11.292969 17.21875 L 11.292969 15.625 C 11.292969 14.511719 11.292969 14.023438 11.292969 14.015625 C 11.289062 13.96875 11.273438 13.925781 11.246094 13.886719 C 11.199219 13.8125 11.121094 13.765625 11.03125 13.753906 C 11.023438 13.753906 10.519531 13.753906 9.421875 13.753906 L 7.828125 13.753906 L 7.828125 11.0625 L 9.433594 11.0625 C 10.941406 11.058594 11.039062 11.058594 11.050781 11.058594 C 11.113281 11.046875 11.164062 11.019531 11.210938 10.972656 C 11.253906 10.929688 11.285156 10.871094 11.292969 10.804688 C 11.292969 10.792969 11.292969 10.621094 11.292969 9.191406 L 11.292969 7.597656 L 13.988281 7.597656 Z M 13.988281 9.199219 "/>
</g>
</svg>
