<?xml version="1.0" encoding="UTF-8"?>
<svg xmlns="http://www.w3.org/2000/svg" xmlns:xlink="http://www.w3.org/1999/xlink" width="px" height="px" viewBox="0 0 8534 8534" version="1.1">
<g>
<path style=" stroke:none;fill-rule:nonzero;fill:rgb(0%,0%,0%);fill-opacity:1;" d="M 2547.371094 863.890625 C 2433.363281 869.339844 2329.308594 900.84375 2232.855469 958.945312 C 2126.351562 1023.148438 2038.996094 1117.800781 1983.191406 1229.308594 C 1912.890625 1370.015625 1895.9375 1531.773438 1935.589844 1684.378906 C 1951.042969 1743.882812 1976.09375 1803.132812 2008.34375 1856.585938 C 2030.996094 1894.140625 2058.246094 1930.339844 2088.648438 1963.34375 C 2099.546875 1975.140625 2122.5 1997.742188 2133.898438 2007.894531 C 2214.902344 2080.046875 2310.007812 2130.648438 2414.113281 2156.902344 C 2526.320312 2185.253906 2646.972656 2183.300781 2757.828125 2151.351562 C 2921.835938 2104.097656 3061.242188 1994.394531 3146.398438 1845.585938 C 3194 1762.382812 3222.699219 1669.476562 3230.402344 1573.574219 C 3232.402344 1548.171875 3233 1509.820312 3231.703125 1489.070312 C 3228.152344 1432.417969 3218.300781 1380.964844 3199.949219 1323.5625 C 3174.25 1243.007812 3126.996094 1156.355469 3077.144531 1098.203125 C 3063.695312 1082.550781 3029.390625 1047.449219 3013.890625 1033.546875 C 2898.785156 929.992188 2759.378906 871.839844 2607.621094 864.039062 C 2599.070312 863.589844 2555.519531 863.492188 2547.371094 863.890625 Z M 2604.121094 1083.550781 C 2701.976562 1090.402344 2790.582031 1127.253906 2864.382812 1191.804688 C 2873.882812 1200.105469 2893.636719 1219.65625 2901.734375 1228.808594 C 2928.988281 1259.609375 2950.386719 1291.359375 2968.140625 1327.3125 C 2974.789062 1340.863281 2977.640625 1347.261719 2982.890625 1360.5625 C 3018.839844 1451.816406 3022.839844 1553.421875 2994.191406 1647.578125 C 2978.140625 1700.378906 2950.738281 1751.933594 2915.886719 1794.835938 C 2898.984375 1815.683594 2876.683594 1838.335938 2856.382812 1855.386719 C 2809.230469 1894.890625 2753.980469 1924.238281 2695.328125 1940.890625 C 2609.773438 1965.140625 2519.316406 1962.84375 2434.613281 1934.191406 C 2312.160156 1892.738281 2212.753906 1799.035156 2164.902344 1679.929688 C 2148.800781 1639.828125 2139.148438 1598.773438 2135.25 1553.574219 C 2134 1539.023438 2134 1501.621094 2135.25 1487.070312 C 2140.25 1429.316406 2154.449219 1378.265625 2179.550781 1328.0625 C 2226.40625 1234.308594 2305.957031 1159.503906 2402.863281 1118.152344 C 2451.316406 1097.453125 2502.566406 1085.699219 2556.121094 1083.050781 C 2566.46875 1082.550781 2593.820312 1082.800781 2604.121094 1083.550781 Z M 2604.121094 1083.550781 "/>
<path style=" stroke:none;fill-rule:nonzero;fill:rgb(0%,0%,0%);fill-opacity:1;" d="M 2096.097656 2395.664062 C 1998.945312 2400.0625 1907.339844 2437.015625 1833.085938 2501.917969 C 1824.433594 2509.46875 1802.484375 2531.417969 1794.835938 2540.117188 C 1754.480469 2586.320312 1724.53125 2639.921875 1707.128906 2697.375 C 1705.480469 2702.875 1621.277344 3018.339844 1520.070312 3398.410156 C 1418.816406 3778.476562 1332.613281 4102.042969 1328.511719 4117.441406 C 1319.460938 4151.042969 1313.960938 4173.144531 1308.613281 4197.097656 C 1281.960938 4316.351562 1266.960938 4444.808594 1261.558594 4600.964844 C 1259.410156 4663.117188 1259.109375 4712.722656 1258.558594 5100.738281 L 1258.058594 5448.503906 L 953.496094 6045.285156 C 785.988281 6373.5 646.429688 6647.011719 643.429688 6653.0625 C 640.378906 6659.113281 636.429688 6667.3125 634.679688 6671.3125 C 595.429688 6759.617188 590.976562 6859.070312 622.078125 6950.726562 C 660.480469 7063.679688 748.234375 7151.433594 861.390625 7190.035156 C 970.144531 7227.089844 1090.949219 7212.988281 1188.707031 7151.785156 C 1245.109375 7116.484375 1291.660156 7066.53125 1322.761719 7007.929688 C 1327.414062 6999.179688 1969.742188 5736.917969 1982.144531 5712.269531 C 2004.695312 5667.214844 2018.445312 5620.664062 2022.792969 5574.511719 C 2023.246094 5570.109375 2023.695312 5565.511719 2023.894531 5564.261719 C 2024.09375 5563.011719 2024.394531 5403.351562 2024.542969 5209.394531 L 2024.84375 4856.777344 L 2267.855469 5227.09375 C 2401.511719 5430.753906 2515.96875 5605.210938 2522.21875 5614.761719 L 2533.617188 5632.0625 L 2608.371094 6247.34375 C 2649.472656 6585.707031 2683.675781 6866.722656 2684.425781 6871.820312 C 2695.027344 6948.625 2729.179688 7020.980469 2781.378906 7077.53125 C 2831.832031 7132.132812 2896.285156 7170.9375 2967.140625 7189.285156 C 3009.542969 7200.289062 3054.542969 7203.988281 3098.296875 7200.085938 C 3167.949219 7193.835938 3235.050781 7168.4375 3291.105469 7127.183594 C 3325.40625 7101.984375 3356.757812 7069.332031 3380.757812 7034.078125 C 3431.5625 6959.375 3454.3125 6869.820312 3445.160156 6780.316406 C 3443.960938 6768.46875 3283.453125 5448.855469 3282.105469 5439.503906 C 3275.003906 5391.050781 3257.550781 5342.351562 3232.050781 5299.75 C 3229.800781 5296.046875 3071.945312 5055.488281 2881.183594 4765.222656 C 2602.621094 4341.304688 2534.367188 4237.148438 2534.417969 4235.949219 C 2534.519531 4234.199219 2701.625 3552.117188 2702.125 3551.515625 C 2702.277344 3551.316406 2705.328125 3555.917969 2708.878906 3561.765625 C 2712.425781 3567.617188 2716.878906 3574.867188 2718.828125 3577.917969 C 2746.980469 3622.21875 2786.730469 3660.523438 2832.132812 3687.273438 C 2840.984375 3692.523438 3603.570312 4106.140625 3613.621094 4111.144531 C 3634.871094 4121.792969 3657.921875 4130.34375 3681.324219 4136.242188 C 3755.574219 4154.945312 3834.128906 4147.894531 3904.382812 4116.144531 C 3907.933594 4114.542969 3910.933594 4113.242188 3910.984375 4113.34375 C 3911.035156 4113.394531 3947.136719 4661.117188 3991.1875 5330.5 C 4035.1875 5999.882812 4071.339844 6548.308594 4071.492188 6549.15625 L 4071.742188 6550.808594 L 6945.324219 6550.808594 L 6945.324219 6549.15625 C 6945.324219 6548.207031 6985.925781 5930.476562 7035.578125 5176.394531 C 7085.230469 4422.308594 7125.835938 3804.828125 7125.835938 3804.226562 L 7125.835938 3803.179688 L 4085.191406 3803.179688 L 4085.191406 3800.777344 C 4085.191406 3799.476562 4086.191406 3778.628906 4087.390625 3754.425781 L 4089.589844 3710.425781 L 4086.339844 3700.421875 C 4061.039062 3622.917969 4007.789062 3556.515625 3937.683594 3515.015625 C 3933.683594 3512.664062 3776.878906 3427.460938 3589.167969 3325.707031 L 3247.902344 3140.695312 L 3128.996094 2944.289062 C 2911.285156 2584.722656 2921.585938 2601.523438 2907.136719 2582.121094 C 2864.285156 2524.617188 2810.28125 2478.867188 2746.878906 2446.316406 C 2686.675781 2415.414062 2622.371094 2398.5625 2553.621094 2395.613281 C 2539.570312 2395.011719 2109.449219 2395.0625 2096.097656 2395.664062 Z M 2560.121094 2615.773438 C 2589.320312 2619.421875 2613.222656 2626.074219 2637.625 2637.421875 C 2665.074219 2650.125 2688.476562 2666.773438 2710.128906 2688.925781 C 2721.527344 2700.527344 2730.179688 2711.226562 2738.476562 2723.878906 C 2740.476562 2726.929688 2820.582031 2858.984375 2916.535156 3017.339844 L 3090.945312 3305.304688 L 3448.460938 3499.113281 C 3645.070312 3605.71875 3810.429688 3695.375 3815.929688 3698.324219 C 3831.480469 3706.773438 3839.28125 3712.324219 3848.480469 3721.574219 C 3867.132812 3740.175781 3878.832031 3764.328125 3882.433594 3791.425781 C 3883.382812 3798.679688 3883.53125 3813.429688 3882.683594 3816.777344 C 3882.332031 3818.078125 3882.183594 3819.878906 3882.332031 3820.777344 C 3882.632812 3822.628906 3881.230469 3831.679688 3879.683594 3837.828125 C 3874.382812 3858.929688 3863.730469 3877.28125 3847.878906 3892.683594 C 3828.929688 3911.035156 3806.878906 3921.933594 3780.175781 3926.035156 C 3772.226562 3927.234375 3755.175781 3927.234375 3747.175781 3925.984375 C 3736.375 3924.332031 3725.824219 3921.234375 3716.175781 3916.933594 C 3709.125 3913.785156 2944.6875 3499.0625 2939.136719 3495.363281 C 2926.335938 3486.8125 2914.785156 3475.511719 2906.035156 3462.914062 C 2904.484375 3460.710938 2871.484375 3406.257812 2832.632812 3341.90625 C 2793.78125 3277.554688 2760.78125 3223.101562 2759.328125 3220.902344 C 2753.480469 3212.101562 2744.730469 3202.449219 2736.476562 3195.699219 C 2726.429688 3187.5 2711.277344 3179.148438 2699.375 3175.199219 C 2643.273438 3156.699219 2582.972656 3181.597656 2556.871094 3234.050781 C 2552.71875 3242.453125 2550.46875 3248.601562 2547.820312 3258.902344 C 2542.121094 3281.304688 2320.359375 4186.347656 2319.109375 4192.445312 C 2317.160156 4201.695312 2315.757812 4211.699219 2315.058594 4221.199219 C 2314.308594 4230.847656 2314.757812 4251.949219 2315.859375 4261.199219 C 2319.507812 4292.300781 2329.558594 4322.402344 2344.960938 4348.304688 C 2346.808594 4351.402344 2503.316406 4589.863281 2692.828125 4878.230469 C 2882.285156 5166.59375 3039.242188 5405.554688 3041.59375 5409.253906 C 3052.691406 5426.90625 3060.542969 5446.90625 3064.195312 5466.957031 C 3065.195312 5472.554688 3226.152344 6795.117188 3227.203125 6806.46875 C 3227.902344 6814.019531 3227.5 6831.421875 3226.402344 6839.320312 C 3221.402344 6875.824219 3205.199219 6908.375 3179.199219 6934.324219 C 3156.199219 6957.277344 3126.746094 6972.925781 3095.246094 6979.027344 C 3084.042969 6981.175781 3064.84375 6982.675781 3055.691406 6982.078125 C 3014.542969 6979.527344 2978.488281 6963.726562 2949.9375 6935.875 C 2924.335938 6910.824219 2908.335938 6880.472656 2902.386719 6845.570312 C 2901.984375 6843.070312 2866.433594 6551.558594 2823.433594 6197.742188 L 2745.230469 5554.410156 L 2417.613281 5054.9375 C 2237.40625 4780.222656 2088.199219 4552.863281 2086.046875 4549.714844 C 2074.445312 4532.511719 2060.398438 4518.613281 2043.097656 4507.109375 C 2035.09375 4501.8125 2019.894531 4494.160156 2010.996094 4491.011719 C 1954.492188 4470.808594 1892.238281 4484.660156 1850.136719 4526.761719 C 1837.585938 4539.3125 1828.1875 4552.613281 1820.285156 4568.964844 C 1813.085938 4583.863281 1809.035156 4597.664062 1806.234375 4616.765625 C 1805.433594 4622.066406 1805.335938 4655.066406 1805.085938 5087.988281 C 1804.835938 5533.410156 1804.785156 5553.761719 1803.933594 5558.761719 C 1800.085938 5581.261719 1794.933594 5596.164062 1782.683594 5620.261719 C 1677.730469 5827.074219 1128.453125 6905.722656 1126.054688 6909.824219 C 1103.203125 6948.527344 1066.351562 6976.027344 1023.546875 6986.328125 C 1008.496094 6989.925781 997.296875 6991.078125 980.394531 6990.675781 C 966.695312 6990.378906 958.894531 6989.425781 946.792969 6986.476562 C 906.992188 6976.878906 872.492188 6953.074219 849.539062 6919.324219 C 831.089844 6892.074219 821.039062 6859.523438 821.039062 6826.820312 C 821.039062 6804.269531 826.039062 6780.769531 835.238281 6760.417969 C 836.6875 6757.167969 981.796875 6472.601562 1157.703125 6128.039062 L 1477.570312 5501.507812 L 1477.570312 5106.738281 C 1477.570312 4662.570312 1477.621094 4658.066406 1481.320312 4577.714844 C 1487.769531 4438.457031 1504.21875 4316.703125 1530.820312 4211.449219 C 1535.421875 4193.148438 1914.289062 2770.578125 1916.640625 2762.679688 C 1924.390625 2736.628906 1937.890625 2711.527344 1955.691406 2689.875 C 1961.242188 2683.175781 1973.992188 2670.226562 1980.542969 2664.625 C 2014.59375 2635.773438 2055.597656 2618.773438 2099.847656 2615.171875 C 2102.597656 2614.921875 2205.753906 2614.773438 2329.109375 2614.824219 C 2535.96875 2614.921875 2553.871094 2614.972656 2560.121094 2615.773438 Z M 6944.074219 3976.285156 C 6943.824219 3979.136719 6785.816406 6379.148438 6785.816406 6380.300781 C 6785.816406 6380.648438 6328.996094 6380.800781 5508.257812 6380.800781 L 4230.699219 6380.800781 L 4230.699219 6379.347656 C 4230.699219 6378.300781 4073.890625 3994.539062 4072.589844 3975.285156 L 4072.441406 3973.1875 L 6944.375 3973.1875 Z M 6944.074219 3976.285156 "/>
<path style=" stroke:none;fill-rule:nonzero;fill:rgb(0%,0%,0%);fill-opacity:1;" d="M 5508.757812 4499.710938 C 5448.90625 4505.410156 5396.902344 4537.960938 5366.601562 4588.714844 C 5351.652344 4613.816406 5343.449219 4640.316406 5340.949219 4671.570312 L 5340.648438 4675.667969 L 5337.851562 4676.21875 C 5329.398438 4677.917969 5310.949219 4682.167969 5299.75 4684.96875 C 5154.640625 4721.269531 5020.933594 4792.023438 4908.730469 4891.929688 C 4730.820312 5050.386719 4620.765625 5270.398438 4601.214844 5506.757812 C 4599.464844 5528.109375 4598.664062 5543.910156 4598.367188 5564.609375 L 4598.066406 5584.761719 L 4740.621094 5584.761719 L 4740.921875 5573.859375 C 4741.773438 5544.160156 4742.773438 5526.710938 4744.972656 5504.757812 C 4761.023438 5345.652344 4825.527344 5195.742188 4930.332031 5073.738281 C 4967.53125 5030.484375 5009.234375 4991.382812 5054.738281 4957.28125 C 5173.09375 4868.378906 5311.5 4815.574219 5459.007812 4802.976562 C 5496.65625 4799.773438 5540.460938 4799.425781 5578.511719 4802.023438 C 5717.519531 4811.476562 5849.675781 4856.828125 5964.429688 4934.53125 C 6029.632812 4978.683594 6087.933594 5032.4375 6137.238281 5093.738281 C 6232.941406 5212.746094 6291.496094 5356.199219 6306.296875 5507.757812 C 6308.445312 5529.960938 6309.796875 5554.910156 6309.796875 5572.859375 L 6309.796875 5584.761719 L 6452.953125 5584.761719 L 6452.652344 5565.609375 C 6451.351562 5489.757812 6440.402344 5413.253906 6420.152344 5339.25 C 6383.347656 5204.84375 6315.644531 5078.9375 6223.839844 4974.234375 C 6205.539062 4953.382812 6174.339844 4921.28125 6155.289062 4903.730469 C 6053.082031 4809.425781 5932.378906 4739.671875 5800.523438 4698.71875 C 5776.570312 4691.269531 5745.96875 4683.269531 5721.316406 4678.019531 C 5714.367188 4676.519531 5708.566406 4675.167969 5708.417969 4675.070312 C 5708.316406 4674.917969 5708.015625 4672.167969 5707.765625 4668.917969 C 5702.917969 4608.765625 5670.117188 4555.714844 5618.761719 4525.0625 C 5596.761719 4511.960938 5573.609375 4504.011719 5546.511719 4500.410156 C 5539.910156 4499.511719 5515.609375 4499.0625 5508.757812 4499.710938 Z M 5536.808594 4633.917969 C 5545.808594 4636.167969 5553.460938 4640.617188 5560.210938 4647.316406 C 5563.710938 4650.816406 5568.660156 4657.46875 5568.210938 4657.96875 C 5568.0625 4658.117188 5560.660156 4657.96875 5551.710938 4657.667969 C 5536.058594 4657.117188 5501.207031 4657.316406 5486.808594 4658.066406 L 5480.105469 4658.367188 L 5482.757812 4654.519531 C 5490.90625 4642.769531 5503.308594 4634.96875 5517.558594 4632.71875 C 5522.410156 4631.96875 5531.359375 4632.515625 5536.808594 4633.917969 Z M 5536.808594 4633.917969 "/>
<path style=" stroke:none;fill-rule:nonzero;fill:rgb(0%,0%,0%);fill-opacity:1;" d="M 4440.707031 5727.269531 L 4440.707031 5798.773438 L 6613.308594 5798.773438 L 6613.308594 5655.765625 L 4440.707031 5655.765625 Z M 4440.707031 5727.269531 "/>
<path style=" stroke:none;fill-rule:nonzero;fill:rgb(0%,0%,0%);fill-opacity:1;" d="M 4348.703125 6628.3125 C 4283 6631.761719 4222.898438 6655.3125 4171.945312 6697.613281 C 4163.84375 6704.3125 4143.644531 6724.464844 4136.59375 6732.816406 C 4081.542969 6798.21875 4057.289062 6882.074219 4068.992188 6966.578125 C 4079.792969 7044.679688 4121.792969 7115.632812 4185.445312 7163.285156 C 4199.996094 7174.136719 4213.398438 7182.386719 4230.699219 7190.988281 C 4279.902344 7215.589844 4334.402344 7225.9375 4389.207031 7221.089844 C 4473.460938 7213.6875 4549.914062 7171.234375 4600.765625 7103.734375 C 4626.71875 7069.230469 4645.269531 7028.53125 4653.917969 6987.027344 C 4658.117188 6966.726562 4659.667969 6952.375 4660.070312 6930.824219 C 4660.46875 6909.125 4659.46875 6894.824219 4656.21875 6875.523438 C 4643.617188 6800.417969 4602.765625 6733.367188 4541.363281 6687.214844 C 4497.0625 6653.960938 4444.410156 6633.859375 4388.707031 6629.109375 C 4377.605469 6628.160156 4358.753906 6627.761719 4348.703125 6628.3125 Z M 4383.503906 6799.769531 C 4439.558594 6809.417969 4481.410156 6852.769531 4489.261719 6909.324219 C 4490.261719 6916.222656 4490.109375 6935.625 4489.058594 6942.476562 C 4486.859375 6956.625 4483.308594 6968.226562 4477.261719 6980.628906 C 4460.160156 7015.578125 4428.457031 7040.628906 4390.707031 7049.03125 C 4381.207031 7051.128906 4373.855469 7051.878906 4363.203125 7051.878906 C 4352.554688 7051.878906 4345.203125 7051.128906 4335.703125 7049.03125 C 4298.300781 7040.730469 4266.351562 7015.527344 4249.449219 6981.078125 C 4243.300781 6968.527344 4239.699219 6957.226562 4237.597656 6943.574219 C 4236.199219 6934.523438 4236.097656 6916.574219 4237.347656 6908.171875 C 4240.046875 6890.421875 4245.449219 6875.070312 4254.050781 6860.570312 C 4272.699219 6829.121094 4304.203125 6807.019531 4339.953125 6800.320312 C 4349.105469 6798.617188 4352.453125 6798.367188 4365.203125 6798.570312 C 4374.753906 6798.667969 4378.753906 6798.917969 4383.503906 6799.769531 Z M 4383.503906 6799.769531 "/>
<path style=" stroke:none;fill-rule:nonzero;fill:rgb(0%,0%,0%);fill-opacity:1;" d="M 6643.3125 6628.109375 C 6612.308594 6629.511719 6586.757812 6634.160156 6559.308594 6643.3125 C 6516.15625 6657.660156 6478.355469 6680.761719 6445.851562 6712.566406 C 6420.550781 6737.316406 6402.398438 6762.417969 6386.800781 6794.070312 C 6370.5 6827.121094 6361.347656 6859.570312 6357.449219 6897.972656 C 6356.246094 6910.125 6356.246094 6940.023438 6357.449219 6952.324219 C 6361.398438 6991.175781 6370.898438 7024.527344 6387.550781 7057.832031 C 6421.402344 7125.632812 6479.453125 7177.636719 6550.65625 7204.039062 C 6575.308594 7213.136719 6601.109375 7218.789062 6630.3125 7221.4375 C 6640.511719 7222.339844 6668.613281 7222.1875 6679.5625 7221.136719 C 6725.816406 7216.738281 6768.46875 7202.835938 6806.769531 7179.6875 C 6885.574219 7132.132812 6938.023438 7050.730469 6948.527344 6959.828125 C 6950.625 6941.976562 6950.875 6911.375 6949.125 6895.324219 C 6944.324219 6851.519531 6931.375 6811.621094 6910.273438 6775.566406 C 6863.820312 6696.164062 6784.117188 6642.960938 6693.0625 6630.609375 C 6679.714844 6628.761719 6655.261719 6627.5625 6643.3125 6628.109375 Z M 6673.613281 6799.769531 C 6714.964844 6806.867188 6748.917969 6832.121094 6767.265625 6869.320312 C 6775.46875 6886.023438 6779.566406 6902.273438 6780.167969 6921.074219 C 6781.117188 6950.375 6772.417969 6977.878906 6754.867188 7001.226562 C 6734.117188 7028.78125 6703.714844 7046.480469 6669.0625 7051.082031 C 6661.863281 7052.03125 6647.261719 7052.179688 6639.8125 7051.378906 C 6610.859375 7048.179688 6584.058594 7035.230469 6563.308594 7014.378906 C 6543.808594 6994.777344 6531.605469 6969.976562 6527.507812 6941.574219 C 6526.304688 6933.425781 6526.304688 6917.375 6527.507812 6908.824219 C 6531.355469 6880.621094 6543.65625 6855.621094 6563.507812 6835.71875 C 6583.707031 6815.46875 6609.160156 6802.917969 6637.8125 6799.070312 C 6645.761719 6798.019531 6665.710938 6798.367188 6673.613281 6799.769531 Z M 6673.613281 6799.769531 "/>
</g>
</svg>
