<?xml version="1.0" encoding="UTF-8"?>
<svg xmlns="http://www.w3.org/2000/svg" xmlns:xlink="http://www.w3.org/1999/xlink" viewBox="0 0 24 24" version="1.1">
<g>
<path style=" stroke:none;fill-rule:nonzero;fill:rgb(0%,0%,0%);fill-opacity:1;" d="M 5.445312 3.75 C 5.050781 3.765625 4.675781 3.90625 4.375 4.15625 C 4.242188 4.265625 4.125 4.394531 4.03125 4.535156 C 3.859375 4.789062 3.753906 5.082031 3.730469 5.390625 C 3.722656 5.457031 3.722656 5.46875 3.722656 5.867188 C 3.722656 6.261719 3.722656 6.269531 3.730469 6.339844 C 3.761719 6.714844 3.910156 7.070312 4.152344 7.355469 C 4.183594 7.390625 4.199219 7.410156 4.246094 7.453125 L 4.289062 7.5 L 4.265625 7.503906 C 4.230469 7.507812 4.089844 7.539062 4.039062 7.546875 C 3.667969 7.628906 3.328125 7.730469 2.953125 7.875 C 2.621094 8.003906 2.324219 8.21875 2.101562 8.5 C 1.898438 8.75 1.761719 9.050781 1.699219 9.363281 C 1.675781 9.476562 1.664062 9.574219 1.660156 9.691406 C 1.660156 9.742188 1.660156 12.980469 1.660156 13.019531 C 1.667969 13.171875 1.703125 13.3125 1.761719 13.449219 C 1.859375 13.65625 2.019531 13.839844 2.214844 13.957031 C 2.261719 13.984375 2.316406 14.011719 2.359375 14.03125 C 2.375 14.039062 2.609375 14.132812 2.878906 14.242188 L 3.375 14.445312 L 3.375 19.210938 L 3.976562 19.210938 L 3.976562 9.769531 L 3.375 9.769531 L 3.375 13.796875 L 2.984375 13.636719 C 2.75 13.542969 2.585938 13.476562 2.574219 13.46875 C 2.476562 13.421875 2.394531 13.347656 2.339844 13.253906 C 2.296875 13.1875 2.273438 13.117188 2.261719 13.03125 C 2.261719 13.015625 2.261719 12.917969 2.261719 11.371094 C 2.261719 10.179688 2.261719 9.71875 2.261719 9.695312 C 2.273438 9.464844 2.335938 9.246094 2.449219 9.050781 C 2.589844 8.808594 2.796875 8.613281 3.046875 8.488281 C 3.109375 8.457031 3.152344 8.441406 3.289062 8.390625 C 4.230469 8.042969 5.238281 7.917969 6.234375 8.015625 C 6.800781 8.074219 7.359375 8.203125 7.894531 8.402344 C 7.957031 8.425781 7.996094 8.441406 8.027344 8.453125 C 8.382812 8.613281 8.65625 8.910156 8.785156 9.277344 C 8.832031 9.402344 8.859375 9.539062 8.867188 9.675781 C 8.867188 9.699219 8.867188 10.171875 8.867188 11.335938 C 8.867188 12.867188 8.867188 12.960938 8.863281 12.976562 C 8.855469 13.046875 8.835938 13.101562 8.808594 13.15625 C 8.78125 13.214844 8.75 13.257812 8.707031 13.300781 C 8.648438 13.363281 8.582031 13.40625 8.503906 13.433594 C 8.492188 13.4375 7.824219 13.640625 7.753906 13.664062 C 7.753906 13.664062 7.753906 13.570312 7.753906 11.714844 L 7.753906 9.769531 L 7.152344 9.769531 L 7.152344 19.210938 L 7.753906 19.210938 L 7.753906 14.289062 L 8.207031 14.152344 C 8.457031 14.078125 8.671875 14.011719 8.683594 14.007812 C 8.828125 13.960938 8.957031 13.882812 9.074219 13.78125 C 9.097656 13.761719 9.148438 13.710938 9.167969 13.6875 C 9.289062 13.558594 9.375 13.398438 9.421875 13.230469 C 9.445312 13.152344 9.457031 13.078125 9.464844 12.992188 C 9.46875 12.960938 9.46875 9.683594 9.464844 9.640625 C 9.457031 9.503906 9.4375 9.386719 9.410156 9.261719 C 9.335938 8.96875 9.195312 8.691406 9 8.457031 C 8.785156 8.199219 8.511719 8 8.199219 7.875 C 8.089844 7.832031 7.914062 7.769531 7.769531 7.722656 C 7.496094 7.636719 7.171875 7.554688 6.902344 7.503906 C 6.886719 7.503906 6.875 7.5 6.871094 7.5 C 6.871094 7.5 6.886719 7.484375 6.910156 7.460938 C 6.964844 7.40625 7 7.363281 7.046875 7.308594 C 7.15625 7.171875 7.242188 7.023438 7.308594 6.863281 C 7.371094 6.699219 7.414062 6.53125 7.429688 6.355469 C 7.433594 6.285156 7.433594 6.292969 7.433594 5.863281 C 7.433594 5.414062 7.4375 5.4375 7.425781 5.351562 C 7.382812 4.898438 7.160156 4.476562 6.8125 4.179688 C 6.617188 4.011719 6.390625 3.890625 6.144531 3.820312 C 6.003906 3.777344 5.863281 3.753906 5.710938 3.75 C 5.664062 3.75 5.492188 3.75 5.445312 3.75 Z M 5.710938 4.351562 C 5.980469 4.363281 6.230469 4.464844 6.433594 4.644531 C 6.460938 4.667969 6.507812 4.714844 6.527344 4.738281 C 6.695312 4.921875 6.796875 5.144531 6.828125 5.386719 C 6.835938 5.453125 6.835938 5.425781 6.835938 5.863281 C 6.835938 6.300781 6.835938 6.277344 6.828125 6.34375 C 6.785156 6.683594 6.597656 6.988281 6.308594 7.179688 C 6.128906 7.300781 5.929688 7.367188 5.710938 7.378906 C 5.675781 7.378906 5.484375 7.378906 5.449219 7.378906 C 5.179688 7.363281 4.929688 7.261719 4.726562 7.082031 C 4.683594 7.046875 4.621094 6.980469 4.585938 6.9375 C 4.441406 6.761719 4.355469 6.542969 4.332031 6.316406 C 4.324219 6.261719 4.324219 6.261719 4.324219 5.863281 C 4.324219 5.464844 4.324219 5.472656 4.332031 5.414062 C 4.351562 5.1875 4.441406 4.96875 4.585938 4.792969 C 4.636719 4.730469 4.703125 4.660156 4.765625 4.613281 C 4.953125 4.460938 5.179688 4.371094 5.417969 4.351562 C 5.433594 4.351562 5.453125 4.351562 5.457031 4.351562 C 5.484375 4.347656 5.683594 4.347656 5.710938 4.351562 Z M 5.710938 4.351562 "/>
<path style=" stroke:none;fill-rule:nonzero;fill:rgb(0%,0%,0%);fill-opacity:1;" d="M 18.628906 3.75 C 18.300781 3.761719 17.980469 3.863281 17.707031 4.046875 C 17.40625 4.246094 17.175781 4.53125 17.039062 4.863281 C 16.964844 5.050781 16.921875 5.25 16.910156 5.457031 C 16.910156 5.5 16.910156 6.230469 16.910156 6.269531 C 16.925781 6.59375 17.019531 6.894531 17.195312 7.160156 C 17.261719 7.269531 17.339844 7.367188 17.433594 7.460938 C 17.457031 7.480469 17.472656 7.5 17.472656 7.5 C 17.472656 7.5 17.457031 7.5 17.441406 7.503906 C 17.253906 7.539062 17.039062 7.589844 16.851562 7.640625 C 16.625 7.703125 16.425781 7.765625 16.191406 7.855469 C 16.082031 7.894531 16.035156 7.917969 15.957031 7.953125 C 15.757812 8.054688 15.582031 8.183594 15.421875 8.34375 C 15.089844 8.683594 14.886719 9.132812 14.851562 9.609375 C 14.84375 9.679688 14.84375 9.671875 14.84375 11.375 C 14.847656 12.949219 14.847656 13.042969 14.847656 13.066406 C 14.855469 13.148438 14.867188 13.210938 14.886719 13.277344 C 14.949219 13.507812 15.085938 13.714844 15.269531 13.867188 C 15.351562 13.933594 15.445312 13.988281 15.542969 14.03125 C 15.554688 14.035156 15.789062 14.132812 16.0625 14.242188 L 16.5625 14.445312 L 16.5625 19.210938 L 17.160156 19.210938 L 17.160156 9.769531 L 16.5625 9.769531 L 16.5625 11.78125 L 16.558594 13.796875 L 16.175781 13.640625 C 15.964844 13.554688 15.78125 13.480469 15.773438 13.476562 C 15.671875 13.433594 15.582031 13.351562 15.527344 13.257812 C 15.476562 13.179688 15.449219 13.089844 15.445312 12.996094 C 15.445312 12.953125 15.445312 9.703125 15.445312 9.675781 C 15.449219 9.664062 15.449219 9.640625 15.449219 9.628906 C 15.480469 9.304688 15.621094 9 15.851562 8.765625 C 15.917969 8.695312 15.988281 8.640625 16.066406 8.585938 C 16.148438 8.53125 16.238281 8.484375 16.328125 8.445312 C 16.351562 8.4375 16.441406 8.402344 16.496094 8.382812 C 17.351562 8.070312 18.261719 7.941406 19.167969 7.996094 C 19.824219 8.035156 20.46875 8.171875 21.082031 8.402344 C 21.171875 8.4375 21.203125 8.449219 21.257812 8.476562 C 21.375 8.53125 21.480469 8.601562 21.582031 8.695312 C 21.609375 8.714844 21.667969 8.777344 21.691406 8.800781 C 21.894531 9.03125 22.019531 9.3125 22.046875 9.617188 C 22.054688 9.679688 22.054688 9.613281 22.054688 11.320312 C 22.054688 12.882812 22.050781 12.949219 22.050781 12.96875 C 22.050781 12.980469 22.046875 13 22.042969 13.011719 C 22.007812 13.210938 21.863281 13.378906 21.667969 13.441406 C 21.644531 13.449219 20.9375 13.664062 20.9375 13.664062 C 20.9375 13.664062 20.9375 12.785156 20.9375 11.714844 L 20.9375 9.769531 L 20.335938 9.769531 L 20.335938 19.210938 L 20.9375 19.210938 L 20.9375 14.289062 L 21.386719 14.15625 C 21.632812 14.078125 21.851562 14.011719 21.867188 14.007812 C 21.996094 13.964844 22.121094 13.894531 22.226562 13.808594 C 22.324219 13.730469 22.40625 13.636719 22.472656 13.535156 C 22.53125 13.441406 22.578125 13.335938 22.609375 13.230469 C 22.636719 13.132812 22.648438 13.046875 22.652344 12.941406 C 22.65625 12.875 22.652344 9.6875 22.652344 9.652344 C 22.644531 9.554688 22.636719 9.492188 22.625 9.414062 C 22.589844 9.195312 22.515625 8.976562 22.40625 8.78125 C 22.191406 8.386719 21.855469 8.078125 21.445312 7.902344 C 21.339844 7.855469 21.113281 7.773438 20.933594 7.714844 C 20.664062 7.632812 20.355469 7.554688 20.09375 7.507812 C 20.074219 7.503906 20.058594 7.5 20.058594 7.5 C 20.054688 7.5 20.070312 7.484375 20.089844 7.464844 C 20.152344 7.402344 20.195312 7.351562 20.246094 7.289062 C 20.457031 7.019531 20.585938 6.6875 20.613281 6.347656 C 20.621094 6.273438 20.621094 6.277344 20.621094 5.902344 C 20.621094 5.488281 20.621094 5.445312 20.613281 5.359375 C 20.578125 5 20.4375 4.664062 20.207031 4.390625 C 20.152344 4.324219 20.078125 4.25 20.011719 4.191406 C 19.824219 4.023438 19.597656 3.898438 19.359375 3.828125 C 19.207031 3.78125 19.058594 3.757812 18.894531 3.75 C 18.847656 3.75 18.675781 3.75 18.628906 3.75 Z M 18.929688 4.351562 C 18.960938 4.355469 19.003906 4.359375 19.03125 4.367188 C 19.25 4.402344 19.449219 4.496094 19.621094 4.644531 C 19.660156 4.679688 19.722656 4.746094 19.757812 4.792969 C 19.902344 4.96875 19.992188 5.1875 20.015625 5.414062 C 20.019531 5.46875 20.019531 5.464844 20.019531 5.863281 C 20.019531 6.265625 20.019531 6.257812 20.015625 6.316406 C 19.988281 6.566406 19.882812 6.804688 19.714844 6.992188 C 19.691406 7.015625 19.640625 7.066406 19.617188 7.085938 C 19.429688 7.25 19.203125 7.347656 18.960938 7.375 C 18.910156 7.378906 18.898438 7.378906 18.765625 7.378906 C 18.625 7.378906 18.609375 7.378906 18.546875 7.371094 C 18.25 7.332031 17.976562 7.183594 17.785156 6.953125 C 17.621094 6.757812 17.527344 6.515625 17.511719 6.261719 C 17.511719 6.238281 17.511719 6.121094 17.511719 5.84375 C 17.511719 5.421875 17.511719 5.453125 17.519531 5.382812 C 17.539062 5.238281 17.585938 5.09375 17.65625 4.960938 C 17.75 4.796875 17.878906 4.652344 18.039062 4.546875 C 18.21875 4.429688 18.417969 4.363281 18.632812 4.351562 C 18.644531 4.351562 18.710938 4.351562 18.777344 4.351562 C 18.878906 4.351562 18.90625 4.351562 18.929688 4.351562 Z M 18.929688 4.351562 "/>
<path style=" stroke:none;fill-rule:nonzero;fill:rgb(0%,0%,0%);fill-opacity:1;" d="M 5.261719 16.378906 L 5.261719 19.210938 L 5.863281 19.210938 L 5.863281 13.546875 L 5.261719 13.546875 Z M 5.261719 16.378906 "/>
<path style=" stroke:none;fill-rule:nonzero;fill:rgb(0%,0%,0%);fill-opacity:1;" d="M 18.449219 16.378906 L 18.449219 19.210938 L 19.046875 19.210938 L 19.046875 13.546875 L 18.449219 13.546875 Z M 18.449219 16.378906 "/>
<path style=" stroke:none;fill-rule:nonzero;fill:rgb(0%,0%,0%);fill-opacity:1;" d="M 9.761719 14.730469 C 9.449219 15.195312 9.191406 15.578125 9.191406 15.578125 C 9.191406 15.578125 9.304688 15.65625 9.441406 15.746094 C 9.636719 15.875 9.691406 15.914062 9.691406 15.910156 C 9.691406 15.910156 9.851562 15.675781 10.039062 15.390625 L 10.386719 14.871094 L 10.386719 17.78125 L 10.988281 17.78125 L 10.988281 13.878906 L 10.328125 13.878906 Z M 9.761719 14.730469 "/>
<path style=" stroke:none;fill-rule:nonzero;fill:rgb(0%,0%,0%);fill-opacity:1;" d="M 13.515625 15.878906 C 13.375 16.132812 13.257812 16.339844 13.257812 16.339844 C 13.257812 16.335938 13.140625 16.132812 13 15.878906 L 12.742188 15.417969 L 11.785156 15.417969 L 11.785156 17.734375 L 12.386719 17.734375 L 12.386719 16.878906 C 12.386719 16.328125 12.386719 16.019531 12.390625 16.019531 C 12.390625 16.019531 12.527344 16.269531 12.699219 16.570312 L 13.007812 17.121094 L 13.257812 17.125 L 13.507812 17.125 L 13.796875 16.601562 L 14.089844 16.078125 L 14.089844 17.742188 L 14.691406 17.742188 L 14.691406 15.429688 L 14.667969 15.429688 C 14.652344 15.429688 14.457031 15.425781 14.230469 15.421875 C 14.003906 15.421875 13.808594 15.417969 13.796875 15.417969 L 13.773438 15.417969 Z M 13.515625 15.878906 "/>
<path style=" stroke:none;fill-rule:nonzero;fill:rgb(0%,0%,0%);fill-opacity:1;" d="M 9.148438 18.410156 C 9.144531 18.410156 9.136719 18.410156 9.128906 18.410156 C 9.050781 18.421875 8.972656 18.460938 8.917969 18.519531 C 8.863281 18.574219 8.832031 18.640625 8.820312 18.722656 C 8.816406 18.742188 8.816406 18.800781 8.820312 18.820312 C 8.835938 18.921875 8.890625 19.007812 8.976562 19.066406 C 9.082031 19.140625 9.222656 19.148438 9.339844 19.089844 C 9.375 19.070312 9.398438 19.054688 9.429688 19.023438 C 9.460938 18.992188 9.480469 18.96875 9.496094 18.933594 C 9.550781 18.824219 9.550781 18.695312 9.492188 18.59375 C 9.4375 18.496094 9.339844 18.429688 9.230469 18.414062 C 9.214844 18.410156 9.160156 18.410156 9.148438 18.410156 Z M 9.148438 18.410156 "/>
<path style=" stroke:none;fill-rule:nonzero;fill:rgb(0%,0%,0%);fill-opacity:1;" d="M 10.34375 18.410156 C 10.261719 18.417969 10.199219 18.445312 10.144531 18.492188 C 10.015625 18.597656 9.976562 18.777344 10.050781 18.925781 C 10.078125 18.984375 10.121094 19.035156 10.175781 19.070312 C 10.222656 19.101562 10.273438 19.117188 10.332031 19.125 C 10.351562 19.128906 10.402344 19.128906 10.421875 19.125 C 10.527344 19.109375 10.617188 19.054688 10.675781 18.96875 C 10.703125 18.921875 10.722656 18.875 10.730469 18.820312 C 10.734375 18.800781 10.734375 18.757812 10.730469 18.734375 C 10.726562 18.65625 10.691406 18.578125 10.632812 18.519531 C 10.578125 18.460938 10.503906 18.425781 10.425781 18.410156 C 10.410156 18.410156 10.355469 18.410156 10.34375 18.410156 Z M 10.34375 18.410156 "/>
<path style=" stroke:none;fill-rule:nonzero;fill:rgb(0%,0%,0%);fill-opacity:1;" d="M 11.542969 18.410156 C 11.492188 18.414062 11.453125 18.425781 11.414062 18.445312 C 11.378906 18.460938 11.351562 18.480469 11.320312 18.507812 C 11.257812 18.570312 11.222656 18.648438 11.214844 18.734375 C 11.210938 18.757812 11.210938 18.804688 11.214844 18.824219 C 11.222656 18.863281 11.230469 18.894531 11.25 18.925781 C 11.269531 18.972656 11.296875 19.007812 11.332031 19.039062 C 11.414062 19.109375 11.515625 19.136719 11.621094 19.125 C 11.671875 19.117188 11.726562 19.097656 11.769531 19.070312 C 11.878906 18.996094 11.9375 18.875 11.929688 18.746094 C 11.925781 18.675781 11.902344 18.609375 11.859375 18.550781 C 11.84375 18.535156 11.816406 18.503906 11.796875 18.488281 C 11.746094 18.449219 11.6875 18.421875 11.625 18.414062 C 11.609375 18.410156 11.554688 18.40625 11.542969 18.410156 Z M 11.542969 18.410156 "/>
<path style=" stroke:none;fill-rule:nonzero;fill:rgb(0%,0%,0%);fill-opacity:1;" d="M 12.738281 18.410156 C 12.714844 18.414062 12.707031 18.414062 12.695312 18.414062 C 12.640625 18.425781 12.585938 18.453125 12.542969 18.488281 C 12.527344 18.5 12.5 18.527344 12.488281 18.542969 C 12.445312 18.59375 12.421875 18.652344 12.410156 18.71875 C 12.410156 18.738281 12.410156 18.792969 12.410156 18.8125 C 12.421875 18.894531 12.457031 18.964844 12.515625 19.023438 C 12.542969 19.050781 12.570312 19.074219 12.609375 19.089844 C 12.644531 19.109375 12.675781 19.117188 12.714844 19.125 C 12.746094 19.128906 12.792969 19.128906 12.820312 19.125 C 12.859375 19.117188 12.890625 19.109375 12.929688 19.089844 C 12.964844 19.074219 12.992188 19.050781 13.023438 19.023438 C 13.078125 18.964844 13.113281 18.894531 13.125 18.8125 C 13.128906 18.792969 13.128906 18.738281 13.125 18.71875 C 13.105469 18.601562 13.039062 18.503906 12.933594 18.449219 C 12.898438 18.429688 12.863281 18.417969 12.820312 18.414062 C 12.804688 18.410156 12.75 18.40625 12.738281 18.410156 Z M 12.738281 18.410156 "/>
<path style=" stroke:none;fill-rule:nonzero;fill:rgb(0%,0%,0%);fill-opacity:1;" d="M 13.933594 18.410156 C 13.902344 18.414062 13.875 18.417969 13.851562 18.425781 C 13.761719 18.457031 13.683594 18.523438 13.644531 18.609375 C 13.585938 18.722656 13.59375 18.863281 13.664062 18.964844 C 13.75 19.09375 13.902344 19.15625 14.054688 19.117188 C 14.15625 19.089844 14.242188 19.023438 14.289062 18.925781 C 14.304688 18.894531 14.316406 18.863281 14.320312 18.824219 C 14.324219 18.804688 14.324219 18.757812 14.324219 18.734375 C 14.316406 18.648438 14.277344 18.570312 14.214844 18.507812 C 14.160156 18.457031 14.09375 18.421875 14.015625 18.410156 C 14.003906 18.410156 13.945312 18.410156 13.933594 18.410156 Z M 13.933594 18.410156 "/>
<path style=" stroke:none;fill-rule:nonzero;fill:rgb(0%,0%,0%);fill-opacity:1;" d="M 15.132812 18.410156 C 15.132812 18.410156 15.125 18.410156 15.117188 18.410156 C 15.082031 18.414062 15.039062 18.429688 15.003906 18.445312 C 14.964844 18.464844 14.9375 18.484375 14.910156 18.515625 C 14.878906 18.542969 14.859375 18.574219 14.839844 18.613281 C 14.824219 18.644531 14.8125 18.679688 14.804688 18.714844 C 14.804688 18.738281 14.804688 18.796875 14.804688 18.816406 C 14.8125 18.863281 14.824219 18.898438 14.84375 18.9375 C 14.886719 19.019531 14.964844 19.082031 15.050781 19.109375 C 15.070312 19.117188 15.09375 19.121094 15.117188 19.125 C 15.136719 19.128906 15.1875 19.128906 15.207031 19.125 C 15.265625 19.117188 15.3125 19.101562 15.363281 19.066406 C 15.480469 18.988281 15.542969 18.847656 15.515625 18.707031 C 15.5 18.59375 15.421875 18.492188 15.316406 18.441406 C 15.285156 18.429688 15.25 18.417969 15.214844 18.414062 C 15.199219 18.410156 15.144531 18.40625 15.132812 18.410156 Z M 15.132812 18.410156 "/>
</g>
</svg>
