<?xml version="1.0" encoding="UTF-8"?>
<svg xmlns="http://www.w3.org/2000/svg" xmlns:xlink="http://www.w3.org/1999/xlink" viewBox="0 0 24 24" version="1.1">
<g>
<path style=" stroke:none;fill-rule:nonzero;fill:rgb(0%,0%,0%);fill-opacity:1;" d="M 5.113281 3.242188 C 4.683594 3.257812 4.273438 3.367188 3.898438 3.570312 C 3.585938 3.738281 3.304688 3.96875 3.074219 4.25 C 2.796875 4.59375 2.601562 5.003906 2.515625 5.4375 C 2.480469 5.597656 2.464844 5.746094 2.460938 5.914062 C 2.460938 5.988281 2.460938 19.125 2.460938 19.195312 C 2.464844 19.296875 2.46875 19.378906 2.480469 19.472656 C 2.546875 20.007812 2.769531 20.503906 3.121094 20.914062 C 3.203125 21.011719 3.308594 21.117188 3.402344 21.199219 C 3.726562 21.480469 4.105469 21.679688 4.515625 21.785156 C 4.652344 21.820312 4.796875 21.84375 4.933594 21.855469 C 5.011719 21.863281 5.0625 21.867188 5.148438 21.871094 C 5.230469 21.871094 18.316406 21.871094 18.402344 21.871094 C 18.492188 21.867188 18.566406 21.863281 18.648438 21.855469 C 19.070312 21.808594 19.472656 21.664062 19.828125 21.4375 C 20.039062 21.304688 20.230469 21.136719 20.394531 20.953125 C 20.605469 20.714844 20.777344 20.441406 20.894531 20.144531 C 21.011719 19.855469 21.074219 19.546875 21.085938 19.226562 C 21.089844 19.199219 21.089844 17.859375 21.089844 15.324219 L 21.089844 11.460938 L 19.992188 11.460938 L 19.992188 15.332031 C 19.992188 18.339844 19.992188 19.210938 19.988281 19.226562 C 19.984375 19.300781 19.976562 19.347656 19.96875 19.402344 C 19.921875 19.6875 19.796875 19.957031 19.613281 20.179688 C 19.550781 20.253906 19.472656 20.332031 19.398438 20.394531 C 19.273438 20.5 19.128906 20.585938 18.976562 20.648438 C 18.800781 20.722656 18.617188 20.761719 18.421875 20.769531 C 18.398438 20.773438 16.546875 20.773438 11.753906 20.773438 C 5.472656 20.773438 5.113281 20.773438 5.085938 20.769531 C 5.070312 20.769531 5.046875 20.765625 5.035156 20.765625 C 4.726562 20.734375 4.4375 20.617188 4.191406 20.425781 C 4.136719 20.382812 4.097656 20.351562 4.039062 20.292969 C 3.980469 20.234375 3.945312 20.195312 3.902344 20.136719 C 3.695312 19.867188 3.578125 19.554688 3.558594 19.210938 C 3.558594 19.171875 3.558594 5.9375 3.558594 5.898438 C 3.582031 5.492188 3.746094 5.117188 4.03125 4.828125 C 4.242188 4.613281 4.503906 4.460938 4.796875 4.386719 C 4.90625 4.359375 5.015625 4.34375 5.132812 4.339844 C 5.152344 4.339844 6.449219 4.339844 9.015625 4.339844 L 12.871094 4.339844 L 12.871094 3.242188 L 8.996094 3.242188 C 6.867188 3.242188 5.117188 3.242188 5.113281 3.242188 Z M 5.113281 3.242188 "/>
<path style=" stroke:none;fill-rule:nonzero;fill:rgb(0%,0%,0%);fill-opacity:1;" d="M 15.140625 8.410156 L 10.679688 12.875 L 10.679688 7.625 L 9.582031 7.625 L 9.582031 10.664062 C 9.582031 13.09375 9.582031 13.710938 9.585938 13.726562 C 9.589844 13.78125 9.59375 13.824219 9.605469 13.867188 C 9.648438 14.09375 9.769531 14.304688 9.941406 14.460938 C 10.089844 14.597656 10.273438 14.6875 10.46875 14.726562 C 10.511719 14.734375 10.546875 14.742188 10.605469 14.746094 C 10.621094 14.746094 11.355469 14.746094 13.664062 14.746094 L 16.707031 14.75 L 16.707031 13.648438 L 11.457031 13.648438 L 20.378906 4.726562 L 19.992188 4.335938 L 19.605469 3.949219 Z M 15.140625 8.410156 "/>
</g>
</svg>
