<?xml version="1.0" encoding="UTF-8"?>
<svg xmlns="http://www.w3.org/2000/svg" xmlns:xlink="http://www.w3.org/1999/xlink" viewBox="0 0 24 24" version="1.1">
<g>
<path style=" stroke:none;fill-rule:nonzero;fill:rgb(0%,0%,0%);fill-opacity:1;" d="M 13.191406 2.679688 C 13.132812 2.679688 13.085938 2.683594 13.023438 2.6875 C 12.347656 2.722656 11.695312 2.910156 11.101562 3.234375 C 10.894531 3.34375 10.695312 3.472656 10.511719 3.613281 C 9.847656 4.121094 9.332031 4.796875 9.027344 5.566406 C 9.003906 5.617188 8.984375 5.675781 8.972656 5.703125 C 8.972656 5.710938 8.96875 5.714844 8.96875 5.714844 C 8.96875 5.714844 8.949219 5.710938 8.929688 5.707031 C 8.664062 5.625 8.40625 5.578125 8.144531 5.5625 C 8.074219 5.558594 8.046875 5.558594 7.960938 5.554688 C 7.828125 5.554688 7.734375 5.558594 7.613281 5.570312 C 7.136719 5.613281 6.671875 5.757812 6.253906 5.996094 C 5.949219 6.171875 5.667969 6.398438 5.425781 6.660156 C 5.238281 6.863281 5.074219 7.09375 4.941406 7.34375 C 4.917969 7.382812 4.867188 7.488281 4.847656 7.527344 C 4.742188 7.761719 4.664062 7.992188 4.613281 8.238281 C 4.601562 8.273438 4.589844 8.351562 4.589844 8.355469 C 4.589844 8.359375 4.585938 8.359375 4.582031 8.359375 C 3.960938 8.523438 3.386719 8.820312 2.914062 9.238281 C 2.839844 9.296875 2.792969 9.34375 2.71875 9.417969 C 2.605469 9.53125 2.527344 9.617188 2.433594 9.734375 C 1.945312 10.347656 1.652344 11.085938 1.578125 11.882812 C 1.566406 12.019531 1.5625 12.132812 1.5625 12.277344 C 1.5625 12.40625 1.566406 12.5 1.578125 12.625 C 1.628906 13.21875 1.824219 13.804688 2.140625 14.328125 C 2.304688 14.597656 2.492188 14.847656 2.714844 15.078125 C 3.160156 15.539062 3.695312 15.886719 4.285156 16.097656 C 4.636719 16.222656 5.007812 16.296875 5.375 16.320312 C 5.449219 16.324219 5.476562 16.324219 5.554688 16.324219 C 5.644531 16.328125 5.664062 16.324219 5.707031 16.316406 C 5.933594 16.28125 6.117188 16.109375 6.171875 15.886719 C 6.179688 15.84375 6.183594 15.808594 6.1875 15.761719 C 6.191406 15.625 6.144531 15.488281 6.054688 15.378906 C 6.039062 15.359375 6 15.320312 5.984375 15.304688 C 5.894531 15.234375 5.796875 15.1875 5.683594 15.175781 C 5.667969 15.171875 5.644531 15.171875 5.578125 15.167969 C 5.449219 15.167969 5.367188 15.160156 5.265625 15.148438 C 4.710938 15.078125 4.183594 14.839844 3.746094 14.460938 C 3.644531 14.375 3.539062 14.265625 3.449219 14.167969 C 3.046875 13.710938 2.796875 13.152344 2.734375 12.570312 C 2.714844 12.394531 2.714844 12.214844 2.730469 12.019531 C 2.777344 11.433594 2.984375 10.894531 3.335938 10.453125 C 3.550781 10.183594 3.824219 9.953125 4.136719 9.777344 C 4.222656 9.726562 4.332031 9.671875 4.429688 9.628906 C 4.667969 9.527344 4.929688 9.453125 5.1875 9.417969 C 5.199219 9.414062 5.21875 9.410156 5.226562 9.410156 C 5.441406 9.367188 5.609375 9.214844 5.671875 9.003906 C 5.683594 8.957031 5.691406 8.914062 5.691406 8.855469 C 5.695312 8.710938 5.71875 8.546875 5.757812 8.394531 C 5.871094 7.960938 6.105469 7.574219 6.449219 7.273438 C 6.699219 7.046875 7.003906 6.882812 7.328125 6.792969 C 7.644531 6.707031 7.980469 6.6875 8.304688 6.742188 C 8.570312 6.789062 8.804688 6.871094 9.042969 7.007812 C 9.121094 7.054688 9.183594 7.078125 9.261719 7.089844 C 9.308594 7.09375 9.375 7.097656 9.417969 7.089844 C 9.539062 7.074219 9.640625 7.027344 9.730469 6.949219 C 9.828125 6.863281 9.898438 6.738281 9.917969 6.609375 C 9.925781 6.570312 9.9375 6.5 9.957031 6.429688 C 10.042969 6.082031 10.1875 5.746094 10.378906 5.4375 C 10.640625 5.027344 10.984375 4.675781 11.390625 4.40625 C 12.019531 3.988281 12.757812 3.792969 13.511719 3.84375 C 14.167969 3.886719 14.796875 4.117188 15.328125 4.511719 C 15.707031 4.792969 16.023438 5.152344 16.257812 5.566406 C 16.503906 5.992188 16.652344 6.464844 16.695312 6.953125 C 16.707031 7.066406 16.710938 7.148438 16.710938 7.277344 C 16.710938 7.410156 16.707031 7.476562 16.695312 7.605469 C 16.6875 7.683594 16.691406 7.75 16.707031 7.820312 C 16.734375 7.917969 16.785156 8.011719 16.859375 8.085938 C 16.949219 8.171875 17.054688 8.226562 17.175781 8.246094 C 17.214844 8.253906 17.226562 8.253906 17.324219 8.25 C 17.332031 8.25 17.355469 8.25 17.378906 8.246094 C 17.484375 8.234375 17.503906 8.234375 17.664062 8.234375 C 17.8125 8.234375 17.863281 8.234375 17.96875 8.242188 C 18.703125 8.300781 19.390625 8.585938 19.949219 9.0625 C 20.023438 9.128906 20.070312 9.171875 20.148438 9.25 C 20.253906 9.355469 20.332031 9.445312 20.421875 9.554688 C 20.839844 10.085938 21.089844 10.71875 21.148438 11.390625 C 21.160156 11.496094 21.164062 11.585938 21.164062 11.703125 C 21.164062 11.839844 21.15625 11.957031 21.140625 12.089844 C 21.042969 12.976562 20.605469 13.789062 19.917969 14.363281 C 19.46875 14.738281 18.9375 14.992188 18.367188 15.105469 C 18.222656 15.132812 18.066406 15.152344 17.917969 15.164062 C 17.859375 15.167969 17.824219 15.167969 17.734375 15.167969 C 17.636719 15.171875 17.621094 15.171875 17.582031 15.179688 C 17.457031 15.207031 17.34375 15.269531 17.261719 15.367188 C 17.183594 15.453125 17.132812 15.5625 17.121094 15.679688 C 17.117188 15.707031 17.117188 15.761719 17.117188 15.789062 C 17.125 15.867188 17.144531 15.9375 17.175781 16.003906 C 17.246094 16.140625 17.363281 16.246094 17.507812 16.296875 C 17.550781 16.308594 17.59375 16.320312 17.640625 16.324219 C 17.679688 16.328125 17.808594 16.328125 17.921875 16.320312 C 18.476562 16.292969 19.019531 16.167969 19.53125 15.949219 C 20 15.746094 20.441406 15.460938 20.820312 15.113281 C 20.917969 15.027344 21.027344 14.914062 21.113281 14.820312 C 21.464844 14.433594 21.746094 13.996094 21.949219 13.519531 C 22.164062 13.023438 22.285156 12.492188 22.3125 11.949219 C 22.320312 11.796875 22.324219 11.628906 22.316406 11.484375 C 22.28125 10.765625 22.085938 10.074219 21.738281 9.449219 C 21.449219 8.929688 21.058594 8.46875 20.59375 8.09375 C 19.824219 7.476562 18.886719 7.125 17.902344 7.082031 C 17.882812 7.078125 17.863281 7.078125 17.863281 7.078125 C 17.863281 7.078125 17.863281 7.066406 17.863281 7.050781 C 17.816406 6.027344 17.429688 5.058594 16.761719 4.277344 C 16.640625 4.136719 16.496094 3.988281 16.355469 3.863281 C 15.578125 3.15625 14.585938 2.742188 13.542969 2.6875 C 13.476562 2.683594 13.4375 2.679688 13.363281 2.679688 C 13.285156 2.679688 13.277344 2.679688 13.191406 2.679688 Z M 13.191406 2.679688 "/>
<path style=" stroke:none;fill-rule:nonzero;fill:rgb(0%,0%,0%);fill-opacity:1;" d="M 11.910156 11.246094 C 11.867188 11.246094 11.835938 11.253906 11.800781 11.261719 C 11.617188 11.304688 11.464844 11.441406 11.398438 11.625 C 11.382812 11.667969 11.371094 11.710938 11.367188 11.761719 C 11.363281 11.78125 11.363281 11.949219 11.363281 15.375 L 11.363281 18.96875 L 10.410156 18.015625 C 9.605469 17.210938 9.453125 17.0625 9.4375 17.046875 C 9.363281 16.988281 9.28125 16.949219 9.191406 16.933594 C 9.089844 16.914062 8.988281 16.917969 8.890625 16.949219 C 8.757812 16.996094 8.648438 17.085938 8.578125 17.207031 C 8.566406 17.226562 8.546875 17.261719 8.539062 17.28125 C 8.503906 17.375 8.488281 17.480469 8.503906 17.582031 C 8.519531 17.6875 8.5625 17.785156 8.632812 17.871094 C 8.644531 17.886719 9.039062 18.28125 10.089844 19.332031 C 10.882812 20.125 11.542969 20.78125 11.554688 20.792969 C 11.574219 20.8125 11.578125 20.816406 11.601562 20.832031 C 11.609375 20.839844 11.621094 20.84375 11.625 20.847656 C 11.640625 20.863281 11.695312 20.890625 11.726562 20.902344 C 11.769531 20.917969 11.816406 20.929688 11.867188 20.9375 C 11.898438 20.941406 11.964844 20.941406 11.996094 20.9375 C 12.054688 20.933594 12.109375 20.921875 12.15625 20.902344 C 12.179688 20.894531 12.210938 20.878906 12.226562 20.867188 C 12.234375 20.863281 12.242188 20.859375 12.246094 20.855469 C 12.25 20.855469 12.257812 20.851562 12.257812 20.847656 C 12.261719 20.847656 12.269531 20.839844 12.277344 20.835938 C 12.292969 20.824219 12.300781 20.816406 12.316406 20.804688 C 12.332031 20.792969 15.21875 17.90625 15.238281 17.886719 C 15.273438 17.84375 15.304688 17.796875 15.328125 17.75 C 15.355469 17.6875 15.375 17.621094 15.382812 17.550781 C 15.382812 17.523438 15.382812 17.457031 15.378906 17.429688 C 15.367188 17.320312 15.324219 17.222656 15.257812 17.136719 C 15.238281 17.113281 15.191406 17.066406 15.167969 17.046875 C 15.027344 16.933594 14.84375 16.894531 14.664062 16.9375 C 14.574219 16.960938 14.492188 17.003906 14.417969 17.070312 C 14.410156 17.078125 13.980469 17.507812 13.460938 18.027344 L 12.519531 18.96875 L 12.519531 15.371094 C 12.519531 11.984375 12.519531 11.773438 12.515625 11.757812 C 12.503906 11.664062 12.476562 11.589844 12.433594 11.519531 C 12.351562 11.382812 12.210938 11.285156 12.054688 11.253906 C 12.007812 11.246094 11.949219 11.242188 11.910156 11.246094 Z M 11.910156 11.246094 "/>
</g>
</svg>
