<?xml version="1.0" encoding="UTF-8"?>
<svg xmlns="http://www.w3.org/2000/svg" xmlns:xlink="http://www.w3.org/1999/xlink" viewBox="0 0 24 24" version="1.1">
<g>
<path style=" stroke:none;fill-rule:nonzero;fill:rgb(0%,0%,0%);fill-opacity:1;" d="M 11.789062 2.582031 C 11.546875 2.597656 11.335938 2.75 11.25 2.980469 C 11.234375 3.023438 11.222656 3.066406 11.214844 3.121094 C 11.214844 3.136719 11.214844 3.398438 11.214844 7.796875 L 11.210938 12.453125 L 9.929688 11.167969 C 9.222656 10.460938 8.636719 9.875 8.628906 9.867188 C 8.527344 9.777344 8.402344 9.726562 8.265625 9.714844 C 8.238281 9.710938 8.175781 9.714844 8.152344 9.714844 C 8.109375 9.722656 8.066406 9.730469 8.03125 9.742188 C 7.824219 9.8125 7.667969 9.984375 7.625 10.195312 C 7.617188 10.246094 7.617188 10.261719 7.617188 10.320312 C 7.617188 10.367188 7.617188 10.375 7.617188 10.398438 C 7.636719 10.519531 7.683594 10.625 7.761719 10.714844 C 7.769531 10.726562 8.597656 11.554688 9.601562 12.558594 C 10.984375 13.941406 11.429688 14.386719 11.4375 14.390625 C 11.445312 14.398438 11.453125 14.402344 11.457031 14.40625 C 11.460938 14.410156 11.46875 14.414062 11.472656 14.417969 C 11.476562 14.421875 11.480469 14.425781 11.480469 14.425781 C 11.480469 14.425781 11.488281 14.429688 11.492188 14.433594 C 11.5 14.4375 11.511719 14.445312 11.523438 14.449219 C 11.589844 14.488281 11.664062 14.515625 11.746094 14.523438 C 11.777344 14.527344 11.84375 14.53125 11.875 14.527344 C 11.964844 14.519531 12.042969 14.492188 12.121094 14.449219 C 12.132812 14.441406 12.144531 14.4375 12.148438 14.433594 C 12.152344 14.429688 12.160156 14.425781 12.164062 14.421875 C 12.167969 14.417969 12.171875 14.414062 12.179688 14.410156 C 12.195312 14.398438 12.203125 14.394531 12.214844 14.386719 C 12.226562 14.375 15.863281 10.738281 15.878906 10.71875 C 15.945312 10.644531 15.984375 10.566406 16.007812 10.476562 C 16.023438 10.421875 16.027344 10.378906 16.027344 10.320312 C 16.027344 10.257812 16.019531 10.210938 16.003906 10.152344 C 15.96875 10.015625 15.878906 9.898438 15.765625 9.820312 C 15.679688 9.761719 15.589844 9.730469 15.488281 9.714844 C 15.460938 9.710938 15.382812 9.710938 15.351562 9.714844 C 15.222656 9.730469 15.109375 9.78125 15.011719 9.867188 C 15.003906 9.875 14.417969 10.460938 13.714844 11.167969 L 12.429688 12.453125 L 12.429688 7.792969 L 12.425781 3.136719 L 12.425781 3.113281 C 12.417969 3.066406 12.410156 3.03125 12.394531 2.992188 C 12.332031 2.804688 12.179688 2.660156 11.992188 2.605469 C 11.929688 2.589844 11.855469 2.578125 11.789062 2.582031 Z M 11.789062 2.582031 "/>
<path style=" stroke:none;fill-rule:nonzero;fill:rgb(0%,0%,0%);fill-opacity:1;" d="M 3.117188 13.609375 C 2.925781 13.621094 2.75 13.71875 2.644531 13.878906 C 2.597656 13.949219 2.570312 14.015625 2.554688 14.097656 C 2.546875 14.125 2.546875 14.148438 2.542969 14.179688 C 2.542969 14.214844 2.542969 17.734375 2.546875 17.773438 C 2.550781 17.867188 2.554688 17.910156 2.5625 17.96875 C 2.625 18.542969 2.863281 19.082031 3.246094 19.515625 C 3.324219 19.605469 3.417969 19.699219 3.507812 19.777344 C 3.640625 19.894531 3.789062 20 3.941406 20.09375 C 4.1875 20.238281 4.457031 20.34375 4.730469 20.40625 C 4.902344 20.449219 5.058594 20.46875 5.253906 20.480469 C 5.304688 20.484375 18.339844 20.484375 18.390625 20.480469 C 18.4375 20.476562 18.484375 20.476562 18.519531 20.472656 C 18.871094 20.441406 19.21875 20.339844 19.535156 20.183594 C 19.851562 20.023438 20.132812 19.804688 20.375 19.539062 C 20.609375 19.277344 20.796875 18.96875 20.921875 18.640625 C 21.03125 18.347656 21.089844 18.050781 21.097656 17.734375 C 21.101562 17.671875 21.101562 14.203125 21.097656 14.175781 C 21.089844 14.050781 21.046875 13.933594 20.96875 13.835938 C 20.949219 13.8125 20.898438 13.761719 20.875 13.742188 C 20.851562 13.726562 20.8125 13.699219 20.789062 13.6875 C 20.640625 13.605469 20.464844 13.585938 20.300781 13.640625 C 20.144531 13.691406 20.015625 13.808594 19.945312 13.953125 C 19.914062 14.019531 19.898438 14.074219 19.886719 14.152344 C 19.882812 14.171875 19.882812 14.296875 19.882812 15.953125 C 19.882812 16.933594 19.882812 17.738281 19.882812 17.738281 C 19.882812 17.742188 19.878906 17.753906 19.878906 17.765625 C 19.875 17.816406 19.867188 17.882812 19.859375 17.9375 C 19.804688 18.222656 19.679688 18.484375 19.488281 18.703125 C 19.4375 18.761719 19.375 18.828125 19.316406 18.878906 C 19.074219 19.085938 18.777344 19.214844 18.464844 19.253906 C 18.433594 19.257812 18.40625 19.261719 18.367188 19.265625 C 18.328125 19.265625 5.3125 19.265625 5.277344 19.265625 C 5.054688 19.25 4.855469 19.195312 4.664062 19.101562 C 4.367188 18.953125 4.125 18.722656 3.960938 18.429688 C 3.839844 18.210938 3.773438 17.972656 3.761719 17.722656 C 3.757812 17.703125 3.757812 17.109375 3.757812 15.949219 C 3.757812 14.785156 3.757812 14.195312 3.757812 14.179688 C 3.742188 13.960938 3.613281 13.765625 3.414062 13.671875 C 3.324219 13.625 3.222656 13.605469 3.117188 13.609375 Z M 3.117188 13.609375 "/>
</g>
</svg>
