<?xml version="1.0" encoding="UTF-8"?>
<svg xmlns="http://www.w3.org/2000/svg" xmlns:xlink="http://www.w3.org/1999/xlink" viewBox="0 0 24 24" version="1.1">
<g>
<path style=" stroke:none;fill-rule:nonzero;fill:rgb(0%,0%,0%);fill-opacity:1;" d="M 12.617188 3.558594 C 12.542969 3.566406 12.476562 3.597656 12.429688 3.648438 C 12.421875 3.652344 12.414062 3.664062 12.40625 3.671875 C 12.402344 3.679688 11.523438 5.1875 10.285156 7.304688 C 7.40625 12.242188 7.488281 12.097656 7.460938 12.148438 C 7.355469 12.335938 7.265625 12.527344 7.179688 12.722656 C 6.921875 13.335938 6.769531 13.992188 6.722656 14.660156 C 6.714844 14.8125 6.710938 14.9375 6.710938 15.101562 C 6.714844 15.207031 6.714844 15.246094 6.71875 15.328125 C 6.757812 16.261719 7.015625 17.175781 7.464844 17.984375 C 7.835938 18.652344 8.328125 19.234375 8.921875 19.707031 C 9.242188 19.964844 9.578125 20.179688 9.949219 20.363281 C 10.246094 20.515625 10.535156 20.628906 10.863281 20.730469 C 11.3125 20.871094 11.796875 20.957031 12.277344 20.984375 C 12.410156 20.992188 12.484375 20.996094 12.640625 20.996094 C 12.796875 20.996094 12.855469 20.992188 12.980469 20.988281 C 13.699219 20.949219 14.40625 20.78125 15.058594 20.496094 C 15.214844 20.425781 15.378906 20.347656 15.523438 20.265625 C 16.085938 19.960938 16.589844 19.566406 17.023438 19.089844 C 17.519531 18.546875 17.910156 17.910156 18.175781 17.214844 C 18.488281 16.394531 18.621094 15.503906 18.558594 14.628906 C 18.5 13.769531 18.257812 12.945312 17.847656 12.195312 C 17.8125 12.132812 17.761719 12.039062 17.589844 11.742188 C 17.242188 11.136719 16.964844 10.664062 16.195312 9.355469 C 15.464844 8.113281 15.3125 7.84375 14.65625 6.710938 C 14.09375 5.730469 13.851562 5.3125 13.566406 4.824219 C 13.359375 4.476562 13.128906 4.09375 12.953125 3.804688 C 12.941406 3.78125 12.921875 3.75 12.910156 3.730469 C 12.878906 3.675781 12.871094 3.667969 12.851562 3.644531 C 12.804688 3.597656 12.746094 3.566406 12.675781 3.558594 C 12.660156 3.558594 12.628906 3.558594 12.617188 3.558594 Z M 13.394531 5.710938 C 13.808594 6.417969 14.277344 7.222656 14.441406 7.503906 C 15.199219 8.800781 15.664062 9.59375 16.363281 10.796875 C 16.78125 11.507812 17.136719 12.117188 17.152344 12.148438 C 17.492188 12.738281 17.714844 13.25 17.847656 13.753906 C 17.945312 14.101562 18 14.457031 18.015625 14.824219 C 18.019531 14.957031 18.019531 15.136719 18.015625 15.269531 C 17.988281 15.859375 17.863281 16.449219 17.644531 17.007812 C 17.539062 17.28125 17.40625 17.550781 17.257812 17.800781 C 16.8125 18.558594 16.179688 19.191406 15.410156 19.652344 C 14.640625 20.113281 13.761719 20.378906 12.863281 20.425781 C 12.765625 20.429688 12.730469 20.429688 12.59375 20.429688 C 12.460938 20.429688 12.425781 20.429688 12.339844 20.425781 C 11.597656 20.386719 10.894531 20.203125 10.242188 19.878906 C 9.859375 19.683594 9.507812 19.449219 9.179688 19.167969 C 9.070312 19.074219 8.992188 19.003906 8.878906 18.890625 C 8.785156 18.796875 8.738281 18.742188 8.664062 18.660156 C 8.308594 18.261719 8.011719 17.8125 7.785156 17.324219 C 7.414062 16.523438 7.242188 15.652344 7.28125 14.785156 C 7.308594 14.171875 7.445312 13.570312 7.679688 13.011719 C 7.757812 12.824219 7.851562 12.636719 7.957031 12.445312 C 7.972656 12.417969 8.96875 10.710938 10.171875 8.648438 C 11.375 6.589844 12.421875 4.792969 12.5 4.660156 L 12.640625 4.417969 L 12.644531 4.421875 C 12.644531 4.425781 12.984375 5.003906 13.394531 5.710938 Z M 13.394531 5.710938 "/>
<path style=" stroke:none;fill-rule:nonzero;fill:rgb(0%,0%,0%);fill-opacity:1;" d="M 16.730469 13.757812 C 16.691406 13.761719 16.648438 13.773438 16.617188 13.789062 C 16.554688 13.820312 16.515625 13.871094 16.5 13.941406 C 16.496094 13.964844 16.492188 14.003906 16.496094 14.03125 C 16.515625 14.183594 16.523438 14.296875 16.53125 14.425781 C 16.550781 14.933594 16.488281 15.449219 16.339844 15.9375 C 16.148438 16.582031 15.820312 17.183594 15.363281 17.714844 C 15.273438 17.820312 15.199219 17.898438 15.089844 18.007812 C 14.972656 18.125 14.878906 18.214844 14.75 18.320312 C 14.710938 18.355469 14.691406 18.371094 14.679688 18.386719 C 14.65625 18.417969 14.640625 18.449219 14.632812 18.484375 C 14.632812 18.496094 14.632812 18.503906 14.632812 18.53125 C 14.632812 18.558594 14.632812 18.5625 14.632812 18.574219 C 14.65625 18.667969 14.726562 18.75 14.820312 18.792969 C 14.898438 18.828125 14.988281 18.828125 15.0625 18.796875 C 15.09375 18.78125 15.113281 18.769531 15.152344 18.734375 C 15.339844 18.578125 15.53125 18.394531 15.703125 18.210938 C 16.128906 17.738281 16.472656 17.203125 16.710938 16.628906 C 16.941406 16.078125 17.074219 15.5 17.105469 14.917969 C 17.113281 14.820312 17.113281 14.792969 17.113281 14.652344 C 17.113281 14.496094 17.109375 14.441406 17.101562 14.316406 C 17.09375 14.203125 17.078125 14.042969 17.070312 14.003906 C 17.0625 13.96875 17.046875 13.929688 17.027344 13.902344 C 16.972656 13.820312 16.878906 13.765625 16.773438 13.757812 C 16.753906 13.757812 16.75 13.757812 16.730469 13.757812 Z M 16.730469 13.757812 "/>
</g>
</svg>
