<?xml version="1.0" encoding="UTF-8"?>
<svg xmlns="http://www.w3.org/2000/svg" xmlns:xlink="http://www.w3.org/1999/xlink" viewBox="0 0 24 24" version="1.1">
<g>
<path style=" stroke:none;fill-rule:nonzero;fill:rgb(0%,0%,0%);fill-opacity:1;" d="M 2.890625 4.316406 C 2.6875 4.324219 2.488281 4.382812 2.3125 4.476562 C 2.070312 4.609375 1.875 4.8125 1.753906 5.058594 C 1.671875 5.21875 1.628906 5.378906 1.613281 5.566406 C 1.609375 5.597656 1.609375 17.847656 1.613281 17.882812 C 1.625 18.03125 1.65625 18.160156 1.707031 18.292969 C 1.808594 18.539062 1.984375 18.757812 2.207031 18.90625 C 2.394531 19.03125 2.601562 19.105469 2.824219 19.125 C 2.839844 19.128906 2.855469 19.128906 2.867188 19.128906 C 2.894531 19.132812 20.925781 19.132812 20.976562 19.132812 C 21.085938 19.125 21.183594 19.109375 21.285156 19.082031 C 21.539062 19.011719 21.769531 18.863281 21.941406 18.664062 C 22.089844 18.488281 22.191406 18.28125 22.238281 18.058594 C 22.25 17.992188 22.257812 17.933594 22.261719 17.859375 C 22.265625 17.816406 22.265625 5.628906 22.261719 5.585938 C 22.253906 5.429688 22.222656 5.296875 22.167969 5.160156 C 22.074219 4.925781 21.914062 4.71875 21.710938 4.570312 C 21.496094 4.417969 21.246094 4.328125 20.980469 4.316406 C 20.945312 4.3125 2.925781 4.3125 2.890625 4.316406 Z M 20.980469 5.21875 C 21.019531 5.222656 21.046875 5.230469 21.078125 5.242188 C 21.195312 5.289062 21.292969 5.382812 21.335938 5.503906 C 21.351562 5.542969 21.359375 5.585938 21.363281 5.628906 C 21.367188 5.65625 21.367188 17.792969 21.363281 17.816406 C 21.355469 17.949219 21.289062 18.066406 21.1875 18.144531 C 21.125 18.1875 21.058594 18.214844 20.980469 18.230469 L 2.894531 18.230469 C 2.84375 18.222656 2.796875 18.207031 2.753906 18.183594 C 2.710938 18.164062 2.660156 18.125 2.628906 18.089844 C 2.5625 18.015625 2.523438 17.933594 2.511719 17.832031 C 2.507812 17.808594 2.507812 5.636719 2.511719 5.613281 C 2.515625 5.566406 2.527344 5.523438 2.546875 5.484375 C 2.609375 5.335938 2.75 5.230469 2.914062 5.214844 C 2.917969 5.214844 6.832031 5.214844 11.945312 5.214844 L 20.964844 5.214844 Z M 20.980469 5.21875 "/>
<path style=" stroke:none;fill-rule:nonzero;fill:rgb(0%,0%,0%);fill-opacity:1;" d="M 3.40625 6.109375 L 3.085938 6.429688 L 6.261719 9.605469 C 8.011719 11.351562 9.453125 12.792969 9.46875 12.808594 C 10.074219 13.382812 10.851562 13.722656 11.679688 13.78125 C 11.820312 13.789062 11.984375 13.792969 12.125 13.785156 C 12.785156 13.75 13.425781 13.535156 13.96875 13.160156 C 14.128906 13.050781 14.265625 12.941406 14.417969 12.796875 C 14.449219 12.765625 20.785156 6.429688 20.785156 6.429688 C 20.785156 6.429688 20.644531 6.285156 20.46875 6.109375 L 20.152344 5.792969 L 16.96875 8.972656 C 15.21875 10.726562 13.773438 12.167969 13.761719 12.179688 C 13.726562 12.207031 13.703125 12.230469 13.679688 12.25 C 13.257812 12.609375 12.734375 12.828125 12.179688 12.878906 C 12.09375 12.886719 12.03125 12.890625 11.9375 12.890625 C 11.84375 12.890625 11.777344 12.886719 11.691406 12.878906 C 11.144531 12.828125 10.628906 12.617188 10.210938 12.261719 C 10.179688 12.238281 10.148438 12.210938 10.113281 12.179688 C 10.101562 12.167969 8.65625 10.722656 6.90625 8.972656 C 5.15625 7.222656 3.722656 5.792969 3.722656 5.792969 C 3.722656 5.792969 3.578125 5.933594 3.40625 6.109375 Z M 3.40625 6.109375 "/>
<path style=" stroke:none;fill-rule:nonzero;fill:rgb(0%,0%,0%);fill-opacity:1;" d="M 5.558594 14.546875 C 4.199219 15.90625 3.089844 17.019531 3.089844 17.019531 C 3.089844 17.019531 3.230469 17.164062 3.40625 17.335938 L 3.722656 17.65625 L 8.664062 12.714844 L 8.347656 12.398438 C 8.171875 12.222656 8.027344 12.078125 8.027344 12.078125 C 8.027344 12.078125 6.914062 13.191406 5.558594 14.546875 Z M 5.558594 14.546875 "/>
<path style=" stroke:none;fill-rule:nonzero;fill:rgb(0%,0%,0%);fill-opacity:1;" d="M 15.527344 12.398438 L 15.210938 12.714844 L 20.152344 17.65625 L 20.46875 17.335938 C 20.644531 17.164062 20.785156 17.019531 20.785156 17.019531 C 20.785156 17.015625 15.847656 12.078125 15.847656 12.078125 C 15.847656 12.078125 15.703125 12.222656 15.527344 12.398438 Z M 15.527344 12.398438 "/>
</g>
</svg>
