<?xml version="1.0" encoding="UTF-8"?>
<svg xmlns="http://www.w3.org/2000/svg" xmlns:xlink="http://www.w3.org/1999/xlink" viewBox="0 0 24 24" version="1.1">
<g>
<path style=" stroke:none;fill-rule:nonzero;fill:rgb(0%,0%,0%);fill-opacity:1;" d="M 12.523438 2.617188 C 12.457031 2.621094 12.394531 2.648438 12.34375 2.691406 C 12.308594 2.714844 12.199219 2.828125 12.105469 2.925781 C 11.652344 3.421875 11.273438 3.972656 11.039062 4.492188 C 10.894531 4.8125 10.800781 5.128906 10.757812 5.429688 C 10.730469 5.628906 10.726562 5.820312 10.742188 5.984375 C 10.777344 6.34375 10.925781 6.6875 11.164062 6.964844 C 11.222656 7.035156 11.296875 7.109375 11.363281 7.167969 C 11.578125 7.351562 11.835938 7.484375 12.113281 7.550781 C 12.390625 7.621094 12.6875 7.625 12.964844 7.5625 C 13.269531 7.496094 13.550781 7.351562 13.785156 7.148438 C 14.105469 6.863281 14.3125 6.476562 14.375 6.054688 C 14.386719 5.964844 14.390625 5.898438 14.390625 5.796875 C 14.390625 5.714844 14.390625 5.660156 14.382812 5.582031 C 14.351562 5.269531 14.253906 4.933594 14.09375 4.578125 C 13.878906 4.097656 13.546875 3.582031 13.128906 3.074219 C 13 2.917969 12.835938 2.734375 12.792969 2.699219 C 12.742188 2.65625 12.683594 2.628906 12.613281 2.617188 C 12.597656 2.613281 12.542969 2.613281 12.523438 2.617188 Z M 12.582031 3.53125 C 12.695312 3.667969 12.804688 3.808594 12.902344 3.949219 C 13.34375 4.566406 13.609375 5.140625 13.667969 5.605469 C 13.679688 5.71875 13.683594 5.820312 13.671875 5.910156 C 13.65625 6.085938 13.59375 6.253906 13.496094 6.398438 C 13.457031 6.460938 13.414062 6.511719 13.363281 6.5625 C 13.183594 6.742188 12.957031 6.855469 12.707031 6.886719 C 12.652344 6.890625 12.625 6.894531 12.5625 6.894531 C 12.488281 6.894531 12.4375 6.890625 12.371094 6.878906 C 12.089844 6.832031 11.832031 6.675781 11.664062 6.449219 C 11.550781 6.300781 11.480469 6.132812 11.457031 5.953125 C 11.445312 5.890625 11.445312 5.847656 11.445312 5.773438 C 11.445312 5.703125 11.449219 5.660156 11.457031 5.59375 C 11.496094 5.238281 11.632812 4.851562 11.867188 4.441406 C 12.039062 4.136719 12.265625 3.828125 12.523438 3.527344 C 12.550781 3.5 12.550781 3.496094 12.554688 3.5 C 12.554688 3.5 12.566406 3.515625 12.582031 3.53125 Z M 12.582031 3.53125 "/>
<path style=" stroke:none;fill-rule:nonzero;fill:rgb(0%,0%,0%);fill-opacity:1;" d="M 18.367188 3.433594 C 18.304688 3.441406 18.246094 3.460938 18.195312 3.492188 C 18.167969 3.515625 18.152344 3.527344 18.066406 3.609375 C 17.796875 3.878906 17.492188 4.222656 17.214844 4.5625 C 16.546875 5.402344 16.035156 6.257812 15.722656 7.074219 C 15.507812 7.640625 15.382812 8.191406 15.351562 8.71875 C 15.347656 8.804688 15.347656 8.835938 15.347656 8.949219 C 15.347656 9.082031 15.347656 9.136719 15.359375 9.242188 C 15.4375 10.078125 15.867188 10.839844 16.550781 11.351562 C 16.992188 11.6875 17.523438 11.890625 18.078125 11.949219 C 18.242188 11.964844 18.410156 11.96875 18.574219 11.957031 C 19.394531 11.910156 20.160156 11.539062 20.699219 10.925781 C 20.914062 10.679688 21.085938 10.402344 21.210938 10.105469 C 21.3125 9.867188 21.378906 9.613281 21.414062 9.359375 C 21.441406 9.152344 21.445312 8.953125 21.433594 8.722656 C 21.367188 7.703125 20.878906 6.515625 19.996094 5.222656 C 19.648438 4.714844 19.226562 4.179688 18.820312 3.730469 C 18.710938 3.605469 18.640625 3.53125 18.617188 3.511719 C 18.5625 3.46875 18.5 3.445312 18.433594 3.4375 C 18.414062 3.433594 18.382812 3.433594 18.367188 3.433594 Z M 18.425781 4.359375 C 18.613281 4.574219 18.808594 4.8125 18.992188 5.050781 C 19.515625 5.738281 19.941406 6.425781 20.234375 7.054688 C 20.523438 7.679688 20.6875 8.253906 20.722656 8.765625 C 20.730469 8.886719 20.730469 9.011719 20.722656 9.113281 C 20.699219 9.460938 20.597656 9.796875 20.421875 10.097656 C 20.339844 10.234375 20.25 10.355469 20.140625 10.476562 C 20.113281 10.511719 20.023438 10.601562 19.992188 10.628906 C 19.792969 10.8125 19.570312 10.957031 19.320312 11.0625 C 19.085938 11.164062 18.835938 11.226562 18.574219 11.246094 C 18.519531 11.25 18.5 11.25 18.417969 11.25 C 18.261719 11.253906 18.140625 11.242188 17.996094 11.21875 C 17.457031 11.128906 16.960938 10.851562 16.609375 10.4375 C 16.316406 10.09375 16.132812 9.683594 16.074219 9.242188 C 16.054688 9.089844 16.054688 8.929688 16.066406 8.734375 C 16.101562 8.167969 16.265625 7.558594 16.5625 6.921875 C 16.621094 6.792969 16.699219 6.640625 16.765625 6.511719 C 16.929688 6.207031 17.117188 5.902344 17.335938 5.59375 C 17.632812 5.167969 17.984375 4.734375 18.34375 4.347656 L 18.382812 4.308594 L 18.386719 4.3125 C 18.386719 4.3125 18.40625 4.335938 18.425781 4.359375 Z M 18.425781 4.359375 "/>
<path style=" stroke:none;fill-rule:nonzero;fill:rgb(0%,0%,0%);fill-opacity:1;" d="M 19.652344 8.464844 C 19.574219 8.46875 19.507812 8.496094 19.449219 8.542969 C 19.433594 8.558594 19.402344 8.585938 19.390625 8.601562 C 19.351562 8.65625 19.324219 8.722656 19.320312 8.785156 C 19.320312 8.792969 19.316406 8.824219 19.316406 8.847656 C 19.316406 8.898438 19.3125 8.925781 19.308594 8.96875 C 19.28125 9.144531 19.214844 9.308594 19.105469 9.453125 C 19.066406 9.507812 19.019531 9.558594 18.960938 9.609375 C 18.9375 9.628906 18.925781 9.644531 18.910156 9.664062 C 18.871094 9.714844 18.847656 9.769531 18.839844 9.835938 C 18.839844 9.855469 18.839844 9.898438 18.839844 9.917969 C 18.847656 9.980469 18.871094 10.042969 18.910156 10.09375 C 18.925781 10.113281 18.953125 10.140625 18.96875 10.15625 C 19.058594 10.226562 19.171875 10.25 19.28125 10.226562 C 19.320312 10.214844 19.359375 10.199219 19.394531 10.171875 C 19.441406 10.140625 19.546875 10.039062 19.617188 9.957031 C 19.789062 9.75 19.914062 9.507812 19.976562 9.25 C 20.011719 9.105469 20.03125 8.957031 20.03125 8.824219 C 20.027344 8.773438 20.027344 8.761719 20.019531 8.726562 C 20.007812 8.683594 19.984375 8.632812 19.953125 8.59375 C 19.9375 8.578125 19.914062 8.554688 19.898438 8.542969 C 19.871094 8.519531 19.832031 8.496094 19.800781 8.484375 C 19.753906 8.46875 19.699219 8.460938 19.652344 8.464844 Z M 19.652344 8.464844 "/>
<path style=" stroke:none;fill-rule:nonzero;fill:rgb(0%,0%,0%);fill-opacity:1;" d="M 13.925781 10.429688 C 13.65625 10.4375 13.332031 10.5 12.90625 10.625 C 12.738281 10.675781 12.605469 10.71875 12.28125 10.828125 C 12.003906 10.921875 11.9375 10.941406 11.785156 10.984375 C 11.613281 11.035156 11.476562 11.070312 11.117188 11.160156 C 10.863281 11.226562 10.769531 11.25 10.636719 11.285156 C 10.105469 11.429688 9.683594 11.566406 9.289062 11.722656 C 8.980469 11.847656 8.683594 11.984375 8.394531 12.136719 C 8.085938 12.304688 7.78125 12.488281 7.484375 12.695312 C 7.425781 12.734375 7.390625 12.757812 7.332031 12.789062 C 7.203125 12.851562 7.054688 12.90625 6.871094 12.949219 C 6.371094 13.074219 5.683594 13.121094 4.722656 13.101562 C 4.527344 13.097656 4.371094 13.09375 4.023438 13.082031 C 3.945312 13.078125 3.835938 13.078125 3.785156 13.074219 C 3.734375 13.074219 3.683594 13.070312 3.667969 13.070312 L 3.644531 13.070312 L 3.644531 12.996094 C 3.644531 12.925781 3.640625 12.90625 3.636719 12.863281 C 3.601562 12.582031 3.441406 12.332031 3.199219 12.183594 C 3.089844 12.113281 2.964844 12.070312 2.835938 12.050781 C 2.785156 12.042969 2.769531 12.042969 2.703125 12.042969 C 2.640625 12.042969 2.621094 12.042969 2.570312 12.050781 C 2.238281 12.097656 1.953125 12.320312 1.828125 12.632812 C 1.796875 12.71875 1.773438 12.804688 1.765625 12.902344 C 1.761719 12.925781 1.761719 13.089844 1.761719 16.753906 C 1.761719 20.410156 1.761719 20.582031 1.765625 20.605469 C 1.777344 20.738281 1.8125 20.859375 1.871094 20.96875 C 2.011719 21.230469 2.265625 21.410156 2.558594 21.457031 C 2.613281 21.464844 2.660156 21.46875 2.71875 21.464844 C 2.796875 21.464844 2.855469 21.457031 2.929688 21.441406 C 3.265625 21.355469 3.53125 21.089844 3.617188 20.753906 C 3.621094 20.734375 3.628906 20.699219 3.632812 20.683594 L 3.632812 20.679688 L 3.757812 20.679688 C 4.285156 20.679688 4.9375 20.6875 5.445312 20.703125 C 5.976562 20.722656 6.355469 20.742188 7.195312 20.792969 C 7.617188 20.820312 7.757812 20.828125 7.953125 20.839844 C 8.894531 20.890625 9.757812 20.917969 10.90625 20.925781 C 11.199219 20.925781 16.164062 20.925781 16.207031 20.925781 C 16.371094 20.917969 16.527344 20.886719 16.675781 20.828125 C 16.757812 20.796875 16.847656 20.753906 16.925781 20.707031 C 17.058594 20.621094 17.179688 20.511719 17.273438 20.386719 C 17.464844 20.132812 17.539062 19.820312 17.480469 19.515625 C 17.464844 19.429688 17.433594 19.339844 17.398438 19.265625 C 17.394531 19.257812 17.390625 19.25 17.386719 19.242188 L 17.382812 19.230469 L 17.78125 19.234375 C 18.1875 19.234375 18.25 19.234375 18.3125 19.230469 C 18.523438 19.214844 18.722656 19.160156 18.910156 19.066406 C 19.203125 18.921875 19.429688 18.695312 19.550781 18.417969 C 19.609375 18.292969 19.640625 18.164062 19.652344 18.023438 C 19.652344 17.992188 19.652344 17.898438 19.652344 17.867188 C 19.636719 17.6875 19.589844 17.523438 19.503906 17.371094 C 19.492188 17.355469 19.488281 17.34375 19.488281 17.34375 C 19.488281 17.34375 19.5 17.339844 19.519531 17.335938 C 19.894531 17.261719 20.226562 17.054688 20.429688 16.761719 C 20.511719 16.652344 20.570312 16.523438 20.605469 16.398438 C 20.664062 16.203125 20.664062 15.996094 20.617188 15.800781 C 20.570312 15.613281 20.480469 15.449219 20.34375 15.292969 C 20.324219 15.269531 20.253906 15.199219 20.230469 15.179688 C 20.054688 15.027344 19.855469 14.921875 19.625 14.859375 C 19.527344 14.832031 19.417969 14.8125 19.316406 14.808594 C 19.304688 14.808594 19.292969 14.804688 19.289062 14.804688 C 19.285156 14.804688 19.21875 14.804688 19.140625 14.804688 L 19 14.800781 L 19.007812 14.789062 C 19.011719 14.78125 19.019531 14.765625 19.027344 14.75 C 19.089844 14.625 19.132812 14.492188 19.148438 14.351562 C 19.152344 14.300781 19.15625 14.289062 19.15625 14.21875 C 19.15625 14.148438 19.152344 14.125 19.148438 14.074219 C 19.117188 13.828125 19.003906 13.597656 18.828125 13.410156 C 18.628906 13.195312 18.355469 13.042969 18.046875 12.976562 C 17.960938 12.957031 17.894531 12.949219 17.78125 12.941406 C 17.765625 12.941406 17.273438 12.9375 15.765625 12.9375 L 13.769531 12.9375 L 13.808594 12.917969 C 14.324219 12.640625 14.675781 12.367188 14.886719 12.085938 C 15.019531 11.90625 15.09375 11.722656 15.117188 11.539062 C 15.121094 11.496094 15.121094 11.472656 15.121094 11.425781 C 15.121094 11.316406 15.105469 11.21875 15.070312 11.113281 C 14.996094 10.886719 14.855469 10.707031 14.660156 10.589844 C 14.46875 10.472656 14.222656 10.417969 13.925781 10.429688 Z M 14.0625 11.140625 C 14.175781 11.148438 14.257812 11.171875 14.308594 11.210938 C 14.324219 11.222656 14.34375 11.246094 14.355469 11.261719 C 14.378906 11.296875 14.402344 11.347656 14.40625 11.386719 C 14.417969 11.460938 14.394531 11.539062 14.335938 11.628906 C 14.195312 11.839844 13.878906 12.074219 13.40625 12.324219 C 13.175781 12.445312 12.832031 12.605469 12.632812 12.679688 C 12.507812 12.730469 12.398438 12.769531 12.027344 12.894531 C 11.796875 12.972656 11.8125 12.964844 11.785156 12.980469 C 11.71875 13.015625 11.664062 13.070312 11.632812 13.136719 C 11.617188 13.171875 11.605469 13.207031 11.597656 13.246094 C 11.597656 13.269531 11.59375 13.320312 11.597656 13.339844 C 11.609375 13.421875 11.644531 13.492188 11.703125 13.550781 C 11.761719 13.605469 11.832031 13.640625 11.910156 13.648438 C 11.925781 13.652344 12.265625 13.652344 14.820312 13.652344 C 16.722656 13.652344 17.722656 13.652344 17.742188 13.652344 C 17.917969 13.660156 18.082031 13.71875 18.214844 13.8125 C 18.28125 13.859375 18.335938 13.921875 18.375 13.984375 C 18.433594 14.078125 18.453125 14.179688 18.4375 14.285156 C 18.421875 14.386719 18.367188 14.488281 18.285156 14.574219 C 18.230469 14.628906 18.167969 14.671875 18.09375 14.710938 C 17.988281 14.761719 17.871094 14.792969 17.742188 14.800781 C 17.734375 14.800781 16.699219 14.800781 15.441406 14.800781 C 13.285156 14.800781 13.160156 14.800781 13.144531 14.804688 C 13.0625 14.816406 12.996094 14.851562 12.941406 14.90625 C 12.910156 14.933594 12.890625 14.964844 12.871094 15.003906 C 12.816406 15.113281 12.824219 15.25 12.890625 15.351562 C 12.90625 15.375 12.921875 15.394531 12.945312 15.414062 C 12.972656 15.441406 13 15.460938 13.035156 15.480469 C 13.066406 15.496094 13.101562 15.503906 13.136719 15.511719 C 13.152344 15.515625 13.277344 15.515625 16.199219 15.515625 C 18.535156 15.515625 19.246094 15.515625 19.257812 15.515625 C 19.332031 15.523438 19.375 15.53125 19.429688 15.546875 C 19.53125 15.570312 19.628906 15.617188 19.707031 15.671875 C 19.75 15.703125 19.800781 15.75 19.828125 15.785156 C 19.890625 15.863281 19.921875 15.941406 19.933594 16.03125 C 19.9375 16.054688 19.9375 16.109375 19.933594 16.132812 C 19.921875 16.222656 19.886719 16.304688 19.828125 16.382812 C 19.796875 16.414062 19.75 16.464844 19.707031 16.496094 C 19.632812 16.550781 19.542969 16.59375 19.445312 16.621094 C 19.386719 16.636719 19.335938 16.648438 19.265625 16.65625 C 19.242188 16.65625 19.027344 16.65625 16.199219 16.65625 C 13.28125 16.660156 13.152344 16.660156 13.136719 16.660156 C 13.074219 16.671875 13.023438 16.695312 12.976562 16.730469 C 12.957031 16.742188 12.929688 16.773438 12.914062 16.789062 C 12.847656 16.875 12.820312 16.980469 12.84375 17.089844 C 12.851562 17.140625 12.878906 17.195312 12.914062 17.238281 C 12.925781 17.253906 12.953125 17.28125 12.964844 17.292969 C 13.019531 17.332031 13.074219 17.355469 13.144531 17.367188 C 13.160156 17.371094 13.285156 17.371094 15.710938 17.371094 C 18.121094 17.371094 18.261719 17.371094 18.28125 17.375 C 18.335938 17.378906 18.378906 17.386719 18.421875 17.398438 C 18.644531 17.453125 18.824219 17.589844 18.902344 17.761719 C 18.929688 17.828125 18.941406 17.890625 18.941406 17.957031 C 18.9375 18.023438 18.925781 18.082031 18.894531 18.144531 C 18.867188 18.199219 18.835938 18.242188 18.789062 18.289062 C 18.742188 18.335938 18.691406 18.375 18.628906 18.410156 C 18.527344 18.46875 18.40625 18.503906 18.285156 18.515625 C 18.273438 18.515625 18.257812 18.519531 18.253906 18.519531 C 18.25 18.519531 17.101562 18.519531 15.699219 18.519531 L 13.148438 18.523438 L 13.132812 18.523438 C 13.121094 18.527344 13.105469 18.53125 13.097656 18.53125 C 12.988281 18.5625 12.902344 18.640625 12.859375 18.742188 C 12.832031 18.816406 12.828125 18.90625 12.851562 18.980469 C 12.867188 19.039062 12.898438 19.089844 12.945312 19.132812 C 12.996094 19.183594 13.058594 19.214844 13.136719 19.230469 C 13.148438 19.230469 13.253906 19.230469 14.667969 19.234375 C 16.082031 19.234375 16.1875 19.234375 16.210938 19.234375 C 16.246094 19.238281 16.273438 19.242188 16.304688 19.25 C 16.476562 19.285156 16.625 19.375 16.710938 19.496094 C 16.753906 19.554688 16.78125 19.625 16.785156 19.691406 C 16.789062 19.722656 16.785156 19.769531 16.777344 19.800781 C 16.746094 19.9375 16.640625 20.058594 16.488281 20.132812 C 16.40625 20.175781 16.324219 20.195312 16.21875 20.210938 C 16.199219 20.210938 16.070312 20.210938 13.65625 20.210938 C 11.175781 20.214844 10.886719 20.210938 10.527344 20.207031 C 9.617188 20.199219 8.898438 20.175781 8.121094 20.132812 C 7.886719 20.121094 7.671875 20.109375 7.179688 20.078125 C 6.554688 20.039062 6.1875 20.019531 5.78125 20.003906 C 5.183594 19.980469 4.617188 19.96875 3.855469 19.964844 L 3.644531 19.964844 L 3.644531 19.929688 C 3.644531 19.878906 3.640625 19.851562 3.625 19.8125 C 3.605469 19.757812 3.582031 19.714844 3.539062 19.675781 C 3.511719 19.644531 3.480469 19.625 3.441406 19.605469 C 3.410156 19.589844 3.378906 19.578125 3.339844 19.574219 C 3.3125 19.570312 3.265625 19.570312 3.238281 19.574219 C 3.148438 19.585938 3.066406 19.632812 3.007812 19.703125 C 2.992188 19.722656 2.980469 19.742188 2.96875 19.769531 C 2.953125 19.804688 2.941406 19.832031 2.9375 19.875 C 2.933594 19.894531 2.933594 19.894531 2.933594 20.226562 L 2.929688 20.554688 L 2.929688 20.570312 C 2.910156 20.652344 2.851562 20.71875 2.773438 20.742188 C 2.742188 20.753906 2.699219 20.757812 2.664062 20.75 C 2.59375 20.738281 2.53125 20.691406 2.496094 20.625 C 2.488281 20.609375 2.484375 20.589844 2.480469 20.570312 L 2.476562 20.554688 L 2.476562 16.761719 C 2.476562 13.953125 2.476562 12.964844 2.476562 12.957031 C 2.484375 12.90625 2.503906 12.859375 2.542969 12.820312 C 2.5625 12.800781 2.582031 12.789062 2.605469 12.777344 C 2.667969 12.746094 2.738281 12.746094 2.800781 12.777344 C 2.867188 12.808594 2.910156 12.863281 2.929688 12.9375 L 2.929688 12.953125 L 2.933594 13.378906 L 2.933594 13.808594 L 2.9375 13.828125 C 2.941406 13.867188 2.953125 13.898438 2.96875 13.933594 C 2.996094 13.992188 3.039062 14.035156 3.089844 14.070312 C 3.132812 14.101562 3.1875 14.121094 3.238281 14.128906 C 3.265625 14.132812 3.3125 14.132812 3.335938 14.128906 C 3.375 14.125 3.410156 14.113281 3.441406 14.097656 C 3.480469 14.078125 3.511719 14.058594 3.539062 14.027344 C 3.601562 13.964844 3.636719 13.886719 3.644531 13.796875 C 3.644531 13.785156 3.644531 13.785156 3.648438 13.785156 C 3.648438 13.785156 3.679688 13.785156 3.71875 13.785156 C 3.785156 13.789062 3.828125 13.789062 4.121094 13.800781 C 4.824219 13.824219 5.230469 13.824219 5.648438 13.8125 C 6.703125 13.773438 7.417969 13.609375 7.871094 13.296875 C 7.882812 13.285156 7.914062 13.265625 7.933594 13.253906 C 8.148438 13.101562 8.390625 12.953125 8.621094 12.828125 C 9.207031 12.5 9.816406 12.257812 10.574219 12.042969 C 10.773438 11.988281 10.925781 11.945312 11.308594 11.847656 C 11.71875 11.742188 11.902344 11.695312 12.101562 11.636719 C 12.210938 11.601562 12.253906 11.585938 12.460938 11.519531 C 12.953125 11.355469 13.15625 11.292969 13.390625 11.234375 C 13.617188 11.175781 13.78125 11.148438 13.949219 11.140625 C 13.96875 11.140625 14.042969 11.140625 14.0625 11.140625 Z M 14.0625 11.140625 "/>
</g>
</svg>
