<?xml version="1.0" encoding="UTF-8"?>
<svg xmlns="http://www.w3.org/2000/svg" xmlns:xlink="http://www.w3.org/1999/xlink" viewBox="0 0 24 24" version="1.1">
<g>
<path style=" stroke:none;fill-rule:nonzero;fill:rgb(0%,0%,0%);fill-opacity:1;" d="M 14.757812 4.464844 C 14.199219 4.484375 13.644531 4.695312 13.144531 5.070312 C 12.867188 5.277344 12.617188 5.535156 12.402344 5.820312 C 12.3125 5.945312 12.226562 6.074219 12.148438 6.210938 C 12.132812 6.238281 12.101562 6.296875 12.09375 6.3125 L 12.089844 6.316406 L 12.074219 6.289062 C 11.863281 5.878906 11.574219 5.511719 11.234375 5.222656 C 10.902344 4.9375 10.523438 4.726562 10.117188 4.601562 C 9.914062 4.539062 9.707031 4.5 9.5 4.484375 C 9.398438 4.480469 9.28125 4.476562 9.183594 4.484375 C 8.582031 4.519531 8.011719 4.769531 7.542969 5.195312 C 7.355469 5.367188 7.1875 5.558594 7.035156 5.789062 C 6.671875 6.332031 6.460938 6.984375 6.421875 7.667969 C 6.414062 7.753906 6.414062 7.78125 6.414062 7.898438 C 6.414062 8.015625 6.414062 8.042969 6.421875 8.128906 C 6.445312 8.542969 6.53125 8.945312 6.675781 9.324219 C 6.867188 9.832031 7.171875 10.3125 7.589844 10.785156 C 7.675781 10.882812 7.75 10.964844 7.855469 11.070312 C 8.097656 11.316406 8.339844 11.53125 8.664062 11.785156 C 9.179688 12.199219 9.75 12.613281 10.515625 13.144531 C 10.738281 13.296875 10.910156 13.414062 11.367188 13.726562 C 11.609375 13.890625 11.707031 13.957031 11.890625 14.082031 C 11.925781 14.105469 11.957031 14.125 11.964844 14.128906 C 12.039062 14.167969 12.148438 14.164062 12.21875 14.125 C 12.226562 14.121094 12.277344 14.085938 12.335938 14.046875 C 12.820312 13.71875 13.007812 13.589844 13.238281 13.429688 C 14.054688 12.871094 14.671875 12.425781 15.21875 12.007812 C 15.726562 11.625 16.101562 11.292969 16.425781 10.953125 C 16.882812 10.46875 17.214844 9.976562 17.449219 9.441406 C 17.472656 9.382812 17.5 9.3125 17.527344 9.234375 C 17.769531 8.539062 17.808594 7.742188 17.648438 7.003906 C 17.523438 6.441406 17.289062 5.9375 16.960938 5.527344 C 16.863281 5.402344 16.746094 5.28125 16.632812 5.175781 C 16.371094 4.941406 16.074219 4.757812 15.75 4.632812 C 15.503906 4.539062 15.25 4.480469 14.996094 4.464844 C 14.925781 4.460938 14.824219 4.460938 14.757812 4.464844 Z M 14.890625 5.042969 C 14.941406 5.042969 14.980469 5.046875 15.023438 5.050781 C 15.207031 5.066406 15.398438 5.113281 15.574219 5.183594 C 15.925781 5.324219 16.230469 5.542969 16.480469 5.835938 C 16.769531 6.179688 16.980469 6.621094 17.082031 7.117188 C 17.125 7.324219 17.148438 7.515625 17.160156 7.746094 C 17.164062 7.832031 17.164062 7.996094 17.15625 8.097656 C 17.132812 8.492188 17.054688 8.875 16.917969 9.222656 C 16.882812 9.316406 16.808594 9.46875 16.742188 9.585938 C 16.441406 10.132812 15.992188 10.640625 15.328125 11.191406 C 15.097656 11.378906 14.855469 11.566406 14.457031 11.859375 C 13.882812 12.28125 13.253906 12.722656 12.351562 13.335938 C 12.128906 13.488281 12.089844 13.515625 12.089844 13.515625 C 12.085938 13.515625 12.023438 13.472656 11.601562 13.183594 C 10.710938 12.574219 10.183594 12.203125 9.652344 11.8125 C 9.242188 11.511719 8.964844 11.296875 8.71875 11.089844 C 8.175781 10.625 7.785156 10.183594 7.503906 9.710938 C 7.210938 9.222656 7.035156 8.667969 7 8.109375 C 6.992188 8.023438 6.992188 8 6.992188 7.878906 C 6.992188 7.761719 6.992188 7.742188 7 7.652344 C 7.03125 7.191406 7.15625 6.742188 7.367188 6.355469 C 7.609375 5.90625 7.949219 5.542969 8.339844 5.316406 C 8.382812 5.292969 8.414062 5.277344 8.460938 5.253906 C 8.679688 5.144531 8.910156 5.078125 9.148438 5.058594 C 9.242188 5.050781 9.351562 5.050781 9.449219 5.058594 C 10.015625 5.097656 10.546875 5.347656 10.992188 5.785156 C 11.300781 6.089844 11.546875 6.464844 11.707031 6.882812 C 11.742188 6.972656 11.769531 7.054688 11.796875 7.15625 C 11.808594 7.1875 11.816406 7.214844 11.820312 7.222656 C 11.847656 7.285156 11.886719 7.328125 11.945312 7.359375 C 12.007812 7.390625 12.078125 7.398438 12.148438 7.382812 C 12.183594 7.378906 12.222656 7.359375 12.253906 7.34375 C 12.292969 7.316406 12.324219 7.28125 12.34375 7.238281 C 12.355469 7.21875 12.359375 7.203125 12.367188 7.171875 C 12.496094 6.722656 12.738281 6.28125 13.070312 5.917969 C 13.15625 5.820312 13.257812 5.722656 13.351562 5.640625 C 13.726562 5.320312 14.144531 5.121094 14.570312 5.058594 C 14.644531 5.050781 14.71875 5.042969 14.792969 5.042969 C 14.816406 5.039062 14.835938 5.039062 14.835938 5.039062 C 14.835938 5.039062 14.863281 5.039062 14.890625 5.042969 Z M 14.890625 5.042969 "/>
<path style=" stroke:none;fill-rule:nonzero;fill:rgb(0%,0%,0%);fill-opacity:1;" d="M 20.527344 7.277344 C 20.417969 7.285156 20.316406 7.3125 20.199219 7.363281 C 20.078125 7.417969 19.96875 7.488281 19.875 7.570312 C 19.839844 7.605469 19.792969 7.652344 19.757812 7.691406 C 19.570312 7.917969 19.453125 8.226562 19.390625 8.660156 C 19.375 8.769531 19.367188 8.84375 19.351562 9.023438 C 19.335938 9.1875 19.324219 9.316406 19.308594 9.453125 C 19.207031 10.289062 19.039062 11.09375 18.804688 11.863281 C 18.792969 11.898438 18.785156 11.929688 18.785156 11.929688 C 18.785156 11.929688 18.773438 11.917969 18.765625 11.90625 C 18.644531 11.742188 18.480469 11.625 18.289062 11.5625 C 18.179688 11.527344 18.058594 11.507812 17.941406 11.503906 C 17.722656 11.496094 17.53125 11.546875 17.375 11.648438 C 17.300781 11.699219 17.242188 11.757812 17.171875 11.847656 C 17.132812 11.898438 17.117188 11.925781 17 12.097656 C 16.9375 12.195312 16.910156 12.234375 16.851562 12.308594 C 16.585938 12.640625 16.246094 12.976562 15.847656 13.3125 C 15.585938 13.53125 15.304688 13.742188 14.882812 14.046875 C 14.765625 14.128906 14.503906 14.316406 14.335938 14.433594 C 14.09375 14.605469 13.996094 14.675781 13.882812 14.765625 C 13.789062 14.839844 13.6875 14.921875 13.628906 14.976562 C 13.398438 15.191406 13.273438 15.480469 13.25 15.855469 C 13.242188 15.933594 13.242188 16.0625 13.246094 16.144531 C 13.253906 16.273438 13.261719 16.355469 13.285156 16.59375 C 13.308594 16.800781 13.316406 16.882812 13.324219 17.011719 C 13.324219 17.054688 13.324219 17.191406 13.324219 17.238281 C 13.316406 17.414062 13.296875 17.585938 13.246094 17.855469 C 13.242188 17.878906 13.230469 17.949219 13.21875 18.011719 C 13.171875 18.257812 13.160156 18.335938 13.140625 18.464844 C 13.136719 18.5 13.128906 18.546875 13.121094 18.578125 C 13.09375 18.757812 13.085938 18.820312 13.082031 18.902344 C 13.078125 18.933594 13.078125 19.003906 13.082031 19.027344 C 13.089844 19.167969 13.128906 19.273438 13.203125 19.359375 C 13.21875 19.378906 13.257812 19.417969 13.28125 19.4375 C 13.371094 19.511719 13.476562 19.570312 13.644531 19.636719 C 14.066406 19.804688 14.5625 19.898438 15.277344 19.9375 C 15.523438 19.949219 15.765625 19.953125 15.972656 19.941406 C 16.304688 19.925781 16.613281 19.878906 16.871094 19.804688 C 17.261719 19.695312 17.519531 19.515625 17.644531 19.261719 C 17.683594 19.191406 17.703125 19.125 17.722656 19.035156 C 17.761719 18.828125 17.851562 18.640625 18.039062 18.371094 C 18.054688 18.347656 18.101562 18.285156 18.171875 18.1875 C 18.210938 18.128906 18.238281 18.089844 18.277344 18.035156 C 18.324219 17.960938 18.363281 17.910156 18.410156 17.851562 C 18.589844 17.625 18.816406 17.40625 19.144531 17.136719 C 19.207031 17.082031 19.222656 17.070312 19.316406 16.996094 C 19.519531 16.832031 19.625 16.742188 19.726562 16.652344 C 19.964844 16.441406 20.144531 16.246094 20.296875 16.035156 C 20.507812 15.742188 20.695312 15.398438 20.851562 15.015625 C 21.078125 14.472656 21.253906 13.832031 21.386719 13.097656 C 21.472656 12.625 21.539062 12.148438 21.628906 11.351562 C 21.679688 10.882812 21.71875 10.449219 21.75 9.949219 C 21.753906 9.859375 21.757812 9.804688 21.769531 9.644531 C 21.78125 9.480469 21.789062 9.402344 21.789062 9.300781 C 21.792969 9.246094 21.792969 9.082031 21.789062 9.042969 C 21.777344 8.808594 21.746094 8.664062 21.664062 8.421875 C 21.53125 8.023438 21.34375 7.707031 21.132812 7.511719 C 21.007812 7.394531 20.871094 7.320312 20.726562 7.292969 C 20.675781 7.28125 20.632812 7.277344 20.578125 7.277344 C 20.554688 7.277344 20.53125 7.277344 20.527344 7.277344 Z M 20.621094 7.859375 C 20.714844 7.878906 20.792969 7.945312 20.871094 8.078125 C 20.910156 8.140625 20.984375 8.289062 21.023438 8.371094 C 21.128906 8.601562 21.1875 8.808594 21.207031 9.007812 C 21.210938 9.078125 21.214844 9.144531 21.210938 9.238281 C 21.171875 10.152344 21.109375 10.914062 20.996094 11.789062 C 20.902344 12.53125 20.84375 12.925781 20.757812 13.339844 C 20.585938 14.195312 20.347656 14.867188 20.015625 15.417969 C 19.921875 15.570312 19.816406 15.722656 19.714844 15.855469 C 19.601562 15.996094 19.464844 16.132812 19.300781 16.273438 C 19.234375 16.328125 19.164062 16.386719 19.03125 16.488281 C 18.78125 16.683594 18.621094 16.816406 18.464844 16.960938 C 18.242188 17.167969 18.074219 17.351562 17.90625 17.5625 C 17.65625 17.886719 17.464844 18.164062 17.328125 18.40625 C 17.265625 18.519531 17.222656 18.636719 17.1875 18.773438 C 17.175781 18.820312 17.171875 18.84375 17.160156 18.910156 C 17.140625 19.003906 17.136719 19.019531 17.113281 19.046875 C 17.058594 19.113281 16.925781 19.183594 16.757812 19.238281 C 16.441406 19.332031 16.074219 19.375 15.605469 19.367188 C 15.554688 19.367188 15.5 19.367188 15.488281 19.367188 C 15.480469 19.367188 15.449219 19.367188 15.425781 19.363281 C 14.988281 19.351562 14.605469 19.304688 14.265625 19.226562 C 14.117188 19.191406 13.949219 19.140625 13.851562 19.101562 C 13.808594 19.082031 13.785156 19.074219 13.695312 19.019531 L 13.65625 18.996094 L 13.65625 18.980469 C 13.664062 18.949219 13.667969 18.894531 13.671875 18.851562 C 13.695312 18.617188 13.730469 18.359375 13.804688 17.953125 C 13.816406 17.898438 13.828125 17.832031 13.832031 17.808594 C 13.875 17.5625 13.894531 17.398438 13.902344 17.234375 C 13.902344 17.1875 13.902344 17.054688 13.902344 17.007812 C 13.894531 16.875 13.886719 16.800781 13.859375 16.523438 C 13.835938 16.308594 13.828125 16.203125 13.824219 16.070312 C 13.816406 15.867188 13.84375 15.71875 13.90625 15.589844 C 13.960938 15.476562 14.046875 15.378906 14.1875 15.261719 C 14.234375 15.226562 14.304688 15.171875 14.375 15.117188 C 14.503906 15.023438 14.589844 14.960938 14.835938 14.789062 C 15.34375 14.429688 15.628906 14.222656 15.890625 14.015625 C 16.558594 13.5 17.023438 13.039062 17.417969 12.515625 C 17.480469 12.433594 17.496094 12.410156 17.535156 12.34375 C 17.574219 12.28125 17.605469 12.234375 17.628906 12.207031 C 17.664062 12.164062 17.703125 12.132812 17.742188 12.113281 C 17.839844 12.0625 18.003906 12.066406 18.132812 12.121094 C 18.167969 12.136719 18.214844 12.164062 18.242188 12.183594 C 18.257812 12.199219 18.273438 12.214844 18.289062 12.230469 C 18.367188 12.320312 18.410156 12.425781 18.417969 12.554688 C 18.421875 12.578125 18.421875 12.644531 18.417969 12.667969 C 18.40625 12.832031 18.355469 13.007812 18.242188 13.25 C 18.234375 13.273438 18.210938 13.320312 18.195312 13.359375 C 18.164062 13.417969 18.152344 13.449219 18.152344 13.457031 C 18.152344 13.457031 18.140625 13.476562 18.128906 13.496094 C 17.921875 13.867188 17.695312 14.191406 17.441406 14.472656 C 17.335938 14.589844 17.214844 14.710938 17.101562 14.8125 C 16.878906 15.011719 16.621094 15.183594 16.335938 15.328125 C 16.300781 15.34375 16.285156 15.351562 16.269531 15.367188 C 16.21875 15.402344 16.1875 15.449219 16.175781 15.507812 C 16.171875 15.527344 16.171875 15.566406 16.171875 15.585938 C 16.183594 15.691406 16.253906 15.789062 16.347656 15.835938 C 16.375 15.851562 16.402344 15.859375 16.433594 15.867188 C 16.457031 15.871094 16.496094 15.867188 16.519531 15.863281 C 16.558594 15.859375 16.582031 15.851562 16.640625 15.820312 C 16.980469 15.648438 17.292969 15.429688 17.582031 15.164062 C 17.671875 15.078125 17.773438 14.976562 17.859375 14.882812 C 18.554688 14.128906 19.085938 13.070312 19.457031 11.722656 C 19.664062 10.964844 19.824219 10.082031 19.910156 9.238281 C 19.917969 9.167969 19.921875 9.125 19.929688 8.992188 C 19.941406 8.792969 19.949219 8.714844 19.964844 8.613281 C 20.003906 8.351562 20.082031 8.171875 20.214844 8.039062 C 20.316406 7.9375 20.4375 7.871094 20.539062 7.855469 C 20.558594 7.851562 20.605469 7.855469 20.621094 7.859375 Z M 20.621094 7.859375 "/>
<path style=" stroke:none;fill-rule:nonzero;fill:rgb(0%,0%,0%);fill-opacity:1;" d="M 3.308594 7.285156 C 3.304688 7.285156 3.296875 7.289062 3.285156 7.289062 C 3.078125 7.304688 2.886719 7.410156 2.730469 7.585938 C 2.527344 7.820312 2.347656 8.183594 2.230469 8.601562 C 2.164062 8.84375 2.144531 9.085938 2.167969 9.453125 C 2.171875 9.507812 2.175781 9.578125 2.183594 9.6875 C 2.195312 9.816406 2.195312 9.851562 2.203125 9.941406 C 2.25 10.730469 2.335938 11.527344 2.457031 12.394531 C 2.539062 12.957031 2.601562 13.3125 2.683594 13.675781 C 2.871094 14.539062 3.136719 15.230469 3.484375 15.789062 C 3.664062 16.078125 3.875 16.34375 4.097656 16.554688 C 4.25 16.703125 4.363281 16.800781 4.675781 17.050781 C 4.847656 17.1875 4.921875 17.25 5.003906 17.316406 C 5.214844 17.496094 5.378906 17.660156 5.511719 17.816406 C 5.589844 17.910156 5.640625 17.980469 5.722656 18.105469 C 5.808594 18.242188 5.90625 18.386719 5.996094 18.511719 C 6.058594 18.601562 6.085938 18.644531 6.117188 18.710938 C 6.164062 18.804688 6.195312 18.898438 6.230469 19.0625 C 6.238281 19.089844 6.246094 19.121094 6.25 19.132812 C 6.296875 19.296875 6.386719 19.429688 6.53125 19.542969 C 6.671875 19.660156 6.855469 19.746094 7.074219 19.808594 C 7.292969 19.875 7.542969 19.910156 7.902344 19.933594 C 8.398438 19.964844 8.902344 19.941406 9.425781 19.859375 C 9.582031 19.835938 9.796875 19.796875 9.917969 19.765625 C 10.265625 19.6875 10.5 19.585938 10.671875 19.4375 C 10.691406 19.421875 10.742188 19.367188 10.757812 19.351562 C 10.839844 19.246094 10.878906 19.117188 10.875 18.941406 C 10.871094 18.839844 10.863281 18.773438 10.832031 18.578125 C 10.820312 18.523438 10.8125 18.457031 10.808594 18.433594 C 10.789062 18.300781 10.777344 18.226562 10.734375 18 C 10.707031 17.863281 10.695312 17.796875 10.683594 17.726562 C 10.648438 17.527344 10.632812 17.382812 10.628906 17.230469 C 10.625 17.1875 10.628906 17.058594 10.628906 17.011719 C 10.636719 16.886719 10.640625 16.8125 10.664062 16.59375 C 10.6875 16.371094 10.691406 16.285156 10.699219 16.175781 C 10.710938 15.976562 10.703125 15.808594 10.679688 15.667969 C 10.636719 15.402344 10.535156 15.191406 10.363281 15.019531 C 10.289062 14.945312 10.109375 14.792969 9.929688 14.652344 C 9.746094 14.511719 9.585938 14.394531 9.199219 14.128906 C 8.769531 13.832031 8.609375 13.71875 8.382812 13.539062 C 7.890625 13.152344 7.476562 12.761719 7.160156 12.382812 C 7.070312 12.269531 7.035156 12.222656 6.929688 12.0625 C 6.855469 11.945312 6.8125 11.882812 6.765625 11.824219 C 6.714844 11.761719 6.667969 11.714844 6.617188 11.675781 C 6.601562 11.660156 6.558594 11.632812 6.535156 11.621094 C 6.433594 11.5625 6.304688 11.519531 6.171875 11.507812 C 6.09375 11.5 6.011719 11.5 5.929688 11.507812 C 5.820312 11.519531 5.707031 11.542969 5.613281 11.582031 C 5.445312 11.644531 5.296875 11.757812 5.1875 11.90625 C 5.175781 11.917969 5.167969 11.929688 5.167969 11.929688 C 5.167969 11.929688 5.164062 11.929688 5.164062 11.925781 C 5.164062 11.921875 5.15625 11.894531 5.144531 11.863281 C 4.925781 11.160156 4.757812 10.375 4.65625 9.570312 C 4.632812 9.378906 4.625 9.289062 4.609375 9.113281 C 4.597656 8.9375 4.59375 8.90625 4.589844 8.847656 C 4.566406 8.589844 4.535156 8.40625 4.488281 8.242188 C 4.457031 8.132812 4.40625 8.023438 4.347656 7.921875 C 4.25 7.761719 4.125 7.621094 3.976562 7.511719 C 3.800781 7.378906 3.605469 7.300781 3.414062 7.285156 C 3.398438 7.285156 3.320312 7.285156 3.308594 7.285156 Z M 3.421875 7.859375 C 3.527344 7.875 3.644531 7.945312 3.746094 8.050781 C 3.875 8.179688 3.945312 8.363281 3.984375 8.644531 C 3.992188 8.710938 4 8.769531 4.011719 8.894531 C 4.050781 9.375 4.097656 9.765625 4.171875 10.230469 C 4.472656 12.101562 5.007812 13.519531 5.800781 14.535156 C 5.992188 14.785156 6.203125 15.011719 6.425781 15.210938 C 6.667969 15.425781 6.925781 15.609375 7.1875 15.753906 C 7.265625 15.796875 7.347656 15.839844 7.375 15.851562 C 7.4375 15.875 7.503906 15.875 7.566406 15.855469 C 7.6875 15.8125 7.78125 15.683594 7.78125 15.558594 C 7.78125 15.488281 7.753906 15.425781 7.699219 15.378906 C 7.679688 15.363281 7.65625 15.347656 7.601562 15.320312 C 7.222656 15.125 6.890625 14.871094 6.574219 14.539062 C 6.304688 14.25 6.046875 13.894531 5.828125 13.496094 C 5.800781 13.449219 5.796875 13.441406 5.792969 13.429688 C 5.789062 13.425781 5.773438 13.394531 5.757812 13.359375 C 5.691406 13.21875 5.65625 13.136719 5.621094 13.046875 C 5.515625 12.761719 5.5 12.539062 5.578125 12.367188 C 5.605469 12.296875 5.65625 12.230469 5.703125 12.1875 C 5.722656 12.175781 5.757812 12.152344 5.78125 12.140625 C 5.835938 12.109375 5.902344 12.089844 5.972656 12.082031 C 6.003906 12.078125 6.074219 12.078125 6.101562 12.082031 C 6.183594 12.089844 6.242188 12.121094 6.296875 12.179688 C 6.332031 12.214844 6.359375 12.25 6.414062 12.339844 C 6.460938 12.414062 6.488281 12.453125 6.558594 12.550781 C 6.945312 13.050781 7.425781 13.523438 8.066406 14.019531 C 8.273438 14.183594 8.441406 14.304688 8.871094 14.609375 C 9.300781 14.910156 9.46875 15.03125 9.667969 15.1875 C 9.800781 15.292969 9.855469 15.335938 9.90625 15.394531 C 10.035156 15.53125 10.097656 15.664062 10.121094 15.84375 C 10.125 15.898438 10.128906 15.921875 10.128906 15.996094 C 10.128906 16.082031 10.125 16.152344 10.121094 16.25 C 10.113281 16.339844 10.109375 16.394531 10.082031 16.628906 C 10.054688 16.882812 10.046875 17 10.046875 17.144531 C 10.046875 17.273438 10.058594 17.390625 10.078125 17.546875 C 10.09375 17.660156 10.109375 17.75 10.152344 17.996094 C 10.214844 18.332031 10.253906 18.59375 10.273438 18.792969 C 10.273438 18.816406 10.277344 18.839844 10.277344 18.847656 C 10.285156 18.886719 10.300781 18.96875 10.304688 18.984375 L 10.304688 18.992188 L 10.300781 18.996094 C 10.296875 18.996094 10.253906 19.023438 10.210938 19.046875 C 10.148438 19.082031 10.101562 19.101562 10.007812 19.132812 C 9.777344 19.210938 9.535156 19.265625 9.230469 19.308594 C 9 19.339844 8.789062 19.359375 8.53125 19.367188 C 8.464844 19.371094 8.195312 19.371094 8.132812 19.367188 C 7.941406 19.359375 7.785156 19.347656 7.625 19.332031 C 7.273438 19.289062 7.035156 19.214844 6.898438 19.105469 C 6.871094 19.085938 6.835938 19.050781 6.824219 19.027344 C 6.8125 19.011719 6.808594 19 6.800781 18.953125 C 6.761719 18.769531 6.738281 18.675781 6.703125 18.578125 C 6.671875 18.496094 6.636719 18.429688 6.558594 18.300781 C 6.425781 18.078125 6.246094 17.820312 6.027344 17.539062 C 5.859375 17.324219 5.664062 17.128906 5.382812 16.886719 C 5.296875 16.8125 5.222656 16.753906 5.046875 16.609375 C 4.777344 16.390625 4.683594 16.3125 4.558594 16.195312 C 4.519531 16.160156 4.4375 16.082031 4.402344 16.039062 C 3.898438 15.507812 3.539062 14.757812 3.289062 13.734375 C 3.179688 13.277344 3.074219 12.699219 2.984375 12.066406 C 2.867188 11.199219 2.78125 10.171875 2.742188 9.183594 C 2.730469 8.910156 2.804688 8.621094 2.964844 8.292969 C 3.070312 8.085938 3.121094 8.003906 3.183594 7.941406 C 3.210938 7.914062 3.238281 7.894531 3.265625 7.878906 C 3.292969 7.867188 3.320312 7.859375 3.347656 7.855469 C 3.363281 7.851562 3.40625 7.855469 3.421875 7.859375 Z M 3.421875 7.859375 "/>
</g>
</svg>
