<?xml version="1.0" encoding="UTF-8"?>
<svg xmlns="http://www.w3.org/2000/svg" xmlns:xlink="http://www.w3.org/1999/xlink" viewBox="0 0 24 24" version="1.1">
<g>
<path style=" stroke:none;fill-rule:nonzero;fill:rgb(0%,0%,0%);fill-opacity:1;" d="M 10.789062 1.863281 C 10.320312 1.871094 9.863281 2.015625 9.472656 2.277344 C 9.367188 2.347656 9.273438 2.417969 9.175781 2.507812 C 9.144531 2.535156 9.050781 2.632812 9.019531 2.667969 C 8.792969 2.914062 8.628906 3.195312 8.519531 3.507812 C 8.507812 3.539062 8.484375 3.605469 8.488281 3.609375 C 8.488281 3.609375 9.089844 3.789062 9.089844 3.789062 C 9.089844 3.789062 9.09375 3.773438 9.101562 3.757812 C 9.214844 3.398438 9.4375 3.085938 9.742188 2.859375 C 10.09375 2.59375 10.527344 2.464844 10.96875 2.5 C 11.449219 2.535156 11.890625 2.757812 12.207031 3.121094 C 12.386719 3.324219 12.515625 3.566406 12.589844 3.832031 L 12.59375 3.847656 L 12.578125 3.859375 C 12.476562 3.941406 12.367188 4.046875 12.28125 4.144531 C 12.125 4.332031 12.003906 4.539062 11.917969 4.761719 C 11.832031 4.992188 11.789062 5.242188 11.789062 5.484375 L 11.789062 5.535156 L 11.964844 5.535156 C 12.0625 5.535156 12.207031 5.535156 12.28125 5.535156 L 12.417969 5.53125 L 12.417969 5.5 C 12.417969 5.15625 12.535156 4.832031 12.75 4.570312 C 12.859375 4.4375 12.996094 4.320312 13.148438 4.234375 C 13.242188 4.179688 13.375 4.125 13.472656 4.097656 C 13.734375 4.023438 14.011719 4.023438 14.273438 4.097656 C 14.683594 4.210938 15.027344 4.511719 15.203125 4.902344 C 15.304688 5.128906 15.347656 5.382812 15.324219 5.632812 C 15.308594 5.796875 15.265625 5.960938 15.191406 6.113281 C 15.1875 6.125 15.183594 6.136719 15.183594 6.136719 C 15.183594 6.140625 15.742188 6.417969 15.746094 6.417969 C 15.746094 6.417969 15.773438 6.367188 15.789062 6.324219 C 15.890625 6.089844 15.945312 5.847656 15.960938 5.589844 C 15.960938 5.550781 15.960938 5.441406 15.960938 5.402344 C 15.949219 5.160156 15.898438 4.9375 15.8125 4.71875 C 15.730469 4.511719 15.609375 4.3125 15.460938 4.140625 C 15.421875 4.097656 15.398438 4.070312 15.351562 4.023438 C 15.285156 3.957031 15.242188 3.917969 15.179688 3.867188 C 14.800781 3.5625 14.332031 3.402344 13.84375 3.410156 C 13.730469 3.414062 13.636719 3.421875 13.527344 3.4375 C 13.410156 3.457031 13.289062 3.488281 13.1875 3.527344 C 13.171875 3.53125 13.160156 3.535156 13.160156 3.535156 C 13.160156 3.535156 13.15625 3.519531 13.148438 3.503906 C 12.996094 3.070312 12.722656 2.683594 12.359375 2.394531 C 11.980469 2.097656 11.527344 1.914062 11.046875 1.875 C 10.980469 1.867188 10.871094 1.863281 10.824219 1.863281 C 10.8125 1.863281 10.796875 1.863281 10.789062 1.863281 Z M 10.789062 1.863281 "/>
<path style=" stroke:none;fill-rule:nonzero;fill:rgb(0%,0%,0%);fill-opacity:1;" d="M 7.992188 4.328125 C 7.632812 4.34375 7.28125 4.449219 6.972656 4.640625 C 6.582031 4.886719 6.28125 5.25 6.117188 5.683594 C 6 5.996094 5.957031 6.339844 6 6.675781 C 6.046875 7.082031 6.21875 7.464844 6.484375 7.777344 C 6.53125 7.832031 6.601562 7.90625 6.652344 7.957031 C 6.957031 8.238281 7.328125 8.421875 7.734375 8.488281 C 7.773438 8.492188 7.839844 8.503906 7.839844 8.5 C 7.839844 8.5 7.910156 7.875 7.910156 7.875 C 7.910156 7.875 7.898438 7.875 7.886719 7.871094 C 7.710938 7.851562 7.535156 7.792969 7.378906 7.707031 C 7.191406 7.605469 7.023438 7.460938 6.894531 7.285156 C 6.65625 6.957031 6.566406 6.550781 6.640625 6.152344 C 6.671875 5.984375 6.734375 5.816406 6.824219 5.667969 C 6.855469 5.609375 6.910156 5.535156 6.953125 5.484375 C 7.007812 5.417969 7.074219 5.351562 7.144531 5.296875 C 7.371094 5.105469 7.640625 4.992188 7.933594 4.964844 C 7.984375 4.957031 8.011719 4.957031 8.078125 4.957031 C 8.167969 4.957031 8.230469 4.960938 8.320312 4.976562 C 8.542969 5.011719 8.761719 5.105469 8.949219 5.242188 C 9.050781 5.320312 9.144531 5.410156 9.222656 5.503906 C 9.328125 5.640625 9.414062 5.792969 9.46875 5.957031 C 9.484375 6.007812 9.5 6.0625 9.511719 6.117188 C 9.519531 6.144531 9.527344 6.210938 9.53125 6.226562 C 9.53125 6.234375 9.53125 6.234375 9.535156 6.234375 C 9.539062 6.234375 10.15625 6.15625 10.15625 6.15625 C 10.160156 6.152344 10.148438 6.082031 10.140625 6.035156 C 10.074219 5.695312 9.929688 5.378906 9.714844 5.109375 C 9.664062 5.046875 9.621094 5 9.558594 4.941406 C 9.515625 4.894531 9.484375 4.867188 9.441406 4.832031 C 9.195312 4.621094 8.90625 4.46875 8.597656 4.390625 C 8.460938 4.355469 8.316406 4.335938 8.171875 4.328125 C 8.144531 4.328125 8.019531 4.328125 7.992188 4.328125 Z M 7.992188 4.328125 "/>
<path style=" stroke:none;fill-rule:nonzero;fill:rgb(0%,0%,0%);fill-opacity:1;" d="M 3.597656 4.402344 C 3.292969 4.417969 3.003906 4.546875 2.785156 4.765625 C 2.5 5.050781 2.371094 5.449219 2.4375 5.847656 C 2.476562 6.0625 2.566406 6.265625 2.707031 6.433594 C 2.992188 6.773438 3.425781 6.933594 3.863281 6.863281 C 4.179688 6.8125 4.460938 6.640625 4.652344 6.382812 C 4.734375 6.277344 4.796875 6.15625 4.839844 6.027344 C 4.867188 5.933594 4.886719 5.84375 4.894531 5.742188 C 4.898438 5.710938 4.898438 5.609375 4.898438 5.574219 C 4.882812 5.324219 4.800781 5.09375 4.652344 4.898438 C 4.597656 4.824219 4.527344 4.75 4.457031 4.691406 C 4.25 4.519531 4 4.421875 3.730469 4.402344 C 3.707031 4.402344 3.621094 4.402344 3.597656 4.402344 Z M 3.699219 5.035156 C 3.917969 5.050781 4.109375 5.175781 4.207031 5.375 C 4.320312 5.605469 4.277344 5.878906 4.097656 6.066406 C 4 6.164062 3.875 6.226562 3.730469 6.246094 C 3.707031 6.25 3.640625 6.25 3.613281 6.246094 C 3.488281 6.238281 3.371094 6.191406 3.273438 6.109375 C 3.253906 6.09375 3.222656 6.0625 3.203125 6.042969 C 3.121094 5.949219 3.070312 5.835938 3.054688 5.710938 C 3.054688 5.683594 3.050781 5.625 3.054688 5.597656 C 3.066406 5.433594 3.144531 5.28125 3.269531 5.175781 C 3.351562 5.109375 3.453125 5.058594 3.554688 5.042969 C 3.605469 5.035156 3.65625 5.03125 3.699219 5.035156 Z M 3.699219 5.035156 "/>
<path style=" stroke:none;fill-rule:nonzero;fill:rgb(0%,0%,0%);fill-opacity:1;" d="M 16.710938 5.027344 C 16.707031 5.035156 16.664062 5.171875 16.613281 5.324219 C 16.558594 5.476562 16.515625 5.601562 16.519531 5.605469 C 16.519531 5.605469 16.519531 5.605469 16.523438 5.609375 C 16.539062 5.613281 16.582031 5.628906 16.617188 5.640625 C 16.761719 5.703125 16.90625 5.78125 17.03125 5.875 C 17.1875 5.992188 17.332031 6.132812 17.445312 6.289062 C 17.648438 6.574219 17.769531 6.898438 17.800781 7.246094 C 17.804688 7.304688 17.804688 7.324219 17.804688 7.410156 C 17.804688 7.496094 17.804688 7.523438 17.796875 7.589844 C 17.765625 7.9375 17.640625 8.265625 17.429688 8.542969 C 17.410156 8.570312 17.410156 8.570312 17.414062 8.574219 C 17.417969 8.578125 17.910156 8.957031 17.910156 8.957031 C 17.910156 8.957031 17.941406 8.917969 17.96875 8.878906 C 18.195312 8.5625 18.34375 8.195312 18.40625 7.808594 C 18.425781 7.671875 18.4375 7.550781 18.4375 7.40625 C 18.4375 7.3125 18.433594 7.25 18.425781 7.164062 C 18.378906 6.703125 18.210938 6.261719 17.933594 5.886719 C 17.808594 5.726562 17.664062 5.574219 17.507812 5.445312 C 17.324219 5.292969 17.117188 5.167969 16.898438 5.074219 C 16.867188 5.0625 16.824219 5.042969 16.789062 5.03125 C 16.773438 5.027344 16.71875 5.007812 16.71875 5.007812 C 16.71875 5.007812 16.714844 5.015625 16.710938 5.027344 Z M 16.710938 5.027344 "/>
<path style=" stroke:none;fill-rule:nonzero;fill:rgb(0%,0%,0%);fill-opacity:1;" d="M 12.367188 7.070312 C 12.234375 7.078125 12.101562 7.105469 11.980469 7.152344 C 11.941406 7.171875 11.925781 7.175781 11.886719 7.195312 C 11.65625 7.3125 11.46875 7.5 11.351562 7.730469 L 11.335938 7.765625 L 11.316406 7.746094 C 11.160156 7.59375 10.972656 7.492188 10.761719 7.441406 C 10.648438 7.414062 10.527344 7.402344 10.417969 7.40625 C 10.195312 7.417969 9.988281 7.484375 9.804688 7.609375 C 9.621094 7.730469 9.472656 7.90625 9.382812 8.105469 C 9.28125 8.335938 9.25 8.59375 9.300781 8.839844 C 9.320312 8.945312 9.355469 9.046875 9.40625 9.144531 C 9.414062 9.160156 9.417969 9.175781 9.417969 9.175781 C 9.417969 9.175781 9.414062 9.175781 9.410156 9.175781 C 9.335938 9.1875 9.246094 9.207031 9.171875 9.234375 C 8.972656 9.304688 8.789062 9.429688 8.652344 9.597656 C 8.511719 9.765625 8.417969 9.972656 8.386719 10.191406 C 8.378906 10.253906 8.375 10.296875 8.375 10.363281 C 8.375 10.433594 8.378906 10.472656 8.386719 10.53125 C 8.410156 10.71875 8.484375 10.898438 8.589844 11.050781 C 8.59375 11.058594 9.363281 12.105469 10.296875 13.375 C 11.230469 14.644531 11.996094 15.6875 12 15.691406 C 12.015625 15.714844 12.03125 15.746094 12.035156 15.777344 C 12.039062 15.789062 12.039062 15.796875 12.039062 15.824219 C 12.039062 15.851562 12.039062 15.859375 12.035156 15.871094 C 12.03125 15.890625 12.023438 15.910156 12.015625 15.929688 C 11.996094 15.972656 11.953125 16.015625 11.90625 16.039062 C 11.84375 16.070312 11.765625 16.070312 11.699219 16.039062 C 11.671875 16.027344 11.65625 16.015625 11.625 15.988281 C 11.609375 15.972656 11.402344 15.765625 11.15625 15.523438 C 10.703125 15.074219 10.699219 15.070312 10.664062 15.042969 C 10.492188 14.886719 10.285156 14.769531 10.066406 14.699219 C 9.804688 14.617188 9.53125 14.597656 9.265625 14.644531 C 8.898438 14.710938 8.5625 14.898438 8.316406 15.175781 C 8.265625 15.230469 8.21875 15.304688 8.1875 15.378906 C 8.144531 15.476562 8.125 15.578125 8.125 15.683594 C 8.125 15.742188 8.128906 15.785156 8.136719 15.835938 C 8.167969 15.984375 8.238281 16.121094 8.339844 16.226562 C 8.355469 16.238281 8.765625 16.617188 9.257812 17.066406 C 9.746094 17.519531 10.148438 17.886719 10.148438 17.886719 C 10.148438 17.890625 9.972656 17.992188 9.753906 18.117188 L 9.359375 18.347656 L 8.992188 19.132812 C 8.792969 19.5625 8.628906 19.917969 8.628906 19.917969 C 8.628906 19.921875 9.199219 20.183594 9.199219 20.183594 C 9.199219 20.183594 9.34375 19.871094 9.523438 19.488281 C 9.699219 19.105469 9.847656 18.792969 9.847656 18.792969 C 9.847656 18.792969 10.023438 18.691406 10.238281 18.566406 C 10.453125 18.441406 10.628906 18.339844 10.632812 18.339844 L 10.636719 18.335938 L 11.113281 18.773438 C 11.378906 19.015625 11.601562 19.222656 11.613281 19.234375 C 11.890625 19.484375 12.214844 19.6875 12.558594 19.835938 C 12.910156 19.984375 13.28125 20.070312 13.660156 20.09375 C 13.726562 20.097656 13.757812 20.097656 13.835938 20.101562 C 13.980469 20.101562 14.105469 20.09375 14.25 20.078125 C 14.292969 20.074219 14.269531 20.078125 14.660156 20.023438 C 14.835938 20 14.980469 19.980469 14.984375 19.980469 C 14.984375 19.980469 15.09375 20.128906 15.453125 20.613281 C 15.707031 20.960938 15.917969 21.246094 15.917969 21.25 C 15.921875 21.25 16.425781 20.875 16.425781 20.875 C 16.421875 20.867188 15.273438 19.304688 15.269531 19.304688 C 15.269531 19.304688 15.039062 19.335938 14.761719 19.371094 C 14.484375 19.410156 14.242188 19.445312 14.222656 19.445312 C 14.011719 19.472656 13.796875 19.476562 13.585938 19.453125 C 13.160156 19.410156 12.753906 19.265625 12.394531 19.039062 C 12.277344 18.960938 12.15625 18.871094 12.050781 18.777344 C 12.039062 18.765625 11.300781 18.089844 10.410156 17.269531 C 9.136719 16.101562 8.789062 15.78125 8.78125 15.773438 C 8.753906 15.730469 8.746094 15.679688 8.761719 15.632812 C 8.773438 15.609375 8.785156 15.597656 8.824219 15.554688 C 8.871094 15.511719 8.910156 15.476562 8.957031 15.441406 C 9.117188 15.328125 9.300781 15.265625 9.5 15.253906 C 9.53125 15.25 9.617188 15.253906 9.648438 15.253906 C 9.875 15.277344 10.074219 15.363281 10.242188 15.507812 C 10.265625 15.53125 10.277344 15.542969 10.785156 16.042969 C 11.015625 16.273438 11.210938 16.464844 11.214844 16.46875 C 11.300781 16.546875 11.40625 16.609375 11.519531 16.648438 C 11.585938 16.671875 11.648438 16.683594 11.722656 16.691406 C 11.753906 16.695312 11.839844 16.695312 11.871094 16.691406 C 11.992188 16.679688 12.09375 16.652344 12.195312 16.601562 C 12.375 16.507812 12.519531 16.355469 12.601562 16.167969 C 12.691406 15.957031 12.695312 15.714844 12.609375 15.503906 C 12.582031 15.4375 12.546875 15.371094 12.507812 15.316406 C 12.503906 15.308594 11.734375 14.265625 10.800781 12.996094 C 9.871094 11.726562 9.105469 10.683594 9.101562 10.679688 C 9.054688 10.609375 9.019531 10.523438 9.007812 10.4375 C 9.003906 10.410156 9.003906 10.347656 9.007812 10.316406 C 9.015625 10.203125 9.058594 10.097656 9.132812 10.007812 C 9.148438 9.984375 9.191406 9.941406 9.210938 9.925781 C 9.335938 9.824219 9.472656 9.785156 9.625 9.804688 C 9.695312 9.8125 9.761719 9.832031 9.824219 9.867188 C 9.890625 9.898438 9.933594 9.929688 9.984375 9.980469 C 10.011719 10.003906 10.03125 10.027344 10.046875 10.050781 C 10.054688 10.058594 10.570312 10.757812 11.191406 11.605469 C 11.8125 12.449219 12.324219 13.144531 12.324219 13.144531 C 12.324219 13.148438 12.34375 13.136719 12.578125 12.960938 C 12.71875 12.859375 12.832031 12.773438 12.832031 12.773438 C 12.832031 12.773438 12.632812 12.5 12.386719 12.164062 C 12.140625 11.828125 11.9375 11.554688 11.9375 11.554688 C 11.9375 11.550781 11.804688 11.375 11.644531 11.15625 C 11.179688 10.523438 10.574219 9.703125 10.34375 9.386719 C 10.226562 9.226562 10.105469 9.058594 10.070312 9.015625 C 10.003906 8.925781 9.996094 8.910156 9.980469 8.882812 C 9.945312 8.820312 9.921875 8.75 9.910156 8.671875 C 9.90625 8.652344 9.90625 8.644531 9.90625 8.605469 C 9.90625 8.554688 9.910156 8.535156 9.917969 8.488281 C 9.945312 8.363281 10.011719 8.25 10.109375 8.167969 C 10.183594 8.105469 10.273438 8.0625 10.367188 8.046875 C 10.40625 8.039062 10.421875 8.039062 10.472656 8.039062 C 10.523438 8.039062 10.539062 8.039062 10.582031 8.046875 C 10.679688 8.066406 10.773438 8.109375 10.847656 8.175781 C 10.871094 8.191406 10.902344 8.222656 10.917969 8.242188 C 10.929688 8.257812 11.128906 8.53125 11.523438 9.070312 C 11.5625 9.125 11.96875 9.679688 12.429688 10.300781 C 12.886719 10.921875 13.378906 11.59375 13.523438 11.789062 C 13.667969 11.984375 13.785156 12.148438 13.785156 12.144531 C 13.789062 12.144531 14.289062 11.777344 14.292969 11.777344 C 14.292969 11.773438 14.332031 11.824219 13.921875 11.265625 C 13.800781 11.105469 13.371094 10.519531 12.96875 9.96875 C 12.5625 9.414062 12.167969 8.882812 12.09375 8.78125 C 12.023438 8.679688 11.957031 8.59375 11.949219 8.582031 C 11.90625 8.519531 11.875 8.441406 11.863281 8.363281 C 11.855469 8.328125 11.855469 8.316406 11.855469 8.269531 C 11.855469 8.222656 11.859375 8.207031 11.863281 8.164062 C 11.890625 8.019531 11.972656 7.890625 12.097656 7.804688 C 12.171875 7.75 12.261719 7.714844 12.355469 7.703125 C 12.386719 7.699219 12.460938 7.699219 12.492188 7.703125 C 12.566406 7.714844 12.636719 7.734375 12.699219 7.769531 C 12.746094 7.796875 12.785156 7.828125 12.824219 7.867188 C 12.851562 7.890625 12.863281 7.90625 12.886719 7.9375 C 12.894531 7.949219 13.542969 8.828125 14.320312 9.890625 C 15.101562 10.953125 15.742188 11.820312 15.742188 11.820312 C 15.742188 11.820312 15.855469 11.738281 15.992188 11.636719 C 16.132812 11.535156 16.246094 11.449219 16.246094 11.449219 C 16.25 11.449219 16.234375 11.429688 16.089844 11.234375 C 16.003906 11.113281 15.601562 10.5625 15.195312 10.011719 C 14.789062 9.457031 14.449219 9 14.445312 8.992188 C 14.390625 8.90625 14.355469 8.8125 14.339844 8.703125 C 14.335938 8.675781 14.335938 8.601562 14.339844 8.570312 C 14.351562 8.488281 14.375 8.414062 14.414062 8.347656 C 14.492188 8.210938 14.640625 8.113281 14.800781 8.085938 C 14.835938 8.078125 14.855469 8.078125 14.898438 8.078125 C 14.9375 8.078125 14.957031 8.078125 14.996094 8.085938 C 15.132812 8.109375 15.253906 8.183594 15.339844 8.289062 C 15.351562 8.300781 18.292969 12.304688 18.351562 12.386719 C 18.585938 12.710938 18.796875 13.082031 18.957031 13.457031 C 19.226562 14.089844 19.375 14.757812 19.402344 15.445312 C 19.402344 15.484375 19.429688 16.542969 19.429688 16.566406 L 19.429688 16.578125 L 19.9375 17.273438 C 20.21875 17.652344 20.449219 17.964844 20.449219 17.964844 C 20.449219 17.964844 20.957031 17.59375 20.957031 17.59375 C 20.957031 17.59375 20.753906 17.316406 20.503906 16.976562 L 20.054688 16.367188 L 20.054688 16.355469 C 20.054688 16.351562 20.050781 16.144531 20.042969 15.898438 C 20.039062 15.652344 20.03125 15.4375 20.03125 15.417969 C 20.023438 15.226562 20.007812 15.054688 19.988281 14.875 C 19.859375 13.851562 19.476562 12.875 18.878906 12.039062 C 18.820312 11.957031 15.851562 7.917969 15.832031 7.894531 C 15.800781 7.859375 15.78125 7.835938 15.746094 7.796875 C 15.664062 7.71875 15.589844 7.660156 15.496094 7.605469 C 15.347656 7.523438 15.183594 7.46875 15.015625 7.453125 C 14.933594 7.445312 14.835938 7.445312 14.75 7.457031 C 14.542969 7.480469 14.347656 7.558594 14.179688 7.683594 C 14.035156 7.792969 13.925781 7.921875 13.84375 8.078125 C 13.835938 8.089844 13.828125 8.109375 13.824219 8.117188 C 13.820312 8.125 13.816406 8.132812 13.816406 8.132812 C 13.8125 8.132812 13.722656 8.007812 13.605469 7.851562 C 13.492188 7.695312 13.394531 7.5625 13.386719 7.550781 C 13.210938 7.320312 12.964844 7.160156 12.683594 7.097656 C 12.582031 7.074219 12.472656 7.066406 12.367188 7.070312 Z M 12.367188 7.070312 "/>
<path style=" stroke:none;fill-rule:nonzero;fill:rgb(0%,0%,0%);fill-opacity:1;" d="M 5.027344 7.90625 C 4.894531 7.917969 4.769531 7.960938 4.660156 8.03125 C 4.574219 8.089844 4.496094 8.164062 4.4375 8.253906 C 4.398438 8.316406 4.363281 8.390625 4.34375 8.460938 C 4.339844 8.476562 3.367188 12.402344 3.285156 12.734375 C 3.125 13.386719 3.160156 14.0625 3.390625 14.691406 C 3.433594 14.816406 3.480469 14.925781 3.542969 15.050781 C 3.609375 15.183594 3.675781 15.292969 3.757812 15.421875 C 3.800781 15.484375 3.828125 15.519531 4.042969 15.808594 C 4.152344 15.957031 4.242188 16.082031 4.242188 16.082031 C 4.242188 16.082031 4.074219 16.445312 3.867188 16.890625 C 3.660156 17.332031 3.488281 17.699219 3.488281 17.699219 C 3.488281 17.699219 3.554688 17.730469 3.773438 17.832031 C 3.929688 17.90625 4.058594 17.96875 4.058594 17.96875 C 4.0625 17.964844 4.265625 17.527344 4.515625 16.988281 L 4.972656 16.007812 L 4.972656 16.003906 C 4.96875 16 4.828125 15.808594 4.660156 15.582031 C 4.488281 15.351562 4.339844 15.152344 4.328125 15.136719 C 4.300781 15.097656 4.25 15.019531 4.226562 14.980469 C 4.15625 14.863281 4.09375 14.742188 4.039062 14.625 C 3.925781 14.355469 3.855469 14.074219 3.828125 13.785156 C 3.816406 13.648438 3.816406 13.503906 3.824219 13.367188 C 3.832031 13.222656 3.855469 13.070312 3.886719 12.929688 C 3.90625 12.847656 4.949219 8.636719 4.953125 8.625 C 4.96875 8.585938 5.007812 8.550781 5.050781 8.539062 C 5.0625 8.539062 5.066406 8.535156 5.085938 8.535156 C 5.105469 8.535156 5.105469 8.539062 5.125 8.542969 C 5.324219 8.59375 5.5 8.695312 5.636719 8.84375 C 5.734375 8.953125 5.8125 9.082031 5.859375 9.222656 C 5.886719 9.304688 5.902344 9.386719 5.910156 9.480469 C 5.914062 9.507812 5.914062 9.585938 5.910156 9.613281 C 5.90625 9.679688 5.894531 9.746094 5.878906 9.804688 C 5.878906 9.8125 5.75 10.261719 5.59375 10.800781 C 5.441406 11.339844 5.3125 11.78125 5.3125 11.785156 L 5.3125 11.789062 L 5.640625 11.941406 C 5.820312 12.023438 5.988281 12.105469 6.015625 12.117188 C 6.382812 12.292969 6.726562 12.542969 7.011719 12.84375 C 7.230469 13.070312 7.414062 13.320312 7.5625 13.597656 C 7.582031 13.632812 7.632812 13.738281 7.648438 13.769531 L 7.65625 13.785156 L 7.660156 13.78125 C 7.667969 13.78125 8.226562 13.519531 8.230469 13.519531 C 8.230469 13.519531 8.175781 13.40625 8.148438 13.351562 C 7.925781 12.925781 7.636719 12.550781 7.285156 12.226562 C 7.203125 12.148438 7.089844 12.054688 7.007812 11.992188 C 6.992188 11.980469 6.988281 11.976562 6.988281 11.972656 C 6.988281 11.972656 7.246094 11.382812 7.5625 10.660156 C 7.875 9.9375 8.132812 9.347656 8.132812 9.347656 C 8.132812 9.347656 7.558594 9.097656 7.554688 9.097656 C 7.554688 9.097656 7.308594 9.664062 7.003906 10.355469 C 6.703125 11.050781 6.457031 11.621094 6.453125 11.625 L 6.449219 11.628906 L 6.417969 11.613281 C 6.363281 11.582031 6.277344 11.542969 6.171875 11.492188 C 6.082031 11.453125 6.066406 11.445312 6.066406 11.441406 C 6.066406 11.441406 6.160156 11.113281 6.277344 10.714844 C 6.390625 10.316406 6.488281 9.976562 6.492188 9.953125 C 6.535156 9.78125 6.550781 9.597656 6.539062 9.417969 C 6.503906 8.96875 6.289062 8.554688 5.941406 8.265625 C 5.765625 8.117188 5.554688 8.007812 5.335938 7.945312 C 5.261719 7.925781 5.21875 7.914062 5.164062 7.910156 C 5.136719 7.90625 5.054688 7.90625 5.027344 7.90625 Z M 5.027344 7.90625 "/>
<path style=" stroke:none;fill-rule:nonzero;fill:rgb(0%,0%,0%);fill-opacity:1;" d="M 20.394531 8.253906 C 20.308594 8.261719 20.226562 8.273438 20.144531 8.289062 C 19.796875 8.367188 19.488281 8.566406 19.269531 8.851562 C 19.101562 9.078125 19 9.34375 18.976562 9.621094 C 18.972656 9.6875 18.96875 9.777344 18.972656 9.835938 C 18.984375 10.039062 19.035156 10.230469 19.121094 10.410156 C 19.210938 10.59375 19.332031 10.753906 19.484375 10.886719 C 19.714844 11.085938 20.003906 11.210938 20.308594 11.246094 C 20.367188 11.25 20.394531 11.253906 20.46875 11.253906 C 20.542969 11.253906 20.5625 11.253906 20.617188 11.246094 C 20.835938 11.226562 21.042969 11.15625 21.230469 11.046875 C 21.378906 10.960938 21.511719 10.847656 21.621094 10.714844 C 21.742188 10.570312 21.835938 10.40625 21.894531 10.226562 C 22 9.910156 21.996094 9.5625 21.882812 9.25 C 21.792969 9 21.640625 8.78125 21.4375 8.609375 C 21.234375 8.433594 20.984375 8.320312 20.71875 8.273438 C 20.671875 8.265625 20.625 8.261719 20.566406 8.257812 C 20.542969 8.253906 20.421875 8.253906 20.394531 8.253906 Z M 20.535156 8.886719 C 20.652344 8.898438 20.757812 8.925781 20.859375 8.976562 C 21.011719 9.050781 21.136719 9.167969 21.222656 9.316406 C 21.238281 9.34375 21.265625 9.398438 21.277344 9.425781 C 21.3125 9.515625 21.332031 9.601562 21.335938 9.695312 C 21.339844 9.738281 21.339844 9.804688 21.335938 9.851562 C 21.316406 10.011719 21.253906 10.164062 21.152344 10.292969 C 21.023438 10.457031 20.839844 10.566406 20.636719 10.609375 C 20.472656 10.640625 20.304688 10.625 20.148438 10.5625 C 20.117188 10.550781 20.0625 10.523438 20.035156 10.503906 C 19.800781 10.371094 19.644531 10.136719 19.609375 9.871094 C 19.601562 9.828125 19.601562 9.808594 19.601562 9.753906 C 19.601562 9.6875 19.605469 9.644531 19.617188 9.589844 C 19.667969 9.324219 19.839844 9.097656 20.078125 8.976562 C 20.1875 8.921875 20.300781 8.894531 20.425781 8.886719 C 20.449219 8.882812 20.507812 8.886719 20.535156 8.886719 Z M 20.535156 8.886719 "/>
</g>
</svg>
