<?xml version="1.0" encoding="UTF-8"?>
<svg xmlns="http://www.w3.org/2000/svg" xmlns:xlink="http://www.w3.org/1999/xlink" viewBox="0 0 24 24" version="1.1">
<g>
<path style=" stroke:none;fill-rule:nonzero;fill:rgb(0%,0%,0%);fill-opacity:1;" d="M 14.175781 4.871094 C 14.054688 4.882812 13.953125 4.921875 13.867188 4.996094 C 13.835938 5.019531 10 8.386719 10 8.386719 C 10 8.386719 10.03125 8.425781 10.070312 8.46875 C 10.105469 8.511719 10.136719 8.550781 10.136719 8.550781 C 10.136719 8.550781 10.023438 8.648438 9.886719 8.769531 C 9.734375 8.90625 9.628906 8.996094 9.617188 9.007812 C 9.550781 9.078125 9.507812 9.164062 9.492188 9.265625 C 9.488281 9.289062 9.488281 9.347656 9.492188 9.375 C 9.496094 9.4375 9.515625 9.5 9.542969 9.554688 C 9.554688 9.574219 9.578125 9.605469 9.589844 9.621094 C 9.597656 9.632812 10.074219 10.175781 10.09375 10.199219 C 10.144531 10.25 10.214844 10.296875 10.285156 10.320312 C 10.335938 10.335938 10.378906 10.34375 10.433594 10.34375 C 10.539062 10.34375 10.640625 10.308594 10.722656 10.242188 C 10.730469 10.238281 10.847656 10.136719 10.984375 10.015625 C 11.121094 9.898438 11.230469 9.800781 11.234375 9.800781 C 11.234375 9.800781 11.265625 9.835938 11.300781 9.878906 C 11.339844 9.921875 11.371094 9.957031 11.371094 9.957031 C 11.371094 9.957031 11.4375 9.898438 11.519531 9.828125 C 11.675781 9.691406 11.699219 9.671875 11.738281 9.644531 C 11.765625 9.621094 11.808594 9.589844 11.808594 9.589844 C 11.808594 9.589844 11.886719 9.703125 11.933594 9.769531 C 12.257812 10.25 12.410156 10.660156 12.441406 11.144531 C 12.449219 11.21875 12.449219 11.242188 12.449219 11.355469 C 12.449219 11.515625 12.445312 11.542969 12.425781 11.792969 C 12.417969 11.867188 12.414062 11.929688 12.414062 11.929688 C 12.414062 11.929688 12.664062 11.984375 12.96875 12.050781 C 13.480469 12.160156 13.523438 12.167969 13.523438 12.167969 C 13.527344 12.164062 13.625 11.976562 13.632812 11.960938 C 13.710938 11.808594 13.785156 11.601562 13.832031 11.410156 C 13.878906 11.222656 13.90625 11.058594 13.917969 10.859375 C 13.917969 10.820312 13.921875 10.671875 13.917969 10.628906 C 13.910156 10.445312 13.886719 10.28125 13.84375 10.113281 C 13.839844 10.113281 13.839844 10.109375 13.839844 10.109375 C 13.835938 10.109375 13.316406 10.25 13.316406 10.25 C 13.316406 10.25 13.320312 10.269531 13.324219 10.289062 C 13.363281 10.4375 13.378906 10.589844 13.375 10.75 C 13.375 10.8125 13.375 10.839844 13.371094 10.894531 C 13.351562 11.097656 13.304688 11.308594 13.234375 11.515625 C 13.226562 11.53125 13.222656 11.546875 13.21875 11.546875 C 13.21875 11.546875 13.167969 11.535156 13.105469 11.523438 L 12.992188 11.496094 L 12.992188 11.484375 C 12.992188 11.480469 12.992188 11.441406 12.992188 11.398438 C 12.996094 11.148438 12.972656 10.90625 12.925781 10.683594 C 12.835938 10.246094 12.648438 9.839844 12.328125 9.382812 C 12.316406 9.367188 12.308594 9.355469 12.308594 9.355469 C 12.3125 9.355469 12.375 9.339844 12.402344 9.332031 C 12.46875 9.316406 12.550781 9.304688 12.621094 9.300781 C 12.714844 9.292969 12.8125 9.292969 12.90625 9.300781 C 13.265625 9.332031 13.605469 9.472656 13.871094 9.710938 C 13.917969 9.75 13.984375 9.8125 14.015625 9.847656 C 14.019531 9.855469 14.175781 10.03125 14.363281 10.246094 C 14.550781 10.460938 14.703125 10.636719 14.703125 10.636719 C 14.707031 10.640625 14.707031 10.640625 14.699219 10.667969 C 14.652344 10.8125 14.640625 10.96875 14.671875 11.121094 C 14.695312 11.234375 14.738281 11.347656 14.804688 11.445312 C 14.820312 11.46875 14.847656 11.507812 14.863281 11.527344 C 14.871094 11.53125 15.171875 11.875 15.53125 12.289062 C 15.890625 12.699219 16.191406 13.039062 16.195312 13.042969 C 16.226562 13.082031 16.25 13.132812 16.261719 13.183594 C 16.269531 13.214844 16.273438 13.230469 16.273438 13.269531 C 16.273438 13.300781 16.269531 13.335938 16.210938 14 C 16.175781 14.382812 16.148438 14.699219 16.148438 14.699219 C 16.148438 14.699219 16.679688 14.746094 16.683594 14.746094 C 16.691406 14.746094 16.691406 14.746094 16.691406 14.738281 C 16.691406 14.734375 16.71875 14.414062 16.753906 14.03125 L 16.8125 13.332031 L 16.816406 13.28125 C 16.816406 13.230469 16.816406 13.203125 16.808594 13.164062 C 16.792969 13.023438 16.742188 12.886719 16.664062 12.769531 C 16.652344 12.746094 16.625 12.710938 16.609375 12.691406 C 16.601562 12.683594 16.300781 12.339844 15.9375 11.925781 C 15.578125 11.515625 15.277344 11.167969 15.269531 11.164062 C 15.230469 11.109375 15.207031 11.042969 15.199219 10.980469 C 15.195312 10.953125 15.199219 10.910156 15.203125 10.882812 C 15.214844 10.808594 15.25 10.746094 15.300781 10.691406 C 15.3125 10.675781 16.894531 9.292969 16.914062 9.277344 C 16.941406 9.257812 16.953125 9.246094 16.96875 9.238281 C 17.058594 9.183594 17.167969 9.175781 17.265625 9.207031 C 17.28125 9.214844 17.390625 9.253906 17.464844 9.285156 C 18.816406 9.804688 20.097656 10.484375 21.285156 11.3125 C 21.519531 11.472656 21.757812 11.648438 21.976562 11.820312 C 22.007812 11.839844 22.03125 11.859375 22.03125 11.859375 C 22.03125 11.855469 22.359375 11.429688 22.363281 11.429688 C 22.363281 11.425781 22.15625 11.269531 22.007812 11.160156 C 20.941406 10.375 19.796875 9.707031 18.589844 9.164062 C 18.234375 9.003906 17.867188 8.851562 17.503906 8.714844 C 17.4375 8.691406 17.410156 8.683594 17.371094 8.671875 C 17.300781 8.65625 17.242188 8.648438 17.167969 8.644531 C 17.050781 8.644531 16.941406 8.664062 16.832031 8.703125 C 16.808594 8.710938 16.808594 8.710938 16.804688 8.710938 C 16.800781 8.703125 16.15625 7.96875 16.140625 7.949219 C 15.976562 7.761719 15.902344 7.515625 15.933594 7.269531 C 15.957031 7.085938 16.035156 6.917969 16.160156 6.78125 C 16.1875 6.753906 16.199219 6.746094 16.300781 6.65625 C 16.40625 6.5625 16.414062 6.554688 16.433594 6.535156 C 16.511719 6.445312 16.558594 6.347656 16.574219 6.226562 C 16.578125 6.207031 16.578125 6.128906 16.574219 6.105469 C 16.5625 6 16.523438 5.90625 16.457031 5.824219 C 16.4375 5.804688 16.398438 5.761719 16.375 5.742188 C 16.34375 5.71875 16.300781 5.691406 16.269531 5.675781 C 16.25 5.667969 14.425781 4.910156 14.402344 4.902344 C 14.367188 4.890625 14.324219 4.878906 14.28125 4.875 C 14.265625 4.871094 14.1875 4.867188 14.175781 4.871094 Z M 15.132812 5.792969 C 15.625 5.996094 16.03125 6.164062 16.03125 6.167969 C 16.03125 6.167969 15.992188 6.203125 15.941406 6.246094 C 15.820312 6.351562 15.792969 6.378906 15.742188 6.433594 C 15.554688 6.644531 15.429688 6.917969 15.394531 7.199219 C 15.386719 7.257812 15.386719 7.289062 15.382812 7.359375 C 15.382812 7.4375 15.386719 7.488281 15.394531 7.554688 C 15.417969 7.75 15.484375 7.945312 15.585938 8.113281 C 15.597656 8.128906 15.601562 8.132812 15.597656 8.132812 C 15.597656 8.136719 15.292969 8.402344 14.925781 8.722656 C 14.554688 9.046875 14.253906 9.3125 14.25 9.3125 C 14.25 9.316406 14.246094 9.316406 14.234375 9.300781 C 14.148438 9.230469 14.054688 9.15625 13.960938 9.097656 C 13.675781 8.917969 13.355469 8.804688 13.023438 8.765625 C 12.824219 8.742188 12.621094 8.746094 12.425781 8.777344 C 12.148438 8.820312 11.886719 8.910156 11.644531 9.050781 C 11.59375 9.082031 11.523438 9.125 11.476562 9.160156 C 11.464844 9.167969 11.457031 9.175781 11.453125 9.175781 C 11.453125 9.175781 10.789062 8.417969 10.789062 8.417969 C 10.789062 8.417969 11.5625 7.742188 12.503906 6.914062 L 14.214844 5.414062 L 14.226562 5.417969 C 14.230469 5.417969 14.640625 5.589844 15.132812 5.792969 Z M 16.15625 8.792969 C 16.269531 8.925781 16.363281 9.03125 16.363281 9.03125 C 16.367188 9.03125 16.070312 9.292969 15.707031 9.609375 C 15.34375 9.929688 15.046875 10.191406 15.042969 10.191406 L 15.039062 10.195312 L 14.832031 9.957031 C 14.714844 9.824219 14.621094 9.714844 14.621094 9.714844 C 14.621094 9.714844 14.917969 9.453125 15.285156 9.132812 C 15.765625 8.710938 15.945312 8.554688 15.945312 8.554688 C 15.949219 8.554688 16.042969 8.664062 16.15625 8.792969 Z M 10.683594 9.171875 C 10.785156 9.289062 10.871094 9.386719 10.871094 9.386719 C 10.875 9.390625 10.851562 9.40625 10.65625 9.578125 C 10.480469 9.734375 10.441406 9.769531 10.4375 9.765625 C 10.4375 9.765625 10.070312 9.34375 10.066406 9.339844 C 10.0625 9.339844 10.085938 9.320312 10.28125 9.148438 C 10.398438 9.042969 10.5 8.960938 10.5 8.960938 C 10.5 8.960938 10.582031 9.054688 10.683594 9.171875 Z M 10.683594 9.171875 "/>
<path style=" stroke:none;fill-rule:nonzero;fill:rgb(0%,0%,0%);fill-opacity:1;" d="M 4.769531 7.625 C 4.65625 7.722656 4.5625 7.800781 4.5625 7.800781 C 4.5625 7.804688 6.015625 9.511719 6.019531 9.515625 C 6.019531 9.515625 6.230469 9.566406 6.484375 9.628906 C 6.742188 9.691406 6.972656 9.746094 6.996094 9.753906 C 7.121094 9.785156 7.25 9.824219 7.378906 9.871094 C 7.394531 9.878906 7.410156 9.882812 7.410156 9.882812 C 7.410156 9.882812 7.597656 9.375 7.597656 9.371094 C 7.59375 9.371094 7.554688 9.355469 7.515625 9.34375 C 7.382812 9.296875 7.246094 9.257812 7.113281 9.222656 C 7.09375 9.214844 6.910156 9.171875 6.699219 9.121094 C 6.488281 9.070312 6.316406 9.027344 6.316406 9.027344 C 6.316406 9.023438 6.011719 8.671875 5.644531 8.238281 C 5.277344 7.804688 4.976562 7.449219 4.976562 7.449219 C 4.976562 7.449219 4.882812 7.527344 4.769531 7.625 Z M 4.769531 7.625 "/>
<path style=" stroke:none;fill-rule:nonzero;fill:rgb(0%,0%,0%);fill-opacity:1;" d="M 8.511719 10.714844 C 8.371094 10.832031 8.261719 10.933594 8.261719 10.933594 C 8.261719 10.933594 8.617188 11.339844 8.617188 11.34375 C 8.617188 11.34375 9.117188 10.90625 9.117188 10.902344 C 9.121094 10.902344 9.070312 10.847656 8.941406 10.699219 C 8.84375 10.585938 8.761719 10.496094 8.761719 10.496094 C 8.761719 10.496094 8.648438 10.59375 8.511719 10.714844 Z M 8.511719 10.714844 "/>
<path style=" stroke:none;fill-rule:nonzero;fill:rgb(0%,0%,0%);fill-opacity:1;" d="M 7.074219 10.957031 C 6.933594 11.078125 6.820312 11.179688 6.820312 11.179688 C 6.820312 11.179688 7.175781 11.585938 7.179688 11.585938 C 7.179688 11.585938 7.679688 11.148438 7.679688 11.148438 C 7.679688 11.144531 7.324219 10.742188 7.324219 10.738281 C 7.324219 10.738281 7.210938 10.835938 7.074219 10.957031 Z M 7.074219 10.957031 "/>
<path style=" stroke:none;fill-rule:nonzero;fill:rgb(0%,0%,0%);fill-opacity:1;" d="M 5.632812 11.203125 C 5.496094 11.324219 5.382812 11.425781 5.382812 11.425781 C 5.382812 11.425781 5.738281 11.832031 5.738281 11.832031 C 5.742188 11.832031 6.242188 11.394531 6.242188 11.394531 C 6.242188 11.390625 5.886719 10.984375 5.882812 10.984375 C 5.882812 10.984375 5.773438 11.082031 5.632812 11.203125 Z M 5.632812 11.203125 "/>
<path style=" stroke:none;fill-rule:nonzero;fill:rgb(0%,0%,0%);fill-opacity:1;" d="M 1.648438 11.429688 C 1.539062 11.53125 1.445312 11.609375 1.445312 11.609375 C 1.445312 11.613281 1.648438 11.839844 1.894531 12.121094 C 2.140625 12.402344 2.34375 12.628906 2.34375 12.628906 C 2.34375 12.632812 2.296875 12.757812 2.238281 12.914062 C 2.183594 13.066406 2.128906 13.210938 2.125 13.230469 C 2.042969 13.46875 1.992188 13.714844 1.976562 13.964844 C 1.972656 14.03125 1.972656 14.046875 1.96875 14.136719 C 1.96875 14.230469 1.972656 14.277344 1.976562 14.34375 C 1.996094 14.675781 2.074219 15.003906 2.203125 15.304688 C 2.238281 15.386719 2.289062 15.488281 2.328125 15.5625 C 2.339844 15.585938 2.703125 16.207031 3.136719 16.949219 C 3.570312 17.691406 4 18.429688 4.097656 18.59375 C 4.191406 18.761719 4.277344 18.902344 4.285156 18.914062 C 4.339844 18.996094 4.417969 19.070312 4.503906 19.121094 C 4.523438 19.132812 4.566406 19.152344 4.589844 19.160156 C 4.738281 19.21875 4.898438 19.226562 5.050781 19.175781 C 5.113281 19.152344 5.167969 19.125 5.25 19.070312 C 5.441406 18.945312 5.597656 18.773438 5.710938 18.570312 C 5.726562 18.539062 5.757812 18.476562 5.773438 18.445312 C 5.832031 18.304688 5.867188 18.164062 5.882812 18.019531 C 5.890625 17.929688 5.890625 17.835938 5.882812 17.753906 C 5.867188 17.535156 5.796875 17.328125 5.6875 17.140625 C 5.679688 17.128906 5.539062 16.90625 5.375 16.648438 C 5.210938 16.390625 5.074219 16.171875 5.070312 16.164062 C 5.0625 16.148438 5.054688 16.125 5.050781 16.109375 C 5.046875 16.089844 5.046875 16.054688 5.050781 16.039062 C 5.066406 15.960938 5.121094 15.898438 5.191406 15.875 C 5.21875 15.867188 5.246094 15.867188 5.269531 15.867188 C 5.320312 15.871094 5.363281 15.890625 5.398438 15.925781 C 5.40625 15.933594 6.148438 16.773438 7.042969 17.792969 C 7.941406 18.808594 8.683594 19.652344 8.691406 19.664062 C 8.78125 19.757812 8.898438 19.839844 9.023438 19.894531 C 9.230469 19.988281 9.46875 20.007812 9.691406 19.953125 C 9.863281 19.910156 10.015625 19.828125 10.144531 19.707031 C 10.246094 19.613281 10.332031 19.496094 10.386719 19.367188 C 10.390625 19.351562 10.410156 19.3125 10.414062 19.300781 C 10.414062 19.296875 10.414062 19.296875 10.417969 19.300781 C 10.492188 19.363281 10.554688 19.40625 10.632812 19.441406 C 10.753906 19.5 10.878906 19.535156 11.019531 19.546875 C 11.046875 19.546875 11.132812 19.546875 11.160156 19.546875 C 11.347656 19.53125 11.511719 19.472656 11.664062 19.375 C 11.898438 19.214844 12.058594 18.96875 12.105469 18.6875 C 12.121094 18.597656 12.125 18.503906 12.117188 18.414062 C 12.101562 18.25 12.046875 18.09375 11.960938 17.957031 C 11.957031 17.953125 11.953125 17.945312 11.953125 17.945312 C 11.953125 17.945312 11.964844 17.941406 11.984375 17.9375 C 12.140625 17.898438 12.285156 17.820312 12.410156 17.710938 C 12.429688 17.695312 12.472656 17.652344 12.492188 17.628906 C 12.738281 17.359375 12.824219 16.980469 12.714844 16.632812 C 12.699219 16.578125 12.679688 16.53125 12.65625 16.480469 C 12.621094 16.40625 12.578125 16.34375 12.527344 16.28125 C 12.519531 16.269531 12.417969 16.15625 12.304688 16.027344 C 12.191406 15.898438 12.097656 15.792969 12.097656 15.792969 C 12.097656 15.789062 12.101562 15.789062 12.113281 15.785156 C 12.222656 15.761719 12.335938 15.710938 12.433594 15.648438 C 12.511719 15.59375 12.585938 15.53125 12.648438 15.460938 C 12.84375 15.234375 12.929688 14.933594 12.886719 14.636719 C 12.859375 14.453125 12.785156 14.28125 12.667969 14.136719 C 12.644531 14.109375 10.558594 11.738281 10.554688 11.738281 C 10.550781 11.738281 10.148438 12.09375 10.148438 12.097656 C 10.148438 12.097656 10.621094 12.632812 11.195312 13.285156 C 11.769531 13.9375 12.242188 14.472656 12.246094 14.480469 C 12.296875 14.542969 12.328125 14.613281 12.34375 14.691406 C 12.351562 14.726562 12.351562 14.742188 12.351562 14.785156 C 12.351562 14.832031 12.351562 14.84375 12.34375 14.882812 C 12.316406 15.011719 12.242188 15.121094 12.128906 15.195312 C 12.070312 15.234375 12.003906 15.257812 11.925781 15.265625 C 11.90625 15.269531 11.851562 15.269531 11.828125 15.265625 C 11.789062 15.261719 11.75 15.253906 11.714844 15.242188 C 11.632812 15.214844 11.554688 15.167969 11.496094 15.105469 C 11.484375 15.09375 10.675781 14.179688 9.90625 13.300781 C 9.824219 13.207031 9.753906 13.132812 9.753906 13.132812 C 9.753906 13.132812 9.347656 13.488281 9.347656 13.492188 C 9.347656 13.492188 9.964844 14.195312 10.722656 15.054688 C 11.480469 15.914062 12.101562 16.617188 12.105469 16.621094 C 12.15625 16.6875 12.195312 16.765625 12.210938 16.847656 C 12.21875 16.902344 12.21875 16.96875 12.210938 17.023438 C 12.199219 17.085938 12.175781 17.144531 12.144531 17.195312 C 12.085938 17.289062 11.992188 17.363281 11.886719 17.398438 C 11.761719 17.441406 11.625 17.433594 11.507812 17.371094 C 11.460938 17.347656 11.425781 17.324219 11.386719 17.285156 C 11.367188 17.265625 11.09375 16.957031 10.273438 16.023438 C 9.675781 15.34375 9.171875 14.773438 9.152344 14.753906 C 9.136719 14.734375 9.121094 14.71875 9.121094 14.71875 C 9.117188 14.71875 8.714844 15.078125 8.714844 15.078125 C 8.714844 15.078125 8.769531 15.140625 8.835938 15.214844 C 9.199219 15.628906 10.738281 17.378906 11.070312 17.75 C 11.28125 17.992188 11.457031 18.195312 11.464844 18.199219 C 11.585938 18.347656 11.613281 18.554688 11.53125 18.726562 C 11.460938 18.871094 11.324219 18.972656 11.167969 18.996094 C 11.136719 19.003906 11.113281 19.003906 11.074219 19.003906 C 11.042969 19.003906 11.019531 19 10.992188 18.996094 C 10.886719 18.972656 10.796875 18.921875 10.722656 18.839844 C 10.714844 18.832031 10.292969 18.355469 9.789062 17.78125 C 8.332031 16.128906 8.011719 15.765625 8.011719 15.765625 C 8.011719 15.765625 7.917969 15.84375 7.804688 15.941406 C 7.625 16.101562 7.601562 16.121094 7.605469 16.125 C 7.605469 16.125 8.097656 16.683594 8.699219 17.367188 C 9.300781 18.046875 9.796875 18.609375 9.800781 18.617188 C 9.859375 18.6875 9.902344 18.78125 9.917969 18.871094 C 9.925781 18.914062 9.925781 18.972656 9.921875 19.011719 C 9.90625 19.148438 9.84375 19.257812 9.734375 19.34375 C 9.664062 19.394531 9.585938 19.425781 9.496094 19.4375 C 9.472656 19.441406 9.40625 19.4375 9.382812 19.4375 C 9.324219 19.429688 9.273438 19.414062 9.222656 19.390625 C 9.171875 19.363281 9.121094 19.324219 9.082031 19.285156 C 9.078125 19.277344 8.335938 18.4375 7.441406 17.417969 C 6.441406 16.285156 5.800781 15.558594 5.789062 15.546875 C 5.75 15.507812 5.714844 15.476562 5.667969 15.449219 C 5.636719 15.425781 5.617188 15.414062 5.582031 15.398438 C 5.484375 15.351562 5.382812 15.328125 5.269531 15.324219 C 5.015625 15.316406 4.773438 15.441406 4.632812 15.65625 C 4.605469 15.699219 4.582031 15.738281 4.5625 15.78125 C 4.492188 15.949219 4.484375 16.140625 4.542969 16.3125 C 4.558594 16.355469 4.582031 16.40625 4.605469 16.445312 C 4.609375 16.453125 4.746094 16.671875 4.914062 16.933594 C 5.078125 17.191406 5.21875 17.414062 5.222656 17.425781 C 5.316406 17.578125 5.355469 17.761719 5.34375 17.941406 C 5.328125 18.121094 5.261719 18.292969 5.148438 18.433594 C 5.125 18.464844 5.109375 18.480469 5.082031 18.507812 C 5.03125 18.558594 4.972656 18.605469 4.910156 18.640625 C 4.878906 18.660156 4.863281 18.664062 4.835938 18.664062 C 4.8125 18.664062 4.789062 18.65625 4.769531 18.644531 C 4.757812 18.636719 4.742188 18.621094 4.734375 18.605469 C 4.726562 18.59375 2.839844 15.363281 2.824219 15.332031 C 2.71875 15.152344 2.636719 14.945312 2.585938 14.738281 C 2.546875 14.585938 2.523438 14.445312 2.515625 14.28125 C 2.511719 14.238281 2.511719 14.089844 2.515625 14.050781 C 2.527344 13.847656 2.554688 13.675781 2.609375 13.492188 C 2.628906 13.433594 2.652344 13.363281 2.804688 12.949219 C 2.890625 12.710938 2.964844 12.515625 2.964844 12.515625 C 2.964844 12.511719 1.855469 11.253906 1.851562 11.253906 C 1.851562 11.253906 1.761719 11.332031 1.648438 11.429688 Z M 1.648438 11.429688 "/>
<path style=" stroke:none;fill-rule:nonzero;fill:rgb(0%,0%,0%);fill-opacity:1;" d="M 8.078125 12.109375 C 7.941406 12.226562 7.828125 12.328125 7.828125 12.328125 C 7.828125 12.332031 8.183594 12.734375 8.1875 12.734375 C 8.1875 12.734375 8.6875 12.296875 8.6875 12.296875 C 8.6875 12.292969 8.332031 11.890625 8.332031 11.886719 C 8.328125 11.886719 8.214844 11.988281 8.078125 12.109375 Z M 8.078125 12.109375 "/>
<path style=" stroke:none;fill-rule:nonzero;fill:rgb(0%,0%,0%);fill-opacity:1;" d="M 6.640625 12.351562 C 6.503906 12.472656 6.390625 12.574219 6.390625 12.574219 C 6.390625 12.574219 6.742188 12.980469 6.746094 12.980469 C 6.75 12.980469 7.25 12.542969 7.25 12.542969 C 7.25 12.539062 6.894531 12.136719 6.890625 12.132812 C 6.890625 12.132812 6.777344 12.230469 6.640625 12.351562 Z M 6.640625 12.351562 "/>
<path style=" stroke:none;fill-rule:nonzero;fill:rgb(0%,0%,0%);fill-opacity:1;" d="M 7.648438 13.5 C 7.511719 13.621094 7.398438 13.722656 7.398438 13.722656 C 7.398438 13.726562 7.753906 14.128906 7.753906 14.128906 C 7.757812 14.128906 8.253906 13.691406 8.253906 13.691406 C 8.253906 13.6875 7.902344 13.285156 7.898438 13.28125 C 7.898438 13.28125 7.84375 13.328125 7.648438 13.5 Z M 7.648438 13.5 "/>
</g>
</svg>
