<?xml version="1.0" encoding="UTF-8"?>
<svg xmlns="http://www.w3.org/2000/svg" xmlns:xlink="http://www.w3.org/1999/xlink" viewBox="0 0 24 24" version="1.1">
<g>
<path style=" stroke:none;fill-rule:nonzero;fill:rgb(0%,0%,0%);fill-opacity:1;" d="M 13.070312 2.167969 C 12.640625 2.175781 12.226562 2.351562 11.917969 2.65625 C 11.652344 2.921875 11.484375 3.261719 11.441406 3.632812 C 11.429688 3.699219 11.429688 3.742188 11.425781 3.816406 C 11.425781 3.972656 11.441406 4.105469 11.476562 4.253906 C 11.546875 4.523438 11.683594 4.777344 11.875 4.980469 C 11.902344 5.007812 11.953125 5.058594 11.976562 5.082031 C 12.246094 5.324219 12.582031 5.472656 12.941406 5.507812 C 13 5.511719 13.019531 5.511719 13.097656 5.511719 C 13.191406 5.511719 13.230469 5.511719 13.308594 5.5 C 13.621094 5.460938 13.914062 5.335938 14.160156 5.136719 C 14.402344 4.9375 14.589844 4.667969 14.6875 4.367188 C 14.78125 4.089844 14.796875 3.792969 14.738281 3.503906 C 14.625 2.949219 14.230469 2.480469 13.695312 2.277344 C 13.542969 2.21875 13.386719 2.183594 13.21875 2.171875 C 13.195312 2.171875 13.175781 2.167969 13.109375 2.167969 C 13.101562 2.167969 13.082031 2.167969 13.070312 2.167969 Z M 13.148438 2.914062 C 13.285156 2.921875 13.414062 2.957031 13.535156 3.023438 C 13.644531 3.082031 13.746094 3.164062 13.828125 3.265625 C 13.902344 3.359375 13.957031 3.46875 13.992188 3.585938 C 14.023438 3.699219 14.035156 3.824219 14.019531 3.941406 C 13.996094 4.1875 13.871094 4.410156 13.679688 4.5625 C 13.464844 4.734375 13.1875 4.804688 12.917969 4.75 C 12.695312 4.707031 12.496094 4.582031 12.359375 4.398438 C 12.207031 4.191406 12.144531 3.9375 12.1875 3.683594 C 12.207031 3.558594 12.253906 3.4375 12.328125 3.332031 C 12.449219 3.144531 12.632812 3.007812 12.847656 2.949219 C 12.941406 2.921875 13.050781 2.910156 13.148438 2.914062 Z M 13.148438 2.914062 "/>
<path style=" stroke:none;fill-rule:nonzero;fill:rgb(0%,0%,0%);fill-opacity:1;" d="M 11.632812 5.992188 C 11.554688 5.992188 11.484375 6 11.414062 6.011719 C 11.0625 6.078125 10.742188 6.265625 10.515625 6.539062 C 10.40625 6.675781 10.320312 6.832031 10.257812 7 C 10.25 7.023438 8.613281 12.066406 8.601562 12.101562 C 8.570312 12.210938 8.546875 12.320312 8.539062 12.441406 C 8.535156 12.5 8.535156 12.601562 8.542969 12.664062 C 8.554688 12.832031 8.597656 12.992188 8.664062 13.144531 C 8.667969 13.15625 8.933594 13.71875 9.25 14.394531 C 9.566406 15.070312 9.824219 15.621094 9.824219 15.625 C 9.828125 15.625 9.511719 16.304688 9.121094 17.136719 C 8.734375 17.96875 8.414062 18.664062 8.40625 18.679688 C 8.335938 18.84375 8.296875 19.015625 8.285156 19.199219 C 8.285156 19.238281 8.285156 19.34375 8.289062 19.378906 C 8.296875 19.476562 8.308594 19.554688 8.332031 19.644531 C 8.378906 19.832031 8.464844 20.015625 8.578125 20.167969 C 8.652344 20.265625 8.734375 20.359375 8.828125 20.433594 C 9.0625 20.628906 9.359375 20.753906 9.660156 20.78125 C 9.714844 20.785156 9.730469 20.789062 9.800781 20.789062 C 9.875 20.789062 9.890625 20.785156 9.949219 20.78125 C 10.269531 20.75 10.574219 20.617188 10.8125 20.398438 C 10.839844 20.375 10.894531 20.320312 10.921875 20.292969 C 11.015625 20.191406 11.097656 20.074219 11.15625 19.953125 C 11.167969 19.925781 12.882812 16.25 12.894531 16.222656 C 12.957031 16.078125 12.996094 15.917969 13.011719 15.761719 C 13.015625 15.710938 13.015625 15.6875 13.015625 15.621094 C 13.015625 15.558594 13.015625 15.535156 13.011719 15.484375 C 12.996094 15.320312 12.953125 15.15625 12.886719 15.007812 C 12.882812 14.996094 12.609375 14.414062 12.28125 13.710938 L 11.679688 12.4375 L 11.933594 11.65625 C 12.074219 11.226562 12.1875 10.875 12.191406 10.875 C 12.191406 10.871094 12.320312 11.058594 12.800781 11.746094 C 13.136719 12.226562 13.417969 12.628906 13.429688 12.640625 C 13.519531 12.765625 13.636719 12.878906 13.761719 12.96875 C 13.980469 13.128906 14.242188 13.226562 14.515625 13.25 C 14.546875 13.25 14.582031 13.253906 14.597656 13.253906 C 14.605469 13.253906 14.609375 13.253906 14.609375 13.253906 C 14.609375 13.253906 14.605469 13.261719 14.605469 13.269531 C 14.566406 13.394531 14.546875 13.511719 14.542969 13.644531 C 14.539062 13.695312 14.539062 14.003906 14.542969 14.03125 C 14.546875 14.089844 14.5625 14.144531 14.589844 14.191406 C 14.671875 14.339844 14.84375 14.410156 15.007812 14.367188 C 15.03125 14.363281 15.050781 14.355469 15.078125 14.34375 C 15.195312 14.285156 15.273438 14.171875 15.285156 14.042969 C 15.285156 14.03125 15.285156 13.960938 15.285156 13.847656 C 15.285156 13.742188 15.289062 13.660156 15.289062 13.648438 C 15.296875 13.539062 15.328125 13.441406 15.382812 13.351562 C 15.449219 13.238281 15.554688 13.144531 15.675781 13.09375 C 15.742188 13.0625 15.800781 13.046875 15.878906 13.039062 C 15.902344 13.035156 15.984375 13.035156 16.011719 13.039062 C 16.128906 13.054688 16.238281 13.09375 16.332031 13.164062 C 16.378906 13.199219 16.429688 13.25 16.464844 13.300781 C 16.515625 13.367188 16.554688 13.445312 16.574219 13.527344 C 16.582031 13.554688 16.585938 13.578125 16.59375 13.625 C 16.59375 13.636719 16.59375 14.433594 16.59375 17.042969 C 16.59375 20.289062 16.59375 20.449219 16.597656 20.464844 C 16.605469 20.515625 16.621094 20.5625 16.644531 20.601562 C 16.703125 20.703125 16.808594 20.773438 16.925781 20.785156 C 16.976562 20.792969 17.03125 20.785156 17.078125 20.769531 C 17.136719 20.753906 17.183594 20.726562 17.226562 20.683594 C 17.289062 20.625 17.324219 20.550781 17.339844 20.464844 C 17.339844 20.445312 17.339844 20.300781 17.339844 17.039062 C 17.339844 14.273438 17.339844 13.628906 17.339844 13.605469 C 17.328125 13.476562 17.308594 13.367188 17.269531 13.253906 C 17.121094 12.796875 16.746094 12.445312 16.277344 12.332031 C 16.21875 12.316406 16.140625 12.300781 16.085938 12.296875 C 16.070312 12.296875 16.058594 12.292969 16.058594 12.292969 C 16.058594 12.292969 16.0625 12.285156 16.066406 12.273438 C 16.117188 12.140625 16.148438 12 16.160156 11.847656 C 16.164062 11.808594 16.164062 11.703125 16.160156 11.664062 C 16.152344 11.503906 16.125 11.355469 16.070312 11.210938 C 16.027344 11.101562 15.972656 10.992188 15.90625 10.894531 C 15.886719 10.867188 12.929688 6.628906 12.914062 6.609375 C 12.835938 6.5 12.742188 6.40625 12.636719 6.320312 C 12.390625 6.125 12.09375 6.011719 11.773438 5.992188 C 11.734375 5.988281 11.667969 5.988281 11.632812 5.992188 Z M 11.765625 6.738281 C 11.925781 6.757812 12.0625 6.816406 12.183594 6.917969 C 12.207031 6.933594 12.257812 6.984375 12.277344 7.007812 C 12.285156 7.019531 12.296875 7.035156 12.304688 7.042969 C 12.320312 7.0625 15.269531 11.28125 15.289062 11.3125 C 15.347656 11.402344 15.386719 11.503906 15.40625 11.605469 C 15.414062 11.660156 15.417969 11.691406 15.414062 11.75 C 15.414062 11.800781 15.414062 11.828125 15.40625 11.867188 C 15.382812 12 15.328125 12.117188 15.25 12.21875 C 15.148438 12.34375 15.011719 12.433594 14.863281 12.480469 C 14.730469 12.515625 14.59375 12.519531 14.460938 12.484375 C 14.34375 12.457031 14.238281 12.402344 14.144531 12.324219 C 14.109375 12.292969 14.0625 12.242188 14.035156 12.203125 C 14.027344 12.195312 13.652344 11.660156 13.199219 11.011719 C 12.746094 10.363281 12.371094 9.824219 12.363281 9.816406 C 12.3125 9.746094 12.234375 9.695312 12.148438 9.675781 C 12.121094 9.671875 12.101562 9.667969 12.070312 9.667969 C 12.023438 9.667969 11.992188 9.675781 11.953125 9.6875 C 11.910156 9.703125 11.867188 9.722656 11.832031 9.753906 C 11.785156 9.789062 11.742188 9.847656 11.722656 9.902344 C 11.714844 9.917969 10.933594 12.324219 10.921875 12.359375 C 10.898438 12.4375 10.90625 12.53125 10.9375 12.609375 C 10.941406 12.617188 11.226562 13.226562 11.574219 13.96875 C 11.921875 14.707031 12.207031 15.320312 12.214844 15.332031 C 12.253906 15.425781 12.269531 15.519531 12.269531 15.621094 C 12.269531 15.722656 12.25 15.820312 12.210938 15.914062 C 12.203125 15.941406 10.5 19.59375 10.488281 19.625 C 10.328125 19.929688 9.960938 20.097656 9.621094 20.019531 C 9.507812 19.992188 9.394531 19.9375 9.300781 19.855469 C 9.277344 19.835938 9.234375 19.792969 9.214844 19.769531 C 9.101562 19.636719 9.039062 19.472656 9.03125 19.300781 C 9.027344 19.1875 9.050781 19.070312 9.09375 18.96875 C 9.097656 18.957031 9.433594 18.238281 9.835938 17.371094 C 10.242188 16.503906 10.574219 15.785156 10.582031 15.773438 C 10.59375 15.742188 10.605469 15.699219 10.609375 15.664062 C 10.613281 15.640625 10.613281 15.601562 10.609375 15.578125 C 10.605469 15.546875 10.597656 15.511719 10.585938 15.484375 C 10.582031 15.476562 10.300781 14.878906 9.964844 14.164062 C 9.628906 13.445312 9.347656 12.851562 9.34375 12.839844 C 9.3125 12.761719 9.292969 12.679688 9.285156 12.59375 C 9.28125 12.546875 9.285156 12.492188 9.289062 12.445312 C 9.296875 12.398438 9.304688 12.347656 9.320312 12.304688 C 9.351562 12.210938 10.957031 7.265625 10.960938 7.253906 C 11.03125 7.058594 11.167969 6.902344 11.351562 6.8125 C 11.4375 6.773438 11.53125 6.746094 11.621094 6.738281 C 11.628906 6.738281 11.640625 6.738281 11.644531 6.738281 C 11.660156 6.734375 11.746094 6.738281 11.765625 6.738281 Z M 11.765625 6.738281 "/>
</g>
</svg>
