<?xml version="1.0" encoding="UTF-8"?>
<svg xmlns="http://www.w3.org/2000/svg" xmlns:xlink="http://www.w3.org/1999/xlink" viewBox="0 0 24 24" version="1.1">
<g>
<path style=" stroke:none;fill-rule:nonzero;fill:rgb(0%,0%,0%);fill-opacity:1;" d="M 15.550781 5.066406 C 15.308594 5.078125 15.089844 5.101562 14.859375 5.148438 C 14.085938 5.300781 13.339844 5.675781 12.699219 6.222656 C 12.539062 6.359375 12.378906 6.515625 12.234375 6.679688 C 11.960938 6.980469 11.714844 7.328125 11.511719 7.699219 C 11.4375 7.828125 11.363281 7.980469 11.300781 8.117188 C 11.289062 8.144531 11.28125 8.164062 11.28125 8.164062 C 11.28125 8.164062 11.273438 8.148438 11.265625 8.128906 C 11.070312 7.695312 10.808594 7.261719 10.503906 6.886719 C 10.003906 6.273438 9.390625 5.789062 8.707031 5.476562 C 8.0625 5.175781 7.402344 5.042969 6.742188 5.082031 C 5.828125 5.132812 4.957031 5.503906 4.25 6.152344 C 4.191406 6.203125 4.160156 6.234375 4.097656 6.296875 C 3.996094 6.398438 3.914062 6.488281 3.824219 6.59375 C 3.519531 6.957031 3.253906 7.382812 3.050781 7.832031 C 2.867188 8.238281 2.730469 8.664062 2.640625 9.105469 C 2.582031 9.414062 2.542969 9.726562 2.53125 10.046875 C 2.527344 10.164062 2.527344 10.382812 2.53125 10.484375 C 2.539062 10.734375 2.558594 10.941406 2.589844 11.164062 C 2.710938 11.996094 2.988281 12.765625 3.441406 13.515625 C 3.824219 14.152344 4.339844 14.777344 4.984375 15.390625 C 5.292969 15.683594 5.605469 15.953125 6 16.269531 C 6.746094 16.859375 7.550781 17.453125 8.601562 18.1875 C 8.996094 18.460938 9.375 18.722656 10.148438 19.246094 C 10.628906 19.574219 10.765625 19.664062 10.996094 19.824219 C 11.082031 19.882812 11.148438 19.929688 11.15625 19.933594 C 11.210938 19.960938 11.277344 19.96875 11.34375 19.953125 C 11.378906 19.949219 11.40625 19.9375 11.433594 19.917969 C 11.457031 19.902344 11.609375 19.796875 11.820312 19.65625 C 12.492188 19.199219 12.9375 18.894531 13.363281 18.597656 C 13.4375 18.546875 13.496094 18.507812 13.496094 18.507812 C 13.496094 18.507812 13.503906 18.515625 13.511719 18.527344 C 13.566406 18.613281 13.648438 18.726562 13.71875 18.816406 C 14.203125 19.429688 14.851562 19.910156 15.585938 20.203125 C 16.203125 20.449219 16.851562 20.554688 17.507812 20.519531 C 17.84375 20.5 18.191406 20.441406 18.507812 20.347656 C 18.832031 20.253906 19.140625 20.121094 19.4375 19.949219 C 19.84375 19.71875 20.21875 19.410156 20.539062 19.054688 C 20.984375 18.554688 21.316406 17.960938 21.511719 17.320312 C 21.597656 17.03125 21.65625 16.730469 21.683594 16.433594 C 21.699219 16.226562 21.703125 16.054688 21.695312 15.863281 C 21.664062 15.285156 21.519531 14.722656 21.273438 14.191406 C 21.253906 14.148438 21.195312 14.027344 21.171875 13.984375 C 20.875 13.425781 20.472656 12.941406 19.980469 12.554688 C 19.894531 12.488281 19.785156 12.40625 19.707031 12.355469 C 19.695312 12.347656 19.683594 12.339844 19.683594 12.339844 C 19.683594 12.339844 19.691406 12.308594 19.707031 12.269531 C 19.746094 12.144531 19.78125 12.039062 19.8125 11.925781 C 19.933594 11.476562 20.003906 11.015625 20.027344 10.546875 C 20.03125 10.382812 20.03125 10.1875 20.027344 10.027344 C 19.980469 8.863281 19.609375 7.769531 18.96875 6.886719 C 18.734375 6.5625 18.457031 6.261719 18.171875 6.019531 C 17.496094 5.445312 16.691406 5.117188 15.867188 5.070312 C 15.792969 5.066406 15.75 5.066406 15.65625 5.066406 C 15.605469 5.066406 15.558594 5.066406 15.550781 5.066406 Z M 7.011719 5.644531 C 7.484375 5.660156 7.964844 5.769531 8.414062 5.972656 C 8.816406 6.152344 9.199219 6.402344 9.542969 6.710938 C 9.640625 6.800781 9.761719 6.921875 9.851562 7.019531 C 10.285156 7.492188 10.628906 8.054688 10.855469 8.660156 C 10.910156 8.808594 10.957031 8.945312 10.996094 9.101562 C 11.007812 9.144531 11.015625 9.164062 11.03125 9.1875 C 11.046875 9.21875 11.074219 9.25 11.101562 9.269531 C 11.171875 9.320312 11.269531 9.339844 11.359375 9.316406 C 11.410156 9.300781 11.460938 9.273438 11.496094 9.238281 C 11.527344 9.203125 11.546875 9.167969 11.558594 9.117188 C 11.59375 8.992188 11.617188 8.921875 11.644531 8.832031 C 11.753906 8.511719 11.890625 8.207031 12.058594 7.914062 C 12.367188 7.371094 12.777344 6.894531 13.25 6.519531 C 13.585938 6.253906 13.957031 6.042969 14.34375 5.894531 C 14.683594 5.765625 15.050781 5.679688 15.382812 5.65625 C 15.472656 5.648438 15.511719 5.644531 15.609375 5.644531 C 15.71875 5.644531 15.792969 5.644531 15.890625 5.65625 C 16.230469 5.683594 16.558594 5.765625 16.875 5.898438 C 17.40625 6.125 17.898438 6.503906 18.3125 7 C 18.519531 7.25 18.699219 7.523438 18.859375 7.824219 C 18.886719 7.867188 18.949219 7.992188 18.96875 8.039062 C 19.257812 8.652344 19.417969 9.296875 19.453125 9.980469 C 19.460938 10.082031 19.460938 10.113281 19.460938 10.253906 C 19.460938 10.394531 19.460938 10.425781 19.453125 10.527344 C 19.429688 10.992188 19.347656 11.457031 19.210938 11.917969 C 19.203125 11.949219 19.171875 12.042969 19.171875 12.046875 C 19.171875 12.046875 19.160156 12.039062 19.148438 12.035156 C 18.617188 11.78125 18.0625 11.640625 17.476562 11.609375 C 17.402344 11.609375 17.351562 11.605469 17.261719 11.605469 C 17.148438 11.605469 17.082031 11.609375 16.980469 11.613281 C 16.441406 11.648438 15.90625 11.777344 15.410156 12 C 15.292969 12.050781 15.160156 12.117188 15.050781 12.179688 C 14.761719 12.339844 14.488281 12.535156 14.246094 12.753906 C 14.152344 12.835938 14.039062 12.949219 13.953125 13.039062 C 13.773438 13.238281 13.609375 13.457031 13.464844 13.6875 C 12.773438 14.796875 12.597656 16.167969 12.980469 17.410156 C 13.039062 17.597656 13.121094 17.8125 13.203125 17.980469 L 13.210938 18 L 13.152344 18.039062 C 12.675781 18.371094 12.132812 18.742188 11.414062 19.230469 L 11.285156 19.320312 L 11.105469 19.199219 C 11.007812 19.132812 10.828125 19.007812 10.710938 18.929688 C 9.769531 18.285156 9.230469 17.910156 8.710938 17.546875 C 7.824219 16.921875 7.039062 16.351562 6.53125 15.953125 C 5.8125 15.394531 5.273438 14.90625 4.820312 14.410156 C 4.265625 13.796875 3.839844 13.152344 3.566406 12.503906 C 3.289062 11.859375 3.136719 11.175781 3.105469 10.476562 C 3.101562 10.363281 3.101562 10.167969 3.105469 10.070312 C 3.113281 9.839844 3.132812 9.640625 3.164062 9.4375 C 3.257812 8.808594 3.460938 8.226562 3.769531 7.683594 C 4.121094 7.070312 4.589844 6.558594 5.117188 6.207031 C 5.246094 6.121094 5.359375 6.054688 5.5 5.984375 C 5.628906 5.921875 5.746094 5.871094 5.878906 5.824219 C 6.242188 5.695312 6.628906 5.636719 7.011719 5.644531 Z M 17.390625 12.183594 C 17.554688 12.1875 17.707031 12.203125 17.859375 12.230469 C 18.492188 12.332031 19.089844 12.597656 19.601562 12.992188 C 20.019531 13.320312 20.371094 13.730469 20.632812 14.199219 C 20.6875 14.300781 20.75 14.425781 20.796875 14.53125 C 20.957031 14.90625 21.058594 15.296875 21.101562 15.699219 C 21.117188 15.835938 21.125 15.992188 21.121094 16.101562 C 21.109375 16.800781 20.910156 17.492188 20.542969 18.09375 C 20.339844 18.425781 20.085938 18.734375 19.800781 18.988281 C 19.257812 19.46875 18.609375 19.777344 17.890625 19.894531 C 17.738281 19.921875 17.59375 19.9375 17.417969 19.945312 C 17.371094 19.945312 17.195312 19.949219 17.136719 19.945312 C 16.664062 19.929688 16.214844 19.835938 15.78125 19.664062 C 15.25 19.449219 14.773438 19.121094 14.386719 18.707031 C 14.09375 18.394531 13.863281 18.046875 13.691406 17.65625 C 13.5 17.230469 13.390625 16.765625 13.363281 16.289062 C 13.359375 16.207031 13.355469 16.167969 13.355469 16.066406 C 13.355469 15.941406 13.359375 15.871094 13.367188 15.757812 C 13.429688 14.9375 13.746094 14.171875 14.269531 13.558594 C 14.460938 13.335938 14.675781 13.136719 14.910156 12.960938 C 15.15625 12.777344 15.425781 12.621094 15.714844 12.496094 C 16.089844 12.335938 16.496094 12.234375 16.902344 12.195312 C 16.988281 12.1875 17.074219 12.183594 17.175781 12.179688 C 17.207031 12.179688 17.355469 12.179688 17.390625 12.183594 Z M 17.390625 12.183594 "/>
<path style=" stroke:none;fill-rule:nonzero;fill:rgb(0%,0%,0%);fill-opacity:1;" d="M 16.410156 13.257812 C 16.339844 13.261719 16.269531 13.292969 16.222656 13.347656 C 16.179688 13.390625 16.15625 13.4375 16.140625 13.5 C 16.140625 13.511719 16.140625 13.554688 16.140625 14.242188 L 16.140625 14.96875 L 15.414062 14.96875 C 14.730469 14.96875 14.6875 14.96875 14.675781 14.972656 C 14.609375 14.984375 14.550781 15.011719 14.507812 15.058594 C 14.460938 15.109375 14.433594 15.167969 14.429688 15.230469 C 14.425781 15.25 14.425781 16.882812 14.425781 16.902344 C 14.433594 16.957031 14.457031 17.007812 14.488281 17.054688 C 14.539062 17.113281 14.609375 17.152344 14.6875 17.164062 C 14.695312 17.164062 14.933594 17.164062 15.417969 17.164062 L 16.140625 17.164062 L 16.140625 17.890625 C 16.140625 18.570312 16.140625 18.621094 16.140625 18.632812 C 16.152344 18.695312 16.179688 18.746094 16.226562 18.789062 C 16.269531 18.835938 16.328125 18.867188 16.394531 18.875 C 16.40625 18.875 16.511719 18.875 17.234375 18.875 C 17.792969 18.875 18.066406 18.875 18.074219 18.875 C 18.1875 18.863281 18.28125 18.785156 18.320312 18.679688 C 18.324219 18.660156 18.332031 18.632812 18.332031 18.613281 C 18.332031 18.601562 18.335938 18.363281 18.335938 17.878906 L 18.335938 17.164062 L 19.054688 17.164062 C 19.847656 17.164062 19.789062 17.164062 19.824219 17.15625 C 19.945312 17.125 20.035156 17.019531 20.046875 16.898438 C 20.046875 16.886719 20.046875 16.621094 20.046875 16.054688 C 20.046875 15.265625 20.046875 15.226562 20.042969 15.210938 C 20.039062 15.175781 20.03125 15.152344 20.015625 15.125 C 20.003906 15.101562 19.988281 15.082031 19.96875 15.058594 C 19.9375 15.027344 19.914062 15.011719 19.886719 14.996094 C 19.851562 14.980469 19.820312 14.972656 19.78125 14.96875 C 19.769531 14.96875 19.511719 14.96875 19.046875 14.96875 L 18.335938 14.96875 L 18.332031 14.242188 C 18.332031 13.566406 18.332031 13.515625 18.332031 13.503906 C 18.324219 13.460938 18.308594 13.421875 18.285156 13.390625 C 18.253906 13.34375 18.214844 13.308594 18.167969 13.285156 C 18.132812 13.269531 18.101562 13.261719 18.066406 13.257812 C 18.050781 13.257812 16.425781 13.257812 16.410156 13.257812 Z M 17.757812 14.554688 C 17.757812 15.050781 17.757812 15.277344 17.757812 15.285156 C 17.761719 15.339844 17.785156 15.394531 17.820312 15.4375 C 17.867188 15.496094 17.941406 15.535156 18.015625 15.546875 C 18.023438 15.546875 18.265625 15.546875 18.75 15.546875 L 19.46875 15.546875 L 19.46875 16.585938 L 18.019531 16.585938 L 18 16.589844 C 17.9375 16.601562 17.882812 16.632812 17.835938 16.675781 C 17.796875 16.71875 17.769531 16.769531 17.757812 16.832031 C 17.757812 16.84375 17.757812 16.882812 17.757812 17.570312 L 17.757812 18.300781 L 16.71875 18.300781 L 16.714844 17.574219 C 16.714844 16.898438 16.714844 16.847656 16.714844 16.832031 C 16.695312 16.738281 16.636719 16.65625 16.550781 16.613281 C 16.515625 16.601562 16.484375 16.589844 16.449219 16.585938 C 16.4375 16.585938 16.199219 16.585938 15.71875 16.585938 L 15.003906 16.585938 L 15.003906 15.546875 L 15.726562 15.546875 C 16.363281 15.546875 16.449219 15.546875 16.460938 15.542969 C 16.597656 15.527344 16.703125 15.417969 16.714844 15.28125 C 16.714844 15.269531 16.71875 15.011719 16.71875 14.550781 L 16.71875 13.835938 L 17.757812 13.835938 Z M 17.757812 14.554688 "/>
</g>
</svg>
