<?xml version="1.0" encoding="UTF-8"?>
<svg xmlns="http://www.w3.org/2000/svg" xmlns:xlink="http://www.w3.org/1999/xlink" viewBox="0 0 24 24" version="1.1">
<g>
<path style=" stroke:none;fill-rule:nonzero;fill:rgb(0%,0%,0%);fill-opacity:1;" d="M 7.003906 3.769531 C 6.703125 3.773438 6.425781 3.804688 6.152344 3.867188 C 5.84375 3.9375 5.554688 4.042969 5.25 4.195312 C 5.082031 4.28125 4.9375 4.363281 4.777344 4.472656 C 4.542969 4.628906 4.332031 4.796875 4.113281 5.003906 C 4.074219 5.039062 3.960938 5.152344 3.925781 5.191406 C 3.40625 5.738281 2.992188 6.394531 2.707031 7.121094 C 2.441406 7.792969 2.292969 8.515625 2.265625 9.257812 C 2.257812 9.421875 2.257812 9.625 2.265625 9.789062 C 2.292969 10.53125 2.441406 11.257812 2.703125 11.941406 C 2.957031 12.605469 3.316406 13.238281 3.796875 13.863281 C 4.003906 14.136719 4.25 14.425781 4.503906 14.691406 C 4.605469 14.800781 4.78125 14.976562 4.882812 15.074219 C 5.257812 15.4375 5.632812 15.761719 6.105469 16.140625 C 6.90625 16.777344 7.804688 17.4375 8.929688 18.222656 C 9.410156 18.558594 9.796875 18.820312 10.765625 19.480469 C 11.265625 19.820312 11.53125 20.003906 11.722656 20.132812 C 11.769531 20.167969 11.792969 20.179688 11.804688 20.1875 C 11.878906 20.222656 11.980469 20.222656 12.054688 20.1875 C 12.066406 20.183594 12.078125 20.175781 12.085938 20.167969 C 12.109375 20.15625 12.453125 19.921875 12.628906 19.800781 C 14.039062 18.84375 15 18.175781 15.902344 17.523438 C 16.375 17.183594 16.867188 16.820312 17.253906 16.523438 C 17.898438 16.035156 18.425781 15.589844 18.882812 15.160156 C 19.03125 15.015625 19.210938 14.839844 19.339844 14.699219 C 19.921875 14.085938 20.378906 13.476562 20.734375 12.832031 C 20.820312 12.675781 20.914062 12.496094 20.988281 12.335938 C 21.066406 12.164062 21.121094 12.027344 21.179688 11.867188 C 21.417969 11.214844 21.554688 10.527344 21.585938 9.828125 C 21.589844 9.714844 21.589844 9.683594 21.589844 9.515625 C 21.589844 9.351562 21.589844 9.320312 21.585938 9.207031 C 21.53125 7.96875 21.144531 6.804688 20.472656 5.851562 C 20.195312 5.453125 19.863281 5.085938 19.515625 4.796875 C 19.121094 4.46875 18.6875 4.214844 18.226562 4.039062 C 17.832031 3.886719 17.414062 3.796875 16.996094 3.773438 C 16.863281 3.765625 16.714844 3.765625 16.589844 3.769531 C 15.855469 3.808594 15.128906 4.015625 14.453125 4.386719 C 13.871094 4.707031 13.34375 5.136719 12.902344 5.648438 C 12.511719 6.105469 12.1875 6.621094 11.945312 7.183594 L 11.925781 7.222656 L 11.925781 7.214844 C 11.917969 7.199219 11.878906 7.109375 11.863281 7.074219 C 11.804688 6.953125 11.738281 6.820312 11.675781 6.703125 C 11.4375 6.269531 11.152344 5.867188 10.824219 5.507812 C 10.71875 5.394531 10.582031 5.257812 10.464844 5.152344 C 10.007812 4.730469 9.488281 4.394531 8.9375 4.15625 C 8.378906 3.917969 7.808594 3.789062 7.21875 3.769531 C 7.179688 3.769531 7.039062 3.765625 7.003906 3.769531 Z M 7.257812 4.378906 C 7.917969 4.410156 8.5625 4.597656 9.160156 4.9375 C 9.644531 5.214844 10.09375 5.589844 10.476562 6.039062 C 10.835938 6.457031 11.136719 6.9375 11.359375 7.449219 C 11.46875 7.695312 11.554688 7.941406 11.625 8.199219 C 11.640625 8.246094 11.644531 8.265625 11.652344 8.28125 C 11.710938 8.402344 11.847656 8.46875 11.988281 8.441406 C 12.082031 8.425781 12.160156 8.367188 12.199219 8.285156 C 12.210938 8.261719 12.214844 8.25 12.234375 8.183594 C 12.359375 7.730469 12.546875 7.28125 12.785156 6.871094 C 12.972656 6.546875 13.191406 6.246094 13.433594 5.972656 C 13.546875 5.84375 13.679688 5.710938 13.804688 5.597656 C 14.324219 5.117188 14.925781 4.765625 15.570312 4.566406 C 15.78125 4.5 16 4.449219 16.210938 4.417969 C 16.492188 4.375 16.777344 4.363281 17.054688 4.390625 C 17.550781 4.433594 18.03125 4.585938 18.480469 4.835938 C 18.75 4.988281 19.003906 5.171875 19.242188 5.386719 C 19.355469 5.488281 19.488281 5.621094 19.589844 5.734375 C 20.023438 6.214844 20.371094 6.792969 20.617188 7.425781 C 20.707031 7.660156 20.78125 7.90625 20.839844 8.152344 C 20.976562 8.726562 21.019531 9.324219 20.976562 9.933594 C 20.929688 10.566406 20.789062 11.203125 20.554688 11.8125 C 20.460938 12.050781 20.335938 12.320312 20.195312 12.574219 C 19.890625 13.121094 19.496094 13.65625 19.007812 14.183594 C 18.828125 14.375 18.617188 14.585938 18.414062 14.777344 C 18.023438 15.140625 17.585938 15.507812 17.046875 15.921875 C 16.605469 16.261719 15.882812 16.792969 15.183594 17.289062 C 14.308594 17.917969 13.375 18.5625 12.050781 19.460938 L 11.929688 19.542969 L 11.910156 19.527344 C 11.902344 19.523438 11.789062 19.445312 11.660156 19.355469 C 11.53125 19.269531 11.34375 19.140625 11.246094 19.070312 C 10.332031 18.445312 9.800781 18.078125 9.277344 17.714844 C 8.199219 16.960938 7.273438 16.285156 6.660156 15.808594 C 5.789062 15.128906 5.148438 14.539062 4.617188 13.925781 C 4.121094 13.355469 3.722656 12.746094 3.445312 12.148438 C 3.125 11.441406 2.929688 10.679688 2.878906 9.910156 C 2.867188 9.753906 2.863281 9.628906 2.863281 9.453125 C 2.867188 9.332031 2.867188 9.304688 2.871094 9.21875 C 2.914062 8.203125 3.210938 7.242188 3.738281 6.417969 C 3.890625 6.179688 4.058594 5.953125 4.242188 5.75 C 4.324219 5.65625 4.445312 5.535156 4.527344 5.457031 C 4.671875 5.324219 4.8125 5.203125 4.957031 5.097656 C 5.394531 4.785156 5.863281 4.566406 6.355469 4.460938 C 6.570312 4.410156 6.78125 4.386719 7.011719 4.378906 C 7.054688 4.375 7.210938 4.378906 7.257812 4.378906 Z M 7.257812 4.378906 "/>
<path style=" stroke:none;fill-rule:nonzero;fill:rgb(0%,0%,0%);fill-opacity:1;" d="M 8.617188 10.027344 C 8.53125 10.035156 8.457031 10.070312 8.402344 10.125 C 8.375 10.152344 8.351562 10.1875 8.339844 10.222656 C 8.335938 10.226562 8.175781 10.769531 7.976562 11.429688 C 7.78125 12.085938 7.617188 12.625 7.617188 12.625 C 7.617188 12.625 7.597656 12.625 7.277344 12.628906 C 6.964844 12.636719 6.796875 12.636719 6.65625 12.640625 C 6.492188 12.640625 6.480469 12.640625 6.441406 12.652344 C 6.328125 12.679688 6.25 12.773438 6.234375 12.898438 C 6.230469 12.921875 6.230469 12.976562 6.234375 13 C 6.242188 13.070312 6.273438 13.128906 6.320312 13.171875 C 6.355469 13.210938 6.402344 13.230469 6.457031 13.242188 L 6.476562 13.246094 L 6.582031 13.246094 C 6.683594 13.246094 6.757812 13.246094 7.203125 13.238281 C 7.710938 13.230469 7.863281 13.230469 7.875 13.226562 C 7.992188 13.214844 8.09375 13.136719 8.132812 13.027344 C 8.136719 13.019531 8.230469 12.707031 8.339844 12.335938 C 8.453125 11.960938 8.542969 11.65625 8.542969 11.660156 C 8.542969 11.660156 8.605469 12.027344 8.683594 12.472656 C 8.757812 12.921875 8.894531 13.726562 8.984375 14.265625 C 9.074219 14.804688 9.152344 15.253906 9.152344 15.261719 C 9.171875 15.359375 9.234375 15.425781 9.324219 15.457031 C 9.355469 15.46875 9.382812 15.472656 9.421875 15.472656 C 9.558594 15.472656 9.683594 15.394531 9.730469 15.28125 C 9.734375 15.269531 9.894531 14.707031 10.34375 13.144531 C 10.429688 12.832031 10.484375 12.648438 10.484375 12.648438 C 10.484375 12.652344 10.664062 13.445312 10.882812 14.414062 C 11.101562 15.382812 11.3125 16.3125 11.351562 16.480469 C 11.386719 16.644531 11.421875 16.785156 11.421875 16.792969 C 11.449219 16.894531 11.546875 16.972656 11.667969 16.988281 C 11.695312 16.996094 11.75 16.996094 11.773438 16.992188 C 11.839844 16.980469 11.898438 16.953125 11.9375 16.910156 C 11.972656 16.875 11.992188 16.835938 12 16.785156 C 12.003906 16.777344 12.183594 15.640625 12.40625 14.257812 C 12.625 12.875 12.808594 11.738281 12.808594 11.738281 C 12.808594 11.730469 12.8125 11.742188 12.832031 11.808594 C 13.289062 13.386719 13.554688 14.289062 13.558594 14.296875 C 13.582031 14.363281 13.636719 14.417969 13.707031 14.457031 C 13.792969 14.5 13.898438 14.507812 13.980469 14.472656 C 14.027344 14.449219 14.070312 14.410156 14.097656 14.363281 C 14.101562 14.355469 14.257812 14.011719 14.449219 13.59375 C 14.640625 13.179688 14.867188 12.6875 14.953125 12.5 C 15.039062 12.3125 15.109375 12.160156 15.109375 12.15625 L 15.113281 12.152344 L 15.261719 12.59375 C 15.339844 12.835938 15.410156 13.039062 15.414062 13.050781 C 15.4375 13.117188 15.488281 13.175781 15.546875 13.214844 C 15.582031 13.230469 15.613281 13.246094 15.652344 13.25 C 15.664062 13.253906 15.679688 13.253906 16.039062 13.253906 C 16.722656 13.253906 17.347656 13.25 17.371094 13.246094 C 17.4375 13.238281 17.492188 13.214844 17.535156 13.171875 C 17.582031 13.128906 17.613281 13.070312 17.625 13 C 17.628906 12.984375 17.628906 12.976562 17.628906 12.941406 C 17.628906 12.902344 17.625 12.890625 17.617188 12.855469 C 17.605469 12.800781 17.578125 12.753906 17.539062 12.71875 C 17.496094 12.675781 17.449219 12.652344 17.386719 12.644531 C 17.363281 12.640625 17.363281 12.640625 16.996094 12.644531 C 16.832031 12.644531 16.519531 12.644531 16.304688 12.644531 L 15.917969 12.644531 L 15.683594 11.9375 C 15.46875 11.296875 15.445312 11.230469 15.4375 11.214844 C 15.402344 11.140625 15.332031 11.082031 15.25 11.046875 C 15.191406 11.027344 15.125 11.019531 15.070312 11.03125 C 15.003906 11.046875 14.945312 11.085938 14.910156 11.148438 C 14.902344 11.160156 14.402344 12.25 13.921875 13.296875 C 13.910156 13.320312 13.90625 13.328125 13.90625 13.324219 C 13.90625 13.324219 13.703125 12.632812 13.457031 11.789062 C 13.09375 10.539062 13.011719 10.25 13.003906 10.238281 C 12.976562 10.171875 12.925781 10.121094 12.859375 10.089844 C 12.832031 10.074219 12.8125 10.070312 12.785156 10.0625 C 12.753906 10.054688 12.738281 10.054688 12.707031 10.050781 C 12.683594 10.050781 12.671875 10.050781 12.65625 10.054688 C 12.609375 10.058594 12.566406 10.074219 12.53125 10.101562 C 12.511719 10.113281 12.484375 10.140625 12.46875 10.160156 C 12.453125 10.1875 12.4375 10.21875 12.433594 10.25 C 12.429688 10.257812 12.257812 11.351562 12.046875 12.675781 C 11.835938 14 11.660156 15.085938 11.660156 15.089844 C 11.660156 15.089844 11.582031 14.742188 11.476562 14.277344 C 10.886719 11.664062 10.808594 11.328125 10.804688 11.308594 C 10.78125 11.242188 10.734375 11.1875 10.667969 11.152344 C 10.59375 11.117188 10.492188 11.113281 10.40625 11.144531 C 10.328125 11.175781 10.269531 11.234375 10.238281 11.308594 C 10.230469 11.324219 10.210938 11.398438 9.660156 13.316406 C 9.582031 13.582031 9.519531 13.804688 9.519531 13.800781 C 9.519531 13.800781 9.382812 12.996094 9.21875 12.015625 C 9.050781 11.03125 8.914062 10.222656 8.914062 10.214844 C 8.90625 10.195312 8.902344 10.183594 8.894531 10.160156 C 8.855469 10.089844 8.789062 10.042969 8.699219 10.027344 C 8.683594 10.027344 8.632812 10.023438 8.617188 10.027344 Z M 8.617188 10.027344 "/>
</g>
</svg>
