<?xml version="1.0" encoding="UTF-8"?>
<svg xmlns="http://www.w3.org/2000/svg" xmlns:xlink="http://www.w3.org/1999/xlink" viewBox="0 0 24 24" version="1.1">
<g>
<path style=" stroke:none;fill-rule:nonzero;fill:rgb(0%,0%,0%);fill-opacity:1;" d="M 7.125 3.878906 C 6.96875 3.886719 6.855469 3.890625 6.734375 3.90625 C 6.128906 3.964844 5.550781 4.121094 5.003906 4.378906 C 4.949219 4.402344 4.824219 4.464844 4.773438 4.492188 C 4.390625 4.695312 4.035156 4.941406 3.714844 5.226562 C 3.632812 5.300781 3.574219 5.351562 3.488281 5.441406 C 3.378906 5.550781 3.300781 5.632812 3.207031 5.738281 C 2.464844 6.605469 2.019531 7.679688 1.9375 8.808594 C 1.929688 8.882812 1.925781 8.945312 1.921875 9.035156 C 1.921875 9.089844 1.921875 9.34375 1.921875 9.414062 C 1.933594 9.742188 1.949219 9.96875 1.984375 10.242188 C 2.023438 10.542969 2.066406 10.792969 2.132812 11.097656 C 2.21875 11.480469 2.34375 11.890625 2.488281 12.28125 C 2.539062 12.417969 2.609375 12.597656 2.65625 12.703125 C 2.847656 13.140625 3.050781 13.539062 3.304688 13.964844 C 3.316406 13.984375 3.328125 14.007812 3.332031 14.015625 C 3.359375 14.058594 3.46875 14.234375 3.5 14.285156 C 3.507812 14.296875 3.53125 14.332031 3.550781 14.359375 C 4.199219 15.359375 5.039062 16.332031 6.058594 17.265625 C 7.296875 18.398438 8.800781 19.472656 10.425781 20.378906 C 10.90625 20.648438 11.425781 20.914062 11.804688 21.085938 C 11.878906 21.121094 11.90625 21.125 11.960938 21.125 C 12.007812 21.125 12.039062 21.121094 12.097656 21.09375 C 12.300781 21.003906 12.605469 20.851562 12.894531 20.703125 C 13.914062 20.171875 14.960938 19.527344 15.894531 18.855469 C 17.339844 17.816406 18.550781 16.703125 19.507812 15.535156 C 19.800781 15.175781 20.089844 14.78125 20.324219 14.425781 C 20.421875 14.277344 20.460938 14.21875 20.53125 14.101562 C 20.566406 14.042969 20.570312 14.039062 20.621094 13.957031 C 20.855469 13.554688 21.054688 13.175781 21.226562 12.785156 C 21.234375 12.757812 21.25 12.726562 21.253906 12.714844 C 21.273438 12.675781 21.316406 12.566406 21.347656 12.492188 C 21.484375 12.152344 21.585938 11.847656 21.683594 11.496094 C 21.773438 11.171875 21.855469 10.78125 21.902344 10.460938 C 21.957031 10.078125 21.980469 9.808594 21.996094 9.40625 C 21.996094 9.332031 21.996094 9.101562 21.996094 9.042969 C 21.992188 8.980469 21.992188 8.941406 21.988281 8.898438 C 21.933594 7.984375 21.648438 7.105469 21.152344 6.335938 C 20.988281 6.082031 20.800781 5.835938 20.59375 5.613281 C 20.496094 5.503906 20.371094 5.378906 20.265625 5.28125 C 19.808594 4.863281 19.28125 4.527344 18.710938 4.289062 C 18.144531 4.050781 17.539062 3.914062 16.921875 3.886719 C 16.84375 3.882812 16.816406 3.882812 16.703125 3.878906 C 16.539062 3.878906 16.429688 3.882812 16.285156 3.890625 C 15.492188 3.949219 14.722656 4.179688 14.035156 4.574219 C 13.417969 4.921875 12.878906 5.390625 12.449219 5.941406 C 12.273438 6.167969 12.117188 6.410156 11.980469 6.660156 C 11.96875 6.679688 11.960938 6.699219 11.960938 6.699219 C 11.957031 6.699219 11.953125 6.691406 11.949219 6.683594 C 11.9375 6.65625 11.90625 6.605469 11.886719 6.566406 C 11.554688 5.988281 11.117188 5.476562 10.597656 5.054688 C 9.875 4.476562 9.027344 4.097656 8.121094 3.949219 C 7.902344 3.914062 7.699219 3.894531 7.449219 3.882812 C 7.414062 3.882812 7.15625 3.878906 7.125 3.878906 Z M 7.328125 4.464844 C 7.40625 4.46875 7.445312 4.46875 7.511719 4.472656 C 8.230469 4.511719 8.933594 4.71875 9.570312 5.074219 C 10.078125 5.359375 10.535156 5.742188 10.910156 6.1875 C 11.238281 6.585938 11.496094 7.019531 11.683594 7.503906 C 11.699219 7.550781 11.722656 7.582031 11.753906 7.613281 C 11.867188 7.722656 12.046875 7.726562 12.160156 7.617188 C 12.179688 7.597656 12.191406 7.585938 12.203125 7.5625 C 12.21875 7.542969 12.226562 7.527344 12.242188 7.480469 C 12.371094 7.148438 12.550781 6.820312 12.753906 6.523438 C 13.238281 5.824219 13.90625 5.261719 14.683594 4.902344 C 15.332031 4.605469 16.039062 4.453125 16.742188 4.464844 C 16.957031 4.46875 17.140625 4.484375 17.347656 4.515625 C 18.105469 4.625 18.828125 4.917969 19.449219 5.371094 C 19.804688 5.628906 20.121094 5.933594 20.390625 6.273438 C 20.664062 6.621094 20.886719 7.003906 21.054688 7.40625 C 21.253906 7.894531 21.371094 8.410156 21.402344 8.9375 C 21.414062 9.121094 21.414062 9.328125 21.402344 9.570312 C 21.382812 9.976562 21.328125 10.398438 21.246094 10.804688 C 21.078125 11.609375 20.789062 12.394531 20.371094 13.183594 C 19.953125 13.976562 19.402344 14.765625 18.730469 15.53125 C 18.351562 15.964844 17.953125 16.375 17.496094 16.792969 C 16.460938 17.742188 15.234375 18.652344 13.886719 19.464844 C 13.253906 19.847656 12.578125 20.214844 12.015625 20.484375 C 11.984375 20.5 11.960938 20.511719 11.957031 20.511719 C 11.957031 20.511719 11.933594 20.5 11.90625 20.488281 C 11.457031 20.269531 10.921875 19.984375 10.410156 19.6875 C 8.671875 18.679688 7.105469 17.5 5.890625 16.285156 C 5.28125 15.675781 4.738281 15.035156 4.28125 14.382812 C 4.238281 14.320312 4.132812 14.164062 4.125 14.152344 C 4.121094 14.152344 4.277344 14.152344 4.890625 14.152344 L 5.664062 14.152344 L 6.191406 15.132812 C 6.484375 15.671875 6.730469 16.121094 6.734375 16.128906 C 6.757812 16.175781 6.796875 16.226562 6.832031 16.269531 C 6.851562 16.289062 6.894531 16.335938 6.914062 16.351562 C 6.984375 16.414062 7.058594 16.460938 7.136719 16.5 C 7.296875 16.574219 7.472656 16.601562 7.644531 16.578125 C 7.910156 16.546875 8.148438 16.398438 8.296875 16.171875 C 8.335938 16.113281 8.367188 16.046875 8.394531 15.980469 C 8.398438 15.96875 8.621094 15.253906 8.886719 14.394531 C 9.15625 13.53125 9.375 12.828125 9.375 12.828125 C 9.378906 12.828125 9.480469 13.015625 9.605469 13.242188 C 9.734375 13.472656 9.84375 13.667969 9.851562 13.683594 C 9.964844 13.886719 10.15625 14.039062 10.378906 14.109375 C 10.453125 14.132812 10.527344 14.144531 10.609375 14.148438 C 10.652344 14.152344 12.214844 14.148438 12.238281 14.148438 C 12.371094 14.136719 12.472656 14.105469 12.582031 14.050781 C 12.738281 13.972656 12.867188 13.851562 12.957031 13.695312 C 12.972656 13.671875 13 13.621094 13.011719 13.59375 C 13.015625 13.582031 13.285156 12.894531 13.605469 12.066406 C 13.929688 11.234375 14.195312 10.558594 14.195312 10.554688 C 14.199219 10.554688 14.425781 11.226562 14.699219 12.050781 C 14.976562 12.871094 15.207031 13.554688 15.210938 13.570312 C 15.25 13.664062 15.296875 13.746094 15.363281 13.824219 C 15.386719 13.851562 15.449219 13.910156 15.476562 13.933594 C 15.53125 13.980469 15.589844 14.019531 15.652344 14.050781 C 15.769531 14.109375 15.886719 14.140625 16.019531 14.148438 C 16.054688 14.152344 17.300781 14.152344 17.335938 14.148438 C 17.5 14.140625 17.65625 14.089844 17.792969 14 C 18.007812 13.859375 18.152344 13.632812 18.195312 13.382812 C 18.25 13.0625 18.128906 12.738281 17.882812 12.527344 C 17.742188 12.410156 17.570312 12.335938 17.390625 12.316406 C 17.34375 12.3125 17.339844 12.3125 17.03125 12.308594 L 16.730469 12.308594 L 15.929688 9.933594 C 15.492188 8.625 15.128906 7.546875 15.125 7.535156 C 15.089844 7.449219 15.042969 7.363281 14.984375 7.289062 C 14.953125 7.25 14.914062 7.207031 14.878906 7.175781 C 14.664062 6.984375 14.382812 6.902344 14.101562 6.953125 C 13.941406 6.980469 13.796875 7.046875 13.667969 7.152344 C 13.644531 7.175781 13.585938 7.230469 13.566406 7.253906 C 13.527344 7.300781 13.492188 7.347656 13.464844 7.402344 C 13.449219 7.421875 13.425781 7.46875 13.417969 7.492188 C 13.414062 7.5 12.988281 8.589844 12.472656 9.910156 L 11.535156 12.308594 L 11.195312 12.308594 L 10.566406 11.175781 C 10.222656 10.550781 9.933594 10.03125 9.929688 10.023438 C 9.785156 9.785156 9.542969 9.621094 9.269531 9.585938 C 9.21875 9.578125 9.203125 9.574219 9.136719 9.574219 C 9.074219 9.574219 9.054688 9.578125 9.007812 9.585938 C 8.667969 9.632812 8.390625 9.859375 8.273438 10.179688 C 8.269531 10.191406 8.046875 10.898438 7.78125 11.753906 C 7.515625 12.609375 7.296875 13.304688 7.296875 13.304688 C 7.296875 13.304688 7.234375 13.1875 7.152344 13.039062 C 7.074219 12.894531 7.003906 12.765625 7 12.753906 C 6.875 12.546875 6.671875 12.398438 6.433594 12.339844 C 6.375 12.324219 6.3125 12.3125 6.246094 12.3125 C 6.226562 12.308594 5.65625 12.308594 4.675781 12.308594 L 3.136719 12.308594 L 3.113281 12.253906 C 2.800781 11.472656 2.609375 10.691406 2.539062 9.898438 C 2.527344 9.777344 2.515625 9.621094 2.511719 9.507812 C 2.511719 9.484375 2.511719 9.449219 2.511719 9.429688 C 2.507812 9.371094 2.507812 9.148438 2.507812 9.085938 C 2.511719 8.949219 2.519531 8.832031 2.535156 8.703125 C 2.585938 8.203125 2.722656 7.714844 2.929688 7.257812 C 2.972656 7.160156 3.03125 7.039062 3.085938 6.945312 C 3.359375 6.441406 3.726562 5.988281 4.160156 5.613281 C 4.636719 5.207031 5.183594 4.898438 5.773438 4.703125 C 6.222656 4.554688 6.691406 4.472656 7.167969 4.464844 C 7.253906 4.464844 7.25 4.464844 7.328125 4.464844 Z M 14.308594 7.527344 C 14.367188 7.535156 14.425781 7.5625 14.472656 7.597656 C 14.515625 7.636719 14.554688 7.6875 14.574219 7.742188 C 14.578125 7.75 14.953125 8.871094 15.410156 10.230469 C 15.871094 11.59375 16.246094 12.714844 16.25 12.722656 C 16.273438 12.773438 16.3125 12.820312 16.359375 12.847656 C 16.390625 12.871094 16.429688 12.886719 16.472656 12.894531 C 16.484375 12.894531 16.511719 12.894531 16.902344 12.894531 L 17.316406 12.898438 L 17.335938 12.898438 C 17.375 12.90625 17.402344 12.914062 17.433594 12.929688 C 17.5 12.964844 17.554688 13.015625 17.585938 13.085938 C 17.613281 13.136719 17.621094 13.183594 17.621094 13.238281 C 17.617188 13.308594 17.597656 13.375 17.554688 13.429688 C 17.539062 13.449219 17.507812 13.484375 17.488281 13.496094 C 17.445312 13.527344 17.398438 13.550781 17.34375 13.558594 L 17.324219 13.5625 L 16.679688 13.5625 C 16.007812 13.5625 16.03125 13.5625 16.003906 13.558594 C 15.902344 13.539062 15.816406 13.472656 15.769531 13.382812 C 15.765625 13.371094 15.761719 13.359375 15.757812 13.351562 C 15.753906 13.34375 15.46875 12.5 15.125 11.472656 C 14.777344 10.441406 14.496094 9.597656 14.492188 9.589844 C 14.46875 9.53125 14.425781 9.480469 14.375 9.445312 C 14.300781 9.398438 14.207031 9.390625 14.125 9.417969 C 14.050781 9.441406 13.988281 9.496094 13.957031 9.566406 C 13.949219 9.574219 13.613281 10.433594 13.210938 11.46875 C 12.707031 12.757812 12.46875 13.363281 12.460938 13.378906 C 12.429688 13.445312 12.378906 13.496094 12.3125 13.527344 C 12.277344 13.546875 12.234375 13.558594 12.191406 13.5625 C 12.179688 13.5625 11.960938 13.5625 11.394531 13.5625 C 10.671875 13.5625 10.613281 13.5625 10.601562 13.5625 C 10.566406 13.554688 10.535156 13.546875 10.503906 13.53125 C 10.449219 13.503906 10.398438 13.457031 10.367188 13.402344 C 10.363281 13.398438 10.175781 13.0625 9.957031 12.664062 C 9.734375 12.261719 9.550781 11.929688 9.542969 11.921875 C 9.480469 11.824219 9.367188 11.773438 9.253906 11.792969 C 9.148438 11.8125 9.0625 11.882812 9.023438 11.980469 C 9.023438 11.988281 8.757812 12.84375 8.433594 13.886719 C 8.109375 14.925781 7.839844 15.78125 7.839844 15.789062 C 7.820312 15.832031 7.792969 15.871094 7.761719 15.90625 C 7.710938 15.953125 7.648438 15.984375 7.578125 15.996094 C 7.554688 16 7.503906 16 7.480469 15.996094 C 7.40625 15.984375 7.335938 15.949219 7.285156 15.894531 C 7.269531 15.878906 7.253906 15.855469 7.242188 15.835938 C 7.238281 15.828125 6.976562 15.351562 6.667969 14.773438 C 6.355469 14.195312 6.09375 13.71875 6.089844 13.710938 C 6.0625 13.664062 6.019531 13.621094 5.972656 13.597656 C 5.945312 13.582031 5.917969 13.574219 5.886719 13.566406 L 5.871094 13.566406 L 4.8125 13.5625 L 3.753906 13.5625 L 3.726562 13.515625 C 3.648438 13.378906 3.578125 13.25 3.507812 13.113281 C 3.480469 13.0625 3.421875 12.945312 3.410156 12.917969 L 3.398438 12.894531 L 4.820312 12.898438 C 6.144531 12.898438 6.242188 12.898438 6.253906 12.898438 C 6.277344 12.902344 6.289062 12.90625 6.304688 12.910156 C 6.378906 12.933594 6.445312 12.980469 6.488281 13.042969 C 6.492188 13.054688 6.628906 13.300781 6.808594 13.636719 C 6.980469 13.953125 7.125 14.214844 7.128906 14.222656 C 7.140625 14.238281 7.144531 14.246094 7.160156 14.265625 C 7.1875 14.289062 7.210938 14.308594 7.242188 14.324219 C 7.300781 14.351562 7.367188 14.359375 7.429688 14.347656 C 7.527344 14.328125 7.609375 14.257812 7.644531 14.164062 C 7.648438 14.15625 7.914062 13.300781 8.238281 12.265625 C 8.558594 11.230469 8.828125 10.378906 8.828125 10.371094 C 8.875 10.257812 8.976562 10.179688 9.097656 10.164062 C 9.128906 10.160156 9.171875 10.160156 9.207031 10.167969 C 9.269531 10.179688 9.328125 10.210938 9.371094 10.257812 C 9.390625 10.277344 9.402344 10.289062 9.417969 10.3125 C 9.421875 10.320312 9.726562 10.871094 10.097656 11.539062 C 10.464844 12.203125 10.769531 12.753906 10.773438 12.761719 C 10.785156 12.777344 10.796875 12.792969 10.8125 12.8125 C 10.859375 12.859375 10.921875 12.886719 10.988281 12.894531 C 11.007812 12.898438 11.75 12.898438 11.769531 12.894531 C 11.875 12.882812 11.964844 12.8125 12.007812 12.71875 C 12.011719 12.707031 12.449219 11.582031 12.984375 10.214844 C 13.625 8.574219 13.957031 7.722656 13.964844 7.710938 C 13.972656 7.691406 13.984375 7.671875 14 7.652344 C 14.011719 7.636719 14.042969 7.605469 14.0625 7.59375 C 14.113281 7.554688 14.167969 7.53125 14.230469 7.527344 C 14.246094 7.523438 14.289062 7.527344 14.308594 7.527344 Z M 14.308594 7.527344 "/>
</g>
</svg>
