<?xml version="1.0" encoding="UTF-8"?>
<svg xmlns="http://www.w3.org/2000/svg" xmlns:xlink="http://www.w3.org/1999/xlink" viewBox="0 0 24 24" version="1.1">
<g>
<path style=" stroke:none;fill-rule:nonzero;fill:rgb(0%,0%,0%);fill-opacity:1;" d="M 11.628906 2.980469 C 10.328125 3.007812 9.070312 3.300781 7.898438 3.847656 C 7.75 3.917969 7.570312 4.007812 7.425781 4.085938 C 6.5625 4.550781 5.777344 5.148438 5.101562 5.855469 C 4.351562 6.636719 3.75 7.539062 3.308594 8.523438 C 2.722656 9.847656 2.453125 11.292969 2.527344 12.753906 C 2.597656 14.164062 2.980469 15.523438 3.660156 16.757812 C 4.183594 17.710938 4.875 18.574219 5.695312 19.292969 C 6.34375 19.859375 7.066406 20.335938 7.84375 20.707031 C 8.957031 21.234375 10.160156 21.535156 11.394531 21.589844 C 11.554688 21.597656 11.613281 21.597656 11.824219 21.597656 C 12.015625 21.597656 12.054688 21.597656 12.1875 21.59375 C 13.582031 21.539062 14.9375 21.175781 16.167969 20.523438 C 17.203125 19.976562 18.132812 19.230469 18.898438 18.335938 C 19.605469 17.511719 20.160156 16.574219 20.539062 15.566406 C 20.890625 14.636719 21.089844 13.652344 21.128906 12.65625 C 21.132812 12.511719 21.136719 12.390625 21.136719 12.234375 C 21.132812 12.082031 21.132812 12 21.125 11.871094 C 21.066406 10.566406 20.742188 9.304688 20.15625 8.140625 C 19.75 7.320312 19.222656 6.570312 18.589844 5.898438 C 18.472656 5.773438 18.320312 5.621094 18.191406 5.503906 C 17.449219 4.804688 16.597656 4.234375 15.679688 3.816406 C 14.640625 3.339844 13.527344 3.0625 12.386719 2.996094 C 12.265625 2.988281 12.144531 2.984375 12.011719 2.980469 C 11.9375 2.980469 11.707031 2.980469 11.628906 2.980469 Z M 12.027344 3.726562 C 12.351562 3.734375 12.65625 3.761719 12.96875 3.800781 C 14.023438 3.941406 15.035156 4.277344 15.964844 4.796875 C 16.535156 5.109375 17.0625 5.488281 17.546875 5.921875 C 17.742188 6.097656 17.933594 6.285156 18.113281 6.480469 C 18.585938 6.992188 18.996094 7.558594 19.332031 8.171875 C 19.421875 8.335938 19.519531 8.523438 19.597656 8.695312 C 19.984375 9.527344 20.230469 10.410156 20.335938 11.324219 C 20.359375 11.546875 20.375 11.773438 20.382812 12 C 20.390625 12.171875 20.390625 12.40625 20.382812 12.578125 C 20.332031 14.171875 19.839844 15.703125 18.957031 17.027344 C 18.554688 17.628906 18.085938 18.171875 17.546875 18.65625 C 16.632812 19.480469 15.542969 20.101562 14.367188 20.46875 C 13.277344 20.808594 12.125 20.925781 10.976562 20.8125 C 10.070312 20.722656 9.1875 20.488281 8.355469 20.121094 C 8.167969 20.035156 7.96875 19.9375 7.785156 19.839844 C 7.128906 19.484375 6.515625 19.046875 5.972656 18.535156 C 5.886719 18.453125 5.761719 18.335938 5.679688 18.25 C 5.261719 17.816406 4.886719 17.339844 4.566406 16.832031 C 3.996094 15.921875 3.605469 14.925781 3.410156 13.878906 C 3.285156 13.21875 3.238281 12.550781 3.269531 11.878906 C 3.332031 10.601562 3.675781 9.363281 4.28125 8.238281 C 4.628906 7.59375 5.0625 6.992188 5.5625 6.453125 C 5.6875 6.320312 5.855469 6.152344 5.988281 6.027344 C 6.679688 5.386719 7.46875 4.859375 8.328125 4.472656 C 9.101562 4.125 9.925781 3.894531 10.769531 3.789062 C 11.074219 3.753906 11.378906 3.730469 11.695312 3.726562 C 11.773438 3.726562 11.945312 3.726562 12.027344 3.726562 Z M 12.027344 3.726562 "/>
<path style=" stroke:none;fill-rule:nonzero;fill:rgb(0%,0%,0%);fill-opacity:1;" d="M 9.507812 8.402344 C 9.054688 8.421875 8.632812 8.542969 8.234375 8.765625 C 7.980469 8.910156 7.734375 9.101562 7.523438 9.324219 C 7.222656 9.636719 6.984375 10.011719 6.820312 10.425781 C 6.667969 10.800781 6.582031 11.191406 6.5625 11.613281 C 6.554688 11.695312 6.554688 11.753906 6.554688 11.855469 C 6.558594 11.953125 6.558594 11.976562 6.5625 12.050781 C 6.585938 12.445312 6.667969 12.828125 6.808594 13.191406 C 6.96875 13.605469 7.203125 13.984375 7.5 14.300781 C 7.511719 14.3125 7.605469 14.40625 7.703125 14.503906 C 7.804688 14.605469 8 14.800781 8.136719 14.9375 C 9.742188 16.546875 10.703125 17.457031 11.222656 17.859375 C 11.441406 18.027344 11.597656 18.117188 11.714844 18.148438 C 11.757812 18.15625 11.789062 18.160156 11.847656 18.160156 C 11.890625 18.160156 11.910156 18.15625 11.9375 18.152344 C 12.070312 18.121094 12.261719 18 12.5625 17.753906 C 12.824219 17.535156 13.195312 17.203125 13.636719 16.785156 C 13.667969 16.753906 14.070312 16.363281 14.527344 15.910156 C 15.339844 15.113281 15.375 15.078125 15.652344 14.796875 C 15.8125 14.636719 15.972656 14.476562 16.007812 14.441406 C 16.046875 14.40625 16.089844 14.363281 16.105469 14.34375 C 16.316406 14.128906 16.503906 13.871094 16.65625 13.597656 C 16.910156 13.125 17.058594 12.589844 17.089844 12.035156 C 17.097656 11.898438 17.097656 11.742188 17.089844 11.605469 C 17.066406 11.191406 16.980469 10.808594 16.835938 10.433594 C 16.625 9.902344 16.285156 9.429688 15.863281 9.078125 C 15.472656 8.753906 15.023438 8.539062 14.546875 8.449219 C 14.0625 8.359375 13.558594 8.398438 13.09375 8.566406 C 12.621094 8.734375 12.191406 9.03125 11.839844 9.433594 L 11.824219 9.449219 L 11.804688 9.425781 C 11.71875 9.332031 11.621094 9.230469 11.523438 9.144531 C 11.167969 8.828125 10.746094 8.601562 10.304688 8.488281 C 10.117188 8.441406 9.957031 8.417969 9.75 8.40625 C 9.714844 8.402344 9.546875 8.402344 9.507812 8.402344 Z M 14.089844 9.148438 C 14.320312 9.15625 14.523438 9.195312 14.730469 9.269531 C 15.277344 9.46875 15.753906 9.914062 16.042969 10.496094 C 16.21875 10.84375 16.316406 11.214844 16.34375 11.625 C 16.347656 11.699219 16.347656 11.730469 16.347656 11.824219 C 16.347656 11.929688 16.34375 11.992188 16.335938 12.085938 C 16.300781 12.515625 16.179688 12.921875 15.976562 13.28125 C 15.886719 13.4375 15.78125 13.589844 15.664062 13.722656 C 15.621094 13.773438 15.59375 13.800781 15.347656 14.046875 C 15.054688 14.339844 13.203125 16.164062 13.09375 16.269531 C 12.554688 16.78125 12.132812 17.152344 11.890625 17.332031 C 11.871094 17.34375 11.828125 17.375 11.824219 17.378906 C 11.824219 17.378906 11.8125 17.371094 11.800781 17.363281 C 11.480469 17.148438 10.730469 16.457031 9.5625 15.304688 C 9.332031 15.074219 9.117188 14.859375 8.792969 14.539062 C 8.605469 14.347656 8.363281 14.105469 8.253906 14 C 8.148438 13.890625 8.050781 13.792969 8.039062 13.78125 C 7.667969 13.382812 7.421875 12.859375 7.335938 12.285156 C 7.292969 11.988281 7.289062 11.679688 7.332031 11.378906 C 7.425781 10.710938 7.742188 10.105469 8.214844 9.691406 C 8.574219 9.375 9.003906 9.191406 9.449219 9.15625 C 9.511719 9.152344 9.535156 9.148438 9.609375 9.148438 C 9.699219 9.148438 9.75 9.152344 9.832031 9.160156 C 10.324219 9.214844 10.789062 9.449219 11.160156 9.832031 C 11.285156 9.960938 11.394531 10.101562 11.496094 10.261719 C 11.519531 10.296875 11.53125 10.3125 11.550781 10.332031 C 11.605469 10.390625 11.679688 10.425781 11.765625 10.4375 C 11.8125 10.445312 11.871094 10.445312 11.921875 10.433594 C 11.996094 10.414062 12.0625 10.375 12.109375 10.324219 C 12.125 10.304688 12.132812 10.292969 12.15625 10.257812 C 12.335938 9.972656 12.5625 9.730469 12.820312 9.546875 C 13.070312 9.363281 13.351562 9.242188 13.644531 9.183594 C 13.789062 9.15625 13.945312 9.144531 14.089844 9.148438 Z M 14.089844 9.148438 "/>
</g>
</svg>
