<?xml version="1.0" encoding="UTF-8"?>
<svg xmlns="http://www.w3.org/2000/svg" xmlns:xlink="http://www.w3.org/1999/xlink" width="px" height="px" viewBox="0 0 8534 8534" version="1.1">
<g>
<path style=" stroke:none;fill-rule:nonzero;fill:rgb(0%,0%,0%);fill-opacity:1;" d="M 2633.074219 1877.839844 C 1699.828125 2558.621094 936.292969 3115.847656 936.292969 3116.195312 C 936.292969 3116.496094 1047.449219 3269.152344 1183.304688 3455.460938 C 1361.8125 3700.273438 1430.566406 3794.128906 1431.117188 3793.976562 C 1431.566406 3793.878906 2084.546875 3317.753906 2882.136719 2735.878906 C 4038.238281 1892.488281 4332.503906 1678.078125 4333.203125 1678.378906 C 4333.652344 1678.628906 4993.035156 2155.050781 5798.472656 2737.128906 C 6603.910156 3319.207031 7263.089844 3795.429688 7263.390625 3795.429688 C 7264.039062 3795.429688 7755.464844 3115.644531 7755.261719 3115.097656 C 7755.0625 3114.546875 4330.753906 640.03125 4330.253906 640.03125 C 4330.003906 640.03125 3566.265625 1197.054688 2633.074219 1877.839844 Z M 5899.726562 2037.34375 C 6756.367188 2656.375 7457.25 3163.046875 7457.199219 3163.25 C 7457.097656 3163.699219 7215.738281 3497.664062 7215.539062 3497.664062 C 7215.488281 3497.664062 6567.007812 3029.042969 5774.421875 2456.316406 C 4981.882812 1883.539062 4333.101562 1414.714844 4332.652344 1414.417969 C 4332.054688 1414.015625 4038.1875 1628.175781 2904.636719 2455.113281 C 1827.9375 3240.601562 1477.320312 3496.113281 1477.019531 3495.613281 C 1476.769531 3495.214844 1422.015625 3420.210938 1355.363281 3328.90625 L 1234.15625 3162.898438 L 1235.507812 3161.796875 C 1236.207031 3161.199219 1932.941406 2652.875 2783.832031 2032.195312 L 4330.851562 903.640625 L 4336.453125 907.691406 C 4339.554688 909.941406 5043.035156 1418.265625 5899.726562 2037.34375 Z M 5899.726562 2037.34375 "/>
<path style=" stroke:none;fill-rule:nonzero;fill:rgb(0%,0%,0%);fill-opacity:1;" d="M 4276.449219 2810.183594 C 4164.84375 2816.980469 4063.640625 2856.484375 3978.035156 2926.636719 C 3923.082031 2971.640625 3876.78125 3029.640625 3844.878906 3093.246094 C 3816.128906 3150.648438 3798.277344 3212.75 3792.476562 3275.652344 C 3790.425781 3297.804688 3790.425781 3297.605469 3790.425781 3415.410156 C 3790.425781 3535.316406 3790.425781 3533.867188 3792.726562 3557.214844 C 3802.878906 3660.371094 3843.929688 3757.824219 3910.433594 3836.828125 C 3914.535156 3841.78125 3918.582031 3846.53125 3919.332031 3847.480469 C 3920.382812 3848.730469 3920.582031 3849.230469 3920.082031 3849.429688 C 3919.734375 3849.53125 3914.582031 3850.679688 3908.632812 3851.878906 C 3817.777344 3870.832031 3722.222656 3898.183594 3632.921875 3930.835938 C 3586.566406 3947.785156 3569.46875 3954.785156 3543.917969 3967.4375 C 3520.363281 3979.085938 3503.613281 3988.738281 3481.414062 4003.4375 C 3444.863281 4027.640625 3415.511719 4052.140625 3383.660156 4084.941406 C 3330.605469 4139.695312 3287.054688 4208.699219 3259.753906 4281.199219 C 3238.25 4338.253906 3226.101562 4396.757812 3223.152344 4457.707031 C 3222.75 4465.757812 3222.652344 4599.566406 3222.75 4930.980469 C 3222.902344 5364.050781 3223 5393.503906 3223.800781 5400.753906 C 3227.152344 5431.203125 3232.203125 5454.253906 3241.203125 5480.605469 C 3272.203125 5571.160156 3341.304688 5645.664062 3429.410156 5683.367188 C 3433.5625 5685.167969 3494.8125 5709.96875 3565.515625 5738.570312 L 3694.171875 5790.519531 L 3694.171875 7089.832031 L 3907.683594 7089.832031 L 3907.683594 4489.210938 L 3694.171875 4489.210938 L 3694.074219 5024.683594 L 3693.921875 5560.160156 L 3603.417969 5523.609375 C 3553.667969 5503.457031 3511.113281 5486.15625 3508.964844 5485.105469 C 3503.363281 5482.457031 3494.164062 5476.90625 3489.164062 5473.207031 C 3471.710938 5460.355469 3458.410156 5444.457031 3449.160156 5425.503906 C 3442.660156 5412.152344 3439.210938 5400.804688 3436.5625 5384.003906 C 3435.710938 5378.601562 3435.3125 4490.761719 3436.160156 4471.460938 C 3439.011719 4405.605469 3458.113281 4344.652344 3493.214844 4289.449219 C 3513.015625 4258.25 3538.867188 4228.949219 3567.917969 4204.695312 C 3592.320312 4184.296875 3621.96875 4165.84375 3651.972656 4152.394531 C 3669.070312 4144.746094 3712.175781 4128.742188 3749.675781 4116.144531 C 3905.28125 4063.742188 4066.589844 4032.988281 4230.699219 4024.4375 C 4265.101562 4022.6875 4275.148438 4022.4375 4323.703125 4022.4375 C 4372.304688 4022.4375 4382.40625 4022.6875 4416.707031 4024.4375 C 4601.664062 4034.140625 4781.625 4071.589844 4955.480469 4136.695312 C 4977.882812 4145.09375 4986.632812 4148.792969 5000.734375 4155.746094 C 5017.085938 4163.796875 5028.4375 4170.34375 5042.835938 4179.996094 C 5131.539062 4239.449219 5190.34375 4336.203125 5202.242188 4442.160156 C 5204.59375 4463.460938 5204.492188 4440.707031 5204.492188 4915.230469 C 5204.492188 5341.898438 5204.445312 5362.800781 5203.59375 5368.75 C 5202.492188 5376.550781 5200.59375 5385.050781 5198.644531 5391.253906 C 5186.742188 5428.703125 5158.890625 5458.65625 5122.738281 5472.957031 C 5118.488281 5474.605469 4954.382812 5524.808594 4947.382812 5526.558594 L 4946.230469 5526.859375 L 4946.230469 4489.210938 L 4732.722656 4489.210938 L 4732.722656 7085.332031 L 4946.230469 7085.332031 L 4946.230469 5750.019531 L 5058.386719 5716.066406 C 5175.691406 5680.566406 5190.394531 5675.964844 5203.492188 5670.617188 C 5279.949219 5639.5625 5341.699219 5583.410156 5379.550781 5510.507812 C 5388.003906 5494.257812 5394.304688 5479.207031 5400.503906 5460.507812 C 5408.703125 5435.804688 5413.304688 5414.003906 5416.605469 5384.253906 C 5417.402344 5377.003906 5417.503906 5347.601562 5417.652344 4921.980469 C 5417.804688 4458.207031 5417.804688 4457.859375 5415.953125 4435.457031 C 5400.703125 4250.097656 5296.5 4082.292969 5137.492188 3987.238281 C 5102.738281 3966.4375 5075.886719 3953.835938 5029.484375 3936.433594 C 4937.429688 3901.933594 4837.976562 3872.832031 4745.722656 3853.429688 C 4737.070312 3851.582031 4729.570312 3849.929688 4729.070312 3849.78125 C 4728.320312 3849.480469 4728.871094 3848.679688 4732.371094 3844.679688 C 4753.523438 3820.628906 4774.875 3790.578125 4791.574219 3761.425781 C 4827.675781 3698.421875 4850.277344 3626.871094 4856.925781 3554.667969 C 4858.976562 3532.515625 4858.976562 3532.664062 4858.976562 3415.660156 C 4858.976562 3296.503906 4858.976562 3296.554688 4856.675781 3273.402344 C 4843.726562 3142.796875 4781.574219 3022.390625 4682.570312 2936.085938 C 4614.566406 2876.835938 4532.414062 2836.53125 4444.207031 2819.183594 C 4424.308594 2815.28125 4405.355469 2812.730469 4380.207031 2810.582031 C 4372.003906 2809.882812 4286.800781 2809.53125 4276.449219 2810.183594 Z M 4369.703125 3023.839844 C 4401.957031 3026.890625 4430.609375 3033.84375 4458.457031 3045.292969 C 4525.710938 3072.894531 4581.414062 3124.597656 4613.917969 3189.597656 C 4632.21875 3226.050781 4642.519531 3264.402344 4645.21875 3305.65625 C 4646.019531 3317.457031 4645.617188 3525.964844 4644.769531 3532.914062 C 4642.667969 3551.167969 4641.117188 3560.71875 4638.417969 3572.667969 C 4631.316406 3603.96875 4619.367188 3633.621094 4602.816406 3661.171875 C 4556.3125 3738.476562 4477.511719 3791.226562 4388.957031 3804.378906 C 4369.355469 3807.277344 4366.15625 3807.429688 4324.703125 3807.429688 C 4283.25 3807.429688 4280.050781 3807.277344 4260.449219 3804.378906 C 4163.496094 3790.027344 4078.589844 3728.074219 4034.9375 3639.921875 C 4028.1875 3626.269531 4023.988281 3616.121094 4019.136719 3601.667969 C 4011.839844 3579.71875 4007.835938 3561.21875 4004.835938 3535.414062 C 4004.085938 3528.566406 4003.988281 3518.316406 4003.789062 3420.660156 C 4003.636719 3311.753906 4003.6875 3305.953125 4005.488281 3290.402344 C 4008.585938 3263.253906 4015.136719 3237.402344 4025.238281 3212.050781 C 4029.488281 3201.398438 4038.789062 3182.449219 4044.691406 3172.398438 C 4068.242188 3132.296875 4100.59375 3098.246094 4139.542969 3072.492188 C 4182.144531 3044.292969 4232.199219 3027.242188 4283.199219 3023.640625 C 4295.550781 3022.792969 4296.351562 3022.792969 4329.703125 3022.941406 C 4353.804688 3023.042969 4363.453125 3023.242188 4369.703125 3023.839844 Z M 4369.703125 3023.839844 "/>
<path style=" stroke:none;fill-rule:nonzero;fill:rgb(0%,0%,0%);fill-opacity:1;" d="M 2035.59375 5395.851562 C 2035.59375 6587.910156 2035.746094 7178.285156 2036.09375 7183.835938 C 2041.695312 7275.039062 2079.347656 7358.792969 2143.652344 7422.847656 C 2200.003906 7479.050781 2272.257812 7515.101562 2350.910156 7526.304688 C 2356.660156 7527.152344 2365.511719 7528.203125 2370.609375 7528.703125 C 2379.511719 7529.554688 2455.664062 7529.601562 4346.203125 7529.601562 C 6237.34375 7529.601562 6312.894531 7529.554688 6321.296875 7528.703125 C 6339.496094 7526.804688 6353.398438 7524.703125 6367.546875 7521.550781 C 6454.152344 7502.453125 6530.007812 7453.449219 6583.457031 7382.097656 C 6604.257812 7354.292969 6622.011719 7321.542969 6634.011719 7288.742188 C 6645.410156 7257.441406 6651.410156 7229.890625 6655.410156 7190.085938 C 6655.863281 7185.4375 6656.0625 6788.46875 6656.160156 5400.101562 L 6656.3125 3616.167969 L 6442.800781 3616.167969 L 6442.652344 5397.101562 L 6442.503906 7178.085938 L 6441.453125 7184.335938 C 6435.601562 7218.738281 6422 7246.289062 6399.351562 7269.539062 C 6371.898438 7297.640625 6337.746094 7313.542969 6298.796875 7316.292969 C 6288.644531 7317.042969 2403.261719 7317.042969 2393.113281 7316.292969 C 2344.609375 7312.84375 2301.808594 7288.089844 2274.855469 7247.839844 C 2261.054688 7227.1875 2252.707031 7204.4375 2249.855469 7179.585938 C 2249.207031 7173.835938 2249.105469 6970.578125 2249.105469 5394.652344 L 2249.105469 3616.167969 L 2035.59375 3616.167969 Z M 2035.59375 5395.851562 "/>
<path style=" stroke:none;fill-rule:nonzero;fill:rgb(0%,0%,0%);fill-opacity:1;" d="M 4213.699219 6306.546875 L 4213.699219 7085.332031 L 4426.707031 7085.332031 L 4426.707031 5527.757812 L 4213.699219 5527.757812 Z M 4213.699219 6306.546875 "/>
</g>
</svg>
