<?xml version="1.0" encoding="UTF-8"?>
<svg xmlns="http://www.w3.org/2000/svg" xmlns:xlink="http://www.w3.org/1999/xlink" viewBox="0 0 24 24" version="1.1">
<g>
<path style=" stroke:none;fill-rule:nonzero;fill:rgb(0%,0%,0%);fill-opacity:1;" d="M 11.992188 2.148438 C 11.496094 2.167969 11.023438 2.335938 10.628906 2.632812 C 10.613281 2.644531 10.59375 2.660156 10.582031 2.667969 C 10.542969 2.699219 3.167969 8.6875 3.152344 8.703125 C 3.132812 8.722656 3.089844 8.761719 3.070312 8.785156 C 2.949219 8.917969 2.863281 9.082031 2.820312 9.253906 C 2.804688 9.316406 2.796875 9.363281 2.789062 9.429688 C 2.785156 9.453125 2.785156 9.6875 2.785156 15.144531 C 2.785156 19.808594 2.785156 20.839844 2.789062 20.855469 C 2.792969 20.890625 2.796875 20.921875 2.800781 20.953125 C 2.828125 21.125 2.898438 21.289062 3.003906 21.425781 C 3.054688 21.492188 3.117188 21.558594 3.179688 21.609375 C 3.363281 21.765625 3.585938 21.851562 3.828125 21.863281 C 3.867188 21.867188 8.828125 21.867188 8.867188 21.863281 C 8.992188 21.855469 9.109375 21.832031 9.222656 21.785156 C 9.601562 21.632812 9.863281 21.285156 9.902344 20.878906 C 9.90625 20.867188 9.90625 20.851562 9.90625 20.839844 C 9.910156 20.824219 9.910156 19.976562 9.910156 17.234375 L 9.910156 13.648438 L 14.289062 13.648438 L 14.289062 17.210938 C 14.289062 19.53125 14.289062 20.785156 14.292969 20.808594 C 14.296875 20.945312 14.324219 21.074219 14.378906 21.199219 C 14.519531 21.53125 14.816406 21.773438 15.171875 21.84375 C 15.214844 21.851562 15.261719 21.859375 15.308594 21.863281 C 15.34375 21.867188 20.359375 21.867188 20.394531 21.863281 C 20.449219 21.859375 20.503906 21.851562 20.550781 21.839844 C 20.742188 21.796875 20.910156 21.710938 21.054688 21.582031 C 21.074219 21.5625 21.125 21.515625 21.140625 21.492188 C 21.289062 21.324219 21.378906 21.121094 21.40625 20.90625 C 21.40625 20.894531 21.410156 20.875 21.410156 20.863281 C 21.414062 20.84375 21.414062 20.515625 21.414062 15.164062 C 21.414062 11.023438 21.414062 9.480469 21.414062 9.460938 C 21.398438 9.210938 21.300781 8.976562 21.132812 8.789062 C 21.113281 8.765625 21.058594 8.714844 21.039062 8.695312 C 21.011719 8.671875 13.632812 2.679688 13.601562 2.65625 C 13.28125 2.410156 12.90625 2.246094 12.507812 2.179688 C 12.40625 2.164062 12.308594 2.152344 12.203125 2.148438 C 12.164062 2.144531 12.03125 2.144531 11.992188 2.148438 Z M 12.203125 3.246094 C 12.324219 3.257812 12.425781 3.277344 12.535156 3.3125 C 12.679688 3.363281 12.816406 3.433594 12.933594 3.527344 C 12.945312 3.535156 14.609375 4.886719 16.636719 6.53125 L 20.316406 9.523438 L 20.316406 20.769531 L 15.386719 20.769531 L 15.386719 17.203125 C 15.386719 14.914062 15.386719 13.625 15.386719 13.605469 C 15.378906 13.433594 15.335938 13.277344 15.257812 13.128906 C 15.128906 12.882812 14.90625 12.699219 14.644531 12.609375 C 14.554688 12.578125 14.460938 12.558594 14.359375 12.550781 C 14.332031 12.550781 9.867188 12.550781 9.839844 12.550781 C 9.738281 12.558594 9.652344 12.574219 9.5625 12.605469 C 9.417969 12.652344 9.292969 12.726562 9.179688 12.828125 C 9.160156 12.84375 9.113281 12.890625 9.09375 12.910156 C 8.972656 13.046875 8.886719 13.203125 8.84375 13.378906 C 8.828125 13.441406 8.820312 13.492188 8.8125 13.570312 C 8.8125 13.585938 8.8125 14.382812 8.8125 17.179688 L 8.8125 20.769531 L 3.882812 20.769531 L 3.882812 9.523438 L 7.566406 6.53125 C 9.59375 4.882812 11.261719 3.527344 11.273438 3.519531 C 11.472656 3.367188 11.714844 3.273438 11.964844 3.25 C 11.984375 3.246094 12 3.246094 12.039062 3.242188 C 12.058594 3.242188 12.175781 3.242188 12.203125 3.246094 Z M 12.203125 3.246094 "/>
</g>
</svg>
