<?xml version="1.0" encoding="UTF-8"?>
<svg xmlns="http://www.w3.org/2000/svg" xmlns:xlink="http://www.w3.org/1999/xlink" viewBox="0 0 24 24" version="1.1">
<g>
<path style=" stroke:none;fill-rule:nonzero;fill:rgb(0%,0%,0%);fill-opacity:1;" d="M 9.738281 1.925781 C 9.445312 1.9375 9.160156 2.027344 8.90625 2.1875 C 8.832031 2.238281 8.765625 2.289062 8.695312 2.351562 C 8.667969 2.375 8.601562 2.441406 8.578125 2.46875 C 8.445312 2.617188 8.347656 2.777344 8.273438 2.957031 L 8.261719 2.984375 L 8.046875 2.984375 C 7.925781 2.984375 7.824219 2.984375 7.820312 2.984375 C 7.816406 2.988281 7.804688 2.988281 7.792969 2.988281 C 7.652344 3.003906 7.511719 3.054688 7.390625 3.132812 C 7.335938 3.167969 7.296875 3.203125 7.246094 3.25 C 7.199219 3.296875 7.167969 3.339844 7.132812 3.390625 L 7.121094 3.410156 L 6.335938 3.410156 C 5.796875 3.410156 5.546875 3.410156 5.539062 3.410156 C 5.523438 3.414062 5.5 3.417969 5.480469 3.425781 C 5.472656 3.425781 5.464844 3.429688 5.449219 3.429688 C 5.378906 3.433594 5.28125 3.445312 5.199219 3.464844 C 4.902344 3.527344 4.632812 3.667969 4.40625 3.871094 C 4.378906 3.898438 4.3125 3.960938 4.289062 3.988281 C 4.121094 4.171875 3.996094 4.382812 3.921875 4.613281 C 3.871094 4.765625 3.839844 4.925781 3.835938 5.089844 C 3.832031 5.136719 3.832031 20.289062 3.835938 20.335938 C 3.84375 20.554688 3.890625 20.753906 3.972656 20.953125 C 4.117188 21.285156 4.363281 21.566406 4.675781 21.753906 C 4.863281 21.867188 5.070312 21.945312 5.289062 21.980469 C 5.339844 21.988281 5.382812 21.992188 5.445312 22 C 5.472656 22 5.824219 22 11.820312 22 C 16.390625 22 18.171875 22 18.195312 22 C 18.6875 21.976562 19.140625 21.75 19.453125 21.367188 C 19.632812 21.152344 19.757812 20.890625 19.8125 20.617188 C 19.832031 20.519531 19.84375 20.425781 19.847656 20.320312 C 19.847656 20.261719 19.847656 5.167969 19.847656 5.105469 C 19.84375 5 19.832031 4.910156 19.8125 4.808594 C 19.714844 4.335938 19.421875 3.921875 19.003906 3.671875 C 18.777344 3.535156 18.523438 3.453125 18.253906 3.429688 C 18.195312 3.425781 18.179688 3.425781 17.371094 3.425781 L 16.570312 3.425781 L 16.566406 3.417969 C 16.425781 3.1875 16.1875 3.03125 15.921875 2.992188 C 15.863281 2.984375 15.871094 2.984375 15.632812 2.984375 L 15.417969 2.984375 L 15.40625 2.953125 C 15.316406 2.726562 15.164062 2.511719 14.976562 2.34375 C 14.761719 2.15625 14.511719 2.023438 14.238281 1.964844 C 14.152344 1.945312 14.078125 1.933594 13.976562 1.925781 C 13.957031 1.925781 13.472656 1.925781 11.859375 1.925781 C 10.710938 1.925781 9.753906 1.925781 9.738281 1.925781 Z M 13.960938 2.515625 C 14.015625 2.519531 14.046875 2.523438 14.089844 2.53125 C 14.332031 2.582031 14.550781 2.714844 14.707031 2.910156 C 14.804688 3.027344 14.871094 3.167969 14.90625 3.3125 C 14.921875 3.367188 14.925781 3.382812 14.9375 3.410156 C 14.984375 3.5 15.074219 3.558594 15.175781 3.570312 C 15.1875 3.570312 15.300781 3.570312 15.503906 3.570312 C 15.699219 3.570312 15.816406 3.570312 15.824219 3.570312 C 15.902344 3.582031 15.972656 3.613281 16.027344 3.671875 C 16.050781 3.695312 16.066406 3.722656 16.082031 3.753906 C 16.09375 3.777344 16.101562 3.789062 16.105469 3.8125 C 16.117188 3.855469 16.117188 3.824219 16.117188 4.21875 C 16.117188 4.550781 16.117188 4.570312 16.113281 4.585938 C 16.109375 4.621094 16.097656 4.652344 16.082031 4.683594 C 16.035156 4.78125 15.945312 4.84375 15.835938 4.863281 C 15.820312 4.863281 15.667969 4.863281 11.839844 4.863281 C 7.984375 4.863281 7.859375 4.863281 7.84375 4.863281 C 7.824219 4.859375 7.796875 4.851562 7.777344 4.847656 C 7.761719 4.839844 7.726562 4.820312 7.710938 4.8125 C 7.628906 4.757812 7.578125 4.671875 7.566406 4.574219 C 7.566406 4.554688 7.566406 3.878906 7.566406 3.863281 C 7.574219 3.785156 7.609375 3.714844 7.664062 3.660156 C 7.710938 3.617188 7.765625 3.585938 7.835938 3.574219 C 7.851562 3.570312 7.851562 3.570312 8.179688 3.570312 C 8.542969 3.570312 8.515625 3.570312 8.554688 3.5625 C 8.625 3.542969 8.6875 3.5 8.726562 3.4375 C 8.746094 3.40625 8.757812 3.378906 8.769531 3.328125 C 8.785156 3.261719 8.800781 3.214844 8.824219 3.160156 C 8.933594 2.894531 9.15625 2.679688 9.433594 2.578125 C 9.53125 2.539062 9.636719 2.519531 9.742188 2.511719 C 9.753906 2.511719 10.703125 2.511719 11.855469 2.511719 C 13.457031 2.511719 13.949219 2.511719 13.960938 2.515625 Z M 6.980469 4.28125 C 6.980469 4.578125 6.980469 4.59375 6.984375 4.644531 C 7 4.796875 7.058594 4.941406 7.148438 5.066406 C 7.222656 5.175781 7.324219 5.265625 7.4375 5.332031 C 7.5625 5.402344 7.699219 5.445312 7.847656 5.449219 C 7.890625 5.453125 15.792969 5.453125 15.832031 5.449219 C 15.898438 5.445312 15.957031 5.4375 16.015625 5.425781 C 16.371094 5.335938 16.636719 5.039062 16.691406 4.675781 C 16.703125 4.609375 16.703125 4.59375 16.703125 4.28125 L 16.703125 4.011719 L 17.085938 4.011719 L 17.085938 18.417969 L 6.59375 18.417969 L 6.59375 3.996094 L 6.980469 3.996094 Z M 6.007812 11.367188 C 6.007812 16.542969 6.007812 18.730469 6.011719 18.738281 C 6.019531 18.839844 6.082031 18.925781 6.167969 18.972656 C 6.195312 18.984375 6.222656 18.996094 6.253906 19 C 6.269531 19.003906 6.507812 19.003906 11.832031 19.003906 C 15.933594 19.003906 17.398438 19.003906 17.410156 19.003906 C 17.460938 18.996094 17.515625 18.976562 17.558594 18.945312 C 17.570312 18.933594 17.597656 18.910156 17.609375 18.894531 C 17.640625 18.855469 17.660156 18.808594 17.671875 18.753906 C 17.671875 18.738281 17.671875 18.46875 17.671875 11.375 L 17.671875 4.011719 L 17.921875 4.011719 C 18.171875 4.011719 18.175781 4.011719 18.230469 4.015625 C 18.46875 4.039062 18.691406 4.140625 18.875 4.300781 C 18.898438 4.324219 18.953125 4.375 18.972656 4.398438 C 19.097656 4.542969 19.183594 4.703125 19.226562 4.882812 C 19.246094 4.949219 19.253906 5.007812 19.257812 5.085938 C 19.261719 5.117188 19.261719 20.308594 19.257812 20.34375 C 19.253906 20.421875 19.246094 20.476562 19.226562 20.542969 C 19.195312 20.675781 19.140625 20.796875 19.066406 20.910156 C 19.023438 20.972656 18.980469 21.023438 18.925781 21.078125 C 18.878906 21.125 18.851562 21.148438 18.800781 21.1875 C 18.703125 21.261719 18.597656 21.316406 18.480469 21.355469 C 18.375 21.390625 18.269531 21.410156 18.152344 21.414062 C 18.09375 21.417969 5.519531 21.417969 5.492188 21.414062 C 5.433594 21.410156 5.398438 21.402344 5.359375 21.398438 C 5.171875 21.363281 4.988281 21.277344 4.84375 21.15625 C 4.785156 21.109375 4.726562 21.050781 4.679688 20.996094 C 4.617188 20.917969 4.5625 20.828125 4.519531 20.738281 C 4.460938 20.605469 4.429688 20.46875 4.421875 20.324219 C 4.417969 20.28125 4.417969 5.097656 4.421875 5.074219 C 4.421875 5.066406 4.425781 5.046875 4.425781 5.03125 C 4.453125 4.792969 4.554688 4.566406 4.71875 4.390625 C 4.738281 4.363281 4.789062 4.3125 4.816406 4.292969 C 5 4.132812 5.222656 4.039062 5.46875 4.015625 C 5.511719 4.011719 5.542969 4.011719 5.777344 4.011719 L 6.007812 4.011719 Z M 6.007812 11.367188 "/>
<path style=" stroke:none;fill-rule:nonzero;fill:rgb(0%,0%,0%);fill-opacity:1;" d="M 11.253906 2.855469 C 11.136719 2.871094 11.039062 2.957031 11.011719 3.074219 C 10.992188 3.140625 11 3.210938 11.03125 3.273438 C 11.078125 3.367188 11.167969 3.429688 11.273438 3.4375 C 11.289062 3.4375 11.46875 3.4375 11.84375 3.4375 C 12.363281 3.4375 12.394531 3.4375 12.410156 3.433594 C 12.449219 3.429688 12.484375 3.414062 12.515625 3.398438 C 12.582031 3.355469 12.632812 3.292969 12.652344 3.21875 C 12.671875 3.144531 12.660156 3.0625 12.621094 2.996094 C 12.589844 2.945312 12.542969 2.902344 12.488281 2.878906 C 12.464844 2.867188 12.429688 2.855469 12.398438 2.851562 C 12.390625 2.851562 12.195312 2.851562 11.828125 2.851562 C 11.34375 2.851562 11.269531 2.851562 11.253906 2.855469 Z M 11.253906 2.855469 "/>
<path style=" stroke:none;fill-rule:nonzero;fill:rgb(0%,0%,0%);fill-opacity:1;" d="M 11.117188 7.335938 C 11.015625 7.347656 10.929688 7.40625 10.886719 7.496094 C 10.882812 7.5 10.691406 7.980469 10.457031 8.554688 L 10.039062 9.605469 L 9.167969 9.605469 C 8.359375 9.605469 8.292969 9.605469 8.28125 9.609375 C 8.246094 9.617188 8.222656 9.621094 8.195312 9.636719 C 8.109375 9.679688 8.050781 9.757812 8.035156 9.851562 C 8.035156 9.863281 8.03125 9.875 8.03125 9.898438 C 8.03125 9.933594 8.035156 9.945312 8.042969 9.972656 C 8.058594 10.042969 8.101562 10.101562 8.160156 10.140625 C 8.195312 10.167969 8.234375 10.179688 8.277344 10.1875 C 8.292969 10.191406 8.339844 10.191406 9.28125 10.191406 C 10.222656 10.191406 10.269531 10.191406 10.28125 10.1875 C 10.34375 10.175781 10.394531 10.152344 10.4375 10.109375 C 10.464844 10.085938 10.484375 10.0625 10.496094 10.03125 C 10.503906 10.019531 10.636719 9.6875 10.796875 9.285156 C 10.957031 8.886719 11.089844 8.5625 11.089844 8.5625 C 11.089844 8.5625 11.304688 9.375 11.566406 10.367188 C 11.828125 11.359375 12.042969 12.179688 12.046875 12.1875 C 12.0625 12.242188 12.101562 12.296875 12.148438 12.332031 C 12.199219 12.371094 12.257812 12.390625 12.324219 12.390625 C 12.355469 12.390625 12.382812 12.382812 12.414062 12.375 C 12.5 12.347656 12.570312 12.277344 12.601562 12.191406 C 12.605469 12.179688 13.164062 10.160156 13.164062 10.15625 C 13.164062 10.15625 13.652344 10.15625 14.246094 10.15625 C 15.269531 10.15625 15.332031 10.15625 15.339844 10.152344 C 15.40625 10.140625 15.453125 10.117188 15.496094 10.074219 C 15.542969 10.027344 15.574219 9.96875 15.582031 9.902344 C 15.585938 9.878906 15.585938 9.832031 15.582031 9.816406 C 15.570312 9.761719 15.550781 9.71875 15.523438 9.679688 C 15.511719 9.667969 15.484375 9.640625 15.472656 9.632812 C 15.429688 9.601562 15.382812 9.578125 15.332031 9.574219 C 15.320312 9.570312 15.195312 9.570312 14.117188 9.570312 C 13.285156 9.570312 12.914062 9.570312 12.90625 9.570312 C 12.816406 9.582031 12.742188 9.632812 12.691406 9.707031 C 12.683594 9.71875 12.671875 9.746094 12.664062 9.761719 C 12.660156 9.777344 12.675781 9.71875 12.488281 10.394531 C 12.402344 10.710938 12.332031 10.96875 12.332031 10.96875 C 12.328125 10.96875 12.128906 10.199219 11.878906 9.257812 C 11.632812 8.3125 11.425781 7.535156 11.421875 7.527344 C 11.410156 7.488281 11.386719 7.453125 11.355469 7.421875 C 11.308594 7.375 11.246094 7.34375 11.175781 7.335938 C 11.164062 7.335938 11.132812 7.335938 11.117188 7.335938 Z M 11.117188 7.335938 "/>
<path style=" stroke:none;fill-rule:nonzero;fill:rgb(0%,0%,0%);fill-opacity:1;" d="M 8.296875 15.363281 C 8.175781 15.375 8.074219 15.460938 8.042969 15.578125 C 8.035156 15.605469 8.03125 15.617188 8.03125 15.652344 C 8.03125 15.6875 8.035156 15.699219 8.042969 15.730469 C 8.074219 15.847656 8.175781 15.933594 8.296875 15.945312 C 8.320312 15.945312 15.300781 15.945312 15.320312 15.945312 C 15.355469 15.941406 15.386719 15.933594 15.417969 15.917969 C 15.507812 15.875 15.570312 15.789062 15.582031 15.691406 C 15.585938 15.671875 15.585938 15.636719 15.582031 15.613281 C 15.566406 15.480469 15.457031 15.375 15.320312 15.363281 C 15.300781 15.359375 8.3125 15.359375 8.296875 15.363281 Z M 8.296875 15.363281 "/>
</g>
</svg>
