<?xml version="1.0" encoding="UTF-8"?>
<svg xmlns="http://www.w3.org/2000/svg" xmlns:xlink="http://www.w3.org/1999/xlink" viewBox="0 0 24 24" version="1.1">
<g>
<path style=" stroke:none;fill-rule:nonzero;fill:rgb(0%,0%,0%);fill-opacity:1;" d="M 14.976562 3.550781 C 14.804688 3.550781 14.433594 3.554688 14.148438 3.554688 C 12.949219 3.558594 12.835938 3.558594 9.925781 3.558594 C 7.140625 3.558594 6.101562 3.558594 6.039062 3.5625 C 5.988281 3.5625 5.960938 3.566406 5.925781 3.570312 C 5.328125 3.617188 4.765625 3.832031 4.304688 4.191406 C 4.105469 4.34375 3.933594 4.523438 3.785156 4.71875 C 3.519531 5.074219 3.34375 5.484375 3.269531 5.925781 C 3.234375 6.152344 3.214844 6.445312 3.214844 6.800781 C 3.214844 6.929688 3.214844 7.042969 3.222656 7.328125 C 3.226562 7.519531 3.230469 7.578125 3.230469 7.683594 C 3.230469 7.75 3.230469 9.667969 3.230469 12.90625 C 3.230469 16.195312 3.230469 18.046875 3.234375 18.085938 C 3.242188 18.457031 3.273438 18.695312 3.355469 18.957031 C 3.5 19.421875 3.769531 19.847656 4.136719 20.191406 C 4.410156 20.445312 4.738281 20.648438 5.082031 20.777344 C 5.371094 20.886719 5.695312 20.941406 6.117188 20.957031 C 6.242188 20.960938 6.4375 20.964844 6.605469 20.960938 C 6.753906 20.957031 6.929688 20.957031 6.949219 20.953125 C 6.960938 20.953125 9.421875 20.953125 12.421875 20.953125 C 17.527344 20.953125 17.878906 20.953125 17.910156 20.949219 C 17.980469 20.945312 18.03125 20.941406 18.082031 20.933594 C 18.488281 20.886719 18.875 20.757812 19.222656 20.550781 C 19.714844 20.257812 20.113281 19.816406 20.355469 19.289062 C 20.503906 18.964844 20.589844 18.621094 20.617188 18.261719 C 20.621094 18.21875 20.621094 18.183594 20.625 18.125 C 20.625 18.082031 20.625 14.472656 20.625 7 C 20.625 6.496094 20.625 6.355469 20.621094 6.257812 C 20.585938 5.691406 20.386719 5.15625 20.050781 4.707031 C 19.914062 4.527344 19.761719 4.367188 19.589844 4.222656 C 19.359375 4.03125 19.101562 3.875 18.824219 3.765625 C 18.535156 3.648438 18.230469 3.582031 17.914062 3.5625 C 17.839844 3.558594 17.621094 3.554688 17.019531 3.550781 C 16.769531 3.550781 15.375 3.550781 14.976562 3.550781 Z M 12.03125 4.167969 C 16.085938 4.167969 17.523438 4.167969 17.5625 4.167969 C 17.757812 4.175781 17.851562 4.179688 17.972656 4.195312 C 18.363281 4.234375 18.675781 4.328125 18.953125 4.492188 C 19.21875 4.652344 19.460938 4.886719 19.640625 5.15625 C 19.851562 5.472656 19.976562 5.839844 20.007812 6.230469 C 20.011719 6.273438 20.015625 6.324219 20.015625 6.375 C 20.015625 6.40625 20.015625 8.257812 20.015625 11.808594 C 20.015625 15.277344 20.019531 17.21875 20.019531 17.261719 C 20.019531 17.300781 20.019531 17.378906 20.023438 17.429688 C 20.027344 17.621094 20.027344 17.679688 20.027344 17.796875 C 20.027344 17.945312 20.023438 18.027344 20.019531 18.132812 C 20 18.507812 19.9375 18.789062 19.816406 19.050781 C 19.722656 19.25 19.601562 19.4375 19.445312 19.605469 C 19.417969 19.636719 19.332031 19.726562 19.300781 19.753906 C 19.0625 19.96875 18.785156 20.128906 18.480469 20.230469 C 18.277344 20.296875 18.070312 20.335938 17.851562 20.34375 C 17.804688 20.34375 6.011719 20.34375 5.964844 20.34375 C 5.910156 20.339844 5.871094 20.339844 5.828125 20.335938 C 5.386719 20.292969 4.960938 20.105469 4.609375 19.804688 C 4.507812 19.714844 4.410156 19.613281 4.320312 19.503906 C 4.171875 19.320312 4.054688 19.113281 3.976562 18.894531 C 3.859375 18.582031 3.816406 18.226562 3.824219 17.691406 C 3.824219 17.625 3.824219 17.550781 3.828125 17.523438 C 3.828125 17.40625 3.835938 17.210938 3.835938 17.160156 C 3.835938 17.121094 3.839844 15.878906 3.839844 11.777344 C 3.839844 8.84375 3.839844 6.421875 3.839844 6.386719 C 3.839844 6.296875 3.847656 6.203125 3.859375 6.113281 C 3.9375 5.519531 4.238281 4.992188 4.691406 4.636719 C 4.882812 4.488281 5.089844 4.378906 5.320312 4.304688 C 5.625 4.203125 5.972656 4.160156 6.480469 4.164062 C 6.519531 4.164062 9.015625 4.164062 12.03125 4.167969 Z M 12.03125 4.167969 "/>
<path style=" stroke:none;fill-rule:nonzero;fill:rgb(0%,0%,0%);fill-opacity:1;" d="M 6.652344 6.992188 C 6.640625 6.992188 6.617188 7 6.601562 7.003906 C 6.488281 7.039062 6.398438 7.140625 6.386719 7.257812 C 6.382812 7.273438 6.382812 7.785156 6.382812 12.253906 C 6.382812 15.585938 6.382812 17.242188 6.382812 17.25 C 6.394531 17.359375 6.46875 17.457031 6.570312 17.5 C 6.589844 17.503906 6.613281 17.511719 6.636719 17.515625 L 6.652344 17.519531 L 7.824219 17.519531 C 8.652344 17.519531 8.996094 17.519531 9.007812 17.519531 C 9.105469 17.511719 9.191406 17.453125 9.242188 17.371094 C 9.261719 17.339844 9.273438 17.304688 9.28125 17.265625 L 9.285156 17.25 L 9.285156 13.453125 L 14.550781 13.453125 L 14.550781 15.347656 C 14.550781 17.015625 14.550781 17.242188 14.554688 17.253906 C 14.558594 17.289062 14.566406 17.316406 14.582031 17.347656 C 14.609375 17.402344 14.648438 17.445312 14.699219 17.476562 C 14.730469 17.496094 14.765625 17.511719 14.808594 17.519531 C 14.820312 17.519531 14.875 17.519531 16 17.519531 C 16.855469 17.519531 17.1875 17.519531 17.195312 17.519531 C 17.234375 17.515625 17.269531 17.507812 17.300781 17.492188 C 17.332031 17.476562 17.355469 17.460938 17.378906 17.433594 C 17.433594 17.382812 17.464844 17.316406 17.472656 17.242188 C 17.472656 17.230469 17.472656 15.746094 17.472656 12.246094 C 17.472656 7.566406 17.472656 7.261719 17.46875 7.25 C 17.46875 7.230469 17.460938 7.207031 17.453125 7.191406 C 17.417969 7.09375 17.332031 7.019531 17.234375 7 C 17.222656 6.996094 17.210938 6.992188 17.203125 6.992188 C 17.195312 6.992188 16.84375 6.992188 16 6.992188 L 14.8125 6.992188 L 14.796875 6.996094 C 14.75 7.003906 14.714844 7.019531 14.679688 7.042969 C 14.667969 7.054688 14.625 7.089844 14.613281 7.109375 C 14.582031 7.144531 14.566406 7.183594 14.554688 7.238281 L 14.550781 7.253906 L 14.550781 10.746094 L 9.285156 10.746094 L 9.285156 9.003906 C 9.285156 7.339844 9.285156 7.261719 9.28125 7.25 C 9.273438 7.195312 9.253906 7.15625 9.222656 7.117188 C 9.175781 7.046875 9.097656 7.003906 9.015625 6.992188 C 9.007812 6.992188 8.644531 6.992188 7.832031 6.992188 C 7.1875 6.992188 6.65625 6.992188 6.652344 6.992188 Z M 8.675781 9.335938 C 8.675781 10.890625 8.679688 11.070312 8.679688 11.085938 C 8.6875 11.160156 8.726562 11.226562 8.785156 11.277344 C 8.832031 11.320312 8.890625 11.34375 8.953125 11.351562 C 8.960938 11.351562 9.695312 11.351562 11.925781 11.351562 C 14.757812 11.351562 14.890625 11.351562 14.902344 11.347656 C 14.964844 11.335938 15.019531 11.308594 15.0625 11.265625 C 15.113281 11.21875 15.144531 11.164062 15.15625 11.09375 C 15.15625 11.082031 15.15625 10.96875 15.160156 9.339844 L 15.160156 7.597656 L 16.867188 7.597656 L 16.867188 16.914062 L 15.160156 16.914062 L 15.160156 15.015625 C 15.15625 13.238281 15.15625 13.117188 15.15625 13.105469 C 15.144531 13.035156 15.113281 12.980469 15.066406 12.933594 C 15.015625 12.882812 14.953125 12.855469 14.886719 12.847656 C 14.878906 12.847656 13.890625 12.84375 11.917969 12.84375 C 9.269531 12.84375 8.957031 12.847656 8.945312 12.847656 C 8.855469 12.859375 8.777344 12.910156 8.726562 12.984375 C 8.703125 13.019531 8.6875 13.066406 8.679688 13.113281 C 8.679688 13.125 8.675781 13.324219 8.675781 15.019531 L 8.675781 16.914062 L 6.992188 16.914062 L 6.992188 7.597656 L 8.675781 7.597656 Z M 8.675781 9.335938 "/>
</g>
</svg>
