<?xml version="1.0" encoding="UTF-8"?>
<svg xmlns="http://www.w3.org/2000/svg" xmlns:xlink="http://www.w3.org/1999/xlink" width="px" height="px" viewBox="0 0 8534 8534" version="1.1">
<g>
<path style=" stroke:none;fill-rule:nonzero;fill:rgb(0%,0%,0%);fill-opacity:1;" d="M 802.289062 1811.636719 C 764.636719 1816.386719 732.285156 1841.136719 718.382812 1875.839844 C 714.882812 1884.589844 712.933594 1891.9375 711.433594 1902.339844 C 710.882812 1906.039062 710.785156 2340.609375 710.785156 4345.703125 C 710.785156 6691.113281 710.832031 6784.769531 711.683594 6790.316406 C 715.285156 6813.320312 725.132812 6833.21875 740.734375 6848.921875 C 756.535156 6864.820312 774.734375 6874.273438 798.039062 6878.671875 C 802.585938 6879.523438 872.691406 6879.574219 2566.621094 6879.574219 L 4330.453125 6879.574219 L 4336.453125 6878.472656 C 4358.90625 6874.371094 4378.003906 6864.273438 4393.457031 6848.269531 C 4409.65625 6831.570312 4419.355469 6811.070312 4422.207031 6787.816406 C 4422.558594 6785.019531 4422.707031 6708.914062 4422.707031 6557.457031 L 4422.707031 6331.296875 L 6086.484375 6331.296875 C 7233.589844 6331.296875 7751.863281 6331.148438 7755.414062 6330.796875 C 7791.265625 6327.195312 7822.117188 6306.144531 7838.316406 6274.292969 C 7843.519531 6264.09375 7846.816406 6253.691406 7848.667969 6241.542969 C 7849.566406 6235.691406 7849.617188 6199.039062 7849.617188 4923.230469 C 7849.617188 3851.628906 7849.519531 3610.070312 7848.96875 3606.167969 C 7844.667969 3574.566406 7828.515625 3548.464844 7802.867188 3531.515625 C 7790.664062 3523.464844 7777.964844 3518.464844 7762.113281 3515.515625 L 7756.113281 3514.414062 L 6089.433594 3514.265625 L 4422.707031 3514.164062 L 4422.707031 2710.628906 C 4422.707031 1992.292969 4422.605469 1906.539062 4421.957031 1901.238281 C 4418.105469 1871.835938 4401.457031 1845.035156 4376.503906 1828.386719 C 4363.65625 1819.785156 4347.855469 1813.886719 4332.453125 1811.835938 C 4327.253906 1811.183594 4137.492188 1811.085938 2566.21875 1811.136719 C 1557.324219 1811.183594 804.289062 1811.386719 802.289062 1811.636719 Z M 4214.699219 4345.453125 L 4214.699219 6671.3125 L 919.042969 6671.3125 L 919.042969 2019.59375 L 4214.699219 2019.59375 Z M 7641.359375 4922.730469 L 7641.359375 6122.785156 L 4422.707031 6122.785156 L 4422.707031 3722.675781 L 7641.359375 3722.675781 Z M 7641.359375 4922.730469 "/>
<path style=" stroke:none;fill-rule:nonzero;fill:rgb(0%,0%,0%);fill-opacity:1;" d="M 2365.109375 2250.90625 C 2364.410156 2251.003906 2361.859375 2251.355469 2359.359375 2251.65625 C 2338.007812 2254.304688 2316.609375 2265.054688 2300.609375 2281.105469 C 2285.207031 2296.507812 2275.90625 2314.359375 2271.507812 2336.859375 L 2270.40625 2342.359375 L 2270.257812 2456.714844 L 2270.105469 2571.121094 L 2158.101562 2571.121094 C 2036.496094 2571.121094 2041.34375 2571.019531 2029.394531 2573.871094 C 1986.09375 2584.121094 1954.042969 2621.371094 1950.089844 2666.023438 C 1949.742188 2669.976562 1949.589844 2735.878906 1949.691406 2871.632812 L 1949.839844 3071.394531 L 1950.992188 3077.644531 C 1955.390625 3100.945312 1965.492188 3119.945312 1981.792969 3135.496094 C 1997.59375 3150.597656 2016.445312 3159.847656 2038.894531 3163.449219 C 2043.945312 3164.296875 2052.496094 3164.347656 2157.199219 3164.5 L 2270.105469 3164.699219 L 2270.257812 3278.554688 C 2270.355469 3385.058594 2270.457031 3392.710938 2271.257812 3397.160156 C 2273.40625 3408.710938 2276.15625 3417.210938 2280.605469 3426.410156 C 2296.109375 3458.113281 2326.507812 3479.761719 2361.609375 3484.113281 C 2364.511719 3484.511719 2429.363281 3484.664062 2566.96875 3484.664062 C 2789.730469 3484.664062 2772.28125 3484.914062 2785.878906 3481.414062 C 2799.429688 3477.914062 2811.832031 3471.863281 2822.980469 3463.261719 C 2844.132812 3446.8125 2857.582031 3424.210938 2862.484375 3396.609375 C 2863.234375 3392.308594 2863.335938 3381.808594 2863.484375 3278.304688 L 2863.632812 3164.699219 L 2976.539062 3164.5 C 3079.792969 3164.347656 3089.84375 3164.296875 3094.59375 3163.5 C 3113.597656 3160.398438 3128.898438 3153.847656 3143.898438 3142.449219 C 3148.746094 3138.746094 3157.496094 3130.148438 3161.296875 3125.347656 C 3174.449219 3108.597656 3182.097656 3088.894531 3183.648438 3067.644531 C 3184.050781 3062.59375 3184.148438 3000.941406 3184.050781 2862.882812 C 3183.898438 2676.375 3183.800781 2665.074219 3183 2659.925781 C 3175.25 2612.472656 3138.945312 2577.371094 3091.644531 2571.621094 C 3088.894531 2571.320312 3048.894531 2571.121094 2975.539062 2571.121094 L 2863.632812 2571.121094 L 2863.632812 2461.214844 C 2863.632812 2390.863281 2863.433594 2349.308594 2863.132812 2345.609375 C 2859.933594 2309.757812 2838.382812 2277.757812 2806.632812 2261.855469 C 2796.832031 2256.957031 2787.480469 2253.855469 2776.128906 2251.753906 C 2771.628906 2250.90625 2760.179688 2250.855469 2568.871094 2250.804688 C 2457.515625 2250.753906 2365.8125 2250.804688 2365.109375 2250.90625 Z M 2655.273438 2572.96875 C 2655.425781 2698.425781 2655.175781 2688.476562 2658.375 2701.175781 C 2663.125 2719.925781 2673.175781 2736.976562 2687.425781 2750.628906 C 2702.925781 2765.480469 2722.128906 2774.828125 2744.429688 2778.429688 C 2749.480469 2779.28125 2758.128906 2779.332031 2862.785156 2779.480469 L 2975.640625 2779.679688 L 2975.640625 2956.136719 L 2863.683594 2956.136719 C 2765.878906 2956.136719 2750.929688 2956.238281 2745.828125 2956.886719 C 2722.578125 2959.9375 2702.226562 2969.988281 2685.625 2986.640625 C 2670.273438 3001.992188 2660.925781 3019.890625 2656.523438 3042.394531 L 2655.425781 3047.894531 L 2655.273438 3162.25 L 2655.125 3276.652344 L 2478.617188 3276.652344 L 2478.617188 3166.75 C 2478.617188 3094.046875 2478.417969 3054.941406 2478.066406 3051.144531 C 2474.765625 3014.640625 2453.363281 2983.238281 2420.863281 2966.988281 C 2411.664062 2962.390625 2403.414062 2959.6875 2391.613281 2957.289062 C 2387.710938 2956.488281 2378.5625 2956.4375 2272.757812 2956.289062 L 2158.101562 2956.136719 L 2158.101562 2779.679688 L 2271.257812 2779.480469 C 2393.210938 2779.28125 2385.5625 2779.429688 2397.613281 2776.832031 C 2403.914062 2775.480469 2413.011719 2772.230469 2419.863281 2768.929688 C 2447.464844 2755.480469 2467.414062 2731.128906 2475.164062 2701.425781 C 2478.566406 2688.324219 2478.316406 2697.875 2478.464844 2572.46875 L 2478.667969 2459.117188 L 2655.125 2459.117188 Z M 2655.273438 2572.96875 "/>
<path style=" stroke:none;fill-rule:nonzero;fill:rgb(0%,0%,0%);fill-opacity:1;" d="M 1326.0625 3784.226562 C 1290.710938 3787.378906 1259.058594 3808.828125 1242.957031 3840.53125 C 1237.957031 3850.28125 1234.859375 3859.632812 1232.707031 3871.179688 C 1231.859375 3875.683594 1231.808594 3892.132812 1231.65625 4192.695312 C 1231.558594 4418.957031 1231.65625 4511.011719 1232.058594 4514.863281 C 1234.457031 4538.710938 1244.910156 4560.613281 1262.058594 4577.714844 C 1277.308594 4593.015625 1295.859375 4602.714844 1317.5625 4606.816406 L 1323.8125 4607.964844 L 1510.070312 4608.117188 C 1679.578125 4608.214844 1696.929688 4608.164062 1702.828125 4607.414062 C 1740.929688 4602.664062 1772.832031 4577.863281 1787.082031 4542.011719 C 1789.082031 4536.960938 1791.332031 4528.914062 1792.734375 4521.960938 L 1793.785156 4516.460938 L 1793.984375 4199.945312 C 1794.085938 3968.136719 1793.984375 3881.882812 1793.585938 3877.683594 C 1791.582031 3857.480469 1783.433594 3837.628906 1770.683594 3822.027344 C 1766.332031 3816.730469 1756.433594 3807.378906 1751.183594 3803.679688 C 1737.230469 3793.777344 1722.78125 3787.828125 1705.578125 3784.828125 C 1700.578125 3783.976562 1691.230469 3783.925781 1515.570312 3783.878906 C 1413.964844 3783.828125 1328.664062 3783.976562 1326.0625 3784.226562 Z M 1585.574219 4195.945312 L 1585.574219 4399.707031 L 1440.066406 4399.707031 L 1440.066406 3992.1875 L 1585.574219 3992.1875 Z M 1585.574219 4195.945312 "/>
<path style=" stroke:none;fill-rule:nonzero;fill:rgb(0%,0%,0%);fill-opacity:1;" d="M 2031.34375 3784.027344 C 2004.445312 3786.128906 1981.394531 3796.929688 1963.09375 3815.980469 C 1948.441406 3831.230469 1939.539062 3848.878906 1935.441406 3870.929688 L 1934.339844 3876.933594 L 1934.191406 4191.945312 C 1934.089844 4421.605469 1934.191406 4508.660156 1934.589844 4513.210938 C 1937.839844 4549.363281 1959.140625 4580.914062 1991.242188 4597.015625 C 2000.84375 4601.867188 2008.996094 4604.617188 2020.34375 4606.867188 L 2025.84375 4607.914062 L 2211.855469 4608.117188 C 2345.558594 4608.214844 2399.414062 4608.117188 2403.363281 4607.714844 C 2446.464844 4603.367188 2482.667969 4572.265625 2493.417969 4530.414062 C 2496.917969 4516.710938 2496.617188 4545.664062 2496.617188 4196.046875 C 2496.617188 3978.785156 2496.46875 3878.582031 2496.117188 3875.683594 C 2493.21875 3852.28125 2482.964844 3831.078125 2466.617188 3814.679688 C 2448.964844 3796.929688 2426.3125 3786.378906 2401.363281 3784.226562 C 2395.960938 3783.726562 2037.144531 3783.527344 2031.34375 3784.027344 Z M 2288.605469 4195.945312 L 2288.605469 4399.707031 L 2142.601562 4399.707031 L 2142.601562 3992.1875 L 2288.605469 3992.1875 Z M 2288.605469 4195.945312 "/>
<path style=" stroke:none;fill-rule:nonzero;fill:rgb(0%,0%,0%);fill-opacity:1;" d="M 2733.878906 3784.027344 C 2701.578125 3786.226562 2671.875 3803.578125 2653.972656 3830.679688 C 2645.523438 3843.480469 2640.171875 3857.628906 2637.773438 3873.480469 C 2636.921875 3879.183594 2636.875 3893.382812 2636.875 4196.195312 C 2636.875 4499.359375 2636.921875 4513.210938 2637.773438 4518.710938 C 2640.824219 4538.0625 2648.324219 4555.3125 2659.976562 4569.714844 C 2663.976562 4574.613281 2673.375 4583.765625 2678.226562 4587.363281 C 2691.574219 4597.316406 2706.527344 4603.765625 2723.378906 4606.867188 L 2729.378906 4607.964844 L 3106.894531 4607.964844 L 3112.894531 4606.867188 C 3129.746094 4603.765625 3144.699219 4597.316406 3158.046875 4587.363281 C 3162.898438 4583.765625 3172.296875 4574.613281 3176.300781 4569.714844 C 3187.75 4555.511719 3195.148438 4538.761719 3198.5 4519.210938 C 3199.351562 4514.210938 3199.398438 4499.511719 3199.550781 4201.195312 C 3199.648438 3978.585938 3199.550781 3886.28125 3199.148438 3880.933594 C 3197.199219 3854.332031 3185.75 3829.929688 3166.75 3812.179688 C 3151.199219 3797.578125 3132.695312 3788.578125 3110.644531 3784.828125 C 3105.695312 3783.976562 3095.34375 3783.925781 2920.886719 3783.878906 C 2819.433594 3783.878906 2735.277344 3783.925781 2733.878906 3784.027344 Z M 2991.140625 4195.945312 L 2991.140625 4399.707031 L 2845.132812 4399.707031 L 2845.132812 3992.1875 L 2991.140625 3992.1875 Z M 2991.140625 4195.945312 "/>
<path style=" stroke:none;fill-rule:nonzero;fill:rgb(0%,0%,0%);fill-opacity:1;" d="M 3433.960938 3784.277344 C 3390.410156 3788.078125 3353.457031 3819.777344 3342.65625 3862.53125 C 3339.355469 3875.53125 3339.605469 3848.128906 3339.804688 4199.195312 L 3339.957031 4517.460938 L 3341.007812 4522.460938 C 3343.457031 4534.261719 3346.707031 4543.613281 3351.40625 4552.5625 C 3367.757812 4583.515625 3398.359375 4604.214844 3432.910156 4607.714844 C 3436.859375 4608.117188 3490.714844 4608.214844 3624.417969 4608.117188 L 3810.429688 4607.914062 L 3815.929688 4606.867188 C 3827.28125 4604.617188 3835.429688 4601.867188 3845.03125 4597.015625 C 3876.832031 4581.066406 3898.28125 4549.5625 3901.683594 4513.910156 C 3902.382812 4506.359375 3902.382812 3885.332031 3901.683594 3878.132812 C 3898.933594 3850.480469 3885.78125 3825.53125 3864.53125 3807.878906 C 3848.230469 3794.226562 3828.28125 3786.027344 3806.929688 3784.226562 C 3799.476562 3783.578125 3441.261719 3783.628906 3433.960938 3784.277344 Z M 3693.671875 4195.945312 L 3693.671875 4399.707031 L 3548.167969 4399.707031 L 3548.167969 3992.1875 L 3693.671875 3992.1875 Z M 3693.671875 4195.945312 "/>
<path style=" stroke:none;fill-rule:nonzero;fill:rgb(0%,0%,0%);fill-opacity:1;" d="M 1326.164062 4669.769531 C 1302.8125 4671.71875 1279.410156 4682.621094 1262.460938 4699.421875 C 1246.609375 4715.171875 1237.007812 4733.722656 1232.707031 4756.722656 C 1231.859375 4761.222656 1231.808594 4777.675781 1231.65625 5078.238281 C 1231.558594 5307.046875 1231.65625 5396.554688 1232.058594 5400.503906 C 1236.957031 5449.304688 1276.058594 5488.308594 1324.910156 5493.257812 C 1328.761719 5493.65625 1384.164062 5493.757812 1516.570312 5493.65625 L 1702.828125 5493.457031 L 1709.082031 5492.15625 C 1735.679688 5486.707031 1757.53125 5473.15625 1773.082031 5452.503906 C 1783.082031 5439.203125 1789.234375 5425.105469 1792.734375 5407.503906 L 1793.785156 5402.003906 L 1793.984375 5085.488281 C 1794.085938 4853.675781 1793.984375 4767.421875 1793.585938 4763.222656 C 1791.582031 4743.023438 1783.433594 4723.171875 1770.683594 4707.570312 C 1766.28125 4702.21875 1756.433594 4692.921875 1751.03125 4689.121094 C 1734.929688 4677.667969 1717.730469 4671.367188 1698.078125 4669.71875 C 1690.878906 4669.117188 1333.460938 4669.167969 1326.164062 4669.769531 Z M 1585.574219 5081.488281 L 1585.574219 5285.246094 L 1440.066406 5285.246094 L 1440.066406 4877.730469 L 1585.574219 4877.730469 Z M 1585.574219 5081.488281 "/>
<path style=" stroke:none;fill-rule:nonzero;fill:rgb(0%,0%,0%);fill-opacity:1;" d="M 2031.84375 4669.570312 C 2017.042969 4670.769531 2004.042969 4674.21875 1992.09375 4680.167969 C 1962.042969 4695.121094 1941.691406 4722.519531 1935.441406 4756.421875 L 1934.339844 4762.472656 L 1934.191406 5077.488281 C 1934.089844 5307.148438 1934.191406 5394.203125 1934.589844 5398.753906 C 1937.492188 5430.804688 1954.390625 5459.15625 1981.09375 5476.757812 C 1990.742188 5483.105469 2002.242188 5488.105469 2013.246094 5490.757812 C 2026.496094 5493.957031 2012.996094 5493.757812 2215.152344 5493.757812 C 2342.460938 5493.757812 2400.664062 5493.609375 2404.011719 5493.207031 C 2447.015625 5488.507812 2482.714844 5457.605469 2493.417969 5415.902344 C 2496.917969 5402.253906 2496.617188 5431.203125 2496.617188 5081.589844 C 2496.617188 4864.328125 2496.46875 4764.125 2496.117188 4761.222656 C 2494.667969 4749.472656 2491.015625 4737.320312 2485.964844 4727.171875 C 2469.515625 4694.371094 2437.863281 4672.867188 2401.363281 4669.769531 C 2395.960938 4669.269531 2037.546875 4669.070312 2031.84375 4669.570312 Z M 2288.605469 5081.488281 L 2288.605469 5285.246094 L 2142.601562 5285.246094 L 2142.601562 4877.730469 L 2288.605469 4877.730469 Z M 2288.605469 5081.488281 "/>
<path style=" stroke:none;fill-rule:nonzero;fill:rgb(0%,0%,0%);fill-opacity:1;" d="M 2731.429688 4669.820312 C 2695.425781 4672.96875 2663.226562 4695.269531 2647.375 4727.972656 C 2642.324219 4738.320312 2639.523438 4747.421875 2637.773438 4759.023438 C 2636.921875 4764.722656 2636.875 4778.925781 2636.875 5081.738281 C 2636.875 5384.902344 2636.921875 5398.753906 2637.773438 5404.253906 C 2640.824219 5423.605469 2648.324219 5440.855469 2659.976562 5455.253906 C 2663.976562 5460.15625 2673.375 5469.304688 2678.226562 5472.90625 C 2691.875 5483.058594 2706.925781 5489.507812 2724.378906 5492.609375 C 2729.128906 5493.457031 2739.476562 5493.507812 2918.136719 5493.507812 C 3096.796875 5493.507812 3107.144531 5493.457031 3111.894531 5492.609375 C 3129.347656 5489.507812 3144.398438 5483.058594 3158.046875 5472.90625 C 3162.898438 5469.304688 3172.296875 5460.15625 3176.300781 5455.253906 C 3187.949219 5440.855469 3195.449219 5423.652344 3198.5 5404.253906 C 3199.351562 5398.753906 3199.398438 5384.902344 3199.398438 5081.738281 C 3199.398438 4778.925781 3199.351562 4764.722656 3198.5 4759.023438 C 3198 4755.773438 3196.949219 4750.523438 3196.148438 4747.421875 C 3185.097656 4704.570312 3148.296875 4673.570312 3103.894531 4669.769531 C 3096.445312 4669.117188 2738.726562 4669.167969 2731.429688 4669.820312 Z M 2991.140625 5081.488281 L 2991.140625 5285.246094 L 2845.132812 5285.246094 L 2845.132812 4877.730469 L 2991.140625 4877.730469 Z M 2991.140625 5081.488281 "/>
<path style=" stroke:none;fill-rule:nonzero;fill:rgb(0%,0%,0%);fill-opacity:1;" d="M 3434.261719 4669.769531 C 3423.359375 4670.667969 3409.859375 4674.269531 3399.910156 4678.917969 C 3367.359375 4694.171875 3344.808594 4724.871094 3340.40625 4760.125 C 3339.707031 4765.875 3339.65625 4796.726562 3339.804688 5084.738281 L 3339.957031 5403.003906 L 3341.007812 5408.003906 C 3343.457031 5419.804688 3346.707031 5429.15625 3351.40625 5438.105469 C 3367.65625 5468.855469 3397.859375 5489.40625 3432.261719 5493.207031 C 3435.609375 5493.609375 3493.8125 5493.757812 3621.121094 5493.757812 C 3783.078125 5493.757812 3805.828125 5493.65625 3811.027344 5493.007812 C 3859.882812 5486.707031 3897.332031 5447.753906 3901.683594 5398.851562 C 3902.03125 5394.851562 3902.183594 5293.25 3902.082031 5077.738281 L 3901.933594 4762.472656 L 3900.832031 4756.421875 C 3896.832031 4734.773438 3887.683594 4716.570312 3872.980469 4701.320312 C 3856.832031 4684.570312 3836.980469 4674.269531 3813.128906 4670.367188 C 3808.277344 4669.570312 3794.976562 4669.519531 3623.667969 4669.417969 C 3522.316406 4669.367188 3437.109375 4669.519531 3434.261719 4669.769531 Z M 3693.671875 5081.488281 L 3693.671875 5285.246094 L 3548.167969 5285.246094 L 3548.167969 4877.730469 L 3693.671875 4877.730469 Z M 3693.671875 5081.488281 "/>
<path style=" stroke:none;fill-rule:nonzero;fill:rgb(0%,0%,0%);fill-opacity:1;" d="M 1329.0625 5555.109375 C 1304.761719 5556.558594 1281.558594 5566.761719 1263.910156 5583.761719 C 1257.109375 5590.261719 1253.410156 5594.664062 1248.808594 5601.511719 C 1240.90625 5613.3125 1235.558594 5626.863281 1232.707031 5642.265625 C 1231.859375 5646.765625 1231.808594 5663.214844 1231.65625 5963.78125 C 1231.558594 6190.039062 1231.65625 6282.09375 1232.058594 6285.945312 C 1234.457031 6309.796875 1244.910156 6331.746094 1262.007812 6348.847656 C 1278.960938 6365.796875 1300.460938 6376.148438 1324.3125 6378.800781 C 1330.8125 6379.5 1694.929688 6379.5 1701.480469 6378.75 C 1725.28125 6376.097656 1746.78125 6365.699219 1763.832031 6348.546875 C 1778.933594 6333.398438 1788.332031 6315.246094 1792.734375 6293.046875 L 1793.785156 6287.542969 L 1793.984375 5971.03125 C 1794.085938 5741.917969 1793.984375 5653.015625 1793.585938 5649.015625 C 1791.132812 5624.964844 1781.285156 5603.710938 1764.632812 5586.5625 C 1748.332031 5569.859375 1729.28125 5560.0625 1705.078125 5555.910156 C 1700.078125 5555.058594 1690.230469 5555.011719 1515.820312 5554.960938 C 1414.617188 5554.960938 1330.5625 5555.011719 1329.0625 5555.109375 Z M 1585.574219 5967.03125 L 1585.574219 6170.789062 L 1440.066406 6170.789062 L 1440.066406 5763.269531 L 1585.574219 5763.269531 Z M 1585.574219 5967.03125 "/>
<path style=" stroke:none;fill-rule:nonzero;fill:rgb(0%,0%,0%);fill-opacity:1;" d="M 2029.496094 5555.308594 C 2017.246094 5556.261719 2003.644531 5560.0625 1992.144531 5565.8125 C 1980.644531 5571.511719 1972.042969 5577.8125 1963.34375 5586.8125 C 1948.589844 5602.113281 1939.640625 5619.863281 1935.492188 5641.765625 L 1934.339844 5648.015625 L 1934.191406 5963.28125 C 1934.089844 6178.789062 1934.242188 6280.394531 1934.589844 6284.394531 C 1937.789062 6320.546875 1959.492188 6352.398438 1991.84375 6368.449219 C 2001.042969 6373 2008.195312 6375.398438 2020.34375 6377.949219 L 2025.34375 6379 L 2211.605469 6379.199219 C 2344.410156 6379.300781 2399.460938 6379.199219 2403.363281 6378.800781 C 2423.761719 6376.75 2443.566406 6368.398438 2459.367188 6355.199219 C 2476.265625 6341.097656 2488.015625 6322.546875 2493.417969 6301.445312 C 2496.917969 6287.746094 2496.667969 6317.046875 2496.515625 5964.53125 L 2496.367188 5646.015625 L 2495.265625 5640.464844 C 2489.617188 5612.511719 2474.867188 5589.511719 2452.363281 5573.660156 C 2439.765625 5564.8125 2424.164062 5558.609375 2407.8125 5555.910156 C 2402.664062 5555.109375 2392.164062 5555.058594 2218.605469 5554.960938 C 2117.550781 5554.910156 2032.445312 5555.058594 2029.496094 5555.308594 Z M 2288.605469 5967.03125 L 2288.605469 6170.789062 L 2142.601562 6170.789062 L 2142.601562 5763.269531 L 2288.605469 5763.269531 Z M 2288.605469 5967.03125 "/>
<path style=" stroke:none;fill-rule:nonzero;fill:rgb(0%,0%,0%);fill-opacity:1;" d="M 2731.878906 5555.359375 C 2707.925781 5557.261719 2684.625 5568.160156 2667.375 5585.460938 C 2658.625 5594.210938 2652.625 5602.613281 2647.375 5613.511719 C 2642.324219 5623.863281 2639.523438 5632.914062 2637.773438 5644.566406 C 2636.921875 5650.265625 2636.875 5664.464844 2636.875 5967.28125 C 2636.875 6270.445312 2636.921875 6284.292969 2637.773438 6289.792969 C 2640.824219 6309.195312 2648.324219 6326.398438 2659.976562 6340.796875 C 2663.976562 6345.699219 2673.375 6354.847656 2678.226562 6358.449219 C 2689.375 6366.796875 2701.675781 6372.699219 2714.828125 6376.050781 C 2728.527344 6379.550781 2713.777344 6379.300781 2918.136719 6379.300781 C 3122.496094 6379.300781 3107.746094 6379.550781 3121.445312 6376.050781 C 3134.597656 6372.699219 3146.898438 6366.796875 3158.046875 6358.449219 C 3162.898438 6354.847656 3172.296875 6345.699219 3176.300781 6340.796875 C 3187.949219 6326.398438 3195.449219 6309.195312 3198.5 6289.792969 C 3199.351562 6284.292969 3199.398438 6270.445312 3199.398438 5967.28125 C 3199.398438 5664.464844 3199.351562 5650.265625 3198.5 5644.566406 C 3196.75 5632.914062 3193.949219 5623.863281 3188.898438 5613.511719 C 3183.597656 5602.613281 3177.550781 5594.113281 3168.949219 5585.460938 C 3151.148438 5567.710938 3128.398438 5557.261719 3103.195312 5555.308594 C 3094.796875 5554.609375 2740.027344 5554.660156 2731.878906 5555.359375 Z M 2991.140625 5967.03125 L 2991.140625 6170.789062 L 2845.132812 6170.789062 L 2845.132812 5763.269531 L 2991.140625 5763.269531 Z M 2991.140625 5967.03125 "/>
<path style=" stroke:none;fill-rule:nonzero;fill:rgb(0%,0%,0%);fill-opacity:1;" d="M 3437.160156 5555.109375 C 3392.109375 5557.859375 3353.605469 5589.863281 3342.65625 5633.714844 C 3339.40625 5646.566406 3339.65625 5619.863281 3339.65625 5967.28125 C 3339.65625 6315.046875 3339.40625 6287.746094 3342.707031 6300.84375 C 3353.355469 6343.097656 3389.660156 6374.449219 3432.910156 6378.800781 C 3436.859375 6379.199219 3491.464844 6379.300781 3624.667969 6379.199219 L 3810.929688 6379 L 3815.929688 6377.949219 C 3828.078125 6375.398438 3835.230469 6373 3844.429688 6368.449219 C 3876.78125 6352.398438 3898.484375 6320.546875 3901.683594 6284.394531 C 3902.03125 6280.394531 3902.183594 6178.789062 3902.082031 5963.28125 L 3901.933594 5648.015625 L 3900.78125 5641.765625 C 3896.632812 5619.863281 3887.683594 5602.113281 3872.929688 5586.8125 C 3855.179688 5568.359375 3831.429688 5557.210938 3805.679688 5555.261719 C 3799.527344 5554.808594 3444.710938 5554.660156 3437.160156 5555.109375 Z M 3693.671875 5967.03125 L 3693.671875 6170.789062 L 3548.167969 6170.789062 L 3548.167969 5763.269531 L 3693.671875 5763.269531 Z M 3693.671875 5967.03125 "/>
<path style=" stroke:none;fill-rule:nonzero;fill:rgb(0%,0%,0%);fill-opacity:1;" d="M 4700.96875 4115.191406 C 4654.066406 4122.441406 4618.515625 4159.796875 4613.214844 4207.445312 C 4612.917969 4210.347656 4612.714844 4272.699219 4612.714844 4383.957031 C 4612.765625 4568.464844 4612.667969 4560.664062 4615.214844 4572.414062 C 4618.214844 4586.066406 4625.066406 4600.867188 4633.816406 4612.367188 C 4637.917969 4617.765625 4646.417969 4626.46875 4651.71875 4630.71875 C 4668.417969 4644.019531 4688.320312 4651.71875 4710.019531 4653.21875 C 4715.121094 4653.617188 4763.824219 4653.71875 4863.476562 4653.617188 C 4998.183594 4653.417969 5009.886719 4653.367188 5014.683594 4652.566406 C 5026.484375 4650.617188 5035.535156 4647.816406 5045.488281 4642.96875 C 5077.339844 4627.46875 5098.589844 4597.714844 5103.339844 4561.964844 C 5103.890625 4557.914062 5103.988281 4524.761719 5103.988281 4383.207031 C 5103.988281 4218.648438 5103.9375 4209.148438 5103.089844 4203.695312 C 5100.390625 4186.347656 5094.289062 4170.996094 5084.738281 4157.695312 C 5070.136719 4137.292969 5048.835938 4122.84375 5024.484375 4116.894531 C 5012.835938 4114.042969 5021.234375 4114.191406 4857.578125 4114.242188 C 4713.769531 4114.292969 4706.71875 4114.34375 4700.96875 4115.191406 Z M 4895.730469 4383.707031 L 4895.730469 4445.207031 L 4821.226562 4445.207031 L 4821.226562 4322.203125 L 4895.730469 4322.203125 Z M 4895.730469 4383.707031 "/>
<path style=" stroke:none;fill-rule:nonzero;fill:rgb(0%,0%,0%);fill-opacity:1;" d="M 5301.046875 4114.742188 C 5254.246094 4120.742188 5217.144531 4157.59375 5210.996094 4204.097656 C 5209.894531 4212.546875 5209.894531 4555.761719 5210.996094 4563.613281 C 5214.246094 4586.515625 5224.34375 4606.816406 5240.496094 4622.964844 C 5256.695312 4639.167969 5276.148438 4648.917969 5299.75 4652.566406 C 5305.199219 4653.417969 5313.75 4653.46875 5455.753906 4653.46875 C 5598.261719 4653.46875 5606.3125 4653.417969 5611.761719 4652.566406 C 5631.164062 4649.519531 5648.363281 4642.015625 5662.765625 4630.367188 C 5667.664062 4626.367188 5676.816406 4616.964844 5680.417969 4612.117188 C 5688.765625 4600.964844 5694.667969 4588.664062 5698.015625 4575.515625 C 5701.515625 4561.863281 5701.265625 4575.3125 5701.265625 4383.707031 C 5701.265625 4230.949219 5701.167969 4210.046875 5700.515625 4204.847656 C 5694.316406 4157.496094 5657.164062 4120.59375 5609.761719 4114.742188 C 5604.460938 4114.042969 5306.199219 4114.09375 5301.046875 4114.742188 Z M 5492.757812 4383.707031 L 5492.757812 4445.207031 L 5418.253906 4445.207031 L 5418.253906 4322.203125 L 5492.757812 4322.203125 Z M 5492.757812 4383.707031 "/>
<path style=" stroke:none;fill-rule:nonzero;fill:rgb(0%,0%,0%);fill-opacity:1;" d="M 5896.777344 4114.992188 C 5886.625 4116.441406 5873.824219 4120.394531 5865.273438 4124.691406 C 5849.074219 4132.792969 5834.773438 4145.394531 5824.722656 4160.445312 C 5820.722656 4166.394531 5814.773438 4178.597656 5812.523438 4185.445312 C 5810.324219 4192.195312 5808.472656 4201.148438 5807.773438 4208.445312 C 5807.421875 4212.097656 5807.273438 4270.699219 5807.273438 4383.707031 C 5807.273438 4496.710938 5807.421875 4555.3125 5807.773438 4558.964844 C 5810.121094 4583.515625 5820.523438 4605.664062 5837.972656 4623.015625 C 5847.222656 4632.21875 5854.972656 4637.71875 5866.523438 4643.269531 C 5878.476562 4649.066406 5890.925781 4652.269531 5905.027344 4653.21875 C 5910.628906 4653.617188 5956.628906 4653.71875 6058.535156 4653.617188 C 6194.589844 4653.417969 6204.390625 4653.367188 6209.492188 4652.566406 C 6225.390625 4649.96875 6239.191406 4644.667969 6251.792969 4636.367188 C 6277.144531 4619.667969 6293.246094 4593.964844 6297.894531 4562.964844 C 6298.445312 4559.265625 6298.546875 4527.613281 6298.546875 4383.457031 C 6298.546875 4216.898438 6298.496094 4208.195312 6297.644531 4202.945312 C 6293.796875 4179.496094 6284.042969 4160.34375 6267.84375 4144.195312 C 6251.742188 4128.144531 6230.941406 4117.941406 6208.339844 4114.941406 C 6200.539062 4113.894531 5903.976562 4113.941406 5896.777344 4114.992188 Z M 6090.285156 4383.707031 L 6090.285156 4445.207031 L 6015.78125 4445.207031 L 6015.78125 4322.203125 L 6090.285156 4322.203125 Z M 6090.285156 4383.707031 "/>
<path style=" stroke:none;fill-rule:nonzero;fill:rgb(0%,0%,0%);fill-opacity:1;" d="M 6495.605469 4114.742188 C 6477.003906 4117.144531 6458.503906 4124.992188 6443.800781 4136.695312 C 6438.5 4140.894531 6429.453125 4150.195312 6425.652344 4155.292969 C 6415.601562 4168.796875 6409.699219 4182.394531 6405.949219 4200.695312 C 6405.148438 4204.648438 6405.101562 4216.496094 6404.898438 4380.457031 C 6404.800781 4508.109375 6404.898438 4557.3125 6405.300781 4560.964844 C 6409.601562 4598.914062 6434.453125 4631.765625 6469.554688 4645.867188 C 6478.152344 4649.316406 6485.855469 4651.316406 6496.054688 4652.816406 C 6502.703125 4653.769531 6797.917969 4653.769531 6804.570312 4652.816406 C 6811.769531 4651.769531 6818.417969 4650.269531 6823.96875 4648.46875 C 6862.671875 4635.917969 6890.273438 4602.316406 6895.324219 4561.714844 C 6896.023438 4555.8125 6896.023438 4211.597656 6895.273438 4205.695312 C 6893.023438 4187.296875 6885.621094 4169.195312 6874.371094 4154.445312 C 6871.171875 4150.246094 6861.773438 4140.644531 6857.320312 4137.042969 C 6842.519531 4125.09375 6823.570312 4117.09375 6804.320312 4114.691406 C 6799.019531 4114.042969 6500.703125 4114.09375 6495.605469 4114.742188 Z M 6687.8125 4383.707031 L 6687.8125 4445.207031 L 6613.308594 4445.207031 L 6613.308594 4322.203125 L 6687.8125 4322.203125 Z M 6687.8125 4383.707031 "/>
<path style=" stroke:none;fill-rule:nonzero;fill:rgb(0%,0%,0%);fill-opacity:1;" d="M 7091.832031 4114.941406 C 7057.628906 4119.644531 7028.03125 4141.042969 7012.628906 4172.195312 C 7006.929688 4183.796875 7003.429688 4196.695312 7002.328125 4210.199219 C 7001.929688 4214.898438 7001.828125 4268.449219 7001.929688 4388.207031 C 7002.078125 4549.664062 7002.128906 4559.765625 7002.976562 4564.714844 C 7004.179688 4571.765625 7006.328125 4579.964844 7008.578125 4586.015625 C 7020.429688 4617.617188 7047.230469 4641.765625 7079.980469 4650.21875 C 7093.484375 4653.667969 7080.683594 4653.417969 7242.339844 4653.617188 C 7339.894531 4653.71875 7390.644531 4653.566406 7395.796875 4653.21875 C 7440.796875 4650.167969 7478.601562 4619.214844 7489.851562 4576.113281 C 7493.300781 4562.863281 7493 4579.515625 7493.203125 4387.957031 C 7493.351562 4262.75 7493.25 4213.199219 7492.851562 4208.699219 C 7488.902344 4164.945312 7457.898438 4128.292969 7415.648438 4117.441406 C 7402.046875 4113.941406 7413.996094 4114.191406 7247.191406 4114.242188 C 7126.433594 4114.292969 7095.632812 4114.441406 7091.832031 4114.941406 Z M 7284.839844 4383.707031 L 7284.839844 4445.207031 L 7210.339844 4445.207031 L 7210.339844 4322.203125 L 7284.839844 4322.203125 Z M 7284.839844 4383.707031 "/>
<path style=" stroke:none;fill-rule:nonzero;fill:rgb(0%,0%,0%);fill-opacity:1;" d="M 4708.972656 4749.523438 C 4708.171875 4749.621094 4705.320312 4749.972656 4702.71875 4750.273438 C 4685.871094 4752.222656 4667.320312 4760.023438 4652.769531 4771.273438 C 4632.316406 4787.023438 4618.617188 4810.175781 4613.867188 4836.976562 C 4613.015625 4841.726562 4612.964844 4851.578125 4612.964844 5018.984375 C 4612.964844 5186.691406 4613.015625 5196.242188 4613.867188 5200.992188 C 4619.265625 5231.046875 4634.816406 5255.246094 4659.269531 5271.496094 C 4671.019531 5279.347656 4683.417969 5284.296875 4698.96875 5287.347656 L 4704.46875 5288.449219 L 4854.726562 5288.648438 C 4961.832031 5288.746094 5006.585938 5288.648438 5010.484375 5288.246094 C 5029.136719 5286.398438 5047.4375 5279.246094 5062.636719 5267.898438 C 5067.488281 5264.296875 5076.886719 5255.144531 5080.886719 5250.246094 C 5094.140625 5233.894531 5102.1875 5213.292969 5103.738281 5191.941406 C 5104.4375 5182.191406 5104.4375 4855.425781 5103.738281 4845.976562 C 5101.890625 4821.375 5091.839844 4798.773438 5074.988281 4781.273438 C 5059.289062 4764.972656 5040.484375 4755.023438 5017.234375 4750.671875 L 5010.984375 4749.472656 L 4860.726562 4749.421875 C 4778.074219 4749.371094 4709.820312 4749.421875 4708.972656 4749.523438 Z M 4895.730469 5018.984375 L 4895.730469 5080.238281 L 4821.226562 5080.238281 L 4821.226562 4957.730469 L 4895.730469 4957.730469 Z M 4895.730469 5018.984375 "/>
<path style=" stroke:none;fill-rule:nonzero;fill:rgb(0%,0%,0%);fill-opacity:1;" d="M 5303.597656 4749.773438 C 5284.996094 4751.574219 5265.195312 4759.472656 5250.246094 4771.125 C 5232.296875 4785.125 5219.042969 4805.175781 5213.496094 4826.675781 C 5210.292969 4839.078125 5210.59375 4821.777344 5210.394531 5015.734375 C 5210.246094 5139.992188 5210.34375 5193.394531 5210.746094 5196.742188 C 5212.445312 5211.644531 5217.746094 5226.894531 5225.644531 5239.59375 C 5242.394531 5266.648438 5271.148438 5284.699219 5302.847656 5288.199219 C 5309.597656 5288.949219 5601.3125 5288.949219 5608.164062 5288.199219 C 5657.265625 5282.847656 5695.867188 5244.246094 5700.765625 5195.492188 C 5701.167969 5191.542969 5701.265625 5140.789062 5701.167969 5015.234375 L 5700.96875 4840.476562 L 5699.917969 4835.476562 C 5697.367188 4823.375 5694.96875 4816.175781 5690.464844 4807.023438 C 5674.464844 4774.824219 5643.015625 4753.273438 5606.8125 4749.722656 C 5600.460938 4749.121094 5310.097656 4749.171875 5303.597656 4749.773438 Z M 5492.757812 5018.984375 L 5492.757812 5080.238281 L 5418.253906 5080.238281 L 5418.253906 4957.730469 L 5492.757812 4957.730469 Z M 5492.757812 5018.984375 "/>
<path style=" stroke:none;fill-rule:nonzero;fill:rgb(0%,0%,0%);fill-opacity:1;" d="M 5903.527344 4749.523438 C 5902.726562 4749.621094 5899.925781 4749.972656 5897.328125 4750.273438 C 5887.175781 4751.472656 5875.875 4754.871094 5865.523438 4759.972656 C 5854.472656 4765.421875 5845.925781 4771.671875 5836.972656 4780.824219 C 5821.371094 4796.824219 5812.222656 4815.074219 5808.421875 4837.976562 C 5807.570312 4843.226562 5807.523438 4851.425781 5807.523438 5018.484375 C 5807.523438 5162.292969 5807.621094 5194.394531 5808.171875 5198.492188 C 5813.773438 5240.046875 5844.125 5274.546875 5884.476562 5285.246094 C 5897.777344 5288.796875 5883.027344 5288.496094 6053.035156 5288.496094 C 6223.191406 5288.496094 6208.242188 5288.796875 6221.742188 5285.199219 C 6263.695312 5274.097656 6294.296875 5237.496094 6298.246094 5193.742188 C 6298.996094 5185.84375 6298.996094 4852.878906 6298.246094 4844.476562 C 6296.644531 4825.425781 6290.292969 4808.375 6278.746094 4791.972656 C 6274.542969 4786.023438 6261.894531 4773.421875 6255.941406 4769.222656 C 6241.941406 4759.375 6228.390625 4753.722656 6211.542969 4750.574219 L 6205.539062 4749.472656 L 6055.285156 4749.421875 C 5972.628906 4749.371094 5904.375 4749.421875 5903.527344 4749.523438 Z M 6090.285156 5018.984375 L 6090.285156 5080.238281 L 6015.78125 5080.238281 L 6015.78125 4957.730469 L 6090.285156 4957.730469 Z M 6090.285156 5018.984375 "/>
<path style=" stroke:none;fill-rule:nonzero;fill:rgb(0%,0%,0%);fill-opacity:1;" d="M 6498.40625 4749.773438 C 6482.402344 4751.324219 6464.902344 4757.523438 6451.300781 4766.574219 C 6425.402344 4783.722656 6408.550781 4811.425781 6405.300781 4842.027344 C 6404.949219 4845.425781 6404.800781 4902.128906 6404.949219 5022.484375 L 6405.101562 5197.992188 L 6406.148438 5202.992188 C 6408.601562 5214.792969 6411.851562 5224.144531 6416.550781 5233.09375 C 6432.652344 5263.597656 6461.953125 5283.746094 6496.304688 5288.046875 C 6501.15625 5288.648438 6524.753906 5288.746094 6650.3125 5288.746094 C 6746.367188 5288.746094 6800.167969 5288.546875 6803.070312 5288.246094 C 6827.671875 5285.496094 6850.472656 5274.195312 6867.371094 5256.394531 C 6879.722656 5243.347656 6888.171875 5228.09375 6892.625 5210.894531 C 6896.074219 5197.445312 6895.824219 5211.042969 6895.824219 5018.835938 C 6895.824219 4832.226562 6895.921875 4840.828125 6893.324219 4829.925781 C 6887.222656 4803.925781 6871.722656 4781.523438 6849.472656 4766.625 C 6843.671875 4762.722656 6831.421875 4756.773438 6824.570312 4754.472656 C 6817.820312 4752.273438 6808.917969 4750.421875 6801.570312 4749.722656 C 6794.96875 4749.121094 6504.804688 4749.121094 6498.40625 4749.773438 Z M 6687.8125 5018.984375 L 6687.8125 5080.238281 L 6613.308594 5080.238281 L 6613.308594 4957.730469 L 6687.8125 4957.730469 Z M 6687.8125 5018.984375 "/>
<path style=" stroke:none;fill-rule:nonzero;fill:rgb(0%,0%,0%);fill-opacity:1;" d="M 7095.582031 4749.773438 C 7072.429688 4752.222656 7050.832031 4762.171875 7034.378906 4777.972656 C 7015.328125 4796.226562 7004.429688 4819.175781 7002.328125 4845.226562 C 7001.929688 4849.925781 7001.828125 4903.480469 7001.929688 5023.484375 C 7002.078125 5186.09375 7002.128906 5195.242188 7002.976562 5200.242188 C 7007.027344 5223.496094 7016.828125 5242.796875 7032.730469 5258.546875 C 7048.179688 5273.898438 7067.179688 5283.648438 7089.582031 5287.597656 C 7094.28125 5288.449219 7103.183594 5288.496094 7247.339844 5288.496094 C 7393.097656 5288.496094 7400.347656 5288.449219 7405.546875 5287.597656 C 7412.148438 5286.449219 7421.746094 5283.898438 7426.949219 5281.796875 C 7463.800781 5267.148438 7488.800781 5234.144531 7492.800781 5194.792969 C 7493.550781 5187.644531 7493.550781 4850.425781 7492.851562 4843.175781 C 7488.449219 4799.425781 7457.25 4763.222656 7414.746094 4752.421875 C 7402.347656 4749.324219 7415.347656 4749.523438 7250.089844 4749.421875 C 7167.335938 4749.371094 7097.78125 4749.523438 7095.582031 4749.773438 Z M 7284.839844 5018.984375 L 7284.839844 5080.238281 L 7210.339844 5080.238281 L 7210.339844 4957.730469 L 7284.839844 4957.730469 Z M 7284.839844 5018.984375 "/>
<path style=" stroke:none;fill-rule:nonzero;fill:rgb(0%,0%,0%);fill-opacity:1;" d="M 4702.519531 5385.550781 C 4655.167969 5391.953125 4618.566406 5429.90625 4613.214844 5478.007812 C 4612.515625 5484.40625 4612.515625 5823.871094 4613.265625 5830.824219 C 4616.617188 5863.675781 4635.617188 5893.027344 4664.570312 5910.128906 C 4675.320312 5916.425781 4687.519531 5920.726562 4701.71875 5923.128906 C 4706.671875 5923.925781 4715.871094 5924.027344 4853.476562 5924.175781 C 4955.230469 5924.277344 5002.183594 5924.175781 5007.234375 5923.777344 C 5044.835938 5920.976562 5077.238281 5899.125 5093.488281 5865.523438 C 5098.539062 5855.175781 5101.339844 5846.074219 5103.089844 5834.472656 C 5103.9375 5828.824219 5103.988281 5819.722656 5103.988281 5654.265625 C 5103.988281 5488.957031 5103.9375 5479.707031 5103.089844 5474.257812 C 5102.589844 5471.105469 5101.640625 5466.257812 5100.9375 5463.554688 C 5090.386719 5421.453125 5055.488281 5390.601562 5012.234375 5385.253906 C 5009.386719 5384.902344 4959.734375 5384.753906 4857.726562 5384.800781 C 4734.820312 5384.851562 4706.570312 5385.003906 4702.519531 5385.550781 Z M 4895.730469 5654.265625 L 4895.730469 5715.769531 L 4821.226562 5715.769531 L 4821.226562 5592.761719 L 4895.730469 5592.761719 Z M 4895.730469 5654.265625 "/>
<path style=" stroke:none;fill-rule:nonzero;fill:rgb(0%,0%,0%);fill-opacity:1;" d="M 5298.5 5385.753906 C 5256.945312 5392.152344 5223.496094 5422.554688 5213.195312 5463.207031 C 5210.042969 5475.507812 5210.246094 5463.554688 5210.246094 5654.664062 C 5210.246094 5805.671875 5210.34375 5829.722656 5210.996094 5834.222656 C 5217.996094 5883.425781 5257.496094 5920.277344 5307.046875 5923.777344 C 5312.148438 5924.175781 5361 5924.277344 5460.757812 5924.175781 C 5594.113281 5924.027344 5607.460938 5923.925781 5612.011719 5923.175781 C 5626.613281 5920.726562 5638.664062 5916.476562 5649.964844 5909.777344 C 5674.164062 5895.375 5691.214844 5872.726562 5698.015625 5846.074219 C 5701.515625 5832.421875 5701.265625 5845.824219 5701.265625 5654.714844 C 5701.265625 5536.808594 5701.117188 5480.65625 5700.71875 5477.355469 C 5699.015625 5461.355469 5693.117188 5444.90625 5684.417969 5431.753906 C 5669.914062 5409.753906 5648.464844 5394.402344 5623.414062 5387.953125 C 5610.011719 5384.550781 5621.113281 5384.753906 5454.855469 5384.800781 C 5311.300781 5384.851562 5304.25 5384.902344 5298.5 5385.753906 Z M 5492.757812 5654.265625 L 5492.757812 5715.769531 L 5418.253906 5715.769531 L 5418.253906 5592.761719 L 5492.757812 5592.761719 Z M 5492.757812 5654.265625 "/>
<path style=" stroke:none;fill-rule:nonzero;fill:rgb(0%,0%,0%);fill-opacity:1;" d="M 5897.277344 5385.503906 C 5857.925781 5390.902344 5824.921875 5418.503906 5812.574219 5456.253906 C 5809.972656 5464.15625 5808.570312 5471.105469 5807.773438 5479.757812 C 5807.371094 5484.257812 5807.273438 5533.710938 5807.371094 5658.515625 L 5807.523438 5831.023438 L 5808.722656 5837.273438 C 5813.074219 5860.625 5823.171875 5879.574219 5839.574219 5895.277344 C 5856.773438 5911.777344 5879.324219 5921.828125 5903.476562 5923.777344 C 5912.378906 5924.476562 6193.691406 5924.476562 6202.589844 5923.777344 C 6253.941406 5919.628906 6294.34375 5879.277344 6298.296875 5828.074219 C 6298.695312 5823.074219 6298.796875 5770.871094 6298.695312 5649.765625 C 6298.546875 5488.308594 6298.496094 5478.207031 6297.644531 5473.257812 C 6294.945312 5457.355469 6289.496094 5443.355469 6281.246094 5431.003906 C 6264.09375 5405.402344 6237.542969 5389.050781 6206.789062 5385.253906 C 6199.992188 5384.453125 5903.476562 5384.652344 5897.277344 5385.503906 Z M 6090.285156 5654.265625 L 6090.285156 5715.769531 L 6015.78125 5715.769531 L 6015.78125 5592.761719 L 6090.285156 5592.761719 Z M 6090.285156 5654.265625 "/>
<path style=" stroke:none;fill-rule:nonzero;fill:rgb(0%,0%,0%);fill-opacity:1;" d="M 6496.054688 5385.300781 C 6478.003906 5387.601562 6460.503906 5394.652344 6445.902344 5405.601562 C 6441.101562 5409.253906 6432.703125 5417.304688 6428.5 5422.304688 C 6419 5433.703125 6411.699219 5448.105469 6408 5462.65625 C 6404.601562 5476.15625 6404.800781 5462.707031 6404.800781 5654.265625 C 6404.800781 5844.773438 6404.601562 5832.671875 6407.800781 5845.324219 C 6415.902344 5877.777344 6439.101562 5904.277344 6470.152344 5916.675781 C 6477.652344 5919.675781 6485.804688 5921.878906 6494.105469 5923.128906 C 6499.753906 5923.976562 6508.003906 5924.027344 6649.8125 5924.027344 C 6809.019531 5924.027344 6802.917969 5924.128906 6814.320312 5921.675781 C 6820.570312 5920.378906 6829.769531 5917.277344 6835.570312 5914.578125 C 6868.570312 5899.125 6890.824219 5868.476562 6895.324219 5832.273438 C 6895.671875 5829.421875 6895.824219 5772.269531 6895.824219 5654.015625 C 6895.824219 5484.507812 6895.773438 5479.855469 6894.875 5473.507812 C 6893.074219 5461.707031 6890.074219 5452.105469 6884.722656 5441.65625 C 6879.421875 5431.203125 6874.820312 5424.753906 6866.320312 5416.105469 C 6852.570312 5401.953125 6836.121094 5392.453125 6817.371094 5387.753906 C 6804.769531 5384.550781 6814.519531 5384.753906 6649.660156 5384.800781 C 6566.757812 5384.851562 6498.003906 5385.050781 6496.054688 5385.300781 Z M 6687.8125 5654.265625 L 6687.8125 5715.769531 L 6613.308594 5715.769531 L 6613.308594 5592.761719 L 6687.8125 5592.761719 Z M 6687.8125 5654.265625 "/>
<path style=" stroke:none;fill-rule:nonzero;fill:rgb(0%,0%,0%);fill-opacity:1;" d="M 7093.132812 5385.300781 C 7070.332031 5388.253906 7048.980469 5398.652344 7032.828125 5414.753906 C 7014.828125 5432.65625 7004.378906 5455.304688 7002.328125 5480.757812 C 7001.929688 5485.457031 7001.828125 5539.007812 7001.929688 5658.765625 C 7002.078125 5820.222656 7002.128906 5830.324219 7002.976562 5835.273438 C 7007.027344 5859.074219 7017.578125 5879.425781 7033.980469 5895.125 C 7051.679688 5912.027344 7074.082031 5921.925781 7098.832031 5923.777344 C 7103.882812 5924.175781 7150.835938 5924.277344 7252.589844 5924.175781 C 7414.148438 5923.976562 7401.597656 5924.226562 7414.398438 5921.027344 C 7452.050781 5911.527344 7481.152344 5882.324219 7490.351562 5844.722656 C 7493.25 5832.773438 7493.101562 5843.824219 7493.101562 5653.765625 C 7493.101562 5485.855469 7493.050781 5478.257812 7492.199219 5473.007812 C 7490.199219 5461.304688 7487.101562 5451.65625 7482.152344 5441.703125 C 7466.75 5411.152344 7437 5390.003906 7402.898438 5385.503906 C 7398.398438 5384.902344 7374.296875 5384.800781 7247.089844 5384.800781 C 7162.984375 5384.851562 7095.082031 5385.050781 7093.132812 5385.300781 Z M 7284.839844 5654.265625 L 7284.839844 5715.769531 L 7210.339844 5715.769531 L 7210.339844 5592.761719 L 7284.839844 5592.761719 Z M 7284.839844 5654.265625 "/>
</g>
</svg>
