<?xml version="1.0" encoding="UTF-8"?>
<svg xmlns="http://www.w3.org/2000/svg" xmlns:xlink="http://www.w3.org/1999/xlink" viewBox="0 0 24 24" version="1.1">
<g>
<path style=" stroke:none;fill-rule:nonzero;fill:rgb(0%,0%,0%);fill-opacity:1;" d="M 9.554688 5.003906 C 9.199219 5.019531 8.867188 5.128906 8.574219 5.324219 C 8.253906 5.539062 8.003906 5.835938 7.855469 6.195312 C 7.765625 6.402344 7.71875 6.628906 7.707031 6.863281 C 7.707031 6.886719 7.707031 7.558594 7.707031 8.785156 L 7.707031 10.671875 L 6.4375 10.671875 C 5.601562 10.671875 5.160156 10.671875 5.144531 10.671875 C 4.898438 10.6875 4.664062 10.761719 4.457031 10.894531 C 4.285156 11.011719 4.132812 11.164062 4.027344 11.339844 C 3.90625 11.542969 3.839844 11.761719 3.828125 11.996094 C 3.824219 12.011719 3.824219 13.035156 3.824219 15.15625 L 3.824219 18.292969 L 3.023438 18.292969 C 2.15625 18.292969 2.210938 18.292969 2.179688 18.300781 C 2.070312 18.328125 1.980469 18.414062 1.960938 18.527344 C 1.925781 18.695312 2.042969 18.855469 2.210938 18.875 C 2.230469 18.878906 21.753906 18.878906 21.773438 18.875 C 21.875 18.863281 21.964844 18.796875 22.007812 18.703125 C 22.023438 18.664062 22.03125 18.628906 22.03125 18.585938 C 22.03125 18.546875 22.027344 18.523438 22.015625 18.488281 C 21.976562 18.386719 21.886719 18.308594 21.777344 18.296875 C 21.761719 18.292969 21.660156 18.292969 20.933594 18.292969 L 20.101562 18.292969 L 20.101562 15.140625 C 20.101562 12.15625 20.101562 11.984375 20.101562 11.960938 C 20.09375 11.890625 20.085938 11.84375 20.078125 11.792969 C 20.011719 11.472656 19.839844 11.183594 19.582031 10.976562 C 19.355469 10.792969 19.078125 10.6875 18.785156 10.671875 C 18.765625 10.671875 18.339844 10.671875 17.519531 10.671875 L 16.277344 10.671875 L 16.277344 8.765625 C 16.277344 7.300781 16.277344 6.855469 16.277344 6.835938 C 16.273438 6.824219 16.273438 6.800781 16.273438 6.785156 C 16.242188 6.398438 16.09375 6.03125 15.851562 5.726562 C 15.667969 5.5 15.433594 5.3125 15.171875 5.191406 C 14.9375 5.078125 14.691406 5.015625 14.425781 5.003906 C 14.394531 5 9.585938 5 9.554688 5.003906 Z M 14.382812 5.589844 C 14.421875 5.589844 14.460938 5.59375 14.496094 5.597656 C 14.683594 5.617188 14.863281 5.679688 15.027344 5.777344 C 15.101562 5.820312 15.175781 5.875 15.242188 5.933594 C 15.265625 5.957031 15.324219 6.015625 15.34375 6.039062 C 15.429688 6.132812 15.496094 6.230469 15.550781 6.34375 C 15.636719 6.511719 15.679688 6.691406 15.691406 6.878906 C 15.691406 6.898438 15.691406 8.695312 15.691406 12.601562 L 15.691406 18.292969 L 8.292969 18.292969 L 8.292969 12.597656 C 8.292969 8.773438 8.292969 6.890625 8.292969 6.875 C 8.292969 6.859375 8.296875 6.835938 8.296875 6.824219 C 8.324219 6.523438 8.449219 6.238281 8.65625 6.019531 C 8.90625 5.75 9.246094 5.597656 9.613281 5.585938 C 9.65625 5.585938 14.347656 5.585938 14.382812 5.589844 Z M 7.707031 11.910156 L 7.707031 12.570312 L 6.417969 12.570312 C 5.515625 12.570312 5.128906 12.570312 5.117188 12.570312 C 4.996094 12.582031 4.898438 12.671875 4.867188 12.789062 C 4.855469 12.828125 4.859375 12.796875 4.859375 13.226562 C 4.859375 13.589844 4.859375 13.613281 4.859375 13.628906 C 4.867188 13.679688 4.886719 13.722656 4.917969 13.765625 C 4.929688 13.78125 4.957031 13.808594 4.972656 13.820312 C 5.019531 13.855469 5.066406 13.875 5.121094 13.878906 C 5.132812 13.878906 5.542969 13.878906 6.421875 13.878906 L 7.707031 13.878906 L 7.707031 14.089844 L 6.421875 14.089844 C 5.554688 14.089844 5.132812 14.089844 5.121094 14.089844 C 5 14.105469 4.898438 14.191406 4.867188 14.308594 C 4.855469 14.347656 4.859375 14.316406 4.859375 14.746094 C 4.859375 15.109375 4.859375 15.132812 4.859375 15.148438 C 4.871094 15.21875 4.898438 15.273438 4.945312 15.320312 C 4.988281 15.359375 5.039062 15.386719 5.097656 15.398438 L 5.113281 15.402344 L 7.707031 15.402344 L 7.707031 15.613281 L 6.414062 15.613281 C 5.179688 15.613281 5.121094 15.613281 5.105469 15.613281 C 5.050781 15.625 5.003906 15.644531 4.960938 15.679688 C 4.914062 15.71875 4.878906 15.777344 4.867188 15.832031 C 4.855469 15.871094 4.859375 15.839844 4.855469 16.25 C 4.855469 16.5 4.855469 16.628906 4.859375 16.644531 C 4.859375 16.675781 4.863281 16.699219 4.875 16.726562 C 4.886719 16.765625 4.910156 16.804688 4.941406 16.835938 C 4.984375 16.878906 5.035156 16.90625 5.097656 16.917969 L 5.113281 16.921875 L 7.707031 16.921875 L 7.707031 18.292969 L 4.410156 18.292969 L 4.410156 15.160156 C 4.410156 13.105469 4.410156 12.023438 4.414062 12.011719 C 4.425781 11.835938 4.488281 11.679688 4.601562 11.542969 C 4.621094 11.523438 4.675781 11.464844 4.699219 11.445312 C 4.777344 11.382812 4.863281 11.332031 4.953125 11.300781 C 5.027344 11.277344 5.105469 11.261719 5.179688 11.257812 C 5.195312 11.257812 5.769531 11.253906 6.457031 11.253906 L 7.707031 11.253906 Z M 18.742188 11.257812 C 18.855469 11.261719 18.957031 11.289062 19.058594 11.335938 C 19.25 11.429688 19.394531 11.589844 19.46875 11.789062 C 19.496094 11.867188 19.511719 11.949219 19.515625 12.039062 C 19.515625 12.0625 19.519531 13.160156 19.519531 15.183594 L 19.519531 18.292969 L 16.277344 18.292969 L 16.277344 16.921875 L 17.539062 16.921875 C 18.410156 16.921875 18.804688 16.921875 18.8125 16.921875 C 18.933594 16.90625 19.03125 16.820312 19.0625 16.703125 C 19.0625 16.695312 19.066406 16.679688 19.066406 16.671875 C 19.070312 16.65625 19.070312 16.632812 19.070312 16.269531 C 19.070312 15.902344 19.070312 15.878906 19.066406 15.863281 C 19.054688 15.765625 18.996094 15.6875 18.90625 15.644531 C 18.882812 15.628906 18.855469 15.621094 18.824219 15.617188 L 18.808594 15.613281 L 16.277344 15.613281 L 16.277344 15.402344 L 17.546875 15.402344 C 18.75 15.402344 18.8125 15.402344 18.824219 15.398438 C 18.875 15.390625 18.914062 15.371094 18.953125 15.34375 C 18.96875 15.332031 18.992188 15.308594 19.003906 15.292969 C 19.042969 15.246094 19.066406 15.191406 19.070312 15.128906 C 19.070312 15.101562 19.070312 14.390625 19.070312 14.363281 C 19.0625 14.261719 19.003906 14.171875 18.914062 14.125 C 18.886719 14.109375 18.855469 14.097656 18.824219 14.09375 C 18.8125 14.089844 18.726562 14.089844 17.542969 14.089844 L 16.277344 14.089844 L 16.277344 13.878906 L 17.542969 13.878906 C 18.726562 13.878906 18.8125 13.878906 18.824219 13.878906 C 18.855469 13.871094 18.886719 13.859375 18.914062 13.847656 C 19.003906 13.800781 19.0625 13.710938 19.070312 13.609375 C 19.070312 13.582031 19.070312 12.867188 19.070312 12.839844 C 19.066406 12.78125 19.042969 12.722656 19.003906 12.675781 C 18.992188 12.664062 18.96875 12.636719 18.953125 12.628906 C 18.910156 12.597656 18.859375 12.574219 18.808594 12.570312 C 18.800781 12.570312 18.414062 12.570312 17.535156 12.570312 L 16.277344 12.570312 L 16.277344 11.253906 L 17.496094 11.253906 C 18.296875 11.253906 18.722656 11.253906 18.742188 11.257812 Z M 7.707031 13.226562 L 7.707031 13.292969 L 5.445312 13.292969 L 5.445312 13.15625 L 7.707031 13.15625 Z M 18.484375 13.226562 L 18.484375 13.292969 L 16.277344 13.292969 L 16.277344 13.15625 L 18.484375 13.15625 Z M 7.707031 14.746094 L 7.707031 14.816406 L 5.445312 14.816406 L 5.445312 14.675781 L 7.707031 14.675781 Z M 18.484375 14.746094 L 18.484375 14.816406 L 16.277344 14.816406 L 16.277344 14.675781 L 18.484375 14.675781 Z M 7.707031 16.269531 L 7.707031 16.339844 L 5.445312 16.339844 L 5.445312 16.199219 L 7.707031 16.199219 Z M 18.484375 16.269531 L 18.484375 16.339844 L 16.277344 16.339844 L 16.277344 16.199219 L 18.484375 16.199219 Z M 18.484375 16.269531 "/>
<path style=" stroke:none;fill-rule:nonzero;fill:rgb(0%,0%,0%);fill-opacity:1;" d="M 11.480469 6.566406 C 11.417969 6.574219 11.359375 6.601562 11.316406 6.644531 C 11.265625 6.695312 11.234375 6.757812 11.226562 6.828125 C 11.226562 6.835938 11.222656 6.953125 11.222656 7.148438 L 11.222656 7.457031 L 10.90625 7.457031 C 10.558594 7.460938 10.585938 7.457031 10.550781 7.46875 C 10.5 7.480469 10.449219 7.507812 10.410156 7.550781 C 10.371094 7.59375 10.34375 7.648438 10.332031 7.710938 C 10.332031 7.726562 10.332031 7.753906 10.332031 8.226562 C 10.332031 8.699219 10.332031 8.726562 10.332031 8.742188 C 10.34375 8.804688 10.367188 8.859375 10.414062 8.902344 C 10.449219 8.945312 10.5 8.972656 10.550781 8.984375 C 10.589844 8.996094 10.574219 8.992188 10.917969 8.992188 L 11.222656 8.992188 L 11.222656 9.304688 C 11.222656 9.5 11.226562 9.617188 11.226562 9.625 C 11.238281 9.746094 11.324219 9.847656 11.441406 9.878906 C 11.480469 9.886719 11.441406 9.886719 11.992188 9.886719 C 12.425781 9.886719 12.492188 9.886719 12.503906 9.886719 C 12.535156 9.878906 12.566406 9.871094 12.597656 9.859375 C 12.6875 9.8125 12.75 9.722656 12.757812 9.621094 C 12.757812 9.613281 12.761719 9.5 12.761719 9.300781 L 12.761719 8.992188 L 13.066406 8.992188 C 13.277344 8.992188 13.378906 8.992188 13.390625 8.992188 C 13.457031 8.984375 13.519531 8.957031 13.566406 8.910156 C 13.613281 8.863281 13.640625 8.804688 13.652344 8.738281 C 13.652344 8.714844 13.652344 7.734375 13.652344 7.714844 C 13.632812 7.582031 13.527344 7.476562 13.394531 7.460938 C 13.378906 7.457031 13.339844 7.457031 13.066406 7.457031 L 12.761719 7.457031 L 12.761719 7.152344 C 12.761719 6.949219 12.757812 6.839844 12.757812 6.828125 C 12.746094 6.707031 12.660156 6.605469 12.539062 6.574219 C 12.507812 6.566406 12.554688 6.566406 11.996094 6.566406 C 11.71875 6.566406 11.484375 6.566406 11.480469 6.566406 Z M 12.175781 7.46875 C 12.175781 7.8125 12.171875 7.789062 12.183594 7.824219 C 12.207031 7.917969 12.28125 8 12.371094 8.027344 C 12.394531 8.035156 12.417969 8.042969 12.441406 8.042969 C 12.449219 8.042969 12.5625 8.042969 12.761719 8.042969 L 13.066406 8.042969 L 13.066406 8.40625 L 12.75 8.40625 C 12.4375 8.410156 12.433594 8.410156 12.417969 8.410156 C 12.355469 8.421875 12.304688 8.449219 12.261719 8.492188 C 12.214844 8.535156 12.1875 8.589844 12.175781 8.65625 C 12.175781 8.667969 12.175781 8.699219 12.175781 8.984375 L 12.171875 9.300781 L 11.8125 9.300781 L 11.808594 8.988281 C 11.808594 8.695312 11.808594 8.671875 11.808594 8.65625 C 11.796875 8.589844 11.765625 8.535156 11.71875 8.488281 C 11.675781 8.449219 11.628906 8.421875 11.566406 8.410156 L 11.546875 8.410156 L 11.234375 8.40625 L 10.917969 8.40625 L 10.917969 8.042969 L 11.230469 8.042969 C 11.582031 8.042969 11.554688 8.042969 11.59375 8.035156 C 11.695312 8.007812 11.773438 7.925781 11.800781 7.824219 C 11.808594 7.789062 11.808594 7.8125 11.808594 7.464844 L 11.8125 7.152344 L 12.171875 7.152344 Z M 12.175781 7.46875 "/>
<path style=" stroke:none;fill-rule:nonzero;fill:rgb(0%,0%,0%);fill-opacity:1;" d="M 9.367188 10.753906 C 9.347656 10.757812 9.324219 10.761719 9.304688 10.769531 C 9.195312 10.804688 9.117188 10.898438 9.105469 11.015625 C 9.101562 11.023438 9.101562 11.191406 9.101562 11.613281 L 9.101562 12.199219 L 9.105469 12.214844 C 9.113281 12.246094 9.121094 12.273438 9.136719 12.300781 C 9.179688 12.382812 9.261719 12.441406 9.355469 12.453125 C 9.371094 12.457031 9.425781 12.457031 9.804688 12.457031 C 10.265625 12.457031 10.246094 12.457031 10.277344 12.449219 C 10.382812 12.425781 10.46875 12.34375 10.496094 12.238281 C 10.5 12.214844 10.503906 12.199219 10.503906 12.175781 C 10.507812 12.09375 10.476562 12.019531 10.421875 11.960938 C 10.371094 11.90625 10.304688 11.875 10.230469 11.871094 C 10.21875 11.871094 10.117188 11.871094 9.949219 11.871094 L 9.6875 11.871094 L 9.6875 11.445312 C 9.6875 10.972656 9.6875 11.011719 9.679688 10.972656 C 9.652344 10.863281 9.5625 10.78125 9.453125 10.757812 C 9.425781 10.753906 9.394531 10.753906 9.367188 10.753906 Z M 9.367188 10.753906 "/>
<path style=" stroke:none;fill-rule:nonzero;fill:rgb(0%,0%,0%);fill-opacity:1;" d="M 10.828125 10.753906 C 10.75 10.761719 10.675781 10.800781 10.628906 10.859375 C 10.59375 10.90625 10.574219 10.953125 10.566406 11.011719 C 10.5625 11.03125 10.5625 12.175781 10.566406 12.199219 C 10.570312 12.253906 10.59375 12.304688 10.628906 12.347656 C 10.640625 12.363281 10.664062 12.386719 10.679688 12.398438 C 10.714844 12.425781 10.753906 12.441406 10.804688 12.453125 C 10.820312 12.457031 10.820312 12.457031 11.253906 12.457031 C 11.5625 12.457031 11.691406 12.457031 11.703125 12.453125 C 11.769531 12.449219 11.832031 12.417969 11.878906 12.371094 C 11.949219 12.300781 11.980469 12.203125 11.957031 12.105469 C 11.9375 11.996094 11.851562 11.90625 11.742188 11.878906 C 11.707031 11.871094 11.726562 11.871094 11.421875 11.871094 L 11.148438 11.871094 L 11.148438 11.445312 C 11.148438 10.992188 11.148438 11.011719 11.140625 10.980469 C 11.109375 10.835938 10.972656 10.738281 10.828125 10.753906 Z M 10.828125 10.753906 "/>
<path style=" stroke:none;fill-rule:nonzero;fill:rgb(0%,0%,0%);fill-opacity:1;" d="M 12.292969 10.753906 C 12.234375 10.757812 12.175781 10.78125 12.132812 10.820312 C 12.117188 10.828125 12.09375 10.855469 12.085938 10.867188 C 12.054688 10.90625 12.035156 10.945312 12.027344 11 L 12.023438 11.015625 L 12.023438 11.59375 C 12.023438 12.019531 12.023438 12.175781 12.023438 12.1875 C 12.035156 12.328125 12.144531 12.4375 12.285156 12.453125 C 12.292969 12.457031 12.417969 12.457031 12.734375 12.457031 C 13.167969 12.457031 13.167969 12.457031 13.183594 12.453125 C 13.246094 12.4375 13.292969 12.414062 13.335938 12.375 C 13.363281 12.347656 13.378906 12.324219 13.394531 12.292969 C 13.410156 12.261719 13.417969 12.230469 13.421875 12.199219 C 13.425781 12.183594 13.425781 12.140625 13.421875 12.125 C 13.40625 12.003906 13.320312 11.910156 13.203125 11.878906 C 13.167969 11.871094 13.1875 11.871094 12.886719 11.871094 L 12.609375 11.871094 L 12.609375 11.449219 C 12.609375 11.171875 12.609375 11.027344 12.609375 11.015625 C 12.597656 10.917969 12.535156 10.828125 12.445312 10.785156 C 12.417969 10.769531 12.390625 10.761719 12.359375 10.757812 C 12.347656 10.753906 12.304688 10.753906 12.292969 10.753906 Z M 12.292969 10.753906 "/>
<path style=" stroke:none;fill-rule:nonzero;fill:rgb(0%,0%,0%);fill-opacity:1;" d="M 13.746094 10.753906 C 13.625 10.769531 13.519531 10.855469 13.492188 10.976562 C 13.484375 11.011719 13.484375 10.96875 13.484375 11.605469 C 13.484375 11.984375 13.484375 12.1875 13.484375 12.195312 C 13.5 12.332031 13.605469 12.4375 13.738281 12.453125 C 13.753906 12.457031 13.808594 12.457031 14.183594 12.457031 C 14.648438 12.457031 14.628906 12.457031 14.660156 12.449219 C 14.75 12.429688 14.824219 12.363281 14.863281 12.28125 C 14.902344 12.183594 14.890625 12.070312 14.828125 11.984375 C 14.816406 11.972656 14.792969 11.945312 14.777344 11.933594 C 14.730469 11.898438 14.675781 11.875 14.613281 11.871094 C 14.601562 11.871094 14.5 11.871094 14.332031 11.871094 L 14.070312 11.871094 L 14.070312 11.457031 C 14.070312 11.183594 14.070312 11.035156 14.070312 11.023438 C 14.058594 10.890625 13.960938 10.78125 13.824219 10.757812 C 13.804688 10.753906 13.765625 10.753906 13.746094 10.753906 Z M 13.746094 10.753906 "/>
<path style=" stroke:none;fill-rule:nonzero;fill:rgb(0%,0%,0%);fill-opacity:1;" d="M 9.367188 12.710938 C 9.347656 12.710938 9.324219 12.714844 9.304688 12.722656 C 9.195312 12.757812 9.117188 12.855469 9.105469 12.96875 C 9.101562 12.980469 9.101562 13.148438 9.101562 13.570312 L 9.101562 14.152344 L 9.105469 14.167969 C 9.113281 14.203125 9.121094 14.230469 9.136719 14.253906 C 9.179688 14.339844 9.261719 14.394531 9.355469 14.410156 C 9.371094 14.410156 9.425781 14.410156 9.804688 14.410156 C 10.265625 14.410156 10.246094 14.410156 10.277344 14.402344 C 10.363281 14.382812 10.433594 14.328125 10.472656 14.25 C 10.507812 14.179688 10.515625 14.097656 10.488281 14.023438 C 10.46875 13.960938 10.421875 13.90625 10.367188 13.867188 C 10.328125 13.84375 10.28125 13.828125 10.230469 13.824219 C 10.21875 13.824219 10.117188 13.824219 9.949219 13.824219 L 9.6875 13.824219 L 9.6875 13.398438 C 9.6875 12.929688 9.6875 12.964844 9.679688 12.925781 C 9.652344 12.820312 9.5625 12.734375 9.453125 12.714844 C 9.425781 12.707031 9.394531 12.707031 9.367188 12.710938 Z M 9.367188 12.710938 "/>
<path style=" stroke:none;fill-rule:nonzero;fill:rgb(0%,0%,0%);fill-opacity:1;" d="M 10.828125 12.710938 C 10.75 12.71875 10.675781 12.757812 10.628906 12.816406 C 10.59375 12.859375 10.574219 12.90625 10.566406 12.964844 C 10.5625 12.984375 10.5625 14.132812 10.566406 14.152344 C 10.570312 14.210938 10.59375 14.257812 10.628906 14.300781 C 10.640625 14.316406 10.664062 14.34375 10.679688 14.351562 C 10.714844 14.378906 10.753906 14.398438 10.804688 14.40625 C 10.820312 14.410156 10.820312 14.410156 11.253906 14.410156 C 11.5625 14.410156 11.691406 14.410156 11.703125 14.410156 C 11.769531 14.402344 11.832031 14.371094 11.878906 14.324219 C 11.949219 14.253906 11.980469 14.15625 11.957031 14.058594 C 11.9375 13.949219 11.851562 13.859375 11.742188 13.832031 C 11.707031 13.824219 11.726562 13.824219 11.421875 13.824219 L 11.148438 13.824219 L 11.148438 13.402344 C 11.148438 12.945312 11.148438 12.964844 11.140625 12.933594 C 11.109375 12.792969 10.972656 12.695312 10.828125 12.710938 Z M 10.828125 12.710938 "/>
<path style=" stroke:none;fill-rule:nonzero;fill:rgb(0%,0%,0%);fill-opacity:1;" d="M 12.292969 12.707031 C 12.234375 12.714844 12.175781 12.734375 12.132812 12.773438 C 12.117188 12.785156 12.09375 12.808594 12.085938 12.820312 C 12.054688 12.859375 12.035156 12.902344 12.027344 12.953125 L 12.023438 12.96875 L 12.023438 13.546875 C 12.023438 13.972656 12.023438 14.128906 12.023438 14.144531 C 12.035156 14.28125 12.144531 14.394531 12.285156 14.410156 C 12.292969 14.410156 12.417969 14.410156 12.734375 14.410156 C 13.167969 14.410156 13.167969 14.410156 13.183594 14.40625 C 13.246094 14.394531 13.292969 14.371094 13.335938 14.328125 C 13.363281 14.304688 13.378906 14.28125 13.394531 14.246094 C 13.410156 14.21875 13.417969 14.1875 13.421875 14.152344 C 13.425781 14.136719 13.425781 14.097656 13.421875 14.078125 C 13.40625 13.960938 13.320312 13.863281 13.203125 13.832031 C 13.167969 13.824219 13.1875 13.824219 12.886719 13.824219 L 12.609375 13.824219 L 12.609375 13.40625 C 12.609375 13.125 12.609375 12.980469 12.609375 12.972656 C 12.597656 12.871094 12.535156 12.78125 12.445312 12.738281 C 12.417969 12.722656 12.390625 12.714844 12.359375 12.710938 C 12.347656 12.710938 12.304688 12.707031 12.292969 12.707031 Z M 12.292969 12.707031 "/>
<path style=" stroke:none;fill-rule:nonzero;fill:rgb(0%,0%,0%);fill-opacity:1;" d="M 13.746094 12.710938 C 13.625 12.722656 13.519531 12.8125 13.492188 12.929688 C 13.484375 12.96875 13.484375 12.921875 13.484375 13.558594 C 13.484375 13.960938 13.484375 14.140625 13.484375 14.148438 C 13.5 14.285156 13.605469 14.390625 13.738281 14.410156 C 13.753906 14.410156 13.808594 14.410156 14.183594 14.410156 C 14.648438 14.410156 14.628906 14.410156 14.660156 14.402344 C 14.738281 14.386719 14.804688 14.335938 14.847656 14.265625 C 14.90625 14.164062 14.898438 14.035156 14.828125 13.941406 C 14.816406 13.925781 14.792969 13.902344 14.777344 13.890625 C 14.730469 13.851562 14.675781 13.832031 14.613281 13.824219 C 14.601562 13.824219 14.5 13.824219 14.332031 13.824219 L 14.070312 13.824219 L 14.070312 13.410156 C 14.070312 13.136719 14.070312 12.992188 14.070312 12.976562 C 14.058594 12.84375 13.960938 12.734375 13.824219 12.710938 C 13.804688 12.707031 13.765625 12.707031 13.746094 12.710938 Z M 13.746094 12.710938 "/>
<path style=" stroke:none;fill-rule:nonzero;fill:rgb(0%,0%,0%);fill-opacity:1;" d="M 9.367188 14.664062 C 9.347656 14.667969 9.324219 14.671875 9.304688 14.675781 C 9.195312 14.714844 9.117188 14.808594 9.105469 14.921875 C 9.101562 14.933594 9.101562 15.101562 9.101562 15.523438 L 9.101562 16.109375 L 9.105469 16.125 C 9.113281 16.15625 9.121094 16.183594 9.136719 16.207031 C 9.179688 16.292969 9.261719 16.351562 9.355469 16.363281 C 9.371094 16.363281 9.425781 16.367188 9.804688 16.367188 C 10.269531 16.367188 10.246094 16.367188 10.28125 16.359375 C 10.382812 16.332031 10.46875 16.25 10.496094 16.148438 C 10.5 16.125 10.503906 16.109375 10.503906 16.085938 C 10.507812 15.96875 10.445312 15.863281 10.339844 15.808594 C 10.308594 15.792969 10.269531 15.785156 10.230469 15.78125 C 10.21875 15.78125 10.113281 15.777344 9.949219 15.777344 L 9.6875 15.777344 L 9.6875 15.355469 C 9.6875 14.882812 9.6875 14.921875 9.679688 14.882812 C 9.652344 14.773438 9.5625 14.691406 9.453125 14.667969 C 9.425781 14.664062 9.394531 14.660156 9.367188 14.664062 Z M 9.367188 14.664062 "/>
<path style=" stroke:none;fill-rule:nonzero;fill:rgb(0%,0%,0%);fill-opacity:1;" d="M 10.828125 14.664062 C 10.75 14.671875 10.675781 14.710938 10.628906 14.769531 C 10.59375 14.8125 10.574219 14.863281 10.566406 14.921875 C 10.5625 14.9375 10.5625 16.085938 10.566406 16.105469 C 10.570312 16.160156 10.589844 16.207031 10.625 16.253906 C 10.632812 16.265625 10.660156 16.289062 10.671875 16.300781 C 10.710938 16.332031 10.75 16.351562 10.804688 16.363281 C 10.820312 16.363281 10.820312 16.363281 11.253906 16.363281 C 11.5625 16.367188 11.691406 16.363281 11.703125 16.363281 C 11.777344 16.355469 11.851562 16.316406 11.898438 16.257812 C 11.988281 16.148438 11.988281 15.992188 11.894531 15.882812 C 11.855469 15.835938 11.800781 15.800781 11.742188 15.789062 C 11.707031 15.78125 11.722656 15.78125 11.421875 15.78125 L 11.148438 15.777344 L 11.148438 15.355469 C 11.148438 14.984375 11.148438 14.933594 11.144531 14.917969 C 11.136719 14.851562 11.109375 14.796875 11.0625 14.75 C 11.054688 14.742188 11.042969 14.730469 11.039062 14.726562 C 10.980469 14.679688 10.902344 14.65625 10.828125 14.664062 Z M 10.828125 14.664062 "/>
<path style=" stroke:none;fill-rule:nonzero;fill:rgb(0%,0%,0%);fill-opacity:1;" d="M 12.285156 14.664062 C 12.230469 14.671875 12.175781 14.691406 12.132812 14.726562 C 12.117188 14.738281 12.09375 14.765625 12.085938 14.777344 C 12.054688 14.816406 12.035156 14.855469 12.027344 14.90625 L 12.023438 14.921875 L 12.023438 15.5 C 12.023438 15.925781 12.023438 16.085938 12.023438 16.097656 C 12.035156 16.238281 12.144531 16.347656 12.285156 16.363281 C 12.292969 16.363281 12.417969 16.367188 12.734375 16.363281 C 13.167969 16.363281 13.167969 16.363281 13.183594 16.363281 C 13.246094 16.347656 13.292969 16.324219 13.335938 16.285156 C 13.363281 16.257812 13.378906 16.234375 13.394531 16.203125 C 13.410156 16.171875 13.417969 16.140625 13.421875 16.109375 C 13.425781 16.089844 13.425781 16.050781 13.421875 16.035156 C 13.40625 15.914062 13.320312 15.816406 13.203125 15.789062 C 13.167969 15.78125 13.1875 15.78125 12.886719 15.78125 L 12.609375 15.777344 L 12.609375 15.359375 C 12.609375 15.078125 12.609375 14.9375 12.609375 14.925781 C 12.59375 14.804688 12.507812 14.703125 12.390625 14.671875 C 12.359375 14.664062 12.316406 14.660156 12.285156 14.664062 Z M 12.285156 14.664062 "/>
<path style=" stroke:none;fill-rule:nonzero;fill:rgb(0%,0%,0%);fill-opacity:1;" d="M 13.753906 14.664062 C 13.753906 14.664062 13.746094 14.664062 13.738281 14.664062 C 13.71875 14.667969 13.691406 14.675781 13.671875 14.679688 C 13.582031 14.714844 13.515625 14.792969 13.492188 14.886719 C 13.484375 14.921875 13.484375 14.878906 13.484375 15.511719 C 13.484375 15.914062 13.484375 16.09375 13.484375 16.105469 C 13.5 16.238281 13.605469 16.347656 13.738281 16.363281 C 13.753906 16.363281 13.808594 16.367188 14.183594 16.367188 C 14.648438 16.367188 14.628906 16.367188 14.660156 16.359375 C 14.738281 16.339844 14.804688 16.289062 14.847656 16.222656 C 14.90625 16.121094 14.898438 15.988281 14.828125 15.894531 C 14.816406 15.878906 14.792969 15.855469 14.777344 15.84375 C 14.730469 15.804688 14.675781 15.785156 14.613281 15.78125 C 14.601562 15.78125 14.5 15.777344 14.332031 15.777344 L 14.070312 15.777344 L 14.070312 15.363281 C 14.070312 15.09375 14.070312 14.945312 14.070312 14.933594 C 14.058594 14.796875 13.960938 14.691406 13.824219 14.667969 C 13.808594 14.664062 13.765625 14.660156 13.753906 14.664062 Z M 13.753906 14.664062 "/>
</g>
</svg>
