<?xml version="1.0" encoding="UTF-8"?>
<svg xmlns="http://www.w3.org/2000/svg" xmlns:xlink="http://www.w3.org/1999/xlink" width="px" height="px" viewBox="0 0 8534 8534" version="1.1">
<g>
<path style=" stroke:none;fill-rule:nonzero;fill:rgb(0%,0%,0%);fill-opacity:1;" d="M 4238.449219 1348.363281 C 4155.894531 1350.8125 4083.992188 1359.613281 4007.6875 1376.566406 C 3814.078125 1419.566406 3633.269531 1510.519531 3486.914062 1638.578125 C 3447.261719 1673.277344 3408.257812 1712.582031 3374.609375 1751.832031 C 3236.050781 1913.539062 3143.648438 2112.398438 3107.945312 2325.859375 C 3097.445312 2388.5625 3091.695312 2456.863281 3091.644531 2518.71875 L 3091.644531 2534.570312 L 2945.289062 2534.769531 C 2846.484375 2534.917969 2795.53125 2535.167969 2788.628906 2535.519531 C 2744.527344 2537.96875 2719.828125 2540.867188 2692.375 2546.871094 C 2629.824219 2560.671875 2586.570312 2588.121094 2559.71875 2631.125 C 2543.820312 2656.625 2533.617188 2689.375 2529.917969 2727.128906 C 2526.867188 2757.777344 2526.117188 2822.78125 2527.820312 2903.886719 C 2528.46875 2936.988281 2528.617188 2975.941406 2528.617188 3161.546875 L 2528.617188 3380.160156 L 1945.492188 3380.007812 C 1513.871094 3379.910156 1359.214844 3379.707031 1350.3125 3379.257812 C 1343.714844 3378.957031 1332.8125 3378.457031 1326.0625 3378.160156 C 1319.3125 3377.859375 1295.710938 3376.757812 1273.558594 3375.660156 C 1193.855469 3371.757812 1172.605469 3371.058594 1131.304688 3371.058594 C 1083.402344 3371.007812 1050.449219 3372.757812 1015.597656 3377.160156 C 953.746094 3384.957031 918.59375 3396.058594 886.792969 3417.710938 C 871.242188 3428.3125 856.339844 3442.960938 845.238281 3458.664062 C 823.9375 3488.863281 810.839844 3527.765625 804.789062 3578.917969 C 802.335938 3600.117188 801.238281 3617.917969 800.539062 3650.070312 C 800.136719 3666.273438 800.039062 4245.648438 800.136719 5546.011719 C 800.289062 7345.144531 800.335938 7418.796875 801.1875 7423.847656 C 804.386719 7442.449219 810.636719 7457.097656 820.6875 7469.601562 C 825.539062 7475.550781 839.140625 7488.652344 844.539062 7492.453125 C 850.441406 7496.652344 861.589844 7502.25 868.589844 7504.550781 C 874.289062 7506.402344 880.992188 7507.902344 888.292969 7508.953125 C 894.792969 7509.902344 2638.875 7509.902344 2644.773438 7508.953125 C 2650.523438 7508.050781 5864.875 7508.050781 5870.625 7509.003906 C 5876.625 7509.953125 7619.957031 7509.902344 7627.109375 7508.953125 C 7638.207031 7507.453125 7650.609375 7503.453125 7660.710938 7498.101562 C 7670.910156 7492.703125 7679.109375 7486.550781 7687.410156 7478.050781 C 7702.460938 7462.550781 7711.5625 7444.699219 7715.710938 7422.347656 C 7716.5625 7417.796875 7716.613281 7336.695312 7716.910156 5580.761719 C 7717.160156 3867.332031 7717.261719 3742.574219 7718.011719 3723.925781 C 7719.160156 3697.324219 7719.660156 3635.46875 7718.910156 3618.917969 C 7715.660156 3548.417969 7704.761719 3506.613281 7679.960938 3470.164062 C 7673.359375 3460.460938 7668.910156 3455.113281 7659.160156 3445.410156 C 7649.859375 3436.160156 7642.957031 3430.460938 7632.859375 3423.660156 C 7601.605469 3402.710938 7560.554688 3389.007812 7509.351562 3382.457031 C 7465.300781 3376.757812 7416.648438 3375.859375 7331.84375 3379.007812 C 7311.394531 3379.808594 7255.441406 3379.859375 6648.960938 3380.007812 L 5988.28125 3380.160156 L 5988.128906 3081.792969 C 5987.980469 2854.683594 5987.832031 2781.480469 5987.378906 2775.378906 C 5983.730469 2727.476562 5976.28125 2693.078125 5962.429688 2660.625 C 5929.226562 2582.671875 5864.523438 2540.417969 5770.269531 2535.117188 C 5716.71875 2532.117188 5522.410156 2527.667969 5444.90625 2527.617188 L 5427.753906 2527.617188 L 5427.753906 2518.96875 C 5427.753906 2501.667969 5426.503906 2471.617188 5424.703125 2446.613281 C 5407.453125 2201.152344 5314.398438 1966.242188 5159.292969 1776.582031 C 5132.691406 1744.03125 5112.089844 1721.332031 5079.789062 1689.027344 C 5047.9375 1657.175781 5025.183594 1636.476562 4993.484375 1610.527344 C 4855.378906 1497.371094 4690.667969 1415.964844 4520.710938 1376.863281 C 4453.207031 1361.363281 4386.855469 1352.464844 4312.953125 1349.0625 C 4301.953125 1348.5625 4248.800781 1348.0625 4238.449219 1348.363281 Z M 4306.953125 1553.523438 C 4376.105469 1557.574219 4434.65625 1566.671875 4497.460938 1583.125 C 4708.519531 1638.527344 4893.628906 1763.183594 5025.535156 1938.839844 C 5138.789062 2089.648438 5206.242188 2270.40625 5219.695312 2459.117188 C 5222.59375 2499.417969 5222.746094 2524.917969 5220.496094 2563.121094 C 5210.246094 2734.078125 5155.589844 2900.484375 5062.585938 3044.144531 C 4950.082031 3217.949219 4787.875 3348.957031 4597.964844 3419.410156 C 4509.113281 3452.410156 4415.855469 3471.914062 4319.703125 3477.664062 C 4285.5 3479.714844 4241.546875 3479.714844 4206.695312 3477.664062 C 3990.738281 3465.011719 3784.828125 3381.507812 3622.769531 3240.800781 C 3591.46875 3213.601562 3558.464844 3180.800781 3531.117188 3149.648438 C 3439.0625 3044.742188 3371.859375 2920.738281 3333.257812 2784.378906 C 3301.40625 2672.125 3289.953125 2552.917969 3299.65625 2435.613281 C 3316.804688 2229.105469 3397.609375 2036.945312 3531.617188 1884.1875 C 3566.066406 1844.886719 3606.21875 1806.183594 3646.972656 1773.03125 C 3803.179688 1645.777344 3995.636719 1569.074219 4194.445312 1554.871094 C 4203.445312 1554.222656 4216.496094 1553.523438 4231.949219 1552.871094 C 4240.296875 1552.523438 4298.351562 1553.023438 4306.953125 1553.523438 Z M 5739.019531 2735.878906 C 5755.871094 2737.527344 5766.96875 2740.378906 5774.570312 2744.929688 C 5780.421875 2748.429688 5782.972656 2751.777344 5784.972656 2758.679688 C 5788.472656 2770.878906 5788.371094 2788.230469 5784.519531 2827.632812 C 5783.820312 2834.632812 5783.070312 2843.433594 5782.769531 2847.132812 C 5782.421875 2851.632812 5782.269531 3600.21875 5782.269531 5078.089844 L 5782.269531 7302.34375 L 4873.226562 7302.34375 L 4873.226562 6676.261719 C 4873.226562 6112.988281 4873.128906 6049.632812 4872.429688 6044.832031 C 4865.578125 5997.882812 4826.875 5960.878906 4779.773438 5956.277344 C 4772.523438 5955.578125 3744.226562 5955.578125 3737.125 5956.277344 C 3707.972656 5959.179688 3681.472656 5974.328125 3663.722656 5998.28125 C 3654.871094 6010.183594 3648.769531 6023.730469 3645.320312 6039.28125 L 3643.921875 6045.535156 L 3643.820312 6673.914062 L 3643.671875 7302.34375 L 2734.628906 7302.34375 L 2734.476562 5070.636719 L 2734.378906 2838.882812 L 2732.527344 2820.882812 C 2728.828125 2784.582031 2728.777344 2766.828125 2732.328125 2754.878906 C 2733.179688 2752.179688 2736.929688 2745.527344 2738.828125 2743.480469 C 2739.929688 2742.277344 2740.179688 2742.230469 2746.179688 2742.277344 C 2751.230469 2742.277344 2753.429688 2742.027344 2758.128906 2740.929688 C 2776.980469 2736.476562 2789.878906 2735.128906 2813.433594 2735.128906 C 2831.484375 2735.128906 2848.484375 2736.027344 2894.636719 2739.476562 C 2903.886719 2740.179688 2919.988281 2740.328125 3008.691406 2740.476562 L 3111.945312 2740.679688 L 3113.046875 2746.777344 C 3117.746094 2772.230469 3127.945312 2814.78125 3136.695312 2845.382812 C 3200.851562 3068.945312 3331.855469 3267.304688 3513.664062 3416.210938 C 3677.273438 3550.214844 3875.832031 3638.371094 4086.640625 3670.671875 C 4127.34375 3676.921875 4167.195312 3680.824219 4214.949219 3683.273438 C 4231.796875 3684.121094 4300.550781 3684.121094 4317.453125 3683.273438 C 4416.507812 3678.222656 4501.261719 3664.371094 4589.316406 3638.921875 C 4790.824219 3580.617188 4974.332031 3464.5625 5118.738281 3304.15625 C 5181.691406 3234.25 5235.546875 3157.898438 5281.996094 3072.894531 C 5290.796875 3056.691406 5310.847656 3016.640625 5318.699219 2999.390625 C 5350.449219 2929.738281 5374.851562 2859.835938 5393.003906 2786.378906 C 5396.652344 2771.628906 5402.003906 2748.277344 5403.003906 2742.480469 L 5403.351562 2740.628906 L 5501.457031 2740.628906 C 5604.511719 2740.628906 5604.210938 2740.628906 5638.765625 2738.128906 C 5657.515625 2736.777344 5681.265625 2735.378906 5692.015625 2734.929688 C 5701.96875 2734.527344 5731.769531 2735.128906 5739.019531 2735.878906 Z M 1130.804688 3577.167969 C 1156.054688 3578.117188 1179.707031 3579.46875 1221.308594 3582.417969 C 1234.808594 3583.367188 1251.109375 3584.519531 1257.558594 3584.917969 C 1267.910156 3585.566406 1343.363281 3585.667969 1898.988281 3585.667969 L 2528.617188 3585.667969 L 2528.617188 7304.34375 L 1005.546875 7304.34375 L 1005.546875 3671.421875 L 1004.097656 3655.921875 C 1001.945312 3633.621094 1001.347656 3622.621094 1001.746094 3613.167969 C 1002.246094 3599.820312 1003.796875 3594.367188 1008.195312 3590.367188 C 1016.496094 3582.917969 1035.097656 3578.917969 1070.550781 3577.019531 C 1077.699219 3576.617188 1118.800781 3576.71875 1130.804688 3577.167969 Z M 7487.351562 3580.167969 C 7498.453125 3581.019531 7505.902344 3582.769531 7509.101562 3585.269531 C 7511.101562 3586.816406 7512.703125 3589.71875 7514.300781 3594.570312 C 7517.351562 3603.769531 7518.503906 3615.417969 7518.503906 3637.421875 C 7518.453125 3660.320312 7517.203125 3682.273438 7513.453125 3723.375 L 7511.601562 3743.925781 L 7511.453125 5524.109375 L 7511.351562 7304.34375 L 5988.28125 7304.34375 L 5988.28125 3585.667969 L 7383.796875 3585.667969 L 7403.695312 3583.96875 C 7449.800781 3579.96875 7471.351562 3578.96875 7487.351562 3580.167969 Z M 4667.71875 6725.066406 L 4667.71875 7288.839844 L 3849.179688 7288.839844 L 3849.179688 6161.289062 L 4667.71875 6161.289062 Z M 4667.71875 6725.066406 "/>
<path style=" stroke:none;fill-rule:nonzero;fill:rgb(0%,0%,0%);fill-opacity:1;" d="M 4068.441406 1849.636719 C 4057.089844 1850.6875 4043.941406 1854.4375 4033.488281 1859.539062 C 4001.4375 1875.238281 3979.1875 1906.4375 3975.1875 1941.339844 C 3974.886719 1944.339844 3974.6875 1994.445312 3974.6875 2089.449219 L 3974.6875 2233.105469 L 3827.828125 2233.253906 L 3680.921875 2233.355469 L 3674.671875 2234.753906 C 3654.269531 2239.304688 3637.519531 2248.105469 3623.21875 2261.855469 C 3605.917969 2278.457031 3595.570312 2298.308594 3591.816406 2322.109375 C 3590.96875 2327.558594 3590.917969 2336.960938 3590.917969 2516.867188 C 3590.917969 2696.726562 3590.96875 2706.175781 3591.816406 2711.578125 C 3595.367188 2733.828125 3604.769531 2752.878906 3620.121094 2768.828125 C 3633.371094 2782.53125 3650.871094 2792.832031 3668.570312 2797.382812 C 3681.171875 2800.582031 3667.023438 2800.332031 3828.328125 2800.480469 L 3974.6875 2800.632812 L 3974.6875 2944.386719 C 3974.6875 3101.296875 3974.535156 3092.996094 3977.535156 3105.144531 C 3982.1875 3124.246094 3992.835938 3142.296875 4007.539062 3156.148438 C 4025.390625 3172.898438 4047.339844 3182.5 4071.441406 3184.148438 C 4081.742188 3184.800781 4435.15625 3184.800781 4445.457031 3184.148438 C 4495.0625 3180.75 4535.5625 3142.296875 4541.710938 3092.644531 C 4542.0625 3089.792969 4542.214844 3041.792969 4542.214844 2944.539062 L 4542.214844 2800.632812 L 4685.621094 2800.632812 C 4778.375 2800.632812 4830.578125 2800.429688 4833.476562 2800.132812 C 4866.429688 2796.429688 4895.980469 2776.832031 4912.730469 2747.578125 C 4918.78125 2737.027344 4923.679688 2722.527344 4925.332031 2710.378906 C 4925.882812 2706.277344 4925.980469 2671.773438 4925.980469 2515.617188 C 4925.980469 2335.308594 4925.929688 2325.558594 4925.082031 2320.109375 C 4922.230469 2301.859375 4916.429688 2287.507812 4906.878906 2274.957031 C 4903.28125 2270.207031 4889.527344 2256.40625 4884.480469 2252.503906 C 4871.277344 2242.207031 4854.476562 2235.703125 4835.976562 2233.605469 C 4833.078125 2233.304688 4780.472656 2233.105469 4686.871094 2233.105469 L 4542.214844 2233.105469 L 4542.214844 2089.148438 C 4542.214844 1931.390625 4542.363281 1940.242188 4539.261719 1928.039062 C 4534.863281 1910.589844 4526.011719 1894.6875 4513.460938 1881.636719 C 4495.460938 1862.886719 4472.859375 1851.9375 4447.457031 1849.585938 C 4440.65625 1848.988281 4075.089844 1849.035156 4068.441406 1849.636719 Z M 4336.851562 2199.453125 C 4336.953125 2335.808594 4337.054688 2344.660156 4337.851562 2349.609375 C 4339.804688 2361.011719 4342.554688 2369.8125 4347.203125 2379.363281 C 4352.503906 2390.363281 4359.304688 2399.664062 4368.753906 2408.914062 C 4383.304688 2423.0625 4399.804688 2431.914062 4420.257812 2436.464844 L 4426.457031 2437.863281 L 4573.613281 2437.964844 L 4720.722656 2438.113281 L 4720.722656 2595.121094 L 4579.113281 2595.121094 C 4489.609375 2595.121094 4435.40625 2595.320312 4431.859375 2595.621094 C 4411.65625 2597.421875 4391.753906 2605.421875 4375.957031 2618.171875 C 4353.503906 2636.273438 4339.351562 2662.875 4337.203125 2691.125 C 4336.902344 2695.527344 4336.703125 2747.277344 4336.703125 2838.484375 L 4336.703125 2979.140625 L 4180.195312 2979.140625 L 4180.195312 2838.183594 C 4180.195312 2745.429688 4179.996094 2695.078125 4179.695312 2690.824219 C 4176.746094 2654.125 4154.144531 2621.472656 4120.542969 2605.371094 C 4109.191406 2599.921875 4097.59375 2596.722656 4085.191406 2595.621094 C 4081.441406 2595.320312 4029.6875 2595.121094 3937.835938 2595.121094 L 3796.179688 2595.121094 L 3796.179688 2438.113281 L 3943.335938 2437.964844 L 4090.441406 2437.863281 L 4096.640625 2436.464844 C 4113.492188 2432.714844 4128.34375 2425.613281 4141.195312 2415.261719 C 4146.144531 2411.214844 4155.246094 2401.863281 4159.144531 2396.710938 C 4170.945312 2381.113281 4178.097656 2362.359375 4179.695312 2342.910156 C 4179.996094 2338.660156 4180.195312 2288.105469 4180.195312 2195.554688 L 4180.195312 2054.597656 L 4336.703125 2054.597656 Z M 4336.851562 2199.453125 "/>
<path style=" stroke:none;fill-rule:nonzero;fill:rgb(0%,0%,0%);fill-opacity:1;" d="M 3290.902344 4299.300781 C 3273.054688 4301.300781 3253.453125 4309.703125 3238.402344 4321.851562 C 3233.101562 4326.101562 3224.699219 4334.851562 3220.550781 4340.453125 C 3211.25 4352.902344 3205.148438 4366.453125 3201.800781 4381.957031 L 3200.398438 4388.457031 L 3200.398438 4739.972656 C 3200.398438 5079.6875 3200.449219 5091.6875 3201.300781 5096.738281 C 3204.5 5114.640625 3210.949219 5129.089844 3221.449219 5141.742188 C 3226.351562 5147.691406 3238.953125 5159.691406 3244.152344 5163.390625 C 3253.402344 5169.941406 3266.402344 5175.644531 3278.152344 5178.242188 C 3290.054688 5180.894531 3267.703125 5180.742188 3640.320312 5180.742188 C 3878.933594 5180.742188 3986.738281 5180.59375 3990.085938 5180.191406 C 4008.488281 5178.191406 4027.9375 5170.09375 4042.691406 5158.292969 C 4047.089844 5154.792969 4055.140625 5146.792969 4058.789062 5142.390625 C 4070.640625 5127.941406 4078.839844 5109.140625 4081.292969 5090.988281 C 4082.292969 5083.539062 4082.292969 4395.90625 4081.292969 4388.457031 C 4075.742188 4347.203125 4044.191406 4311.953125 4003.6875 4301.75 C 3990.585938 4298.453125 4020.886719 4298.703125 3640.519531 4298.75 C 3438.359375 4298.800781 3293.253906 4299 3290.902344 4299.300781 Z M 3876.183594 4739.722656 L 3876.183594 4975.234375 L 3405.660156 4975.234375 L 3405.660156 4504.210938 L 3876.183594 4504.210938 Z M 3876.183594 4739.722656 "/>
<path style=" stroke:none;fill-rule:nonzero;fill:rgb(0%,0%,0%);fill-opacity:1;" d="M 4522.960938 4299.300781 C 4505.109375 4301.300781 4485.511719 4309.703125 4470.460938 4321.851562 C 4465.160156 4326.101562 4456.757812 4334.851562 4452.609375 4340.453125 C 4443.308594 4352.902344 4437.207031 4366.453125 4433.859375 4381.957031 L 4432.457031 4388.457031 L 4432.457031 4739.972656 C 4432.457031 5079.6875 4432.507812 5091.6875 4433.359375 5096.738281 C 4436.558594 5114.640625 4443.007812 5129.089844 4453.507812 5141.742188 C 4458.410156 5147.691406 4471.007812 5159.691406 4476.210938 5163.390625 C 4485.460938 5169.941406 4498.460938 5175.644531 4510.210938 5178.242188 C 4522.113281 5180.894531 4499.761719 5180.742188 4872.378906 5180.742188 C 5110.988281 5180.742188 5218.792969 5180.59375 5222.144531 5180.191406 C 5240.746094 5178.191406 5259.546875 5170.34375 5274.746094 5158.242188 C 5280.046875 5153.992188 5289.597656 5144.242188 5293.398438 5139.140625 C 5304 5124.941406 5311.097656 5107.789062 5313.347656 5090.988281 C 5314.347656 5083.539062 5314.347656 4395.90625 5313.347656 4388.457031 C 5307.796875 4347.203125 5276.246094 4311.953125 5235.746094 4301.75 C 5222.644531 4298.453125 5252.945312 4298.703125 4872.578125 4298.75 C 4670.417969 4298.800781 4525.3125 4299 4522.960938 4299.300781 Z M 5108.238281 4739.722656 L 5108.238281 4975.234375 L 4637.71875 4975.234375 L 4637.71875 4504.210938 L 5108.238281 4504.210938 Z M 5108.238281 4739.722656 "/>
<path style=" stroke:none;fill-rule:nonzero;fill:rgb(0%,0%,0%);fill-opacity:1;" d="M 1419.417969 4060.742188 C 1396.164062 4062.992188 1374.015625 4073.640625 1356.761719 4090.890625 C 1338.761719 4108.894531 1328.460938 4131.042969 1326.5625 4155.894531 C 1325.710938 4166.796875 1326.113281 4849.027344 1326.960938 4854.476562 C 1330.261719 4875.378906 1336.613281 4890.128906 1348.464844 4904.230469 C 1353.414062 4910.179688 1362.5625 4919.03125 1367.8125 4923.03125 C 1381.015625 4933.082031 1396.164062 4939.179688 1413.714844 4941.480469 C 1418.964844 4942.132812 1457.269531 4942.230469 1766.933594 4942.230469 C 2078.199219 4942.230469 2114.75 4942.132812 2119.550781 4941.429688 C 2130.398438 4939.882812 2139.648438 4936.980469 2149.851562 4931.980469 C 2170.851562 4921.730469 2187.703125 4904.78125 2198.101562 4883.480469 C 2203.953125 4871.527344 2207.101562 4859.976562 2208.101562 4846.726562 C 2208.804688 4837.578125 2208.804688 4164.394531 2208.101562 4155.945312 C 2206.453125 4136.09375 2199.953125 4118.84375 2188.050781 4102.542969 C 2183.351562 4096.09375 2173.351562 4085.992188 2166.75 4081.042969 C 2151.050781 4069.339844 2133.5 4062.492188 2114.347656 4060.691406 C 2107.546875 4060.089844 1426.066406 4060.089844 1419.417969 4060.742188 Z M 2002.59375 4501.210938 L 2002.59375 4736.722656 L 1532.070312 4736.722656 L 1532.070312 4265.699219 L 2002.59375 4265.699219 Z M 2002.59375 4501.210938 "/>
<path style=" stroke:none;fill-rule:nonzero;fill:rgb(0%,0%,0%);fill-opacity:1;" d="M 1419.066406 5231.796875 C 1395.964844 5234.144531 1373.914062 5244.796875 1356.761719 5261.945312 C 1338.761719 5279.949219 1328.460938 5302.097656 1326.5625 5326.949219 C 1325.710938 5337.851562 1326.113281 6020.082031 1326.960938 6025.53125 C 1330.261719 6046.433594 1336.613281 6061.183594 1348.464844 6075.285156 C 1353.414062 6081.234375 1362.5625 6090.085938 1367.8125 6094.085938 C 1381.015625 6104.136719 1396.164062 6110.238281 1413.714844 6112.535156 C 1418.964844 6113.1875 1457.269531 6113.285156 1766.933594 6113.285156 C 2077.949219 6113.285156 2114.800781 6113.1875 2119.550781 6112.535156 C 2153.449219 6107.585938 2182.800781 6085.933594 2198.101562 6054.535156 C 2203.953125 6042.582031 2207.101562 6031.03125 2208.101562 6017.78125 C 2208.804688 6008.632812 2208.804688 5335.449219 2208.101562 5327 C 2207.101562 5315.148438 2204.601562 5304.949219 2200.203125 5294.75 C 2185.050781 5259.546875 2152 5235.296875 2114.347656 5231.746094 C 2107.546875 5231.144531 1425.417969 5231.144531 1419.066406 5231.796875 Z M 2002.59375 5672.265625 L 2002.59375 5907.777344 L 1532.070312 5907.777344 L 1532.070312 5436.753906 L 2002.59375 5436.753906 Z M 2002.59375 5672.265625 "/>
<path style=" stroke:none;fill-rule:nonzero;fill:rgb(0%,0%,0%);fill-opacity:1;" d="M 6401.898438 4060.742188 C 6386 4062.242188 6369 4068.339844 6355.496094 4077.339844 C 6339.347656 4088.089844 6326.996094 4102.292969 6318.597656 4119.742188 C 6312.445312 4132.542969 6309.644531 4143.542969 6308.796875 4158.445312 C 6308.394531 4164.59375 6308.296875 4276.25 6308.445312 4508.960938 L 6308.59375 4850.476562 L 6309.695312 4856.878906 C 6312.847656 4875.828125 6319.746094 4891.429688 6330.445312 4903.878906 C 6334.648438 4908.78125 6343.847656 4917.929688 6347.796875 4921.230469 C 6360.796875 4931.980469 6377.699219 4939.082031 6395.699219 4941.429688 C 6401.300781 4942.183594 6434.101562 4942.230469 6749.214844 4942.230469 C 7052.53125 4942.230469 7097.234375 4942.132812 7101.78125 4941.480469 C 7126.183594 4938.03125 7150.035156 4924.730469 7165.886719 4905.828125 C 7176.585938 4893.03125 7184.085938 4878.480469 7187.785156 4863.328125 C 7190.785156 4851.027344 7190.585938 4877.578125 7190.585938 4500.460938 L 7190.585938 4153.445312 L 7189.4375 4146.945312 C 7186.4375 4130.445312 7180.136719 4115.742188 7170.386719 4102.640625 C 7152.636719 4078.742188 7125.734375 4063.390625 7096.832031 4060.742188 C 7089.933594 4060.089844 6408.5 4060.089844 6401.898438 4060.742188 Z M 6984.828125 4501.210938 L 6984.828125 4736.722656 L 6514.304688 4736.722656 L 6514.304688 4265.699219 L 6984.828125 4265.699219 Z M 6984.828125 4501.210938 "/>
<path style=" stroke:none;fill-rule:nonzero;fill:rgb(0%,0%,0%);fill-opacity:1;" d="M 6401.898438 5231.796875 C 6366.449219 5235.195312 6334.648438 5257.644531 6318.746094 5290.496094 C 6312.445312 5303.5 6309.644531 5314.449219 6308.796875 5329.5 C 6308.394531 5335.648438 6308.296875 5447.304688 6308.445312 5680.015625 L 6308.59375 6021.53125 L 6309.695312 6027.933594 C 6312.847656 6046.882812 6319.746094 6062.484375 6330.445312 6074.933594 C 6334.648438 6079.835938 6343.847656 6088.984375 6347.796875 6092.285156 C 6360.796875 6103.035156 6377.699219 6110.136719 6395.699219 6112.488281 C 6401.300781 6113.238281 6434.101562 6113.285156 6749.214844 6113.285156 C 7052.53125 6113.285156 7097.234375 6113.1875 7101.78125 6112.535156 C 7126.183594 6109.085938 7150.035156 6095.785156 7165.886719 6076.886719 C 7176.585938 6064.085938 7184.085938 6049.535156 7187.785156 6034.382812 C 7190.785156 6022.082031 7190.585938 6048.632812 7190.585938 5671.515625 L 7190.585938 5324.5 L 7189.4375 5318 C 7186.4375 5301.5 7180.136719 5286.796875 7170.386719 5273.695312 C 7152.683594 5249.847656 7126.035156 5234.644531 7096.882812 5231.746094 C 7090.632812 5231.144531 6408.300781 5231.144531 6401.898438 5231.796875 Z M 6984.828125 5672.265625 L 6984.828125 5907.777344 L 6514.304688 5907.777344 L 6514.304688 5436.753906 L 6984.828125 5436.753906 Z M 6984.828125 5672.265625 "/>
</g>
</svg>
