<?xml version="1.0" encoding="UTF-8"?>
<svg xmlns="http://www.w3.org/2000/svg" xmlns:xlink="http://www.w3.org/1999/xlink" viewBox="0 0 24 24" version="1.1">
<g>
<path style=" stroke:none;fill-rule:nonzero;fill:rgb(0%,0%,0%);fill-opacity:1;" d="M 4.515625 1.96875 C 4.257812 1.980469 4.003906 2.0625 3.785156 2.203125 C 3.6875 2.261719 3.605469 2.332031 3.519531 2.417969 C 3.3125 2.625 3.175781 2.890625 3.117188 3.179688 L 3.113281 3.195312 L 3.089844 3.199219 C 3.058594 3.207031 2.988281 3.222656 2.957031 3.234375 C 2.78125 3.289062 2.621094 3.375 2.480469 3.5 C 2.453125 3.523438 2.378906 3.59375 2.355469 3.621094 C 2.316406 3.667969 2.285156 3.707031 2.253906 3.757812 C 2.117188 3.957031 2.039062 4.1875 2.027344 4.429688 C 2.019531 4.523438 2.023438 4.578125 2.046875 4.816406 C 2.164062 6.125 2.464844 7.40625 2.917969 8.535156 C 2.945312 8.601562 2.976562 8.679688 3 8.730469 L 3.011719 8.761719 L 2.992188 8.78125 C 2.9375 8.828125 2.878906 8.886719 2.832031 8.945312 C 2.738281 9.066406 2.664062 9.199219 2.613281 9.34375 C 2.53125 9.589844 2.523438 9.859375 2.597656 10.105469 C 2.621094 10.191406 2.65625 10.285156 2.699219 10.363281 C 2.726562 10.410156 2.8125 10.558594 2.878906 10.664062 C 3.53125 11.710938 4.328125 12.558594 5.214844 13.152344 C 5.78125 13.53125 6.382812 13.804688 6.996094 13.964844 L 7.03125 13.976562 L 7.03125 14.59375 C 7.03125 14.972656 7.03125 15.222656 7.035156 15.238281 C 7.039062 15.367188 7.0625 15.480469 7.101562 15.597656 C 7.179688 15.824219 7.316406 16.023438 7.503906 16.175781 C 7.640625 16.289062 7.796875 16.371094 7.964844 16.417969 C 7.980469 16.425781 8.003906 16.429688 8.011719 16.433594 L 8.027344 16.4375 L 8.027344 17.550781 C 8.027344 18.25 8.027344 18.679688 8.03125 18.703125 C 8.042969 19.046875 8.109375 19.375 8.234375 19.6875 C 8.386719 20.070312 8.613281 20.417969 8.910156 20.710938 C 9.210938 21.007812 9.566406 21.234375 9.964844 21.382812 C 10.261719 21.492188 10.574219 21.554688 10.902344 21.566406 C 10.957031 21.570312 16.246094 21.570312 16.304688 21.566406 C 16.375 21.5625 16.453125 21.558594 16.519531 21.550781 C 17.082031 21.492188 17.609375 21.277344 18.054688 20.921875 C 18.144531 20.851562 18.21875 20.785156 18.304688 20.699219 C 18.367188 20.636719 18.394531 20.605469 18.441406 20.554688 C 18.855469 20.078125 19.109375 19.492188 19.164062 18.867188 C 19.167969 18.835938 19.167969 18.808594 19.175781 18.746094 C 19.175781 18.726562 19.175781 18.457031 19.175781 17.601562 L 19.175781 16.480469 L 19.179688 16.480469 C 19.183594 16.480469 19.191406 16.480469 19.203125 16.480469 C 19.265625 16.472656 19.351562 16.460938 19.421875 16.449219 C 20.148438 16.328125 20.8125 15.953125 21.304688 15.394531 C 21.757812 14.878906 22.03125 14.234375 22.089844 13.546875 C 22.097656 13.453125 22.097656 13.402344 22.097656 13.28125 C 22.097656 13.167969 22.097656 13.140625 22.09375 13.066406 C 22.070312 12.695312 21.980469 12.332031 21.832031 11.996094 C 21.789062 11.898438 21.734375 11.785156 21.683594 11.691406 C 21.367188 11.136719 20.890625 10.6875 20.316406 10.402344 C 19.957031 10.21875 19.566406 10.109375 19.164062 10.074219 C 19.0625 10.066406 19 10.0625 18.882812 10.0625 C 18.769531 10.0625 18.710938 10.066406 18.613281 10.074219 C 18.101562 10.117188 17.605469 10.28125 17.171875 10.558594 C 16.835938 10.769531 16.539062 11.042969 16.300781 11.363281 C 16.238281 11.445312 16.175781 11.542969 16.121094 11.632812 C 16.042969 11.761719 15.972656 11.90625 15.910156 12.050781 C 15.777344 12.371094 15.695312 12.71875 15.675781 13.070312 C 15.671875 13.136719 15.667969 13.164062 15.667969 13.246094 C 15.667969 13.335938 15.667969 13.390625 15.671875 13.464844 C 15.707031 14.03125 15.882812 14.570312 16.195312 15.042969 C 16.371094 15.308594 16.585938 15.550781 16.832031 15.753906 C 17.304688 16.148438 17.878906 16.394531 18.484375 16.46875 C 18.503906 16.472656 18.539062 16.476562 18.554688 16.476562 C 18.570312 16.480469 18.585938 16.480469 18.589844 16.480469 L 18.589844 17.550781 C 18.589844 18.574219 18.589844 18.664062 18.585938 18.730469 C 18.574219 18.972656 18.523438 19.207031 18.441406 19.433594 C 18.390625 19.5625 18.324219 19.699219 18.253906 19.816406 C 18.105469 20.0625 17.917969 20.277344 17.695312 20.457031 C 17.359375 20.726562 16.960938 20.898438 16.535156 20.960938 C 16.476562 20.96875 16.433594 20.972656 16.332031 20.980469 C 16.300781 20.980469 10.972656 20.984375 10.910156 20.980469 C 10.519531 20.964844 10.148438 20.859375 9.808594 20.664062 C 9.652344 20.574219 9.5 20.460938 9.363281 20.332031 C 9.339844 20.308594 9.273438 20.246094 9.253906 20.222656 C 9.050781 20.003906 8.894531 19.753906 8.785156 19.480469 C 8.699219 19.273438 8.644531 19.046875 8.625 18.824219 C 8.621094 18.792969 8.617188 18.75 8.617188 18.699219 C 8.613281 18.679688 8.613281 18.386719 8.613281 17.554688 L 8.613281 16.4375 L 8.621094 16.433594 C 8.660156 16.425781 8.746094 16.398438 8.792969 16.378906 C 8.921875 16.328125 9.039062 16.257812 9.144531 16.171875 C 9.207031 16.121094 9.273438 16.054688 9.324219 15.988281 C 9.484375 15.789062 9.582031 15.550781 9.605469 15.296875 C 9.609375 15.242188 9.609375 15.21875 9.609375 14.59375 L 9.609375 13.976562 L 9.632812 13.96875 C 9.90625 13.898438 10.195312 13.800781 10.46875 13.679688 C 11.304688 13.316406 12.082031 12.742188 12.773438 11.976562 C 13.15625 11.558594 13.511719 11.078125 13.832031 10.550781 C 13.867188 10.488281 13.921875 10.398438 13.933594 10.375 C 14.058594 10.148438 14.109375 9.898438 14.089844 9.640625 C 14.066406 9.382812 13.964844 9.136719 13.800781 8.9375 C 13.757812 8.886719 13.699219 8.828125 13.652344 8.785156 C 13.640625 8.773438 13.628906 8.765625 13.628906 8.761719 C 13.628906 8.761719 13.636719 8.738281 13.652344 8.710938 C 14.164062 7.492188 14.492188 6.097656 14.609375 4.65625 C 14.617188 4.546875 14.621094 4.476562 14.613281 4.398438 C 14.601562 4.261719 14.570312 4.128906 14.519531 4.003906 C 14.503906 3.960938 14.492188 3.941406 14.472656 3.898438 C 14.3125 3.585938 14.039062 3.347656 13.710938 3.242188 C 13.652344 3.222656 13.605469 3.210938 13.546875 3.199219 L 13.511719 3.191406 L 13.507812 3.183594 C 13.492188 3.101562 13.472656 3.03125 13.449219 2.960938 C 13.375 2.75 13.253906 2.5625 13.097656 2.40625 C 12.832031 2.144531 12.484375 1.988281 12.113281 1.96875 C 12.070312 1.96875 11.964844 1.96875 11.933594 1.972656 C 11.765625 1.988281 11.636719 2.027344 11.527344 2.101562 C 11.46875 2.140625 11.410156 2.195312 11.367188 2.253906 C 11.289062 2.355469 11.238281 2.484375 11.214844 2.644531 C 11.195312 2.777344 11.191406 2.914062 11.199219 3.203125 C 11.207031 3.410156 11.207031 3.519531 11.199219 3.726562 C 11.195312 3.945312 11.195312 4.050781 11.203125 4.160156 C 11.222656 4.425781 11.289062 4.605469 11.421875 4.742188 C 11.542969 4.867188 11.703125 4.9375 11.914062 4.957031 C 11.984375 4.964844 12.082031 4.964844 12.164062 4.957031 C 12.570312 4.925781 12.945312 4.722656 13.203125 4.402344 C 13.335938 4.242188 13.429688 4.058594 13.484375 3.859375 C 13.488281 3.839844 13.492188 3.816406 13.496094 3.808594 L 13.5 3.789062 L 13.503906 3.789062 C 13.523438 3.792969 13.578125 3.816406 13.609375 3.832031 C 13.816406 3.933594 13.96875 4.125 14.015625 4.351562 C 14.023438 4.398438 14.03125 4.4375 14.03125 4.488281 C 14.03125 4.527344 14.03125 4.542969 14.023438 4.644531 C 13.910156 5.992188 13.601562 7.300781 13.128906 8.441406 C 13.113281 8.472656 13.105469 8.496094 13.101562 8.5 C 13.101562 8.5 13.101562 8.5 13.097656 8.5 C 13.097656 8.5 13.082031 8.496094 13.066406 8.492188 C 12.875 8.453125 12.679688 8.457031 12.488281 8.507812 C 12.1875 8.582031 11.925781 8.761719 11.75 9.015625 C 11.726562 9.046875 11.710938 9.074219 11.679688 9.125 C 11.402344 9.597656 11.117188 9.984375 10.785156 10.335938 C 10.746094 10.375 10.625 10.5 10.585938 10.539062 C 10.179688 10.921875 9.757812 11.195312 9.316406 11.367188 C 8.820312 11.5625 8.316406 11.609375 7.820312 11.511719 C 7.230469 11.398438 6.652344 11.085938 6.113281 10.589844 C 6.011719 10.5 5.894531 10.378906 5.796875 10.273438 C 5.5 9.949219 5.21875 9.566406 4.96875 9.140625 C 4.953125 9.113281 4.933594 9.082031 4.925781 9.066406 C 4.835938 8.921875 4.710938 8.792969 4.570312 8.695312 C 4.46875 8.625 4.355469 8.570312 4.238281 8.53125 C 4.097656 8.484375 3.960938 8.464844 3.8125 8.46875 C 3.722656 8.46875 3.644531 8.476562 3.566406 8.496094 C 3.550781 8.496094 3.539062 8.5 3.539062 8.5 C 3.539062 8.5 3.527344 8.476562 3.519531 8.453125 C 3.082031 7.410156 2.789062 6.234375 2.65625 5.015625 C 2.632812 4.816406 2.613281 4.585938 2.609375 4.519531 C 2.605469 4.355469 2.660156 4.191406 2.757812 4.058594 C 2.789062 4.015625 2.832031 3.96875 2.871094 3.9375 C 2.929688 3.886719 2.996094 3.84375 3.066406 3.816406 C 3.09375 3.804688 3.125 3.792969 3.125 3.792969 C 3.125 3.796875 3.128906 3.804688 3.132812 3.816406 C 3.144531 3.867188 3.167969 3.945312 3.1875 4 C 3.21875 4.078125 3.257812 4.160156 3.300781 4.230469 C 3.523438 4.605469 3.902344 4.867188 4.328125 4.9375 C 4.417969 4.953125 4.472656 4.960938 4.566406 4.960938 C 4.671875 4.960938 4.746094 4.957031 4.824219 4.941406 C 4.957031 4.914062 5.0625 4.863281 5.15625 4.785156 C 5.171875 4.773438 5.222656 4.722656 5.234375 4.707031 C 5.347656 4.574219 5.40625 4.40625 5.421875 4.164062 C 5.429688 4.070312 5.429688 3.925781 5.425781 3.742188 C 5.417969 3.515625 5.417969 3.421875 5.425781 3.214844 C 5.429688 2.964844 5.429688 2.863281 5.421875 2.75 C 5.402344 2.496094 5.332031 2.320312 5.203125 2.1875 C 5.074219 2.054688 4.898438 1.984375 4.664062 1.96875 C 4.640625 1.96875 4.539062 1.96875 4.515625 1.96875 Z M 4.617188 2.554688 C 4.703125 2.558594 4.757812 2.574219 4.785156 2.597656 C 4.8125 2.628906 4.832031 2.695312 4.839844 2.808594 C 4.84375 2.875 4.84375 3.011719 4.839844 3.136719 C 4.839844 3.164062 4.839844 3.210938 4.835938 3.242188 C 4.835938 3.28125 4.835938 3.363281 4.835938 3.46875 C 4.835938 3.605469 4.835938 3.652344 4.839844 3.738281 C 4.84375 3.921875 4.84375 4.046875 4.839844 4.121094 C 4.828125 4.25 4.808594 4.320312 4.769531 4.34375 C 4.71875 4.375 4.585938 4.386719 4.457031 4.367188 C 4.261719 4.339844 4.074219 4.242188 3.933594 4.101562 C 3.800781 3.960938 3.710938 3.785156 3.683594 3.59375 C 3.679688 3.546875 3.675781 3.519531 3.675781 3.464844 C 3.675781 3.410156 3.679688 3.382812 3.683594 3.335938 C 3.730469 3.011719 3.945312 2.742188 4.25 2.617188 C 4.347656 2.578125 4.457031 2.558594 4.5625 2.554688 C 4.570312 2.554688 4.578125 2.554688 4.582031 2.554688 C 4.582031 2.554688 4.601562 2.554688 4.617188 2.554688 Z M 12.074219 2.554688 C 12.15625 2.558594 12.234375 2.570312 12.308594 2.59375 C 12.613281 2.691406 12.84375 2.9375 12.921875 3.246094 C 12.941406 3.324219 12.949219 3.398438 12.949219 3.484375 C 12.949219 3.527344 12.945312 3.554688 12.941406 3.59375 C 12.902344 3.855469 12.753906 4.089844 12.527344 4.230469 C 12.402344 4.3125 12.257812 4.359375 12.105469 4.375 C 12.070312 4.375 12 4.375 11.972656 4.371094 C 11.902344 4.367188 11.859375 4.351562 11.839844 4.328125 C 11.8125 4.300781 11.796875 4.238281 11.789062 4.144531 C 11.78125 4.066406 11.78125 3.933594 11.785156 3.753906 C 11.792969 3.515625 11.792969 3.414062 11.785156 3.175781 C 11.78125 3.054688 11.78125 2.886719 11.785156 2.839844 C 11.792969 2.714844 11.808594 2.644531 11.835938 2.609375 C 11.847656 2.589844 11.867188 2.578125 11.902344 2.570312 C 11.9375 2.558594 11.96875 2.554688 12.035156 2.554688 C 12.035156 2.554688 12.054688 2.554688 12.074219 2.554688 Z M 3.898438 9.054688 C 3.988281 9.0625 4.066406 9.085938 4.144531 9.125 C 4.21875 9.160156 4.28125 9.207031 4.335938 9.261719 C 4.386719 9.3125 4.410156 9.347656 4.457031 9.429688 C 4.746094 9.917969 5.058594 10.339844 5.402344 10.710938 C 5.5 10.8125 5.621094 10.933594 5.71875 11.027344 C 6.363281 11.617188 7.074219 11.984375 7.800781 12.105469 C 7.9375 12.128906 8.066406 12.140625 8.214844 12.144531 C 8.304688 12.148438 8.457031 12.144531 8.550781 12.140625 C 8.898438 12.113281 9.238281 12.03125 9.578125 11.894531 C 10.402344 11.5625 11.175781 10.90625 11.820312 9.992188 C 11.945312 9.816406 12.0625 9.636719 12.179688 9.433594 C 12.222656 9.359375 12.242188 9.332031 12.277344 9.292969 C 12.296875 9.273438 12.332031 9.234375 12.355469 9.214844 C 12.453125 9.132812 12.570312 9.082031 12.695312 9.0625 C 12.730469 9.054688 12.753906 9.054688 12.789062 9.050781 C 12.960938 9.046875 13.128906 9.109375 13.265625 9.222656 C 13.285156 9.242188 13.328125 9.28125 13.34375 9.304688 C 13.429688 9.40625 13.480469 9.527344 13.5 9.65625 C 13.503906 9.695312 13.507812 9.714844 13.507812 9.753906 C 13.507812 9.867188 13.480469 9.96875 13.433594 10.070312 C 13.410156 10.117188 13.3125 10.277344 13.234375 10.402344 C 13.167969 10.503906 13.082031 10.636719 13.019531 10.726562 C 12.765625 11.09375 12.511719 11.40625 12.214844 11.71875 C 12.171875 11.761719 12.015625 11.921875 11.972656 11.964844 C 11.507812 12.40625 11.03125 12.746094 10.511719 13.011719 C 10.117188 13.210938 9.691406 13.363281 9.28125 13.449219 C 9.230469 13.460938 9.210938 13.464844 9.183594 13.480469 C 9.128906 13.507812 9.082031 13.554688 9.054688 13.609375 C 9.039062 13.636719 9.03125 13.660156 9.027344 13.695312 L 9.023438 13.710938 L 9.023438 14.472656 C 9.023438 15.1875 9.019531 15.238281 9.019531 15.253906 C 9 15.402344 8.949219 15.527344 8.855469 15.636719 C 8.847656 15.644531 8.832031 15.664062 8.816406 15.679688 C 8.695312 15.800781 8.542969 15.871094 8.371094 15.882812 C 8.347656 15.886719 8.292969 15.886719 8.269531 15.882812 C 8.023438 15.863281 7.804688 15.71875 7.695312 15.5 C 7.65625 15.421875 7.632812 15.347656 7.621094 15.253906 C 7.621094 15.234375 7.621094 15.1875 7.617188 14.472656 C 7.617188 13.75 7.617188 13.710938 7.617188 13.695312 C 7.609375 13.664062 7.601562 13.640625 7.589844 13.613281 C 7.558594 13.554688 7.515625 13.507812 7.457031 13.480469 C 7.429688 13.464844 7.410156 13.460938 7.359375 13.449219 C 6.910156 13.355469 6.449219 13.183594 6.015625 12.953125 C 5.3125 12.574219 4.660156 12.027344 4.082031 11.332031 C 3.773438 10.960938 3.496094 10.566406 3.230469 10.109375 C 3.175781 10.011719 3.140625 9.90625 3.132812 9.796875 C 3.125 9.667969 3.15625 9.527344 3.222656 9.414062 C 3.304688 9.261719 3.441406 9.148438 3.605469 9.089844 C 3.703125 9.058594 3.800781 9.046875 3.898438 9.054688 Z M 19.015625 10.652344 C 19.1875 10.664062 19.320312 10.679688 19.472656 10.714844 C 19.871094 10.808594 20.25 10.992188 20.566406 11.257812 C 20.632812 11.3125 20.679688 11.355469 20.742188 11.421875 C 20.792969 11.472656 20.820312 11.503906 20.863281 11.550781 C 21.210938 11.945312 21.429688 12.433594 21.492188 12.949219 C 21.523438 13.179688 21.519531 13.414062 21.488281 13.644531 C 21.421875 14.109375 21.234375 14.550781 20.9375 14.921875 C 20.484375 15.484375 19.824219 15.839844 19.109375 15.898438 C 19.023438 15.90625 18.976562 15.910156 18.882812 15.910156 C 18.773438 15.910156 18.6875 15.90625 18.582031 15.890625 C 18.054688 15.832031 17.554688 15.609375 17.152344 15.257812 C 17.070312 15.1875 16.976562 15.089844 16.90625 15.011719 C 16.707031 14.785156 16.550781 14.527344 16.441406 14.253906 C 16.34375 14.003906 16.28125 13.746094 16.261719 13.476562 C 16.257812 13.410156 16.253906 13.390625 16.253906 13.304688 C 16.253906 13.199219 16.257812 13.132812 16.265625 13.039062 C 16.324219 12.375 16.636719 11.761719 17.136719 11.316406 C 17.429688 11.054688 17.78125 10.859375 18.15625 10.75 C 18.359375 10.691406 18.566406 10.660156 18.78125 10.652344 C 18.820312 10.648438 18.984375 10.648438 19.015625 10.652344 Z M 19.015625 10.652344 "/>
<path style=" stroke:none;fill-rule:nonzero;fill:rgb(0%,0%,0%);fill-opacity:1;" d="M 18.808594 11.511719 C 18.804688 11.515625 18.789062 11.515625 18.777344 11.515625 C 18.585938 11.527344 18.390625 11.570312 18.210938 11.644531 C 18.128906 11.679688 18.027344 11.730469 17.949219 11.78125 C 17.679688 11.949219 17.464844 12.183594 17.316406 12.464844 C 17.210938 12.667969 17.140625 12.898438 17.125 13.128906 C 17.117188 13.226562 17.113281 13.328125 17.121094 13.421875 C 17.15625 13.835938 17.332031 14.21875 17.625 14.515625 C 17.792969 14.6875 17.988281 14.820312 18.207031 14.910156 C 18.511719 15.039062 18.855469 15.078125 19.1875 15.019531 C 19.332031 14.996094 19.472656 14.953125 19.613281 14.886719 C 19.644531 14.875 19.710938 14.839844 19.738281 14.824219 C 19.976562 14.691406 20.179688 14.507812 20.335938 14.285156 C 20.417969 14.167969 20.488281 14.039062 20.539062 13.902344 C 20.664062 13.5625 20.6875 13.1875 20.59375 12.839844 C 20.503906 12.480469 20.296875 12.15625 20.011719 11.917969 C 19.792969 11.738281 19.539062 11.613281 19.265625 11.554688 C 19.179688 11.535156 19.097656 11.523438 18.996094 11.515625 C 18.976562 11.515625 18.828125 11.511719 18.808594 11.511719 Z M 18.953125 12.101562 C 19.253906 12.117188 19.539062 12.25 19.746094 12.472656 C 19.980469 12.722656 20.09375 13.058594 20.058594 13.398438 C 20.03125 13.667969 19.910156 13.921875 19.71875 14.113281 C 19.527344 14.304688 19.273438 14.425781 19.007812 14.453125 C 18.96875 14.457031 18.949219 14.457031 18.90625 14.460938 C 18.644531 14.464844 18.390625 14.382812 18.179688 14.226562 C 18.132812 14.191406 18.097656 14.160156 18.050781 14.113281 C 17.988281 14.050781 17.945312 14 17.898438 13.929688 C 17.757812 13.714844 17.6875 13.460938 17.707031 13.203125 C 17.726562 12.855469 17.902344 12.539062 18.183594 12.332031 C 18.261719 12.269531 18.355469 12.21875 18.449219 12.179688 C 18.613281 12.117188 18.78125 12.089844 18.953125 12.101562 Z M 18.953125 12.101562 "/>
</g>
</svg>
