<svg xmlns="http://www.w3.org/2000/svg" xmlns:xlink="http://www.w3.org/1999/xlink" id="Laag_1" x="0" y="0" version="1.1" viewBox="0 0 1024 1024" xml:space="preserve" style="enable-background:new 0 0 1024 1024"><style type="text/css">.st0{clip-path:url(#SVGID_2_);fill:none;stroke:#000;stroke-miterlimit:10}.st0,.st1,.st2,.st3{stroke-width:23.122}.st1,.st2,.st3,.st4{fill:none;stroke:#000;stroke-miterlimit:10}.st2{clip-path:url(#SVGID_4_)}.st3,.st4{clip-path:url(#SVGID_6_)}.st4{stroke-width:27.747;stroke-linecap:round;stroke-dasharray:0,46.244}</style><g><defs><rect id="SVGID_1_" width="924" height="924" x="50" y="50"/></defs><clipPath id="SVGID_2_"><use xlink:href="#SVGID_1_" style="overflow:visible"/></clipPath><path d="M947.05,496.79c-62.23-48.19-131.57-86.87-205.82-114.6c-3.99-1.51-8.16-2.01-12.25-1.59 c-5.17,0.53-10.14,2.55-14.27,5.94c-0.27,0.2-0.6,0.41-0.86,0.67l-67.72,59.35c-11.31,9.88-12.4,27.01-2.52,38.32l55.54,63.4 c4.92,5.54,7.31,12.91,6.66,20.24l-5.22,59.63" class="st0"/><path d="M489.57,405.67l-3.23,2.83l-43.42-49.54l156.02-136.74c3.31-2.9,7.98-3.67,12.05-1.98l77.58,32.19 c7.91,3.28,9.63,13.72,3.19,19.37l-7.14,6.26c-20.3,17.79-22.33,48.67-4.54,68.97l1.36,1.55l-74.01,64.86 C577.04,378.75,524.27,375.27,489.57,405.67z" class="st0"/></g><line x1="680.94" x2="715.06" y1="347.98" y2="386.92" class="st1"/><line x1="606.91" x2="641.03" y1="412.85" y2="451.79" class="st1"/><g><defs><rect id="SVGID_3_" width="924" height="924" x="50" y="50"/></defs><clipPath id="SVGID_4_"><use xlink:href="#SVGID_3_" style="overflow:visible"/></clipPath><path d="M481.4,400.78l-30.74,26.94c-3.45,3.03-8.71,2.68-11.73-0.77l-20.42-23.3c-3.03-3.45-2.68-8.7,0.77-11.73 l30.74-26.94L481.4,400.78z" class="st2"/></g><line x1="381.47" x2="360.07" y1="456.48" y2="475.23" class="st1"/><line x1="363.05" x2="341.65" y1="515.96" y2="534.71" class="st1"/><line x1="320.09" x2="298.7" y1="466.95" y2="485.7" class="st1"/><line x1="344.62" x2="323.23" y1="575.43" y2="594.18" class="st1"/><line x1="301.67" x2="280.27" y1="526.42" y2="545.17" class="st1"/><line x1="258.71" x2="237.32" y1="477.41" y2="496.16" class="st1"/><g><defs><rect id="SVGID_5_" width="924" height="924" x="50" y="50"/></defs><clipPath id="SVGID_6_"><use xlink:href="#SVGID_5_" style="overflow:visible"/></clipPath><path d="M507.96,395.4L507.96,395.4c25.76,33.34,38.07,60.82,34.11,104.39l28.82,6.27c0,0,18.57-34.43,8.47-71.7" class="st3"/><path d="M203.55,325.4l59.6,70.19l34.34,8.33c7.69,1.85,15.2,4.16,22.6,6.88" class="st3"/><path d="M441.71,508.48l88.85,100.87c12.6,14.28,10.4,36.47-5.38,47.86c-13.76,10-33.06,6.82-44.28-5.95l-60.46-68.61" class="st3"/><path d="M380.51,635.68l95.5,108.4c11.87,13.47,32.41,14.77,45.88,2.9c13.47-11.87,14.77-32.4,2.9-45.87l-117.26-133.1" class="st3"/><path d="M369.97,722.05l78.75,89.39c11.86,13.47,32.41,14.77,45.87,2.9c13.47-11.86,14.77-32.41,2.9-45.87 L386.61,642.61" class="st3"/><path d="M333.14,680.29l93.19,105.78c11.02,12.51,11.95,31.65,0.83,44.07c-13.3,14.78-35.98,14.34-48.7-0.1 L239.51,672.32c-7.21-8.19-19.59-9.24-28.09-2.4c-8.08,6.51-9.98,18.04-4.43,26.79l24.97,39.38c15.14,23.88,7.34,55.55-17.15,69.67 c-8.02,4.63-18.28,1.9-22.95-6.1l-80.94-138.72c-16.87-28.91-19.96-63.85-8.41-95.27l10.74-29.23l-42.86-48.65" class="st3"/><path d="M799.47-1760.04c0,24.05-19.49,43.54-43.54,43.54c-24.05,0-43.54-19.49-43.54-43.54 c0-24.04,19.49-43.54,43.54-43.54C779.97-1803.58,799.47-1784.09,799.47-1760.04z" class="st3"/><path d="M172.09-1911.2c0,18.75-15.2,33.95-33.95,33.95c-18.75,0-33.94-15.2-33.94-33.95 c0-18.75,15.2-33.95,33.94-33.95C156.89-1945.14,172.09-1929.94,172.09-1911.2z" class="st3"/><path d="M331.17-1381.61l25.38-54.45l30.52-17.69c3.01-1.73,5.95-3.53,8.84-5.38" class="st3"/><path d="M295.51-1616.8c-13.82-29.82-37.73-53.78-67.51-67.67l-15.31-7.14l17.86-62.32c7.79-27.18-8.63-55.37-36.11-62 c-9-2.18-18.07,3.33-20.3,12.33l-38.51,155.92c-8.03,32.5-1.13,66.88,18.8,93.77l18.55,25.02l-30.66,65.76" class="st3"/><path d="M579.92-1706.66l-54.18-73.72c-10.05-13.68-9.03-33.24,3.63-44.55c14.52-12.97,36.67-10.39,47.92,4.93 l108.97,148.27c10.97,14.93,19.99,31.21,26.82,48.43c9.46,23.85,14.62,49.19,15.23,74.84l0.83,35.3l35.3,48.03" class="st3"/><path d="M519.59-1678.97l-85.55-116.41c-10.63-14.46-7.52-34.81,6.94-45.44c14.46-10.63,34.81-7.52,45.44,6.94 l105.05,142.94" class="st3"/><path d="M514.13-1686.41l-72.72-98.9v-0.06l-8.09-10.98l-18.5-25.2c-5.49-7.51-13.64-11.91-22.2-12.95 c-0.06-0.06-0.06,0-0.06,0c-7.98-1.04-16.24,0.93-23.24,6.01c-14.45,10.64-17.51,30.98-6.94,45.44l3.82,5.15l16.24,22.14 l27.63,37.57l22.89,31.1" class="st3"/><path d="M465.91-1642.2l-83.48-113.59c-9.87-13.43-28.38-18.43-42.88-10.21c-17.28,9.84-21.68,32.1-10.28,47.61 l124.47,169.37c6.46,8.79,4.86,21.11-3.64,27.95c-8.08,6.5-19.75,5.91-27.12-1.39l-33.15-32.79c-20.1-19.88-52.71-19.01-71.73,1.91 c-6.23,6.86-5.75,17.46,1.07,23.72l118.28,108.64c24.65,22.64,58.13,33.1,91.29,28.52l30.85-4.26l38.4,52.25" class="st3"/><path d="M365.42-1890.84c-3.49-27.34-23.99-49.74-50.99-55.63c-3.63-0.76-7.34-1.25-11.14-1.41 c-36.05-1.55-66.57,26.46-68.12,62.51c-1.48,34.52,24.11,64,57.86,67.79" class="st3"/><path d="M326.61-1982.65c10.06-33.53,41.91-57.28,78.5-55.72c37.92,1.62,68.38,29.89,74.22,65.9v0.06" class="st3"/><path d="M325.8-1939.81c-0.29-1.1-0.52-2.2-0.75-3.35" class="st3"/><path d="M571.92-1887.81c3.89-7.83,6.24-16.62,6.64-25.93c0.2-4.62-0.12-9.15-0.81-13.56 c-4.95-29.73-30.17-52.91-61.47-54.25c-9.57-0.41-18.85,1.29-27.18,4.67l0,0.06c-22.93,9.17-39.49,31.19-40.62,57.48 c-0.06,1.39-0.05,2.79-0.05,4.19" class="st3"/><path d="M614.36-1923.51c33.47,11.33,56.76,43.76,55.15,80.81c-0.75,17.46-6.88,33.35-16.82,46.24" class="st3"/><path d="M-839.53-532.77l181.74-99.91c9.56-5.25,21.14-5.25,30.7,0l181.73,99.91" class="st3"/><path d="M-616.97-915.19v212.79c0,11.62,6.33,22.32,16.51,27.92l179.92,98.91" class="st3"/><path d="M-723.39-561.79l-1.74,175.63c-0.15,13.87-8.95,26.16-22.03,30.78l-165.27,58.33 c-21.56,7.61-44.14-8.46-44.01-31.32l0.98-176.08c0.71-126.94,74.12-242.25,188.85-296.59l0.88-0.42 c21.91-10.38,47.15,5.6,47.15,29.84v79.08" class="st3"/><path d="M-563.3-561.63l1.75,174.74c0.17,13.81,8.91,26.04,21.93,30.67l64.26,22.66" class="st3"/><path d="M-568.09-692.07v-78.58c0-24.13,25.14-40.02,46.95-29.71l0.9,0.45c113.3,53.61,186.07,167.02,187.94,292.22" class="st3"/><path d="M-670.22-915.19v212.79c0,11.62-6.33,22.32-16.51,27.92l-179.92,98.91" class="st3"/><path d="M-222.36-316.03c-21.82,54.68-83.83,81.33-138.52,59.51c-54.68-21.82-81.32-83.83-59.51-138.52 c21.82-54.68,83.83-81.33,138.52-59.51C-227.19-432.73-200.55-370.72-222.36-316.03z" class="st3"/><path d="M-339.02-402.81c-0.87,2.17-3.33,3.23-5.51,2.37c-2.18-0.87-3.23-3.33-2.37-5.51 c0.87-2.17,3.33-3.23,5.51-2.37C-339.22-407.45-338.16-404.98-339.02-402.81z" class="st3"/><path d="M-366.37-334.27c-0.87,2.17-3.33,3.23-5.51,2.37c-2.17-0.87-3.23-3.33-2.37-5.51 c0.87-2.17,3.33-3.23,5.51-2.37C-366.56-338.91-365.5-336.45-366.37-334.27z" class="st3"/><path d="M-270.49-375.46c-0.87,2.17-3.33,3.23-5.51,2.37c-2.18-0.87-3.23-3.33-2.37-5.51 c0.87-2.17,3.33-3.23,5.51-2.37C-270.68-380.11-269.62-377.64-270.49-375.46z" class="st3"/><path d="M2389.81-1849.31h-5.46c-31.68,0-57.37-25.69-57.37-57.37v-25.5c0-31.68,25.69-57.37,57.37-57.37h5.46 c31.68,0,57.37,25.68,57.37,57.37v25.5C2447.18-1875,2421.5-1849.31,2389.81-1849.31z" class="st3"/><path d="M2460.08-1602.78l42.06-12.75c13.97-4.24,23.53-17.12,23.53-31.72v-122.17c0-27.42-16.88-52.01-42.46-61.86 c-61.32-23.62-129.19-23.87-190.68-0.71l-2.37,0.89c-25.82,9.73-42.92,34.44-42.92,62.04v124.04c0,13.51,8.2,25.67,20.72,30.73 l44.87,18.14" class="st3"/><path d="M2899.12-1849.31h-5.46c-31.68,0-57.37-25.69-57.37-57.37v-25.5c0-31.68,25.69-57.37,57.37-57.37h5.46 c31.68,0,57.37,25.68,57.37,57.37v25.5C2956.49-1875,2930.8-1849.31,2899.12-1849.31z" class="st3"/><path d="M2969.38-1602.78l42.06-12.75c13.97-4.24,23.53-17.12,23.53-31.72v-122.17c0-27.42-16.88-52.01-42.46-61.86 c-61.32-23.62-129.19-23.87-190.68-0.71l-2.38,0.89c-25.82,9.73-42.92,34.44-42.92,62.04v124.04c0,13.51,8.2,25.67,20.72,30.73 l44.87,18.14" class="st3"/><path d="M3885.1-1770.85c-6.58-15.25-18.62-36.65-39.51-44.32c-32.44-11.91-57.45,19.82-96.93,22.01 c-23.2,1.28-57.51-7.3-100.87-57.32c0,0-23.59,70.95-96.42,71.64" class="st3"/><path d="M3605.24-1506.11l-14.78-9.67c-34.72-22.72-55.43-61.59-54.92-103.08l0.1-8.42h-21.39 c-15.29,0-27.69-12.4-27.69-27.69v-54.51c0-15.32,12.43-27.75,27.69-27.75h5.2v-134.51c0-49.08,40.12-88.73,89.19-88.15 l12.08-10.35c32.31-27.75,73.47-43.12,116.13-43.41h1.04c99.48,0,180.24,80.64,180.24,180.24v96.19h4.34 c15.29,0,27.69,12.4,27.69,27.69v54.57c0,15.26-12.37,27.69-27.69,27.69h-21.39l-0.04,13.01c-0.12,41.82-21.76,80.64-57.27,102.72 l-2.4,1.49" class="st3"/><path d="M3739.57-1520.97l2.92,38.19l9.55,123.59c0.47,6,7.35,9.13,12.16,5.53c20.19-15.03,44.55-23.01,69.49-23.01 c4.96,0,9.91,0.31,14.87,0.94l1.62,0.21c5.95,0.78,10.38-5.27,7.93-10.69l-54.83-121.51l-59.32-131.53 c-6.57-14.61-27.08-15.08-34.33-0.78l-68.45,134.86l-42.73,84.15c-2.87,5.58,1.93,12.05,8.14,10.91c9.5-1.72,19.04-2.56,28.59-2.56 c26.4,0,52.53,6.47,76.06,19.09l11.48,6.16" class="st3"/><path d="M3850.49-1709.66c0,15.08-16.85,27.31-37.63,27.31c-20.79,0-37.64-12.23-37.64-27.31" class="st3"/><path d="M3674-1709.66c0,15.08-16.85,27.31-37.63,27.31c-20.79,0-37.64-12.23-37.64-27.31" class="st3"/><path d="M-698.17,785.68c-5.81,11.07-9.18,23.59-9.42,36.94c-0.14,7.91,0.84,15.62,2.79,22.9 c9.31,35.2,41.07,61.42,79.29,62.1c38.16,0.68,70.84-24.4,81.39-59.24c2.21-7.2,3.46-14.87,3.61-22.78 c0.24-13.36-2.68-25.99-8.09-37.25" class="st3"/><path d="M-704.8,845.52c-7.3,1.9-15.13,2.49-23.31,1.46c-27.55-3.46-49.75-26.1-52.69-53.71 c-3.37-31.66,17.38-58.87,45.99-65.96" class="st3"/><path d="M-544.11,848.38c5.19,1.55,10.74,2.44,16.4,2.54c33.67,0.6,61.44-26.19,62.04-59.87 c0.5-28.23-18.27-52.37-44.24-59.74" class="st3"/><path d="M-462.37,423.06c-6.58-15.25-18.62-36.65-39.51-44.32c-32.44-11.91-57.46,19.82-96.93,22.01 c-23.2,1.28-57.51-7.3-100.87-57.32c0,0-23.59,70.94-96.42,71.64" class="st3"/><path d="M-742.23,687.8l-14.78-9.67c-34.72-22.71-55.44-61.59-54.92-103.08l0.1-8.42h-21.39 c-15.29,0-27.69-12.4-27.69-27.69v-54.51c0-15.32,12.43-27.75,27.69-27.75h5.2V322.17c0-49.08,40.12-88.73,89.2-88.15l12.08-10.35 c32.31-27.75,73.47-43.12,116.13-43.41h1.04c99.48,0,180.24,80.64,180.24,180.24v96.19h4.34c15.29,0,27.69,12.4,27.69,27.69v54.57 c0,15.26-12.37,27.69-27.69,27.69h-21.39l-0.04,13.01c-0.12,41.82-21.76,80.64-57.27,102.73l-2.4,1.49" class="st3"/><path d="M-496.98,484.25c0,15.08-16.85,27.31-37.64,27.31c-20.78,0-37.63-12.23-37.63-27.31" class="st3"/><path d="M-673.47,484.25c0,15.08-16.85,27.31-37.63,27.31c-20.79,0-37.64-12.23-37.64-27.31" class="st3"/><path d="M2783.51-700.93c-6.58-15.25-18.62-36.65-39.51-44.32c-32.44-11.91-57.46,19.82-96.93,22.01 c-23.2,1.28-57.51-7.3-100.87-57.32c0,0-23.59,70.95-96.42,71.64" class="st3"/><path d="M2495.31-402.64v43.86c0,24.23-15.75,45.65-38.88,52.88l-67.78,21.17" class="st3"/><path d="M2849.5-284.73l-67.78-21.17c-23.13-7.23-38.88-28.64-38.88-52.88v-43.86" class="st3"/><path d="M2553.39-404.56l-66.64-43.11c-33.35-21.57-53.3-58.76-52.81-98.48l0.13-11.23h-21.37 c-15.3,0-27.7-12.4-27.7-27.7v-54.52c0-15.3,12.4-27.7,27.7-27.7h5.19v-134.53c0-49.09,40.09-88.73,89.18-88.18l12.07-10.34 c32.37-27.74,73.52-43.11,116.15-43.38c99.96-0.62,181.31,80.24,181.31,180.19v96.23h4.31c15.3,0,27.7,12.4,27.7,27.7v54.52 c0,15.3-12.4,27.7-27.7,27.7h-21.37l-0.05,15.63c-0.12,40.15-21.06,77.35-55.31,98.29l-65.79,40.22 c-9.22,5.64-19.84,8.58-30.65,8.49l-63.45-0.54C2573.32-395.38,2562.6-398.6,2553.39-404.56z" class="st3"/><path d="M2540.38-342.32c-24.57,40.92-18.16,92.01,12.8,125.68" class="st4"/><path d="M2691.74-342.26c24.19,41.15,17.3,92.18-13.97,125.55" class="st4"/><path d="M2587.12-210.16l-0.1-37.49c-10.98-8.67-18.09-22.08-18.09-37.17c0-15.32,7.28-28.9,18.56-37.57v-46.82" class="st3"/><path d="M2643.84-369.21v46.13c11.85,8.61,19.54,22.54,19.54,38.27c0,15.38-7.34,29.02-18.67,37.63v36.94" class="st3"/><path d="M2741.48-648.62c0,15.08-16.85,27.31-37.63,27.31c-20.79,0-37.64-12.23-37.64-27.31" class="st3"/><path d="M2564.99-648.62c0,15.08-16.85,27.31-37.63,27.31c-20.79,0-37.64-12.23-37.64-27.31" class="st3"/><path d="M1661.22,732.38l54.07,89.24c10.75,22.81,6.03,49.92-11.8,67.75c-23.34,23.34-61.19,23.34-84.53,0 c-17.83-17.83-22.55-44.94-11.8-67.75L1661.22,732.38z" class="st3"/><path d="M1461.57,719.77l39.05,64.45c7.77,16.48,4.36,36.05-8.52,48.93c-16.86,16.86-44.2,16.86-61.05,0 c-12.88-12.88-16.29-32.46-8.52-48.93L1461.57,719.77z" class="st3"/><path d="M1442.35,651.26l-23.13-4c-32.13-5.55-55.6-33.42-55.6-66.03c0-19.25,9.19-37.34,24.73-48.69l0.12-0.09 c45.64-33.34,79.18-80.64,95.55-134.73l3.79-12.52c8.84-29.22,12.47-59.78,10.72-90.26l-0.67-11.6 c-2.18-38.07,28.1-70.15,66.24-70.15h1.17c38.23,0,68.55,32.21,66.23,70.37l-0.57,9.47c-1.86,30.68,1.72,61.44,10.6,90.86 l4.11,13.65c16.34,54.2,49.92,101.6,95.63,134.99l0,0c15.54,11.35,24.73,29.44,24.73,48.69v1.99c0,31.72-22.23,59.09-53.28,65.59 l-17.25,3.61" class="st3"/><path d="M1689.43,602.46l-22.14,5.03c-18.29,4.15-32.73,18.17-37.41,36.34c-5.7,22.12-25.65,37.58-48.49,37.58h-33.47 c-22.91,0-42.89-15.55-48.54-37.75l-0.02-0.06c-4.71-18.55-19.59-32.8-38.34-36.7l-21.3-4.43" class="st3"/><path d="M2411.25,520.78c-1.12,23.42,1.92,46.57,8.51,68.5c5.25,17.3,12.73,33.93,22.34,49.2 c12.24,19.84,27.96,37.63,46.65,52.34" class="st3"/><path d="M2609.9,735.06c23.78,0.74,47.23-2.71,69.42-10.02c17.15-5.45,33.62-13.29,48.85-23.21 c19.21-12.54,36.45-28.39,50.69-47.18" class="st3"/><path d="M2742.91,369.22c17.78,13.95,32.92,30.7,44.95,49.28c9.58,14.74,17.24,30.69,22.77,47.43 c7.09,21.37,10.7,43.99,10.4,66.97" class="st3"/><path d="M2457.25,400.5c14.52-17.73,31.82-32.74,50.97-44.49c14.86-9.32,30.98-16.62,47.79-21.74 c21.16-6.5,43.46-9.64,66.07-8.95" class="st3"/><path d="M2646.63,362.3c13.48-28.34,18.08-60.26,12.89-91.47l-2.98-18.32c-0.24-1.25-0.3-2.57-0.3-3.82 c0-10.32,6.92-19.51,17.18-22.2c35.02-9.13,72.08,4.24,93.26,33.59l0.24,0.36c7.04,9.79,5.37,23.27-3.82,31.03l-12.77,10.8 c-24.7,20.82-42.06,48.75-50,79.83" class="st3"/><path d="M2533.32,673.51c-8.05,30.49-25.36,57.94-49.7,78.52l-12.77,10.74c-9.19,7.76-10.86,21.3-3.82,31.02l0.3,0.42 c21.18,29.35,58.24,42.66,93.26,33.59c10.26-2.68,17.18-11.93,17.18-22.2c0-1.25-0.06-2.57-0.3-3.82l-3.04-18.38 c-5.07-30.91-0.66-62.47,12.53-90.58" class="st3"/><path d="M2451.04,496.96c-28.1-13.07-59.55-17.48-90.33-12.35l-18.38,2.99c-1.25,0.24-2.57,0.3-3.82,0.3 c-10.26,0-19.51-6.92-22.2-17.18c-9.07-35.02,4.24-72.07,33.59-93.26l0.42-0.24c9.72-7.04,23.27-5.37,31.03,3.82l10.74,12.77 c20.58,24.34,48.09,41.65,78.64,49.64" class="st3"/><path d="M2781.59,556.69c28.4,13.55,60.38,18.14,91.7,13.01l18.32-3.04c1.25-0.24,2.56-0.3,3.82-0.3 c10.32,0,19.51,6.92,22.2,17.18c9.13,35.02-4.24,72.08-33.59,93.26l-0.36,0.3c-9.79,7.04-23.27,5.37-31.03-3.82l-10.8-12.77 c-20.82-24.7-48.69-42.06-79.71-50" class="st3"/><path d="M2508.14,356.06c-9.9-16.7-23.23-31.32-39.23-42.84l-13.92-9.95c-7.88-5.61-10.79-15.69-7.6-24.45 c0.43-1.18,1.01-2.37,1.64-3.48c16.88-28.7,49.63-44.08,82.48-38.79l0.42,0.08c10.97,1.78,18.62,11.66,17.72,22.66l-1.28,15.3 c-1.72,20.38,0.96,40.67,7.74,59.64" class="st3"/><path d="M2728.09,701.88c9.64,15.2,22.16,28.56,37.03,39.15l13.91,9.94c7.79,5.65,10.72,15.67,7.56,24.36 c-0.45,1.24-0.94,2.39-1.66,3.54c-16.82,28.73-49.59,44.17-82.42,38.81l-0.5-0.04c-10.88-1.81-18.62-11.66-17.64-22.69l1.28-15.29 c1.58-18.59-0.52-37.18-6.14-54.69" class="st3"/><path d="M2419.81,589.37c-17.73,5.83-36.51,8.02-55.38,6.41l-15.27-1.34c-11-0.89-20.91,6.82-22.66,17.72l-0.1,0.48 c-5.3,32.85,10.08,65.6,38.81,82.41c1.15,0.72,2.3,1.21,3.54,1.66c8.75,3.19,18.78,0.25,24.35-7.56l9.95-13.91 c10.63-14.78,23.84-27.28,39.01-36.85" class="st3"/><path d="M2787.83,418.42c16.85-9.92,31.56-23.29,43.06-39.45l9.92-13.85c5.67-7.85,15.75-10.77,24.51-7.58 c1.17,0.43,2.31,0.99,3.41,1.61c28.7,16.88,44.15,49.66,38.79,82.48l-0.01,0.44c-1.84,10.95-11.66,18.62-22.72,17.7l-15.3-1.28 c-20.1-1.69-40.14,0.93-58.88,7.5" class="st3"/><path d="M2610.94,454.65c-7.38,20.27-29.79,30.72-50.05,23.34c-20.27-7.38-30.72-29.79-23.34-50.05 c7.37-20.27,29.79-30.72,50.05-23.34C2607.87,411.98,2618.32,434.39,2610.94,454.65z" class="st3"/><path d="M2741.61,502.21c-7.38,20.27-29.79,30.72-50.05,23.34c-20.27-7.38-30.72-29.79-23.34-50.05 c7.38-20.27,29.79-30.72,50.05-23.34C2738.53,459.54,2748.98,481.94,2741.61,502.21z" class="st3"/><path d="M2565.76,578.79c-7.38,20.27-29.79,30.72-50.05,23.34c-20.27-7.38-30.72-29.79-23.34-50.05 c7.38-20.27,29.79-30.72,50.05-23.34C2562.69,536.11,2573.14,558.52,2565.76,578.79z" class="st3"/><path d="M2696.43,626.34c-7.38,20.27-29.79,30.72-50.05,23.34c-20.27-7.38-30.72-29.79-23.34-50.06 c7.37-20.27,29.79-30.72,50.05-23.34C2693.35,583.67,2703.8,606.08,2696.43,626.34z" class="st3"/><path d="M-665.66-1950.61h-163.01v504.18c0,45.02,36.49,81.51,81.51,81.51c45.01,0,81.51-36.49,81.51-81.51V-1950.61z" class="st3"/><path d="M-552.27-1646.01c11.1,11.1,11.1,29.1,0,40.19c-11.1,11.1-29.1,11.1-40.19,0" class="st3"/><path d="M-426.16-1605.82c-16.78,16.78-43.99,16.78-60.77,0c-16.78-16.78-16.78-43.99,0-60.77" class="st3"/><path d="M-466.36-1502.54c-11.1-11.1-11.1-29.09,0-40.19c11.1-11.1,29.09-11.1,40.19,0" class="st3"/><path d="M-592.47-1542.73c16.78-16.78,43.99-16.78,60.77,0c16.78,16.78,16.78,43.99,0,60.77" class="st3"/><path d="M-623.72-1638.56c11.18-19.86,27.08-35.96,45.69-47.36c-6.37-10.6-14.83-19.91-25.05-27.24l-8.95-6.4 c-5.06-3.6-6.94-10.09-4.89-15.72c0.27-0.76,0.65-1.52,1.05-2.23c10.86-18.46,31.92-28.34,53.04-24.94l0.27,0.05 c7.06,1.14,11.97,7.5,11.4,14.57l-0.82,9.84c-1.1,12.97,0.57,25.9,4.87,37.98c20.63-6.1,43.79-7.37,65.78-2.7 c4.53-15.19,5.58-31.27,2.97-47.11l-2.02-12.49c-0.48-2.74-0.16-5.44,0.74-7.92c1.7-4.66,5.59-8.43,10.74-9.79 c23.8-6.18,49,2.9,63.39,22.83l0.18,0.3c4.83,6.61,3.67,15.8-2.58,21.09l-8.66,7.31c-12.61,10.59-22.44,24-28.79,38.96 c19.71,10.69,35.85,25.94,47.54,43.9c10.78-6.35,20.14-14.94,27.5-25.24l6.38-8.91c3.64-5.05,10.13-6.92,15.76-4.87 c0.76,0.27,1.48,0.63,2.19,1.03c18.46,10.86,28.39,31.93,24.94,53.04l-0.01,0.28c-1.18,7.04-7.5,11.97-14.61,11.38l-9.83-0.82 c-12.83-1.1-25.57,0.59-37.55,4.74c6.94,20.79,8.81,43.36,4.62,65.86c14.68,4.11,30.2,5,45.43,2.5l12.46-2.08 c2.74-0.48,5.43-0.16,7.91,0.74c4.66,1.7,8.43,5.59,9.79,10.75c6.18,23.8-2.89,49-22.83,63.39l-0.27,0.23 c-6.64,4.77-15.83,3.61-21.12-2.64l-7.31-8.66c-10.08-11.9-22.58-21.35-36.54-27.71c-10.53,20.57-26.71,37.95-44.99,50.14 c6.12,9.46,13.98,17.79,23.28,24.41l8.95,6.4c5.01,3.63,6.9,10.07,4.86,15.66c-0.29,0.8-0.61,1.54-1.07,2.28 c-10.81,18.47-31.89,28.41-52.99,24.96l-0.33-0.02c-7-1.17-11.97-7.5-11.34-14.59l0.82-9.83c0.98-11.58-0.26-23.21-3.65-34.16 c-21.25,7.01-44.31,8.66-67.22,4.03c-3.34,13.63-3.94,27.97-1.6,42.05l2.08,12.46c0.43,2.73,0.16,5.43-0.72,7.87 c-1.71,4.7-5.65,8.46-10.8,9.82c-23.8,6.18-48.99-2.89-63.39-22.83l-0.19-0.26c-4.81-6.65-3.66-15.84,2.59-21.09l8.67-7.36 c11.19-9.44,20.21-21,26.53-33.93c-20.81-11.19-37.65-27.4-49.55-46.58" class="st3"/><path d="M-862.5,1579.47c-1.05,21.88,1.79,43.52,7.95,64.02c4.9,16.17,11.9,31.71,20.88,45.98 c11.44,18.54,26.13,35.16,43.6,48.92" class="st3"/><path d="M-552.55,1437.83c16.62,13.03,30.77,28.69,42.01,46.06c8.96,13.77,16.11,28.68,21.28,44.32 c6.63,19.98,9.99,41.11,9.72,62.59" class="st3"/><path d="M-819.51,1467.06c13.57-16.57,29.73-30.59,47.63-41.58c13.89-8.7,28.95-15.53,44.67-20.32 c19.77-6.08,40.61-9,61.75-8.36" class="st3"/><path d="M-642.53,1431.36c12.6-26.49,16.89-56.32,12.04-85.48l-2.79-17.12c-0.22-1.17-0.28-2.4-0.28-3.57 c0-9.65,6.47-18.23,16.06-20.74c32.73-8.53,67.36,3.96,87.15,31.39l0.22,0.33c6.58,9.15,5.02,21.75-3.57,28.99l-11.93,10.09 c-23.09,19.46-39.31,45.56-46.73,74.61" class="st3"/><path d="M-748.42,1722.21c-7.53,28.49-23.7,54.14-46.45,73.38l-11.94,10.04c-8.59,7.25-10.15,19.91-3.57,28.99 l0.28,0.39c19.8,27.43,54.42,39.87,87.16,31.39c9.59-2.51,16.06-11.15,16.06-20.74c0-1.17-0.05-2.4-0.28-3.57l-2.84-17.18 c-4.74-28.88-0.61-58.38,11.71-84.65" class="st3"/><path d="M-825.31,1557.21c-26.26-12.21-55.65-16.34-84.42-11.54l-17.17,2.79c-1.17,0.22-2.4,0.28-3.57,0.28 c-9.59,0-18.24-6.47-20.74-16.06c-8.48-32.73,3.96-67.36,31.39-87.16l0.39-0.22c9.09-6.58,21.75-5.02,29,3.57l10.04,11.93 c19.24,22.75,44.94,38.92,73.49,46.39" class="st3"/><path d="M-771.95,1425.53c-9.26-15.61-21.71-29.27-36.67-40.03l-13-9.3c-7.36-5.24-10.08-14.66-7.11-22.85 c0.4-1.1,0.94-2.21,1.53-3.24c15.78-26.83,46.39-41.2,77.08-36.25l0.39,0.07c10.25,1.66,17.4,10.9,16.57,21.17l-1.19,14.3 c-1.61,19.05,0.89,38.01,7.23,55.74" class="st3"/><path d="M-854.51,1643.57c-16.57,5.44-34.12,7.49-51.75,5.98l-14.27-1.25c-10.28-0.83-19.54,6.38-21.17,16.56 l-0.09,0.45c-4.95,30.7,9.42,61.31,36.27,77.03c1.07,0.67,2.15,1.13,3.31,1.55c8.18,2.98,17.55,0.23,22.76-7.07l9.3-13 c9.94-13.81,22.28-25.49,36.46-34.44" class="st3"/><path d="M-510.56,1483.81c15.75-9.27,29.49-21.76,40.25-36.86l9.27-12.94c5.3-7.34,14.72-10.06,22.9-7.08 c1.1,0.4,2.15,0.93,3.19,1.51c26.82,15.78,41.26,46.41,36.25,77.09l-0.01,0.41c-1.72,10.23-10.9,17.4-21.23,16.54l-14.29-1.19 c-18.78-1.58-37.52,0.87-55.03,7.01" class="st3"/><path d="M-675.88,1517.67c-6.89,18.94-27.84,28.71-46.78,21.81c-18.94-6.9-28.71-27.84-21.82-46.78 c6.9-18.94,27.84-28.71,46.78-21.81C-678.75,1477.78-668.98,1498.73-675.88,1517.67z" class="st3"/><path d="M-553.77,1562.11c-6.89,18.94-27.84,28.71-46.78,21.81c-18.94-6.9-28.71-27.84-21.82-46.78 c6.9-18.94,27.84-28.71,46.78-21.81C-556.64,1522.23-546.87,1543.18-553.77,1562.11z" class="st3"/><path d="M-718.1,1633.68c-6.89,18.94-27.84,28.71-46.78,21.82c-18.94-6.9-28.71-27.84-21.81-46.78 c6.9-18.94,27.84-28.71,46.78-21.81C-720.97,1593.79-711.21,1614.74-718.1,1633.68z" class="st3"/><path d="M-595.99,1678.12c-6.89,18.94-27.84,28.71-46.78,21.81c-18.94-6.9-28.71-27.84-21.81-46.78 c6.9-18.94,27.84-28.71,46.78-21.81C-598.86,1638.24-589.1,1659.18-595.99,1678.12z" class="st3"/><path d="M-517.43,1638.44l-161.36,256.49c-11.68,18.56,1.66,42.73,23.6,42.73h322.71c21.94,0,35.28-24.16,23.6-42.73 l-161.36-256.49C-481.16,1621.05-506.49,1621.05-517.43,1638.44z" class="st3"/><path d="M1548.04-609.05h-4.23c-24.5,0-44.36-19.86-44.36-44.36v-19.72c0-24.5,19.86-44.36,44.36-44.36h4.23 c24.5,0,44.36,19.86,44.36,44.36v19.72C1592.4-628.91,1572.54-609.05,1548.04-609.05z" class="st3"/><path d="M1602.38-418.4l32.52-9.86c10.81-3.28,18.2-13.24,18.2-24.53v-94.47c0-21.2-13.05-40.22-32.84-47.84 c-47.42-18.27-99.9-18.46-147.45-0.55l-1.84,0.69c-19.97,7.52-33.19,26.63-33.19,47.97v95.92c0,10.45,6.34,19.85,16.03,23.76 l34.69,14.03" class="st3"/><path d="M1787.62-641.43v385.2c0,15.66-12.7,28.35-28.36,28.35H1337.2c-15.66,0-28.35-12.69-28.35-28.35v-385.2" class="st3"/><path d="M3674.62-500.71c12.14-12.2,31.87-12.24,44.07-0.1c12.2,12.14,12.24,31.87,0.1,44.07" class="st3"/><path d="M3596.4-578.93c12.14-12.2,31.87-12.24,44.07-0.1c12.2,12.14,12.24,31.87,0.1,44.07" class="st3"/><path d="M3754.94-575.25c12.14-12.2,31.87-12.24,44.07-0.1c12.2,12.14,12.24,31.87,0.1,44.07" class="st3"/><path d="M3676.71-653.47c12.14-12.2,31.87-12.24,44.07-0.1c12.2,12.14,12.24,31.87,0.1,44.07" class="st3"/><path d="M3581.69-632.81c-15.12-7.58-28.5-18.41-39.11-31.87l-7.73-9.85c-5.55-7.12-15.67-8.66-23.14-3.69l-0.29,0.2 c-22.54,15.14-33.51,42.51-27.61,68.95c1.32,5.73,5.28,10.21,10.4,12.28c2.66,1.06,5.65,1.48,8.64,1.11l13.82-1.83 c16.32-2.09,32.72-0.7,48.21,3.93c-6.62,24.83-6.32,50.33-0.2,74.03c-0.2,0.05-0.39,0.15-0.59,0.15 c-12.19,3.38-24.99,4.32-37.76,2.75l-10.8-1.29c-7.76-0.92-14.98,4.29-16.49,12l-0.09,0.34c-4.53,23.09,5.57,46.71,25.49,59.3 c0.79,0.53,1.58,0.92,2.47,1.26c6.1,2.45,13.3,0.63,17.43-4.75l7.38-9.62c7.57-9.72,27.82-24.21,27.82-24.21 c12.39,21.58,30.29,40.08,52.77,53.2c-7.45,13.99-17.8,26.38-30.47,36.35l-9.85,7.78c-7.07,5.55-8.71,15.62-3.64,23.13l0.2,0.29 c15.09,22.49,42.5,33.46,68.95,27.56c5.73-1.32,10.21-5.28,12.28-10.4c1.06-2.66,1.48-5.65,1.06-8.64l-1.78-13.82 c-2.08-15.58-0.83-31.34,3.36-46.24c25.07,5.98,50.52,5.05,74.16-1.86c3.33,12.19,4.27,25.03,2.75,37.75l-1.29,10.81 c-0.97,7.81,4.24,14.93,11.91,16.49l0.39,0.05c23.09,4.62,46.71-5.52,59.3-25.44c0.53-0.79,0.92-1.63,1.26-2.46 c2.46-6.1,0.63-13.25-4.75-17.48l-9.63-7.38c-9.97-7.62-18.28-17.12-24.7-27.77" class="st3"/><path d="M3645.34-694.77c-6.57-11.92-15.53-22.49-26.54-30.99l-9.62-7.38c-5.43-4.12-7.25-11.37-4.75-17.48 c0.33-0.84,0.77-1.67,1.21-2.41c12.69-19.92,36.26-30.02,59.4-25.44l0.29,0.05c7.71,1.51,12.87,8.73,12,16.49l-1.29,10.8 c-1.7,14.24-0.36,28.55,3.91,42.01c22.96-5.92,48.51-6.47,72.55-0.48c5.56-16.58,7.33-34.2,5.08-51.74l-1.78-13.87 c-0.42-3.04,0.05-5.98,1.16-8.69c2.02-5.07,6.45-9.08,12.19-10.35c26.44-5.9,53.85,5.07,68.95,27.56l0.2,0.34 c5.06,7.46,3.43,17.53-3.64,23.13l-9.85,7.73c-14.28,11.15-25.6,25.56-33.18,41.82c21.29,12.48,38.5,29.91,50.68,50.13 c12.12-6.57,22.74-15.68,31.23-26.74l7.38-9.58c4.23-5.43,11.42-7.2,17.57-4.75c0.79,0.34,1.58,0.77,2.36,1.21 c19.92,12.7,30.02,36.26,25.44,59.4l-0.05,0.29c-1.56,7.72-8.68,12.92-16.49,12l-10.8-1.29c-14.09-1.7-28.21-0.36-41.57,3.76 c6.85,23.2,8.08,48.11,2.59,72.73c16.03,5.07,33.07,6.66,49.93,4.51l13.82-1.83c3.04-0.42,5.98,0,8.69,1.11 c5.07,2.07,9.08,6.5,10.35,12.23c5.9,26.44-5.02,53.85-27.56,68.95l-0.29,0.25c-7.52,4.96-17.58,3.33-23.19-3.74l-7.68-9.8 c-10.65-13.51-24.08-24.39-39.2-31.92" class="st3"/><circle cx="3711.94" cy="-563.99" r="332.38" class="st3"/><path d="M527.56-488.58c11.22,11.22,11.22,29.42,0,40.64c-11.22,11.22-29.41,11.22-40.64,0" class="st3"/><path d="M660.91-442.1c-16.97,16.97-44.48,16.97-61.44,0c-16.97-16.97-16.97-44.48,0-61.44" class="st3"/><path d="M620.27-337.68c-11.22-11.22-11.22-29.41,0-40.64c11.22-11.22,29.41-11.22,40.63,0" class="st3"/><path d="M492.77-378.31c16.97-16.97,44.47-16.97,61.44,0c16.97,16.97,16.97,44.48,0,61.45" class="st3"/><path d="M603.06-538.73c4.58-15.36,5.64-31.62,3-47.63l-2.04-12.62c-0.48-2.77-0.16-5.49,0.75-8 c1.72-4.71,5.65-8.52,10.86-9.9c24.07-6.25,49.54,2.93,64.09,23.08l0.18,0.3c4.88,6.68,3.71,15.97-2.61,21.32l-8.75,7.39 c-12.74,10.71-22.68,24.26-29.1,39.39c19.92,10.81,36.24,26.22,48.06,44.38c10.9-6.42,20.36-15.1,27.81-25.52l6.45-9 c3.68-5.1,10.24-7,15.93-4.93c0.77,0.28,1.5,0.64,2.22,1.05c18.66,10.98,28.7,32.28,25.22,53.62l-0.01,0.29 c-1.2,7.11-7.58,12.1-14.77,11.51l-9.95-0.83c-12.97-1.11-25.85,0.6-37.96,4.8c7.02,21.03,8.91,43.84,4.67,66.59 c14.84,4.15,30.53,5.05,45.93,2.53l12.6-2.1c2.77-0.48,5.49-0.16,8,0.75c4.71,1.72,8.52,5.65,9.9,10.86 c6.25,24.06-2.92,49.53-23.08,64.08l-0.28,0.24c-6.71,4.82-16,3.65-21.35-2.67l-7.4-8.75c-10.2-12.03-22.83-21.59-36.94-28.02 c-10.65,20.8-27,38.37-45.48,50.69c6.19,9.56,14.14,17.99,23.53,24.68l9.04,6.47c5.06,3.67,6.97,10.19,4.91,15.83 c-0.29,0.81-0.61,1.56-1.08,2.3c-10.93,18.68-32.24,28.72-53.58,25.23l-0.33-0.02c-7.07-1.18-12.1-7.58-11.46-14.76l0.83-9.94 c0.99-11.71-0.26-23.47-3.69-34.53c-21.49,7.09-44.8,8.76-67.96,4.08c-3.38,13.78-3.99,28.27-1.62,42.51l2.1,12.6 c0.44,2.76,0.16,5.5-0.73,7.96c-1.73,4.76-5.71,8.55-10.92,9.93c-24.06,6.25-49.54-2.93-64.09-23.08l-0.19-0.26 c-4.86-6.73-3.7-16.02,2.61-21.32l8.77-7.44c11.31-9.54,20.43-21.23,26.82-34.3c-21.04-11.31-38.06-27.71-50.1-47.1l-0.61-0.03 c-9.33,6.08-17.48,13.94-24.1,23.12l-6.47,9.05c-3.63,5.08-10.14,6.99-15.83,4.92c-0.81-0.29-1.56-0.61-2.3-1.08 c-18.67-10.93-28.68-32.22-25.23-53.58l0.07-0.31c1.14-7.09,7.58-12.11,14.73-11.52l9.93,0.87c11.75,1.01,23.47-0.26,34.55-3.73 c0.16-0.04,0.38-0.1,0.55-0.18c-6.4-21.53-7.47-44.9-2.19-67.85c-14.35-3.78-29.43-4.51-44.31-2.08l-12.6,2.1 c-2.76,0.44-5.49,0.17-7.96-0.73c-4.76-1.73-8.55-5.71-9.92-10.92c-6.25-24.06,2.91-49.49,23.08-64.08l0.26-0.19 c6.71-4.82,16.01-3.7,21.36,2.63l7.38,8.8c10.15,12.02,22.76,21.51,36.85,27.99c11.3-20.08,27.38-36.36,46.19-47.88 c-6.44-10.72-14.99-20.13-25.33-27.55l-9.04-6.47c-5.12-3.65-7.02-10.2-4.94-15.89c0.28-0.76,0.66-1.54,1.06-2.26 c10.98-18.66,32.27-28.66,53.62-25.21l0.27,0.05c7.13,1.15,12.11,7.58,11.52,14.73l-0.83,9.94c-1.11,13.11,0.57,26.18,4.93,38.4 C557.41-542.17,580.82-543.46,603.06-538.73z" class="st3"/><path d="M625.46-660.56c-0.81-7.17-1.91-14.34-3.32-21.5c-28.09-143.08-166.88-236.28-309.91-208.2 c-143.09,28.09-236.29,166.82-208.2,309.91C127.02-463.22,224.2-379.57,337.2-368.49" class="st3"/><path d="M3928.42,722.32l-13.68,4.84c-128.09,45.32-268.05,44.08-395.31-3.51l-2.46-0.92 c-22.59-8.45-37.56-30.03-37.56-54.15V469.32c0-24.38,15.29-46.14,38.23-54.39l10.28-3.7c127.78-45.98,267.66-45.51,395.13,1.33 l6.02,2.21c22.75,8.36,37.87,30.02,37.87,54.26v198.8C3966.94,692.32,3951.51,714.15,3928.42,722.32z" class="st3"/><path d="M3479.41,563.51v-75.45l48.51-17.46c127.78-45.98,267.66-45.51,395.13,1.33l43.89,16.12v75.45" class="st3"/><path d="M3966.94,576.86v75.45l-48.51,17.46c-127.78,45.98-267.67,45.51-395.13-1.33l-43.89-16.12v-75.45" class="st3"/><path d="M3989.46,670.33l-22.39,18.99V400.36c0-28.43,22.82-51.59,51.25-52.01c29.03-0.43,52.79,22.98,52.79,52.01V494 C4071.11,561.92,4041.25,626.4,3989.46,670.33z" class="st3"/><path d="M3456.89,670.33l22.39,18.99V400.36c0-28.43-22.82-51.59-51.25-52.01c-29.03-0.43-52.79,22.98-52.79,52.01V494 C3375.25,561.92,3405.1,626.4,3456.89,670.33z" class="st3"/><path d="M2513.62,1675.93l45.34-72.18c8.41-13.39,6.14-31.5-6.4-41.15c-14.38-11.07-34.78-7.16-44.2,7.83l-91.2,145.18 c-9.18,14.62-16.46,30.36-21.64,46.82c-7.18,22.81-10.25,46.7-9.07,70.58l1.62,32.86l-29.54,47.03" class="st3"/><path d="M2571.56,1697.56l71.6-113.98c8.9-14.16,4.63-32.86-9.54-41.75c-14.16-8.9-32.85-4.63-41.75,9.53 l-87.91,139.95" class="st3"/><path d="M2651.51,1684.15l59.04-93.99c8.9-14.16,4.63-32.85-9.54-41.75c-14.16-8.9-32.85-4.63-41.75,9.53 l-83.13,132.34" class="st3"/><path d="M2623.93,1728.09l69.87-111.22c8.26-13.15,25.12-19.05,39.15-12.39c16.73,7.97,22.33,28.35,12.79,43.54 l-104.17,165.83c-5.41,8.61-3.08,19.95,5.28,25.73c7.95,5.5,18.75,4.15,25.11-3.13l28.58-32.72c17.33-19.84,47.69-21.25,66.78-3.09 c6.26,5.95,6.53,15.83,0.61,22.12l-102.54,108.98c-21.37,22.71-51.77,34.71-82.89,32.7l-28.95-1.87l-32.14,51.16" class="st3"/><path d="M2417.69,1644.52c-5.03-42.43-21.39-82.95-47.51-117.22l-31.44-41.22l49.82-36.88 c41.51-30.69,91.79-47.17,143.47-46.94l70.46,0.23c52.37,0.17,103.3-16.71,145.09-48.15l45.55-34.28l34.1,45.55 c31.73,42.37,48.55,94.11,47.86,147.06l-0.92,63.47c-0.69,51.62,15.26,102.02,45.55,143.82l39.42,54.51l-61.16,43.3 c-31.21,22.14-67.11,36.42-104.74,41.73" class="st3"/><path d="M1616.27-1476.18c-10.47,15.29-35.63,42.91-49.63,55.05c-19.38,16.81-41.6,30.05-65.61,39.1l-33.04,12.45 l-33.93,49.57" class="st3"/><path d="M1449.09-1464.7c3.53-110.65-80.64-168.93-80.64-168.93l27.8-58.57c12.12-25.54,0.53-56.04-25.5-67.07 c-8.53-3.61-18.38,0.34-22.04,8.85l-51.15,118.93c-21.02,48.87-19.13,104.57,5.16,151.9l-40.98,59.88" class="st3"/><path d="M1480.9-1473.61h173.47c31.92,0,57.81-25.88,57.81-57.81v-38.84" class="st3"/><path d="M1712.18-1942.42v-28.32c0-31.92-25.88-57.8-57.81-57.8h-219.66c-31.92,0-57.81,25.88-57.81,57.8v183.76" class="st3"/><path d="M1637.03-2028.54l-10.76,36.98c-3.59,12.34-14.9,20.83-27.75,20.83h-107.96c-12.85,0-24.16-8.49-27.75-20.83 l-10.76-36.98" class="st3"/><path d="M1724.56-1841.43L1724.56-1841.43c-12.79-5.1-22.99-15.13-28.3-27.82l-0.45-1.06 c-2.72-6.49-1.24-13.99,3.74-18.97l21.2-21.2c12.11-12.11,31.74-12.11,43.86,0c12.11,12.11,12.11,31.75,0,43.86l-21.35,21.35 C1738.35-1840.38,1731-1838.87,1724.56-1841.43z" class="st3"/><path d="M1724.56-1756.28L1724.56-1756.28c-12.79-5.1-22.99-15.13-28.3-27.82l-0.45-1.06 c-2.72-6.49-1.24-13.99,3.74-18.97l21.2-21.2c12.11-12.11,31.74-12.11,43.86,0c12.11,12.11,12.11,31.75,0,43.86l-21.35,21.35 C1738.35-1755.22,1731-1753.71,1724.56-1756.28z" class="st3"/><path d="M1724.56-1676.44L1724.56-1676.44c-12.79-5.1-22.99-15.13-28.3-27.82l-0.45-1.06 c-2.72-6.49-1.24-13.99,3.74-18.97l21.2-21.2c12.11-12.11,31.74-12.11,43.86,0c12.11,12.11,12.11,31.75,0,43.86l-21.35,21.35 C1738.35-1675.39,1731-1673.87,1724.56-1676.44z" class="st3"/><path d="M1724.56-1596.61L1724.56-1596.61c-12.79-5.1-22.99-15.13-28.3-27.82l-0.45-1.06 c-2.72-6.49-1.24-13.99,3.74-18.97l21.2-21.2c12.11-12.11,31.74-12.11,43.86,0c12.11,12.11,12.11,31.75,0,43.86l-21.35,21.35 C1738.35-1595.55,1731-1594.04,1724.56-1596.61z" class="st3"/></g></svg>