<svg xmlns="http://www.w3.org/2000/svg" xmlns:xlink="http://www.w3.org/1999/xlink" id="Laag_1" x="0" y="0" version="1.1" viewBox="0 0 1024 1024" xml:space="preserve" style="enable-background:new 0 0 1024 1024"><style type="text/css">.st0{clip-path:url(#SVGID_2_);stroke-linejoin:round}.st0,.st1,.st2{fill:none;stroke:#14171c;stroke-width:46.753;stroke-miterlimit:10}.st1{clip-path:url(#SVGID_2_)}.st2{stroke-linejoin:round}.st3{fill:#fff}.st4{clip-path:url(#SVGID_4_);stroke:#010202}.st4,.st5,.st6{fill:none;stroke-width:46.753;stroke-linejoin:round;stroke-miterlimit:10}.st5{clip-path:url(#SVGID_6_);stroke:#010202}.st6{stroke:#14171c}.st6,.st7,.st8{clip-path:url(#SVGID_6_)}.st7{fill:none;stroke:#14171c;stroke-width:46.753;stroke-miterlimit:10}.st8{fill:#14171c}</style><g><defs><rect id="SVGID_1_" width="1024" height="924" y="50"/></defs><clipPath id="SVGID_2_"><use xlink:href="#SVGID_1_" style="overflow:visible"/></clipPath><path d="M-11389.65,138.31c51.64,0,93.51,41.87,93.51,93.51v561.04c0,51.64-41.87,93.51-93.51,93.51h-561.04 c-51.64,0-93.51-41.87-93.51-93.51V231.82c0-51.64,41.87-93.51,93.51-93.51H-11389.65z" class="st0"/><ellipse cx="-11506.54" cy="348.7" class="st1" rx="93.51" ry="93.51" transform="matrix(0.0453 -0.999 0.999 0.0453 -11333.4727 -11161.8154)"/><ellipse cx="-870.15" cy="444.78" class="st0" rx="116.88" ry="116.88" transform="matrix(0.9178 -0.3971 0.3971 0.9178 -248.1422 -308.9402)"/><path d="M-870.15,117.51c180.7,0,327.27,146.57,327.27,327.27c0,47.46-10.05,92.34-28.29,133.01 c-14.96,33.66-35.53,64.29-60.31,90.7l-238.67,238.68l-238.68-238.68c-24.78-26.42-45.35-57.04-60.31-90.7 c-18.23-40.67-28.29-85.56-28.29-133.01C-1197.42,264.08-1050.85,117.51-870.15,117.51z" class="st0"/><path d="M-13505.28,429.03c6.43-22.32,15.19-43.97,26.79-64.45l-54.98-67.44c-15.15-18.58-13.79-45.65,3.18-62.6 l39.44-39.46c16.97-16.95,44.02-18.33,62.6-3.18l67.44,54.98l0.05-0.09c20.31-11.22,41.84-20.34,64.5-26.65l8.81-86.56 c2.43-23.87,22.54-42.01,46.52-42.01h55.8c23.98,0,44.09,18.14,46.52,42.01l8.81,86.56l0.07-0.05 c22.32,6.45,43.97,15.22,64.47,26.79l67.44-54.98c18.58-15.15,45.63-13.77,62.6,3.18l39.44,39.46 c16.97,16.95,18.33,44.02,3.18,62.6l-54.98,67.44l0.09,0.02c11.22,20.34,20.34,41.84,26.65,64.52l86.56,8.81 c23.87,2.43,42.01,22.53,42.01,46.52v55.78c0,23.98-18.14,44.09-42.01,46.52l-86.56,8.81l0.05,0.1 c-6.43,22.32-15.19,43.97-26.79,64.45l54.98,67.44c15.15,18.58,13.79,45.65-3.18,62.6l-39.44,39.46 c-16.97,16.95-44.02,18.33-62.6,3.15l-67.44-54.96l-0.05,0.09c-20.32,11.22-41.84,20.34-64.5,26.65l-8.81,86.56 c-2.43,23.87-22.53,42.01-46.52,42.01h-55.8c-23.99,0-44.09-18.14-46.52-42.01l-8.81-86.56l-0.07,0.02 c-22.32-6.43-43.97-15.19-64.47-26.77l-67.44,54.96c-18.58,15.17-45.63,13.79-62.6-3.15l-39.44-39.46 c-16.97-16.95-18.33-44.02-3.18-62.6l54.98-67.44l-0.09-0.02c-11.22-20.34-20.36-41.84-26.67-64.52l-86.54-8.81 c-23.87-2.43-42.03-22.54-42.03-46.52v-55.78c0-23.98,18.16-44.09,42.03-46.52l86.54-8.81L-13505.28,429.03z" class="st0"/><ellipse cx="-13213.04" cy="512.34" class="st0" rx="140.26" ry="140.26" transform="matrix(0.9718 -0.2356 0.2356 0.9718 -492.6956 -3098.7188)"/><path d="M-5550.32,133.26l-313.81,254.97c-5.45,4.42-8.63,11.08-8.63,18.14v479.78c0,12.9,10.45,23.38,23.38,23.38 h210.39c12.93,0,23.38-10.47,23.38-23.38v-303.9c0-12.93,10.45-23.38,23.38-23.38h187.01c12.93,0,23.38,10.45,23.38,23.38v303.9 c0,12.9,10.45,23.38,23.38,23.38h210.39c12.93,0,23.38-10.47,23.38-23.38V406.37c0-7.06-3.18-13.72-8.63-18.14l-313.81-254.97 C-5477.2,108.83-5520.26,108.83-5550.32,133.26z" class="st0"/><ellipse cx="-10384.46" cy="512.34" class="st1" rx="140.26" ry="140.26" transform="matrix(0.2356 -0.9718 0.9718 0.2356 -8435.6934 -9700.4824)"/><ellipse cx="-9870.17" cy="255.2" class="st1" rx="140.26" ry="140.26" transform="matrix(0.2411 -0.9705 0.9705 0.2411 -7738.6328 -9385.4424)"/><ellipse cx="-9870.17" cy="769.48" class="st1" rx="140.26" ry="140.26" transform="matrix(0.2372 -0.9715 0.9715 0.2372 -8276.1826 -9001.4707)"/><path d="M-566.25,1798.06v584.42c0,51.64-41.87,93.51-93.51,93.51h-420.78c-51.64,0-93.51-41.87-93.51-93.51v-584.42" class="st0"/><path d="M-729.89,1798.06h-280.52v-70.13c0-25.81,20.95-46.75,46.75-46.75h187.01c25.81,0,46.75,20.95,46.75,46.75 V1798.06z" class="st0"/><path d="M-8724.71,161.69h-327.27c-51.64,0-93.51,41.87-93.51,93.51v561.04c0,51.64,41.87,93.51,93.51,93.51h561.04 c51.64,0,93.51-41.87,93.51-93.51V488.96" class="st0"/><path d="M-8350.69,395.46V138.31c0-12.9-10.47-23.38-23.38-23.38h-257.14" class="st0"/><path d="M-7181.85,161.69h-327.27c-51.64,0-93.51,41.87-93.51,93.51v561.04c0,51.64,41.87,93.51,93.51,93.51h561.04 c51.64,0,93.51-41.87,93.51-93.51V488.96" class="st0"/><path d="M-7298.73,325.33v257.14c0,12.9,10.47,23.38,23.38,23.38h257.14" class="st0"/><circle cx="-3955.87" cy="465.59" r="327.27" class="st0"/><circle cx="-2436.38" cy="512.34" r="350.65" class="st0"/><path d="M-2238.02,148.69l21.36-14.26c45.26-30.16,105.5-24.19,143.93,14.26c38.45,38.46,44.42,98.67,14.26,143.91 l-14.26,21.39" class="st0"/><path d="M-2634.74,148.69l-21.37-14.26c-45.26-30.16-105.5-24.19-143.93,14.26c-38.45,38.46-44.42,98.67-14.26,143.91 l14.26,21.39" class="st0"/><path d="M812.98,886.37H205.18c-51.64,0-93.51-41.87-93.51-93.51V231.82c0-51.64,41.87-93.51,93.51-93.51h607.79 c51.64,0,93.51,41.87,93.51,93.51v561.04C906.48,844.5,864.62,886.37,812.98,886.37z" class="st0"/></g><line x1="135.05" x2="929.86" y1="325.33" y2="325.33" class="st2"/><path d="M298.69,50v158.44V50z" class="st3"/><g><defs><rect id="SVGID_3_" width="1024" height="924" y="50"/></defs><clipPath id="SVGID_4_"><use xlink:href="#SVGID_3_" style="overflow:visible"/></clipPath><line x1="298.69" x2="298.69" y1="44.81" y2="208.44" class="st4"/></g><path d="M719.47,50v158.44V50z" class="st3"/><g><defs><rect id="SVGID_5_" width="1024" height="924" y="50"/></defs><clipPath id="SVGID_6_"><use xlink:href="#SVGID_5_" style="overflow:visible"/></clipPath><line x1="719.47" x2="719.47" y1="44.81" y2="208.44" class="st5"/><path d="M322.07,559.09h-93.51c-12.93,0-23.38-10.47-23.38-23.38v-93.51c0-12.9,10.45-23.38,23.38-23.38h93.51 c12.93,0,23.38,10.47,23.38,23.38v93.51C345.44,548.62,334.99,559.09,322.07,559.09z" class="st6"/><path d="M555.83,559.09h-93.51c-12.93,0-23.38-10.47-23.38-23.38v-93.51c0-12.9,10.45-23.38,23.38-23.38h93.51 c12.93,0,23.38,10.47,23.38,23.38v93.51C579.21,548.62,568.76,559.09,555.83,559.09z" class="st6"/><path d="M789.6,559.09h-93.51c-12.93,0-23.38-10.47-23.38-23.38v-93.51c0-12.9,10.45-23.38,23.38-23.38h93.51 c12.93,0,23.38,10.47,23.38,23.38v93.51C812.98,548.62,802.53,559.09,789.6,559.09z" class="st6"/><path d="M322.07,792.86h-93.51c-12.93,0-23.38-10.47-23.38-23.38v-93.51c0-12.9,10.45-23.38,23.38-23.38h93.51 c12.93,0,23.38,10.47,23.38,23.38v93.51C345.44,782.39,334.99,792.86,322.07,792.86z" class="st6"/><path d="M555.83,792.86h-93.51c-12.93,0-23.38-10.47-23.38-23.38v-93.51c0-12.9,10.45-23.38,23.38-23.38h93.51 c12.93,0,23.38,10.47,23.38,23.38v93.51C579.21,782.39,568.76,792.86,555.83,792.86z" class="st6"/><path d="M789.6,792.86h-93.51c-12.93,0-23.38-10.47-23.38-23.38v-93.51c0-12.9,10.45-23.38,23.38-23.38h93.51 c12.93,0,23.38,10.47,23.38,23.38v93.51C812.98,782.39,802.53,792.86,789.6,792.86z" class="st6"/><ellipse cx="-11670.17" cy="1938.32" class="st7" rx="397.4" ry="397.4" transform="matrix(0.7071 -0.7071 0.7071 0.7071 -4788.7134 -7684.3389)"/><ellipse cx="-13213.04" cy="1938.32" class="st7" rx="397.4" ry="397.4" transform="matrix(0.7071 -0.7071 0.7071 0.7071 -5240.6069 -8775.3066)"/><path d="M-8976.18,2218.84l350.91-607.79c18-31.16,63-31.16,80.98,0l350.91,607.79c18,31.16-4.49,70.13-40.49,70.13 h-701.82C-8971.69,2288.97-8994.18,2250-8976.18,2218.84z" class="st6"/><path d="M-8549.72,2172.09c0,19.38-15.69,35.06-35.06,35.06c-19.36,0-35.07-15.68-35.07-35.06 c0-19.38,15.71-35.06,35.07-35.06C-8565.41,2137.02-8549.72,2152.71-8549.72,2172.09" class="st8"/><path d="M-6807.82,2359.1h-467.53c-51.64,0-93.51-41.87-93.51-93.51v-303.9c0-51.64,41.87-93.51,93.51-93.51h467.53 c51.64,0,93.51,41.87,93.51,93.51v303.9C-6714.32,2317.23-6756.19,2359.1-6807.82,2359.1z" class="st7"/><path d="M-6831.2,1868.19h-420.78v-163.64c0-116.2,94.18-210.39,210.39-210.39c116.2,0,210.39,94.18,210.39,210.39 V1868.19z" class="st7"/><path d="M-5264.96,2359.1h-467.53c-51.64,0-93.51-41.87-93.51-93.51v-303.9c0-51.64,41.87-93.51,93.51-93.51h467.53 c51.64,0,93.51,41.87,93.51,93.51v303.9C-5171.46,2317.23-5213.32,2359.1-5264.96,2359.1z" class="st7"/><path d="M-5709.12,1868.19v-163.64c0-116.2,94.18-210.39,210.39-210.39s210.39,94.18,210.39,210.39v23.38" class="st7"/><line x1="-10033.81" x2="-10033.81" y1="1564.29" y2="1982.99" class="st7"/><path d="M-9833.94,1699.22c91.17,63.12,150.78,168.5,150.78,287.93c0,193.7-156.97,350.65-350.65,350.65 c-193.68,0-350.65-156.95-350.65-350.65c0-119.43,59.61-224.81,150.78-287.93" class="st7"/></g></svg>