<?xml version="1.0" encoding="utf-8"?>
<!-- Generator: Adobe Illustrator 24.3.0, SVG Export Plug-In . SVG Version: 6.00 Build 0)  -->
<svg version="1.1" id="Laag_1" xmlns="http://www.w3.org/2000/svg" xmlns:xlink="http://www.w3.org/1999/xlink" x="0px" y="0px"
	 viewBox="0 0 1024 1024" style="enable-background:new 0 0 1024 1024;" xml:space="preserve">
<style type="text/css">
	.st0{clip-path:url(#SVGID_2_);}
	.st1{clip-path:url(#SVGID_2_);fill:none;stroke:#000000;stroke-width:9.437;stroke-miterlimit:10;}
	.st2{clip-path:url(#SVGID_2_);fill:none;stroke:#000000;stroke-width:13.885;stroke-miterlimit:10;}
	.st3{clip-path:url(#SVGID_2_);fill:#FFFFFF;}
</style>
<g>
	<defs>
		<rect id="SVGID_1_" x="77" y="263.58" width="891.5" height="548.14"/>
	</defs>
	<clipPath id="SVGID_2_">
		<use xlink:href="#SVGID_1_"  style="overflow:visible;"/>
	</clipPath>
	<path class="st0" d="M591.8,282.46c-10.38-11.5-25.23-18.87-41.93-18.87c-31.3,0-57.01,25.33-57.01,56.64
		c0,31.24,25.71,56.6,57.01,56.6c31.26,0,56.6-25.36,56.6-56.6c0-6.66-1.36-12.96-3.46-18.89
		C598.34,288.75,591.8,282.46,591.8,282.46 M549.87,282.46c20.81,0,37.73,16.94,37.73,37.77c0,20.81-16.92,37.73-37.73,37.73
		c-20.83,0-38.13-16.92-38.13-37.73C511.74,299.4,529.05,282.46,549.87,282.46 M680.38,509.12c-2.12-7.19-6.99-13.57-14.08-17.42
		l-58.5-31.72l-20.68-34.15l-6.6-10.87c-7.22-11.96-20.18-19.26-34.15-19.26h-6.78h-29.42c-16.68,0-31.28,11.22-35.57,27.33
		l-2.18,8.19l-29.98,112.55l-0.55,2.05c-4.57,17.16-5.53,34.84-5.55,52.58v0.9l-0.09,59.7l-53.16,104.17
		c-8.11,16.35-1.48,36.16,14.87,44.29c4.72,2.34,9.73,3.45,14.67,3.45c12.15,0,23.83-6.71,29.6-18.32l56.54-111.1
		c2.25-4.55,3.54-9.57,3.54-14.65v-59l43.94,66.96l12.92,106.29c2.03,16.77,16.27,29.07,32.75,29.07c1.33,0,2.65-0.07,4-0.24
		c18.12-2.19,31.02-18.63,28.83-36.75l-13.86-113.98c-0.61-5.07-2.38-9.91-5.18-14.17l-59.48-90.51l14.52-59.26l1.07,1.77
		c2.69,4.46,6.52,8.11,11.1,10.6l65.48,35.52c4.42,2.41,9.22,3.56,13.92,3.56c10.38,0,20.44-5.55,25.75-15.32
		c0.59-1.09,0.96-2.25,1.4-3.37 M652.31,527.81c-1.71,0-3.37-0.42-4.88-1.25l-65.52-35.54c-1.6-0.88-2.97-2.19-3.93-3.76
		l-12.05-19.96c-2.12-3.48-6.12-5.36-10.17-4.75c-4.04,0.63-7.3,3.61-8.27,7.57l-19.58,79.87c-1.25,5.1-0.32,10.48,2.55,14.86
		l59.48,90.51c1.2,1.83,1.95,3.93,2.21,6.07L606,775.43c0.96,7.74-4.61,14.8-12.35,15.74l-1.73,0.11c-7.13,0-13.16-5.36-14.01-12.46
		l-13.45-110.68l-56.77-86.53c-3.21-4.88-9.23-7.08-14.82-5.42c-5.6,1.68-9.44,6.82-9.44,12.64v78c0,2.01-0.55,4.17-1.57,6.25
		L425.4,784.04c-2.47,4.99-7.34,8-12.77,8c-2.19,0-4.29-0.5-6.28-1.47c-6.97-3.48-9.84-12-6.36-19l55.13-108.01v-64.21
		c0.02-15.5,0.72-32.57,5.01-48.66l23.3-87.49l9.4-35.3c0.21-0.8,0.48-1.57,0.79-2.32c2.77-6.59,9.25-11.01,16.55-11.01h36.2
		c7.32,0,14.23,3.89,18.01,10.16l29.93,49.41l63,34.15c3.65,1.97,5.57,5.86,5.33,9.77c-0.02,0.17-0.09,0.31-0.09,0.5
		c0,0.07,0.04,0.13,0.04,0.2c-0.17,1.22-0.48,2.45-1.11,3.61C659.63,525.73,656.13,527.81,652.31,527.81"/>
	<path class="st0" d="M343.33,468.66c4.11-6.27,10.62-10.96,18.53-12.58l65.19-13.39l29.7-26.68l9.47-8.49
		c10.38-9.35,25.09-13.39,43.96-11.82l0.8,5.26L499,417.05c-7-2.12-14.75-0.41-20.18,4.49l-4.83,4.34l-1.57,1.41l-36.57,32.85
		l-70.2,14.41c-4.06,0.83-7.03,3.99-7.93,7.8c-0.03,0.16,0,0.33-0.05,0.5c-0.02,0.07-0.07,0.11-0.1,0.18
		c-0.19,1.21-0.25,2.49,0.01,3.78c0.79,3.74,3.54,6.75,7.19,7.86c1.64,0.5,3.35,0.57,5.04,0.22l73.01-15
		c1.79-0.38,3.48-1.24,4.85-2.46l17.33-15.6c3.04-2.72,7.41-3.36,11.12-1.6c3.68,1.77,5.94,5.58,5.72,9.65l-19.99,20.19l-1.54,1.38
		c-3.87,3.49-8.6,5.87-13.69,6.92l-72.97,14.99c-4.93,1.03-9.85,0.73-14.35-0.63c-9.93-3.01-17.95-11.24-20.2-22.13
		c-0.25-1.21-0.26-2.43-0.36-3.63 M460.31,491.47l1.54-1.38l20.01-23.61"/>
	<path class="st1" d="M896.8,642.55l-5.17,26.66c-0.71,3.99-3.46,7.5-7.54,8.98L870.87,683l3.21,8.81l-2.21,0.8l-18.23-15.82
		l3.8-23.84l2.2-0.8l3.21,8.82l26.44-9.62"/>
	<line class="st1" x1="883.05" y1="653.62" x2="856.32" y2="631.93"/>
	<path class="st1" d="M870.55,613.3l22.12,17.93c1.59,1.29,2.87,3.02,3.63,5.09c2.21,6.08-0.93,12.81-7.01,15.03"/>
	<path class="st1" d="M818.23,695.58l-20.19-18.16c-3.05-2.66-4.65-6.83-3.82-11.09l2.68-13.81l-9.21-1.79l0.45-2.3l22.95-7.48
		l18.48,15.54l-0.45,2.3l-9.21-1.79l-5.37,27.62"/>
	<line class="st1" x1="848.19" y1="666.31" x2="815.96" y2="678.04"/>
	<path class="st1" d="M856.22,688.34l-26.16,9.54c-1.93,0.7-4.07,0.91-6.23,0.49c-6.36-1.24-10.51-7.39-9.27-13.75"/>
	<line class="st1" x1="826.73" y1="608.89" x2="822.17" y2="641.09"/>
	<path class="st1" d="M798.99,637.5l3.58-25.33c0.29-2.03,1.11-4,2.51-5.73c4.08-5.03,11.46-5.8,16.49-1.73"/>
	<path class="st1" d="M810.16,602.81l25.52-9.3c3.78-1.45,8.21-0.9,11.58,1.83l10.93,8.85l6.02-7.33l1.82,1.48l-4.17,23.78
		l-22.39,9.03l-1.82-1.48l5.79-7.25l-21.87-17.71"/>
	<path class="st2" d="M859.41,748.87c-7.87-21.62-31.77-32.76-53.39-24.89c-21.62,7.87-32.76,31.77-24.89,53.39
		c7.87,21.62,31.77,32.76,53.39,24.89C856.14,794.39,867.28,770.48,859.41,748.87z"/>
	
		<rect x="695.7" y="519.67" transform="matrix(0.9397 -0.342 0.342 0.9397 -137.6043 307.5568)" class="st2" width="215.2" height="48.59"/>
	<path class="st2" d="M705.75,590.56l-37.97-23.12l-2.37-6.52c-6.56-18.01,2.73-37.93,20.74-44.49l176.13-64.11l26.7,12.45
		l7.12,19.57"/>
	<path class="st2" d="M834.52,802.26l117.9-42.91c7.02-2.55,10.76-10.2,8.46-17.31l-67.72-204.91l-163.08,59.36l56.26,142.51"/>
	<path class="st2" d="M833.32,758.37c-2.62-7.21-10.59-10.92-17.8-8.3c-7.21,2.62-10.92,10.59-8.3,17.79
		c2.62,7.21,10.59,10.92,17.8,8.3C832.23,773.54,835.94,765.57,833.32,758.37z"/>
	<line class="st2" x1="699.81" y1="533.62" x2="706.93" y2="553.19"/>
	<line class="st2" x1="725.9" y1="524.12" x2="733.02" y2="543.69"/>
	<line class="st2" x1="751.99" y1="514.63" x2="759.12" y2="534.2"/>
	<line class="st2" x1="778.09" y1="505.13" x2="785.21" y2="524.7"/>
	<line class="st2" x1="804.18" y1="495.63" x2="811.3" y2="515.2"/>
	<line class="st2" x1="830.27" y1="486.13" x2="837.4" y2="505.7"/>
	<line class="st2" x1="856.37" y1="476.64" x2="863.49" y2="496.21"/>
	<line class="st2" x1="903.23" y1="503.91" x2="929.33" y2="494.41"/>
	<path class="st1" d="M148.7,634.68l5.17,26.66c0.71,3.99,3.46,7.5,7.54,8.98l13.22,4.81l-3.21,8.81l2.21,0.8l18.24-15.82
		l-3.8-23.84l-2.2-0.8l-3.21,8.82l-26.44-9.62"/>
	<line class="st1" x1="162.45" y1="645.75" x2="189.17" y2="624.06"/>
	<path class="st1" d="M174.94,605.44l-22.12,17.93c-1.59,1.29-2.87,3.02-3.62,5.09c-2.21,6.08,0.92,12.81,7.01,15.03"/>
	<path class="st1" d="M227.27,687.72l20.19-18.16c3.05-2.66,4.64-6.83,3.82-11.09l-2.68-13.81l9.21-1.79l-0.45-2.3l-22.95-7.48
		l-18.48,15.54l0.45,2.3l9.21-1.79l5.37,27.62"/>
	<line class="st1" x1="197.31" y1="658.44" x2="229.54" y2="670.17"/>
	<path class="st1" d="M189.28,680.47l26.16,9.55c1.93,0.7,4.07,0.91,6.23,0.48c6.36-1.24,10.51-7.39,9.27-13.75"/>
	<line class="st1" x1="218.77" y1="601.03" x2="223.32" y2="633.22"/>
	<path class="st1" d="M246.51,629.64l-3.58-25.33c-0.29-2.03-1.11-4-2.51-5.73c-4.08-5.03-11.47-5.8-16.49-1.73"/>
	<path class="st1" d="M235.34,594.94l-25.51-9.3c-3.78-1.45-8.21-0.9-11.58,1.84l-10.93,8.85l-6.01-7.33l-1.82,1.48l4.17,23.78
		l22.39,9.03l1.82-1.48l-5.79-7.25l21.87-17.71"/>
	<path class="st2" d="M186.08,741c7.87-21.62,31.77-32.76,53.39-24.89c21.62,7.87,32.76,31.77,24.89,53.38s-31.77,32.76-53.39,24.9
		C189.36,786.52,178.21,762.62,186.08,741z"/>
	
		<rect x="217.89" y="428.5" transform="matrix(0.342 -0.9397 0.9397 0.342 -344.4182 580.3282)" class="st2" width="48.59" height="215.2"/>
	<path class="st2" d="M339.74,582.69l37.96-23.12l2.37-6.52c6.56-18.01-2.73-37.93-20.74-44.49L183.2,444.45l-26.69,12.45
		l-7.12,19.57"/>
	<path class="st2" d="M210.98,794.39L93.08,751.48c-7.02-2.55-10.76-10.2-8.47-17.31l67.72-204.91l163.08,59.36l-56.26,142.51"/>
	<path class="st2" d="M212.18,750.5c2.62-7.21,10.59-10.92,17.79-8.3c7.21,2.62,10.92,10.59,8.3,17.79
		c-2.62,7.21-10.59,10.92-17.8,8.3C213.27,765.67,209.55,757.71,212.18,750.5z"/>
	<line class="st2" x1="345.69" y1="525.76" x2="338.57" y2="545.33"/>
	<line class="st2" x1="319.6" y1="516.26" x2="312.47" y2="535.83"/>
	<line class="st2" x1="293.5" y1="506.76" x2="286.38" y2="526.33"/>
	<line class="st2" x1="267.41" y1="497.27" x2="260.29" y2="516.83"/>
	<line class="st2" x1="241.31" y1="487.77" x2="234.19" y2="507.34"/>
	<line class="st2" x1="215.22" y1="478.27" x2="208.1" y2="497.84"/>
	<line class="st2" x1="189.13" y1="468.77" x2="182" y2="488.34"/>
	<line class="st2" x1="142.26" y1="496.04" x2="116.17" y2="486.54"/>
	<path class="st3" d="M518.03,416.14c0,0-37.75-11.01-56.62,26.74l-4.72,22.02l42.46-4.72L518.03,416.14z"/>
</g>
</svg>
