<?xml version="1.0" encoding="utf-8"?>
<!-- Generator: Adobe Illustrator 24.3.0, SVG Export Plug-In . SVG Version: 6.00 Build 0)  -->
<svg version="1.1" id="Laag_1" xmlns="http://www.w3.org/2000/svg" xmlns:xlink="http://www.w3.org/1999/xlink" x="0px" y="0px"
	 viewBox="0 0 1024 1024" style="enable-background:new 0 0 1024 1024;" xml:space="preserve">
<style type="text/css">
	.st0{clip-path:url(#SVGID_2_);fill:none;stroke:#14171C;stroke-width:46.753;stroke-linejoin:round;stroke-miterlimit:10;}
	.st1{clip-path:url(#SVGID_2_);fill:none;stroke:#14171C;stroke-width:46.753;stroke-miterlimit:10;}
	.st2{fill:none;stroke:#14171C;stroke-width:46.753;stroke-linejoin:round;stroke-miterlimit:10;}
	.st3{clip-path:url(#SVGID_4_);fill:none;stroke:#14171C;stroke-width:46.753;stroke-linejoin:round;stroke-miterlimit:10;}
	.st4{clip-path:url(#SVGID_4_);fill:#14171C;}
	.st5{clip-path:url(#SVGID_4_);fill:none;stroke:#14171C;stroke-width:46.753;stroke-miterlimit:10;}
</style>
<g>
	<defs>
		<rect id="SVGID_1_" y="50" width="1024" height="924"/>
	</defs>
	<clipPath id="SVGID_2_">
		<use xlink:href="#SVGID_1_"  style="overflow:visible;"/>
	</clipPath>
	<path class="st0" d="M2332.35-1287.69c51.64,0,93.51,41.87,93.51,93.51v561.04c0,51.64-41.87,93.51-93.51,93.51H1771.3
		c-51.64,0-93.51-41.87-93.51-93.51v-561.04c0-51.64,41.87-93.51,93.51-93.51H2332.35z"/>
	
		<ellipse transform="matrix(0.0453 -0.999 0.999 0.0453 3191.26 1184.7074)" class="st1" cx="2215.46" cy="-1077.3" rx="93.51" ry="93.51"/>
	
		<ellipse transform="matrix(0.9239 -0.3827 0.3827 0.9239 1353.7738 4843.4775)" class="st0" cx="12851.85" cy="-981.22" rx="116.88" ry="116.88"/>
	<path class="st0" d="M12851.85-1308.49c180.7,0,327.27,146.57,327.27,327.27c0,47.46-10.05,92.34-28.29,133.01
		c-14.96,33.66-35.53,64.29-60.31,90.7l-238.67,238.68l-238.68-238.68c-24.78-26.42-45.35-57.04-60.31-90.7
		c-18.23-40.67-28.29-85.56-28.29-133.01C12524.58-1161.92,12671.15-1308.49,12851.85-1308.49z"/>
	<path class="st0" d="M216.72-996.97c6.43-22.32,15.19-43.97,26.79-64.45l-54.98-67.44c-15.15-18.58-13.79-45.66,3.18-62.6
		l39.44-39.46c16.97-16.95,44.02-18.33,62.6-3.18l67.44,54.98l0.05-0.09c20.31-11.22,41.84-20.34,64.5-26.65l8.81-86.56
		c2.43-23.87,22.53-42.01,46.52-42.01h55.8c23.98,0,44.09,18.14,46.52,42.01l8.81,86.56l0.07-0.05
		c22.33,6.45,43.97,15.22,64.47,26.79l67.44-54.98c18.58-15.15,45.63-13.77,62.6,3.18l39.44,39.46
		c16.97,16.95,18.33,44.02,3.18,62.6l-54.98,67.44l0.09,0.02c11.22,20.34,20.34,41.84,26.65,64.52l86.56,8.81
		c23.87,2.43,42.01,22.53,42.01,46.52v55.78c0,23.98-18.14,44.09-42.01,46.52l-86.56,8.81l0.05,0.09
		c-6.43,22.32-15.2,43.97-26.79,64.45l54.98,67.44c15.15,18.58,13.79,45.65-3.18,62.6l-39.44,39.46
		c-16.97,16.95-44.02,18.33-62.6,3.15l-67.44-54.96l-0.05,0.09c-20.32,11.22-41.85,20.34-64.5,26.65l-8.81,86.56
		c-2.43,23.87-22.54,42.01-46.52,42.01h-55.8c-23.99,0-44.09-18.14-46.52-42.01l-8.81-86.56l-0.07,0.02
		c-22.32-6.43-43.97-15.19-64.47-26.77l-67.44,54.96c-18.58,15.17-45.63,13.79-62.6-3.15l-39.44-39.46
		c-16.97-16.95-18.33-44.02-3.18-62.6l54.98-67.44l-0.09-0.02c-11.22-20.34-20.36-41.84-26.67-64.52l-86.54-8.81
		c-23.87-2.43-42.03-22.54-42.03-46.52v-55.78c0-23.98,18.16-44.09,42.03-46.52l86.54-8.81L216.72-996.97z"/>
	
		<ellipse transform="matrix(0.7071 -0.7071 0.7071 0.7071 795.1266 92.2878)" class="st0" cx="508.96" cy="-913.66" rx="140.26" ry="140.26"/>
	<path class="st0" d="M8171.68-1292.74l-313.81,254.97c-5.45,4.42-8.63,11.08-8.63,18.14v479.78c0,12.9,10.45,23.38,23.38,23.38
		h210.39c12.93,0,23.38-10.47,23.38-23.38v-303.9c0-12.93,10.45-23.38,23.38-23.38h187.01c12.93,0,23.38,10.45,23.38,23.38v303.9
		c0,12.9,10.45,23.38,23.38,23.38h210.39c12.93,0,23.38-10.47,23.38-23.38v-479.78c0-7.06-3.18-13.72-8.63-18.14l-313.81-254.97
		C8244.8-1317.17,8201.74-1317.17,8171.68-1292.74z"/>
	
		<ellipse transform="matrix(0.7071 -0.7071 0.7071 0.7071 1623.5983 2092.395)" class="st1" cx="3337.54" cy="-913.66" rx="140.26" ry="140.26"/>
	
		<ellipse transform="matrix(0.7071 -0.7071 0.7071 0.7071 1956.0574 2380.7354)" class="st1" cx="3851.83" cy="-1170.8" rx="140.26" ry="140.26"/>
	
		<ellipse transform="matrix(0.7071 -0.7071 0.7071 0.7071 1592.4015 2531.3667)" class="st1" cx="3851.83" cy="-656.52" rx="140.26" ry="140.26"/>
	<path class="st0" d="M13155.75,372.06v584.42c0,51.64-41.87,93.51-93.51,93.51h-420.78c-51.64,0-93.51-41.87-93.51-93.51V372.06"/>
	<path class="st0" d="M12992.11,372.06h-280.52v-70.13c0-25.81,20.95-46.75,46.75-46.75h187.01c25.81,0,46.75,20.95,46.75,46.75
		V372.06z"/>
	<path class="st0" d="M4997.29-1264.31h-327.27c-51.64,0-93.51,41.87-93.51,93.51v561.04c0,51.64,41.87,93.51,93.51,93.51h561.04
		c51.64,0,93.51-41.87,93.51-93.51v-327.27"/>
	<path class="st0" d="M5371.31-1030.54v-257.14c0-12.9-10.47-23.38-23.38-23.38h-257.14"/>
	<path class="st0" d="M6540.15-1264.31h-327.27c-51.64,0-93.51,41.87-93.51,93.51v561.04c0,51.64,41.87,93.51,93.51,93.51h561.04
		c51.64,0,93.51-41.87,93.51-93.51v-327.27"/>
	<path class="st0" d="M6423.27-1100.67v257.14c0,12.9,10.47,23.38,23.38,23.38h257.14"/>
	<circle class="st0" cx="9766.13" cy="-960.41" r="327.27"/>
	<circle class="st0" cx="11285.62" cy="-913.66" r="350.65"/>
	<path class="st0" d="M11483.98-1277.31l21.36-14.26c45.26-30.16,105.5-24.19,143.93,14.26c38.45,38.46,44.42,98.67,14.26,143.91
		l-14.26,21.39"/>
	<path class="st0" d="M11087.26-1277.31l-21.37-14.26c-45.26-30.16-105.5-24.19-143.93,14.26c-38.45,38.46-44.42,98.67-14.26,143.91
		l14.26,21.39"/>
	<path class="st0" d="M14534.98-539.63h-607.79c-51.64,0-93.51-41.87-93.51-93.51v-561.04c0-51.64,41.87-93.51,93.51-93.51h607.79
		c51.64,0,93.51,41.87,93.51,93.51v561.04C14628.48-581.5,14586.62-539.63,14534.98-539.63z"/>
	<path class="st0" d="M14044.07-866.91h-93.51c-12.93,0-23.38-10.47-23.38-23.38v-93.51c0-12.9,10.45-23.38,23.38-23.38h93.51
		c12.93,0,23.38,10.48,23.38,23.38v93.51C14067.44-877.38,14056.99-866.91,14044.07-866.91z"/>
	<path class="st0" d="M14277.83-866.91h-93.51c-12.93,0-23.38-10.47-23.38-23.38v-93.51c0-12.9,10.45-23.38,23.38-23.38h93.51
		c12.93,0,23.38,10.48,23.38,23.38v93.51C14301.21-877.38,14290.76-866.91,14277.83-866.91z"/>
	<path class="st0" d="M14511.6-866.91h-93.51c-12.93,0-23.38-10.47-23.38-23.38v-93.51c0-12.9,10.45-23.38,23.38-23.38h93.51
		c12.93,0,23.38,10.48,23.38,23.38v93.51C14534.98-877.38,14524.53-866.91,14511.6-866.91z"/>
	<path class="st0" d="M14044.07-633.14h-93.51c-12.93,0-23.38-10.47-23.38-23.38v-93.51c0-12.9,10.45-23.38,23.38-23.38h93.51
		c12.93,0,23.38,10.47,23.38,23.38v93.51C14067.44-643.61,14056.99-633.14,14044.07-633.14z"/>
	<path class="st0" d="M14277.83-633.14h-93.51c-12.93,0-23.38-10.47-23.38-23.38v-93.51c0-12.9,10.45-23.38,23.38-23.38h93.51
		c12.93,0,23.38,10.47,23.38,23.38v93.51C14301.21-643.61,14290.76-633.14,14277.83-633.14z"/>
	<path class="st0" d="M14511.6-633.14h-93.51c-12.93,0-23.38-10.47-23.38-23.38v-93.51c0-12.9,10.45-23.38,23.38-23.38h93.51
		c12.93,0,23.38,10.47,23.38,23.38v93.51C14534.98-643.61,14524.53-633.14,14511.6-633.14z"/>
	
		<ellipse transform="matrix(0.7071 -0.7071 0.7071 0.7071 238.7015 1600.9144)" class="st1" cx="2051.83" cy="512.32" rx="397.4" ry="397.4"/>
	
		<ellipse transform="matrix(0.7071 -0.7071 0.7071 0.7071 -213.1921 509.9468)" class="st1" cx="508.96" cy="512.32" rx="397.4" ry="397.4"/>
</g>
<polyline class="st2" points="345.33,512.32 462.21,629.2 695.98,395.44 "/>
<g>
	<defs>
		<rect id="SVGID_3_" y="50" width="1024" height="924"/>
	</defs>
	<clipPath id="SVGID_4_">
		<use xlink:href="#SVGID_3_"  style="overflow:visible;"/>
	</clipPath>
	<path class="st3" d="M4745.82,792.84l350.91-607.79c18-31.16,63-31.16,80.98,0l350.91,607.79c18,31.16-4.49,70.13-40.49,70.13
		h-701.81C4750.31,862.97,4727.82,824,4745.82,792.84z"/>
	<path class="st4" d="M5172.28,746.09c0,19.38-15.69,35.06-35.07,35.06c-19.36,0-35.06-15.68-35.06-35.06
		c0-19.38,15.71-35.07,35.06-35.07C5156.6,711.02,5172.28,726.71,5172.28,746.09"/>
	<path class="st5" d="M6914.18,933.1h-467.53c-51.64,0-93.51-41.87-93.51-93.51V535.7c0-51.64,41.87-93.51,93.51-93.51h467.53
		c51.64,0,93.51,41.87,93.51,93.51v303.9C7007.68,891.23,6965.81,933.1,6914.18,933.1z"/>
	<path class="st5" d="M6890.8,442.19h-420.78V278.55c0-116.2,94.18-210.39,210.39-210.39c116.2,0,210.39,94.18,210.39,210.39V442.19
		z"/>
	<path class="st5" d="M8457.04,933.1H7989.5c-51.64,0-93.51-41.87-93.51-93.51V535.7c0-51.64,41.87-93.51,93.51-93.51h467.53
		c51.64,0,93.51,41.87,93.51,93.51v303.9C8550.54,891.23,8508.68,933.1,8457.04,933.1z"/>
	<path class="st5" d="M8012.88,442.19V278.55c0-116.2,94.18-210.39,210.39-210.39s210.39,94.18,210.39,210.39v23.38"/>
	<line class="st5" x1="3688.19" y1="138.29" x2="3688.19" y2="556.99"/>
	<path class="st5" d="M3888.06,273.22c91.17,63.12,150.78,168.5,150.78,287.93c0,193.7-156.97,350.65-350.65,350.65
		c-193.68,0-350.65-156.95-350.65-350.65c0-119.43,59.61-224.81,150.78-287.93"/>
</g>
</svg>
