<svg xmlns="http://www.w3.org/2000/svg" xmlns:xlink="http://www.w3.org/1999/xlink" id="Laag_1" x="0" y="0" version="1.1" viewBox="0 0 1024 1024" xml:space="preserve" style="enable-background:new 0 0 1024 1024"><style type="text/css">.st0{clip-path:url(#SVGID_2_);fill:#080808}</style><g><defs><rect id="SVGID_1_" width="1024" height="924" y="50"/></defs><clipPath id="SVGID_2_"><use xlink:href="#SVGID_1_" style="overflow:visible"/></clipPath><path d="M512,519.88c-15.97,0-28.91-12.94-28.91-28.91V167.16c0-15.97,12.94-28.91,28.91-28.91 c15.97,0,28.91,12.94,28.91,28.91v323.81C540.91,506.94,527.97,519.88,512,519.88" class="st0"/><path d="M512,885.75c-182.8,0-331.51-148.71-331.51-331.51c0-132,78.43-251.33,199.81-303.99 c15.85-6.88,34.26,0.39,41.14,16.23c6.87,15.84-0.4,34.27-16.24,41.13c-98.51,42.76-162.16,139.56-162.16,246.63 C243.04,702.55,363.7,823.2,512,823.2c148.3,0,268.96-120.65,268.96-268.96c0-107.07-63.65-203.87-162.17-246.63 c-15.85-6.87-23.11-25.29-16.24-41.13c6.88-15.83,25.3-23.09,41.14-16.23c121.38,52.68,199.82,171.99,199.82,303.99 C843.51,737.04,694.8,885.75,512,885.75" class="st0"/></g></svg>