<?xml version="1.0" encoding="utf-8"?>
<!-- Generator: Adobe Illustrator 24.3.0, SVG Export Plug-In . SVG Version: 6.00 Build 0)  -->
<svg version="1.1" id="Laag_1" xmlns="http://www.w3.org/2000/svg" xmlns:xlink="http://www.w3.org/1999/xlink" x="0px" y="0px"
	 viewBox="0 0 1024 1024" style="enable-background:new 0 0 1024 1024;" xml:space="preserve">
<style type="text/css">
	.st0{clip-path:url(#SVGID_2_);fill:#272425;}
	.st1{clip-path:url(#SVGID_2_);fill:#322F30;}
	.st2{clip-path:url(#SVGID_2_);fill:#474546;}
	.st3{clip-path:url(#SVGID_2_);fill:#5B5A5B;}
	.st4{clip-path:url(#SVGID_2_);fill:#717173;}
	.st5{clip-path:url(#SVGID_2_);fill:#838487;}
	.st6{clip-path:url(#SVGID_2_);fill:#919295;}
	.st7{clip-path:url(#SVGID_2_);fill:#96979A;}
	.st8{clip-path:url(#SVGID_2_);fill:#96989B;}
	.st9{clip-path:url(#SVGID_2_);fill:#A6A7A9;}
	.st10{clip-path:url(#SVGID_2_);fill:#ACAEB0;}
	.st11{clip-path:url(#SVGID_2_);fill:#B7B8BA;}
	.st12{clip-path:url(#SVGID_2_);fill:#C7C8C9;}
	.st13{clip-path:url(#SVGID_2_);fill:#D1D2D2;}
	.st14{clip-path:url(#SVGID_2_);fill:#9FA1A3;}
	.st15{clip-path:url(#SVGID_2_);fill:#EDEDED;}
	.st16{clip-path:url(#SVGID_2_);fill:#D8D8D8;}
	.st17{clip-path:url(#SVGID_2_);fill:#BCBCBB;}
	.st18{clip-path:url(#SVGID_2_);fill:#A9A9A9;}
	.st19{clip-path:url(#SVGID_2_);fill:#959699;}
	.st20{clip-path:url(#SVGID_2_);fill:#8F9194;}
	.st21{clip-path:url(#SVGID_2_);fill:#767779;}
	.st22{clip-path:url(#SVGID_2_);fill:#4C494A;}
	.st23{clip-path:url(#SVGID_2_);fill:#2F2C2D;}
</style>
<g>
	<defs>
		<rect id="SVGID_1_" x="67.36" y="50" width="956.64" height="924"/>
	</defs>
	<clipPath id="SVGID_2_">
		<use xlink:href="#SVGID_1_"  style="overflow:visible;"/>
	</clipPath>
	<path class="st0" d="M1571.73,85.92c-43.26-15.75-91.09,6.56-106.84,49.82c-15.74,43.26,6.56,91.09,49.82,106.84
		c43.26,15.74,91.09-6.56,106.84-49.82S1614.99,101.67,1571.73,85.92"/>
	<path class="st1" d="M1779.63,224.99c-14.79,40.63-59.72,61.58-100.35,46.8c-40.63-14.79-61.59-59.72-46.8-100.35
		c14.79-40.63,59.72-61.59,100.35-46.8C1773.47,139.43,1794.42,184.36,1779.63,224.99"/>
	<path class="st2" d="M1896.17,315.77c-13.94,38.31-56.3,58.06-94.61,44.12c-38.31-13.94-58.06-56.3-44.12-94.61
		c13.94-38.31,56.3-58.06,94.61-44.12S1910.11,277.46,1896.17,315.77"/>
	<path class="st3" d="M1925.17,349.3c-36.27-13.2-76.37,5.5-89.58,41.77c-13.2,36.27,5.5,76.37,41.77,89.57
		c36.27,13.2,76.37-5.5,89.57-41.77C1980.14,402.61,1961.44,362.51,1925.17,349.3"/>
	<path class="st4" d="M1936.42,503.56c-34.86-12.69-73.41,5.29-86.1,40.15c-12.69,34.86,5.29,73.41,40.15,86.09
		c34.86,12.69,73.41-5.28,86.1-40.14C1989.26,554.8,1971.28,516.25,1936.42,503.56"/>
	<path class="st5" d="M1886.16,658.77c-31.43-11.44-66.19,4.77-77.63,36.2c-11.44,31.43,4.77,66.19,36.2,77.63
		c31.43,11.44,66.19-4.77,77.63-36.2C1933.8,704.96,1917.6,670.21,1886.16,658.77"/>
	<path class="st6" d="M1781.4,768.87c-29.36-10.68-61.81,4.45-72.5,33.8c-10.68,29.35,4.45,61.81,33.81,72.49
		c29.35,10.68,61.81-4.45,72.49-33.8C1825.89,812.01,1810.76,779.56,1781.4,768.87"/>
	<path class="st7" d="M1660.54,830.35c-26.65-9.7-56.11,4.04-65.81,30.69c-9.7,26.64,4.04,56.11,30.69,65.81
		c26.65,9.7,56.11-4.04,65.81-30.69C1700.93,869.51,1687.18,840.05,1660.54,830.35"/>
	<path class="st8" d="M1523.47,842.19c-25-9.1-52.65,3.79-61.75,28.79c-9.1,25,3.79,52.64,28.79,61.75
		c25,9.1,52.65-3.79,61.75-28.79C1561.35,878.94,1548.47,851.29,1523.47,842.19"/>
	<path class="st9" d="M1318.33,778.95c-8.33,22.88-33.63,34.68-56.51,26.35c-22.88-8.33-34.68-33.63-26.35-56.51
		c8.33-22.88,33.63-34.68,56.51-26.35C1314.86,730.76,1326.66,756.07,1318.33,778.95"/>
	<path class="st10" d="M1250.47,674.98c-7.6,20.89-30.7,31.65-51.58,24.05c-20.89-7.6-31.65-30.69-24.05-51.58
		c7.6-20.89,30.7-31.66,51.58-24.05C1247.3,631,1258.07,654.09,1250.47,674.98"/>
	<path class="st11" d="M1224.3,562.6c-7.12,19.57-28.75,29.65-48.32,22.53c-19.56-7.12-29.65-28.75-22.53-48.32
		c7.12-19.56,28.75-29.65,48.32-22.53C1221.34,521.4,1231.42,543.03,1224.3,562.6"/>
	<path class="st12" d="M1233.94,448.58c-6.76,18.56-27.29,28.14-45.85,21.38c-18.57-6.76-28.14-27.29-21.38-45.85
		c6.76-18.56,27.29-28.14,45.85-21.38C1231.13,409.49,1240.7,430.02,1233.94,448.58"/>
	<path class="st13" d="M1276.69,346.95c-6.3,17.3-25.42,26.22-42.72,19.92c-17.3-6.29-26.22-25.42-19.92-42.72
		c6.3-17.3,25.42-26.22,42.72-19.92C1274.07,310.52,1282.99,329.65,1276.69,346.95"/>
	<path class="st14" d="M1418.1,862.71c-8.83,24.26-35.66,36.77-59.92,27.94c-24.26-8.83-36.77-35.66-27.94-59.91
		s35.66-36.77,59.92-27.94C1414.42,811.62,1426.93,838.45,1418.1,862.71"/>
	<path class="st0" d="M512.54,358.69h-5.25c-26.57,0-48.31-21.74-48.31-48.32V98.32c0-26.58,21.74-48.32,48.31-48.32h5.25
		c26.57,0,48.32,21.74,48.32,48.32v212.05C560.85,336.94,539.11,358.69,512.54,358.69"/>
	<path class="st15" d="M421.92,386.42l-4.24,3.08c-21.5,15.62-51.87,10.81-67.49-10.69L225.54,207.26
		c-15.62-21.5-10.81-51.87,10.69-67.48l4.24-3.09c21.5-15.62,51.87-10.81,67.49,10.69l124.64,171.56
		C448.23,340.43,443.42,370.8,421.92,386.42"/>
	<path class="st16" d="M364.91,462.13l-1.62,4.99c-8.21,25.27-35.61,39.23-60.88,31.02l-201.68-65.53
		C75.46,424.4,61.5,397,69.71,371.73l1.62-4.99c8.21-25.27,35.61-39.23,60.88-31.02l201.67,65.53
		C359.17,409.46,373.12,436.86,364.91,462.13"/>
	<path class="st17" d="M363.29,556.88l1.62,4.99c8.21,25.27-5.75,52.67-31.02,60.88l-201.68,65.53
		c-25.27,8.21-52.67-5.75-60.88-31.02l-1.62-4.99c-8.21-25.28,5.75-52.67,31.02-60.88l201.68-65.53
		C327.68,517.65,355.08,531.61,363.29,556.88"/>
	<path class="st18" d="M417.68,634.49l4.24,3.08c21.5,15.62,26.31,45.99,10.69,67.49L307.96,876.62
		c-15.62,21.5-45.99,26.31-67.49,10.69l-4.24-3.08c-21.5-15.62-26.31-45.99-10.69-67.49l124.64-171.56
		C365.81,623.68,396.17,618.87,417.68,634.49"/>
	<path class="st19" d="M507.29,665.31h5.25c26.57,0,48.32,21.74,48.32,48.31v212.06c0,26.57-21.74,48.32-48.32,48.32h-5.25
		c-26.57,0-48.31-21.74-48.31-48.32V713.63C458.97,687.06,480.72,665.31,507.29,665.31"/>
	<path class="st20" d="M597.91,637.58l4.24-3.08c21.5-15.62,51.87-10.81,67.49,10.69l124.64,171.56
		c15.62,21.5,10.81,51.87-10.69,67.48l-4.24,3.08c-21.5,15.62-51.87,10.81-67.49-10.69L587.22,705.06
		C571.6,683.56,576.41,653.19,597.91,637.58"/>
	<path class="st21" d="M654.91,561.87l1.62-4.99c8.21-25.27,35.61-39.23,60.88-31.02l201.68,65.53
		c25.27,8.21,39.23,35.61,31.02,60.88l-1.62,4.99c-8.21,25.27-35.61,39.23-60.88,31.02l-201.67-65.53
		C660.66,614.54,646.7,587.14,654.91,561.87"/>
	<path class="st22" d="M656.53,467.12l-1.62-4.99c-8.21-25.27,5.75-52.67,31.02-60.88l201.68-65.53
		c25.27-8.21,52.67,5.75,60.88,31.02l1.62,4.99c8.21,25.28-5.75,52.67-31.02,60.88l-201.68,65.53
		C692.14,506.35,664.74,492.39,656.53,467.12"/>
	<path class="st23" d="M602.15,389.51l-4.24-3.08c-21.5-15.62-26.31-45.99-10.69-67.49l124.64-171.56
		c15.62-21.5,45.99-26.31,67.49-10.69l4.24,3.08c21.5,15.62,26.31,45.99,10.69,67.48L669.64,378.82
		C654.02,400.32,623.65,405.13,602.15,389.51"/>
</g>
</svg>
