<?xml version="1.0" encoding="utf-8"?>
<!-- Generator: Adobe Illustrator 24.3.0, SVG Export Plug-In . SVG Version: 6.00 Build 0)  -->
<svg version="1.1" id="Laag_1" xmlns="http://www.w3.org/2000/svg" xmlns:xlink="http://www.w3.org/1999/xlink" x="0px" y="0px"
	 viewBox="0 0 1024 1024" style="enable-background:new 0 0 1024 1024;" xml:space="preserve">
<style type="text/css">
	.st0{clip-path:url(#SVGID_2_);fill:none;stroke:#14171C;stroke-width:46.753;stroke-linejoin:round;stroke-miterlimit:10;}
	.st1{clip-path:url(#SVGID_2_);fill:none;stroke:#14171C;stroke-width:46.753;stroke-miterlimit:10;}
	.st2{fill:none;stroke:#14171C;stroke-width:46.753;stroke-linejoin:round;stroke-miterlimit:10;}
	.st3{clip-path:url(#SVGID_4_);fill:none;stroke:#14171C;stroke-width:46.753;stroke-linejoin:round;stroke-miterlimit:10;}
	.st4{clip-path:url(#SVGID_4_);fill:none;stroke:#14171C;stroke-width:46.753;stroke-miterlimit:10;}
	.st5{clip-path:url(#SVGID_4_);fill:#14171C;}
</style>
<g>
	<defs>
		<rect id="SVGID_1_" y="50" width="1024" height="924"/>
	</defs>
	<clipPath id="SVGID_2_">
		<use xlink:href="#SVGID_1_"  style="overflow:visible;"/>
	</clipPath>
	<path class="st0" d="M-10009.65-1428.69c51.64,0,93.51,41.87,93.51,93.51v561.04c0,51.64-41.87,93.51-93.51,93.51h-561.04
		c-51.64,0-93.51-41.87-93.51-93.51v-561.04c0-51.64,41.87-93.51,93.51-93.51H-10009.65z"/>
	
		<ellipse transform="matrix(0.1602 -0.9871 0.9871 0.1602 -7301.8828 -11018.9258)" class="st1" cx="-10126.54" cy="-1218.3" rx="93.51" ry="93.51"/>
	
		<ellipse transform="matrix(0.9135 -0.4068 0.4068 0.9135 500.6635 110.3565)" class="st0" cx="509.85" cy="-1122.22" rx="116.88" ry="116.88"/>
	<path class="st0" d="M509.85-1449.49c180.7,0,327.27,146.57,327.27,327.27c0,47.46-10.05,92.34-28.29,133.01
		c-14.96,33.66-35.53,64.29-60.31,90.7L509.85-659.83L271.18-898.5c-24.78-26.42-45.35-57.04-60.31-90.7
		c-18.23-40.67-28.29-85.56-28.29-133.01C182.58-1302.92,329.15-1449.49,509.85-1449.49z"/>
	<path class="st0" d="M-12125.28-1137.97c6.43-22.32,15.19-43.97,26.79-64.45l-54.98-67.44c-15.15-18.58-13.79-45.66,3.18-62.6
		l39.44-39.46c16.97-16.95,44.02-18.33,62.6-3.18l67.44,54.98l0.05-0.09c20.31-11.22,41.84-20.34,64.5-26.65l8.81-86.56
		c2.43-23.87,22.54-42.01,46.52-42.01h55.8c23.98,0,44.09,18.14,46.52,42.01l8.81,86.56l0.07-0.05
		c22.32,6.45,43.97,15.22,64.47,26.79l67.44-54.98c18.58-15.15,45.63-13.77,62.6,3.18l39.44,39.46
		c16.97,16.95,18.33,44.02,3.18,62.6l-54.98,67.44l0.09,0.02c11.22,20.34,20.34,41.84,26.65,64.52l86.56,8.81
		c23.87,2.43,42.01,22.53,42.01,46.52v55.78c0,23.98-18.14,44.09-42.01,46.52l-86.56,8.81l0.05,0.09
		c-6.43,22.32-15.19,43.97-26.79,64.45l54.98,67.44c15.15,18.58,13.79,45.65-3.18,62.6l-39.44,39.46
		c-16.97,16.95-44.02,18.33-62.6,3.15l-67.44-54.96l-0.05,0.09c-20.32,11.22-41.84,20.34-64.5,26.65l-8.81,86.56
		c-2.43,23.87-22.53,42.01-46.52,42.01h-55.8c-23.99,0-44.09-18.14-46.52-42.01l-8.81-86.56l-0.07,0.02
		c-22.32-6.43-43.97-15.19-64.47-26.77l-67.44,54.96c-18.58,15.17-45.63,13.79-62.6-3.15l-39.44-39.46
		c-16.97-16.95-18.33-44.02-3.18-62.6l54.98-67.44l-0.09-0.02c-11.22-20.34-20.36-41.84-26.67-64.52l-86.54-8.81
		c-23.87-2.43-42.03-22.54-42.03-46.52v-55.78c0-23.98,18.16-44.09,42.03-46.52l86.54-8.81L-12125.28-1137.97z"/>
	
		<ellipse transform="matrix(0.971 -0.2389 0.2389 0.971 -90.7203 -2857.7307)" class="st0" cx="-11833.04" cy="-1054.66" rx="140.26" ry="140.26"/>
	<path class="st0" d="M-4170.32-1433.74l-313.81,254.97c-5.45,4.42-8.63,11.08-8.63,18.14v479.78c0,12.9,10.45,23.38,23.38,23.38
		h210.39c12.93,0,23.38-10.47,23.38-23.38v-303.9c0-12.93,10.45-23.38,23.38-23.38h187.01c12.93,0,23.38,10.45,23.38,23.38v303.9
		c0,12.9,10.45,23.38,23.38,23.38h210.39c12.93,0,23.38-10.47,23.38-23.38v-479.78c0-7.06-3.18-13.72-8.63-18.14l-313.81-254.97
		C-4097.2-1458.17-4140.26-1458.17-4170.32-1433.74z"/>
	
		<ellipse transform="matrix(0.2832 -0.9591 0.9591 0.2832 -5442.7295 -9391.7236)" class="st1" cx="-9004.46" cy="-1054.66" rx="140.26" ry="140.26"/>
	
		<ellipse transform="matrix(0.2669 -0.9637 0.9637 0.2669 -4959.666 -9143.7471)" class="st1" cx="-8490.17" cy="-1311.8" rx="140.26" ry="140.26"/>
	
		<ellipse transform="matrix(0.2508 -0.968 0.968 0.2508 -5588.479 -8816.1943)" class="st1" cx="-8490.17" cy="-797.52" rx="140.26" ry="140.26"/>
	<path class="st0" d="M813.75,231.06v584.42c0,51.64-41.87,93.51-93.51,93.51H299.47c-51.64,0-93.51-41.87-93.51-93.51V231.06"/>
	<line class="st0" x1="89.07" y1="231.06" x2="930.64" y2="231.06"/>
	<path class="st0" d="M650.11,231.06H369.59v-70.13c0-25.81,20.95-46.75,46.75-46.75h187.01c25.81,0,46.75,20.95,46.75,46.75V231.06
		z"/>
</g>
<line class="st2" x1="509.85" y1="347.94" x2="509.85" y2="792.1"/>
<line class="st2" x1="650.11" y1="347.94" x2="650.11" y2="792.1"/>
<line class="st2" x1="369.59" y1="347.94" x2="369.59" y2="792.1"/>
<g>
	<defs>
		<rect id="SVGID_3_" y="50" width="1024" height="924"/>
	</defs>
	<clipPath id="SVGID_4_">
		<use xlink:href="#SVGID_3_"  style="overflow:visible;"/>
	</clipPath>
	<path class="st3" d="M-7344.71-1405.31h-327.27c-51.64,0-93.51,41.87-93.51,93.51v561.04c0,51.64,41.87,93.51,93.51,93.51h561.04
		c51.64,0,93.51-41.87,93.51-93.51v-327.27"/>
	<path class="st3" d="M-6970.69-1171.54v-257.14c0-12.9-10.47-23.38-23.38-23.38h-257.14"/>
	<path class="st3" d="M-5801.85-1405.31h-327.27c-51.64,0-93.51,41.87-93.51,93.51v561.04c0,51.64,41.87,93.51,93.51,93.51h561.04
		c51.64,0,93.51-41.87,93.51-93.51v-327.27"/>
	<path class="st3" d="M-5918.73-1241.67v257.14c0,12.9,10.47,23.38,23.38,23.38h257.14"/>
	<circle class="st3" cx="-2575.87" cy="-1101.41" r="327.27"/>
	<circle class="st3" cx="-1056.38" cy="-1054.66" r="350.65"/>
	<path class="st3" d="M-858.02-1418.31l21.36-14.26c45.26-30.16,105.5-24.19,143.93,14.26c38.45,38.46,44.42,98.67,14.26,143.91
		l-14.26,21.39"/>
	<path class="st3" d="M-1254.74-1418.31l-21.37-14.26c-45.26-30.16-105.5-24.19-143.93,14.26c-38.45,38.46-44.42,98.67-14.26,143.91
		l14.26,21.39"/>
	<path class="st3" d="M2192.98-680.63h-607.79c-51.64,0-93.51-41.87-93.51-93.51v-561.04c0-51.64,41.87-93.51,93.51-93.51h607.79
		c51.64,0,93.51,41.87,93.51,93.51v561.04C2286.48-722.5,2244.62-680.63,2192.98-680.63z"/>
	<path class="st3" d="M1702.07-1007.91h-93.51c-12.93,0-23.38-10.47-23.38-23.38v-93.51c0-12.9,10.45-23.38,23.38-23.38h93.51
		c12.93,0,23.38,10.48,23.38,23.38v93.51C1725.44-1018.38,1714.99-1007.91,1702.07-1007.91z"/>
	<path class="st3" d="M1935.83-1007.91h-93.51c-12.93,0-23.38-10.47-23.38-23.38v-93.51c0-12.9,10.45-23.38,23.38-23.38h93.51
		c12.93,0,23.38,10.48,23.38,23.38v93.51C1959.21-1018.38,1948.76-1007.91,1935.83-1007.91z"/>
	<path class="st3" d="M2169.6-1007.91h-93.51c-12.93,0-23.38-10.47-23.38-23.38v-93.51c0-12.9,10.45-23.38,23.38-23.38h93.51
		c12.93,0,23.38,10.48,23.38,23.38v93.51C2192.98-1018.38,2182.53-1007.91,2169.6-1007.91z"/>
	<path class="st3" d="M1702.07-774.14h-93.51c-12.93,0-23.38-10.47-23.38-23.38v-93.51c0-12.9,10.45-23.38,23.38-23.38h93.51
		c12.93,0,23.38,10.47,23.38,23.38v93.51C1725.44-784.61,1714.99-774.14,1702.07-774.14z"/>
	<path class="st3" d="M1935.83-774.14h-93.51c-12.93,0-23.38-10.47-23.38-23.38v-93.51c0-12.9,10.45-23.38,23.38-23.38h93.51
		c12.93,0,23.38,10.47,23.38,23.38v93.51C1959.21-784.61,1948.76-774.14,1935.83-774.14z"/>
	<path class="st3" d="M2169.6-774.14h-93.51c-12.93,0-23.38-10.47-23.38-23.38v-93.51c0-12.9,10.45-23.38,23.38-23.38h93.51
		c12.93,0,23.38,10.47,23.38,23.38v93.51C2192.98-784.61,2182.53-774.14,2169.6-774.14z"/>
	
		<ellipse transform="matrix(0.7071 -0.7071 0.7071 0.7071 -3276.4844 -7167.4951)" class="st4" cx="-10290.17" cy="371.32" rx="397.4" ry="397.4"/>
	
		<ellipse transform="matrix(0.7071 -0.7071 0.7071 0.7071 -3728.3782 -8258.4629)" class="st4" cx="-11833.04" cy="371.32" rx="397.4" ry="397.4"/>
	<path class="st3" d="M-7596.18,651.84l350.91-607.79c18-31.16,63-31.16,80.98,0l350.91,607.79c18,31.16-4.49,70.13-40.49,70.13
		h-701.81C-7591.69,721.97-7614.18,683-7596.18,651.84z"/>
	<path class="st5" d="M-7169.72,605.09c0,19.38-15.69,35.06-35.07,35.06c-19.36,0-35.06-15.68-35.06-35.06
		c0-19.38,15.71-35.07,35.06-35.07C-7185.4,570.02-7169.72,585.71-7169.72,605.09"/>
	<path class="st4" d="M-5427.82,792.1h-467.53c-51.64,0-93.51-41.87-93.51-93.51V394.7c0-51.64,41.87-93.51,93.51-93.51h467.53
		c51.64,0,93.51,41.87,93.51,93.51v303.9C-5334.32,750.23-5376.19,792.1-5427.82,792.1z"/>
	<path class="st4" d="M-5451.2,301.19h-420.78V137.55c0-116.2,94.18-210.39,210.39-210.39c116.2,0,210.39,94.18,210.39,210.39
		V301.19z"/>
	<path class="st4" d="M-3884.96,792.1h-467.53c-51.64,0-93.51-41.87-93.51-93.51V394.7c0-51.64,41.87-93.51,93.51-93.51h467.53
		c51.64,0,93.51,41.87,93.51,93.51v303.9C-3791.46,750.23-3833.32,792.1-3884.96,792.1z"/>
	<path class="st4" d="M-4329.12,301.19V137.55c0-116.2,94.18-210.39,210.39-210.39c116.21,0,210.39,94.18,210.39,210.39v23.38"/>
	<line class="st4" x1="-8653.81" y1="-2.71" x2="-8653.81" y2="415.99"/>
	<path class="st4" d="M-8453.94,132.22c91.17,63.12,150.78,168.5,150.78,287.93c0,193.7-156.97,350.65-350.65,350.65
		c-193.68,0-350.65-156.95-350.65-350.65c0-119.43,59.61-224.81,150.78-287.93"/>
</g>
</svg>
