<?xml version="1.0" encoding="utf-8"?>
<!-- Generator: Adobe Illustrator 24.3.0, SVG Export Plug-In . SVG Version: 6.00 Build 0)  -->
<svg version="1.1" id="Laag_1" xmlns="http://www.w3.org/2000/svg" xmlns:xlink="http://www.w3.org/1999/xlink" x="0px" y="0px"
	 viewBox="0 0 1024 1024" style="enable-background:new 0 0 1024 1024;" xml:space="preserve">
<style type="text/css">
	.st0{clip-path:url(#SVGID_2_);}
</style>
<g>
	<defs>
		<rect id="SVGID_1_" x="64" y="210" width="886.9" height="557.22"/>
	</defs>
	<clipPath id="SVGID_2_">
		<use xlink:href="#SVGID_1_"  style="overflow:visible;"/>
	</clipPath>
	<path class="st0" d="M512.95,707.28c0,10.08-8.17,18.25-18.25,18.25c-10.08,0-18.25-8.17-18.25-18.25
		c0-10.08,8.17-18.25,18.25-18.25C504.78,689.03,512.95,697.2,512.95,707.28 M841.41,725.53c10.08,0,18.25-8.17,18.25-18.25
		c0-10.08-8.17-18.25-18.25-18.25s-18.25,8.17-18.25,18.25C823.17,717.36,831.34,725.53,841.41,725.53 M950.9,553.81v32.84
		c0,16.1-13.1,29.2-29.2,29.2H820.57l-121.69,37.71l93.91,29.1c9.05-17.79,27.34-30.12,48.63-30.12c30.19,0,54.74,24.56,54.74,54.74
		s-24.56,54.56-54.74,54.56c-27.06,0-49.45-19.6-53.82-45.43H548.53c-4.38,25.83-26.76,45.43-53.82,45.43
		c-30.19,0-54.74-24.37-54.74-54.56s24.56-54.74,54.74-54.74c21.29,0,39.58,12.34,48.63,30.12l93.91-29.1l-121.69-37.71H414.42
		c-16.1,0-29.2-13.1-29.2-29.2v-32.84c0-16.1,13.1-29.2,29.2-29.2h19.48l-36.51-26.19c-13.08-9.38-16.08-27.67-6.7-40.75l8.51-11.86
		c4.54-6.33,11.28-10.52,18.98-11.79c4.33-0.73,8.64-0.36,12.74,0.81c-0.76-3.78-1.18-7.69-1.18-11.69
		c0-32.7,26.61-59.31,59.3-59.31c32.7,0,59.31,26.61,59.31,59.31c0,29.3-21.41,53.54-49.37,58.3l41.36,29.66v-9.81
		c0-15.32,6.44-30.08,17.67-40.51c11.22-10.42,26.44-15.66,41.69-14.61l28.91,1.54V246.5h-45.62v18.25h7.3
		c11.09,0,20.07,8.99,20.07,20.07v51.09c0,11.09-8.99,20.07-20.07,20.07h-7.3v56.57c0,5.04-4.08,9.12-9.12,9.12
		c-5.04,0-9.12-4.08-9.12-9.12v-56.57h-7.3c-11.09,0-20.07-8.99-20.07-20.07v-51.09c0-11.08,8.99-20.07,20.07-20.07h7.3V246.5h-36.5
		c-5.02,0-9.12-4.11-9.12-9.12s4.11-9.12,9.12-9.12h100.36v-9.12c0-5.02,4.11-9.12,9.12-9.12s9.12,4.11,9.12,9.12v9.12h9.12
		c5.02,0,9.12,4.11,9.12,9.12s-4.11,9.12-9.12,9.12h-9.12v202.37l121.83,7.81c34.63,2.58,51.66-2.11,85.03-14.26
		c13.87-5.05,29.34-3,41.42,5.46c12.08,8.47,19.29,22.32,19.29,37.07v39.66h7.3C937.8,524.61,950.9,537.71,950.9,553.81
		 M562.9,282.99c-4.03,0-7.3,3.27-7.3,7.3v40.14c0,4.03,3.27,7.3,7.3,7.3h21.9c4.03,0,7.3-3.27,7.3-7.3v-40.14
		c0-4.03-3.27-7.3-7.3-7.3H562.9z M531.2,707.28c0-20.13-16.37-36.49-36.49-36.49c-20.13,0-36.5,16.37-36.5,36.49
		c0,20.13,16.37,36.5,36.5,36.5C514.83,743.77,531.2,727.41,531.2,707.28 M804.92,707.28c0,20.13,16.37,36.5,36.5,36.5
		s36.49-16.37,36.49-36.5c0-20.13-16.37-36.49-36.49-36.49S804.92,687.15,804.92,707.28 M640.69,488.12h72.99
		c15.05,0,27.37,12.32,27.37,27.37c0,15.05-12.32,27.37-27.37,27.37h-54.74h-18.25v13.5c0,2.62,2.13,4.75,4.75,4.75h245.97
		c2.62,0,4.75-2.13,4.75-4.75v-13.5v-18.25v-39.66c0-8.93-4.2-16.99-11.51-22.12c-7.31-5.14-16.35-6.33-24.71-3.27
		c-35.23,12.8-54.64,18.1-92.5,15.32l-126.74-7.86V488.12z M558.57,515.49c0,4.95,4.18,9.12,9.12,9.12h91.24h54.74
		c4.94,0,9.12-4.18,9.12-9.12c0-4.94-4.18-9.12-9.12-9.12H595.07c-5.02,0-9.12-4.11-9.12-9.12s4.11-9.12,9.12-9.12h27.37v-22.23
		l-23.99-1.49c-10.57-0.85-20.42,2.69-28.04,9.78c-7.63,7.08-11.83,16.72-11.83,27.13V515.49z M447.97,423.15
		c0,22.64,18.42,41.06,41.06,41.06c22.64,0,41.06-18.42,41.06-41.06c0-22.64-18.42-41.06-41.06-41.06
		C466.39,382.09,447.97,400.51,447.97,423.15 M465.2,524.61h62.62l-98.54-70.67c-2.38-1.7-5.32-2.42-8.15-1.91
		c-2.89,0.48-5.42,2.05-7.12,4.43l-8.51,11.86c-3.52,4.9-2.39,11.76,2.51,15.28L465.2,524.61z M668.06,663.11l-113.09,35.04h226.18
		L668.06,663.11z M758.93,615.85H577.19l90.87,28.16L758.93,615.85z M932.65,553.81c0-6.04-4.91-10.95-10.95-10.95h-7.3v18.11
		c0,10.16-8.23,18.39-18.39,18.39H640.83c-10.16,0-18.39-8.23-18.39-18.39v-18.11H414.42c-6.04,0-10.95,4.91-10.95,10.95v32.84
		c0,6.04,4.91,10.95,10.95,10.95H921.7c6.04,0,10.95-4.91,10.95-10.95V553.81z"/>
	<path class="st0" d="M303.07,271.72c-9.73-10.78-23.66-17.7-39.32-17.7c-29.34,0-53.45,23.74-53.45,53.11
		c0,29.29,24.11,53.07,53.45,53.07c29.31,0,53.07-23.78,53.07-53.07c0-6.24-1.28-12.15-3.25-17.71
		C309.19,277.62,303.07,271.72,303.07,271.72 M263.75,271.72c19.51,0,35.38,15.88,35.38,35.41c0,19.51-15.87,35.38-35.38,35.38
		c-19.53,0-35.76-15.86-35.76-35.38C227.99,287.61,244.22,271.72,263.75,271.72 M386.12,484.25c-1.99-6.74-6.55-12.72-13.2-16.33
		l-54.85-29.74l-19.39-32.02l-6.19-10.2c-6.77-11.21-18.92-18.06-32.02-18.06h-6.36h-27.58c-15.64,0-29.33,10.52-33.35,25.63
		l-30.16,113.21l-0.52,1.92c-4.29,16.09-5.18,32.66-5.2,49.3v0.85l-0.09,55.98l-49.85,97.67c-7.61,15.33-1.38,33.91,13.95,41.53
		c4.42,2.2,9.12,3.23,13.76,3.23c11.39,0,22.35-6.29,27.75-17.18l53.01-104.17c2.11-4.27,3.32-8.97,3.32-13.74v-55.32l41.2,62.78
		l12.12,99.66c1.9,15.73,15.26,27.25,30.71,27.25c1.24,0,2.49-0.07,3.75-0.23c16.99-2.06,29.08-17.47,27.03-34.46l-13-106.87
		c-0.57-4.75-2.23-9.3-4.86-13.29l-55.77-84.87l13.62-55.56l1,1.66c2.52,4.18,6.12,7.6,10.4,9.94l61.4,33.3
		c4.15,2.26,8.64,3.34,13.05,3.34c9.73,0,19.17-5.2,24.14-14.36c0.55-1.02,0.9-2.11,1.31-3.16 M359.8,501.78
		c-1.61,0-3.16-0.4-4.58-1.17l-61.44-33.32c-1.5-0.83-2.78-2.06-3.68-3.53l-11.3-18.72c-1.99-3.27-5.74-5.03-9.54-4.46
		c-3.78,0.59-6.84,3.39-7.76,7.1l-18.36,74.89c-1.17,4.78-0.3,9.83,2.39,13.94l55.77,84.87c1.12,1.71,1.83,3.68,2.07,5.68l13,106.89
		c0.9,7.26-4.32,13.88-11.58,14.76l-1.62,0.1c-6.69,0-12.34-5.03-13.13-11.68l-12.62-103.78l-53.23-81.14
		c-3.01-4.58-8.66-6.64-13.89-5.08c-5.25,1.57-8.85,6.39-8.85,11.85v73.14c0,1.88-0.52,3.91-1.47,5.86l-52.94,104.04
		c-2.32,4.68-6.88,7.5-11.98,7.5c-2.06,0-4.03-0.47-5.89-1.38c-6.53-3.27-9.23-11.25-5.96-17.82l51.69-101.27v-60.21
		c0.02-14.53,0.67-30.54,4.7-45.62l30.66-115.13c1.97-7.36,8.64-12.49,16.26-12.49h33.94c6.86,0,13.34,3.65,16.89,9.52l28.07,46.33
		l59.07,32.02c3.42,1.85,5.22,5.5,4.99,9.16c-0.02,0.16-0.09,0.29-0.09,0.47c0,0.07,0.03,0.12,0.03,0.19
		c-0.16,1.14-0.45,2.3-1.04,3.39C366.66,499.83,363.38,501.78,359.8,501.78"/>
	<path class="st0" d="M790.26,311.84c5.02,0,9.12-4.11,9.12-9.12v-36.5c0-5.02-4.11-9.12-9.12-9.12c-5.02,0-9.12,4.1-9.12,9.12v36.5
		C781.14,307.74,785.25,311.84,790.26,311.84"/>
	<path class="st0" d="M699.02,366.59h36.5c5.02,0,9.12-4.11,9.12-9.12s-4.11-9.12-9.12-9.12h-36.5c-5.02,0-9.12,4.11-9.12,9.12
		S694.01,366.59,699.02,366.59"/>
	<path class="st0" d="M99.49,513.3h36.5c5.02,0,9.12-4.11,9.12-9.12s-4.1-9.12-9.12-9.12h-36.5c-5.02,0-9.12,4.11-9.12,9.12
		S94.47,513.3,99.49,513.3"/>
	<path class="st0" d="M73.12,557.26h56.79c5.02,0,9.12-4.11,9.12-9.12c0-5.02-4.11-9.12-9.12-9.12H73.12
		c-5.02,0-9.12,4.11-9.12,9.12C64,553.16,68.1,557.26,73.12,557.26"/>
	<path class="st0" d="M94.94,602.74h36.5c5.02,0,9.12-4.11,9.12-9.12c0-5.02-4.1-9.12-9.12-9.12h-36.5c-5.02,0-9.12,4.11-9.12,9.12
		C85.81,598.64,89.92,602.74,94.94,602.74"/>
	<path class="st0" d="M747.33,327.43c3.55,3.55,9.35,3.55,12.9,0c3.55-3.55,3.55-9.36,0-12.9l-25.81-25.81
		c-3.55-3.55-9.35-3.55-12.9,0c-3.55,3.55-3.55,9.35,0,12.9L747.33,327.43z"/>
	<path class="st0" d="M883.36,366.59h-36.5c-5.02,0-9.12-4.11-9.12-9.12s4.11-9.12,9.12-9.12h36.5c5.02,0,9.12,4.11,9.12,9.12
		S888.37,366.59,883.36,366.59"/>
	<path class="st0" d="M835.05,327.43c-3.55,3.55-9.35,3.55-12.9,0c-3.55-3.55-3.55-9.36,0-12.9l25.81-25.81
		c3.55-3.55,9.35-3.55,12.9,0c3.55,3.55,3.55,9.35,0,12.9L835.05,327.43z"/>
	<path class="st0" d="M817.64,357.46c0-15.05-12.32-27.37-27.37-27.37s-27.37,12.32-27.37,27.37v10.08l18.25-0.32v-9.76
		c0-4.94,4.18-9.12,9.12-9.12c4.95,0,9.12,4.18,9.12,9.12v10.23l18.25-0.32V357.46z"/>
</g>
</svg>
