<?xml version="1.0" encoding="utf-8"?>
<!-- Generator: Adobe Illustrator 24.3.0, SVG Export Plug-In . SVG Version: 6.00 Build 0)  -->
<svg version="1.1" id="Laag_1" xmlns="http://www.w3.org/2000/svg" xmlns:xlink="http://www.w3.org/1999/xlink" x="0px" y="0px"
	 viewBox="0 0 1024 1024" style="enable-background:new 0 0 1024 1024;" xml:space="preserve">
<style type="text/css">
	.st0{clip-path:url(#SVGID_2_);}
</style>
<g>
	<defs>
		<rect id="SVGID_1_" y="50" width="1024" height="924"/>
	</defs>
	<clipPath id="SVGID_2_">
		<use xlink:href="#SVGID_1_"  style="overflow:visible;"/>
	</clipPath>
	<path class="st0" d="M860.51,297.37H737.71V128.6c0-11.29-9.23-20.52-20.52-20.52H306.81c-11.29,0-20.52,9.23-20.52,20.52v168.77
		H163.49c-45.45,0-82.38,36.93-82.38,82.38v290.75c0,45.45,36.93,82.49,82.38,82.49h58.48c11.29,0,20.52-9.23,20.52-20.52
		c0-11.39-9.23-20.52-20.52-20.52h-58.48c-22.78,0-41.35-18.57-41.35-41.45V379.76c0-22.88,18.57-41.35,41.35-41.35h696.92
		c22.78,0,41.35,18.57,41.35,41.35v290.75c0,22.88-18.57,41.45-41.35,41.45h-58.58c-11.39,0-20.52,9.13-20.52,20.52
		c0,11.29,9.13,20.52,20.52,20.52h58.58c45.45,0,82.39-37.04,82.39-82.49V379.76C942.9,334.31,905.96,297.37,860.51,297.37
		 M327.33,149.12h369.34v148.25H327.33V149.12z M661.58,804.6c0,11.39-9.13,20.52-20.52,20.52H382.94
		c-11.29,0-20.52-9.13-20.52-20.52c0-11.29,9.23-20.52,20.52-20.52h258.03C652.35,784.08,661.58,793.31,661.58,804.6 M362.42,701.39
		c0-11.29,9.23-20.52,20.52-20.52h258.03c11.28,0,20.52,9.23,20.52,20.52c0,11.39-9.23,20.52-20.52,20.52H382.94
		C371.65,721.91,362.42,712.78,362.42,701.39 M773.82,616.85c11.29,0,20.52-9.23,20.52-20.52c0-11.39-9.23-20.52-20.52-20.52H250.18
		c-11.29,0-20.52,9.13-20.52,20.52c0,11.28,9.23,20.52,20.52,20.52h25.55V895.5c0,11.39,9.23,20.52,20.52,20.52h431.41
		c11.28,0,20.52-9.13,20.52-20.52V616.85H773.82z M707.14,874.88H316.76V616.75h390.37V874.88z M752.48,431.05
		c-11.39,0-20.52-9.23-20.52-20.52c0-11.28,9.13-20.52,20.52-20.52h70.89c11.29,0,20.52,9.23,20.52,20.52
		c0,11.29-9.23,20.52-20.52,20.52H752.48z"/>
</g>
</svg>
