<?xml version="1.0" encoding="utf-8"?>
<!-- Generator: Adobe Illustrator 24.3.0, SVG Export Plug-In . SVG Version: 6.00 Build 0)  -->
<svg version="1.1" id="Laag_1" xmlns="http://www.w3.org/2000/svg" xmlns:xlink="http://www.w3.org/1999/xlink" x="0px" y="0px"
	 viewBox="0 0 1024 1024" style="enable-background:new 0 0 1024 1024;" xml:space="preserve">
<style type="text/css">
	.st0{clip-path:url(#SVGID_2_);}
</style>
<g>
	<defs>
		<rect id="SVGID_1_" x="172" y="50.01" width="802" height="923.99"/>
	</defs>
	<clipPath id="SVGID_2_">
		<use xlink:href="#SVGID_1_"  style="overflow:visible;"/>
	</clipPath>
	<path class="st0" d="M4809.48,832.82c-13.11,0-32.15-10.5-171.72-150.88c-8.28-8.32-14.31-14.39-17.05-17.05
		c-36.22-34.98-53.3-87.76-45.76-141.13c9.38-66.33,57.73-118.63,117.53-127.2c43.9-6.35,87.07,10.97,117.01,45.79
		c12.79-14.9,28.14-26.77,45.26-34.92c22.38-10.6,47.17-14.38,71.74-10.87c34.08,4.88,65.18,24.05,87.56,53.97
		c15.81,21.14,26.17,46.46,29.98,73.23c7.55,53.37-9.55,106.14-45.76,141.13c-2.77,2.67-8.9,8.85-17.28,17.28l-14.13,14.2
		l-74.2,72.88c-0.07,0.07-0.13,0.13-0.2,0.18C4825.9,832.82,4817.55,832.82,4809.48,832.82 M4710.19,428.71
		c-4.29,0-8.63,0.3-12.98,0.92c-45.19,6.48-81.86,47.11-89.19,98.81c-6.06,42.82,7.36,84.85,35.9,112.44
		c2.81,2.72,9.02,8.97,17.5,17.5c81.04,81.49,130.72,128.33,147.96,139.51c6.36-4.28,22.29-16.7,59.97-52.55l87.96-86.72
		c8.62-8.65,14.91-14.98,17.75-17.73c28.54-27.59,41.95-69.62,35.89-112.44c-3.01-21.23-11.19-41.23-23.65-57.9
		c-17.02-22.78-40.29-37.31-65.54-40.91c-18.25-2.61-36,0.07-52.67,7.98c-18.19,8.65-33.87,23.08-45.37,41.75
		c-6.06,9.85-22.33,9.89-28.44,0C4775.55,447.31,4743.77,428.71,4710.19,428.71 M4880.96,757.34h0.17H4880.96z"/>
	<path class="st0" d="M4809.5,987.08c-230.2,0-417.48-187.28-417.48-417.48c0-230.2,187.28-417.48,417.48-417.48
		c230.2,0,417.48,187.28,417.48,417.48C5226.98,799.79,5039.7,987.08,4809.5,987.08 M4809.5,185.51
		c-211.8,0-384.09,172.3-384.09,384.09c0,211.78,172.29,384.09,384.09,384.09c211.8,0,384.08-172.3,384.08-384.09
		C5193.58,357.81,5021.29,185.51,4809.5,185.51"/>
	<path class="st0" d="M319.03,358.98c-3.91,0-7.73-1.37-10.8-3.96c-4.58-3.89-6.73-9.92-5.61-15.83
		c10.39-55.27,37.09-103.9,75.21-136.93c4.81-4.16,11.57-5.26,17.43-2.76c5.86,2.49,9.82,8.07,10.17,14.41
		c2.51,43.35,37.77,77.52,80.89,79.01c2.82-0.07,5.66-0.12,8.52-0.13c42.15-2.77,75.98-36.59,78.1-79.27
		c0.32-6.36,4.23-11.99,10.07-14.51c5.83-2.54,12.64-1.5,17.47,2.67c37.74,32.35,64.48,80.09,75.27,134.45
		c1.18,5.96-0.99,12.11-5.65,16.03c-4.68,3.91-11.12,4.96-16.77,2.79c-54.82-21.24-108.35-28.57-157.88-28.74
		c-2.91,0.17-5.81,0.2-8.7,0.13c-62.82,1.57-118.72,15.87-162.02,31.63C322.88,358.65,320.95,358.98,319.03,358.98 M378.88,249
		c-15.7,19.22-28.02,42.27-36.2,67.77c21.96-6.73,46.19-12.71,72.17-17.02C398.72,286.51,386.16,269.04,378.88,249 M566.18,297.68
		c22.54,3.29,45.61,8.37,68.98,15.6c-8.22-24.31-20.27-46.34-35.44-64.76C592.91,267.74,581.22,284.6,566.18,297.68"/>
	<path class="st0" d="M489.52,620.56c-32.65,0-64.83-10.02-93.08-28.92c-60.75-40.61-98.49-117.98-98.49-201.88
		c0-16.62,1.57-33.6,4.64-50.48c1.07-5.83,5.16-10.65,10.72-12.69c84.47-30.74,214.09-56.23,352.07-2.81
		c5.34,2.07,9.25,6.75,10.37,12.36c3.54,18.05,5.34,36.09,5.34,53.62c0,83.91-37.76,161.27-98.51,201.88
		C554.35,610.54,522.15,620.56,489.52,620.56 M333.9,354.73c-1.7,11.76-2.56,23.5-2.56,35.04c0,72.89,32.06,139.61,83.66,174.11
		c46.16,30.93,102.89,30.93,148.99,0c51.63-34.48,83.7-101.2,83.7-174.11c0-12.44-1.05-25.23-3.12-38.11
		C524.38,308.12,411.14,328.12,333.9,354.73"/>
	<path class="st0" d="M489.26,326.37c-62.12,0-113.61-48.56-117.18-110.53c-0.23-1.49-0.28-4.22-0.28-6.93
		c0-64.69,52.7-117.33,117.46-117.33c64.69,0,117.33,52.64,117.33,117.33c0,2.39-0.07,4.76-0.33,7
		C602.78,277.91,551.53,326.37,489.26,326.37 M489.26,124.98c-46.34,0-84.07,37.66-84.07,83.93c0,1.29-0.05,2.54,0.13,3.81
		c2.65,45.52,39.48,80.26,83.93,80.26c44.69,0,81.46-34.9,83.68-79.46c0.03-0.58,0.08-1.17,0.17-1.75c0.15-0.89,0.08-1.87,0.08-2.86
		C573.19,162.64,535.53,124.98,489.26,124.98"/>
	<path class="st0" d="M790.34,926.55H188.7c-9.22,0-16.7-7.47-16.7-16.7V749.04c0-61.37,38.68-116.99,96.27-138.42l131.67-48.53
		c5.06-1.82,10.64-1.17,15.08,1.79c46.12,30.93,102.87,30.93,148.99,0c4.44-2.96,10.05-3.61,15.06-1.79l131.66,48.51
		c57.63,21.44,96.31,77.07,96.31,138.44v160.82C807.04,919.09,799.58,926.55,790.34,926.55 M205.4,893.15h568.25V749.04
		c0-47.49-29.94-90.53-74.51-107.11l-123.86-45.64c-52.84,31.83-118.63,31.85-171.52,0l-123.91,45.66
		c-44.5,16.57-74.45,59.6-74.45,107.09V893.15z"/>
	<path class="st0" d="M489.69,742.22c-4.21,0-8.6-1.59-11.69-4.44L346.56,616.12c-6.76-6.28-7.16-16.85-0.9-23.61
		c6.26-6.78,16.83-7.18,23.6-0.92l120.27,111.32l120.27-111.32c6.75-6.26,17.32-5.86,23.58,0.92c6.26,6.76,5.86,17.33-0.9,23.61
		L501.03,737.78C497.96,740.63,493.9,742.22,489.69,742.22"/>
	<path class="st0" d="M5675.31,950.67c-9.94,0-19.57-2.14-28.66-6.38c-16.47-7.65-28.96-21.26-35.17-38.31
		c-6.23-17.05-5.43-35.52,2.24-51.99l62.77-134.83l-51.4-109.52c-7.38-15.71-8.47-33.43-3.12-49.88l73.36-225.72
		c8.03-24.7,28.96-42.42,54.62-46.24c25.7-3.67,50.95,7.11,65.76,28.31l132.59,189.87c10.39,14.88,14.38,32.93,11.21,50.8
		c-3.17,17.88-13.13,33.45-28.02,43.85c-30.69,21.39-73.16,13.91-94.62-16.8l-54.44-77.95l-22.86,70.34l53.47,113.94
		c8.57,18.29,8.58,39.28,0.08,57.56l-76.18,163.65C5725.86,935.24,5701.66,950.67,5675.31,950.67 M5759.96,320.49
		c-1.7,0-3.42,0.12-5.14,0.37c-12.99,1.94-23.65,10.96-27.72,23.51l-73.34,225.73c-2.72,8.38-2.17,17.38,1.57,25.38l54.72,116.56
		c2.1,4.47,2.1,9.65,0.02,14.13L5644,868.09c-3.91,8.38-4.31,17.77-1.15,26.45c3.19,8.67,9.54,15.58,17.92,19.47
		c16.98,7.95,38.14-0.02,45.91-16.72l76.18-163.67c4.33-9.3,4.31-19.99-0.05-29.29l-56.28-119.9c-1.8-3.84-2.07-8.22-0.77-12.26
		l35.27-108.51c1.97-6.03,7.16-10.42,13.43-11.35c6.31-0.98,12.52,1.75,16.15,6.95l73.65,105.44c10.94,15.61,32.51,19.49,48.14,8.55
		c7.56-5.29,12.62-13.21,14.23-22.29c1.62-9.1-0.4-18.27-5.68-25.85l-132.63-189.85C5781.78,325.88,5771.23,320.49,5759.96,320.49"
		/>
	<path class="st0" d="M5996.68,950.68c-9.24,0-16.7-7.48-16.7-16.7V632.34c0-16.18-13.16-29.34-29.36-29.34
		c-16.2,0-29.36,13.16-29.36,29.34v14.29c0,9.23-7.46,16.7-16.7,16.7c-9.22,0-16.7-7.47-16.7-16.7v-14.29
		c0-34.6,28.16-62.74,62.76-62.74s62.76,28.14,62.76,62.74v301.64C6013.38,943.2,6005.92,950.68,5996.68,950.68"/>
	<path class="st0" d="M5823.22,265.72c-41.37,0-75-33.65-75-75.01c0-41.35,33.63-75,75-75c41.36,0,75.01,33.65,75.01,75
		C5898.23,232.07,5864.58,265.72,5823.22,265.72 M5823.22,149.11c-22.95,0-41.6,18.67-41.6,41.6c0,22.95,18.65,41.61,41.6,41.61
		c22.94,0,41.61-18.67,41.61-41.61C5864.83,167.78,5846.16,149.11,5823.22,149.11"/>
	<path class="st0" d="M2258.81,931.51c-9.22,0-16.7-7.48-16.7-16.7v-87.19c0-14.04-1.3-27.87-3.86-41.05
		c-13.98-72.67-63.37-132.64-132.16-160.45c-5.93-2.39-9.95-7.95-10.4-14.33c-0.43-6.36,2.79-12.43,8.32-15.61
		c49.1-28.32,79.61-81.04,79.61-137.55c0-87.64-71.26-158.95-158.83-158.95c-12.24,0-24.25,1.39-35.7,4.11
		c-72.53,16.72-123.11,80.39-123.11,154.84c0,56.53,30.49,109.23,79.59,137.55c5.53,3.19,8.77,9.25,8.32,15.63
		c-0.45,6.36-4.49,11.92-10.42,14.31c-82.63,33.35-136,112.44-136,201.49v87.19c0,9.22-7.48,16.7-16.7,16.7
		c-9.23,0-16.7-7.48-16.7-16.7v-87.19c0-92.68,50.1-175.98,129.87-219.66c-44.6-36.17-71.36-91.08-71.36-149.33
		c0-90.09,61.24-167.16,148.91-187.37c13.86-3.29,28.47-4.98,43.3-4.98c105.99,0,192.23,86.28,192.23,192.34
		c0,58.26-26.75,113.15-71.39,149.34c65.14,35.74,111.18,98.31,125.41,172.25c2.97,15.25,4.48,31.2,4.48,47.39v87.19
		C2275.51,924.03,2268.02,931.51,2258.81,931.51"/>
	<path class="st0" d="M2436.02,800.09c-9.22,0-16.7-7.48-16.7-16.7V696.2c0-89.07-53.44-168.16-136.13-201.48
		c-5.91-2.39-9.97-7.95-10.4-14.33c-0.45-6.36,2.77-12.44,8.32-15.63c49.16-28.37,79.72-81.08,79.72-137.55
		c0-87.64-71.26-158.94-158.83-158.94c-48.85,0-94.25,21.99-124.58,60.33c-5.71,7.23-16.22,8.48-23.45,2.74
		c-7.23-5.71-8.47-16.21-2.74-23.45c36.69-46.41,91.65-73.03,150.76-73.03c105.99,0,192.23,86.28,192.23,192.34
		c0,58.21-26.79,113.12-71.47,149.33c79.82,43.65,129.97,126.98,129.97,219.66v87.19C2452.72,792.61,2445.23,800.09,2436.02,800.09"
		/>
	<path class="st0" d="M1601.05,800.09c-9.22,0-16.7-7.48-16.7-16.7V696.2c0-92.68,50.15-176.01,129.97-219.66
		c-44.69-36.2-71.47-91.11-71.47-149.33c0-106.06,86.24-192.34,192.23-192.34c59.1,0,114.06,26.62,150.76,73.03
		c5.73,7.23,4.51,17.73-2.74,23.45c-7.23,5.74-17.72,4.51-23.45-2.74c-30.34-38.34-75.75-60.33-124.58-60.33
		c-87.57,0-158.83,71.31-158.83,158.94c0,56.48,30.56,109.18,79.72,137.55c5.53,3.19,8.77,9.27,8.32,15.63
		c-0.45,6.38-4.49,11.94-10.42,14.33c-82.68,33.32-136.12,112.4-136.12,201.48v87.19C1617.75,792.61,1610.27,800.09,1601.05,800.09"
		/>
	<path class="st0" d="M2254.61,800.09c-7.85,0-14.85-5.56-16.38-13.54c-13.96-72.64-63.36-132.61-132.14-160.41
		c-5.93-2.4-9.95-7.97-10.4-14.33c-0.43-6.36,2.79-12.44,8.32-15.61c49.1-28.34,79.61-81.04,79.61-137.55
		c0-87.64-71.26-158.94-158.83-158.94c-12.24,0-24.25,1.37-35.7,4.09c-8.97,2.07-17.97-3.41-20.11-12.39
		c-2.12-8.97,3.42-17.97,12.39-20.11c13.98-3.32,28.59-4.99,43.42-4.99c105.99,0,192.23,86.28,192.23,192.34
		c0,58.25-26.75,113.15-71.39,149.34c65.14,35.72,111.19,98.29,125.41,172.25c1.74,9.07-4.19,17.82-13.24,19.55
		C2256.72,799.99,2255.65,800.09,2254.61,800.09"/>
	<path class="st0" d="M3670,797.59h-174.16c-1.82,0-3.64-0.3-5.36-0.88c-115.98-39.39-193.9-148.29-193.9-270.95
		c0-9.23,7.48-16.7,16.7-16.7h74.19c9.24,0,16.7,7.47,16.7,16.7c0,98.63,80.19,178.88,178.73,178.88
		c98.64,0,178.9-80.26,178.9-178.88c0-75.88-48.14-143.66-119.78-168.66c-5.66-1.99-9.84-6.86-10.91-12.78
		c-1.1-5.89,1.08-11.92,5.68-15.8c13.06-10.96,20.54-26.99,20.54-44c0-3.37-0.35-6.75-0.92-10.02c-1-5.85,1.15-11.79,5.68-15.61
		c4.51-3.82,10.7-4.99,16.35-3.01c114.12,40.25,190.79,148.71,190.79,269.88c0,122.66-77.92,231.55-193.88,270.95
		C3673.64,797.29,3671.82,797.59,3670,797.59 M3498.64,764.2h168.55c101-35.5,168.65-130.99,168.65-238.43
		c0-98.83-57.73-188.07-145.9-229.17c-1.84,13.78-6.78,26.84-14.41,38.28c72.48,35.07,119.69,109.01,119.69,190.89
		c0,117.05-95.24,212.28-212.3,212.28c-111.35,0-202.93-86.3-211.48-195.58h-40.88C3337.13,643.01,3402.92,730.53,3498.64,764.2"/>
	<path class="st0" d="M3458.14,542.46h-211.41c-9.24,0-16.7-7.48-16.7-16.7c0-9.22,7.46-16.7,16.7-16.7h211.41
		c9.23,0,16.7,7.48,16.7,16.7C3474.83,534.98,3467.37,542.46,3458.14,542.46"/>
	<path class="st0" d="M3823.27,884.96h-480.72c-9.23,0-16.7-7.48-16.7-16.7v-17.68c0-47.63,38.76-86.39,86.4-86.39h341.49
		c47.56,0,86.23,38.76,86.23,86.39v17.68C3839.97,877.48,3832.5,884.96,3823.27,884.96 M3359.24,851.56h447.33v-0.98
		c0-29.22-23.7-52.99-52.84-52.99h-341.49c-29.22,0-53,23.76-53,52.99V851.56z"/>
	<path class="st0" d="M3464.11,402.2c-4.42,0-8.65-1.74-11.77-4.86l-77.37-76.93c-3.16-3.12-4.91-7.36-4.93-11.79
		c-0.02-4.42,1.74-8.68,4.86-11.82l217.61-218.63c6.51-6.53,17.08-6.56,23.61-0.05l77.22,76.78c6.55,6.5,6.58,17.07,0.07,23.61
		l-50.4,50.7c-4.98,5.03-12.61,6.35-19.04,3.31c-7.42-3.54-15.48-5.33-23.96-5.33c-31.61,0-57.33,25.72-57.33,57.33
		c0,8.7,1.82,16.88,5.41,24.31c3.11,6.38,1.82,14.01-3.17,19.05l-68.97,69.39c-3.12,3.14-7.36,4.91-11.79,4.93H3464.11z
		 M3410.37,308.52l53.67,53.37l49.48-49.8c-2.82-8.77-4.24-17.98-4.24-27.57c0-50.03,40.7-90.73,90.73-90.73
		c9.33,0,18.39,1.37,27.04,4.11l30.91-31.09l-53.54-53.24L3410.37,308.52z"/>
	<path class="st0" d="M3447.79,465.61c-4.26,0-8.52-1.62-11.77-4.86l-124.33-123.67c-3.16-3.12-4.91-7.36-4.93-11.81
		c-0.02-4.42,1.72-8.67,4.86-11.81l39.79-40.01c6.5-6.53,17.07-6.55,23.61-0.07l124.33,123.68c3.16,3.12,4.91,7.36,4.93,11.81
		c0.02,4.43-1.72,8.67-4.86,11.81l-39.79,40.01C3456.37,463.97,3452.08,465.61,3447.79,465.61 M3347.08,325.17l100.65,100.13
		l16.25-16.33l-100.65-100.13L3347.08,325.17z"/>
	<path class="st0" d="M3365.28,465.41c-4.43,0-8.65-1.74-11.77-4.86l-41.18-40.95c-3.16-3.12-4.91-7.36-4.93-11.81
		c-0.02-4.42,1.72-8.67,4.86-11.81l40.95-41.16c6.51-6.55,17.08-6.56,23.61-0.07l41.16,40.95c6.55,6.51,6.58,17.08,0.07,23.61
		l-40.93,41.16c-3.12,3.14-7.38,4.91-11.79,4.93H3365.28z M3347.71,407.69l17.5,17.4l17.38-17.48l-17.48-17.4L3347.71,407.69z"/>
	<path class="st0" d="M3663.59,165.5c-4.26,0-8.52-1.64-11.77-4.86l-41.16-40.95c-3.16-3.12-4.91-7.36-4.93-11.81
		c-0.02-4.42,1.74-8.67,4.86-11.81l40.95-41.16c6.51-6.55,17.08-6.56,23.61-0.07l41.16,40.95c3.14,3.12,4.91,7.36,4.93,11.79
		c0.02,4.42-1.75,8.68-4.86,11.82l-40.95,41.16C3672.15,163.85,3667.88,165.5,3663.59,165.5 M3646.04,107.79l17.48,17.4l17.4-17.48
		l-17.48-17.4L3646.04,107.79z"/>
	<path class="st0" d="M3600.01,375.26c-34.94,0-67.15-20.42-82.04-52.03c-5.74-11.84-8.7-24.91-8.7-38.69
		c0-50.05,40.71-90.74,90.75-90.74c13.49,0,26.38,2.89,38.34,8.58c26.8,12.42,45.92,37.27,50.98,66.38
		c0.92,5.36,1.4,10.65,1.4,15.78c0,26.9-11.84,52.25-32.48,69.59C3641.85,367.76,3621.19,375.26,3600.01,375.26 M3600.01,227.19
		c-31.63,0-57.35,25.73-57.35,57.35c0,8.7,1.84,16.87,5.43,24.3c9.64,20.42,29.51,33.03,51.92,33.03c13.56,0,26.32-4.63,36.84-13.39
		c12.99-10.89,20.49-26.94,20.49-43.94c0-3.39-0.35-6.76-0.92-10.04v-0.02c-3.17-18.34-15.25-34-32.28-41.88
		C3616.55,228.98,3608.5,227.19,3600.01,227.19"/>
</g>
</svg>
