<?xml version="1.0" encoding="utf-8"?>
<!-- Generator: Adobe Illustrator 24.3.0, SVG Export Plug-In . SVG Version: 6.00 Build 0)  -->
<svg version="1.1" id="Laag_1" xmlns="http://www.w3.org/2000/svg" xmlns:xlink="http://www.w3.org/1999/xlink" x="0px" y="0px"
	 viewBox="0 0 1024 1024" style="enable-background:new 0 0 1024 1024;" xml:space="preserve">
<style type="text/css">
	.st0{clip-path:url(#SVGID_2_);fill:none;stroke:#010202;stroke-width:33.999;stroke-linecap:round;stroke-miterlimit:10;}
	.st1{clip-path:url(#SVGID_2_);fill:#010202;}
	.st2{clip-path:url(#SVGID_2_);fill:none;stroke:#010202;stroke-width:33.999;stroke-miterlimit:10;}
	.st3{clip-path:url(#SVGID_2_);fill:none;stroke:#000000;stroke-width:33.999;stroke-linejoin:round;stroke-miterlimit:10;}
	.st4{clip-path:url(#SVGID_2_);fill:none;stroke:#010202;stroke-width:33.999;stroke-linejoin:round;stroke-miterlimit:10;}
	
		.st5{clip-path:url(#SVGID_2_);fill:none;stroke:#010202;stroke-width:33.999;stroke-linecap:round;stroke-linejoin:round;stroke-miterlimit:10;}
	
		.st6{clip-path:url(#SVGID_2_);fill:none;stroke:#010202;stroke-width:29.987;stroke-linecap:round;stroke-linejoin:round;stroke-miterlimit:10;}
	.st7{clip-path:url(#SVGID_2_);fill:none;stroke:#010202;stroke-width:16.999;stroke-linecap:round;stroke-miterlimit:10;}
</style>
<g>
	<defs>
		<rect id="SVGID_1_" x="50" y="50" width="924" height="867.96"/>
	</defs>
	<clipPath id="SVGID_2_">
		<use xlink:href="#SVGID_1_"  style="overflow:visible;"/>
	</clipPath>
	<path class="st0" d="M833.95,832.96H183.91c-36.43,0-65.98-29.53-65.98-65.96V354.94c0-36.43,29.54-65.96,65.98-65.96h650.03
		c36.43,0,65.96,29.53,65.96,65.96v412.06C899.9,803.44,870.38,832.96,833.95,832.96z"/>
	<path class="st1" d="M592.5,532.65h-55.25V477.4c0-0.78-0.63-1.41-1.41-1.41h-53.84c-0.78,0-1.41,0.63-1.41,1.41v55.25h-55.25
		c-0.78,0-1.43,0.63-1.43,1.41v53.84c0,0.78,0.65,1.41,1.43,1.41h55.25v55.25c0,0.78,0.63,1.43,1.41,1.43h53.84
		c0.78,0,1.41-0.65,1.41-1.43v-55.25h55.25c0.78,0,1.41-0.63,1.41-1.41v-53.84C593.91,533.28,593.29,532.65,592.5,532.65"/>
	<path class="st0" d="M678.92,288.99H338.93l7.7-61.54c5.3-42.53,41.46-74.46,84.33-74.46h155.92c42.87,0,79.03,31.92,84.33,74.46
		L678.92,288.99z"/>
	<path class="st0" d="M623.05,412.84c-31.57-24.36-71.16-38.86-114.12-38.86c-103.29,0-186.99,83.72-186.99,186.99
		c0,103.29,83.7,186.99,186.99,186.99c103.27,0,186.99-83.7,186.99-186.99c0-27.79-6.07-54.18-16.95-77.89"/>
	<line class="st0" x1="746.92" y1="441.98" x2="899.91" y2="441.98"/>
	<line class="st0" x1="117.94" y1="441.98" x2="270.94" y2="441.98"/>
	<line class="st0" x1="3211.81" y1="679.97" x2="3125.86" y2="679.97"/>
	<path class="st0" d="M2820.83,679.97c-18.77,0-34-15.23-34-34V271.99c0-18.77,15.23-34,34-34h589.01c13.87,0,26.35,8.43,31.53,21.3
		l59.43,147.64l43.67,12.95c14.43,4.28,24.33,17.54,24.33,32.61v193.48c0,18.77-15.23,34-34,34h-17.97"/>
	<circle class="st2" cx="2973.82" cy="696.97" r="85"/>
	<circle class="st2" cx="3364.81" cy="696.97" r="85"/>
	<path class="st1" d="M3125.69,385.31h-44.22v-44.2c0-0.63-0.49-1.14-1.12-1.14h-43.06c-0.63,0-1.14,0.51-1.14,1.14v44.2h-44.2
		c-0.63,0-1.14,0.51-1.14,1.14v43.06c0,0.63,0.51,1.14,1.14,1.14h44.2v44.2c0,0.63,0.51,1.12,1.14,1.12h43.06
		c0.63,0,1.12-0.49,1.12-1.12v-44.2h44.22c0.61,0,1.12-0.51,1.12-1.14v-43.06C3126.81,385.82,3126.3,385.31,3125.69,385.31"/>
	<path class="st0" d="M3214.72,238.01c-1.87-5.32-2.91-11.05-2.91-17.02c0-28.17,22.83-51,51-51c28.17,0,51,22.83,51,51
		c0,5.97-1.02,11.71-2.91,17.03"/>
	<line class="st0" x1="3262.81" y1="102" x2="3262.81" y2="68"/>
	<line class="st0" x1="3346.94" y1="136.85" x2="3371" y2="112.81"/>
	<line class="st0" x1="3262.81" y1="102" x2="3262.81" y2="68"/>
	<line class="st0" x1="3178.66" y1="136.85" x2="3154.62" y2="112.81"/>
	<path class="st3" d="M4884.55,633.35c-16.9-22.52-48.89-27.08-71.4-10.22l-25.94,19.43l-119.49-159.32
		c-9.64-12.85-24.75-20.4-40.8-20.4H4500.3l-17.81-73.86l137.95-28.81c27.57-5.76,45.25-32.77,39.49-60.35
		c-5.76-27.56-32.71-45.27-60.35-39.49l-141.06,29.48l-7.17-29.77c-6.6-27.39-34.08-44.25-61.54-37.6
		c-27.37,6.6-44.22,34.15-37.59,61.54l58.36,241.83c5.52,22.9,26.01,39.03,49.57,39.03h141.28l134.79,179.72
		c10.03,13.38,25.35,20.42,40.85,20.42c10.66,0,21.4-3.33,30.56-10.2l66.71-50.03C4896.87,687.85,4901.45,655.87,4884.55,633.35z"/>
	<ellipse transform="matrix(0.9975 -0.0709 0.0709 0.9975 4.9631 309.8405)" class="st4" cx="4367.76" cy="85" rx="68" ry="68"/>
	<path class="st5" d="M4289.74,387.45c-65.21,38.42-108.97,109.37-108.97,190.53c0,122.05,98.94,220.99,220.99,220.99
		c80.17,0,150.38-42.69,189.1-106.57"/>
	<path class="st2" d="M1936.87,730.97c0,56.34-45.66,102-102,102c-225.32,0-407.98-182.66-407.98-407.98c0-56.34,45.66-102,102-102
		c5.75,0,11.42,0.49,16.93,1.43c0.87,0.14,1.73,0.29,2.6,0.46c10.13,1.92,18,9.96,19.74,20.14l25.75,151.63
		c0.61,3.55-1.21,7.11-4.45,8.7c0,0-24.68,11.81-36.77,17.78c-3.72,1.84-5.51,6.22-4.03,10.11c15.47,40.97,39.49,77.72,69.87,108.08
		c30.26,30.28,66.89,54.26,107.71,69.75c3.86,1.46,8.23-0.29,10.1-3.96c6.1-12.02,18.16-36.79,18.16-36.79
		c1.61-3.21,5.13-5,8.67-4.4l151.69,25.77c10.18,1.73,18.22,9.6,20.16,19.74c0.14,0.87,0.31,1.73,0.44,2.6
		C1936.37,719.55,1936.87,725.22,1936.87,730.97z"/>
	<path class="st1" d="M2071.45,243.66h-55.25v-55.25c0-0.78-0.65-1.41-1.43-1.41h-53.82c-0.8,0-1.43,0.63-1.43,1.41v55.25h-55.25
		c-0.78,0-1.41,0.63-1.41,1.41v53.84c0,0.78,0.63,1.41,1.41,1.41h55.25v55.25c0,0.78,0.63,1.43,1.43,1.43h53.82
		c0.78,0,1.43-0.65,1.43-1.43v-55.25h55.25c0.78,0,1.41-0.63,1.41-1.41v-53.84C2072.86,244.29,2072.23,243.66,2071.45,243.66"/>
	<path class="st4" d="M2208.85,271.99c0-122.05-98.94-220.99-220.99-220.99c-122.05,0-220.99,98.94-220.99,220.99
		c0,100.02,66.5,184.43,157.65,211.68l-38.66,128.31c0,0,221.98-153.55,237.62-165.74l0.97-0.58l-0.14-0.07
		C2175.72,405.14,2208.85,342.48,2208.85,271.99z"/>
	<path class="st2" d="M-460.03,832.96H-1140c-28.17,0-51-22.83-51-51V271.99c0-28.17,22.83-51,51-51h679.97c28.17,0,51,22.83,51,51
		v509.98C-409.03,810.13-431.86,832.96-460.03,832.96z"/>
	<path class="st2" d="M-519.53,722.47h-560.98c-18.77,0-34-15.23-34-34V331.49c0-18.77,15.23-34,34-34h560.98
		c18.77,0,34,15.23,34,34v356.98C-485.53,707.24-500.76,722.47-519.53,722.47z"/>
	<polyline class="st6" points="-1038.01,538.31 -974.55,538.31 -926.95,424.97 -863.48,594.97 -800.02,467.47 -768.28,566.65 
		-721.82,481.65 -688.96,538.31 -562.03,538.31 	"/>
	<path class="st2" d="M-545.03,900.96h-509.98c-9.38,0-17-7.62-17-17l-17-51h577.98l-17,51
		C-528.03,893.35-535.64,900.96-545.03,900.96z"/>
	<path class="st1" d="M-528.03,781.97c0-9.38-7.62-17-17-17c-9.38,0-17,7.62-17,17c0,9.38,7.62,17,17,17
		C-535.64,798.97-528.03,791.35-528.03,781.97"/>
	<path class="st1" d="M-596.03,781.97c0-9.38-7.62-17-17-17c-9.38,0-17,7.62-17,17c0,9.38,7.62,17,17,17
		C-603.64,798.97-596.03,791.35-596.03,781.97"/>
	<line class="st7" x1="-1072.01" y1="781.97" x2="-970.01" y2="781.97"/>
</g>
</svg>
