<svg xmlns="http://www.w3.org/2000/svg" xmlns:xlink="http://www.w3.org/1999/xlink" id="Laag_1" x="0" y="0" version="1.1" viewBox="0 0 1024 1024" xml:space="preserve" style="enable-background:new 0 0 1024 1024"><style type="text/css">.st0{clip-path:url(#SVGID_2_);stroke-linejoin:round}.st0,.st1,.st2{fill:none;stroke:#14171c;stroke-width:46.753;stroke-miterlimit:10}.st1{clip-path:url(#SVGID_2_)}.st2{stroke-linejoin:round}.st3,.st4{clip-path:url(#SVGID_4_);fill:#14171c}.st4{fill:none;stroke:#14171c;stroke-width:46.753;stroke-miterlimit:10}</style><g><defs><rect id="SVGID_1_" width="1024" height="924" y="50"/></defs><clipPath id="SVGID_2_"><use xlink:href="#SVGID_1_" style="overflow:visible"/></clipPath><path d="M-2299.65-1301.69c51.64,0,93.51,41.87,93.51,93.51v561.04c0,51.64-41.87,93.51-93.51,93.51h-561.04 c-51.64,0-93.51-41.87-93.51-93.51v-561.04c0-51.64,41.87-93.51,93.51-93.51H-2299.65z" class="st0"/><ellipse cx="-2416.54" cy="-1091.3" class="st1" rx="93.51" ry="93.51" transform="matrix(0.0453 -0.999 0.999 0.0453 -1216.8597 -3455.9001)"/><ellipse cx="8219.85" cy="-995.22" class="st0" rx="116.88" ry="116.88" transform="matrix(0.7071 -0.7071 0.7071 0.7071 3111.2659 5520.8213)"/><path d="M8219.85-1322.49c180.7,0,327.27,146.57,327.27,327.27c0,47.46-10.05,92.34-28.29,133.01 c-14.96,33.66-35.53,64.29-60.31,90.7l-238.67,238.68L7981.18-771.5c-24.78-26.42-45.35-57.04-60.31-90.7 c-18.23-40.67-28.29-85.56-28.29-133.01C7892.58-1175.92,8039.15-1322.49,8219.85-1322.49z" class="st0"/><path d="M-4415.28-1010.97c6.43-22.32,15.19-43.97,26.79-64.45l-54.98-67.44c-15.15-18.58-13.79-45.66,3.18-62.6 l39.44-39.46c16.97-16.95,44.02-18.33,62.6-3.18l67.44,54.98l0.05-0.09c20.31-11.22,41.84-20.34,64.5-26.65l8.81-86.56 c2.43-23.87,22.54-42.01,46.52-42.01h55.8c23.98,0,44.09,18.14,46.52,42.01l8.81,86.56l0.07-0.05 c22.32,6.45,43.97,15.22,64.47,26.79l67.44-54.98c18.58-15.15,45.63-13.77,62.6,3.18l39.44,39.46 c16.97,16.95,18.33,44.02,3.18,62.6l-54.98,67.44l0.09,0.02c11.22,20.34,20.34,41.84,26.65,64.52l86.56,8.81 c23.87,2.43,42.01,22.53,42.01,46.52v55.78c0,23.98-18.14,44.09-42.01,46.52l-86.56,8.81l0.05,0.09 c-6.43,22.32-15.19,43.97-26.79,64.45l54.98,67.44c15.15,18.58,13.79,45.65-3.18,62.6l-39.44,39.46 c-16.97,16.95-44.02,18.33-62.6,3.15l-67.44-54.96l-0.05,0.09c-20.31,11.22-41.84,20.34-64.5,26.65l-8.81,86.56 c-2.43,23.87-22.53,42.01-46.52,42.01h-55.8c-23.98,0-44.09-18.14-46.52-42.01l-8.81-86.56l-0.07,0.02 c-22.33-6.43-43.97-15.19-64.47-26.77l-67.44,54.96c-18.58,15.17-45.63,13.79-62.6-3.15l-39.44-39.46 c-16.97-16.95-18.33-44.02-3.18-62.6l54.98-67.44l-0.09-0.02c-11.22-20.34-20.36-41.84-26.67-64.52l-86.54-8.81 c-23.87-2.43-42.03-22.54-42.03-46.52v-55.78c0-23.98,18.16-44.09,42.03-46.52l86.54-8.81L-4415.28-1010.97z" class="st0"/><ellipse cx="-4123.04" cy="-927.66" class="st0" rx="140.26" ry="140.26" transform="matrix(0.9591 -0.2832 0.2832 0.9591 93.913 -1205.7205)"/><path d="M3539.68-1306.74l-313.81,254.97c-5.45,4.42-8.63,11.08-8.63,18.14v479.78c0,12.9,10.45,23.38,23.38,23.38 h210.39c12.93,0,23.38-10.47,23.38-23.38v-303.9c0-12.93,10.45-23.38,23.38-23.38h187.01c12.93,0,23.38,10.45,23.38,23.38v303.9 c0,12.9,10.45,23.38,23.38,23.38h210.39c12.93,0,23.38-10.47,23.38-23.38v-479.78c0-7.06-3.18-13.72-8.63-18.14l-313.81-254.97 C3612.8-1331.17,3569.74-1331.17,3539.68-1306.74z" class="st0"/><ellipse cx="-1294.46" cy="-927.66" class="st1" rx="140.26" ry="140.26" transform="matrix(0.7071 -0.7071 0.7071 0.7071 276.8163 -1187.0239)"/><ellipse cx="-780.17" cy="-1184.8" class="st1" rx="140.26" ry="140.26" transform="matrix(0.7071 -0.7071 0.7071 0.7071 609.2755 -898.6837)"/><ellipse cx="-780.17" cy="-670.52" class="st1" rx="140.26" ry="140.26" transform="matrix(0.7071 -0.7071 0.7071 0.7071 245.6196 -748.0525)"/><path d="M8523.75,358.06v584.42c0,51.64-41.87,93.51-93.51,93.51h-420.78c-51.64,0-93.51-41.87-93.51-93.51V358.06" class="st0"/><path d="M8360.11,358.06h-280.52v-70.13c0-25.81,20.95-46.75,46.75-46.75h187.01c25.81,0,46.75,20.95,46.75,46.75 V358.06z" class="st0"/><path d="M365.29-1278.31H38.02c-51.64,0-93.51,41.87-93.51,93.51v561.04c0,51.64,41.87,93.51,93.51,93.51h561.04 c51.64,0,93.51-41.87,93.51-93.51v-327.27" class="st0"/><path d="M739.31-1044.54v-257.14c0-12.9-10.47-23.38-23.38-23.38H458.79" class="st0"/><path d="M1908.15-1278.31h-327.27c-51.64,0-93.51,41.87-93.51,93.51v561.04c0,51.64,41.87,93.51,93.51,93.51h561.04 c51.64,0,93.51-41.87,93.51-93.51v-327.27" class="st0"/><path d="M1791.27-1114.67v257.14c0,12.9,10.47,23.38,23.38,23.38h257.14" class="st0"/><circle cx="5134.13" cy="-974.41" r="327.27" class="st0"/><circle cx="6653.62" cy="-927.66" r="350.65" class="st0"/><path d="M6851.98-1291.31l21.36-14.26c45.26-30.16,105.5-24.19,143.93,14.26c38.45,38.46,44.42,98.67,14.26,143.91 l-14.26,21.39" class="st0"/><path d="M6455.26-1291.31l-21.37-14.26c-45.26-30.16-105.5-24.19-143.93,14.26c-38.45,38.46-44.42,98.67-14.26,143.91 l14.26,21.39" class="st0"/><path d="M9902.98-553.63h-607.79c-51.64,0-93.51-41.87-93.51-93.51v-561.04c0-51.64,41.87-93.51,93.51-93.51h607.79 c51.64,0,93.51,41.87,93.51,93.51v561.04C9996.48-595.5,9954.62-553.63,9902.98-553.63z" class="st0"/><path d="M9412.07-880.91h-93.51c-12.93,0-23.38-10.47-23.38-23.38v-93.51c0-12.9,10.45-23.38,23.38-23.38h93.51 c12.93,0,23.38,10.48,23.38,23.38v93.51C9435.44-891.38,9424.99-880.91,9412.07-880.91z" class="st0"/><path d="M9645.83-880.91h-93.51c-12.93,0-23.38-10.47-23.38-23.38v-93.51c0-12.9,10.45-23.38,23.38-23.38h93.51 c12.93,0,23.38,10.48,23.38,23.38v93.51C9669.21-891.38,9658.76-880.91,9645.83-880.91z" class="st0"/><path d="M9879.6-880.91h-93.51c-12.93,0-23.38-10.47-23.38-23.38v-93.51c0-12.9,10.45-23.38,23.38-23.38h93.51 c12.93,0,23.38,10.48,23.38,23.38v93.51C9902.98-891.38,9892.53-880.91,9879.6-880.91z" class="st0"/><path d="M9412.07-647.14h-93.51c-12.93,0-23.38-10.47-23.38-23.38v-93.51c0-12.9,10.45-23.38,23.38-23.38h93.51 c12.93,0,23.38,10.47,23.38,23.38v93.51C9435.44-657.61,9424.99-647.14,9412.07-647.14z" class="st0"/><path d="M9645.83-647.14h-93.51c-12.93,0-23.38-10.47-23.38-23.38v-93.51c0-12.9,10.45-23.38,23.38-23.38h93.51 c12.93,0,23.38,10.47,23.38,23.38v93.51C9669.21-657.61,9658.76-647.14,9645.83-647.14z" class="st0"/><path d="M9879.6-647.14h-93.51c-12.93,0-23.38-10.47-23.38-23.38v-93.51c0-12.9,10.45-23.38,23.38-23.38h93.51 c12.93,0,23.38,10.47,23.38,23.38v93.51C9902.98-657.61,9892.53-647.14,9879.6-647.14z" class="st0"/><ellipse cx="-2580.17" cy="498.32" class="st1" rx="397.4" ry="397.4" transform="matrix(0.7071 -0.7071 0.7071 0.7071 -1108.0804 -1678.5046)"/><ellipse cx="-4123.04" cy="498.32" class="st1" rx="397.4" ry="397.4" transform="matrix(0.7071 -0.7071 0.7071 0.7071 -1559.974 -2769.4724)"/><path d="M113.82,778.84l350.91-607.79c18-31.16,63-31.16,80.98,0l350.91,607.79c18,31.16-4.49,70.13-40.49,70.13 H154.31C118.31,848.97,95.82,810,113.82,778.84z" class="st0"/></g><line x1="505.22" x2="505.22" y1="358.06" y2="661.96" class="st2"/><g><defs><rect id="SVGID_3_" width="1024" height="924" y="50"/></defs><clipPath id="SVGID_4_"><use xlink:href="#SVGID_3_" style="overflow:visible"/></clipPath><path d="M540.28,732.09c0,19.38-15.69,35.06-35.07,35.06c-19.36,0-35.07-15.68-35.07-35.06 c0-19.38,15.71-35.07,35.07-35.07C524.6,697.02,540.28,712.71,540.28,732.09" class="st3"/><path d="M2282.18,919.1h-467.53c-51.64,0-93.51-41.87-93.51-93.51V521.7c0-51.64,41.87-93.51,93.51-93.51h467.53 c51.64,0,93.51,41.87,93.51,93.51v303.9C2375.68,877.23,2333.82,919.1,2282.18,919.1z" class="st4"/><path d="M2258.8,428.19h-420.78V264.55c0-116.2,94.18-210.39,210.39-210.39c116.2,0,210.39,94.18,210.39,210.39V428.19 z" class="st4"/><path d="M3825.04,919.1H3357.5c-51.64,0-93.51-41.87-93.51-93.51V521.7c0-51.64,41.87-93.51,93.51-93.51h467.53 c51.64,0,93.51,41.87,93.51,93.51v303.9C3918.54,877.23,3876.68,919.1,3825.04,919.1z" class="st4"/><path d="M3380.88,428.19V264.55c0-116.2,94.18-210.39,210.39-210.39s210.39,94.18,210.39,210.39v23.38" class="st4"/><line x1="-943.81" x2="-943.81" y1="124.29" y2="542.99" class="st4"/><path d="M-743.94,259.22c91.17,63.12,150.78,168.5,150.78,287.93c0,193.7-156.97,350.65-350.65,350.65 c-193.67,0-350.65-156.95-350.65-350.65c0-119.43,59.61-224.81,150.78-287.93" class="st4"/></g></svg>