<?xml version="1.0" encoding="UTF-8"?>
<svg xmlns="http://www.w3.org/2000/svg" xmlns:xlink="http://www.w3.org/1999/xlink" width="256px" height="256px" viewBox="0 0 256 255" version="1.1">
<g id="surface1">
<path style=" stroke:none;fill-rule:nonzero;fill:rgb(0%,0%,0%);fill-opacity:1;" d="M 107.863281 54.828125 C 105.089844 54.945312 102.535156 56.242188 100.808594 58.410156 C 99.773438 59.714844 99.097656 61.285156 98.863281 62.917969 C 98.773438 63.539062 98.78125 63.050781 98.777344 69.253906 L 98.773438 74.929688 L 96.277344 74.929688 C 94.65625 74.929688 93.722656 74.933594 93.613281 74.945312 C 92.265625 75.066406 91.175781 75.996094 90.847656 77.304688 C 90.75 77.683594 90.757812 77.324219 90.75 82 L 90.746094 86.238281 L 61.75 86.242188 C 34.460938 86.246094 32.738281 86.25 32.503906 86.273438 C 31.902344 86.335938 31.453125 86.402344 31.003906 86.496094 C 26.886719 87.347656 23.414062 90.265625 21.875 94.179688 C 21.417969 95.347656 21.152344 96.503906 21.042969 97.847656 C 21.011719 98.195312 21.011719 177.4375 21.042969 177.789062 C 21.179688 179.453125 21.574219 180.914062 22.273438 182.347656 C 22.773438 183.371094 23.375 184.269531 24.152344 185.15625 C 24.382812 185.421875 25.023438 186.054688 25.296875 186.292969 C 26.992188 187.765625 28.957031 188.730469 31.128906 189.160156 C 31.800781 189.292969 32.453125 189.367188 33.179688 189.390625 C 33.433594 189.398438 35.789062 189.40625 38.996094 189.40625 C 42.867188 189.40625 44.382812 189.410156 44.382812 189.421875 C 44.382812 189.433594 44.40625 189.609375 44.4375 189.8125 C 45.085938 194.398438 46.917969 198.625 49.828125 202.246094 C 50.4375 203.003906 50.9375 203.554688 51.71875 204.332031 C 52.816406 205.425781 53.761719 206.226562 54.976562 207.09375 C 58.757812 209.785156 63.25 211.40625 67.871094 211.75 C 68.519531 211.796875 68.714844 211.804688 69.539062 211.8125 C 70.632812 211.824219 71.300781 211.796875 72.28125 211.703125 C 79.425781 211.027344 85.960938 207.359375 90.3125 201.597656 C 92.929688 198.132812 94.613281 194.054688 95.203125 189.769531 L 95.253906 189.40625 L 162.5625 189.40625 L 162.570312 189.457031 C 162.574219 189.480469 162.601562 189.65625 162.625 189.839844 C 162.863281 191.554688 163.304688 193.328125 163.90625 194.980469 C 165.515625 199.394531 168.332031 203.296875 172.039062 206.246094 C 176.148438 209.519531 181.121094 211.4375 186.375 211.773438 C 187.394531 211.835938 188.667969 211.835938 189.722656 211.765625 C 194.164062 211.472656 198.464844 210.015625 202.167969 207.554688 C 207.5 204.015625 211.316406 198.636719 212.859375 192.5 C 213.09375 191.566406 213.261719 190.695312 213.390625 189.765625 L 213.4375 189.414062 L 219.355469 189.40625 C 223.78125 189.398438 225.320312 189.394531 225.472656 189.378906 C 226.46875 189.292969 227.210938 189.144531 228.039062 188.867188 C 230.585938 188.023438 232.722656 186.210938 233.980469 183.820312 C 234.515625 182.804688 234.894531 181.632812 235.050781 180.5 C 235.144531 179.800781 235.136719 180.386719 235.144531 173.582031 C 235.148438 169.210938 235.144531 167.328125 235.132812 167.144531 C 235.003906 165.117188 234.289062 163.183594 233.070312 161.5625 C 232.738281 161.125 232.457031 160.804688 232.027344 160.382812 C 231.351562 159.726562 230.695312 159.230469 229.871094 158.761719 C 229.460938 158.527344 228.820312 158.230469 228.46875 158.105469 L 228.367188 158.066406 L 228.367188 152 C 228.367188 148.140625 228.363281 145.832031 228.351562 145.652344 C 228.160156 142.039062 226.277344 138.75 223.261719 136.761719 C 222.613281 136.335938 221.902344 135.964844 221.207031 135.6875 C 221.089844 135.644531 214.746094 133.34375 207.105469 130.578125 C 199.464844 127.808594 193.207031 125.539062 193.199219 125.527344 C 193.191406 125.519531 191.167969 118.808594 188.710938 110.617188 C 186.25 102.421875 184.199219 95.601562 184.15625 95.457031 C 183.402344 93.09375 181.941406 90.945312 179.980469 89.320312 C 177.789062 87.5 175.089844 86.433594 172.238281 86.253906 C 172.070312 86.242188 165.910156 86.238281 152.8125 86.238281 L 133.628906 86.238281 L 133.628906 82.070312 C 133.628906 79.285156 133.625 77.855469 133.617188 77.75 C 133.542969 77.035156 133.246094 76.398438 132.753906 75.886719 C 132.273438 75.390625 131.691406 75.089844 130.96875 74.964844 C 130.832031 74.9375 130.59375 74.9375 128.011719 74.933594 L 125.199219 74.925781 L 125.199219 69.46875 C 125.199219 65.890625 125.195312 63.917969 125.1875 63.742188 C 125.027344 61.027344 123.746094 58.5625 121.613281 56.867188 C 120.070312 55.644531 118.191406 54.9375 116.203125 54.832031 C 115.945312 54.820312 108.167969 54.816406 107.863281 54.828125 Z M 116.171875 61.066406 C 116.898438 61.183594 117.515625 61.492188 118.007812 61.984375 C 118.417969 62.390625 118.71875 62.917969 118.855469 63.464844 C 118.960938 63.882812 118.953125 63.351562 118.957031 69.441406 L 118.960938 74.929688 L 105.011719 74.929688 L 105.011719 69.5 C 105.011719 63.496094 105.003906 63.882812 105.109375 63.476562 C 105.457031 62.113281 106.640625 61.128906 108.042969 61.046875 C 108.152344 61.042969 109.992188 61.039062 112.128906 61.039062 C 115.699219 61.042969 116.027344 61.042969 116.171875 61.066406 Z M 127.390625 83.691406 L 127.390625 86.222656 L 97.003906 86.222656 L 97.003906 81.160156 L 127.390625 81.160156 Z M 171.96875 92.46875 C 173.226562 92.5625 174.398438 92.972656 175.453125 93.6875 C 176.679688 94.519531 177.621094 95.726562 178.125 97.109375 C 178.164062 97.210938 180.332031 104.40625 182.941406 113.101562 C 185.550781 121.796875 187.714844 128.972656 187.742188 129.046875 C 188.019531 129.765625 188.582031 130.375 189.273438 130.710938 C 189.382812 130.765625 194.390625 132.585938 204.179688 136.132812 C 212.292969 139.070312 219.007812 141.511719 219.109375 141.554688 C 219.710938 141.828125 220.308594 142.253906 220.738281 142.71875 C 221.570312 143.621094 222.035156 144.707031 222.113281 145.914062 C 222.121094 146.074219 222.128906 148.613281 222.128906 153.398438 C 222.128906 158.371094 222.132812 160.679688 222.144531 160.765625 C 222.230469 161.472656 222.539062 162.101562 223.042969 162.601562 C 223.304688 162.863281 223.566406 163.046875 223.898438 163.207031 C 224.148438 163.324219 224.257812 163.359375 225.152344 163.597656 C 225.597656 163.71875 226.023438 163.835938 226.09375 163.859375 C 226.53125 164.007812 226.992188 164.257812 227.363281 164.554688 C 227.519531 164.679688 227.847656 165.003906 227.976562 165.164062 C 228.390625 165.671875 228.695312 166.316406 228.824219 166.945312 C 228.90625 167.339844 228.898438 166.972656 228.898438 173.410156 C 228.898438 179.851562 228.90625 179.484375 228.824219 179.878906 C 228.75 180.246094 228.632812 180.574219 228.453125 180.925781 C 227.8125 182.175781 226.570312 183.023438 225.167969 183.160156 C 224.910156 183.183594 213.445312 183.183594 213.4375 183.15625 C 213.433594 183.148438 213.410156 182.976562 213.382812 182.78125 C 213.085938 180.5625 212.4375 178.257812 211.519531 176.152344 C 211.128906 175.261719 210.648438 174.308594 210.160156 173.480469 C 208.175781 170.082031 205.402344 167.15625 202.109375 164.984375 C 198.421875 162.550781 194.179688 161.121094 189.765625 160.816406 C 188.695312 160.746094 187.410156 160.742188 186.347656 160.8125 C 181.351562 161.132812 176.601562 162.890625 172.59375 165.902344 C 171.152344 166.984375 169.753906 168.292969 168.558594 169.679688 C 165.386719 173.355469 163.308594 177.90625 162.640625 182.652344 C 162.605469 182.886719 162.574219 183.101562 162.570312 183.125 L 162.5625 183.175781 L 95.25 183.175781 L 95.242188 183.082031 C 95.234375 183.03125 95.210938 182.847656 95.183594 182.675781 C 94.484375 177.777344 92.367188 173.199219 89.066406 169.453125 C 88.363281 168.65625 87.480469 167.777344 86.675781 167.078125 C 82.734375 163.644531 77.902344 161.511719 72.738281 160.921875 C 71.75 160.808594 70.890625 160.761719 69.824219 160.761719 C 69.003906 160.761719 68.445312 160.785156 67.746094 160.839844 C 61.039062 161.382812 54.835938 164.527344 50.417969 169.625 C 48.558594 171.773438 47.070312 174.210938 46.019531 176.824219 C 45.335938 178.523438 44.84375 180.277344 44.542969 182.078125 C 44.484375 182.417969 44.382812 183.113281 44.382812 183.164062 C 44.382812 183.171875 42.335938 183.175781 38.710938 183.171875 C 32.453125 183.167969 32.972656 183.175781 32.4375 183.078125 C 30.566406 182.738281 28.929688 181.558594 28.015625 179.882812 C 27.585938 179.089844 27.339844 178.242188 27.269531 177.304688 C 27.25 177.027344 27.25 98.605469 27.269531 98.328125 C 27.34375 97.292969 27.628906 96.390625 28.15625 95.511719 C 28.804688 94.421875 29.820312 93.523438 30.980469 93.003906 C 31.691406 92.6875 32.324219 92.53125 33.15625 92.464844 C 33.324219 92.449219 171.785156 92.457031 171.96875 92.46875 Z M 70.664062 166.996094 C 74.824219 167.1875 78.683594 168.632812 81.929688 171.21875 C 82.847656 171.953125 83.773438 172.84375 84.542969 173.742188 C 87.179688 176.804688 88.796875 180.640625 89.132812 184.617188 C 89.1875 185.257812 89.195312 185.441406 89.195312 186.292969 C 89.195312 187.171875 89.1875 187.371094 89.125 188.046875 C 88.492188 195.078125 84 201.226562 77.449219 204.042969 C 75.570312 204.851562 73.542969 205.355469 71.457031 205.535156 C 70.484375 205.617188 69.324219 205.625 68.359375 205.546875 C 66.121094 205.378906 64.027344 204.855469 61.96875 203.953125 C 61.613281 203.792969 60.796875 203.386719 60.449219 203.195312 C 57.257812 201.425781 54.644531 198.828125 52.863281 195.652344 C 52.648438 195.273438 52.265625 194.503906 52.085938 194.105469 C 50.773438 191.152344 50.226562 187.921875 50.496094 184.671875 C 50.953125 179.160156 53.785156 174.105469 58.289062 170.773438 C 61.375 168.484375 65.066406 167.175781 68.914062 166.996094 C 69.292969 166.976562 70.292969 166.976562 70.664062 166.996094 Z M 189.265625 167.015625 C 189.929688 167.0625 190.519531 167.128906 191.121094 167.226562 C 196.425781 168.085938 201.152344 171.128906 204.152344 175.617188 C 205.988281 178.367188 207.070312 181.484375 207.332031 184.757812 C 207.375 185.34375 207.386719 185.730469 207.378906 186.515625 C 207.371094 187.300781 207.355469 187.613281 207.292969 188.242188 C 206.902344 192.132812 205.304688 195.847656 202.730469 198.835938 C 202.273438 199.367188 201.601562 200.0625 201.113281 200.507812 C 198.75 202.664062 195.910156 204.207031 192.855469 204.988281 C 191.785156 205.265625 190.738281 205.441406 189.648438 205.535156 C 189.035156 205.585938 188.789062 205.59375 187.988281 205.59375 C 187.117188 205.59375 186.769531 205.578125 186.046875 205.503906 C 182.457031 205.144531 179.058594 203.796875 176.191406 201.597656 C 174.988281 200.675781 173.839844 199.550781 172.886719 198.375 C 171.082031 196.140625 169.789062 193.507812 169.132812 190.742188 C 168.644531 188.691406 168.5 186.582031 168.703125 184.453125 C 169.050781 180.738281 170.492188 177.191406 172.851562 174.25 C 174.898438 171.699219 177.558594 169.703125 180.585938 168.445312 C 182.5625 167.625 184.75 167.125 186.878906 167.011719 C 187.039062 167 187.210938 166.992188 187.261719 166.988281 C 187.507812 166.972656 188.949219 166.996094 189.265625 167.015625 Z M 189.265625 167.015625 "/>
<path style=" stroke:none;fill-rule:nonzero;fill:rgb(0%,0%,0%);fill-opacity:1;" d="M 35.308594 99.039062 C 34.382812 99.164062 33.570312 99.6875 33.066406 100.484375 C 32.855469 100.820312 32.707031 101.214844 32.628906 101.664062 C 32.601562 101.808594 32.601562 102.59375 32.597656 117.316406 C 32.59375 128.300781 32.597656 132.875 32.609375 133.019531 C 32.703125 134.214844 33.460938 135.238281 34.570312 135.675781 C 34.8125 135.773438 35.042969 135.832031 35.347656 135.875 C 35.546875 135.902344 79.09375 135.902344 79.296875 135.875 C 80.253906 135.738281 81.003906 135.273438 81.523438 134.5 C 81.804688 134.085938 81.984375 133.570312 82.03125 133.050781 C 82.054688 132.808594 82.054688 102.09375 82.03125 101.851562 C 81.964844 101.136719 81.671875 100.492188 81.175781 99.980469 C 80.886719 99.679688 80.617188 99.484375 80.253906 99.3125 C 79.957031 99.171875 79.648438 99.078125 79.3125 99.035156 C 79.152344 99.015625 76.847656 99.011719 57.300781 99.015625 C 38.515625 99.015625 35.445312 99.019531 35.308594 99.039062 Z M 75.792969 117.449219 L 75.792969 129.671875 L 38.847656 129.671875 L 38.847656 105.230469 L 75.792969 105.230469 Z M 75.792969 117.449219 "/>
<path style=" stroke:none;fill-rule:nonzero;fill:rgb(0%,0%,0%);fill-opacity:1;" d="M 88.4375 99.039062 C 87.027344 99.230469 85.921875 100.347656 85.753906 101.761719 C 85.742188 101.867188 85.738281 106.027344 85.742188 117.539062 C 85.746094 132.5 85.746094 133.183594 85.773438 133.308594 C 85.914062 134.007812 86.1875 134.527344 86.664062 134.996094 C 87.191406 135.523438 87.886719 135.835938 88.65625 135.886719 C 88.8125 135.898438 95.5 135.902344 110.605469 135.898438 C 131.40625 135.894531 132.339844 135.894531 132.496094 135.867188 C 133.046875 135.777344 133.523438 135.578125 133.949219 135.257812 C 134.113281 135.136719 134.425781 134.824219 134.546875 134.660156 C 134.839844 134.265625 135.035156 133.824219 135.136719 133.308594 L 135.167969 133.144531 L 135.171875 117.570312 C 135.175781 106.5625 135.171875 101.945312 135.160156 101.828125 C 135.050781 100.695312 134.328125 99.707031 133.285156 99.261719 C 133.007812 99.144531 132.6875 99.058594 132.398438 99.03125 C 132.296875 99.019531 125.648438 99.011719 110.421875 99.015625 C 91.671875 99.015625 88.570312 99.019531 88.4375 99.039062 Z M 128.9375 117.449219 L 128.9375 129.671875 L 91.976562 129.671875 L 91.976562 105.230469 L 128.9375 105.230469 Z M 128.9375 117.449219 "/>
<path style=" stroke:none;fill-rule:nonzero;fill:rgb(0%,0%,0%);fill-opacity:1;" d="M 108.175781 110.324219 C 108.175781 111.179688 108.171875 111.878906 108.167969 111.878906 C 108.167969 111.878906 107.558594 111.53125 106.824219 111.105469 C 105.945312 110.601562 105.476562 110.339844 105.464844 110.347656 C 105.4375 110.367188 102.355469 115.691406 102.363281 115.710938 C 102.367188 115.71875 102.96875 116.070312 103.703125 116.496094 C 104.4375 116.917969 105.039062 117.265625 105.035156 117.269531 C 105.03125 117.277344 104.425781 117.628906 103.691406 118.050781 C 102.730469 118.601562 102.355469 118.824219 102.359375 118.839844 C 102.367188 118.863281 105.441406 124.171875 105.460938 124.195312 C 105.46875 124.199219 106.070312 123.863281 106.796875 123.445312 C 107.527344 123.023438 108.136719 122.675781 108.152344 122.671875 C 108.175781 122.664062 108.175781 122.742188 108.175781 124.21875 L 108.175781 125.773438 L 114.410156 125.765625 L 114.414062 124.214844 C 114.414062 123.363281 114.421875 122.664062 114.425781 122.664062 C 114.429688 122.664062 115.039062 123.011719 115.773438 123.4375 C 116.511719 123.859375 117.121094 124.207031 117.125 124.203125 C 117.136719 124.1875 120.234375 118.835938 120.234375 118.828125 C 120.234375 118.824219 119.632812 118.472656 118.894531 118.046875 C 118.15625 117.625 117.554688 117.273438 117.554688 117.265625 C 117.558594 117.261719 118.15625 116.914062 118.886719 116.492188 C 119.617188 116.074219 120.21875 115.726562 120.226562 115.71875 C 120.234375 115.710938 119.539062 114.5 118.683594 113.019531 C 117.5 110.976562 117.121094 110.339844 117.101562 110.34375 C 117.089844 110.347656 116.480469 110.695312 115.75 111.113281 L 114.425781 111.878906 L 114.417969 110.324219 L 114.417969 108.769531 L 108.175781 108.769531 Z M 108.175781 110.324219 "/>
<path style=" stroke:none;fill-rule:nonzero;fill:rgb(0%,0%,0%);fill-opacity:1;" d="M 141.578125 99.035156 C 140.890625 99.128906 140.269531 99.4375 139.78125 99.925781 C 139.3125 100.394531 139.023438 100.957031 138.898438 101.636719 C 138.875 101.777344 138.875 102.507812 138.875 117.449219 C 138.875 132.421875 138.875 133.121094 138.898438 133.265625 C 138.984375 133.734375 139.136719 134.125 139.371094 134.484375 C 139.90625 135.300781 140.78125 135.808594 141.757812 135.886719 C 142.039062 135.910156 181.148438 135.910156 181.433594 135.886719 C 183.007812 135.769531 184.222656 134.542969 184.328125 132.976562 C 184.34375 132.761719 184.328125 132.476562 184.292969 132.261719 C 184.277344 132.179688 184.21875 131.945312 184.164062 131.742188 C 182.398438 125.3125 175.761719 101.226562 175.71875 101.097656 C 175.496094 100.441406 175.015625 99.847656 174.410156 99.472656 C 174.046875 99.25 173.605469 99.09375 173.164062 99.035156 C 173.007812 99.015625 171.34375 99.011719 157.355469 99.015625 C 144.496094 99.015625 141.699219 99.019531 141.578125 99.035156 Z M 170.402344 105.253906 C 170.417969 105.320312 177.097656 129.59375 177.109375 129.628906 L 177.117188 129.671875 L 145.105469 129.671875 L 145.105469 105.230469 L 157.75 105.230469 C 169.777344 105.230469 170.394531 105.230469 170.402344 105.253906 Z M 170.402344 105.253906 "/>
<path style=" stroke:none;fill-rule:nonzero;fill:rgb(0%,0%,0%);fill-opacity:1;" d="M 32.875 144.308594 C 32.867188 144.316406 32.863281 145.714844 32.863281 147.417969 L 32.863281 150.515625 L 213.804688 150.515625 L 213.804688 144.300781 L 123.34375 144.300781 C 73.589844 144.300781 32.878906 144.304688 32.875 144.308594 Z M 32.875 144.308594 "/>
<path style=" stroke:none;fill-rule:nonzero;fill:rgb(0%,0%,0%);fill-opacity:1;" d="M 69.191406 175.28125 C 67.15625 175.417969 65.351562 176.019531 63.703125 177.105469 C 61.675781 178.445312 60.125 180.449219 59.34375 182.734375 C 58.945312 183.894531 58.753906 185.0625 58.753906 186.292969 C 58.753906 188.683594 59.523438 190.984375 60.960938 192.890625 C 62.726562 195.230469 65.324219 196.773438 68.210938 197.195312 C 69.242188 197.347656 70.351562 197.351562 71.375 197.203125 C 73.464844 196.90625 75.40625 196.03125 77.019531 194.652344 C 77.292969 194.417969 77.804688 193.921875 78.054688 193.640625 C 79.386719 192.160156 80.285156 190.375 80.671875 188.433594 C 80.910156 187.253906 80.945312 185.964844 80.777344 184.765625 C 80.273438 181.167969 78.019531 178.050781 74.746094 176.425781 C 73.503906 175.808594 72.253906 175.453125 70.804688 175.308594 C 70.578125 175.285156 69.417969 175.265625 69.191406 175.28125 Z M 70.226562 181.503906 C 71.191406 181.589844 72.074219 181.941406 72.824219 182.535156 C 73.019531 182.691406 73.359375 183.019531 73.515625 183.210938 C 74.164062 183.984375 74.539062 184.898438 74.625 185.890625 C 74.648438 186.15625 74.632812 186.671875 74.601562 186.917969 C 74.5 187.660156 74.25 188.320312 73.832031 188.941406 C 73.132812 189.996094 72.035156 190.738281 70.789062 190.996094 C 70.441406 191.066406 70.25 191.085938 69.824219 191.085938 C 69.398438 191.085938 69.207031 191.066406 68.855469 190.996094 C 68.316406 190.890625 67.730469 190.65625 67.261719 190.363281 C 66.132812 189.65625 65.335938 188.503906 65.085938 187.210938 C 64.9375 186.449219 64.976562 185.644531 65.199219 184.910156 C 65.375 184.328125 65.683594 183.746094 66.070312 183.265625 C 66.230469 183.070312 66.589844 182.710938 66.777344 182.5625 C 67.5625 181.9375 68.480469 181.574219 69.449219 181.5 C 69.605469 181.484375 70.070312 181.488281 70.226562 181.503906 Z M 70.226562 181.503906 "/>
<path style=" stroke:none;fill-rule:nonzero;fill:rgb(0%,0%,0%);fill-opacity:1;" d="M 187.367188 175.28125 C 187.035156 175.300781 186.53125 175.355469 186.144531 175.421875 C 182.414062 176.050781 179.242188 178.574219 177.777344 182.070312 C 176.46875 185.207031 176.695312 188.808594 178.394531 191.753906 C 180.179688 194.851562 183.34375 196.902344 186.886719 197.257812 C 187.613281 197.328125 188.394531 197.328125 189.121094 197.257812 C 192.1875 196.949219 194.992188 195.367188 196.863281 192.886719 C 198.449219 190.773438 199.21875 188.1875 199.042969 185.542969 C 198.769531 181.457031 196.21875 177.847656 192.429688 176.1875 C 191.273438 175.679688 190.003906 175.375 188.695312 175.285156 C 188.488281 175.273438 187.597656 175.269531 187.367188 175.28125 Z M 188.617188 181.523438 C 189.769531 181.683594 190.777344 182.203125 191.554688 183.046875 C 192.128906 183.667969 192.546875 184.46875 192.71875 185.292969 C 192.800781 185.667969 192.8125 185.796875 192.8125 186.292969 C 192.8125 186.785156 192.800781 186.914062 192.71875 187.285156 C 192.570312 188.003906 192.242188 188.691406 191.769531 189.289062 C 191.617188 189.476562 191.210938 189.882812 191.019531 190.035156 C 189.855469 190.960938 188.375 191.296875 186.925781 190.972656 C 185.859375 190.734375 184.859375 190.097656 184.1875 189.226562 C 183.273438 188.042969 182.960938 186.546875 183.332031 185.09375 C 183.828125 183.144531 185.539062 181.691406 187.5625 181.503906 C 187.777344 181.484375 188.414062 181.496094 188.617188 181.523438 Z M 188.617188 181.523438 "/>
</g>
</svg>
