<svg xmlns="http://www.w3.org/2000/svg" xmlns:xlink="http://www.w3.org/1999/xlink" id="Laag_1" x="0" y="0" version="1.1" viewBox="0 0 1024 1024" xml:space="preserve" style="enable-background:new 0 0 1024 1024"><style type="text/css">.st0,.st1{clip-path:url(#SVGID_2_)}.st1{fill:none;stroke:#000;stroke-width:6.565;stroke-miterlimit:10}</style><g><defs><rect id="SVGID_1_" width="984.77" height="891.77" y="50"/></defs><clipPath id="SVGID_2_"><use xlink:href="#SVGID_1_" style="overflow:visible"/></clipPath><path d="M367.44,136.45c-14.44-16-35.11-26.26-58.34-26.26c-43.54,0-79.32,35.24-79.32,78.81 c0,43.47,35.78,78.76,79.32,78.76c43.49,0,78.76-35.29,78.76-78.76c0-9.26-1.9-18.03-4.82-26.29 C376.54,145.2,367.44,136.45,367.44,136.45 M309.1,136.45c28.95,0,52.49,23.57,52.49,52.55c0,28.95-23.54,52.49-52.49,52.49 c-28.98,0-53.06-23.54-53.06-52.49C256.04,160.02,280.12,136.45,309.1,136.45 M490.69,451.83c-2.95-10-9.72-18.88-19.59-24.23 l-81.4-44.14l-28.77-47.52l-9.18-15.13c-10.05-16.64-28.08-26.8-47.52-26.8h-9.44h-40.93c-23.21,0-43.52,15.62-49.49,38.03 l-44.75,168l-0.77,2.85c-6.36,23.88-7.69,48.47-7.72,73.17v1.26L151,660.37L77.03,805.32c-11.28,22.75-2.05,50.32,20.7,61.63 c6.57,3.26,13.54,4.79,20.41,4.79c16.9,0,33.16-9.34,41.18-25.49l78.66-154.59c3.13-6.33,4.92-13.31,4.92-20.39v-82.09l61.14,93.17 l17.98,147.89c2.82,23.34,22.65,40.44,45.57,40.44c1.85,0,3.69-0.1,5.57-0.33c25.21-3.05,43.16-25.93,40.11-51.14l-19.29-158.59 c-0.85-7.05-3.31-13.8-7.21-19.72l-82.75-125.94l20.21-82.45l1.49,2.46c3.75,6.21,9.08,11.28,15.44,14.75l91.11,49.42 c6.16,3.36,12.82,4.95,19.36,4.95c14.44,0,28.44-7.72,35.83-21.31c0.82-1.51,1.33-3.13,1.95-4.69 M451.63,477.83 c-2.39,0-4.69-0.59-6.8-1.74l-91.17-49.44c-2.23-1.23-4.13-3.05-5.46-5.23l-16.77-27.78c-2.95-4.85-8.51-7.46-14.16-6.62 c-5.61,0.87-10.15,5.03-11.51,10.54L278.52,508.7c-1.74,7.09-0.45,14.58,3.55,20.68l82.76,125.94c1.67,2.54,2.72,5.46,3.08,8.44 l19.29,158.61c1.33,10.77-6.41,20.6-17.18,21.9l-2.41,0.15c-9.93,0-18.31-7.47-19.49-17.34l-18.72-154l-78.99-120.4 c-4.46-6.8-12.85-9.85-20.62-7.54c-7.79,2.33-13.13,9.49-13.13,17.59v108.53c0,2.79-0.77,5.79-2.18,8.69l-78.56,154.38 c-3.44,6.95-10.21,11.13-17.77,11.13c-3.05,0-5.97-0.69-8.74-2.05c-9.69-4.84-13.69-16.69-8.85-26.44l76.71-150.28v-89.35 c0.03-21.57,1-45.31,6.98-67.7l45.49-170.85c2.92-10.93,12.82-18.54,24.13-18.54h50.37c10.18,0,19.8,5.41,25.05,14.13l41.65,68.75 l87.65,47.52c5.08,2.74,7.74,8.15,7.41,13.59c-0.02,0.23-0.13,0.44-0.13,0.69c0,0.1,0.05,0.18,0.05,0.28 c-0.23,1.69-0.67,3.41-1.54,5.03C461.81,474.94,456.94,477.83,451.63,477.83" class="st0"/><path d="M872.84,541.27h-5.26l11.87-59.35c0.74-3.65-1.61-7.22-5.26-7.96c-3.65-0.74-7.22,1.61-7.96,5.26l-8.41,42.03 c-0.96-1.47-2.02-2.9-3.12-4.3c-0.03-0.04-0.04-0.1-0.08-0.14c-0.03-0.04-0.15-0.16-0.23-0.25c-1.76-2.19-3.66-4.26-5.7-6.2 c-0.21-0.21-0.46-0.39-0.67-0.59c-1.66-1.53-3.4-2.99-5.25-4.38c-0.86-0.66-1.75-1.31-2.64-1.93c-1.23-0.85-2.51-1.66-3.81-2.46 c-2.45-1.5-4.98-2.88-7.57-4.11c-0.67-0.32-1.29-0.68-1.97-0.97c-1.69-0.75-3.43-1.43-5.18-2.09c-0.8-0.3-1.6-0.59-2.41-0.88 c-1.83-0.63-3.67-1.23-5.57-1.76c-0.56-0.16-1.14-0.28-1.7-0.42c-3.82-0.99-7.69-1.76-11.61-2.3c-0.77-0.12-1.52-0.25-2.29-0.34 c-1.91-0.23-3.85-0.37-5.8-0.5c-0.55,0-1.09-0.11-1.64-0.14c-26.49-18.75-57.4-27.15-99.85-27.15c-43.59,0-100.46,9.32-126.8,27.17 c-0.55,0-1.07,0.1-1.61,0.14c-1.98,0.12-3.94,0.27-5.88,0.5c-0.72,0.08-1.42,0.21-2.14,0.31c-3.95,0.55-7.87,1.32-11.73,2.32 c-0.56,0.15-1.15,0.27-1.71,0.42c-1.89,0.52-3.73,1.13-5.56,1.76c-0.83,0.28-1.63,0.58-2.43,0.89c-1.75,0.67-3.49,1.35-5.17,2.08 c-0.71,0.32-1.35,0.68-2.06,1.02c-2.56,1.22-5.05,2.57-7.47,4.04c-1.35,0.8-2.61,1.62-3.86,2.48c-0.89,0.62-1.76,1.25-2.61,1.9 c-1.87,1.42-3.65,2.9-5.33,4.45c-0.2,0.17-0.41,0.35-0.6,0.52c-2.05,1.95-3.96,4.03-5.72,6.23c-0.06,0.08-0.15,0.16-0.21,0.24 c-0.03,0.05-0.05,0.09-0.07,0.15c-1.11,1.39-2.17,2.83-3.13,4.3l-8.38-42.05c-0.74-3.65-4.31-6.01-7.96-5.26 c-3.65,0.75-6.01,4.31-5.26,7.96l11.87,59.35h-5.26c-3.72,0-6.75,3.02-6.75,6.74v13.49c0,11.17,9.06,20.23,20.24,20.23h0.43 l13.06,195.86v26.73c0,3.73,3.02,6.75,6.74,6.75h20.23v14.73c-9.29,3.29-14.86,12.79-13.2,22.5c1.66,9.71,10.09,16.81,19.94,16.81 c9.86,0,18.28-7.1,19.95-16.81c1.67-9.71-3.91-19.22-13.2-22.5v-14.73h256.31v14.73c-9.29,3.29-14.86,12.79-13.2,22.5 c1.67,9.71,10.09,16.81,19.95,16.81c9.85,0,18.28-7.1,19.94-16.81c1.67-9.71-3.91-19.22-13.2-22.5v-14.73h20.24 c3.73,0,6.74-3.02,6.74-6.75v-26.73l13.06-195.86h0.43c11.17,0,20.23-9.06,20.23-20.23v-13.49 C879.58,544.29,876.56,541.27,872.84,541.27 M542.33,851.53c-3.72,0-6.74-3.02-6.74-6.74c0-3.72,3.02-6.75,6.74-6.75 c3.72,0,6.75,3.02,6.75,6.75C549.07,848.52,546.05,851.53,542.33,851.53 M812.13,851.53c-3.72,0-6.75-3.02-6.75-6.74 c0-3.72,3.02-6.75,6.75-6.75c3.72,0,6.74,3.02,6.74,6.75C818.87,848.52,815.85,851.53,812.13,851.53 M766.82,488.88 c-6.32,1.08-12.51,2.77-18.5,5.04c-3.48,1.34-5.22,5.24-3.89,8.72c1.34,3.48,5.24,5.22,8.72,3.88c10.23-3.83,21.07-5.77,31.99-5.72 c1.51,0,2.97,0.14,4.45,0.22c3.64,0.16,7.27,0.54,10.87,1.13c0.22,0.04,0.43,0.06,0.64,0.09c1.77,0.31,3.51,0.68,5.22,1.1 c0.56,0.13,1.11,0.26,1.66,0.41c12.37,2.93,23.71,9.16,32.84,18.01c0.53,0.55,1.05,1.11,1.56,1.68c4.9,5.28,8.24,11.82,9.64,18.88 c-11.26,2.77-24.43,11.15-40.36,21.4c-26.53,17.04-59.54,38.26-93.98,38.26c-32.44,0-52.84-14.71-74.44-30.28l-1.42-1.01 c-0.73-0.88-1.67-1.56-2.74-1.96c-19.51-13.96-40.16-27.45-69.78-27.45h-66.66c1.54-6.67,4.79-12.81,9.44-17.84 c0.51-0.57,1.02-1.13,1.56-1.68c9.12-8.85,20.47-15.08,32.84-18.01c0.55-0.15,1.11-0.28,1.66-0.41c1.71-0.41,3.45-0.79,5.22-1.1 c0.21,0,0.42-0.05,0.67-0.09c3.6-0.59,7.23-0.97,10.87-1.13c1.42-0.08,2.88-0.22,4.39-0.22c24.32,0,46.9,9.37,58.91,24.44 c2.32,2.92,6.57,3.4,9.48,1.08c2.91-2.32,3.4-6.57,1.08-9.49c-12.33-14.45-29.33-24.13-48.05-27.38 c32.28-10.51,66.04-15.79,99.99-15.63C727.08,473.82,750.43,480.65,766.82,488.88 M562.56,770.6V581.74h71.54l1.26,0.9 c22.39,16.13,45.54,32.82,82.33,32.82c26.85,0,51.94-10.95,74.2-23.7V770.6H562.56z M576.05,555.17 c13.54,1.32,26.57,5.8,38.06,13.07h-38.06V555.17z M488.37,561.5v-6.75h74.19v13.49h-67.45 C491.39,568.25,488.37,565.22,488.37,561.5 M549.07,581.74V770.6h-27.41l-12.59-188.86H549.07z M832.37,797.58H522.09v-13.49 h310.27V797.58z M832.79,770.6h-27.41V583.68c1.35-0.85,2.7-1.69,4.05-2.53c0.85,0.38,1.77,0.58,2.7,0.59h33.26L832.79,770.6z M866.09,561.5c0,3.72-3.02,6.74-6.75,6.74h-29.68c12.07-7.53,22.85-13.49,29.68-13.49h6.75V561.5z" class="st0"/><path d="M872.84,541.27h-5.26l11.87-59.35c0.74-3.65-1.61-7.22-5.26-7.96c-3.65-0.74-7.22,1.61-7.96,5.26l-8.41,42.03 c-0.96-1.47-2.02-2.9-3.12-4.3c-0.03-0.04-0.04-0.1-0.08-0.14c-0.03-0.04-0.15-0.16-0.23-0.25c-1.76-2.19-3.66-4.26-5.7-6.2 c-0.21-0.21-0.46-0.39-0.67-0.59c-1.66-1.53-3.4-2.99-5.25-4.38c-0.86-0.66-1.75-1.31-2.64-1.93c-1.23-0.85-2.51-1.66-3.81-2.46 c-2.45-1.5-4.98-2.88-7.57-4.11c-0.67-0.32-1.29-0.68-1.97-0.97c-1.69-0.75-3.43-1.43-5.18-2.09c-0.8-0.3-1.6-0.59-2.41-0.88 c-1.83-0.63-3.67-1.23-5.57-1.76c-0.56-0.16-1.14-0.28-1.7-0.42c-3.82-0.99-7.69-1.76-11.61-2.3c-0.77-0.12-1.52-0.25-2.29-0.34 c-1.91-0.23-3.85-0.37-5.8-0.5c-0.55,0-1.09-0.11-1.64-0.14c-26.49-18.75-57.4-27.15-99.85-27.15c-43.59,0-100.46,9.32-126.8,27.17 c-0.55,0-1.07,0.1-1.61,0.14c-1.98,0.12-3.94,0.27-5.88,0.5c-0.72,0.08-1.42,0.21-2.14,0.31c-3.95,0.55-7.87,1.32-11.73,2.32 c-0.56,0.15-1.15,0.27-1.71,0.42c-1.89,0.52-3.73,1.13-5.56,1.76c-0.83,0.28-1.63,0.58-2.43,0.89c-1.75,0.67-3.49,1.35-5.17,2.08 c-0.71,0.32-1.35,0.68-2.06,1.02c-2.56,1.22-5.05,2.57-7.47,4.04c-1.35,0.8-2.61,1.62-3.86,2.48c-0.89,0.62-1.76,1.25-2.61,1.9 c-1.87,1.42-3.65,2.9-5.33,4.45c-0.2,0.17-0.41,0.35-0.6,0.52c-2.05,1.95-3.96,4.03-5.72,6.23c-0.06,0.08-0.15,0.16-0.21,0.24 c-0.03,0.05-0.05,0.09-0.07,0.15c-1.11,1.39-2.17,2.83-3.13,4.3l-8.38-42.05c-0.74-3.65-4.31-6.01-7.96-5.26 c-3.65,0.75-6.01,4.31-5.26,7.96l11.87,59.35h-5.26c-3.72,0-6.75,3.02-6.75,6.74v13.49c0,11.17,9.06,20.23,20.24,20.23h0.43 l13.06,195.86v26.73c0,3.73,3.02,6.75,6.74,6.75h20.23v14.73c-9.29,3.29-14.86,12.79-13.2,22.5c1.66,9.71,10.09,16.81,19.94,16.81 c9.86,0,18.28-7.1,19.95-16.81c1.67-9.71-3.91-19.22-13.2-22.5v-14.73h256.31v14.73c-9.29,3.29-14.86,12.79-13.2,22.5 c1.67,9.71,10.09,16.81,19.95,16.81c9.85,0,18.28-7.1,19.94-16.81c1.67-9.71-3.91-19.22-13.2-22.5v-14.73h20.24 c3.73,0,6.74-3.02,6.74-6.75v-26.73l13.06-195.86h0.43c11.17,0,20.23-9.06,20.23-20.23v-13.49 C879.58,544.29,876.56,541.27,872.84,541.27z M542.33,851.53c-3.72,0-6.74-3.02-6.74-6.74c0-3.72,3.02-6.75,6.74-6.75 c3.72,0,6.75,3.02,6.75,6.75C549.07,848.52,546.05,851.53,542.33,851.53z M812.13,851.53c-3.72,0-6.75-3.02-6.75-6.74 c0-3.72,3.02-6.75,6.75-6.75c3.72,0,6.74,3.02,6.74,6.75C818.87,848.52,815.85,851.53,812.13,851.53z M766.82,488.88 c-6.32,1.08-12.51,2.77-18.5,5.04c-3.48,1.34-5.22,5.24-3.89,8.72c1.34,3.48,5.24,5.22,8.72,3.88c10.23-3.83,21.07-5.77,31.99-5.72 c1.51,0,2.97,0.14,4.45,0.22c3.64,0.16,7.27,0.54,10.87,1.13c0.22,0.04,0.43,0.06,0.64,0.09c1.77,0.31,3.51,0.68,5.22,1.1 c0.56,0.13,1.11,0.26,1.66,0.41c12.37,2.93,23.71,9.16,32.84,18.01c0.53,0.55,1.05,1.11,1.56,1.68c4.9,5.28,8.24,11.82,9.64,18.88 c-11.26,2.77-24.43,11.15-40.36,21.4c-26.53,17.04-59.54,38.26-93.98,38.26c-32.44,0-52.84-14.71-74.44-30.28l-1.42-1.01 c-0.73-0.88-1.67-1.56-2.74-1.96c-19.51-13.96-40.16-27.45-69.78-27.45h-66.66c1.54-6.67,4.79-12.81,9.44-17.84 c0.51-0.57,1.02-1.13,1.56-1.68c9.12-8.85,20.47-15.08,32.84-18.01c0.55-0.15,1.11-0.28,1.66-0.41c1.71-0.41,3.45-0.79,5.22-1.1 c0.21,0,0.42-0.05,0.67-0.09c3.6-0.59,7.23-0.97,10.87-1.13c1.42-0.08,2.88-0.22,4.39-0.22c24.32,0,46.9,9.37,58.91,24.44 c2.32,2.92,6.57,3.4,9.48,1.08c2.91-2.32,3.4-6.57,1.08-9.49c-12.33-14.45-29.33-24.13-48.05-27.38 c32.28-10.51,66.04-15.79,99.99-15.63C727.08,473.82,750.43,480.65,766.82,488.88z M562.56,770.6V581.74h71.54l1.26,0.9 c22.39,16.13,45.54,32.82,82.33,32.82c26.85,0,51.94-10.95,74.2-23.7V770.6H562.56z M576.05,555.17 c13.54,1.32,26.57,5.8,38.06,13.07h-38.06V555.17z M488.37,561.5v-6.75h74.19v13.49h-67.45 C491.39,568.25,488.37,565.22,488.37,561.5z M549.07,581.74V770.6h-27.41l-12.59-188.86H549.07z M832.37,797.58H522.09v-13.49 h310.27V797.58z M832.79,770.6h-27.41V583.68c1.35-0.85,2.7-1.69,4.05-2.53c0.85,0.38,1.77,0.58,2.7,0.59h33.26L832.79,770.6z M866.09,561.5c0,3.72-3.02,6.74-6.75,6.74h-29.68c12.07-7.53,22.85-13.49,29.68-13.49h6.75V561.5z" class="st1"/></g></svg>