<?xml version="1.0" encoding="utf-8"?>
<!-- Generator: Adobe Illustrator 24.3.0, SVG Export Plug-In . SVG Version: 6.00 Build 0)  -->
<svg version="1.1" id="Laag_1" xmlns="http://www.w3.org/2000/svg" xmlns:xlink="http://www.w3.org/1999/xlink" x="0px" y="0px"
	 viewBox="0 0 1024 1024" style="enable-background:new 0 0 1024 1024;" xml:space="preserve">
<style type="text/css">
	.st0{clip-path:url(#SVGID_2_);fill:none;stroke:#000000;stroke-width:26.844;stroke-miterlimit:10;}
	
		.st1{clip-path:url(#SVGID_2_);fill:none;stroke:#000000;stroke-width:32.213;stroke-linecap:round;stroke-miterlimit:10;stroke-dasharray:0,53.688;}
	.st2{fill:none;stroke:#000000;stroke-width:26.844;stroke-miterlimit:10;}
	.st3{clip-path:url(#SVGID_4_);fill:none;stroke:#000000;stroke-width:26.844;stroke-miterlimit:10;}
	.st4{clip-path:url(#SVGID_6_);fill:none;stroke:#000000;stroke-width:26.844;stroke-miterlimit:10;}
</style>
<g>
	<defs>
		<rect id="SVGID_1_" x="50" y="79.56" width="924" height="894.44"/>
	</defs>
	<clipPath id="SVGID_2_">
		<use xlink:href="#SVGID_1_"  style="overflow:visible;"/>
	</clipPath>
	<path class="st0" d="M-140.37,3036.31c-72.25-55.95-152.74-100.86-238.95-133.04c-4.63-1.75-9.48-2.33-14.22-1.85
		c-6.01,0.61-11.77,2.96-16.56,6.89c-0.31,0.23-0.69,0.47-1,0.78l-78.62,68.91c-13.13,11.47-14.39,31.36-2.93,44.49l64.48,73.61
		c5.72,6.43,8.48,14.98,7.73,23.49l-6.06,69.23"/>
	<path class="st0" d="M-671.49,2930.52l-3.75,3.28l-50.41-57.52l181.13-158.75c3.84-3.37,9.27-4.26,13.99-2.3l90.07,37.37
		c9.19,3.81,11.18,15.93,3.71,22.49l-8.29,7.26c-23.57,20.65-25.93,56.51-5.27,80.08l1.58,1.8l-85.92,75.3
		C-569.94,2899.26-631.21,2895.22-671.49,2930.52z"/>
	<path class="st0" d="M-680.98,2924.84l-35.69,31.28c-4.01,3.51-10.11,3.11-13.62-0.9l-23.71-27.05c-3.51-4.01-3.11-10.1,0.9-13.62
		l35.69-31.28L-680.98,2924.84z"/>
	<path class="st0" d="M-650.14,2918.6L-650.14,2918.6c29.91,38.71,44.2,70.61,39.61,121.19l33.46,7.28c0,0,21.56-39.97,9.84-83.24"
		/>
	<path class="st0" d="M-1003.55,2837.32l69.2,81.49l39.86,9.67c8.92,2.15,17.65,4.83,26.24,7.99"/>
	<path class="st0" d="M-727.05,3049.88l103.15,117.11c14.63,16.58,12.08,42.35-6.24,55.57c-15.97,11.61-38.39,7.92-51.41-6.91
		l-70.2-79.66"/>
	<path class="st0" d="M-798.11,3197.55l110.87,125.85c13.78,15.63,37.62,17.15,53.26,3.37c15.63-13.78,17.14-37.62,3.37-53.26
		l-136.13-154.53"/>
	<path class="st0" d="M-810.34,3297.82l91.43,103.78c13.77,15.63,37.62,17.15,53.26,3.37c15.64-13.77,17.14-37.62,3.37-53.26
		l-128.73-146.12"/>
	<path class="st0" d="M-853.1,3249.34l108.19,122.8c12.79,14.52,13.88,36.75,0.96,51.17c-15.44,17.16-41.77,16.65-56.54-0.12
		l-161.31-183.1c-8.37-9.51-22.74-10.73-32.61-2.79c-9.38,7.55-11.59,20.94-5.14,31.11l28.99,45.71
		c17.58,27.72,8.52,64.5-19.91,80.89c-9.32,5.37-21.22,2.2-26.64-7.08l-93.97-161.05c-19.58-33.57-23.17-74.12-9.76-110.6
		l12.47-33.94l-49.76-56.48"/>
	<path class="st0" d="M-311.71,416.19c0,27.92-22.63,50.55-50.55,50.55c-27.92,0-50.55-22.63-50.55-50.55
		c0-27.91,22.63-50.55,50.55-50.55C-334.34,365.64-311.71,388.28-311.71,416.19z"/>
	<path class="st0" d="M-1040.07,240.7c0,21.77-17.65,39.41-39.41,39.41s-39.41-17.65-39.41-39.41c0-21.76,17.64-39.41,39.41-39.41
		S-1040.07,218.94-1040.07,240.7z"/>
	<path class="st0" d="M-855.38,855.54l29.46-63.22l35.43-20.54c3.49-2.01,6.91-4.09,10.27-6.24"/>
	<path class="st0" d="M-896.78,582.49c-16.04-34.61-43.8-62.44-78.38-78.56l-17.78-8.29l20.74-72.35
		c9.04-31.55-10.02-64.28-41.92-71.98c-10.45-2.53-20.98,3.87-23.56,14.31l-44.71,181.01c-9.32,37.73-1.31,77.65,21.83,108.87
		l21.54,29.04l-35.59,76.35"/>
	<path class="st0" d="M-566.6,478.17l-62.9-85.58c-11.67-15.88-10.48-38.59,4.21-51.72c16.86-15.06,42.57-12.06,55.63,5.72
		l126.51,172.14c12.74,17.34,23.2,36.23,31.14,56.23c10.99,27.69,16.97,57.11,17.68,86.89l0.97,40.98l40.98,55.76"/>
	<path class="st0" d="M-636.64,510.31l-99.32-135.15c-12.34-16.79-8.73-40.41,8.06-52.75c16.79-12.34,40.41-8.73,52.75,8.06
		l121.96,165.95"/>
	<path class="st0" d="M-642.98,501.67l-84.43-114.83v-0.07l-9.39-12.75l-21.48-29.26c-6.38-8.72-15.84-13.83-25.77-15.03
		c-0.07-0.07-0.07,0-0.07,0c-9.26-1.21-18.86,1.07-26.98,6.98c-16.78,12.35-20.33,35.97-8.05,52.75l4.43,5.97l18.86,25.7
		l32.08,43.62l26.58,36.11"/>
	<path class="st0" d="M-698.95,553l-96.92-131.88c-11.46-15.59-32.95-21.39-49.78-11.85c-20.06,11.43-25.17,37.26-11.94,55.27
		l144.51,196.63c7.5,10.21,5.64,24.51-4.23,32.46c-9.38,7.55-22.93,6.86-31.49-1.61l-38.48-38.07
		c-23.34-23.08-61.2-22.07-83.27,2.21c-7.23,7.96-6.68,20.27,1.24,27.54L-732,809.85c28.62,26.29,67.49,38.43,105.98,33.11
		l35.81-4.95l44.58,60.66"/>
	<path class="st0" d="M-815.62,264.34c-4.05-31.74-27.85-57.75-59.19-64.58c-4.22-0.88-8.53-1.45-12.93-1.64
		c-41.85-1.8-77.29,30.72-79.08,72.57c-1.72,40.08,27.99,74.31,67.17,78.7"/>
	<path class="st0" d="M-860.68,157.76c11.68-38.92,48.65-66.51,91.14-64.69c44.02,1.88,79.39,34.7,86.17,76.51v0.07"/>
	<path class="st0" d="M-861.62,207.48c-0.34-1.27-0.6-2.55-0.87-3.89"/>
	<path class="st0" d="M-575.88,267.85c4.52-9.09,7.24-19.29,7.7-30.11c0.23-5.37-0.13-10.62-0.95-15.74
		c-5.74-34.52-35.02-61.42-71.36-62.98c-11.11-0.47-21.88,1.5-31.56,5.42l0,0.08c-26.62,10.65-45.85,36.21-47.16,66.74
		c-0.07,1.62-0.06,3.24-0.06,4.86"/>
	<path class="st0" d="M-526.61,226.41c38.86,13.15,65.9,50.8,64.02,93.82c-0.87,20.27-7.99,38.72-19.53,53.69"/>
	<path class="st0" d="M-2214.54,1841.01l210.99-115.99c11.09-6.1,24.54-6.1,35.64,0l210.98,115.99"/>
	<path class="st0" d="M-1956.14,1397.03v247.04c0,13.49,7.35,25.91,19.17,32.41l208.89,114.83"/>
	<path class="st0" d="M-2079.69,1807.32l-2.02,203.9c-0.17,16.1-10.39,30.38-25.58,35.74l-191.87,67.72
		c-25.03,8.83-51.24-9.82-51.09-36.36l1.13-204.42c0.82-147.38,86.05-281.24,219.25-344.34l1.02-0.48
		c25.43-12.05,54.74,6.51,54.74,34.65v91.81"/>
	<path class="st0" d="M-1893.83,1807.51l2.03,202.87c0.2,16.03,10.34,30.23,25.46,35.6l74.6,26.31"/>
	<path class="st0" d="M-1899.4,1656.08v-91.23c0-28.01,29.19-46.46,54.51-34.49l1.05,0.53c131.54,62.23,216.03,193.91,218.19,339.25
		"/>
	<path class="st0" d="M-2017.97,1397.03v247.04c0,13.49-7.35,25.91-19.17,32.41l-208.88,114.83"/>
	<path class="st0" d="M-1498.02,2092.64c-25.33,63.49-97.33,94.42-160.81,69.09c-63.48-25.33-94.42-97.33-69.09-160.81
		c25.33-63.49,97.33-94.42,160.81-69.09C-1503.62,1957.16-1472.69,2029.15-1498.02,2092.64z"/>
	<path class="st0" d="M-1633.46,1991.9c-1.01,2.52-3.87,3.75-6.39,2.75c-2.53-1.01-3.76-3.87-2.75-6.39
		c1.01-2.52,3.87-3.75,6.4-2.75C-1633.68,1986.51-1632.45,1989.37-1633.46,1991.9z"/>
	<path class="st0" d="M-1665.21,2071.46c-1.01,2.52-3.87,3.75-6.39,2.75c-2.52-1.01-3.76-3.87-2.75-6.39
		c1.01-2.52,3.87-3.75,6.4-2.75C-1665.43,2066.08-1664.2,2068.94-1665.21,2071.46z"/>
	<path class="st0" d="M-1553.89,2023.64c-1.01,2.52-3.87,3.75-6.39,2.75c-2.53-1.01-3.76-3.87-2.75-6.39
		c1.01-2.52,3.87-3.75,6.4-2.75C-1554.12,2018.25-1552.89,2021.12-1553.89,2023.64z"/>
	<path class="st0" d="M1534.64,312.55h-6.34c-36.79,0-66.61-29.82-66.61-66.6v-29.6c0-36.78,29.82-66.6,66.61-66.6h6.34
		c36.78,0,66.6,29.82,66.6,66.6v29.6C1601.24,282.73,1571.42,312.55,1534.64,312.55z"/>
	<path class="st0" d="M1616.21,598.77l48.83-14.81c16.22-4.92,27.32-19.88,27.32-36.83V405.3c0-31.83-19.6-60.38-49.3-71.82
		c-71.19-27.43-149.98-27.72-221.38-0.82l-2.75,1.04c-29.98,11.3-49.83,39.99-49.83,72.03v144c0,15.69,9.52,29.8,24.06,35.68
		l52.09,21.06"/>
	<path class="st0" d="M2125.92,312.55h-6.34c-36.79,0-66.61-29.82-66.61-66.6v-29.6c0-36.78,29.82-66.6,66.61-66.6h6.34
		c36.78,0,66.61,29.82,66.61,66.6v29.6C2192.53,282.73,2162.71,312.55,2125.92,312.55z"/>
	<path class="st0" d="M2207.5,598.77l48.83-14.81c16.22-4.92,27.32-19.88,27.32-36.83V405.3c0-31.83-19.6-60.38-49.3-71.82
		c-71.19-27.43-149.98-27.72-221.38-0.82l-2.76,1.04c-29.98,11.3-49.83,39.99-49.83,72.03v144c0,15.69,9.52,29.8,24.06,35.68
		l52.09,21.06"/>
	<path class="st0" d="M3270.62,403.65c-7.64-17.7-21.62-42.55-45.87-51.45c-37.66-13.83-66.7,23.01-112.53,25.55
		c-26.93,1.49-66.76-8.47-117.1-66.55c0,0-27.39,82.37-111.94,83.17"/>
	<path class="st0" d="M2945.71,711l-17.16-11.22c-40.31-26.37-64.36-71.51-63.76-119.67l0.12-9.78h-24.83
		c-17.75,0-32.15-14.39-32.15-32.15V474.9c0-17.79,14.43-32.21,32.15-32.21h6.04V286.52c0-56.98,46.57-103.01,103.55-102.34
		l14.03-12.02c37.52-32.21,85.3-50.06,134.83-50.4h1.21c115.5,0,209.25,93.62,209.25,209.25v111.67h5.03
		c17.75,0,32.15,14.39,32.15,32.15v63.35c0,17.72-14.36,32.15-32.15,32.15h-24.83l-0.05,15.11c-0.14,48.55-25.26,93.62-66.49,119.26
		l-2.79,1.73"/>
	<path class="st0" d="M3101.66,693.75l3.39,44.34l11.08,143.49c0.55,6.96,8.54,10.6,14.11,6.42c23.44-17.44,51.73-26.71,80.68-26.71
		c5.76,0,11.51,0.36,17.26,1.09l1.88,0.24c6.9,0.91,12.05-6.12,9.21-12.41l-63.66-141.07l-68.87-152.7
		c-7.63-16.96-31.44-17.51-39.86-0.91l-79.47,156.57l-49.61,97.7c-3.33,6.48,2.24,13.99,9.45,12.66c11.02-2,22.11-2.97,33.2-2.97
		c30.65,0,60.99,7.51,88.31,22.17l13.33,7.15"/>
	<path class="st0" d="M3230.43,474.68c0,17.51-19.56,31.71-43.69,31.71c-24.13,0-43.7-14.2-43.7-31.71"/>
	<path class="st0" d="M3025.53,474.68c0,17.51-19.56,31.71-43.69,31.71c-24.13,0-43.69-14.2-43.69-31.71"/>
	<path class="st0" d="M-2050.42,3371.69c-6.75,12.85-10.65,27.38-10.93,42.89c-0.16,9.19,0.98,18.14,3.24,26.58
		c10.81,40.86,47.68,71.31,92.05,72.1c44.31,0.79,82.24-28.32,94.49-68.77c2.56-8.36,4.02-17.26,4.19-26.45
		c0.28-15.51-3.11-30.17-9.4-43.25"/>
	<path class="st0" d="M-2058.11,3441.17c-8.48,2.21-17.56,2.89-27.07,1.7c-31.98-4.02-57.75-30.3-61.17-62.35
		c-3.91-36.75,20.18-68.35,53.4-76.58"/>
	<path class="st0" d="M-1871.56,3444.49c6.03,1.8,12.46,2.83,19.05,2.95c39.09,0.69,71.33-30.41,72.02-69.5
		c0.59-32.77-21.21-60.8-51.36-69.35"/>
	<path class="st0" d="M-1776.66,2950.7c-7.64-17.7-21.62-42.55-45.87-51.46c-37.66-13.83-66.71,23.01-112.54,25.55
		c-26.93,1.49-66.76-8.47-117.1-66.55c0,0-27.39,82.36-111.94,83.17"/>
	<path class="st0" d="M-2101.56,3258.06l-17.16-11.23c-40.31-26.37-64.36-71.5-63.77-119.67l0.12-9.77h-24.83
		c-17.75,0-32.14-14.4-32.14-32.15v-63.29c0-17.78,14.43-32.21,32.14-32.21h6.04v-156.17c0-56.98,46.57-103.02,103.55-102.34
		l14.03-12.01c37.52-32.21,85.3-50.06,134.83-50.4h1.2c115.5,0,209.25,93.62,209.25,209.25v111.67h5.03
		c17.75,0,32.15,14.39,32.15,32.15v63.35c0,17.72-14.36,32.15-32.15,32.15h-24.83l-0.04,15.11c-0.14,48.55-25.27,93.62-66.49,119.26
		l-2.79,1.73"/>
	<path class="st0" d="M-1816.84,3021.74c0,17.51-19.56,31.71-43.69,31.71s-43.69-14.2-43.69-31.71"/>
	<path class="st0" d="M-2021.75,3021.74c0,17.51-19.56,31.71-43.69,31.71c-24.13,0-43.69-14.2-43.69-31.71"/>
	<path class="st0" d="M1991.71,1645.78c-7.64-17.7-21.62-42.55-45.87-51.46c-37.66-13.83-66.7,23.01-112.54,25.55
		c-26.93,1.49-66.76-8.47-117.1-66.55c0,0-27.39,82.37-111.94,83.17"/>
	<path class="st0" d="M1657.11,1992.1v50.92c0,28.13-18.29,53-45.14,61.39l-78.69,24.58"/>
	<path class="st0" d="M2068.31,2128.99l-78.69-24.58c-26.85-8.39-45.14-33.25-45.14-61.39v-50.92"/>
	<path class="st0" d="M1724.54,1989.87l-77.37-50.05c-38.72-25.05-61.87-68.22-61.31-114.33l0.16-13.03h-24.81
		c-17.76,0-32.16-14.4-32.16-32.16v-63.29c0-17.76,14.4-32.16,32.16-32.16h6.03v-156.18c0-56.99,46.54-103.01,103.53-102.37
		l14.01-12.01c37.58-32.21,85.36-50.05,134.85-50.36c116.04-0.72,210.5,93.16,210.5,209.2v111.72h5c17.76,0,32.16,14.4,32.16,32.16
		v63.29c0,17.76-14.4,32.16-32.16,32.16h-24.82l-0.05,18.15c-0.14,46.61-24.45,89.8-64.21,114.11l-76.37,46.69
		c-10.71,6.55-23.03,9.96-35.58,9.85l-73.67-0.63C1747.68,2000.52,1735.23,1996.79,1724.54,1989.87z"/>
	<path class="st1" d="M1709.44,2062.12c-28.52,47.51-21.08,106.82,14.87,145.91"/>
	<path class="st1" d="M1885.16,2062.2c28.08,47.77,20.08,107.01-16.22,145.76"/>
	<path class="st0" d="M1763.7,2215.56l-0.12-43.52c-12.75-10.07-21.01-25.64-21.01-43.15c0-17.78,8.46-33.56,21.54-43.62v-54.36"/>
	<path class="st0" d="M1829.56,2030.91v53.55c13.76,10,22.68,26.17,22.68,44.43c0,17.85-8.52,33.69-21.68,43.69v42.88"/>
	<path class="st0" d="M1942.91,1706.52c0,17.51-19.56,31.7-43.69,31.7c-24.13,0-43.69-14.19-43.69-31.7"/>
	<path class="st0" d="M1738.01,1706.52c0,17.51-19.56,31.7-43.69,31.7c-24.13,0-43.69-14.19-43.69-31.7"/>
	<path class="st0" d="M688.76,3309.81l62.77,103.61c12.48,26.48,7,57.95-13.7,78.65c-27.1,27.1-71.04,27.1-98.14,0
		c-20.7-20.7-26.18-52.17-13.7-78.65L688.76,3309.81z"/>
	<path class="st0" d="M456.98,3295.17l45.33,74.83c9.02,19.13,5.06,41.86-9.89,56.81c-19.58,19.57-51.31,19.57-70.88,0
		c-14.95-14.95-18.91-37.68-9.9-56.81L456.98,3295.17z"/>
	<path class="st0" d="M434.66,3215.64l-26.85-4.64c-37.3-6.44-64.55-38.8-64.55-76.66c0-22.34,10.67-43.35,28.71-56.53l0.14-0.1
		c52.99-38.71,91.93-93.62,110.93-156.42l4.4-14.53c10.27-33.93,14.48-69.4,12.45-104.79l-0.77-13.46
		c-2.53-44.21,32.63-81.44,76.91-81.44h1.36c44.38,0,79.58,37.4,76.89,81.7l-0.67,11c-2.16,35.61,2,71.33,12.3,105.49l4.78,15.84
		c18.97,62.93,57.95,117.95,111.03,156.72l0,0c18.04,13.18,28.71,34.18,28.71,56.53v2.31c0,36.82-25.81,68.6-61.86,76.14l-20.03,4.2
		"/>
	<path class="st0" d="M721.51,3158.98l-25.71,5.83c-21.23,4.82-37.99,21.1-43.43,42.19c-6.62,25.68-29.78,43.63-56.3,43.63h-38.86
		c-26.59,0-49.8-18.05-56.35-43.83l-0.02-0.07c-5.47-21.54-22.75-38.08-44.51-42.6l-24.73-5.14"/>
	<path class="st0" d="M1559.53,3064.16c-1.31,27.19,2.22,54.07,9.88,79.53c6.09,20.08,14.78,39.39,25.94,57.11
		c14.21,23.03,32.46,43.68,54.16,60.77"/>
	<path class="st0" d="M1790.15,3312.93c27.61,0.85,54.83-3.15,80.6-11.64c19.91-6.32,39.03-15.43,56.71-26.95
		c22.31-14.56,42.32-32.96,58.85-54.77"/>
	<path class="st0" d="M1944.57,2888.2c20.65,16.19,38.22,35.64,52.18,57.22c11.13,17.11,20.02,35.63,26.43,55.06
		c8.24,24.81,12.42,51.08,12.07,77.75"/>
	<path class="st0" d="M1612.93,2924.51c16.85-20.58,36.94-38.01,59.17-51.65c17.25-10.82,35.96-19.29,55.49-25.24
		c24.57-7.55,50.45-11.19,76.71-10.39"/>
	<path class="st0" d="M1832.79,2880.16c15.65-32.91,20.99-69.96,14.96-106.19l-3.46-21.26c-0.27-1.45-0.35-2.98-0.35-4.44
		c0-11.99,8.04-22.65,19.95-25.77c40.66-10.6,83.68,4.92,108.27,39l0.28,0.41c8.17,11.36,6.24,27.02-4.43,36.02l-14.82,12.54
		c-28.68,24.18-48.84,56.59-58.05,92.68"/>
	<path class="st0" d="M1701.25,3241.47c-9.35,35.4-29.44,67.26-57.7,91.16l-14.83,12.47c-10.67,9-12.61,24.73-4.43,36.02l0.35,0.49
		c24.59,34.08,67.61,49.53,108.27,39c11.91-3.12,19.95-13.85,19.95-25.77c0-1.45-0.07-2.98-0.35-4.43l-3.54-21.33
		c-5.89-35.88-0.76-72.53,14.55-105.15"/>
	<path class="st0" d="M1605.72,3036.5c-32.63-15.17-69.13-20.3-104.88-14.34l-21.34,3.46c-1.45,0.28-2.98,0.35-4.43,0.35
		c-11.91,0-22.65-8.04-25.77-19.95c-10.53-40.66,4.92-83.68,39-108.27l0.48-0.27c11.29-8.17,27.02-6.23,36.02,4.43l12.47,14.82
		c23.9,28.26,55.83,48.35,91.3,57.63"/>
	<path class="st0" d="M1989.48,3105.84c32.97,15.73,70.1,21.06,106.47,15.1l21.27-3.53c1.45-0.28,2.98-0.35,4.43-0.35
		c11.98,0,22.65,8.03,25.77,19.95c10.6,40.66-4.92,83.68-39,108.27l-0.42,0.35c-11.36,8.17-27.02,6.23-36.02-4.44l-12.54-14.82
		c-24.17-28.68-56.52-48.83-92.55-58.05"/>
	<path class="st0" d="M1672.01,2872.92c-11.5-19.39-26.97-36.36-45.55-49.73l-16.15-11.55c-9.14-6.51-12.52-18.22-8.82-28.38
		c0.49-1.37,1.17-2.75,1.9-4.04c19.6-33.32,57.62-51.18,95.76-45.03l0.48,0.09c12.73,2.06,21.61,13.54,20.58,26.3l-1.48,17.76
		c-2,23.67,1.11,47.21,8.99,69.24"/>
	<path class="st0" d="M1927.37,3274.4c11.19,17.64,25.73,33.16,42.99,45.45l16.15,11.55c9.04,6.56,12.45,18.19,8.78,28.28
		c-0.53,1.44-1.09,2.78-1.92,4.11c-19.52,33.35-57.58,51.28-95.68,45.06l-0.59-0.04c-12.63-2.1-21.62-13.53-20.47-26.35l1.48-17.75
		c1.84-21.58-0.61-43.17-7.13-63.5"/>
	<path class="st0" d="M1569.45,3143.79c-20.59,6.77-42.39,9.31-64.3,7.44l-17.73-1.56c-12.77-1.04-24.27,7.92-26.3,20.58l-0.11,0.56
		c-6.15,38.14,11.71,76.16,45.06,95.68c1.33,0.83,2.67,1.4,4.11,1.93c10.16,3.7,21.8,0.29,28.28-8.78l11.55-16.16
		c12.34-17.15,27.67-31.67,45.29-42.78"/>
	<path class="st0" d="M1996.72,2945.32c19.57-11.52,36.64-27.03,50-45.8l11.52-16.08c6.58-9.11,18.29-12.5,28.46-8.8
		c1.36,0.5,2.68,1.15,3.96,1.87c33.32,19.6,51.26,57.65,45.03,95.76l-0.02,0.51c-2.13,12.71-13.53,21.62-26.37,20.55l-17.76-1.48
		c-23.34-1.96-46.6,1.08-68.36,8.7"/>
	<path class="st0" d="M1791.36,2987.39c-8.56,23.53-34.58,35.66-58.11,27.1c-23.53-8.57-35.66-34.58-27.1-58.11
		c8.56-23.53,34.58-35.66,58.11-27.1C1787.79,2937.84,1799.92,2963.86,1791.36,2987.39z"/>
	<path class="st0" d="M1943.06,3042.6c-8.56,23.53-34.58,35.66-58.11,27.1c-23.53-8.57-35.66-34.58-27.1-58.11
		c8.56-23.53,34.58-35.66,58.11-27.1C1939.49,2993.05,1951.62,3019.07,1943.06,3042.6z"/>
	<path class="st0" d="M1738.91,3131.5c-8.56,23.53-34.58,35.66-58.11,27.1c-23.53-8.57-35.66-34.58-27.1-58.11
		c8.56-23.53,34.58-35.66,58.11-27.1C1735.34,3081.95,1747.47,3107.97,1738.91,3131.5z"/>
	<path class="st0" d="M1890.6,3186.71c-8.56,23.53-34.58,35.66-58.11,27.1c-23.53-8.57-35.66-34.58-27.1-58.11
		c8.56-23.53,34.58-35.66,58.11-27.1C1887.03,3137.17,1899.17,3163.18,1890.6,3186.71z"/>
	<path class="st0" d="M-2012.68,194.94h-189.25v585.34c0,52.26,42.37,94.63,94.63,94.63s94.63-42.36,94.63-94.63V194.94z"/>
	<path class="st0" d="M-1881.04,548.58c12.88,12.89,12.88,33.78,0,46.66c-12.89,12.89-33.78,12.89-46.66,0"/>
	<path class="st0" d="M-1734.63,595.24c-19.48,19.48-51.07,19.48-70.56,0c-19.48-19.48-19.48-51.07,0-70.56"/>
	<path class="st0" d="M-1781.29,715.14c-12.89-12.89-12.89-33.78,0-46.66c12.88-12.88,33.78-12.88,46.66,0"/>
	<path class="st0" d="M-1927.7,668.48c19.48-19.48,51.07-19.48,70.56,0c19.48,19.48,19.48,51.07,0,70.56"/>
	<path class="st0" d="M-1963.99,557.23c12.98-23.06,31.43-41.75,53.04-54.98c-7.4-12.3-17.22-23.11-29.08-31.63l-10.39-7.43
		c-5.88-4.18-8.05-11.71-5.68-18.25c0.32-0.88,0.75-1.77,1.22-2.59c12.6-21.43,37.05-32.91,61.57-28.96l0.31,0.06
		c8.19,1.33,13.9,8.71,13.23,16.91l-0.95,11.42c-1.28,15.05,0.66,30.06,5.66,44.09c23.95-7.08,50.84-8.56,76.37-3.14
		c5.26-17.64,6.48-36.31,3.45-54.69l-2.35-14.5c-0.55-3.18-0.19-6.31,0.86-9.19c1.97-5.42,6.49-9.79,12.47-11.37
		c27.63-7.18,56.88,3.36,73.59,26.51l0.2,0.35c5.6,7.67,4.26,18.34-3,24.48l-10.05,8.49c-14.64,12.29-26.05,27.86-33.42,45.23
		c22.88,12.41,41.62,30.12,55.19,50.96c12.52-7.38,23.38-17.34,31.93-29.31l7.41-10.34c4.23-5.86,11.76-8.04,18.3-5.66
		c0.88,0.32,1.72,0.73,2.55,1.2c21.43,12.61,32.96,37.07,28.95,61.57l-0.01,0.33c-1.37,8.18-8.7,13.9-16.96,13.22l-11.42-0.95
		c-14.89-1.28-29.69,0.68-43.6,5.51c8.06,24.14,10.23,50.34,5.37,76.46c17.05,4.77,35.06,5.8,52.74,2.9l14.47-2.41
		c3.18-0.55,6.31-0.19,9.19,0.86c5.41,1.97,9.79,6.49,11.37,12.48c7.17,27.63-3.36,56.88-26.51,73.59l-0.32,0.27
		c-7.7,5.54-18.38,4.19-24.51-3.07l-8.49-10.05c-11.71-13.82-26.22-24.79-42.42-32.18c-12.23,23.89-31.01,44.06-52.23,58.21
		c7.11,10.98,16.23,20.65,27.02,28.34l10.39,7.42c5.81,4.22,8.01,11.7,5.65,18.18c-0.33,0.93-0.71,1.79-1.24,2.64
		c-12.56,21.45-37.02,32.98-61.52,28.98l-0.38-0.03c-8.12-1.36-13.9-8.7-13.16-16.94l0.95-11.42c1.14-13.45-0.3-26.95-4.24-39.65
		c-24.67,8.14-51.44,10.06-78.04,4.68c-3.88,15.82-4.58,32.47-1.86,48.81l2.41,14.47c0.51,3.16,0.19,6.31-0.84,9.14
		c-1.99,5.46-6.56,9.82-12.54,11.4c-27.63,7.17-56.88-3.36-73.59-26.51l-0.22-0.3c-5.59-7.72-4.24-18.39,3-24.48l10.07-8.54
		c12.99-10.96,23.46-24.38,30.8-39.39c-24.16-12.99-43.71-31.82-57.53-54.08"/>
	<path class="st0" d="M-2241.2,4293.26c-1.22,25.41,2.08,50.53,9.23,74.32c5.69,18.77,13.81,36.82,24.24,53.38
		c13.28,21.53,30.34,40.82,50.61,56.79"/>
	<path class="st0" d="M-1881.36,4128.82c19.3,15.13,35.72,33.31,48.77,53.47c10.4,15.99,18.71,33.3,24.7,51.46
		c7.69,23.19,11.6,47.73,11.28,72.66"/>
	<path class="st0" d="M-2191.29,4162.75c15.75-19.23,34.52-35.52,55.3-48.27c16.12-10.11,33.61-18.03,51.85-23.59
		c22.96-7.06,47.15-10.45,71.69-9.71"/>
	<path class="st0" d="M-1985.82,4121.31c14.63-30.75,19.61-65.38,13.98-99.24l-3.24-19.87c-0.26-1.36-0.33-2.78-0.33-4.14
		c0-11.2,7.51-21.17,18.65-24.08c38-9.9,78.2,4.59,101.18,36.45l0.26,0.39c7.64,10.62,5.83,25.25-4.14,33.66l-13.85,11.72
		c-26.8,22.59-45.64,52.89-54.25,86.62"/>
	<path class="st0" d="M-2108.75,4458.97c-8.74,33.08-27.52,62.86-53.93,85.19l-13.86,11.65c-9.97,8.42-11.78,23.11-4.14,33.66
		l0.32,0.45c22.98,31.85,63.18,46.28,101.18,36.45c11.14-2.91,18.64-12.95,18.64-24.08c0-1.36-0.06-2.78-0.32-4.14l-3.3-19.94
		c-5.5-33.53-0.71-67.78,13.59-98.27"/>
	<path class="st0" d="M-2198.03,4267.41c-30.49-14.18-64.61-18.96-98.01-13.4l-19.94,3.24c-1.36,0.26-2.79,0.32-4.15,0.32
		c-11.14,0-21.17-7.51-24.08-18.64c-9.84-38,4.6-78.2,36.45-101.19l0.45-0.25c10.55-7.64,25.25-5.83,33.66,4.14l11.65,13.85
		c22.33,26.41,52.18,45.18,85.32,53.86"/>
	<path class="st0" d="M-2136.07,4114.54c-10.75-18.12-25.2-33.98-42.57-46.48l-15.1-10.79c-8.54-6.08-11.7-17.02-8.25-26.52
		c0.46-1.27,1.09-2.57,1.77-3.77c18.32-31.14,53.85-47.83,89.49-42.09l0.45,0.08c11.9,1.93,20.2,12.65,19.23,24.58l-1.39,16.59
		c-1.87,22.12,1.04,44.13,8.4,64.71"/>
	<path class="st0" d="M-2231.92,4367.68c-19.24,6.32-39.61,8.7-60.09,6.95l-16.57-1.45c-11.93-0.97-22.68,7.4-24.58,19.23
		l-0.11,0.52c-5.75,35.64,10.94,71.18,42.11,89.42c1.24,0.77,2.49,1.31,3.84,1.8c9.5,3.46,20.37,0.27,26.43-8.2l10.79-15.1
		c11.53-16.03,25.87-29.6,42.33-39.98"/>
	<path class="st0" d="M-1832.61,4182.2c18.29-10.76,34.24-25.27,46.72-42.8l10.77-15.03c6.15-8.52,17.09-11.68,26.59-8.22
		c1.28,0.46,2.5,1.07,3.7,1.75c31.14,18.32,47.9,53.88,42.08,89.49l-0.01,0.47c-2,11.88-12.65,20.2-24.65,19.21l-16.59-1.38
		c-21.81-1.83-43.56,1.01-63.89,8.13"/>
	<path class="st0" d="M-2024.54,4221.51c-8,21.99-32.32,33.33-54.31,25.33c-21.99-8.01-33.33-32.32-25.33-54.31
		c8-21.99,32.32-33.33,54.31-25.33C-2027.87,4175.21-2016.53,4199.52-2024.54,4221.51z"/>
	<path class="st0" d="M-1882.77,4273.11c-8,21.99-32.32,33.33-54.31,25.33c-21.99-8.01-33.33-32.32-25.33-54.31
		c8.01-21.99,32.32-33.33,54.31-25.32C-1886.1,4226.81-1874.76,4251.12-1882.77,4273.11z"/>
	<path class="st0" d="M-2073.56,4356.19c-8,21.99-32.32,33.33-54.31,25.33c-21.99-8.01-33.33-32.32-25.32-54.31
		c8-21.99,32.32-33.33,54.31-25.32C-2076.89,4309.89-2065.56,4334.2-2073.56,4356.19z"/>
	<path class="st0" d="M-1931.79,4407.79c-8,21.99-32.32,33.33-54.31,25.33c-21.99-8.01-33.33-32.32-25.32-54.31
		c8.01-21.99,32.32-33.33,54.31-25.32C-1935.12,4361.49-1923.79,4385.8-1931.79,4407.79z"/>
	<path class="st0" d="M-1840.58,4361.72l-187.33,297.78c-13.56,21.55,1.93,49.6,27.4,49.6h374.66c25.47,0,40.96-28.05,27.4-49.6
		l-187.33-297.78C-1798.48,4341.54-1827.89,4341.54-1840.58,4361.72z"/>
	<path class="st0" d="M557.36,1752.46h-4.91c-28.45,0-51.5-23.06-51.5-51.51v-22.89c0-28.45,23.06-51.51,51.5-51.51h4.91
		c28.45,0,51.51,23.06,51.51,51.51v22.89C608.87,1729.4,585.81,1752.46,557.36,1752.46z"/>
	<path class="st0" d="M620.44,1973.79l37.76-11.45c12.55-3.8,21.13-15.37,21.13-28.48v-109.67c0-24.62-15.15-46.69-38.12-55.54
		c-55.05-21.21-115.98-21.44-171.19-0.63l-2.13,0.8c-23.18,8.74-38.54,30.92-38.54,55.7v111.36c0,12.13,7.36,23.04,18.61,27.59
		l40.28,16.29"/>
	<path class="st0" d="M835.51,1714.87v447.21c0,18.18-14.74,32.92-32.92,32.92h-490c-18.18,0-32.92-14.74-32.92-32.92v-447.21"/>
	<path class="st0" d="M3026.26,1878.23c14.1-14.16,37-14.21,51.16-0.12c14.16,14.1,14.21,37,0.12,51.16"/>
	<path class="st0" d="M2935.45,1787.42c14.09-14.16,37-14.21,51.16-0.12c14.16,14.09,14.21,37,0.12,51.16"/>
	<path class="st0" d="M3119.5,1791.7c14.1-14.16,37-14.21,51.16-0.12c14.16,14.09,14.21,37,0.12,51.16"/>
	<path class="st0" d="M3028.69,1700.89c14.1-14.16,37-14.21,51.16-0.12c14.16,14.1,14.21,37,0.12,51.16"/>
	<path class="st0" d="M2918.36,1724.87c-17.55-8.8-33.09-21.38-45.4-37l-8.97-11.43c-6.44-8.26-18.19-10.05-26.86-4.29l-0.34,0.23
		c-26.17,17.58-38.91,49.35-32.05,80.05c1.53,6.65,6.13,11.85,12.07,14.26c3.08,1.23,6.56,1.71,10.03,1.29l16.04-2.12
		c18.94-2.43,37.98-0.82,55.97,4.57c-7.69,28.82-7.34,58.44-0.23,85.95c-0.23,0.06-0.45,0.17-0.68,0.17
		c-14.15,3.93-29.01,5.02-43.83,3.2l-12.54-1.49c-9.01-1.07-17.39,4.98-19.14,13.93l-0.11,0.4c-5.26,26.81,6.47,54.23,29.59,68.85
		c0.92,0.62,1.83,1.07,2.86,1.46c7.08,2.85,15.44,0.73,20.23-5.51l8.57-11.18c8.79-11.29,32.3-28.1,32.3-28.1
		c14.38,25.06,35.17,46.54,61.26,61.77c-8.64,16.24-20.66,30.63-35.38,42.2l-11.43,9.03c-8.21,6.44-10.11,18.13-4.23,26.86
		l0.23,0.34c17.52,26.12,49.35,38.85,80.05,32c6.65-1.53,11.85-6.13,14.26-12.07c1.23-3.08,1.71-6.56,1.23-10.03l-2.07-16.05
		c-2.42-18.09-0.97-36.39,3.9-53.68c29.1,6.95,58.65,5.86,86.1-2.16c3.87,14.15,4.96,29.06,3.19,43.83l-1.5,12.55
		c-1.12,9.06,4.92,17.33,13.82,19.14l0.46,0.05c26.81,5.37,54.23-6.41,68.85-29.54c0.62-0.92,1.07-1.89,1.46-2.86
		c2.85-7.08,0.73-15.38-5.51-20.29l-11.18-8.57c-11.57-8.85-21.23-19.88-28.67-32.24"/>
	<path class="st0" d="M2992.26,1652.94c-7.63-13.83-18.03-26.11-30.81-35.98l-11.17-8.57c-6.3-4.79-8.42-13.2-5.51-20.29
		c0.39-0.97,0.9-1.94,1.4-2.8c14.74-23.13,42.1-34.85,68.97-29.54l0.34,0.05c8.96,1.75,14.95,10.13,13.94,19.14l-1.5,12.54
		c-1.98,16.53-0.42,33.15,4.54,48.77c26.66-6.88,56.32-7.51,84.23-0.55c6.45-19.24,8.51-39.71,5.9-60.07l-2.06-16.1
		c-0.48-3.53,0.06-6.95,1.34-10.09c2.35-5.88,7.49-10.54,14.15-12.01c30.7-6.85,62.52,5.88,80.04,32l0.23,0.4
		c5.88,8.67,3.98,20.36-4.23,26.86l-11.44,8.98c-16.58,12.94-29.72,29.68-38.52,48.55c24.72,14.5,44.7,34.73,58.84,58.2
		c14.07-7.63,26.4-18.21,36.26-31.04l8.57-11.12c4.9-6.3,13.26-8.36,20.4-5.51c0.91,0.39,1.83,0.9,2.75,1.4
		c23.13,14.74,34.85,42.1,29.54,68.97l-0.06,0.34c-1.81,8.96-10.08,15-19.14,13.93l-12.54-1.49c-16.36-1.98-32.75-0.42-48.26,4.37
		c7.96,26.93,9.38,55.85,3,84.44c18.61,5.89,38.39,7.73,57.96,5.24l16.04-2.12c3.53-0.49,6.95,0,10.09,1.29
		c5.88,2.4,10.54,7.55,12.02,14.2c6.85,30.7-5.83,62.52-32,80.05l-0.34,0.29c-8.73,5.76-20.42,3.86-26.92-4.34l-8.92-11.38
		c-12.37-15.68-27.96-28.31-45.51-37.06"/>
	<circle class="st0" cx="3069.59" cy="1804.77" r="385.89"/>
	<path class="st0" d="M-627.38,1892.32c13.03,13.03,13.03,34.15,0,47.18c-13.03,13.03-34.15,13.03-47.18,0"/>
	<path class="st0" d="M-472.57,1946.29c-19.7,19.7-51.64,19.7-71.33,0s-19.7-51.64,0-71.33"/>
	<path class="st0" d="M-519.75,2067.51c-13.03-13.03-13.03-34.15,0-47.18c13.03-13.03,34.15-13.03,47.18,0"/>
	<path class="st0" d="M-667.77,2020.33c19.7-19.7,51.63-19.7,71.34,0c19.7,19.7,19.7,51.64,0,71.34"/>
	<path class="st0" d="M-539.73,1834.09c5.32-17.83,6.55-36.71,3.49-55.3l-2.37-14.66c-0.56-3.22-0.19-6.38,0.87-9.29
		c1.99-5.47,6.56-9.89,12.61-11.49c27.94-7.25,57.51,3.4,74.4,26.8l0.21,0.35c5.66,7.76,4.31,18.55-3.03,24.75l-10.16,8.58
		c-14.8,12.43-26.33,28.17-33.78,45.73c23.13,12.55,42.08,30.45,55.8,51.52c12.65-7.45,23.64-17.53,32.28-29.63l7.49-10.45
		c4.28-5.92,11.89-8.13,18.5-5.72c0.89,0.32,1.74,0.75,2.57,1.22c21.66,12.74,33.32,37.48,29.28,62.25l-0.01,0.33
		c-1.39,8.26-8.8,14.05-17.15,13.36l-11.55-0.96c-15.05-1.29-30.01,0.69-44.08,5.57c8.15,24.41,10.35,50.9,5.43,77.31
		c17.23,4.82,35.45,5.86,53.32,2.93l14.63-2.44c3.22-0.56,6.38-0.19,9.29,0.87c5.47,1.99,9.9,6.56,11.49,12.61
		c7.26,27.94-3.4,57.51-26.8,74.4l-0.32,0.27c-7.79,5.6-18.58,4.24-24.78-3.1l-8.59-10.16c-11.84-13.97-26.51-25.06-42.89-32.53
		c-12.36,24.15-31.35,44.54-52.8,58.85c7.18,11.1,16.41,20.88,27.32,28.65l10.5,7.51c5.88,4.26,8.09,11.83,5.71,18.38
		c-0.34,0.94-0.71,1.81-1.25,2.67c-12.69,21.69-37.43,33.34-62.2,29.29l-0.38-0.03c-8.21-1.37-14.05-8.8-13.31-17.13l0.96-11.54
		c1.15-13.6-0.3-27.25-4.28-40.09c-24.94,8.23-52.01,10.17-78.9,4.73c-3.92,16-4.63,32.83-1.88,49.35l2.44,14.62
		c0.51,3.2,0.19,6.38-0.85,9.24c-2.01,5.52-6.63,9.93-12.68,11.52c-27.94,7.25-57.51-3.4-74.4-26.8l-0.22-0.3
		c-5.65-7.81-4.29-18.6,3.03-24.75l10.18-8.64c13.14-11.08,23.71-24.65,31.13-39.82c-24.43-13.13-44.19-32.17-58.17-54.68
		l-0.71-0.03c-10.83,7.06-20.3,16.18-27.97,26.84l-7.51,10.5c-4.21,5.9-11.78,8.11-18.38,5.71c-0.94-0.34-1.81-0.71-2.67-1.25
		c-21.68-12.69-33.29-37.41-29.29-62.2l0.08-0.36c1.32-8.23,8.8-14.05,17.1-13.38l11.53,1.01c13.65,1.17,27.25-0.3,40.11-4.33
		c0.18-0.04,0.43-0.12,0.64-0.21c-7.44-24.99-8.67-52.13-2.55-78.77c-16.66-4.39-34.17-5.23-51.44-2.42l-14.63,2.44
		c-3.2,0.51-6.38,0.19-9.24-0.85c-5.52-2.01-9.93-6.63-11.52-12.68c-7.26-27.94,3.38-57.46,26.8-74.4l0.31-0.22
		c7.79-5.6,18.59-4.29,24.8,3.05l8.57,10.21c11.78,13.95,26.42,24.98,42.79,32.49c13.12-23.31,31.78-42.21,53.63-55.59
		c-7.48-12.44-17.4-23.37-29.4-31.98l-10.5-7.51c-5.94-4.23-8.15-11.84-5.74-18.45c0.32-0.89,0.77-1.79,1.23-2.62
		c12.74-21.66,37.46-33.27,62.26-29.27l0.31,0.06c8.28,1.34,14.05,8.8,13.38,17.1l-0.96,11.54c-1.29,15.22,0.66,30.4,5.72,44.58
		C-592.73,1830.11-565.55,1828.61-539.73,1834.09z"/>
	<path class="st0" d="M-513.73,1692.66c-0.94-8.32-2.22-16.64-3.86-24.97c-32.61-166.11-193.74-274.31-359.79-241.71
		c-166.12,32.61-274.32,193.68-241.71,359.79c26.69,135.98,139.51,233.1,270.71,245.96"/>
	<path class="st0" d="M3320.91,3298.14l-15.88,5.62c-148.71,52.62-311.2,51.18-458.95-4.08l-2.85-1.06
		c-26.22-9.81-43.6-34.86-43.6-62.86v-231.35c0-28.3,17.75-53.56,44.38-63.15l11.94-4.29c148.34-53.39,310.75-52.84,458.73,1.54
		l6.99,2.57c26.41,9.7,43.96,34.86,43.96,62.99v230.8C3365.63,3263.3,3347.71,3288.65,3320.91,3298.14z"/>
	<path class="st0" d="M2799.63,3113.76v-87.59l56.32-20.27c148.34-53.38,310.75-52.83,458.73,1.55l50.95,18.72v87.59"/>
	<path class="st0" d="M3365.63,3129.26v87.59l-56.32,20.27c-148.35,53.38-310.75,52.83-458.73-1.55l-50.95-18.72v-87.59"/>
	<path class="st0" d="M3391.78,3237.78l-25.99,22.05v-335.49c0-33,26.5-59.9,59.5-60.39c33.7-0.5,61.29,26.68,61.29,60.39v108.72
		C3486.57,3111.92,3451.91,3186.78,3391.78,3237.78z"/>
	<path class="st0" d="M2773.48,3237.78l26,22.05v-335.49c0-33-26.5-59.9-59.49-60.39c-33.7-0.5-61.29,26.68-61.29,60.39v108.72
		C2678.69,3111.92,2713.36,3186.78,2773.48,3237.78z"/>
	<path class="st0" d="M1678.37,4405.25l52.64-83.79c9.77-15.55,7.12-36.57-7.43-47.77c-16.69-12.85-40.37-8.31-51.31,9.09
		l-105.88,168.54c-10.66,16.97-19.1,35.24-25.12,54.36c-8.33,26.48-11.9,54.22-10.53,81.94l1.88,38.15l-34.3,54.6"/>
	<path class="st0" d="M1745.64,4430.36l83.12-132.32c10.33-16.44,5.37-38.15-11.07-48.47c-16.44-10.33-38.14-5.37-48.47,11.07
		l-102.06,162.48"/>
	<path class="st0" d="M1838.45,4414.79l68.55-109.12c10.33-16.44,5.37-38.14-11.07-48.47c-16.44-10.33-38.14-5.37-48.47,11.07
		l-96.52,153.64"/>
	<path class="st0" d="M1806.44,4465.81l81.11-129.12c9.59-15.27,29.16-22.11,45.45-14.38c19.42,9.26,25.92,32.92,14.85,50.54
		l-120.94,192.52c-6.28,9.99-3.58,23.16,6.13,29.87c9.23,6.38,21.77,4.82,29.15-3.63l33.18-37.98
		c20.12-23.03,55.37-24.67,77.53-3.59c7.26,6.9,7.58,18.38,0.71,25.68l-119.04,126.52c-24.82,26.37-60.1,40.29-96.24,37.96
		l-33.61-2.17l-37.31,59.39"/>
	<path class="st0" d="M1567,4368.78c-5.84-49.26-24.83-96.3-55.16-136.09l-36.51-47.85l57.84-42.82
		c48.19-35.63,106.57-54.76,166.57-54.49l81.81,0.27c60.8,0.2,119.92-19.4,168.44-55.9l52.88-39.79l39.6,52.88
		c36.84,49.19,56.37,109.25,55.56,170.73l-1.07,73.68c-0.81,59.93,17.72,118.45,52.88,166.96l45.77,63.28l-71,50.27
		c-36.24,25.7-77.92,42.28-121.6,48.45"/>
	<path class="st0" d="M636.58,745.75c-12.15,17.75-41.37,49.82-57.62,63.92c-22.5,19.52-48.29,34.89-76.17,45.4l-38.36,14.46
		l-39.39,57.55"/>
	<path class="st0" d="M442.48,759.07c4.1-128.46-93.62-196.13-93.62-196.13l32.27-67.99c14.07-29.65,0.61-65.06-29.61-77.86
		c-9.9-4.2-21.33,0.4-25.58,10.28l-59.38,138.07c-24.4,56.73-22.2,121.4,5.99,176.35l-47.58,69.52"/>
	<path class="st0" d="M479.42,748.72h201.4c37.06,0,67.11-30.05,67.11-67.11v-45.1"/>
	<path class="st0" d="M747.93,204.46v-32.88c0-37.06-30.05-67.11-67.11-67.11H425.8c-37.06,0-67.11,30.05-67.11,67.11v213.34"/>
</g>
<line class="st2" x1="513.03" y1="681.63" x2="593.57" y2="681.63"/>
<g>
	<defs>
		<rect id="SVGID_3_" x="50" y="79.56" width="924" height="894.44"/>
	</defs>
	<clipPath id="SVGID_4_">
		<use xlink:href="#SVGID_3_"  style="overflow:visible;"/>
	</clipPath>
	<path class="st3" d="M660.68,104.48l-12.49,42.93c-4.17,14.33-17.3,24.18-32.22,24.18H490.63c-14.92,0-28.05-9.85-32.22-24.18
		l-12.49-42.93"/>
</g>
<polygon class="st2" points="659.55,379.49 591.18,379.49 591.18,317.13 514.78,317.13 514.78,379.49 452.41,379.49 452.41,455.89 
	514.78,455.89 514.78,518.26 591.18,518.26 591.18,455.89 659.55,455.89 "/>
<g>
	<defs>
		<rect id="SVGID_5_" x="50" y="79.56" width="924" height="894.44"/>
	</defs>
	<clipPath id="SVGID_6_">
		<use xlink:href="#SVGID_5_"  style="overflow:visible;"/>
	</clipPath>
	<path class="st4" d="M762.3,321.7L762.3,321.7c-14.85-5.92-26.69-17.56-32.86-32.3l-0.52-1.23c-3.16-7.54-1.44-16.24,4.34-22.02
		l24.61-24.62c14.06-14.06,36.85-14.06,50.91,0c14.06,14.06,14.06,36.85,0,50.92L784,317.23
		C778.31,322.92,769.77,324.68,762.3,321.7z"/>
	<path class="st4" d="M762.3,420.56L762.3,420.56c-14.85-5.92-26.69-17.56-32.86-32.3l-0.52-1.23c-3.16-7.54-1.44-16.24,4.34-22.02
		l24.61-24.62c14.06-14.06,36.85-14.06,50.91,0c14.06,14.06,14.06,36.86,0,50.92L784,416.1
		C778.31,421.79,769.77,423.54,762.3,420.56z"/>
	<path class="st4" d="M762.3,513.25L762.3,513.25c-14.85-5.92-26.69-17.56-32.86-32.3l-0.52-1.23c-3.16-7.54-1.44-16.24,4.34-22.02
		l24.61-24.62c14.06-14.06,36.85-14.06,50.91,0c14.06,14.06,14.06,36.85,0,50.92L784,508.78
		C778.31,514.47,769.77,516.23,762.3,513.25z"/>
	<path class="st4" d="M762.3,605.93L762.3,605.93c-14.85-5.92-26.69-17.56-32.86-32.3l-0.52-1.23c-3.16-7.54-1.44-16.24,4.34-22.02
		l24.61-24.62c14.06-14.06,36.85-14.06,50.91,0c14.06,14.06,14.06,36.86,0,50.92L784,601.47
		C778.31,607.16,769.77,608.91,762.3,605.93z"/>
</g>
</svg>
