<?xml version="1.0" encoding="utf-8"?>
<!-- Generator: Adobe Illustrator 24.3.0, SVG Export Plug-In . SVG Version: 6.00 Build 0)  -->
<svg version="1.1" id="Laag_1" xmlns="http://www.w3.org/2000/svg" xmlns:xlink="http://www.w3.org/1999/xlink" x="0px" y="0px"
	 viewBox="0 0 1024 1024" style="enable-background:new 0 0 1024 1024;" xml:space="preserve">
<style type="text/css">
	.st0{clip-path:url(#SVGID_2_);fill:none;stroke:#000000;stroke-width:38.316;stroke-miterlimit:10;}
	.st1{fill:none;stroke:#000000;stroke-width:38.316;stroke-miterlimit:10;}
	
		.st2{clip-path:url(#SVGID_4_);fill:none;stroke:#000000;stroke-width:38.316;stroke-linecap:round;stroke-linejoin:round;stroke-miterlimit:10;}
	.st3{clip-path:url(#SVGID_4_);fill:none;stroke:#000000;stroke-width:38.316;stroke-linejoin:round;stroke-miterlimit:10;}
	.st4{clip-path:url(#SVGID_4_);fill:none;stroke:#000000;stroke-width:38.316;stroke-miterlimit:10;}
</style>
<g>
	<defs>
		<rect id="SVGID_1_" x="68.7" y="50" width="905.3" height="919.59"/>
	</defs>
	<clipPath id="SVGID_2_">
		<use xlink:href="#SVGID_1_"  style="overflow:visible;"/>
	</clipPath>
	<path class="st0" d="M930.82,758.85c0,21.15-17.17,38.32-38.32,38.32H126.18c-21.15,0-38.32-17.17-38.32-38.32V241.58
		c0-21.15,17.17-38.32,38.32-38.32h766.33c21.15,0,38.32,17.17,38.32,38.32V758.85z"/>
	<path class="st0" d="M873.35,260.74L604.17,529.91c-52.38,52.38-137.29,52.38-189.67,0L145.33,260.74"/>
</g>
<line class="st1" x1="145.33" y1="739.7" x2="356.08" y2="528.96"/>
<line class="st1" x1="873.35" y1="739.7" x2="662.61" y2="528.96"/>
<g>
	<defs>
		<rect id="SVGID_3_" x="68.7" y="50" width="905.3" height="919.59"/>
	</defs>
	<clipPath id="SVGID_4_">
		<use xlink:href="#SVGID_3_"  style="overflow:visible;"/>
	</clipPath>
	<path class="st2" d="M2482.64,816.33c0-197.58-160.37-421.48-364.01-421.48h-38.32V260.74L1773.78,509.8l306.53,249.06V605.59
		h57.47c152.46,0,268.22,118.55,268.22,210.74"/>
	<path class="st3" d="M3823.57,231.83l134.74,49.05c29.83,10.86,45.21,43.83,34.35,73.66l-203.11,558.1
		c-10.82,29.7-43.97,45.16-73.68,34.35l-288.04-104.85c-29.71-10.81-45.16-43.95-34.35-73.66l59.29-162.88"/>
	<path class="st4" d="M3785.4,310.98c0-133.55-139.3-241.82-311.17-241.82c-171.85,0-311.17,108.26-311.17,241.82
		s139.32,241.82,311.17,241.82c19.01,0,37.53-1.53,55.6-4.08c34.68,28.89,80.58,59.62,142.65,91.79
		c22.63,11.72,28.72,3.95,16.88-18.6c-21.32-40.64-29.98-80.04-32.8-115.27C3734.52,462.67,3785.4,391.54,3785.4,310.98z"/>
	<path class="st4" d="M3651.29,394.85c0,21.15-17.17,38.32-38.32,38.32h-268.22c-21.15,0-38.32-17.17-38.32-38.32V222.42
		c0-21.15,17.17-38.32,38.32-38.32h268.22c21.15,0,38.32,17.17,38.32,38.32V394.85z"/>
	<path class="st4" d="M3641.15,230.25l-142.42,95.16c-14.2,9.48-34.81,9.48-49.01,0l-142.4-95.16"/>
</g>
</svg>
