<svg xmlns="http://www.w3.org/2000/svg" xmlns:xlink="http://www.w3.org/1999/xlink" id="Laag_1" x="0" y="0" version="1.1" viewBox="0 0 1024 1024" xml:space="preserve" style="enable-background:new 0 0 1024 1024"><style type="text/css">.st0,.st1{clip-path:url(#SVGID_2_)}.st0{fill:none;stroke:#010202;stroke-width:33.999;stroke-linecap:round;stroke-miterlimit:10}.st1{fill:#010202}.st2{stroke:#010202;stroke-width:33.999}.st2,.st3,.st4{clip-path:url(#SVGID_2_);fill:none;stroke-miterlimit:10}.st3{stroke:#000;stroke-width:33.999;stroke-linejoin:round}.st4{stroke:#010202}.st4,.st5{stroke-width:33.999;stroke-linejoin:round}.st5,.st6,.st7{clip-path:url(#SVGID_2_);fill:none;stroke:#010202;stroke-linecap:round;stroke-miterlimit:10}.st6{stroke-width:29.987;stroke-linejoin:round}.st7{stroke-width:16.999}</style><g><defs><rect id="SVGID_1_" width="924" height="917.96" x="50" y="50"/></defs><clipPath id="SVGID_2_"><use xlink:href="#SVGID_1_" style="overflow:visible"/></clipPath><path d="M-466.05,882.96h-650.04c-36.43,0-65.98-29.53-65.98-65.96V404.94c0-36.43,29.55-65.96,65.98-65.96h650.04 c36.43,0,65.96,29.53,65.96,65.96v412.06C-400.1,853.44-429.62,882.96-466.05,882.96z" class="st0"/><path d="M-707.5,582.65h-55.25V527.4c0-0.78-0.63-1.41-1.41-1.41h-53.84c-0.78,0-1.41,0.63-1.41,1.41v55.25h-55.25 c-0.78,0-1.43,0.63-1.43,1.41v53.84c0,0.78,0.65,1.41,1.43,1.41h55.25v55.25c0,0.78,0.63,1.43,1.41,1.43h53.84 c0.78,0,1.41-0.65,1.41-1.43v-55.25h55.25c0.78,0,1.41-0.63,1.41-1.41v-53.84C-706.09,583.28-706.71,582.65-707.5,582.65" class="st1"/><path d="M-621.08,338.99h-339.98l7.7-61.54c5.3-42.53,41.46-74.46,84.33-74.46h155.92c42.87,0,79.03,31.92,84.33,74.46 L-621.08,338.99z" class="st0"/><path d="M-676.95,462.84c-31.57-24.36-71.16-38.86-114.12-38.86c-103.29,0-186.99,83.72-186.99,186.99 c0,103.29,83.7,186.99,186.99,186.99c103.27,0,186.99-83.7,186.99-186.99c0-27.79-6.07-54.18-16.95-77.89" class="st0"/><line x1="-553.08" x2="-400.09" y1="491.98" y2="491.98" class="st0"/><line x1="-1182.06" x2="-1029.06" y1="491.98" y2="491.98" class="st0"/><line x1="1911.81" x2="1825.86" y1="729.97" y2="729.97" class="st0"/><path d="M1520.83,729.97c-18.77,0-34-15.23-34-34V321.99c0-18.77,15.23-34,34-34h589.01c13.87,0,26.35,8.43,31.53,21.3 l59.43,147.64l43.67,12.95c14.43,4.28,24.33,17.54,24.33,32.61v193.48c0,18.77-15.23,34-34,34h-17.97" class="st0"/><circle cx="1673.82" cy="746.97" r="85" class="st2"/><circle cx="2064.81" cy="746.97" r="85" class="st2"/><path d="M1825.69,435.31h-44.22v-44.2c0-0.63-0.49-1.14-1.12-1.14h-43.06c-0.63,0-1.14,0.51-1.14,1.14v44.2h-44.2 c-0.63,0-1.14,0.51-1.14,1.14v43.06c0,0.63,0.51,1.14,1.14,1.14h44.2v44.2c0,0.63,0.51,1.12,1.14,1.12h43.06 c0.63,0,1.12-0.49,1.12-1.12v-44.2h44.22c0.61,0,1.12-0.51,1.12-1.14v-43.06C1826.81,435.82,1826.3,435.31,1825.69,435.31" class="st1"/><path d="M1914.72,288.01c-1.87-5.32-2.91-11.05-2.91-17.02c0-28.17,22.83-51,51-51c28.17,0,51,22.83,51,51 c0,5.97-1.02,11.71-2.91,17.03" class="st0"/><line x1="1962.81" x2="1962.81" y1="152" y2="118" class="st0"/><line x1="2046.94" x2="2071" y1="186.85" y2="162.81" class="st0"/><line x1="1962.81" x2="1962.81" y1="152" y2="118" class="st0"/><line x1="1878.66" x2="1854.62" y1="186.85" y2="162.81" class="st0"/><path d="M3584.55,683.35c-16.9-22.52-48.89-27.08-71.4-10.22l-25.94,19.43l-119.49-159.32 c-9.64-12.85-24.75-20.4-40.8-20.4H3200.3l-17.81-73.86l137.95-28.81c27.57-5.76,45.25-32.77,39.49-60.35 c-5.76-27.56-32.71-45.27-60.35-39.49l-141.06,29.48l-7.17-29.77c-6.6-27.39-34.08-44.25-61.54-37.6 c-27.37,6.6-44.22,34.15-37.59,61.54l58.36,241.83c5.52,22.9,26.01,39.03,49.57,39.03h141.28l134.79,179.72 c10.03,13.38,25.35,20.42,40.85,20.42c10.66,0,21.4-3.33,30.56-10.2l66.71-50.03C3596.87,737.85,3601.45,705.87,3584.55,683.35z" class="st3"/><ellipse cx="3067.76" cy="135" class="st4" rx="68" ry="68" transform="matrix(0.9975 -0.0709 0.0709 0.9975 -1.8519 217.8105)"/><path d="M2989.74,437.45c-65.21,38.42-108.97,109.37-108.97,190.53c0,122.05,98.94,220.99,220.99,220.99 c80.17,0,150.38-42.69,189.1-106.57" class="st5"/><path d="M636.87,780.97c0,56.34-45.66,102-102,102c-225.32,0-407.98-182.66-407.98-407.98c0-56.34,45.66-102,102-102 c5.75,0,11.42,0.49,16.93,1.43c0.87,0.14,1.73,0.29,2.6,0.46c10.13,1.92,18,9.96,19.74,20.14l25.75,151.63 c0.61,3.55-1.21,7.11-4.45,8.7c0,0-24.68,11.81-36.77,17.78c-3.72,1.84-5.51,6.22-4.03,10.11c15.47,40.97,39.49,77.72,69.87,108.08 c30.26,30.28,66.89,54.26,107.71,69.75c3.86,1.46,8.23-0.29,10.1-3.96c6.1-12.02,18.16-36.79,18.16-36.79 c1.61-3.21,5.13-5,8.67-4.4l151.68,25.77c10.18,1.73,18.22,9.6,20.16,19.74c0.14,0.87,0.31,1.73,0.44,2.6 C636.37,769.54,636.87,775.22,636.87,780.97z" class="st2"/><path d="M771.45,293.66H716.2v-55.25c0-0.78-0.65-1.41-1.43-1.41h-53.82c-0.8,0-1.43,0.63-1.43,1.41v55.25h-55.25 c-0.78,0-1.41,0.63-1.41,1.41v53.84c0,0.78,0.63,1.41,1.41,1.41h55.25v55.25c0,0.78,0.63,1.43,1.43,1.43h53.82 c0.78,0,1.43-0.65,1.43-1.43v-55.25h55.25c0.78,0,1.41-0.63,1.41-1.41v-53.84C772.86,294.29,772.23,293.66,771.45,293.66" class="st1"/><path d="M908.85,321.99c0-122.05-98.94-220.99-220.99-220.99c-122.05,0-220.99,98.94-220.99,220.99 c0,100.02,66.5,184.43,157.65,211.68l-38.66,128.31c0,0,221.98-153.55,237.62-165.74l0.97-0.58l-0.14-0.07 C875.72,455.14,908.85,392.48,908.85,321.99z" class="st4"/><path d="M-1760.03,882.96H-2440c-28.17,0-51-22.83-51-51V321.99c0-28.17,22.83-51,51-51h679.97c28.17,0,51,22.83,51,51 v509.98C-1709.03,860.13-1731.86,882.96-1760.03,882.96z" class="st2"/><path d="M-1819.53,772.47h-560.98c-18.77,0-34-15.23-34-34V381.49c0-18.77,15.23-34,34-34h560.98 c18.77,0,34,15.23,34,34v356.98C-1785.53,757.24-1800.76,772.47-1819.53,772.47z" class="st2"/><polyline points="-2338.01 588.31 -2274.55 588.31 -2226.95 474.97 -2163.48 644.97 -2100.02 517.47 -2068.28 616.65 -2021.82 531.65 -1988.96 588.31 -1862.03 588.31" class="st6"/><path d="M-1845.03,950.96h-509.98c-9.38,0-17-7.62-17-17l-17-51h577.98l-17,51 C-1828.03,943.35-1835.64,950.96-1845.03,950.96z" class="st2"/><path d="M-1828.03,831.97c0-9.38-7.62-17-17-17c-9.38,0-17,7.62-17,17c0,9.38,7.62,17,17,17 C-1835.64,848.97-1828.03,841.35-1828.03,831.97" class="st1"/><path d="M-1896.03,831.97c0-9.38-7.62-17-17-17c-9.38,0-17,7.62-17,17c0,9.38,7.62,17,17,17 C-1903.64,848.97-1896.03,841.35-1896.03,831.97" class="st1"/><line x1="-2372.01" x2="-2270.01" y1="831.97" y2="831.97" class="st7"/></g></svg>