<?xml version="1.0" encoding="utf-8"?>
<!-- Generator: Adobe Illustrator 24.3.0, SVG Export Plug-In . SVG Version: 6.00 Build 0)  -->
<svg version="1.1" id="Laag_1" xmlns="http://www.w3.org/2000/svg" xmlns:xlink="http://www.w3.org/1999/xlink" x="0px" y="0px"
	 viewBox="0 0 1024 1024" style="enable-background:new 0 0 1024 1024;" xml:space="preserve">
<style type="text/css">
	.st0{clip-path:url(#SVGID_2_);fill:#393745;}
</style>
<g>
	<defs>
		<rect id="SVGID_1_" y="50" width="1024" height="924"/>
	</defs>
	<clipPath id="SVGID_2_">
		<use xlink:href="#SVGID_1_"  style="overflow:visible;"/>
	</clipPath>
	<path class="st0" d="M585.93,968.22H438.05l-18.44-88.73c-35.79-9-70.01-23.2-102.02-42.44l-75.91,49.85L137.12,782.3l49.8-75.89
		c-19.19-31.97-33.41-66.21-42.39-102.04l-88.75-18.42v-147.9l88.75-18.42c8.98-35.82,23.2-70.07,42.39-102.04l-49.8-75.89
		L241.68,137.1l75.91,49.85c31.96-19.21,66.18-33.41,102.02-42.44l18.44-88.73h147.88l18.43,88.73
		c35.84,9.03,70.06,23.24,102.02,42.44l75.93-49.85L886.87,241.7l-49.8,75.89c19.19,31.97,33.42,66.22,42.39,102.04l88.75,18.42
		v147.9l-88.75,18.42c-8.97,35.82-23.2,70.06-42.39,102.04l49.8,75.89L782.32,886.89l-75.93-49.85
		c-32.01,19.24-66.23,33.49-102.02,42.44L585.93,968.22z M468.01,931.38h87.96l17.16-82.62l11.69-2.52
		c39.6-8.6,77.24-24.25,111.88-46.54l10.06-6.48l70.71,46.4l62.19-62.15l-46.38-70.71l6.48-10.07
		c22.24-34.56,37.87-72.18,46.47-111.86l2.53-11.73l82.64-17.16v-87.9l-82.64-17.16l-2.53-11.72c-8.6-39.67-24.23-77.3-46.47-111.86
		l-6.48-10.07l46.38-70.71l-62.19-62.15l-70.71,46.4l-10.06-6.47c-34.55-22.26-72.21-37.91-111.9-46.54l-11.67-2.52l-17.16-82.62
		h-87.96l-17.16,82.62l-11.67,2.52c-39.7,8.67-77.35,24.32-111.89,46.54l-10.07,6.47l-70.67-46.4l-62.19,62.15l46.38,70.71
		l-6.48,10.07c-22.25,34.57-37.88,72.19-46.47,111.86l-2.54,11.72l-82.64,17.16v87.9l82.64,17.16l2.54,11.73
		c8.6,39.67,24.22,77.3,46.47,111.86l6.48,10.07l-46.38,70.71l62.19,62.15l70.67-46.4l10.07,6.48
		c34.62,22.3,72.26,37.94,111.88,46.54l11.69,2.52L468.01,931.38z M512,698.74c-102.96,0-186.73-83.77-186.73-186.74
		c0-102.94,83.77-186.71,186.73-186.71c102.96,0,186.73,83.77,186.73,186.71C698.73,614.97,614.96,698.74,512,698.74 M512,362.12
		c-82.65,0-149.9,67.23-149.9,149.88c0,82.65,67.24,149.91,149.9,149.91S661.9,594.65,661.9,512
		C661.9,429.34,594.65,362.12,512,362.12"/>
</g>
</svg>
