<?xml version="1.0" encoding="utf-8"?>
<!-- Generator: Adobe Illustrator 24.3.0, SVG Export Plug-In . SVG Version: 6.00 Build 0)  -->
<svg version="1.1" id="Laag_1" xmlns="http://www.w3.org/2000/svg" xmlns:xlink="http://www.w3.org/1999/xlink" x="0px" y="0px"
	 viewBox="0 0 1024 1024" style="enable-background:new 0 0 1024 1024;" xml:space="preserve">
<style type="text/css">
	.st0{clip-path:url(#SVGID_2_);}
</style>
<g>
	<defs>
		<rect id="SVGID_1_" x="95.61" y="50.93" width="832.79" height="922.13"/>
	</defs>
	<clipPath id="SVGID_2_">
		<use xlink:href="#SVGID_1_"  style="overflow:visible;"/>
	</clipPath>
	<path class="st0" d="M552.28,477.79l23.37,56.42l50.47-20.93l-23.35-56.41L552.28,477.79z M705.52,704.96l-23.37-56.41
		l-50.48,20.94l23.35,56.38L705.52,704.96z M566.91,761.8l59.53-24.08l-29.27-70.69c-3.28-7.91,0.48-16.95,8.37-20.23l79.09-32.76
		c3.79-1.57,8.05-1.57,11.84,0c3.79,1.58,6.8,4.59,8.39,8.39l29.26,70.69l59.35-24.58L690.68,420.46l-59.32,24.57l29.27,70.69
		c1.58,3.81,1.58,8.06,0,11.87c-1.57,3.77-4.58,6.8-8.37,8.37l-79.09,32.75c-1.9,0.8-3.92,1.18-5.92,1.18
		c-2.02,0-4.03-0.38-5.92-1.18c-3.79-1.55-6.8-4.59-8.39-8.36l-29.26-70.71l-59.35,24.58L566.91,761.8z M510,786.09
		c-5.07,1.01-10.02,2.51-14.88,4.51c-4.86,2.03-9.45,4.48-13.72,7.32c-12.84,8.57-22.86,20.71-28.9,35.31
		c-8.05,19.42-8.05,40.82,0,60.24c12.25,29.55,40.8,48.64,72.79,48.64c10.33,0,20.45-2.02,30.09-6.01
		c19.43-8.08,34.57-23.2,42.62-42.63c6.02-14.55,7.53-30.24,4.51-45.37c-0.99-5.03-2.51-10.02-4.52-14.87
		c-2.02-4.87-4.48-9.46-7.32-13.73c-6.38-9.56-14.71-17.5-24.33-23.37c-6.94-4.24-14.55-7.42-22.57-9.35
		c-5.99-1.43-12.19-2.2-18.55-2.2C520.08,784.58,514.98,785.1,510,786.09 M469.39,768.92L211.93,147.34l-94.92,39.31
		c-7.87,3.26-16.95-0.49-20.23-8.39c-3.25-7.88,0.49-16.93,8.4-20.22l109.2-45.22c7.85-3.28,16.94,0.46,20.22,8.37l263.4,635.88
		c8.88-2.28,17.98-3.46,27.22-3.46l4.86,0.11L429.82,511.75c-1.57-3.77-1.57-8.04,0-11.84c1.58-3.77,4.59-6.8,8.39-8.36
		l254.94-105.6c7.91-3.29,16.95,0.49,20.22,8.39L827.97,671c1.57,3.81,1.57,8.06,0,11.84c-1.57,3.79-4.59,6.8-8.39,8.36
		l-220.21,91.22c7.87,7.22,14.73,15.64,20.27,25.07L907,688.47c7.87-3.28,16.94,0.49,20.22,8.4c3.28,7.87-0.48,16.95-8.39,20.2
		L631.51,836.1c5.94,22.89,4.3,46.98-4.91,69.23c-11.23,27.08-32.3,48.13-59.37,59.37c-13.41,5.54-27.51,8.36-41.93,8.36
		c-44.53,0-84.34-26.57-101.39-67.73c-11.21-27.06-11.21-56.9,0-83.97C433.13,799.13,449,780.93,469.39,768.92 M525.27,918.6
		c-22.43,0-42.48-13.37-51.04-34.1c-11.65-28.14,1.76-60.48,29.9-72.13c6.73-2.81,13.83-4.24,21.1-4.24
		c22.43,0,42.46,13.4,51.03,34.12c11.66,28.11-1.75,60.49-29.89,72.14C539.62,917.2,532.53,918.6,525.27,918.6 M525.23,839.08
		c-3.18,0-6.29,0.63-9.27,1.86c-12.36,5.14-18.26,19.36-13.13,31.71c4.97,12.04,19.47,18.21,31.71,13.13
		c12.36-5.11,18.26-19.33,13.13-31.7C543.91,844.99,535.09,839.08,525.23,839.08 M420.46,464.15c-2.02,0-4.03-0.39-5.92-1.18
		c-3.79-1.57-6.8-4.56-8.37-8.37l-114.6-276.7c-3.28-7.9,0.48-16.95,8.37-20.2L554.87,52.1c3.79-1.55,8.05-1.55,11.84,0
		c3.79,1.55,6.8,4.56,8.37,8.37l114.6,276.68c3.28,7.91-0.49,16.95-8.39,20.22l-254.94,105.6
		C424.47,463.76,422.47,464.15,420.46,464.15 M414,143.96l23.35,56.38l50.5-20.89l-23.37-56.42L414,143.96z M567.25,371.12
		l-23.37-56.38l-50.48,20.92l23.35,56.38L567.25,371.12z M488.16,403.88l-29.29-70.69c-3.26-7.9,0.48-16.95,8.39-20.23l79.09-32.76
		c7.85-3.25,16.94,0.49,20.23,8.4l29.26,70.67l59.35-24.57L552.41,86.61l-59.32,24.58l29.29,70.69c1.57,3.79,1.57,8.06,0,11.83
		c-1.57,3.81-4.59,6.82-8.39,8.4l-79.09,32.76c-1.89,0.78-3.91,1.18-5.92,1.18s-4.02-0.39-5.91-1.18c-3.81-1.6-6.82-4.59-8.39-8.37
		l-29.29-70.71l-59.33,24.58l102.76,248.09L488.16,403.88z"/>
</g>
</svg>
