<svg xmlns="http://www.w3.org/2000/svg" xmlns:xlink="http://www.w3.org/1999/xlink" id="Laag_1" x="0" y="0" version="1.1" viewBox="0 0 1024 1024" xml:space="preserve" style="enable-background:new 0 0 1024 1024"><style type="text/css">.st0,.st1{clip-path:url(#SVGID_2_)}.st0{fill:none;stroke:#010202;stroke-width:33.999;stroke-linecap:round;stroke-miterlimit:10}.st1{fill:#010202}.st2{stroke:#010202;stroke-width:33.999}.st2,.st3,.st4{clip-path:url(#SVGID_2_);fill:none;stroke-miterlimit:10}.st3{stroke:#000;stroke-width:33.999;stroke-linejoin:round}.st4{stroke:#010202}.st4,.st5{stroke-width:33.999;stroke-linejoin:round}.st5,.st6,.st7{clip-path:url(#SVGID_2_);fill:none;stroke:#010202;stroke-linecap:round;stroke-miterlimit:10}.st6{stroke-width:29.987;stroke-linejoin:round}.st7{stroke-width:16.999}</style><g><defs><rect id="SVGID_1_" width="850" height="917.96" x="50" y="56"/></defs><clipPath id="SVGID_2_"><use xlink:href="#SVGID_1_" style="overflow:visible"/></clipPath><path d="M-3177.79,888.96h-650.04c-36.43,0-65.97-29.53-65.97-65.96V410.94c0-36.43,29.54-65.96,65.97-65.96h650.04 c36.43,0,65.96,29.53,65.96,65.96v412.06C-3111.84,859.44-3141.36,888.96-3177.79,888.96z" class="st0"/><path d="M-3419.24,588.65h-55.25V533.4c0-0.78-0.63-1.41-1.41-1.41h-53.84c-0.78,0-1.41,0.63-1.41,1.41v55.25h-55.25 c-0.78,0-1.43,0.63-1.43,1.41v53.84c0,0.78,0.65,1.41,1.43,1.41h55.25v55.25c0,0.78,0.63,1.43,1.41,1.43h53.84 c0.78,0,1.41-0.65,1.41-1.43v-55.25h55.25c0.78,0,1.41-0.63,1.41-1.41v-53.84C-3417.83,589.28-3418.45,588.65-3419.24,588.65" class="st1"/><path d="M-3332.82,344.99h-339.99l7.7-61.54c5.3-42.53,41.46-74.46,84.33-74.46h155.92 c42.87,0,79.03,31.92,84.33,74.46L-3332.82,344.99z" class="st0"/><path d="M-3388.69,468.84c-31.57-24.36-71.16-38.86-114.12-38.86c-103.29,0-186.99,83.72-186.99,186.99 c0,103.29,83.7,186.99,186.99,186.99c103.27,0,186.99-83.7,186.99-186.99c0-27.79-6.07-54.18-16.95-77.89" class="st0"/><line x1="-3264.82" x2="-3111.83" y1="497.98" y2="497.98" class="st0"/><line x1="-3893.8" x2="-3740.8" y1="497.98" y2="497.98" class="st0"/><line x1="-799.93" x2="-885.88" y1="735.97" y2="735.97" class="st0"/><path d="M-1190.91,735.97c-18.77,0-34-15.23-34-34V327.99c0-18.77,15.23-34,34-34h589.01 c13.87,0,26.35,8.43,31.53,21.3l59.43,147.64l43.67,12.95c14.43,4.28,24.33,17.54,24.33,32.61v193.48c0,18.77-15.23,34-34,34 h-17.97" class="st0"/><circle cx="-1037.92" cy="752.97" r="85" class="st2"/><circle cx="-646.93" cy="752.97" r="85" class="st2"/><path d="M-886.05,441.31h-44.22v-44.2c0-0.63-0.49-1.14-1.12-1.14h-43.06c-0.63,0-1.14,0.51-1.14,1.14v44.2h-44.2 c-0.63,0-1.14,0.51-1.14,1.14v43.06c0,0.63,0.51,1.14,1.14,1.14h44.2v44.2c0,0.63,0.51,1.12,1.14,1.12h43.06 c0.63,0,1.12-0.49,1.12-1.12v-44.2h44.22c0.61,0,1.12-0.51,1.12-1.14v-43.06C-884.93,441.82-885.44,441.31-886.05,441.31" class="st1"/><path d="M-797.02,294.01c-1.87-5.32-2.91-11.05-2.91-17.02c0-28.17,22.83-51,51-51c28.17,0,51,22.83,51,51 c0,5.97-1.02,11.71-2.91,17.03" class="st0"/><line x1="-748.93" x2="-748.93" y1="158" y2="124" class="st0"/><line x1="-664.8" x2="-640.74" y1="192.85" y2="168.81" class="st0"/><line x1="-748.93" x2="-748.93" y1="158" y2="124" class="st0"/><line x1="-833.08" x2="-857.12" y1="192.85" y2="168.81" class="st0"/><path d="M872.81,689.35c-16.9-22.52-48.89-27.08-71.4-10.22l-25.94,19.43L655.98,539.24 c-9.64-12.85-24.75-20.4-40.8-20.4H488.56l-17.81-73.86l137.95-28.81c27.57-5.76,45.25-32.77,39.49-60.35 c-5.76-27.56-32.71-45.27-60.35-39.49l-141.06,29.48l-7.17-29.77c-6.6-27.39-34.08-44.25-61.54-37.6 c-27.37,6.6-44.21,34.15-37.59,61.54l58.36,241.83c5.52,22.9,26.01,39.03,49.57,39.03h141.28l134.79,179.72 c10.03,13.38,25.35,20.42,40.85,20.42c10.66,0,21.4-3.33,30.57-10.2l66.7-50.03C885.13,743.85,889.71,711.87,872.81,689.35z" class="st3"/><ellipse cx="356.02" cy="141" class="st4" rx="68" ry="68" transform="matrix(0.9871 -0.1602 0.1602 0.9871 -17.988 58.8493)"/><path d="M278,443.45c-65.21,38.42-108.97,109.37-108.97,190.53c0,122.05,98.94,220.99,220.99,220.99 c80.17,0,150.37-42.69,189.1-106.57" class="st5"/><path d="M-2074.87,786.97c0,56.34-45.66,102-102,102c-225.32,0-407.98-182.66-407.98-407.98c0-56.34,45.66-102,102-102 c5.75,0,11.42,0.49,16.93,1.43c0.87,0.14,1.73,0.29,2.6,0.46c10.13,1.92,18,9.96,19.74,20.14l25.75,151.63 c0.61,3.55-1.21,7.11-4.45,8.7c0,0-24.68,11.81-36.77,17.78c-3.72,1.84-5.51,6.22-4.03,10.11c15.47,40.97,39.49,77.72,69.87,108.08 c30.26,30.28,66.89,54.26,107.71,69.75c3.86,1.46,8.23-0.29,10.1-3.96c6.1-12.02,18.16-36.79,18.16-36.79 c1.61-3.21,5.13-5,8.67-4.4l151.69,25.77c10.18,1.73,18.22,9.6,20.16,19.74c0.14,0.87,0.31,1.73,0.44,2.6 C-2075.37,775.54-2074.87,781.22-2074.87,786.97z" class="st2"/><path d="M-1940.29,299.66h-55.25v-55.25c0-0.78-0.65-1.41-1.43-1.41h-53.82c-0.8,0-1.43,0.63-1.43,1.41v55.25h-55.25 c-0.78,0-1.41,0.63-1.41,1.41v53.84c0,0.78,0.63,1.41,1.41,1.41h55.25v55.25c0,0.78,0.63,1.43,1.43,1.43h53.82 c0.78,0,1.43-0.65,1.43-1.43v-55.25h55.25c0.78,0,1.41-0.63,1.41-1.41v-53.84C-1938.88,300.29-1939.51,299.66-1940.29,299.66" class="st1"/><path d="M-1802.89,327.99c0-122.05-98.94-220.99-220.99-220.99c-122.06,0-220.99,98.94-220.99,220.99 c0,100.02,66.5,184.43,157.65,211.68l-38.66,128.31c0,0,221.98-153.55,237.62-165.74l0.97-0.58l-0.14-0.07 C-1836.02,461.14-1802.89,398.48-1802.89,327.99z" class="st4"/><path d="M-4471.77,888.96h-679.97c-28.17,0-51-22.83-51-51V327.99c0-28.17,22.83-51,51-51h679.97 c28.17,0,51,22.83,51,51v509.98C-4420.77,866.13-4443.6,888.96-4471.77,888.96z" class="st2"/><path d="M-4531.27,778.47h-560.98c-18.77,0-34-15.23-34-34V387.49c0-18.77,15.23-34,34-34h560.98 c18.77,0,34,15.23,34,34v356.98C-4497.27,763.24-4512.5,778.47-4531.27,778.47z" class="st2"/><polyline points="-5049.75 594.31 -4986.29 594.31 -4938.69 480.97 -4875.22 650.97 -4811.76 523.47 -4780.02 622.65 -4733.56 537.65 -4700.7 594.31 -4573.77 594.31" class="st6"/><path d="M-4556.77,956.96h-509.98c-9.38,0-17-7.62-17-17l-17-51h577.98l-17,51 C-4539.77,949.35-4547.38,956.96-4556.77,956.96z" class="st2"/><path d="M-4539.77,837.97c0-9.38-7.62-17-17-17c-9.38,0-17,7.62-17,17c0,9.38,7.62,17,17,17 C-4547.39,854.97-4539.77,847.35-4539.77,837.97" class="st1"/><path d="M-4607.77,837.97c0-9.38-7.62-17-17-17c-9.38,0-17,7.62-17,17c0,9.38,7.62,17,17,17 C-4615.38,854.97-4607.77,847.35-4607.77,837.97" class="st1"/><line x1="-5083.75" x2="-4981.75" y1="837.97" y2="837.97" class="st7"/></g></svg>