<?xml version="1.0" encoding="utf-8"?>
<!-- Generator: Adobe Illustrator 24.3.0, SVG Export Plug-In . SVG Version: 6.00 Build 0)  -->
<svg version="1.1" id="Laag_1" xmlns="http://www.w3.org/2000/svg" xmlns:xlink="http://www.w3.org/1999/xlink" x="0px" y="0px"
	 viewBox="0 0 1024 1024" style="enable-background:new 0 0 1024 1024;" xml:space="preserve">
<style type="text/css">
	.st0{clip-path:url(#SVGID_2_);}
</style>
<g>
	<defs>
		<rect id="SVGID_1_" x="70.05" y="113.42" width="883.9" height="814.95"/>
	</defs>
	<clipPath id="SVGID_2_">
		<use xlink:href="#SVGID_1_"  style="overflow:visible;"/>
	</clipPath>
	<path class="st0" d="M585.4,743.36c-2.74-9.52,2.75-19.46,12.28-22.2l333.37-95.91c9.48-2.78,19.46,2.75,22.2,12.28
		c2.73,9.52-2.76,19.46-12.29,22.2L607.6,755.65C598.14,758.38,588.14,752.93,585.4,743.36"/>
	<path class="st0" d="M370.76,624.63L235.92,155.98l-148.74-6.7c-9.9-0.45-17.56-8.84-17.11-18.73c0.44-9.89,8.73-17.45,18.73-17.12
		l161.61,7.29c7.69,0.35,14.31,5.56,16.44,12.96l138.39,481.04c2.74,9.52-2.76,19.46-12.28,22.2
		C383.54,639.65,373.52,634.23,370.76,624.63"/>
	<path class="st0" d="M449.65,639.27l-94.26-327.62c-1.32-4.58-0.77-9.48,1.54-13.64c2.3-4.17,6.17-7.25,10.74-8.56l160.94-46.3
		c9.49-2.76,19.47,2.76,22.2,12.29l18.19,63.22l80.46-23.15l-18.19-63.22c-2.74-9.52,2.75-19.46,12.29-22.2l149.44-42.99
		c9.51-2.78,19.46,2.75,22.2,12.28l114.1,396.59l-34.48,9.92L785.68,206.53L670.73,239.6l18.19,63.23
		c2.74,9.52-2.76,19.46-12.28,22.2L561.68,358.1c-4.57,1.31-9.49,0.76-13.64-1.54c-4.16-2.3-7.24-6.17-8.56-10.74l-18.19-63.22
		l-126.45,36.37l89.29,310.38L449.65,639.27z"/>
	<path class="st0" d="M417.36,713.59c-60.08,0-103.2,57.57-86.66,115.07c11.05,38.4,46.65,65.22,86.56,65.22
		c59.94,0,103.19-57.62,86.66-115.06C492.87,740.42,457.28,713.59,417.36,713.59 M417.26,929.78c-55.83,0-105.6-37.5-121.04-91.2
		c-23-79.9,36.59-160.87,121.14-160.87c55.83,0,105.6,37.5,121.05,91.19C561.49,849.12,501.14,929.78,417.26,929.78"/>
	<path class="st0" d="M622.77,417.47c1.42-5.88,5.73-10.68,11.42-12.7c5.4-1.9,11.78-1.22,16.9,2.66l83.49,63.78
		c7.87,6.03,9.36,17.31,3.33,25.18c-5.99,7.87-17.23,9.37-25.14,3.34l-37.81-28.85l42.23,108.59c3.6,9.26-0.98,19.63-10.23,23.23
		c-9.47,3.66-19.69-1.16-23.23-10.23l-40.95-105.33l-10.9,45.04c-2.35,9.7-12.08,15.5-21.66,13.23
		c-9.62-2.36-15.54-12.03-13.22-21.69L622.77,417.47z"/>
</g>
</svg>
