<svg xmlns="http://www.w3.org/2000/svg" xmlns:xlink="http://www.w3.org/1999/xlink" id="Laag_1" x="0" y="0" version="1.1" viewBox="0 0 1024 1024" xml:space="preserve" style="enable-background:new 0 0 1024 1024"><style type="text/css">.st0{fill:none;stroke:#14171c;stroke-width:46.753;stroke-linejoin:round;stroke-miterlimit:10}.st0,.st1,.st2{clip-path:url(#SVGID_2_)}.st1{fill:none;stroke:#14171c;stroke-width:46.753;stroke-miterlimit:10}.st2{fill:#14171c}</style><g><defs><rect id="SVGID_1_" width="1024" height="924" y="50"/></defs><clipPath id="SVGID_2_"><use xlink:href="#SVGID_1_" style="overflow:visible"/></clipPath><path d="M2338.35,138.31c51.64,0,93.51,41.87,93.51,93.51v561.04c0,51.64-41.87,93.51-93.51,93.51H1777.3 c-51.64,0-93.51-41.87-93.51-93.51V231.82c0-51.64,41.87-93.51,93.51-93.51H2338.35z" class="st0"/><ellipse cx="2221.46" cy="348.7" class="st1" rx="93.51" ry="93.51" transform="matrix(0.0116 -0.9999 0.9999 0.0116 1846.9564 2565.9626)"/><ellipse cx="12857.85" cy="444.78" class="st0" rx="116.88" ry="116.88" transform="matrix(0.9344 -0.3562 0.3562 0.9344 684.7485 4608.6416)"/><path d="M12857.85,117.51c180.7,0,327.27,146.57,327.27,327.27c0,47.46-10.05,92.34-28.29,133.01 c-14.96,33.66-35.53,64.29-60.31,90.7l-238.67,238.68l-238.68-238.68c-24.78-26.42-45.35-57.04-60.31-90.7 c-18.23-40.67-28.29-85.56-28.29-133.01C12530.58,264.08,12677.15,117.51,12857.85,117.51z" class="st0"/><path d="M222.72,429.03c6.43-22.32,15.19-43.97,26.79-64.45l-54.98-67.44c-15.15-18.58-13.79-45.65,3.18-62.6 l39.44-39.46c16.97-16.95,44.02-18.33,62.6-3.18l67.44,54.98l0.05-0.09c20.31-11.22,41.84-20.34,64.5-26.65l8.81-86.56 c2.43-23.87,22.53-42.01,46.52-42.01h55.8c23.98,0,44.09,18.14,46.52,42.01l8.81,86.56l0.07-0.05 c22.33,6.45,43.97,15.22,64.47,26.79l67.44-54.98c18.58-15.15,45.63-13.77,62.6,3.18l39.44,39.46 c16.97,16.95,18.33,44.02,3.18,62.6l-54.98,67.44l0.09,0.02c11.22,20.34,20.34,41.84,26.65,64.52l86.56,8.81 c23.87,2.43,42.01,22.53,42.01,46.52v55.78c0,23.98-18.14,44.09-42.01,46.52l-86.56,8.81l0.05,0.1 c-6.43,22.32-15.2,43.97-26.79,64.45l54.98,67.44c15.15,18.58,13.79,45.65-3.18,62.6l-39.44,39.46 c-16.97,16.95-44.02,18.33-62.6,3.15l-67.44-54.96l-0.05,0.09c-20.32,11.22-41.85,20.34-64.5,26.65l-8.81,86.56 c-2.43,23.87-22.54,42.01-46.52,42.01h-55.8c-23.99,0-44.09-18.14-46.52-42.01l-8.81-86.56l-0.07,0.02 c-22.32-6.43-43.97-15.19-64.47-26.77l-67.44,54.96c-18.58,15.17-45.63,13.79-62.6-3.15l-39.44-39.46 c-16.97-16.95-18.33-44.02-3.18-62.6l54.98-67.44l-0.09-0.02c-11.22-20.34-20.36-41.84-26.67-64.52l-86.54-8.81 c-23.87-2.43-42.03-22.54-42.03-46.52v-55.78c0-23.98,18.16-44.09,42.03-46.52l86.54-8.81L222.72,429.03z" class="st0"/><ellipse cx="514.96" cy="512.34" class="st0" rx="140.26" ry="140.26" transform="matrix(0.7071 -0.7071 0.7071 0.7071 -211.4502 514.1961)"/><path d="M8177.68,133.26l-313.81,254.97c-5.45,4.42-8.63,11.08-8.63,18.14v479.78c0,12.9,10.45,23.38,23.38,23.38 h210.39c12.93,0,23.38-10.47,23.38-23.38v-303.9c0-12.93,10.45-23.38,23.38-23.38h187.01c12.93,0,23.38,10.45,23.38,23.38v303.9 c0,12.9,10.45,23.38,23.38,23.38h210.39c12.93,0,23.38-10.47,23.38-23.38V406.37c0-7.06-3.18-13.72-8.63-18.14l-313.81-254.97 C8250.8,108.83,8207.74,108.83,8177.68,133.26z" class="st0"/><ellipse cx="3343.54" cy="512.34" class="st1" rx="140.26" ry="140.26" transform="matrix(0.7071 -0.7071 0.7071 0.7071 617.0214 2514.3035)"/><ellipse cx="3857.83" cy="255.2" class="st1" rx="140.26" ry="140.26" transform="matrix(0.7071 -0.7071 0.7071 0.7071 949.4805 2802.6438)"/><ellipse cx="3857.83" cy="769.48" class="st1" rx="140.26" ry="140.26" transform="matrix(0.7071 -0.7071 0.7071 0.7071 585.8246 2953.2749)"/><path d="M13161.75,1798.06v584.42c0,51.64-41.87,93.51-93.51,93.51h-420.78c-51.64,0-93.51-41.87-93.51-93.51v-584.42" class="st0"/><path d="M12998.11,1798.06h-280.52v-70.13c0-25.81,20.95-46.75,46.75-46.75h187.01c25.81,0,46.75,20.95,46.75,46.75 V1798.06z" class="st0"/><path d="M5003.29,161.69h-327.27c-51.64,0-93.51,41.87-93.51,93.51v561.04c0,51.64,41.87,93.51,93.51,93.51h561.04 c51.64,0,93.51-41.87,93.51-93.51V488.96" class="st0"/><path d="M5377.31,395.46V138.31c0-12.9-10.47-23.38-23.38-23.38h-257.14" class="st0"/><path d="M6546.15,161.69h-327.27c-51.64,0-93.51,41.87-93.51,93.51v561.04c0,51.64,41.87,93.51,93.51,93.51h561.04 c51.64,0,93.51-41.87,93.51-93.51V488.96" class="st0"/><path d="M6429.27,325.33v257.14c0,12.9,10.47,23.38,23.38,23.38h257.14" class="st0"/><circle cx="9772.13" cy="465.59" r="327.27" class="st0"/><circle cx="11291.62" cy="512.34" r="350.65" class="st0"/><path d="M11489.98,148.69l21.36-14.26c45.26-30.16,105.5-24.19,143.93,14.26c38.45,38.46,44.42,98.67,14.26,143.91 l-14.26,21.39" class="st0"/><path d="M11093.26,148.69l-21.37-14.26c-45.26-30.16-105.5-24.19-143.93,14.26c-38.45,38.46-44.42,98.67-14.26,143.91 l14.26,21.39" class="st0"/><path d="M14540.98,886.37h-607.79c-51.64,0-93.51-41.87-93.51-93.51V231.82c0-51.64,41.87-93.51,93.51-93.51h607.79 c51.64,0,93.51,41.87,93.51,93.51v561.04C14634.48,844.5,14592.62,886.37,14540.98,886.37z" class="st0"/><path d="M14050.07,559.09h-93.51c-12.93,0-23.38-10.47-23.38-23.38v-93.51c0-12.9,10.45-23.38,23.38-23.38h93.51 c12.93,0,23.38,10.47,23.38,23.38v93.51C14073.44,548.62,14062.99,559.09,14050.07,559.09z" class="st0"/><path d="M14283.83,559.09h-93.51c-12.93,0-23.38-10.47-23.38-23.38v-93.51c0-12.9,10.45-23.38,23.38-23.38h93.51 c12.93,0,23.38,10.47,23.38,23.38v93.51C14307.21,548.62,14296.76,559.09,14283.83,559.09z" class="st0"/><path d="M14517.6,559.09h-93.51c-12.93,0-23.38-10.47-23.38-23.38v-93.51c0-12.9,10.45-23.38,23.38-23.38h93.51 c12.93,0,23.38,10.47,23.38,23.38v93.51C14540.98,548.62,14530.53,559.09,14517.6,559.09z" class="st0"/><path d="M14050.07,792.86h-93.51c-12.93,0-23.38-10.47-23.38-23.38v-93.51c0-12.9,10.45-23.38,23.38-23.38h93.51 c12.93,0,23.38,10.47,23.38,23.38v93.51C14073.44,782.39,14062.99,792.86,14050.07,792.86z" class="st0"/><path d="M14283.83,792.86h-93.51c-12.93,0-23.38-10.47-23.38-23.38v-93.51c0-12.9,10.45-23.38,23.38-23.38h93.51 c12.93,0,23.38,10.47,23.38,23.38v93.51C14307.21,782.39,14296.76,792.86,14283.83,792.86z" class="st0"/><path d="M14517.6,792.86h-93.51c-12.93,0-23.38-10.47-23.38-23.38v-93.51c0-12.9,10.45-23.38,23.38-23.38h93.51 c12.93,0,23.38,10.47,23.38,23.38v93.51C14540.98,782.39,14530.53,792.86,14517.6,792.86z" class="st0"/><ellipse cx="2057.83" cy="1938.32" class="st1" rx="397.4" ry="397.4" transform="matrix(0.7071 -0.7071 0.7071 0.7071 -767.8754 2022.8229)"/><ellipse cx="514.96" cy="1938.32" class="st1" rx="397.4" ry="397.4" transform="matrix(0.7071 -0.7071 0.7071 0.7071 -1219.769 931.8552)"/><path d="M4751.82,2218.84l350.91-607.79c18-31.16,63-31.16,80.98,0l350.91,607.79c18,31.16-4.49,70.13-40.49,70.13 h-701.81C4756.31,2288.97,4733.82,2250,4751.82,2218.84z" class="st0"/><path d="M5178.28,2172.09c0,19.38-15.69,35.06-35.07,35.06c-19.36,0-35.06-15.68-35.06-35.06 c0-19.38,15.71-35.06,35.06-35.06C5162.6,2137.02,5178.28,2152.71,5178.28,2172.09" class="st2"/><path d="M6920.18,2359.1h-467.53c-51.64,0-93.51-41.87-93.51-93.51v-303.9c0-51.64,41.87-93.51,93.51-93.51h467.53 c51.64,0,93.51,41.87,93.51,93.51v303.9C7013.68,2317.23,6971.81,2359.1,6920.18,2359.1z" class="st1"/><path d="M6896.8,1868.19h-420.78v-163.64c0-116.2,94.18-210.39,210.39-210.39c116.2,0,210.39,94.18,210.39,210.39 V1868.19z" class="st1"/><path d="M8463.04,2359.1H7995.5c-51.64,0-93.51-41.87-93.51-93.51v-303.9c0-51.64,41.87-93.51,93.51-93.51h467.53 c51.64,0,93.51,41.87,93.51,93.51v303.9C8556.54,2317.23,8514.68,2359.1,8463.04,2359.1z" class="st1"/><path d="M8018.88,1868.19v-163.64c0-116.2,94.18-210.39,210.39-210.39s210.39,94.18,210.39,210.39v23.38" class="st1"/><line x1="3694.19" x2="3694.19" y1="1564.29" y2="1982.99" class="st1"/><path d="M3894.06,1699.22c91.17,63.12,150.78,168.5,150.78,287.93c0,193.7-156.97,350.65-350.65,350.65 c-193.68,0-350.65-156.95-350.65-350.65c0-119.43,59.61-224.81,150.78-287.93" class="st1"/></g></svg>