<?xml version="1.0" encoding="utf-8"?>
<!-- Generator: Adobe Illustrator 24.3.0, SVG Export Plug-In . SVG Version: 6.00 Build 0)  -->
<svg version="1.1" id="Laag_1" xmlns="http://www.w3.org/2000/svg" xmlns:xlink="http://www.w3.org/1999/xlink" x="0px" y="0px"
	 viewBox="0 0 1024 1024" style="enable-background:new 0 0 1024 1024;" xml:space="preserve">
<style type="text/css">
	
		.st0{clip-path:url(#SVGID_2_);fill:none;stroke:#000000;stroke-width:30.346;stroke-linecap:round;stroke-linejoin:round;stroke-miterlimit:10;}
</style>
<g>
	<defs>
		<rect id="SVGID_1_" x="80.26" y="85.23" width="893.74" height="864.77"/>
	</defs>
	<clipPath id="SVGID_2_">
		<use xlink:href="#SVGID_1_"  style="overflow:visible;"/>
	</clipPath>
	<path class="st0" d="M3166.7,4404.15v-45.99c-0.03-24.1-16.51-43.63-36.82-43.6c-20.31,0.03-36.74,19.58-36.72,43.7l0.31,226.55"/>
	<path class="st0" d="M3240.24,4488.73v-91.24c-0.03-24.09-16.52-43.63-36.83-43.6c-20.29,0.03-36.73,19.58-36.71,43.7l0.31,187.22"
		/>
	<path class="st0" d="M3093.17,4417.16c-0.03-24.1-16.52-43.62-36.83-43.61c-20.3,0.03-36.74,19.59-36.71,43.71l0.31,226.55
		c-5.17-15.16-9.53-28.68-13.58-38.02c-22.53-51.93-44.84-79.94-68.42-71.61c-29.89,10.57-14.56,54.98,0,98.34
		c16.47,49.06,39.34,137.67,70.29,180.16c35.55,48.78,84.56,72.31,141.16,72.24c68.6-0.09,157.66-36.05,157.66-161.87v-110.12
		v-124.32c-0.03-21.9-15.01-39.63-33.46-39.61c-18.45,0.03-33.38,17.8-33.35,39.7l0.27,99.74"/>
	<path class="st0" d="M3301.33,4774.07c97.69,8.34,167.7-8.15,195.38-16.43l-0.01-0.03c-37.47-66.91-81.67-183.95-41.03-321.06
		c47.9-161.56,23.73-283.06,11.3-327.35v0.01c-56.5,11.99-165.09,23.52-302.78-17.3c-154.94-45.93-284.22,16.47-344.54,55.1
		c10.78,59.32,17.91,161.94-19.91,289.54c-46.22,155.89,17.25,285.8,55.8,345.64v-0.03c31.09-16.23,71.02-32.68,117.44-42.22"/>
	<path class="st0" d="M3250.21,4199.48c-28.91-4.45-59.99-11.5-92.86-22.02c-75.13-24.05-143.75-18.39-200.09-1.99"/>
	<path class="st0" d="M3157.36,4227.37c-50.06-16.02-97.24-18.85-139.81-14.12"/>
	<path class="st0" d="M470.15,240.77c-16.66-70.81-95.8-66.65-95.8-66.65v-58.32c0,0,87.47-8.33,137.45-4.07
		c46.85,3.98,96.03,32.23,116.64,74.87c12.17,25.17-91.63-12.49-99.97,54.16"/>
	<path class="st0" d="M390.85,175.34c-13.86,62.8-51.91,112.81-69.57,138.59c-3,4.38,0.92,10.31,5.06,7.62
		c27.23-17.75,85.34-57.63,108.22-128.95"/>
	<path class="st0" d="M551.39,299.89c0,0-12.49,7.88-51.41,7.88c-31.9,0-48.56-7.88-48.56-7.88V247c0-3.44,2.79-6.23,6.24-6.23
		h87.49c3.45,0,6.24,2.79,6.24,6.23V299.89z"/>
	<polyline class="st0" points="374.34,115.81 325.44,115.81 325.44,174.12 374.34,174.12 	"/>
	<path class="st0" d="M451.42,294.92c-54.16,33.32,9.19,72.66-0.21,81.06c-31.17,27.88,0.23,66.39,0.21,66.32
		c0,0-31.38,22.25-13.57,64.08c-40.83,25.01-91.13,62.26-109.9,112.87C286.83,730.1,338.54,859.4,354.5,900.78
		c4.2,10.9,13.36,18.97,25.04,18.97h272.5c12.09,0,21.22-8.65,25.33-20.02c14.58-40.32,92.15-247.2-76.01-450.68
		c-33.99-41.12-29.81-82.79-24.99-112.46c5.5-33.87-24.84-43.98-24.84-43.98"/>
	<path class="st0" d="M2145.83,600.66h-641.38c-23.17,0-41.97,18.78-41.97,41.96v46.08h725.3v-46.08
		C2187.79,619.45,2169.01,600.66,2145.83,600.66z"/>
	<path class="st0" d="M1777.19,539.97V185.19c0-26.48,21.47-47.96,47.96-47.96c26.48,0,47.95,21.47,47.95,47.96v354.78"/>
	<path class="st0" d="M1749.28,600.66v-45.47c0-8.41,6.82-15.22,15.22-15.22h121.28c8.41,0,15.22,6.82,15.22,15.22v45.47"/>
	<path class="st0" d="M2964.13,535.35c-0.14-3.77-0.21-7.55-0.21-11.35c0-157.6,127.75-285.36,285.34-285.36
		c157.62,0,285.36,127.77,285.36,285.36c0,7.89-0.31,15.71-0.94,23.44"/>
	<path class="st0" d="M3269.52,808.65c-6.7,0.47-13.44,0.71-20.26,0.71c-95.26,0-179.61-46.67-231.44-118.4"/>
	<path class="st0" d="M3197.92,690.95c-71.38-21.93-123.28-88.38-123.28-166.94c0-96.45,78.18-174.63,174.62-174.63
		c80.27,0,147.89,54.16,168.32,127.92"/>
	<path class="st0" d="M3534.63,662.43c0,81.15-65.79,146.93-146.94,146.93c-81.16,0-146.94-65.79-146.94-146.93
		c0-81.15,65.79-146.93,146.94-146.93C3468.84,515.49,3534.63,581.27,3534.63,662.43z"/>
	<path class="st0" d="M3477.61,662.43c0,49.66-40.26,89.92-89.93,89.92c-49.66,0-89.92-40.26-89.92-89.92
		c0-49.67,40.26-89.91,89.92-89.91C3437.35,572.51,3477.61,612.76,3477.61,662.43z"/>
	<circle class="st0" cx="2803.49" cy="386.3" r="78.08"/>
	<path class="st0" d="M3042.7,628.35c-65.51,0-138.42,72.91-138.42,138.43c0-65.52-72.91-138.43-138.42-138.43
		c65.51,0,138.42-72.91,138.42-138.42C2904.28,555.44,2977.19,628.35,3042.7,628.35z"/>
	<circle class="st0" cx="2965.33" cy="237.23" r="56.79"/>
	<path class="st0" d="M4633.62,670.44h-303.29c-10.97,0-19.85,8.88-19.85,19.84v21.8h342.97v-21.8
		C4653.46,679.32,4644.58,670.44,4633.62,670.44z"/>
	<path class="st0" d="M4459.3,631.93V328.01c0-12.53,10.15-22.68,22.67-22.68c12.52,0,22.68,10.15,22.68,22.68v303.91"/>
	<path class="st0" d="M4446.11,670.44v-31.32c0-3.98,3.22-7.19,7.19-7.19h57.35c3.98,0,7.2,3.22,7.2,7.19v31.32"/>
	<path class="st0" d="M4713.61,789.56h66.64c15.52,0,28.68-9.49,30.88-22.26l30.61-178.25"/>
	<path class="st0" d="M4837.8,589.04h-267.72c-12.11,0-21.93-9.82-21.93-21.93c0-12.12,9.82-21.93,21.93-21.93h267.72
		c12.11,0,21.93,9.81,21.93,21.93C4859.73,579.22,4849.9,589.04,4837.8,589.04z"/>
	<path class="st0" d="M4567.62,544.44c0-75.28,61.04-136.31,136.32-136.31c75.28,0,136.31,61.03,136.31,136.31"/>
	<path class="st0" d="M4344.76,414.25c-14.49,52.47-55.52,104.93-103.89,104.93c-48.57,0-89.76-52.87-104.09-105.55"/>
	<path class="st0" d="M4410.77,635.26c-20.68-33.92-57.62-54.75-113.46-66.52l-56.45,39.22l-56.46-39.22
		c-93.35,19.66-133.89,64.7-133.89,153.79v35.75c0,17.28,14.01,31.28,31.28,31.28h168.54"/>
	<path class="st0" d="M4184.39,568.74c14.07-11.66,14.07-62.54,14.07-62.54"/>
	<path class="st0" d="M4297.31,568.74c-14.06-11.66-14.06-62.54-14.06-62.54"/>
	<path class="st0" d="M4237.6,220.48c103.45,0,147.44,38.58,114.46,189.36c-1.31,5.99-9.8,6.23-11.42,0.31
		c-6.07-22.14-14.47-67.02-14.47-67.02c-0.27-5.55-5.05-9.23-10.61-9.28c-36.32-0.4-76.51-23.39-76.51-23.39
		c-5.21-1.05-9.88,3.14-8.83,7.92l15.1,40.51l-67.24-35.56c-6.4-3.35-14.52-1.95-19.15,3.3l-17.86,82.81
		c-1.56,5.97-10.13,5.82-11.45-0.21c-32.78-150.28,10.59-188.76,113.9-188.76"/>
	<path class="st0" d="M2217.55,1963.06v228.13c0,18.46-14.96,33.42-33.42,33.42h-355.71"/>
	<path class="st0" d="M1821.4,1848.35h313.23c45.79,0,82.93,37.12,82.93,82.93v68.08c0,25.98-21.06,47.04-47.04,47.04H1970"/>
	<path class="st0" d="M2029.42,1848.35v-42.58c0-20.23-16.41-36.63-36.64-36.63h-104.97c-20.23,0-36.63,16.4-36.63,36.63v42.58"/>
	<path class="st0" d="M1957.58,2095.89h-34.56c-6.86,0-12.42-5.56-12.42-12.43v-64.26c0-6.86,5.56-12.42,12.42-12.42h34.56
		c6.86,0,12.42,5.56,12.42,12.42v64.26C1970,2090.33,1964.44,2095.89,1957.58,2095.89z"/>
	<path class="st0" d="M1583.57,1575.37c-15.93-67.71-91.61-63.73-91.61-63.73v-55.77c0,0,83.64-7.97,131.43-3.9
		c44.81,3.82,91.84,30.82,111.54,71.61c11.62,24.05-87.63-11.95-95.59,51.78"/>
	<path class="st0" d="M1507.74,1512.81c-13.25,60.04-49.64,107.87-66.53,132.52c-2.87,4.19,0.89,9.86,4.83,7.28
		c26.04-16.97,81.6-55.1,103.49-123.29"/>
	<path class="st0" d="M1661.25,1631.9c0,0-11.95,7.54-49.15,7.54c-30.51,0-46.44-7.54-46.44-7.54v-50.57c0-3.29,2.67-5.96,5.97-5.96
		h83.65c3.3,0,5.97,2.67,5.97,5.96V1631.9z"/>
	<path class="st0" d="M1565.66,1627.15c-51.78,31.86,8.79,69.48-0.2,77.51c-29.8,26.66,0.22,63.48,0.2,63.41
		c0,0-30,21.28-12.98,61.28c-39.04,23.92-87.13,59.53-105.08,107.92c-39.33,106.01,10.12,229.64,25.38,269.2
		c4.02,10.42,12.78,18.14,23.95,18.14h260.57c11.56,0,20.29-8.27,24.22-19.15c13.94-38.55,88.12-236.36-72.67-430.94
		c-32.5-39.31-28.52-79.17-23.9-107.54c5.26-32.38-23.76-42.05-23.76-42.05"/>
	<path class="st0" d="M1947.17,1615.03c-35.84,0-75.73,39.89-75.73,75.72c0-35.84-39.89-75.72-75.72-75.72
		c35.84,0,75.72-39.89,75.72-75.72C1871.44,1575.15,1911.33,1615.03,1947.17,1615.03z"/>
	<path class="st0" d="M2083.47,1470.47c-26.07,0-55.07,29.01-55.07,55.07c0-26.06-29.01-55.07-55.08-55.07
		c26.07,0,55.08-29.01,55.08-55.08C2028.41,1441.46,2057.41,1470.47,2083.47,1470.47z"/>
	<path class="st0" d="M2206.23,1673.89c-48.39,0-102.25,53.86-102.25,102.26c0-48.39-53.86-102.26-102.25-102.26
		c48.39,0,102.25-53.85,102.25-102.24C2103.99,1620.04,2157.84,1673.89,2206.23,1673.89z"/>
	<path class="st0" d="M2847.78,1799.21l64.96,378.16c4.65,27.1,32.57,47.24,65.5,47.24h146.01h31.78h145.99
		c32.93,0,60.84-20.14,65.51-47.24l64.96-378.16"/>
	<path class="st0" d="M3432.7,1799.21h-585.15c-20.95,0-37.93-16.98-37.93-37.93v-17.2c0-20.95,16.98-37.93,37.93-37.93h585.15
		c20.95,0,37.93,16.98,37.93,37.93v17.2C3470.63,1782.23,3453.65,1799.21,3432.7,1799.21z"/>
	<path class="st0" d="M2850.94,1704.59c0-159.72,129.47-289.2,289.2-289.2c159.72,0,289.2,129.48,289.2,289.2"/>
	<path class="st0" d="M4496.64,1961.96l33.54,195.26c2.41,13.99,16.82,24.39,33.82,24.39h75.39h16.41h75.39
		c17,0,31.43-10.4,33.82-24.39l33.54-195.26"/>
	<path class="st0" d="M4795.65,1961.96h-296.08c-12.49,0-22.62-10.11-22.62-22.61v-2.83c0-12.48,10.12-22.61,22.62-22.61h296.08
		c12.48,0,22.61,10.12,22.61,22.61v2.83C4818.25,1951.84,4808.13,1961.96,4795.65,1961.96z"/>
	<path class="st0" d="M4498.27,1913.1c0-82.47,66.85-149.32,149.33-149.32c82.46,0,149.31,66.85,149.31,149.32"/>
	<path class="st0" d="M4388.52,1919.29l-17.7,12.29c-26.04,18.08-60.58,18.08-86.62,0l-17.69-12.28"/>
	<path class="st0" d="M4448.89,1687.52c0,74.49-54.35,173.74-121.38,173.74c-67.04,0-121.38-99.25-121.38-173.74"/>
	<path class="st0" d="M4187.17,1683.15c74.22,0,120.6-69.5,120.6-69.5s64.94,69.5,166.98,69.5"/>
	<path class="st0" d="M4327.51,1520.02c-83.85-61.62-246.39,34.61-164.33,308.12c30.81,102.72-92.44,143.8-92.44,143.8
		s195.14,61.63,215.69-123.24"/>
	<path class="st0" d="M4432.29,1962.02c-31.35-18.45-56.95-52.58-63.7-113.33"/>
	<path class="st0" d="M4327.51,1520.02c77.59-57.03,222.57,21.13,178.75,249.86"/>
	<path class="st0" d="M4130.8,1981.59c-7.01,8.95-12.88,18.76-17.67,29.51c-10.96,24.63-16.17,54.15-16.17,89.34v43.29
		c0,20.92,16.95,37.88,37.87,37.88h351.06"/>
	<path class="st0" d="M4686.78,1582.1c-29.7,0-62.75,33.06-62.75,62.76c0-29.7-33.06-62.76-62.75-62.76
		c29.7,0,62.75-33.06,62.75-62.76C4624.03,1549.04,4657.08,1582.1,4686.78,1582.1z"/>
	<path class="st0" d="M4778.23,1483.8c-21.6,0-45.64,24.03-45.64,45.64c0-21.61-24.03-45.64-45.63-45.64
		c21.6,0,45.63-24.03,45.63-45.64C4732.59,1459.77,4756.64,1483.8,4778.23,1483.8z"/>
	<path class="st0" d="M4879.96,1652.37c-40.11,0-84.74,44.63-84.74,84.73c0-40.1-44.63-84.73-84.73-84.73
		c40.1,0,84.73-44.63,84.73-84.73C4795.22,1607.75,4839.85,1652.37,4879.96,1652.37z"/>
	<path class="st0" d="M583.14,3338.65H151.86c-15.59,0-28.22,12.63-28.22,28.21v30.99h487.71v-30.99
		C611.35,3351.28,598.72,3338.65,583.14,3338.65z"/>
	<path class="st0" d="M335.26,3283.88v-489.7c0-17.8,14.43-32.25,32.25-32.25c17.8,0,32.24,14.45,32.24,32.25v489.7"/>
	<path class="st0" d="M316.49,3338.65v-44.53c0-5.66,4.58-10.24,10.24-10.24h81.55c5.65,0,10.24,4.58,10.24,10.24v44.53"/>
	<path class="st0" d="M696.88,3508.04h94.76c22.06,0,40.78-13.49,43.9-31.67l43.54-253.46"/>
	<path class="st0" d="M882.04,3222.9H484.2c-12.48,0-22.61-10.12-22.61-22.61v-17.16c0-12.48,10.12-22.61,22.61-22.61h397.84
		c12.48,0,22.61,10.13,22.61,22.61v17.16C904.65,3212.78,894.52,3222.9,882.04,3222.9z"/>
	<path class="st0" d="M489.29,3159.48c0-107.05,86.79-193.84,193.84-193.84s193.84,86.79,193.84,193.84"/>
	<path class="st0" d="M1528.01,3151.28c-25.43,0-53.73,28.31-53.73,53.73c0-25.42-28.31-53.73-53.74-53.73
		c25.43,0,53.74-28.3,53.74-53.73C1474.28,3122.97,1502.58,3151.28,1528.01,3151.28z"/>
	<path class="st0" d="M1601.04,3308.85c-37.47,0-79.17,41.7-79.17,79.16c0-37.47-41.7-79.16-79.16-79.16
		c37.47,0,79.16-41.7,79.16-79.17C1521.87,3267.15,1563.58,3308.85,1601.04,3308.85z"/>
	<path class="st0" d="M1597.94,3047.25c-19.71,0-41.65,21.93-41.65,41.64c0-19.7-21.93-41.64-41.63-41.64
		c19.7,0,41.63-21.93,41.63-41.63C1556.29,3025.32,1578.23,3047.25,1597.94,3047.25z"/>
	<path class="st0" d="M1873.26,3433.38c19.86,4.22,40.46,6.43,61.57,6.43c162.88,0,294.92-132.03,294.92-294.92
		c0-162.88-132.04-294.92-294.92-294.92c-135.01,0-248.83,90.71-283.82,214.5"/>
	<path class="st0" d="M1587.6,3361.54c30.09,47.31,82.99,78.69,143.2,78.69c93.67,0,169.6-75.92,169.6-169.59
		c0-93.67-75.94-169.59-169.6-169.59c-81.64,0-149.8,57.68-165.96,134.5"/>
	<path class="st0" d="M1825.03,3270.63c0-52.03-42.18-94.21-94.22-94.21c-52.03,0-94.22,42.18-94.22,94.21
		c0,52.04,42.19,94.22,94.22,94.22C1782.84,3364.86,1825.03,3322.68,1825.03,3270.63z"/>
	<path class="st0" d="M403.97,4854.58H504h31.78h146c32.92,0,60.84-20.13,65.5-47.24l64.96-378.17"/>
	<path class="st0" d="M779.11,4336.13h33.46c20.9,0,37.83,16.94,37.83,37.84v17.38c0,20.89-16.93,37.83-37.83,37.83H227.22
		c-20.89,0-37.83-16.94-37.83-37.83v-17.38c0-20.9,16.94-37.84,37.83-37.84h30.64"/>
	<path class="st0" d="M230.7,4334.56c0-159.72,129.48-289.2,289.2-289.2s289.19,129.48,289.19,289.2"/>
	<path class="st0" d="M752.68,4319.74c-2.59,0-5.06,0.44-7.45,1.06c0.01-0.36,0.05-0.71,0.05-1.06c0-32.65-26.47-59.12-59.11-59.12
		c-7.86,0-15.34,1.58-22.21,4.36c0.01-0.23,0.04-0.44,0.04-0.66c0-63.26-51.28-114.54-114.54-114.54
		c-55.73,0-102.12,39.83-112.38,92.58c-11.36-7.11-24.73-11.29-39.11-11.29c-34.79,0-63.89,24.06-71.75,56.43
		c-6.25-2.97-13.23-4.69-20.64-4.69c-26.52,0-48.03,21.51-48.03,48.03c0,26.53,21.51,48.04,48.03,48.04
		c16.78,0,31.53-8.62,40.12-21.65c13.37,13.37,31.85,21.65,52.27,21.65c28.29,0,52.86-15.92,65.27-39.3
		c21,24.03,51.79,39.3,86.21,39.3c32.5,0,61.77-13.59,82.61-35.33c9.17,20.79,29.92,35.33,54.11,35.33
		c15.63,0,29.8-6.12,40.38-16.02c4.92,9.48,14.71,16.02,26.13,16.02c16.33,0,29.56-13.24,29.56-29.56
		C782.24,4332.98,769,4319.74,752.68,4319.74z"/>
	<path class="st0" d="M390.55,4645.65c18.97-54.16-10.88-113.56-66.46-130.23c-50.1-15.03-104.74,11.96-123.35,60.85
		c-6.95,18.25-8.2,37.16-4.75,54.92c2.26,11.64-2.03,23.86-11.05,31.53c-13.78,11.74-24.59,27.3-30.56,45.9
		c-15.96,49.81,9.9,104.99,58.44,124.51c53.82,21.65,114.23-6.16,133.19-60.32c6.01-17.16,7.07-34.83,3.98-51.51
		c-2.28-12.27,2.09-24.75,11.53-32.92C374.34,4677.28,384.55,4662.81,390.55,4645.65z"/>
	<path class="st0" d="M217.24,4834.79c0,0,32.51,12.64,52.81,16.02c57.22,9.52,101.51-8.25,120.47-62.41
		c6.01-17.15,7.07-34.83,3.98-51.51c-2.28-12.28,2.09-24.75,11.53-32.92c12.83-11.1,22.25-25.85,29.03-42.73
		c18.34-45.65-2.03-90.76-53.74-119.99c-12.17-6.87-29.75-17.3-52.74-24.38"/>
	<path class="st0" d="M1731.93,4222.59c15.25-64.85,87.75-61.04,87.75-61.04v-53.41c0,0-80.12-7.64-125.9-3.74
		c-42.92,3.67-87.95,29.53-106.84,68.6c-11.14,23.03,83.94-11.45,91.56,49.58"/>
	<path class="st0" d="M1804.56,4162.67c12.69,57.52,47.54,103.32,63.73,126.94c2.75,4-0.85,9.44-4.63,6.97
		c-24.94-16.25-78.16-52.77-99.13-118.11"/>
	<path class="st0" d="M1657.52,4276.74c0,0,11.44,7.22,47.08,7.22c29.22,0,44.49-7.22,44.49-7.22v-48.43c0-3.16-2.56-5.73-5.72-5.73
		h-80.13c-3.16,0-5.71,2.57-5.71,5.73V4276.74z"/>
	<path class="st0" d="M1876.08,4668.4c-3.14,69.75-28.27,132.9-38.23,158.7c-3.85,9.98-12.25,17.37-22.94,17.37h-249.59
		c-11.07,0-19.43-7.93-23.2-18.34c-13.34-36.93-84.4-226.4,69.61-412.77c31.12-37.66,27.3-75.84,22.89-103
		c-5.04-31.02,22.76-40.29,22.76-40.29"/>
	<path class="st0" d="M1749.09,4272.19c49.59,30.53-8.43,66.55,0.19,74.26c28.55,25.53-0.21,60.8-0.19,60.74
		c0,0,28.74,20.37,12.43,58.69c27.07,16.59,58.69,39.05,80.6,67.76"/>
	<path class="st0" d="M2038.54,4491.15c32.66,0,69.03,36.35,69.03,69.02c0-32.66,36.34-69.02,69.02-69.02
		c-32.67,0-69.02-36.35-69.02-69.02C2107.56,4454.79,2071.2,4491.15,2038.54,4491.15z"/>
	<path class="st0" d="M1928.68,4373.75c23.76,0,50.2,26.44,50.2,50.2c0-23.76,26.44-50.2,50.19-50.2
		c-23.75,0-50.19-26.43-50.19-50.19C1978.88,4347.32,1952.44,4373.75,1928.68,4373.75z"/>
	<path class="st0" d="M1835.32,4596.23c44.11,0,93.19,49.1,93.19,93.2c0-44.1,49.09-93.2,93.2-93.2c-44.11,0-93.2-49.09-93.2-93.2
		C1928.52,4547.14,1879.44,4596.23,1835.32,4596.23z"/>
	<path class="st0" d="M4719.08,4652.05h49.72c26.06-0.03,47.17-17.85,47.14-39.81c-0.03-21.94-21.18-39.38-47.24-39.34l-255.87-0.01
		"/>
	<path class="st0" d="M4627.64,4731.54l98.63,0.01c26.06-0.04,47.17-17.86,47.14-39.82c-0.03-21.94-21.18-39.71-47.24-39.67h-213.34
		"/>
	<path class="st0" d="M4095.07,4793.2c164.42-0.36,163.71,10.57,344.85,10.57h53.43l145.33-0.01c23.68-0.03,42.85-16.23,42.83-36.16
		c-0.03-19.95-19.25-36.09-42.93-36.06h-125.73"/>
	<path class="st0" d="M4705.01,4572.9c26.06-0.04,47.16-18.2,47.13-40.16c-0.02-21.95-21.17-39.38-47.24-39.35h-244.93
		c16.4-5.59,31.01-10.31,41.11-14.69c56.16-24.35,86.43-48.47,77.42-73.96c-11.43-32.32-59.44-15.74-106.32,0
		c-53.03,17.8-118.1,22.31-194.75,76c-40.2,28.14-141,18.08-184.74,18.08"/>
	<path class="st0" d="M4090.31,4776.34v25.57c0,13.73-11.23,24.97-24.97,24.97c-13.73,0-24.96-11.24-24.96-24.97v-321.88
		c0-13.73,11.24-24.96,24.96-24.96c13.74,0,24.97,11.24,24.97,24.96v33.86"/>
	<path class="st0" d="M4849.61,4308.42c0,62.4-51.41,112.98-114.83,112.98c-63.4,0-114.82-50.58-114.82-112.98
		c0-112.97,114.82-220.56,114.82-220.56S4849.61,4206.21,4849.61,4308.42z"/>
	<path class="st0" d="M4789.46,4302.4c0,18.02-7.92,34.19-20.46,45.22"/>
	<path class="st0" d="M4548.89,4173.63c0,34.16-28.15,61.86-62.89,61.86c-34.72,0-62.88-27.7-62.88-61.86
		c0-61.86,62.88-120.79,62.88-120.79S4548.89,4117.65,4548.89,4173.63z"/>
	<path class="st0" d="M5575.38,1549.86c-16.56-70.37-95.22-66.23-95.22-66.23v-57.95c0,0,86.94-8.28,136.6-4.05
		c46.57,3.97,95.44,32.03,115.92,74.42c12.08,25-91.07-12.42-99.35,53.81"/>
	<path class="st0" d="M5496.57,1484.84c-13.77,62.39-51.59,112.11-69.14,137.72c-2.98,4.36,0.92,10.25,5.02,7.58
		c27.07-17.64,84.82-57.27,107.57-128.15"/>
	<path class="st0" d="M5656.12,1608.61c0,0-12.42,7.83-51.08,7.83c-31.71,0-48.26-7.83-48.26-7.83v-52.55c0-3.43,2.77-6.2,6.2-6.2
		h86.94c3.43,0,6.2,2.77,6.2,6.2V1608.61z"/>
	<path class="st0" d="M5556.77,1603.67c-53.81,33.12,9.13,72.21-0.21,80.56c-30.97,27.72,0.23,65.97,0.21,65.91
		c0,0-31.19,22.11-13.48,63.69c-40.58,24.85-90.56,61.86-109.22,112.16c-40.87,110.18,10.53,238.66,26.39,279.78
		c4.18,10.83,13.28,18.86,24.88,18.86h270.83c12.01,0,21.08-8.61,25.17-19.91c14.49-40.07,91.58-245.65-75.54-447.87
		c-33.77-40.86-29.62-82.29-24.83-111.76c5.46-33.65-24.69-43.71-24.69-43.71"/>
	<path class="st0" d="M5995.75,1864.08L5995.75,1864.08c-17.31,0.73-32.08-12.84-32.8-30.14l-6.66-157.41
		c-0.75-17.31,12.83-32.08,30.14-32.81c17.32-0.73,32.08,12.84,32.8,30.15l6.66,157.4
		C6026.64,1848.59,6013.07,1863.34,5995.75,1864.08z"/>
	<path class="st0" d="M5832.05,2224.61h233.36c20.67,0,37.08-17.41,35.87-38.04l-34.51-586.9c-1.28-21.69-14.04-41.04-33.46-50.76
		l-57.33-28.67l-11.1-99.83c0,0-10.87-5.03-48.16-5.03c-33.09,0-46.13,5.03-46.13,5.03l-11.1,99.83l-57.33,28.67
		c-19.43,9.72-32.2,29.07-33.47,50.76l-8.1,137.79"/>
	<path class="st0" d="M5916.89,3304.71H5557.5c-12.99,0-23.52,10.52-23.52,23.51v25.82h406.42v-25.82
		C5940.41,3315.23,5929.88,3304.71,5916.89,3304.71z"/>
	<path class="st0" d="M5710.33,3259.07v-408.09c0-14.84,12.03-26.87,26.87-26.87s26.87,12.03,26.87,26.87v408.09"/>
	<path class="st0" d="M5694.69,3304.71v-37.1c0-4.71,3.81-8.54,8.53-8.54h67.96c4.7,0,8.52,3.82,8.52,8.54v37.1"/>
	<path class="st0" d="M6007.81,3445.86h82.83c18.4,0,33.99-11.25,36.59-26.39l36.29-211.22"/>
	<path class="st0" d="M6162.22,3208.25h-323.99c-12.49,0-22.62-10.12-22.62-22.61v-6.76c0-12.49,10.13-22.62,22.62-22.62h323.99
		c12.48,0,22.61,10.12,22.61,22.62v6.76C6184.82,3198.13,6174.7,3208.25,6162.22,3208.25z"/>
	<path class="st0" d="M5838.69,3155.4c0-89.21,72.31-161.53,161.53-161.53c89.22,0,161.53,72.32,161.53,161.53"/>
	<path class="st0" d="M5483.05,2983.37c-11.35-48.24-65.26-45.4-65.26-45.4v-39.72c0,0,59.58-5.68,93.63-2.76
		c31.91,2.71,65.42,21.94,79.46,51c8.28,17.14-62.43-8.52-68.1,36.88"/>
	<path class="st0" d="M5429.04,2938.81c-9.45,42.77-35.36,76.84-47.4,94.4c-2.04,2.98,0.64,7.02,3.45,5.19
		c18.55-12.1,58.12-39.25,73.72-87.83"/>
	<path class="st0" d="M5538.39,3023.64c0,0-8.52,5.36-35.01,5.36c-21.74,0-33.09-5.36-33.09-5.36v-36.02c0-2.35,1.9-4.25,4.25-4.25
		h59.59c2.36,0,4.26,1.9,4.26,4.25V3023.64z"/>
	<path class="st0" d="M5639.5,3262.98c-8.5-43.14-28.09-90.57-67.06-137.74c-23.15-28.02-20.31-56.4-17.02-76.61
		c3.74-23.07-16.92-29.95-16.92-29.95"/>
	<path class="st0" d="M5470.29,3020.25c-36.88,22.7,6.26,49.49-0.14,55.22c-21.23,18.99,0.16,45.23,0.14,45.17
		c0,0-21.37,15.15-9.24,43.65c-27.82,17.04-62.08,42.41-74.86,76.88c-28.01,75.52,7.21,163.58,18.09,191.76
		c2.86,7.43,9.1,12.92,17.05,12.92h46.3"/>
	<path class="st0" d="M6007.19,870.83c-20.96-106.01-119.1-186.25-237.08-186.25c-118,0-216.13,80.24-237.09,186.25"/>
	<path class="st0" d="M5702.38,693.71v-68.4c0-9.36,7.58-16.93,16.93-16.93h101.59c9.36,0,16.93,7.58,16.93,16.93v68.4"/>
	<path class="st0" d="M5770.1,100.41L5770.1,100.41c-28.05,0-50.79,22.75-50.79,50.8v457.17h101.58V151.2
		C5820.89,123.16,5798.15,100.41,5770.1,100.41z"/>
	<path class="st0" d="M6017.74,909.63h-495.27c-10.52,0-19.05-8.53-19.05-19.05c0-10.52,8.53-19.06,19.05-19.06h495.27
		c10.52,0,19.05,8.54,19.05,19.06C6036.78,901.1,6028.26,909.63,6017.74,909.63z"/>
	<path class="st0" d="M5917.34,820.57c-14.1-30.4-33.55-54.4-54.12-68.27"/>
	<path class="st0" d="M5698.6,4349.83h-225.97c-18.69,0-33.85-15.14-33.85-33.83v-39.59h293.65v39.59
		C5732.44,4334.69,5717.29,4349.83,5698.6,4349.83z"/>
	<path class="st0" d="M5949.2,4753.8c0-42.51-34.47-76.98-76.99-76.98c-42.52,0-76.99,34.46-76.99,76.98
		c0,42.51,34.47,76.99,76.99,76.99C5914.73,4830.78,5949.2,4796.31,5949.2,4753.8z"/>
	<path class="st0" d="M5471.54,4226.12c0,0-29.71-117.05-95.93-117.84"/>
	<path class="st0" d="M5526.18,4226.12c0,0-4.05-105.58-47.97-154.67"/>
	<path class="st0" d="M5699.7,4226.12c0,0,28.88-117.05,95.93-117.84"/>
	<path class="st0" d="M5645.05,4226.12c0,0,3.24-105.58,47.97-154.67"/>
	<path class="st0" d="M5896.29,4753.8c0-13.29-10.78-24.07-24.09-24.07c-13.29,0-24.07,10.78-24.07,24.07
		c0,13.3,10.78,24.08,24.07,24.08C5885.51,4777.88,5896.29,4767.1,5896.29,4753.8z"/>
	<path class="st0" d="M5754.5,4790.26c-16.98-9.48-28.46-27.61-28.46-48.44v-163.71c0-37.52,31.36-67.44,68.82-65.49
		c56.35,2.92,136.64,9.9,198.9,26.57c107.27,28.73,191.06,110.8,191.06,221.85c0,20-16.21,36.2-36.2,36.2h-161.66"/>
	<path class="st0" d="M5829.27,4581.76c0-7.96-6.45-14.4-14.4-14.4c-7.96,0-14.4,6.44-14.4,14.4c0,7.95,6.44,14.4,14.4,14.4
		C5822.82,4596.16,5829.27,4589.71,5829.27,4581.76z"/>
	<path class="st0" d="M6147.95,4797.35c-13.6-88.11-81.96-154.1-169.4-183.55c-12.21-4.11-21.79-13.71-25.8-25.96l-20.16-61.41"/>
	<path class="st0" d="M5992.31,4269.07c31.87,0,67.34,35.47,67.34,67.34c0-31.86,35.46-67.34,67.34-67.34
		c-31.87,0-67.34-35.46-67.34-67.33C6059.65,4233.61,6024.18,4269.07,5992.31,4269.07z"/>
	<path class="st0" d="M5885.14,4154.56c23.17,0,48.97,25.79,48.97,48.97c0-23.17,25.79-48.97,48.98-48.97
		c-23.18,0-48.98-25.8-48.98-48.98C5934.11,4128.75,5908.31,4154.56,5885.14,4154.56z"/>
	<path class="st0" d="M5794.06,4371.6c43.03,0,90.92,47.89,90.92,90.92c0-43.03,47.9-90.92,90.93-90.92
		c-43.03,0-90.93-47.89-90.93-90.93C5884.98,4323.71,5837.09,4371.6,5794.06,4371.6z"/>
	<path class="st0" d="M5585.62,4391.09v313.37v25.29c0,47.49-38.5,85.98-85.98,85.98c-47.48,0-85.98-38.49-85.98-85.98
		c0-47.48,38.5-85.98,85.98-85.98h180.53"/>
</g>
</svg>
