<svg xmlns="http://www.w3.org/2000/svg" xmlns:xlink="http://www.w3.org/1999/xlink" id="Laag_1" x="0" y="0" version="1.1" viewBox="0 0 1024 1024" xml:space="preserve" style="enable-background:new 0 0 1024 1024"><style type="text/css">.st0,.st1{clip-path:url(#SVGID_2_)}.st1{fill:#fff}</style><g><defs><rect id="SVGID_1_" width="880.31" height="864.01" x="51.42" y="50"/></defs><clipPath id="SVGID_2_"><use xlink:href="#SVGID_1_" style="overflow:visible"/></clipPath><path d="M777.81-1610.11H576.12h-261c-7.53,0-15.18,0.3-22.68-0.37c-35.58-3.16-67.08-29.05-77.47-63.15 c-7.08-23.24-4-50.98-4-74.97v-291.42v-114.66c0-7.25-0.09-14.51,0-21.77c0.39-30.04,14.81-58.58,40.11-75.32 c26.68-17.65,56.38-15.18,86.58-15.18h126.68h281.49c32.03,0,63.09-1.42,89.63,20.99c20.97,17.71,32.07,43.1,32.33,70.34 c0.08,8.33,0,16.66,0,24.99v276.51v130.84c0,25.71,3.16,54.85-7.37,78.91C846.03-1631.48,813.39-1610.7,777.81-1610.11 c-15.83,0.26-15.87,24.88,0,24.62c64.57-1.08,114.36-53.33,114.61-117.38c0.11-28.51,0-57.02,0-85.53v-308.9 c0-26.19,0.27-52.39,0-78.58c-0.66-63.48-51.29-114.86-114.95-115.67c-74.42-0.95-148.91,0-223.34,0c-82.91,0-165.83-0.16-248.74,0 c-59.03,0.11-110.83,41.02-118.14,101.05c-2.89,23.78-0.9,48.74-0.9,72.61v304.95v103.27c0,13.3,0.43,26.46,3.97,39.43 c9.74,35.77,36.86,64.78,71.43,77.76c26.37,9.9,56.9,6.99,84.64,6.99h138.14H760.8h17.01 C793.65-1585.49,793.67-1610.11,777.81-1610.11" class="st0"/><path d="M645.9-2139.94v152.39c4.1-4.1,8.2-8.21,12.31-12.31H449.95h-30.19c4.1,4.1,8.21,8.21,12.31,12.31v-152.39 c0-6.65-5.64-12.31-12.31-12.31h-93.16c-6.65,0-12.31,5.64-12.31,12.31v353.12v49.71c0,6.65,5.64,12.31,12.31,12.31h93.16 c6.65,0,12.31-5.64,12.31-12.31v-165.16c-4.1,4.1-8.21,8.21-12.31,12.31h208.26h30.19c-4.1-4.1-8.21-8.2-12.31-12.31v165.16 c0,6.65,5.64,12.31,12.31,12.31h93.96c6.65,0,12.31-5.64,12.31-12.31v-353.12v-49.71c0-6.65-5.64-12.31-12.31-12.31h-93.96 c-15.84,0-15.87,24.62,0,24.62h93.96c-4.1-4.1-8.21-8.21-12.31-12.31v353.12v49.71c4.1-4.1,8.21-8.21,12.31-12.31h-93.96 c4.1,4.1,8.21,8.21,12.31,12.31v-165.16c0-6.65-5.64-12.31-12.31-12.31H449.95h-30.19c-6.65,0-12.31,5.64-12.31,12.31v165.16 c4.1-4.1,8.2-8.21,12.31-12.31h-93.16c4.1,4.1,8.2,8.21,12.31,12.31v-353.12v-49.71c-4.1,4.1-8.2,8.21-12.31,12.31h93.16 c-4.1-4.1-8.2-8.21-12.31-12.31v152.39c0,6.65,5.64,12.31,12.31,12.31h208.26h30.19c6.65,0,12.31-5.64,12.31-12.31v-152.39 C670.51-2155.78,645.9-2155.8,645.9-2139.94" class="st0"/><path d="M-2926.05-2200.34h-73.11c4.1,4.1,8.2,8.21,12.31,12.31c-4-74.88-65.08-132.25-139.85-132.55 c-51.77-0.21-108.72-7.06-153.48,24.4c-35.75,25.13-57.06,64.63-59.39,108.15c4.1-4.1,8.2-8.21,12.31-12.31 c-24.23,0-48.48-0.23-72.71,0c-44.25,0.41-87.13,19.31-116.01,53.16c-24.73,29.01-37.12,64.84-37.22,102.8 c-0.06,24.83,0,49.67,0,74.51v95.5c0,25.97,0.04,51.42,9.4,76.23c16.2,42.96,50.61,76.82,93.98,92.02 c20.1,7.05,40.82,8.27,61.83,8.27h346.87c37.95,0,75.91,0.29,113.85,0c84.33-0.65,153.2-68.62,154.02-153.17 c0.52-53.98,0-108,0-161.99c0-22.7,1.2-45.75-3.74-68.07c-9.84-44.37-40.8-83.53-81.63-103.46 C-2879.74-2194.84-2902.56-2200.05-2926.05-2200.34c-15.85-0.19-15.86,24.42,0,24.62c44.55,0.54,86.24,23.52,109.52,61.77 c15.07,24.77,18.69,51.39,18.69,79.66v167.66c0,26.88-2.17,52.51-15.44,76.77c-21.17,38.7-61.63,65.01-105.88,67.22 c-30.33,1.52-61.02,0.17-91.37,0.17h-349.57c-12.64,0-25.28,0.04-37.92,0c-32.01-0.11-62.95-10.63-87.03-32.13 c-28.12-25.1-43.36-60.19-43.52-97.74c-0.09-21.37,0-42.73,0-64.1v-93.63c0-19.46-1.66-40.33,1.88-59.55 c7.86-42.7,37.06-79.65,77.29-96.4c29.23-12.17,60.73-9.71,91.65-9.71h30.5c6.92,0,11.96-5.65,12.31-12.31 c3.37-63.04,55.64-107.82,117.34-107.93c43.44-0.08,93.44-6.99,132.14,16.59c32.02,19.51,52.01,54.05,54,91.33 c0.35,6.64,5.35,12.31,12.31,12.31h73.11C-2910.21-2175.72-2910.19-2200.34-2926.05-2200.34" class="st0"/><path d="M-3030.64-1918.89h-90.06c-6.65,0-12.31,5.64-12.31,12.31v90.06c4.1-4.1,8.21-8.21,12.31-12.31h-85.03 l12.31,12.31v-90.06c0-6.65-5.64-12.31-12.31-12.31h-90.05c4.1,4.1,8.21,8.21,12.31,12.31v-85.03c-4.1,4.1-8.21,8.21-12.31,12.31 h90.05c6.66,0,12.31-5.64,12.31-12.31v-90.06l-12.31,12.31h85.03c-4.1-4.1-8.21-8.21-12.31-12.31v90.06 c0,6.65,5.64,12.31,12.31,12.31h90.06c-4.1-4.1-8.21-8.21-12.31-12.31v85.03c0,15.84,24.62,15.87,24.62,0v-85.03 c0-6.65-5.64-12.31-12.31-12.31h-90.06c4.1,4.1,8.21,8.2,12.31,12.31v-90.06c0-6.65-5.64-12.31-12.31-12.31h-85.03 c-6.65,0-12.31,5.64-12.31,12.31v90.06c4.1-4.1,8.21-8.21,12.31-12.31h-90.05c-6.65,0-12.31,5.64-12.31,12.31v85.03 c0,6.65,5.64,12.31,12.31,12.31h90.05c-4.1-4.1-8.21-8.21-12.31-12.31v90.06c0,6.65,5.64,12.31,12.31,12.31h85.03 c6.65,0,12.31-5.64,12.31-12.31v-90.06c-4.1,4.1-8.21,8.21-12.31,12.31h90.06C-3014.8-1894.27-3014.78-1918.89-3030.64-1918.89" class="st0"/><path d="M-3255.91-2188.03c3.5-48.44,53.47-55.12,92.68-55.12c39.22,0,89.2,6.68,92.7,55.12 c4.1-4.1,8.21-8.2,12.31-12.31h-210c-15.84,0-15.87,24.62,0,24.62h210c6.3,0,12.79-5.65,12.31-12.31 c-2.04-28.21-15.43-52.47-41.04-65.75c-23.63-12.26-50.17-13.99-76.28-13.99c-26.11,0-52.65,1.73-76.27,13.99 c-25.61,13.28-38.99,37.54-41.03,65.75C-3281.67-2172.22-3257.04-2172.29-3255.91-2188.03" class="st0"/><path d="M887.93-3281.47c-30.99,74.47-94.49,128.37-157.63,175.43c-64.32,47.94-130.64,93.4-197.05,138.38h12.42 c-63.51-43.56-127.34-86.74-189.3-132.51c-59-43.58-118.59-91.61-154.01-157.25c-35.85-66.42-41.98-148.68-11.13-218.22 c29.17-65.75,89.94-117.82,165.05-111.49c84.07,7.09,150.34,77.38,171.22,156c3.11,11.72,20.61,11.71,23.74,0 c19.76-74.02,77.87-138.49,154.78-153.66c97.96-19.32,174.98,62.25,195.43,151.49C913.08-3382.65,907.31-3329.44,887.93-3281.47 c-5.94,14.68,17.87,21.07,23.74,6.54c38.12-94.33,22.31-209.99-50.93-283.35c-35.98-36.04-84.13-57.08-135.47-53.67 c-45.59,3.02-88.32,22.48-122.64,52.26c-36.68,31.84-62.63,75.23-75.12,122.02h23.74c-19.93-75.02-75.68-140.88-150.45-165.22 c-37.61-12.24-80-13.22-117.17,1.19c-34.25,13.28-62.96,37-85.16,66.03c-50.16,65.59-63.49,153.61-41.12,232.44 c22.6,79.63,80.09,140.86,143.34,191.3c74.34,59.29,154.19,111.79,232.56,165.54c3.38,2.32,9.04,2.29,12.42,0 c70.05-47.45,140.18-95.28,207.66-146.34c65.17-49.32,126.33-105.3,158.33-182.18C917.75-3289.53,893.94-3295.91,887.93-3281.47" class="st0"/><path d="M758.9-3252.08c-22.13,0.2-44.27,0.19-66.4,0.27c3.96,3.01,7.92,6.03,11.87,9.04 c-7.33-21.96-14.65-43.92-21.98-65.88c-3.03-9.08-17.76-13.25-22.5-2.94c-17.81,38.77-35.63,77.54-53.45,116.31 c7.5,0.98,15,1.96,22.5,2.94l-45.44-156.06c-3.14-10.79-21.73-12.62-23.74,0c-11.99,75.23-23.99,150.47-35.98,225.7 c-1.7,10.65-3.4,21.31-5.1,31.96h23.74c-14.13-62.53-28.25-125.07-42.38-187.6c-2-8.86-4-17.72-6-26.58 c-2.74-12.16-20.51-11.27-23.74,0c-14.53,50.8-29.07,101.59-43.6,152.39h23.74l-33.25-196.94c-2.13-12.61-20.51-10.78-23.74,0 c-10.56,35.23-21.12,70.46-31.68,105.69c3.96-3.01,7.91-6.02,11.87-9.04c-17.9,0.26-35.8,0.55-53.7,0.76 c-15.83,0.19-15.87,24.81,0,24.62c17.9-0.21,35.8-0.5,53.7-0.76c5.52-0.08,10.29-3.78,11.87-9.04 c10.56-35.23,21.12-70.46,31.68-105.69h-23.74c11.08,65.65,22.17,131.3,33.25,196.94c2.11,12.51,20.62,10.9,23.74,0 c14.53-50.8,29.07-101.59,43.6-152.39h-23.74c14.13,62.53,28.25,125.07,42.38,187.6c2,8.86,4,17.72,6,26.58 c2.56,11.32,21.8,12.16,23.74,0c11.99-75.23,23.99-150.46,35.98-225.7c1.7-10.65,3.39-21.3,5.09-31.96h-23.74 c15.15,52.02,30.3,104.04,45.44,156.06c2.73,9.37,17.88,13,22.5,2.94c17.81-38.77,35.63-77.54,53.44-116.31 c-7.5-0.98-15-1.96-22.5-2.94c7.33,21.96,14.65,43.93,21.98,65.88c1.72,5.16,6.26,9.06,11.87,9.04c22.13-0.07,44.27-0.06,66.4-0.27 C774.74-3227.6,774.77-3252.22,758.9-3252.08" class="st0"/><path d="M319.72-748.09c-60.35,106.11-37.23,243.5,57.28,322.04c95.33,79.21,238.97,76.99,331.45-5.77 c89-79.65,109.75-213.12,50.53-316.38c-31.91-55.64-64.69-110.81-97.02-166.21c-36.63-62.75-72.14-126.33-109.96-188.38 c-0.68-1.12-1.32-2.26-1.98-3.4c-4.66-7.98-16.6-7.98-21.26,0L345.91-792.96L319.72-748.09c-8,13.71,13.26,26.12,21.25,12.43 l182.84-313.22c8.73-14.96,17.46-29.91,26.19-44.87h-21.26c28.67,49.12,57.34,98.23,86.01,147.35 c38.3,65.61,76.6,131.22,114.9,196.83c16.74,28.68,30.42,58.04,36.14,91.15c9.38,54.32-2.92,111.26-31.76,157.97 c-60.96,98.72-191.8,136.99-296.15,85.05c-101.31-50.43-152.23-171.68-115.74-279.04c4.89-14.38,11.33-28.03,18.83-41.22 C348.82-749.46,327.56-761.88,319.72-748.09" class="st0"/><path d="M645.78-464.02c59.06-49.12,92.41-124.24,82.76-201.18c-1.95-15.51-26.59-15.71-24.62,0 c8.95,71.32-20.78,138.22-75.55,183.78C616.19-471.28,633.68-453.95,645.78-464.02" class="st0"/><path d="M-920.6-993.46c23.9-22.66,53.34-19.45,83.32-19.45h116.73c67.67,0,135.37-0.6,203.04,0 c27.88,0.24,53.96,16.32,63.92,43.04c3.75,10.05,4.16,20.21,4.16,30.69v73.85v258.3c0,51.39,0.99,102.89,0,154.26 c-0.71,36.75-30.1,65.49-66.69,66.2c-5.75,0.11-11.52,0-17.27,0h-103.34h-227.03c-11.28,0-22.22-0.13-33.07-4.13 c-26.47-9.76-43.09-35.31-43.37-63.09c-0.19-18.82,0-37.65,0-56.47v-249.25c0-61.36-0.32-122.73,0-184.09 C-940.11-962.74-934-979.49-920.6-993.46c10.97-11.43-6.42-28.87-17.41-17.4c-17.39,18.12-26.61,40.63-26.81,65.75 c-0.06,7.04,0,14.09,0,21.13v98.1v272.16v87.65c0,4.43-0.09,8.87,0,13.3c0.74,36.59,22.36,69.66,56.4,83.81 c24.53,10.2,54.04,7.01,80.12,7.01h127.36h131.75c23.25,0,48.85,2.65,71.86-1.95c36-7.2,65.47-37.75,71.24-73.99 c1.31-8.23,1.3-16.28,1.3-24.53v-82.31v-270.26v-103.14c0-28.03,1.23-55.4-16.06-79.83c-17.71-25.01-45.39-39.08-75.91-39.57 c-7.78-0.13-15.57,0-23.35,0h-114.41c-72.32,0-144.67-0.52-216.99,0c-25.37,0.18-48.05,9.19-66.48,26.67 C-949.53-999.94-932.1-982.55-920.6-993.46" class="st0"/><path d="M-758.86-1058.48c8.69-27.76,34.9-47.06,64.05-47.06c29.15,0,55.36,19.31,64.05,47.06h26.76v25.2v2.49v53.31 h-181.64v-53.31v-2.49v-25.2H-758.86z" class="st1"/><path d="M-746.99-1055.21c16.93-49.44,87.44-49.44,104.37,0c1.77,5.17,6.22,9.04,11.87,9.04h26.76 c-4.1-4.1-8.21-8.21-12.31-12.31v80.99c4.1-4.1,8.2-8.21,12.31-12.31h-181.64c4.1,4.1,8.21,8.21,12.31,12.31v-80.99 c-4.1,4.1-8.21,8.21-12.31,12.31h26.77c15.84,0,15.87-24.62,0-24.62h-26.77c-6.65,0-12.31,5.64-12.31,12.31v80.99 c0,6.65,5.64,12.31,12.31,12.31h181.64c6.65,0,12.31-5.64,12.31-12.31v-80.99c0-6.65-5.64-12.31-12.31-12.31h-26.76 c3.96,3.01,7.91,6.02,11.87,9.04c-11.17-32.6-40.83-56.1-75.92-56.1c-35.1,0-64.76,23.5-75.93,56.1 C-775.87-1046.73-752.1-1040.28-746.99-1055.21" class="st0"/><path d="M-579.45-771.66h69.82c6.65,0,12.31-5.64,12.31-12.31v-69.82c0-6.65-5.64-12.31-12.31-12.31h-69.82 c-6.65,0-12.31,5.64-12.31,12.31v69.82c0,15.84,24.62,15.87,24.62,0v-69.82l-12.31,12.31h69.82l-12.31-12.31v69.82l12.31-12.31 h-69.82C-595.29-796.28-595.31-771.66-579.45-771.66" class="st0"/><path d="M-579.45-502.92h69.82c6.65,0,12.31-5.64,12.31-12.31v-69.82c0-6.65-5.64-12.31-12.31-12.31h-69.82 c-6.65,0-12.31,5.64-12.31,12.31v69.82c0,15.84,24.62,15.87,24.62,0v-69.82l-12.31,12.31h69.82l-12.31-12.31v69.82 c4.1-4.1,8.21-8.2,12.31-12.31h-69.82C-595.29-527.53-595.31-502.92-579.45-502.92" class="st0"/><path d="M-579.45-637.29h69.82c6.65,0,12.31-5.64,12.31-12.31v-69.81c0-6.65-5.64-12.31-12.31-12.31h-69.82 c-6.65,0-12.31,5.64-12.31,12.31v69.81c0,15.84,24.62,15.87,24.62,0v-69.81c-4.1,4.1-8.21,8.2-12.31,12.31h69.82 c-4.1-4.1-8.21-8.21-12.31-12.31v69.81c4.1-4.1,8.21-8.2,12.31-12.31h-69.82C-595.29-661.91-595.31-637.29-579.45-637.29" class="st0"/><path d="M-703.05-1053.41c0,4.56,3.69,8.25,8.25,8.25c4.55,0,8.25-3.69,8.25-8.25c0-4.55-3.7-8.25-8.25-8.25 C-699.36-1061.66-703.05-1057.97-703.05-1053.41" class="st1"/><path d="M-715.36-1053.41c0.6,11.12,8.95,20.56,20.56,20.56c11.3,0,20.35-9.42,20.56-20.56 c0.21-11.09-9.28-20.17-20.11-20.53C-706.14-1074.34-714.76-1064.63-715.36-1053.41c-0.35,6.44,5.91,12.6,12.31,12.31 c6.96-0.31,11.94-5.41,12.31-12.31c-0.04,0.79-0.54,2.17-0.02,0.67c-0.13,0.77-0.46,1.42-1,1.95c-0.57,0.66-0.62,0.74-0.16,0.27 c0.75-0.75-1.27,0.72-1.52,0.89c-0.97,0.35-0.92,0.36,0.15,0.04c-0.5,0.08-1,0.16-1.5,0.25c-0.78,0-2.19-0.54-0.67-0.02 c-0.59-0.2-2.94-1.89-2.21-1.16c0.75,0.75-0.72-1.26-0.9-1.52c-0.29-0.83-0.34-0.93-0.15-0.28c0.23,0.91,0.19,0.55-0.14-1.08 c0-0.78,0.54-2.19,0.02-0.66c0.35-1,0.76-1.72,1.46-2.51c-1.31,1.48,0.75-0.29,1.22-0.6c0.83-0.3,0.93-0.35,0.27-0.16 c-0.67,0.17-0.56,0.17,0.33-0.01c0.72,0.12,3.3,0.54,1.42-0.11c1.01,0.35,1.72,0.76,2.51,1.46c-1.45-1.28,0.15,0.69,0.6,1.22 c0.3,0.83,0.35,0.93,0.15,0.28c-0.23-0.92-0.19-0.55,0.13,1.08c-0.35-6.42-5.41-12.62-12.31-12.31 C-709.43-1065.44-715.73-1060.3-715.36-1053.41" class="st0"/><path d="M-646.01-831.19h-185.81h-27.05c-15.84,0-15.87,24.62,0,24.62h185.81h27.05 C-630.17-806.57-630.14-831.19-646.01-831.19" class="st0"/><path d="M-646.01-699.21h-185.81h-27.05c-15.84,0-15.87,24.62,0,24.62h185.81h27.05 C-630.17-674.59-630.14-699.21-646.01-699.21" class="st0"/><path d="M-646.01-560.85h-185.81h-27.05c-15.84,0-15.87,24.62,0,24.62h185.81h27.05 C-630.17-536.23-630.14-560.85-646.01-560.85" class="st0"/><path d="M-775.05-3669.07c30.34-11.09,64.44-2.92,89.38,16.96c30.53,24.32,33.67,61.79,25.15,97.8 c-9.88,41.79-27.18,82.31-41.52,122.73c-12.95,36.49-23.55,75.16-40.54,110.04c-18.13,37.24-48.06,59.96-90.68,59.26 c-15.85-0.26-15.85,24.36,0,24.62c41.96,0.69,78.34-17.85,101.46-52.89c23.17-35.11,33.89-79.21,47.8-118.43 c8.95-25.21,17.89-50.42,26.84-75.64c8.12-22.89,16.92-45.77,21.81-69.63c8.29-40.45,3.07-83.3-29.08-112.01 c-31.11-27.79-77.09-41.19-117.17-26.53C-796.35-3687.41-789.98-3663.61-775.05-3669.07c30.34-11.09,64.44-2.92,89.38,16.96 c30.53,24.32,33.67,61.79,25.15,97.8c-9.88,41.79-27.18,82.31-41.52,122.73c-12.95,36.49-23.55,75.16-40.54,110.04 c-18.13,37.24-48.06,59.96-90.68,59.26c-15.85-0.26-15.85,24.36,0,24.62c41.96,0.69,78.34-17.85,101.46-52.89 c23.17-35.11,33.89-79.21,47.8-118.43c8.95-25.21,17.89-50.42,26.84-75.64c8.12-22.89,16.92-45.77,21.81-69.63 c8.29-40.45,3.07-83.3-29.08-112.01c-31.11-27.79-77.09-41.19-117.17-26.53C-796.35-3687.41-789.98-3663.61-775.05-3669.07" class="st0"/><path d="M-845.46-3243.44c-13.73,78.1-27.59,159.44-5.96,237.49c18.14,65.43,61.08,118.68,124.5,144.44 c59.48,24.16,127.19,21,184.97-6.29c57.98-27.39,104.88-77.96,131.32-136.03c35.58-78.14,36.47-167.52,13.58-249.34 c-4.26-15.24-28.02-8.76-23.74,6.54c34.69,124.03,6.94,270.9-108.1,343.57c-49.98,31.57-110.48,41.73-167.69,25.92 c-58.98-16.3-104.12-58.75-125-116.22c-28.6-78.72-14.23-163.41-0.15-243.53C-819-3252.38-842.72-3259.03-845.46-3243.44" class="st0"/><path d="M-892.43-3692.8c-35.11-12.83-75.75-4.17-105.64,17.37c-33.81,24.37-48.23,61.45-43.53,102.74 c5.59,49.12,27.85,96.83,44.25,143.07l26.83,75.63c6.1,17.21,12.19,34.54,20.77,50.71c22.22,41.88,61.12,66.4,108.97,65.61 c15.83-0.26,15.87-24.88,0-24.62c-37.44,0.62-67-16.78-85.34-49.1c-18.21-32.08-27.91-69.56-40.18-104.15 c-14.56-41.04-30.83-81.88-43.16-123.65c-10.37-35.14-15.41-76.75,12.57-105.21c24.94-25.37,64.03-37.06,97.9-24.67 C-884.07-3663.62-877.64-3687.4-892.43-3692.8" class="st0"/><path d="M-885.81-3681.62c-0.4,7.45-11.55,7.49-11.55,0C-897.36-3689.13-886.22-3689.04-885.81-3681.62 c0.85,15.76,25.47,15.86,24.62,0c-0.89-16.45-13.23-30.39-30.39-30.39c-16.6,0-30.24,13.91-30.39,30.39 c-0.15,16.2,13.41,29.75,29.41,30.34c17.55,0.65,30.47-13.53,31.38-30.34C-860.35-3697.45-884.97-3697.4-885.81-3681.62" class="st0"/><path d="M-780.17-3681.62c-0.4,7.45-11.55,7.49-11.55,0C-791.72-3689.13-780.57-3689.04-780.17-3681.62 c0.85,15.76,25.47,15.86,24.62,0c-0.89-16.45-13.23-30.39-30.39-30.39c-16.6,0-30.24,13.91-30.39,30.39 c-0.15,16.2,13.4,29.75,29.41,30.34c17.55,0.65,30.47-13.53,31.38-30.34C-754.7-3697.45-779.32-3697.4-780.17-3681.62" class="st0"/><path d="M-359.37-3325.61c0,38.64-31.32,69.95-69.95,69.95c-38.64,0-69.95-31.32-69.95-69.95 c0-38.63,31.32-69.96,69.95-69.96C-390.69-3395.57-359.37-3364.25-359.37-3325.61" class="st1"/><path d="M-371.68-3325.61c-0.75,31.44-25.63,57.65-57.65,57.65c-31.46,0-57.64-26.19-57.64-57.65 c0-31.4,26.19-57.72,57.64-57.65C-397.3-3383.19-372.43-3357.12-371.68-3325.61c0.38,15.81,24.99,15.87,24.62,0 c-0.81-34.12-21.07-64.63-53.25-76.93c-32.48-12.42-70.43-2.14-92.43,24.66c-21.71,26.45-24.92,64.72-7.33,94.23 c17.61,29.56,51.99,44.7,85.68,38.87c39.2-6.78,66.4-41.91,67.32-80.83C-346.69-3341.46-371.3-3341.45-371.68-3325.61" class="st0"/><path d="M-428.85-3325.61c0.06-1.2,0.05,0.37-0.21,0.77c0.43-0.65,0.84-0.96,0.06-0.44c-1.22,0.82-0.03,0.19,0.18,0.02 c0.59-0.47-1.94,0.14-0.51,0.14c1.26,0-0.48,0.19-0.77-0.21c0.04,0.05,1.68,1.29,0.44,0.06c-0.99-0.99-0.21-0.07-0.01,0.18 c0.33,0.42-0.14-1.87-0.14-0.51c0,1.28-0.14-1.9-0.31,0.14c0.03-0.39,1.48-1.42,0.29-0.48c-0.49,0.39,1.39-0.12,0.77-0.21 c-1.8-0.26,1.69-0.05-0.4-0.24c0.36,0.03,1.55,1.64,0.48,0.28C-429.36-3326.59-428.77-3324.17-428.85-3325.61 c0.36,6.64,5.4,12.31,12.31,12.31c6.39,0,12.67-5.64,12.31-12.31c-0.73-13.58-10.93-25.09-25.1-25.09 c-13.75,0-24.92,11.49-25.1,25.09c-0.17,13.51,11.19,24.51,24.4,25.06c14.44,0.6,25.05-11.33,25.79-25.06 c0.36-6.64-5.91-12.31-12.31-12.31C-423.5-3337.92-428.49-3332.28-428.85-3325.61" class="st0"/><path d="M-1716.72-497.85c-7.11,14.51-16.92,26.97-26.06,40.2c-7.41,10.72-14.9,24.79-26.7,31.15 c-31.42,16.92-72.98,16.88-106.48,7.82c-36.17-9.78-66.65-32.27-97.29-52.98c-27.96-18.89-54.07-40.37-78.01-64.15 c-47.33-47.02-87.96-103.72-114.4-165.14c-28.96-67.28-42.16-143.99-42.84-217.04c-0.16-17.46,1.04-35.18,6.5-51.76 c5.15-15.63,10.25-31.41,17.49-46.23c6.4-13.09,14.31-25.57,25.53-35.08c12.66-10.73,25.92-11.31,41.66-13.37 c15.48-2.03,31.82-4.39,47.44-2.05c12.73,1.91,17.83,10.14,20.94,21.9c10.22,38.72,21.85,76.94,33.18,115.34 c4.3,14.58,0.44,19.49-12.49,27.03c-15.79,9.2-32.73,16.47-48.92,24.94c-10.67,5.58-19.17,10.46-23.03,22.39 c-3.2,9.9-3.19,21.01-2.55,31.29c3.52,56.61,29.09,111.09,60.31,157.56c18.37,27.35,39.83,53.84,64.24,76.07 c15.21,13.84,35.97,28.16,56.79,30.77c15.31,1.91,25.45-7.06,37.44-15.45c15.08-10.54,29.88-22.96,46.48-31.05 c10.34-5.04,14.26-0.92,21.95,6.44c7.42,7.1,14.83,14.22,22.23,21.34c14.8,14.24,29.58,28.52,44.36,42.78 c6.82,6.58,13.65,13.16,20.48,19.74c6.63,6.38,14.27,10.68,10.5,20.47c-5.7,14.8,18.09,21.2,23.74,6.55 c6.94-18-2.57-30.7-15.12-42.78c-15.38-14.79-30.72-29.61-46.07-44.42c-15.9-15.34-31.53-31.09-47.85-45.99 c-12.76-11.65-27.12-14.75-43.01-7.25c-18.69,8.83-35.14,22.5-52.02,34.26c-5.08,3.54-11.71,10.37-18.03,11.17 c-5.59,0.71-12.96-3.33-17.67-5.76c-25.98-13.44-45.69-35.94-64.04-58.2c-39.37-47.75-74.36-109.19-79.77-172 c-0.69-8.06-3.21-23.19,1.92-30.33c2.95-4.11,13.86-7.72,18.86-10.25c9.41-4.77,18.9-9.39,28.32-14.14 c12.93-6.52,28.3-13.91,35.73-27.08c7.34-13,3.12-27.67-1.02-40.9c-6.63-21.14-12.75-42.43-18.94-63.71 c-5.32-18.28-8.45-38.17-15.66-55.76c-12.25-29.9-43.17-31.91-71.62-29.77c-15.99,1.21-34.8,2.23-50.13,7.06 c-14.92,4.7-28.15,16.1-37.86,28.07c-20.51,25.27-32.99,59.77-41.19,90.98c-4.54,17.28-4.18,38.29-3.42,56.05 c0.86,20.15,2.45,40.29,4.82,60.32c4.61,38.96,12,77.62,24,115.01c22.79,71.01,63.15,136,112.67,191.48 c23.67,26.52,49.92,50.5,78.14,72.09c29.76,22.77,62.32,46.42,96.2,62.57c34.95,16.66,74.38,23.23,112.66,16.98 c17.14-2.8,38.19-7.44,52.43-17.82c11.58-8.44,19.86-21.37,27.84-33.04c9.91-14.47,20.84-28.09,28.59-43.91 C-1688.52-499.6-1709.74-512.09-1716.72-497.85" class="st0"/><polygon points="-1637.22 -872.84 -1637.22 -785.35 -1729.88 -785.35 -1729.88 -692.68 -1817.38 -692.68 -1817.38 -785.35 -1910.04 -785.35 -1910.04 -872.84 -1817.38 -872.84 -1817.38 -965.51 -1729.88 -965.51 -1729.88 -872.84" class="st1"/><path d="M-1649.53-872.84v87.49c4.1-4.1,8.2-8.2,12.31-12.31h-92.67c-6.65,0-12.31,5.64-12.31,12.31v92.67 c4.1-4.1,8.21-8.2,12.31-12.31h-87.49c4.1,4.1,8.21,8.21,12.31,12.31v-92.67c0-6.65-5.64-12.31-12.31-12.31h-92.67 c4.1,4.1,8.2,8.2,12.31,12.31v-87.49c-4.1,4.1-8.2,8.21-12.31,12.31h92.67c6.65,0,12.31-5.64,12.31-12.31v-92.67 c-4.1,4.1-8.2,8.21-12.31,12.31h87.49l-12.31-12.31v92.67c0,6.65,5.64,12.31,12.31,12.31h92.67c15.84,0,15.87-24.62,0-24.62h-92.67 c4.1,4.1,8.21,8.21,12.31,12.31v-92.67c0-6.65-5.64-12.31-12.31-12.31h-87.49c-6.65,0-12.31,5.64-12.31,12.31v92.67 c4.1-4.1,8.2-8.21,12.31-12.31h-92.67c-6.65,0-12.31,5.64-12.31,12.31v87.49c0,6.66,5.64,12.31,12.31,12.31h92.67l-12.31-12.31 v92.67c0,6.65,5.64,12.31,12.31,12.31h87.49c6.65,0,12.31-5.64,12.31-12.31v-92.67c-4.1,4.1-8.2,8.2-12.31,12.31h92.67 c6.65,0,12.31-5.64,12.31-12.31v-87.49C-1624.91-888.68-1649.53-888.71-1649.53-872.84" class="st0"/><path d="M-2047.65-3252.39c-1.84,14.49-3.68,28.98-5.52,43.47c-0.7,5.52-0.98,11.26-2.6,16.59 c-3.98,13.08-14.06,18.71-26.31,22.59c-44.5,14.11-89.27,30.65-129.8,54.06c-29.15,16.83-64.58,41.25-65.78,78.4 c-0.9,27.68,0,55.52,0,83.21v88.82c0,6.65,5.64,12.31,12.31,12.31h227.38h362.3h83.01c6.65,0,12.31-5.64,12.31-12.31 c0-56.14,0.18-112.28,0-168.42c-0.11-33.21-24.84-55.51-50.78-72.74c-39.79-26.43-86.04-43.84-131.14-58.88 c-10.41-3.47-23.12-5.51-31.37-13.14c-7.31-6.76-9.28-15.3-10.47-24.6c-2.05-16.13-4.1-32.27-6.15-48.4 c-1.97-15.5-26.61-15.7-24.62,0c1.81,14.25,3.62,28.5,5.43,42.74c2.41,18.97,5.29,36.59,20.85,49.82 c15.88,13.5,40.95,17.47,60.26,24.4c23.15,8.31,46,17.51,68.05,28.46c20.27,10.06,40.94,21.36,57.48,37.03 c9.1,8.63,17.36,18.71,17.84,31.7c1.03,27.66,0,55.54,0,83.21v88.82c4.1-4.1,8.2-8.21,12.31-12.31h-227.38h-362.3h-83.01 l12.31,12.31c0-56.14-0.18-112.28,0-168.42c0.1-31.07,35.02-50.51,58.87-63.73c40.87-22.66,84.65-35.18,127.97-51.65 c41.47-15.76,38.52-66.62,43.18-103.34C-2021.04-3268.06-2045.68-3267.92-2047.65-3252.39" class="st0"/><path d="M-2040.48-3278.45c-21.94-25.7-24.18-62.6-27.84-94.73c-2.78-24.35-5.56-48.7-8.34-73.06 c-1.76-15.42-25.92-15.98-24.62,0c1.62,19.88,3.41,39.75,5.48,59.59c1.28,12.24,2.68,24.48,4.4,36.68 c1.12,7.91,2.97,16.29,3.54,21.34l18.52-10.63c-28.64-13.44-50.66-38.06-59.47-68.65c-3.32-11.54-8.85-33.05,1.54-42.56 c3.83-3.5,9.9-5.3,14.97-5.28c8.51,0.03,9.97,5.05,11.45,12.78c2.57,13.44,25.76,10.58,24.18-3.27 c-0.75-6.53-1.75-13.08-2.24-19.63c-0.58-7.73-0.2-9.06,3.35-16.94c7.09-15.72,19.04-32.25,21.07-49.65 c-4.1,4.1-8.21,8.21-12.31,12.31c31.13-0.49,60.61-9.81,90.47-17.58l-9.48-1.24c58.62,30.23,133.43,31.11,197.17,18.38 c-5.19-3.96-10.39-7.91-15.58-11.87c2.06,17.25,14.12,33.91,21.35,49.4c5.83,12.48,3.28,21.01,1.48,36.82 c-1.56,13.71,21.58,16.86,24.18,3.27c1.37-7.13,2.25-11.95,10.02-12.73c5.34-0.54,12.36,1.54,16.4,5.23 c10.38,9.5,4.86,31.06,1.55,42.56c-8.81,30.59-30.83,55.22-59.47,68.65l18.52,10.63c0.57-4.99,0.57-3.25,1.62-9.17 c0.85-4.79,1.49-9.61,2.15-14.43c1.81-13.39,3.29-26.81,4.67-40.24c1.83-17.91,3.5-35.83,4.99-53.77h-24.62 c-1.21,22.24-4.21,44.44-6.93,66.53c-1.34,10.89-2.72,21.77-4.15,32.64c-0.42,3.21-0.84,6.42-1.27,9.63 c-0.11,0.83-0.19,1.67-0.33,2.49c0.93-5.13-0.74,1.86-1.37,4.22c-4.03,15.04-7.9,32.16-16.66,45.25 c-7.27,10.86-18,19.95-28.58,27.43c-27.47,19.4-61.06,32.7-95.09,30.95C-1974.68-3229.08-2014.38-3249.87-2040.48-3278.45 c-10.71-11.72-28.08,5.73-17.41,17.41c24.88,27.24,60.31,47.15,96.29,55.05c39.12,8.59,78.52,0.23,113.44-18.51 c25.85-13.87,52.75-34.04,64.04-62.02c9.82-24.34,14.67-47.81,17.96-73.48c3.66-28.62,7.83-57.4,9.4-86.23 c0.87-15.94-23.32-15.62-24.62,0c-3.27,39.42-8.95,78.4-13.42,117.61c-1.16,10.18,11.08,14.12,18.52,10.63 c43.32-20.32,75.48-66.48,75.56-115.01c0.04-22.58-11.93-40.9-34.49-46.06c-22.86-5.23-41.35,6.72-45.73,29.56 c8.06,1.09,16.12,2.18,24.18,3.27c1.6-13.99,4.54-27.29-1.04-40.69c-3.75-9.01-8.23-17.7-12.56-26.44 c-2.25-4.54-4.57-9.06-6.63-13.69c-0.67-1.51-2.95-8.31-2.6-5.4c-0.99-8.28-7.04-13.57-15.58-11.87 c-31.46,6.28-64.76,7.39-96.66,5.05c-27.09-1.99-53.8-7.73-78.44-19.35c-13.61-6.42-29.22,1.72-43.1,5.34 c-17.62,4.6-35.15,8.23-53.42,8.52c-7.23,0.12-11.53,5.59-12.31,12.31c0.3-2.57-2.1,4.62-2.76,6.12c-1.92,4.35-4.07,8.6-6.16,12.88 c-4.42,9.04-9.07,18.04-12.76,27.41c-5.1,12.96-2.03,26.38-0.5,39.8c8.06-1.09,16.12-2.18,24.18-3.27 c-4.26-22.26-21.83-34.23-44.28-29.87c-23.28,4.52-35.97,23.28-35.94,46.37c0.08,48.53,32.24,94.69,75.56,115.01 c7.44,3.49,19.68-0.45,18.52-10.63c-4.48-39.22-10.21-78.17-13.42-117.62h-24.62c3.04,26.64,6.08,53.29,9.12,79.93 c4.21,36.93,9.21,75.9,34.27,105.26C-2047.59-3248.97-2030.25-3266.45-2040.48-3278.45" class="st0"/><path d="M-2084.3-3487.54c-7.14-47.03-14.27-99.34,13.7-141.29c4.45-6.67,10.81-15.75,18.13-19.51 c5.45-2.8,12.99-3.31,18.99-3.95c9.23-0.99,18.73-0.19,27.88-1.31c5.48-0.67,8.34-3.56,12.41-6.7c6.1-4.71,12.6-8.97,19.46-12.5 c15.91-8.18,34.86-6.94,52.31-6.51c42.63,1.04,84.75,10.42,116.81,40.4c17.07,15.97,30.22,36.01,34.48,59.27 c5.53,30.11-0.13,62.26-4.67,92.11c-2.36,15.5,21.36,22.18,23.74,6.54c6.43-42.3,14.7-88.96-3.12-129.62 c-14.99-34.21-45.24-61.25-79.11-76.14c-33.49-14.72-69.9-18.12-106.14-17.14c-17.47,0.47-32.51,2.21-48.2,10.59 c-9.53,5.08-18.58,11.54-26.68,18.68c2.9-1.2,5.8-2.4,8.7-3.6c-13.04-0.1-26.19,0.72-39.08,2.74 c-20.54,3.21-32.91,14.24-44.97,31.03c-34.35,47.8-26.69,108.91-18.4,163.46C-2105.66-3465.39-2081.94-3472.02-2084.3-3487.54" class="st0"/><path d="M-2115.45-3149.81v65.3c0,15.84,24.62,15.87,24.62,0v-65.3C-2090.84-3165.65-2115.45-3165.67-2115.45-3149.81" class="st0"/><path d="M-2027.1-2926.77c5.26-15.04,14.95-28.44,16.43-44.68c1.38-15.12-1.42-31.84-5.56-46.39 c-7.3-25.64-22.4-50.09-45.58-64.13c-21.82-13.21-49.22-15.02-72.61-5.03c-25.06,10.69-42.17,33.08-51.85,57.95 c-6.18,15.88-9.22,33.31-9.5,50.32c-0.32,19.47,10.41,34.28,16.59,51.96c5.2,14.86,28.99,8.47,23.74-6.55 c-5.55-15.88-16.28-29.92-15.64-47.32c0.58-15.88,3.78-32.03,10.56-46.47c10.72-22.84,30.94-41.78,57.39-41.78 c26.45,0,46.67,18.94,57.39,41.78c6.5,13.85,9.75,29.35,10.49,44.57c0.9,18.42-9.71,32.44-15.58,49.22 C-2056.08-2918.33-2032.31-2911.89-2027.1-2926.77" class="st0"/><path d="M-2160.48-2940.01c-0.19,3.44-5.28,3.47-5.28,0C-2165.76-2943.48-2160.67-2943.46-2160.48-2940.01 c0.85,15.76,25.47,15.86,24.62,0c-0.79-14.75-11.87-27.26-27.26-27.26c-14.91,0-27.09,12.48-27.26,27.26 c-0.16,14.66,12.1,26.58,26.44,27.21c15.71,0.7,27.27-12.29,28.07-27.21C-2135.01-2955.84-2159.64-2955.79-2160.48-2940.01" class="st0"/><path d="M-2040.89-2940.01c-0.19,3.44-5.28,3.47-5.28,0C-2046.18-2943.48-2041.08-2943.46-2040.89-2940.01 c0.85,15.76,25.47,15.86,24.62,0c-0.8-14.75-11.87-27.26-27.26-27.26c-14.91,0-27.09,12.48-27.26,27.26 c-0.16,14.66,12.1,26.58,26.44,27.21c15.71,0.7,27.27-12.29,28.07-27.21C-2015.43-2955.84-2040.05-2955.79-2040.89-2940.01" class="st0"/><path d="M-1761.76-3139.32v94.67c0,15.84,24.62,15.87,24.62,0v-94.67 C-1737.14-3155.17-1761.76-3155.19-1761.76-3139.32" class="st0"/><path d="M-1719.45-2999.8c-1.49,38.77-60,38.61-60,0C-1779.45-3038.38-1720.94-3038.63-1719.45-2999.8 c0.61,15.79,25.23,15.87,24.62,0c-1.15-29.74-24.06-54.5-54.62-54.62c-29.7-0.11-54.62,25-54.62,54.62 c0,29.69,24.93,54.62,54.62,54.62c30.55,0,53.47-24.96,54.62-54.62C-1694.22-3015.65-1718.84-3015.62-1719.45-2999.8" class="st0"/><path d="M-2055.27-3170.87c38.83,41.36,77.65,82.73,116.48,124.09c4.45,4.74,12.96,4.74,17.41,0 c39.58-42.16,79.16-84.32,118.73-126.49c10.84-11.55-6.54-28.99-17.41-17.41c-39.58,42.16-79.15,84.32-118.73,126.48h17.41 c-38.83-41.36-77.65-82.73-116.48-124.09C-2048.73-3199.85-2066.11-3182.42-2055.27-3170.87" class="st0"/><path d="M-866.3-1825.02c-10.46-57.48-16.39-116.2-18.87-174.53c-1.92-45.15-1.95-91.18,5.36-135.89 c7.15-43.77,24.16-81.52,51.23-116.82c16.2-21.11,36.87-40.45,63.06-47.8c13.38-3.75,26.92-3.31,40.64-3.31 c29.17,0,58.38-0.41,87.55,0c58.45,0.83,95.87,51.23,118.12,99.83c21.02,45.94,28.32,98,31.02,148.02 c4.12,76.41-1.43,155.41-16.69,230.5c-3.15,15.47,20.58,22.08,23.74,6.55c13.97-68.75,19.85-140.53,18.52-210.56 c-1.02-54.17-6.68-109.89-24.89-161.22c-18.07-50.94-50.5-105.56-102.16-127.83c-33.61-14.49-73.42-9.9-109.2-9.9 c-39.65,0-77.38-1.86-111.36,23c-22.77,16.65-40.21,39.25-55.13,62.95c-11.96,19-22.4,38.38-29.03,59.9 c-13.63,44.26-16.25,92.09-16.34,138.12c-0.14,75.22,7.23,151.52,20.7,225.55C-887.21-1802.91-863.48-1809.51-866.3-1825.02" class="st0"/><path d="M-496.11-2381.5c-54.35-40.25-123.06-63.26-188.68-63.26c-0.57,0-1.14,0-1.72,0c-0.58,0-1.15,0-1.73,0 c-65.71,0-134.42,23.01-188.76,63.26l-4.36,3.23l1.64,5.17c14.2,44.63,27.83,90.77,40.53,137.16l2.06,7.51l7.46-2.25 c89.61-27.03,196.62-27.03,286.23,0l7.46,2.25l2.06-7.51c12.74-46.53,26.38-92.68,40.53-137.16l1.64-5.17L-496.11-2381.5z" class="st1"/><path d="M-489.9-2392.13c-58.38-42.62-130.03-65.94-202.36-64.91c-70.52,1-138.92,26.38-195.31,68.14 c-4.3,3.19-7.42,8.34-5.65,13.9c15.79,49.64,30.47,99.6,44.23,149.84c1.73,6.3,8.76,10.52,15.14,8.6 c96.32-29.06,198.27-29.05,294.6,0c6.36,1.92,13.41-2.3,15.14-8.6c13.75-50.24,28.44-100.2,44.23-149.84 c1.79-5.63-1.34-10.7-5.66-13.9C-487-2389.98-488.45-2391.06-489.9-2392.13c-12.74-9.44-25.03,11.92-12.43,21.26 c1.45,1.08,2.91,2.15,4.36,3.23c-1.89-4.63-3.77-9.27-5.66-13.9c-15.79,49.64-30.47,99.6-44.23,149.84 c5.05-2.87,10.1-5.73,15.14-8.6c-100.3-30.26-207.38-30.26-307.68,0c5.04,2.86,10.09,5.73,15.14,8.6 c-13.76-50.24-28.45-100.2-44.23-149.84c-1.89,4.64-3.77,9.27-5.66,13.9c53.04-39.27,116.43-63.83,182.88-64.78 c68.38-0.97,134.82,21.3,189.94,61.55C-489.52-2361.52-477.22-2382.87-489.9-2392.13" class="st0"/><path d="M-636.41-2365.97c-0.44,12.2-0.88,24.41-1.31,36.61l9.23-9.23c-13.17-0.19-26.35-0.33-39.53-0.4 c-5.03-0.03-9.18,4.25-9.23,9.23c-0.15,13.06-0.3,26.12-0.45,39.18l9.23-9.23c-12.06-0.03-24.12-0.03-36.19,0l9.23,9.23 c-0.15-13.06-0.3-26.12-0.45-39.18c-0.06-4.97-4.18-9.26-9.23-9.23c-13.18,0.07-26.35,0.21-39.53,0.4 c3.08,3.08,6.15,6.16,9.23,9.23c-0.44-12.2-0.87-24.41-1.31-36.61l-9.23,9.23c13.47-0.27,26.95-0.46,40.42-0.55 c4.95-0.04,9.29-4.2,9.23-9.23c-0.15-13.06-0.3-26.12-0.45-39.18l-9.23,9.23c12.94-0.1,25.88-0.1,38.82,0l-9.23-9.23 c-0.15,13.06-0.3,26.12-0.45,39.18c-0.06,5.02,4.28,9.2,9.23,9.23c13.48,0.1,26.95,0.29,40.42,0.55c11.89,0.24,11.88-18.23,0-18.46 c-13.47-0.27-26.95-0.45-40.42-0.55l9.23,9.23c0.15-13.06,0.3-26.12,0.45-39.18c0.06-5.02-4.28-9.19-9.23-9.23 c-12.94-0.1-25.88-0.1-38.82,0c-4.95,0.04-9.29,4.2-9.23,9.23c0.15,13.06,0.3,26.12,0.45,39.18l9.23-9.23 c-13.48,0.1-26.95,0.28-40.42,0.55c-4.86,0.1-9.41,4.15-9.23,9.23c0.44,12.2,0.87,24.41,1.31,36.61c0.18,4.93,4.09,9.3,9.23,9.23 c13.17-0.19,26.35-0.33,39.53-0.4l-9.23-9.23c0.15,13.06,0.3,26.12,0.45,39.18c0.06,4.98,4.18,9.24,9.23,9.23 c12.07-0.03,24.13-0.03,36.19,0c5.03,0.01,9.17-4.24,9.23-9.23c0.15-13.06,0.3-26.12,0.45-39.18l-9.23,9.23 c13.18,0.07,26.35,0.21,39.53,0.4c5.12,0.07,9.06-4.3,9.23-9.23c0.44-12.2,0.87-24.41,1.31-36.61 C-617.52-2377.86-635.98-2377.84-636.41-2365.97" class="st0"/><path d="M-778.73-1905.6c0.31,11.96,2.97,26.1,0.99,37.85c-2.61,15.5-28.06,21.54-41.55,25.84 c-39.37,12.57-78.95,26.55-115.4,46.24c-26.54,14.34-60.57,35.62-61.99,69.26c-1,23.71,0,47.67,0,71.39v81.35 c0,6.65,5.64,12.31,12.31,12.31h202.13h319.47h74.04c6.66,0,12.31-5.64,12.31-12.31c0-49.92,0.74-99.9,0-149.82 c-0.44-29.66-23.81-49-47.24-63.64c-35.3-22.07-75.53-36.68-114.86-49.8c-16.12-5.38-49.74-10.31-56.24-28.59 c-3.42-9.63,0.15-27.85,0.49-39.26c0.47-15.85-24.15-15.83-24.62,0c-0.37,12.5-1.68,25.33-1.11,37.82 c0.96,21.07,22.22,35.34,39.95,42.32c36.65,14.42,74.68,23.93,110.53,40.82c17.35,8.17,35.13,17.24,49.93,29.59 c8.77,7.31,17.73,16.13,18.55,28.05c1.65,23.87,0,48.44,0,72.36v80.14c4.1-4.1,8.21-8.2,12.31-12.31h-202.13h-319.47h-74.04 c4.1,4.1,8.21,8.21,12.31,12.31c0-49.94-0.16-99.88,0-149.82c0.09-26.55,34.94-43.29,55-53.68c35.8-18.54,74.31-31.64,112.7-43.66 c20.94-6.56,49.57-19.99,51.27-45.36c0.87-12.94-0.69-26.44-1.03-39.42C-754.53-1921.41-779.15-1921.47-778.73-1905.6" class="st0"/><path d="M-799.35-1828.5c34.26,39.36,68.52,78.73,102.78,118.09c4.2,4.83,13.2,4.7,17.41,0 c35.16-39.25,70.32-78.5,105.48-117.74c10.54-11.77-6.81-29.24-17.41-17.41c-35.16,39.25-70.32,78.49-105.48,117.74h17.41 c-34.26-39.36-68.52-78.73-102.79-118.09C-792.36-1857.88-809.71-1840.4-799.35-1828.5" class="st0"/><path d="M-786-1942.43c-8.97-12.2-10.14-26.83-12.74-41.47c-3.74-21.04-7.1-42.15-10.4-63.26 c-2.67-17.14-5.29-34.28-7.78-51.44c-0.29-1.97-0.57-3.94-0.85-5.91c-0.36-2.51-0.02,0.15,0.15,1.11 c-0.68-4.12-1.62-8.26-2.1-12.41c-1.49-13.08,2.23-21.54,10.27-31.57c-2.9,1.2-5.8,2.4-8.7,3.6c33.33-0.62,58.79-24.89,89.71-33.6 l-9.48-1.24c31.6,16.31,66.52,23.87,101.72,27.2c23.34,2.21,47.75,3.24,71-0.53c-4.63-1.89-9.27-3.77-13.9-5.66 c10.14,15.75,20.14,31.08,22.93,49.94c0.34,2.25,0.68,8.19,0.9,2.8c-0.04,0.96-0.27,1.94-0.4,2.89c-0.53,3.63-1.05,7.26-1.58,10.88 c-3.72,25.13-7.59,50.23-11.69,75.3c-3.33,20.38-5.01,42.82-11.65,62.47c-3.21,9.5-15.11,20.54-24.35,27.68 c-15.96,12.32-34.77,21.65-54.28,26.66c-46.24,11.89-99.07-9.14-128.69-45.95c-9.93-12.34-27.25,5.17-17.41,17.41 c27.99,34.79,77.58,58.29,122.23,56.78c42.2-1.43,88.56-23.41,115.16-56.59c14.36-17.92,15.86-41.23,19.6-63.16 c4.99-29.28,9.53-58.63,13.91-88.01c1.33-8.89,3.85-18.63,3.1-27.61c-2.02-24.13-13.69-43.98-26.52-63.92 c-3.24-5.03-8.24-6.57-13.9-5.66c-1.23,0.2-9.32,0.87-13.34,1.06c-8.58,0.4-17.17,0.41-25.75,0.16c-21.59-0.63-43.12-2.96-64.2-7.7 c-11.37-2.56-22.65-5.77-33.53-9.97c-11.99-4.64-19.78-11.52-32.72-7.05c-22.13,7.63-41.33,22.48-63.9,28.84 c-10.3,2.9-18.07,0.84-25.22,10.03c-5.47,7.03-10.41,14.4-12.67,23.15c-3.62,14.04-0.06,27.84,1.92,41.76 c3.81,26.87,8.01,53.69,12.34,80.48c2.68,16.59,5.4,33.19,8.54,49.7c2.51,13.16,4.84,24.13,13,35.23 C-797.97-1917.37-776.6-1929.64-786-1942.43" class="st0"/><path d="M-573.56-1682.99h102.34c15.84,0,15.87-24.62,0-24.62h-102.34C-589.4-1707.61-589.42-1682.99-573.56-1682.99" class="st0"/><path d="M-700.17-1714.71v141.05c0,15.84,24.62,15.87,24.62,0v-141.05C-675.55-1730.55-700.17-1730.58-700.17-1714.71" class="st0"/><path d="M744.71,459.62v139.59c4.1-4.1,8.2-8.21,12.31-12.31H609.17c-6.65,0-12.31,5.64-12.31,12.31v147.84 l12.31-12.31H469.58l12.31,12.31V599.21c0-6.65-5.64-12.31-12.31-12.31H321.75c4.1,4.1,8.2,8.21,12.31,12.31V459.62l-12.31,12.31 h147.84c6.65,0,12.31-5.64,12.31-12.31V311.78l-12.31,12.31h139.59l-12.31-12.31v147.84c0,6.65,5.64,12.31,12.31,12.31h147.84 c15.84,0,15.86-24.62,0-24.62H609.17l12.31,12.31V311.78c0-6.65-5.64-12.31-12.31-12.31H469.58c-6.65,0-12.31,5.64-12.31,12.31 v147.84l12.31-12.31H321.75c-6.66,0-12.31,5.64-12.31,12.31v139.59c0,6.65,5.64,12.31,12.31,12.31h147.84l-12.31-12.31v147.84 c0,6.65,5.64,12.31,12.31,12.31h139.59c6.65,0,12.31-5.64,12.31-12.31V599.21l-12.31,12.31h147.84c6.65,0,12.31-5.64,12.31-12.31 V459.62C769.32,443.78,744.71,443.75,744.71,459.62" class="st0"/><path d="M887.46,529.41c-0.68,144.67-92.53,278.19-229.37,327.35c-137.2,49.29-293.11,6.75-386.56-104.96 c-94.06-112.44-105.79-277.57-29.95-402.71c75.3-124.25,224.62-190.04,367.15-160.88c141.03,28.86,251.61,144.67,274.55,286.67 C886.2,492.92,887.37,511.17,887.46,529.41c0.07,15.84,24.69,15.87,24.62,0c-0.73-155.09-98.74-296.08-244.36-349.96 c-146.31-54.14-316.69-7.81-415.65,112.64c-99.31,120.88-113.06,295.88-31.74,430.06c80.98,133.62,240.25,203.04,393.31,172.52 c150.42-29.99,270.85-155.86,293.9-307.53c2.91-19.14,4.44-38.38,4.53-57.74C912.15,513.57,887.53,513.55,887.46,529.41" class="st0"/><path d="M-2885.43,757c0,31.64-25.64,57.28-57.28,57.28c-31.63,0-57.28-25.65-57.28-57.28c0-0.1,0-0.19,0.01-0.29 c0.15-31.5,25.74-56.99,57.27-56.99c31.54,0,57.12,25.49,57.28,56.99C-2885.43,756.81-2885.43,756.9-2885.43,757" class="st1"/><path d="M-2897.74,757c-0.73,25.27-20.94,45.76-46.66,44.92c-24-0.78-43.45-21.27-43.28-45.22 c0.17-24.39,20.53-44.73,44.96-44.68C-2917.83,712.09-2898.21,732.43-2897.74,757c0.3,15.82,24.92,15.87,24.62,0 c-0.54-28.43-17.47-54.11-44.08-64.67c-27.46-10.9-59.9-2.7-78.81,20.02c-40.5,48.66,2.38,123.52,64.88,113.18 c33.73-5.58,57.04-34.97,58.01-68.53C-2872.67,741.16-2897.29,741.17-2897.74,757" class="st0"/><path d="M-3337.4,757c0,31.64-25.64,57.28-57.28,57.28s-57.28-25.65-57.28-57.28c0-0.1,0-0.19,0.01-0.29 c0.15-31.5,25.74-56.99,57.28-56.99c31.53,0,57.12,25.49,57.27,56.99C-3337.4,756.81-3337.4,756.9-3337.4,757" class="st1"/><path d="M-3349.71,757c-0.73,25.27-20.94,45.76-46.66,44.92c-24.01-0.78-43.45-21.27-43.28-45.22 c0.17-24.39,20.53-44.73,44.97-44.68C-3369.78,712.09-3350.2,732.43-3349.71,757c0.32,15.82,24.93,15.87,24.62,0 c-0.57-28.43-17.45-54.1-44.08-64.67c-27.46-10.9-59.9-2.7-78.81,20.02c-40.5,48.66,2.38,123.52,64.88,113.18 c33.73-5.58,57.04-34.97,58.01-68.53C-3324.64,741.16-3349.25,741.17-3349.71,757" class="st0"/><path d="M-2738.41,580.77c-39.96-40.36-63.44-90.65-88.4-140.88c-16.33-32.85-32.93-66.42-53.14-97.1 c-8.92-13.54-36.73-8.29-51.48-8.34c-93.7-0.3-187.41-0.22-281.11-0.15c-92.75,0.07-185.49,0.21-278.24,0.38 c-24.4,0.05-48.8,0.09-73.19,0.14c-6.56,0.02-12.96-0.42-19.04,2.7c-15.96,8.19-14.36,30.11-15.91,45.3 c-2.11,20.83-3.85,41.69-5.22,62.58c-4.46,67.85-5.15,136.01-1.57,203.92c1.77,33.54,3.45,67.9,9.18,101.08 c0.26,1.5,0.43,3.02,0.66,4.53c0.83,5.25,6.91,9.04,11.87,9.04h86.14c6.75,0,12.17-5.64,12.31-12.31 c0.97-47.75,43.95-85.39,90.82-85.45c46.73-0.06,90.02,37.79,90.82,85.45c0.11,6.66,5.55,12.31,12.31,12.31h215.27h30.45 c6.75,0,12.18-5.64,12.31-12.31c0.96-47.75,43.96-85.39,90.82-85.45c46.73-0.06,90.02,37.79,90.82,85.45 c0.11,6.66,5.55,12.31,12.31,12.31h93c5.62,0,10.17-3.86,11.87-9.04c6.99-21.3,11.31-43.67,14.09-65.87 c4.38-35.1,4.38-75.17-15.79-105.8c-8.67-13.18-30-0.86-21.26,12.42c18.14,27.55,16.51,64.43,12.1,95.8 c-2.7,19.16-6.83,38.49-12.88,56.9c3.96-3.01,7.91-6.02,11.87-9.04h-93c4.1,4.1,8.21,8.21,12.31,12.31 c-1.02-61.04-55.2-110.07-115.43-110.07c-60.39,0-114.21,49.03-115.44,110.07c4.1-4.1,8.21-8.21,12.31-12.31h-215.27h-30.44 c4.1,4.1,8.2,8.21,12.31,12.31c-1.02-61.04-55.2-110.07-115.44-110.07c-60.4,0-114.19,49.03-115.43,110.07 c4.1-4.1,8.2-8.21,12.31-12.31H-3584c3.96,3.01,7.91,6.02,11.87,9.04c-0.14-0.9-0.54-2.12-0.45-3.01c0.06-0.57-0.63-4.53-0.35-2.51 c0.19,1.44-0.52-4.05-0.67-5.27c-1.49-11.92-2.72-23.88-3.79-35.85c-3.92-43.68-5.72-87.55-5.94-131.39 c-0.31-62.61,2.72-125.24,9.03-187.53c0.49-4.81,0.93-9.63,1.52-14.43c0.07-0.56,2.61-10.56,0.33-8.94c0.12-0.09,0.41,0.07,0.53,0 c0.8-0.47,3.42-0.04,4.28-0.01c6.01,0.17,12.05-0.03,18.06-0.04c142.48-0.29,284.96-0.51,427.44-0.54 c76.76-0.01,153.53-0.09,230.29,0.37c-3.54-2.03-7.08-4.07-10.63-6.1c28.03,45.8,51.23,93.83,75.47,141.65 c19.14,37.76,41.26,73.15,71.19,103.38C-2744.66,609.45-2727.25,592.04-2738.41,580.77" class="st0"/><path d="M-3210.13,482.62v56.82c4.1-4.1,8.2-8.21,12.31-12.31h-60.55c-6.65,0-12.31,5.64-12.31,12.31v60.55 c4.1-4.1,8.21-8.21,12.31-12.31h-56.82c4.1,4.1,8.21,8.21,12.31,12.31v-60.55c0-6.65-5.64-12.31-12.31-12.31h-60.55 c4.1,4.1,8.21,8.2,12.31,12.31v-56.82c-4.1,4.1-8.21,8.21-12.31,12.31h60.55c6.65,0,12.31-5.64,12.31-12.31v-60.55 c-4.1,4.1-8.21,8.2-12.31,12.31h56.82c-4.1-4.1-8.21-8.21-12.31-12.31v60.55c0,6.65,5.64,12.31,12.31,12.31h60.55 c15.84,0,15.87-24.62,0-24.62h-60.55c4.1,4.1,8.21,8.21,12.31,12.31v-60.55c0-6.65-5.64-12.31-12.31-12.31h-56.82 c-6.65,0-12.31,5.64-12.31,12.31v60.55c4.1-4.1,8.21-8.2,12.31-12.31h-60.55c-6.65,0-12.31,5.64-12.31,12.31v56.82 c0,6.65,5.64,12.31,12.31,12.31h60.55c-4.1-4.1-8.21-8.21-12.31-12.31v60.55c0,6.65,5.64,12.31,12.31,12.31h56.82 c6.65,0,12.31-5.64,12.31-12.31v-60.55c-4.1,4.1-8.21,8.21-12.31,12.31h60.55c6.65,0,12.31-5.64,12.31-12.31v-56.82 C-3185.51,466.78-3210.13,466.75-3210.13,482.62" class="st0"/><path d="M-3037.04,244.56v25.22c0,15.84,24.62,15.87,24.62,0v-25.22C-3012.42,228.72-3037.04,228.69-3037.04,244.56" class="st0"/><path d="M-2993.94,334.25h-63.24c4.1,4.1,8.21,8.21,12.31,12.31c0-6.08-0.58-12.46,0-18.51 c1.09-11.5,9.08-14.43,19.31-14.43c10.01,0,18.22,2.8,19.31,14.24c0.58,6.13,0,12.54,0,18.7c0,15.84,24.62,15.87,24.62,0 c0-11.48,1.37-23.89-3.45-34.62c-7.47-16.62-23.23-22.94-40.47-22.94c-16.72,0-31.91,5.77-39.82,21.5 c-5.56,11.06-4.11,24.06-4.11,36.06c0,6.65,5.64,12.31,12.31,12.31h63.24C-2978.09,358.87-2978.07,334.25-2993.94,334.25" class="st0"/><path d="M-3104.72,277.34c4.97,6.12,9.95,12.23,14.92,18.35c4.08,5.02,13.23,4.56,17.41,0 c4.89-5.33,4.35-12.05,0-17.41c-4.97-6.12-9.95-12.23-14.92-18.35c-4.08-5.02-13.22-4.56-17.41,0 C-3109.61,265.26-3109.07,271.99-3104.72,277.34" class="st0"/><path d="M-2963.8,259.93c-4.98,6.12-9.95,12.23-14.92,18.35c-4.05,4.99-5.24,12.59,0,17.41 c4.5,4.13,13.07,5.33,17.41,0c4.97-6.11,9.95-12.23,14.92-18.34c4.06-4.98,5.24-12.59,0-17.41 C-2950.89,255.8-2959.46,254.6-2963.8,259.93" class="st0"/><path d="M-3045.57,415.75c37.51,0.02,75.03,0.04,112.54,0.26c-3.54-2.03-7.08-4.06-10.63-6.1 c17.22,26.26,31.88,53.9,45.36,82.23c10.24,21.5,19.73,43.51,32.27,63.81c3.54-6.17,7.09-12.35,10.63-18.52 c-28.96,0.03-57.9,0.95-86.84,1.67c-17.37,0.43-37.47,1.35-53.48-1.08c-5.32-0.81-13.15-2.95-15.5-4.12 c-1.59-0.79-5.54-3.29-5.58-3.31c0.57,0.45-4.87-5.24-3.46-3.4c-7.29-9.54-9.41-23.17-10.74-36.5 c-2.88-28.91-2.27-58.23-2.27-87.24c0-15.84-24.62-15.87-24.62,0c0,28.07-0.49,56.36,2,84.36c1.46,16.38,3.54,34.18,12.22,48.57 c17.74,29.39,56.7,28.05,86.76,27.64c33.84-0.46,67.65-1.94,101.5-1.97c9.15-0.01,15.58-10.51,10.63-18.52 c-24.48-39.6-40.13-84.09-63.94-124.18c-5.74-9.66-11.91-26.38-24.32-27.95c-9.66-1.22-20.24-0.1-29.98-0.13 c-27.52-0.09-55.04-0.11-82.57-0.13C-3061.41,391.13-3061.44,415.74-3045.57,415.75" class="st0"/><path d="M-2124.22,898.9h342.65h47.77c6.65,0,12.31-5.64,12.31-12.31V579.74V385.98V334.7 c0-17.26-6.71-31.7-26.76-32.5c-51.49-2.07-103.48,0-155,0h-188.22c-19.02,0-43.51-1.73-45.05,24.68c-0.56,9.51,0,19.23,0,28.75 v171.07v353.25v6.65c0,15.84,24.62,15.87,24.62,0V589.53V397.46v-57.68c0-2.47-1.31-9.64,0-11.82c1.06-1.76,0.29-0.43,3.06-1.14 c5.76-1.48,13.94,0,19.85,0h35.63h98.59h186.37c4.79,0,20.12-2.28,22.29,1.41c1.39,2.36,0,9.68,0,12.38v23.67v174.3v341.37v6.65 c4.1-4.1,8.2-8.21,12.31-12.31h-342.65h-47.77C-2140.06,874.28-2140.08,898.9-2124.22,898.9" class="st0"/><path d="M-1990.46,897.25h122.91c6.65,0,12.31-5.64,12.31-12.31V725.01c0-6.66-5.64-12.31-12.31-12.31h-122.91 c-6.65,0-12.31,5.64-12.31,12.31v159.93c0,15.84,24.62,15.86,24.62,0V725.01c-4.1,4.1-8.21,8.2-12.31,12.31h122.91 c-4.1-4.1-8.2-8.21-12.31-12.31v159.93c4.1-4.1,8.2-8.21,12.31-12.31h-122.91C-2006.3,872.63-2006.33,897.25-1990.46,897.25" class="st0"/><path d="M-1895.85,619.64h81.18c6.66,0,12.31-5.64,12.31-12.31v-81.18c0-6.65-5.64-12.31-12.31-12.31h-81.18 c-6.65,0-12.31,5.64-12.31,12.31v81.18c0,15.84,24.62,15.87,24.62,0v-81.18c-4.1,4.1-8.21,8.21-12.31,12.31h81.18 c-4.1-4.1-8.2-8.2-12.31-12.31v81.18c4.1-4.1,8.21-8.2,12.31-12.31h-81.18C-1911.69,595.02-1911.72,619.64-1895.85,619.64" class="st0"/><path d="M-2043.69,619.64h81.18c6.65,0,12.31-5.64,12.31-12.31v-81.18c0-6.65-5.64-12.31-12.31-12.31h-81.18 c-6.65,0-12.31,5.64-12.31,12.31v81.18c0,15.84,24.62,15.87,24.62,0v-81.18c-4.1,4.1-8.21,8.21-12.31,12.31h81.18 c-4.1-4.1-8.21-8.2-12.31-12.31v81.18c4.1-4.1,8.2-8.2,12.31-12.31h-81.18C-2059.53,595.02-2059.56,619.64-2043.69,619.64" class="st0"/><path d="M-1733.8,899.1h207.43c6.65,0,12.31-5.64,12.31-12.31V607.53V452.46c0-8.98,0.99-18.57-0.44-27.48 c-4.21-26.24-33.88-21.35-53.29-21.35h-166.01c-6.65,0-12.31,5.64-12.31,12.31V575.1v253.59v58.1c0,15.84,24.62,15.87,24.62,0 V727.64V474.05v-58.11c-4.1,4.1-8.21,8.21-12.31,12.31h141.6h37.44c2.19,0,14.25-1.65,15.92,0c2.29,2.27,0.16,17.62,0.16,20.79 v330.34v107.41c4.1-4.1,8.2-8.2,12.31-12.31h-207.43C-1749.64,874.48-1749.67,899.1-1733.8,899.1" class="st0"/><path d="M-2331.65,899.1h207.43c6.65,0,12.31-5.64,12.31-12.31V727.64V474.05v-58.11c0-6.65-5.64-12.31-12.31-12.31 h-147.07c-16.76,0-36.41-2.91-52.97,0.66c-19.92,4.3-19.71,22.35-19.71,38.16v332.67v111.67c0,15.84,24.62,15.87,24.62,0v-268.4 V461.31v-21.93c0-1.94-1.15-8.63,0-10.28c2.69-3.86,27.8-0.85,32.82-0.85h162.3c-4.1-4.1-8.2-8.21-12.31-12.31V575.1v253.59v58.1 c4.1-4.1,8.2-8.2,12.31-12.31h-207.43C-2347.49,874.48-2347.52,899.1-2331.65,899.1" class="st0"/><path d="M-2268.52,591.04h81.18c6.65,0,12.31-5.64,12.31-12.31v-81.18c0-6.65-5.64-12.31-12.31-12.31h-81.18 c-6.65,0-12.31,5.64-12.31,12.31v81.18c0,15.84,24.62,15.86,24.62,0v-81.18c-4.1,4.1-8.21,8.21-12.31,12.31h81.18 c-4.1-4.1-8.21-8.21-12.31-12.31v81.18c4.1-4.1,8.21-8.21,12.31-12.31h-81.18C-2284.36,566.42-2284.39,591.04-2268.52,591.04" class="st0"/><path d="M-2268.52,731.56h81.18c6.65,0,12.31-5.64,12.31-12.31v-81.18c0-6.65-5.64-12.31-12.31-12.31h-81.18 c-6.65,0-12.31,5.64-12.31,12.31v81.18c0,15.84,24.62,15.87,24.62,0v-81.18c-4.1,4.1-8.21,8.2-12.31,12.31h81.18 c-4.1-4.1-8.21-8.2-12.31-12.31v81.18c4.1-4.1,8.21-8.21,12.31-12.31h-81.18C-2284.36,706.94-2284.39,731.56-2268.52,731.56" class="st0"/><path d="M-1670.67,591.04h81.18c6.66,0,12.31-5.64,12.31-12.31v-81.18c0-6.65-5.64-12.31-12.31-12.31h-81.18 c-6.65,0-12.31,5.64-12.31,12.31v81.18c0,15.84,24.62,15.86,24.62,0v-81.18c-4.1,4.1-8.21,8.21-12.31,12.31h81.18 c-4.1-4.1-8.2-8.21-12.31-12.31v81.18c4.1-4.1,8.21-8.21,12.31-12.31h-81.18C-1686.51,566.42-1686.54,591.04-1670.67,591.04" class="st0"/><path d="M-1670.67,731.56h81.18c6.66,0,12.31-5.64,12.31-12.31v-81.18c0-6.65-5.64-12.31-12.31-12.31h-81.18 c-6.65,0-12.31,5.64-12.31,12.31v81.18c0,15.84,24.62,15.87,24.62,0v-81.18c-4.1,4.1-8.21,8.2-12.31,12.31h81.18 c-4.1-4.1-8.2-8.2-12.31-12.31v81.18c4.1-4.1,8.21-8.21,12.31-12.31h-81.18C-1686.51,706.94-1686.54,731.56-1670.67,731.56" class="st0"/><path d="M-1801.04,300.01c0,70.67-57.29,127.97-127.97,127.97c-70.67,0-127.97-57.29-127.97-127.97 c0-70.67,57.29-127.96,127.97-127.96C-1858.34,172.04-1801.04,229.33-1801.04,300.01" class="st1"/><path d="M-1813.35,300.01c-0.64,47.99-30.31,92.31-75.99,108.71c-45.89,16.48-97.94,2.29-129.06-35.24 c-31.09-37.49-34.59-92.25-9.37-133.7c24.76-40.68,74.01-62.77,120.87-53.34C-1852.66,197.35-1814.08,244.96-1813.35,300.01 c0.21,15.83,24.83,15.87,24.62,0c-0.78-58.88-37.17-111.35-92.53-131.88c-54.55-20.24-118.7-2.6-155.57,42.26 c-37.49,45.6-43.06,111.57-12.19,162.28c30.47,50.06,89.62,75.75,147.02,64.98c65.66-12.31,112.39-71.75,113.27-137.64 C-1788.52,284.16-1813.14,284.15-1813.35,300.01" class="st0"/><path d="M-1873.53,278.27v43.48c4.1-4.1,8.2-8.21,12.31-12.31h-46.05c-6.65,0-12.31,5.64-12.31,12.31v46.04 c4.1-4.1,8.21-8.21,12.31-12.31h-43.47c4.1,4.1,8.2,8.21,12.31,12.31v-46.04c0-6.65-5.64-12.31-12.31-12.31h-46.05 c4.1,4.1,8.2,8.21,12.31,12.31v-43.48c-4.1,4.1-8.21,8.21-12.31,12.31h46.05c6.65,0,12.31-5.64,12.31-12.31v-46.04 c-4.1,4.1-8.21,8.21-12.31,12.31h43.47c-4.1-4.1-8.21-8.21-12.31-12.31v46.04c0,6.65,5.64,12.31,12.31,12.31h46.05 c15.84,0,15.87-24.62,0-24.62h-46.05c4.1,4.1,8.21,8.21,12.31,12.31v-46.04c0-6.65-5.64-12.31-12.31-12.31h-43.47 c-6.65,0-12.31,5.64-12.31,12.31v46.04c4.1-4.1,8.21-8.2,12.31-12.31h-46.05c-6.66,0-12.31,5.64-12.31,12.31v43.48 c0,6.65,5.64,12.31,12.31,12.31h46.05c-4.1-4.1-8.21-8.2-12.31-12.31v46.04c0,6.65,5.64,12.31,12.31,12.31h43.47 c6.65,0,12.31-5.64,12.31-12.31v-46.04c-4.1,4.1-8.2,8.2-12.31,12.31h46.05c6.65,0,12.31-5.64,12.31-12.31v-43.48 C-1848.91,262.42-1873.53,262.4-1873.53,278.27" class="st0"/><path d="M-303.42,611.7h-99.64h-229.21h-254.25h-174.74h-18.95c-0.93,0-3.94-0.51-4.76,0 c-3.59,2.25,7.2,5.88,6.16,6.77c1.58-1.35,0-13.43,0-15.48v-28.96v-58.27c0-2.45,0.53-5.55,0-7.93c-0.1-0.45,0.29-1.77,0-2.13 c-1.62-2.01-7.22,6.66-7.38,6.31c0.08,0.18,1.76-0.08,1.97,0c3.51,1.36,10.27,0,13.99,0h63.24h219.42h256.73h189.48h24.53 c2.31,0,10.33,1.37,12.28,0c2.72-1.91-5.57-7.17-6.26-6.31c-1.8,2.24,0,14.03,0,16.81v60.92v24.5c0,2.54-0.35,5.41,0,7.93 c0.95,6.9-3.66-1.64,4.11-3.74c-15.28,4.13-8.79,27.89,6.54,23.74c17.63-4.77,13.96-24.43,13.96-38.5v-63.8 c0-11.29,3.77-32.09-5.16-41.02c-5.05-5.06-10.95-5.16-17.35-5.16h-144.34h-254.07h-249.78c-42.38,0-85.24-1.86-127.59,0 c-11.49,0.51-18.49,7.71-18.94,19.26c-0.66,16.71,0,33.58,0,50.3v56.36c0,12.04,4.34,22,18.06,23c12.6,0.92,25.62,0,38.24,0h83.7 h246.47h256.9h149.38h7.24C-287.58,636.32-287.56,611.7-303.42,611.7" class="st0"/><path d="M-860.5,485.88h-192.06c-0.59,0-3.57-0.44-4.03,0c-0.16,0.15-0.71-0.14-0.88,0c-0.96,0.79,7.39,5.65,6.62,6.52 c0.34-0.39-0.23-1.62,0-2.11c1.28-2.67,0-9.52,0-12.35v-15.6c0-0.8,0.46-4.39,0-4.9c-1.02-1.12-4.03,2.27-3.82,2.68 c0.12,0.24,2.5-0.08,2.79,0c4.49,1.19,11.01,0,15.63,0h121.11h30.16c5.58,0,12.99,1.28,18.45,0c0.34-0.08,2.99,0.27,3.12,0 c-0.1,0.2-3.55-3.85-3.82-3.72c-0.25,0.12,0.14,1.82,0,2.11c-0.6,1.29,0,4.33,0,5.75v18.18c0,2.08-0.3,4.42,0,6.48 c1,7-3.21-0.81,3.45-2.61c-15.28,4.13-8.79,27.89,6.54,23.74c14.07-3.81,14.63-15.48,14.63-27.61c0-9.17,0.81-18.76-0.22-27.88 c-2.37-21.05-22.78-19.06-38.24-19.06h-136.6c-12.22,0-24.81-0.89-37,0c-26.56,1.94-21.74,36.49-20.8,55.39 c0.96,19.37,16.37,19.6,30.95,19.6h61.28h122.74C-844.65,510.5-844.63,485.88-860.5,485.88" class="st0"/><path d="M-377.98,485.88h-335.78h-24.89c-1.27,0-4.2-0.57-5.36,0c-0.12,0.06-0.34-0.07-0.46,0h-0.11 c-3.48-0.01-1.04,2.36,7.3,7.13c1.12-1.68,0-7.36,0-9.45c0-11-3.76-27.41,11-29.02c5.99-0.66,12.45,0,18.46,0h196.12h98.07 c5.88,0,12.35-0.78,18.19,0c9.15,1.22,10.06,7.64,10.06,15.29v13.73c0,1.88-0.33,4.21,0,6.06c1.28,7.14-4.34-1.02,4.11-3.3 c-15.28,4.13-8.79,27.89,6.54,23.74c18.61-5.03,14.63-30.38,13.96-45.42c-0.9-20.15-15.69-34.04-35.62-34.72 c-21.18-0.72-42.51,0-63.71,0h-224.76c-16.65,0-40.88-4.05-56.67,3.12c-22.77,10.33-20.38,34-20.38,54.78 c0,13.19,5.92,22.2,19.8,22.68c59.28,2.06,119.01,0,178.32,0c60.76,0,121.75,1.54,182.49,0c1.1-0.03,2.2,0,3.3,0 C-362.14,510.5-362.12,485.88-377.98,485.88" class="st0"/><path d="M-418.27,614.94c-63.39,26.53-126.79,53.06-190.18,79.58c-100.57,42.09-201.14,84.17-301.71,126.26 c-23.12,9.68-46.24,19.35-69.36,29.02c-14.4,6.03-8.08,29.86,6.54,23.74c63.39-26.53,126.79-53.06,190.18-79.59 c100.57-42.09,201.14-84.17,301.71-126.25c23.12-9.68,46.24-19.35,69.36-29.02C-397.33,632.65-403.65,608.82-418.27,614.94" class="st0"/><path d="M-979.51,638.68c63.39,26.53,126.78,53.06,190.18,79.58c100.57,42.09,201.14,84.17,301.71,126.26 c23.12,9.67,46.24,19.35,69.36,29.02c14.6,6.11,20.96-17.7,6.54-23.74c-63.39-26.53-126.78-53.06-190.18-79.59l-301.7-126.26 l-69.36-29.02C-987.57,608.83-993.94,632.64-979.51,638.68" class="st0"/><path d="M-985.76,876.58c-0.89,16.5-25.71,16.62-25.71,0C-1011.47,859.93-986.64,860.1-985.76,876.58 c0.85,15.76,25.47,15.86,24.62,0c-1.09-20.3-16.3-37.47-37.47-37.47c-20.43,0-37.36,17.14-37.47,37.47 c-0.12,19.94,16.38,36.57,36.1,37.4c21.71,0.91,37.73-16.63,38.84-37.4C-960.28,860.75-984.91,860.8-985.76,876.58" class="st0"/><path d="M-373.43,876.58c-0.89,16.5-25.71,16.62-25.71,0C-399.14,859.93-374.32,860.1-373.43,876.58 c0.85,15.76,25.47,15.86,24.62,0c-1.09-20.3-16.3-37.47-37.47-37.47c-20.43,0-37.36,17.14-37.47,37.47 c-0.12,19.94,16.38,36.57,36.1,37.4c21.71,0.91,37.72-16.62,38.84-37.4C-347.96,860.75-372.58,860.8-373.43,876.58" class="st0"/><path d="M-1009.69,442.23V192.78v-35.71c-4.1,4.1-8.21,8.21-12.31,12.31h97.2c-4.1-4.1-8.21-8.21-12.31-12.31v51.26 c0,15.84,24.62,15.87,24.62,0v-51.26c0-6.65-5.64-12.31-12.31-12.31h-97.2c-6.65,0-12.31,5.64-12.31,12.31v249.44v35.71 C-1034.31,458.07-1009.69,458.09-1009.69,442.23" class="st0"/><path d="M-894.17,284.57h-63.77c4.1,4.1,8.21,8.21,12.31,12.31v-87.61c-4.1,4.1-8.2,8.21-12.31,12.31h63.77 c-4.1-4.1-8.21-8.21-12.31-12.31v87.61c0,15.84,24.62,15.87,24.62,0v-87.61c0-6.65-5.64-12.31-12.31-12.31h-63.77 c-6.65,0-12.31,5.64-12.31,12.31v87.61c0,6.65,5.64,12.31,12.31,12.31h63.77C-878.33,309.19-878.31,284.57-894.17,284.57" class="st0"/><path d="M-1643.5-1945.48c8.13-17.24,16.29-35.49,13.2-55.01c-2.64-16.69-13.17-31.18-29.59-36.38 c-15.07-4.77-33.79-3.33-44.75,9.05c-5.63,6.36-9.69,14.29-14.94,21c-6.26,7.99-13.11,15.53-20.26,22.73 c-25.08,25.26-54.25,45.53-83.14,66.09c-11.79,8.39-24.06,16.69-34.84,26.38c-11.96,10.77-16.46,25.21-17.01,40.97 c-0.62,17.81,3.61,35.4,3.44,53.21c-0.18,18.54-5.48,37.19-7.98,55.52c-1.71,12.53-6.22,28.29,3.43,38.55 c5.35,5.69,12.83,9.02,19.98,11.77c20.27,7.8,42.94,10.48,64.48,11.85c22.99,1.46,47.21,1.07,69.61-4.91 c17.79-4.75,34.3-13.97,37.96-33.22c3.1-16.32,14.72-29.32,23.77-42.92c11.18-16.82,27.26-30.54,42.87-43.11 c16.36-13.18,31.05-25.05,43.41-42.31c16.49-23.03,27.4-50.09,35.3-77.14c11.73-40.17,16.91-82.36,21.55-123.86 c2.23-19.98,3.89-40.01,5.11-60.08c1.11-18.31,3.78-37.12-1.13-55.07c-7.68-28.1-27.82-69-63.55-54.19 c-29.77,12.34-35.08,41.83-37.58,70.57c-3.2,36.71-9.58,73.18-19.51,108.68c-14.28,51.04-36.53,103.65-76.99,139.5 c-9.99,8.85-21.12,16.07-33.05,22c-14.19,7.05-1.74,28.29,12.42,21.26c85.98-42.72,120.04-149.07,134.83-237.16 c2.51-14.96,4.55-30.02,6.06-45.11c1.59-15.8,0.46-35.4,10.89-48.15c4.32-5.28,13.07-11.81,20.22-9.8 c6.61,1.85,10.46,10.11,13.38,15.69c6.63,12.69,11.52,26.4,10.99,40.8c-1.34,36.47-4.26,72.93-8.87,109.12 c-7.52,59.04-16.27,125.56-54.02,174.16c-11.71,15.08-24.47,23.6-38.4,34.92c-14.02,11.39-27.45,23.65-38.62,37.9 c-9.08,11.6-18.82,25-26,37.91c-3.47,6.25-5.47,12.86-6.8,19.83c-0.73,3.82-0.89,5.45-2.05,6.9c-2.83,3.53-9.5,6.36-15.03,8.08 c-18.62,5.79-38.85,6.2-58.18,5.51c-19.84-0.71-40.01-2.98-59.05-8.84c-3-0.92-6.03-1.88-8.86-3.15c-1.64-0.74-7.28-4.1-6.25-3.42 c-1.63-1.08-0.83-1.93-0.69-0.39c-0.05-0.55,0.09-1.31,0.13-0.18c0.08,2.69,0.89-4.3,0.95-5.03c0.76-9.58,2.25-19.08,3.82-28.56 c2.49-15.02,6.16-30.31,6.07-45.6c-0.08-15.6-3.23-31.01-3.47-46.6c-0.23-15.56,3.98-24,16.01-33.57 c10.62-8.45,21.84-16.16,32.91-24c26.01-18.42,52.01-37.19,74.92-59.45c11.58-11.25,22.22-23.42,31.73-36.46 c4.22-5.79,6.99-13.54,14.41-15.24c6.92-1.58,15.95,0.61,20.64,6.03c12.44,14.39,1.62,36.22-5.12,50.5 C-1671.48-1943.66-1650.27-1931.15-1643.5-1945.48" class="st0"/><path d="M-1718.46-2135.83c-18.66,44.26-56.92,76.26-94.53,104.22c-38.39,28.54-77.94,55.58-117.5,82.45h12.42 c-36.06-24.72-72.25-49.27-107.56-75.06c-35.38-25.84-71.84-53.69-94.54-91.96c-22.36-37.69-28.29-84.13-13.28-125.64 c14-38.72,47.7-73.18,91.04-72.85c51.94,0.41,93.26,43.26,106.21,91.01c3.18,11.72,20.55,11.71,23.74,0 c15.44-56.67,76.3-110.33,137.76-85.11C-1708.84-2281.74-1694.7-2195.47-1718.46-2135.83c-5.86,14.72,17.93,21.11,23.74,6.55 c28.95-72.66,4.93-173.28-73.84-203.43c-74.23-28.42-148.74,33.17-167.64,102.51h23.74c-12.84-47.32-47.84-88.56-95.29-103.53 c-47.83-15.09-95.68,2.97-125.79,41.93c-31.49,40.75-40.26,95.48-26.46,144.76c13.7,48.91,48.57,86.79,87.37,117.84 c45.39,36.33,94.23,68.43,142.14,101.29c3.38,2.32,9.04,2.3,12.42,0c43.17-29.32,86.52-58.7,128.02-90.36 c39.69-30.28,75.62-64.29,95.32-111.02C-1688.58-2143.86-1712.39-2150.23-1718.46-2135.83" class="st0"/><path d="M-2193.27-1957.91c-6.73-14.25-17.55-36.13-5.12-50.5c4.49-5.19,12.49-7.16,19.2-6.29 c8.52,1.11,11.2,9.14,15.85,15.5c19.34,26.45,43.34,48.5,69.18,68.47c22.99,17.77,47.65,33.36,70.39,51.45 c12.06,9.59,16.23,17.91,16.01,33.57c-0.22,15.6-3.39,31-3.47,46.6c-0.09,15.96,3.84,31.92,6.41,47.6 c1.34,8.19,2.61,16.39,3.34,24.66c0.14,1.62,1.46,9.04,1.45,6.73c0-0.44,0.94-0.47-0.92,0.77c0.95-0.63-4.01,2.36-5.59,3.1 c-3.04,1.43-6.29,2.47-9.53,3.47c-9.01,2.77-18.32,4.65-27.63,6.06c-20.98,3.17-42.68,3.94-63.82,2.07 c-12.47-1.11-33.33-3.57-40.8-12.87c-1.25-1.55-1.1-1.75-1.76-4.95c-1.59-7.7-3.23-14.84-7.09-21.79 c-7.19-12.93-16.9-26.3-26-37.91c-17.85-22.8-42.92-39.09-62.33-56.92c-35.7-32.76-50.69-83.81-59.51-129.81 c-7.2-37.52-11.73-75.78-14.76-113.85c-1.47-18.48-2.58-37-3.31-55.53c-0.56-14.38,4.37-28.12,10.98-40.8 c2.68-5.14,6.25-12.79,11.99-15.26c7.43-3.2,17.07,3.81,21.61,9.36c7.97,9.74,8.79,24.39,9.82,36.39 c0.9,10.42,1.97,20.82,3.33,31.19c11.25,85.85,37.01,186.45,107.78,243c9.62,7.69,19.82,14.36,30.86,19.84 c14.14,7.03,26.63-14.2,12.42-21.25c-49.64-24.66-79.55-74.47-98.22-124.87c-15.33-41.4-24.82-85.22-29.73-129.06 c-1.81-16.16-1.82-33.13-6.32-48.79c-9.31-32.4-50.56-58.08-76.31-26.26c-9.66,11.94-16.09,27.72-20.11,42.42 c-4.91,17.94-2.24,36.75-1.13,55.07c2.49,41.03,7.25,81.81,13.53,122.43c8.73,56.52,24.72,119.94,67.47,161.12 c22.69,21.86,50.7,37.4,68.27,64.5c4.45,6.86,8.95,13.55,13.68,20.22c5.4,7.6,7.33,14.13,9.33,23.1 c1.77,7.9,5.78,14.17,12.06,19.28c15.92,12.95,39.14,15.64,58.88,16.97c24.11,1.62,48.66-0.11,72.42-4.42 c15.97-2.89,36.72-6.86,48.39-19.27c10.02-10.65,4.97-27.62,3.15-40.57c-2.55-18.2-7.79-36.74-7.69-55.18 c0.17-31,13.2-68.51-13.59-92.51c-23.83-21.35-52.11-37.78-77.45-57.22c-14.7-11.27-28.86-23.35-41.85-36.58 c-6.15-6.27-12.07-12.8-17.56-19.66c-6.07-7.58-10.59-17-17.28-23.99c-10.93-11.42-29.5-12.33-43.79-7.8 c-16.46,5.22-26.89,19.68-29.59,36.38c-3.15,19.48,5.09,37.81,13.21,55.01C-2207.77-1931.17-2186.54-1943.65-2193.27-1957.91" class="st0"/><path d="M-3418.83-3647.31c-35.63,0.77-71.08,20.58-82.14,56.05c-3.25,10.41-3.07,20.92-3.07,31.62v104.28v288.54 c0,25.23-3.74,54.81,8.47,77.82c14.9,28.1,46.26,42.61,77.06,43.14c6.51,0.11,13.03,0,19.54,0h261.52c75.32,0,150.64,0.25,225.95,0 c45.46-0.15,88.66-29.32,89.1-78.06c0.25-26.9,0-53.82,0-80.72v-294.37c0-23.85,0.56-47.78,0-71.62 c-1.17-49.92-46.24-76.67-91.84-76.67h-236.69h-253.32H-3418.83c-15.84,0-15.87,24.62,0,24.62h180.42h278.26 c18.1,0,36.26-0.47,54.36,0.04c29.3,0.83,58.1,20.94,58.77,52.1c0.15,6.92,0,13.85,0,20.76v261.57v125.93 c0,24.7,4.7,54.2-14.3,73.38c-21.15,21.37-50.33,18.43-77.6,18.43h-114.52h-287.35c-24.87,0-49.74,0.1-74.61,0 c-19.99-0.08-39.7-6.03-52.92-21.91c-9.1-10.94-11.1-23.42-11.1-36.94v-238.11c0-67.7-1.72-135.65,0-203.34 c0.81-32.17,30.81-51.27,60.59-51.91C-3403.01-3623.03-3402.95-3647.65-3418.83-3647.31" class="st0"/><path d="M-3057.52-2997.75h-181.6c4.1,4.1,8.21,8.21,12.31,12.31v-69.62c-4.1,4.1-8.21,8.2-12.31,12.31h181.6 c-4.1-4.1-8.21-8.21-12.31-12.31v69.62c0,15.84,24.62,15.87,24.62,0v-69.62c0-6.65-5.64-12.31-12.31-12.31h-181.6 c-6.65,0-12.31,5.64-12.31,12.31v69.62c0,6.65,5.64,12.31,12.31,12.31h181.6C-3041.68-2973.13-3041.66-2997.75-3057.52-2997.75" class="st0"/><path d="M-2949.97-2934.36h-154.88h-220.86c-7.82,0-15.64,0.12-23.46,0c-15.23-0.22-28.98-14.25-19.46-29.59 c8.93-14.4,38.45-9.19,52.64-9.19h227.73h102.84c14.57,0,44.46-5.34,52.7,10.49C-2925.89-2949.49-2936-2935.06-2949.97-2934.36 c-15.77,0.8-15.86,25.42,0,24.62c31.69-1.6,54.42-34.17,39.17-63.94c-8.34-16.28-24.52-23.87-42.18-24.07 c-24.71-0.28-49.45,0-74.17,0h-258.46c-21.83,0-43.79-0.67-65.61,0c-23.77,0.73-43.86,17.83-44.88,42.39 c-1.08,25.64,19.89,44.74,44.52,45.63c63.39,2.29,127.28,0,190.7,0c69,0,138.17,1.46,207.16,0c1.25-0.03,2.51,0,3.76,0 C-2934.13-2909.74-2934.11-2934.36-2949.97-2934.36" class="st0"/><path d="M-2943.74-3343.49c-22.13,0.2-44.27,0.19-66.4,0.27c3.96,3.01,7.92,6.03,11.87,9.04 c-7.33-21.96-14.65-43.92-21.98-65.88c-3.03-9.08-17.76-13.25-22.5-2.94c-17.82,38.77-35.63,77.54-53.44,116.31 c7.5,0.98,15,1.96,22.5,2.94c-15.15-52.02-30.3-104.04-45.45-156.06c-3.14-10.79-21.72-12.61-23.74,0 c-11.99,75.23-23.99,150.47-35.98,225.7c-1.7,10.65-3.4,21.31-5.1,31.96h23.74c-14.12-62.53-28.25-125.07-42.38-187.6 c-2-8.86-4-17.72-6-26.58c-2.75-12.16-20.51-11.27-23.74,0c-14.53,50.8-29.07,101.59-43.6,152.39h23.74 c-11.08-65.65-22.16-131.29-33.25-196.94c-2.13-12.61-20.51-10.78-23.74,0c-10.56,35.23-21.12,70.46-31.68,105.69 c3.96-3.01,7.91-6.02,11.87-9.04c-17.9,0.26-35.8,0.55-53.7,0.76c-15.83,0.19-15.87,24.81,0,24.62c17.9-0.21,35.8-0.49,53.7-0.76 c5.52-0.08,10.29-3.78,11.87-9.04c10.56-35.23,21.12-70.46,31.68-105.69h-23.74c11.08,65.65,22.17,131.3,33.25,196.94 c2.11,12.51,20.62,10.9,23.74,0c14.53-50.8,29.06-101.59,43.6-152.39h-23.74c14.13,62.53,28.25,125.07,42.38,187.6 c2,8.86,4,17.71,6,26.57c2.56,11.32,21.8,12.16,23.74,0c11.99-75.23,23.99-150.46,35.98-225.7c1.7-10.65,3.4-21.3,5.09-31.96 h-23.74c15.15,52.02,30.3,104.04,45.44,156.07c2.73,9.37,17.88,13,22.5,2.94c17.81-38.77,35.63-77.54,53.44-116.31 c-7.5-0.98-15-1.96-22.5-2.94c7.32,21.96,14.65,43.93,21.98,65.88c1.72,5.16,6.26,9.06,11.87,9.04c22.13-0.07,44.27-0.06,66.4-0.27 C-2927.91-3319.02-2927.87-3343.64-2943.74-3343.49" class="st0"/><path d="M-2868.14-755.06c-29.16,70.01-88.72,120.94-148.07,165.26c-61.54,45.94-125.07,89.36-188.59,132.5h12.43 c-60.05-41.18-120.39-82.02-178.99-125.27c-56.9-41.99-114.62-88.37-148.16-152.09c-33.7-64.04-38.52-143.63-6.96-209.53 c28.75-60.02,84.8-106.51,154.21-100.43c79.47,6.96,141.99,73.36,161.74,147.71c3.12,11.73,20.61,11.71,23.74,0 c18.97-70.94,75.08-132.63,149.12-146.01c92.5-16.71,164.14,61.56,182.77,145.59C-2844.36-849.8-2849.99-799.99-2868.14-755.06 c-5.93,14.69,17.87,21.07,23.74,6.54c36.28-89.82,21.19-199.93-48.54-269.79c-33.34-33.39-77.59-53.35-125.21-51.36 c-44.79,1.87-87.14,20.75-120.76,49.94c-34.98,30.36-59.69,71.67-71.62,116.27h23.74c-18.89-71.12-71.57-133.55-142.28-157.05 c-72.38-24.05-145.75,2.09-191.98,61.2c-48.63,62.18-62.52,145.75-41.82,221.4c20.83,76.15,75.13,134.89,135.33,183.14 c71.08,56.98,147.68,107.23,222.76,158.71c3.38,2.32,9.04,2.3,12.43,0c67.18-45.63,134.6-91.38,199.27-140.53 c61.33-46.62,118.54-99.51,148.7-171.93C-2838.31-763.12-2862.12-769.5-2868.14-755.06" class="st0"/><path d="M-2766.41-600.44c0,98.39-79.76,178.15-178.15,178.15c-98.39,0-178.14-79.76-178.14-178.15 c0-98.39,79.76-178.14,178.14-178.14C-2846.17-778.58-2766.41-698.83-2766.41-600.44" class="st1"/><path d="M-2778.72-600.44c-0.66,68.99-44,132.95-109.69,156.13c-65.71,23.19-139.72,2.84-184.26-50.74 c-44.39-53.4-49.69-131.64-13.98-190.94c35.56-59.05,106.56-90.87,174.31-77.18C-2835.03-747.54-2779.47-678.99-2778.72-600.44 c0.15,15.83,24.77,15.87,24.62,0c-0.76-79.37-50.15-150.88-124.68-178.74c-74.41-27.82-161.99-4.23-212.33,57.19 c-50.63,61.77-58.21,150.76-16.8,219.54c41.21,68.44,122.21,103.87,200.47,88.82c88.69-17.06,152.48-97.38,153.33-186.8 C-2753.95-616.29-2778.57-616.3-2778.72-600.44" class="st0"/><polygon points="-2836.98 -634.94 -2836.98 -565.94 -2910.06 -565.94 -2910.06 -492.86 -2979.06 -492.86 -2979.06 -565.94 -3052.14 -565.94 -3052.14 -634.94 -2979.06 -634.94 -2979.06 -708.02 -2910.06 -708.02 -2910.06 -634.94" class="st1"/><path d="M-2849.29-634.94v69c4.1-4.1,8.2-8.21,12.31-12.31h-73.08c-6.65,0-12.31,5.64-12.31,12.31v73.08 c4.1-4.1,8.21-8.21,12.31-12.31h-69c4.1,4.1,8.21,8.2,12.31,12.31v-73.08c0-6.65-5.64-12.31-12.31-12.31h-73.08 c4.1,4.1,8.21,8.21,12.31,12.31v-69c-4.1,4.1-8.21,8.21-12.31,12.31h73.08c6.65,0,12.31-5.64,12.31-12.31v-73.08 c-4.1,4.1-8.21,8.21-12.31,12.31h69c-4.1-4.1-8.2-8.2-12.31-12.31v73.08c0,6.65,5.64,12.31,12.31,12.31h73.08 c15.84,0,15.87-24.62,0-24.62h-73.08c4.1,4.1,8.21,8.21,12.31,12.31v-73.08c0-6.65-5.64-12.31-12.31-12.31h-69 c-6.65,0-12.31,5.64-12.31,12.31v73.08c4.1-4.1,8.21-8.2,12.31-12.31h-73.08c-6.66,0-12.31,5.64-12.31,12.31v69 c0,6.65,5.64,12.31,12.31,12.31h73.08c-4.1-4.1-8.21-8.2-12.31-12.31v73.08c0,6.65,5.64,12.31,12.31,12.31h69 c6.66,0,12.31-5.64,12.31-12.31v-73.08c-4.1,4.1-8.21,8.21-12.31,12.31h73.08c6.65,0,12.31-5.64,12.31-12.31v-69 C-2824.67-650.78-2849.29-650.8-2849.29-634.94" class="st0"/></g></svg>