<svg xmlns="http://www.w3.org/2000/svg" xmlns:xlink="http://www.w3.org/1999/xlink" id="Laag_1" x="0" y="0" version="1.1" viewBox="0 0 1024 1024" xml:space="preserve" style="enable-background:new 0 0 1024 1024"><style type="text/css">.st0{fill:none;stroke:#14171c;stroke-width:46.753;stroke-linejoin:round;stroke-miterlimit:10}.st0,.st1,.st2{clip-path:url(#SVGID_2_)}.st1{fill:none;stroke:#14171c;stroke-width:46.753;stroke-miterlimit:10}.st2{fill:#14171c}</style><g><defs><rect id="SVGID_1_" width="1024" height="924" y="50"/></defs><clipPath id="SVGID_2_"><use xlink:href="#SVGID_1_" style="overflow:visible"/></clipPath><path d="M-5383.65-1270.69c51.64,0,93.51,41.87,93.51,93.51v561.04c0,51.64-41.87,93.51-93.51,93.51h-561.04 c-51.64,0-93.51-41.87-93.51-93.51v-561.04c0-51.64,41.87-93.51,93.51-93.51H-5383.65z" class="st0"/><path d="M-5407.03-1060.3c0,51.64-41.87,93.51-93.51,93.51c-51.64,0-93.51-41.87-93.51-93.51 c0-51.64,41.87-93.51,93.51-93.51C-5448.9-1153.8-5407.03-1111.93-5407.03-1060.3z" class="st1"/><ellipse cx="5135.85" cy="-964.22" class="st0" rx="116.88" ry="116.88" transform="matrix(0.7071 -0.7071 0.7071 0.7071 2186.063 3349.1838)"/><path d="M5135.85-1291.49c180.7,0,327.27,146.57,327.27,327.27c0,47.46-10.05,92.34-28.29,133.01 c-14.96,33.66-35.53,64.29-60.31,90.7l-238.67,238.68L4897.18-740.5c-24.78-26.42-45.35-57.04-60.31-90.7 c-18.23-40.67-28.29-85.56-28.29-133.01C4808.58-1144.92,4955.15-1291.49,5135.85-1291.49z" class="st0"/><path d="M-7499.28-979.97c6.43-22.32,15.19-43.97,26.79-64.45l-54.98-67.44c-15.15-18.58-13.79-45.66,3.18-62.6 l39.44-39.46c16.97-16.95,44.02-18.33,62.6-3.18l67.44,54.98l0.05-0.09c20.31-11.22,41.84-20.34,64.5-26.65l8.81-86.56 c2.43-23.87,22.54-42.01,46.52-42.01h55.8c23.98,0,44.09,18.14,46.52,42.01l8.81,86.56l0.07-0.05 c22.32,6.45,43.97,15.22,64.47,26.79l67.44-54.98c18.58-15.15,45.63-13.77,62.6,3.18l39.44,39.46 c16.97,16.95,18.33,44.02,3.18,62.6l-54.98,67.44l0.09,0.02c11.22,20.34,20.34,41.84,26.65,64.52l86.56,8.81 c23.87,2.43,42.01,22.53,42.01,46.52v55.78c0,23.98-18.14,44.09-42.01,46.52l-86.56,8.81l0.05,0.09 c-6.43,22.32-15.19,43.97-26.79,64.45l54.98,67.44c15.15,18.58,13.79,45.65-3.18,62.6l-39.44,39.46 c-16.97,16.95-44.02,18.33-62.6,3.15l-67.44-54.96l-0.05,0.09c-20.31,11.22-41.84,20.34-64.5,26.65l-8.81,86.56 c-2.43,23.87-22.53,42.01-46.52,42.01h-55.8c-23.98,0-44.09-18.14-46.52-42.01l-8.81-86.56l-0.07,0.02 c-22.33-6.43-43.97-15.19-64.47-26.77l-67.44,54.96c-18.58,15.17-45.63,13.79-62.6-3.15l-39.44-39.46 c-16.97-16.95-18.33-44.02-3.18-62.6l54.98-67.44l-0.09-0.02c-11.22-20.34-20.36-41.84-26.67-64.52l-86.54-8.81 c-23.87-2.43-42.03-22.54-42.03-46.52v-55.78c0-23.98,18.16-44.09,42.03-46.52l86.54-8.81L-7499.28-979.97z" class="st0"/><ellipse cx="-7207.04" cy="-896.66" class="st0" rx="140.26" ry="140.26" transform="matrix(0.9591 -0.2832 0.2832 0.9591 -41.1438 -2077.9097)"/><path d="M455.68-1275.74l-313.81,254.97c-5.45,4.42-8.63,11.08-8.63,18.14v479.78c0,12.9,10.45,23.38,23.38,23.38 h210.39c12.93,0,23.38-10.47,23.38-23.38v-303.9c0-12.93,10.45-23.38,23.38-23.38h187.01c12.93,0,23.38,10.45,23.38,23.38v303.9 c0,12.9,10.45,23.38,23.38,23.38h210.39c12.93,0,23.38-10.47,23.38-23.38v-479.78c0-7.06-3.18-13.72-8.63-18.14l-313.81-254.97 C528.8-1300.17,485.74-1300.17,455.68-1275.74z" class="st0"/><ellipse cx="-4378.46" cy="-896.66" class="st1" rx="140.26" ry="140.26" transform="matrix(0.7071 -0.7071 0.7071 0.7071 -648.3867 -3358.6616)"/><ellipse cx="-3864.17" cy="-1153.8" class="st1" rx="140.26" ry="140.26" transform="matrix(0.7071 -0.7071 0.7071 0.7071 -315.9275 -3070.3213)"/><ellipse cx="-3864.17" cy="-639.52" class="st1" rx="140.26" ry="140.26" transform="matrix(0.7071 -0.7071 0.7071 0.7071 -679.5834 -2919.6902)"/><path d="M5439.75,389.06v584.42c0,51.64-41.87,93.51-93.51,93.51h-420.78c-51.64,0-93.51-41.87-93.51-93.51V389.06" class="st0"/><path d="M5276.11,389.06h-280.52v-70.13c0-25.81,20.95-46.75,46.75-46.75h187.01c25.81,0,46.75,20.95,46.75,46.75 V389.06z" class="st0"/><path d="M-2718.71-1247.31h-327.27c-51.64,0-93.51,41.87-93.51,93.51v561.04c0,51.64,41.87,93.51,93.51,93.51h561.04 c51.64,0,93.51-41.87,93.51-93.51v-327.27" class="st0"/><path d="M-2344.69-1013.54v-257.14c0-12.9-10.47-23.38-23.38-23.38h-257.14" class="st0"/><path d="M-1175.85-1247.31h-327.27c-51.64,0-93.51,41.87-93.51,93.51v561.04c0,51.64,41.87,93.51,93.51,93.51h561.04 c51.64,0,93.51-41.87,93.51-93.51v-327.27" class="st0"/><path d="M-1292.73-1083.67v257.14c0,12.9,10.47,23.38,23.38,23.38h257.14" class="st0"/><circle cx="2050.13" cy="-943.41" r="327.27" class="st0"/><circle cx="3569.62" cy="-896.66" r="350.65" class="st0"/><path d="M3767.98-1260.31l21.36-14.26c45.26-30.16,105.5-24.19,143.93,14.26c38.45,38.46,44.42,98.67,14.26,143.91 l-14.26,21.39" class="st0"/><path d="M3371.26-1260.31l-21.37-14.26c-45.26-30.16-105.5-24.19-143.93,14.26c-38.45,38.46-44.42,98.67-14.26,143.91 l14.26,21.39" class="st0"/><path d="M6818.98-522.63h-607.79c-51.64,0-93.51-41.87-93.51-93.51v-561.04c0-51.64,41.87-93.51,93.51-93.51h607.79 c51.64,0,93.51,41.87,93.51,93.51v561.04C6912.48-564.5,6870.62-522.63,6818.98-522.63z" class="st0"/><path d="M6328.07-849.91h-93.51c-12.93,0-23.38-10.47-23.38-23.38v-93.51c0-12.9,10.45-23.38,23.38-23.38h93.51 c12.93,0,23.38,10.48,23.38,23.38v93.51C6351.44-860.38,6340.99-849.91,6328.07-849.91z" class="st0"/><path d="M6561.83-849.91h-93.51c-12.93,0-23.38-10.47-23.38-23.38v-93.51c0-12.9,10.45-23.38,23.38-23.38h93.51 c12.93,0,23.38,10.48,23.38,23.38v93.51C6585.21-860.38,6574.76-849.91,6561.83-849.91z" class="st0"/><path d="M6795.6-849.91h-93.51c-12.93,0-23.38-10.47-23.38-23.38v-93.51c0-12.9,10.45-23.38,23.38-23.38h93.51 c12.93,0,23.38,10.48,23.38,23.38v93.51C6818.98-860.38,6808.53-849.91,6795.6-849.91z" class="st0"/><path d="M6328.07-616.14h-93.51c-12.93,0-23.38-10.47-23.38-23.38v-93.51c0-12.9,10.45-23.38,23.38-23.38h93.51 c12.93,0,23.38,10.47,23.38,23.38v93.51C6351.44-626.61,6340.99-616.14,6328.07-616.14z" class="st0"/><path d="M6561.83-616.14h-93.51c-12.93,0-23.38-10.47-23.38-23.38v-93.51c0-12.9,10.45-23.38,23.38-23.38h93.51 c12.93,0,23.38,10.47,23.38,23.38v93.51C6585.21-626.61,6574.76-616.14,6561.83-616.14z" class="st0"/><path d="M6795.6-616.14h-93.51c-12.93,0-23.38-10.47-23.38-23.38v-93.51c0-12.9,10.45-23.38,23.38-23.38h93.51 c12.93,0,23.38,10.47,23.38,23.38v93.51C6818.98-626.61,6808.53-616.14,6795.6-616.14z" class="st0"/><ellipse cx="-5664.17" cy="529.32" class="st1" rx="397.4" ry="397.4" transform="matrix(0.7071 -0.7071 0.7071 0.7071 -2033.2834 -3850.1423)"/><ellipse cx="-7207.04" cy="529.32" class="st1" rx="397.4" ry="397.4" transform="matrix(0.7071 -0.7071 0.7071 0.7071 -2485.177 -4941.1099)"/><path d="M-2970.18,809.84l350.91-607.79c18-31.16,63-31.16,80.98,0l350.91,607.79c18,31.16-4.49,70.13-40.49,70.13 h-701.82C-2965.69,879.97-2988.18,841-2970.18,809.84z" class="st0"/><path d="M-2543.72,763.09c0,19.38-15.69,35.06-35.07,35.06c-19.36,0-35.06-15.68-35.06-35.06 c0-19.38,15.71-35.07,35.06-35.07C-2559.4,728.02-2543.72,743.71-2543.72,763.09" class="st2"/><path d="M-801.82,950.1h-467.53c-51.64,0-93.51-41.87-93.51-93.51V552.7c0-51.64,41.87-93.51,93.51-93.51h467.53 c51.64,0,93.51,41.87,93.51,93.51v303.9C-708.32,908.23-750.18,950.1-801.82,950.1z" class="st1"/><path d="M-825.2,459.19h-420.78V295.55c0-116.2,94.18-210.39,210.39-210.39c116.2,0,210.39,94.18,210.39,210.39V459.19 z" class="st1"/><path d="M741.04,950.1H273.5c-51.64,0-93.51-41.87-93.51-93.51V552.7c0-51.64,41.87-93.51,93.51-93.51h467.53 c51.64,0,93.51,41.87,93.51,93.51v303.9C834.54,908.23,792.68,950.1,741.04,950.1z" class="st1"/><path d="M296.88,459.19V295.55c0-116.2,94.18-210.39,210.39-210.39s210.39,94.18,210.39,210.39v23.38" class="st1"/><line x1="-4027.81" x2="-4027.81" y1="155.29" y2="573.99" class="st1"/><path d="M-3827.94,290.22c91.17,63.12,150.78,168.5,150.78,287.93c0,193.7-156.97,350.65-350.65,350.65 c-193.68,0-350.65-156.95-350.65-350.65c0-119.43,59.61-224.81,150.78-287.93" class="st1"/></g></svg>