<?xml version="1.0" encoding="utf-8"?>
<!-- Generator: Adobe Illustrator 24.3.0, SVG Export Plug-In . SVG Version: 6.00 Build 0)  -->
<svg version="1.1" id="Laag_1" xmlns="http://www.w3.org/2000/svg" xmlns:xlink="http://www.w3.org/1999/xlink" x="0px" y="0px"
	 viewBox="0 0 1024 1024" style="enable-background:new 0 0 1024 1024;" xml:space="preserve">
<style type="text/css">
	.st0{clip-path:url(#SVGID_2_);}
	.st1{clip-path:url(#SVGID_2_);fill:none;stroke:#000000;stroke-width:13.13;stroke-miterlimit:10;}
	.st2{clip-path:url(#SVGID_2_);fill:none;stroke:#000000;stroke-width:19.319;stroke-miterlimit:10;}
</style>
<g>
	<defs>
		<rect id="SVGID_1_" y="50" width="984.77" height="891.77"/>
	</defs>
	<clipPath id="SVGID_2_">
		<use xlink:href="#SVGID_1_"  style="overflow:visible;"/>
	</clipPath>
	<path class="st0" d="M367.44,136.45c-14.44-16-35.11-26.26-58.34-26.26c-43.54,0-79.32,35.24-79.32,78.81
		c0,43.47,35.78,78.76,79.32,78.76c43.49,0,78.76-35.29,78.76-78.76c0-9.26-1.9-18.03-4.82-26.29
		C376.54,145.2,367.44,136.45,367.44,136.45 M309.1,136.45c28.95,0,52.49,23.57,52.49,52.55c0,28.95-23.54,52.49-52.49,52.49
		c-28.98,0-53.06-23.54-53.06-52.49C256.04,160.02,280.12,136.45,309.1,136.45 M490.69,451.83c-2.95-10-9.72-18.88-19.59-24.23
		l-81.4-44.14l-28.77-47.52l-9.18-15.13c-10.05-16.64-28.08-26.8-47.52-26.8h-9.44h-40.93c-23.21,0-43.52,15.62-49.49,38.03
		l-44.75,168l-0.77,2.85c-6.36,23.88-7.69,48.47-7.72,73.17v1.26L151,660.37L77.03,805.32c-11.28,22.75-2.05,50.32,20.7,61.63
		c6.57,3.26,13.54,4.79,20.41,4.79c16.9,0,33.16-9.34,41.18-25.49l78.66-154.59c3.13-6.33,4.92-13.31,4.92-20.39v-82.09l61.14,93.17
		l17.98,147.89c2.82,23.34,22.65,40.44,45.57,40.44c1.85,0,3.69-0.1,5.57-0.33c25.21-3.05,43.16-25.93,40.11-51.14l-19.29-158.59
		c-0.85-7.05-3.31-13.8-7.21-19.72l-82.75-125.94l20.21-82.45l1.49,2.46c3.75,6.21,9.08,11.28,15.44,14.75l91.11,49.42
		c6.16,3.36,12.82,4.95,19.36,4.95c14.44,0,28.44-7.72,35.83-21.31c0.82-1.51,1.33-3.13,1.95-4.69 M451.63,477.83
		c-2.39,0-4.69-0.59-6.8-1.74l-91.17-49.44c-2.23-1.23-4.13-3.05-5.46-5.23l-16.77-27.78c-2.95-4.85-8.51-7.46-14.16-6.62
		c-5.61,0.87-10.15,5.03-11.51,10.54L278.52,508.7c-1.74,7.09-0.45,14.58,3.55,20.68l82.76,125.94c1.67,2.54,2.72,5.46,3.08,8.44
		l19.29,158.61c1.33,10.77-6.41,20.6-17.18,21.9l-2.41,0.15c-9.93,0-18.31-7.47-19.49-17.34l-18.72-154l-78.99-120.4
		c-4.46-6.8-12.85-9.85-20.62-7.54c-7.79,2.33-13.13,9.49-13.13,17.59v108.53c0,2.79-0.77,5.79-2.18,8.69l-78.56,154.38
		c-3.44,6.95-10.21,11.13-17.77,11.13c-3.05,0-5.97-0.69-8.74-2.05c-9.69-4.84-13.69-16.69-8.85-26.44l76.71-150.28v-89.35
		c0.03-21.57,1-45.31,6.98-67.7l45.49-170.85c2.92-10.93,12.82-18.54,24.13-18.54h50.37c10.18,0,19.8,5.41,25.05,14.13l41.65,68.75
		l87.65,47.52c5.08,2.74,7.74,8.15,7.41,13.59c-0.02,0.23-0.13,0.44-0.13,0.69c0,0.1,0.05,0.18,0.05,0.28
		c-0.23,1.69-0.67,3.41-1.54,5.03C461.81,474.94,456.94,477.83,451.63,477.83"/>
	<path class="st1" d="M791.81,637.48l-7.19,37.1c-0.98,5.55-4.81,10.43-10.49,12.5l-18.4,6.7l4.46,12.26l-3.07,1.12l-25.37-22.02
		l5.29-33.17l3.07-1.12l4.46,12.27l36.79-13.39"/>
	<line class="st1" x1="772.68" y1="652.88" x2="735.5" y2="622.7"/>
	<path class="st1" d="M755.3,596.78l30.78,24.94c2.22,1.8,4,4.2,5.05,7.09c3.08,8.46-1.29,17.83-9.75,20.91"/>
	<path class="st1" d="M682.49,711.27L654.39,686c-4.25-3.7-6.46-9.5-5.31-15.43l3.74-19.22l-12.81-2.49l0.62-3.2l31.94-10.41
		l25.71,21.62l-0.62,3.2l-12.81-2.49l-7.47,38.43"/>
	<line class="st1" x1="724.18" y1="670.53" x2="679.33" y2="686.86"/>
	<path class="st1" d="M735.35,701.19l-36.4,13.28c-2.68,0.97-5.66,1.26-8.67,0.67c-8.85-1.72-14.62-10.28-12.9-19.13"/>
	<line class="st1" x1="694.32" y1="590.65" x2="687.98" y2="635.45"/>
	<path class="st1" d="M655.72,630.45l4.98-35.25c0.4-2.82,1.55-5.56,3.49-7.97c5.68-7,15.95-8.06,22.94-2.41"/>
	<path class="st1" d="M671.26,582.18l35.5-12.94c5.26-2.01,11.42-1.24,16.11,2.55l15.21,12.32l8.37-10.2l2.54,2.05l-5.8,33.09
		l-31.16,12.56l-2.53-2.05l8.06-10.08l-30.43-24.64"/>
	<path class="st2" d="M739.8,785.41c-10.95-30.08-44.2-45.59-74.28-34.64c-30.08,10.95-45.59,44.2-34.64,74.28
		c10.94,30.08,44.2,45.59,74.28,34.64C735.23,848.75,750.74,815.49,739.8,785.41z"/>
	
		<rect x="512.01" y="466.51" transform="matrix(0.9397 -0.342 0.342 0.9397 -131.2118 256.5003)" class="st2" width="299.44" height="67.61"/>
	<path class="st2" d="M525.99,565.14l-52.83-32.17l-3.3-9.08c-9.12-25.07,3.8-52.78,28.86-61.9l245.07-89.2l37.14,17.32l9.91,27.23"
		/>
	<path class="st2" d="M705.16,859.69l164.04-59.7c9.77-3.55,14.97-14.2,11.78-24.09l-94.23-285.12l-226.91,82.59l78.28,198.29"/>
	<path class="st2" d="M703.49,798.63c-3.65-10.02-14.73-15.19-24.76-11.54c-10.02,3.65-15.2,14.73-11.55,24.76
		c3.65,10.03,14.73,15.19,24.76,11.55C701.97,819.74,707.14,808.65,703.49,798.63z"/>
	<line class="st2" x1="517.72" y1="485.91" x2="527.63" y2="513.14"/>
	<line class="st2" x1="554.03" y1="472.7" x2="563.93" y2="499.93"/>
	<line class="st2" x1="590.33" y1="459.49" x2="600.24" y2="486.72"/>
	<line class="st2" x1="626.64" y1="446.27" x2="636.55" y2="473.5"/>
	<line class="st2" x1="662.95" y1="433.06" x2="672.85" y2="460.29"/>
	<line class="st2" x1="699.25" y1="419.84" x2="709.16" y2="447.07"/>
	<line class="st2" x1="735.56" y1="406.63" x2="745.47" y2="433.86"/>
	<line class="st2" x1="800.76" y1="444.57" x2="837.07" y2="431.35"/>
</g>
</svg>
