<?xml version="1.0" encoding="utf-8"?>
<!-- Generator: Adobe Illustrator 24.3.0, SVG Export Plug-In . SVG Version: 6.00 Build 0)  -->
<svg version="1.1" id="Laag_1" xmlns="http://www.w3.org/2000/svg" xmlns:xlink="http://www.w3.org/1999/xlink" x="0px" y="0px"
	 viewBox="0 0 1024 1024" style="enable-background:new 0 0 1024 1024;" xml:space="preserve">
<style type="text/css">
	.st0{clip-path:url(#SVGID_2_);}
</style>
<g>
	<defs>
		<rect id="SVGID_1_" x="50" y="50" width="924" height="924"/>
	</defs>
	<clipPath id="SVGID_2_">
		<use xlink:href="#SVGID_1_"  style="overflow:visible;"/>
	</clipPath>
	<path class="st0" d="M-625.04-743.14c-61.9,0-112.26-50.36-112.26-112.26c0-61.9,50.36-112.26,112.26-112.26
		s112.26,50.36,112.26,112.26C-512.78-793.5-563.14-743.14-625.04-743.14 M-1105.74-774.17v-61.49c0-5.92-4.16-11.03-9.96-12.22
		c-69.04-14.22-132.02-64.96-177.35-142.86c-4.03-6.92-5.12-15-3.07-22.74c2.05-7.74,6.99-14.22,13.91-18.25
		c4.73-2.75,9.91-4.06,15.03-4.06c10.33,0,20.4,5.34,25.96,14.9c43.33,74.46,103.64,117.17,165.46,117.17
		c61.83,0,122.14-42.71,165.47-117.17c4.03-6.92,10.51-11.86,18.25-13.91c7.74-2.04,15.82-0.96,22.74,3.07
		c14.29,8.31,19.15,26.7,10.84,40.99c-45.33,77.9-108.31,128.64-177.35,142.86c-5.8,1.19-9.95,6.3-9.95,12.22v61.49
		c0,16.53-13.45,29.98-29.98,29.98C-1092.3-744.19-1105.74-757.64-1105.74-774.17 M-1235.09-1313.04c4.22,0,7.31,0.68,8.45,1.86
		c2.94,3.02,2.63,14.7,2.35,25.01c-0.11,3.86-0.21,7.88-0.21,12.02c0,4.14,0.11,8.16,0.21,12.02c0.28,10.31,0.6,21.99-2.35,25.01
		c-1.15,1.18-4.23,1.86-8.45,1.86c-21.44,0-38.89-17.44-38.89-38.89C-1273.98-1295.6-1256.53-1313.04-1235.09-1313.04
		 M-917.1-1235.27c-4.22,0-7.3-0.68-8.46-1.86c-2.94-3.02-2.62-14.7-2.34-25.01c0.1-3.86,0.21-7.88,0.21-12.02
		c0-4.13-0.11-8.16-0.21-12.02c-0.28-10.31-0.6-21.99,2.34-25.01c1.15-1.18,4.23-1.86,8.46-1.86c21.45,0,38.89,17.45,38.89,38.89
		C-878.21-1252.71-895.65-1235.27-917.1-1235.27 M-487.83-855.4c0-75.66-61.55-137.21-137.21-137.21s-137.21,61.55-137.21,137.21
		c0,71.45,54.9,130.29,124.73,136.62v90.32c0,56.12-45.66,101.78-101.78,101.78h-222.21c-56.12,0-101.78-45.66-101.78-101.78v-92.25
		c24.29-5.67,42.45-27.45,42.45-53.44v-51.56c72.12-18.26,137.13-72.03,183.92-152.47c13.68-23.51,7.84-53.04-12.45-69.85
		c22.68-53.07,37.22-114.21,42.06-177.24c1.22-15.85-4.26-31.6-15.01-43.22c-8.64-9.33-19.79-15.24-32.02-17.27
		c-5.49-29.66-31.53-52.21-62.76-52.21c-11.56,0-20.17,3.08-26.33,9.41c-10.29,10.57-9.86,26.37-9.4,43.09
		c0.1,3.64,0.21,7.44,0.21,11.34c0,3.9-0.11,7.7-0.21,11.34c-0.45,16.72-0.88,32.52,9.4,43.09c6.16,6.33,14.78,9.41,26.33,9.41
		c30.47,0,56-21.46,62.32-50.05c5.36,1.58,10.23,4.56,14.16,8.8c6.14,6.63,9.14,15.29,8.44,24.36
		c-4.59,59.77-18.25,117.66-39.52,167.92c-8.7-2.08-17.84-2-26.74,0.36c-14.18,3.75-26.06,12.8-33.43,25.48
		c-38.74,66.58-91.19,104.77-143.9,104.77c-52.71,0-105.16-38.19-143.9-104.77c-12.45-21.4-37.22-31.23-60.15-25.8
		c-21.28-50.26-34.95-108.17-39.54-167.95c-0.7-9.08,2.3-17.73,8.45-24.36c3.78-4.08,8.42-7.02,13.54-8.64
		c6.38,28.51,31.88,49.89,62.28,49.89c11.56,0,20.17-3.08,26.34-9.41c10.29-10.57,9.86-26.37,9.4-43.09
		c-0.1-3.64-0.2-7.44-0.2-11.34c0-3.9,0.1-7.7,0.2-11.34c0.45-16.72,0.88-32.52-9.4-43.09c-6.16-6.33-14.78-9.41-26.34-9.41
		c-31.26,0-57.33,22.59-62.77,52.31c-11.97,2.14-22.87,8.01-31.35,17.17c-10.76,11.61-16.23,27.37-15.02,43.22
		c4.84,63.02,19.38,124.16,42.06,177.22c-8.78,7.25-15.1,16.99-18.07,28.21c-3.75,14.19-1.75,28.98,5.63,41.66
		c46.8,80.43,111.81,134.21,183.92,152.47v51.56c0,25.99,18.16,47.77,42.45,53.44v92.25c0,69.88,56.85,126.73,126.73,126.73h222.21
		c69.88,0,126.73-56.85,126.73-126.73v-90.32C-542.74-725.11-487.83-783.95-487.83-855.4"/>
	<path class="st0" d="M-625.04-804.99c-27.8,0-50.42-22.61-50.42-50.42s22.62-50.42,50.42-50.42c27.8,0,50.41,22.62,50.41,50.42
		S-597.24-804.99-625.04-804.99 M-625.04-930.77c-41.56,0-75.37,33.81-75.37,75.37s33.81,75.36,75.37,75.36
		c41.56,0,75.36-33.81,75.36-75.36S-583.49-930.77-625.04-930.77"/>
	<path class="st0" d="M2207.05-579.53c-7.83,6.31-15.95,11.99-24.28,17.18l-216.3-268.28c1.45-2.39,2.87-4.81,4.26-7.26
		c1.67-2.97,3.26-5.97,4.81-8.97c0.21-0.42,0.44-0.83,0.65-1.25c0.14-0.27,0.27-0.53,0.41-0.8c1.46-2.91,2.87-5.83,4.22-8.77
		c0.03-0.06,0.06-0.12,0.09-0.19c0.16-0.35,0.32-0.69,0.47-1.04c0.12-0.26,0.23-0.52,0.35-0.78c4.7-10.45,8.67-21.06,11.95-31.79
		l235.32,291.87C2222.15-592.58,2214.88-585.84,2207.05-579.53 M1591.05-773.13l238.05-422.94c9.06,3.74,18,8.04,26.76,12.97
		c8.76,4.93,17.08,10.33,24.98,16.13l-238.05,422.95c-9.07-3.75-18-8.06-26.75-12.99C1607.27-761.93,1598.95-767.33,1591.05-773.13
		 M1805.21-1204.51l-233.77,415.34c-2.31-2.09-4.55-4.23-6.76-6.39c-0.6-0.59-1.2-1.17-1.8-1.77c-1.63-1.63-3.23-3.28-4.8-4.95
		c-62.9-66.76-83.95-165.06-51.39-252.75c0.35-0.93,0.7-1.86,1.06-2.79c0.7-1.82,1.43-3.64,2.18-5.46c0.83-2,1.68-4,2.58-6
		c0.41-0.93,0.83-1.85,1.25-2.77c1.2-2.6,2.44-5.19,3.74-7.76c0.28-0.57,0.58-1.14,0.88-1.71c1.45-2.83,2.94-5.65,4.52-8.45
		c44.84-79.67,127.96-124.52,213.46-124.52c20.23,0,40.59,2.51,60.61,7.67C1799.72-1206.09,1802.47-1205.33,1805.21-1204.51
		 M1678.12-732.49c-0.85-0.21-1.7-0.43-2.55-0.65c-2.97-0.77-5.95-1.57-8.92-2.45l233.77-415.34c2.3,2.08,4.53,4.21,6.73,6.36
		c0.62,0.61,1.24,1.21,1.85,1.83c1.62,1.61,3.19,3.25,4.76,4.89c35.69,37.87,57.91,85.9,64.52,136.38c0.02,0.11,0.03,0.23,0.04,0.34
		c0.45,3.43,0.81,6.87,1.11,10.32c0.08,0.96,0.16,1.92,0.23,2.89c0.18,2.34,0.32,4.69,0.42,7.05c0.08,1.77,0.14,3.54,0.19,5.31
		c0.03,1.11,0.06,2.21,0.07,3.32c0.03,2.87,0,5.73-0.08,8.6c-0.01,0.61-0.03,1.22-0.05,1.83c-0.11,3.26-0.27,6.52-0.51,9.77
		c-0.01,0.1-0.02,0.21-0.03,0.31c-2.12,28.26-9.15,56.07-20.86,82.1c-0.07,0.16-0.14,0.32-0.22,0.48c-1.39,3.06-2.84,6.09-4.35,9.1
		c-0.17,0.35-0.36,0.7-0.54,1.04c-1.52,2.98-3.09,5.94-4.73,8.87c-1.91,3.4-3.92,6.74-5.97,10.02c-0.68,1.09-1.4,2.14-2.09,3.21
		l-0.14,0.21c-0.03,0.04-0.07,0.08-0.09,0.12c-12.4,19.06-27.26,36.1-44.08,50.78c-0.06,0.05-0.11,0.1-0.17,0.15
		c-2.61,2.27-5.27,4.47-7.96,6.63c-0.4,0.31-0.79,0.63-1.19,0.94c-2.43,1.91-4.89,3.77-7.39,5.59c-0.73,0.53-1.47,1.05-2.21,1.58
		c-2.23,1.59-4.49,3.14-6.77,4.65c-1.08,0.71-2.16,1.4-3.24,2.09c-1.56,0.99-3.12,1.96-4.7,2.92c-1.89,1.14-3.79,2.26-5.7,3.36
		c-1.02,0.58-2.05,1.15-3.08,1.72c-2.52,1.38-5.05,2.72-7.6,4.02c-0.68,0.34-1.35,0.68-2.04,1.02c-2.92,1.45-5.87,2.83-8.85,4.16
		c-0.45,0.2-0.9,0.4-1.35,0.6c-3.17,1.39-6.36,2.71-9.59,3.96c-0.36,0.14-0.73,0.29-1.09,0.43c-3.22,1.24-6.48,2.4-9.75,3.5
		c-0.43,0.14-0.86,0.29-1.29,0.44c-2.1,0.69-4.2,1.35-6.31,1.98c-1.76,0.52-3.51,1.04-5.28,1.53
		c-37.46,10.36-77.38,11.87-116.3,3.56C1682.54-731.45,1680.33-731.94,1678.12-732.49 M2157.64-548.66
		c-1.49,0.71-2.99,1.41-4.5,2.08c-3.1,1.38-6.21,2.72-9.34,3.96c-0.08,0.03-0.17,0.07-0.25,0.1
		c-85.5,33.77-184.84,16.76-254.25-46.31c-0.35-0.32-0.7-0.64-1.05-0.96c-2.41-2.22-4.78-4.51-7.12-6.84
		c-0.65-0.65-1.31-1.29-1.95-1.95c-2.1-2.14-4.16-4.35-6.19-6.59c-0.68-0.75-1.38-1.47-2.05-2.23c-2.61-2.94-5.18-5.94-7.67-9.04
		c-1.43-1.76-2.82-3.55-4.19-5.35c-20.55-27.01-35.35-58.18-43.23-91.05c2.79-0.87,5.55-1.81,8.32-2.77
		c0.74-0.26,1.48-0.49,2.22-0.75c0.68-0.24,1.37-0.45,2.05-0.7c1.75-0.64,3.47-1.35,5.2-2.03c1.11-0.43,2.22-0.85,3.32-1.29
		c2.66-1.07,5.3-2.19,7.92-3.34c0.53-0.23,1.06-0.47,1.58-0.7c38.07-16.99,71.31-42.39,97.65-74.61c0.54-0.66,1.08-1.34,1.61-2.01
		c1.96-2.45,3.89-4.92,5.77-7.44c0.13-0.17,0.26-0.35,0.39-0.52l208.71,258.88C2159.62-549.62,2158.64-549.13,2157.64-548.66
		 M2264.65-893.26c0.24,0.42,0.49,0.84,0.73,1.26c46.89,81.2,42.44,181.88-8.68,258.26c-0.07,0.09-0.13,0.19-0.2,0.28
		c-1.86,2.78-3.82,5.51-5.81,8.23c-1,1.34-2.02,2.68-3.04,4.01c-0.66,0.85-1.33,1.7-2,2.55l-244.57-303.36
		c0.16-0.92,0.28-1.85,0.44-2.77c0.24-1.41,0.46-2.81,0.68-4.22c0.5-3.25,0.94-6.49,1.32-9.74c0.04-0.37,0.09-0.73,0.13-1.09
		c2.19-19.37,2.29-38.85,0.22-58.3c-0.25-2.4-0.59-4.79-0.91-7.19c-0.16-1.18-0.27-2.37-0.45-3.56c24.92-5.32,50.14-6.61,74.82-4.18
		c64.22,6.32,124.75,37.87,166.59,89.78c2.5,3.09,4.88,6.23,7.2,9.41c0.61,0.83,1.18,1.67,1.77,2.51c1.74,2.45,3.46,4.92,5.1,7.42
		c0.51,0.78,1.01,1.56,1.51,2.34C2261.27-898.86,2263-896.08,2264.65-893.26 M2270.4-929.8c-2.28-3.09-4.62-6.15-7.05-9.16
		c-23.74-29.45-52.96-52.93-85.35-69.76c-54.58-28.36-118.23-37.76-180.22-24.66c-4.23-17.42-10.2-34.28-17.69-50.37
		c-0.3-0.64-0.59-1.28-0.9-1.92c-1-2.11-2.03-4.21-3.09-6.3c-0.93-1.83-1.87-3.65-2.83-5.46c-0.69-1.29-1.39-2.58-2.11-3.86
		c-1.37-2.46-2.77-4.91-4.22-7.33c-0.48-0.81-0.98-1.61-1.48-2.41c-1.71-2.79-3.46-5.57-5.27-8.3c-0.14-0.21-0.28-0.41-0.42-0.61
		c-22.74-34.08-53.6-63.46-91.69-84.9c-38.06-21.43-79.17-32.56-120.09-34.33c-0.27-0.01-0.54-0.03-0.81-0.04
		c-3.26-0.13-6.52-0.19-9.77-0.2c-0.97,0-1.93-0.01-2.9,0c-2.81,0.02-5.6,0.08-8.4,0.19c-1.49,0.05-2.97,0.12-4.46,0.21
		c-1.96,0.11-3.91,0.24-5.86,0.39c-2.43,0.18-4.86,0.4-7.28,0.65c-0.65,0.07-1.3,0.14-1.94,0.21c-21.42,2.35-42.63,7.2-63.14,14.69
		c-16.56,6.04-32.36,13.72-47.26,22.76c-1.35,0.82-2.71,1.64-4.05,2.49c-1.35,0.85-2.69,1.72-4.03,2.59
		c-2.34,1.53-4.66,3.09-6.96,4.7c-0.74,0.52-1.48,1.05-2.21,1.59c-2.77,1.98-5.51,3.99-8.2,6.08c-0.01,0-0.02,0.01-0.03,0.02
		c-21.44,16.6-40.61,36.68-56.62,59.95c-0.16,0.23-0.31,0.46-0.46,0.68c-2.08,3.04-4.11,6.14-6.07,9.29
		c-0.24,0.37-0.45,0.74-0.68,1.11c-1.95,3.16-3.86,6.35-5.7,9.62c-1.84,3.26-3.58,6.55-5.26,9.85c-0.2,0.39-0.41,0.78-0.6,1.17
		c-1.67,3.31-3.26,6.65-4.78,10c-0.12,0.26-0.23,0.52-0.35,0.78c-13.05,29.02-20.54,59.37-22.82,89.74
		c-0.07,0.88-0.14,1.76-0.2,2.64c-0.18,2.82-0.32,5.64-0.41,8.46c-0.06,1.56-0.1,3.12-0.13,4.68c-0.03,1.8-0.03,3.6-0.02,5.4
		c0.01,2.69,0.05,5.39,0.14,8.09v0.03c0.47,14.54,2.06,29.09,4.92,43.51c4.23,21.36,11.07,41.97,20.14,61.45
		c0.31,0.66,0.61,1.32,0.92,1.98c0.98,2.06,1.98,4.12,3.01,6.16c0.95,1.88,1.92,3.74,2.91,5.6c0.68,1.28,1.38,2.55,2.08,3.81
		c1.38,2.48,2.79,4.94,4.25,7.37c0.48,0.79,0.96,1.58,1.45,2.37c1.72,2.81,3.48,5.6,5.3,8.35c0.12,0.18,0.25,0.37,0.37,0.55
		c22.75,34.1,53.61,63.5,91.72,84.94c27.29,15.36,56.14,25.4,85.36,30.53c0.14,0.03,0.29,0.05,0.44,0.08
		c7.48,1.3,14.97,2.28,22.48,2.94c0.48,0.04,0.95,0.07,1.43,0.11c3.01,0.25,6.03,0.44,9.04,0.59c0.92,0.04,1.84,0.09,2.76,0.13
		c3.11,0.12,6.22,0.19,9.32,0.2c0.39,0,0.79,0.03,1.19,0.03c1.08,0,2.16-0.06,3.24-0.07c2.1-0.03,4.2-0.06,6.3-0.14
		c1.98-0.07,3.96-0.18,5.94-0.29c1.21-0.07,2.42-0.15,3.63-0.24c12.34-0.87,24.64-2.58,36.81-5.15
		c8.65,35.79,24.72,69.75,47.05,99.27c1.67,2.2,3.36,4.37,5.09,6.52c2.28,2.83,4.62,5.58,6.99,8.29c0.49,0.56,0.98,1.12,1.47,1.67
		c5.05,5.68,10.28,11.09,15.7,16.24l0.33,0.32c14.5,13.75,30.26,25.61,46.93,35.57c0.15,0.09,0.31,0.18,0.46,0.27
		c6.23,3.7,12.58,7.13,19.04,10.3c1.03,0.51,2.07,1.01,3.1,1.5c2.37,1.12,4.75,2.21,7.14,3.26c1.96,0.87,3.95,1.69,5.94,2.51
		c1.08,0.44,2.17,0.89,3.25,1.31c16.05,6.37,32.74,11.27,49.91,14.46c16.39,3.05,32.93,4.56,49.41,4.56
		c14.91,0,29.76-1.25,44.41-3.69c0.46-0.08,0.93-0.17,1.39-0.25c2.79-0.48,5.58-1,8.35-1.57c1.13-0.23,2.25-0.47,3.38-0.72
		c2.15-0.47,4.29-0.97,6.43-1.49c1.29-0.32,2.58-0.62,3.87-0.95c2.54-0.66,5.08-1.37,7.61-2.1c2.13-0.62,4.25-1.28,6.36-1.95
		c1.38-0.44,2.76-0.87,4.13-1.33c1.89-0.64,3.76-1.3,5.64-1.97c1.15-0.42,2.3-0.84,3.45-1.28c1.99-0.75,3.97-1.5,5.95-2.3
		c0.56-0.23,1.11-0.47,1.67-0.7c4.31-1.78,8.58-3.67,12.83-5.68c0.65-0.31,1.3-0.6,1.95-0.92c2.11-1.02,4.2-2.08,6.28-3.16
		c0.76-0.39,1.52-0.79,2.27-1.19c15-7.94,29.49-17.36,43.18-28.41c56.03-45.17,91.11-109.45,98.78-181.01
		c7.24-67.49-10.72-133.82-50.68-188.14C2270.67-929.44,2270.54-929.62,2270.4-929.8"/>
	<path class="st0" d="M-2198.98-547.63c-120.03,0-229.67-62.75-290.91-165.11h92.55c50.26,57.29,122.22,90.03,198.36,90.03
		c145.51,0,263.89-118.38,263.89-263.89c0-145.51-118.38-263.89-263.89-263.89c-127.39,0-237.13,92.43-259.65,216.74h-76.05
		c23.19-167.32,165.16-291.83,335.71-291.83c186.91,0,338.98,152.06,338.98,338.98C-1860-699.69-2012.07-547.63-2198.98-547.63
		 M-2666.67-806.11h603.27v68.42h-328.2h-119.52h-155.55V-806.11z M-2117.9-831.05h-90.15c-16.65-13.54-26.48-34.03-26.48-55.55
		c0-39.46,32.1-71.56,71.55-71.56c39.45,0,71.55,32.1,71.55,71.56C-2091.42-865.08-2101.25-844.6-2117.9-831.05 M-2050.93-831.05
		h-33.23c11.33-16.1,17.7-35.47,17.7-55.55c0-53.21-43.29-96.5-96.5-96.5c-48.56,0-88.84,36.06-95.51,82.81
		c-22.37-20.76-52.21-33.46-84.55-33.46h-90.15c22.19-110.29,120.39-191.79,234.2-191.79c131.75,0,238.94,107.19,238.94,238.95
		c0,131.76-107.19,238.95-238.94,238.95c-61.27,0-119.54-23.44-163.71-65.08h311.76c6.89,0,12.47-5.59,12.47-12.47v-93.37
		C-2038.46-825.47-2044.04-831.05-2050.93-831.05 M-2666.67-908.81h117.95H-2448h104.97c46.78,0,87.07,33.21,97.12,77.75h-195.13
		h-102.76h-122.87V-908.81z M-2198.98-1250.53c-90.79,0-177.81,33.76-245.01,95.05c-63.94,58.32-104.78,136.69-115.84,221.72
		h-119.32c-6.89,0-12.47,5.58-12.47,12.47v102.7v93.37c0,6.89,5.59,12.47,12.47,12.47h160.59
		c64.05,117.42,185.77,190.06,319.57,190.06c200.67,0,363.93-163.26,363.93-363.93
		C-1835.06-1087.27-1998.31-1250.53-2198.98-1250.53"/>
	<path class="st0" d="M275.66-654.59c-10.65,0-19.31-8.66-19.31-19.31c0-10.65,8.66-19.3,19.31-19.3c10.65,0,19.31,8.66,19.31,19.3
		C294.97-663.25,286.31-654.59,275.66-654.59 M275.66-718.15c-24.4,0-44.26,19.85-44.26,44.25c0,24.41,19.85,44.26,44.26,44.26
		c24.4,0,44.26-19.85,44.26-44.26C319.91-698.3,300.06-718.15,275.66-718.15"/>
	<path class="st0" d="M748.41-654.59c-10.65,0-19.31-8.66-19.31-19.31c0-10.65,8.66-19.3,19.31-19.3c10.65,0,19.31,8.66,19.31,19.3
		C767.72-663.25,759.06-654.59,748.41-654.59 M748.41-718.15c-24.4,0-44.26,19.85-44.26,44.25c0,24.41,19.85,44.26,44.26,44.26
		c24.4,0,44.26-19.85,44.26-44.26C792.66-698.3,772.81-718.15,748.41-718.15"/>
	<path class="st0" d="M912.06-702.97c0,9.15-7.45,16.6-16.6,16.6h-45.31c-6.18-50.66-49.43-90.04-101.74-90.04
		c-52.31,0-95.55,39.38-101.73,90.04H377.39c-6.18-50.66-49.43-90.04-101.73-90.04c-52.31,0-95.56,39.38-101.74,90.04h-43.27
		c-13.93,0-25.27-11.33-25.27-25.26v-313.84c0-13.93,11.33-25.26,25.27-25.26H682.3c12.4,0,23.55,8.3,27.1,20.18l37.65,125.85
		c1.13,3.78,3.98,6.8,7.69,8.15l116.68,42.43c8.07,2.93,13.49,10.67,13.49,19.26v57.02c0,5.65,3.79,10.59,9.24,12.05l5.61,1.5
		c7.24,1.94,12.3,8.54,12.3,16.03V-702.97z M748.41-596.32c-42.77,0-77.57-34.8-77.57-77.58c0-42.77,34.8-77.57,77.57-77.57
		c42.78,0,77.57,34.8,77.57,77.57C825.98-631.12,791.18-596.32,748.41-596.32 M275.66-596.32c-42.78,0-77.58-34.8-77.58-77.58
		c0-42.77,34.8-77.57,77.58-77.57c42.77,0,77.57,34.8,77.57,77.57C353.23-631.12,318.43-596.32,275.66-596.32 M384.37-1096.12h19.58
		h80.76h21.24v20.43H384.37V-1096.12z M416.42-1163.96c0-7.12,5.8-12.92,12.92-12.92h29.97c7.12,0,12.92,5.8,12.92,12.92v42.89
		h-55.81V-1163.96z M909.86-787.24v-47.64c0-19.04-12.02-36.2-29.91-42.7l-110.79-40.29l-35.85-119.85
		c-6.69-22.36-27.66-37.98-51.01-37.98H530.9v-32.9c0-6.89-5.59-12.47-12.47-12.47h-21.24v-42.89c0-20.88-16.99-37.87-37.87-37.87
		h-29.97c-20.88,0-37.87,16.99-37.87,37.87v42.89h-19.58c-6.89,0-12.47,5.58-12.47,12.47v32.9H130.65
		c-27.69,0-50.21,22.53-50.21,50.21v313.84c0,27.69,22.52,50.21,50.21,50.21h43.27c6.18,50.67,49.43,90.05,101.74,90.05
		c52.31,0,95.56-39.38,101.73-90.05h269.29c6.18,50.67,49.42,90.05,101.73,90.05c52.31,0,95.56-39.38,101.74-90.05h45.31
		c22.91,0,41.55-18.64,41.55-41.55v-45.29C937.01-765.74,926.02-781.26,909.86-787.24"/>
	<path class="st0" d="M576.81-999.43h101.16l26.93,98.2H576.81V-999.43z M564.34-876.28h156.92c3.89,0,7.56-1.81,9.92-4.91
		c2.36-3.1,3.14-7.11,2.11-10.86l-33.77-123.15c-1.49-5.42-6.41-9.18-12.03-9.18H564.34c-6.89,0-12.47,5.58-12.47,12.47v123.15
		C551.87-881.86,557.45-876.28,564.34-876.28"/>
	<path class="st0" d="M151.74-999.43H299.6v98.21H151.74V-999.43z M139.26-876.28h172.81c6.89,0,12.47-5.58,12.47-12.47v-123.15
		c0-6.89-5.59-12.47-12.47-12.47H139.26c-6.89,0-12.47,5.58-12.47,12.47v123.15C126.79-881.86,132.37-876.28,139.26-876.28"/>
	<path class="st0" d="M364.28-999.43h147.86v98.21H364.28V-999.43z M351.8-876.28h172.81c6.89,0,12.47-5.58,12.47-12.47v-123.15
		c0-6.89-5.58-12.47-12.47-12.47H351.8c-6.89,0-12.47,5.58-12.47,12.47v123.15C339.33-881.86,344.91-876.28,351.8-876.28"/>
	<polygon class="st0" points="464.87,-978.93 454.04,-972.68 454.04,-985.18 429.09,-985.18 429.09,-972.68 418.26,-978.93 
		405.79,-957.32 416.62,-951.07 405.79,-944.82 418.26,-923.21 429.09,-929.47 429.09,-916.96 454.04,-916.96 454.04,-929.47 
		464.87,-923.21 477.35,-944.82 466.52,-951.07 477.35,-957.32 	"/>
	<rect x="127.87" y="-842.5" class="st0" width="723.76" height="24.95"/>
	<path class="st0" d="M778.28,2178.82c0,27.01-21.98,48.99-48.99,48.99H193.91c-27.01,0-48.99-21.98-48.99-48.99V1534.1
		c0-27.01,21.97-48.99,48.99-48.99h18.88v627.23c0,6.89,5.58,12.48,12.47,12.48h472.66c6.89,0,12.48-5.59,12.48-12.48v-627.23h18.88
		c27.01,0,48.99,21.98,48.99,48.99V2178.82z M293,1466.3h25.24c5.87,0,10.94-4.09,12.19-9.82c4.45-20.47,22.9-35.33,43.89-35.33
		h174.56c20.98,0,39.44,14.86,43.89,35.33c1.25,5.73,6.32,9.82,12.19,9.82h25.24c7.65,0,13.87,6.22,13.87,13.86v27.6
		c0,7.65-6.22,13.87-13.87,13.87H293c-7.65,0-13.87-6.22-13.87-13.87v-27.6C279.14,1472.52,285.35,1466.3,293,1466.3
		 M237.74,1484.48h16.45v23.28c0,21.4,17.41,38.82,38.81,38.82H630.2c21.4,0,38.81-17.41,38.81-38.82v-22.65h16.44v614.76H237.74
		V1484.48z M729.29,1460.16h-31.36H663.4c-6.8-11.26-19.12-18.81-33.2-18.81h-15.97c-10.14-26.68-36.18-45.16-65.35-45.16H374.32
		c-29.17,0-55.21,18.48-65.35,45.16H293c-13.82,0-25.94,7.28-32.82,18.18h-66.27c-1.45,0-2.82,0.3-4.11,0.75
		c-38.86,2.14-69.83,34.42-69.83,73.81v644.72c0,40.77,33.17,73.94,73.94,73.94h535.38c40.77,0,73.94-33.17,73.94-73.94V1534.1
		C803.23,1493.33,770.06,1460.16,729.29,1460.16"/>
	<path class="st0" d="M608.87,1722.36H508.53c-5.61,0-10.53,3.75-12.02,9.15l-14.02,50.72l-38.41-145.95
		c-1.37-5.2-5.92-8.94-11.29-9.27c-5.32-0.33-10.35,2.81-12.35,7.8l-35.74,89.09h-73.1c-6.89,0-12.47,5.58-12.47,12.48
		c0,6.89,5.58,12.47,12.47,12.47h81.53c5.1,0,9.68-3.1,11.58-7.83l24.84-61.92l40.58,154.19c1.44,5.45,6.35,9.26,11.98,9.3h0.08
		c5.6,0,10.53-3.74,12.02-9.15l23.81-86.13h90.85c6.89,0,12.47-5.59,12.47-12.47C621.35,1727.95,615.76,1722.36,608.87,1722.36"/>
	<path class="st0" d="M608.87,1969.42H311.6c-6.89,0-12.47,5.59-12.47,12.47c0,6.89,5.58,12.47,12.47,12.47h297.28
		c6.89,0,12.47-5.58,12.47-12.47C621.35,1975,615.76,1969.42,608.87,1969.42"/>
	<path class="st0" d="M438.28,1460.65h45.78c6.89,0,12.47-5.58,12.47-12.47s-5.58-12.47-12.47-12.47h-45.78
		c-6.89,0-12.47,5.58-12.47,12.47S431.39,1460.65,438.28,1460.65"/>
	<path class="st0" d="M-2518.01,311.48h25.98c6.89,0,12.47-5.58,12.47-12.47v-25.98h21.25v25.98c0,6.89,5.58,12.47,12.47,12.47
		h25.98v21.25h-25.98c-6.89,0-12.47,5.59-12.47,12.47v25.98h-21.25v-25.98c0-6.89-5.59-12.47-12.47-12.47h-25.98V311.48z
		 M-2530.49,357.68h25.98v25.98c0,6.89,5.58,12.47,12.47,12.47h46.2c6.89,0,12.47-5.58,12.47-12.47v-25.98h25.98
		c6.89,0,12.48-5.58,12.48-12.47v-46.2c0-6.89-5.59-12.47-12.48-12.47h-25.98v-25.98c0-6.89-5.58-12.48-12.47-12.48h-46.2
		c-6.89,0-12.47,5.59-12.47,12.48v25.98h-25.98c-6.89,0-12.47,5.58-12.47,12.47v46.2C-2542.96,352.1-2537.37,357.68-2530.49,357.68"
		/>
	<path class="st0" d="M-2586.63,718.51h-17.55v-48.97h17.55V718.51z M-2574.16,644.59h-42.5c-6.89,0-12.47,5.59-12.47,12.47v73.92
		c0,6.89,5.58,12.47,12.47,12.47h42.5c6.89,0,12.47-5.59,12.47-12.47v-73.92C-2561.68,650.18-2567.27,644.59-2574.16,644.59"/>
	<path class="st0" d="M-2586.63,612.25h-17.55v-48.97h17.55V612.25z M-2574.16,538.33h-42.5c-6.89,0-12.47,5.59-12.47,12.47v73.92
		c0,6.89,5.58,12.47,12.47,12.47h42.5c6.89,0,12.47-5.59,12.47-12.47V550.8C-2561.68,543.91-2567.27,538.33-2574.16,538.33"/>
	<path class="st0" d="M-2502.31,718.51h-17.56v-48.97h17.56V718.51z M-2489.84,644.59h-42.51c-6.89,0-12.47,5.59-12.47,12.47v73.92
		c0,6.89,5.58,12.47,12.47,12.47h42.51c6.89,0,12.47-5.59,12.47-12.47v-73.92C-2477.36,650.18-2482.95,644.59-2489.84,644.59"/>
	<path class="st0" d="M-2586.63,505.99h-17.55v-48.97h17.55V505.99z M-2574.16,432.07h-42.5c-6.89,0-12.47,5.59-12.47,12.47v73.92
		c0,6.89,5.58,12.47,12.47,12.47h42.5c6.89,0,12.47-5.58,12.47-12.47v-73.92C-2561.68,437.65-2567.27,432.07-2574.16,432.07"/>
	<path class="st0" d="M-2502.31,612.25h-17.56v-48.97h17.56V612.25z M-2489.84,538.33h-42.51c-6.89,0-12.47,5.59-12.47,12.47v73.92
		c0,6.89,5.58,12.47,12.47,12.47h42.51c6.89,0,12.47-5.59,12.47-12.47V550.8C-2477.36,543.91-2482.95,538.33-2489.84,538.33"/>
	<path class="st0" d="M-2418,612.25h-17.55v-48.97h17.55V612.25z M-2405.52,538.33h-42.5c-6.89,0-12.47,5.59-12.47,12.47v73.92
		c0,6.89,5.58,12.47,12.47,12.47h42.5c6.89,0,12.47-5.59,12.47-12.47V550.8C-2393.05,543.91-2398.63,538.33-2405.52,538.33"/>
	<path class="st0" d="M-2333.68,505.99h-17.55v-48.97h17.55V505.99z M-2321.21,432.07h-42.5c-6.89,0-12.47,5.59-12.47,12.47v73.92
		c0,6.89,5.58,12.47,12.47,12.47h42.5c6.89,0,12.47-5.58,12.47-12.47v-73.92C-2308.73,437.65-2314.32,432.07-2321.21,432.07"/>
	<path class="st0" d="M-2333.68,612.25h-17.55v-48.97h17.55V612.25z M-2321.21,538.33h-42.5c-6.89,0-12.47,5.59-12.47,12.47v73.92
		c0,6.89,5.58,12.47,12.47,12.47h42.5c6.89,0,12.47-5.59,12.47-12.47V550.8C-2308.73,543.91-2314.32,538.33-2321.21,538.33"/>
	<path class="st0" d="M-2333.68,718.51h-17.55v-48.97h17.55V718.51z M-2321.21,644.59h-42.5c-6.89,0-12.47,5.59-12.47,12.47v73.92
		c0,6.89,5.58,12.47,12.47,12.47h42.5c6.89,0,12.47-5.59,12.47-12.47v-73.92C-2308.73,650.18-2314.32,644.59-2321.21,644.59"/>
	<path class="st0" d="M-2418,718.51h-17.55v-48.97h17.55V718.51z M-2405.52,644.59h-42.5c-6.89,0-12.47,5.59-12.47,12.47v73.92
		c0,6.89,5.58,12.47,12.47,12.47h42.5c6.89,0,12.47-5.59,12.47-12.47v-73.92C-2393.05,650.18-2398.63,644.59-2405.52,644.59"/>
	<path class="st0" d="M-2418,505.99h-17.55v-48.97h17.55V505.99z M-2405.52,432.07h-42.5c-6.89,0-12.47,5.59-12.47,12.47v73.92
		c0,6.89,5.58,12.47,12.47,12.47h42.5c6.89,0,12.47-5.58,12.47-12.47v-73.92C-2393.05,437.65-2398.63,432.07-2405.52,432.07"/>
	<path class="st0" d="M-2502.31,505.99h-17.56v-48.97h17.56V505.99z M-2489.84,432.07h-42.51c-6.89,0-12.47,5.59-12.47,12.47v73.92
		c0,6.89,5.58,12.47,12.47,12.47h42.51c6.89,0,12.47-5.58,12.47-12.47v-73.92C-2477.36,437.65-2482.95,432.07-2489.84,432.07"/>
	<path class="st0" d="M-2055.11,649.1h9v14.78h-9V649.1z M-2067.58,688.83h33.95c6.89,0,12.47-5.58,12.47-12.47v-39.73
		c0-6.89-5.58-12.47-12.47-12.47h-33.95c-6.89,0-12.47,5.59-12.47,12.47v39.73C-2080.06,683.24-2074.47,688.83-2067.58,688.83"/>
	<path class="st0" d="M-1983.44,496.63h9v14.78h-9V496.63z M-1995.91,536.37h33.95c6.89,0,12.47-5.59,12.47-12.47v-39.73
		c0-6.89-5.58-12.47-12.47-12.47h-33.95c-6.89,0-12.47,5.58-12.47,12.47v39.73C-2008.38,530.78-2002.8,536.37-1995.91,536.37"/>
	<path class="st0" d="M-1911.76,496.63h9v14.78h-9V496.63z M-1924.23,536.37h33.95c6.89,0,12.47-5.59,12.47-12.47v-39.73
		c0-6.89-5.58-12.47-12.47-12.47h-33.95c-6.89,0-12.47,5.58-12.47,12.47v39.73C-1936.71,530.78-1931.12,536.37-1924.23,536.37"/>
	<path class="st0" d="M-2198.46,496.63h9v14.78h-9V496.63z M-2210.94,536.37h33.95c6.89,0,12.47-5.59,12.47-12.47v-39.73
		c0-6.89-5.58-12.47-12.47-12.47h-33.95c-6.89,0-12.47,5.58-12.47,12.47v39.73C-2223.41,530.78-2217.83,536.37-2210.94,536.37"/>
	<path class="st0" d="M-2198.46,572.87h9v14.78h-9V572.87z M-2210.94,612.6h33.95c6.89,0,12.47-5.58,12.47-12.47v-39.73
		c0-6.89-5.58-12.47-12.47-12.47h-33.95c-6.89,0-12.47,5.59-12.47,12.47v39.73C-2223.41,607.01-2217.83,612.6-2210.94,612.6"/>
	<path class="st0" d="M-1860,712.74h-386.24V424.67H-1860V712.74z M-2271.19,778.58h-395.48V220.28h395.48V412.2v313.01V778.58z
		 M-1847.53,399.73h-398.71V207.81c0-6.89-5.59-12.47-12.47-12.47h-420.43c-6.89,0-12.48,5.58-12.48,12.47v583.24
		c0,6.89,5.59,12.47,12.48,12.47h420.43c6.89,0,12.47-5.59,12.47-12.47v-53.36h398.71c6.89,0,12.47-5.59,12.47-12.47V412.2
		C-1835.06,405.31-1840.64,399.73-1847.53,399.73"/>
	<path class="st0" d="M-1983.44,572.87h9v14.78h-9V572.87z M-1995.91,612.6h33.95c6.89,0,12.47-5.58,12.47-12.47v-39.73
		c0-6.89-5.58-12.47-12.47-12.47h-33.95c-6.89,0-12.47,5.59-12.47,12.47v39.73C-2008.38,607.01-2002.8,612.6-1995.91,612.6"/>
	<path class="st0" d="M-2055.11,572.87h9v14.78h-9V572.87z M-2067.58,612.6h33.95c6.89,0,12.47-5.58,12.47-12.47v-39.73
		c0-6.89-5.58-12.47-12.47-12.47h-33.95c-6.89,0-12.47,5.59-12.47,12.47v39.73C-2080.06,607.01-2074.47,612.6-2067.58,612.6"/>
	<path class="st0" d="M-2198.46,649.1h9v14.78h-9V649.1z M-2210.94,688.83h33.95c6.89,0,12.47-5.58,12.47-12.47v-39.73
		c0-6.89-5.58-12.47-12.47-12.47h-33.95c-6.89,0-12.47,5.59-12.47,12.47v39.73C-2223.41,683.24-2217.83,688.83-2210.94,688.83"/>
	<path class="st0" d="M-2126.78,496.63h9v14.78h-9V496.63z M-2139.26,536.37h33.95c6.89,0,12.47-5.59,12.47-12.47v-39.73
		c0-6.89-5.59-12.47-12.47-12.47h-33.95c-6.89,0-12.47,5.58-12.47,12.47v39.73C-2151.73,530.78-2146.15,536.37-2139.26,536.37"/>
	<path class="st0" d="M-2126.78,649.1h9v14.78h-9V649.1z M-2139.26,688.83h33.95c6.89,0,12.47-5.58,12.47-12.47v-39.73
		c0-6.89-5.59-12.47-12.47-12.47h-33.95c-6.89,0-12.47,5.59-12.47,12.47v39.73C-2151.73,683.24-2146.15,688.83-2139.26,688.83"/>
	<path class="st0" d="M-1911.76,649.1h9v14.78h-9V649.1z M-1924.23,688.83h33.95c6.89,0,12.47-5.58,12.47-12.47v-39.73
		c0-6.89-5.58-12.47-12.47-12.47h-33.95c-6.89,0-12.47,5.59-12.47,12.47v39.73C-1936.71,683.24-1931.12,688.83-1924.23,688.83"/>
	<path class="st0" d="M-1983.44,649.1h9v14.78h-9V649.1z M-1995.91,688.83h33.95c6.89,0,12.47-5.58,12.47-12.47v-39.73
		c0-6.89-5.58-12.47-12.47-12.47h-33.95c-6.89,0-12.47,5.59-12.47,12.47v39.73C-2008.38,683.24-2002.8,688.83-1995.91,688.83"/>
	<path class="st0" d="M-2055.11,496.63h9v14.78h-9V496.63z M-2067.58,536.37h33.95c6.89,0,12.47-5.59,12.47-12.47v-39.73
		c0-6.89-5.58-12.47-12.47-12.47h-33.95c-6.89,0-12.47,5.58-12.47,12.47v39.73C-2080.06,530.78-2074.47,536.37-2067.58,536.37"/>
	<path class="st0" d="M-1911.76,572.87h9v14.78h-9V572.87z M-1924.23,612.6h33.95c6.89,0,12.47-5.58,12.47-12.47v-39.73
		c0-6.89-5.58-12.47-12.47-12.47h-33.95c-6.89,0-12.47,5.59-12.47,12.47v39.73C-1936.71,607.01-1931.12,612.6-1924.23,612.6"/>
	<path class="st0" d="M-2126.78,572.87h9v14.78h-9V572.87z M-2139.26,612.6h33.95c6.89,0,12.47-5.58,12.47-12.47v-39.73
		c0-6.89-5.59-12.47-12.47-12.47h-33.95c-6.89,0-12.47,5.59-12.47,12.47v39.73C-2151.73,607.01-2146.15,612.6-2139.26,612.6"/>
	<path class="st0" d="M272.23,722.54c-18.34,0-33.26-14.92-33.26-33.26c0-18.34,14.92-33.26,33.26-33.26
		c18.34,0,33.26,14.92,33.26,33.26C305.49,707.62,290.58,722.54,272.23,722.54 M272.23,631.07c-32.1,0-58.21,26.11-58.21,58.21
		c0,32.09,26.11,58.2,58.21,58.2c32.1,0,58.21-26.11,58.21-58.2C330.44,657.19,304.33,631.07,272.23,631.07"/>
	<path class="st0" d="M705.5,722.54c-18.34,0-33.26-14.92-33.26-33.26c0-18.34,14.92-33.26,33.26-33.26
		c18.34,0,33.26,14.92,33.26,33.26C738.75,707.62,723.84,722.54,705.5,722.54 M705.5,631.07c-32.1,0-58.21,26.11-58.21,58.21
		c0,32.09,26.11,58.2,58.21,58.2c32.1,0,58.21-26.11,58.21-58.2C763.7,657.19,737.59,631.07,705.5,631.07"/>
	<path class="st0" d="M160.75,353.5c0-4.4,3.58-7.98,7.98-7.98h178.12c4.4,0,7.99,3.58,7.99,7.98V454.6c0,4.4-3.58,7.98-7.99,7.98
		H168.74c-4.4,0-7.98-3.58-7.98-7.98V353.5z M168.74,487.53h178.12c18.16,0,32.93-14.77,32.93-32.93V353.5
		c0-18.16-14.77-32.93-32.93-32.93H168.74c-18.16,0-32.93,14.77-32.93,32.93V454.6C135.8,472.76,150.58,487.53,168.74,487.53"/>
	<path class="st0" d="M618.08,349.29c0-2.08,1.69-3.77,3.77-3.77h70.29c1.08,0,2.12,0.46,2.84,1.28l96.52,109.52
		c1.33,1.51,1.07,3.03,0.61,4.05c-0.45,1.01-1.43,2.22-3.44,2.22H621.85c-2.08,0-3.77-1.69-3.77-3.77V349.29z M621.85,487.53h166.81
		c11.44,0,21.47-6.47,26.17-16.9c4.71-10.42,2.94-22.23-4.63-30.81L713.69,330.3c-5.45-6.19-13.31-9.73-21.55-9.73h-70.29
		c-15.84,0-28.72,12.88-28.72,28.72v109.52C593.13,474.65,606.02,487.53,621.85,487.53"/>
	<path class="st0" d="M912.06,689.88c0,10.04-8.17,18.22-18.22,18.22h-72.09c0.99-6.13,1.52-12.41,1.52-18.82
		c0-64.94-52.84-117.78-117.78-117.78s-117.78,52.84-117.78,117.78c0,6.4,0.53,12.69,1.52,18.82H388.5
		c0.99-6.13,1.52-12.41,1.52-18.82c0-64.94-52.84-117.78-117.78-117.78c-64.94,0-117.78,52.84-117.78,117.78
		c0,6.4,0.53,12.69,1.52,18.82h-37.79c-7.06,0-12.8-5.74-12.8-12.8V331.84c0-20.99,17.08-38.07,38.07-38.07h304.49h77.02h143.69
		c23.8,0,46.79,9.95,63.08,27.3l121.15,129.05c8.94,9.52,15.73,21.13,19.64,33.58l35.5,112.86c2.67,8.49,4.03,17.31,4.03,26.21
		V689.88z M705.49,782.11c-51.19,0-92.83-41.64-92.83-92.83c0-51.19,41.65-92.83,92.83-92.83c51.19,0,92.83,41.65,92.83,92.83
		C798.33,740.47,756.68,782.11,705.49,782.11 M272.23,782.11c-51.19,0-92.83-41.64-92.83-92.83c0-51.19,41.64-92.83,92.83-92.83
		c51.19,0,92.84,41.65,92.84,92.83C365.07,740.47,323.42,782.11,272.23,782.11 M460.42,242.78c0-14.36,11.68-26.04,26.04-26.04
		c14.35,0,26.03,11.68,26.03,26.04v26.04h-52.08V242.78z M896.34,476.22c-5.03-16.01-13.77-30.94-25.25-43.17L749.94,304
		c-20.99-22.36-50.61-35.18-81.27-35.18H537.44v-26.04c0-28.11-22.87-50.99-50.98-50.99c-28.12,0-50.99,22.87-50.99,50.99v26.04
		H143.46c-34.75,0-63.02,28.27-63.02,63.02V695.3c0,20.81,16.93,37.75,37.75,37.75h44.73c17.41,43.33,59.84,74.01,109.31,74.01
		c49.48,0,91.91-30.69,109.32-74.01h214.63c17.41,43.33,59.83,74.01,109.32,74.01s91.9-30.69,109.31-74.01h79.03
		c23.8,0,43.16-19.36,43.16-43.16v-67.11c0-11.44-1.74-22.78-5.17-33.7L896.34,476.22z"/>
	<polygon class="st0" points="441.57,447.18 473.98,428.47 473.98,465.9 498.93,465.9 498.93,428.47 531.34,447.18 543.82,425.58 
		511.4,406.87 543.82,388.15 531.34,366.55 498.93,385.26 498.93,347.83 473.98,347.83 473.98,385.26 441.57,366.55 429.1,388.15 
		461.51,406.87 429.1,425.58 	"/>
	<rect x="128.09" y="520.96" class="st0" width="729.16" height="24.95"/>
	<path class="st0" d="M1491.42,224.94c0-26.12,21.25-47.37,47.37-47.37h257.93c26.12,0,47.37,21.25,47.37,47.37v139.93
		c0,26.12-21.25,47.37-47.37,47.37h-257.93c-26.12,0-47.37-21.25-47.37-47.37V224.94z M1844.09,470.94
		c0,26.12-21.25,47.37-47.37,47.37h-246.96v-37.77c0-6.89-5.59-12.47-12.47-12.47c-6.89,0-12.47,5.59-12.47,12.47v35.67
		c-19.32-5.98-33.39-24-33.39-45.26v-51.47c0.12,0.11,0.26,0.2,0.38,0.31c1.39,1.19,2.82,2.34,4.3,3.42
		c0.23,0.17,0.46,0.32,0.68,0.48c1.54,1.11,3.11,2.16,4.74,3.14c0.12,0.08,0.26,0.15,0.39,0.23c1.64,0.98,3.33,1.89,5.05,2.74
		c0.11,0.05,0.22,0.12,0.33,0.17c1.72,0.84,3.49,1.59,5.29,2.29c0.26,0.1,0.51,0.2,0.77,0.3c1.74,0.66,3.53,1.24,5.33,1.77
		c0.32,0.09,0.63,0.18,0.95,0.27c1.8,0.5,3.64,0.93,5.5,1.28c0.31,0.06,0.62,0.11,0.93,0.17c1.9,0.34,3.83,0.62,5.78,0.8
		c0.23,0.02,0.46,0.04,0.69,0.05c2.06,0.17,4.14,0.29,6.25,0.29h257.93c2.11,0,4.19-0.11,6.25-0.29c0.23-0.02,0.46-0.03,0.69-0.05
		c1.95-0.18,3.88-0.46,5.78-0.8c0.31-0.05,0.62-0.11,0.93-0.17c1.86-0.36,3.69-0.79,5.5-1.28c0.32-0.09,0.63-0.18,0.94-0.27
		c1.81-0.52,3.58-1.11,5.33-1.77c0.26-0.1,0.51-0.2,0.77-0.3c1.8-0.7,3.57-1.46,5.29-2.29c0.11-0.06,0.22-0.12,0.33-0.17
		c1.72-0.85,3.41-1.76,5.05-2.74c0.13-0.08,0.27-0.15,0.4-0.23c1.62-0.98,3.2-2.04,4.74-3.14c0.23-0.16,0.46-0.32,0.68-0.48
		c1.48-1.09,2.91-2.23,4.3-3.42c0.12-0.11,0.26-0.2,0.38-0.31V470.94z M1972.99,561.54c9.62,9.62,21.96,18.18,36.9,25.55
		c33.73,16.63,78.35,25.78,125.64,25.78c34.81,0,68.15-4.97,96.78-14.22v206.82c-28.56,10.42-63.11,15.81-96.78,15.81
		c-78.8,0-162.55-29.46-162.55-84.05V561.54z M2135.54,419.81c78.8,0,162.55,29.46,162.55,84.05c0,54.59-83.75,84.05-162.55,84.05
		c-78.8,0-162.55-29.46-162.55-84.05C1972.99,449.28,2056.74,419.81,2135.54,419.81 M2298.09,737.23c0,23.93-16.1,43.03-40.82,56.94
		v-205.1c0-0.05-0.01-0.1-0.01-0.15c1.31-0.61,2.64-1.21,3.93-1.85c14.94-7.37,27.28-15.93,36.9-25.55V737.23z M1524.81,541.89
		v208.6c0,50.45,41.04,91.5,91.5,91.5c50.45,0,91.5-41.05,91.5-91.5c0-32.02,26.05-58.06,58.07-58.06h182.17v44.8
		c0,34.49,21.39,63.27,61.85,83.21c33.73,16.63,78.35,25.79,125.64,25.79c42.04,0,81.94-7.25,113.99-20.54
		c0.08-0.04,0.17-0.07,0.25-0.11c3.92-1.63,7.74-3.33,11.41-5.14c40.46-19.95,61.85-48.72,61.85-83.21V503.87
		c0-34.49-21.39-63.27-61.85-83.22c-33.73-16.63-78.35-25.79-125.64-25.79c-47.29,0-91.91,9.16-125.64,25.79
		c-40.46,19.95-61.85,48.73-61.85,83.22v163.61h-182.17c-45.77,0-83.01,37.24-83.01,83.01c0,36.69-29.85,66.55-66.55,66.55
		c-36.69,0-66.55-29.86-66.55-66.55V543.26h246.96c39.88,0,72.32-32.44,72.32-72.32V364.87V224.94c0-39.88-32.44-72.32-72.32-72.32
		h-257.93c-39.88,0-72.32,32.44-72.32,72.32v139.93v106.07C1466.47,506.03,1491.6,535.36,1524.81,541.89"/>
	<path class="st0" d="M1549.76,234.19h121.43v55.67h-121.43V234.19z M1537.28,314.8h146.38c6.89,0,12.47-5.58,12.47-12.47v-80.62
		c0-6.89-5.59-12.47-12.47-12.47h-146.38c-6.89,0-12.47,5.59-12.47,12.47v80.62C1524.81,309.22,1530.4,314.8,1537.28,314.8"/>
	<path class="st0" d="M1764.28,339.2c19.24,0,31.02,8.4,31.02,12.98c0,4.58-11.78,12.98-31.02,12.98
		c-19.24,0-31.01-8.41-31.01-12.98C1733.27,347.6,1745.04,339.2,1764.28,339.2 M1733.27,276.87c0-4.58,11.78-12.98,31.01-12.98
		c19.24,0,31.02,8.4,31.02,12.98c0,4.58-11.78,12.98-31.02,12.98C1745.04,289.85,1733.27,281.45,1733.27,276.87 M1708.32,352.18
		c0,21.62,24.06,37.93,55.96,37.93c31.91,0,55.97-16.31,55.97-37.93c0-20.06-20.72-35.52-49.18-37.66
		c28.46-2.14,49.18-17.6,49.18-37.66c0-21.62-24.06-37.93-55.97-37.93c-31.9,0-55.96,16.31-55.96,37.93
		c0,20.06,20.72,35.52,49.18,37.66C1729.04,316.66,1708.32,332.12,1708.32,352.18"/>
	<path class="st0" d="M2135.54,487.7c42.88,0,70.49,9.11,84.81,16.17l-0.31,0.15c0,0-0.26,0.12-0.26,0.13l-3,1.39
		c-0.56,0.25-1.15,0.5-1.73,0.74l-0.87,0.38c-0.72,0.29-1.45,0.58-2.16,0.86l-0.59,0.23c-0.97,0.38-1.96,0.75-2.94,1.1
		c-0.02,0.01-0.28,0.09-0.3,0.1c-0.93,0.33-1.88,0.66-2.85,0.98l-1.03,0.33c-0.74,0.24-1.49,0.48-2.23,0.72l-1.42,0.42
		c-0.68,0.21-1.36,0.41-2.08,0.61l-9.17,2.34c-0.75,0.17-1.5,0.34-2.28,0.51l-1.8,0.38c-0.77,0.16-1.55,0.32-2.34,0.47l-1.92,0.36
		c-0.8,0.15-1.6,0.29-2.4,0.43l-6.57,1.03c-0.85,0.12-1.73,0.23-2.6,0.35l-2.14,0.27c-0.89,0.11-1.8,0.21-2.69,0.31l-2.19,0.23
		c-0.94,0.09-1.89,0.18-2.84,0.26l-7.45,0.56c-0.96,0.06-1.93,0.1-2.91,0.15l-2.48,0.12c-1.2,0.05-2.42,0.08-3.64,0.11l-1.9,0.06
		c-3.75,0.08-7.65,0.08-11.4,0l-1.91-0.06c-1.22-0.03-2.44-0.06-3.63-0.11l-2.51-0.12c-0.97-0.05-1.93-0.09-2.89-0.15l-7.48-0.57
		c-0.94-0.08-1.89-0.17-2.8-0.26l-2.19-0.23c-0.91-0.1-1.81-0.2-2.73-0.31l-2.11-0.27c-0.88-0.12-1.74-0.23-2.59-0.35l-6.56-1.03
		c-0.82-0.14-1.62-0.29-2.46-0.44l-1.89-0.36c-0.79-0.15-1.57-0.31-2.33-0.47l-1.83-0.38c-0.77-0.17-1.52-0.34-2.35-0.53l-9.11-2.32
		c-0.72-0.21-1.42-0.42-2.14-0.63l-1.3-0.39c-0.77-0.24-1.52-0.48-2.28-0.73l-1.02-0.33c-0.98-0.32-1.93-0.65-3.12-1.08
		c-1.02-0.36-2.01-0.73-3.1-1.16l-0.43-0.17c-0.75-0.29-1.48-0.58-2.19-0.87l-0.97-0.42c-0.55-0.23-1.11-0.47-1.62-0.69l-3.59-1.68
		C2065.05,496.81,2092.66,487.7,2135.54,487.7 M2019.33,511.58c0.17,0.23,0.37,0.46,0.64,0.79c0.27,0.32,0.54,0.64,0.8,0.92
		c0.19,0.21,0.4,0.43,0.68,0.71c0.3,0.31,0.61,0.63,0.93,0.92c0.22,0.21,0.46,0.43,0.72,0.67c0.32,0.29,0.66,0.58,0.99,0.86
		l0.75,0.62c0.35,0.29,0.72,0.58,1.03,0.82l0.9,0.67c0.36,0.27,0.73,0.53,1.08,0.78l0.91,0.63c0.4,0.27,0.8,0.54,1.26,0.84
		l0.92,0.59c0.43,0.27,0.88,0.54,1.3,0.8l1.02,0.61c0.46,0.27,0.95,0.54,1.6,0.91l0.89,0.49c0.5,0.27,1.03,0.55,1.66,0.88l0.99,0.51
		c0.5,0.26,1.02,0.51,1.54,0.76l5.47-11.21l-5.1,11.39l0.92,0.44c0.6,0.29,1.24,0.58,1.88,0.87l1.11,0.51
		c0.65,0.28,1.33,0.57,2.09,0.89l1.06,0.45c0.86,0.35,1.74,0.7,2.81,1.12l0.51,0.21c1.15,0.44,2.32,0.87,3.52,1.3
		c0,0,0.31,0.11,0.32,0.11c1.09,0.39,2.19,0.77,3.31,1.14l1.2,0.39c0.87,0.28,1.74,0.56,2.65,0.85l1.49,0.44
		c0.83,0.25,1.65,0.49,2.48,0.73l1.71,0.47c0.81,0.22,1.62,0.45,2.46,0.67l1.82,0.46c0.83,0.21,1.66,0.42,2.5,0.62l1.94,0.45
		c0.85,0.19,1.7,0.39,2.55,0.57l2.06,0.43c0.87,0.17,1.74,0.36,2.62,0.52l2.12,0.4c0.89,0.16,1.79,0.32,2.72,0.49l2.22,0.37
		c0.91,0.15,1.83,0.29,2.79,0.44l2.3,0.34c0.95,0.14,1.91,0.26,2.88,0.39l2.35,0.3c0.99,0.12,1.99,0.23,3.01,0.34l2.42,0.26
		c1.02,0.1,2.05,0.2,3.12,0.29l2.44,0.21c0.9,0.07,1.81,0.14,2.72,0.2l3.01,0.2c1.05,0.06,2.11,0.11,3.18,0.17l2.71,0.13
		c1.3,0.05,2.64,0.09,3.97,0.12l2.07,0.06c2.04,0.04,4.1,0.06,6.2,0.06c2.1,0,4.16-0.02,6.2-0.06l2.06-0.06
		c1.34-0.04,2.67-0.07,3.96-0.12l2.7-0.13c1.07-0.05,2.15-0.1,3.2-0.17l2.99-0.2c0.92-0.06,1.83-0.13,2.75-0.2l2.44-0.21
		c1.05-0.09,2.09-0.19,3.12-0.29l2.42-0.26c1.01-0.11,2.01-0.22,2.97-0.34l2.37-0.31c0.97-0.12,1.93-0.25,2.9-0.39l2.29-0.34
		c0.93-0.14,1.86-0.29,2.79-0.44l2.23-0.38c0.91-0.16,1.81-0.32,2.67-0.48l2.15-0.41c0.88-0.17,1.76-0.35,2.62-0.53l2.03-0.43
		c0.87-0.19,1.72-0.38,2.78-0.62l1.72-0.4c0.85-0.2,1.68-0.41,2.51-0.62l1.83-0.46c0.8-0.21,1.58-0.43,2.46-0.67l1.69-0.47
		c0.82-0.23,1.62-0.47,2.47-0.73l1.53-0.45c0.9-0.28,1.77-0.56,2.63-0.84l1.19-0.38c1.14-0.38,2.25-0.76,3.36-1.16
		c0.05-0.02,0.24-0.08,0.29-0.1c1.2-0.43,2.37-0.86,3.53-1.31l0.67-0.27c0.9-0.35,1.78-0.7,2.64-1.06l1.06-0.45
		c0.7-0.3,1.4-0.59,2.12-0.91l1.19-0.54c0.6-0.27,1.19-0.54,1.79-0.82l1.11-0.54c0.57-0.28,1.14-0.56,1.69-0.84l1.1-0.57
		c0.52-0.27,1.04-0.54,1.55-0.82l3.46-1.98c0.47-0.28,0.93-0.56,1.35-0.83l0.95-0.61c0.42-0.27,0.83-0.54,1.24-0.82l0.86-0.6
		c0.39-0.28,0.77-0.55,1.13-0.82l0.81-0.61c0.39-0.3,0.76-0.6,1.06-0.84l0.76-0.63c0.35-0.3,0.68-0.59,1.11-0.98l0.59-0.55
		c0.33-0.31,0.63-0.62,1.03-1.03c0.21-0.21,0.42-0.43,0.53-0.55c0.32-0.34,0.6-0.67,0.96-1.1c0.22-0.25,0.43-0.51,0.61-0.76
		c0.09-0.11,0.18-0.23,0.25-0.34c3.21-4.45,3.15-10.49-0.2-14.87c-9.9-12.97-50.23-33.54-116.32-33.54
		c-66.09,0-106.42,20.57-116.32,33.54c-3.33,4.36-3.41,10.37-0.24,14.81C2019.09,511.27,2019.22,511.43,2019.33,511.58"/>
	<path class="st0" d="M-1860,2074.77h-63.11v-90.66v-130.45v-52.59c0-17.4,14.15-31.55,31.55-31.55c17.4,0,31.55,14.15,31.55,31.55
		V2074.77z M-2578.62,1971.64v-105.5h177.98h42.89v52.75c0,6.89,5.59,12.47,12.47,12.47h365.67c6.89,0,12.47-5.59,12.47-12.47
		v-52.75h19.08v105.5H-2578.62z M-2603.57,2074.77h-63.11v-347.08c0-17.4,14.16-31.55,31.55-31.55c17.4,0,31.55,14.15,31.55,31.55
		v43.6v82.37v130.45V2074.77z M-2501.82,1760.96c58.21,0,107.38,25.65,107.38,56.01c0,9.93-5.54,18.27-11.24,24.22h-172.94v-62.78
		C-2558.24,1767.27-2530.69,1760.96-2501.82,1760.96 M-2332.8,1841.39c0-8.61,7.01-15.61,15.61-15.61h309.49
		c8.61,0,15.62,7.01,15.62,15.61v12.27v52.75h-340.72v-52.75V1841.39z M-1891.56,1744.57c-31.15,0-56.5,25.35-56.5,56.5v40.11
		h-19.09c-0.11-22.27-18.25-40.36-40.55-40.36h-309.49c-22.29,0-40.44,18.08-40.55,40.36h-17.57c3.84-7.74,5.82-15.88,5.82-24.22
		c0-45.4-58.12-80.96-132.32-80.96c-27.71,0-54.63,5.27-76.8,14.75v-23.07c0-31.15-25.35-56.5-56.5-56.5
		c-31.16,0-56.5,25.35-56.5,56.5v359.55c0,6.89,5.58,12.47,12.47,12.47h88.06c6.89,0,12.47-5.58,12.47-12.47v-90.66h630.56v90.66
		c0,6.89,5.59,12.47,12.47,12.47h88.05c6.89,0,12.47-5.58,12.47-12.47v-286.17C-1835.05,1769.92-1860.4,1744.57-1891.56,1744.57"/>
	<path class="st0" d="M-1209.85,2156.54v-484.35c0-31.88,25.94-57.82,57.82-57.82h200.17c31.88,0,57.82,25.94,57.82,57.82v484.35
		H-1209.85z M-1375.46,1890.82c0-19.07,15.52-34.59,34.58-34.59h106.08v56.07h-109.05c-6.89,0-12.47,5.58-12.47,12.47v30.97
		c0,6.89,5.59,12.47,12.47,12.47h109.05v9.01h-109.05c-6.89,0-12.47,5.59-12.47,12.47v30.98c0,6.89,5.59,12.47,12.47,12.47h109.05
		v9.01h-109.05c-6.89,0-12.47,5.59-12.47,12.47v30.98c0,6.89,5.59,12.47,12.47,12.47h109.05v58.45h-140.66V1890.82z
		 M-1234.8,2073.14h-96.58v-6.03h96.58V2073.14z M-1234.8,2008.21h-96.58v-6.03h96.58V2008.21z M-1234.8,1943.28h-96.58v-6.03h96.58
		V1943.28z M-869.1,1937.25h94.2v6.03h-94.2V1937.25z M-869.1,2002.18h94.2v6.03h-94.2V2002.18z M-774.91,2073.14h-94.2v-6.03h94.2
		V2073.14z M-765.41,1856.23c19.07,0,34.59,15.52,34.59,34.59v265.72H-869.1v-58.45h106.67c6.89,0,12.47-5.58,12.47-12.47v-30.98
		c0-6.89-5.58-12.47-12.47-12.47H-869.1v-9.01h106.67c6.89,0,12.47-5.58,12.47-12.47v-30.98c0-6.89-5.58-12.47-12.47-12.47H-869.1
		v-9.01h106.67c6.89,0,12.47-5.58,12.47-12.47v-30.97c0-6.89-5.58-12.47-12.47-12.47H-869.1v-56.07H-765.41z M-636.14,2156.54
		h-69.73v-265.72c0-32.83-26.71-59.54-59.54-59.54H-869.1v-159.09c0-45.64-37.13-82.77-82.77-82.77h-200.17
		c-45.64,0-82.76,37.13-82.76,82.77v159.09h-106.08c-32.82,0-59.53,26.71-59.53,59.54v265.72h-67.35c-6.89,0-12.47,5.59-12.47,12.47
		c0,6.89,5.59,12.47,12.47,12.47h245.44h340.75h245.43c6.89,0,12.47-5.58,12.47-12.47
		C-623.66,2162.13-629.25,2156.54-636.14,2156.54"/>
	<path class="st0" d="M-1003.28,1965.92h-22.35v-35.18c0-6.89-5.58-12.47-12.47-12.47c-6.89,0-12.47,5.58-12.47,12.47v47.66
		c0,6.89,5.58,12.47,12.47,12.47h34.83c6.89,0,12.47-5.58,12.47-12.47C-990.81,1971.5-996.39,1965.92-1003.28,1965.92"/>
	<path class="st0" d="M-940.96,2049.32h-22.35v-35.18c0-6.89-5.59-12.47-12.47-12.47c-6.89,0-12.48,5.58-12.48,12.47v47.66
		c0,6.89,5.58,12.48,12.48,12.48h34.83c6.89,0,12.47-5.59,12.47-12.48C-928.49,2054.9-934.07,2049.32-940.96,2049.32"/>
	<path class="st0" d="M-1003.28,2049.32h-22.35v-35.18c0-6.89-5.58-12.47-12.47-12.47c-6.89,0-12.47,5.58-12.47,12.47v47.66
		c0,6.89,5.58,12.48,12.47,12.48h34.83c6.89,0,12.47-5.59,12.47-12.48C-990.81,2054.9-996.39,2049.32-1003.28,2049.32"/>
	<path class="st0" d="M-940.96,1882.52h-22.35v-35.18c0-6.89-5.59-12.47-12.47-12.47c-6.89,0-12.48,5.58-12.48,12.47v47.66
		c0,6.89,5.58,12.47,12.48,12.47h34.83c6.89,0,12.47-5.59,12.47-12.47C-928.49,1888.1-934.07,1882.52-940.96,1882.52"/>
	<path class="st0" d="M-940.96,1965.92h-22.35v-35.18c0-6.89-5.59-12.47-12.47-12.47c-6.89,0-12.48,5.58-12.48,12.47v47.66
		c0,6.89,5.58,12.47,12.48,12.47h34.83c6.89,0,12.47-5.58,12.47-12.47C-928.49,1971.5-934.07,1965.92-940.96,1965.92"/>
	<path class="st0" d="M-1003.28,1882.52h-22.35v-35.18c0-6.89-5.58-12.47-12.47-12.47c-6.89,0-12.47,5.58-12.47,12.47v47.66
		c0,6.89,5.58,12.47,12.47,12.47h34.83c6.89,0,12.47-5.59,12.47-12.47C-990.81,1888.1-996.39,1882.52-1003.28,1882.52"/>
	<path class="st0" d="M-1065.61,2049.32h-22.35v-35.18c0-6.89-5.59-12.47-12.48-12.47c-6.89,0-12.47,5.58-12.47,12.47v47.66
		c0,6.89,5.58,12.48,12.47,12.48h34.82c6.89,0,12.47-5.59,12.47-12.48C-1053.13,2054.9-1058.71,2049.32-1065.61,2049.32"/>
	<path class="st0" d="M-1127.93,1882.52h-22.35v-35.18c0-6.89-5.58-12.47-12.47-12.47c-6.89,0-12.47,5.58-12.47,12.47v47.66
		c0,6.89,5.58,12.47,12.47,12.47h34.83c6.89,0,12.47-5.59,12.47-12.47C-1115.45,1888.1-1121.04,1882.52-1127.93,1882.52"/>
	<path class="st0" d="M-1127.93,1965.92h-22.35v-35.18c0-6.89-5.58-12.47-12.47-12.47c-6.89,0-12.47,5.58-12.47,12.47v47.66
		c0,6.89,5.58,12.47,12.47,12.47h34.83c6.89,0,12.47-5.58,12.47-12.47C-1115.45,1971.5-1121.04,1965.92-1127.93,1965.92"/>
	<path class="st0" d="M-1127.93,2049.32h-22.35v-35.18c0-6.89-5.58-12.47-12.47-12.47c-6.89,0-12.47,5.58-12.47,12.47v47.66
		c0,6.89,5.58,12.48,12.47,12.48h34.83c6.89,0,12.47-5.59,12.47-12.48C-1115.45,2054.9-1121.04,2049.32-1127.93,2049.32"/>
	<path class="st0" d="M-1065.61,1882.52h-22.35v-35.18c0-6.89-5.59-12.47-12.48-12.47c-6.89,0-12.47,5.58-12.47,12.47v47.66
		c0,6.89,5.58,12.47,12.47,12.47h34.82c6.89,0,12.47-5.59,12.47-12.47C-1053.13,1888.1-1058.71,1882.52-1065.61,1882.52"/>
	<path class="st0" d="M-1065.61,1965.92h-22.35v-35.18c0-6.89-5.59-12.47-12.48-12.47c-6.89,0-12.47,5.58-12.47,12.47v47.66
		c0,6.89,5.58,12.47,12.47,12.47h34.82c6.89,0,12.47-5.58,12.47-12.47C-1053.13,1971.5-1058.71,1965.92-1065.61,1965.92"/>
	<path class="st0" d="M-1097.86,1719.22h25.65c6.89,0,12.47-5.59,12.47-12.47v-25.65h15.56v25.65c0,6.89,5.58,12.47,12.47,12.47
		h25.65v15.56h-25.65c-6.89,0-12.47,5.58-12.47,12.47v25.65h-15.56v-25.65c0-6.89-5.58-12.47-12.47-12.47h-25.65V1719.22z
		 M-1110.33,1759.73h25.65v25.65c0,6.89,5.58,12.47,12.47,12.47h40.51c6.89,0,12.47-5.59,12.47-12.47v-25.65h25.65
		c6.89,0,12.47-5.59,12.47-12.47v-40.51c0-6.89-5.59-12.47-12.47-12.47h-25.65v-25.65c0-6.89-5.59-12.47-12.47-12.47h-40.51
		c-6.89,0-12.47,5.58-12.47,12.47v25.65h-25.65c-6.89,0-12.47,5.58-12.47,12.47v40.51
		C-1122.8,1754.14-1117.22,1759.73-1110.33,1759.73"/>
	<path class="st0" d="M-1172.53,233.31h59.6c6.89,0,12.47-5.59,12.47-12.48v-59.6h33.27v59.6c0,6.89,5.58,12.48,12.47,12.48h59.6
		v33.26h-59.6c-6.89,0-12.47,5.59-12.47,12.47v59.6h-33.27v-59.6c0-6.89-5.59-12.47-12.47-12.47h-59.6V233.31z M-1185.01,291.52
		h59.6v59.6c0,6.89,5.59,12.48,12.47,12.48h58.21c6.89,0,12.47-5.59,12.47-12.48v-59.6h59.6c6.89,0,12.47-5.58,12.47-12.47v-58.21
		c0-6.89-5.59-12.47-12.47-12.47h-59.6v-59.6c0-6.89-5.59-12.47-12.47-12.47h-58.21c-6.89,0-12.47,5.59-12.47,12.47v59.6h-59.6
		c-6.89,0-12.47,5.59-12.47,12.47v58.21C-1197.48,285.94-1191.9,291.52-1185.01,291.52"/>
	<path class="st0" d="M-1291.73,445.37h415.81v36.04h-415.81V445.37z M-1316.68,432.9v60.99c0,6.89,5.59,12.47,12.47,12.47h440.76
		c6.89,0,12.47-5.59,12.47-12.47V432.9c0-6.89-5.59-12.47-12.47-12.47h-440.76C-1311.09,420.42-1316.68,426.01-1316.68,432.9"/>
	<path class="st0" d="M-875.92,624.17h-415.81v-36.04h415.81V624.17z M-863.45,563.18h-440.76c-6.89,0-12.47,5.59-12.47,12.47v60.99
		c0,6.89,5.59,12.47,12.47,12.47h440.76c6.89,0,12.47-5.59,12.47-12.47v-60.99C-850.97,568.77-856.56,563.18-863.45,563.18"/>
	<path class="st0" d="M-1096.3,766.93h-195.43v-36.04h195.43V766.93z M-1083.83,705.95h-220.38c-6.89,0-12.47,5.59-12.47,12.47
		v60.98c0,6.89,5.59,12.47,12.47,12.47h220.38c6.89,0,12.47-5.59,12.47-12.47v-60.98C-1071.35,711.53-1076.94,705.95-1083.83,705.95
		"/>
	<path class="st0" d="M-1404.38,201.43l123.74-123.73v123.73H-1404.38z M-776.13,60.06v806.67h-645.89V226.38h153.85
		c6.89,0,12.47-5.59,12.47-12.47V60.06H-776.13z M-1434.49,891.67h670.84c6.89,0,12.47-5.59,12.47-12.47V47.58
		c0-6.89-5.59-12.47-12.47-12.47h-504.52c-0.84,0-1.66,0.09-2.47,0.25c-0.52,0.1-1.01,0.29-1.51,0.46
		c-0.27,0.09-0.56,0.14-0.82,0.26c-0.55,0.23-1.05,0.53-1.56,0.83c-0.19,0.11-0.4,0.19-0.59,0.32c-0.68,0.45-1.31,0.97-1.89,1.55
		l-166.32,166.32c-0.58,0.57-1.09,1.2-1.54,1.88c-0.14,0.2-0.22,0.42-0.34,0.63c-0.29,0.49-0.58,0.98-0.8,1.51
		c-0.12,0.28-0.18,0.58-0.27,0.87c-0.16,0.48-0.34,0.95-0.44,1.46c-0.16,0.81-0.25,1.63-0.25,2.47V879.2
		C-1446.97,886.09-1441.38,891.67-1434.49,891.67"/>
	<path class="st0" d="M-2610.29,3379.61h693.91v55.6h-693.91V3379.61z M-2666.67,3056.03c0-8.67,7.05-15.71,15.72-15.71
		c8.67,0,15.72,7.05,15.72,15.71v311.1v80.54v77.13h-31.43V3056.03z M-1891.44,3207.05c0-8.66,7.05-15.72,15.72-15.72
		c8.66,0,15.72,7.05,15.72,15.72v317.76h-31.43v-77.13v-80.54V3207.05z M-1875.72,3601.33c-8.67,0-15.72-7.05-15.72-15.71
		c0-8.67,7.05-15.72,15.72-15.72c8.66,0,15.72,7.05,15.72,15.72C-1860,3594.28-1867.06,3601.33-1875.72,3601.33 M-2650.96,3601.33
		c-8.67,0-15.72-7.05-15.72-15.71c0-8.67,7.05-15.72,15.72-15.72c8.67,0,15.72,7.05,15.72,15.72
		C-2635.24,3594.28-2642.29,3601.33-2650.96,3601.33 M-2318.1,3153.19v37.36h-99.9v-37.36c0-14.49,11.79-26.28,26.29-26.28h47.32
		C-2329.89,3126.9-2318.1,3138.7-2318.1,3153.19 M-2572.66,3243.28c2.42-5.87,6.99-10.44,12.85-12.87
		c5.86-2.44,12.32-2.44,18.19-0.02l178.56,73.77c1.51,0.62,3.13,0.94,4.77,0.94h198.39c1.3,0,2.6-0.2,3.84-0.6l166.73-53.89
		c6.04-1.95,12.47-1.43,18.12,1.46c5.66,2.89,9.85,7.81,11.8,13.85c1.95,6.04,1.43,12.48-1.46,18.13
		c-2.89,5.66-7.81,9.84-13.85,11.79l-175.72,56.8h-219.76l-189.56-78.32C-2571.88,3269.32-2577.67,3255.39-2572.66,3243.28
		 M-1875.72,3166.39c-22.42,0-40.66,18.24-40.66,40.67v147.61h-159.18l108.52-35.08c12.38-4.01,22.46-12.59,28.39-24.17
		c5.93-11.59,6.98-24.79,2.98-37.17c-4-12.38-12.59-22.47-24.19-28.39c-11.59-5.93-24.79-6.98-37.15-2.98l-164.86,53.29h-193.95
		l-176.27-72.83c-12.02-4.97-25.26-4.96-37.29,0.03c-12.02,4.99-21.37,14.36-26.34,26.39c-10.26,24.83,1.6,53.37,26.42,63.63
		l138.63,57.27h-179.63v-298.63c0-3.35-0.45-6.59-1.23-9.72l104.67-104.66h126.33v160.3h-11.19c-28.25,0-51.24,22.98-51.24,51.23
		v49.84c0,6.89,5.59,12.47,12.47,12.47h124.85c6.89,0,12.47-5.59,12.47-12.47v-49.84c0-28.25-22.99-51.23-51.24-51.23h-11.19
		v-172.78c0-6.89-5.59-12.47-12.48-12.47h-143.97c-3.31,0-6.48,1.31-8.82,3.65l-104.29,104.29c-7.03-5.8-16.03-9.28-25.82-9.28
		c-22.42,0-40.67,18.25-40.67,40.66v481.25c0,6.89,5.59,12.48,12.47,12.48h9.04c-12.79,6.86-21.51,20.35-21.51,35.85
		c0,22.42,18.24,40.66,40.67,40.66s40.66-18.24,40.66-40.66c0-15.5-8.72-28.99-21.51-35.85h9.03c6.89,0,12.48-5.59,12.48-12.48
		v-77.13h693.91v77.13c0,6.89,5.59,12.48,12.47,12.48h9.03c-12.79,6.86-21.51,20.35-21.51,35.85c0,22.42,18.24,40.66,40.66,40.66
		c22.42,0,40.67-18.24,40.67-40.66c0-15.5-8.72-28.99-21.51-35.85h9.04c6.89,0,12.47-5.59,12.47-12.48v-330.23
		C-1835.06,3184.63-1853.3,3166.39-1875.72,3166.39"/>
	<path class="st0" d="M307.95,2928.5c83.25,0,159.26,52.21,189.13,129.91c1.85,4.82,6.48,8,11.64,8c5.16,0,9.79-3.18,11.64-8
		c29.87-77.7,105.88-129.91,189.13-129.91c111.69,0,202.56,90.87,202.56,202.56c0,2.71-0.04,5.41-0.11,8.11
		c-0.02,0.92-0.06,1.83-0.09,2.75c-0.06,1.77-0.12,3.53-0.21,5.29c-0.06,1.15-0.12,2.29-0.19,3.44c-0.09,1.47-0.19,2.94-0.29,4.41
		c-0.1,1.34-0.19,2.68-0.3,4.01c-0.09,1.07-0.2,2.15-0.3,3.22c-10.14,106.86-70.93,196.89-137.32,264.99
		c-105.47,107.52-237.26,173.04-264.52,185.93c-26.8-12.67-154.55-76.11-259.08-180.42c-26.81-26.9-52.89-57.36-75.35-91.05h65.79
		l45.1,83.37c7.46,13.79,22.39,21.91,38.3,20.38c15.74-1.53,28.95-12.28,33.65-27.38l41.39-132.94l20.08,36.33
		c6.9,12.49,20.05,20.25,34.33,20.25h64.54c16.28,0,30.61-9.79,36.53-24.95l50.23-128.59l42.63,126.82
		c5.37,15.98,20.31,26.73,37.18,26.73h52.06c21.62,0,39.22-17.59,39.22-39.22c0-21.63-17.59-39.22-39.22-39.22h-23.86l-68.06-202.48
		c-5.24-15.58-19.8-26.31-36.16-26.71c-16.53-0.48-31.54,9.53-37.55,24.94l-79.79,204.25h-14.62l-53.35-96.49
		c-7.61-13.77-22.64-21.63-38.3-20.05c-15.66,1.6-28.79,12.34-33.47,27.36l-41.04,131.81l-11.94-22.07
		c-6.86-12.68-20.08-20.56-34.5-20.56H132.22c-12.27-30-21-61.85-24.76-95.38c-0.05-0.45-0.11-0.89-0.15-1.34
		c-0.18-1.7-0.35-3.41-0.5-5.13c-0.09-1-0.18-2-0.26-3.01c-0.12-1.41-0.23-2.83-0.33-4.24c-0.09-1.33-0.17-2.67-0.25-4
		c-0.07-1.19-0.14-2.37-0.2-3.56c-0.08-1.66-0.13-3.31-0.19-4.97c-0.03-0.93-0.07-1.85-0.09-2.77c-0.06-2.61-0.1-5.22-0.1-7.83
		C105.39,3019.36,196.26,2928.5,307.95,2928.5 M143.42,3288.24h120.04c5.25,0,10.06,2.87,12.55,7.48l26.02,48.1
		c2.39,4.41,7.19,6.97,12.18,6.48c4.99-0.49,9.21-3.92,10.7-8.71l49.84-160.07c1.7-5.47,6.48-9.38,12.18-9.95
		c5.7-0.57,11.17,2.28,13.94,7.29l56.91,102.94c2.2,3.97,6.38,6.44,10.92,6.44h30.5c5.14,0,9.75-3.15,11.62-7.93l82.88-212.19
		c2.19-5.6,7.64-9.25,13.64-9.07c5.98,0.15,11.28,4.05,13.19,9.72l70.91,210.98c1.71,5.08,6.47,8.5,11.83,8.5h32.83
		c7.87,0,14.27,6.4,14.27,14.28c0,7.87-6.4,14.27-14.27,14.27h-52.06c-6.14,0-11.57-3.91-13.53-9.73l-53.57-159.38
		c-1.67-4.98-6.28-8.37-11.53-8.5c-5.34-0.15-10.01,3.04-11.92,7.93l-62.73,160.59c-2.15,5.52-7.37,9.08-13.29,9.08h-64.54
		c-5.19,0-9.98-2.82-12.49-7.37l-34.23-61.9c-2.42-4.37-7.2-6.88-12.18-6.37c-4.97,0.5-9.16,3.93-10.64,8.7l-50.08,160.84
		c-1.71,5.49-6.52,9.4-12.24,9.96c-5.75,0.54-11.23-2.39-13.95-7.42l-48.63-89.9c-2.18-4.03-6.39-6.54-10.97-6.54h-88.81
		C153.29,3307.5,148.18,3297.98,143.42,3288.24 M80.81,3146.64c0.15,3.42,0.34,6.83,0.59,10.24c0.05,0.73,0.09,1.45,0.15,2.18
		c0.3,3.89,0.69,7.78,1.12,11.67c0.14,1.29,0.3,2.58,0.46,3.88c0.36,2.97,0.76,5.93,1.2,8.9c0.17,1.15,0.32,2.3,0.5,3.45
		c0.6,3.81,1.26,7.61,1.98,11.4c0.23,1.22,0.49,2.45,0.73,3.67c0.6,2.99,1.23,5.98,1.9,8.96c0.26,1.14,0.5,2.28,0.77,3.41
		c0.92,3.93,1.9,7.85,2.96,11.77c0.2,0.75,0.42,1.5,0.63,2.26c0.96,3.47,1.96,6.94,3.02,10.4c0.26,0.85,0.51,1.69,0.78,2.54
		c2.61,8.34,5.52,16.64,8.72,24.91c0.24,0.63,0.49,1.26,0.74,1.89c1.64,4.19,3.34,8.38,5.14,12.56c0.02,0.06,0.06,0.11,0.09,0.17
		c7.91,18.34,17.3,36.52,28.13,54.52c0.06,0.1,0.1,0.21,0.16,0.31c2.04,3.38,4.12,6.72,6.22,10.04c0.2,0.32,0.39,0.64,0.59,0.96
		c0.58,0.9,1.19,1.8,1.77,2.7c1.33,2.06,2.67,4.11,4.03,6.15c0.7,1.06,1.42,2.11,2.13,3.17c1.7,2.52,3.43,5.02,5.17,7.5
		c0.4,0.56,0.78,1.12,1.18,1.69c120.77,170.91,332.53,266.24,342.02,270.45c1.61,0.72,3.33,1.07,5.06,1.07s3.45-0.35,5.06-1.07
		c9.49-4.21,221.25-99.53,342.01-270.45c0.4-0.56,0.79-1.13,1.18-1.69c1.74-2.48,3.46-4.98,5.17-7.5c0.72-1.06,1.43-2.11,2.13-3.17
		c1.36-2.04,2.7-4.09,4.03-6.15c0.58-0.9,1.2-1.8,1.77-2.7c0.2-0.32,0.39-0.64,0.59-0.96c2.1-3.32,4.18-6.66,6.22-10.04
		c0.04-0.07,0.06-0.15,0.1-0.22c10.85-18.05,20.28-36.28,28.2-54.67c0.02-0.04,0.04-0.07,0.06-0.11c1.8-4.17,3.5-8.36,5.14-12.56
		c0.25-0.63,0.49-1.26,0.73-1.89c3.2-8.27,6.11-16.57,8.72-24.91c0.26-0.85,0.52-1.69,0.78-2.54c1.06-3.46,2.07-6.93,3.02-10.4
		c0.21-0.76,0.43-1.51,0.63-2.26c1.05-3.92,2.04-7.84,2.96-11.77c0.27-1.14,0.52-2.27,0.77-3.41c0.67-2.98,1.31-5.97,1.9-8.96
		c0.24-1.22,0.5-2.45,0.73-3.67c0.72-3.8,1.38-7.6,1.97-11.4c0.18-1.15,0.34-2.3,0.5-3.45c0.43-2.97,0.84-5.93,1.2-8.9
		c0.16-1.29,0.32-2.58,0.46-3.88c0.43-3.89,0.82-7.78,1.12-11.67c0.05-0.73,0.09-1.45,0.14-2.18c0.25-3.41,0.44-6.83,0.59-10.24
		c0.05-1.13,0.1-2.25,0.14-3.39c0.14-4.06,0.23-8.12,0.23-12.19c0-125.45-102.06-227.51-227.51-227.51
		c-46.91,0-91.95,14.16-130.25,40.96c-29.7,20.77-53.71,47.91-70.52,79.44c-16.81-31.54-40.83-58.67-70.52-79.44
		c-38.31-26.79-83.35-40.96-130.25-40.96c-125.45,0-227.51,102.06-227.51,227.51c0,4.07,0.1,8.13,0.23,12.19
		C80.71,3144.38,80.76,3145.51,80.81,3146.64"/>
</g>
</svg>
