<?xml version="1.0" encoding="utf-8"?>
<!-- Generator: Adobe Illustrator 24.3.0, SVG Export Plug-In . SVG Version: 6.00 Build 0)  -->
<svg version="1.1" id="Laag_1" xmlns="http://www.w3.org/2000/svg" xmlns:xlink="http://www.w3.org/1999/xlink" x="0px" y="0px"
	 viewBox="0 0 1024 1024" style="enable-background:new 0 0 1024 1024;" xml:space="preserve">
<style type="text/css">
	.st0{clip-path:url(#SVGID_2_);}
</style>
<g>
	<defs>
		<rect id="SVGID_1_" y="50" width="1024" height="924"/>
	</defs>
	<clipPath id="SVGID_2_">
		<use xlink:href="#SVGID_1_"  style="overflow:visible;"/>
	</clipPath>
	<path class="st0" d="M-4107.1-1168.87c-11.73-11.73-11.73-30.8,0-42.53c11.73-11.73,30.8-11.73,42.53,0l147.94,147.94
		l317.17-317.17c11.73-11.73,30.74-11.73,42.53,0c11.73,11.79,11.73,30.8,0,42.53l-338.4,338.46c-11.79,11.73-30.8,11.73-42.53,0
		L-4107.1-1168.87z"/>
	<path class="st0" d="M-5807.34-1042.18c11.73,11.73,11.73,30.8,0,42.53c-11.73,11.73-30.8,11.73-42.53,0l-147.94-147.94
		l-147.94,147.94c-11.73,11.73-30.8,11.73-42.53,0c-11.73-11.73-11.73-30.8,0-42.53l147.94-147.94l-147.94-147.94
		c-11.73-11.79-11.73-30.8,0-42.53c11.73-11.79,30.8-11.79,42.53,0l147.94,147.88l147.94-147.88c11.73-11.79,30.8-11.79,42.53,0
		c11.73,11.73,11.73,30.74,0,42.53l-147.94,147.94L-5807.34-1042.18z"/>
	<path class="st0" d="M-5655.44,641.62c6.62-15.16,24.3-22.08,39.46-15.52c15.22,6.62,22.14,24.3,15.52,39.46
		c-24.12,54.99-58.84,105.16-102.81,147.27c-42.35,40.61-93.19,73.64-151.24,96.32c-118.22,46.08-243.89,39.83-351.58-7.4
		c-107.75-47.35-197.45-135.84-243.59-254.12c-46.02-118.22-39.83-243.83,7.46-351.58s135.78-197.39,254.06-243.47
		c118.22-46.08,243.95-39.95,351.58,7.4c98.24,43.13,181.44,120.44,230.29,223.38l32.73-123.63c4.27-15.94,20.7-25.63,36.7-21.36
		c16,4.21,25.57,20.57,21.42,36.64l-54.93,207.19c-4.21,16.06-20.64,25.57-36.64,21.36l-207.19-54.87
		c-16-4.21-25.63-20.7-21.42-36.7c4.27-15.94,20.7-25.57,36.7-21.36l147.63,39.11c-40.67-99.75-117.43-174.47-209.3-214.77
		c-93.67-41.21-203.1-46.62-305.98-6.44c-102.75,39.95-179.52,117.97-220.67,211.58c-41.15,93.67-46.56,203.04-6.44,305.98
		c40.01,102.69,117.92,179.58,211.58,220.67c93.67,41.15,203.1,46.56,305.98,6.5c50.35-19.67,94.51-48.43,131.27-83.68
		C-5706.64,732.94-5676.38,689.32-5655.44,641.62"/>
	<path class="st0" d="M-4229.42,665.58c-6.56-15.16,0.36-32.91,15.58-39.47c15.16-6.62,32.85,0.36,39.41,15.52
		c21,47.71,51.26,91.26,89.4,127.96c36.82,35.19,80.98,64.01,131.33,83.62c102.88,40.07,212.25,34.65,305.98-6.44
		c93.67-41.15,171.58-117.97,211.65-220.67c40.07-102.93,34.65-212.37-6.56-305.98c-41.03-93.67-117.92-171.7-220.67-211.65
		c-102.88-40.19-212.25-34.77-305.98,6.5c-91.81,40.31-168.57,115.03-209.24,214.77l147.63-39.1c16-4.27,32.43,5.35,36.64,21.36
		c4.21,16-5.35,32.43-21.36,36.64l-207.25,54.93c-15.94,4.21-32.43-5.29-36.64-21.42l-54.87-207.13
		c-4.15-16.12,5.41-32.43,21.36-36.7c16.06-4.21,32.49,5.42,36.76,21.42l32.73,123.57c48.85-102.88,132.05-180.24,230.29-223.32
		c107.63-47.41,233.36-53.48,351.58-7.4c118.28,46.02,206.71,135.66,254.06,243.41c47.23,107.75,53.48,233.36,7.4,351.58
		c-46.08,118.34-135.84,206.83-243.59,254.18c-107.63,47.23-233.36,53.42-351.52,7.4c-58.06-22.68-108.95-55.71-151.3-96.38
		C-4170.52,770.74-4205.29,720.57-4229.42,665.58"/>
	<path class="st0" d="M-1300.32,641.63c6.62-15.16,24.3-22.08,39.53-15.52c15.16,6.56,22.08,24.31,15.52,39.47
		c-24.18,54.99-58.96,105.16-102.81,147.21c-42.35,40.67-93.25,73.7-151.31,96.38h-0.12c-118.16,46.08-243.83,39.83-351.46-7.4
		c-98.18-43.26-181.44-120.56-230.35-223.5l-32.79,123.75c-4.21,15.94-20.57,25.63-36.64,21.36c-16.06-4.21-25.57-20.63-21.42-36.64
		l54.93-207.25c4.21-16,20.57-25.63,36.64-21.42l207.2,54.87c16.06,4.27,25.63,20.7,21.42,36.7c-4.27,16.06-20.63,25.57-36.7,21.36
		L-2036.27,632c40.73,99.75,117.43,174.35,209.3,214.77c93.07,40.79,201.48,46.38,303.75,7.28c1.38-0.72,2.83-1.2,4.45-1.62
		c49.39-19.61,92.83-48.07,129.05-82.84C-1351.46,732.89-1321.26,689.33-1300.32,641.63 M-1218.38,159.74
		c4.21-16,20.63-25.63,36.64-21.36c16.06,4.21,25.63,20.52,21.42,36.64l-54.87,207.13c-4.27,16.12-20.7,25.63-36.7,21.42
		l-207.19-54.87c-16.06-4.27-25.63-20.7-21.36-36.7c4.21-15.94,20.58-25.63,36.64-21.36l147.57,39.1
		c-40.73-99.87-117.43-174.47-209.24-214.77c-93.07-40.91-201.54-46.56-303.75-7.4c-1.44,0.72-2.89,1.26-4.51,1.74
		c-49.39,19.61-92.77,48.07-129.04,82.72c-38.2,36.64-68.46,80.37-89.34,127.96c-6.68,15.28-24.37,22.2-39.53,15.52
		c-15.22-6.56-22.14-24.18-15.52-39.47c24.12-54.87,58.9-105.04,102.81-147.27c42.35-40.49,93.19-73.64,151.24-96.2l0.12-0.12
		c118.16-45.96,243.83-39.83,351.46,7.52c98.3,43.14,181.51,120.44,230.36,223.5L-1218.38,159.74z"/>
	<path class="st0" d="M-10543.77-1335.46c0-27.13,8.78-54.63,26.23-82.54c17.39-27.79,42.83-50.9,76.23-69.24
		c33.51-18.29,72.43-27.37,117.07-27.37c41.39,0,77.97,7.64,109.73,23.04c31.76,15.16,56.19,35.98,73.58,62.27
		c17.27,26.35,25.93,54.87,25.93,85.79c0,24.3-4.99,45.48-14.8,63.83c-9.93,18.29-21.66,34.05-35.13,47.29
		c-13.6,13.42-38.02,35.61-73.16,67.14c-9.81,8.9-17.57,16.66-23.4,23.34c-5.84,6.74-10.23,12.93-13,18.47
		c-2.95,5.53-5.11,11.13-6.74,16.72c-1.62,5.48-3.97,15.34-7.04,29.36c-5.42,29.72-22.38,44.52-51.08,44.52
		c-14.8,0-27.37-4.81-37.48-14.56c-10.23-9.81-15.16-24.12-15.16-43.26c0-24,3.61-44.76,11.07-62.39
		c7.46-17.51,17.33-33.03,29.6-46.32c12.27-13.11,28.82-29,49.75-47.35c18.29-16.12,31.46-28.09,39.64-36.16
		c8.18-8.12,15.04-17.21,20.64-27.31c5.6-9.99,8.3-20.76,8.3-32.55c0-22.86-8.48-42.05-25.45-57.94
		c-17.09-15.58-38.92-23.46-65.82-23.46c-31.46,0-54.56,7.88-69.48,23.88c-14.86,15.7-27.37,39.22-37.66,69.97
		c-9.81,32.25-28.21,48.43-55.29,48.43c-16.12,0-29.6-5.59-40.55-16.91C-10538.18-1310.19-10543.77-1322.22-10543.77-1335.46
		 M-10728.83-1190.11c0,110.27,44.7,210.14,117.01,282.51c72.25,72.25,172.12,116.89,282.39,116.89
		c110.33,0,210.2-44.64,282.52-116.89c72.25-72.37,117.01-172.24,117.01-282.51c0-110.34-44.76-210.14-117.01-282.46
		c-72.31-72.25-172.18-117.01-282.52-117.01c-110.27,0-210.14,44.76-282.39,117.01
		C-10684.13-1400.25-10728.83-1300.45-10728.83-1190.11 M-10654.35-865.06c-83.2-83.2-134.64-198.11-134.64-325.05
		c0-126.88,51.44-241.79,134.64-324.93c83.14-83.2,198.05-134.7,324.93-134.7c126.94,0,241.85,51.5,325.05,134.7
		c83.14,83.14,134.64,198.05,134.64,324.93c0,126.94-51.5,241.85-134.64,325.05c-83.2,83.08-198.11,134.52-325.05,134.52
		C-10456.3-730.54-10571.21-781.98-10654.35-865.06 M-10334.65-865.66c-17.45,0-32.61-5.59-45.66-16.9
		c-13-11.25-19.49-27.13-19.49-47.35c0-18.11,6.32-33.15,18.89-45.48c12.63-12.21,27.98-18.47,46.26-18.47
		c17.99,0,33.21,6.26,45.48,18.47c12.27,12.33,18.47,27.37,18.47,45.48c0,19.97-6.44,35.68-19.31,47.1
		C-10302.89-871.26-10317.69-865.66-10334.65-865.66"/>
	<path class="st0" d="M-8210.74-1109.93l-13.78-205.27c-2.47-39.95-3.79-68.64-3.79-86.03c0-23.82,6.14-42.29,18.59-55.65
		c12.45-13.3,28.82-19.91,49.15-19.91c24.6,0,40.97,8.48,49.33,25.51c8.3,16.96,12.45,41.51,12.45,73.58
		c0,18.89-1.02,37.9-3.13,57.33l-18.41,211.41c-1.93,25.09-6.14,44.4-12.69,57.93c-6.62,13.24-17.57,19.91-32.67,19.91
		c-15.52,0-26.17-6.32-32.19-19.37C-8203.88-1063.55-8208.09-1083.28-8210.74-1109.93 M-8163.21-827.84
		c-17.39,0-32.61-5.78-45.66-16.91c-12.99-11.25-19.43-27.13-19.43-47.35c0-17.87,6.14-32.91,18.59-45.36
		c12.45-12.45,27.67-18.59,45.78-18.59c17.99,0,33.39,6.14,46.08,18.59c12.75,12.45,19.07,27.49,19.07,45.36
		c0,19.97-6.44,35.68-19.37,47.11C-8131.02-833.61-8145.94-827.84-8163.21-827.84 M-7817.53-1297.69
		c148.78,257.67,214.83,404.34,164.9,494.16c-50.17,90.42-208.28,108.23-507.64,108.23c-298.82,0-459.27-15.94-512.33-104.44
		c-53.18-88.62,10.53-234.45,160.15-493.62l0.06-0.12h-0.06c149.38-258.75,243.47-389.72,346.53-391.47
		c103.42-1.68,197.87,126.28,347.49,385.51C-7818.07-1298.89-7817.83-1298.29-7817.53-1297.69 M-7705.03-832.65
		c35.98-64.85-26.89-196.91-164.36-435.2c-0.36-0.48-0.66-0.96-0.96-1.5c-137.89-238.84-220.73-356.87-294.61-355.67
		c-74.18,1.26-157.38,122.31-295.51,361.63h-0.06c-137.83,238.78-198.65,369.39-160.57,432.92
		c38.14,63.53,184.51,75.02,460.83,75.02C-7884.49-755.46-7740.82-768.16-7705.03-832.65"/>
	<path class="st0" d="M-1474.13-933.11c-11.73,11.73-30.8,11.73-42.53,0c-11.73-11.73-11.73-30.8,0-42.59l184.39-184.33h-740.58
		c-16.66,0-30.08-13.54-30.08-30.08c0-16.66,13.42-30.08,30.08-30.08h740.58l-184.39-184.45c-11.73-11.73-11.73-30.8,0-42.53
		c11.73-11.73,30.8-11.73,42.53,0l235.59,235.59c0.6,0.6,1.2,1.2,1.74,1.86v0.06l0.9,1.02l0.18,0.24l0.36,0.48v0.06l0.36,0.42
		l0.24,0.36l0.06,0.18l0.3,0.48l0.18,0.18l0.12,0.24l0.36,0.6c2.65,4.45,4.15,9.69,4.15,15.28c0,5.54-1.5,10.77-4.15,15.28
		l-0.36,0.54l-0.12,0.24l-0.18,0.24l-0.3,0.42l-0.06,0.18l-0.24,0.36l-0.36,0.42v0.06l-0.36,0.48l-0.18,0.24
		c-0.3,0.36-0.6,0.72-0.9,1.02v0.06c-0.54,0.66-1.14,1.26-1.74,1.86L-1474.13-933.11z"/>
	<path class="st0" d="M349.97-975.67c11.73,11.73,11.73,30.8,0,42.59c-11.73,11.73-30.86,11.73-42.59,0L71.84-1168.67
		c-0.6-0.6-1.2-1.26-1.75-1.86l-0.06-0.06c-0.3-0.36-0.6-0.72-0.84-1.08l-0.24-0.24l-0.3-0.42l-0.06-0.06l-0.3-0.42l-0.24-0.42
		l-0.12-0.18l-0.24-0.42l-0.18-0.18l-0.18-0.3l-0.3-0.54c-2.71-4.45-4.15-9.69-4.15-15.28c0-5.59,1.44-10.83,4.15-15.28l0.3-0.54
		l0.18-0.3l0.18-0.18l0.24-0.42l0.12-0.18l0.24-0.42l0.3-0.42l0.06-0.06l0.3-0.42l0.24-0.24c0.24-0.36,0.54-0.72,0.84-1.08
		l0.06-0.06c0.54-0.6,1.14-1.26,1.75-1.86l235.53-235.53c11.73-11.73,30.86-11.73,42.59,0c11.73,11.73,11.73,30.74,0,42.53
		l-184.39,184.39h740.58c16.6,0,30.08,13.48,30.08,30.08c0,16.6-13.48,30.08-30.08,30.08H165.57L349.97-975.67z"/>
	<path class="st0" d="M-10543.86,331.29c-11.73,11.73-30.8,11.73-42.53,0c-11.73-11.73-11.73-30.92,0-42.53l235.53-235.59
		c0.6-0.6,1.26-1.2,1.93-1.74c0.36-0.36,0.72-0.6,1.08-0.96l0.24-0.12l0.42-0.36l0.06-0.12l0.48-0.24l0.36-0.24l0.18-0.06l0.42-0.36
		l0.24-0.12l0.24-0.24l0.54-0.24c4.51-2.71,9.69-4.21,15.28-4.21c5.59,0,10.83,1.5,15.28,4.21l0.54,0.24l0.3,0.24l0.18,0.12
		l0.42,0.36l0.24,0.06l0.36,0.24l0.42,0.24l0.06,0.12l0.42,0.36l0.24,0.12c0.36,0.36,0.72,0.6,1.08,0.96h0.06
		c0.6,0.54,1.26,1.14,1.86,1.74l235.53,235.59c11.79,11.61,11.79,30.8,0,42.53c-11.73,11.73-30.74,11.73-42.53,0l-184.39-184.45
		v740.58c0,16.67-13.48,30.08-30.08,30.08c-16.61,0-30.08-13.42-30.08-30.08V146.84L-10543.86,331.29z"/>
	<path class="st0" d="M-8420.64,672.99c-11.73-11.73-11.73-30.8,0-42.53c11.73-11.73,30.8-11.73,42.53,0l184.39,184.33V74.21
		c0-16.6,13.54-30.08,30.08-30.08c16.66,0,30.08,13.48,30.08,30.08v740.58l184.45-184.33c11.73-11.73,30.8-11.73,42.53,0
		c11.73,11.73,11.73,30.8,0,42.53l-235.59,235.59c-0.54,0.6-1.2,1.2-1.87,1.74h-0.06c-0.36,0.36-0.72,0.6-1.02,0.84l-0.24,0.24
		l-0.48,0.36l-0.48,0.36l-0.36,0.24l-0.18,0.06l-0.42,0.36l-0.24,0.12l-0.3,0.12l-0.48,0.36c-4.51,2.59-9.69,4.09-15.34,4.09
		c-5.54,0-10.77-1.5-15.22-4.09l-0.54-0.36l-0.3-0.12l-0.24-0.12l-0.36-0.36l-0.24-0.06l-0.36-0.24l-0.42-0.36h-0.06l-0.42-0.36
		l-0.24-0.24c-0.42-0.24-0.72-0.48-1.08-0.84h-0.06c-0.66-0.54-1.26-1.14-1.87-1.74L-8420.64,672.99z"/>
	<path class="st0" d="M-6154.83,2432.91c-11.79,11.79-30.86,11.79-42.59,0c-11.73-11.73-11.73-30.74,0-42.53l178.14-178.14
		c0.6-0.54,1.26-1.14,1.86-1.74h0.12c0.3-0.36,0.66-0.6,1.02-0.96l0.24-0.12l0.42-0.3h0.06l0.48-0.36l0.36-0.24l0.18-0.12l0.42-0.36
		l0.18-0.12l0.3-0.12l0.54-0.36c4.45-2.71,9.69-4.09,15.28-4.09c5.6,0,10.83,1.38,15.28,4.09l0.54,0.36l0.24,0.12l0.24,0.12
		l0.42,0.36l0.18,0.12l0.36,0.24l0.48,0.36h0.06l0.42,0.3l0.24,0.12c0.36,0.36,0.72,0.6,1.08,0.96h0.06c0.6,0.6,1.26,1.2,1.86,1.74
		l178.08,178.14c11.79,11.79,11.79,30.8,0,42.53c-11.73,11.79-30.74,11.79-42.53,0l-126.94-126.88V2765
		c0,16.54-13.48,30.08-30.08,30.08s-30.08-13.54-30.08-30.08v-458.97L-6154.83,2432.91z M-5598.34,2779.56
		c0-16.54,13.48-29.96,30.08-29.96s30.08,13.42,30.08,29.96v170.01c0,38.68-15.82,73.82-41.27,99.21
		c-25.39,25.45-60.52,41.21-99.15,41.21h-638.43c-38.62,0-73.76-15.76-99.21-41.21c-25.45-25.39-41.21-60.52-41.21-99.21v-170.01
		c0-16.54,13.48-29.96,30.08-29.96s30.08,13.42,30.08,29.96v170.01c0,21.96,9.08,42.05,23.58,56.67
		c14.56,14.56,34.65,23.58,56.67,23.58h638.43c22.02,0,42.11-9.02,56.61-23.58c14.62-14.62,23.64-34.71,23.64-56.67V2779.56z"/>
	<path class="st0" d="M-4031.6,2607.86c-11.73-11.73-11.73-30.74,0-42.53c11.73-11.73,30.8-11.73,42.53,0l126.94,127.06v-458.97
		c0-16.66,13.48-30.08,30.08-30.08c16.66,0,30.08,13.42,30.08,30.08v458.97l127-127.06c11.73-11.73,30.74-11.73,42.53,0
		c11.73,11.79,11.73,30.8,0,42.53l-178.08,178.14l-1.93,1.8h-0.06c-0.3,0.36-0.66,0.54-1.08,0.9l-0.24,0.12l-0.42,0.36h-0.06
		l-0.48,0.36l-0.3,0.24l-0.18,0.24l-0.42,0.24l-0.24,0.12l-0.3,0.12l-0.54,0.3c-4.45,2.71-9.69,4.27-15.28,4.27
		c-5.53,0-10.77-1.56-15.28-4.27l-0.48-0.3l-0.3-0.12l-0.24-0.12l-0.42-0.24l-0.18-0.24l-0.36-0.24l-0.48-0.36h-0.06l-0.36-0.36
		l-0.24-0.12c-0.36-0.36-0.72-0.54-1.08-0.9h-0.06c-0.66-0.6-1.26-1.2-1.86-1.8L-4031.6,2607.86z M-3432.58,2779.56
		c0-16.54,13.54-29.96,30.08-29.96c16.6,0,30.08,13.42,30.08,29.96v170.01c0,38.68-15.76,73.82-41.21,99.21
		c-25.39,25.45-60.52,41.21-99.21,41.21h-638.36c-38.68,0-73.76-15.76-99.27-41.21c-25.39-25.39-41.15-60.52-41.15-99.21v-170.01
		c0-16.54,13.42-29.96,30.08-29.96c16.54,0,30.08,13.42,30.08,29.96v170.01c0,21.96,9.02,42.05,23.52,56.67
		c14.56,14.56,34.65,23.58,56.73,23.58h638.36c22.02,0,42.11-9.02,56.67-23.58c14.62-14.62,23.58-34.71,23.58-56.67V2779.56z"/>
	<path class="st0" d="M349.85,795.07c11.73,11.73,11.73,30.8,0,42.53c-11.67,11.73-30.8,11.73-42.48,0L72.03,602.26
		c-5.72-5.54-9.21-13.18-9.21-21.72c0-4.75,1.02-9.21,3.01-13.17l0.12-0.24l0.18-0.36l0.18-0.48l0.12-0.12l0.24-0.48l0.18-0.18
		l0.24-0.36l0.06-0.24c0.72-1.2,1.56-2.35,2.47-3.43l0.12-0.12c0.3-0.36,0.6-0.66,0.78-1.02h0.06c0.3-0.36,0.66-0.6,0.96-0.96
		l0.06-0.12l235.77-235.71c11.67-11.73,30.8-11.73,42.48,0c11.73,11.73,11.73,30.8,0,42.53L165.52,550.46h620.86
		c24.67,0,47.11-10.11,63.41-26.35c16.24-16.3,26.35-38.74,26.35-63.47V145.4c0-16.66,13.48-30.08,30.08-30.08
		c16.6,0,30.08,13.42,30.08,30.08v315.24c0,41.27-16.84,78.87-43.98,106c-27.25,27.13-64.73,43.98-105.94,43.98H165.52
		L349.85,795.07z"/>
	<path class="st0" d="M-1995.92,2821.51c16.6,0,30.08,13.48,30.08,30.08c0,16.54-13.48,30.08-30.08,30.08
		c-57.69,0-109.98-24.19-147.88-62.27c-38.8-38.8-62.81-92.05-62.81-148.42c0-54.26,19.01-101.97,50.42-138.43
		c27.67-31.83,64.91-54.75,107.15-65.58c6.56-37.6,25.09-71.17,51.44-96.56c31.82-30.68,74.96-49.45,122.49-49.45
		c15.82,0,31.28,2.1,46.02,6.08c2.77,0.72,5.41,1.5,8.12,2.35c14.56-40.79,39.95-76.34,72.61-103.42
		c41.27-34.17,94.21-54.75,151.97-54.75c65.88,0,125.56,26.71,168.75,69.91c41.03,41.03,67.26,97.1,69.73,159.12
		c62.99,2.23,119.84,28.64,161.59,70.39c43.49,43.56,70.45,103.72,70.45,170.26c0,66.48-26.95,126.64-70.45,170.25
		c-43.62,43.62-103.84,70.51-170.38,70.51c-16.54,0-30.08-13.54-30.08-30.08c0-16.6,13.54-30.08,30.08-30.08
		c49.93,0,95.11-20.21,127.78-52.88c32.67-32.67,52.88-77.91,52.88-127.72c0-49.93-20.21-95.05-52.88-127.72
		c-32.67-32.67-77.85-52.88-127.78-52.88c-4.21,0-7.4,0-9.57,0.12c-3.13,0.12-6.38,0.48-9.62,0.84v-0.12
		c-1.93,0.24-3.91,0.24-5.96,0.12c-16.48-1.68-28.52-16.36-26.95-32.91c0.3-2.95,0.54-5.9,0.72-8.84v-0.48
		c0.12-1.99,0.18-5.05,0.18-9.15c0-49.21-19.97-93.85-52.28-126.22c-32.31-32.31-76.94-52.28-126.22-52.28
		c-43.26,0-82.9,15.4-113.7,40.91c-30.98,25.63-53.18,61.43-61.36,102.33c-0.48,3.91-1.74,7.76-3.85,11.43
		c-8.36,14.32-26.83,19.25-41.15,10.89c-8.84-5.17-18.29-9.27-28.16-11.85c-9.63-2.59-19.85-3.97-30.5-3.97
		c-31.46,0-59.98,12.33-80.86,32.55c-20.76,19.97-34.11,47.47-35.61,78.09c0.24,14.92-10.65,27.97-25.81,30.08
		c-37.36,5.42-70.21,23.28-93.43,49.93c-22.2,25.75-35.61,59.98-35.61,99.2c0,40.07,17.27,78.03,45.18,105.88
		C-2074.08,2804.13-2036.83,2821.51-1995.92,2821.51 M-1836.68,2964.03c-11.73-11.73-11.73-30.8,0-42.53
		c11.73-11.73,30.8-11.73,42.53,0l97.82,97.88v-372.16c0-16.66,13.48-30.08,30.08-30.08c16.6,0,30.08,13.42,30.08,30.08v372.16
		l97.82-97.88c11.73-11.73,30.8-11.73,42.53,0c11.73,11.73,11.73,30.8,0,42.53l-149.02,149.02c-0.54,0.54-1.2,1.14-1.87,1.74h-0.06
		c-0.36,0.36-0.66,0.6-1.02,0.9l-0.24,0.12l-0.42,0.36h-0.06l-0.48,0.36l-0.36,0.24l-0.18,0.12l-0.42,0.36l-0.18,0.12l-0.3,0.12
		l-0.54,0.36c-4.45,2.71-9.69,4.09-15.28,4.09c-5.6,0-10.83-1.38-15.28-4.09l-0.6-0.36l-0.24-0.12l-0.18-0.12l-0.42-0.36l-0.18-0.12
		l-0.36-0.24l-0.48-0.36h-0.06l-0.42-0.36l-0.24-0.12c-0.36-0.3-0.72-0.54-1.08-0.9c-0.72-0.6-1.32-1.2-1.93-1.74L-1836.68,2964.03z
		"/>
	<path class="st0" d="M169.87,2821.48c16.6,0,30.08,13.54,30.08,30.08c0,16.6-13.48,30.08-30.08,30.08
		c-57.69,0-109.91-24.19-147.88-62.27c-38.8-38.74-62.81-91.99-62.81-148.42c0-54.26,19.01-101.97,50.47-138.37
		c27.61-31.88,64.85-54.75,107.09-65.57c6.56-37.6,25.09-71.23,51.44-96.62c31.76-30.62,74.96-49.45,122.49-49.45
		c15.82,0,31.29,2.11,46.02,6.14c2.77,0.66,5.42,1.5,8.12,2.35c14.56-40.79,39.95-76.4,72.61-103.42
		c41.27-34.17,94.21-54.75,151.97-54.75c65.88,0,125.56,26.65,168.75,69.91c41.03,41.03,67.26,97.04,69.73,159.13
		c62.99,2.23,119.84,28.64,161.59,70.33c43.5,43.62,70.45,103.78,70.45,170.25c0,66.54-26.95,126.7-70.45,170.32
		c-43.62,43.56-103.84,70.45-170.32,70.45c-16.6,0-30.08-13.48-30.08-30.08c0-16.54,13.48-30.08,30.08-30.08
		c49.87,0,95.05-20.15,127.72-52.82c32.67-32.67,52.88-77.91,52.88-127.78c0-49.93-20.21-95.05-52.88-127.72
		c-32.67-32.67-77.85-52.82-127.72-52.82c-4.21,0-7.46,0-9.62,0.12c-3.13,0.06-6.38,0.42-9.63,0.78v-0.12
		c-1.93,0.24-3.91,0.24-5.96,0.12c-16.48-1.62-28.52-16.3-26.95-32.91c0.3-2.95,0.54-5.84,0.72-8.78v-0.48
		c0.12-1.98,0.18-5.05,0.18-9.15c0-49.27-19.97-93.91-52.28-126.22c-32.31-32.31-76.95-52.28-126.22-52.28
		c-43.26,0-82.84,15.4-113.7,40.91c-30.98,25.57-53.18,61.42-61.36,102.33c-0.48,3.85-1.69,7.76-3.91,11.37
		c-8.3,14.32-26.71,19.25-41.09,10.95c-8.84-5.17-18.29-9.26-28.16-11.85c-9.63-2.59-19.85-4.03-30.5-4.03
		c-31.46,0-59.98,12.33-80.85,32.55c-20.76,19.97-34.11,47.47-35.62,78.15c0.24,14.92-10.65,27.97-25.81,30.08
		c-37.36,5.41-70.21,23.28-93.43,49.93c-22.2,25.75-35.61,59.92-35.61,99.15c0,40.13,17.33,78.03,45.18,105.88
		C91.72,2804.09,128.96,2821.48,169.87,2821.48 M371.65,2817.62c-11.73,11.73-30.8,11.73-42.53,0c-11.73-11.73-11.73-30.8,0-42.53
		l148.96-148.9c0.6-0.66,1.26-1.26,1.92-1.86c0.36-0.24,0.66-0.6,1.02-0.84l0.3-0.18l0.42-0.36h0.06l0.48-0.36l0.36-0.24l0.18-0.12
		l0.36-0.24l0.24-0.12l0.3-0.24l0.54-0.36c4.45-2.59,9.69-4.09,15.28-4.09c5.6,0,10.83,1.5,15.28,4.09l0.54,0.36l0.3,0.24l0.18,0.12
		l0.42,0.24l0.18,0.12l0.36,0.24l0.48,0.36h0.06l0.42,0.36l0.24,0.18c0.36,0.24,0.72,0.6,1.02,0.84h0.06
		c0.66,0.6,1.32,1.2,1.93,1.86l148.96,148.9c11.73,11.73,11.73,30.8,0,42.53c-11.73,11.73-30.8,11.73-42.53,0l-97.82-97.76v372.15
		c0,16.54-13.48,29.96-30.08,29.96c-16.6,0-30.08-13.42-30.08-29.96v-372.15L371.65,2817.62z"/>
</g>
</svg>
