<?xml version="1.0" encoding="utf-8"?>
<!-- Generator: Adobe Illustrator 24.3.0, SVG Export Plug-In . SVG Version: 6.00 Build 0)  -->
<svg version="1.1" id="Laag_1" xmlns="http://www.w3.org/2000/svg" xmlns:xlink="http://www.w3.org/1999/xlink" x="0px" y="0px"
	 viewBox="0 0 1024 1024" style="enable-background:new 0 0 1024 1024;" xml:space="preserve">
<style type="text/css">
	.st0{clip-path:url(#SVGID_2_);}
</style>
<g>
	<defs>
		<rect id="SVGID_1_" x="50" y="109.23" width="924" height="805.53"/>
	</defs>
	<clipPath id="SVGID_2_">
		<use xlink:href="#SVGID_1_"  style="overflow:visible;"/>
	</clipPath>
	<path class="st0" d="M279.27,456.23C152.85,456.23,50,559.08,50,685.5s102.85,229.27,229.27,229.27S508.54,811.91,508.54,685.5
		S405.68,456.23,279.27,456.23 M279.27,877.58c-105.92,0-192.08-86.16-192.08-192.08c0-105.91,86.17-192.07,192.08-192.07
		c105.91,0,192.08,86.17,192.08,192.07C471.35,791.42,385.18,877.58,279.27,877.58"/>
	<path class="st0" d="M279.27,606.03c-43.82,0-79.47,35.65-79.47,79.47c0,43.82,35.65,79.47,79.47,79.47
		c43.81,0,79.46-35.65,79.46-79.47C358.73,641.68,323.08,606.03,279.27,606.03 M279.27,727.78c-23.32,0-42.28-18.97-42.28-42.27
		c0-23.31,18.97-42.28,42.28-42.28c23.31,0,42.27,18.97,42.27,42.28C321.54,708.81,302.58,727.78,279.27,727.78"/>
	<path class="st0" d="M973.59,755.87c-2.04-10.02-11.92-16.46-21.94-14.41l-72.11,15.07c-0.74,0.15-1.4-0.29-1.62-0.95l-50.03-141.9
		c-15.21-43.15-56.17-72.18-101.95-72.18h-22.97l0.45-207.28c0.07-16.53-6.22-32.11-17.7-44.03
		c-12.14-12.65-29.26-19.31-46.74-19.31H297.85v-59.54c0-56.24-45.79-102.1-102.03-102.1h-65.97c-10.16,0-19.09,7.9-19.38,18.14
		c-0.22,10.53,8.19,19.09,18.66,19.09h66.7c35.77,0,64.88,29.11,64.88,64.88v220.81c6.07-0.44,12.36-0.73,18.58-0.73
		c103.42,0,192.58,62.17,232.22,151.03h154.25l-0.07,41.11l-0.07,98.67c6.07-1.1,12.28-1.61,18.64-1.61
		c6.37,0,12.58,0.51,18.59,1.61l0.07-98.67v-44.84h23.05c30.05,0,56.9,19.02,66.92,47.39l49.95,141.82
		c5.49,15.65,20.41,25.82,36.5,25.82c2.56,0,5.19-0.29,7.83-0.88l72.04-14.99C969.28,775.77,975.71,765.96,973.59,755.87
		 M666.11,381.61H297.85V308.1h342.59c6.88,0,13.38,2.71,18.29,7.61c4.83,4.9,7.54,11.41,7.47,18.36L666.11,381.61z"/>
	<path class="st0" d="M684.25,746.2c-46.47,0-84.28,37.81-84.28,84.29c0,46.47,37.81,84.28,84.28,84.28s84.28-37.81,84.28-84.28
		C768.53,784.01,730.73,746.2,684.25,746.2 M684.25,878.53c-26.49,0-48.05-21.55-48.05-48.05c0-26.49,21.55-48.05,48.05-48.05
		c26.49,0,48.05,21.56,48.05,48.05C732.3,856.98,710.74,878.53,684.25,878.53"/>
	<path class="st0" d="M684.25,814.67c-8.73,0-15.82,7.08-15.82,15.81c0,8.73,7.09,15.81,15.82,15.81c8.73,0,15.81-7.08,15.81-15.81
		C700.07,821.75,692.98,814.67,684.25,814.67"/>
</g>
</svg>
