<svg xmlns="http://www.w3.org/2000/svg" xmlns:xlink="http://www.w3.org/1999/xlink" id="Laag_1" x="0" y="0" version="1.1" viewBox="0 0 1024 1024" xml:space="preserve" style="enable-background:new 0 0 1024 1024"><style type="text/css">.st0{clip-path:url(#SVGID_2_)}</style><g><defs><rect id="SVGID_1_" width="1024" height="924" y="50"/></defs><clipPath id="SVGID_2_"><use xlink:href="#SVGID_1_" style="overflow:visible"/></clipPath><path d="M2130.45-907.19c-10.11-10.1-10.11-26.53,0-36.64c10.1-10.1,26.53-10.1,36.64,0l127.42,127.42l273.19-273.19 c10.1-10.1,26.48-10.1,36.64,0c10.1,10.16,10.1,26.53,0,36.64l-291.49,291.54c-10.16,10.1-26.53,10.1-36.64,0L2130.45-907.19z" class="st0"/><path d="M665.95-798.07c10.1,10.11,10.1,26.53,0,36.64c-10.11,10.1-26.53,10.1-36.64,0L501.89-888.85L374.46-761.43 c-10.11,10.1-26.53,10.1-36.64,0c-10.11-10.1-10.11-26.53,0-36.64l127.42-127.42l-127.42-127.42c-10.11-10.16-10.11-26.53,0-36.64 c10.11-10.16,26.53-10.16,36.64,0l127.42,127.37l127.42-127.37c10.1-10.16,26.53-10.16,36.64,0c10.1,10.1,10.1,26.48,0,36.64 L538.52-925.49L665.95-798.07z" class="st0"/><path d="M796.79,652.27c5.7-13.06,20.93-19.02,33.99-13.37c13.11,5.7,19.07,20.94,13.37,33.99 c-20.78,47.36-50.68,90.58-88.56,126.85c-36.48,34.98-80.27,63.43-130.27,82.96c-101.83,39.69-210.08,34.3-302.83-6.37 c-92.81-40.78-170.07-117.01-209.82-218.89c-39.64-101.82-34.31-210.02,6.43-302.83c40.73-92.81,116.96-170.02,218.83-209.71 c101.83-39.69,210.13-34.41,302.83,6.37c84.62,37.15,156.29,103.74,198.37,192.41l28.19-106.49c3.68-13.73,17.83-22.08,31.61-18.4 c13.78,3.63,22.02,17.72,18.45,31.56l-47.31,178.47c-3.63,13.84-17.77,22.02-31.56,18.4l-178.47-47.26 c-13.78-3.63-22.08-17.83-18.45-31.61c3.68-13.73,17.83-22.02,31.61-18.4l127.16,33.68c-35.03-85.92-101.15-150.28-180.28-185 c-80.68-35.5-174.94-40.16-263.55-5.54c-88.51,34.41-154.63,101.62-190.07,182.25c-35.45,80.68-40.11,174.89-5.55,263.55 c34.46,88.46,101.57,154.68,182.25,190.07c80.68,35.44,174.94,40.11,263.55,5.6c43.37-16.95,81.41-41.72,113.07-72.08 C752.69,730.94,778.75,693.37,796.79,652.27" class="st0"/><path d="M2025.09,672.92c-5.65-13.06,0.31-28.34,13.42-33.99c13.06-5.7,28.29,0.31,33.94,13.37 c18.09,41.09,44.15,78.61,77,110.22c31.71,30.31,69.75,55.14,113.12,72.03c88.61,34.51,182.82,29.85,263.55-5.54 c80.68-35.44,147.79-101.62,182.3-190.07c34.51-88.66,29.85-182.92-5.65-263.55c-35.34-80.68-101.57-147.89-190.07-182.3 c-88.61-34.62-182.82-29.95-263.55,5.6c-79.08,34.72-145.2,99.08-180.23,185l127.17-33.68c13.78-3.68,27.93,4.61,31.56,18.4 c3.63,13.78-4.61,27.93-18.4,31.56l-178.52,47.31c-13.73,3.63-27.93-4.56-31.56-18.45l-47.26-178.41 c-3.58-13.89,4.66-27.93,18.4-31.61c13.83-3.63,27.98,4.66,31.66,18.45l28.19,106.44c42.08-88.61,113.74-155.25,198.36-192.35 c92.71-40.83,201.01-46.07,302.83-6.37c101.88,39.64,178.05,116.85,218.83,209.66c40.68,92.81,46.07,201.01,6.37,302.83 c-39.69,101.93-117.01,178.16-209.82,218.94c-92.71,40.68-201.01,46.02-302.78,6.37c-50.01-19.54-93.84-47.98-130.32-83.02 C2075.82,763.5,2045.87,720.28,2025.09,672.92" class="st0"/><path d="M4548.07,652.28c5.7-13.06,20.94-19.02,34.05-13.37c13.06,5.65,19.02,20.94,13.37,33.99 c-20.83,47.36-50.78,90.58-88.56,126.8c-36.48,35.03-80.32,63.48-130.33,83.02h-0.1c-101.77,39.69-210.02,34.3-302.73-6.37 c-84.57-37.26-156.29-103.85-198.42-192.51l-28.24,106.59c-3.63,13.73-17.72,22.08-31.56,18.4c-13.84-3.63-22.02-17.77-18.45-31.56 l47.31-178.52c3.63-13.78,17.72-22.08,31.56-18.45l178.47,47.26c13.84,3.68,22.08,17.83,18.45,31.61 c-3.68,13.84-17.77,22.02-31.61,18.4l-127.11-33.58c35.08,85.92,101.15,150.17,180.28,185c80.17,35.13,173.54,39.95,261.64,6.27 c1.19-0.62,2.44-1.04,3.83-1.4c42.54-16.89,79.96-41.4,111.15-71.35C4504.02,730.89,4530.03,693.38,4548.07,652.28 M4618.65,237.21 c3.63-13.78,17.77-22.07,31.56-18.4c13.83,3.63,22.07,17.67,18.45,31.56l-47.26,178.41c-3.68,13.89-17.83,22.08-31.61,18.45 l-178.47-47.26c-13.83-3.68-22.07-17.83-18.4-31.61c3.63-13.73,17.72-22.08,31.56-18.4l127.11,33.68 c-35.08-86.02-101.15-150.28-180.23-184.99c-80.17-35.24-173.6-40.11-261.64-6.37c-1.24,0.62-2.49,1.09-3.89,1.5 c-42.54,16.89-79.91,41.4-111.15,71.25c-32.91,31.56-58.97,69.23-76.95,110.22c-5.75,13.16-20.99,19.12-34.05,13.37 c-13.11-5.65-19.07-20.83-13.37-33.99c20.78-47.26,50.73-90.48,88.56-126.85c36.48-34.87,80.27-63.43,130.27-82.86l0.1-0.1 c101.77-39.59,210.02-34.3,302.73,6.48c84.67,37.16,156.34,103.74,198.42,192.51L4618.65,237.21z" class="st0"/><path d="M-3413.77-1050.68c0-23.37,7.56-47.05,22.59-71.1c14.98-23.94,36.89-43.84,65.65-59.64 c28.86-15.75,62.39-23.58,100.84-23.58c35.65,0,67.16,6.58,94.52,19.85c27.36,13.06,48.4,30.99,63.38,53.63 c14.87,22.7,22.33,47.26,22.33,73.89c0,20.93-4.3,39.18-12.75,54.98c-8.55,15.75-18.66,29.33-30.26,40.73 c-11.71,11.56-32.75,30.68-63.01,57.83c-8.45,7.67-15.13,14.35-20.16,20.11c-5.03,5.8-8.81,11.14-11.19,15.91 c-2.54,4.77-4.41,9.59-5.8,14.41c-1.4,4.71-3.42,13.21-6.06,25.29c-4.66,25.6-19.28,38.35-44,38.35 c-12.75,0-23.58-4.15-32.28-12.54c-8.81-8.45-13.06-20.78-13.06-37.26c0-20.68,3.11-38.55,9.53-53.74 c6.43-15.08,14.92-28.45,25.5-39.9c10.57-11.3,24.82-24.98,42.85-40.78c15.75-13.89,27.1-24.2,34.15-31.14 c7.05-7,12.95-14.82,17.77-23.53c4.82-8.6,7.15-17.88,7.15-28.03c0-19.69-7.31-36.22-21.92-49.9 c-14.72-13.42-33.53-20.21-56.69-20.21c-27.1,0-47,6.79-59.85,20.57c-12.8,13.52-23.58,33.79-32.44,60.26 c-8.45,27.78-24.3,41.71-47.62,41.71c-13.89,0-25.5-4.82-34.93-14.56C-3408.95-1028.92-3413.77-1039.28-3413.77-1050.68 M-3573.17-925.48c0,94.98,38.5,181.01,100.79,243.34c62.24,62.23,148.26,100.68,243.24,100.68c95.04,0,181.06-38.45,243.34-100.68 c62.24-62.34,100.79-148.36,100.79-243.34c0-95.04-38.55-181-100.79-243.29c-62.29-62.24-148.31-100.79-243.34-100.79 c-94.98,0-181,38.55-243.24,100.79C-3534.67-1106.49-3573.17-1020.52-3573.17-925.48 M-3509.02-645.5 c-71.67-71.67-115.97-170.64-115.97-279.98c0-109.29,44.31-208.26,115.97-279.88c71.61-71.67,170.59-116.02,279.88-116.02 c109.34,0,208.32,44.36,279.98,116.02c71.61,71.61,115.97,170.59,115.97,279.88c0,109.34-44.36,208.31-115.97,279.98 c-71.67,71.56-170.64,115.87-279.98,115.87C-3338.43-529.63-3437.4-573.94-3509.02-645.5 M-3233.65-646.02 c-15.03,0-28.09-4.82-39.33-14.56c-11.19-9.69-16.79-23.37-16.79-40.78c0-15.6,5.44-28.55,16.27-39.18 c10.88-10.52,24.1-15.91,39.85-15.91c15.49,0,28.6,5.39,39.18,15.91c10.57,10.62,15.91,23.58,15.91,39.18 c0,17.2-5.55,30.73-16.63,40.57C-3206.29-650.84-3219.04-646.02-3233.65-646.02" class="st0"/><path d="M-1404.21-856.42l-11.87-176.81c-2.12-34.41-3.27-59.13-3.27-74.1c0-20.52,5.29-36.43,16.01-47.93 c10.73-11.45,24.82-17.15,42.34-17.15c21.19,0,35.29,7.31,42.49,21.97c7.15,14.61,10.73,35.75,10.73,63.38 c0,16.27-0.88,32.65-2.7,49.38l-15.86,182.09c-1.66,21.61-5.29,38.24-10.93,49.9c-5.7,11.4-15.13,17.15-28.14,17.15 c-13.37,0-22.54-5.44-27.72-16.69S-1401.93-833.46-1404.21-856.42 M-1363.28-613.44c-14.98,0-28.09-4.98-39.33-14.56 c-11.19-9.69-16.74-23.37-16.74-40.78c0-15.39,5.29-28.34,16.01-39.07c10.73-10.73,23.84-16.01,39.43-16.01 c15.49,0,28.76,5.28,39.69,16.01c10.99,10.73,16.43,23.68,16.43,39.07c0,17.21-5.55,30.73-16.69,40.58 C-1335.55-618.41-1348.41-613.44-1363.28-613.44 M-1065.52-1018.15c128.15,221.94,185.05,348.28,142.04,425.65 c-43.22,77.88-179.4,93.22-437.25,93.22c-257.39,0-395.59-13.73-441.29-89.96c-45.81-76.33,9.07-201.94,137.94-425.18l0.05-0.1 h-0.05c128.67-222.88,209.71-335.69,298.48-337.19c89.08-1.45,170.43,108.77,299.31,332.06 C-1065.99-1019.18-1065.78-1018.67-1065.52-1018.15 M-968.62-617.58c30.99-55.86-23.16-169.6-141.57-374.86 c-0.31-0.41-0.57-0.83-0.83-1.3c-118.77-205.72-190.12-307.39-253.76-306.36c-63.89,1.09-135.56,105.35-254.54,311.49h-0.05 c-118.72,205.67-171.11,318.17-138.31,372.89c32.85,54.72,158.93,64.62,396.94,64.62C-1123.2-551.1-999.45-562.03-968.62-617.58" class="st0"/><path d="M4398.36-704.12c-10.11,10.11-26.53,10.11-36.64,0c-10.1-10.1-10.1-26.53,0-36.69l158.83-158.77h-637.9 c-14.35,0-25.91-11.66-25.91-25.91c0-14.35,11.56-25.91,25.91-25.91h637.9l-158.83-158.88c-10.1-10.1-10.1-26.53,0-36.64 s26.53-10.1,36.64,0l202.92,202.92c0.52,0.52,1.04,1.04,1.5,1.61v0.05l0.78,0.88l0.16,0.21l0.31,0.42v0.05l0.31,0.36l0.21,0.31 l0.05,0.16l0.26,0.41l0.15,0.16l0.1,0.21l0.31,0.52c2.28,3.83,3.58,8.34,3.58,13.16c0,4.77-1.3,9.28-3.58,13.16l-0.31,0.47 l-0.1,0.21l-0.15,0.21l-0.26,0.36l-0.05,0.16l-0.21,0.31l-0.31,0.36v0.05l-0.31,0.42l-0.16,0.21c-0.26,0.31-0.52,0.62-0.78,0.88 v0.05c-0.47,0.57-0.98,1.09-1.5,1.61L4398.36-704.12z" class="st0"/><path d="M5969.54-740.78c10.1,10.11,10.1,26.53,0,36.69c-10.1,10.1-26.58,10.1-36.69,0l-202.87-202.93 c-0.52-0.52-1.04-1.09-1.5-1.61l-0.05-0.05c-0.26-0.31-0.52-0.62-0.73-0.93l-0.21-0.21l-0.26-0.36l-0.05-0.05l-0.26-0.36 l-0.21-0.36l-0.1-0.16l-0.21-0.36l-0.16-0.16l-0.16-0.26l-0.26-0.47c-2.33-3.83-3.58-8.34-3.58-13.16s1.24-9.33,3.58-13.16 l0.26-0.47l0.16-0.26l0.16-0.16l0.21-0.36l0.1-0.16l0.21-0.36l0.26-0.36l0.05-0.05l0.26-0.36l0.21-0.21 c0.21-0.31,0.47-0.62,0.73-0.93l0.05-0.05c0.47-0.52,0.98-1.09,1.5-1.61l202.87-202.87c10.11-10.1,26.58-10.1,36.69,0 c10.1,10.1,10.1,26.48,0,36.64l-158.83,158.83h637.9c14.3,0,25.91,11.61,25.91,25.91s-11.61,25.91-25.91,25.91h-637.9 L5969.54-740.78z" class="st0"/><path d="M-3413.85,384.98c-10.11,10.11-26.53,10.11-36.64,0c-10.1-10.1-10.1-26.63,0-36.64l202.87-202.92 c0.52-0.52,1.09-1.04,1.66-1.5c0.31-0.31,0.62-0.52,0.93-0.83l0.21-0.1l0.36-0.31l0.05-0.1l0.41-0.21l0.31-0.21l0.16-0.05 l0.36-0.31l0.21-0.1l0.21-0.21l0.47-0.21c3.89-2.33,8.34-3.63,13.16-3.63c4.82,0,9.33,1.29,13.16,3.63l0.47,0.21l0.26,0.21 l0.16,0.1l0.36,0.31l0.21,0.05l0.31,0.21l0.36,0.21l0.05,0.1l0.36,0.31l0.21,0.1c0.31,0.31,0.62,0.52,0.93,0.83h0.05 c0.52,0.47,1.09,0.98,1.61,1.5l202.87,202.92c10.16,10,10.16,26.53,0,36.64c-10.1,10.11-26.48,10.11-36.64,0l-158.83-158.88V864 c0,14.35-11.61,25.91-25.91,25.91c-14.3,0-25.91-11.56-25.91-25.91V226.1L-3413.85,384.98z" class="st0"/><path d="M-1585.01,679.3c-10.11-10.1-10.11-26.53,0-36.64c10.1-10.11,26.53-10.11,36.64,0l158.83,158.77v-637.9 c0-14.3,11.66-25.91,25.91-25.91c14.35,0,25.91,11.61,25.91,25.91v637.9l158.88-158.77c10.1-10.11,26.53-10.11,36.64,0 c10.1,10.1,10.1,26.53,0,36.64l-202.93,202.92c-0.47,0.52-1.04,1.04-1.61,1.5h-0.05c-0.31,0.31-0.62,0.52-0.88,0.72l-0.21,0.21 l-0.42,0.31l-0.41,0.31l-0.31,0.21l-0.16,0.05l-0.36,0.31l-0.21,0.1l-0.26,0.1l-0.42,0.31c-3.89,2.23-8.34,3.52-13.21,3.52 c-4.77,0-9.28-1.3-13.11-3.52l-0.47-0.31l-0.26-0.1l-0.21-0.1l-0.31-0.31l-0.21-0.05l-0.31-0.21l-0.36-0.31h-0.05l-0.36-0.31 l-0.21-0.21c-0.36-0.21-0.62-0.41-0.93-0.72h-0.05c-0.57-0.47-1.09-0.98-1.61-1.5L-1585.01,679.3z" class="st0"/><path d="M366.64,2195.2c-10.16,10.16-26.58,10.16-36.69,0c-10.1-10.1-10.1-26.48,0-36.64l153.44-153.44 c0.52-0.47,1.09-0.98,1.61-1.5h0.1c0.26-0.31,0.57-0.52,0.88-0.83l0.21-0.1l0.36-0.26h0.05l0.41-0.31l0.31-0.21l0.16-0.1l0.36-0.31 l0.16-0.1l0.26-0.1l0.47-0.31c3.83-2.33,8.34-3.52,13.16-3.52c4.82,0,9.33,1.19,13.16,3.52l0.47,0.31l0.21,0.1l0.21,0.1l0.36,0.31 l0.16,0.1l0.31,0.21l0.42,0.31h0.05l0.36,0.26l0.21,0.1c0.31,0.31,0.62,0.52,0.93,0.83h0.05c0.52,0.52,1.09,1.04,1.61,1.5 l153.39,153.44c10.16,10.16,10.16,26.53,0,36.64c-10.1,10.16-26.48,10.16-36.64,0L527.8,2085.92v395.33 c0,14.25-11.61,25.91-25.91,25.91c-14.3,0-25.91-11.66-25.91-25.91v-395.33L366.64,2195.2z M845.97,2493.79 c0-14.25,11.61-25.81,25.91-25.81c14.3,0,25.91,11.56,25.91,25.81v146.44c0,33.32-13.63,63.58-35.55,85.45 c-21.87,21.92-52.13,35.5-85.4,35.5H226.94c-33.27,0-63.53-13.58-85.45-35.5c-21.92-21.87-35.5-52.13-35.5-85.45v-146.44 c0-14.25,11.61-25.81,25.91-25.81c14.3,0,25.91,11.56,25.91,25.81v146.44c0,18.91,7.83,36.22,20.31,48.81 c12.54,12.54,29.85,20.31,48.81,20.31h549.91c18.97,0,36.27-7.77,48.76-20.31c12.59-12.59,20.37-29.9,20.37-48.81V2493.79z" class="st0"/><path d="M2195.48,2345.89c-10.1-10.1-10.1-26.48,0-36.64c10.1-10.1,26.53-10.1,36.64,0l109.34,109.44v-395.33 c0-14.35,11.61-25.91,25.91-25.91c14.35,0,25.91,11.56,25.91,25.91v395.33l109.39-109.44c10.1-10.1,26.48-10.1,36.64,0 c10.1,10.16,10.1,26.53,0,36.64l-153.39,153.44l-1.66,1.55h-0.05c-0.26,0.31-0.57,0.47-0.93,0.78l-0.21,0.1l-0.36,0.31h-0.05 l-0.42,0.31l-0.26,0.21l-0.16,0.21l-0.36,0.21l-0.21,0.1l-0.26,0.1l-0.47,0.26c-3.83,2.33-8.34,3.68-13.16,3.68 c-4.77,0-9.28-1.35-13.16-3.68l-0.41-0.26l-0.26-0.1l-0.21-0.1l-0.36-0.21l-0.16-0.21l-0.31-0.21l-0.42-0.31h-0.05l-0.31-0.31 l-0.21-0.1c-0.31-0.31-0.62-0.47-0.93-0.78h-0.05c-0.57-0.52-1.09-1.04-1.61-1.55L2195.48,2345.89z M2711.45,2493.79 c0-14.25,11.66-25.81,25.91-25.81c14.3,0,25.91,11.56,25.91,25.81v146.44c0,33.32-13.58,63.58-35.5,85.45 c-21.87,21.92-52.13,35.5-85.45,35.5h-549.86c-33.32,0-63.53-13.58-85.5-35.5c-21.87-21.87-35.45-52.13-35.45-85.45v-146.44 c0-14.25,11.56-25.81,25.91-25.81c14.25,0,25.91,11.56,25.91,25.81v146.44c0,18.91,7.77,36.22,20.26,48.81 c12.54,12.54,29.85,20.31,48.87,20.31h549.86c18.97,0,36.27-7.77,48.81-20.31c12.59-12.59,20.31-29.9,20.31-48.81V2493.79z" class="st0"/><path d="M5969.44,784.45c10.1,10.11,10.1,26.53,0,36.64c-10.05,10.1-26.53,10.1-36.59,0l-202.72-202.72 c-4.92-4.77-7.93-11.35-7.93-18.71c0-4.09,0.88-7.93,2.59-11.35l0.1-0.21l0.15-0.31l0.16-0.41l0.1-0.1l0.21-0.41l0.15-0.16 l0.21-0.31l0.05-0.21c0.62-1.04,1.35-2.02,2.12-2.95l0.1-0.1c0.26-0.31,0.52-0.57,0.67-0.88h0.05c0.26-0.31,0.57-0.52,0.83-0.83 l0.05-0.1l203.08-203.03c10.05-10.1,26.53-10.1,36.59,0c10.1,10.1,10.1,26.53,0,36.64l-158.78,158.83h534.78 c21.24,0,40.57-8.71,54.62-22.7c13.99-14.04,22.7-33.37,22.7-54.67V224.86c0-14.35,11.61-25.91,25.91-25.91 c14.3,0,25.91,11.56,25.91,25.91v271.53c0,35.55-14.51,67.93-37.88,91.31c-23.48,23.37-55.76,37.88-91.25,37.88h-534.78 L5969.44,784.45z" class="st0"/><path d="M3948.91,2529.93c14.3,0,25.91,11.61,25.91,25.91c0,14.25-11.61,25.91-25.91,25.91 c-49.69,0-94.73-20.83-127.37-53.63c-33.42-33.42-54.1-79.28-54.1-127.84c0-46.74,16.38-87.83,43.43-119.24 c23.84-27.41,55.91-47.16,92.29-56.48c5.65-32.39,21.61-61.3,44.31-83.17c27.41-26.43,64.57-42.6,105.5-42.6 c13.63,0,26.95,1.81,39.64,5.23c2.38,0.62,4.66,1.29,7,2.02c12.54-35.13,34.41-65.76,62.55-89.08 c35.55-29.43,81.15-47.16,130.9-47.16c56.74,0,108.15,23.01,145.35,60.21c35.34,35.34,57.93,83.64,60.06,137.06 c54.25,1.92,103.22,24.67,139.19,60.63c37.46,37.52,60.68,89.34,60.68,146.65c0,57.26-23.21,109.08-60.68,146.65 c-37.57,37.57-89.44,60.73-146.75,60.73c-14.25,0-25.91-11.66-25.91-25.91c0-14.3,11.66-25.91,25.91-25.91 c43.01,0,81.93-17.41,110.06-45.55c28.14-28.14,45.55-67.11,45.55-110.01c0-43.01-17.41-81.88-45.55-110.01 c-28.14-28.14-67.05-45.55-110.06-45.55c-3.63,0-6.37,0-8.24,0.1c-2.69,0.1-5.49,0.42-8.29,0.73v-0.1 c-1.66,0.21-3.37,0.21-5.13,0.1c-14.2-1.45-24.56-14.09-23.21-28.34c0.26-2.54,0.46-5.08,0.62-7.62v-0.41 c0.1-1.71,0.16-4.35,0.16-7.88c0-42.39-17.2-80.84-45.03-108.72c-27.83-27.83-66.28-45.03-108.72-45.03 c-37.26,0-71.41,13.27-97.94,35.24c-26.69,22.07-45.81,52.91-52.85,88.15c-0.42,3.37-1.5,6.68-3.32,9.85 c-7.2,12.33-23.11,16.58-35.44,9.38c-7.62-4.46-15.75-7.98-24.25-10.21c-8.29-2.23-17.1-3.42-26.27-3.42 c-27.1,0-51.66,10.62-69.65,28.04c-17.88,17.2-29.38,40.89-30.68,67.26c0.21,12.85-9.17,24.1-22.23,25.91 c-32.18,4.66-60.47,20.05-80.47,43.01c-19.12,22.18-30.68,51.66-30.68,85.45c0,34.51,14.87,67.21,38.92,91.2 C3881.6,2514.95,3913.67,2529.93,3948.91,2529.93 M4086.08,2652.69c-10.11-10.1-10.11-26.53,0-36.64c10.1-10.1,26.53-10.1,36.63,0 l84.26,84.31V2379.8c0-14.35,11.61-25.91,25.91-25.91c14.3,0,25.91,11.56,25.91,25.91v320.55l84.26-84.31 c10.1-10.1,26.53-10.1,36.64,0c10.1,10.11,10.1,26.53,0,36.64l-128.36,128.36c-0.47,0.47-1.04,0.98-1.61,1.5h-0.05 c-0.31,0.31-0.57,0.52-0.88,0.78l-0.21,0.1l-0.36,0.31h-0.05l-0.42,0.31l-0.31,0.21l-0.16,0.1l-0.36,0.31l-0.15,0.1l-0.26,0.1 l-0.47,0.31c-3.83,2.33-8.34,3.52-13.16,3.52c-4.82,0-9.33-1.19-13.16-3.52l-0.52-0.31l-0.21-0.1l-0.15-0.1l-0.36-0.31l-0.16-0.1 l-0.31-0.21l-0.41-0.31h-0.05l-0.36-0.31l-0.21-0.1c-0.31-0.26-0.62-0.47-0.93-0.78c-0.62-0.52-1.14-1.04-1.66-1.5L4086.08,2652.69 z" class="st0"/><path d="M5814.42,2529.89c14.3,0,25.91,11.66,25.91,25.91c0,14.3-11.61,25.91-25.91,25.91 c-49.69,0-94.67-20.83-127.37-53.63c-33.42-33.37-54.1-79.23-54.1-127.84c0-46.74,16.38-87.83,43.48-119.19 c23.78-27.46,55.86-47.15,92.24-56.48c5.65-32.39,21.61-61.35,44.31-83.22c27.36-26.38,64.57-42.59,105.51-42.59 c13.63,0,26.95,1.81,39.64,5.28c2.38,0.57,4.66,1.3,7,2.02c12.54-35.13,34.41-65.81,62.55-89.08 c35.55-29.43,81.15-47.16,130.9-47.16c56.74,0,108.15,22.96,145.35,60.21c35.34,35.34,57.93,83.59,60.06,137.06 c54.25,1.92,103.23,24.67,139.19,60.58c37.47,37.57,60.68,89.39,60.68,146.65c0,57.31-23.21,109.13-60.68,146.7 c-37.57,37.52-89.44,60.68-146.7,60.68c-14.3,0-25.91-11.61-25.91-25.91c0-14.25,11.61-25.91,25.91-25.91 c42.96,0,81.88-17.36,110.01-45.5c28.14-28.14,45.55-67.11,45.55-110.07c0-43.01-17.41-81.87-45.55-110.01 c-28.14-28.14-67.05-45.5-110.01-45.5c-3.63,0-6.43,0-8.29,0.1c-2.69,0.05-5.49,0.36-8.29,0.67v-0.1c-1.66,0.21-3.37,0.21-5.13,0.1 c-14.2-1.4-24.56-14.04-23.21-28.35c0.26-2.54,0.47-5.03,0.62-7.56v-0.42c0.1-1.71,0.16-4.35,0.16-7.88 c0-42.44-17.2-80.89-45.03-108.72c-27.83-27.83-66.28-45.03-108.72-45.03c-37.26,0-71.35,13.27-97.94,35.24 c-26.69,22.02-45.81,52.91-52.86,88.15c-0.42,3.32-1.45,6.69-3.37,9.79c-7.15,12.33-23.01,16.58-35.39,9.43 c-7.62-4.46-15.75-7.98-24.25-10.21c-8.29-2.23-17.1-3.47-26.27-3.47c-27.1,0-51.66,10.62-69.65,28.03 c-17.88,17.2-29.38,40.89-30.68,67.31c0.21,12.85-9.17,24.1-22.23,25.91c-32.18,4.66-60.47,20.05-80.48,43.01 c-19.12,22.18-30.68,51.61-30.68,85.4c0,34.56,14.92,67.21,38.92,91.2C5747.1,2514.92,5779.18,2529.89,5814.42,2529.89 M5988.22,2526.58c-10.11,10.11-26.53,10.11-36.64,0c-10.1-10.1-10.1-26.53,0-36.64l128.31-128.25c0.52-0.57,1.09-1.09,1.66-1.61 c0.31-0.21,0.57-0.52,0.88-0.72l0.26-0.16l0.36-0.31h0.05l0.42-0.31l0.31-0.21l0.16-0.1l0.31-0.21l0.21-0.1l0.26-0.21l0.47-0.31 c3.83-2.23,8.34-3.52,13.16-3.52c4.82,0,9.33,1.3,13.16,3.52l0.47,0.31l0.26,0.21l0.16,0.1l0.36,0.21l0.16,0.1l0.31,0.21l0.41,0.31 h0.05l0.36,0.31l0.21,0.16c0.31,0.21,0.62,0.52,0.88,0.72h0.05c0.57,0.52,1.14,1.04,1.66,1.61l128.31,128.25 c10.1,10.1,10.1,26.53,0,36.64c-10.11,10.11-26.53,10.11-36.64,0l-84.26-84.21v320.56c0,14.25-11.61,25.81-25.91,25.81 c-14.3,0-25.91-11.56-25.91-25.81v-320.56L5988.22,2526.58z" class="st0"/></g></svg>