<?xml version="1.0" encoding="utf-8"?>
<!-- Generator: Adobe Illustrator 24.3.0, SVG Export Plug-In . SVG Version: 6.00 Build 0)  -->
<svg version="1.1" id="Laag_1" xmlns="http://www.w3.org/2000/svg" xmlns:xlink="http://www.w3.org/1999/xlink" x="0px" y="0px"
	 viewBox="0 0 1024 1024" style="enable-background:new 0 0 1024 1024;" xml:space="preserve">
<style type="text/css">
	.st0{clip-path:url(#SVGID_2_);fill:none;stroke:#14171C;stroke-width:46.753;stroke-linejoin:round;stroke-miterlimit:10;}
	.st1{clip-path:url(#SVGID_2_);fill:none;stroke:#14171C;stroke-width:46.753;stroke-miterlimit:10;}
	.st2{clip-path:url(#SVGID_2_);fill:#14171C;}
	.st3{clip-path:url(#SVGID_4_);fill:none;stroke:#14171C;stroke-width:46.753;stroke-linejoin:round;stroke-miterlimit:10;}
	.st4{clip-path:url(#SVGID_4_);fill:none;stroke:#14171C;stroke-width:46.753;stroke-miterlimit:10;}
	.st5{clip-path:url(#SVGID_4_);fill:#14171C;}
</style>
<g>
	<defs>
		<rect id="SVGID_1_" width="1024" height="1024"/>
	</defs>
	<clipPath id="SVGID_2_">
		<use xlink:href="#SVGID_1_"  style="overflow:visible;"/>
	</clipPath>
	<path class="st0" d="M-4607.49-6080.23c51.64,0,93.51,41.87,93.51,93.51v561.04c0,51.64-41.87,93.51-93.51,93.51h-561.04
		c-51.64,0-93.51-41.87-93.51-93.51v-561.04c0-51.64,41.87-93.51,93.51-93.51H-4607.49z"/>
	<path class="st1" d="M-4630.87-5869.84c0,51.64-41.87,93.51-93.51,93.51c-51.64,0-93.51-41.87-93.51-93.51
		c0-51.64,41.87-93.51,93.51-93.51C-4672.74-5963.34-4630.87-5921.47-4630.87-5869.84z"/>
	
		<ellipse transform="matrix(0.7071 -0.7071 0.7071 0.7071 5814.2529 2489.3306)" class="st0" cx="5912.01" cy="-5773.76" rx="116.88" ry="116.88"/>
	<path class="st0" d="M5912.01-6101.03c180.7,0,327.27,146.57,327.27,327.27c0,47.46-10.05,92.34-28.29,133.01
		c-14.96,33.66-35.53,64.29-60.31,90.7l-238.67,238.68l-238.68-238.68c-24.78-26.42-45.35-57.04-60.31-90.7
		c-18.23-40.67-28.29-85.56-28.29-133.01C5584.74-5954.46,5731.31-6101.03,5912.01-6101.03z"/>
	<path class="st0" d="M-6723.12-5789.51c6.43-22.32,15.19-43.97,26.79-64.45l-54.98-67.44c-15.15-18.58-13.79-45.66,3.18-62.6
		l39.44-39.46c16.97-16.95,44.02-18.33,62.6-3.18l67.44,54.98l0.05-0.09c20.31-11.22,41.84-20.34,64.5-26.65l8.81-86.56
		c2.43-23.87,22.54-42.01,46.52-42.01h55.8c23.98,0,44.09,18.14,46.52,42.01l8.81,86.56l0.07-0.05
		c22.32,6.45,43.97,15.22,64.47,26.79l67.44-54.98c18.58-15.15,45.63-13.77,62.6,3.18l39.44,39.46
		c16.97,16.95,18.33,44.02,3.18,62.6l-54.98,67.44l0.09,0.02c11.22,20.34,20.34,41.85,26.65,64.52l86.56,8.81
		c23.87,2.43,42.01,22.54,42.01,46.52v55.78c0,23.98-18.14,44.09-42.01,46.52l-86.56,8.81l0.05,0.1
		c-6.43,22.32-15.19,43.97-26.79,64.45l54.98,67.44c15.15,18.58,13.79,45.65-3.18,62.6l-39.44,39.46
		c-16.97,16.95-44.02,18.33-62.6,3.15l-67.44-54.96l-0.05,0.09c-20.31,11.22-41.84,20.34-64.5,26.65l-8.81,86.56
		c-2.43,23.87-22.53,42.01-46.52,42.01h-55.8c-23.98,0-44.09-18.14-46.52-42.01l-8.81-86.56l-0.07,0.02
		c-22.33-6.43-43.97-15.19-64.47-26.77l-67.44,54.96c-18.58,15.17-45.63,13.79-62.6-3.15l-39.44-39.46
		c-16.97-16.95-18.33-44.02-3.18-62.6l54.98-67.44l-0.09-0.02c-11.22-20.34-20.36-41.84-26.67-64.52l-86.54-8.81
		c-23.87-2.43-42.03-22.54-42.03-46.52v-55.78c0-23.98,18.16-44.09,42.03-46.52l86.54-8.81L-6723.12-5789.51z"/>
	
		<ellipse transform="matrix(0.9487 -0.3162 0.3162 0.9487 1474.447 -2326.4448)" class="st0" cx="-6430.88" cy="-5706.2" rx="140.26" ry="140.26"/>
	<path class="st0" d="M1231.84-6085.28l-313.81,254.97c-5.45,4.42-8.63,11.08-8.63,18.14v479.78c0,12.9,10.45,23.38,23.38,23.38
		h210.39c12.93,0,23.38-10.47,23.38-23.38v-303.9c0-12.93,10.45-23.38,23.38-23.38h187.01c12.93,0,23.38,10.45,23.38,23.38v303.9
		c0,12.9,10.45,23.38,23.38,23.38h210.39c12.93,0,23.38-10.47,23.38-23.38v-479.78c0-7.06-3.18-13.72-8.63-18.14l-313.81-254.97
		C1304.96-6109.71,1261.9-6109.71,1231.84-6085.28z"/>
	
		<ellipse transform="matrix(0.7071 -0.7071 0.7071 0.7071 2979.8035 -4218.5151)" class="st1" cx="-3602.3" cy="-5706.2" rx="140.26" ry="140.26"/>
	
		<ellipse transform="matrix(0.7071 -0.7071 0.7071 0.7071 3312.2625 -3930.1748)" class="st1" cx="-3088.01" cy="-5963.34" rx="140.26" ry="140.26"/>
	
		<ellipse transform="matrix(0.7071 -0.7071 0.7071 0.7071 2948.6067 -3779.5435)" class="st1" cx="-3088.01" cy="-5449.05" rx="140.26" ry="140.26"/>
	<path class="st0" d="M6215.91-4420.48v584.42c0,51.64-41.87,93.51-93.51,93.51h-420.78c-51.64,0-93.51-41.87-93.51-93.51v-584.42"
		/>
	<path class="st0" d="M6052.27-4420.48h-280.52v-70.13c0-25.81,20.95-46.75,46.75-46.75h187.01c25.81,0,46.75,20.95,46.75,46.75
		V-4420.48z"/>
	<path class="st0" d="M-1942.55-6056.85h-327.27c-51.64,0-93.51,41.87-93.51,93.51v561.04c0,51.64,41.87,93.51,93.51,93.51h561.04
		c51.64,0,93.51-41.87,93.51-93.51v-327.27"/>
	<path class="st0" d="M-1568.52-5823.08v-257.14c0-12.9-10.47-23.38-23.38-23.38h-257.14"/>
	<path class="st0" d="M-399.69-6056.85h-327.27c-51.64,0-93.51,41.87-93.51,93.51v561.04c0,51.64,41.87,93.51,93.51,93.51h561.04
		c51.64,0,93.51-41.87,93.51-93.51v-327.27"/>
	<path class="st0" d="M-516.57-5893.21v257.14c0,12.9,10.47,23.38,23.38,23.38h257.14"/>
	
		<ellipse transform="matrix(0.7071 -0.7071 0.7071 0.7071 4895.7529 313.4898)" class="st0" cx="2826.29" cy="-5752.95" rx="327.27" ry="327.27"/>
	
		<ellipse transform="matrix(0.7071 -0.7071 0.7071 0.7071 5307.7402 1401.6212)" class="st0" cx="4345.78" cy="-5706.2" rx="350.65" ry="350.65"/>
	<path class="st0" d="M4544.14-6069.85l21.36-14.26c45.26-30.15,105.5-24.19,143.93,14.26c38.45,38.46,44.42,98.67,14.26,143.91
		l-14.26,21.39"/>
	<path class="st0" d="M4147.42-6069.85l-21.37-14.26c-45.26-30.15-105.5-24.19-143.93,14.26c-38.45,38.46-44.42,98.67-14.26,143.91
		l14.26,21.39"/>
	<path class="st0" d="M7595.14-5332.17h-607.79c-51.64,0-93.51-41.87-93.51-93.51v-561.04c0-51.64,41.87-93.51,93.51-93.51h607.79
		c51.64,0,93.51,41.87,93.51,93.51v561.04C7688.64-5374.04,7646.78-5332.17,7595.14-5332.17z"/>
	<path class="st0" d="M7104.23-5659.44h-93.51c-12.93,0-23.38-10.47-23.38-23.38v-93.51c0-12.9,10.45-23.38,23.38-23.38h93.51
		c12.93,0,23.38,10.48,23.38,23.38v93.51C7127.6-5669.92,7117.15-5659.44,7104.23-5659.44z"/>
	<path class="st0" d="M7337.99-5659.44h-93.51c-12.93,0-23.38-10.47-23.38-23.38v-93.51c0-12.9,10.45-23.38,23.38-23.38h93.51
		c12.93,0,23.38,10.48,23.38,23.38v93.51C7361.37-5669.92,7350.92-5659.44,7337.99-5659.44z"/>
	<path class="st0" d="M7571.76-5659.44h-93.51c-12.93,0-23.38-10.47-23.38-23.38v-93.51c0-12.9,10.45-23.38,23.38-23.38h93.51
		c12.93,0,23.38,10.48,23.38,23.38v93.51C7595.14-5669.92,7584.69-5659.44,7571.76-5659.44z"/>
	<path class="st0" d="M7104.23-5425.68h-93.51c-12.93,0-23.38-10.47-23.38-23.38v-93.51c0-12.9,10.45-23.38,23.38-23.38h93.51
		c12.93,0,23.38,10.47,23.38,23.38v93.51C7127.6-5436.15,7117.15-5425.68,7104.23-5425.68z"/>
	<path class="st0" d="M7337.99-5425.68h-93.51c-12.93,0-23.38-10.47-23.38-23.38v-93.51c0-12.9,10.45-23.38,23.38-23.38h93.51
		c12.93,0,23.38,10.47,23.38,23.38v93.51C7361.37-5436.15,7350.92-5425.68,7337.99-5425.68z"/>
	<path class="st0" d="M7571.76-5425.68h-93.51c-12.93,0-23.38-10.47-23.38-23.38v-93.51c0-12.9,10.45-23.38,23.38-23.38h93.51
		c12.93,0,23.38,10.47,23.38,23.38v93.51C7595.14-5436.15,7584.69-5425.68,7571.76-5425.68z"/>
	
		<ellipse transform="matrix(0.7071 -0.7071 0.7071 0.7071 1594.9065 -4709.9956)" class="st1" cx="-4888.01" cy="-4280.22" rx="397.4" ry="397.4"/>
	
		<ellipse transform="matrix(0.7071 -0.7071 0.7071 0.7071 1143.0129 -5800.9634)" class="st1" cx="-6430.88" cy="-4280.22" rx="397.4" ry="397.4"/>
	<path class="st0" d="M-2194.02-3999.7l350.91-607.79c18-31.16,63-31.16,80.98,0l350.91,607.79c18,31.16-4.49,70.13-40.49,70.13
		h-701.82C-2189.53-3929.57-2212.02-3968.54-2194.02-3999.7z"/>
	<path class="st2" d="M-1767.56-4046.45c0,19.38-15.69,35.06-35.07,35.06c-19.36,0-35.06-15.68-35.06-35.06
		c0-19.38,15.71-35.06,35.06-35.06C-1783.24-4081.52-1767.56-4065.83-1767.56-4046.45"/>
	<path class="st1" d="M-25.66-3859.44H-493.2c-51.64,0-93.51-41.87-93.51-93.51v-303.9c0-51.64,41.87-93.51,93.51-93.51h467.53
		c51.64,0,93.51,41.87,93.51,93.51v303.9C67.84-3901.31,25.98-3859.44-25.66-3859.44z"/>
	<path class="st1" d="M-49.04-4350.35h-420.78v-163.64c0-116.2,94.18-210.39,210.39-210.39c116.2,0,210.39,94.19,210.39,210.39
		V-4350.35z"/>
	<path class="st1" d="M1517.2-3859.44h-467.53c-51.64,0-93.51-41.87-93.51-93.51v-303.9c0-51.64,41.87-93.51,93.51-93.51h467.53
		c51.64,0,93.51,41.87,93.51,93.51v303.9C1610.7-3901.31,1568.84-3859.44,1517.2-3859.44z"/>
	<path class="st1" d="M1073.04-4350.35v-163.64c0-116.2,94.18-210.39,210.39-210.39c116.21,0,210.39,94.19,210.39,210.39v23.38"/>
	<line class="st1" x1="-3251.65" y1="-4654.25" x2="-3251.65" y2="-4235.55"/>
	<path class="st1" d="M-3051.78-4519.32c91.17,63.12,150.78,168.5,150.78,287.93c0,193.7-156.97,350.65-350.65,350.65
		c-193.68,0-350.65-156.95-350.65-350.65c0-119.43,59.61-224.81,150.78-287.93"/>
</g>
<g>
	<defs>
		<rect id="SVGID_3_" y="50" width="1024" height="924"/>
	</defs>
	<clipPath id="SVGID_4_">
		<use xlink:href="#SVGID_3_"  style="overflow:visible;"/>
	</clipPath>
	<path class="st3" d="M-2134.65,138.31c51.64,0,93.51,41.87,93.51,93.51v561.04c0,51.64-41.87,93.51-93.51,93.51h-561.04
		c-51.64,0-93.51-41.87-93.51-93.51V231.82c0-51.64,41.87-93.51,93.51-93.51H-2134.65z"/>
	
		<ellipse transform="matrix(0.0116 -0.9999 0.9999 0.0116 -2574.043 -1906.7351)" class="st4" cx="-2251.54" cy="348.7" rx="93.51" ry="93.51"/>
	
		<ellipse transform="matrix(0.9344 -0.3562 0.3562 0.9344 391.4286 3015.5305)" class="st3" cx="8384.85" cy="444.78" rx="116.88" ry="116.88"/>
	<path class="st3" d="M8384.85,117.51c180.7,0,327.27,146.57,327.27,327.27c0,47.46-10.05,92.34-28.29,133.01
		c-14.96,33.66-35.53,64.29-60.31,90.7l-238.67,238.68L8146.18,668.5c-24.78-26.42-45.35-57.04-60.31-90.7
		c-18.23-40.67-28.29-85.56-28.29-133.01C8057.58,264.08,8204.15,117.51,8384.85,117.51z"/>
	<path class="st3" d="M-4250.28,429.03c6.43-22.32,15.19-43.97,26.79-64.45l-54.98-67.44c-15.15-18.58-13.79-45.65,3.18-62.6
		l39.44-39.46c16.97-16.95,44.02-18.33,62.6-3.18l67.44,54.98l0.05-0.09c20.31-11.22,41.84-20.34,64.5-26.65l8.81-86.56
		c2.43-23.87,22.53-42.01,46.52-42.01h55.8c23.98,0,44.09,18.14,46.52,42.01l8.81,86.56l0.07-0.05
		c22.32,6.45,43.97,15.22,64.47,26.79l67.44-54.98c18.58-15.15,45.63-13.77,62.6,3.18l39.44,39.46
		c16.97,16.95,18.33,44.02,3.18,62.6l-54.98,67.44l0.09,0.02c11.22,20.34,20.34,41.84,26.65,64.52l86.56,8.81
		c23.87,2.43,42.01,22.53,42.01,46.52v55.78c0,23.98-18.14,44.09-42.01,46.52l-86.56,8.81l0.05,0.1
		c-6.43,22.32-15.19,43.97-26.79,64.45l54.98,67.44c15.15,18.58,13.79,45.65-3.18,62.6l-39.44,39.46
		c-16.97,16.95-44.02,18.33-62.6,3.15l-67.44-54.96l-0.05,0.09c-20.31,11.22-41.84,20.34-64.5,26.65l-8.81,86.56
		c-2.43,23.87-22.53,42.01-46.52,42.01h-55.8c-23.99,0-44.09-18.14-46.52-42.01l-8.81-86.56l-0.07,0.02
		c-22.32-6.43-43.97-15.19-64.47-26.77l-67.44,54.96c-18.58,15.17-45.63,13.79-62.6-3.15l-39.44-39.46
		c-16.97-16.95-18.33-44.02-3.18-62.6l54.98-67.44l-0.09-0.02c-11.22-20.34-20.36-41.84-26.67-64.52l-86.54-8.81
		c-23.87-2.43-42.03-22.54-42.03-46.52v-55.78c0-23.98,18.16-44.09,42.03-46.52l86.54-8.81L-4250.28,429.03z"/>
	
		<ellipse transform="matrix(0.9718 -0.2356 0.2356 0.9718 -232.1435 -918.137)" class="st3" cx="-3958.04" cy="512.34" rx="140.26" ry="140.26"/>
	<path class="st3" d="M3704.68,133.26l-313.81,254.97c-5.45,4.42-8.63,11.08-8.63,18.14v479.78c0,12.9,10.45,23.38,23.38,23.38
		h210.39c12.93,0,23.38-10.47,23.38-23.38v-303.9c0-12.93,10.45-23.38,23.38-23.38h187.01c12.93,0,23.38,10.45,23.38,23.38v303.9
		c0,12.9,10.45,23.38,23.38,23.38h210.39c12.93,0,23.38-10.47,23.38-23.38V406.37c0-7.06-3.18-13.72-8.63-18.14l-313.81-254.97
		C3777.8,108.83,3734.74,108.83,3704.68,133.26z"/>
	
		<ellipse transform="matrix(0.7071 -0.7071 0.7071 0.7071 -693.09 -648.5851)" class="st4" cx="-1129.46" cy="512.34" rx="140.26" ry="140.26"/>
	
		<ellipse transform="matrix(0.7071 -0.7071 0.7071 0.7071 -360.6309 -360.2449)" class="st4" cx="-615.17" cy="255.2" rx="140.26" ry="140.26"/>
	
		<ellipse transform="matrix(0.7071 -0.7071 0.7071 0.7071 -724.2868 -209.6137)" class="st4" cx="-615.17" cy="769.48" rx="140.26" ry="140.26"/>
	<path class="st3" d="M8688.75,1798.06v584.42c0,51.64-41.87,93.51-93.51,93.51h-420.78c-51.64,0-93.51-41.87-93.51-93.51v-584.42"
		/>
	<path class="st3" d="M8525.11,1798.06h-280.52v-70.13c0-25.81,20.95-46.75,46.75-46.75h187.01c25.81,0,46.75,20.95,46.75,46.75
		V1798.06z"/>
	<path class="st3" d="M530.29,161.69H203.02c-51.64,0-93.51,41.87-93.51,93.51v561.04c0,51.64,41.87,93.51,93.51,93.51h561.04
		c51.64,0,93.51-41.87,93.51-93.51V488.96"/>
	<line class="st3" x1="483.53" y1="535.72" x2="880.94" y2="138.31"/>
	<path class="st3" d="M904.31,395.46V138.31c0-12.9-10.47-23.38-23.38-23.38H623.79"/>
	<path class="st3" d="M2073.15,161.69h-327.27c-51.64,0-93.51,41.87-93.51,93.51v561.04c0,51.64,41.87,93.51,93.51,93.51h561.04
		c51.64,0,93.51-41.87,93.51-93.51V488.96"/>
	<path class="st3" d="M1956.27,325.33v257.14c0,12.9,10.47,23.38,23.38,23.38h257.14"/>
	<circle class="st3" cx="5299.13" cy="465.59" r="327.27"/>
	<circle class="st3" cx="6818.62" cy="512.34" r="350.65"/>
	<path class="st3" d="M7016.98,148.69l21.36-14.26c45.26-30.16,105.5-24.19,143.93,14.26c38.45,38.46,44.42,98.67,14.26,143.91
		l-14.26,21.39"/>
	<path class="st3" d="M6620.26,148.69l-21.37-14.26c-45.26-30.16-105.5-24.19-143.93,14.26c-38.45,38.46-44.42,98.67-14.26,143.91
		l14.26,21.39"/>
	<path class="st3" d="M10067.98,886.37h-607.79c-51.64,0-93.51-41.87-93.51-93.51V231.82c0-51.64,41.87-93.51,93.51-93.51h607.79
		c51.64,0,93.51,41.87,93.51,93.51v561.04C10161.48,844.5,10119.62,886.37,10067.98,886.37z"/>
	<path class="st3" d="M9577.07,559.09h-93.51c-12.93,0-23.38-10.47-23.38-23.38v-93.51c0-12.9,10.45-23.38,23.38-23.38h93.51
		c12.93,0,23.38,10.47,23.38,23.38v93.51C9600.44,548.62,9589.99,559.09,9577.07,559.09z"/>
	<path class="st3" d="M9810.83,559.09h-93.51c-12.93,0-23.38-10.47-23.38-23.38v-93.51c0-12.9,10.45-23.38,23.38-23.38h93.51
		c12.93,0,23.38,10.47,23.38,23.38v93.51C9834.21,548.62,9823.76,559.09,9810.83,559.09z"/>
	<path class="st3" d="M10044.6,559.09h-93.51c-12.93,0-23.38-10.47-23.38-23.38v-93.51c0-12.9,10.45-23.38,23.38-23.38h93.51
		c12.93,0,23.38,10.47,23.38,23.38v93.51C10067.98,548.62,10057.53,559.09,10044.6,559.09z"/>
	<path class="st3" d="M9577.07,792.86h-93.51c-12.93,0-23.38-10.47-23.38-23.38v-93.51c0-12.9,10.45-23.38,23.38-23.38h93.51
		c12.93,0,23.38,10.47,23.38,23.38v93.51C9600.44,782.39,9589.99,792.86,9577.07,792.86z"/>
	<path class="st3" d="M9810.83,792.86h-93.51c-12.93,0-23.38-10.47-23.38-23.38v-93.51c0-12.9,10.45-23.38,23.38-23.38h93.51
		c12.93,0,23.38,10.47,23.38,23.38v93.51C9834.21,782.39,9823.76,792.86,9810.83,792.86z"/>
	<path class="st3" d="M10044.6,792.86h-93.51c-12.93,0-23.38-10.47-23.38-23.38v-93.51c0-12.9,10.45-23.38,23.38-23.38h93.51
		c12.93,0,23.38,10.47,23.38,23.38v93.51C10067.98,782.39,10057.53,792.86,10044.6,792.86z"/>
	
		<ellipse transform="matrix(0.7071 -0.7071 0.7071 0.7071 -2077.9868 -1140.0658)" class="st4" cx="-2415.17" cy="1938.32" rx="397.4" ry="397.4"/>
	
		<ellipse transform="matrix(0.7071 -0.7071 0.7071 0.7071 -2529.8804 -2231.0334)" class="st4" cx="-3958.04" cy="1938.32" rx="397.4" ry="397.4"/>
	<path class="st3" d="M278.82,2218.84l350.91-607.79c18-31.16,63-31.16,80.98,0l350.91,607.79c18,31.16-4.49,70.13-40.49,70.13
		H319.31C283.31,2288.97,260.82,2250,278.82,2218.84z"/>
	<path class="st5" d="M705.28,2172.09c0,19.38-15.69,35.06-35.07,35.06c-19.36,0-35.07-15.68-35.07-35.06
		c0-19.38,15.71-35.06,35.07-35.06C689.6,2137.02,705.28,2152.71,705.28,2172.09"/>
	<path class="st4" d="M2447.18,2359.1h-467.53c-51.64,0-93.51-41.87-93.51-93.51v-303.9c0-51.64,41.87-93.51,93.51-93.51h467.53
		c51.64,0,93.51,41.87,93.51,93.51v303.9C2540.68,2317.23,2498.82,2359.1,2447.18,2359.1z"/>
	<path class="st4" d="M2423.8,1868.19h-420.78v-163.64c0-116.2,94.18-210.39,210.39-210.39c116.2,0,210.39,94.18,210.39,210.39
		V1868.19z"/>
	<path class="st4" d="M3990.04,2359.1H3522.5c-51.64,0-93.51-41.87-93.51-93.51v-303.9c0-51.64,41.87-93.51,93.51-93.51h467.53
		c51.64,0,93.51,41.87,93.51,93.51v303.9C4083.54,2317.23,4041.68,2359.1,3990.04,2359.1z"/>
	<path class="st4" d="M3545.88,1868.19v-163.64c0-116.2,94.18-210.39,210.39-210.39s210.39,94.18,210.39,210.39v23.38"/>
	<line class="st4" x1="-778.81" y1="1564.29" x2="-778.81" y2="1982.99"/>
	<path class="st4" d="M-578.94,1699.22c91.17,63.12,150.78,168.5,150.78,287.93c0,193.7-156.98,350.65-350.65,350.65
		c-193.67,0-350.65-156.95-350.65-350.65c0-119.43,59.61-224.81,150.78-287.93"/>
</g>
</svg>
