<?xml version="1.0" encoding="utf-8"?>
<!-- Generator: Adobe Illustrator 24.3.0, SVG Export Plug-In . SVG Version: 6.00 Build 0)  -->
<svg version="1.1" id="Laag_1" xmlns="http://www.w3.org/2000/svg" xmlns:xlink="http://www.w3.org/1999/xlink" x="0px" y="0px"
	 viewBox="0 0 1024 1024" style="enable-background:new 0 0 1024 1024;" xml:space="preserve">
<style type="text/css">
	.st0{clip-path:url(#SVGID_2_);}
</style>
<g>
	<defs>
		<rect id="SVGID_1_" x="91.42" y="70" width="932.58" height="904"/>
	</defs>
	<clipPath id="SVGID_2_">
		<use xlink:href="#SVGID_1_"  style="overflow:visible;"/>
	</clipPath>
	<path class="st0" d="M6140.46,537.24c-10.62-10.62-10.62-27.88,0-38.5c10.62-10.62,27.88-10.62,38.5,0l133.92,133.92l287.13-287.13
		c10.62-10.62,27.83-10.62,38.51,0c10.62,10.67,10.62,27.89,0,38.51l-306.35,306.41c-10.67,10.62-27.88,10.62-38.5,0L6140.46,537.24
		z"/>
	<path class="st0" d="M4601.25,651.93c10.62,10.62,10.62,27.89,0,38.51c-10.62,10.62-27.89,10.62-38.51,0l-133.92-133.92
		L4294.9,690.44c-10.62,10.62-27.89,10.62-38.51,0c-10.62-10.62-10.62-27.88,0-38.51l133.92-133.92l-133.92-133.92
		c-10.62-10.67-10.62-27.88,0-38.51c10.62-10.67,27.88-10.67,38.51,0l133.92,133.87l133.92-133.87c10.62-10.67,27.88-10.67,38.51,0
		c10.62,10.62,10.62,27.83,0,38.51l-133.92,133.92L4601.25,651.93z"/>
	<path class="st0" d="M4738.76,2176.26c5.99-13.72,22-19.99,35.73-14.05c13.78,5.99,20.04,22,14.05,35.73
		c-21.84,49.78-53.26,95.2-93.08,133.33c-38.34,36.76-84.36,66.66-136.92,87.19c-107.02,41.72-220.79,36.05-318.28-6.7
		c-97.54-42.86-178.75-122.98-220.52-230.05c-41.66-107.02-36.05-220.74,6.75-318.28c42.81-97.54,122.92-178.69,230-220.41
		c107.02-41.72,220.85-36.16,318.28,6.7c88.94,39.05,164.26,109.04,208.48,202.22l29.63-111.92c3.87-14.43,18.74-23.2,33.22-19.33
		c14.49,3.81,23.15,18.63,19.39,33.17l-49.73,187.57c-3.81,14.54-18.68,23.15-33.17,19.33l-187.57-49.67
		c-14.49-3.81-23.2-18.74-19.39-33.22c3.87-14.43,18.73-23.15,33.22-19.33l133.65,35.4c-36.82-90.3-106.31-157.94-189.48-194.43
		c-84.8-37.31-183.87-42.21-277-5.83c-93.02,36.16-162.52,106.8-199.77,191.55c-37.25,84.8-42.15,183.81-5.83,277
		c36.22,92.97,106.75,162.57,191.54,199.77c84.8,37.25,183.87,42.15,277,5.88c45.59-17.81,85.56-43.84,118.84-75.76
		C4692.41,2258.93,4719.81,2219.44,4738.76,2176.26"/>
	<path class="st0" d="M6029.73,2197.95c-5.94-13.72,0.33-29.79,14.1-35.73c13.72-5.99,29.74,0.33,35.67,14.05
		c19.01,43.19,46.4,82.62,80.93,115.84c33.33,31.86,73.31,57.95,118.89,75.7c93.13,36.27,192.15,31.37,277-5.83
		c84.8-37.25,155.33-106.8,191.6-199.77c36.27-93.19,31.37-192.25-5.94-277c-37.14-84.8-106.75-155.44-199.77-191.6
		c-93.13-36.38-192.14-31.48-277,5.88c-83.11,36.49-152.6,104.13-189.42,194.43l133.65-35.4c14.49-3.87,29.35,4.85,33.17,19.33
		c3.81,14.49-4.85,29.36-19.33,33.17l-187.62,49.72c-14.43,3.81-29.35-4.79-33.17-19.39l-49.67-187.52
		c-3.76-14.6,4.9-29.36,19.33-33.22c14.54-3.81,29.41,4.9,33.28,19.39l29.63,111.87c44.22-93.13,119.55-163.17,208.48-202.17
		c97.43-42.92,211.26-48.42,318.28-6.7c107.07,41.66,187.13,122.81,230,220.36c42.75,97.54,48.42,211.26,6.7,318.28
		c-41.72,107.13-122.98,187.24-220.52,230.1c-97.43,42.75-211.26,48.36-318.23,6.7c-52.56-20.53-98.63-50.43-136.97-87.25
		C6083.05,2293.15,6051.57,2247.73,6029.73,2197.95"/>
	<path class="st0" d="M8681.4,2176.27c5.99-13.73,22-19.99,35.78-14.05c13.72,5.94,19.99,22,14.05,35.73
		c-21.89,49.78-53.37,95.2-93.08,133.27c-38.34,36.82-84.42,66.72-136.97,87.25h-0.11c-106.96,41.72-220.74,36.05-318.17-6.7
		c-88.88-39.16-164.26-109.14-208.54-202.33l-29.68,112.03c-3.81,14.43-18.63,23.2-33.17,19.33c-14.54-3.81-23.15-18.68-19.39-33.17
		l49.72-187.62c3.81-14.49,18.63-23.2,33.17-19.39l187.57,49.67c14.54,3.87,23.2,18.73,19.39,33.22
		c-3.87,14.54-18.68,23.15-33.22,19.33l-133.6-35.29c36.87,90.3,106.31,157.83,189.48,194.43c84.25,36.93,182.39,41.99,274.98,6.59
		c1.25-0.65,2.56-1.09,4.03-1.47c44.71-17.75,84.04-43.52,116.82-75C8635.1,2258.89,8662.44,2219.46,8681.4,2176.27
		 M8755.58,1740.02c3.81-14.49,18.68-23.2,33.17-19.33c14.54,3.81,23.2,18.57,19.39,33.17l-49.67,187.51
		c-3.87,14.6-18.74,23.2-33.22,19.39l-187.57-49.67c-14.54-3.87-23.2-18.73-19.33-33.22c3.81-14.43,18.63-23.2,33.17-19.33
		l133.6,35.4c-36.87-90.41-106.31-157.94-189.42-194.43c-84.25-37.04-182.45-42.15-274.98-6.7c-1.31,0.65-2.61,1.14-4.08,1.58
		c-44.71,17.76-83.98,43.52-116.82,74.89c-34.58,33.17-61.98,72.76-80.88,115.84c-6.04,13.83-22.06,20.1-35.78,14.05
		c-13.78-5.94-20.04-21.89-14.05-35.73c21.84-49.67,53.32-95.09,93.08-133.33c38.34-36.65,84.36-66.66,136.92-87.09l0.11-0.11
		c106.96-41.61,220.74-36.05,318.17,6.81c88.99,39.05,164.32,109.03,208.54,202.33L8755.58,1740.02z"/>
	<path class="st0" d="M313.42,386.43c0-24.56,7.95-49.45,23.75-74.72c15.74-25.16,38.78-46.08,69-62.69
		c30.34-16.56,65.57-24.78,105.99-24.78c37.47,0,70.58,6.92,99.34,20.86c28.76,13.72,50.87,32.57,66.61,56.37
		c15.63,23.85,23.47,49.67,23.47,77.66c0,22-4.52,41.17-13.4,57.78c-8.99,16.56-19.61,30.83-31.81,42.81
		c-12.31,12.15-34.42,32.24-66.23,60.78c-8.88,8.06-15.9,15.09-21.19,21.13c-5.28,6.1-9.26,11.71-11.76,16.72
		c-2.67,5.01-4.63,10.08-6.1,15.14c-1.47,4.96-3.6,13.89-6.37,26.58c-4.9,26.9-20.26,40.3-46.24,40.3
		c-13.4,0-24.78-4.36-33.93-13.18c-9.26-8.88-13.73-21.84-13.73-39.16c0-21.73,3.27-40.52,10.02-56.48
		c6.75-15.85,15.68-29.9,26.8-41.94c11.11-11.87,26.09-26.25,45.04-42.86c16.56-14.6,28.48-25.43,35.89-32.73
		c7.41-7.35,13.62-15.58,18.68-24.73c5.07-9.04,7.52-18.79,7.52-29.46c0-20.7-7.68-38.07-23.04-52.45
		c-15.47-14.11-35.24-21.24-59.58-21.24c-28.48,0-49.4,7.14-62.9,21.62c-13.45,14.21-24.78,35.51-34.09,63.34
		c-8.88,29.19-25.54,43.84-50.05,43.84c-14.6,0-26.8-5.07-36.71-15.3C318.49,409.31,313.42,398.42,313.42,386.43 M145.9,518.02
		c0,99.83,40.47,190.24,105.93,255.76c65.41,65.41,155.82,105.82,255.65,105.82c99.89,0,190.29-40.41,255.76-105.82
		c65.41-65.52,105.93-155.93,105.93-255.76c0-99.88-40.52-190.24-105.93-255.7c-65.46-65.41-155.87-105.93-255.76-105.93
		c-99.83,0-190.24,40.52-255.65,105.93C186.36,327.78,145.9,418.13,145.9,518.02 M213.32,812.28
		C138,736.96,91.43,632.93,91.43,518.02c0-114.86,46.57-218.89,121.89-294.15c75.27-75.32,179.29-121.94,294.15-121.94
		c114.92,0,218.94,46.62,294.26,121.94C877,299.13,923.62,403.15,923.62,518.02c0,114.92-46.62,218.94-121.89,294.26
		c-75.32,75.21-179.35,121.78-294.26,121.78C392.61,934.06,288.59,887.49,213.32,812.28 M502.74,811.73
		c-15.79,0-29.52-5.06-41.34-15.3c-11.76-10.18-17.65-24.56-17.65-42.86c0-16.39,5.72-30.01,17.1-41.17
		c11.44-11.06,25.33-16.72,41.88-16.72c16.28,0,30.06,5.66,41.17,16.72c11.11,11.16,16.72,24.78,16.72,41.17
		c0,18.08-5.83,32.3-17.48,42.65C531.49,806.67,518.09,811.73,502.74,811.73"/>
	<path class="st0" d="M2425.49,590.6l-12.47-185.83c-2.23-36.16-3.43-62.14-3.43-77.88c0-21.57,5.55-38.29,16.83-50.38
		c11.27-12.04,26.09-18.03,44.5-18.03c22.27,0,37.09,7.68,44.66,23.09c7.52,15.36,11.27,37.58,11.27,66.61
		c0,17.1-0.93,34.31-2.83,51.9l-16.67,191.38c-1.74,22.71-5.56,40.19-11.49,52.45c-5.99,11.98-15.9,18.03-29.57,18.03
		c-14.05,0-23.69-5.72-29.14-17.54C2431.7,632.59,2427.89,614.73,2425.49,590.6 M2468.51,845.98c-15.74,0-29.52-5.23-41.34-15.3
		c-11.76-10.18-17.59-24.56-17.59-42.86c0-16.17,5.55-29.79,16.83-41.07c11.27-11.27,25.05-16.83,41.45-16.83
		c16.28,0,30.23,5.55,41.72,16.83c11.55,11.27,17.26,24.89,17.26,41.07c0,18.08-5.83,32.3-17.54,42.64
		C2497.65,840.75,2484.15,845.98,2468.51,845.98 M2781.46,420.63c134.69,233.26,194.49,366.04,149.28,447.36
		c-45.42,81.86-188.55,97.98-459.56,97.98c-270.52,0-415.77-14.43-463.8-94.55c-48.15-80.22,9.53-212.24,144.98-446.87l0.05-0.11
		h-0.05c135.23-234.24,220.41-352.81,313.71-354.39c93.62-1.53,179.13,114.32,314.58,349
		C2780.97,419.54,2781.19,420.08,2781.46,420.63 M2883.3,841.62c32.57-58.71-24.35-178.26-148.79-393.98
		c-0.33-0.44-0.6-0.87-0.87-1.36c-124.83-216.22-199.82-323.07-266.7-321.98c-67.15,1.14-142.47,110.72-267.52,327.38h-0.05
		c-124.77,216.16-179.84,334.4-145.36,391.91c34.53,57.51,167.04,67.92,417.19,67.92C2720.84,911.5,2850.9,900.01,2883.3,841.62"/>
	<path class="st0" d="M8524.06,750.68c-10.62,10.62-27.89,10.62-38.51,0c-10.62-10.62-10.62-27.88,0-38.56l166.93-166.87h-670.44
		c-15.08,0-27.23-12.25-27.23-27.23c0-15.09,12.15-27.23,27.23-27.23h670.44L8485.55,323.8c-10.62-10.62-10.62-27.89,0-38.51
		s27.89-10.62,38.51,0l213.27,213.28c0.54,0.55,1.09,1.09,1.58,1.69v0.05l0.82,0.93l0.16,0.22l0.33,0.43v0.05l0.33,0.38l0.22,0.33
		l0.06,0.16l0.27,0.44l0.16,0.16l0.11,0.22l0.33,0.55c2.4,4.03,3.76,8.77,3.76,13.83c0,5.01-1.36,9.75-3.76,13.83l-0.33,0.49
		l-0.11,0.22l-0.16,0.22l-0.27,0.38l-0.06,0.16l-0.22,0.33l-0.33,0.38v0.05l-0.33,0.43l-0.16,0.22c-0.27,0.33-0.54,0.65-0.82,0.93
		v0.05c-0.49,0.6-1.03,1.14-1.58,1.69L8524.06,750.68z"/>
	<path class="st0" d="M10175.38,712.14c10.62,10.62,10.62,27.89,0,38.56c-10.62,10.62-27.94,10.62-38.56,0L9923.6,537.43
		c-0.54-0.55-1.09-1.14-1.58-1.69l-0.05-0.05c-0.27-0.33-0.55-0.65-0.76-0.98l-0.22-0.22l-0.27-0.38l-0.05-0.05l-0.27-0.38
		l-0.22-0.38l-0.11-0.16l-0.22-0.38l-0.16-0.16l-0.16-0.27l-0.27-0.49c-2.45-4.03-3.76-8.77-3.76-13.83c0-5.07,1.31-9.8,3.76-13.83
		l0.27-0.49l0.16-0.27l0.16-0.16l0.22-0.38l0.11-0.16l0.22-0.38l0.27-0.38l0.05-0.05l0.27-0.38l0.22-0.22
		c0.22-0.33,0.49-0.65,0.76-0.98l0.05-0.05c0.49-0.54,1.03-1.14,1.58-1.69l213.22-213.22c10.62-10.62,27.94-10.62,38.56,0
		c10.62,10.62,10.62,27.83,0,38.51l-166.93,166.93h670.44c15.03,0,27.23,12.2,27.23,27.23c0,15.03-12.2,27.23-27.23,27.23h-670.44
		L10175.38,712.14z"/>
	<path class="st0" d="M313.34,1895.33c-10.62,10.62-27.89,10.62-38.51,0c-10.62-10.62-10.62-27.99,0-38.5l213.22-213.28
		c0.54-0.54,1.14-1.09,1.74-1.58c0.33-0.33,0.65-0.54,0.98-0.87l0.22-0.11l0.38-0.33l0.05-0.11l0.44-0.22l0.33-0.22l0.16-0.06
		l0.38-0.33l0.22-0.11l0.22-0.22l0.49-0.22c4.08-2.45,8.77-3.81,13.83-3.81c5.06,0,9.8,1.36,13.83,3.81l0.49,0.22l0.27,0.22
		l0.16,0.11l0.38,0.33l0.22,0.06l0.33,0.22l0.38,0.22l0.06,0.11l0.38,0.33l0.22,0.11c0.33,0.33,0.65,0.54,0.98,0.87h0.05
		c0.54,0.49,1.14,1.04,1.69,1.58l213.22,213.28c10.67,10.51,10.67,27.88,0,38.5c-10.62,10.62-27.83,10.62-38.51,0l-166.93-166.98
		v670.44c0,15.09-12.2,27.23-27.23,27.23c-15.03,0-27.23-12.15-27.23-27.23v-670.44L313.34,1895.33z"/>
	<path class="st0" d="M2235.47,2204.66c-10.62-10.62-10.62-27.89,0-38.5c10.62-10.62,27.88-10.62,38.5,0l166.93,166.87v-670.44
		c0-15.03,12.25-27.23,27.23-27.23c15.09,0,27.23,12.2,27.23,27.23v670.44l166.98-166.87c10.62-10.62,27.89-10.62,38.5,0
		c10.62,10.62,10.62,27.89,0,38.5l-213.28,213.28c-0.49,0.54-1.09,1.09-1.69,1.58h-0.05c-0.33,0.33-0.65,0.54-0.93,0.76l-0.22,0.22
		l-0.44,0.33l-0.44,0.33l-0.33,0.22l-0.16,0.05l-0.38,0.33l-0.22,0.11l-0.27,0.11l-0.44,0.33c-4.09,2.34-8.77,3.7-13.89,3.7
		c-5.01,0-9.75-1.36-13.78-3.7l-0.49-0.33l-0.27-0.11l-0.22-0.11l-0.33-0.33l-0.22-0.05l-0.33-0.22l-0.38-0.33h-0.05l-0.38-0.33
		l-0.22-0.22c-0.38-0.22-0.65-0.44-0.98-0.76h-0.05c-0.6-0.49-1.14-1.04-1.69-1.58L2235.47,2204.66z"/>
	<path class="st0" d="M4286.68,3797.89c-10.68,10.67-27.94,10.67-38.56,0c-10.62-10.62-10.62-27.83,0-38.51l161.26-161.26
		c0.54-0.49,1.14-1.03,1.69-1.58h0.11c0.27-0.33,0.6-0.55,0.93-0.87l0.22-0.11l0.38-0.27h0.06l0.44-0.33l0.33-0.22l0.16-0.11
		l0.38-0.33l0.16-0.11l0.27-0.11l0.49-0.33c4.03-2.45,8.77-3.7,13.83-3.7s9.8,1.25,13.83,3.7l0.49,0.33l0.22,0.11l0.22,0.11
		l0.38,0.33l0.16,0.11l0.33,0.22l0.44,0.33h0.05l0.38,0.27l0.22,0.11c0.33,0.33,0.65,0.54,0.98,0.87h0.05
		c0.55,0.54,1.14,1.09,1.69,1.58l161.21,161.26c10.68,10.68,10.68,27.89,0,38.51c-10.62,10.67-27.83,10.67-38.5,0l-114.92-114.86
		v415.5c0,14.98-12.2,27.23-27.23,27.23c-15.03,0-27.23-12.25-27.23-27.23v-415.5L4286.68,3797.89z M4790.46,4111.7
		c0-14.98,12.2-27.12,27.23-27.12c15.03,0,27.23,12.15,27.23,27.12v153.91c0,35.02-14.32,66.83-37.36,89.81
		c-22.98,23.04-54.79,37.31-89.75,37.31h-577.96c-34.96,0-66.77-14.27-89.81-37.31c-23.04-22.98-37.31-54.79-37.31-89.81V4111.7
		c0-14.98,12.2-27.12,27.23-27.12s27.23,12.15,27.23,27.12v153.91c0,19.88,8.22,38.07,21.35,51.3
		c13.18,13.18,31.37,21.35,51.3,21.35h577.96c19.93,0,38.12-8.17,51.25-21.35c13.23-13.23,21.4-31.42,21.4-51.3V4111.7z"/>
	<path class="st0" d="M6208.8,3956.27c-10.62-10.62-10.62-27.83,0-38.51c10.62-10.62,27.88-10.62,38.51,0l114.92,115.02v-415.5
		c0-15.09,12.2-27.23,27.23-27.23c15.09,0,27.23,12.15,27.23,27.23v415.5l114.97-115.02c10.62-10.62,27.83-10.62,38.5,0
		c10.62,10.68,10.62,27.89,0,38.51l-161.21,161.27l-1.74,1.63h-0.05c-0.27,0.33-0.6,0.49-0.98,0.82l-0.22,0.11l-0.38,0.33h-0.05
		l-0.44,0.33l-0.27,0.22l-0.16,0.22l-0.38,0.22l-0.22,0.11l-0.27,0.11l-0.49,0.27c-4.03,2.45-8.77,3.87-13.83,3.87
		c-5.01,0-9.75-1.42-13.83-3.87l-0.44-0.27l-0.27-0.11l-0.22-0.11l-0.38-0.22l-0.16-0.22l-0.33-0.22l-0.44-0.33h-0.05l-0.33-0.33
		l-0.22-0.11c-0.33-0.33-0.65-0.49-0.98-0.82h-0.05c-0.6-0.54-1.14-1.09-1.69-1.63L6208.8,3956.27z M6751.09,4111.7
		c0-14.98,12.25-27.12,27.23-27.12c15.03,0,27.23,12.15,27.23,27.12v153.91c0,35.02-14.27,66.83-37.31,89.81
		c-22.98,23.04-54.79,37.31-89.81,37.31h-577.9c-35.02,0-66.77-14.27-89.86-37.31c-22.98-22.98-37.25-54.79-37.25-89.81V4111.7
		c0-14.98,12.15-27.12,27.23-27.12c14.98,0,27.23,12.15,27.23,27.12v153.91c0,19.88,8.17,38.07,21.3,51.3
		c13.18,13.18,31.37,21.35,51.36,21.35h577.9c19.93,0,38.12-8.17,51.3-21.35c13.23-13.23,21.35-31.42,21.35-51.3V4111.7z"/>
	<path class="st0" d="M10175.28,2315.18c10.62,10.62,10.62,27.89,0,38.5c-10.57,10.62-27.89,10.62-38.45,0l-213.06-213.06
		c-5.17-5.01-8.33-11.93-8.33-19.66c0-4.3,0.93-8.33,2.72-11.93l0.11-0.22l0.16-0.33l0.16-0.44l0.11-0.11l0.22-0.44l0.16-0.16
		l0.22-0.33l0.05-0.22c0.65-1.09,1.42-2.12,2.23-3.1l0.11-0.11c0.27-0.33,0.54-0.6,0.71-0.93h0.05c0.27-0.33,0.6-0.54,0.87-0.87
		l0.05-0.11l213.44-213.39c10.57-10.62,27.89-10.62,38.45,0c10.62,10.62,10.62,27.89,0,38.5l-166.87,166.93h562.06
		c22.33,0,42.64-9.15,57.4-23.85c14.7-14.76,23.85-35.07,23.85-57.46v-285.39c0-15.09,12.2-27.23,27.23-27.23
		c15.03,0,27.23,12.15,27.23,27.23v285.39c0,37.36-15.25,71.4-39.81,95.96c-24.67,24.56-58.6,39.81-95.91,39.81h-562.06
		L10175.28,2315.18z"/>
	<path class="st0" d="M8051.68,4149.69c15.03,0,27.23,12.2,27.23,27.23c0,14.98-12.2,27.23-27.23,27.23
		c-52.23,0-99.56-21.89-133.87-56.37c-35.13-35.13-56.86-83.33-56.86-134.36c0-49.13,17.21-92.31,45.64-125.32
		c25.05-28.81,58.77-49.56,97-59.36c5.94-34.04,22.71-64.43,46.57-87.41c28.81-27.78,67.86-44.77,110.89-44.77
		c14.32,0,28.32,1.91,41.66,5.5c2.51,0.65,4.9,1.36,7.35,2.12c13.18-36.93,36.16-69.11,65.74-93.62
		c37.36-30.94,85.29-49.56,137.57-49.56c59.64,0,113.66,24.18,152.77,63.29c37.14,37.14,60.89,87.9,63.12,144.05
		c57.02,2.02,108.49,25.93,146.29,63.72c39.38,39.43,63.78,93.89,63.78,154.13c0,60.18-24.4,114.64-63.78,154.13
		c-39.49,39.49-94,63.83-154.24,63.83c-14.98,0-27.23-12.25-27.23-27.23c0-15.03,12.25-27.23,27.23-27.23
		c45.2,0,86.1-18.3,115.68-47.87c29.57-29.57,47.87-70.53,47.87-115.62c0-45.2-18.3-86.05-47.87-115.62
		c-29.57-29.57-70.47-47.87-115.68-47.87c-3.81,0-6.7,0-8.66,0.11c-2.83,0.11-5.77,0.44-8.71,0.76v-0.11
		c-1.74,0.22-3.54,0.22-5.39,0.11c-14.92-1.53-25.81-14.81-24.4-29.79c0.27-2.67,0.49-5.34,0.65-8v-0.44
		c0.11-1.8,0.16-4.57,0.16-8.28c0-44.55-18.08-84.96-47.33-114.26c-29.25-29.25-69.66-47.33-114.26-47.33
		c-39.16,0-75.05,13.94-102.93,37.03c-28.05,23.2-48.15,55.61-55.55,92.64c-0.44,3.54-1.58,7.03-3.49,10.35
		c-7.57,12.96-24.29,17.43-37.25,9.86c-8.01-4.68-16.56-8.39-25.49-10.73c-8.71-2.34-17.97-3.59-27.61-3.59
		c-28.48,0-54.3,11.17-73.2,29.47c-18.79,18.08-30.88,42.97-32.24,70.69c0.22,13.51-9.64,25.32-23.36,27.23
		c-33.82,4.9-63.56,21.08-84.58,45.2c-20.1,23.31-32.24,54.3-32.24,89.81c0,36.27,15.63,70.64,40.9,95.85
		C7980.93,4133.95,8014.64,4149.69,8051.68,4149.69 M8195.84,4278.71c-10.62-10.62-10.62-27.88,0-38.5
		c10.62-10.62,27.88-10.62,38.5,0l88.56,88.61v-336.91c0-15.09,12.2-27.23,27.23-27.23c15.03,0,27.23,12.15,27.23,27.23v336.91
		l88.56-88.61c10.62-10.62,27.89-10.62,38.5,0c10.62,10.62,10.62,27.89,0,38.5l-134.9,134.9c-0.49,0.49-1.09,1.04-1.69,1.58h-0.05
		c-0.33,0.33-0.6,0.54-0.92,0.82l-0.22,0.11l-0.38,0.33h-0.05l-0.43,0.33l-0.33,0.22l-0.16,0.11l-0.38,0.33l-0.16,0.11l-0.27,0.11
		l-0.49,0.33c-4.03,2.45-8.77,3.7-13.83,3.7c-5.07,0-9.8-1.25-13.83-3.7l-0.55-0.33l-0.22-0.11l-0.16-0.11l-0.38-0.33l-0.16-0.11
		l-0.33-0.22l-0.43-0.33h-0.05l-0.38-0.33l-0.22-0.11c-0.33-0.27-0.65-0.49-0.98-0.82c-0.66-0.54-1.2-1.09-1.74-1.58
		L8195.84,4278.71z"/>
	<path class="st0" d="M10012.34,4149.65c15.03,0,27.23,12.25,27.23,27.23c0,15.03-12.2,27.23-27.23,27.23
		c-52.23,0-99.5-21.89-133.87-56.37c-35.13-35.07-56.86-83.27-56.86-134.36c0-49.13,17.21-92.32,45.69-125.27
		c25-28.86,58.71-49.56,96.94-59.36c5.94-34.04,22.71-64.48,46.57-87.47c28.76-27.72,67.86-44.77,110.88-44.77
		c14.33,0,28.32,1.91,41.66,5.56c2.51,0.6,4.9,1.36,7.35,2.12c13.18-36.93,36.16-69.17,65.74-93.62
		c37.36-30.94,85.29-49.56,137.57-49.56c59.64,0,113.66,24.13,152.77,63.29c37.14,37.14,60.89,87.85,63.12,144.05
		c57.02,2.01,108.49,25.92,146.29,63.67c39.38,39.48,63.78,93.95,63.78,154.13c0,60.24-24.4,114.7-63.78,154.18
		c-39.48,39.43-94,63.78-154.18,63.78c-15.03,0-27.23-12.2-27.23-27.23c0-14.98,12.2-27.23,27.23-27.23
		c45.15,0,86.05-18.25,115.62-47.82c29.57-29.57,47.87-70.53,47.87-115.68c0-45.2-18.3-86.05-47.87-115.62
		c-29.57-29.57-70.48-47.82-115.62-47.82c-3.81,0-6.75,0-8.71,0.11c-2.83,0.05-5.77,0.38-8.71,0.71v-0.11
		c-1.74,0.22-3.54,0.22-5.39,0.11c-14.92-1.47-25.81-14.76-24.4-29.79c0.27-2.67,0.49-5.28,0.65-7.95v-0.44
		c0.11-1.8,0.16-4.57,0.16-8.28c0-44.6-18.08-85.02-47.33-114.26c-29.25-29.25-69.66-47.33-114.26-47.33
		c-39.16,0-75,13.94-102.93,37.03c-28.05,23.15-48.15,55.61-55.55,92.64c-0.44,3.48-1.52,7.02-3.54,10.29
		c-7.51,12.96-24.18,17.43-37.2,9.91c-8.01-4.68-16.56-8.39-25.49-10.73c-8.71-2.34-17.97-3.65-27.61-3.65
		c-28.48,0-54.3,11.17-73.2,29.46c-18.79,18.08-30.88,42.97-32.24,70.75c0.22,13.51-9.64,25.33-23.37,27.23
		c-33.82,4.9-63.56,21.08-84.58,45.2c-20.1,23.31-32.24,54.25-32.24,89.76c0,36.33,15.69,70.64,40.9,95.85
		C9941.6,4133.91,9975.31,4149.65,10012.34,4149.65 M10195.01,4146.17c-10.62,10.62-27.89,10.62-38.51,0
		c-10.62-10.62-10.62-27.88,0-38.5l134.85-134.8c0.54-0.6,1.14-1.14,1.74-1.69c0.33-0.22,0.6-0.55,0.93-0.76l0.27-0.16l0.38-0.33
		h0.06l0.43-0.33l0.33-0.22l0.16-0.11l0.33-0.22l0.22-0.11l0.27-0.22l0.49-0.33c4.03-2.34,8.77-3.7,13.83-3.7
		c5.07,0,9.8,1.36,13.83,3.7l0.49,0.33l0.27,0.22l0.16,0.11l0.38,0.22l0.16,0.11l0.33,0.22l0.44,0.33h0.05l0.38,0.33l0.22,0.16
		c0.33,0.22,0.65,0.54,0.93,0.76h0.05c0.6,0.54,1.2,1.09,1.74,1.69l134.85,134.8c10.62,10.62,10.62,27.88,0,38.5
		c-10.62,10.62-27.89,10.62-38.51,0l-88.56-88.5v336.91c0,14.98-12.2,27.12-27.23,27.12c-15.03,0-27.23-12.15-27.23-27.12v-336.91
		L10195.01,4146.17z"/>
</g>
</svg>
