<svg xmlns="http://www.w3.org/2000/svg" xmlns:xlink="http://www.w3.org/1999/xlink" style="enable-background:new 0 0 1024 1024" id="Laag_1" x="0" y="0" version="1.1" viewBox="0 0 1024 1024" xml:space="preserve"><style type="text/css">.st0{clip-path:url(#SVGID_2_)}.st0,.st1,.st2,.st3,.st4,.st5{fill:none;stroke:#000;stroke-width:30.346;stroke-linecap:round;stroke-linejoin:round;stroke-miterlimit:10}.st2{clip-path:url(#SVGID_4_)}.st3{clip-path:url(#SVGID_6_)}.st4{clip-path:url(#SVGID_8_)}.st5{clip-path:url(#SVGID_10_)}</style><g><defs><rect id="SVGID_1_" width="901.74" height="924" x="50" y="50"/></defs><clipPath id="SVGID_2_"><use style="overflow:visible" xlink:href="#SVGID_1_"/></clipPath><path d="M-2081.56,1768.92v-45.99c-0.03-24.11-16.51-43.63-36.82-43.6c-20.31,0.03-36.74,19.58-36.72,43.7l0.31,226.55" class="st0"/><path d="M-2008.02,1853.49v-91.24c-0.03-24.09-16.52-43.63-36.83-43.6c-20.29,0.03-36.73,19.58-36.71,43.7l0.31,187.22" class="st0"/><path d="M-2155.09,1781.92c-0.03-24.1-16.52-43.62-36.83-43.61c-20.3,0.03-36.74,19.59-36.71,43.71l0.31,226.55 c-5.17-15.16-9.53-28.68-13.58-38.02c-22.53-51.93-44.84-79.94-68.42-71.61c-29.89,10.57-14.56,54.98,0,98.34 c16.47,49.06,39.34,137.67,70.29,180.16c35.55,48.78,84.56,72.32,141.16,72.24c68.6-0.09,157.66-36.05,157.66-161.86v-110.12 V1853.4c-0.03-21.9-15.01-39.63-33.46-39.61c-18.45,0.03-33.38,17.8-33.35,39.7l0.27,99.74" class="st0"/><path d="M-1946.93,2138.83c97.69,8.33,167.7-8.15,195.38-16.43l-0.01-0.03c-37.47-66.91-81.67-183.95-41.03-321.06 c47.89-161.56,23.73-283.06,11.3-327.35v0.01c-56.5,11.99-165.09,23.52-302.78-17.3c-154.94-45.93-284.22,16.47-344.54,55.1 c10.78,59.32,17.91,161.94-19.91,289.54c-46.22,155.89,17.25,285.8,55.8,345.64v-0.03c31.09-16.22,71.02-32.68,117.44-42.22" class="st0"/><path d="M-1998.05,1564.25c-28.91-4.45-59.99-11.5-92.86-22.02c-75.13-24.05-143.75-18.39-200.09-1.99" class="st0"/><path d="M-2090.9,1592.13c-50.06-16.02-97.24-18.85-139.81-14.12" class="st0"/><path d="M-4778.11-2394.46c-16.66-70.81-95.8-66.65-95.8-66.65v-58.31c0,0,87.47-8.33,137.45-4.07 c46.85,3.98,96.03,32.23,116.64,74.87c12.17,25.17-91.63-12.49-99.97,54.16" class="st0"/><path d="M-4857.41-2459.89c-13.86,62.8-51.91,112.81-69.57,138.59c-3,4.38,0.92,10.31,5.06,7.62 c27.23-17.75,85.34-57.63,108.22-128.95" class="st0"/><path d="M-4696.87-2335.35c0,0-12.49,7.88-51.41,7.88c-31.9,0-48.56-7.88-48.56-7.88v-52.88 c0-3.44,2.79-6.23,6.24-6.23h87.49c3.45,0,6.24,2.79,6.24,6.23V-2335.35z" class="st0"/><path d="M-4796.84-2340.31c-54.16,33.32,9.19,72.66-0.21,81.06c-31.17,27.88,0.23,66.39,0.21,66.31 c0,0-31.38,22.25-13.56,64.08c-40.83,25.01-91.13,62.26-109.9,112.87c-41.12,110.85,10.59,240.16,26.55,281.53 c4.2,10.91,13.36,18.97,25.05,18.97h272.5c12.09,0,21.22-8.65,25.33-20.02c14.58-40.32,92.15-247.2-76.01-450.68 c-33.99-41.12-29.81-82.79-25-112.46c5.5-33.87-24.84-43.98-24.84-43.98" class="st0"/><path d="M-3102.42-2034.57h-641.38c-23.17,0-41.97,18.78-41.97,41.96v46.09h725.3v-46.09 C-3060.47-2015.79-3079.25-2034.57-3102.42-2034.57z" class="st0"/><path d="M-3471.07-2095.26v-354.78c0-26.48,21.47-47.96,47.96-47.96c26.48,0,47.95,21.47,47.95,47.96v354.78" class="st0"/><path d="M-3498.98-2034.57v-45.47c0-8.41,6.82-15.22,15.22-15.22h121.28c8.41,0,15.22,6.82,15.22,15.22v45.47" class="st0"/><path d="M-2284.13-2099.88c-0.14-3.77-0.21-7.55-0.21-11.35c0-157.6,127.75-285.36,285.34-285.36 c157.62,0,285.36,127.77,285.36,285.36c0,7.89-0.31,15.71-0.94,23.44" class="st0"/><path d="M-1978.74-1826.58c-6.7,0.47-13.44,0.71-20.26,0.71c-95.26,0-179.61-46.67-231.44-118.4" class="st0"/><path d="M-2050.34-1944.28c-71.38-21.93-123.28-88.38-123.28-166.94c0-96.45,78.18-174.63,174.62-174.63 c80.28,0,147.89,54.16,168.32,127.92" class="st0"/><path d="M-1713.63-1972.81c0,81.15-65.79,146.94-146.94,146.94c-81.16,0-146.94-65.79-146.94-146.94 c0-81.15,65.79-146.93,146.94-146.93C-1779.42-2119.74-1713.63-2053.96-1713.63-1972.81z" class="st0"/><path d="M-1770.65-1972.81c0,49.66-40.26,89.92-89.93,89.92c-49.66,0-89.92-40.26-89.92-89.92 c0-49.67,40.26-89.91,89.92-89.91C-1810.91-2062.72-1770.65-2022.47-1770.65-1972.81z" class="st0"/><circle cx="-2444.77" cy="-2248.94" r="78.08" class="st0"/><path d="M-2205.56-2006.88c-65.51,0-138.42,72.91-138.42,138.43c0-65.52-72.91-138.43-138.42-138.43 c65.51,0,138.42-72.91,138.42-138.42C-2343.98-2079.79-2271.07-2006.88-2205.56-2006.88z" class="st0"/><circle cx="-2282.93" cy="-2398" r="56.79" class="st0"/><path d="M-614.64-1964.8h-303.29c-10.97,0-19.85,8.88-19.85,19.84v21.8h342.97v-21.8 C-594.8-1955.92-603.68-1964.8-614.64-1964.8z" class="st0"/><path d="M-788.96-2003.31v-303.91c0-12.53,10.15-22.68,22.67-22.68c12.52,0,22.68,10.15,22.68,22.68v303.91" class="st0"/><path d="M-802.15-1964.8v-31.32c0-3.98,3.22-7.19,7.19-7.19h57.35c3.98,0,7.2,3.22,7.2,7.19v31.32" class="st0"/><path d="M-534.65-1845.67h66.64c15.52,0,28.68-9.49,30.88-22.26l30.61-178.25" class="st0"/><path d="M-410.46-2046.19h-267.72c-12.11,0-21.93-9.82-21.93-21.93c0-12.12,9.82-21.93,21.93-21.93h267.72 c12.11,0,21.93,9.81,21.93,21.93C-388.53-2056.01-398.36-2046.19-410.46-2046.19z" class="st0"/><path d="M-680.64-2090.8c0-75.28,61.04-136.31,136.32-136.31c75.28,0,136.31,61.04,136.31,136.31" class="st0"/><path d="M-903.5-2220.98c-14.49,52.47-55.52,104.93-103.89,104.93c-48.57,0-89.76-52.87-104.09-105.55" class="st0"/><path d="M-837.49-1999.98c-20.68-33.92-57.62-54.75-113.46-66.52l-56.45,39.22l-56.46-39.22 c-93.35,19.66-133.89,64.7-133.89,153.79v35.75c0,17.28,14.01,31.28,31.28,31.28h168.54" class="st0"/><path d="M-1063.87-2066.49c14.07-11.66,14.07-62.54,14.07-62.54" class="st0"/><path d="M-950.95-2066.49c-14.06-11.66-14.06-62.54-14.06-62.54" class="st0"/><path d="M-1010.66-2414.76c103.45,0,147.44,38.58,114.46,189.36c-1.3,5.99-9.8,6.23-11.42,0.31 c-6.07-22.14-14.46-67.02-14.46-67.02c-0.27-5.55-5.05-9.23-10.61-9.28c-36.32-0.41-76.51-23.39-76.51-23.39 c-5.21-1.05-9.88,3.14-8.83,7.92l15.1,40.51l-67.24-35.56c-6.4-3.35-14.52-1.95-19.15,3.3l-17.86,82.81 c-1.56,5.97-10.14,5.82-11.45-0.21c-32.78-150.28,10.59-188.76,113.9-188.76" class="st0"/><path d="M-3030.71-672.17v228.13c0,18.46-14.96,33.42-33.42,33.42h-355.71" class="st0"/><path d="M-3426.86-786.89h313.23c45.79,0,82.93,37.12,82.93,82.93v68.08c0,25.98-21.06,47.04-47.04,47.04h-200.51" class="st0"/><path d="M-3218.84-786.89v-42.58c0-20.23-16.41-36.63-36.64-36.63h-104.97c-20.23,0-36.63,16.4-36.63,36.63v42.58" class="st0"/><path d="M-3290.68-539.34h-34.56c-6.86,0-12.42-5.56-12.42-12.43v-64.26c0-6.86,5.56-12.42,12.42-12.42h34.56 c6.86,0,12.42,5.56,12.42,12.42v64.26C-3278.26-544.91-3283.82-539.34-3290.68-539.34z" class="st0"/><path d="M-3664.69-1059.86c-15.93-67.71-91.61-63.73-91.61-63.73v-55.77c0,0,83.64-7.97,131.43-3.9 c44.81,3.82,91.84,30.82,111.54,71.61c11.62,24.05-87.63-11.95-95.59,51.78" class="st0"/><path d="M-3740.52-1122.42c-13.25,60.04-49.64,107.87-66.53,132.52c-2.87,4.19,0.89,9.86,4.83,7.28 c26.04-16.97,81.6-55.1,103.49-123.3" class="st0"/><path d="M-3587.01-1003.33c0,0-11.95,7.54-49.15,7.54c-30.51,0-46.44-7.54-46.44-7.54v-50.57 c0-3.29,2.67-5.96,5.97-5.96h83.65c3.3,0,5.97,2.67,5.97,5.96V-1003.33z" class="st0"/><path d="M-3682.6-1008.08c-51.78,31.86,8.79,69.48-0.2,77.51c-29.8,26.66,0.22,63.48,0.2,63.41 c0,0-30,21.28-12.98,61.28c-39.04,23.92-87.13,59.53-105.08,107.92c-39.33,106.01,10.12,229.64,25.38,269.2 c4.02,10.42,12.79,18.14,23.95,18.14h260.57c11.56,0,20.29-8.27,24.22-19.15c13.94-38.55,88.13-236.36-72.67-430.94 c-32.5-39.31-28.51-79.17-23.9-107.53c5.26-32.38-23.76-42.05-23.76-42.05" class="st0"/><path d="M-3301.09-1020.2c-35.84,0-75.73,39.89-75.73,75.72c0-35.84-39.89-75.72-75.72-75.72 c35.84,0,75.72-39.88,75.72-75.72C-3376.82-1060.08-3336.93-1020.2-3301.09-1020.2z" class="st0"/><path d="M-3164.79-1164.77c-26.07,0-55.07,29.01-55.07,55.07c0-26.06-29.01-55.07-55.08-55.07 c26.07,0,55.08-29.01,55.08-55.08C-3219.85-1193.78-3190.85-1164.77-3164.79-1164.77z" class="st0"/><path d="M-3042.03-961.34c-48.39,0-102.25,53.86-102.25,102.26c0-48.39-53.86-102.26-102.25-102.26 c48.39,0,102.25-53.85,102.25-102.24C-3144.27-1015.19-3090.42-961.34-3042.03-961.34z" class="st0"/><path d="M-2400.48-836.02l64.96,378.16c4.65,27.1,32.57,47.24,65.5,47.24h146.01h31.78h145.99 c32.93,0,60.84-20.14,65.51-47.24l64.96-378.16" class="st0"/><path d="M-1815.56-836.02h-585.15c-20.95,0-37.93-16.98-37.93-37.93v-17.2c0-20.95,16.98-37.93,37.93-37.93h585.15 c20.95,0,37.93,16.98,37.93,37.93v17.2C-1777.63-853-1794.61-836.02-1815.56-836.02z" class="st0"/><path d="M-2397.32-930.65c0-159.72,129.47-289.2,289.2-289.2c159.72,0,289.2,129.48,289.2,289.2" class="st0"/><path d="M-751.62-673.28l33.54,195.27c2.41,13.99,16.82,24.39,33.82,24.39h75.39h16.41h75.39 c17,0,31.43-10.4,33.83-24.39l33.54-195.27" class="st0"/><path d="M-452.61-673.28H-748.7c-12.49,0-22.62-10.11-22.62-22.61v-2.83c0-12.48,10.12-22.61,22.62-22.61h296.08 c12.48,0,22.61,10.12,22.61,22.61v2.83C-430.01-683.39-440.13-673.28-452.61-673.28z" class="st0"/><path d="M-749.99-722.13c0-82.47,66.85-149.32,149.33-149.32c82.46,0,149.31,66.85,149.31,149.32" class="st0"/><path d="M-859.74-715.95l-17.7,12.29c-26.04,18.09-60.58,18.09-86.62,0l-17.69-12.28" class="st0"/><path d="M-799.37-947.71c0,74.49-54.35,173.74-121.38,173.74c-67.04,0-121.38-99.25-121.38-173.74" class="st0"/><path d="M-1061.09-952.08c74.22,0,120.6-69.5,120.6-69.5s64.94,69.5,166.98,69.5" class="st0"/><path d="M-920.75-1115.22c-83.85-61.62-246.39,34.62-164.33,308.12c30.81,102.72-92.44,143.8-92.44,143.8 s195.14,61.63,215.69-123.24" class="st0"/><path d="M-815.97-673.21c-31.35-18.45-56.95-52.58-63.7-113.33" class="st0"/><path d="M-920.75-1115.22c77.59-57.03,222.57,21.13,178.75,249.86" class="st0"/><path d="M-1117.46-653.64c-7.01,8.95-12.88,18.76-17.67,29.51c-10.96,24.63-16.18,54.15-16.18,89.34v43.29 c0,20.92,16.95,37.88,37.87,37.88h351.06" class="st0"/><path d="M-561.48-1053.13c-29.7,0-62.75,33.06-62.75,62.76c0-29.7-33.06-62.76-62.75-62.76 c29.7,0,62.75-33.06,62.75-62.75C-624.23-1086.19-591.18-1053.13-561.48-1053.13z" class="st0"/><path d="M-470.03-1151.43c-21.6,0-45.64,24.03-45.64,45.64c0-21.61-24.03-45.64-45.63-45.64 c21.6,0,45.63-24.03,45.63-45.64C-515.67-1175.46-491.62-1151.43-470.03-1151.43z" class="st0"/><path d="M-368.3-982.86c-40.11,0-84.74,44.63-84.74,84.73c0-40.1-44.63-84.73-84.73-84.73 c40.1,0,84.73-44.63,84.73-84.73C-453.04-1027.49-408.41-982.86-368.3-982.86z" class="st0"/><path d="M-4665.12,703.41h-431.28c-15.59,0-28.22,12.63-28.22,28.21v30.99h487.71v-30.99 C-4636.91,716.05-4649.54,703.41-4665.12,703.41z" class="st0"/><path d="M-4913,648.65v-489.7c0-17.8,14.43-32.25,32.25-32.25c17.8,0,32.24,14.45,32.24,32.25v489.7" class="st0"/><path d="M-4931.77,703.41v-44.53c0-5.66,4.58-10.24,10.24-10.24h81.55c5.65,0,10.24,4.58,10.24,10.24v44.53" class="st0"/><path d="M-4551.38,872.81h94.76c22.06,0,40.77-13.49,43.9-31.67l43.54-253.46" class="st0"/><path d="M-4366.22,587.67h-397.84c-12.48,0-22.61-10.12-22.61-22.61v-17.16c0-12.48,10.13-22.61,22.61-22.61h397.84 c12.48,0,22.61,10.13,22.61,22.61v17.16C-4343.61,577.55-4353.73,587.67-4366.22,587.67z" class="st0"/><path d="M-4758.97,524.24c0-107.05,86.79-193.84,193.84-193.84c107.05,0,193.84,86.79,193.84,193.84" class="st0"/><path d="M-3720.25,516.04c-25.43,0-53.73,28.31-53.73,53.73c0-25.42-28.31-53.73-53.74-53.73 c25.43,0,53.74-28.3,53.74-53.73C-3773.98,487.74-3745.68,516.04-3720.25,516.04z" class="st0"/><path d="M-3647.22,673.62c-37.47,0-79.17,41.69-79.17,79.16c0-37.47-41.7-79.16-79.16-79.16 c37.47,0,79.16-41.71,79.16-79.17C-3726.39,631.92-3684.68,673.62-3647.22,673.62z" class="st0"/><path d="M-3650.32,412.02c-19.71,0-41.65,21.93-41.65,41.64c0-19.7-21.93-41.64-41.63-41.64 c19.7,0,41.63-21.93,41.63-41.63C-3691.97,390.09-3670.03,412.02-3650.32,412.02z" class="st0"/><path d="M-3375,798.15c19.86,4.22,40.46,6.43,61.57,6.43c162.88,0,294.92-132.03,294.92-294.92 c0-162.88-132.04-294.92-294.92-294.92c-135.01,0-248.83,90.71-283.82,214.5" class="st0"/><path d="M-3660.66,726.31c30.09,47.31,82.99,78.69,143.2,78.69c93.67,0,169.6-75.92,169.6-169.59 c0-93.67-75.94-169.59-169.6-169.59c-81.64,0-149.8,57.68-165.96,134.5" class="st0"/><path d="M-3423.23,635.4c0-52.03-42.18-94.21-94.22-94.21c-52.03,0-94.22,42.18-94.22,94.21 c0,52.04,42.19,94.22,94.22,94.22C-3465.42,729.63-3423.23,687.44-3423.23,635.4z" class="st0"/><path d="M-4844.29,2219.35h100.03h31.78h146c32.92,0,60.84-20.13,65.5-47.24l64.96-378.17" class="st0"/><path d="M-4469.15,1700.89h33.46c20.9,0,37.83,16.94,37.83,37.84v17.38c0,20.89-16.93,37.83-37.83,37.83h-585.35 c-20.89,0-37.83-16.94-37.83-37.83v-17.38c0-20.9,16.94-37.84,37.83-37.84h30.64" class="st0"/><path d="M-5017.56,1699.32c0-159.72,129.48-289.2,289.2-289.2c159.72,0,289.19,129.48,289.19,289.2" class="st0"/><path d="M-4495.58,1684.51c-2.59,0-5.06,0.44-7.45,1.06c0.01-0.36,0.05-0.71,0.05-1.06 c0-32.65-26.47-59.12-59.11-59.12c-7.86,0-15.34,1.58-22.21,4.36c0.01-0.23,0.04-0.43,0.04-0.66 c0-63.26-51.28-114.54-114.54-114.54c-55.74,0-102.12,39.83-112.38,92.57c-11.36-7.11-24.73-11.29-39.1-11.29 c-34.79,0-63.89,24.07-71.75,56.43c-6.25-2.97-13.23-4.69-20.63-4.69c-26.52,0-48.03,21.51-48.03,48.03 c0,26.53,21.51,48.04,48.03,48.04c16.78,0,31.53-8.62,40.12-21.65c13.37,13.37,31.85,21.65,52.27,21.65 c28.29,0,52.86-15.92,65.27-39.3c21,24.03,51.79,39.3,86.21,39.3c32.5,0,61.77-13.59,82.61-35.33 c9.17,20.79,29.92,35.33,54.11,35.33c15.63,0,29.8-6.12,40.38-16.02c4.92,9.48,14.71,16.02,26.13,16.02 c16.33,0,29.56-13.24,29.56-29.56C-4466.02,1697.75-4479.26,1684.51-4495.58,1684.51z" class="st0"/><path d="M-4857.71,2010.42c18.97-54.16-10.88-113.56-66.46-130.23c-50.1-15.03-104.74,11.96-123.35,60.85 c-6.95,18.25-8.2,37.16-4.75,54.92c2.26,11.64-2.03,23.86-11.05,31.53c-13.78,11.74-24.59,27.3-30.56,45.9 c-15.96,49.81,9.9,104.99,58.44,124.51c53.82,21.65,114.23-6.16,133.19-60.32c6.01-17.16,7.07-34.83,3.98-51.51 c-2.28-12.27,2.09-24.75,11.53-32.92C-4873.92,2042.05-4863.71,2027.57-4857.71,2010.42z" class="st0"/><path d="M-5031.02,2199.56c0,0,32.51,12.64,52.81,16.02c57.22,9.52,101.51-8.25,120.47-62.41 c6.01-17.16,7.07-34.83,3.98-51.51c-2.28-12.28,2.09-24.75,11.53-32.92c12.83-11.1,22.25-25.85,29.03-42.73 c18.34-45.65-2.03-90.76-53.74-119.99c-12.17-6.87-29.75-17.3-52.74-24.38" class="st0"/><path d="M-3516.33,1587.35c15.25-64.85,87.75-61.04,87.75-61.04v-53.41c0,0-80.12-7.64-125.9-3.74 c-42.92,3.67-87.95,29.53-106.84,68.6c-11.14,23.03,83.94-11.45,91.56,49.58" class="st0"/><path d="M-3443.7,1527.43c12.69,57.51,47.54,103.32,63.73,126.94c2.75,4-0.85,9.44-4.63,6.97 c-24.94-16.26-78.16-52.77-99.13-118.11" class="st0"/><path d="M-3590.74,1641.51c0,0,11.44,7.22,47.08,7.22c29.22,0,44.49-7.22,44.49-7.22v-48.43 c0-3.16-2.56-5.72-5.71-5.72h-80.13c-3.16,0-5.71,2.57-5.71,5.72V1641.51z" class="st0"/><path d="M-3372.18,2033.17c-3.14,69.74-28.27,132.89-38.23,158.7c-3.85,9.98-12.25,17.37-22.94,17.37h-249.59 c-11.07,0-19.43-7.93-23.19-18.34c-13.34-36.93-84.4-226.4,69.61-412.77c31.12-37.66,27.3-75.84,22.89-103 c-5.04-31.02,22.76-40.29,22.76-40.29" class="st0"/><path d="M-3499.17,1636.95c49.59,30.53-8.43,66.55,0.19,74.26c28.54,25.53-0.21,60.8-0.19,60.74 c0,0,28.74,20.37,12.43,58.69c27.07,16.59,58.69,39.04,80.6,67.76" class="st0"/><path d="M-3209.72,1855.91c32.66,0,69.03,36.35,69.03,69.02c0-32.66,36.34-69.02,69.02-69.02 c-32.67,0-69.02-36.35-69.02-69.02C-3140.69,1819.56-3177.06,1855.91-3209.72,1855.91z" class="st0"/><path d="M-3319.58,1738.52c23.76,0,50.2,26.44,50.2,50.2c0-23.76,26.44-50.2,50.19-50.2 c-23.75,0-50.19-26.43-50.19-50.19C-3269.38,1712.09-3295.82,1738.52-3319.58,1738.52z" class="st0"/><path d="M-3412.94,1961c44.11,0,93.19,49.1,93.19,93.2c0-44.1,49.09-93.2,93.2-93.2c-44.11,0-93.2-49.09-93.2-93.2 C-3319.74,1911.91-3368.82,1961-3412.94,1961z" class="st0"/><path d="M-529.18,2016.82h49.72c26.06-0.03,47.17-17.85,47.14-39.81c-0.03-21.94-21.18-39.38-47.24-39.34l-255.87-0.01" class="st0"/><path d="M-620.62,2096.31l98.63,0.01c26.06-0.04,47.17-17.86,47.14-39.82c-0.03-21.94-21.18-39.71-47.24-39.67h-213.34" class="st0"/><path d="M-1153.19,2157.97c164.42-0.36,163.71,10.57,344.85,10.57h53.43l145.33-0.01 c23.68-0.03,42.85-16.22,42.83-36.16c-0.03-19.95-19.25-36.09-42.93-36.06h-125.73" class="st0"/><path d="M-543.25,1937.66c26.06-0.04,47.16-18.2,47.13-40.16c-0.02-21.95-21.17-39.38-47.24-39.35h-244.93 c16.4-5.59,31.01-10.31,41.11-14.69c56.16-24.35,86.43-48.47,77.42-73.96c-11.43-32.32-59.44-15.74-106.32,0 c-53.03,17.8-118.1,22.31-194.75,76c-40.2,28.14-141,18.08-184.73,18.08" class="st0"/><path d="M-1157.95,2141.11v25.57c0,13.73-11.23,24.96-24.97,24.96c-13.73,0-24.96-11.24-24.96-24.96V1844.8 c0-13.73,11.24-24.96,24.96-24.96c13.74,0,24.97,11.24,24.97,24.96v33.86" class="st0"/><path d="M-398.65,1673.19c0,62.4-51.41,112.98-114.83,112.98c-63.4,0-114.82-50.58-114.82-112.98 c0-112.97,114.82-220.56,114.82-220.56S-398.65,1570.98-398.65,1673.19z" class="st0"/><path d="M-458.8,1667.17c0,18.02-7.92,34.19-20.46,45.22" class="st0"/><path d="M-699.37,1538.4c0,34.16-28.15,61.86-62.89,61.86c-34.72,0-62.88-27.7-62.88-61.86 c0-61.86,62.88-120.79,62.88-120.79S-699.37,1482.42-699.37,1538.4z" class="st0"/><path d="M327.12-1085.38c-16.56-70.37-95.21-66.23-95.21-66.23v-57.95c0,0,86.94-8.28,136.6-4.05 c46.57,3.97,95.44,32.03,115.92,74.42c12.08,25-91.07-12.42-99.35,53.81" class="st0"/><path d="M248.31-1150.39c-13.77,62.39-51.59,112.11-69.14,137.72c-2.98,4.36,0.92,10.25,5.02,7.58 c27.07-17.64,84.82-57.27,107.57-128.15" class="st0"/><path d="M407.86-1026.62c0,0-12.42,7.83-51.08,7.83c-31.71,0-48.26-7.83-48.26-7.83v-52.55c0-3.43,2.77-6.2,6.2-6.2 h86.94c3.43,0,6.2,2.77,6.2,6.2V-1026.62z" class="st0"/><path d="M308.51-1031.56c-53.81,33.12,9.13,72.21-0.21,80.56c-30.97,27.72,0.23,65.97,0.21,65.91 c0,0-31.19,22.11-13.48,63.69c-40.58,24.85-90.56,61.86-109.23,112.16c-40.87,110.18,10.53,238.66,26.39,279.78 c4.18,10.83,13.28,18.86,24.88,18.86H507.9c12.01,0,21.08-8.61,25.17-19.91c14.49-40.07,91.58-245.65-75.54-447.87 c-33.77-40.86-29.62-82.29-24.83-111.76c5.46-33.65-24.69-43.71-24.69-43.71" class="st0"/><path d="M747.49-771.15L747.49-771.15c-17.31,0.73-32.08-12.84-32.8-30.14l-6.66-157.41 c-0.75-17.31,12.83-32.08,30.14-32.81c17.32-0.73,32.08,12.84,32.8,30.15l6.66,157.4C778.38-786.65,764.81-771.89,747.49-771.15z" class="st0"/><path d="M583.79-410.62h233.36c20.68,0,37.08-17.41,35.87-38.04l-34.51-586.9c-1.28-21.69-14.04-41.04-33.46-50.76 l-57.33-28.67l-11.1-99.83c0,0-10.87-5.03-48.16-5.03c-33.09,0-46.13,5.03-46.13,5.03l-11.1,99.83l-57.33,28.67 c-19.43,9.72-32.2,29.07-33.47,50.76l-8.1,137.79" class="st0"/><path d="M668.63,669.47H309.25c-12.99,0-23.52,10.52-23.52,23.51v25.82h406.42v-25.82 C692.15,679.99,681.62,669.47,668.63,669.47z" class="st0"/><path d="M462.07,623.83V215.74c0-14.84,12.03-26.87,26.87-26.87c14.84,0,26.87,12.03,26.87,26.87v408.09" class="st0"/></g><polyline points="292.45 719.94 262.22 810.62 715.66 810.62 685.44 719.94" class="st1"/><line x1="334.43" x2="307.57" y1="719.94" y2="810.62" class="st1"/><line x1="381.45" x2="357.94" y1="719.94" y2="810.62" class="st1"/><line x1="425.12" x2="408.32" y1="719.94" y2="810.62" class="st1"/><line x1="468.79" x2="462.07" y1="719.94" y2="810.62" class="st1"/><line x1="643.44" x2="670.31" y1="719.94" y2="810.62" class="st1"/><line x1="596.42" x2="619.93" y1="719.94" y2="810.62" class="st1"/><line x1="552.76" x2="569.55" y1="719.94" y2="810.62" class="st1"/><line x1="509.09" x2="515.81" y1="719.94" y2="810.62" class="st1"/><g><defs><rect id="SVGID_3_" width="901.74" height="924" x="50" y="50"/></defs><clipPath id="SVGID_4_"><use style="overflow:visible" xlink:href="#SVGID_3_"/></clipPath><path d="M446.43,669.47v-37.1c0-4.71,3.81-8.54,8.53-8.54h67.96c4.7,0,8.52,3.82,8.52,8.54v37.1" class="st2"/><path d="M759.55,810.63h82.83c18.4,0,33.99-11.25,36.59-26.39l36.29-211.22" class="st2"/></g><line x1="588.66" x2="597.75" y1="573.02" y2="627.75" class="st1"/><g><defs><rect id="SVGID_5_" width="901.74" height="924" x="50" y="50"/></defs><clipPath id="SVGID_6_"><use style="overflow:visible" xlink:href="#SVGID_5_"/></clipPath><path d="M913.96,573.02H589.96c-12.49,0-22.62-10.12-22.62-22.61v-6.76c0-12.49,10.13-22.62,22.62-22.62h323.99 c12.48,0,22.61,10.12,22.61,22.62v6.76C936.56,562.9,926.44,573.02,913.96,573.02z" class="st3"/><path d="M590.43,520.16c0-89.21,72.31-161.53,161.53-161.53c89.22,0,161.53,72.32,161.53,161.53" class="st3"/></g><line x1="839.91" x2="854.91" y1="753.61" y2="624.94" class="st1"/><g><defs><rect id="SVGID_7_" width="901.74" height="924" x="50" y="50"/></defs><clipPath id="SVGID_8_"><use style="overflow:visible" xlink:href="#SVGID_7_"/></clipPath><path d="M234.79,348.13c-11.35-48.24-65.26-45.4-65.26-45.4v-39.72c0,0,59.58-5.67,93.63-2.76 c31.91,2.71,65.42,21.94,79.45,51c8.29,17.13-62.43-8.52-68.1,36.88" class="st4"/><path d="M180.78,303.57c-9.45,42.77-35.36,76.84-47.4,94.4c-2.04,2.98,0.64,7.02,3.45,5.19 c18.55-12.1,58.12-39.25,73.72-87.83" class="st4"/><path d="M290.13,388.41c0,0-8.52,5.36-35.01,5.36c-21.74,0-33.09-5.36-33.09-5.36v-36.02c0-2.35,1.9-4.25,4.25-4.25 h59.59c2.36,0,4.26,1.9,4.26,4.25V388.41z" class="st4"/></g><polyline points="169.53 263.01 136.22 263.01 136.22 302.74 169.53 302.74" class="st1"/><g><defs><rect id="SVGID_9_" width="901.74" height="924" x="50" y="50"/></defs><clipPath id="SVGID_10_"><use style="overflow:visible" xlink:href="#SVGID_9_"/></clipPath><path d="M391.24,627.75c-8.5-43.14-28.09-90.57-67.06-137.74c-23.15-28.02-20.31-56.4-17.02-76.61 c3.74-23.07-16.92-29.95-16.92-29.95" class="st5"/><path d="M222.03,385.02c-36.88,22.7,6.26,49.49-0.14,55.22c-21.23,18.99,0.16,45.23,0.14,45.17 c0,0-21.37,15.15-9.24,43.65c-27.82,17.04-62.08,42.41-74.86,76.88c-28.01,75.52,7.21,163.58,18.09,191.77 c2.86,7.43,9.1,12.92,17.05,12.92h46.3" class="st5"/><path d="M758.93-1764.41c-20.96-106.01-119.1-186.25-237.08-186.25c-117.99,0-216.13,80.25-237.09,186.25" class="st5"/><path d="M454.12-1941.53v-68.4c0-9.36,7.58-16.93,16.93-16.93h101.59c9.36,0,16.93,7.58,16.93,16.93v68.4" class="st5"/><path d="M521.84-2534.83L521.84-2534.83c-28.05,0-50.79,22.75-50.79,50.8v457.17h101.58v-457.17 C572.63-2512.08,549.89-2534.83,521.84-2534.83z" class="st5"/><path d="M769.48-1725.61H274.2c-10.52,0-19.05-8.53-19.05-19.05s8.53-19.06,19.05-19.06h495.27 c10.52,0,19.05,8.54,19.05,19.06S780-1725.61,769.48-1725.61z" class="st5"/><path d="M669.09-1814.67c-14.1-30.4-33.55-54.4-54.12-68.27" class="st5"/><path d="M450.34,1714.6H224.38c-18.69,0-33.85-15.14-33.85-33.84v-39.59h293.65v39.59 C484.18,1699.45,469.04,1714.6,450.34,1714.6z" class="st5"/><path d="M700.94,2118.56c0-42.52-34.47-76.98-76.99-76.98c-42.52,0-76.99,34.46-76.99,76.98 c0,42.51,34.47,76.99,76.99,76.99C666.47,2195.55,700.94,2161.08,700.94,2118.56z" class="st5"/><path d="M223.28,1590.89c0,0-29.71-117.05-95.93-117.84" class="st5"/><path d="M277.92,1590.89c0,0-4.05-105.58-47.97-154.67" class="st5"/><path d="M451.44,1590.89c0,0,28.88-117.05,95.93-117.84" class="st5"/><path d="M396.79,1590.89c0,0,3.24-105.58,47.97-154.67" class="st5"/><path d="M648.04,2118.56c0-13.29-10.78-24.07-24.09-24.07c-13.29,0-24.07,10.78-24.07,24.07 c0,13.3,10.78,24.08,24.07,24.08C637.25,2142.65,648.04,2131.87,648.04,2118.56z" class="st5"/><path d="M506.24,2155.02c-16.98-9.48-28.46-27.62-28.46-48.44v-163.71c0-37.52,31.36-67.44,68.83-65.49 c56.35,2.92,136.64,9.9,198.9,26.57c107.27,28.73,191.06,110.8,191.06,221.85c0,20-16.21,36.2-36.2,36.2H738.7" class="st5"/><path d="M581.01,1946.53c0-7.96-6.45-14.4-14.4-14.4c-7.96,0-14.4,6.44-14.4,14.4c0,7.95,6.44,14.4,14.4,14.4 C574.56,1960.93,581.01,1954.48,581.01,1946.53z" class="st5"/><path d="M899.69,2162.12c-13.6-88.11-81.96-154.1-169.4-183.55c-12.21-4.11-21.79-13.71-25.8-25.96l-20.16-61.41" class="st5"/><path d="M744.05,1633.84c31.87,0,67.34,35.47,67.34,67.34c0-31.86,35.46-67.34,67.34-67.34 c-31.87,0-67.34-35.46-67.34-67.33C811.39,1598.38,775.92,1633.84,744.05,1633.84z" class="st5"/><path d="M636.88,1519.32c23.17,0,48.97,25.79,48.97,48.97c0-23.17,25.79-48.97,48.98-48.97 c-23.18,0-48.98-25.8-48.98-48.98C685.85,1493.52,660.06,1519.32,636.88,1519.32z" class="st5"/><path d="M545.81,1736.37c43.03,0,90.92,47.89,90.92,90.92c0-43.03,47.9-90.92,90.93-90.92 c-43.03,0-90.93-47.89-90.93-90.93C636.72,1688.48,588.84,1736.37,545.81,1736.37z" class="st5"/><path d="M337.36,1755.86v313.37v25.29c0,47.49-38.5,85.98-85.98,85.98c-47.48,0-85.98-38.49-85.98-85.98 c0-47.48,38.5-85.98,85.98-85.98H431.9" class="st5"/></g></svg>