<?xml version="1.0" encoding="utf-8"?>
<!-- Generator: Adobe Illustrator 24.3.0, SVG Export Plug-In . SVG Version: 6.00 Build 0)  -->
<svg version="1.1" id="Laag_1" xmlns="http://www.w3.org/2000/svg" xmlns:xlink="http://www.w3.org/1999/xlink" x="0px" y="0px"
	 viewBox="0 0 1024 1024" style="enable-background:new 0 0 1024 1024;" xml:space="preserve">
<style type="text/css">
	.st0{clip-path:url(#SVGID_2_);}
</style>
<g>
	<defs>
		<rect id="SVGID_1_" x="50" y="114.47" width="924" height="685.53"/>
	</defs>
	<clipPath id="SVGID_2_">
		<use xlink:href="#SVGID_1_"  style="overflow:visible;"/>
	</clipPath>
	<path class="st0" d="M2267.39,590.75c-36.31-10.18-124.4-55.92-148.98-68.84v-63.8c7.09-10.3,13.41-21.99,18.8-35.13
		c17.75-6.68,36.29-23.13,43.64-45.02c5.89-17.51,4.57-37.02-3.64-53.47c-0.13-0.29-0.3-0.5-0.45-0.77
		c6.62-42.99,14.07-108.44-25.43-154.68c-26.64-31.2-69.68-47-127.9-47c-58.3,0-101.36,15.79-127.99,46.92
		c-39.7,46.44-31.81,112.47-25.18,155.38c-8,16.21-10.43,37.63-4.27,55.97c7.57,22.47,26.78,39.21,44.86,45.59
		c5.1,11.95,11.01,22.64,17.56,32.17v63.82c-24.57,12.92-112.65,58.66-148.9,68.84c-16.34,4.51-77.38,34.97-77.38,101.38V800h642.59
		V692.13C2344.71,625.72,2283.68,595.26,2267.39,590.75 M2011.22,634.21v98.51c-18.24-29.52-43.61-74.41-60.21-119.36l30.21,23.37
		l23.83-31.77l5.18,16.76h26.39l5.18-16.76l23.83,31.77l30.21-23.37c-16.59,44.95-41.97,89.83-60.2,119.36v-98.51H2011.22z
		 M2023.43,511.01c26.77,0,50.57-8.88,70.56-25.64v44.15c-40.78,28.5-100.38,28.5-141.16,0v-44.18
		C1972.83,502.13,1996.65,511.01,2023.43,511.01 M2107.91,573.11l-37.64,29.15l-21.5-28.69c22.8-3.79,44.73-12.69,63.33-26.83
		C2111.41,555.22,2109.94,564.07,2107.91,573.11 M1934.74,546.74c18.61,14.14,40.54,23.04,63.33,26.83l-21.5,28.69l-37.64-29.15
		C1936.91,564.07,1935.43,555.22,1934.74,546.74 M2023.43,146.47c136.44,0,139.51,91.83,131.72,155.53
		c-0.83-0.36-1.6-0.88-2.44-1.15c-0.48-0.17-0.96-0.3-1.45-0.45c-6.51-18.62-14.6-40.13-15.08-41.43l-7.22-19.17l-20.15,3.77
		c-0.05,0.02-11.04,1.98-25.65,1.98c-19.4,0-35.76-3.37-47.29-9.78c-21.67-12.04-43.03-18.14-63.44-18.14
		c-33.75,0-53.09,16.84-55.19,18.74l-5.18,4.75l-1.86,6.74c-0.12,0.43-8.38,30.32-14.93,52.64c-0.42,0.12-0.82,0.23-1.23,0.38
		c-0.79,0.27-1.53,0.67-2.28,0.98C1883.91,238.05,1886.83,146.47,2023.43,146.47 M1889.14,372.57c-7.4-22.08,4.32-45.72,12.72-48.55
		c0.67-0.22,1.37-0.34,2.06-0.34c2.63,0,5.54,1.48,8.54,4.1c5.71-17.09,21.28-73.41,21.28-73.41s13.46-12.32,38.68-12.32
		c13.78,0,31.07,3.66,51.59,15.07c18.58,10.33,41.28,12.86,59.15,12.86c17.36,0,30.16-2.39,30.16-2.39s16.52,43.91,21.28,60.2
		c2.96-2.55,5.85-4.08,8.44-4.08c0.67,0,1.32,0.1,1.94,0.32c8.42,2.81,20.15,24.08,12.72,46.17c-6.7,19.96-27.64,31.7-36.97,31.7
		c-0.59,0-1.12-0.05-1.61-0.15c-17.9,52.2-49.35,84.85-95.68,84.85h-0.01c-45.68,0-76.88-31.7-94.92-82.57
		c-0.72,0.22-1.56,0.32-2.5,0.32C1916.15,404.34,1895.87,392.56,1889.14,372.57 M1726.55,692.13c0-56.83,58.86-77.67,59.51-77.86
		c29.51-8.28,87.74-36.83,125.35-56.05c11.5,85.84,81.17,192.19,98.35,217.35h-80.89v-51.2h-113.38v51.2h-88.94V692.13z
		 M1904.45,775.58h-64.54V748.8h64.54V775.58z M2320.29,775.58h-283.22c17.18-25.14,86.84-131.5,98.35-217.33
		c37.62,19.19,95.85,47.74,125.4,56.04c0.6,0.17,59.46,21.01,59.46,77.84V775.58z"/>
	<polygon class="st0" points="-672.85,669.18 -648.43,669.18 -648.43,688.14 -629.47,688.14 -629.47,712.57 -648.43,712.57 
		-648.43,731.52 -672.85,731.52 -672.85,712.57 -691.82,712.57 -691.82,688.14 -672.85,688.14 	"/>
	<path class="st0" d="M-1057,675.56v123.55h537.75V675.56c0-56.92-44.04-79.74-67.34-83.87c-75.12-13.53-117.17-47.34-128.7-57.82
		v-41.42c3.69-0.27,7.06-0.55,9.9-0.85c41.15-4.54,72.57-20.28,93.4-46.77c22.97-29.22,31.27-69.88,24.7-120.87
		c-10.71-83.12-56.24-206.74-137.76-206.74c-9.26,0-18.51,1.7-27.64,5.04c-15.69-5.18-31.48-7.8-47.03-7.8h-0.02
		c-99.54,0.02-175.17,108.77-188.16,209.5c-6.58,50.99,1.73,91.65,24.7,120.87c20.83,26.48,52.25,42.22,93.41,46.77
		c2.55,0.28,5.58,0.55,8.83,0.78v41.49c-11.49,10.45-53.54,44.29-128.76,57.82C-1012.98,595.82-1057,618.61-1057,675.56
		 M-814.61,673.03h52.97c-8.22,19.67-17.08,38.08-26.5,54.75C-797.45,711.24-806.35,692.83-814.61,673.03 M-851.44,557.92
		c7.2-5.89,11.11-9.99,11.64-10.54l3.26-3.53v-47.24c14.86,7.46,31.25,11.39,48.95,11.39c17.28,0,33.3-3.74,47.89-10.84v46.69
		l3.26,3.53c0.52,0.55,4.41,4.63,11.57,10.49c-7.44,31.82-16.59,62.34-27.14,90.75h-72.21
		C-834.77,620.21-844.03,589.61-851.44,557.92 M-883.27,398.71c-0.49,0.1-1,0.15-1.5,0.15c-7.92,0-17.2-11.73-23.9-31.67
		c-7.44-22.08-8.89-45.72-0.48-48.52c0.66-0.22,1.33-0.34,2.03-0.34c2.56,0,5.43,1.43,8.35,3.96
		c-0.43-5.36,116.12-28.52,158.9-93.84c39.15,29.68,58.77,62.03,63.24,96.34c2.99-2.61,5.91-4.09,8.52-4.09
		c0.71,0,1.4,0.11,2.08,0.33c8.41,2.83,6.93,26.47-0.48,48.53c-6.72,19.98-16,31.78-23.93,31.78c-0.77,0-1.51-0.12-2.24-0.33
		c-18.03,50.89-49.24,82.58-94.92,82.58C-833.92,483.58-865.37,450.94-883.27,398.71 M-700.99,466.31
		c10.29-12.32,19.19-27.25,26.5-44.64c10.39-5.48,22.21-17.79,31.15-44.36c13.95-41.56,8.56-71.14-14.21-79.19
		c-10.26-32.96-32.89-62.85-67.55-89.15l-20.85-15.81l-14.34,21.89c-27.58,42.11-97.97,66.2-128.04,76.48
		c-3.47,1.18-6.85,2.33-10.07,3.55c-2.85-0.79-5.75-1.2-8.72-1.2c-3.36,0-6.67,0.55-9.76,1.6c-7.68,2.55-14.02,8.21-17.83,15.89
		c-9.99,20.03-1.31,51.15,2.88,63.58c8.55,25.47,19.78,37.83,29.88,43.59c7.57,18.77,16.95,34.73,27.85,47.77
		c-56.98-8.63-101.7-45.4-89.59-139.22c10.76-83.54,74.07-188.18,163.93-188.21c15.24,0,31.21,3,47.84,9.63
		c9.24-4.7,18.22-6.87,26.86-6.87c58.83,0,102.55,100.28,113.53,185.45C-599.41,420.87-644.06,457.63-700.99,466.31 M-543.67,774.7
		h-212.89c-5.8-6.98-11.54-14.81-17.18-23.3c28.89-47.67,53.46-110.04,70.26-178.17c23.88,15.21,60.97,33.22,112.61,42.5
		c0.5,0.08,47.19,8.91,47.19,59.83V774.7z M-1032.58,675.56c0-50.92,46.67-59.74,47.13-59.83c51.6-9.28,88.66-27.22,112.54-42.43
		c19.99,81.02,50.71,152.96,85.57,201.4h-245.24V675.56z"/>
	<path class="st0" d="M821.38,685.05c6.75,0,12.21,5.46,12.21,12.21c0,6.75-5.46,12.21-12.21,12.21c-6.75,0-12.21-5.46-12.21-12.21
		C809.17,690.5,814.63,685.05,821.38,685.05"/>
	<path class="st0" d="M298.38,697.26c0,37.02,30.13,67.16,67.16,67.16c24.48,0,45.89-13.21,57.62-32.83h340.6
		c11.73,19.62,33.14,32.83,57.62,32.83c37.02,0,67.16-30.13,67.16-67.16c0-37.02-30.14-67.16-67.16-67.16
		c-11.97,0-23.17,3.19-32.93,8.69l-167.38-83.36l159.14-79.24h189.34v-80.86H729v-10.99c0-22.58-18.36-40.93-40.93-40.93H498.86
		c-22.56,0-40.93,18.35-40.93,40.93v10.99H217.1v80.86h190.05l159.14,79.24l-167.62,83.48c-9.79-5.58-21.09-8.82-33.13-8.82
		C328.52,630.1,298.38,660.24,298.38,697.26 M704.58,395.34H482.35v-10.99c0-9.11,7.41-16.51,16.51-16.51h189.21
		c9.1,0,16.51,7.4,16.51,16.51V395.34z M945.13,451.77H241.52v-32h703.61V451.77z M593.69,541.8l-131.75-65.6h263.5L593.69,541.8z
		 M768.44,656.11c-1.71,2.17-3.26,4.46-4.68,6.82h-340.6c-1.39-2.32-2.91-4.54-4.54-6.67l175.07-87.19L768.44,656.11z
		 M778.65,697.26c0-23.57,19.17-42.74,42.74-42.74c23.57,0,42.74,19.17,42.74,42.74c0,23.57-19.17,42.74-42.74,42.74
		C797.82,739.99,778.65,720.82,778.65,697.26 M431.89,707.16c0.48-3.25,0.81-6.53,0.81-9.9c0-3.37-0.33-6.65-0.81-9.9h323.14
		c-0.48,3.25-0.8,6.53-0.8,9.9c0,3.37,0.33,6.66,0.8,9.9H431.89z M322.8,697.26c0-23.57,19.17-42.74,42.74-42.74
		c23.57,0,42.74,19.17,42.74,42.74c0,23.57-19.17,42.74-42.74,42.74C341.97,739.99,322.8,720.82,322.8,697.26"/>
	<path class="st0" d="M365.54,685.05c6.75,0,12.21,5.46,12.21,12.21c0,6.75-5.46,12.21-12.21,12.21c-6.75,0-12.21-5.46-12.21-12.21
		C353.33,690.5,358.79,685.05,365.54,685.05"/>
	<rect x="130.58" y="526.54" class="st0" width="134.98" height="24.42"/>
	<rect x="60.74" y="453.82" class="st0" width="99.64" height="24.42"/>
	<path class="st0" d="M873.38,407.94c-52.48,0-94.43-28.14-96.18-29.35v-20.17c1.75-1.21,43.7-29.35,96.18-29.35
		c52.49,0,94.42,28.15,96.18,29.35v20.17C967.8,379.79,925.87,407.94,873.38,407.94 M809.67,368.5
		c15.21,6.98,38.25,15.02,63.7,15.02c25.45,0,48.49-8.04,63.71-15.02c-15.23-6.98-38.27-15.02-63.71-15.02
		C847.93,353.48,824.89,361.52,809.67,368.5"/>
</g>
</svg>
