<?xml version="1.0" encoding="utf-8"?>
<!-- Generator: Adobe Illustrator 24.3.0, SVG Export Plug-In . SVG Version: 6.00 Build 0)  -->
<svg version="1.1" id="Laag_1" xmlns="http://www.w3.org/2000/svg" xmlns:xlink="http://www.w3.org/1999/xlink" x="0px" y="0px"
	 viewBox="0 0 1024 1024" style="enable-background:new 0 0 1024 1024;" xml:space="preserve">
<style type="text/css">
	.st0{clip-path:url(#SVGID_2_);fill:none;stroke:#14171C;stroke-width:46.753;stroke-linejoin:round;stroke-miterlimit:10;}
	.st1{clip-path:url(#SVGID_2_);fill:none;stroke:#14171C;stroke-width:46.753;stroke-miterlimit:10;}
	.st2{fill:none;stroke:#14171C;stroke-width:46.753;stroke-linejoin:round;stroke-miterlimit:10;}
	.st3{clip-path:url(#SVGID_4_);fill:none;stroke:#14171C;stroke-width:46.753;stroke-linejoin:round;stroke-miterlimit:10;}
	.st4{clip-path:url(#SVGID_4_);fill:none;stroke:#14171C;stroke-width:46.753;stroke-miterlimit:10;}
	.st5{clip-path:url(#SVGID_4_);fill:#14171C;}
</style>
<g>
	<defs>
		<rect id="SVGID_1_" y="50" width="1024" height="924"/>
	</defs>
	<clipPath id="SVGID_2_">
		<use xlink:href="#SVGID_1_"  style="overflow:visible;"/>
	</clipPath>
	<path class="st0" d="M-3658.65,138.31c51.64,0,93.51,41.87,93.51,93.51v561.04c0,51.64-41.87,93.51-93.51,93.51h-561.04
		c-51.64,0-93.51-41.87-93.51-93.51V231.82c0-51.64,41.87-93.51,93.51-93.51H-3658.65z"/>
	
		<ellipse transform="matrix(0.0116 -0.9999 0.9999 0.0116 -4080.3259 -3430.6321)" class="st1" cx="-3775.54" cy="348.7" rx="93.51" ry="93.51"/>
	
		<ellipse transform="matrix(0.7071 -0.7071 0.7071 0.7071 1694.9904 4981.6299)" class="st0" cx="6860.85" cy="444.78" rx="116.88" ry="116.88"/>
	<path class="st0" d="M6860.85,117.51c180.7,0,327.27,146.57,327.27,327.27c0,47.46-10.05,92.34-28.29,133.01
		c-14.96,33.66-35.53,64.29-60.31,90.7l-238.67,238.68L6622.18,668.5c-24.78-26.42-45.35-57.04-60.31-90.7
		c-18.23-40.67-28.29-85.56-28.29-133.01C6533.58,264.08,6680.15,117.51,6860.85,117.51z"/>
	<path class="st0" d="M-5774.28,429.03c6.43-22.32,15.19-43.97,26.79-64.45l-54.98-67.44c-15.15-18.58-13.79-45.65,3.18-62.6
		l39.44-39.46c16.97-16.95,44.02-18.33,62.6-3.18l67.44,54.98l0.05-0.09c20.31-11.22,41.84-20.34,64.5-26.65l8.81-86.56
		c2.43-23.87,22.54-42.01,46.52-42.01h55.8c23.98,0,44.09,18.14,46.52,42.01l8.81,86.56l0.07-0.05
		c22.32,6.45,43.97,15.22,64.47,26.79l67.44-54.98c18.58-15.15,45.63-13.77,62.6,3.18l39.44,39.46
		c16.97,16.95,18.33,44.02,3.18,62.6l-54.98,67.44l0.09,0.02c11.22,20.34,20.34,41.84,26.65,64.52l86.56,8.81
		c23.87,2.43,42.01,22.53,42.01,46.52v55.78c0,23.98-18.14,44.09-42.01,46.52l-86.56,8.81l0.05,0.1
		c-6.43,22.32-15.19,43.97-26.79,64.45l54.98,67.44c15.15,18.58,13.79,45.65-3.18,62.6l-39.44,39.46
		c-16.97,16.95-44.02,18.33-62.6,3.15l-67.44-54.96l-0.05,0.09c-20.31,11.22-41.84,20.34-64.5,26.65l-8.81,86.56
		c-2.43,23.87-22.53,42.01-46.52,42.01h-55.8c-23.98,0-44.09-18.14-46.52-42.01l-8.81-86.56l-0.07,0.02
		c-22.33-6.43-43.97-15.19-64.47-26.77l-67.44,54.96c-18.58,15.17-45.63,13.79-62.6-3.15l-39.44-39.46
		c-16.97-16.95-18.33-44.02-3.18-62.6l54.98-67.44l-0.09-0.02c-11.22-20.34-20.36-41.84-26.67-64.52l-86.54-8.81
		c-23.87-2.43-42.03-22.54-42.03-46.52v-55.78c0-23.98,18.16-44.09,42.03-46.52l86.54-8.81L-5774.28,429.03z"/>
	
		<ellipse transform="matrix(0.9558 -0.2942 0.2942 0.9558 -393.2816 -1589.9888)" class="st0" cx="-5482.04" cy="512.34" rx="140.26" ry="140.26"/>
	<path class="st0" d="M2180.68,133.26l-313.81,254.97c-5.45,4.42-8.63,11.08-8.63,18.14v479.78c0,12.9,10.45,23.38,23.38,23.38
		h210.39c12.93,0,23.38-10.47,23.38-23.38v-303.9c0-12.93,10.45-23.38,23.38-23.38h187.01c12.93,0,23.38,10.45,23.38,23.38v303.9
		c0,12.9,10.45,23.38,23.38,23.38h210.39c12.93,0,23.38-10.47,23.38-23.38V406.37c0-7.06-3.18-13.72-8.63-18.14l-313.81-254.97
		C2253.8,108.83,2210.74,108.83,2180.68,133.26z"/>
	
		<ellipse transform="matrix(0.7071 -0.7071 0.7071 0.7071 -1139.4592 -1726.2159)" class="st1" cx="-2653.46" cy="512.34" rx="140.26" ry="140.26"/>
	
		<ellipse transform="matrix(0.7071 -0.7071 0.7071 0.7071 -807.0002 -1437.8756)" class="st1" cx="-2139.17" cy="255.2" rx="140.26" ry="140.26"/>
	
		<ellipse transform="matrix(0.7071 -0.7071 0.7071 0.7071 -1170.656 -1287.2444)" class="st1" cx="-2139.17" cy="769.48" rx="140.26" ry="140.26"/>
	<path class="st0" d="M7164.75,1798.06v584.42c0,51.64-41.87,93.51-93.51,93.51h-420.78c-51.64,0-93.51-41.87-93.51-93.51v-584.42"
		/>
	<path class="st0" d="M7001.11,1798.06h-280.52v-70.13c0-25.81,20.95-46.75,46.75-46.75h187.01c25.81,0,46.75,20.95,46.75,46.75
		V1798.06z"/>
	<path class="st0" d="M-993.71,161.69h-327.27c-51.64,0-93.51,41.87-93.51,93.51v561.04c0,51.64,41.87,93.51,93.51,93.51h561.04
		c51.64,0,93.51-41.87,93.51-93.51V488.96"/>
	<path class="st0" d="M-619.69,395.46V138.31c0-12.9-10.47-23.38-23.38-23.38h-257.14"/>
	<path class="st0" d="M549.15,161.69H221.88c-51.64,0-93.51,41.87-93.51,93.51v561.04c0,51.64,41.87,93.51,93.51,93.51h561.04
		c51.64,0,93.51-41.87,93.51-93.51V488.96"/>
</g>
<line class="st2" x1="853.05" y1="185.07" x2="455.64" y2="582.47"/>
<g>
	<defs>
		<rect id="SVGID_3_" y="50" width="1024" height="924"/>
	</defs>
	<clipPath id="SVGID_4_">
		<use xlink:href="#SVGID_3_"  style="overflow:visible;"/>
	</clipPath>
	<path class="st3" d="M432.27,325.33v257.14c0,12.9,10.47,23.38,23.38,23.38h257.14"/>
	<circle class="st3" cx="3775.13" cy="465.59" r="327.27"/>
	<circle class="st3" cx="5294.62" cy="512.34" r="350.65"/>
	<path class="st3" d="M5492.98,148.69l21.36-14.26c45.26-30.16,105.5-24.19,143.93,14.26c38.45,38.46,44.42,98.67,14.26,143.91
		l-14.26,21.39"/>
	<path class="st3" d="M5096.26,148.69l-21.37-14.26c-45.26-30.16-105.5-24.19-143.93,14.26c-38.45,38.46-44.42,98.67-14.26,143.91
		l14.26,21.39"/>
	<path class="st3" d="M8543.98,886.37h-607.79c-51.64,0-93.51-41.87-93.51-93.51V231.82c0-51.64,41.87-93.51,93.51-93.51h607.79
		c51.64,0,93.51,41.87,93.51,93.51v561.04C8637.48,844.5,8595.62,886.37,8543.98,886.37z"/>
	<path class="st3" d="M8053.07,559.09h-93.51c-12.93,0-23.38-10.47-23.38-23.38v-93.51c0-12.9,10.45-23.38,23.38-23.38h93.51
		c12.93,0,23.38,10.47,23.38,23.38v93.51C8076.44,548.62,8065.99,559.09,8053.07,559.09z"/>
	<path class="st3" d="M8286.83,559.09h-93.51c-12.93,0-23.38-10.47-23.38-23.38v-93.51c0-12.9,10.45-23.38,23.38-23.38h93.51
		c12.93,0,23.38,10.47,23.38,23.38v93.51C8310.21,548.62,8299.76,559.09,8286.83,559.09z"/>
	<path class="st3" d="M8520.6,559.09h-93.51c-12.93,0-23.38-10.47-23.38-23.38v-93.51c0-12.9,10.45-23.38,23.38-23.38h93.51
		c12.93,0,23.38,10.47,23.38,23.38v93.51C8543.98,548.62,8533.53,559.09,8520.6,559.09z"/>
	<path class="st3" d="M8053.07,792.86h-93.51c-12.93,0-23.38-10.47-23.38-23.38v-93.51c0-12.9,10.45-23.38,23.38-23.38h93.51
		c12.93,0,23.38,10.47,23.38,23.38v93.51C8076.44,782.39,8065.99,792.86,8053.07,792.86z"/>
	<path class="st3" d="M8286.83,792.86h-93.51c-12.93,0-23.38-10.47-23.38-23.38v-93.51c0-12.9,10.45-23.38,23.38-23.38h93.51
		c12.93,0,23.38,10.47,23.38,23.38v93.51C8310.21,782.39,8299.76,792.86,8286.83,792.86z"/>
	<path class="st3" d="M8520.6,792.86h-93.51c-12.93,0-23.38-10.47-23.38-23.38v-93.51c0-12.9,10.45-23.38,23.38-23.38h93.51
		c12.93,0,23.38,10.47,23.38,23.38v93.51C8543.98,782.39,8533.53,792.86,8520.6,792.86z"/>
	
		<ellipse transform="matrix(0.7071 -0.7071 0.7071 0.7071 -2524.356 -2217.6965)" class="st4" cx="-3939.17" cy="1938.32" rx="397.4" ry="397.4"/>
	
		<ellipse transform="matrix(0.7071 -0.7071 0.7071 0.7071 -2976.2498 -3308.6643)" class="st4" cx="-5482.04" cy="1938.32" rx="397.4" ry="397.4"/>
	<path class="st3" d="M-1245.18,2218.84l350.91-607.79c18-31.16,63-31.16,80.98,0l350.91,607.79c18,31.16-4.49,70.13-40.49,70.13
		h-701.82C-1240.69,2288.97-1263.18,2250-1245.18,2218.84z"/>
	<path class="st5" d="M-818.72,2172.09c0,19.38-15.69,35.06-35.07,35.06c-19.36,0-35.07-15.68-35.07-35.06
		c0-19.38,15.71-35.06,35.07-35.06C-834.4,2137.02-818.72,2152.71-818.72,2172.09"/>
	<path class="st4" d="M923.18,2359.1H455.64c-51.64,0-93.51-41.87-93.51-93.51v-303.9c0-51.64,41.87-93.51,93.51-93.51h467.53
		c51.64,0,93.51,41.87,93.51,93.51v303.9C1016.68,2317.23,974.82,2359.1,923.18,2359.1z"/>
	<path class="st4" d="M899.8,1868.19H479.02v-163.64c0-116.2,94.18-210.39,210.39-210.39c116.2,0,210.39,94.18,210.39,210.39
		V1868.19z"/>
	<path class="st4" d="M2466.04,2359.1H1998.5c-51.64,0-93.51-41.87-93.51-93.51v-303.9c0-51.64,41.87-93.51,93.51-93.51h467.53
		c51.64,0,93.51,41.87,93.51,93.51v303.9C2559.54,2317.23,2517.68,2359.1,2466.04,2359.1z"/>
	<path class="st4" d="M2021.88,1868.19v-163.64c0-116.2,94.18-210.39,210.39-210.39s210.39,94.18,210.39,210.39v23.38"/>
	<line class="st4" x1="-2302.81" y1="1564.29" x2="-2302.81" y2="1982.99"/>
	<path class="st4" d="M-2102.94,1699.22c91.17,63.12,150.78,168.5,150.78,287.93c0,193.7-156.97,350.65-350.65,350.65
		c-193.68,0-350.65-156.95-350.65-350.65c0-119.43,59.61-224.81,150.78-287.93"/>
</g>
</svg>
