<?xml version="1.0" encoding="utf-8"?>
<!-- Generator: Adobe Illustrator 24.3.0, SVG Export Plug-In . SVG Version: 6.00 Build 0)  -->
<svg version="1.1" id="Laag_1" xmlns="http://www.w3.org/2000/svg" xmlns:xlink="http://www.w3.org/1999/xlink" x="0px" y="0px"
	 viewBox="0 0 1024 1024" style="enable-background:new 0 0 1024 1024;" xml:space="preserve">
<style type="text/css">
	.st0{clip-path:url(#SVGID_2_);fill:none;stroke:#14171C;stroke-width:46.753;stroke-linejoin:round;stroke-miterlimit:10;}
	.st1{clip-path:url(#SVGID_2_);fill:none;stroke:#14171C;stroke-width:46.753;stroke-miterlimit:10;}
	.st2{clip-path:url(#SVGID_2_);fill:#14171C;}
</style>
<g>
	<defs>
		<rect id="SVGID_1_" y="50" width="1024" height="924"/>
	</defs>
	<clipPath id="SVGID_2_">
		<use xlink:href="#SVGID_1_"  style="overflow:visible;"/>
	</clipPath>
	<path class="st0" d="M-844.65-1301.69c51.64,0,93.51,41.87,93.51,93.51v561.04c0,51.64-41.87,93.51-93.51,93.51h-561.04
		c-51.64,0-93.51-41.87-93.51-93.51v-561.04c0-51.64,41.87-93.51,93.51-93.51H-844.65z"/>
	
		<ellipse transform="matrix(0.0391 -0.9992 0.9992 0.0391 166.543 -2009.4)" class="st1" cx="-961.54" cy="-1091.3" rx="93.51" ry="93.51"/>
	
		<ellipse transform="matrix(0.9239 -0.3827 0.3827 0.9239 1117.2991 3626.6326)" class="st0" cx="9674.85" cy="-995.22" rx="116.88" ry="116.88"/>
	<path class="st0" d="M9674.85-1322.49c180.7,0,327.27,146.57,327.27,327.27c0,47.46-10.05,92.34-28.29,133.01
		c-14.96,33.66-35.53,64.29-60.31,90.7l-238.67,238.68L9436.18-771.5c-24.78-26.42-45.35-57.04-60.31-90.7
		c-18.23-40.67-28.29-85.56-28.29-133.01C9347.58-1175.92,9494.15-1322.49,9674.85-1322.49z"/>
	<path class="st0" d="M-2960.28-1010.97c6.43-22.32,15.19-43.97,26.79-64.45l-54.98-67.44c-15.15-18.58-13.79-45.66,3.18-62.6
		l39.44-39.46c16.97-16.95,44.02-18.33,62.6-3.18l67.44,54.98l0.05-0.09c20.31-11.22,41.84-20.34,64.5-26.65l8.81-86.56
		c2.43-23.87,22.53-42.01,46.52-42.01h55.8c23.98,0,44.09,18.14,46.52,42.01l8.81,86.56l0.07-0.05
		c22.32,6.45,43.97,15.22,64.47,26.79l67.44-54.98c18.58-15.15,45.63-13.77,62.6,3.18l39.44,39.46
		c16.97,16.95,18.33,44.02,3.18,62.6l-54.98,67.44l0.09,0.02c11.22,20.34,20.34,41.84,26.65,64.52l86.56,8.81
		c23.87,2.43,42.01,22.53,42.01,46.52v55.78c0,23.98-18.14,44.09-42.01,46.52l-86.56,8.81l0.05,0.09
		c-6.43,22.32-15.19,43.97-26.79,64.45l54.98,67.44c15.15,18.58,13.79,45.65-3.18,62.6l-39.44,39.46
		c-16.97,16.95-44.02,18.33-62.6,3.15l-67.44-54.96l-0.05,0.09c-20.31,11.22-41.84,20.34-64.5,26.65l-8.81,86.56
		c-2.43,23.87-22.53,42.01-46.52,42.01h-55.8c-23.99,0-44.09-18.14-46.52-42.01l-8.81-86.56l-0.07,0.02
		c-22.32-6.43-43.97-15.19-64.47-26.77l-67.44,54.96c-18.58,15.17-45.63,13.79-62.6-3.15l-39.44-39.46
		c-16.97-16.95-18.33-44.02-3.18-62.6l54.98-67.44l-0.09-0.02c-11.22-20.34-20.36-41.84-26.67-64.52l-86.54-8.81
		c-23.87-2.43-42.03-22.54-42.03-46.52v-55.78c0-23.98,18.16-44.09,42.03-46.52l86.54-8.81L-2960.28-1010.97z"/>
	
		<ellipse transform="matrix(0.971 -0.2389 0.2389 0.971 144.369 -664.3235)" class="st0" cx="-2668.04" cy="-927.66" rx="140.26" ry="140.26"/>
	<path class="st0" d="M4994.68-1306.74l-313.81,254.97c-5.45,4.42-8.63,11.08-8.63,18.14v479.78c0,12.9,10.45,23.38,23.38,23.38
		h210.39c12.93,0,23.38-10.47,23.38-23.38v-303.9c0-12.93,10.45-23.38,23.38-23.38h187.01c12.93,0,23.38,10.45,23.38,23.38v303.9
		c0,12.9,10.45,23.38,23.38,23.38h210.39c12.93,0,23.38-10.47,23.38-23.38v-479.78c0-7.06-3.18-13.72-8.63-18.14l-313.81-254.97
		C5067.8-1331.17,5024.74-1331.17,4994.68-1306.74z"/>
	
		<ellipse transform="matrix(0.7071 -0.7071 0.7071 0.7071 702.976 -158.1836)" class="st1" cx="160.54" cy="-927.66" rx="140.26" ry="140.26"/>
	
		<ellipse transform="matrix(0.7071 -0.7071 0.7071 0.7071 1035.4351 130.1567)" class="st1" cx="674.83" cy="-1184.8" rx="140.26" ry="140.26"/>
	
		<ellipse transform="matrix(0.7071 -0.7071 0.7071 0.7071 671.7792 280.7879)" class="st1" cx="674.83" cy="-670.52" rx="140.26" ry="140.26"/>
	<path class="st0" d="M9978.75,358.06v584.42c0,51.64-41.87,93.51-93.51,93.51h-420.78c-51.64,0-93.51-41.87-93.51-93.51V358.06"/>
	<path class="st0" d="M9815.11,358.06h-280.52v-70.13c0-25.81,20.95-46.75,46.75-46.75h187.01c25.81,0,46.75,20.95,46.75,46.75
		V358.06z"/>
	<path class="st0" d="M1820.29-1278.31h-327.27c-51.64,0-93.51,41.87-93.51,93.51v561.04c0,51.64,41.87,93.51,93.51,93.51h561.04
		c51.64,0,93.51-41.87,93.51-93.51v-327.27"/>
	<path class="st0" d="M2194.31-1044.54v-257.14c0-12.9-10.47-23.38-23.38-23.38h-257.14"/>
	<path class="st0" d="M3363.15-1278.31h-327.27c-51.64,0-93.51,41.87-93.51,93.51v561.04c0,51.64,41.87,93.51,93.51,93.51h561.04
		c51.64,0,93.51-41.87,93.51-93.51v-327.27"/>
	<path class="st0" d="M3246.27-1114.67v257.14c0,12.9,10.47,23.38,23.38,23.38h257.14"/>
	<circle class="st0" cx="6589.13" cy="-974.41" r="327.27"/>
	<circle class="st0" cx="8108.62" cy="-927.66" r="350.65"/>
	<path class="st0" d="M8306.98-1291.31l21.36-14.26c45.26-30.16,105.5-24.19,143.93,14.26c38.45,38.46,44.42,98.67,14.26,143.91
		l-14.26,21.39"/>
	<path class="st0" d="M7910.26-1291.31l-21.37-14.26c-45.26-30.16-105.5-24.19-143.93,14.26c-38.45,38.46-44.42,98.67-14.26,143.91
		l14.26,21.39"/>
	<path class="st0" d="M11357.98-553.63h-607.79c-51.64,0-93.51-41.87-93.51-93.51v-561.04c0-51.64,41.87-93.51,93.51-93.51h607.79
		c51.64,0,93.51,41.87,93.51,93.51v561.04C11451.48-595.5,11409.62-553.63,11357.98-553.63z"/>
	<path class="st0" d="M10867.07-880.91h-93.51c-12.93,0-23.38-10.47-23.38-23.38v-93.51c0-12.9,10.45-23.38,23.38-23.38h93.51
		c12.93,0,23.38,10.48,23.38,23.38v93.51C10890.44-891.38,10879.99-880.91,10867.07-880.91z"/>
	<path class="st0" d="M11100.83-880.91h-93.51c-12.93,0-23.38-10.47-23.38-23.38v-93.51c0-12.9,10.45-23.38,23.38-23.38h93.51
		c12.93,0,23.38,10.48,23.38,23.38v93.51C11124.21-891.38,11113.76-880.91,11100.83-880.91z"/>
	<path class="st0" d="M11334.6-880.91h-93.51c-12.93,0-23.38-10.47-23.38-23.38v-93.51c0-12.9,10.45-23.38,23.38-23.38h93.51
		c12.93,0,23.38,10.48,23.38,23.38v93.51C11357.98-891.38,11347.53-880.91,11334.6-880.91z"/>
	<path class="st0" d="M10867.07-647.14h-93.51c-12.93,0-23.38-10.47-23.38-23.38v-93.51c0-12.9,10.45-23.38,23.38-23.38h93.51
		c12.93,0,23.38,10.47,23.38,23.38v93.51C10890.44-657.61,10879.99-647.14,10867.07-647.14z"/>
	<path class="st0" d="M11100.83-647.14h-93.51c-12.93,0-23.38-10.47-23.38-23.38v-93.51c0-12.9,10.45-23.38,23.38-23.38h93.51
		c12.93,0,23.38,10.47,23.38,23.38v93.51C11124.21-657.61,11113.76-647.14,11100.83-647.14z"/>
	<path class="st0" d="M11334.6-647.14h-93.51c-12.93,0-23.38-10.47-23.38-23.38v-93.51c0-12.9,10.45-23.38,23.38-23.38h93.51
		c12.93,0,23.38,10.47,23.38,23.38v93.51C11357.98-657.61,11347.53-647.14,11334.6-647.14z"/>
	
		<ellipse transform="matrix(0.7071 -0.7071 0.7071 0.7071 -681.9208 -649.6643)" class="st1" cx="-1125.17" cy="498.32" rx="397.4" ry="397.4"/>
	
		<ellipse transform="matrix(0.7071 -0.7071 0.7071 0.7071 -1133.8143 -1740.632)" class="st1" cx="-2668.04" cy="498.32" rx="397.4" ry="397.4"/>
	<path class="st0" d="M1568.82,778.84l350.91-607.79c18-31.16,63-31.16,80.98,0l350.91,607.79c18,31.16-4.49,70.13-40.49,70.13
		h-701.82C1573.31,848.97,1550.82,810,1568.82,778.84z"/>
	<path class="st2" d="M1995.28,732.09c0,19.38-15.69,35.06-35.07,35.06c-19.36,0-35.06-15.68-35.06-35.06
		c0-19.38,15.71-35.07,35.06-35.07C1979.6,697.02,1995.28,712.71,1995.28,732.09"/>
	<path class="st1" d="M3737.18,919.1h-467.53c-51.64,0-93.51-41.87-93.51-93.51V521.7c0-51.64,41.87-93.51,93.51-93.51h467.53
		c51.64,0,93.51,41.87,93.51,93.51v303.9C3830.68,877.23,3788.82,919.1,3737.18,919.1z"/>
	<path class="st1" d="M3713.8,428.19h-420.78V264.55c0-116.2,94.18-210.39,210.39-210.39c116.2,0,210.39,94.18,210.39,210.39V428.19
		z"/>
	<path class="st1" d="M5280.04,919.1H4812.5c-51.64,0-93.51-41.87-93.51-93.51V521.7c0-51.64,41.87-93.51,93.51-93.51h467.53
		c51.64,0,93.51,41.87,93.51,93.51v303.9C5373.54,877.23,5331.68,919.1,5280.04,919.1z"/>
	<path class="st1" d="M4835.88,428.19V264.55c0-116.2,94.18-210.39,210.39-210.39s210.39,94.18,210.39,210.39v23.38"/>
	<line class="st1" x1="511.19" y1="124.29" x2="511.19" y2="542.99"/>
	<path class="st1" d="M711.06,259.22c91.17,63.12,150.78,168.5,150.78,287.93c0,193.7-156.97,350.65-350.65,350.65
		c-193.67,0-350.65-156.95-350.65-350.65c0-119.43,59.61-224.81,150.78-287.93"/>
</g>
</svg>
