<svg xmlns="http://www.w3.org/2000/svg" xmlns:xlink="http://www.w3.org/1999/xlink" style="enable-background:new 0 0 1024 1024" id="Laag_1" x="0" y="0" version="1.1" viewBox="0 0 1024 1024" xml:space="preserve"><style type="text/css">.st0{fill:#272425}.st0,.st1,.st2,.st3{clip-path:url(#SVGID_2_)}.st1{fill:#322f30}.st2{fill:#474546}.st3{fill:#5b5a5b}.st4{fill:#717173}.st4,.st5,.st6,.st7,.st8{clip-path:url(#SVGID_2_)}.st5{fill:#838487}.st6{fill:#919295}.st7{fill:#96979a}.st8{fill:#96989b}.st10,.st11,.st12,.st13,.st9{clip-path:url(#SVGID_2_)}.st9{fill:#a6a7a9}.st10{fill:#acaeb0}.st11{fill:#b7b8ba}.st12{fill:#c7c8c9}.st13{fill:#d1d2d2}.st14{fill:#9fa1a3}.st14,.st15,.st16,.st17,.st18{clip-path:url(#SVGID_2_)}.st15{fill:#ededed}.st16{fill:#d8d8d8}.st17{fill:#bcbcbb}.st18{fill:#a9a9a9}.st19{fill:#959699}.st19,.st20,.st21,.st22,.st23{clip-path:url(#SVGID_2_)}.st20{fill:#8f9194}.st21{fill:#767779}.st22{fill:#4c494a}.st23{fill:#2f2c2d}</style><g><defs><rect id="SVGID_1_" width="956.64" height="924" x="67.36" y="50"/></defs><clipPath id="SVGID_2_"><use style="overflow:visible" xlink:href="#SVGID_1_"/></clipPath><path d="M1571.73,85.92c-43.26-15.75-91.09,6.56-106.84,49.82c-15.74,43.26,6.56,91.09,49.82,106.84 c43.26,15.74,91.09-6.56,106.84-49.82S1614.99,101.67,1571.73,85.92" class="st0"/><path d="M1779.63,224.99c-14.79,40.63-59.72,61.58-100.35,46.8c-40.63-14.79-61.59-59.72-46.8-100.35 c14.79-40.63,59.72-61.59,100.35-46.8C1773.47,139.43,1794.42,184.36,1779.63,224.99" class="st1"/><path d="M1896.17,315.77c-13.94,38.31-56.3,58.06-94.61,44.12c-38.31-13.94-58.06-56.3-44.12-94.61 c13.94-38.31,56.3-58.06,94.61-44.12S1910.11,277.46,1896.17,315.77" class="st2"/><path d="M1925.17,349.3c-36.27-13.2-76.37,5.5-89.58,41.77c-13.2,36.27,5.5,76.37,41.77,89.57 c36.27,13.2,76.37-5.5,89.57-41.77C1980.14,402.61,1961.44,362.51,1925.17,349.3" class="st3"/><path d="M1936.42,503.56c-34.86-12.69-73.41,5.29-86.1,40.15c-12.69,34.86,5.29,73.41,40.15,86.09 c34.86,12.69,73.41-5.28,86.1-40.14C1989.26,554.8,1971.28,516.25,1936.42,503.56" class="st4"/><path d="M1886.16,658.77c-31.43-11.44-66.19,4.77-77.63,36.2c-11.44,31.43,4.77,66.19,36.2,77.63 c31.43,11.44,66.19-4.77,77.63-36.2C1933.8,704.96,1917.6,670.21,1886.16,658.77" class="st5"/><path d="M1781.4,768.87c-29.36-10.68-61.81,4.45-72.5,33.8c-10.68,29.35,4.45,61.81,33.81,72.49 c29.35,10.68,61.81-4.45,72.49-33.8C1825.89,812.01,1810.76,779.56,1781.4,768.87" class="st6"/><path d="M1660.54,830.35c-26.65-9.7-56.11,4.04-65.81,30.69c-9.7,26.64,4.04,56.11,30.69,65.81 c26.65,9.7,56.11-4.04,65.81-30.69C1700.93,869.51,1687.18,840.05,1660.54,830.35" class="st7"/><path d="M1523.47,842.19c-25-9.1-52.65,3.79-61.75,28.79c-9.1,25,3.79,52.64,28.79,61.75 c25,9.1,52.65-3.79,61.75-28.79C1561.35,878.94,1548.47,851.29,1523.47,842.19" class="st8"/><path d="M1318.33,778.95c-8.33,22.88-33.63,34.68-56.51,26.35c-22.88-8.33-34.68-33.63-26.35-56.51 c8.33-22.88,33.63-34.68,56.51-26.35C1314.86,730.76,1326.66,756.07,1318.33,778.95" class="st9"/><path d="M1250.47,674.98c-7.6,20.89-30.7,31.65-51.58,24.05c-20.89-7.6-31.65-30.69-24.05-51.58 c7.6-20.89,30.7-31.66,51.58-24.05C1247.3,631,1258.07,654.09,1250.47,674.98" class="st10"/><path d="M1224.3,562.6c-7.12,19.57-28.75,29.65-48.32,22.53c-19.56-7.12-29.65-28.75-22.53-48.32 c7.12-19.56,28.75-29.65,48.32-22.53C1221.34,521.4,1231.42,543.03,1224.3,562.6" class="st11"/><path d="M1233.94,448.58c-6.76,18.56-27.29,28.14-45.85,21.38c-18.57-6.76-28.14-27.29-21.38-45.85 c6.76-18.56,27.29-28.14,45.85-21.38C1231.13,409.49,1240.7,430.02,1233.94,448.58" class="st12"/><path d="M1276.69,346.95c-6.3,17.3-25.42,26.22-42.72,19.92c-17.3-6.29-26.22-25.42-19.92-42.72 c6.3-17.3,25.42-26.22,42.72-19.92C1274.07,310.52,1282.99,329.65,1276.69,346.95" class="st13"/><path d="M1418.1,862.71c-8.83,24.26-35.66,36.77-59.92,27.94c-24.26-8.83-36.77-35.66-27.94-59.91 s35.66-36.77,59.92-27.94C1414.42,811.62,1426.93,838.45,1418.1,862.71" class="st14"/><path d="M512.54,358.69h-5.25c-26.57,0-48.31-21.74-48.31-48.32V98.32c0-26.58,21.74-48.32,48.31-48.32h5.25 c26.57,0,48.32,21.74,48.32,48.32v212.05C560.85,336.94,539.11,358.69,512.54,358.69" class="st0"/><path d="M421.92,386.42l-4.24,3.08c-21.5,15.62-51.87,10.81-67.49-10.69L225.54,207.26 c-15.62-21.5-10.81-51.87,10.69-67.48l4.24-3.09c21.5-15.62,51.87-10.81,67.49,10.69l124.64,171.56 C448.23,340.43,443.42,370.8,421.92,386.42" class="st15"/><path d="M364.91,462.13l-1.62,4.99c-8.21,25.27-35.61,39.23-60.88,31.02l-201.68-65.53 C75.46,424.4,61.5,397,69.71,371.73l1.62-4.99c8.21-25.27,35.61-39.23,60.88-31.02l201.67,65.53 C359.17,409.46,373.12,436.86,364.91,462.13" class="st16"/><path d="M363.29,556.88l1.62,4.99c8.21,25.27-5.75,52.67-31.02,60.88l-201.68,65.53 c-25.27,8.21-52.67-5.75-60.88-31.02l-1.62-4.99c-8.21-25.28,5.75-52.67,31.02-60.88l201.68-65.53 C327.68,517.65,355.08,531.61,363.29,556.88" class="st17"/><path d="M417.68,634.49l4.24,3.08c21.5,15.62,26.31,45.99,10.69,67.49L307.96,876.62 c-15.62,21.5-45.99,26.31-67.49,10.69l-4.24-3.08c-21.5-15.62-26.31-45.99-10.69-67.49l124.64-171.56 C365.81,623.68,396.17,618.87,417.68,634.49" class="st18"/><path d="M507.29,665.31h5.25c26.57,0,48.32,21.74,48.32,48.31v212.06c0,26.57-21.74,48.32-48.32,48.32h-5.25 c-26.57,0-48.31-21.74-48.31-48.32V713.63C458.97,687.06,480.72,665.31,507.29,665.31" class="st19"/><path d="M597.91,637.58l4.24-3.08c21.5-15.62,51.87-10.81,67.49,10.69l124.64,171.56 c15.62,21.5,10.81,51.87-10.69,67.48l-4.24,3.08c-21.5,15.62-51.87,10.81-67.49-10.69L587.22,705.06 C571.6,683.56,576.41,653.19,597.91,637.58" class="st20"/><path d="M654.91,561.87l1.62-4.99c8.21-25.27,35.61-39.23,60.88-31.02l201.68,65.53 c25.27,8.21,39.23,35.61,31.02,60.88l-1.62,4.99c-8.21,25.27-35.61,39.23-60.88,31.02l-201.67-65.53 C660.66,614.54,646.7,587.14,654.91,561.87" class="st21"/><path d="M656.53,467.12l-1.62-4.99c-8.21-25.27,5.75-52.67,31.02-60.88l201.68-65.53 c25.27-8.21,52.67,5.75,60.88,31.02l1.62,4.99c8.21,25.28-5.75,52.67-31.02,60.88l-201.68,65.53 C692.14,506.35,664.74,492.39,656.53,467.12" class="st22"/><path d="M602.15,389.51l-4.24-3.08c-21.5-15.62-26.31-45.99-10.69-67.49l124.64-171.56 c15.62-21.5,45.99-26.31,67.49-10.69l4.24,3.08c21.5,15.62,26.31,45.99,10.69,67.48L669.64,378.82 C654.02,400.32,623.65,405.13,602.15,389.51" class="st23"/></g></svg>