<svg xmlns="http://www.w3.org/2000/svg" xmlns:xlink="http://www.w3.org/1999/xlink" id="Laag_1" x="0" y="0" version="1.1" viewBox="0 0 1024 1024" xml:space="preserve" style="enable-background:new 0 0 1024 1024"><style type="text/css">.st0{clip-path:url(#SVGID_2_);fill:none;stroke:#000;stroke-width:30.346;stroke-linecap:round;stroke-linejoin:round;stroke-miterlimit:10}</style><g><defs><rect id="SVGID_1_" width="924" height="882" x="50" y="92"/></defs><clipPath id="SVGID_2_"><use xlink:href="#SVGID_1_" style="overflow:visible"/></clipPath><path d="M548.44,4410.92v-45.99c-0.03-24.1-16.51-43.63-36.82-43.6c-20.31,0.03-36.74,19.58-36.72,43.7l0.31,226.55" class="st0"/><path d="M621.98,4495.49v-91.24c-0.03-24.09-16.52-43.63-36.83-43.6c-20.29,0.03-36.73,19.58-36.71,43.7l0.31,187.22" class="st0"/><path d="M474.91,4423.92c-0.03-24.11-16.52-43.62-36.83-43.61c-20.3,0.03-36.74,19.59-36.71,43.71l0.31,226.55 c-5.17-15.16-9.53-28.68-13.58-38.02c-22.53-51.93-44.84-79.94-68.42-71.61c-29.89,10.57-14.56,54.98,0,98.34 c16.47,49.06,39.34,137.67,70.29,180.16c35.55,48.78,84.56,72.31,141.16,72.24c68.6-0.09,157.66-36.05,157.66-161.86v-110.11 V4495.4c-0.03-21.9-15.01-39.63-33.46-39.61c-18.45,0.03-33.38,17.8-33.35,39.7l0.27,99.74" class="st0"/><path d="M683.07,4780.83c97.69,8.33,167.7-8.15,195.38-16.43l-0.01-0.03c-37.47-66.91-81.67-183.95-41.03-321.06 c47.89-161.56,23.73-283.06,11.3-327.35v0.01c-56.5,11.99-165.09,23.52-302.78-17.3c-154.94-45.93-284.22,16.47-344.54,55.1 c10.78,59.32,17.91,161.94-19.91,289.54c-46.22,155.89,17.25,285.8,55.8,345.64v-0.03c31.09-16.22,71.02-32.68,117.44-42.22" class="st0"/><path d="M631.95,4206.25c-28.91-4.45-59.99-11.5-92.86-22.02c-75.13-24.05-143.75-18.39-200.09-1.99" class="st0"/><path d="M539.1,4234.13c-50.06-16.02-97.24-18.85-139.81-14.12" class="st0"/><path d="M-2148.11,247.54c-16.66-70.81-95.8-66.65-95.8-66.65v-58.32c0,0,87.47-8.33,137.45-4.07 c46.85,3.98,96.03,32.23,116.64,74.87c12.17,25.17-91.64-12.49-99.97,54.16" class="st0"/><path d="M-2227.41,182.11c-13.86,62.8-51.91,112.81-69.57,138.59c-3,4.38,0.92,10.31,5.06,7.62 c27.23-17.75,85.34-57.63,108.22-128.95" class="st0"/><path d="M-2066.87,306.65c0,0-12.49,7.88-51.41,7.88c-31.9,0-48.56-7.88-48.56-7.88v-52.88c0-3.44,2.79-6.23,6.24-6.23 h87.49c3.45,0,6.24,2.79,6.24,6.23V306.65z" class="st0"/><path d="M-2166.84,301.69c-54.16,33.32,9.19,72.66-0.21,81.06c-31.17,27.88,0.23,66.39,0.21,66.32 c0,0-31.38,22.25-13.56,64.08c-40.83,25.01-91.13,62.26-109.9,112.87c-41.12,110.85,10.59,240.16,26.55,281.53 c4.2,10.9,13.36,18.97,25.04,18.97h272.51c12.09,0,21.22-8.65,25.33-20.02c14.58-40.32,92.15-247.2-76.01-450.68 c-33.99-41.12-29.81-82.79-24.99-112.46c5.5-33.87-24.84-43.98-24.84-43.98" class="st0"/><path d="M-472.42,607.43h-641.38c-23.17,0-41.97,18.78-41.97,41.96v46.08h725.31v-46.08 C-430.47,626.21-449.25,607.43-472.42,607.43z" class="st0"/><path d="M-841.07,546.74V191.95c0-26.48,21.47-47.96,47.96-47.96c26.48,0,47.95,21.47,47.95,47.96v354.78" class="st0"/><path d="M-868.98,607.43v-45.47c0-8.41,6.82-15.22,15.22-15.22h121.28c8.41,0,15.22,6.82,15.22,15.22v45.47" class="st0"/><path d="M345.87,542.12c-0.14-3.77-0.21-7.55-0.21-11.35c0-157.6,127.75-285.36,285.34-285.36 c157.62,0,285.36,127.77,285.36,285.36c0,7.89-0.31,15.71-0.94,23.44" class="st0"/><path d="M651.26,815.42c-6.7,0.47-13.44,0.71-20.26,0.71c-95.26,0-179.61-46.67-231.44-118.4" class="st0"/><path d="M579.66,697.72c-71.38-21.93-123.28-88.38-123.28-166.94c0-96.45,78.18-174.63,174.62-174.63 c80.28,0,147.89,54.16,168.32,127.92" class="st0"/><path d="M916.37,669.19c0,81.15-65.79,146.94-146.93,146.94c-81.16,0-146.94-65.79-146.94-146.94 c0-81.15,65.79-146.93,146.94-146.93C850.58,522.26,916.37,588.04,916.37,669.19z" class="st0"/><path d="M859.35,669.19c0,49.66-40.26,89.92-89.93,89.92c-49.66,0-89.91-40.26-89.91-89.92 c0-49.67,40.26-89.91,89.91-89.91C819.09,579.28,859.35,619.53,859.35,669.19z" class="st0"/><circle cx="185.23" cy="393.06" r="78.08" class="st0"/><path d="M424.44,635.12c-65.51,0-138.42,72.91-138.42,138.43c0-65.52-72.91-138.43-138.42-138.43 c65.51,0,138.42-72.91,138.42-138.42C286.02,562.21,358.93,635.12,424.44,635.12z" class="st0"/><circle cx="347.07" cy="244" r="56.79" class="st0"/><path d="M2015.36,677.2h-303.29c-10.97,0-19.85,8.88-19.85,19.84v21.8h342.97v-21.8 C2035.2,686.08,2026.32,677.2,2015.36,677.2z" class="st0"/><path d="M1841.04,638.69V334.78c0-12.53,10.15-22.68,22.67-22.68c12.52,0,22.68,10.15,22.68,22.68v303.91" class="st0"/><path d="M1827.85,677.2v-31.32c0-3.98,3.22-7.19,7.19-7.19h57.35c3.98,0,7.2,3.22,7.2,7.19v31.32" class="st0"/><path d="M2095.35,796.33h66.64c15.52,0,28.68-9.49,30.88-22.26l30.61-178.25" class="st0"/><path d="M2219.54,595.81h-267.72c-12.11,0-21.93-9.82-21.93-21.93c0-12.12,9.82-21.93,21.93-21.93h267.72 c12.11,0,21.93,9.81,21.93,21.93C2241.47,585.99,2231.64,595.81,2219.54,595.81z" class="st0"/><path d="M1949.36,551.2c0-75.28,61.04-136.31,136.32-136.31c75.28,0,136.31,61.04,136.31,136.31" class="st0"/><path d="M1726.5,421.02c-14.49,52.47-55.52,104.93-103.89,104.93c-48.57,0-89.76-52.87-104.09-105.55" class="st0"/><path d="M1792.51,642.02c-20.68-33.92-57.62-54.75-113.46-66.52l-56.45,39.22l-56.46-39.22 c-93.35,19.66-133.89,64.7-133.89,153.79v35.75c0,17.28,14.01,31.28,31.28,31.28h168.54" class="st0"/><path d="M1566.13,575.51c14.07-11.66,14.07-62.54,14.07-62.54" class="st0"/><path d="M1679.05,575.51c-14.06-11.66-14.06-62.54-14.06-62.54" class="st0"/><path d="M1619.34,227.24c103.45,0,147.44,38.58,114.46,189.36c-1.31,5.99-9.8,6.23-11.42,0.31 c-6.07-22.14-14.46-67.02-14.46-67.02c-0.27-5.55-5.05-9.23-10.61-9.28c-36.32-0.4-76.51-23.39-76.51-23.39 c-5.21-1.05-9.88,3.14-8.83,7.92l15.1,40.51l-67.24-35.56c-6.4-3.35-14.52-1.95-19.15,3.3l-17.86,82.81 c-1.56,5.97-10.14,5.82-11.45-0.21c-32.78-150.28,10.59-188.76,113.9-188.76" class="st0"/><path d="M-400.71,1969.83v228.13c0,18.46-14.96,33.42-33.42,33.42h-355.71" class="st0"/><path d="M-796.86,1855.11h313.23c45.79,0,82.93,37.12,82.93,82.93v68.08c0,25.98-21.06,47.04-47.04,47.04h-200.51" class="st0"/><path d="M-588.84,1855.11v-42.58c0-20.23-16.41-36.63-36.64-36.63h-104.97c-20.23,0-36.63,16.4-36.63,36.63v42.58" class="st0"/><path d="M-660.68,2102.66h-34.56c-6.86,0-12.42-5.56-12.42-12.43v-64.26c0-6.86,5.56-12.42,12.42-12.42h34.56 c6.86,0,12.42,5.56,12.42,12.42v64.26C-648.26,2097.09-653.82,2102.66-660.68,2102.66z" class="st0"/><path d="M-1034.69,1582.14c-15.93-67.71-91.61-63.73-91.61-63.73v-55.77c0,0,83.64-7.97,131.43-3.9 c44.81,3.82,91.84,30.82,111.54,71.61c11.62,24.05-87.63-11.95-95.59,51.78" class="st0"/><path d="M-1110.52,1519.58c-13.25,60.04-49.64,107.87-66.53,132.52c-2.87,4.19,0.89,9.86,4.83,7.28 c26.04-16.97,81.6-55.1,103.49-123.29" class="st0"/><path d="M-957.01,1638.67c0,0-11.95,7.54-49.15,7.54c-30.51,0-46.44-7.54-46.44-7.54v-50.57 c0-3.29,2.67-5.96,5.97-5.96h83.65c3.3,0,5.97,2.67,5.97,5.96V1638.67z" class="st0"/><path d="M-1052.6,1633.92c-51.78,31.86,8.79,69.48-0.2,77.51c-29.8,26.66,0.22,63.48,0.2,63.41 c0,0-30,21.28-12.98,61.28c-39.04,23.92-87.13,59.53-105.08,107.92c-39.33,106.01,10.12,229.64,25.38,269.2 c4.02,10.42,12.78,18.14,23.95,18.14h260.57c11.56,0,20.29-8.27,24.22-19.15c13.94-38.55,88.12-236.36-72.67-430.94 c-32.5-39.31-28.52-79.17-23.9-107.53c5.26-32.38-23.76-42.05-23.76-42.05" class="st0"/><path d="M-671.09,1621.8c-35.84,0-75.73,39.89-75.73,75.72c0-35.84-39.89-75.72-75.72-75.72 c35.84,0,75.72-39.89,75.72-75.72C-746.82,1581.92-706.93,1621.8-671.09,1621.8z" class="st0"/><path d="M-534.79,1477.23c-26.07,0-55.07,29.01-55.07,55.07c0-26.06-29.01-55.07-55.08-55.07 c26.07,0,55.08-29.01,55.08-55.08C-589.85,1448.22-560.85,1477.23-534.79,1477.23z" class="st0"/><path d="M-412.03,1680.66c-48.39,0-102.25,53.86-102.25,102.26c0-48.39-53.86-102.26-102.26-102.26 c48.39,0,102.26-53.85,102.26-102.24C-514.27,1626.81-460.42,1680.66-412.03,1680.66z" class="st0"/><path d="M229.52,1805.98l64.96,378.16c4.65,27.1,32.57,47.24,65.5,47.24h146.01h31.78h145.99 c32.93,0,60.84-20.14,65.51-47.24l64.96-378.16" class="st0"/><path d="M814.44,1805.98H229.29c-20.95,0-37.93-16.98-37.93-37.93v-17.2c0-20.95,16.98-37.93,37.93-37.93h585.15 c20.95,0,37.93,16.98,37.93,37.93v17.2C852.37,1789,835.39,1805.98,814.44,1805.98z" class="st0"/><path d="M232.68,1711.35c0-159.72,129.47-289.2,289.2-289.2c159.72,0,289.19,129.48,289.19,289.2" class="st0"/><path d="M1878.38,1968.72l33.54,195.26c2.41,13.99,16.82,24.39,33.82,24.39h75.39h16.41h75.39 c17,0,31.43-10.4,33.82-24.39l33.54-195.26" class="st0"/><path d="M2177.39,1968.72H1881.3c-12.49,0-22.62-10.11-22.62-22.61v-2.83c0-12.48,10.12-22.61,22.62-22.61h296.08 c12.48,0,22.61,10.12,22.61,22.61v2.83C2199.99,1958.61,2189.87,1968.72,2177.39,1968.72z" class="st0"/><path d="M1880.01,1919.87c0-82.47,66.85-149.32,149.33-149.32c82.46,0,149.31,66.85,149.31,149.32" class="st0"/><path d="M1770.26,1926.05l-17.7,12.29c-26.04,18.08-60.58,18.08-86.62,0l-17.69-12.28" class="st0"/><path d="M1830.63,1694.29c0,74.49-54.35,173.74-121.38,173.74c-67.05,0-121.38-99.25-121.38-173.74" class="st0"/><path d="M1568.91,1689.92c74.22,0,120.6-69.5,120.6-69.5s64.94,69.5,166.98,69.5" class="st0"/><path d="M1709.25,1526.78c-83.85-61.62-246.39,34.61-164.33,308.12c30.81,102.72-92.44,143.8-92.44,143.8 s195.14,61.63,215.69-123.24" class="st0"/><path d="M1814.03,1968.79c-31.35-18.45-56.95-52.58-63.7-113.33" class="st0"/><path d="M1709.25,1526.78c77.59-57.03,222.57,21.13,178.75,249.86" class="st0"/><path d="M1512.54,1988.36c-7.01,8.95-12.88,18.76-17.67,29.51c-10.96,24.63-16.18,54.15-16.18,89.34v43.29 c0,20.92,16.95,37.88,37.87,37.88h351.06" class="st0"/><path d="M2068.52,1588.87c-29.7,0-62.75,33.06-62.75,62.76c0-29.7-33.06-62.76-62.75-62.76 c29.7,0,62.75-33.06,62.75-62.76C2005.77,1555.81,2038.82,1588.87,2068.52,1588.87z" class="st0"/><path d="M2159.97,1490.57c-21.6,0-45.64,24.03-45.64,45.64c0-21.61-24.03-45.64-45.63-45.64 c21.6,0,45.63-24.03,45.63-45.64C2114.33,1466.54,2138.38,1490.57,2159.97,1490.57z" class="st0"/><path d="M2261.7,1659.14c-40.11,0-84.74,44.63-84.74,84.73c0-40.1-44.63-84.73-84.73-84.73 c40.1,0,84.73-44.63,84.73-84.73C2176.96,1614.51,2221.59,1659.14,2261.7,1659.14z" class="st0"/><path d="M-2035.12,3345.41h-431.28c-15.59,0-28.22,12.63-28.22,28.21v30.99h487.71v-30.99 C-2006.91,3358.05-2019.54,3345.41-2035.12,3345.41z" class="st0"/><path d="M-2283,3290.65v-489.7c0-17.8,14.43-32.25,32.25-32.25c17.8,0,32.24,14.45,32.24,32.25v489.7" class="st0"/><path d="M-2301.77,3345.41v-44.53c0-5.66,4.58-10.24,10.24-10.24h81.55c5.65,0,10.24,4.58,10.24,10.24v44.53" class="st0"/><path d="M-1921.38,3514.81h94.76c22.06,0,40.77-13.49,43.9-31.67l43.54-253.46" class="st0"/><path d="M-1736.22,3229.67h-397.84c-12.48,0-22.61-10.12-22.61-22.61v-17.16c0-12.48,10.13-22.61,22.61-22.61h397.84 c12.48,0,22.61,10.13,22.61,22.61v17.16C-1713.61,3219.55-1723.73,3229.67-1736.22,3229.67z" class="st0"/><path d="M-2128.97,3166.24c0-107.05,86.79-193.84,193.84-193.84c107.05,0,193.84,86.79,193.84,193.84" class="st0"/><path d="M-1090.25,3158.04c-25.43,0-53.73,28.31-53.73,53.73c0-25.42-28.31-53.73-53.74-53.73 c25.43,0,53.74-28.3,53.74-53.73C-1143.98,3129.74-1115.68,3158.04-1090.25,3158.04z" class="st0"/><path d="M-1017.22,3315.62c-37.47,0-79.17,41.7-79.17,79.16c0-37.47-41.69-79.16-79.16-79.16 c37.47,0,79.16-41.7,79.16-79.17C-1096.39,3273.92-1054.68,3315.62-1017.22,3315.62z" class="st0"/><path d="M-1020.32,3054.02c-19.71,0-41.65,21.93-41.65,41.64c0-19.7-21.93-41.64-41.63-41.64 c19.7,0,41.63-21.93,41.63-41.63C-1061.97,3032.09-1040.03,3054.02-1020.32,3054.02z" class="st0"/><path d="M-745,3440.15c19.86,4.22,40.46,6.43,61.57,6.43c162.88,0,294.92-132.03,294.92-294.92 c0-162.88-132.05-294.92-294.92-294.92c-135.01,0-248.83,90.71-283.83,214.5" class="st0"/><path d="M-1030.66,3368.31c30.09,47.31,82.99,78.69,143.2,78.69c93.67,0,169.6-75.92,169.6-169.59 c0-93.67-75.94-169.59-169.6-169.59c-81.64,0-149.8,57.68-165.96,134.5" class="st0"/><path d="M-793.23,3277.4c0-52.03-42.18-94.21-94.22-94.21c-52.03,0-94.22,42.18-94.22,94.21 c0,52.04,42.19,94.22,94.22,94.22C-835.41,3371.63-793.23,3329.45-793.23,3277.4z" class="st0"/><path d="M-2214.29,4861.35h100.03h31.78h146c32.93,0,60.84-20.13,65.5-47.24l64.96-378.17" class="st0"/><path d="M-1839.15,4342.89h33.46c20.9,0,37.83,16.94,37.83,37.84v17.38c0,20.89-16.93,37.83-37.83,37.83h-585.35 c-20.89,0-37.83-16.94-37.83-37.83v-17.38c0-20.9,16.94-37.84,37.83-37.84h30.64" class="st0"/><path d="M-2387.56,4341.32c0-159.72,129.48-289.2,289.2-289.2s289.2,129.48,289.2,289.2" class="st0"/><path d="M-1865.58,4326.51c-2.59,0-5.06,0.44-7.45,1.06c0.01-0.36,0.05-0.71,0.05-1.06 c0-32.65-26.47-59.12-59.11-59.12c-7.86,0-15.34,1.58-22.21,4.36c0.01-0.23,0.04-0.43,0.04-0.66 c0-63.26-51.28-114.54-114.55-114.54c-55.74,0-102.12,39.83-112.38,92.57c-11.36-7.11-24.73-11.29-39.1-11.29 c-34.79,0-63.89,24.07-71.75,56.43c-6.25-2.97-13.23-4.69-20.64-4.69c-26.52,0-48.03,21.5-48.03,48.03 c0,26.53,21.51,48.04,48.03,48.04c16.78,0,31.53-8.62,40.12-21.65c13.37,13.37,31.85,21.65,52.27,21.65 c28.29,0,52.86-15.92,65.27-39.3c21,24.03,51.79,39.3,86.21,39.3c32.5,0,61.77-13.6,82.61-35.33 c9.17,20.79,29.92,35.33,54.11,35.33c15.63,0,29.8-6.12,40.38-16.02c4.92,9.48,14.71,16.02,26.13,16.02 c16.33,0,29.56-13.24,29.56-29.56C-1836.02,4339.75-1849.26,4326.51-1865.58,4326.51z" class="st0"/><path d="M-2227.71,4652.42c18.97-54.16-10.88-113.56-66.46-130.23c-50.1-15.03-104.74,11.96-123.35,60.85 c-6.95,18.25-8.2,37.16-4.75,54.92c2.26,11.64-2.03,23.86-11.05,31.53c-13.78,11.74-24.59,27.3-30.56,45.9 c-15.96,49.81,9.9,104.99,58.44,124.51c53.82,21.65,114.23-6.16,133.19-60.32c6.01-17.16,7.07-34.83,3.98-51.51 c-2.28-12.27,2.09-24.75,11.53-32.92C-2243.92,4684.05-2233.71,4669.57-2227.71,4652.42z" class="st0"/><path d="M-2401.02,4841.56c0,0,32.51,12.64,52.81,16.02c57.22,9.52,101.51-8.25,120.47-62.41 c6.01-17.16,7.07-34.83,3.97-51.51c-2.28-12.28,2.09-24.75,11.53-32.92c12.83-11.1,22.25-25.86,29.03-42.73 c18.34-45.65-2.03-90.76-53.74-119.99c-12.17-6.87-29.75-17.3-52.74-24.38" class="st0"/><path d="M-886.33,4229.35c15.25-64.85,87.75-61.04,87.75-61.04v-53.41c0,0-80.12-7.64-125.9-3.74 c-42.92,3.67-87.95,29.53-106.84,68.6c-11.14,23.03,83.94-11.45,91.56,49.58" class="st0"/><path d="M-813.7,4169.43c12.69,57.51,47.54,103.32,63.73,126.94c2.75,4.01-0.85,9.44-4.63,6.97 c-24.94-16.25-78.16-52.77-99.13-118.11" class="st0"/><path d="M-960.74,4283.51c0,0,11.44,7.22,47.08,7.22c29.22,0,44.49-7.22,44.49-7.22v-48.43c0-3.16-2.56-5.72-5.72-5.72 h-80.13c-3.16,0-5.71,2.57-5.71,5.72V4283.51z" class="st0"/><path d="M-742.18,4675.17c-3.14,69.75-28.27,132.9-38.23,158.7c-3.85,9.98-12.25,17.37-22.94,17.37h-249.59 c-11.07,0-19.43-7.93-23.19-18.34c-13.34-36.93-84.4-226.4,69.61-412.77c31.12-37.66,27.3-75.85,22.89-103 c-5.04-31.02,22.76-40.29,22.76-40.29" class="st0"/><path d="M-869.17,4278.95c49.59,30.53-8.43,66.55,0.19,74.26c28.55,25.53-0.21,60.8-0.19,60.74 c0,0,28.74,20.37,12.43,58.69c27.07,16.59,58.69,39.04,80.6,67.76" class="st0"/><path d="M-579.72,4497.91c32.66,0,69.03,36.35,69.03,69.02c0-32.66,36.35-69.02,69.02-69.02 c-32.67,0-69.02-36.35-69.02-69.02C-510.7,4461.56-547.06,4497.91-579.72,4497.91z" class="st0"/><path d="M-689.58,4380.52c23.76,0,50.2,26.44,50.2,50.2c0-23.76,26.44-50.2,50.19-50.2 c-23.75,0-50.19-26.43-50.19-50.19C-639.38,4354.09-665.82,4380.52-689.58,4380.52z" class="st0"/><path d="M-782.94,4603c44.11,0,93.19,49.1,93.19,93.2c0-44.1,49.09-93.2,93.2-93.2c-44.11,0-93.2-49.09-93.2-93.2 C-689.74,4553.91-738.82,4603-782.94,4603z" class="st0"/><path d="M2100.82,4658.82h49.72c26.06-0.03,47.17-17.85,47.14-39.81c-0.03-21.94-21.18-39.38-47.24-39.34l-255.87-0.01" class="st0"/><path d="M2009.38,4738.31l98.63,0.01c26.06-0.04,47.17-17.86,47.14-39.82c-0.03-21.94-21.18-39.71-47.24-39.67h-213.34" class="st0"/><path d="M1476.81,4799.97c164.42-0.36,163.71,10.57,344.85,10.57h53.43l145.33-0.01 c23.68-0.03,42.85-16.23,42.83-36.16c-0.03-19.95-19.25-36.09-42.93-36.06h-125.73" class="st0"/><path d="M2086.75,4579.66c26.06-0.04,47.16-18.2,47.13-40.16c-0.02-21.95-21.17-39.38-47.24-39.35h-244.93 c16.4-5.59,31.01-10.31,41.11-14.69c56.16-24.35,86.43-48.47,77.42-73.96c-11.43-32.32-59.44-15.74-106.32,0 c-53.03,17.8-118.1,22.31-194.75,76c-40.2,28.14-141,18.08-184.73,18.08" class="st0"/><path d="M1472.05,4783.11v25.57c0,13.73-11.23,24.96-24.97,24.96c-13.73,0-24.96-11.24-24.96-24.96V4486.8 c0-13.73,11.24-24.96,24.96-24.96c13.74,0,24.97,11.24,24.97,24.96v33.86" class="st0"/><path d="M2231.35,4315.19c0,62.4-51.41,112.98-114.83,112.98c-63.4,0-114.82-50.58-114.82-112.98 c0-112.97,114.82-220.56,114.82-220.56S2231.35,4212.98,2231.35,4315.19z" class="st0"/><path d="M2171.2,4309.17c0,18.01-7.92,34.19-20.46,45.21" class="st0"/><path d="M1930.63,4180.4c0,34.16-28.15,61.85-62.89,61.85c-34.72,0-62.88-27.7-62.88-61.85 c0-61.87,62.88-120.79,62.88-120.79S1930.63,4124.42,1930.63,4180.4z" class="st0"/><path d="M2957.12,1556.62c-16.56-70.37-95.22-66.23-95.22-66.23v-57.95c0,0,86.94-8.28,136.6-4.05 c46.57,3.97,95.44,32.03,115.92,74.42c12.08,25-91.07-12.42-99.35,53.81" class="st0"/><path d="M2878.31,1491.61c-13.77,62.39-51.59,112.11-69.14,137.72c-2.98,4.36,0.92,10.25,5.02,7.58 c27.07-17.64,84.82-57.27,107.57-128.15" class="st0"/><path d="M3037.86,1615.38c0,0-12.42,7.83-51.08,7.83c-31.71,0-48.26-7.83-48.26-7.83v-52.55c0-3.43,2.77-6.2,6.2-6.2 h86.94c3.43,0,6.2,2.77,6.2,6.2V1615.38z" class="st0"/><path d="M2938.51,1610.44c-53.81,33.12,9.13,72.21-0.21,80.56c-30.97,27.72,0.23,65.97,0.21,65.91 c0,0-31.19,22.11-13.48,63.69c-40.58,24.85-90.56,61.86-109.22,112.16c-40.87,110.18,10.53,238.66,26.39,279.78 c4.18,10.83,13.28,18.86,24.88,18.86h270.83c12.01,0,21.08-8.61,25.17-19.91c14.49-40.07,91.58-245.65-75.54-447.87 c-33.77-40.86-29.62-82.29-24.83-111.76c5.46-33.65-24.69-43.71-24.69-43.71" class="st0"/><path d="M3377.49,1870.85L3377.49,1870.85c-17.31,0.73-32.08-12.84-32.8-30.14l-6.66-157.41 c-0.75-17.31,12.83-32.08,30.14-32.81c17.32-0.73,32.08,12.84,32.8,30.15l6.66,157.4 C3408.38,1855.35,3394.81,1870.11,3377.49,1870.85z" class="st0"/><path d="M3213.79,2231.38h233.36c20.68,0,37.08-17.41,35.87-38.04l-34.51-586.9c-1.28-21.69-14.04-41.04-33.46-50.76 l-57.33-28.67l-11.1-99.83c0,0-10.87-5.03-48.16-5.03c-33.09,0-46.13,5.03-46.13,5.03l-11.1,99.83l-57.33,28.67 c-19.43,9.72-32.2,29.07-33.47,50.76l-8.1,137.79" class="st0"/><path d="M3298.63,3311.47h-359.39c-12.99,0-23.52,10.52-23.52,23.51v25.82h406.42v-25.82 C3322.15,3321.99,3311.62,3311.47,3298.63,3311.47z" class="st0"/><path d="M3092.07,3265.83v-408.09c0-14.84,12.03-26.87,26.87-26.87c14.84,0,26.87,12.03,26.87,26.87v408.09" class="st0"/><path d="M3076.43,3311.47v-37.1c0-4.71,3.81-8.54,8.53-8.54h67.96c4.7,0,8.52,3.82,8.52,8.54v37.1" class="st0"/><path d="M3389.55,3452.63h82.83c18.4,0,33.99-11.25,36.59-26.39l36.29-211.22" class="st0"/><path d="M3543.96,3215.02h-323.99c-12.49,0-22.62-10.12-22.62-22.61v-6.76c0-12.49,10.13-22.62,22.62-22.62h323.99 c12.48,0,22.61,10.12,22.61,22.62v6.76C3566.56,3204.9,3556.44,3215.02,3543.96,3215.02z" class="st0"/><path d="M3220.43,3162.16c0-89.21,72.31-161.53,161.53-161.53c89.22,0,161.53,72.32,161.53,161.53" class="st0"/><path d="M2864.79,2990.13c-11.35-48.24-65.26-45.4-65.26-45.4v-39.72c0,0,59.58-5.68,93.63-2.76 c31.91,2.71,65.42,21.94,79.46,51c8.28,17.14-62.43-8.52-68.1,36.88" class="st0"/><path d="M2810.78,2945.57c-9.45,42.77-35.36,76.84-47.4,94.4c-2.04,2.98,0.64,7.02,3.45,5.19 c18.55-12.1,58.12-39.25,73.72-87.83" class="st0"/><path d="M2920.13,3030.41c0,0-8.52,5.36-35.01,5.36c-21.74,0-33.09-5.36-33.09-5.36v-36.02c0-2.35,1.9-4.25,4.25-4.25 h59.59c2.36,0,4.26,1.9,4.26,4.25V3030.41z" class="st0"/><path d="M3021.24,3269.75c-8.5-43.14-28.09-90.57-67.06-137.74c-23.15-28.02-20.31-56.4-17.02-76.61 c3.74-23.07-16.92-29.95-16.92-29.95" class="st0"/><path d="M2852.03,3027.02c-36.88,22.7,6.26,49.49-0.14,55.22c-21.23,18.99,0.16,45.23,0.14,45.17 c0,0-21.37,15.15-9.24,43.65c-27.82,17.04-62.08,42.41-74.86,76.88c-28.01,75.52,7.21,163.58,18.09,191.76 c2.86,7.43,9.1,12.92,17.05,12.92h46.3" class="st0"/><path d="M3388.93,877.59c-20.96-106.01-119.1-186.25-237.08-186.25c-118,0-216.13,80.24-237.09,186.25" class="st0"/><path d="M3084.12,700.47v-68.4c0-9.36,7.58-16.93,16.93-16.93h101.59c9.36,0,16.93,7.58,16.93,16.93v68.4" class="st0"/><path d="M3151.84,107.17L3151.84,107.17c-28.05,0-50.79,22.75-50.79,50.8v457.17h101.58V157.97 C3202.63,129.92,3179.89,107.17,3151.84,107.17z" class="st0"/><path d="M3399.48,916.39H2904.2c-10.52,0-19.05-8.53-19.05-19.05c0-10.52,8.53-19.06,19.05-19.06h495.27 c10.52,0,19.05,8.54,19.05,19.06C3418.52,907.87,3410,916.39,3399.48,916.39z" class="st0"/><path d="M3299.08,827.33c-14.1-30.4-33.55-54.4-54.12-68.27" class="st0"/><path d="M3080.34,4356.6h-225.97c-18.69,0-33.85-15.14-33.85-33.83v-39.59h293.65v39.59 C3114.18,4341.45,3099.04,4356.6,3080.34,4356.6z" class="st0"/><path d="M3330.94,4760.56c0-42.51-34.47-76.98-76.99-76.98c-42.52,0-76.99,34.46-76.99,76.98 c0,42.52,34.47,76.99,76.99,76.99C3296.47,4837.55,3330.94,4803.08,3330.94,4760.56z" class="st0"/><path d="M2853.28,4232.89c0,0-29.71-117.05-95.93-117.84" class="st0"/><path d="M2907.92,4232.89c0,0-4.05-105.58-47.97-154.67" class="st0"/><path d="M3081.44,4232.89c0,0,28.88-117.05,95.93-117.84" class="st0"/><path d="M3026.79,4232.89c0,0,3.24-105.58,47.97-154.67" class="st0"/><path d="M3278.04,4760.56c0-13.29-10.78-24.07-24.09-24.07c-13.29,0-24.07,10.78-24.07,24.07 c0,13.3,10.78,24.08,24.07,24.08C3267.25,4784.65,3278.04,4773.87,3278.04,4760.56z" class="st0"/><path d="M3136.24,4797.02c-16.98-9.48-28.46-27.62-28.46-48.44v-163.71c0-37.52,31.36-67.44,68.82-65.49 c56.35,2.92,136.64,9.9,198.9,26.57c107.27,28.73,191.06,110.8,191.06,221.85c0,20-16.22,36.2-36.2,36.2H3368.7" class="st0"/><path d="M3211.01,4588.53c0-7.96-6.45-14.4-14.4-14.4c-7.96,0-14.41,6.44-14.41,14.4c0,7.95,6.44,14.4,14.41,14.4 C3204.56,4602.93,3211.01,4596.48,3211.01,4588.53z" class="st0"/><path d="M3529.69,4804.12c-13.6-88.11-81.96-154.1-169.4-183.55c-12.21-4.11-21.79-13.71-25.8-25.96l-20.16-61.41" class="st0"/><path d="M3374.05,4275.84c31.87,0,67.34,35.47,67.34,67.34c0-31.86,35.46-67.34,67.34-67.34 c-31.87,0-67.34-35.46-67.34-67.33C3441.39,4240.38,3405.92,4275.84,3374.05,4275.84z" class="st0"/><path d="M3266.88,4161.32c23.17,0,48.97,25.79,48.97,48.97c0-23.17,25.8-48.97,48.98-48.97 c-23.18,0-48.98-25.8-48.98-48.98C3315.85,4135.52,3290.06,4161.32,3266.88,4161.32z" class="st0"/><path d="M3175.81,4378.37c43.03,0,90.92,47.89,90.92,90.92c0-43.03,47.9-90.92,90.93-90.92 c-43.03,0-90.93-47.89-90.93-90.93C3266.72,4330.48,3218.83,4378.37,3175.81,4378.37z" class="st0"/><path d="M2967.36,4397.86v313.37v25.29c0,47.49-38.5,85.98-85.98,85.98c-47.48,0-85.98-38.49-85.98-85.98 c0-47.48,38.5-85.98,85.98-85.98h180.53" class="st0"/></g></svg>