<svg xmlns="http://www.w3.org/2000/svg" xmlns:xlink="http://www.w3.org/1999/xlink" id="Laag_1" x="0" y="0" version="1.1" viewBox="0 0 1024 1024" xml:space="preserve" style="enable-background:new 0 0 1024 1024"><style type="text/css">.st0{clip-path:url(#SVGID_2_)}</style><g><defs><rect id="SVGID_1_" width="924" height="871.59" x="50" y="50"/></defs><clipPath id="SVGID_2_"><use xlink:href="#SVGID_1_" style="overflow:visible"/></clipPath><path d="M504.54,774.82c-12.47,0-30.59-9.99-163.39-143.56c-7.88-7.91-13.62-13.7-16.22-16.22 c-34.46-33.29-50.72-83.5-43.54-134.28c8.93-63.11,54.93-112.87,111.83-121.03c41.77-6.04,82.84,10.44,111.33,43.57 c12.17-14.17,26.77-25.47,43.06-33.22c21.29-10.09,44.89-13.68,68.26-10.34c32.43,4.64,62.01,22.88,83.3,51.35 c15.05,20.11,24.9,44.2,28.52,69.67c7.18,50.78-9.09,100.99-43.54,134.28c-2.64,2.54-8.47,8.42-16.45,16.45L654.28,645 l-70.59,69.34c-0.06,0.06-0.13,0.13-0.19,0.18C520.16,774.82,512.22,774.82,504.54,774.82 M410.07,390.33 c-4.08,0-8.21,0.29-12.35,0.87c-42.99,6.16-77.89,44.82-84.86,94.01c-5.77,40.74,7.01,80.73,34.16,106.98 c2.67,2.59,8.58,8.53,16.65,16.65c77.11,77.54,124.38,122.11,140.77,132.73c6.05-4.07,21.21-15.89,57.06-50l83.69-82.51 c8.2-8.23,14.19-14.25,16.89-16.87c27.16-26.25,39.91-66.24,34.15-106.98c-2.86-20.19-10.65-39.23-22.5-55.09 c-16.19-21.67-38.34-35.49-62.36-38.93c-17.37-2.48-34.26,0.06-50.11,7.59c-17.3,8.23-32.22,21.96-43.17,39.72 c-5.77,9.37-21.24,9.41-27.06,0C472.26,408.03,442.02,390.33,410.07,390.33 M572.55,703.01h0.16H572.55z" class="st0"/><path d="M504.55,921.6c-219.03,0-397.22-178.19-397.22-397.22s178.19-397.22,397.22-397.22 s397.22,178.19,397.22,397.22S723.58,921.6,504.55,921.6 M504.55,158.93c-201.52,0-365.44,163.94-365.44,365.44 s163.92,365.44,365.44,365.44C706.07,889.82,870,725.88,870,524.37S706.07,158.93,504.55,158.93" class="st0"/><path d="M-3767.97,323.99c-3.72,0-7.36-1.3-10.28-3.77c-4.35-3.7-6.4-9.44-5.34-15.06 c9.88-52.59,35.29-98.86,71.56-130.29c4.58-3.96,11.01-5,16.59-2.62c5.58,2.37,9.34,7.67,9.68,13.71 c2.38,41.25,35.94,73.76,76.97,75.17c2.69-0.06,5.39-0.11,8.1-0.13c40.1-2.64,72.29-34.81,74.31-75.42 c0.3-6.05,4.02-11.41,9.58-13.81c5.54-2.42,12.03-1.43,16.62,2.54c35.91,30.78,61.35,76.2,71.61,127.92 c1.13,5.67-0.94,11.52-5.37,15.25c-4.45,3.72-10.58,4.72-15.95,2.65c-52.16-20.21-103.09-27.19-150.21-27.35 c-2.76,0.16-5.53,0.19-8.28,0.13c-59.77,1.49-112.95,15.1-154.15,30.09C-3764.3,323.67-3766.15,323.99-3767.97,323.99 M-3711.03,219.34c-14.93,18.29-26.66,40.22-34.45,64.48c20.89-6.4,43.95-12.09,68.67-16.19 C-3692.15,255.03-3704.1,238.41-3711.03,219.34 M-3532.82,265.66c21.45,3.13,43.39,7.96,65.64,14.84 c-7.82-23.13-19.29-44.09-33.72-61.62C-3507.38,237.17-3518.5,253.22-3532.82,265.66" class="st0"/><path d="M-3605.75,572.87c-31.06,0-61.68-9.53-88.56-27.52c-57.8-38.64-93.71-112.25-93.71-192.08 c0-15.81,1.49-31.97,4.42-48.03c1.02-5.54,4.91-10.14,10.2-12.08c80.37-29.25,203.7-53.5,334.98-2.67 c5.09,1.97,8.8,6.42,9.87,11.76c3.37,17.18,5.08,34.34,5.08,51.02c0,79.84-35.93,153.44-93.73,192.08 C-3544.07,563.34-3574.71,572.87-3605.75,572.87 M-3753.82,319.94c-1.62,11.19-2.43,22.36-2.43,33.34 c0,69.35,30.51,132.83,79.6,165.66c43.92,29.43,97.89,29.43,141.76,0c49.13-32.81,79.64-96.29,79.64-165.66 c0-11.84-1-24.01-2.97-36.26C-3572.59,275.59-3680.33,294.63-3753.82,319.94" class="st0"/><path d="M-3606,292.96c-59.11,0-108.09-46.2-111.49-105.17c-0.22-1.41-0.27-4.02-0.27-6.59 c0-61.55,50.15-111.64,111.76-111.64c61.55,0,111.63,50.08,111.63,111.64c0,2.27-0.06,4.53-0.32,6.66 C-3497.99,246.85-3546.75,292.96-3606,292.96 M-3606,101.34c-44.09,0-79.99,35.83-79.99,79.86c0,1.22-0.05,2.42,0.13,3.62 c2.53,43.31,37.56,76.36,79.86,76.36c42.52,0,77.51-33.21,79.62-75.6c0.03-0.56,0.08-1.11,0.16-1.67c0.14-0.84,0.08-1.78,0.08-2.72 C-3526.15,137.17-3561.98,101.34-3606,101.34" class="st0"/><path d="M-3319.54,864.01h-572.44c-8.77,0-15.89-7.1-15.89-15.89V695.11c0-58.39,36.8-111.32,91.6-131.7l125.28-46.17 c4.81-1.73,10.12-1.11,14.35,1.7c43.89,29.43,97.88,29.43,141.76,0c4.23-2.81,9.56-3.43,14.33-1.7l125.27,46.16 c54.83,20.4,91.63,73.33,91.63,131.72v153.01C-3303.65,856.9-3310.75,864.01-3319.54,864.01 M-3876.09,832.23h540.67V695.11 c0-45.19-28.49-86.13-70.9-101.91l-117.85-43.42c-50.27,30.28-112.88,30.3-163.2,0l-117.9,43.44 c-42.34,15.76-70.83,56.71-70.83,101.9V832.23z" class="st0"/><path d="M-3605.59,688.62c-4,0-8.18-1.51-11.12-4.23l-125.06-115.75c-6.44-5.97-6.82-16.03-0.86-22.47 c5.96-6.45,16.02-6.83,22.45-0.87l114.43,105.92l114.43-105.92c6.42-5.96,16.48-5.58,22.43,0.87c5.96,6.43,5.58,16.49-0.86,22.47 L-3594.8,684.4C-3597.73,687.12-3601.59,688.62-3605.59,688.62" class="st0"/><path d="M1328.34,886.96c-9.45,0-18.62-2.03-27.27-6.07c-15.67-7.28-27.55-20.23-33.46-36.45 c-5.93-16.22-5.16-33.8,2.13-49.46l59.73-128.29l-48.91-104.2c-7.02-14.95-8.06-31.81-2.97-47.46l69.8-214.77 c7.64-23.5,27.55-40.36,51.97-44c24.45-3.5,48.48,6.77,62.57,26.93l126.16,180.66c9.88,14.16,13.68,31.33,10.66,48.33 c-3.02,17.02-12.49,31.83-26.66,41.72c-29.2,20.35-69.61,13.23-90.03-15.98l-51.8-74.17l-21.75,66.92l50.88,108.41 c8.15,17.4,8.17,37.37,0.08,54.77l-72.49,155.71C1376.44,872.28,1353.42,886.96,1328.34,886.96 M1408.89,287.36 c-1.62,0-3.26,0.11-4.89,0.35c-12.36,1.84-22.5,10.42-26.38,22.37l-69.78,214.77c-2.59,7.98-2.06,16.54,1.49,24.15l52.07,110.9 c2,4.26,2,9.18,0.02,13.44l-62.86,135.04c-3.72,7.98-4.1,16.91-1.1,25.17c3.03,8.25,9.07,14.82,17.05,18.53 c16.16,7.56,36.29-0.02,43.68-15.9l72.48-155.73c4.11-8.85,4.1-19.02-0.05-27.87l-53.55-114.08c-1.72-3.66-1.97-7.82-0.73-11.66 l33.56-103.25c1.87-5.74,6.82-9.91,12.77-10.8c6.01-0.94,11.92,1.67,15.36,6.61l70.07,100.32c10.41,14.86,30.93,18.54,45.81,8.14 c7.2-5.04,12.01-12.57,13.54-21.21c1.54-8.66-0.38-17.38-5.4-24.6l-126.19-180.64C1429.65,292.49,1419.61,287.36,1408.89,287.36" class="st0"/><path d="M1634.12,886.96c-8.79,0-15.89-7.12-15.89-15.89v-287c0-15.4-12.52-27.92-27.93-27.92 s-27.93,12.52-27.93,27.92v13.6c0,8.79-7.1,15.89-15.89,15.89c-8.77,0-15.89-7.1-15.89-15.89v-13.6 c0-32.92,26.79-59.69,59.71-59.69c32.92,0,59.71,26.77,59.71,59.69v287C1650.01,879.85,1642.91,886.96,1634.12,886.96" class="st0"/><path d="M1469.07,235.25c-39.36,0-71.36-32.02-71.36-71.37c0-39.34,32-71.36,71.36-71.36 c39.36,0,71.37,32.02,71.37,71.36C1540.45,203.23,1508.43,235.25,1469.07,235.25 M1469.07,124.3c-21.83,0-39.58,17.76-39.58,39.58 c0,21.83,17.75,39.59,39.58,39.59c21.83,0,39.59-17.76,39.59-39.59C1508.67,142.06,1490.9,124.3,1469.07,124.3" class="st0"/><path d="M-1922.34,868.72c-8.77,0-15.89-7.12-15.89-15.89v-82.96c0-13.36-1.24-26.52-3.67-39.06 c-13.3-69.15-60.3-126.2-125.74-152.66c-5.64-2.27-9.47-7.56-9.9-13.63c-0.41-6.05,2.65-11.82,7.91-14.86 c46.71-26.95,75.74-77.11,75.74-130.88c0-83.39-67.8-151.23-151.12-151.23c-11.65,0-23.07,1.32-33.97,3.91 c-69.01,15.91-117.13,76.49-117.13,147.32c0,53.78,29.01,103.93,75.73,130.88c5.26,3.03,8.34,8.8,7.91,14.87 c-0.43,6.05-4.27,11.34-9.91,13.62c-78.62,31.73-129.4,106.98-129.4,191.72v82.96c0,8.77-7.12,15.89-15.89,15.89 c-8.79,0-15.89-7.12-15.89-15.89v-82.96c0-88.18,47.67-167.44,123.57-209c-42.44-34.41-67.89-86.66-67.89-142.08 c0-85.72,58.27-159.05,141.68-178.27c13.19-3.13,27.09-4.73,41.2-4.73c100.85,0,182.9,82.1,182.9,183.01 c0,55.44-25.45,107.66-67.93,142.09c61.98,34,105.79,93.54,119.32,163.89c2.83,14.51,4.26,29.68,4.26,45.09v82.96 C-1906.45,861.6-1913.57,868.72-1922.34,868.72" class="st0"/><path d="M-1753.73,743.68c-8.77,0-15.89-7.12-15.89-15.89v-82.96c0-84.75-50.84-160-129.53-191.7 c-5.62-2.27-9.49-7.56-9.9-13.63c-0.43-6.05,2.64-11.84,7.91-14.87c46.78-26.99,75.85-77.14,75.85-130.88 c0-83.39-67.8-151.23-151.12-151.23c-46.47,0-89.68,20.93-118.53,57.41c-5.43,6.88-15.43,8.07-22.31,2.61 c-6.88-5.43-8.06-15.43-2.61-22.31c34.91-44.16,87.2-69.48,143.44-69.48c100.85,0,182.9,82.1,182.9,183.01 c0,55.39-25.49,107.63-68,142.08c75.95,41.53,123.66,120.82,123.66,209v82.96C-1737.84,736.57-1744.96,743.68-1753.73,743.68" class="st0"/><path d="M-2548.17,743.68c-8.77,0-15.89-7.12-15.89-15.89v-82.96c0-88.18,47.71-167.47,123.66-209 c-42.52-34.45-68-86.69-68-142.08c0-100.91,82.05-183.01,182.9-183.01c56.23,0,108.52,25.33,143.44,69.48 c5.45,6.88,4.29,16.87-2.6,22.31c-6.88,5.47-16.86,4.29-22.31-2.61c-28.87-36.48-72.07-57.41-118.53-57.41 c-83.32,0-151.12,67.85-151.12,151.23c0,53.74,29.08,103.88,75.85,130.88c5.26,3.03,8.34,8.82,7.91,14.87 c-0.43,6.07-4.27,11.36-9.91,13.63c-78.67,31.7-129.51,106.95-129.51,191.7v82.96C-2532.29,736.57-2539.4,743.68-2548.17,743.68" class="st0"/><path d="M-1926.33,743.68c-7.47,0-14.12-5.29-15.59-12.89c-13.28-69.12-60.28-126.17-125.73-152.63 c-5.64-2.29-9.47-7.58-9.9-13.63c-0.41-6.05,2.65-11.84,7.91-14.86c46.71-26.96,75.74-77.11,75.74-130.88 c0-83.39-67.8-151.23-151.12-151.23c-11.65,0-23.07,1.3-33.97,3.89c-8.53,1.97-17.1-3.24-19.13-11.79 c-2.02-8.53,3.26-17.1,11.79-19.13c13.3-3.16,27.2-4.75,41.31-4.75c100.85,0,182.9,82.1,182.9,183.01 c0,55.42-25.45,107.66-67.92,142.09c61.98,33.99,105.79,93.52,119.33,163.89c1.65,8.63-3.99,16.95-12.6,18.61 C-1924.33,743.59-1925.34,743.68-1926.33,743.68" class="st0"/><path d="M-579.64,741.31h-165.71c-1.73,0-3.46-0.29-5.1-0.84c-110.35-37.48-184.48-141.09-184.48-257.8 c0-8.79,7.12-15.89,15.89-15.89h70.59c8.79,0,15.89,7.1,15.89,15.89c0,93.84,76.3,170.2,170.06,170.2 c93.86,0,170.22-76.36,170.22-170.2c0-72.2-45.81-136.69-113.97-160.48c-5.39-1.89-9.36-6.53-10.38-12.15 c-1.05-5.61,1.03-11.35,5.4-15.03c12.43-10.42,19.54-25.68,19.54-41.87c0-3.21-0.33-6.42-0.87-9.53c-0.95-5.56,1.1-11.22,5.4-14.86 c4.29-3.64,10.18-4.75,15.55-2.86c108.59,38.29,181.53,141.49,181.53,256.78c0,116.7-74.14,220.32-184.47,257.8 C-576.18,741.02-577.91,741.31-579.64,741.31 M-742.68,709.53h160.37c96.1-33.78,160.46-124.63,160.46-226.86 c0-94.03-54.93-178.94-138.82-218.04c-1.75,13.11-6.45,25.53-13.71,36.42c68.96,33.37,113.88,103.72,113.88,181.63 c0,111.36-90.61,201.98-202,201.98c-105.95,0-193.08-82.11-201.22-186.09h-38.89C-896.35,594.23-833.75,677.5-742.68,709.53" class="st0"/><path d="M-781.22,498.56h-201.15c-8.79,0-15.89-7.12-15.89-15.89s7.1-15.89,15.89-15.89h201.15 c8.79,0,15.89,7.12,15.89,15.89S-772.43,498.56-781.22,498.56" class="st0"/><path d="M-433.81,824.44H-891.2c-8.79,0-15.89-7.12-15.89-15.89v-16.83c0-45.32,36.88-82.19,82.21-82.19h324.91 c45.25,0,82.05,36.88,82.05,82.19v16.83C-417.92,817.32-425.02,824.44-433.81,824.44 M-875.31,792.66h425.61v-0.94 c0-27.81-22.55-50.42-50.27-50.42h-324.91c-27.81,0-50.43,22.61-50.43,50.42V792.66z" class="st0"/><path d="M-775.54,365.11c-4.21,0-8.23-1.65-11.2-4.62l-73.61-73.2c-3-2.97-4.67-7.01-4.69-11.22 c-0.02-4.21,1.65-8.26,4.62-11.25L-653.37,56.8c6.2-6.21,16.25-6.24,22.47-0.05l73.47,73.06c6.23,6.18,6.26,16.24,0.06,22.47 l-47.95,48.24c-4.73,4.78-12,6.04-18.11,3.15c-7.05-3.37-14.73-5.07-22.8-5.07c-30.08,0-54.55,24.47-54.55,54.55 c0,8.28,1.73,16.06,5.15,23.13c2.96,6.07,1.73,13.33-3.02,18.13l-65.62,66.02c-2.97,2.99-7.01,4.67-11.22,4.69H-775.54z M-826.67,275.97l51.07,50.78l47.08-47.38c-2.69-8.34-4.04-17.11-4.04-26.23c0-47.6,38.72-86.33,86.32-86.33 c8.88,0,17.49,1.3,25.72,3.91l29.41-29.58l-50.94-50.65L-826.67,275.97z" class="st0"/><path d="M-791.06,425.44c-4.05,0-8.1-1.54-11.2-4.62l-118.29-117.67c-3-2.97-4.67-7.01-4.69-11.23 c-0.02-4.21,1.64-8.25,4.62-11.23l37.86-38.07c6.18-6.21,16.24-6.23,22.47-0.06L-742,360.21c3,2.97,4.67,7.01,4.69,11.23 c0.02,4.21-1.64,8.25-4.62,11.23l-37.86,38.07C-782.89,423.88-786.98,425.44-791.06,425.44 M-886.89,291.81l95.76,95.27 l15.46-15.54l-95.76-95.27L-886.89,291.81z" class="st0"/><path d="M-869.57,425.25c-4.21,0-8.23-1.65-11.2-4.62l-39.18-38.96c-3-2.97-4.67-7.01-4.69-11.23 c-0.02-4.21,1.64-8.25,4.62-11.23l38.96-39.17c6.2-6.23,16.25-6.24,22.47-0.06l39.17,38.96c6.23,6.2,6.26,16.25,0.06,22.47 l-38.94,39.17c-2.97,2.99-7.02,4.67-11.22,4.69H-869.57z M-886.28,370.33l16.65,16.56l16.54-16.64l-16.64-16.56L-886.28,370.33z" class="st0"/><path d="M-585.74,139.9c-4.05,0-8.1-1.56-11.2-4.62l-39.17-38.96c-3-2.97-4.67-7.01-4.69-11.23 c-0.02-4.21,1.65-8.25,4.62-11.23l38.96-39.17c6.2-6.23,16.25-6.24,22.47-0.06l39.17,38.96c2.99,2.97,4.67,7.01,4.69,11.22 c0.02,4.21-1.67,8.26-4.62,11.25l-38.96,39.17C-577.59,138.32-581.66,139.9-585.74,139.9 M-602.44,84.98l16.63,16.56l16.56-16.64 l-16.64-16.56L-602.44,84.98z" class="st0"/><path d="M-646.23,339.48c-33.24,0-63.89-19.43-78.06-49.51c-5.47-11.27-8.28-23.71-8.28-36.82 c0-47.62,38.74-86.34,86.34-86.34c12.84,0,25.1,2.75,36.48,8.17c25.5,11.82,43.69,35.46,48.51,63.16 c0.87,5.1,1.33,10.14,1.33,15.01c0,25.6-11.27,49.72-30.9,66.21C-606.42,332.34-626.08,339.48-646.23,339.48 M-646.23,198.59 c-30.09,0-54.56,24.49-54.56,54.56c0,8.28,1.75,16.05,5.16,23.12c9.17,19.43,28.08,31.43,49.4,31.43c12.9,0,25.04-4.4,35.05-12.74 c12.36-10.36,19.49-25.63,19.49-41.8c0-3.22-0.33-6.43-0.87-9.55v-0.02c-3.02-17.45-14.51-32.35-30.71-39.85 C-630.5,200.29-638.15,198.59-646.23,198.59" class="st0"/></g></svg>