<?xml version="1.0" encoding="utf-8"?>
<!-- Generator: Adobe Illustrator 24.3.0, SVG Export Plug-In . SVG Version: 6.00 Build 0)  -->
<svg version="1.1" id="Laag_1" xmlns="http://www.w3.org/2000/svg" xmlns:xlink="http://www.w3.org/1999/xlink" x="0px" y="0px"
	 viewBox="0 0 1024 1024" style="enable-background:new 0 0 1024 1024;" xml:space="preserve">
<style type="text/css">
	.st0{clip-path:url(#SVGID_2_);fill:none;stroke:#000000;stroke-width:25.541;stroke-miterlimit:10;}
	
		.st1{clip-path:url(#SVGID_2_);fill:none;stroke:#000000;stroke-width:30.65;stroke-linecap:round;stroke-miterlimit:10;stroke-dasharray:0,51.083;}
	.st2{fill:none;stroke:#000000;stroke-width:25.541;stroke-miterlimit:10;}
	.st3{clip-path:url(#SVGID_4_);fill:none;stroke:#000000;stroke-width:25.541;stroke-miterlimit:10;}
</style>
<g>
	<defs>
		<rect id="SVGID_1_" x="50" y="50" width="924" height="924"/>
	</defs>
	<clipPath id="SVGID_2_">
		<use xlink:href="#SVGID_1_"  style="overflow:visible;"/>
	</clipPath>
	<path class="st0" d="M-142.59,1691.24c-68.74-53.23-145.33-95.96-227.36-126.58c-4.41-1.67-9.02-2.22-13.53-1.76
		c-5.72,0.58-11.2,2.82-15.76,6.56c-0.3,0.22-0.66,0.45-0.95,0.74l-74.8,65.56c-12.49,10.91-13.7,29.84-2.79,42.33l61.35,70.03
		c5.44,6.12,8.07,14.26,7.36,22.35l-5.77,65.87"/>
	<path class="st0" d="M-647.93,1590.59l-3.57,3.12l-47.96-54.72l172.34-151.05c3.66-3.2,8.82-4.06,13.31-2.19l85.7,35.55
		c8.74,3.62,10.64,15.16,3.52,21.4l-7.89,6.91c-22.42,19.65-24.67,53.77-5.02,76.19l1.5,1.71l-81.75,71.65
		C-551.32,1560.85-609.61,1557-647.93,1590.59z"/>
	<path class="st0" d="M-656.96,1585.19l-33.96,29.76c-3.81,3.34-9.62,2.96-12.96-0.85l-22.56-25.74c-3.34-3.81-2.96-9.61,0.85-12.96
		l33.96-29.76L-656.96,1585.19z"/>
	<path class="st0" d="M-627.62,1579.25L-627.62,1579.25c28.46,36.83,42.05,67.19,37.68,115.31l31.83,6.93c0,0,20.52-38.03,9.36-79.2
		"/>
	<path class="st0" d="M-963.88,1501.92l65.84,77.54l37.93,9.2c8.49,2.04,16.79,4.6,24.97,7.6"/>
	<path class="st0" d="M-700.8,1704.16l98.14,111.42c13.92,15.77,11.49,40.29-5.94,52.87c-15.2,11.05-36.52,7.53-48.91-6.58
		l-66.79-75.79"/>
	<path class="st0" d="M-768.41,1844.66l105.49,119.74c13.11,14.88,35.8,16.31,50.67,3.2c14.88-13.11,16.31-35.8,3.2-50.67
		l-129.53-147.03"/>
	<path class="st0" d="M-780.05,1940.07l86.99,98.74c13.1,14.88,35.8,16.31,50.67,3.2c14.88-13.1,16.31-35.8,3.21-50.67
		l-122.49-139.03"/>
	<path class="st0" d="M-820.73,1893.93l102.94,116.84c12.17,13.81,13.21,34.96,0.92,48.68c-14.69,16.33-39.74,15.84-53.8-0.11
		l-153.48-174.21c-7.97-9.04-21.64-10.21-31.03-2.65c-8.92,7.19-11.02,19.93-4.89,29.6l27.58,43.49
		c16.72,26.37,8.11,61.37-18.95,76.96c-8.86,5.11-20.19,2.1-25.35-6.74l-89.4-153.23c-18.64-31.94-22.04-70.53-9.29-105.24
		l11.86-32.29l-47.35-53.74"/>
	<path class="st0" d="M-305.62-801.71c0,26.56-21.53,48.09-48.09,48.09c-26.56,0-48.1-21.53-48.1-48.09
		c0-26.56,21.53-48.09,48.1-48.09C-327.15-849.8-305.62-828.27-305.62-801.71z"/>
	<path class="st0" d="M-998.63-968.68c0,20.71-16.79,37.5-37.5,37.5c-20.71,0-37.49-16.79-37.49-37.5c0-20.71,16.79-37.5,37.49-37.5
		C-1015.42-1006.17-998.63-989.38-998.63-968.68z"/>
	<path class="st0" d="M-822.9-383.68l28.03-60.15l33.72-19.54c3.32-1.91,6.58-3.9,9.77-5.94"/>
	<path class="st0" d="M-862.3-643.48c-15.26-32.93-41.68-59.41-74.58-74.75l-16.92-7.89l19.73-68.84
		c8.61-30.02-9.53-61.16-39.89-68.49c-9.95-2.4-19.96,3.68-22.42,13.62l-42.54,172.23c-8.87,35.9-1.25,73.88,20.77,103.58
		l20.49,27.63l-33.86,72.64"/>
	<path class="st0" d="M-548.14-742.73l-59.84-81.43c-11.1-15.11-9.98-36.72,4.01-49.21c16.04-14.33,40.5-11.47,52.93,5.44
		l120.37,163.79c12.12,16.49,22.08,34.47,29.63,53.5c10.45,26.35,16.15,54.34,16.82,82.67l0.92,38.99l38.99,53.06"/>
	<path class="st0" d="M-614.78-712.16l-94.5-128.59c-11.74-15.98-8.31-38.45,7.67-50.19c15.98-11.74,38.45-8.31,50.19,7.67
		l116.04,157.89"/>
	<path class="st0" d="M-620.81-720.38l-80.33-109.25v-0.06l-8.94-12.13l-20.43-27.84c-6.07-8.3-15.07-13.15-24.52-14.3
		c-0.06-0.06-0.06,0-0.06,0c-8.81-1.15-17.94,1.02-25.67,6.64c-15.96,11.75-19.35,34.22-7.66,50.19l4.21,5.68l17.94,24.46
		l30.52,41.51l25.29,34.35"/>
	<path class="st0" d="M-674.07-671.53l-92.21-125.47c-10.9-14.84-31.35-20.35-47.37-11.27c-19.09,10.88-23.95,35.45-11.36,52.59
		l137.49,187.09c7.14,9.71,5.36,23.32-4.02,30.88c-8.92,7.19-21.82,6.53-29.96-1.53l-36.61-36.22c-22.2-21.96-58.23-21-79.23,2.11
		c-6.88,7.57-6.35,19.28,1.18,26.21l130.65,120.01c27.23,25.01,64.21,36.57,100.84,31.51l34.07-4.71l42.42,57.71"/>
	<path class="st0" d="M-785.08-946.19c-3.85-30.2-26.49-54.94-56.32-61.45c-4.01-0.83-8.11-1.38-12.3-1.56
		c-39.82-1.71-73.54,29.23-75.25,69.05c-1.64,38.13,26.63,70.7,63.91,74.88"/>
	<path class="st0" d="M-827.95-1047.6c11.11-37.03,46.29-63.28,86.71-61.55c41.89,1.79,75.54,33.01,81.99,72.79v0.06"/>
	<path class="st0" d="M-828.84-1000.28c-0.32-1.21-0.58-2.43-0.83-3.7"/>
	<path class="st0" d="M-556.97-942.85c4.3-8.65,6.89-18.36,7.33-28.65c0.22-5.11-0.13-10.1-0.9-14.97
		c-5.46-32.84-33.32-58.44-67.9-59.93c-10.57-0.45-20.82,1.42-30.03,5.16l0,0.07c-25.33,10.13-43.62,34.45-44.87,63.5
		c-0.07,1.54-0.06,3.08-0.06,4.63"/>
	<path class="st0" d="M-510.09-982.28c36.97,12.52,62.7,48.34,60.92,89.27c-0.83,19.28-7.6,36.84-18.58,51.08"/>
	<path class="st0" d="M-2116.09,553.96l200.75-110.36c10.56-5.8,23.35-5.8,33.91,0l200.74,110.36"/>
	<path class="st0" d="M-1870.24,131.53v235.05c0,12.84,6.99,24.66,18.24,30.84l198.75,109.25"/>
	<path class="st0" d="M-1987.8,521.91l-1.93,194.01c-0.17,15.32-9.89,28.9-24.34,34l-182.56,64.43
		c-23.81,8.41-48.76-9.35-48.61-34.6l1.08-194.5c0.78-140.23,81.88-267.59,208.61-327.62l0.97-0.46
		c24.2-11.46,52.09,6.19,52.09,32.96v87.36"/>
	<path class="st0" d="M-1810.96,522.09l1.93,193.03c0.19,15.26,9.84,28.77,24.22,33.87l70.98,25.03"/>
	<path class="st0" d="M-1816.25,378v-86.8c0-26.65,27.77-44.21,51.87-32.82l1,0.5c125.16,59.22,205.54,184.5,207.6,322.79"/>
	<path class="st0" d="M-1929.07,131.53v235.05c0,12.84-6.99,24.66-18.24,30.84l-198.75,109.25"/>
	<path class="st0" d="M-1434.35,793.38c-24.1,60.4-92.6,89.84-153.01,65.74c-60.4-24.1-89.83-92.6-65.74-153.01
		c24.1-60.4,92.6-89.83,153.01-65.73C-1439.68,664.47-1410.25,732.97-1434.35,793.38z"/>
	<path class="st0" d="M-1563.22,697.52c-0.96,2.4-3.68,3.57-6.08,2.61c-2.4-0.96-3.57-3.68-2.61-6.08c0.96-2.4,3.68-3.57,6.09-2.61
		C-1563.43,692.4-1562.26,695.12-1563.22,697.52z"/>
	<path class="st0" d="M-1593.42,773.23c-0.96,2.4-3.68,3.57-6.08,2.61s-3.57-3.68-2.61-6.08c0.96-2.4,3.68-3.57,6.09-2.61
		C-1593.64,768.1-1592.47,770.83-1593.42,773.23z"/>
	<path class="st0" d="M-1487.51,727.73c-0.96,2.4-3.68,3.57-6.08,2.61c-2.4-0.96-3.57-3.68-2.61-6.08c0.96-2.4,3.68-3.57,6.09-2.61
		C-1487.73,722.6-1486.56,725.33-1487.51,727.73z"/>
	<path class="st0" d="M1451.12-900.31h-6.04c-35,0-63.37-28.37-63.37-63.37v-28.17c0-35,28.37-63.37,63.37-63.37h6.04
		c35,0,63.37,28.37,63.37,63.37v28.17C1514.49-928.69,1486.11-900.31,1451.12-900.31z"/>
	<path class="st0" d="M1528.73-627.99l46.46-14.09c15.43-4.68,25.99-18.91,25.99-35.04v-134.95c0-30.29-18.65-57.45-46.91-68.34
		c-67.73-26.1-142.7-26.37-210.63-0.78l-2.62,0.99c-28.53,10.75-47.42,38.05-47.42,68.53v137.01c0,14.92,9.06,28.35,22.89,33.95
		l49.56,20.04"/>
	<path class="st0" d="M2013.7-900.31h-6.04c-35,0-63.37-28.37-63.37-63.37v-28.17c0-35,28.37-63.37,63.37-63.37h6.04
		c35,0,63.37,28.37,63.37,63.37v28.17C2077.08-928.69,2048.7-900.31,2013.7-900.31z"/>
	<path class="st0" d="M2091.32-627.99l46.46-14.09c15.44-4.68,25.99-18.91,25.99-35.04v-134.95c0-30.29-18.65-57.45-46.9-68.34
		c-67.74-26.1-142.7-26.37-210.63-0.78l-2.62,0.99c-28.53,10.75-47.42,38.05-47.42,68.53v137.01c0,14.92,9.06,28.35,22.89,33.95
		l49.56,20.04"/>
	<path class="st0" d="M3102.84-813.64c-7.27-16.84-20.57-40.48-43.65-48.96c-35.83-13.16-63.46,21.9-107.07,24.31
		c-25.63,1.42-63.52-8.06-111.42-63.32c0,0-26.06,78.37-106.5,79.13"/>
	<path class="st0" d="M2793.71-521.2l-16.32-10.68c-38.35-25.09-61.23-68.03-60.67-113.86l0.11-9.3h-23.62
		c-16.89,0-30.59-13.69-30.59-30.59v-60.22c0-16.92,13.73-30.65,30.59-30.65h5.75v-148.58c0-54.21,44.31-98.01,98.52-97.38
		l13.35-11.43c35.69-30.65,81.16-47.63,128.28-47.95h1.15c109.89,0,199.09,89.07,199.09,199.09v106.25h4.79
		c16.89,0,30.59,13.7,30.59,30.59v60.28c0,16.86-13.67,30.59-30.59,30.59h-23.63l-0.04,14.38c-0.13,46.2-24.03,89.07-63.26,113.47
		l-2.65,1.65"/>
	<path class="st0" d="M2942.09-537.62l3.23,42.19l10.55,136.53c0.52,6.62,8.12,10.08,13.43,6.11c22.3-16.6,49.22-25.41,76.76-25.41
		c5.48,0,10.95,0.35,16.43,1.04l1.78,0.23c6.57,0.87,11.47-5.82,8.76-11.81l-60.57-134.22l-65.52-145.29
		c-7.26-16.14-29.91-16.66-37.92-0.86l-75.61,148.97l-47.2,92.96c-3.17,6.17,2.13,13.31,8.99,12.05c10.49-1.9,21.04-2.82,31.58-2.82
		c29.16,0,58.03,7.15,84.02,21.09l12.68,6.8"/>
	<path class="st0" d="M3064.61-746.05c0,16.66-18.61,30.17-41.57,30.17c-22.96,0-41.58-13.51-41.58-30.17"/>
	<path class="st0" d="M2869.65-746.05c0,16.66-18.61,30.17-41.57,30.17c-22.96,0-41.57-13.51-41.57-30.17"/>
	<path class="st0" d="M-1959.94,2010.35c-6.42,12.23-10.14,26.05-10.4,40.81c-0.16,8.74,0.93,17.26,3.08,25.29
		c10.28,38.88,45.36,67.84,87.58,68.6c42.16,0.75,78.25-26.95,89.91-65.44c2.44-7.96,3.83-16.43,3.98-25.17
		c0.26-14.76-2.96-28.71-8.94-41.15"/>
	<path class="st0" d="M-1967.26,2076.46c-8.07,2.1-16.71,2.75-25.75,1.61c-30.43-3.82-54.95-28.83-58.2-59.33
		c-3.72-34.97,19.2-65.03,50.8-72.86"/>
	<path class="st0" d="M-1789.77,2079.62c5.74,1.71,11.86,2.69,18.12,2.8c37.19,0.66,67.86-28.93,68.52-66.13
		c0.56-31.18-20.18-57.85-48.87-65.99"/>
	<path class="st0" d="M-1699.47,1609.79c-7.27-16.84-20.57-40.48-43.65-48.96c-35.83-13.16-63.47,21.9-107.07,24.31
		c-25.63,1.42-63.52-8.06-111.42-63.32c0,0-26.06,78.37-106.51,79.13"/>
	<path class="st0" d="M-2008.6,1902.23l-16.32-10.68c-38.35-25.09-61.24-68.03-60.67-113.86l0.11-9.3h-23.63
		c-16.89,0-30.58-13.7-30.58-30.59v-60.21c0-16.92,13.73-30.65,30.58-30.65h5.75v-148.59c0-54.21,44.31-98.02,98.53-97.38
		l13.35-11.43c35.69-30.65,81.16-47.64,128.28-47.95h1.15c109.89,0,199.1,89.07,199.1,199.09v106.25h4.79
		c16.89,0,30.59,13.69,30.59,30.59v60.28c0,16.86-13.66,30.59-30.59,30.59h-23.62l-0.04,14.38c-0.14,46.2-24.04,89.07-63.26,113.47
		l-2.65,1.65"/>
	<path class="st0" d="M-1737.7,1677.38c0,16.66-18.62,30.17-41.57,30.17s-41.57-13.51-41.57-30.17"/>
	<path class="st0" d="M-1932.66,1677.38c0,16.66-18.61,30.17-41.57,30.17c-22.96,0-41.57-13.51-41.57-30.17"/>
	<path class="st0" d="M1886,368.21c-7.27-16.84-20.57-40.48-43.65-48.96c-35.83-13.16-63.47,21.89-107.07,24.31
		c-25.63,1.42-63.52-8.06-111.42-63.32c0,0-26.06,78.37-106.51,79.13"/>
	<path class="st0" d="M1567.65,697.72v48.45c0,26.77-17.4,50.43-42.95,58.41l-74.87,23.39"/>
	<path class="st0" d="M1958.89,827.96l-74.87-23.39c-25.55-7.98-42.95-31.64-42.95-58.41v-48.45"/>
	<path class="st0" d="M1631.8,695.59l-73.62-47.62c-36.84-23.83-58.87-64.91-58.34-108.79l0.15-12.4h-23.61
		c-16.9,0-30.6-13.7-30.6-30.6v-60.22c0-16.9,13.7-30.6,30.6-30.6h5.73v-148.6c0-54.23,44.28-98.01,98.5-97.4l13.33-11.42
		c35.75-30.65,81.21-47.62,128.31-47.91c110.41-0.68,200.28,88.63,200.28,199.04v106.3h4.76c16.9,0,30.6,13.7,30.6,30.6v60.22
		c0,16.9-13.7,30.6-30.6,30.6h-23.61l-0.05,17.27c-0.14,44.35-23.26,85.44-61.09,108.57l-72.67,44.42
		c-10.19,6.23-21.91,9.48-33.85,9.37l-70.09-0.6C1653.82,705.73,1641.98,702.18,1631.8,695.59z"/>
	<path class="st1" d="M1617.44,764.34c-27.14,45.2-20.06,101.64,14.14,138.83"/>
	<path class="st1" d="M1784.62,764.41c26.72,45.45,19.11,101.82-15.44,138.69"/>
	<path class="st0" d="M1669.06,910.33l-0.11-41.41c-12.13-9.58-19.99-24.39-19.99-41.06c0-16.92,8.05-31.93,20.5-41.51v-51.72"/>
	<path class="st0" d="M1731.72,734.64v50.96c13.09,9.51,21.58,24.9,21.58,42.27c0,16.98-8.11,32.05-20.62,41.57v40.8"/>
	<path class="st0" d="M1839.58,426c0,16.66-18.61,30.17-41.57,30.17c-22.96,0-41.57-13.51-41.57-30.17"/>
	<path class="st0" d="M1644.62,426c0,16.66-18.61,30.17-41.57,30.17c-22.96,0-41.57-13.51-41.57-30.17"/>
	<path class="st0" d="M646.29,1951.47l59.72,98.58c11.88,25.2,6.66,55.14-13.03,74.84c-25.78,25.79-67.59,25.79-93.37,0
		c-19.7-19.7-24.91-49.64-13.04-74.84L646.29,1951.47z"/>
	<path class="st0" d="M425.76,1937.54l43.13,71.19c8.58,18.2,4.81,39.83-9.41,54.05c-18.62,18.62-48.82,18.62-67.44,0
		c-14.23-14.23-17.99-35.85-9.41-54.05L425.76,1937.54z"/>
	<path class="st0" d="M404.53,1861.88l-25.55-4.42c-35.49-6.13-61.42-36.92-61.42-72.94c0-21.26,10.15-41.24,27.32-53.78l0.14-0.1
		c50.42-36.83,87.47-89.07,105.55-148.83l4.19-13.83c9.77-32.28,13.78-66.03,11.85-99.7l-0.74-12.81
		c-2.41-42.06,31.05-77.49,73.17-77.49h1.3c42.23,0,75.72,35.58,73.16,77.73l-0.63,10.46c-2.06,33.89,1.91,67.87,11.71,100.37
		l4.54,15.07c18.05,59.88,55.14,112.23,105.64,149.11l0,0c17.17,12.54,27.32,32.52,27.32,53.78v2.2c0,35.04-24.56,65.27-58.85,72.45
		l-19.06,3.99"/>
	<path class="st0" d="M677.45,1807.96l-24.46,5.55c-20.2,4.59-36.15,20.08-41.32,40.14c-6.3,24.43-28.34,41.51-53.57,41.51h-36.98
		c-25.3,0-47.38-17.17-53.61-41.7l-0.02-0.07c-5.21-20.5-21.64-36.23-42.35-40.54l-23.53-4.89"/>
	<path class="st0" d="M1474.8,1717.74c-1.24,25.87,2.12,51.44,9.4,75.67c5.8,19.11,14.07,37.48,24.68,54.34
		c13.52,21.92,30.89,41.56,51.53,57.82"/>
	<path class="st0" d="M1694.22,1954.44c26.27,0.81,52.17-3,76.68-11.07c18.95-6.02,37.14-14.68,53.96-25.64
		c21.22-13.85,40.26-31.36,55.99-52.11"/>
	<path class="st0" d="M1841.15,1550.33c19.65,15.4,36.36,33.91,49.65,54.44c10.59,16.28,19.04,33.9,25.15,52.39
		c7.84,23.61,11.82,48.6,11.49,73.97"/>
	<path class="st0" d="M1525.61,1584.88c16.03-19.58,35.15-36.16,56.3-49.14c16.41-10.29,34.22-18.36,52.79-24.02
		c23.37-7.18,48.01-10.64,72.98-9.89"/>
	<path class="st0" d="M1734.8,1542.68c14.9-31.31,19.97-66.57,14.23-101.04l-3.29-20.23c-0.26-1.38-0.33-2.83-0.33-4.22
		c0-11.4,7.64-21.55,18.98-24.52c38.69-10.09,79.62,4.68,103.01,37.11l0.26,0.39c7.78,10.81,5.93,25.71-4.22,34.27l-14.1,11.93
		c-27.29,23-46.47,53.85-55.23,88.18"/>
	<path class="st0" d="M1609.64,1886.45c-8.9,33.68-28.01,64-54.9,86.74l-14.11,11.86c-10.15,8.57-11.99,23.53-4.22,34.27l0.33,0.46
		c23.4,32.43,64.33,47.12,103.02,37.1c11.33-2.97,18.98-13.18,18.98-24.52c0-1.38-0.07-2.84-0.33-4.22l-3.36-20.3
		c-5.6-34.14-0.72-69.01,13.84-100.05"/>
	<path class="st0" d="M1518.75,1691.43c-31.04-14.43-65.78-19.31-99.79-13.64l-20.3,3.3c-1.38,0.26-2.83,0.33-4.22,0.33
		c-11.33,0-21.55-7.65-24.52-18.98c-10.02-38.69,4.68-79.61,37.11-103.01l0.46-0.26c10.74-7.78,25.71-5.93,34.28,4.22l11.86,14.1
		c22.74,26.89,53.12,46.01,86.87,54.84"/>
	<path class="st0" d="M1883.88,1757.41c31.37,14.96,66.7,20.04,101.3,14.37l20.23-3.36c1.38-0.26,2.83-0.33,4.22-0.33
		c11.4,0,21.55,7.64,24.52,18.98c10.08,38.69-4.68,79.62-37.11,103.01l-0.4,0.33c-10.81,7.78-25.7,5.93-34.27-4.22l-11.93-14.1
		c-23-27.29-53.78-46.47-88.05-55.23"/>
	<path class="st0" d="M1581.83,1535.79c-10.94-18.45-25.66-34.59-43.34-47.32l-15.37-10.99c-8.7-6.19-11.92-17.33-8.4-27
		c0.47-1.3,1.11-2.62,1.81-3.84c18.65-31.7,54.82-48.69,91.11-42.85l0.46,0.08c12.12,1.96,20.57,12.88,19.58,25.03l-1.41,16.9
		c-1.9,22.52,1.06,44.92,8.55,65.88"/>
	<path class="st0" d="M1824.78,1917.78c10.65,16.79,24.48,31.55,40.9,43.25l15.37,10.99c8.6,6.24,11.85,17.31,8.35,26.91
		c-0.5,1.37-1.04,2.64-1.83,3.91c-18.58,31.73-54.78,48.79-91.04,42.87l-0.56-0.04c-12.02-2-20.57-12.88-19.48-25.07l1.41-16.89
		c1.75-20.53-0.58-41.08-6.78-60.42"/>
	<path class="st0" d="M1484.24,1793.51c-19.59,6.44-40.33,8.86-61.17,7.08l-16.87-1.48c-12.15-0.99-23.09,7.54-25.03,19.58
		l-0.11,0.53c-5.85,36.28,11.14,72.46,42.87,91.04c1.26,0.79,2.54,1.34,3.91,1.83c9.67,3.52,20.74,0.27,26.9-8.35l10.99-15.37
		c11.74-16.32,26.33-30.13,43.09-40.71"/>
	<path class="st0" d="M1890.77,1604.67c18.62-10.96,34.86-25.72,47.57-43.57l10.96-15.3c6.26-8.67,17.4-11.89,27.07-8.37
		c1.3,0.47,2.55,1.09,3.77,1.78c31.7,18.65,48.77,54.85,42.85,91.11l-0.02,0.48c-2.03,12.09-12.88,20.57-25.09,19.56l-16.9-1.41
		c-22.2-1.87-44.34,1.02-65.04,8.28"/>
	<path class="st0" d="M1695.38,1644.7c-8.15,22.39-32.9,33.93-55.29,25.78c-22.39-8.15-33.93-32.91-25.78-55.29
		c8.15-22.39,32.9-33.93,55.29-25.78C1691.98,1597.56,1703.52,1622.31,1695.38,1644.7z"/>
	<path class="st0" d="M1839.71,1697.23c-8.15,22.39-32.91,33.93-55.29,25.78c-22.39-8.15-33.93-32.91-25.78-55.29
		c8.15-22.39,32.9-33.93,55.29-25.78C1836.32,1650.09,1847.86,1674.84,1839.71,1697.23z"/>
	<path class="st0" d="M1645.47,1781.81c-8.15,22.39-32.91,33.93-55.29,25.78c-22.39-8.15-33.93-32.9-25.78-55.29
		c8.15-22.39,32.9-33.93,55.29-25.78C1642.08,1734.67,1653.62,1759.43,1645.47,1781.81z"/>
	<path class="st0" d="M1789.81,1834.35c-8.15,22.39-32.9,33.93-55.29,25.78c-22.39-8.15-33.93-32.91-25.78-55.29
		c8.15-22.39,32.9-33.93,55.29-25.78C1786.41,1787.21,1797.95,1811.96,1789.81,1834.35z"/>
	<path class="st0" d="M-1924.03-1012.22h-180.07v556.93c0,49.73,40.31,90.03,90.03,90.03c49.72,0,90.03-40.31,90.03-90.03V-1012.22z
		"/>
	<path class="st0" d="M-1798.78-675.75c12.26,12.26,12.26,32.14,0,44.4c-12.26,12.26-32.14,12.26-44.4,0"/>
	<path class="st0" d="M-1659.48-631.35c-18.54,18.54-48.6,18.54-67.13,0c-18.54-18.54-18.54-48.59,0-67.13"/>
	<path class="st0" d="M-1703.87-517.26c-12.26-12.26-12.26-32.14,0-44.4c12.26-12.26,32.14-12.26,44.4,0"/>
	<path class="st0" d="M-1843.18-561.66c18.54-18.54,48.59-18.54,67.13,0c18.54,18.54,18.54,48.59,0,67.13"/>
	<path class="st0" d="M-1877.71-667.51c12.35-21.94,29.91-39.72,50.47-52.31c-7.04-11.7-16.38-21.99-27.67-30.09l-9.89-7.06
		c-5.59-3.98-7.66-11.15-5.4-17.37c0.3-0.84,0.72-1.68,1.16-2.47c11.99-20.39,35.25-31.31,58.58-27.55l0.3,0.06
		c7.79,1.26,13.22,8.28,12.59,16.09l-0.91,10.87c-1.22,14.32,0.63,28.6,5.38,41.95c22.79-6.73,48.37-8.15,72.66-2.98
		c5.01-16.78,6.16-34.55,3.28-52.04l-2.23-13.79c-0.53-3.03-0.18-6.01,0.82-8.74c1.87-5.15,6.18-9.31,11.87-10.81
		c26.29-6.83,54.12,3.2,70.02,25.22l0.19,0.34c5.33,7.3,4.05,17.45-2.86,23.29l-9.56,8.08c-13.93,11.7-24.78,26.51-31.8,43.03
		c21.77,11.81,39.6,28.66,52.51,48.49c11.91-7.02,22.24-16.5,30.38-27.88l7.05-9.84c4.03-5.58,11.19-7.65,17.41-5.38
		c0.84,0.3,1.64,0.7,2.42,1.14c20.39,11.99,31.36,35.27,27.55,58.59l-0.01,0.31c-1.31,7.78-8.28,13.23-16.14,12.57l-10.86-0.91
		c-14.17-1.22-28.25,0.65-41.48,5.24c7.67,22.97,9.74,47.9,5.11,72.75c16.22,4.54,33.36,5.52,50.18,2.76l13.76-2.3
		c3.03-0.53,6-0.18,8.74,0.82c5.15,1.87,9.31,6.18,10.81,11.87c6.83,26.29-3.2,54.12-25.22,70.02l-0.3,0.26
		c-7.33,5.27-17.48,3.99-23.32-2.92l-8.08-9.56c-11.14-13.15-24.95-23.58-40.36-30.61c-11.63,22.73-29.5,41.92-49.69,55.38
		c6.76,10.45,15.44,19.65,25.71,26.96l9.88,7.07c5.53,4.01,7.62,11.13,5.37,17.3c-0.32,0.88-0.67,1.7-1.18,2.51
		c-11.95,20.41-35.23,31.38-58.54,27.57l-0.36-0.03c-7.73-1.29-13.23-8.28-12.53-16.12l0.91-10.86c1.08-12.8-0.29-25.64-4.03-37.73
		c-23.47,7.75-48.94,9.57-74.25,4.45c-3.69,15.05-4.36,30.89-1.77,46.44l2.29,13.76c0.48,3.01,0.18,6-0.8,8.7
		c-1.89,5.2-6.24,9.34-11.94,10.84c-26.29,6.82-54.12-3.2-70.02-25.22l-0.21-0.29c-5.32-7.35-4.04-17.5,2.85-23.29l9.58-8.13
		c12.36-10.43,22.32-23.2,29.3-37.47c-22.99-12.36-41.59-30.27-54.74-51.46"/>
	<path class="st0" d="M-2141.46,2887.19c-1.16,24.17,1.98,48.07,8.78,70.72c5.42,17.86,13.14,35.03,23.07,50.79
		c12.63,20.48,28.86,38.84,48.16,54.04"/>
	<path class="st0" d="M-1799.08,2730.73c18.36,14.4,33.99,31.69,46.4,50.88c9.9,15.21,17.8,31.69,23.5,48.96
		c7.32,22.06,11.04,45.42,10.73,69.13"/>
	<path class="st0" d="M-2093.97,2763.02c14.98-18.3,32.85-33.8,52.61-45.93c15.34-9.62,31.98-17.15,49.34-22.45
		c21.84-6.71,44.86-9.94,68.21-9.24"/>
	<path class="st0" d="M-1898.47,2723.58c13.92-29.26,18.66-62.21,13.3-94.43l-3.08-18.91c-0.25-1.29-0.31-2.65-0.31-3.94
		c0-10.66,7.15-20.14,17.74-22.91c36.16-9.42,74.41,4.37,96.27,34.68l0.24,0.37c7.27,10.1,5.55,24.02-3.94,32.03l-13.18,11.15
		c-25.5,21.5-43.42,50.32-51.62,82.42"/>
	<path class="st0" d="M-2015.44,3044.86c-8.32,31.48-26.18,59.81-51.31,81.06l-13.19,11.09c-9.48,8.01-11.21,21.99-3.94,32.03
		l0.31,0.43c21.87,30.3,60.12,44.04,96.27,34.68c10.59-2.77,17.74-12.32,17.74-22.91c0-1.29-0.06-2.65-0.31-3.94l-3.14-18.97
		c-5.24-31.91-0.68-64.49,12.93-93.5"/>
	<path class="st0" d="M-2100.38,2862.6c-29.01-13.49-61.47-18.04-93.25-12.75l-18.97,3.08c-1.29,0.25-2.65,0.31-3.94,0.31
		c-10.59,0-20.14-7.15-22.91-17.74c-9.36-36.16,4.37-74.41,34.68-96.28l0.43-0.24c10.04-7.27,24.02-5.55,32.03,3.94l11.09,13.18
		c21.25,25.13,49.65,42.99,81.18,51.25"/>
	<path class="st0" d="M-2041.44,2717.14c-10.22-17.24-23.98-32.33-40.5-44.22l-14.36-10.27c-8.13-5.78-11.14-16.2-7.85-25.24
		c0.44-1.21,1.04-2.44,1.69-3.58c17.43-29.63,51.24-45.51,85.15-40.04l0.43,0.08c11.33,1.83,19.22,12.04,18.3,23.39l-1.32,15.79
		c-1.78,21.05,0.99,41.99,7.99,61.57"/>
	<path class="st0" d="M-2132.63,2958c-18.31,6.02-37.69,8.28-57.17,6.61l-15.77-1.38c-11.35-0.92-21.58,7.04-23.39,18.3l-0.1,0.5
		c-5.47,33.91,10.41,67.72,40.07,85.08c1.18,0.74,2.37,1.24,3.65,1.71c9.04,3.29,19.38,0.26,25.14-7.81l10.27-14.36
		c10.98-15.25,24.61-28.16,40.28-38.04"/>
	<path class="st0" d="M-1752.71,2781.52c17.4-10.24,32.58-24.04,44.46-40.72l10.24-14.3c5.85-8.11,16.26-11.11,25.3-7.82
		c1.22,0.44,2.38,1.02,3.52,1.67c29.63,17.43,45.58,51.26,40.04,85.15l-0.01,0.45c-1.9,11.3-12.04,19.22-23.46,18.27l-15.79-1.32
		c-20.75-1.74-41.44,0.96-60.79,7.74"/>
	<path class="st0" d="M-1935.32,2818.93c-7.61,20.92-30.75,31.71-51.67,24.1c-20.92-7.62-31.71-30.75-24.1-51.67
		c7.62-20.92,30.75-31.71,51.67-24.1C-1938.49,2774.87-1927.7,2798-1935.32,2818.93z"/>
	<path class="st0" d="M-1800.43,2868.02c-7.61,20.92-30.75,31.71-51.67,24.1c-20.92-7.62-31.71-30.75-24.1-51.67
		c7.62-20.92,30.75-31.71,51.67-24.09C-1803.6,2823.97-1792.81,2847.1-1800.43,2868.02z"/>
	<path class="st0" d="M-1981.96,2947.07c-7.61,20.92-30.75,31.71-51.67,24.1c-20.92-7.62-31.71-30.75-24.09-51.67
		c7.62-20.92,30.75-31.71,51.67-24.09C-1985.13,2903.01-1974.34,2926.15-1981.96,2947.07z"/>
	<path class="st0" d="M-1847.07,2996.17c-7.61,20.92-30.75,31.71-51.67,24.1c-20.92-7.62-31.71-30.75-24.09-51.68
		c7.62-20.92,30.75-31.71,51.67-24.09C-1850.24,2952.11-1839.45,2975.24-1847.07,2996.17z"/>
	<path class="st0" d="M-1760.29,2952.33l-178.24,283.33c-12.9,20.51,1.84,47.2,26.07,47.2h356.47c24.23,0,38.97-26.69,26.07-47.2
		l-178.24-283.33C-1720.23,2933.13-1748.21,2933.13-1760.29,2952.33z"/>
	<path class="st0" d="M521.27,469.71h-4.67c-27.06,0-49-21.94-49-49.01v-21.78c0-27.07,21.94-49.01,49-49.01h4.67
		c27.07,0,49.01,21.94,49.01,49.01v21.78C570.28,447.77,548.34,469.71,521.27,469.71z"/>
</g>
<line class="st2" x1="518.4" y1="850.19" x2="518.4" y2="663.31"/>
<line class="st2" x1="456.11" y1="538.72" x2="456.11" y2="850.74"/>
<line class="st2" x1="518.4" y1="850.19" x2="518.4" y2="663.31"/>
<line class="st2" x1="580.69" y1="538.72" x2="580.69" y2="850.19"/>
<g>
	<defs>
		<rect id="SVGID_3_" x="50" y="50" width="924" height="924"/>
	</defs>
	<clipPath id="SVGID_4_">
		<use xlink:href="#SVGID_3_"  style="overflow:visible;"/>
	</clipPath>
	<path class="st3" d="M581.29,680.3l35.93-10.9c11.94-3.62,20.1-14.62,20.1-27.1V537.95c0-23.42-14.42-44.43-36.27-52.85
		c-52.38-20.18-110.35-20.39-162.88-0.6l-2.03,0.76c-22.06,8.31-36.66,29.42-36.66,52.99v105.95c0,11.54,7,21.93,17.7,26.25
		l38.32,15.5"/>
	<path class="st3" d="M785.92,433.94v425.5c0,17.3-14.03,31.32-31.32,31.32H288.37c-17.3,0-31.32-14.02-31.32-31.32v-425.5"/>
	<polygon class="st3" points="868.71,437.6 519.85,185.49 174.49,437.43 130.19,376.7 519.64,92.6 912.74,376.68 	"/>
	<path class="st3" d="M2870.34,589.38c13.41-13.47,35.21-13.52,48.68-0.11c13.47,13.41,13.52,35.2,0.11,48.68"/>
	<path class="st3" d="M2783.94,502.97c13.41-13.47,35.2-13.52,48.68-0.11c13.47,13.41,13.52,35.2,0.11,48.68"/>
	<path class="st3" d="M2959.06,507.05c13.41-13.47,35.21-13.52,48.68-0.11c13.47,13.41,13.52,35.2,0.11,48.68"/>
	<path class="st3" d="M2872.65,420.64c13.41-13.47,35.21-13.52,48.68-0.11c13.47,13.41,13.52,35.21,0.11,48.68"/>
	<path class="st3" d="M2767.69,443.46c-16.7-8.38-31.48-20.34-43.2-35.21l-8.54-10.88c-6.13-7.86-17.31-9.56-25.56-4.08l-0.32,0.22
		c-24.9,16.73-37.02,46.95-30.5,76.16c1.46,6.33,5.83,11.28,11.49,13.57c2.93,1.17,6.24,1.63,9.55,1.23l15.27-2.02
		c18.02-2.31,36.14-0.78,53.25,4.34c-7.32,27.43-6.98,55.6-0.22,81.78c-0.22,0.06-0.43,0.17-0.65,0.17
		c-13.47,3.74-27.6,4.77-41.7,3.04l-11.93-1.42c-8.57-1.02-16.55,4.74-18.21,13.26l-0.1,0.38c-5,25.51,6.15,51.6,28.15,65.51
		c0.87,0.59,1.75,1.02,2.72,1.39c6.74,2.71,14.69,0.69,19.25-5.25l8.15-10.63c8.37-10.74,30.73-26.74,30.73-26.74
		c13.68,23.84,33.46,44.28,58.29,58.77c-8.22,15.45-19.66,29.15-33.66,40.15l-10.88,8.6c-7.81,6.13-9.62,17.25-4.02,25.55l0.22,0.32
		c16.67,24.85,46.95,36.97,76.16,30.45c6.33-1.46,11.28-5.83,13.57-11.49c1.17-2.93,1.63-6.24,1.17-9.54l-1.97-15.27
		c-2.3-17.21-0.92-34.62,3.71-51.08c27.69,6.61,55.81,5.57,81.92-2.06c3.68,13.46,4.72,27.65,3.04,41.7l-1.43,11.93
		c-1.07,8.62,4.68,16.49,13.15,18.21l0.43,0.05c25.51,5.11,51.59-6.1,65.51-28.1c0.59-0.87,1.02-1.79,1.39-2.72
		c2.71-6.74,0.7-14.63-5.25-19.3l-10.63-8.15c-11.01-8.42-20.2-18.91-27.28-30.67"/>
	<path class="st3" d="M2838,375.02c-7.26-13.16-17.16-24.85-29.32-34.23l-10.63-8.15c-6-4.56-8.01-12.56-5.25-19.3
		c0.37-0.92,0.85-1.85,1.33-2.66c14.02-22.01,40.05-33.16,65.62-28.1l0.32,0.05c8.52,1.67,14.22,9.64,13.26,18.21l-1.42,11.93
		c-1.88,15.73-0.4,31.54,4.32,46.41c25.36-6.54,53.59-7.14,80.14-0.53c6.14-18.31,8.1-37.78,5.61-57.16l-1.96-15.32
		c-0.46-3.36,0.06-6.61,1.28-9.6c2.23-5.6,7.13-10.03,13.46-11.43c29.21-6.52,59.49,5.6,76.16,30.45l0.22,0.38
		c5.59,8.24,3.78,19.37-4.02,25.55l-10.88,8.54c-15.78,12.32-28.28,28.24-36.65,46.19c23.52,13.79,42.53,33.04,55.98,55.37
		c13.38-7.26,25.12-17.32,34.5-29.54l8.16-10.58c4.67-6,12.62-7.96,19.41-5.25c0.87,0.37,1.74,0.85,2.61,1.33
		c22,14.03,33.16,40.05,28.1,65.62l-0.05,0.33c-1.72,8.52-9.59,14.28-18.21,13.26l-11.93-1.42c-15.56-1.88-31.16-0.4-45.92,4.16
		c7.57,25.62,8.93,53.14,2.86,80.34c17.71,5.6,36.53,7.35,55.15,4.98l15.26-2.02c3.36-0.46,6.61,0,9.6,1.22
		c5.6,2.29,10.03,7.18,11.43,13.51c6.52,29.21-5.54,59.49-30.45,76.16l-0.32,0.27c-8.3,5.48-19.42,3.68-25.61-4.13l-8.49-10.82
		c-11.77-14.92-26.6-26.94-43.3-35.26"/>
	<circle class="st3" cx="2911.57" cy="519.48" r="367.16"/>
	<path class="st3" d="M-605.97,602.78c12.39,12.4,12.39,32.49,0,44.89c-12.4,12.4-32.49,12.4-44.89,0"/>
	<path class="st3" d="M-458.68,654.13c-18.74,18.74-49.13,18.74-67.87,0c-18.74-18.74-18.74-49.13,0-67.87"/>
	<path class="st3" d="M-503.56,769.47c-12.4-12.4-12.4-32.49,0-44.89c12.39-12.4,32.49-12.4,44.89,0"/>
	<path class="st3" d="M-644.4,724.58c18.74-18.74,49.13-18.74,67.87,0c18.74,18.74,18.74,49.13,0,67.87"/>
	<path class="st3" d="M-522.58,547.38c5.06-16.97,6.23-34.92,3.32-52.61l-2.26-13.95c-0.53-3.06-0.18-6.07,0.82-8.84
		c1.9-5.21,6.24-9.42,12-10.93c26.58-6.9,54.72,3.23,70.79,25.5l0.2,0.33c5.39,7.38,4.1,17.65-2.89,23.55l-9.67,8.17
		c-14.08,11.83-25.05,26.8-32.14,43.51c22.01,11.94,40.04,28.97,53.09,49.02c12.04-7.09,22.49-16.68,30.72-28.19l7.13-9.95
		c4.07-5.64,11.31-7.73,17.6-5.44c0.85,0.31,1.65,0.71,2.45,1.16c20.61,12.12,31.71,35.66,27.86,59.23l-0.01,0.32
		c-1.32,7.86-8.38,13.37-16.32,12.71l-10.99-0.92c-14.32-1.23-28.56,0.66-41.94,5.3c7.75,23.22,9.84,48.43,5.16,73.55
		c16.39,4.59,33.72,5.58,50.73,2.79l13.92-2.32c3.06-0.53,6.07-0.18,8.84,0.83c5.21,1.9,9.42,6.24,10.93,12
		c6.9,26.58-3.23,54.72-25.5,70.79l-0.31,0.26c-7.41,5.33-17.67,4.04-23.58-2.95l-8.17-9.67c-11.26-13.29-25.22-23.85-40.8-30.95
		c-11.76,22.97-29.82,42.38-50.24,55.99c6.83,10.56,15.61,19.87,26,27.26l9.99,7.14c5.59,4.06,7.7,11.25,5.43,17.49
		c-0.32,0.89-0.68,1.72-1.19,2.54c-12.08,20.63-35.61,31.72-59.18,27.87l-0.36-0.03c-7.81-1.3-13.37-8.37-12.66-16.3l0.92-10.98
		c1.09-12.94-0.29-25.93-4.08-38.14c-23.73,7.83-49.48,9.67-75.07,4.5c-3.73,15.22-4.41,31.23-1.79,46.95l2.32,13.92
		c0.48,3.05,0.18,6.07-0.81,8.79c-1.91,5.25-6.31,9.45-12.07,10.97c-26.58,6.9-54.72-3.23-70.79-25.5l-0.21-0.29
		c-5.37-7.43-4.08-17.69,2.89-23.55l9.69-8.22c12.5-10.54,22.56-23.46,29.62-37.89c-23.24-12.5-42.05-30.61-55.34-52.03l-0.68-0.03
		c-10.31,6.72-19.31,15.39-26.62,25.54l-7.14,9.99c-4.01,5.61-11.21,7.72-17.49,5.43c-0.89-0.32-1.72-0.68-2.54-1.19
		c-20.63-12.08-31.68-35.6-27.87-59.18l0.07-0.34c1.26-7.83,8.37-13.37,16.27-12.73l10.97,0.96c12.98,1.11,25.92-0.29,38.16-4.12
		c0.17-0.04,0.41-0.11,0.6-0.2c-7.08-23.78-8.25-49.6-2.42-74.95c-15.85-4.18-32.51-4.98-48.94-2.3l-13.92,2.32
		c-3.04,0.49-6.07,0.18-8.79-0.81c-5.25-1.91-9.45-6.31-10.96-12.07c-6.9-26.58,3.22-54.67,25.5-70.79l0.29-0.21
		c7.41-5.33,17.69-4.08,23.6,2.9l8.15,9.72c11.21,13.27,25.14,23.76,40.71,30.92c12.48-22.18,30.24-40.16,51.02-52.89
		c-7.12-11.84-16.56-22.23-27.98-30.43l-9.99-7.14c-5.65-4.03-7.75-11.27-5.46-17.55c0.31-0.84,0.73-1.7,1.17-2.49
		c12.12-20.61,35.64-31.66,59.23-27.85l0.3,0.05c7.88,1.27,13.37,8.38,12.73,16.27l-0.92,10.98c-1.23,14.48,0.63,28.92,5.44,42.42
		C-573,543.59-547.14,542.16-522.58,547.38z"/>
	<path class="st3" d="M-497.83,412.81c-0.89-7.92-2.12-15.83-3.67-23.75C-532.53,231-685.84,128.06-843.83,159.08
		c-158.06,31.03-261.01,184.28-229.98,342.33c25.4,129.38,132.74,221.78,257.57,234.02"/>
	<path class="st3" d="M3150.69,1940.37l-15.11,5.35c-141.49,50.07-296.09,48.69-436.67-3.88l-2.71-1.01
		c-24.95-9.33-41.49-33.17-41.49-59.81v-220.12c0-26.93,16.89-50.96,42.23-60.08l11.36-4.09c141.14-50.79,295.67-50.27,436.47,1.47
		l6.65,2.44c25.13,9.23,41.83,33.17,41.83,59.94v219.6C3193.24,1907.22,3176.2,1931.34,3150.69,1940.37z"/>
	<path class="st3" d="M2654.71,1764.94v-83.34l53.59-19.29c141.14-50.79,295.67-50.27,436.47,1.47l48.48,17.81v83.34"/>
	<path class="st3" d="M3193.25,1779.69v83.34l-53.59,19.29c-141.15,50.79-295.67,50.27-436.47-1.47l-48.48-17.81v-83.34"/>
	<path class="st3" d="M3218.13,1882.94l-24.73,20.98v-319.2c0-31.4,25.21-56.99,56.61-57.45c32.07-0.47,58.32,25.39,58.32,57.45
		v103.45C3308.32,1763.18,3275.33,1834.41,3218.13,1882.94z"/>
	<path class="st3" d="M2629.84,1882.94l24.73,20.98v-319.2c0-31.4-25.21-56.99-56.61-57.45c-32.07-0.47-58.32,25.39-58.32,57.45
		v103.45C2539.65,1763.18,2572.63,1834.41,2629.84,1882.94z"/>
	<path class="st3" d="M1587.88,2993.75l50.08-79.73c9.29-14.79,6.78-34.8-7.07-45.46c-15.88-12.22-38.41-7.91-48.82,8.65
		l-100.74,160.36c-10.15,16.15-18.18,33.53-23.9,51.72c-7.93,25.19-11.32,51.59-10.02,77.97l1.79,36.3l-32.63,51.95"/>
	<path class="st3" d="M1651.87,3017.64l79.09-125.9c9.83-15.64,5.11-36.29-10.53-46.12c-15.64-9.83-36.29-5.11-46.12,10.53
		l-97.11,154.59"/>
	<path class="st3" d="M1740.19,3002.82l65.22-103.82c9.83-15.64,5.11-36.29-10.53-46.12c-15.64-9.83-36.29-5.11-46.12,10.53
		l-91.83,146.18"/>
	<path class="st3" d="M1709.73,3051.37l77.18-122.85c9.12-14.52,27.74-21.04,43.25-13.69c18.48,8.81,24.66,31.32,14.12,48.09
		L1729.2,3146.1c-5.97,9.51-3.4,22.03,5.84,28.42c8.78,6.07,20.71,4.58,27.74-3.46l31.57-36.14c19.14-21.91,52.68-23.47,73.77-3.42
		c6.91,6.57,7.21,17.49,0.68,24.43l-113.26,120.38c-23.61,25.09-57.18,38.34-91.56,36.12l-31.98-2.06l-35.5,56.51"/>
	<path class="st3" d="M1481.91,2959.05c-5.56-46.87-23.63-91.63-52.49-129.49l-34.73-45.53l55.04-40.74
		c45.85-33.9,101.4-52.1,158.48-51.85l77.83,0.25c57.85,0.19,114.1-18.45,160.27-53.19l50.31-37.86l37.67,50.31
		c35.06,46.8,53.63,103.95,52.87,162.44l-1.02,70.11c-0.77,57.02,16.86,112.7,50.32,158.86l43.54,60.21l-67.55,47.83
		c-34.48,24.46-74.13,40.23-115.7,46.1"/>
	<path class="st3" d="M596.64-488.14c-11.56,16.89-39.36,47.4-54.82,60.81c-21.41,18.57-45.95,33.2-72.47,43.2l-36.5,13.76
		l-37.48,54.76"/>
	<path class="st3" d="M411.97-475.47c3.9-122.23-89.08-186.61-89.08-186.61l30.7-64.69c13.39-28.21,0.58-61.9-28.17-74.09
		c-9.42-3.99-20.3,0.38-24.34,9.78l-56.5,131.37c-23.22,53.98-21.13,115.51,5.7,167.79L205-425.77"/>
	<path class="st3" d="M447.11-485.31h191.62c35.26,0,63.85-28.59,63.85-63.85v-42.91"/>
	<path class="st3" d="M702.59-1003.16v-31.29c0-35.27-28.59-63.85-63.85-63.85H396.09c-35.26,0-63.85,28.59-63.85,63.85v202.99"/>
	<path class="st3" d="M619.57-1098.29l-11.88,40.85c-3.97,13.63-16.46,23.01-30.66,23.01H457.78c-14.2,0-26.69-9.38-30.66-23.01
		l-11.88-40.85"/>
	<path class="st3" d="M716.26-891.61L716.26-891.61c-14.12-5.63-25.39-16.71-31.26-30.74l-0.49-1.17c-3-7.17-1.37-15.45,4.13-20.95
		l23.42-23.42c13.38-13.38,35.07-13.38,48.45,0c13.38,13.38,13.38,35.06,0,48.44l-23.59,23.58
		C731.5-890.45,723.37-888.78,716.26-891.61z"/>
	<path class="st3" d="M716.26-797.55L716.26-797.55c-14.12-5.63-25.39-16.71-31.26-30.74l-0.49-1.17c-3-7.17-1.37-15.45,4.13-20.95
		l23.42-23.42c13.38-13.38,35.07-13.38,48.45,0c13.38,13.38,13.38,35.07,0,48.45l-23.59,23.59
		C731.5-796.38,723.37-794.71,716.26-797.55z"/>
	<path class="st3" d="M716.26-709.36L716.26-709.36c-14.12-5.63-25.39-16.71-31.26-30.74l-0.49-1.17c-3-7.17-1.37-15.45,4.13-20.95
		l23.42-23.42c13.38-13.38,35.07-13.38,48.45,0c13.38,13.38,13.38,35.06,0,48.44l-23.59,23.58
		C731.5-708.19,723.37-706.52,716.26-709.36z"/>
	<path class="st3" d="M716.26-621.17L716.26-621.17c-14.12-5.63-25.39-16.71-31.26-30.74l-0.49-1.17c-3-7.17-1.37-15.45,4.13-20.95
		l23.42-23.42c13.38-13.38,35.07-13.38,48.45,0c13.38,13.38,13.38,35.07,0,48.45l-23.59,23.59
		C731.5-620.01,723.37-618.34,716.26-621.17z"/>
</g>
</svg>
