<?xml version="1.0" encoding="utf-8"?>
<!-- Generator: Adobe Illustrator 24.3.0, SVG Export Plug-In . SVG Version: 6.00 Build 0)  -->
<svg version="1.1" id="Laag_1" xmlns="http://www.w3.org/2000/svg" xmlns:xlink="http://www.w3.org/1999/xlink" x="0px" y="0px"
	 viewBox="0 0 1024 1024" style="enable-background:new 0 0 1024 1024;" xml:space="preserve">
<style type="text/css">
	.st0{clip-path:url(#SVGID_2_);fill:none;stroke:#010202;stroke-width:33.999;stroke-linecap:round;stroke-miterlimit:10;}
	.st1{clip-path:url(#SVGID_2_);fill:#010202;}
	.st2{clip-path:url(#SVGID_2_);fill:none;stroke:#010202;stroke-width:33.999;stroke-miterlimit:10;}
	.st3{clip-path:url(#SVGID_2_);fill:none;stroke:#000000;stroke-width:33.999;stroke-linejoin:round;stroke-miterlimit:10;}
	.st4{clip-path:url(#SVGID_2_);fill:none;stroke:#010202;stroke-width:33.999;stroke-linejoin:round;stroke-miterlimit:10;}
	
		.st5{clip-path:url(#SVGID_2_);fill:none;stroke:#010202;stroke-width:33.999;stroke-linecap:round;stroke-linejoin:round;stroke-miterlimit:10;}
	
		.st6{clip-path:url(#SVGID_2_);fill:none;stroke:#010202;stroke-width:29.987;stroke-linecap:round;stroke-linejoin:round;stroke-miterlimit:10;}
	.st7{clip-path:url(#SVGID_2_);fill:none;stroke:#010202;stroke-width:16.999;stroke-linecap:round;stroke-miterlimit:10;}
</style>
<g>
	<defs>
		<rect id="SVGID_1_" x="94.83" y="50" width="879.17" height="825.96"/>
	</defs>
	<clipPath id="SVGID_2_">
		<use xlink:href="#SVGID_1_"  style="overflow:visible;"/>
	</clipPath>
	<path class="st0" d="M2136.78,790.96h-650.04c-36.43,0-65.97-29.53-65.97-65.96V312.94c0-36.43,29.54-65.96,65.97-65.96h650.04
		c36.43,0,65.96,29.53,65.96,65.96v412.06C2202.74,761.44,2173.21,790.96,2136.78,790.96z"/>
	<path class="st1" d="M1895.34,490.65h-55.25V435.4c0-0.78-0.63-1.41-1.41-1.41h-53.84c-0.78,0-1.41,0.63-1.41,1.41v55.25h-55.25
		c-0.78,0-1.43,0.63-1.43,1.41v53.84c0,0.78,0.65,1.41,1.43,1.41h55.25v55.25c0,0.78,0.63,1.43,1.41,1.43h53.84
		c0.78,0,1.41-0.65,1.41-1.43v-55.25h55.25c0.78,0,1.41-0.63,1.41-1.41v-53.84C1896.75,491.28,1896.12,490.65,1895.34,490.65"/>
	<path class="st0" d="M1981.75,246.99h-339.99l7.7-61.54c5.3-42.53,41.46-74.46,84.33-74.46h155.92c42.87,0,79.03,31.92,84.33,74.46
		L1981.75,246.99z"/>
	<path class="st0" d="M1925.88,370.84c-31.57-24.36-71.16-38.86-114.12-38.86c-103.29,0-186.99,83.72-186.99,186.99
		c0,103.29,83.7,186.99,186.99,186.99c103.27,0,186.99-83.7,186.99-186.99c0-27.79-6.07-54.18-16.95-77.89"/>
	<line class="st0" x1="2049.75" y1="399.98" x2="2202.75" y2="399.98"/>
	<line class="st0" x1="1420.78" y1="399.98" x2="1573.77" y2="399.98"/>
	<line class="st0" x1="4514.65" y1="637.97" x2="4428.7" y2="637.97"/>
	<path class="st0" d="M4123.66,637.97c-18.77,0-34-15.23-34-34V229.99c0-18.77,15.23-34,34-34h589.01c13.87,0,26.35,8.43,31.53,21.3
		l59.43,147.64l43.67,12.95c14.43,4.28,24.33,17.54,24.33,32.61v193.48c0,18.77-15.23,34-34,34h-17.97"/>
	<circle class="st2" cx="4276.66" cy="654.97" r="85"/>
	<circle class="st2" cx="4667.64" cy="654.97" r="85"/>
	<path class="st1" d="M4428.52,343.31h-44.22v-44.2c0-0.63-0.49-1.14-1.12-1.14h-43.06c-0.63,0-1.14,0.51-1.14,1.14v44.2h-44.2
		c-0.63,0-1.14,0.51-1.14,1.14v43.06c0,0.63,0.51,1.14,1.14,1.14h44.2v44.2c0,0.63,0.51,1.12,1.14,1.12h43.06
		c0.63,0,1.12-0.49,1.12-1.12v-44.2h44.22c0.61,0,1.12-0.51,1.12-1.14v-43.06C4429.64,343.82,4429.13,343.31,4428.52,343.31"/>
	<path class="st0" d="M4517.55,196.01c-1.87-5.32-2.91-11.05-2.91-17.02c0-28.17,22.83-51,51-51c28.17,0,51,22.83,51,51
		c0,5.97-1.02,11.71-2.91,17.03"/>
	<line class="st0" x1="4565.65" y1="60" x2="4565.65" y2="26"/>
	<line class="st0" x1="4649.78" y1="94.85" x2="4673.83" y2="70.81"/>
	<line class="st0" x1="4565.65" y1="60" x2="4565.65" y2="26"/>
	<line class="st0" x1="4481.5" y1="94.85" x2="4457.46" y2="70.81"/>
	<path class="st3" d="M6187.38,591.35c-16.9-22.52-48.89-27.08-71.4-10.22l-25.94,19.43l-119.49-159.32
		c-9.64-12.85-24.75-20.4-40.8-20.4h-126.63l-17.81-73.86l137.95-28.81c27.57-5.76,45.25-32.77,39.49-60.35
		c-5.76-27.56-32.71-45.27-60.35-39.49l-141.06,29.48l-7.17-29.77c-6.6-27.39-34.08-44.25-61.54-37.6
		c-27.37,6.6-44.22,34.15-37.59,61.54l58.36,241.83c5.52,22.9,26.01,39.03,49.57,39.03h141.28l134.79,179.72
		c10.03,13.38,25.35,20.42,40.85,20.42c10.66,0,21.4-3.33,30.56-10.2l66.71-50.03C6199.71,645.85,6204.28,613.87,6187.38,591.35z"/>
	<ellipse transform="matrix(0.9951 -0.0985 0.0985 0.9951 23.3602 558.977)" class="st4" cx="5670.6" cy="43" rx="68" ry="68"/>
	<path class="st5" d="M5592.57,345.45c-65.21,38.42-108.97,109.37-108.97,190.53c0,122.05,98.94,220.99,220.99,220.99
		c80.17,0,150.38-42.69,189.1-106.57"/>
	<path class="st2" d="M3239.7,688.97c0,56.34-45.66,102-102,102c-225.32,0-407.98-182.66-407.98-407.98c0-56.34,45.66-102,102-102
		c5.75,0,11.42,0.49,16.93,1.43c0.87,0.14,1.73,0.29,2.6,0.46c10.13,1.92,18,9.96,19.74,20.14l25.75,151.63
		c0.61,3.55-1.21,7.11-4.45,8.7c0,0-24.68,11.81-36.77,17.78c-3.72,1.84-5.51,6.22-4.03,10.11c15.47,40.97,39.49,77.72,69.87,108.08
		c30.26,30.28,66.89,54.26,107.71,69.75c3.86,1.46,8.23-0.29,10.1-3.96c6.1-12.02,18.16-36.79,18.16-36.79
		c1.61-3.21,5.13-5,8.67-4.4l151.69,25.77c10.18,1.73,18.22,9.6,20.16,19.74c0.14,0.87,0.31,1.73,0.44,2.6
		C3239.21,677.55,3239.7,683.22,3239.7,688.97z"/>
	<path class="st1" d="M3374.28,201.66h-55.25v-55.25c0-0.78-0.65-1.41-1.43-1.41h-53.82c-0.8,0-1.43,0.63-1.43,1.41v55.25h-55.25
		c-0.78,0-1.41,0.63-1.41,1.41v53.84c0,0.78,0.63,1.41,1.41,1.41h55.25v55.25c0,0.78,0.63,1.43,1.43,1.43h53.82
		c0.78,0,1.43-0.65,1.43-1.43v-55.25h55.25c0.78,0,1.41-0.63,1.41-1.41v-53.84C3375.7,202.29,3375.07,201.66,3374.28,201.66"/>
	<path class="st4" d="M3511.69,229.99C3511.69,107.93,3412.75,9,3290.7,9c-122.05,0-220.99,98.94-220.99,220.99
		c0,100.02,66.5,184.43,157.65,211.68l-38.66,128.31c0,0,221.98-153.55,237.62-165.74l0.97-0.58l-0.14-0.07
		C3478.56,363.14,3511.69,300.48,3511.69,229.99z"/>
	<path class="st2" d="M842.8,790.96H162.83c-28.17,0-51-22.83-51-51V229.99c0-28.17,22.83-51,51-51H842.8c28.17,0,51,22.83,51,51
		v509.98C893.8,768.13,870.97,790.96,842.8,790.96z"/>
	<path class="st2" d="M783.31,680.47H222.33c-18.77,0-34-15.23-34-34V289.49c0-18.77,15.23-34,34-34h560.98c18.77,0,34,15.23,34,34
		v356.98C817.3,665.24,802.07,680.47,783.31,680.47z"/>
	<polyline class="st6" points="264.83,496.31 328.29,496.31 375.88,382.97 439.36,552.97 502.82,425.47 534.56,524.65 
		581.01,439.65 613.87,496.31 740.81,496.31 	"/>
	<path class="st2" d="M757.81,858.96H247.83c-9.38,0-17-7.62-17-17l-17-51h577.98l-17,51C774.81,851.35,767.19,858.96,757.81,858.96
		z"/>
	<path class="st1" d="M774.81,739.97c0-9.38-7.62-17-17-17c-9.38,0-17,7.62-17,17c0,9.38,7.62,17,17,17
		C767.19,756.97,774.81,749.35,774.81,739.97"/>
	<path class="st1" d="M706.81,739.97c0-9.38-7.62-17-17-17c-9.38,0-17,7.62-17,17c0,9.38,7.62,17,17,17
		C699.19,756.97,706.81,749.35,706.81,739.97"/>
	<line class="st7" x1="230.83" y1="739.97" x2="332.82" y2="739.97"/>
</g>
</svg>
