<?xml version="1.0" encoding="utf-8"?>
<!-- Generator: Adobe Illustrator 24.3.0, SVG Export Plug-In . SVG Version: 6.00 Build 0)  -->
<svg version="1.1" id="Laag_1" xmlns="http://www.w3.org/2000/svg" xmlns:xlink="http://www.w3.org/1999/xlink" x="0px" y="0px"
	 viewBox="0 0 1024 1024" style="enable-background:new 0 0 1024 1024;" xml:space="preserve">
<style type="text/css">
	.st0{clip-path:url(#SVGID_2_);}
</style>
<g>
	<defs>
		<rect id="SVGID_1_" x="132" y="50.01" width="842" height="923.99"/>
	</defs>
	<clipPath id="SVGID_2_">
		<use xlink:href="#SVGID_1_"  style="overflow:visible;"/>
	</clipPath>
	<path class="st0" d="M4612.77,691.97c-48.94-13.72-167.67-75.38-200.8-92.79v-85.99c9.56-13.89,18.07-29.64,25.34-47.35
		c23.93-9,48.91-31.17,58.82-60.68c7.93-23.6,6.15-49.9-4.9-72.07c-0.18-0.39-0.41-0.67-0.61-1.04
		c8.92-57.95,18.96-146.16-34.28-208.48c-35.91-42.05-93.92-63.35-172.39-63.35c-78.58,0-136.61,21.28-172.51,63.25
		c-53.5,62.59-42.87,151.59-33.94,209.42c-10.78,21.85-14.05,50.72-5.76,75.44c10.2,30.28,36.09,52.85,60.46,61.45
		c6.88,16.11,14.84,30.51,23.67,43.36v86.02c-33.11,17.41-151.84,79.06-200.7,92.79c-22.02,6.07-104.29,47.14-104.29,136.65V974
		H4717V828.61C4717,739.1,4634.73,698.04,4612.77,691.97 M4267.49,750.54v132.78c-24.59-39.79-58.79-100.29-81.15-160.87l40.72,31.5
		l32.12-42.82l6.98,22.6h35.56l6.98-22.6l32.12,42.82l40.72-31.5c-22.37,60.58-56.56,121.08-81.14,160.87V750.54H4267.49z
		 M4283.95,584.48c36.08,0,68.17-11.96,95.11-34.56v59.51c-54.97,38.41-135.3,38.41-190.27,0v-59.54
		C4215.75,572.52,4247.86,584.48,4283.95,584.48 M4397.82,668.19l-50.74,39.28l-28.98-38.67c30.73-5.1,60.28-17.1,85.37-36.16
		C4402.54,644.08,4400.55,656.01,4397.82,668.19 M4164.42,632.64c25.08,19.06,54.64,31.05,85.36,36.16l-28.98,38.67l-50.74-39.28
		C4167.33,656.01,4165.34,644.08,4164.42,632.64 M4283.95,93.14c183.9,0,188.04,123.78,177.54,209.64
		c-1.12-0.48-2.15-1.18-3.29-1.55c-0.64-0.23-1.3-0.41-1.96-0.61c-8.77-25.1-19.68-54.1-20.33-55.84l-9.73-25.84l-27.16,5.09
		c-0.06,0.03-14.88,2.67-34.58,2.67c-26.15,0-48.2-4.54-63.74-13.18c-29.21-16.23-58-24.46-85.51-24.46
		c-45.49,0-71.56,22.7-74.39,25.26l-6.98,6.4l-2.5,9.08c-0.16,0.58-11.29,40.86-20.13,70.95c-0.56,0.17-1.1,0.31-1.66,0.51
		c-1.07,0.36-2.06,0.9-3.08,1.32C4095.91,216.57,4099.84,93.14,4283.95,93.14 M4102.95,397.89c-9.97-29.76,5.83-61.62,17.15-65.43
		c0.91-0.3,1.84-0.46,2.78-0.46c3.54,0,7.47,1.99,11.5,5.53c7.7-23.04,28.69-98.94,28.69-98.94s18.14-16.61,52.14-16.61
		c18.58,0,41.88,4.94,69.53,20.31c25.05,13.92,55.64,17.33,79.72,17.33c23.4,0,40.65-3.22,40.65-3.22s22.27,59.18,28.69,81.13
		c3.98-3.44,7.88-5.5,11.37-5.5c0.91,0,1.78,0.13,2.62,0.43c11.35,3.79,27.15,32.45,17.15,62.23
		c-9.03,26.91-37.26,42.72-49.83,42.72c-0.79,0-1.51-0.07-2.17-0.2c-24.13,70.36-66.52,114.36-128.96,114.36h-0.02
		c-61.57,0-103.62-42.72-127.94-111.29c-0.97,0.3-2.11,0.43-3.37,0.43C4139.35,440.71,4112.02,424.83,4102.95,397.89 M3883.8,828.61
		c0-76.59,79.34-104.69,80.21-104.95c39.78-11.16,118.26-49.64,168.95-75.54c15.5,115.7,109.41,259.04,132.56,292.96H4156.5v-69.01
		h-152.82v69.01H3883.8V828.61z M4123.59,941.08h-86.99v-36.09h86.99V941.08z M4684.08,941.08h-381.73
		c23.16-33.89,117.05-177.25,132.57-292.93c50.71,25.87,129.19,64.35,169.02,75.54c0.81,0.23,80.15,28.32,80.15,104.92V941.08z"/>
	<polygon class="st0" points="649.77,797.68 682.69,797.68 682.69,823.24 708.24,823.24 708.24,856.15 682.69,856.15 682.69,881.69 
		649.77,881.69 649.77,856.15 624.21,856.15 624.21,823.24 649.77,823.24 	"/>
	<path class="st0" d="M132,806.27v166.53h724.81V806.27c0-76.72-59.36-107.48-90.76-113.05c-101.25-18.23-157.93-63.81-173.46-77.93
		v-55.82c4.97-0.36,9.51-0.74,13.35-1.15c55.46-6.12,97.81-27.34,125.88-63.03c30.96-39.38,42.15-94.19,33.29-162.91
		C750.67,220.35,689.3,53.72,579.43,53.72c-12.48,0-24.95,2.29-37.26,6.8C521.02,53.54,499.74,50,478.78,50h-0.03
		c-134.16,0.03-236.1,146.6-253.61,282.38c-8.87,68.73,2.34,123.53,33.29,162.91c28.08,35.7,70.42,56.91,125.9,63.03
		c3.44,0.38,7.52,0.74,11.9,1.05v55.92c-15.49,14.09-72.17,59.69-173.55,77.93C191.33,698.79,132,729.52,132,806.27 M458.7,802.87
		h71.39c-11.08,26.51-23.02,51.33-35.71,73.8C481.84,854.36,469.84,829.55,458.7,802.87 M409.06,647.71
		c9.71-7.93,14.98-13.46,15.68-14.2l4.39-4.76v-63.67c20.03,10.06,42.11,15.35,65.98,15.35c23.29,0,44.88-5.04,64.55-14.61v62.93
		l4.39,4.76c0.71,0.74,5.94,6.24,15.6,14.14c-10.02,42.89-22.37,84.03-36.58,122.31h-97.33
		C431.53,731.67,419.05,690.43,409.06,647.71 M366.16,433.12c-0.66,0.13-1.35,0.2-2.02,0.2c-10.68,0-23.19-15.82-32.21-42.69
		c-10.02-29.76-11.98-61.62-0.64-65.4c0.89-0.3,1.79-0.46,2.73-0.46c3.46,0,7.32,1.92,11.26,5.33
		c-0.58-7.22,156.51-38.45,214.18-126.48c52.76,40.01,79.21,83.6,85.23,129.85c4.03-3.52,7.97-5.51,11.49-5.51
		c0.96,0,1.89,0.15,2.8,0.44c11.34,3.82,9.35,35.68-0.64,65.42c-9.05,26.92-21.56,42.84-32.26,42.84c-1.04,0-2.04-0.16-3.01-0.44
		c-24.31,68.59-66.37,111.3-127.94,111.3C432.68,547.51,390.28,503.52,366.16,433.12 M611.85,524.24
		c13.87-16.6,25.87-36.73,35.71-60.17c14.01-7.39,29.94-23.98,41.98-59.79c18.79-56.02,11.54-95.88-19.16-106.74
		c-13.83-44.42-44.34-84.71-91.04-120.16l-28.11-21.31l-19.32,29.51c-37.18,56.76-132.05,89.23-172.57,103.09
		c-4.67,1.6-9.23,3.14-13.58,4.79c-3.83-1.07-7.75-1.61-11.75-1.61c-4.53,0-8.99,0.74-13.15,2.16
		c-10.35,3.44-18.89,11.06-24.03,21.41c-13.46,26.99-1.76,68.94,3.88,85.69c11.52,34.33,26.66,50.98,40.27,58.75
		c10.2,25.3,22.84,46.81,37.54,64.38c-76.81-11.64-137.07-61.19-120.75-187.65c14.5-112.6,99.83-253.64,220.96-253.68
		c20.54,0,42.06,4.05,64.48,12.98c12.46-6.34,24.56-9.27,36.21-9.27c79.29,0,138.23,135.17,153.02,249.96
		C748.76,462.99,688.58,512.54,611.85,524.24 M823.89,939.89H536.95c-7.82-9.41-15.55-19.96-23.16-31.4
		c38.94-64.25,72.05-148.32,94.7-240.15c32.19,20.51,82.17,44.78,151.79,57.29c0.67,0.12,63.61,12.01,63.61,80.64V939.89z
		 M164.92,806.27c0-68.63,62.9-80.53,63.53-80.64c69.55-12.51,119.5-36.68,151.69-57.19c26.94,109.2,68.35,206.16,115.33,271.45
		H164.92V806.27z"/>
	<path class="st0" d="M2663.78,819.06c9.1,0,16.46,7.36,16.46,16.46s-7.36,16.46-16.46,16.46c-9.1,0-16.46-7.36-16.46-16.46
		S2654.67,819.06,2663.78,819.06"/>
	<path class="st0" d="M1958.85,835.52c0,49.9,40.62,90.52,90.52,90.52c33,0,61.85-17.81,77.66-44.25h459.08
		c15.82,26.45,44.67,44.25,77.66,44.25c49.9,0,90.52-40.62,90.52-90.52S2713.68,745,2663.78,745c-16.13,0-31.24,4.29-44.39,11.72
		l-225.6-112.35l214.49-106.81h255.21V428.57h-324.23v-14.81c0-30.43-24.75-55.17-55.17-55.17h-255.03
		c-30.41,0-55.17,24.74-55.17,55.17v14.81h-324.61v108.98h256.16l214.49,106.81l-225.93,112.52c-13.2-7.52-28.42-11.88-44.65-11.88
		C1999.47,745,1958.85,785.62,1958.85,835.52 M2506.34,428.57h-299.53v-14.81c0-12.28,9.99-22.25,22.25-22.25h255.03
		c12.26,0,22.25,9.97,22.25,22.25V428.57z M2830.57,504.64h-948.36V461.5h948.36V504.64z M2356.88,625.98l-177.58-88.43h355.15
		L2356.88,625.98z M2592.42,780.06c-2.3,2.93-4.4,6.01-6.3,9.2h-459.08c-1.88-3.13-3.92-6.12-6.12-8.99l235.97-117.52
		L2592.42,780.06z M2606.17,835.52c0-31.76,25.84-57.6,57.6-57.6c31.76,0,57.6,25.84,57.6,57.6s-25.84,57.6-57.6,57.6
		C2632.01,893.12,2606.17,867.28,2606.17,835.52 M2138.8,848.86c0.64-4.38,1.09-8.8,1.09-13.35s-0.44-8.97-1.09-13.35h435.55
		c-0.64,4.38-1.09,8.8-1.09,13.35s0.44,8.97,1.09,13.35H2138.8z M1991.77,835.52c0-31.76,25.84-57.6,57.6-57.6s57.6,25.84,57.6,57.6
		s-25.84,57.6-57.6,57.6S1991.77,867.28,1991.77,835.52"/>
	<path class="st0" d="M2049.37,819.06c9.1,0,16.46,7.36,16.46,16.46s-7.36,16.46-16.46,16.46c-9.1,0-16.46-7.36-16.46-16.46
		S2040.27,819.06,2049.37,819.06"/>
	<rect x="1732.68" y="605.42" class="st0" width="181.94" height="32.92"/>
	<rect x="1638.54" y="507.4" class="st0" width="134.29" height="32.92"/>
	<path class="st0" d="M2733.85,445.56c-70.74,0-127.28-37.93-129.64-39.56v-27.19c2.35-1.63,58.9-39.56,129.64-39.56
		c70.75,0,127.27,37.93,129.64,39.56V406C2861.12,407.63,2804.6,445.56,2733.85,445.56 M2647.99,392.4
		c20.51,9.41,51.56,20.24,85.86,20.24c34.3,0,65.35-10.83,85.88-20.24c-20.52-9.41-51.58-20.24-85.88-20.24
		C2699.56,372.16,2668.5,382.99,2647.99,392.4"/>
</g>
</svg>
