<svg xmlns="http://www.w3.org/2000/svg" xmlns:xlink="http://www.w3.org/1999/xlink" id="Laag_1" x="0" y="0" version="1.1" viewBox="0 0 1024 1024" xml:space="preserve" style="enable-background:new 0 0 1024 1024"><style type="text/css">.st0,.st1,.st2,.st3{clip-path:url(#SVGID_2_)}.st1{stroke-width:20.356}.st1,.st2,.st3{fill:none;stroke:#000;stroke-miterlimit:10}.st2{stroke-width:17.089}.st3{stroke-width:15.916}</style><g><defs><rect id="SVGID_1_" width="984.77" height="891.77" y="50"/></defs><clipPath id="SVGID_2_"><use xlink:href="#SVGID_1_" style="overflow:visible"/></clipPath><path d="M367.44,129.88c-14.44-16-35.11-26.26-58.34-26.26c-43.54,0-79.32,35.24-79.32,78.81 c0,43.47,35.78,78.76,79.32,78.76c43.49,0,78.76-35.29,78.76-78.76c0-9.26-1.9-18.03-4.82-26.29 C376.54,138.64,367.44,129.88,367.44,129.88 M309.1,129.88c28.95,0,52.49,23.57,52.49,52.55c0,28.95-23.54,52.49-52.49,52.49 c-28.98,0-53.06-23.54-53.06-52.49C256.04,153.45,280.12,129.88,309.1,129.88 M490.69,445.26c-2.95-10-9.72-18.88-19.59-24.23 l-81.4-44.14l-28.77-47.52l-9.18-15.13c-10.05-16.64-28.08-26.8-47.52-26.8h-9.44h-40.93c-23.21,0-43.52,15.62-49.49,38.03 l-44.75,168l-0.77,2.85c-6.36,23.88-7.69,48.47-7.72,73.17v1.26L151,653.81L77.03,798.75c-11.28,22.75-2.05,50.32,20.7,61.63 c6.57,3.26,13.54,4.79,20.41,4.79c16.9,0,33.16-9.34,41.18-25.49l78.66-154.59c3.13-6.33,4.92-13.31,4.92-20.39v-82.09l61.14,93.17 l17.98,147.89c2.82,23.34,22.65,40.44,45.57,40.44c1.85,0,3.69-0.1,5.57-0.33c25.21-3.05,43.16-25.93,40.11-51.14l-19.29-158.59 c-0.85-7.05-3.31-13.8-7.21-19.72L304.02,508.4l20.21-82.45l1.49,2.46c3.75,6.21,9.08,11.28,15.44,14.75l91.11,49.42 c6.16,3.36,12.82,4.95,19.36,4.95c14.44,0,28.44-7.72,35.83-21.31c0.82-1.51,1.33-3.13,1.95-4.69 M451.63,471.27 c-2.39,0-4.69-0.59-6.8-1.74l-91.17-49.44c-2.23-1.23-4.13-3.05-5.46-5.23l-16.77-27.78c-2.95-4.85-8.51-7.46-14.16-6.62 c-5.61,0.87-10.15,5.03-11.51,10.54l-27.25,111.13c-1.74,7.09-0.45,14.58,3.55,20.68l82.76,125.94c1.67,2.54,2.72,5.46,3.08,8.44 l19.29,158.61c1.33,10.77-6.41,20.6-17.18,21.9l-2.41,0.15c-9.93,0-18.31-7.47-19.49-17.34l-18.72-154l-78.99-120.4 c-4.46-6.8-12.85-9.85-20.62-7.54c-7.79,2.33-13.13,9.49-13.13,17.59v108.53c0,2.79-0.77,5.79-2.18,8.69l-78.56,154.38 c-3.44,6.95-10.21,11.13-17.77,11.13c-3.05,0-5.97-0.69-8.74-2.05c-9.69-4.84-13.69-16.69-8.85-26.44l76.71-150.28v-89.35 c0.03-21.57,1-45.31,6.98-67.7l45.49-170.85c2.92-10.93,12.82-18.54,24.13-18.54h50.37c10.18,0,19.8,5.41,25.05,14.13l41.65,68.75 l87.65,47.52c5.08,2.74,7.74,8.15,7.41,13.59c-0.02,0.23-0.13,0.44-0.13,0.69c0,0.1,0.05,0.18,0.05,0.28 c-0.23,1.69-0.67,3.41-1.54,5.03C461.81,468.37,456.94,471.27,451.63,471.27" class="st0"/><path d="M549.01,830.98c0-14.05-11.39-25.45-25.44-25.45c-14.05,0-25.45,11.39-25.45,25.45 c0,14.05,11.39,25.44,25.45,25.44C537.62,856.42,549.01,845.03,549.01,830.98z" class="st1"/><polygon points="844.17 466.57 823.82 775.84 498.12 775.84 477.76 466.57" class="st1"/><path d="M772.93,830.98c0-14.05,11.39-25.45,25.44-25.45c14.05,0,25.45,11.39,25.45,25.45 c0,14.05-11.39,25.44-25.45,25.44C784.32,856.42,772.93,845.03,772.93,830.98z" class="st1"/><path d="M560.31,670.14c0-56.73,45.99-102.72,102.72-102.72c56.73,0,102.72,45.99,102.72,102.72" class="st2"/><path d="M648.84,561.93c0-7.77,6.3-14.07,14.07-14.07c7.77,0,14.07,6.3,14.07,14.07" class="st3"/><line x1="532.89" x2="793.52" y1="687.23" y2="687.23" class="st2"/></g></svg>