<?xml version="1.0" encoding="utf-8"?>
<!-- Generator: Adobe Illustrator 24.3.0, SVG Export Plug-In . SVG Version: 6.00 Build 0)  -->
<svg version="1.1" id="Laag_1" xmlns="http://www.w3.org/2000/svg" xmlns:xlink="http://www.w3.org/1999/xlink" x="0px" y="0px"
	 viewBox="0 0 1024 1024" style="enable-background:new 0 0 1024 1024;" xml:space="preserve">
<style type="text/css">
	.st0{clip-path:url(#SVGID_2_);}
</style>
<g>
	<defs>
		<rect id="SVGID_1_" y="50" width="1024" height="924"/>
	</defs>
	<clipPath id="SVGID_2_">
		<use xlink:href="#SVGID_1_"  style="overflow:visible;"/>
	</clipPath>
	<path class="st0" d="M74.91,557.64c-18.36-18.36-18.36-48.2,0-66.56c18.36-18.36,48.2-18.36,66.56,0l231.49,231.49l496.31-496.31
		c18.36-18.36,48.11-18.36,66.56,0c18.36,18.45,18.36,48.2,0,66.56L406.28,822.46c-18.45,18.36-48.2,18.36-66.56,0L74.91,557.64z"/>
	<path class="st0" d="M-2585.65,755.89c18.36,18.36,18.36,48.2,0,66.56c-18.36,18.36-48.2,18.36-66.56,0l-231.49-231.49
		l-231.49,231.49c-18.36,18.36-48.2,18.36-66.56,0c-18.36-18.36-18.36-48.2,0-66.56l231.49-231.49l-231.49-231.49
		c-18.36-18.45-18.36-48.2,0-66.56c18.36-18.45,48.2-18.45,66.56,0l231.49,231.4l231.49-231.4c18.36-18.45,48.2-18.45,66.56,0
		c18.36,18.36,18.36,48.11,0,66.56l-231.49,231.49L-2585.65,755.89z"/>
	<path class="st0" d="M-2347.96,3390.71c10.35-23.72,38.03-34.55,61.76-24.29c23.82,10.35,34.64,38.03,24.29,61.76
		c-37.75,86.04-92.07,164.56-160.89,230.46c-66.27,63.54-145.82,115.23-236.67,150.72c-184.99,72.11-381.64,62.32-550.16-11.58
		c-168.6-74.09-308.97-212.57-381.17-397.65c-72.02-184.98-62.32-381.55,11.67-550.16c73.99-168.6,212.47-308.87,397.55-380.99
		c184.98-72.11,381.74-62.51,550.16,11.58c153.73,67.5,283.93,188.47,360.37,349.54l51.21-193.46c6.69-24.95,32.38-40.1,57.43-33.42
		c25.04,6.59,40.01,32.2,33.52,57.33l-85.95,324.22c-6.59,25.14-32.29,40.01-57.33,33.42l-324.22-85.86
		c-25.04-6.59-40.1-32.38-33.51-57.43c6.68-24.95,32.38-40.01,57.43-33.42l231.02,61.19c-63.64-156.08-183.76-273.01-327.51-336.08
		c-146.58-64.49-317.82-72.96-478.8-10.07c-160.79,62.51-280.91,184.61-345.31,331.09c-64.39,146.58-72.86,317.72-10.07,478.8
		c62.6,160.7,184.51,281.01,331.09,345.31c146.58,64.39,317.82,72.86,478.8,10.17c78.8-30.78,147.9-75.78,205.41-130.95
		C-2428.07,3533.62-2380.72,3465.37-2347.96,3390.71"/>
	<path class="st0" d="M-116.49,3428.22c-10.26-23.72,0.56-51.49,24.38-61.76c23.72-10.35,51.4,0.56,61.66,24.29
		c32.86,74.65,80.21,142.81,139.89,200.24c57.61,55.07,126.71,100.17,205.51,130.85c160.98,62.7,332.13,54.22,478.8-10.07
		c146.58-64.39,268.49-184.61,331.19-345.31c62.7-161.07,54.22-332.31-10.26-478.8c-64.2-146.58-184.52-268.68-345.31-331.18
		c-160.98-62.89-332.13-54.41-478.8,10.17c-143.66,63.07-263.78,180-327.42,336.08l231.02-61.19c25.04-6.68,50.74,8.38,57.33,33.42
		s-8.38,50.74-33.42,57.33l-324.31,85.95c-24.95,6.59-50.74-8.28-57.33-33.51l-85.86-324.12c-6.49-25.23,8.47-50.74,33.42-57.42
		c25.14-6.59,50.84,8.47,57.52,33.51l51.21,193.36c76.44-160.98,206.64-282.04,360.37-349.45
		c168.42-74.18,365.17-83.69,550.16-11.58c185.08,72.02,323.47,212.29,397.55,380.89c73.9,168.6,83.69,365.17,11.58,550.16
		c-72.11,185.17-212.57,323.65-381.17,397.74c-168.42,73.9-365.17,83.6-550.06,11.58c-90.85-35.49-170.49-87.17-236.76-150.81
		C-24.33,3592.78-78.75,3514.26-116.49,3428.22"/>
	<path class="st0" d="M4466.98,3390.73c10.36-23.72,38.03-34.55,61.85-24.29c23.72,10.26,34.55,38.03,24.29,61.76
		c-37.85,86.04-92.26,164.56-160.89,230.36c-66.27,63.64-145.92,115.32-236.76,150.81h-0.19
		c-184.89,72.11-381.55,62.32-549.97-11.58c-153.64-67.69-283.93-188.66-360.46-349.73l-51.3,193.65
		c-6.59,24.95-32.2,40.1-57.33,33.42c-25.14-6.59-40.01-32.29-33.51-57.33l85.95-324.31c6.59-25.04,32.2-40.1,57.33-33.51
		l324.22,85.86c25.14,6.68,40.1,32.39,33.51,57.43c-6.68,25.14-32.29,40.01-57.43,33.42l-230.93-61
		c63.73,156.09,183.76,272.82,327.51,336.08c145.64,63.83,315.27,72.58,475.31,11.39c2.17-1.13,4.42-1.88,6.97-2.54
		c77.29-30.69,145.26-75.22,201.93-129.63C4386.97,3533.54,4434.22,3465.39,4466.98,3390.73 M4595.21,2636.67
		c6.59-25.04,32.29-40.1,57.33-33.42c25.14,6.59,40.1,32.1,33.51,57.33l-85.86,324.12c-6.68,25.23-32.38,40.1-57.43,33.51
		l-324.22-85.85c-25.14-6.68-40.1-32.39-33.42-57.43c6.59-24.95,32.19-40.1,57.33-33.42l230.93,61.19
		c-63.73-156.27-183.76-273.01-327.42-336.08c-145.63-64.01-315.37-72.86-475.32-11.58c-2.26,1.13-4.52,1.98-7.06,2.73
		c-77.29,30.69-145.16,75.22-201.93,129.44c-59.78,57.33-107.13,125.77-139.8,200.24c-10.45,23.91-38.13,34.74-61.85,24.29
		c-23.82-10.26-34.64-37.85-24.29-61.76c37.75-85.86,92.16-164.37,160.88-230.45c66.28-63.36,145.82-115.23,236.67-150.53l0.19-0.19
		c184.89-71.92,381.55-62.32,549.97,11.77c153.83,67.5,284.02,188.47,360.46,349.73L4595.21,2636.67z"/>
	<path class="st0" d="M-9997.27,296.96c0-42.46,13.74-85.48,41.04-129.16c27.21-43.49,67.03-79.64,119.28-108.35
		c52.43-28.62,113.34-42.83,183.2-42.83c64.77,0,122.01,11.96,171.71,36.05c49.71,23.72,87.93,56.3,115.13,97.43
		c27.02,41.23,40.57,85.86,40.57,134.24c0,38.03-7.81,71.17-23.16,99.88c-15.53,28.62-33.89,53.28-54.98,73.99
		c-21.27,20.99-59.5,55.73-114.47,105.06c-15.34,13.93-27.49,26.08-36.62,36.53c-9.13,10.54-16,20.24-20.33,28.9
		c-4.61,8.66-8,17.42-10.54,26.17c-2.54,8.57-6.21,24.01-11.02,45.94c-8.47,46.51-35.02,69.66-79.92,69.66
		c-23.16,0-42.83-7.53-58.65-22.78c-16-15.34-23.72-37.75-23.72-67.69c0-37.56,5.65-70.04,17.32-97.62
		c11.67-27.4,27.11-51.68,46.32-72.49c19.21-20.52,45.09-45.38,77.85-74.09c28.62-25.23,49.24-43.96,62.04-56.58
		c12.8-12.71,23.54-26.92,32.29-42.74c8.75-15.63,12.99-32.48,12.99-50.93c0-35.77-13.27-65.8-39.82-90.66
		c-26.74-24.38-60.91-36.71-102.99-36.71c-49.23,0-85.38,12.33-108.73,37.37c-23.25,24.57-42.83,61.38-58.93,109.48
		c-15.34,50.46-44.15,75.78-86.51,75.78c-25.23,0-46.32-8.76-63.45-26.45C-9988.51,336.5-9997.27,317.68-9997.27,296.96
		 M-10286.84,524.41c0,172.56,69.95,328.83,183.1,442.08c113.06,113.06,269.33,182.92,441.89,182.92
		c172.65,0,328.93-69.85,442.08-182.92c113.06-113.25,183.1-269.52,183.1-442.08c0-172.65-70.04-328.83-183.1-441.99
		c-113.16-113.06-269.43-183.1-442.08-183.1c-172.56,0-328.83,70.04-441.89,183.1C-10216.89,195.58-10286.84,351.75-10286.84,524.41
		 M-10170.3,1033.05c-130.2-130.2-210.69-310-210.69-508.64c0-198.54,80.49-378.35,210.69-508.45
		c130.1-130.2,309.91-210.78,508.45-210.78c198.64,0,378.44,80.58,508.64,210.78c130.1,130.1,210.69,309.91,210.69,508.45
		c0,198.64-80.58,378.44-210.69,508.64c-130.2,130.01-310,210.5-508.64,210.5C-9860.39,1243.54-10040.19,1163.06-10170.3,1033.05
		 M-9670.03,1032.11c-27.3,0-51.02-8.75-71.45-26.45c-20.33-17.6-30.5-42.46-30.5-74.09c0-28.34,9.88-51.87,29.56-71.17
		c19.77-19.11,43.78-28.9,72.39-28.9c28.15,0,51.97,9.79,71.17,28.9c19.21,19.3,28.9,42.83,28.9,71.17
		c0,31.25-10.07,55.83-30.22,73.71C-9620.33,1023.35-9643.49,1032.11-9670.03,1032.11"/>
	<path class="st0" d="M-6346.51,649.88l-21.56-321.21c-3.86-62.51-5.93-107.41-5.93-134.62c0-37.28,9.6-66.18,29.09-87.08
		c19.49-20.8,45.09-31.16,76.91-31.16c38.5,0,64.11,13.27,77.19,39.91c12.99,26.55,19.49,64.96,19.49,115.13
		c0,29.56-1.6,59.31-4.9,89.72l-28.81,330.81c-3.01,39.26-9.6,69.48-19.86,90.66c-10.35,20.71-27.49,31.16-51.12,31.16
		c-24.29,0-40.95-9.89-50.37-30.31C-6335.78,722.46-6342.37,691.58-6346.51,649.88 M-6272.14,1091.3
		c-27.21,0-51.02-9.04-71.45-26.45c-20.33-17.6-30.41-42.46-30.41-74.09c0-27.96,9.6-51.49,29.09-70.98
		c19.49-19.49,43.31-29.09,71.64-29.09c28.15,0,52.25,9.6,72.11,29.09c19.96,19.49,29.84,43.02,29.84,70.98
		c0,31.25-10.07,55.82-30.31,73.71C-6221.77,1082.26-6245.12,1091.3-6272.14,1091.3 M-5731.21,356.07
		c232.81,403.2,336.17,632.72,258.04,773.27c-78.51,141.49-325.91,169.36-794.35,169.36c-467.59,0-718.67-24.95-801.7-163.43
		c-83.22-138.67,16.47-366.86,250.6-772.42l0.09-0.19h-0.09c233.75-404.9,380.99-609.84,542.25-612.57
		c161.83-2.64,309.63,197.6,543.75,603.25C-5732.05,354.18-5731.68,355.12-5731.21,356.07 M-5555.16,1083.77
		c56.3-101.48-42.08-308.12-257.19-681.01c-0.56-0.75-1.04-1.51-1.51-2.35c-215.77-373.74-345.4-558.44-461-556.56
		c-116.08,1.98-246.27,191.39-462.42,565.88h-0.09c-215.67,373.64-310.85,578.02-251.26,677.43
		c59.68,99.41,288.73,117.39,721.11,117.39C-5835.98,1204.55-5611.18,1184.69-5555.16,1083.77"/>
	<path class="st0" d="M4195.01,926.56c-18.36,18.36-48.2,18.36-66.56,0c-18.36-18.36-18.36-48.2,0-66.65L4417,571.47H3258.13
		c-26.08,0-47.07-21.18-47.07-47.07c0-26.08,20.99-47.07,47.07-47.07H4417l-288.54-288.63c-18.36-18.36-18.36-48.2,0-66.56
		c18.36-18.36,48.2-18.36,66.56,0l368.65,368.65c0.94,0.94,1.88,1.88,2.73,2.92v0.09l1.41,1.6l0.28,0.38l0.56,0.75v0.09l0.56,0.66
		l0.38,0.57l0.09,0.28l0.47,0.75l0.28,0.28l0.19,0.38l0.56,0.94c4.14,6.97,6.5,15.16,6.5,23.91c0,8.66-2.35,16.85-6.5,23.91
		l-0.56,0.85l-0.19,0.38l-0.28,0.38l-0.47,0.66l-0.09,0.28l-0.38,0.56l-0.56,0.66v0.09l-0.56,0.75l-0.28,0.38
		c-0.47,0.56-0.94,1.13-1.41,1.6v0.09c-0.85,1.04-1.79,1.98-2.73,2.92L4195.01,926.56z"/>
	<path class="st0" d="M7049.38,859.96c18.36,18.36,18.36,48.2,0,66.65c-18.36,18.36-48.29,18.36-66.65,0l-368.56-368.65
		c-0.94-0.94-1.88-1.98-2.73-2.92l-0.09-0.09c-0.47-0.57-0.94-1.13-1.32-1.69l-0.38-0.38l-0.47-0.66l-0.09-0.09l-0.47-0.66
		l-0.38-0.66l-0.19-0.28l-0.38-0.66l-0.28-0.28l-0.28-0.47l-0.47-0.85c-4.24-6.97-6.5-15.16-6.5-23.91c0-8.76,2.26-16.95,6.5-23.91
		l0.47-0.85l0.28-0.47l0.28-0.28l0.38-0.66l0.19-0.28l0.38-0.66l0.47-0.66l0.09-0.09l0.47-0.66l0.38-0.38
		c0.38-0.57,0.85-1.13,1.32-1.7l0.09-0.09c0.85-0.94,1.79-1.98,2.73-2.92l368.56-368.56c18.36-18.36,48.29-18.36,66.65,0
		c18.36,18.36,18.36,48.11,0,66.56l-288.54,288.54H7919.7c25.98,0,47.07,21.09,47.07,47.07c0,25.98-21.09,47.07-47.07,47.07H6760.84
		L7049.38,859.96z"/>
	<path class="st0" d="M-9997.41,2905.12c-18.36,18.36-48.2,18.36-66.56,0c-18.36-18.36-18.36-48.39,0-66.56l368.56-368.65
		c0.94-0.94,1.98-1.88,3.01-2.73c0.56-0.56,1.13-0.94,1.69-1.51l0.38-0.19l0.66-0.56l0.09-0.19l0.75-0.38l0.56-0.38l0.28-0.09
		l0.66-0.56l0.38-0.19l0.38-0.38l0.85-0.38c7.06-4.24,15.16-6.59,23.91-6.59s16.95,2.35,23.91,6.59l0.85,0.38l0.47,0.38l0.28,0.19
		l0.66,0.56l0.38,0.09l0.57,0.38l0.66,0.38l0.09,0.19l0.66,0.56l0.38,0.19c0.56,0.56,1.13,0.94,1.69,1.51h0.09
		c0.94,0.85,1.98,1.79,2.92,2.73l368.56,368.65c18.45,18.17,18.45,48.2,0,66.56c-18.36,18.36-48.1,18.36-66.56,0l-288.54-288.63
		v1158.87c0,26.08-21.09,47.07-47.07,47.07c-25.98,0-47.07-20.99-47.07-47.07V2616.49L-9997.41,2905.12z"/>
	<path class="st0" d="M-6674.96,3439.81c-18.36-18.36-18.36-48.2,0-66.56c18.36-18.36,48.2-18.36,66.56,0l288.54,288.45V2502.83
		c0-25.98,21.18-47.07,47.07-47.07c26.08,0,47.07,21.09,47.07,47.07V3661.7l288.63-288.45c18.36-18.36,48.2-18.36,66.56,0
		c18.36,18.36,18.36,48.2,0,66.56l-368.65,368.65c-0.85,0.94-1.88,1.88-2.92,2.73h-0.09c-0.56,0.56-1.13,0.94-1.6,1.32l-0.38,0.38
		l-0.75,0.56l-0.75,0.56l-0.56,0.38l-0.28,0.09l-0.66,0.56l-0.38,0.19l-0.47,0.19l-0.75,0.56c-7.06,4.05-15.16,6.4-24.01,6.4
		c-8.66,0-16.85-2.35-23.82-6.4l-0.85-0.56l-0.47-0.19l-0.38-0.19l-0.56-0.56l-0.38-0.09l-0.56-0.38l-0.66-0.56h-0.09l-0.66-0.56
		l-0.38-0.38c-0.66-0.38-1.13-0.75-1.69-1.32h-0.09c-1.04-0.85-1.98-1.79-2.92-2.73L-6674.96,3439.81z"/>
	<path class="st0" d="M-3129.4,6193.75c-18.45,18.45-48.29,18.45-66.65,0c-18.36-18.36-18.36-48.11,0-66.56l278.75-278.75
		c0.94-0.85,1.98-1.79,2.92-2.73h0.19c0.47-0.56,1.03-0.94,1.6-1.51l0.38-0.19l0.66-0.47h0.09l0.75-0.56l0.56-0.38l0.28-0.19
		l0.66-0.56l0.28-0.19l0.47-0.19l0.85-0.56c6.97-4.24,15.16-6.4,23.91-6.4c8.75,0,16.95,2.17,23.91,6.4l0.85,0.56l0.38,0.19
		l0.38,0.19l0.66,0.56l0.28,0.19l0.57,0.38l0.75,0.56h0.09l0.66,0.47l0.38,0.19c0.57,0.57,1.13,0.94,1.69,1.51h0.09
		c0.94,0.94,1.98,1.88,2.92,2.73l278.66,278.75c18.45,18.45,18.45,48.2,0,66.56c-18.36,18.45-48.11,18.45-66.56,0l-198.64-198.54
		v718.2c0,25.89-21.09,47.07-47.07,47.07c-25.98,0-47.07-21.18-47.07-47.07v-718.2L-3129.4,6193.75z M-2258.6,6736.18
		c0-25.89,21.09-46.88,47.07-46.88c25.98,0,47.07,20.99,47.07,46.88v266.04c0,60.53-24.76,115.51-64.58,155.24
		c-39.73,39.82-94.71,64.49-155.14,64.49h-999.02c-60.44,0-115.42-24.67-155.24-64.49c-39.82-39.73-64.49-94.71-64.49-155.24
		v-266.04c0-25.89,21.09-46.88,47.07-46.88c25.98,0,47.07,20.99,47.07,46.88v266.04c0,34.36,14.22,65.8,36.9,88.68
		c22.78,22.78,54.22,36.9,88.68,36.9h999.02c34.46,0,65.9-14.12,88.59-36.9c22.88-22.88,37-54.32,37-88.68V6736.18z"/>
	<path class="st0" d="M193.05,6467.51c-18.36-18.36-18.36-48.11,0-66.56c18.36-18.36,48.2-18.36,66.56,0l198.64,198.82v-718.2
		c0-26.08,21.09-47.07,47.07-47.07c26.08,0,47.07,20.99,47.07,47.07v718.2l198.73-198.82c18.36-18.36,48.1-18.36,66.56,0
		c18.36,18.45,18.36,48.2,0,66.56l-278.65,278.75l-3.01,2.82h-0.09c-0.47,0.56-1.04,0.85-1.69,1.41l-0.38,0.19l-0.66,0.57h-0.09
		l-0.75,0.56l-0.47,0.38l-0.28,0.38l-0.66,0.38l-0.38,0.19l-0.47,0.19l-0.85,0.47c-6.97,4.24-15.16,6.69-23.91,6.69
		c-8.66,0-16.85-2.45-23.91-6.69l-0.75-0.47l-0.47-0.19l-0.38-0.19l-0.66-0.38l-0.28-0.38l-0.56-0.38l-0.75-0.56h-0.09l-0.56-0.57
		l-0.38-0.19c-0.57-0.56-1.13-0.85-1.7-1.41h-0.09c-1.04-0.94-1.98-1.88-2.92-2.82L193.05,6467.51z M1130.4,6736.18
		c0-25.89,21.18-46.88,47.07-46.88c25.98,0,47.07,20.99,47.07,46.88v266.04c0,60.53-24.67,115.51-64.49,155.24
		c-39.73,39.82-94.7,64.49-155.24,64.49H5.9c-60.53,0-115.42-24.67-155.33-64.49c-39.73-39.73-64.39-94.71-64.39-155.24v-266.04
		c0-25.89,20.99-46.88,47.07-46.88c25.89,0,47.07,20.99,47.07,46.88v266.04c0,34.36,14.12,65.8,36.81,88.68
		c22.78,22.78,54.22,36.9,88.77,36.9h998.92c34.45,0,65.9-14.12,88.68-36.9c22.88-22.88,36.9-54.32,36.9-88.68V6736.18z"/>
	<path class="st0" d="M7049.2,3630.85c18.36,18.36,18.36,48.2,0,66.56c-18.26,18.36-48.2,18.36-66.46,0l-368.28-368.28
		c-8.94-8.66-14.4-20.62-14.4-33.98c0-7.44,1.6-14.4,4.71-20.62l0.19-0.38l0.28-0.57l0.28-0.75l0.19-0.19l0.38-0.75l0.28-0.28
		l0.38-0.56l0.09-0.38c1.13-1.88,2.45-3.67,3.86-5.37l0.19-0.19c0.47-0.56,0.94-1.03,1.22-1.6h0.09c0.47-0.56,1.04-0.94,1.51-1.51
		l0.09-0.19l368.94-368.84c18.26-18.36,48.2-18.36,66.46,0c18.36,18.36,18.36,48.2,0,66.56l-288.45,288.54h971.53
		c38.6,0,73.71-15.81,99.23-41.23c25.42-25.51,41.23-60.63,41.23-99.32v-493.3c0-26.08,21.09-47.07,47.07-47.07
		c25.98,0,47.07,20.99,47.07,47.07v493.3c0,64.58-26.36,123.42-68.81,165.88c-42.65,42.46-101.29,68.82-165.78,68.82h-971.53
		L7049.2,3630.85z"/>
	<path class="st0" d="M3378.5,6801.84c25.98,0,47.07,21.09,47.07,47.07c0,25.89-21.09,47.07-47.07,47.07
		c-90.28,0-172.09-37.84-231.4-97.44c-60.72-60.72-98.28-144.03-98.28-232.24c0-84.92,29.75-159.57,78.89-216.62
		c43.3-49.8,101.58-85.67,167.66-102.61c10.26-58.84,39.26-111.37,80.49-151.1c49.8-48.01,117.3-77.38,191.67-77.38
		c24.76,0,48.95,3.29,72.02,9.51c4.33,1.13,8.47,2.35,12.71,3.67c22.78-63.83,62.51-119.46,113.63-161.83
		c64.58-53.47,147.43-85.67,237.8-85.67c103.08,0,196.47,41.8,264.06,109.39c64.2,64.2,105.25,151.94,109.11,249
		c98.56,3.48,187.53,44.81,252.86,110.14c68.06,68.16,110.24,162.3,110.24,266.42c0,104.02-42.17,198.17-110.24,266.42
		c-68.25,68.25-162.49,110.33-266.6,110.33c-25.89,0-47.07-21.18-47.07-47.07c0-25.98,21.18-47.07,47.07-47.07
		c78.14,0,148.83-31.63,199.95-82.75c51.12-51.12,82.75-121.91,82.75-199.86c0-78.14-31.63-148.74-82.75-199.86
		c-51.12-51.12-121.82-82.75-199.95-82.75c-6.59,0-11.58,0-14.97,0.19c-4.9,0.19-9.98,0.75-15.06,1.32v-0.19
		c-3.01,0.38-6.12,0.38-9.32,0.19c-25.79-2.64-44.62-25.61-42.17-51.49c0.47-4.61,0.85-9.23,1.13-13.84v-0.75
		c0.19-3.11,0.28-7.91,0.28-14.31c0-77.01-31.25-146.86-81.81-197.51c-50.55-50.55-120.41-81.81-197.51-81.81
		c-67.69,0-129.72,24.1-177.93,64.02c-48.48,40.1-83.22,96.12-96.02,160.13c-0.75,6.12-2.73,12.14-6.03,17.89
		c-13.08,22.4-41.99,30.12-64.39,17.04c-13.84-8.1-28.62-14.5-44.06-18.55c-15.06-4.05-31.07-6.21-47.73-6.21
		c-49.24,0-93.86,19.3-126.52,50.93c-32.48,31.25-53.38,74.28-55.73,122.19c0.38,23.35-16.66,43.78-40.39,47.07
		c-58.46,8.47-109.86,36.43-146.2,78.14c-34.74,40.29-55.73,93.86-55.73,155.24c0,62.7,27.02,122.1,70.7,165.69
		C3256.21,6774.63,3314.48,6801.84,3378.5,6801.84 M3627.69,7024.86c-18.36-18.36-18.36-48.2,0-66.56
		c18.36-18.36,48.2-18.36,66.56,0l153.07,153.17v-582.35c0-26.08,21.09-47.07,47.07-47.07c25.98,0,47.07,20.99,47.07,47.07v582.35
		l153.07-153.17c18.36-18.36,48.2-18.36,66.56,0c18.36,18.36,18.36,48.2,0,66.56l-233.18,233.19c-0.85,0.85-1.88,1.79-2.92,2.73
		h-0.09c-0.57,0.56-1.04,0.94-1.6,1.41l-0.38,0.19l-0.66,0.56h-0.09l-0.75,0.56l-0.56,0.38l-0.28,0.19l-0.66,0.56l-0.28,0.19
		l-0.47,0.19l-0.85,0.56c-6.97,4.24-15.16,6.4-23.91,6.4c-8.76,0-16.94-2.17-23.91-6.4l-0.94-0.56l-0.38-0.19l-0.28-0.19l-0.66-0.56
		l-0.28-0.19l-0.56-0.38l-0.75-0.56h-0.1l-0.66-0.56l-0.38-0.19c-0.56-0.47-1.13-0.85-1.69-1.41c-1.13-0.94-2.07-1.88-3.01-2.73
		L3627.69,7024.86z"/>
	<path class="st0" d="M6767.56,6801.78c25.98,0,47.07,21.18,47.07,47.07c0,25.98-21.09,47.07-47.07,47.07
		c-90.28,0-171.99-37.84-231.4-97.43c-60.72-60.63-98.28-143.94-98.28-232.24c0-84.92,29.75-159.57,78.98-216.52
		c43.21-49.89,101.48-85.67,167.57-102.61c10.26-58.84,39.26-111.46,80.49-151.19c49.71-47.92,117.3-77.38,191.67-77.38
		c24.76,0,48.95,3.29,72.02,9.6c4.33,1.04,8.47,2.35,12.71,3.67c22.78-63.83,62.51-119.56,113.63-161.83
		c64.58-53.47,147.42-85.67,237.8-85.67c103.08,0,196.47,41.7,264.06,109.39c64.2,64.2,105.25,151.85,109.11,249
		c98.56,3.48,187.53,44.81,252.86,110.05c68.06,68.25,110.24,162.39,110.24,266.42c0,104.12-42.17,198.26-110.24,266.51
		c-68.25,68.16-162.49,110.24-266.51,110.24c-25.98,0-47.07-21.09-47.07-47.07c0-25.89,21.09-47.07,47.07-47.07
		c78.04,0,148.74-31.54,199.86-82.66c51.12-51.12,82.75-121.91,82.75-199.95c0-78.14-31.63-148.74-82.75-199.86
		c-51.12-51.12-121.82-82.65-199.86-82.65c-6.59,0-11.67,0-15.06,0.19c-4.89,0.09-9.98,0.66-15.06,1.22v-0.19
		c-3.01,0.38-6.12,0.38-9.32,0.19c-25.79-2.54-44.62-25.51-42.17-51.49c0.47-4.61,0.85-9.13,1.13-13.74v-0.75
		c0.19-3.11,0.28-7.91,0.28-14.31c0-77.1-31.25-146.95-81.81-197.51c-50.55-50.55-120.41-81.81-197.51-81.81
		c-67.69,0-129.63,24.1-177.93,64.02c-48.48,40.01-83.22,96.12-96.02,160.13c-0.75,6.02-2.64,12.14-6.12,17.79
		c-12.99,22.41-41.8,30.12-64.3,17.13c-13.84-8.1-28.62-14.5-44.06-18.54c-15.06-4.05-31.07-6.31-47.73-6.31
		c-49.23,0-93.86,19.3-126.52,50.93c-32.48,31.25-53.38,74.28-55.73,122.29c0.38,23.35-16.66,43.78-40.39,47.07
		c-58.46,8.47-109.86,36.43-146.2,78.14c-34.74,40.29-55.73,93.76-55.73,155.14c0,62.79,27.11,122.1,70.7,165.69
		C6645.27,6774.58,6703.54,6801.78,6767.56,6801.78 M7083.3,6795.76c-18.36,18.36-48.2,18.36-66.56,0
		c-18.36-18.36-18.36-48.2,0-66.56l233.09-233c0.94-1.04,1.98-1.98,3.01-2.92c0.56-0.38,1.03-0.94,1.6-1.32l0.47-0.28l0.66-0.56h0.1
		l0.75-0.56l0.56-0.38l0.28-0.19l0.56-0.38l0.38-0.19l0.47-0.38l0.85-0.56c6.97-4.05,15.16-6.4,23.91-6.4
		c8.76,0,16.95,2.35,23.91,6.4l0.85,0.56l0.47,0.38l0.28,0.19l0.66,0.38l0.28,0.19l0.56,0.38l0.75,0.56h0.09l0.66,0.56l0.38,0.28
		c0.56,0.38,1.13,0.94,1.6,1.32h0.09c1.04,0.94,2.07,1.88,3.01,2.92l233.09,233c18.36,18.36,18.36,48.2,0,66.56
		c-18.36,18.36-48.2,18.36-66.56,0l-153.07-152.98v582.35c0,25.89-21.09,46.88-47.07,46.88c-25.98,0-47.07-20.99-47.07-46.88
		v-582.35L7083.3,6795.76z"/>
</g>
</svg>
