<?xml version="1.0" encoding="utf-8"?>
<!-- Generator: Adobe Illustrator 24.3.0, SVG Export Plug-In . SVG Version: 6.00 Build 0)  -->
<svg version="1.1" id="Laag_1" xmlns="http://www.w3.org/2000/svg" xmlns:xlink="http://www.w3.org/1999/xlink" x="0px" y="0px"
	 viewBox="0 0 1024 1024" style="enable-background:new 0 0 1024 1024;" xml:space="preserve">
<style type="text/css">
	.st0{clip-path:url(#SVGID_2_);fill:none;stroke:#000000;stroke-width:36.457;stroke-miterlimit:10;}
	
		.st1{clip-path:url(#SVGID_2_);fill:none;stroke:#000000;stroke-width:36.457;stroke-linecap:round;stroke-linejoin:round;stroke-miterlimit:10;}
	.st2{clip-path:url(#SVGID_2_);fill:none;stroke:#000000;stroke-width:36.457;stroke-linejoin:round;stroke-miterlimit:10;}
	.st3{fill:none;stroke:#000000;stroke-width:36.457;stroke-linejoin:round;stroke-miterlimit:10;}
	.st4{clip-path:url(#SVGID_4_);fill:none;stroke:#000000;stroke-width:36.457;stroke-linejoin:round;stroke-miterlimit:10;}
	.st5{clip-path:url(#SVGID_6_);fill:none;stroke:#000000;stroke-width:36.457;stroke-miterlimit:10;}
</style>
<g>
	<defs>
		<rect id="SVGID_1_" x="50" y="75.04" width="867.05" height="874.96"/>
	</defs>
	<clipPath id="SVGID_2_">
		<use xlink:href="#SVGID_1_"  style="overflow:visible;"/>
	</clipPath>
	<path class="st0" d="M-2017.72,749.49c0,20.12-16.33,36.46-36.46,36.46h-729.14c-20.12,0-36.46-16.33-36.46-36.46V257.32
		c0-20.12,16.33-36.46,36.46-36.46h729.14c20.12,0,36.46,16.33,36.46,36.46V749.49z"/>
	<path class="st0" d="M-2072.41,275.55l-256.11,256.11c-49.84,49.84-130.62,49.84-180.46,0l-256.11-256.11"/>
	<path class="st1" d="M-541.22,804.17c0-187.99-152.59-401.02-346.34-401.02h-36.46v-127.6l-291.65,236.97l291.65,236.97V603.66
		h54.68c145.06,0,255.2,112.8,255.2,200.51"/>
	<path class="st2" d="M734.62,248.05l128.2,46.67c28.38,10.33,43.02,41.71,32.68,70.09L702.25,895.81
		c-10.3,28.25-41.83,42.97-70.11,32.68l-274.06-99.76c-28.27-10.28-42.96-41.82-32.68-70.09l56.42-154.98"/>
</g>
<line class="st3" x1="554.32" y1="822.56" x2="485.8" y2="797.63"/>
<g>
	<defs>
		<rect id="SVGID_3_" x="50" y="75.04" width="867.05" height="874.96"/>
	</defs>
	<clipPath id="SVGID_4_">
		<use xlink:href="#SVGID_3_"  style="overflow:visible;"/>
	</clipPath>
	<line class="st4" x1="880.59" y1="399.06" x2="750.5" y2="351.71"/>
</g>
<line class="st3" x1="727.18" y1="827.29" x2="350.35" y2="690.14"/>
<g>
	<defs>
		<rect id="SVGID_5_" x="50" y="75.04" width="867.05" height="874.96"/>
	</defs>
	<clipPath id="SVGID_6_">
		<use xlink:href="#SVGID_5_"  style="overflow:visible;"/>
	</clipPath>
	<path class="st5" d="M698.31,323.35c0-127.07-132.54-230.08-296.07-230.08c-163.51,0-296.07,103.01-296.07,230.08
		s132.56,230.08,296.07,230.08c18.08,0,35.71-1.46,52.9-3.88c32.99,27.49,76.67,56.73,135.73,87.33
		c21.53,11.16,27.32,3.76,16.06-17.7c-20.29-38.66-28.53-76.16-31.21-109.68C649.89,467.68,698.31,400,698.31,323.35z"/>
	<path class="st5" d="M570.71,403.15c0,20.12-16.33,36.46-36.46,36.46h-255.2c-20.12,0-36.46-16.33-36.46-36.46V239.09
		c0-20.12,16.33-36.46,36.46-36.46h255.2c20.12,0,36.46,16.33,36.46,36.46V403.15z"/>
	<path class="st5" d="M561.06,246.54l-135.51,90.54c-13.51,9.02-33.12,9.02-46.63,0l-135.49-90.54"/>
</g>
</svg>
