<?xml version="1.0" encoding="utf-8"?>
<!-- Generator: Adobe Illustrator 24.3.0, SVG Export Plug-In . SVG Version: 6.00 Build 0)  -->
<svg version="1.1" id="Laag_1" xmlns="http://www.w3.org/2000/svg" xmlns:xlink="http://www.w3.org/1999/xlink" x="0px" y="0px"
	 viewBox="0 0 1024 1024" style="enable-background:new 0 0 1024 1024;" xml:space="preserve">
<style type="text/css">
	.st0{clip-path:url(#SVGID_2_);}
	.st1{clip-path:url(#SVGID_2_);fill:#FFFFFF;}
</style>
<g>
	<defs>
		<rect id="SVGID_1_" x="51.42" y="56" width="924" height="918"/>
	</defs>
	<clipPath id="SVGID_2_">
		<use xlink:href="#SVGID_1_"  style="overflow:visible;"/>
	</clipPath>
	<path class="st0" d="M4632.94,2265.11h-211.98h-274.32c-7.91,0-15.96,0.31-23.84-0.39c-37.39-3.32-70.5-30.54-81.42-66.37
		c-7.44-24.43-4.2-53.58-4.2-78.8v-306.29v-120.51c0-7.62-0.1-15.25,0-22.88c0.4-31.58,15.56-61.57,42.16-79.16
		c28.04-18.55,59.26-15.95,91-15.95h133.14h295.85c33.67,0,66.31-1.49,94.21,22.06c22.04,18.61,33.71,45.3,33.98,73.93
		c0.08,8.75,0,17.51,0,26.27v290.61v137.52c0,27.02,3.32,57.65-7.75,82.93C4704.65,2242.65,4670.34,2264.48,4632.94,2265.11
		c-16.63,0.28-16.68,26.15,0,25.87c67.86-1.13,120.19-56.05,120.45-123.37c0.12-29.96,0-59.93,0-89.89v-324.66
		c0-27.52,0.29-55.07,0-82.59c-0.69-66.72-53.9-120.72-120.81-121.57c-78.22-1-156.51,0-234.73,0c-87.14,0-174.29-0.17-261.42,0
		c-62.04,0.11-116.48,43.11-124.16,106.21c-3.04,24.99-0.95,51.23-0.95,76.31v320.51v108.54c0,13.98,0.46,27.81,4.17,41.44
		c10.23,37.59,38.74,68.08,75.07,81.72c27.71,10.4,59.81,7.35,88.95,7.35h145.19h290.38h17.87
		C4649.59,2290.98,4649.62,2265.11,4632.94,2265.11"/>
	<path class="st0" d="M4494.31,1708.25v160.16c4.31-4.31,8.62-8.63,12.94-12.94h-218.88h-31.73c4.31,4.31,8.62,8.62,12.94,12.94
		v-160.16c0-6.99-5.93-12.94-12.94-12.94h-97.92c-6.99,0-12.94,5.93-12.94,12.94v371.13v52.25c0,6.99,5.93,12.94,12.94,12.94h97.92
		c6.99,0,12.94-5.93,12.94-12.94v-173.58c-4.31,4.31-8.62,8.63-12.94,12.94h218.88h31.73c-4.31-4.31-8.63-8.62-12.94-12.94v173.58
		c0,6.99,5.92,12.94,12.94,12.94H4606c6.99,0,12.94-5.93,12.94-12.94V1760.5v-52.25c0-6.99-5.93-12.94-12.94-12.94h-98.76
		c-16.65,0-16.68,25.87,0,25.87H4606c-4.31-4.31-8.63-8.62-12.94-12.94v371.13v52.25c4.31-4.31,8.62-8.62,12.94-12.94h-98.76
		c4.31,4.31,8.62,8.63,12.94,12.94v-173.58c0-6.99-5.93-12.94-12.94-12.94h-218.88h-31.73c-6.99,0-12.94,5.93-12.94,12.94v173.58
		c4.31-4.31,8.62-8.62,12.94-12.94h-97.92c4.31,4.31,8.62,8.63,12.94,12.94V1760.5v-52.25c-4.31,4.31-8.62,8.62-12.94,12.94h97.92
		c-4.31-4.31-8.62-8.62-12.94-12.94v160.16c0,6.99,5.93,12.94,12.94,12.94h218.88h31.73c6.99,0,12.94-5.93,12.94-12.94v-160.16
		C4520.18,1691.61,4494.31,1691.58,4494.31,1708.25"/>
	<path class="st0" d="M740.15,1644.77h-76.84c4.31,4.31,8.62,8.62,12.94,12.94c-4.2-78.7-68.4-139-146.98-139.31
		c-54.41-0.22-114.26-7.42-161.31,25.65c-37.58,26.41-59.98,67.93-62.42,113.66c4.31-4.31,8.62-8.62,12.94-12.94
		c-25.47,0-50.95-0.24-76.42,0c-46.5,0.44-91.58,20.29-121.92,55.88c-26,30.49-39.01,68.14-39.11,108.04c-0.07,26.1,0,52.2,0,78.31
		v100.37c0,27.3,0.04,54.04,9.87,80.12c17.03,45.15,53.2,80.74,98.78,96.72c21.13,7.41,42.9,8.69,64.99,8.69h364.57
		c39.88,0,79.78,0.3,119.66,0c88.63-0.68,161.02-72.12,161.88-160.98c0.55-56.74,0-113.51,0-170.25c0-23.86,1.27-48.09-3.93-71.54
		c-10.34-46.63-42.88-87.79-85.79-108.74C788.82,1650.55,764.84,1645.08,740.15,1644.77c-16.66-0.2-16.67,25.67,0,25.87
		c46.82,0.57,90.64,24.72,115.1,64.92c15.83,26.03,19.64,54.01,19.64,83.72v176.21c0,28.26-2.28,55.19-16.23,80.69
		c-22.25,40.68-64.77,68.32-111.28,70.65c-31.88,1.6-64.13,0.18-96.03,0.18h-367.4c-13.28,0-26.57,0.05-39.85,0
		c-33.65-0.11-66.16-11.17-91.47-33.77c-29.55-26.38-45.57-63.26-45.74-102.72c-0.1-22.46,0-44.91,0-67.37v-98.41
		c0-20.45-1.75-42.39,1.97-62.59c8.26-44.88,38.95-83.71,81.23-101.32c30.72-12.79,63.83-10.2,96.32-10.2h32.05
		c7.27,0,12.56-5.94,12.94-12.94c3.54-66.26,58.48-113.32,123.33-113.43c45.65-0.09,98.2-7.34,138.88,17.44
		c33.65,20.5,54.66,56.81,56.76,95.99c0.37,6.98,5.62,12.94,12.94,12.94h76.84C756.8,1670.65,756.83,1644.77,740.15,1644.77"/>
	<path class="st0" d="M630.22,1940.58h-94.65c-6.99,0-12.94,5.93-12.94,12.94v94.65c4.31-4.31,8.62-8.62,12.94-12.94H446.2
		c4.31,4.31,8.63,8.63,12.94,12.94v-94.65c0-6.99-5.93-12.94-12.94-12.94h-94.65c4.31,4.31,8.62,8.62,12.94,12.94v-89.37
		c-4.31,4.31-8.63,8.62-12.94,12.94h94.65c7,0,12.94-5.93,12.94-12.94v-94.65l-12.94,12.94h89.37c-4.31-4.31-8.62-8.63-12.94-12.94
		v94.65c0,6.99,5.93,12.94,12.94,12.94h94.65c-4.31-4.31-8.62-8.63-12.94-12.94v89.37c0,16.65,25.87,16.68,25.87,0v-89.37
		c0-6.99-5.93-12.94-12.94-12.94h-94.65c4.31,4.31,8.62,8.62,12.94,12.94v-94.65c0-6.99-5.93-12.94-12.94-12.94H446.2
		c-6.99,0-12.94,5.93-12.94,12.94v94.65c4.31-4.31,8.63-8.63,12.94-12.94h-94.65c-6.99,0-12.94,5.93-12.94,12.94v89.37
		c0,6.99,5.92,12.94,12.94,12.94h94.65c-4.31-4.31-8.62-8.62-12.94-12.94v94.65c0,6.99,5.93,12.94,12.94,12.94h89.37
		c6.99,0,12.94-5.92,12.94-12.94v-94.65c-4.31,4.31-8.62,8.62-12.94,12.94h94.65C646.87,1966.45,646.9,1940.58,630.22,1940.58"/>
	<path class="st0" d="M393.47,1657.71c3.68-50.91,56.2-57.94,97.41-57.94c41.22,0,93.75,7.02,97.43,57.94
		c4.31-4.31,8.63-8.62,12.94-12.94H380.53c-16.65,0-16.67,25.87,0,25.87h220.71c6.62,0,13.44-5.94,12.94-12.94
		c-2.14-29.65-16.22-55.15-43.13-69.1c-24.83-12.88-52.73-14.7-80.17-14.7c-27.44,0-55.34,1.82-80.16,14.7
		c-26.91,13.96-40.98,39.45-43.12,69.1C366.4,1674.32,392.28,1674.25,393.47,1657.71"/>
	<path class="st0" d="M4748.69,508.49c-32.58,78.27-99.31,134.92-165.67,184.38c-67.6,50.39-137.3,98.16-207.1,145.44h13.06
		c-66.75-45.78-133.83-91.17-198.95-139.27c-62.01-45.8-124.64-96.28-161.87-165.27c-37.68-69.81-44.12-156.26-11.7-229.35
		c30.66-69.11,94.53-123.84,173.47-117.17c88.35,7.46,158.01,81.32,179.96,163.95c3.27,12.32,21.66,12.31,24.95,0
		c20.77-77.8,81.84-145.55,162.67-161.49c102.95-20.3,183.91,65.42,205.4,159.22C4775.12,402.15,4769.06,458.08,4748.69,508.49
		c-6.24,15.43,18.78,22.14,24.95,6.88c40.07-99.15,23.44-220.7-53.53-297.81c-37.81-37.88-88.42-59.99-142.38-56.41
		c-47.92,3.18-92.83,23.62-128.89,54.92c-38.55,33.46-65.82,79.07-78.95,128.24h24.95c-20.94-78.84-79.54-148.07-158.13-173.65
		c-39.53-12.87-84.08-13.89-123.15,1.25c-36,13.96-66.18,38.89-89.5,69.4c-52.72,68.94-66.73,161.44-43.22,244.3
		c23.75,83.69,84.18,148.04,150.65,201.06c78.14,62.32,162.06,117.5,244.43,173.98c3.55,2.44,9.5,2.41,13.06,0
		c73.62-49.87,147.33-100.14,218.25-153.81c68.49-51.84,132.78-110.67,166.4-191.47C4780.02,500.02,4755,493.32,4748.69,508.49"/>
	<path class="st0" d="M4613.08,539.39c-23.26,0.21-46.52,0.2-69.79,0.28c4.16,3.17,8.32,6.33,12.48,9.5
		c-7.7-23.08-15.4-46.16-23.1-69.24c-3.19-9.55-18.67-13.93-23.65-3.09c-18.72,40.75-37.45,81.49-56.17,122.24
		c7.88,1.03,15.77,2.06,23.65,3.09l-47.76-164.02c-3.3-11.35-22.83-13.26-24.95,0c-12.61,79.07-25.21,158.14-37.82,237.21
		c-1.78,11.2-3.57,22.39-5.35,33.59h24.95c-14.85-65.72-29.69-131.45-44.54-197.17c-2.1-9.31-4.21-18.62-6.31-27.93
		c-2.88-12.78-21.56-11.85-24.95,0c-15.28,53.39-30.55,106.77-45.82,160.16h24.95L4253.95,437c-2.23-13.26-21.55-11.33-24.95,0
		c-11.1,37.03-22.2,74.05-33.3,111.08c4.16-3.17,8.31-6.33,12.47-9.5c-18.81,0.28-37.62,0.57-56.44,0.8
		c-16.64,0.2-16.68,26.07,0,25.87c18.81-0.22,37.62-0.52,56.44-0.8c5.8-0.09,10.82-3.98,12.47-9.5
		c11.1-37.03,22.2-74.05,33.3-111.08H4229c11.65,69,23.3,137.99,34.94,206.99c2.22,13.15,21.67,11.45,24.95,0
		c15.27-53.39,30.55-106.77,45.82-160.16h-24.95c14.85,65.72,29.69,131.45,44.54,197.17c2.11,9.31,4.21,18.62,6.31,27.93
		c2.69,11.9,22.91,12.78,24.95,0c12.61-79.07,25.21-158.14,37.82-237.21c1.78-11.2,3.57-22.39,5.35-33.59h-24.95
		c15.92,54.68,31.84,109.35,47.76,164.02c2.87,9.85,18.79,13.66,23.65,3.09c18.72-40.75,37.45-81.49,56.17-122.24
		c-7.88-1.03-15.76-2.06-23.65-3.09c7.7,23.08,15.4,46.17,23.1,69.25c1.81,5.43,6.57,9.52,12.47,9.5
		c23.26-0.08,46.53-0.06,69.79-0.28C4629.72,565.11,4629.76,539.23,4613.08,539.39"/>
	<path class="st0" d="M4151.49,3171.1c-63.43,111.52-39.13,255.92,60.2,338.46c100.2,83.26,251.16,80.92,348.35-6.06
		c93.54-83.71,115.35-223.99,53.11-332.52c-33.54-58.48-67.99-116.47-101.97-174.69c-38.5-65.95-75.82-132.78-115.57-197.99
		c-0.72-1.17-1.39-2.38-2.09-3.57c-4.9-8.39-17.44-8.39-22.34,0l-192.17,329.2L4151.49,3171.1c-8.41,14.41,13.94,27.45,22.34,13.06
		l192.17-329.2c9.17-15.72,18.35-31.44,27.53-47.16h-22.34c30.13,51.62,60.27,103.24,90.4,154.86
		c40.25,68.96,80.5,137.92,120.76,206.87c17.6,30.14,31.97,61,37.98,95.8c9.86,57.09-3.06,116.94-33.38,166.03
		c-64.07,103.75-201.58,143.98-311.26,89.39c-106.48-53-159.99-180.43-121.65-293.28c5.14-15.11,11.91-29.46,19.8-43.32
		C4182.07,3169.66,4159.73,3156.61,4151.49,3171.1"/>
	<path class="st0" d="M4494.19,3469.66c62.07-51.62,97.13-130.58,86.99-211.45c-2.05-16.3-27.95-16.51-25.87,0
		c9.4,74.96-21.84,145.27-79.41,193.15C4463.08,3462.02,4481.47,3480.24,4494.19,3469.66"/>
	<path class="st0" d="M2847.9,2913.22c25.12-23.81,56.06-20.44,87.57-20.44h122.69c71.12,0,142.27-0.63,213.39,0
		c29.31,0.26,56.71,17.15,67.18,45.23c3.94,10.56,4.38,21.24,4.38,32.26v77.62v271.48c0,54.01,1.05,108.13,0,162.13
		c-0.75,38.62-31.63,68.83-70.09,69.58c-6.05,0.12-12.11,0-18.15,0h-108.61h-238.61c-11.86,0-23.35-0.14-34.76-4.34
		c-27.82-10.26-45.29-37.11-45.58-66.31c-0.2-19.78,0-39.57,0-59.35v-261.97c0-64.49-0.33-128.99,0-193.48
		C2827.4,2945.5,2833.82,2927.9,2847.9,2913.22c11.53-12.02-6.74-30.34-18.3-18.29c-18.27,19.05-27.96,42.7-28.18,69.1
		c-0.06,7.4,0,14.81,0,22.21v103.11v286.05v92.12c0,4.66-0.1,9.32,0,13.98c0.78,38.46,23.5,73.22,59.27,88.09
		c25.78,10.72,56.8,7.37,84.21,7.37h133.85h138.47c24.44,0,51.35,2.78,75.52-2.05c37.83-7.56,68.81-39.67,74.87-77.76
		c1.38-8.65,1.37-17.11,1.37-25.78v-86.51v-284.05v-108.41c0-29.46,1.3-58.23-16.88-83.9c-18.61-26.29-47.71-41.07-79.78-41.59
		c-8.18-0.13-16.36,0-24.54,0h-120.25c-76.01,0-152.04-0.54-228.06,0c-26.66,0.19-50.5,9.66-69.87,28.03
		C2817.5,2906.4,2835.81,2924.68,2847.9,2913.22"/>
	<path class="st1" d="M3017.89,2844.88c9.14-29.17,36.68-49.46,67.32-49.46c30.64,0,58.18,20.29,67.32,49.46h28.13v26.48v2.62V2930
		h-190.9v-56.03v-2.62v-26.48H3017.89z"/>
	<path class="st0" d="M3030.37,2848.32c17.79-51.96,91.9-51.96,109.69,0c1.86,5.43,6.53,9.5,12.47,9.5h28.13
		c-4.31-4.31-8.62-8.63-12.94-12.94V2930c4.31-4.31,8.62-8.62,12.94-12.94h-190.9c4.31,4.31,8.62,8.63,12.94,12.94v-85.12
		c-4.31,4.31-8.63,8.62-12.94,12.94h28.13c16.65,0,16.68-25.87,0-25.87h-28.13c-6.99,0-12.94,5.93-12.94,12.94V2930
		c0,6.99,5.92,12.94,12.94,12.94h190.9c6.99,0,12.94-5.93,12.94-12.94v-85.12c0-6.99-5.93-12.94-12.94-12.94h-28.13
		c4.16,3.17,8.32,6.33,12.48,9.5c-11.74-34.27-42.91-58.96-79.8-58.96c-36.89,0-68.06,24.7-79.8,58.96
		C3000.01,2857.23,3024.99,2864.01,3030.37,2848.32"/>
	<path class="st0" d="M3206.46,3146.33h73.38c6.99,0,12.94-5.93,12.94-12.94v-73.38c0-6.99-5.93-12.94-12.94-12.94h-73.38
		c-6.99,0-12.94,5.93-12.94,12.94v73.38c0,16.65,25.87,16.68,25.87,0v-73.38l-12.94,12.94h73.38l-12.94-12.94v73.38l12.94-12.94
		h-73.38C3189.81,3120.46,3189.78,3146.33,3206.46,3146.33"/>
	<path class="st0" d="M3206.46,3428.78h73.38c6.99,0,12.94-5.93,12.94-12.94v-73.38c0-6.99-5.93-12.94-12.94-12.94h-73.38
		c-6.99,0-12.94,5.93-12.94,12.94v73.38c0,16.65,25.87,16.68,25.87,0v-73.38l-12.94,12.94h73.38l-12.94-12.94v73.38
		c4.31-4.31,8.63-8.62,12.94-12.94h-73.38C3189.81,3402.91,3189.78,3428.78,3206.46,3428.78"/>
	<path class="st0" d="M3206.46,3287.55h73.38c6.99,0,12.94-5.92,12.94-12.94v-73.38c0-6.99-5.93-12.94-12.94-12.94h-73.38
		c-6.99,0-12.94,5.93-12.94,12.94v73.38c0,16.65,25.87,16.68,25.87,0v-73.38c-4.31,4.31-8.63,8.62-12.94,12.94h73.38
		c-4.31-4.31-8.62-8.62-12.94-12.94v73.38c4.31-4.31,8.63-8.62,12.94-12.94h-73.38C3189.81,3261.68,3189.78,3287.55,3206.46,3287.55
		"/>
	<path class="st1" d="M3076.55,2850.2c0,4.79,3.88,8.67,8.67,8.67c4.78,0,8.67-3.88,8.67-8.67c0-4.79-3.88-8.67-8.67-8.67
		C3080.43,2841.53,3076.55,2845.41,3076.55,2850.2"/>
	<path class="st0" d="M3063.61,2850.2c0.63,11.69,9.41,21.61,21.61,21.61c11.88,0,21.38-9.9,21.6-21.61
		c0.22-11.66-9.76-21.2-21.13-21.58C3073.3,2828.21,3064.24,2838.41,3063.61,2850.2c-0.37,6.77,6.21,13.24,12.94,12.94
		c7.32-0.33,12.55-5.69,12.94-12.94c-0.05,0.83-0.57,2.29-0.02,0.7c-0.14,0.8-0.49,1.49-1.05,2.05c-0.6,0.69-0.65,0.78-0.17,0.28
		c0.79-0.79-1.33,0.76-1.6,0.94c-1.02,0.37-0.97,0.38,0.16,0.04c-0.53,0.08-1.05,0.17-1.58,0.26c-0.82,0-2.3-0.57-0.7-0.02
		c-0.62-0.21-3.09-1.99-2.33-1.22c0.79,0.79-0.76-1.33-0.94-1.6c-0.31-0.88-0.36-0.97-0.16-0.29c0.25,0.96,0.2,0.58-0.14-1.14
		c0-0.82,0.57-2.3,0.02-0.7c0.36-1.06,0.8-1.8,1.53-2.64c-1.38,1.56,0.79-0.3,1.29-0.63c0.88-0.31,0.97-0.37,0.29-0.16
		c-0.7,0.18-0.58,0.18,0.35-0.01c0.75,0.12,3.47,0.57,1.49-0.11c1.05,0.36,1.8,0.8,2.64,1.54c-1.52-1.34,0.16,0.72,0.63,1.29
		c0.31,0.88,0.36,0.97,0.16,0.29c-0.25-0.96-0.2-0.58,0.14,1.14c-0.36-6.74-5.69-13.26-12.94-12.94
		C3069.85,2837.56,3063.22,2842.96,3063.61,2850.2"/>
	<path class="st0" d="M3136.5,3083.77h-195.29h-28.43c-16.65,0-16.68,25.87,0,25.87h195.29h28.43
		C3153.15,3109.64,3153.17,3083.77,3136.5,3083.77"/>
	<path class="st0" d="M3136.5,3222.47h-195.29h-28.43c-16.65,0-16.68,25.87,0,25.87h195.29h28.43
		C3153.15,3248.35,3153.17,3222.47,3136.5,3222.47"/>
	<path class="st0" d="M3136.5,3367.89h-195.29h-28.43c-16.65,0-16.68,25.87,0,25.87h195.29h28.43
		C3153.15,3393.77,3153.17,3367.89,3136.5,3367.89"/>
	<path class="st0" d="M3000.88,101.12c31.89-11.66,67.72-3.07,93.94,17.82c32.08,25.56,35.39,64.94,26.43,102.79
		c-10.39,43.92-28.57,86.51-43.64,128.99c-13.61,38.36-24.76,79-42.6,115.65c-19.06,39.14-50.51,63.02-95.31,62.28
		c-16.66-0.27-16.66,25.6,0,25.87c44.1,0.73,82.34-18.77,106.64-55.59c24.35-36.9,35.61-83.25,50.24-124.47
		c9.4-26.5,18.8-52.99,28.2-79.49c8.54-24.06,17.79-48.11,22.92-73.19c8.71-42.52,3.22-87.55-30.56-117.72
		c-32.7-29.21-81.02-43.29-123.15-27.89C2978.49,81.85,2985.19,106.86,3000.88,101.12c31.89-11.66,67.72-3.07,93.94,17.82
		c32.08,25.56,35.39,64.94,26.43,102.79c-10.39,43.92-28.57,86.51-43.64,128.99c-13.61,38.36-24.76,79-42.6,115.65
		c-19.06,39.14-50.51,63.02-95.31,62.28c-16.66-0.27-16.66,25.6,0,25.87c44.1,0.73,82.34-18.77,106.64-55.59
		c24.35-36.9,35.61-83.25,50.24-124.47c9.4-26.5,18.8-52.99,28.2-79.49c8.54-24.06,17.79-48.11,22.92-73.19
		c8.71-42.52,3.22-87.55-30.56-117.72c-32.7-29.21-81.02-43.29-123.15-27.89C2978.49,81.85,2985.19,106.86,3000.88,101.12"/>
	<path class="st0" d="M2926.87,548.47c-14.43,82.08-28.99,167.58-6.26,249.6c19.06,68.77,64.2,124.74,130.85,151.8
		c62.52,25.39,133.68,22.07,194.4-6.61c60.94-28.78,110.23-81.94,138.02-142.97c37.4-82.12,38.33-176.06,14.27-262.06
		c-4.48-16.01-29.45-9.21-24.95,6.88c36.46,130.36,7.3,284.72-113.62,361.09c-52.53,33.18-116.12,43.86-176.24,27.24
		c-61.99-17.13-109.44-61.74-131.38-122.15c-30.06-82.74-14.95-171.74-0.15-255.95C2954.69,539.06,2929.75,532.07,2926.87,548.47"/>
	<path class="st0" d="M2877.51,76.17c-36.9-13.49-79.62-4.38-111.03,18.26c-35.53,25.61-50.69,64.59-45.75,107.98
		c5.88,51.62,29.27,101.77,46.51,150.37l28.2,79.49c6.42,18.09,12.81,36.3,21.83,53.29c23.36,44.01,64.24,69.78,114.53,68.95
		c16.63-0.27,16.68-26.15,0-25.87c-39.35,0.65-70.42-17.64-89.7-51.61c-19.14-33.72-29.33-73.11-42.23-109.46
		c-15.3-43.13-32.41-86.05-45.36-129.95c-10.9-36.93-16.19-80.66,13.21-110.58c26.21-26.67,67.3-38.95,102.9-25.93
		C2886.3,106.85,2893.05,81.86,2877.51,76.17"/>
	<path class="st0" d="M2884.46,87.93c-0.42,7.83-12.14,7.87-12.14,0C2872.33,80.04,2884.04,80.13,2884.46,87.93
		c0.89,16.56,26.77,16.67,25.87,0c-0.93-17.29-13.9-31.94-31.94-31.94c-17.45,0-31.79,14.62-31.94,31.94
		c-0.16,17.03,14.09,31.27,30.9,31.89c18.45,0.68,32.03-14.22,32.98-31.89C2911.23,71.29,2885.36,71.34,2884.46,87.93"/>
	<path class="st0" d="M2995.5,87.93c-0.42,7.83-12.14,7.87-12.14,0C2983.36,80.04,2995.07,80.13,2995.5,87.93
		c0.89,16.56,26.77,16.67,25.87,0c-0.93-17.29-13.9-31.94-31.94-31.94c-17.45,0-31.79,14.62-31.94,31.94
		c-0.15,17.03,14.09,31.27,30.91,31.89c18.45,0.68,32.03-14.22,32.98-31.89C3022.26,71.29,2996.39,71.34,2995.5,87.93"/>
	<path class="st1" d="M3437.76,462.1c0,40.61-32.92,73.52-73.52,73.52c-40.61,0-73.52-32.91-73.52-73.52
		c0-40.6,32.92-73.52,73.52-73.52C3404.84,388.57,3437.76,421.49,3437.76,462.1"/>
	<path class="st0" d="M3424.82,462.1c-0.79,33.04-26.93,60.59-60.59,60.59c-33.06,0-60.58-27.52-60.58-60.59
		c0-33,27.52-60.66,60.58-60.59C3397.9,401.59,3424.03,428.99,3424.82,462.1c0.4,16.62,26.27,16.68,25.87,0
		c-0.85-35.86-22.14-67.92-55.96-80.86c-34.14-13.06-74.02-2.25-97.15,25.92c-22.82,27.8-26.19,68.02-7.7,99.04
		c18.51,31.07,54.64,46.98,90.06,40.85c41.2-7.12,69.78-44.05,70.76-84.96C3451.09,445.44,3425.22,445.45,3424.82,462.1"/>
	<path class="st0" d="M3364.74,462.1c0.07-1.26,0.06,0.38-0.23,0.81c0.46-0.68,0.88-1.01,0.06-0.46c-1.28,0.86-0.04,0.19,0.19,0.02
		c0.62-0.49-2.04,0.14-0.53,0.14c1.32,0-0.51,0.21-0.81-0.22c0.04,0.06,1.76,1.36,0.47,0.06c-1.05-1.05-0.22-0.07-0.01,0.19
		c0.34,0.44-0.15-1.97-0.15-0.53c0,1.35-0.15-2-0.33,0.14c0.03-0.41,1.56-1.49,0.3-0.5c-0.52,0.41,1.46-0.13,0.81-0.22
		c-1.89-0.27,1.77-0.05-0.42-0.25c0.38,0.03,1.63,1.72,0.5,0.3C3364.2,461.07,3364.82,463.61,3364.74,462.1
		c0.38,6.98,5.67,12.94,12.94,12.94c6.71,0,13.31-5.92,12.94-12.94c-0.77-14.27-11.48-26.38-26.38-26.38
		c-14.45,0-26.19,12.08-26.38,26.38c-0.18,14.2,11.76,25.75,25.64,26.34c15.18,0.63,26.33-11.91,27.11-26.34
		c0.38-6.98-6.21-12.94-12.94-12.94C3370.36,449.16,3365.12,455.09,3364.74,462.1"/>
	<path class="st0" d="M2011.17,3434.1c-7.47,15.25-17.78,28.35-27.39,42.25c-7.79,11.27-15.66,26.06-28.06,32.74
		c-33.02,17.78-76.7,17.74-111.92,8.22c-38.01-10.27-70.04-33.92-102.25-55.68c-29.39-19.85-56.83-42.43-81.99-67.43
		c-49.74-49.42-92.45-109.01-120.23-173.56c-30.44-70.71-44.31-151.33-45.02-228.11c-0.17-18.35,1.09-36.97,6.83-54.4
		c5.41-16.43,10.77-33.02,18.39-48.59c6.72-13.76,15.04-26.87,26.83-36.86c13.31-11.28,27.24-11.89,43.79-14.05
		c16.27-2.13,33.44-4.61,49.86-2.15c13.38,2.01,18.74,10.66,22.01,23.02c10.74,40.7,22.97,80.86,34.87,121.22
		c4.52,15.32,0.46,20.49-13.12,28.41c-16.6,9.67-34.4,17.31-51.41,26.21c-11.22,5.87-20.15,10.99-24.21,23.53
		c-3.37,10.4-3.35,22.09-2.68,32.89c3.69,59.5,30.58,116.76,63.39,165.6c19.31,28.75,41.86,56.59,67.52,79.95
		c15.98,14.55,37.8,29.6,59.68,32.34c16.08,2.01,26.74-7.42,39.35-16.23c15.84-11.08,31.4-24.13,48.85-32.64
		c10.86-5.3,14.99-0.96,23.07,6.77c7.8,7.46,15.59,14.94,23.37,22.42c15.56,14.97,31.08,29.97,46.62,44.96
		c7.17,6.92,14.34,13.83,21.52,20.74c6.97,6.7,15,11.23,11.04,21.51c-5.99,15.55,19.02,22.28,24.95,6.88
		c7.29-18.92-2.7-32.27-15.9-44.96c-16.16-15.54-32.28-31.12-48.42-46.69c-16.71-16.13-33.14-32.67-50.29-48.33
		c-13.42-12.24-28.5-15.51-45.2-7.62c-19.64,9.28-36.93,23.65-54.67,36.01c-5.34,3.72-12.31,10.9-18.95,11.74
		c-5.87,0.75-13.62-3.5-18.57-6.05c-27.3-14.12-48.02-37.78-67.31-61.17c-41.38-50.18-78.16-114.76-83.84-180.78
		c-0.73-8.47-3.37-24.37,2.02-31.88c3.1-4.32,14.57-8.12,19.82-10.77c9.89-5.01,19.86-9.87,29.77-14.86
		c13.59-6.86,29.74-14.62,37.56-28.47c7.71-13.66,3.28-29.08-1.08-42.98c-6.97-22.22-13.4-44.6-19.9-66.96
		c-5.59-19.21-8.88-40.12-16.46-58.61c-12.88-31.42-45.37-33.54-75.28-31.29c-16.8,1.27-36.58,2.34-52.69,7.42
		c-15.68,4.94-29.58,16.92-39.8,29.5c-21.56,26.56-34.67,62.82-43.29,95.63c-4.77,18.16-4.39,40.25-3.59,58.91
		c0.9,21.18,2.57,42.35,5.07,63.4c4.85,40.94,12.61,81.58,25.22,120.88c23.95,74.63,66.37,142.93,118.42,201.24
		c24.88,27.87,52.47,53.08,82.13,75.77c31.28,23.93,65.49,48.79,101.11,65.76c36.74,17.51,78.17,24.41,118.4,17.84
		c18.02-2.95,40.14-7.82,55.11-18.73c12.17-8.87,20.87-22.46,29.27-34.73c10.41-15.21,21.9-29.52,30.05-46.15
		C2040.81,3432.27,2018.5,3419.14,2011.17,3434.1"/>
	<polygon class="st1" points="2094.73,3039.98 2094.73,3131.94 1997.34,3131.94 1997.34,3229.33 1905.38,3229.33 1905.38,3131.94 
		1807.99,3131.94 1807.99,3039.98 1905.38,3039.98 1905.38,2942.59 1997.34,2942.59 1997.34,3039.98 	"/>
	<path class="st0" d="M2081.79,3039.98v91.96c4.31-4.31,8.62-8.62,12.94-12.94h-97.39c-6.99,0-12.94,5.93-12.94,12.94v97.39
		c4.31-4.31,8.63-8.62,12.94-12.94h-91.96c4.31,4.31,8.62,8.63,12.94,12.94v-97.39c0-6.99-5.93-12.94-12.94-12.94h-97.39
		c4.31,4.31,8.62,8.62,12.94,12.94v-91.96c-4.31,4.31-8.62,8.62-12.94,12.94h97.39c6.99,0,12.94-5.93,12.94-12.94v-97.39
		c-4.31,4.31-8.62,8.63-12.94,12.94h91.96c-4.31-4.31-8.62-8.62-12.94-12.94v97.39c0,6.99,5.93,12.94,12.94,12.94h97.39
		c16.65,0,16.68-25.87,0-25.87h-97.39c4.31,4.31,8.63,8.62,12.94,12.94v-97.39c0-6.99-5.93-12.94-12.94-12.94h-91.96
		c-6.99,0-12.94,5.93-12.94,12.94v97.39c4.31-4.31,8.62-8.63,12.94-12.94h-97.39c-6.99,0-12.94,5.93-12.94,12.94v91.96
		c0,6.99,5.93,12.94,12.94,12.94h97.39c-4.31-4.31-8.62-8.62-12.94-12.94v97.39c0,6.99,5.93,12.94,12.94,12.94h91.96
		c6.99,0,12.94-5.93,12.94-12.94v-97.39c-4.31,4.31-8.62,8.62-12.94,12.94h97.39c6.99,0,12.94-5.93,12.94-12.94v-91.96
		C2107.67,3023.33,2081.79,3023.31,2081.79,3039.98"/>
	<path class="st0" d="M1663.36,539.06c-1.93,15.23-3.87,30.46-5.8,45.68c-0.73,5.8-1.04,11.84-2.74,17.43
		c-4.19,13.75-14.78,19.66-27.66,23.75c-46.77,14.83-93.82,32.22-136.42,56.82c-30.63,17.69-67.87,43.36-69.14,82.4
		c-0.94,29.09,0,58.35,0,87.45v93.35c0,6.99,5.93,12.94,12.94,12.94h238.97h380.79h87.25c6.99,0,12.94-5.93,12.94-12.94
		c0-59,0.19-118.01,0-177.01c-0.11-34.91-26.1-58.34-53.37-76.45c-41.82-27.78-90.42-46.08-137.82-61.88
		c-10.94-3.65-24.29-5.79-32.97-13.81c-7.69-7.1-9.76-16.08-11-25.86c-2.15-16.95-4.31-33.91-6.46-50.87
		c-2.07-16.3-27.97-16.5-25.87,0c1.9,14.97,3.8,29.95,5.7,44.92c2.53,19.93,5.56,38.46,21.91,52.36
		c16.69,14.19,43.04,18.36,63.34,25.65c24.33,8.74,48.35,18.41,71.52,29.91c21.3,10.57,43.03,22.45,60.41,38.92
		c9.57,9.07,18.24,19.67,18.75,33.32c1.08,29.07,0,58.37,0,87.45v93.35c4.31-4.31,8.62-8.63,12.94-12.94h-238.98h-380.79h-87.24
		l12.94,12.94c0-59-0.19-118.01,0-177.01c0.1-32.66,36.8-53.08,61.87-66.98c42.96-23.81,88.97-36.97,134.5-54.28
		c43.58-16.57,40.48-70.02,45.38-108.61C1691.32,522.58,1665.43,522.74,1663.36,539.06"/>
	<path class="st0" d="M1670.9,511.67c-23.06-27.01-25.41-65.8-29.26-99.56c-2.92-25.6-5.84-51.19-8.76-76.78
		c-1.85-16.21-27.24-16.8-25.87,0c1.7,20.9,3.58,41.78,5.76,62.63c1.35,12.87,2.82,25.73,4.62,38.55
		c1.17,8.31,3.11,17.12,3.72,22.43l19.46-11.17c-30.1-14.12-53.24-40-62.5-72.16c-3.49-12.12-9.3-34.73,1.62-44.73
		c4.02-3.68,10.4-5.57,15.73-5.55c8.94,0.04,10.48,5.31,12.04,13.43c2.71,14.13,27.07,11.12,25.41-3.44
		c-0.78-6.86-1.84-13.74-2.35-20.63c-0.61-8.12-0.21-9.52,3.53-17.8c7.45-16.52,20.02-33.89,22.14-52.18
		c-4.31,4.31-8.63,8.63-12.94,12.94c32.72-0.52,63.7-10.31,95.09-18.48l-9.97-1.3c61.61,31.77,140.23,32.7,207.23,19.32
		c-5.46-4.16-10.92-8.32-16.38-12.48c2.16,18.13,14.84,35.64,22.44,51.92c6.13,13.12,3.45,22.08,1.55,38.7
		c-1.64,14.41,22.68,17.72,25.41,3.44c1.44-7.49,2.36-12.56,10.53-13.38c5.61-0.56,13,1.61,17.24,5.5
		c10.91,9.98,5.1,32.65,1.62,44.73c-9.26,32.15-32.4,58.03-62.5,72.16l19.46,11.17c0.6-5.24,0.59-3.41,1.7-9.64
		c0.89-5.03,1.57-10.1,2.26-15.16c1.9-14.07,3.46-28.18,4.91-42.29c1.93-18.82,3.68-37.66,5.24-56.51h-25.87
		c-1.27,23.38-4.42,46.7-7.28,69.92c-1.41,11.44-2.86,22.87-4.36,34.3c-0.44,3.37-0.89,6.74-1.33,10.12
		c-0.12,0.87-0.19,1.76-0.35,2.62c0.98-5.39-0.78,1.96-1.44,4.44c-4.23,15.81-8.3,33.8-17.51,47.56
		c-7.64,11.42-18.91,20.97-30.04,28.82c-28.87,20.39-64.17,34.37-99.94,32.53C1740.05,563.55,1698.33,541.7,1670.9,511.67
		c-11.26-12.32-29.51,6.02-18.3,18.3c26.15,28.63,63.39,49.56,101.2,57.85c41.11,9.03,82.52,0.25,119.23-19.45
		c27.16-14.58,55.44-35.77,67.31-65.18c10.33-25.59,15.42-50.25,18.88-77.23c3.85-30.08,8.23-60.33,9.88-90.63
		c0.91-16.75-24.51-16.41-25.87,0c-3.44,41.43-9.4,82.4-14.11,123.61c-1.22,10.7,11.65,14.84,19.47,11.17
		c45.53-21.36,79.33-69.87,79.42-120.88c0.04-23.74-12.54-42.98-36.25-48.41c-24.03-5.5-43.46,7.07-48.06,31.07
		c8.47,1.15,16.94,2.29,25.41,3.44c1.68-14.7,4.77-28.68-1.09-42.76c-3.94-9.47-8.65-18.6-13.2-27.79
		c-2.36-4.77-4.81-9.52-6.97-14.39c-0.7-1.58-3.1-8.73-2.73-5.68c-1.04-8.7-7.4-14.27-16.38-12.47
		c-33.07,6.6-68.07,7.77-101.59,5.31c-28.47-2.09-56.54-8.13-82.44-20.33c-14.31-6.75-30.71,1.8-45.3,5.61
		c-18.52,4.83-36.94,8.65-56.14,8.95c-7.6,0.12-12.12,5.88-12.94,12.94c0.31-2.7-2.2,4.85-2.9,6.44c-2.02,4.57-4.28,9.04-6.47,13.53
		c-4.64,9.5-9.53,18.96-13.41,28.81c-5.36,13.62-2.13,27.73-0.52,41.83c8.47-1.15,16.94-2.29,25.41-3.44
		c-4.48-23.4-22.94-35.98-46.54-31.39c-24.47,4.75-37.81,24.47-37.77,48.74c0.08,51.01,33.88,99.52,79.41,120.88
		c7.82,3.67,20.69-0.47,19.47-11.17c-4.71-41.22-10.73-82.16-14.11-123.61H1607c3.2,28,6.39,56.01,9.59,84.01
		c4.43,38.81,9.68,79.78,36.02,110.63C1663.43,542.65,1681.65,524.28,1670.9,511.67"/>
	<path class="st0" d="M1624.85,291.91c-7.51-49.43-15-104.41,14.4-148.5c4.68-7.01,11.36-16.55,19.06-20.51
		c5.73-2.94,13.66-3.48,19.95-4.15c9.7-1.04,19.69-0.21,29.31-1.38c5.76-0.7,8.77-3.74,13.05-7.04c6.42-4.95,13.24-9.43,20.45-13.14
		c16.72-8.6,36.63-7.29,54.97-6.84c44.81,1.1,89.07,10.95,122.76,42.46c17.94,16.78,31.76,37.85,36.24,62.29
		c5.81,31.64-0.14,65.44-4.9,96.81c-2.48,16.29,22.45,23.31,24.95,6.88c6.76-44.46,15.45-93.5-3.28-136.23
		c-15.75-35.96-47.54-64.38-83.14-80.02c-35.2-15.47-73.47-19.04-111.56-18.01c-18.36,0.5-34.16,2.32-50.66,11.13
		c-10.01,5.34-19.53,12.13-28.04,19.63c3.05-1.26,6.1-2.53,9.15-3.79c-13.71-0.1-27.53,0.76-41.08,2.88
		c-21.59,3.38-34.59,14.97-47.26,32.61c-36.1,50.24-28.05,114.47-19.33,171.8C1602.39,315.19,1627.32,308.22,1624.85,291.91"/>
	<path class="st0" d="M1592.1,646.87v68.63c0,16.65,25.87,16.68,25.87,0v-68.63C1617.97,630.22,1592.1,630.2,1592.1,646.87"/>
	<path class="st0" d="M1684.96,881.29c5.53-15.8,15.71-29.89,17.27-46.96c1.45-15.89-1.49-33.47-5.84-48.76
		c-7.68-26.94-23.54-52.65-47.91-67.4c-22.93-13.88-51.73-15.78-76.32-5.29c-26.33,11.24-44.32,34.76-54.49,60.9
		c-6.49,16.69-9.69,35.01-9.99,52.89c-0.34,20.46,10.94,36.03,17.44,54.61c5.46,15.62,30.47,8.9,24.95-6.88
		c-5.84-16.69-17.11-31.45-16.44-49.73c0.6-16.69,3.98-33.66,11.1-48.84c11.27-24.01,32.52-43.91,60.31-43.91
		c27.79,0,49.05,19.91,60.31,43.91c6.83,14.55,10.25,30.84,11.03,46.84c0.94,19.36-10.2,34.09-16.37,51.73
		C1654.5,890.16,1679.49,896.93,1684.96,881.29"/>
	<path class="st0" d="M1544.77,867.37c-0.19,3.61-5.55,3.65-5.55,0C1539.22,863.72,1544.58,863.75,1544.77,867.37
		c0.89,16.56,26.77,16.67,25.87,0c-0.84-15.51-12.47-28.65-28.65-28.65c-15.67,0-28.48,13.12-28.65,28.65
		c-0.17,15.41,12.71,27.93,27.79,28.6c16.51,0.73,28.66-12.92,29.5-28.6C1571.54,850.73,1545.66,850.78,1544.77,867.37"/>
	<path class="st0" d="M1670.46,867.37c-0.19,3.61-5.55,3.65-5.55,0C1664.91,863.72,1670.27,863.75,1670.46,867.37
		c0.89,16.56,26.77,16.67,25.87,0c-0.84-15.51-12.47-28.65-28.65-28.65c-15.67,0-28.48,13.12-28.65,28.65
		c-0.17,15.41,12.71,27.93,27.79,28.6c16.51,0.73,28.66-12.92,29.5-28.6C1697.23,850.73,1671.35,850.78,1670.46,867.37"/>
	<path class="st0" d="M1963.84,657.89v99.5c0,16.65,25.87,16.68,25.87,0v-99.5C1989.71,641.24,1963.84,641.21,1963.84,657.89"/>
	<path class="st0" d="M2008.3,804.53c-1.57,40.75-63.06,40.58-63.06,0C1945.24,763.98,2006.73,763.72,2008.3,804.53
		c0.64,16.6,26.51,16.68,25.87,0c-1.2-31.26-25.29-57.28-57.4-57.4c-31.21-0.11-57.4,26.28-57.4,57.4c0,31.21,26.2,57.4,57.4,57.4
		c32.11,0,56.2-26.24,57.4-57.4C2034.82,787.88,2008.94,787.9,2008.3,804.53"/>
	<path class="st0" d="M1655.35,624.74c40.81,43.47,81.61,86.95,122.42,130.42c4.67,4.98,13.62,4.98,18.29,0
		c41.6-44.31,83.19-88.62,124.79-132.94c11.39-12.13-6.87-30.47-18.29-18.29c-41.6,44.31-83.19,88.62-124.79,132.94h18.29
		c-40.81-43.47-81.61-86.95-122.42-130.42C1662.23,594.28,1643.96,612.6,1655.35,624.74"/>
	<path class="st0" d="M2904.97,2039.23c-10.99-60.41-17.22-122.13-19.83-183.43c-2.02-47.45-2.04-95.83,5.64-142.83
		c7.52-46,25.4-85.68,53.85-122.78c17.02-22.19,38.75-42.52,66.27-50.24c14.06-3.94,28.29-3.48,42.71-3.48
		c30.66,0,61.36-0.43,92.02,0c61.43,0.88,100.76,53.84,124.15,104.92c22.1,48.28,29.77,103,32.6,155.57
		c4.33,80.3-1.51,163.34-17.55,242.26c-3.31,16.26,21.63,23.21,24.95,6.88c14.68-72.25,20.86-147.69,19.47-221.3
		c-1.07-56.93-7.02-115.49-26.16-169.44c-19-53.54-53.08-110.94-107.37-134.35c-35.32-15.23-77.17-10.41-114.77-10.41
		c-41.67,0-81.33-1.95-117.04,24.17c-23.93,17.5-42.27,41.25-57.94,66.16c-12.57,19.97-23.54,40.34-30.51,62.95
		c-14.33,46.51-17.08,96.79-17.17,145.16c-0.15,79.05,7.6,159.25,21.75,237.06C2883,2062.47,2907.94,2055.54,2904.97,2039.23"/>
	<path class="st1" d="M3294.04,1454.37c-57.13-42.31-129.34-66.48-198.3-66.48c-0.6,0-1.2,0-1.81,0.01c-0.61,0-1.21-0.01-1.81-0.01
		c-69.06,0-141.28,24.18-198.39,66.48l-4.58,3.4l1.73,5.44c14.92,46.91,29.25,95.4,42.6,144.15l2.16,7.89l7.84-2.36
		c94.18-28.41,206.65-28.41,300.83,0l7.84,2.36l2.16-7.89c13.39-48.91,27.73-97.41,42.6-144.15l1.73-5.44L3294.04,1454.37z"/>
	<path class="st0" d="M3300.57,1443.2c-61.35-44.8-136.66-69.3-212.68-68.22c-74.12,1.05-146.01,27.73-205.27,71.61
		c-4.52,3.35-7.8,8.76-5.94,14.61c16.59,52.17,32.03,104.68,46.49,157.48c1.81,6.62,9.21,11.06,15.91,9.03
		c101.24-30.54,208.39-30.54,309.63,0c6.68,2.02,14.1-2.41,15.91-9.03c14.46-52.8,29.89-105.31,46.49-157.48
		c1.88-5.91-1.41-11.25-5.95-14.61C3303.62,1445.46,3302.1,1444.33,3300.57,1443.2c-13.39-9.92-26.31,12.53-13.06,22.34
		c1.53,1.13,3.06,2.26,4.58,3.39c-1.98-4.87-3.96-9.74-5.95-14.61c-16.59,52.17-32.03,104.68-46.49,157.48
		c5.31-3.01,10.61-6.03,15.91-9.04c-105.42-31.8-217.96-31.8-323.38,0c5.3,3.01,10.61,6.02,15.91,9.04
		c-14.46-52.81-29.9-105.31-46.49-157.48c-1.98,4.87-3.97,9.74-5.95,14.61c55.74-41.28,122.37-67.09,192.21-68.08
		c71.86-1.02,141.69,22.39,199.62,64.69C3300.97,1475.37,3313.9,1452.93,3300.57,1443.2"/>
	<path class="st0" d="M3146.59,1470.69c-0.46,12.82-0.92,25.65-1.38,38.48l9.7-9.7c-13.85-0.2-27.7-0.35-41.55-0.42
		c-5.29-0.03-9.64,4.47-9.7,9.7c-0.16,13.73-0.32,27.45-0.47,41.18l9.7-9.7c-12.68-0.03-25.35-0.03-38.04,0l9.7,9.7
		c-0.16-13.73-0.31-27.45-0.47-41.18c-0.06-5.22-4.4-9.73-9.7-9.7c-13.85,0.07-27.7,0.22-41.54,0.42l9.7,9.7
		c-0.46-12.83-0.92-25.65-1.38-38.48l-9.7,9.7c14.16-0.28,28.32-0.48,42.48-0.58c5.2-0.04,9.76-4.41,9.7-9.7
		c-0.16-13.73-0.31-27.45-0.47-41.18l-9.7,9.7c13.6-0.1,27.2-0.1,40.8,0l-9.7-9.7c-0.16,13.73-0.31,27.45-0.47,41.18
		c-0.06,5.27,4.49,9.66,9.7,9.7c14.16,0.1,28.32,0.3,42.48,0.58c12.49,0.25,12.49-19.16,0-19.41c-14.16-0.28-28.32-0.48-42.48-0.58
		l9.7,9.7c0.16-13.73,0.31-27.45,0.47-41.18c0.06-5.27-4.5-9.66-9.7-9.7c-13.6-0.1-27.2-0.1-40.8,0c-5.2,0.04-9.76,4.41-9.7,9.7
		c0.16,13.73,0.31,27.45,0.47,41.18l9.7-9.7c-14.16,0.1-28.32,0.3-42.48,0.58c-5.1,0.1-9.89,4.36-9.7,9.7
		c0.46,12.82,0.92,25.65,1.38,38.48c0.18,5.18,4.29,9.78,9.7,9.7c13.85-0.2,27.69-0.35,41.54-0.42l-9.7-9.7
		c0.16,13.73,0.31,27.45,0.47,41.18c0.06,5.23,4.4,9.71,9.7,9.7c12.68-0.03,25.36-0.03,38.04,0c5.29,0.01,9.64-4.46,9.7-9.7
		c0.16-13.73,0.32-27.45,0.47-41.18l-9.7,9.7c13.85,0.07,27.7,0.22,41.55,0.42c5.38,0.08,9.52-4.52,9.7-9.7
		c0.46-12.83,0.92-25.65,1.38-38.48C3166.44,1458.2,3147.04,1458.22,3146.59,1470.69"/>
	<path class="st0" d="M2997,1954.55c0.33,12.57,3.12,27.43,1.04,39.78c-2.75,16.29-29.49,22.63-43.67,27.16
		c-41.37,13.21-82.98,27.91-121.28,48.6c-27.89,15.07-63.66,37.44-65.15,72.79c-1.05,24.92,0,50.1,0,75.04v85.5
		c0,6.99,5.93,12.94,12.94,12.94h212.44h335.76h77.81c7,0,12.94-5.93,12.94-12.94c0-52.47,0.78-105,0-157.46
		c-0.46-31.17-25.03-51.5-49.65-66.89c-37.1-23.19-79.39-38.56-120.72-52.34c-16.94-5.65-52.28-10.83-59.11-30.04
		c-3.6-10.12,0.16-29.27,0.51-41.26c0.49-16.65-25.38-16.64-25.87,0c-0.39,13.14-1.76,26.62-1.17,39.75
		c1.01,22.14,23.35,37.15,41.99,44.48c38.51,15.16,78.49,25.15,116.16,42.9c18.24,8.59,36.92,18.12,52.48,31.1
		c9.21,7.68,18.63,16.96,19.5,29.48c1.73,25.09,0,50.91,0,76.05v84.22c4.31-4.31,8.62-8.62,12.94-12.94h-212.44h-335.76h-77.81
		c4.31,4.31,8.62,8.63,12.94,12.94c0-52.48-0.17-104.97,0-157.46c0.09-27.91,36.72-45.49,57.81-56.42
		c37.63-19.49,78.1-33.25,118.45-45.89c22.01-6.89,52.1-21.02,53.88-47.68c0.91-13.6-0.72-27.79-1.08-41.43
		C3022.44,1937.93,2996.57,1937.86,2997,1954.55"/>
	<path class="st0" d="M2975.34,2035.58c36.01,41.37,72.02,82.74,108.03,124.11c4.42,5.07,13.87,4.94,18.3,0
		c36.95-41.25,73.91-82.5,110.86-123.75c11.08-12.37-7.15-30.73-18.29-18.3c-36.95,41.25-73.91,82.5-110.86,123.75h18.3
		c-36.01-41.37-72.02-82.74-108.03-124.11C2982.68,2004.7,2964.45,2023.07,2975.34,2035.58"/>
	<path class="st0" d="M2989.37,1915.84c-9.43-12.82-10.65-28.2-13.39-43.58c-3.94-22.11-7.47-44.3-10.93-66.48
		c-2.81-18.01-5.56-36.03-8.18-54.07c-0.3-2.07-0.6-4.14-0.89-6.21c-0.38-2.64-0.01,0.16,0.15,1.16c-0.72-4.33-1.71-8.68-2.2-13.04
		c-1.56-13.75,2.35-22.64,10.79-33.18c-3.05,1.26-6.1,2.52-9.15,3.79c35.03-0.65,61.79-26.16,94.28-35.31l-9.97-1.3
		c33.22,17.14,69.91,25.09,106.91,28.59c24.53,2.32,50.19,3.41,74.63-0.55c-4.87-1.98-9.74-3.96-14.61-5.95
		c10.66,16.55,21.17,32.67,24.1,52.49c0.35,2.36,0.71,8.61,0.94,2.95c-0.04,1-0.28,2.04-0.42,3.03c-0.56,3.81-1.11,7.62-1.67,11.43
		c-3.9,26.41-7.98,52.8-12.29,79.14c-3.5,21.42-5.27,45-12.25,65.66c-3.38,9.99-15.88,21.59-25.6,29.09
		c-16.77,12.95-36.54,22.75-57.05,28.02c-48.6,12.5-104.12-9.61-135.25-48.3c-10.44-12.97-28.64,5.44-18.29,18.29
		c29.42,36.56,81.54,61.26,128.47,59.68c44.35-1.5,93.08-24.6,121.03-59.47c15.09-18.83,16.67-43.34,20.6-66.38
		c5.24-30.77,10.02-61.63,14.62-92.5c1.4-9.34,4.05-19.58,3.26-29.02c-2.12-25.36-14.39-46.23-27.87-67.18
		c-3.41-5.29-8.66-6.91-14.61-5.95c-1.29,0.21-9.79,0.92-14.02,1.11c-9.01,0.42-18.05,0.43-27.06,0.17
		c-22.69-0.66-45.32-3.11-67.47-8.1c-11.95-2.69-23.81-6.06-35.24-10.48c-12.6-4.87-20.79-12.1-34.39-7.41
		c-23.26,8.02-43.44,23.63-67.15,30.32c-10.83,3.05-18.99,0.88-26.51,10.54c-5.75,7.39-10.94,15.13-13.31,24.33
		c-3.8,14.75-0.06,29.26,2.02,43.89c4.01,28.24,8.42,56.43,12.97,84.59c2.82,17.44,5.67,34.88,8.98,52.23
		c2.64,13.83,5.09,25.36,13.66,37.02C2976.78,1942.17,2999.25,1929.28,2989.37,1915.84"/>
	<path class="st0" d="M3212.65,2188.51h107.56c16.65,0,16.68-25.87,0-25.87h-107.56C3196,2162.63,3195.97,2188.51,3212.65,2188.51"
		/>
	<path class="st0" d="M3079.58,2155.17v148.24c0,16.65,25.87,16.67,25.87,0v-148.24C3105.45,2138.52,3079.58,2138.5,3079.58,2155.17
		"/>
	<path class="st0" d="M4598.16,4440.41v146.71c4.31-4.31,8.62-8.62,12.94-12.94h-155.38c-6.99,0-12.94,5.93-12.94,12.94v155.38
		l12.94-12.94H4309l12.94,12.94v-155.38c0-6.99-5.93-12.94-12.94-12.94h-155.38c4.31,4.31,8.62,8.62,12.94,12.94v-146.71
		l-12.94,12.94H4309c6.99,0,12.94-5.93,12.94-12.94v-155.38l-12.94,12.94h146.71l-12.94-12.94v155.38c0,6.99,5.93,12.94,12.94,12.94
		h155.38c16.65,0,16.68-25.87,0-25.87h-155.38l12.94,12.94v-155.38c0-6.99-5.93-12.94-12.94-12.94H4309
		c-6.99,0-12.94,5.93-12.94,12.94v155.38l12.94-12.94h-155.38c-7,0-12.94,5.93-12.94,12.94v146.71c0,6.99,5.93,12.94,12.94,12.94
		H4309l-12.94-12.94v155.38c0,6.99,5.93,12.94,12.94,12.94h146.71c6.99,0,12.94-5.93,12.94-12.94v-155.38l-12.94,12.94h155.38
		c6.99,0,12.94-5.93,12.94-12.94v-146.71C4624.03,4423.76,4598.16,4423.74,4598.16,4440.41"/>
	<path class="st0" d="M4748.19,4513.77c-0.72,152.05-97.25,292.38-241.07,344.05c-144.2,51.8-308.06,7.1-406.28-110.31
		c-98.86-118.18-111.19-291.73-31.48-423.25c79.14-130.58,236.08-199.73,385.88-169.08c148.23,30.33,264.44,152.05,288.56,301.3
		C4746.87,4475.41,4748.1,4494.6,4748.19,4513.77c0.08,16.64,25.95,16.68,25.87,0c-0.77-163-103.77-311.18-256.82-367.81
		c-153.78-56.91-332.85-8.21-436.85,118.39c-104.37,127.05-118.83,310.97-33.36,452c85.11,140.44,252.51,213.4,413.38,181.33
		c158.09-31.52,284.67-163.81,308.9-323.21c3.06-20.11,4.67-40.34,4.76-60.68C4774.14,4497.12,4748.27,4497.1,4748.19,4513.77"/>
	<path class="st1" d="M782.84,4752.97c0,33.25-26.95,60.21-60.21,60.21c-33.25,0-60.2-26.96-60.2-60.21c0-0.11,0-0.2,0.01-0.31
		c0.16-33.11,27.05-59.9,60.19-59.9c33.15,0,60.04,26.79,60.2,59.9C782.84,4752.76,782.84,4752.86,782.84,4752.97"/>
	<path class="st0" d="M769.9,4752.97c-0.77,26.56-22,48.1-49.04,47.22c-25.23-0.82-45.66-22.36-45.49-47.53
		c0.17-25.63,21.58-47.01,47.26-46.96C748.79,4705.76,769.41,4727.14,769.9,4752.97c0.32,16.63,26.19,16.68,25.87,0
		c-0.57-29.88-18.36-56.87-46.33-67.97c-28.86-11.46-62.95-2.83-82.82,21.04c-42.57,51.14,2.5,129.82,68.19,118.96
		c35.46-5.87,59.95-36.76,60.97-72.02C796.26,4736.31,770.39,4736.33,769.9,4752.97"/>
	<path class="st1" d="M307.82,4752.97c0,33.25-26.95,60.21-60.2,60.21s-60.2-26.96-60.2-60.21c0-0.11,0-0.2,0.01-0.31
		c0.16-33.11,27.05-59.9,60.2-59.9s60.03,26.79,60.2,59.9C307.82,4752.76,307.82,4752.86,307.82,4752.97"/>
	<path class="st0" d="M294.88,4752.97c-0.77,26.56-22,48.1-49.04,47.22c-25.23-0.82-45.66-22.36-45.49-47.53
		c0.17-25.64,21.58-47.01,47.26-46.96C273.79,4705.76,294.37,4727.14,294.88,4752.97c0.33,16.63,26.21,16.68,25.87,0
		c-0.6-29.88-18.34-56.86-46.33-67.97c-28.86-11.46-62.95-2.83-82.82,21.04c-42.56,51.14,2.5,129.82,68.19,118.96
		c35.45-5.87,59.95-36.76,60.97-72.02C321.24,4736.31,295.36,4736.33,294.88,4752.97"/>
	<path class="st0" d="M937.37,4567.74c-42-42.42-66.68-95.27-92.91-148.07c-17.16-34.53-34.61-69.81-55.85-102.05
		c-9.38-14.23-38.6-8.71-54.1-8.76c-98.49-0.31-196.97-0.23-295.45-0.15c-97.48,0.08-194.96,0.22-292.43,0.4
		c-25.64,0.05-51.28,0.1-76.92,0.15c-6.9,0.01-13.62-0.45-20.02,2.84c-16.77,8.61-15.1,31.64-16.72,47.61
		c-2.22,21.89-4.04,43.81-5.49,65.77c-4.68,71.32-5.41,142.95-1.65,214.33c1.86,35.25,3.62,71.37,9.65,106.23
		c0.27,1.58,0.45,3.18,0.7,4.76c0.87,5.52,7.26,9.5,12.48,9.5h90.53c7.1,0,12.79-5.93,12.94-12.94
		c1.02-50.19,46.19-89.74,95.45-89.81c49.12-0.07,94.61,39.72,95.45,89.81c0.12,6.99,5.83,12.94,12.94,12.94H582.2h32
		c7.1,0,12.8-5.93,12.94-12.94c1.01-50.19,46.21-89.74,95.45-89.81c49.11-0.07,94.61,39.72,95.45,89.81
		c0.12,6.99,5.83,12.94,12.94,12.94h97.74c5.91,0,10.69-4.05,12.47-9.5c7.35-22.38,11.89-45.89,14.8-69.23
		c4.6-36.89,4.6-79-16.6-111.19c-9.12-13.85-31.53-0.91-22.34,13.06c19.07,28.96,17.35,67.72,12.72,100.69
		c-2.83,20.14-7.18,40.45-13.53,59.8c4.16-3.17,8.32-6.33,12.48-9.5h-97.74c4.31,4.31,8.63,8.63,12.94,12.94
		c-1.08-64.15-58.02-115.68-121.32-115.68c-63.47,0-120.03,51.53-121.33,115.68c4.31-4.31,8.62-8.62,12.94-12.94H387.95h-32
		c4.31,4.31,8.62,8.63,12.94,12.94c-1.08-64.15-58.02-115.68-121.33-115.68c-63.48,0-120.01,51.53-121.32,115.68
		c4.31-4.31,8.62-8.62,12.94-12.94H48.64c4.16,3.17,8.32,6.33,12.47,9.5c-0.15-0.95-0.57-2.23-0.47-3.17
		c0.07-0.6-0.66-4.77-0.37-2.63c0.2,1.52-0.55-4.25-0.71-5.54c-1.57-12.53-2.86-25.1-3.98-37.68c-4.12-45.9-6.02-92.01-6.24-138.09
		c-0.32-65.8,2.86-131.63,9.49-197.1c0.51-5.05,0.97-10.12,1.6-15.16c0.08-0.58,2.74-11.1,0.35-9.39c0.12-0.09,0.43,0.07,0.56,0
		c0.85-0.49,3.59-0.04,4.5-0.01c6.31,0.18,12.67-0.03,18.98-0.04c149.75-0.31,299.49-0.54,449.24-0.57
		c80.68-0.02,161.36-0.09,242.04,0.39c-3.72-2.14-7.45-4.27-11.17-6.41c29.46,48.13,53.85,98.61,79.32,148.88
		c20.11,39.68,43.37,76.88,74.82,108.65C930.8,4597.89,949.1,4579.59,937.37,4567.74"/>
	<path class="st0" d="M441.58,4464.59v59.72c4.31-4.31,8.62-8.63,12.94-12.94h-63.64c-6.99,0-12.94,5.92-12.94,12.94v63.64
		c4.31-4.31,8.62-8.62,12.94-12.94h-59.72c4.31,4.31,8.63,8.63,12.94,12.94v-63.64c0-6.99-5.93-12.94-12.94-12.94h-63.64
		c4.31,4.31,8.63,8.62,12.94,12.94v-59.72c-4.31,4.31-8.62,8.62-12.94,12.94h63.64c6.99,0,12.94-5.93,12.94-12.94v-63.64
		c-4.31,4.31-8.62,8.62-12.94,12.94h59.72c-4.31-4.31-8.63-8.63-12.94-12.94v63.64c0,6.99,5.93,12.94,12.94,12.94h63.64
		c16.65,0,16.68-25.87,0-25.87h-63.64c4.31,4.31,8.62,8.62,12.94,12.94v-63.64c0-6.99-5.93-12.94-12.94-12.94h-59.72
		c-6.99,0-12.94,5.92-12.94,12.94v63.64c4.31-4.31,8.63-8.62,12.94-12.94h-63.64c-6.99,0-12.94,5.93-12.94,12.94v59.72
		c0,6.99,5.93,12.94,12.94,12.94h63.64c-4.31-4.31-8.62-8.63-12.94-12.94v63.64c0,6.99,5.93,12.94,12.94,12.94h59.72
		c6.99,0,12.94-5.93,12.94-12.94v-63.64c-4.31,4.31-8.63,8.62-12.94,12.94h63.64c6.99,0,12.94-5.93,12.94-12.94v-59.72
		C467.45,4447.94,441.58,4447.91,441.58,4464.59"/>
	<path class="st0" d="M623.51,4214.38v26.51c0,16.65,25.87,16.68,25.87,0v-26.51C649.38,4197.73,623.51,4197.71,623.51,4214.38"/>
	<path class="st0" d="M668.81,4308.65h-66.47c4.31,4.31,8.63,8.62,12.94,12.94c0-6.39-0.61-13.1,0-19.46
		c1.15-12.09,9.54-15.17,20.3-15.17c10.52,0,19.15,2.95,20.3,14.97c0.61,6.44,0,13.18,0,19.65c0,16.65,25.87,16.67,25.87,0
		c0-12.06,1.44-25.11-3.63-36.39c-7.85-17.46-24.42-24.11-42.54-24.11c-17.57,0-33.54,6.06-41.85,22.6
		c-5.84,11.62-4.32,25.29-4.32,37.9c0,6.99,5.93,12.94,12.94,12.94h66.47C685.45,4334.52,685.48,4308.65,668.81,4308.65"/>
	<path class="st0" d="M552.37,4248.83c5.23,6.43,10.45,12.85,15.68,19.28c4.29,5.27,13.9,4.79,18.3,0c5.14-5.6,4.57-12.67,0-18.29
		c-5.23-6.43-10.46-12.85-15.68-19.28c-4.29-5.27-13.9-4.79-18.29,0C547.23,4236.14,547.8,4243.21,552.37,4248.83"/>
	<path class="st0" d="M700.48,4230.54c-5.23,6.43-10.46,12.85-15.68,19.28c-4.26,5.24-5.51,13.24,0,18.29
		c4.73,4.34,13.74,5.6,18.29,0c5.23-6.43,10.46-12.85,15.68-19.28c4.26-5.24,5.51-13.24,0-18.3
		C714.05,4226.2,705.04,4224.93,700.48,4230.54"/>
	<path class="st0" d="M614.54,4394.31c39.43,0.02,78.86,0.04,118.28,0.27c-3.72-2.14-7.45-4.27-11.17-6.41
		c18.1,27.6,33.5,56.64,47.68,86.42c10.76,22.6,20.73,45.73,33.92,67.06c3.72-6.49,7.45-12.98,11.17-19.46
		c-30.44,0.03-60.85,1-91.27,1.75c-18.26,0.46-39.38,1.42-56.21-1.14c-5.6-0.85-13.82-3.1-16.29-4.33
		c-1.67-0.83-5.83-3.45-5.86-3.48c0.6,0.47-5.11-5.5-3.64-3.57c-7.66-10.02-9.89-24.35-11.28-38.36
		c-3.03-30.39-2.39-61.2-2.39-91.69c0-16.65-25.88-16.67-25.87,0c0.01,29.51-0.51,59.24,2.11,88.67
		c1.53,17.22,3.72,35.92,12.84,51.04c18.64,30.89,59.59,29.48,91.19,29.05c35.57-0.48,71.1-2.04,106.68-2.07
		c9.62-0.01,16.38-11.05,11.17-19.47c-25.72-41.62-42.18-88.38-67.2-130.52c-6.03-10.16-12.52-27.72-25.57-29.37
		c-10.15-1.28-21.27-0.11-31.51-0.13c-28.93-0.09-57.85-0.12-86.78-0.13C597.89,4368.43,597.86,4394.3,614.54,4394.31"/>
	<path class="st0" d="M1582.89,4902.1h360.13h50.2c6.99,0,12.94-5.92,12.94-12.94v-322.51v-203.64v-53.9
		c0-18.14-7.05-33.31-28.12-34.16c-54.11-2.17-108.76,0-162.9,0H1617.3c-19.99,0-45.72-1.82-47.35,25.94c-0.59,10,0,20.21,0,30.22
		v179.79v371.27v6.99c0,16.65,25.87,16.68,25.87,0v-312.22v-201.86v-60.62c0-2.59-1.38-10.13,0-12.43c1.11-1.85,0.31-0.45,3.22-1.2
		c6.06-1.56,14.65,0,20.87,0h37.45h103.62h195.87c5.04,0,21.15-2.4,23.43,1.48c1.46,2.48,0,10.18,0,13.01v24.88v183.19v358.78v6.99
		l12.94-12.94h-360.12h-50.2C1566.24,4876.23,1566.21,4902.1,1582.89,4902.1"/>
	<path class="st0" d="M1723.47,4900.36h129.18c6.99,0,12.94-5.93,12.94-12.94v-168.09c0-6.99-5.93-12.94-12.94-12.94h-129.18
		c-6.99,0-12.94,5.93-12.94,12.94v168.09c0,16.65,25.87,16.67,25.87,0v-168.09c-4.31,4.31-8.62,8.62-12.94,12.94h129.18
		c-4.31-4.31-8.62-8.62-12.94-12.94v168.09c4.31-4.31,8.62-8.63,12.94-12.94h-129.18
		C1706.82,4874.49,1706.79,4900.36,1723.47,4900.36"/>
	<path class="st0" d="M1822.9,4608.59h85.32c6.99,0,12.94-5.93,12.94-12.94v-85.32c0-6.99-5.92-12.94-12.94-12.94h-85.32
		c-6.99,0-12.94,5.93-12.94,12.94v85.32c0,16.65,25.87,16.68,25.87,0v-85.32c-4.31,4.31-8.62,8.63-12.94,12.94h85.32
		c-4.31-4.31-8.62-8.62-12.94-12.94v85.32c4.31-4.31,8.63-8.62,12.94-12.94h-85.32C1806.25,4582.72,1806.23,4608.59,1822.9,4608.59"
		/>
	<path class="st0" d="M1667.52,4608.59h85.32c6.99,0,12.94-5.93,12.94-12.94v-85.32c0-6.99-5.93-12.94-12.94-12.94h-85.32
		c-6.99,0-12.94,5.93-12.94,12.94v85.32c0,16.65,25.87,16.68,25.87,0v-85.32c-4.31,4.31-8.62,8.63-12.94,12.94h85.32
		c-4.31-4.31-8.63-8.62-12.94-12.94v85.32c4.31-4.31,8.62-8.62,12.94-12.94h-85.32C1650.87,4582.72,1650.85,4608.59,1667.52,4608.59
		"/>
	<path class="st0" d="M1993.22,4902.31h218.02c6.99,0,12.94-5.93,12.94-12.94v-293.51v-162.97c0-9.43,1.04-19.52-0.46-28.88
		c-4.43-27.58-35.61-22.44-56.01-22.44h-174.48c-6.99,0-12.94,5.93-12.94,12.94v167.27v266.53v61.07c0,16.65,25.87,16.68,25.87,0
		v-167.27v-266.53v-61.07c-4.31,4.31-8.62,8.63-12.94,12.94h148.82h39.35c2.3,0,14.98-1.74,16.74,0c2.41,2.39,0.17,18.52,0.17,21.85
		v347.19v112.88c4.31-4.31,8.62-8.62,12.94-12.94h-218.02C1976.57,4876.44,1976.54,4902.31,1993.22,4902.31"/>
	<path class="st0" d="M1364.87,4902.31h218.02c6.99,0,12.94-5.93,12.94-12.94v-167.27v-266.53v-61.07c0-6.99-5.93-12.94-12.94-12.94
		h-154.57c-17.62,0-38.26-3.06-55.67,0.7c-20.94,4.52-20.71,23.49-20.71,40.1v349.64v117.36c0,16.65,25.87,16.68,25.87,0v-282.09
		V4442.2v-23.05c0-2.04-1.21-9.07,0-10.81c2.82-4.05,29.22-0.89,34.5-0.89h170.58c-4.31-4.31-8.62-8.62-12.94-12.94v167.27v266.53
		v61.07c4.31-4.31,8.62-8.62,12.94-12.94h-218.02C1348.22,4876.44,1348.2,4902.31,1364.87,4902.31"/>
	<path class="st0" d="M1431.22,4578.54h85.32c6.99,0,12.94-5.93,12.94-12.94v-85.32c0-6.99-5.93-12.94-12.94-12.94h-85.32
		c-6.99,0-12.94,5.93-12.94,12.94v85.32c0,16.65,25.87,16.67,25.87,0v-85.32c-4.31,4.31-8.62,8.62-12.94,12.94h85.32
		c-4.31-4.31-8.63-8.63-12.94-12.94v85.32c4.31-4.31,8.62-8.63,12.94-12.94h-85.32C1414.57,4552.66,1414.55,4578.54,1431.22,4578.54
		"/>
	<path class="st0" d="M1431.22,4726.22h85.32c6.99,0,12.94-5.93,12.94-12.94v-85.32c0-6.99-5.93-12.94-12.94-12.94h-85.32
		c-6.99,0-12.94,5.93-12.94,12.94v85.32c0,16.65,25.87,16.68,25.87,0v-85.32c-4.31,4.31-8.62,8.62-12.94,12.94h85.32
		c-4.31-4.31-8.63-8.62-12.94-12.94v85.32c4.31-4.31,8.62-8.63,12.94-12.94h-85.32C1414.57,4700.35,1414.55,4726.22,1431.22,4726.22
		"/>
	<path class="st0" d="M2059.57,4578.54h85.32c6.99,0,12.94-5.93,12.94-12.94v-85.32c0-6.99-5.93-12.94-12.94-12.94h-85.32
		c-6.99,0-12.94,5.93-12.94,12.94v85.32c0,16.65,25.87,16.67,25.87,0v-85.32c-4.31,4.31-8.62,8.62-12.94,12.94h85.32
		c-4.31-4.31-8.62-8.63-12.94-12.94v85.32c4.31-4.31,8.62-8.63,12.94-12.94h-85.32C2042.92,4552.66,2042.89,4578.54,2059.57,4578.54
		"/>
	<path class="st0" d="M2059.57,4726.22h85.32c6.99,0,12.94-5.93,12.94-12.94v-85.32c0-6.99-5.93-12.94-12.94-12.94h-85.32
		c-6.99,0-12.94,5.93-12.94,12.94v85.32c0,16.65,25.87,16.68,25.87,0v-85.32c-4.31,4.31-8.62,8.62-12.94,12.94h85.32
		c-4.31-4.31-8.62-8.62-12.94-12.94v85.32c4.31-4.31,8.62-8.63,12.94-12.94h-85.32C2042.92,4700.35,2042.89,4726.22,2059.57,4726.22
		"/>
	<path class="st1" d="M1922.55,4272.66c0,74.28-60.22,134.49-134.49,134.49c-74.28,0-134.49-60.21-134.49-134.49
		c0-74.28,60.21-134.49,134.49-134.49C1862.33,4138.17,1922.55,4198.38,1922.55,4272.66"/>
	<path class="st0" d="M1909.61,4272.66c-0.67,50.44-31.85,97.02-79.87,114.26c-48.23,17.32-102.94,2.41-135.64-37.04
		c-32.67-39.4-36.36-96.96-9.84-140.52c26.03-42.76,77.78-65.97,127.03-56.06C1868.3,4164.77,1908.84,4214.81,1909.61,4272.66
		c0.22,16.64,26.1,16.68,25.87,0c-0.82-61.89-39.06-117.03-97.24-138.61c-57.34-21.27-124.76-2.73-163.51,44.41
		c-39.4,47.93-45.25,117.26-12.81,170.56c32.02,52.61,94.19,79.61,154.52,68.3c69.01-12.94,118.13-75.41,119.05-144.66
		C1935.7,4256,1909.83,4256,1909.61,4272.66"/>
	<path class="st0" d="M1846.36,4249.81v45.69l12.94-12.94h-48.4c-6.99,0-12.94,5.93-12.94,12.94v48.39
		c4.31-4.31,8.62-8.62,12.94-12.94h-45.69c4.31,4.31,8.62,8.63,12.94,12.94v-48.39c0-6.99-5.93-12.94-12.94-12.94h-48.4
		c4.31,4.31,8.62,8.62,12.94,12.94v-45.69c-4.31,4.31-8.62,8.63-12.94,12.94h48.4c6.99,0,12.94-5.92,12.94-12.94v-48.39
		c-4.31,4.31-8.63,8.62-12.94,12.94h45.69c-4.31-4.31-8.62-8.62-12.94-12.94v48.39c0,6.99,5.93,12.94,12.94,12.94h48.4
		c16.65,0,16.68-25.87,0-25.87h-48.4c4.31,4.31,8.62,8.63,12.94,12.94v-48.39c0-6.99-5.93-12.94-12.94-12.94h-45.69
		c-6.99,0-12.94,5.93-12.94,12.94v48.39c4.31-4.31,8.62-8.62,12.94-12.94h-48.4c-6.99,0-12.94,5.93-12.94,12.94v45.69
		c0,6.99,5.93,12.94,12.94,12.94h48.4c-4.31-4.31-8.63-8.62-12.94-12.94v48.39c0,6.99,5.92,12.94,12.94,12.94h45.69
		c6.99,0,12.94-5.92,12.94-12.94v-48.39l-12.94,12.94h48.4c6.99,0,12.94-5.93,12.94-12.94v-45.69
		C1872.23,4233.16,1846.36,4233.13,1846.36,4249.81"/>
	<path class="st0" d="M3496.56,4600.25h-104.72h-240.91h-267.22h-183.65h-19.91c-0.98,0-4.15-0.54-5,0
		c-3.78,2.37,7.56,6.18,6.47,7.12c1.66-1.42,0-14.11,0-16.27v-30.44v-61.24c0-2.58,0.55-5.83,0-8.34c-0.11-0.48,0.3-1.86,0-2.24
		c-1.71-2.11-7.59,7-7.75,6.63c0.08,0.19,1.85-0.08,2.07,0c3.69,1.43,10.8,0,14.7,0h66.47h230.61h269.82h199.15h25.78
		c2.43,0,10.85,1.44,12.9,0c2.86-2.01-5.86-7.54-6.58-6.63c-1.89,2.36,0,14.75,0,17.67v64.03v25.75c0,2.67-0.37,5.69,0,8.34
		c1,7.25-3.84-1.72,4.32-3.93c-16.06,4.34-9.24,29.31,6.88,24.95c18.53-5.01,14.67-25.67,14.67-40.46v-67.05
		c0-11.87,3.96-33.73-5.43-43.11c-5.31-5.32-11.51-5.42-18.24-5.42h-151.7h-267.02h-262.52c-44.54,0-89.58-1.96-134.1,0
		c-12.07,0.53-19.44,8.1-19.91,20.24c-0.69,17.56,0,35.3,0,52.87v59.24c0,12.65,4.57,23.12,18.98,24.17c13.24,0.97,26.93,0,40.19,0
		h87.97h259.04h270.01h157h7.61C3513.21,4626.13,3513.24,4600.25,3496.56,4600.25"/>
	<path class="st0" d="M2911.07,4468.01h-201.85c-0.61,0-3.75-0.46-4.23,0c-0.17,0.16-0.75-0.15-0.93,0
		c-1.01,0.83,7.76,5.93,6.95,6.85c0.36-0.41-0.25-1.71,0-2.22c1.34-2.8,0-10,0-12.98v-16.39c0-0.84,0.49-4.61,0-5.15
		c-1.07-1.18-4.23,2.38-4.01,2.82c0.13,0.25,2.62-0.08,2.93,0c4.73,1.26,11.58,0,16.43,0h127.29h31.7c5.87,0,13.65,1.35,19.39,0
		c0.36-0.08,3.14,0.28,3.28,0c-0.11,0.21-3.74-4.04-4.01-3.91c-0.26,0.13,0.14,1.91,0,2.22c-0.63,1.36,0,4.55,0,6.05v19.11
		c0,2.19-0.31,4.64,0,6.81c1.06,7.36-3.37-0.85,3.62-2.75c-16.06,4.34-9.24,29.31,6.88,24.95c14.79-4,15.37-16.27,15.37-29.01
		c0-9.64,0.85-19.71-0.23-29.3c-2.49-22.13-23.94-20.03-40.19-20.03h-143.57c-12.84,0-26.07-0.94-38.89,0
		c-27.92,2.04-22.85,38.35-21.86,58.22c1.01,20.36,17.21,20.59,32.53,20.59h64.4h129
		C2927.72,4493.89,2927.75,4468.01,2911.07,4468.01"/>
	<path class="st0" d="M3418.2,4468.01h-352.91h-26.16c-1.33,0-4.41-0.6-5.63,0c-0.13,0.06-0.36-0.07-0.48,0h-0.11
		c-3.65-0.02-1.1,2.48,7.67,7.49c1.18-1.76,0-7.74,0-9.93c0-11.56-3.95-28.81,11.56-30.51c6.3-0.69,13.08,0,19.41,0h206.13h103.07
		c6.18,0,12.98-0.82,19.12,0c9.61,1.28,10.58,8.03,10.58,16.07v14.43c0,1.97-0.35,4.42,0,6.37c1.35,7.5-4.56-1.07,4.32-3.47
		c-16.06,4.34-9.24,29.31,6.88,24.95c19.56-5.29,15.37-31.93,14.67-47.73c-0.94-21.18-16.49-35.78-37.44-36.49
		c-22.26-0.76-44.68,0-66.96,0h-236.22c-17.5,0-42.96-4.25-59.57,3.28c-23.93,10.85-21.42,35.74-21.42,57.57
		c0,13.87,6.22,23.33,20.81,23.84c62.31,2.17,125.08,0,187.41,0c63.86,0,127.96,1.62,191.8,0c1.15-0.03,2.31,0,3.47,0
		C3434.85,4493.89,3434.87,4468.01,3418.2,4468.01"/>
	<path class="st0" d="M3375.85,4603.66c-66.63,27.88-133.26,55.76-199.88,83.64c-105.7,44.23-211.4,88.47-317.1,132.7
		c-24.3,10.17-48.6,20.34-72.89,30.5c-15.13,6.33-8.49,31.38,6.88,24.95c66.63-27.88,133.25-55.76,199.88-83.65
		c105.7-44.23,211.4-88.46,317.1-132.69c24.3-10.17,48.6-20.34,72.89-30.5C3397.86,4622.27,3391.22,4597.23,3375.85,4603.66"/>
	<path class="st0" d="M2785.98,4628.6c66.63,27.88,133.25,55.77,199.88,83.64c105.7,44.23,211.4,88.47,317.1,132.7
		c24.3,10.17,48.59,20.34,72.89,30.5c15.34,6.42,22.03-18.6,6.88-24.95c-66.63-27.88-133.25-55.76-199.88-83.65l-317.1-132.7
		l-72.9-30.5C2777.52,4597.23,2770.82,4622.26,2785.98,4628.6"/>
	<path class="st0" d="M2779.42,4878.65c-0.93,17.34-27.02,17.47-27.02,0C2752.4,4861.15,2778.49,4861.32,2779.42,4878.65
		c0.89,16.56,26.77,16.67,25.87,0c-1.15-21.33-17.13-39.39-39.38-39.39c-21.47,0-39.26,18.02-39.39,39.39
		c-0.12,20.96,17.22,38.44,37.94,39.3c22.81,0.96,39.65-17.48,40.82-39.3C2806.19,4862.01,2780.32,4862.06,2779.42,4878.65"/>
	<path class="st0" d="M3422.98,4878.65c-0.93,17.34-27.02,17.47-27.02,0C3395.96,4861.15,3422.05,4861.32,3422.98,4878.65
		c0.89,16.56,26.77,16.67,25.87,0c-1.15-21.33-17.13-39.39-39.38-39.39c-21.47,0-39.26,18.02-39.38,39.39
		c-0.12,20.96,17.22,38.44,37.94,39.3c22.81,0.96,39.65-17.47,40.82-39.3C3449.75,4862.01,3423.88,4862.06,3422.98,4878.65"/>
	<path class="st0" d="M2754.27,4422.13v-262.17v-37.53c-4.31,4.31-8.62,8.62-12.94,12.94h102.15c-4.31-4.31-8.62-8.62-12.94-12.94
		v53.87c0,16.65,25.87,16.68,25.87,0v-53.87c0-6.99-5.93-12.94-12.94-12.94h-102.15c-6.99,0-12.94,5.93-12.94,12.94v262.17v37.53
		C2728.39,4438.79,2754.27,4438.81,2754.27,4422.13"/>
	<path class="st0" d="M2875.68,4256.43h-67.02c4.31,4.31,8.63,8.62,12.94,12.94v-92.08c-4.31,4.31-8.62,8.62-12.94,12.94h67.02
		c-4.31-4.31-8.62-8.62-12.94-12.94v92.08c0,16.65,25.87,16.68,25.87,0v-92.08c0-6.99-5.93-12.94-12.94-12.94h-67.02
		c-6.99,0-12.94,5.93-12.94,12.94v92.08c0,6.99,5.93,12.94,12.94,12.94h67.02C2892.32,4282.31,2892.35,4256.43,2875.68,4256.43"/>
	<path class="st0" d="M2088.12,1912.63c8.55-18.12,17.12-37.3,13.88-57.82c-2.78-17.54-13.84-32.77-31.1-38.24
		c-15.84-5.02-35.51-3.51-47.03,9.51c-5.92,6.68-10.18,15.02-15.71,22.07c-6.58,8.4-13.78,16.32-21.29,23.89
		c-26.36,26.54-57.01,47.85-87.38,69.46c-12.39,8.82-25.29,17.54-36.61,27.73c-12.57,11.32-17.3,26.49-17.88,43.06
		c-0.66,18.72,3.8,37.21,3.61,55.92c-0.19,19.49-5.76,39.09-8.39,58.35c-1.8,13.17-6.53,29.74,3.61,40.52
		c5.62,5.98,13.48,9.48,21,12.37c21.31,8.2,45.14,11.02,67.77,12.45c24.17,1.54,49.62,1.12,73.16-5.16
		c18.7-4.99,36.05-14.68,39.9-34.92c3.26-17.15,15.47-30.81,24.98-45.1c11.75-17.67,28.65-32.09,45.05-45.31
		c17.2-13.86,32.64-26.33,45.62-44.47c17.33-24.21,28.8-52.65,37.1-81.08c12.33-42.21,17.78-86.56,22.65-130.17
		c2.35-21,4.09-42.05,5.37-63.14c1.17-19.25,3.97-39.01-1.19-57.88c-8.08-29.54-29.24-72.52-66.79-56.96
		c-31.29,12.97-36.86,43.96-39.5,74.17c-3.37,38.58-10.07,76.91-20.5,114.22c-15,53.65-38.39,108.94-80.92,146.62
		c-10.49,9.3-22.19,16.89-34.74,23.12c-14.91,7.41-1.82,29.73,13.06,22.34c90.36-44.9,126.16-156.68,141.71-249.25
		c2.64-15.72,4.78-31.55,6.37-47.42c1.67-16.61,0.48-37.2,11.44-50.6c4.55-5.55,13.73-12.41,21.25-10.3
		c6.95,1.95,10.99,10.63,14.06,16.49c6.97,13.34,12.1,27.75,11.55,42.88c-1.41,38.33-4.47,76.64-9.32,114.69
		c-7.9,62.05-17.1,131.97-56.78,183.04c-12.3,15.84-25.72,24.8-40.36,36.7c-14.73,11.97-28.85,24.85-40.59,39.83
		c-9.55,12.19-19.78,26.28-27.32,39.85c-3.65,6.57-5.75,13.51-7.15,20.85c-0.77,4.02-0.93,5.73-2.16,7.25
		c-2.97,3.71-9.99,6.68-15.8,8.49c-19.57,6.08-40.84,6.52-61.15,5.79c-20.85-0.75-42.05-3.13-62.06-9.29
		c-3.15-0.97-6.34-1.97-9.31-3.31c-1.73-0.78-7.66-4.31-6.57-3.59c-1.71-1.13-0.88-2.03-0.72-0.41c-0.05-0.58,0.1-1.37,0.13-0.19
		c0.09,2.82,0.93-4.52,0.99-5.29c0.8-10.07,2.36-20.05,4.02-30.02c2.62-15.79,6.47-31.85,6.38-47.93
		c-0.09-16.4-3.4-32.59-3.64-48.98c-0.24-16.35,4.18-25.22,16.83-35.28c11.16-8.88,22.95-16.99,34.59-25.23
		c27.34-19.35,54.67-39.08,78.74-62.48c12.17-11.83,23.35-24.61,33.35-38.32c4.44-6.08,7.35-14.23,15.15-16.01
		c7.27-1.66,16.76,0.65,21.69,6.34c13.08,15.12,1.7,38.07-5.39,53.08C2058.71,1914.54,2081.01,1927.69,2088.12,1912.63"/>
	<path class="st0" d="M2009.34,1712.57c-19.62,46.52-59.82,80.15-99.35,109.54c-40.34,29.99-81.92,58.42-123.5,86.66h13.06
		c-37.89-25.98-75.94-51.78-113.04-78.89c-37.18-27.15-75.5-56.43-99.36-96.65c-23.5-39.61-29.74-88.42-13.96-132.05
		c14.72-40.69,50.14-76.92,95.68-76.56c54.59,0.43,98.02,45.47,111.63,95.65c3.34,12.31,21.59,12.31,24.95,0
		c16.23-59.56,80.19-115.96,144.78-89.45C2019.46,1559.22,2034.32,1649.89,2009.34,1712.57c-6.16,15.47,18.85,22.19,24.95,6.88
		c30.43-76.36,5.18-182.11-77.6-213.8c-78.02-29.86-156.33,34.86-176.19,107.74h24.95c-13.49-49.73-50.28-93.08-100.15-108.81
		c-50.27-15.86-100.56,3.12-132.2,44.07c-33.1,42.83-42.31,100.35-27.81,152.15c14.4,51.4,51.05,91.22,91.82,123.85
		c47.7,38.19,99.03,71.92,149.39,106.45c3.55,2.43,9.5,2.41,13.06,0c45.37-30.82,90.94-61.69,134.55-94.97
		c41.71-31.82,79.48-67.57,100.19-116.68C2040.75,1704.13,2015.72,1697.44,2009.34,1712.57"/>
	<path class="st0" d="M1510.31,1899.57c-7.07-14.98-18.45-37.97-5.38-53.08c4.72-5.46,13.12-7.53,20.18-6.61
		c8.96,1.16,11.77,9.6,16.66,16.29c20.32,27.8,45.55,50.97,72.7,71.96c24.17,18.68,50.08,35.06,73.98,54.07
		c12.68,10.08,17.06,18.82,16.83,35.28c-0.23,16.39-3.56,32.58-3.64,48.98c-0.09,16.77,4.04,33.55,6.73,50.03
		c1.41,8.61,2.74,17.23,3.51,25.92c0.15,1.71,1.53,9.5,1.52,7.08c0-0.47,0.99-0.49-0.96,0.8c1-0.67-4.21,2.48-5.87,3.26
		c-3.2,1.5-6.61,2.59-10.01,3.64c-9.47,2.91-19.25,4.88-29.04,6.36c-22.05,3.33-44.86,4.15-67.07,2.17
		c-13.1-1.16-35.03-3.75-42.89-13.53c-1.31-1.63-1.16-1.84-1.85-5.2c-1.68-8.09-3.39-15.59-7.45-22.9
		c-7.55-13.59-17.76-27.64-27.33-39.85c-18.76-23.96-45.1-41.09-65.51-59.82c-37.52-34.43-53.27-88.09-62.55-136.43
		c-7.57-39.43-12.33-79.65-15.51-119.66c-1.55-19.42-2.71-38.89-3.47-58.36c-0.59-15.12,4.59-29.55,11.55-42.88
		c2.82-5.4,6.57-13.44,12.6-16.04c7.81-3.36,17.94,4.01,22.71,9.84c8.38,10.24,9.24,25.63,10.33,38.24
		c0.95,10.96,2.07,21.88,3.5,32.78c11.83,90.23,38.9,195.96,113.27,255.4c10.11,8.08,20.84,15.09,32.44,20.85
		c14.86,7.39,27.99-14.92,13.06-22.34c-52.17-25.92-83.61-78.26-103.23-131.24c-16.12-43.51-26.08-89.57-31.25-135.64
		c-1.9-16.99-1.91-34.82-6.64-51.28c-9.78-34.06-53.14-61.04-80.2-27.6c-10.15,12.55-16.91,29.13-21.14,44.58
		c-5.16,18.86-2.36,38.63-1.19,57.87c2.61,43.13,7.62,85.98,14.21,128.68c9.18,59.41,25.98,126.06,70.91,169.34
		c23.85,22.97,53.29,39.31,71.75,67.79c4.68,7.21,9.41,14.24,14.38,21.25c5.67,7.99,7.7,14.85,9.81,24.28
		c1.86,8.3,6.07,14.89,12.67,20.26c16.73,13.61,41.14,16.44,61.88,17.83c25.35,1.71,51.14-0.12,76.11-4.64
		c16.78-3.04,38.59-7.21,50.85-20.25c10.53-11.2,5.22-29.03,3.31-42.64c-2.68-19.13-8.18-38.61-8.08-58
		c0.18-32.58,13.87-72-14.28-97.23c-25.04-22.44-54.76-39.71-81.41-60.14c-15.45-11.85-30.34-24.54-43.98-38.45
		c-6.46-6.59-12.69-13.45-18.46-20.66c-6.38-7.97-11.13-17.87-18.16-25.22c-11.49-12-31.01-12.96-46.02-8.2
		c-17.3,5.48-28.26,20.69-31.1,38.24c-3.31,20.48,5.35,39.74,13.88,57.81C1495.07,1927.67,1517.38,1914.56,1510.31,1899.57"/>
	<path class="st0" d="M222.24,123.99c-37.45,0.81-74.7,21.63-86.33,58.91c-3.41,10.94-3.22,21.99-3.22,33.23v109.6v303.26
		c0,26.52-3.93,57.61,8.9,81.79c15.66,29.53,48.62,44.79,80.99,45.34c6.84,0.12,13.7,0,20.54,0h274.85c79.16,0,158.32,0.26,237.48,0
		c47.78-0.16,93.18-30.82,93.65-82.04c0.26-28.27,0-56.56,0-84.84V279.85c0-25.07,0.58-50.21,0-75.27
		c-1.23-52.47-48.6-80.59-96.53-80.59H503.8H237.57H222.24c-16.65,0-16.68,25.87,0,25.87h189.63h292.45
		c19.02,0,38.11-0.5,57.13,0.04c30.8,0.87,61.07,22.01,61.77,54.75c0.16,7.27,0,14.56,0,21.82V501.4v132.35
		c0,25.96,4.93,56.97-15.03,77.13c-22.23,22.46-52.9,19.37-81.56,19.37H606.27H304.26c-26.14,0-52.28,0.11-78.42,0
		c-21.01-0.09-41.72-6.33-55.62-23.03c-9.57-11.5-11.67-24.62-11.67-38.83V418.14c0-71.16-1.81-142.57,0-213.71
		c0.86-33.81,32.38-53.89,63.68-54.56C238.86,149.51,238.92,123.63,222.24,123.99"/>
	<path class="st0" d="M601.98,806.68H411.12c4.31,4.31,8.62,8.62,12.94,12.94v-73.17c-4.31,4.31-8.62,8.62-12.94,12.94h190.86
		c-4.31-4.31-8.62-8.63-12.94-12.94v73.17c0,16.65,25.87,16.67,25.87,0v-73.17c0-6.99-5.93-12.94-12.94-12.94H411.12
		c-6.99,0-12.94,5.93-12.94,12.94v73.17c0,6.99,5.93,12.94,12.94,12.94h190.86C618.62,832.56,618.65,806.68,601.98,806.68"/>
	<path class="st0" d="M715.01,873.31H552.23H320.1c-8.22,0-16.44,0.12-24.66,0c-16.01-0.23-30.46-14.98-20.46-31.1
		c9.39-15.13,40.41-9.65,55.33-9.65h239.35h108.08c15.32,0,46.72-5.61,55.38,11.03C740.33,857.41,729.69,872.57,715.01,873.31
		c-16.57,0.84-16.67,26.71,0,25.87c33.31-1.68,57.2-35.91,41.16-67.2c-8.77-17.12-25.76-25.09-44.33-25.3
		c-25.98-0.29-51.97,0-77.95,0H362.24c-22.95,0-46.02-0.71-68.95,0c-24.99,0.77-46.09,18.74-47.17,44.55
		c-1.13,26.95,20.9,47.02,46.79,47.95c66.62,2.4,133.77,0,200.43,0c72.52,0,145.22,1.54,217.72,0c1.31-0.03,2.63,0,3.95,0
		C731.66,899.19,731.68,873.31,715.01,873.31"/>
	<path class="st0" d="M721.56,443.3c-23.26,0.22-46.52,0.2-69.79,0.28c4.16,3.17,8.32,6.33,12.48,9.5
		c-7.7-23.08-15.4-46.16-23.1-69.24c-3.18-9.55-18.67-13.92-23.64-3.09c-18.73,40.74-37.45,81.49-56.17,122.24
		c7.88,1.03,15.76,2.06,23.65,3.09c-15.92-54.67-31.84-109.35-47.76-164.02c-3.3-11.34-22.83-13.26-24.95,0
		c-12.61,79.07-25.21,158.14-37.82,237.21c-1.79,11.2-3.57,22.39-5.36,33.59h24.95c-14.85-65.72-29.7-131.45-44.54-197.17
		c-2.1-9.31-4.2-18.62-6.31-27.93c-2.89-12.78-21.56-11.85-24.95,0c-15.27,53.39-30.55,106.77-45.82,160.16h24.95
		c-11.65-69-23.3-137.99-34.94-206.99c-2.24-13.26-21.55-11.33-24.95,0c-11.1,37.03-22.2,74.05-33.3,111.08
		c4.16-3.17,8.32-6.33,12.48-9.5c-18.82,0.28-37.63,0.58-56.44,0.8c-16.64,0.2-16.68,26.07,0,25.87c18.81-0.22,37.62-0.52,56.44-0.8
		c5.8-0.09,10.82-3.98,12.47-9.5c11.1-37.03,22.2-74.05,33.3-111.08h-24.95c11.65,69,23.3,137.99,34.95,206.99
		c2.22,13.15,21.67,11.45,24.95,0c15.27-53.39,30.55-106.77,45.82-160.16h-24.95c14.85,65.72,29.69,131.45,44.54,197.17
		c2.1,9.31,4.21,18.62,6.31,27.93c2.69,11.9,22.91,12.78,24.95,0c12.6-79.07,25.21-158.14,37.82-237.21
		c1.79-11.19,3.57-22.39,5.35-33.59h-24.95c15.92,54.68,31.84,109.35,47.76,164.03c2.87,9.85,18.79,13.66,23.65,3.09
		c18.72-40.75,37.45-81.49,56.17-122.24c-7.88-1.03-15.76-2.06-23.64-3.09c7.7,23.08,15.4,46.17,23.1,69.24
		c1.81,5.43,6.57,9.52,12.47,9.5c23.26-0.08,46.53-0.07,69.79-0.28C738.2,469.03,738.24,443.15,721.56,443.3"/>
	<path class="st0" d="M801.02,3163.77c-30.65,73.58-93.24,127.11-155.62,173.69c-64.68,48.28-131.45,93.92-198.21,139.26h13.06
		c-63.11-43.28-126.53-86.21-188.12-131.66c-59.8-44.13-120.47-92.88-155.72-159.85c-35.42-67.31-40.49-150.96-7.32-220.21
		c30.22-63.08,89.13-111.94,162.08-105.56c83.53,7.31,149.24,77.1,169.99,155.25c3.28,12.33,21.66,12.31,24.95,0
		c19.94-74.55,78.91-139.4,156.73-153.45c97.22-17.56,172.51,64.7,192.09,153.01C826.01,3064.2,820.09,3116.55,801.02,3163.77
		c-6.23,15.44,18.78,22.15,24.95,6.88c38.13-94.4,22.27-210.13-51.02-283.55c-35.04-35.09-81.55-56.07-131.59-53.99
		c-47.07,1.96-91.58,21.81-126.92,52.48c-36.76,31.91-62.74,75.33-75.27,122.21h24.95c-19.85-74.75-75.22-140.36-149.54-165.06
		c-76.07-25.28-153.18,2.2-201.77,64.32c-51.11,65.35-65.71,153.18-43.96,232.69c21.9,80.03,78.96,141.76,142.23,192.48
		c74.71,59.89,155.22,112.7,234.12,166.81c3.55,2.43,9.5,2.41,13.06,0c70.61-47.95,141.47-96.04,209.43-147.7
		c64.46-49,124.58-104.58,156.29-180.7C832.37,3155.3,807.34,3148.6,801.02,3163.77"/>
	<path class="st1" d="M907.93,3326.28c0,103.41-83.83,187.23-187.23,187.23c-103.41,0-187.23-83.82-187.23-187.23
		c0-103.4,83.82-187.23,187.23-187.23C824.11,3139.05,907.93,3222.88,907.93,3326.28"/>
	<path class="st0" d="M895,3326.28c-0.69,72.51-46.24,139.73-115.29,164.09c-69.07,24.37-146.85,2.98-193.66-53.33
		c-46.65-56.13-52.22-138.36-14.69-200.68c37.37-62.06,111.99-95.51,183.2-81.11C835.82,3171.67,894.21,3243.73,895,3326.28
		c0.16,16.64,26.03,16.68,25.87,0c-0.79-83.42-52.71-158.57-131.04-187.86c-78.2-29.24-170.25-4.45-223.16,60.1
		c-53.21,64.92-61.18,158.45-17.65,230.73c43.31,71.93,128.45,109.17,210.7,93.35c93.21-17.93,160.26-102.35,161.15-196.33
		C921.03,3309.63,895.16,3309.62,895,3326.28"/>
	<polygon class="st1" points="833.77,3290.02 833.77,3362.54 756.96,3362.54 756.96,3439.35 684.44,3439.35 684.44,3362.54 
		607.64,3362.54 607.64,3290.02 684.44,3290.02 684.44,3213.21 756.96,3213.21 756.96,3290.02 	"/>
	<path class="st0" d="M820.83,3290.02v72.52c4.31-4.31,8.62-8.62,12.94-12.94h-76.81c-6.99,0-12.94,5.93-12.94,12.94v76.81
		c4.31-4.31,8.63-8.63,12.94-12.94h-72.52c4.31,4.31,8.63,8.62,12.94,12.94v-76.81c0-6.99-5.92-12.94-12.94-12.94h-76.8
		c4.31,4.31,8.62,8.63,12.94,12.94v-72.52c-4.31,4.31-8.63,8.63-12.94,12.94h76.8c6.99,0,12.94-5.92,12.94-12.94v-76.81
		c-4.31,4.31-8.62,8.63-12.94,12.94h72.52c-4.31-4.31-8.62-8.62-12.94-12.94v76.81c0,6.99,5.93,12.94,12.94,12.94h76.81
		c16.65,0,16.68-25.87,0-25.87h-76.81c4.31,4.31,8.63,8.63,12.94,12.94v-76.81c0-6.99-5.92-12.94-12.94-12.94h-72.52
		c-6.99,0-12.94,5.93-12.94,12.94v76.81c4.31-4.31,8.63-8.62,12.94-12.94h-76.8c-7,0-12.94,5.93-12.94,12.94v72.52
		c0,6.99,5.92,12.94,12.94,12.94h76.8c-4.31-4.31-8.62-8.62-12.94-12.94v76.81c0,6.99,5.93,12.94,12.94,12.94h72.52
		c7,0,12.94-5.93,12.94-12.94v-76.81c-4.31,4.31-8.62,8.63-12.94,12.94h76.81c6.99,0,12.94-5.93,12.94-12.94v-72.52
		C846.71,3273.37,820.83,3273.35,820.83,3290.02"/>
</g>
</svg>
