<?xml version="1.0" encoding="UTF-8"?>
<svg xmlns="http://www.w3.org/2000/svg" xmlns:xlink="http://www.w3.org/1999/xlink" width="px" height="px" viewBox="0 0 8534 8534" version="1.1">
<g>
<path style=" stroke:none;fill-rule:nonzero;fill:rgb(0%,0%,0%);fill-opacity:1;" d="M 1489.070312 584.277344 C 1450.617188 589.828125 1417.964844 613.277344 1401.367188 647.230469 C 1394.015625 662.179688 1390.566406 675.53125 1389.566406 692.382812 C 1389.265625 697.082031 1389.066406 831.238281 1389.066406 1021.046875 L 1389.066406 1341.8125 L 1000.097656 1730.832031 C 745.035156 1985.941406 610.027344 2121.300781 607.929688 2124.097656 C 595.578125 2140.199219 588.128906 2157.601562 584.675781 2178.351562 C 583.828125 2183.601562 583.777344 2192.351562 583.777344 2367.859375 C 583.777344 2543.371094 583.828125 2552.121094 584.675781 2557.371094 C 586.828125 2570.371094 589.777344 2579.671875 595.277344 2590.871094 C 601.277344 2603.070312 608.027344 2612.574219 617.230469 2621.773438 C 634.828125 2639.375 656.878906 2650.425781 682.53125 2654.472656 C 688.082031 2655.324219 812.839844 2655.375 4266.699219 2655.375 C 7709.160156 2655.375 7845.367188 2655.324219 7851.066406 2654.472656 C 7877.417969 2650.472656 7899.921875 2638.921875 7918.121094 2620.074219 C 7935.070312 2602.523438 7945.023438 2581.972656 7949.273438 2555.871094 C 7949.972656 2551.269531 7950.074219 2474.765625 7950.222656 1625.828125 C 7950.371094 993.398438 7950.273438 698.183594 7949.871094 692.53125 C 7948.824219 675.230469 7945.421875 662.179688 7938.121094 647.28125 C 7921.171875 612.679688 7887.46875 588.777344 7848.867188 584.027344 C 7845.96875 583.675781 7097.734375 583.527344 5418.152344 583.527344 C 3241.550781 583.527344 2991.089844 583.628906 2985.789062 584.277344 C 2955.339844 588.226562 2927.289062 604.679688 2908.886719 629.28125 C 2903.484375 636.578125 2900.835938 640.929688 2896.9375 649.03125 C 2891.9375 659.480469 2888.835938 669.582031 2886.785156 682.03125 C 2885.933594 686.980469 2885.886719 720.984375 2885.636719 1301.710938 L 2885.386719 1916.089844 L 2310.609375 1341.3125 L 2310.457031 1014.546875 L 2310.308594 687.78125 L 2309.257812 681.53125 C 2306.257812 663.882812 2300.359375 648.582031 2291.207031 634.78125 C 2287.15625 628.679688 2279.707031 619.679688 2275.308594 615.480469 C 2256.65625 597.878906 2233.253906 586.878906 2208.152344 584.027344 C 2200.304688 583.078125 2182.351562 583.628906 2175.101562 584.976562 C 2163.5 587.175781 2154.601562 590.078125 2144.351562 595.078125 C 2109.300781 612.128906 2084.898438 646.980469 2080.648438 686.132812 C 2080.246094 689.480469 2080.097656 781.535156 2080.097656 982.546875 L 2080.097656 1274.058594 L 1620.074219 1274.058594 L 1619.925781 980.894531 C 1619.824219 710.332031 1619.726562 687.382812 1618.976562 682.78125 C 1614.527344 655.929688 1603.976562 634.878906 1586.074219 617.027344 C 1568.875 599.828125 1548.472656 589.277344 1523.570312 584.777344 C 1517.121094 583.578125 1495.871094 583.277344 1489.070312 584.277344 Z M 5302.75 1619.574219 L 5302.75 2425.113281 L 3116.644531 2425.113281 L 3116.644531 814.039062 L 5302.75 814.039062 Z M 7719.863281 1619.574219 L 7719.863281 2425.113281 L 5533.757812 2425.113281 L 5533.757812 814.039062 L 7719.863281 814.039062 Z M 2516.21875 1873.9375 L 2885.636719 2243.355469 L 2885.636719 2425.113281 L 814.039062 2425.113281 L 814.039062 2243.355469 L 1183.207031 1874.039062 L 1552.324219 1504.71875 L 1849.585938 1504.671875 L 2146.851562 1504.570312 Z M 2516.21875 1873.9375 "/>
<path style=" stroke:none;fill-rule:nonzero;fill:rgb(0%,0%,0%);fill-opacity:1;" d="M 4943.382812 1965.34375 C 4886.578125 1972.542969 4844.378906 2018.792969 4842.378906 2075.847656 C 4840.976562 2117 4860.429688 2154.402344 4894.980469 2177.101562 C 4904.378906 2183.253906 4919.128906 2189.453125 4930.980469 2192.253906 C 4946.332031 2195.902344 4966.984375 2196.101562 4981.984375 2192.804688 C 5016.183594 2185.203125 5044.585938 2163.351562 5060.4375 2132.398438 C 5065.488281 2122.550781 5068.789062 2112.800781 5071.085938 2101.097656 C 5072.835938 2091.949219 5073.289062 2075.097656 5072.039062 2065.148438 C 5067.789062 2031.796875 5049.085938 2001.84375 5021.035156 1983.492188 C 5007.234375 1974.441406 4993.335938 1968.992188 4976.484375 1966.042969 C 4968.582031 1964.640625 4951.582031 1964.292969 4943.382812 1965.34375 Z M 4943.382812 1965.34375 "/>
<path style=" stroke:none;fill-rule:nonzero;fill:rgb(0%,0%,0%);fill-opacity:1;" d="M 5868.023438 1964.941406 C 5858.523438 1965.742188 5845.375 1968.84375 5836.472656 1972.390625 C 5796.570312 1988.09375 5769.171875 2023.496094 5763.769531 2066.347656 C 5763.019531 2072.296875 5763.019531 2087.097656 5763.769531 2093.347656 C 5770.070312 2146.152344 5810.773438 2187.453125 5863.425781 2194.351562 C 5870.824219 2195.304688 5886.175781 2195.304688 5893.277344 2194.402344 C 5906.226562 2192.652344 5917.777344 2189.152344 5929.527344 2183.402344 C 5963.378906 2166.75 5986.679688 2135 5992.53125 2097.347656 C 5994.332031 2085.796875 5994.03125 2070.296875 5991.730469 2058.097656 C 5982.480469 2008.792969 5942.027344 1971.191406 5891.875 1965.34375 C 5886.226562 1964.691406 5873.476562 1964.441406 5868.023438 1964.941406 Z M 5868.023438 1964.941406 "/>
<path style=" stroke:none;fill-rule:nonzero;fill:rgb(0%,0%,0%);fill-opacity:1;" d="M 6786.566406 3115.945312 C 6777.117188 3116.445312 6766.21875 3117.296875 6758.566406 3118.195312 C 6664.664062 3129.046875 6578.507812 3178.949219 6521.65625 3255.351562 C 6481.855469 3308.90625 6458.902344 3371.257812 6454.300781 3438.160156 C 6454.003906 3442.8125 6453.800781 3550.417969 6453.800781 3740.773438 L 6453.800781 4036.1875 L 3570.816406 4036.339844 C 873.691406 4036.4375 687.480469 4036.488281 682.78125 4037.289062 C 663.730469 4040.488281 649.78125 4045.839844 634.929688 4055.589844 C 606.226562 4074.539062 587.078125 4106.792969 584.027344 4141.195312 C 583.628906 4145.746094 583.527344 4653.519531 583.628906 5997.03125 C 583.777344 7752.964844 583.828125 7846.867188 584.675781 7851.867188 C 586.828125 7864.769531 589.925781 7874.667969 595.277344 7885.621094 C 601.328125 7898.019531 608.128906 7907.621094 617.777344 7917.171875 C 636.03125 7935.273438 659.679688 7946.621094 685.433594 7949.621094 C 691.03125 7950.273438 1108.953125 7950.371094 4266.5 7950.371094 C 6787.066406 7950.371094 7842.816406 7950.222656 7846.667969 7949.824219 C 7886.070312 7946.023438 7920.972656 7921.769531 7938.320312 7886.167969 C 7945.273438 7871.96875 7948.671875 7859.167969 7949.871094 7842.867188 C 7950.273438 7837.765625 7950.371094 7292.640625 7950.273438 5988.28125 L 7950.074219 4140.945312 L 7949.023438 4134.695312 C 7944.722656 4109.492188 7934.722656 4089.089844 7917.972656 4071.640625 C 7900.320312 4053.238281 7877.96875 4041.6875 7851.566406 4037.339844 C 7846.367188 4036.488281 7823.265625 4036.4375 7347.144531 4036.339844 L 6848.121094 4036.1875 L 6866.121094 4018.039062 C 6876.023438 4008.085938 6885.921875 3997.789062 6888.074219 3995.1875 C 6902.375 3977.886719 6911.273438 3956.886719 6913.875 3934.234375 C 6914.675781 3927.183594 6914.222656 3908.933594 6913.074219 3902.683594 C 6908.625 3878.082031 6897.921875 3857.28125 6880.824219 3840.179688 C 6845.671875 3804.976562 6791.367188 3796.226562 6747.066406 3818.679688 C 6732.566406 3825.980469 6726.914062 3830.578125 6703.164062 3854.128906 L 6684.3125 3872.882812 L 6684.464844 3661.371094 C 6684.5625 3460.113281 6684.613281 3449.660156 6685.464844 3444.660156 C 6687.363281 3433.761719 6689.8125 3425.3125 6693.664062 3416.160156 C 6712.464844 3371.90625 6758.566406 3343.457031 6806.21875 3346.65625 C 6861.671875 3350.40625 6906.125 3392.109375 6913.273438 3447.210938 C 6913.574219 3449.5625 6914.023438 3456.613281 6914.324219 3462.960938 C 6915.074219 3482.5625 6918.074219 3495.464844 6925.324219 3510.566406 C 6931.175781 3522.765625 6937.574219 3531.914062 6946.777344 3541.367188 C 6956.675781 3551.464844 6965.828125 3558.167969 6978.425781 3564.417969 C 6994.277344 3572.265625 7011.078125 3576.167969 7029.328125 3576.167969 C 7047.582031 3576.167969 7064.082031 3572.367188 7080.230469 3564.417969 C 7113.832031 3547.917969 7136.535156 3517.316406 7143.136719 3479.664062 C 7144.234375 3473.414062 7144.636719 3450.113281 7143.886719 3438.710938 C 7137.933594 3352.058594 7101.933594 3274.054688 7040.03125 3213.652344 C 6982.328125 3157.347656 6907.824219 3123.496094 6827.070312 3116.894531 C 6818.21875 3116.195312 6793.46875 3115.597656 6786.566406 3115.945312 Z M 2885.636719 4611.964844 L 2885.636719 4957.230469 L 814.539062 4957.230469 L 814.539062 4266.699219 L 2885.636719 4266.699219 Z M 5302.75 4611.964844 L 5302.75 4957.230469 L 3116.144531 4957.230469 L 3116.144531 4266.699219 L 5302.75 4266.699219 Z M 7719.863281 5762.769531 L 7719.863281 7258.839844 L 5533.757812 7258.839844 L 5533.757812 4266.699219 L 7719.863281 4266.699219 Z M 2885.636719 6223.292969 L 2885.636719 7258.839844 L 814.539062 7258.839844 L 814.539062 5187.742188 L 2885.636719 5187.742188 Z M 5302.75 5532.757812 L 5302.75 5877.777344 L 3116.144531 5877.777344 L 3116.144531 5187.742188 L 5302.75 5187.742188 Z M 5302.75 6684.0625 L 5302.75 7259.339844 L 3116.144531 7259.339844 L 3116.144531 6108.785156 L 5302.75 6108.785156 Z M 7719.863281 7604.855469 L 7719.863281 7719.863281 L 814.539062 7719.863281 L 814.539062 7489.851562 L 7719.863281 7489.851562 Z M 7719.863281 7604.855469 "/>
<path style=" stroke:none;fill-rule:nonzero;fill:rgb(0%,0%,0%);fill-opacity:1;" d="M 1264.808594 4497.261719 C 1229.609375 4500.109375 1197.90625 4518.960938 1177.804688 4548.964844 C 1173.503906 4555.363281 1167.703125 4567.3125 1165.105469 4574.964844 C 1151.304688 4615.964844 1161.355469 4661.320312 1191.003906 4691.917969 C 1197.855469 4698.921875 1203.804688 4703.921875 1211.308594 4708.820312 C 1225.257812 4717.972656 1241.359375 4724.019531 1258.359375 4726.523438 C 1266.507812 4727.722656 1282.609375 4727.722656 1290.761719 4726.523438 C 1340.761719 4719.171875 1379.164062 4681.917969 1388.113281 4631.96875 C 1389.164062 4626.21875 1389.316406 4623.964844 1389.316406 4612.214844 C 1389.265625 4597.765625 1388.863281 4594.316406 1386.015625 4583.015625 C 1378.914062 4554.914062 1360.3125 4529.5625 1335.511719 4514.160156 C 1330.363281 4510.960938 1319.761719 4505.8125 1314.0625 4503.710938 C 1299.0625 4498.210938 1281.460938 4495.910156 1264.808594 4497.261719 Z M 1264.808594 4497.261719 "/>
<path style=" stroke:none;fill-rule:nonzero;fill:rgb(0%,0%,0%);fill-opacity:1;" d="M 1955.339844 4497.210938 C 1928.890625 4499.5625 1904.589844 4510.511719 1885.589844 4528.5625 C 1866.585938 4546.664062 1854.886719 4569.214844 1850.785156 4595.714844 C 1849.535156 4603.714844 1849.535156 4620.765625 1850.738281 4628.71875 C 1854.585938 4653.417969 1865.085938 4674.769531 1881.9375 4692.269531 C 1900.039062 4710.972656 1922.941406 4722.722656 1948.890625 4726.523438 C 1957.042969 4727.722656 1973.140625 4727.722656 1981.292969 4726.523438 C 2002.34375 4723.421875 2021.445312 4715.121094 2037.84375 4701.871094 C 2066.746094 4678.519531 2082.898438 4641.367188 2080.097656 4604.464844 C 2076.949219 4562.714844 2053.394531 4527.3125 2016.59375 4509.011719 C 2000.742188 4501.160156 1986.144531 4497.511719 1967.992188 4497.011719 C 1963.792969 4496.859375 1958.089844 4496.960938 1955.339844 4497.210938 Z M 1955.339844 4497.210938 "/>
<path style=" stroke:none;fill-rule:nonzero;fill:rgb(0%,0%,0%);fill-opacity:1;" d="M 2415.613281 4497.210938 C 2374.609375 4501.109375 2339.660156 4524.960938 2321.859375 4561.363281 C 2316.558594 4572.214844 2313.558594 4581.515625 2311.308594 4593.964844 C 2310.007812 4601.066406 2310.007812 4623.214844 2311.257812 4630.46875 C 2315.660156 4655.417969 2326.558594 4676.667969 2343.808594 4693.871094 C 2372.5625 4722.671875 2414.8125 4734.121094 2454.363281 4723.972656 C 2480.964844 4717.121094 2504.21875 4700.96875 2520.21875 4678.21875 C 2530.71875 4663.269531 2538.019531 4643.519531 2540.070312 4624.617188 C 2540.769531 4618.367188 2540.769531 4606.066406 2540.070312 4599.816406 C 2536.21875 4564.363281 2516.316406 4532.710938 2486.066406 4513.960938 C 2472.664062 4505.660156 2456.316406 4499.910156 2439.964844 4497.710938 C 2434.265625 4496.960938 2421.113281 4496.710938 2415.613281 4497.210938 Z M 2415.613281 4497.210938 "/>
<path style=" stroke:none;fill-rule:nonzero;fill:rgb(0%,0%,0%);fill-opacity:1;" d="M 4144.195312 4497.0625 C 4115.644531 4499.261719 4090.042969 4510.863281 4070.390625 4530.5625 C 4053.339844 4547.613281 4042.539062 4568.664062 4038.140625 4593.566406 C 4036.589844 4602.164062 4036.4375 4620.964844 4037.839844 4629.367188 C 4040.039062 4642.566406 4043.140625 4652.269531 4048.640625 4663.46875 C 4064.289062 4695.269531 4093.640625 4718.070312 4128.195312 4725.171875 C 4139.394531 4727.523438 4138.394531 4727.472656 4209.449219 4727.472656 C 4280.5 4727.472656 4279.5 4727.523438 4290.699219 4725.171875 C 4337.703125 4715.519531 4373.453125 4677.519531 4381.054688 4629.21875 C 4382.304688 4621.167969 4382.304688 4603.265625 4381.054688 4595.214844 C 4375.855469 4562.113281 4357.953125 4534.113281 4330.203125 4515.613281 C 4319.851562 4508.710938 4304.703125 4502.3125 4292.601562 4499.660156 C 4280.050781 4496.910156 4283.152344 4497.011719 4212.199219 4496.960938 C 4176.046875 4496.910156 4145.445312 4496.960938 4144.195312 4497.0625 Z M 4144.195312 4497.0625 "/>
<path style=" stroke:none;fill-rule:nonzero;fill:rgb(0%,0%,0%);fill-opacity:1;" d="M 5871.023438 4497.011719 C 5847.675781 4498.859375 5826.671875 4506.660156 5808.722656 4520.160156 C 5787.671875 4536.0625 5772.171875 4559.765625 5766.121094 4585.464844 C 5762.171875 4602.164062 5762.171875 4622.265625 5766.121094 4638.96875 C 5772.820312 4667.320312 5790.121094 4692.070312 5814.621094 4708.519531 C 5820.121094 4712.222656 5832.324219 4718.421875 5838.773438 4720.769531 C 5851.425781 4725.371094 5863.675781 4727.421875 5878.527344 4727.421875 C 5897.578125 4727.421875 5912.878906 4723.921875 5929.527344 4715.722656 C 5963.53125 4699.019531 5986.628906 4667.269531 5992.632812 4629.21875 C 5993.28125 4624.964844 5993.53125 4620.566406 5993.53125 4612.214844 C 5993.53125 4599.515625 5992.832031 4593.867188 5990.03125 4582.964844 C 5980.429688 4545.464844 5952.179688 4515.261719 5915.078125 4502.710938 C 5909.675781 4500.910156 5901.226562 4498.910156 5894.726562 4498.011719 C 5889.425781 4497.210938 5875.675781 4496.660156 5871.023438 4497.011719 Z M 5871.023438 4497.011719 "/>
<path style=" stroke:none;fill-rule:nonzero;fill:rgb(0%,0%,0%);fill-opacity:1;" d="M 1148.554688 5418.105469 C 1113.101562 5421.753906 1082.5 5440.105469 1063.050781 5469.355469 C 1044.898438 5496.65625 1039.449219 5531.210938 1048.097656 5563.761719 C 1053.949219 5585.660156 1067.300781 5606.460938 1085.050781 5621.363281 C 1103.101562 5636.515625 1124.902344 5645.515625 1148.753906 5647.765625 C 1152.605469 5648.164062 1369.664062 5648.265625 1853.585938 5648.164062 C 2519.21875 5648.015625 2553.121094 5647.964844 2557.871094 5647.113281 C 2575.570312 5643.964844 2590.222656 5638.363281 2603.871094 5629.363281 C 2627.921875 5613.613281 2645.375 5589.160156 2652.324219 5561.511719 C 2654.625 5552.460938 2655.222656 5547.511719 2655.472656 5535.960938 C 2655.773438 5523.359375 2655.074219 5515.808594 2652.625 5505.859375 C 2647.574219 5485.355469 2637.824219 5467.65625 2623.121094 5452.554688 C 2605.871094 5434.804688 2584.972656 5423.855469 2559.371094 5419.105469 L 2553.371094 5418.003906 L 1851.835938 5417.953125 C 1466.019531 5417.953125 1149.503906 5418.003906 1148.554688 5418.105469 Z M 1148.554688 5418.105469 "/>
<path style=" stroke:none;fill-rule:nonzero;fill:rgb(0%,0%,0%);fill-opacity:1;" d="M 1149.804688 5878.125 C 1140.902344 5878.875 1128.902344 5881.425781 1120.800781 5884.277344 C 1113.703125 5886.777344 1101.851562 5892.726562 1095.300781 5897.125 C 1075 5910.777344 1060.050781 5929.578125 1051.199219 5952.527344 C 1049.25 5957.679688 1046.5 5967.828125 1045.199219 5974.78125 C 1044.347656 5979.28125 1044.300781 6002.03125 1044.148438 6450.550781 C 1044.050781 6789.769531 1044.148438 6922.972656 1044.550781 6926.574219 C 1049.847656 6974.625 1084.300781 7014.378906 1130.804688 7026.078125 C 1134.402344 7026.980469 1140.003906 7028.128906 1143.304688 7028.628906 C 1149.152344 7029.53125 1169.65625 7029.578125 1849.835938 7029.578125 C 2530.019531 7029.578125 2550.519531 7029.53125 2556.371094 7028.628906 C 2589.972656 7023.429688 2617.671875 7006.078125 2636.324219 6978.425781 C 2646.273438 6963.675781 2653.324219 6944.226562 2655.125 6926.574219 C 2655.523438 6922.574219 2655.625 6791.617188 2655.523438 6450.300781 C 2655.375 6002.03125 2655.324219 5979.28125 2654.472656 5974.78125 C 2650.722656 5954.730469 2643.875 5938.828125 2632.375 5923.527344 C 2616.921875 5902.925781 2594.171875 5887.777344 2569.320312 5881.476562 C 2565.769531 5880.574219 2560.46875 5879.425781 2557.570312 5878.925781 C 2552.570312 5878.074219 2525.820312 5878.027344 1852.085938 5877.976562 C 1466.917969 5877.976562 1150.902344 5878.027344 1149.804688 5878.125 Z M 2425.113281 6223.542969 L 2425.113281 6338.296875 L 1274.558594 6338.296875 L 1274.558594 6108.785156 L 2425.113281 6108.785156 Z M 2425.113281 6684.0625 L 2425.113281 6798.820312 L 1274.558594 6798.820312 L 1274.558594 6569.308594 L 2425.113281 6569.308594 Z M 2425.113281 6684.0625 "/>
<path style=" stroke:none;fill-rule:nonzero;fill:rgb(0%,0%,0%);fill-opacity:1;" d="M 4141.195312 5418.105469 C 4110.09375 5421.402344 4082.941406 5435.65625 4063.589844 5458.753906 C 4027.738281 5501.507812 4027.738281 5564.5625 4063.589844 5607.261719 C 4081.292969 5628.414062 4105.191406 5641.914062 4133.445312 5646.863281 L 4139.945312 5648.015625 L 4209.199219 5648.015625 C 4284.550781 5648.015625 4281 5648.113281 4293.5 5645.265625 C 4318.300781 5639.515625 4341.304688 5625.011719 4357.152344 5605.011719 C 4369.855469 5589.0625 4377.503906 5571.460938 4381.003906 5550.011719 C 4382.304688 5542.359375 4382.304688 5524.410156 4381.054688 5516.257812 C 4375.253906 5478.90625 4353.253906 5447.90625 4320.203125 5430.605469 C 4310.203125 5425.355469 4299.25 5421.652344 4286.199219 5419.152344 C 4280.449219 5418.054688 4280.351562 5418.054688 4211.699219 5418.003906 C 4173.894531 5417.953125 4142.144531 5418.003906 4141.195312 5418.105469 Z M 4141.195312 5418.105469 "/>
<path style=" stroke:none;fill-rule:nonzero;fill:rgb(0%,0%,0%);fill-opacity:1;" d="M 4143.445312 6338.796875 C 4116.144531 6340.796875 4090.492188 6352.347656 4071.140625 6371.347656 C 4053.140625 6389.097656 4042.140625 6410.699219 4037.890625 6436.550781 C 4036.589844 6444.300781 4036.589844 6462.753906 4037.839844 6470.804688 C 4040.890625 6490.203125 4048.140625 6507.605469 4059.539062 6522.90625 C 4064.089844 6529.054688 4073.789062 6539.054688 4079.691406 6543.808594 C 4095.742188 6556.558594 4114.09375 6564.609375 4134.894531 6567.957031 L 4141.945312 6569.058594 L 4208.949219 6569.058594 C 4271.601562 6569.058594 4276.351562 6569.007812 4282.402344 6568.109375 C 4309.050781 6564.308594 4331.703125 6552.757812 4350.203125 6533.507812 C 4367.003906 6516.054688 4377.105469 6495.453125 4381.054688 6470.554688 C 4382.105469 6463.703125 4382.253906 6445.300781 4381.304688 6438.550781 C 4378.253906 6417.25 4369.804688 6397.5 4356.855469 6381.347656 C 4338.953125 6359.046875 4313.402344 6344.398438 4284.25 6339.695312 C 4277.550781 6338.597656 4276.652344 6338.597656 4213.199219 6338.496094 C 4177.847656 6338.445312 4146.496094 6338.597656 4143.445312 6338.796875 Z M 4143.445312 6338.796875 "/>
</g>
</svg>
