<?xml version="1.0" encoding="UTF-8"?>
<svg xmlns="http://www.w3.org/2000/svg" xmlns:xlink="http://www.w3.org/1999/xlink" width="px" height="px" viewBox="0 0 8534 8534" version="1.1">
<g>
<path style=" stroke:none;fill-rule:nonzero;fill:rgb(0%,0%,0%);fill-opacity:1;" d="M 4017.789062 674.082031 C 3826.03125 680.28125 3643.871094 766.6875 3517.113281 911.59375 C 3425.109375 1016.699219 3366.507812 1149.503906 3350.207031 1289.558594 C 3347.058594 1316.460938 3345.957031 1337.414062 3345.957031 1368.8125 C 3345.957031 1400.117188 3346.808594 1417.117188 3349.90625 1445.066406 C 3364.507812 1576.324219 3416.261719 1700.980469 3498.863281 1804.085938 C 3550.265625 1868.1875 3612.121094 1922.191406 3682.371094 1964.34375 C 3808.128906 2039.746094 3954.484375 2073.746094 4099.691406 2061.347656 C 4245.097656 2048.894531 4383.457031 1990.742188 4494.210938 1895.539062 C 4573.265625 1827.636719 4635.816406 1742.933594 4677.371094 1647.476562 C 4722.921875 1543.023438 4742.171875 1430.816406 4733.972656 1318.0625 C 4720.722656 1136.703125 4636.066406 966.496094 4499.210938 846.238281 C 4417.207031 774.136719 4317.753906 722.035156 4210.449219 694.832031 C 4147.445312 678.882812 4083.089844 671.980469 4017.789062 674.082031 Z M 4017.789062 674.082031 "/>
<path style=" stroke:none;fill-rule:nonzero;fill:rgb(0%,0%,0%);fill-opacity:1;" d="M 5373.75 999.398438 C 5308.449219 1002.246094 5250.894531 1012.746094 5190.992188 1032.75 C 5137.941406 1050.5 5089.1875 1074 5041.835938 1104.601562 C 4975.382812 1147.554688 4915.53125 1204.40625 4869.128906 1268.558594 C 4799.175781 1365.3125 4756.621094 1480.667969 4746.972656 1599.574219 C 4744.273438 1633.027344 4744.273438 1670.777344 4747.023438 1704.078125 C 4760.625 1871.636719 4838.175781 2027.695312 4963.433594 2139.449219 C 5058.238281 2224.054688 5178.394531 2279.855469 5304.75 2298.109375 C 5339.75 2303.15625 5367.601562 2304.90625 5405.753906 2304.457031 C 5434.703125 2304.109375 5452.707031 2302.957031 5477.757812 2299.808594 C 5608.414062 2283.507812 5730.867188 2228.453125 5829.523438 2141.699219 C 5850.273438 2123.449219 5869.523438 2104.097656 5890.175781 2080.847656 L 5892.828125 2077.847656 L 5888.976562 2083.847656 C 5873.175781 2108.449219 5859.925781 2132.050781 5848.773438 2155.601562 C 5796.773438 2265.304688 5777.972656 2384.863281 5794.070312 2503.617188 C 5809.671875 2618.671875 5857.472656 2726.976562 5932.328125 2816.683594 C 5944.429688 2831.132812 5953.128906 2840.582031 5969.230469 2856.683594 C 5992.832031 2880.234375 6009.78125 2895.035156 6035.03125 2913.9375 C 6125.1875 2981.589844 6235.542969 3023.941406 6347.996094 3034.140625 C 6366.898438 3035.84375 6373.898438 3036.191406 6395.550781 3036.492188 C 6422.402344 3036.84375 6440.652344 3036.09375 6465.554688 3033.59375 C 6587.457031 3021.390625 6704.0625 2972.390625 6798.367188 2893.785156 C 6824.21875 2872.285156 6851.070312 2845.683594 6873.121094 2819.882812 C 6955.875 2722.878906 7007.128906 2598.972656 7017.527344 2470.867188 C 7019.078125 2451.816406 7019.429688 2439.363281 7019.179688 2413.761719 C 7019.027344 2399.8125 7018.679688 2385.210938 7018.378906 2381.363281 C 7015.277344 2341.558594 7010.230469 2308.859375 7001.828125 2274.707031 C 6977.328125 2175.300781 6929.023438 2084.246094 6860.023438 2007.59375 C 6851.421875 1998.042969 6829.519531 1975.941406 6820.070312 1967.34375 C 6725.566406 1881.039062 6606.910156 1826.285156 6480.054688 1810.386719 C 6452.851562 1806.933594 6433.902344 1805.835938 6403.300781 1805.882812 C 6376.347656 1805.882812 6365.097656 1806.433594 6341.296875 1808.835938 C 6214.839844 1821.636719 6093.9375 1874.386719 5997.53125 1958.84375 C 5982.230469 1972.191406 5961.128906 1992.992188 5948.230469 2007.34375 C 5944.730469 2011.195312 5941.179688 2015.144531 5940.328125 2016.09375 C 5939.476562 2017.042969 5940.878906 2014.542969 5943.480469 2010.496094 C 5968.128906 1972.492188 5987.230469 1935.691406 6003.53125 1895.089844 C 6045.132812 1791.382812 6059.433594 1680.730469 6045.484375 1570.074219 C 6034.234375 1480.570312 6004.03125 1393.515625 5957.179688 1315.410156 C 5902.375 1224.007812 5826.421875 1147.953125 5735.019531 1092.800781 C 5714.917969 1080.652344 5684.515625 1064.851562 5663.765625 1055.699219 C 5586.511719 1021.648438 5508.859375 1003.347656 5425.503906 999.546875 C 5415.753906 999.097656 5382.503906 998.996094 5373.75 999.398438 Z M 5373.75 999.398438 "/>
<path style=" stroke:none;fill-rule:nonzero;fill:rgb(0%,0%,0%);fill-opacity:1;" d="M 6995.078125 2876.183594 C 6868.070312 2882.636719 6745.515625 2931.136719 6647.8125 3013.589844 C 6624.308594 3033.441406 6597.160156 3060.742188 6577.207031 3084.644531 C 6490.152344 3188.699219 6441.800781 3322.253906 6441.800781 3458.160156 C 6441.800781 3564.316406 6470.753906 3668.171875 6525.757812 3759.675781 C 6532.355469 3770.578125 6547.507812 3793.277344 6555.257812 3803.878906 C 6573.007812 3827.980469 6591.308594 3849.230469 6613.058594 3870.929688 C 6640.910156 3898.78125 6668.761719 3921.582031 6701.5625 3943.433594 C 6781.769531 3996.789062 6875.523438 4029.890625 6971.578125 4038.640625 C 6991.527344 4040.488281 7001.277344 4040.890625 7024.578125 4040.890625 C 7047.878906 4040.890625 7057.628906 4040.488281 7077.582031 4038.640625 C 7140.285156 4032.9375 7201.039062 4017.1875 7260.089844 3991.335938 C 7271.039062 3986.535156 7296.242188 3974.035156 7306.84375 3968.136719 C 7355.59375 3940.984375 7398.097656 3908.984375 7437.097656 3869.929688 C 7465.449219 3841.578125 7488.199219 3813.777344 7510.101562 3780.675781 C 7564.753906 3698.171875 7597.757812 3602.617188 7605.554688 3504.164062 C 7608.207031 3471.3125 7607.804688 3433.460938 7604.554688 3401.160156 C 7592.855469 3284.355469 7546.453125 3173.847656 7471.449219 3084.144531 C 7451.847656 3060.695312 7427.5 3035.992188 7404.597656 3016.292969 C 7352.695312 2971.738281 7293.34375 2936.6875 7229.339844 2912.738281 C 7171.984375 2891.335938 7114.382812 2879.386719 7052.832031 2876.136719 C 7041.628906 2875.585938 7006.929688 2875.585938 6995.078125 2876.183594 Z M 6995.078125 2876.183594 "/>
<path style=" stroke:none;fill-rule:nonzero;fill:rgb(0%,0%,0%);fill-opacity:1;" d="M 7112.582031 4162.546875 C 7037.28125 4164.246094 6961.226562 4181.945312 6891.421875 4213.996094 C 6816.269531 4248.550781 6748.917969 4300.101562 6696.0625 4363.453125 C 6625.8125 4447.707031 6581.507812 4551.613281 6569.359375 4660.71875 C 6553.207031 4805.574219 6594.359375 4951.082031 6684.261719 5066.988281 C 6699.015625 5086.039062 6710.964844 5099.488281 6730.515625 5118.988281 C 6759.21875 5147.640625 6783.066406 5167.242188 6815.820312 5188.992188 C 6920.574219 5258.546875 7046.082031 5291.046875 7170.835938 5280.996094 C 7262.441406 5273.546875 7349.996094 5244.097656 7428.097656 5194.34375 C 7451.398438 5179.492188 7473.75 5162.742188 7496.550781 5142.890625 C 7507.453125 5133.441406 7535.503906 5105.539062 7545.003906 5094.738281 C 7582.253906 5052.335938 7611.855469 5007.035156 7634.359375 4958.03125 C 7692.210938 4831.976562 7702.0625 4692.46875 7662.359375 4560.863281 C 7629.65625 4452.609375 7564.90625 4356.503906 7477.101562 4285.902344 C 7389.347656 4215.347656 7281.042969 4172.644531 7168.085938 4163.996094 C 7156.785156 4163.09375 7131.234375 4162.144531 7123.332031 4162.296875 C 7120.433594 4162.34375 7115.632812 4162.445312 7112.582031 4162.546875 Z M 7112.582031 4162.546875 "/>
</g>
</svg>
