<?xml version="1.0" encoding="UTF-8"?>
<svg xmlns="http://www.w3.org/2000/svg" xmlns:xlink="http://www.w3.org/1999/xlink" width="px" height="px" viewBox="0 0 8534 8534" version="1.1">
<g>
<path style=" stroke:none;fill-rule:nonzero;fill:rgb(0%,0%,0%);fill-opacity:1;" d="M 4207.945312 416.871094 C 4166.945312 418.917969 4125.992188 427.371094 4087.792969 441.570312 C 3963.386719 487.972656 3868.78125 593.578125 3836.730469 721.785156 C 3831.378906 743.183594 3828.328125 761.734375 3825.828125 787.785156 C 3825.027344 796.238281 3824.980469 849.890625 3824.777344 1694.578125 C 3824.679688 2344.011719 3824.777344 2595.671875 3825.179688 2604.371094 C 3826.03125 2622.773438 3827.328125 2635.125 3830.230469 2652.875 C 3845.03125 2742.328125 3891.082031 2825.683594 3959.4375 2886.683594 C 4019.238281 2940.039062 4092.140625 2974.140625 4170.195312 2985.339844 C 4192.097656 2988.441406 4203.398438 2989.140625 4238.949219 2989.488281 C 4288.351562 2989.941406 4311.902344 2988.539062 4340.953125 2983.390625 C 4435.707031 2966.589844 4520.210938 2917.085938 4582.613281 2841.78125 C 4607.914062 2811.230469 4630.417969 2773.328125 4645.269531 2736.226562 C 4660.917969 2697.175781 4669.917969 2658.324219 4673.320312 2614.871094 C 4673.867188 2607.820312 4673.96875 2450.714844 4673.96875 1702.078125 C 4673.96875 845.738281 4673.917969 797.289062 4673.117188 787.9375 C 4668.320312 734.085938 4655.617188 688.132812 4632.71875 641.78125 C 4599.367188 574.175781 4547.511719 517.023438 4483.511719 477.171875 C 4425.859375 441.269531 4361.855469 421.019531 4293.453125 417.019531 C 4286 416.570312 4215.996094 416.46875 4207.945312 416.871094 Z M 4207.945312 416.871094 "/>
<path style=" stroke:none;fill-rule:nonzero;fill:rgb(0%,0%,0%);fill-opacity:1;" d="M 6239.042969 1062.851562 C 6237.691406 1062.949219 6233.042969 1063.25 6228.792969 1063.550781 C 6166.339844 1068 6104.035156 1087.699219 6050.285156 1119.953125 C 6021.28125 1137.351562 5996.429688 1156.753906 5972.53125 1180.753906 C 5954.777344 1198.605469 5944.828125 1210.605469 5922.675781 1241.058594 C 5708.515625 1535.472656 4888.429688 2664.726562 4884.378906 2670.773438 C 4838.078125 2739.726562 4814.675781 2821.882812 4817.277344 2906.636719 C 4817.675781 2919.835938 4817.824219 2921.9375 4819.027344 2934.386719 C 4829.875 3045.394531 4886.730469 3147.796875 4974.734375 3214.75 C 4982.082031 3220.300781 5016.933594 3245.652344 5025.234375 3251.503906 C 5038.886719 3261.003906 5056.285156 3271.402344 5071.988281 3279.355469 C 5139.839844 3313.855469 5215.746094 3328.105469 5293.25 3320.90625 C 5334.75 3317.003906 5378.753906 3305.605469 5417.503906 3288.652344 C 5479.855469 3261.402344 5535.359375 3217.601562 5575.910156 3163.796875 C 5584.160156 3152.796875 6622.109375 1724.03125 6626.859375 1717.082031 C 6661.863281 1665.976562 6684.863281 1605.125 6692.8125 1542.574219 C 6695.214844 1523.472656 6695.5625 1517.472656 6695.5625 1491.320312 C 6695.515625 1465.117188 6695.214844 1459.269531 6692.765625 1439.816406 C 6679.5625 1335.414062 6626.761719 1241.15625 6544.90625 1175.65625 C 6534.054688 1167.003906 6491.804688 1136.351562 6479.554688 1128.253906 C 6449.300781 1108.351562 6417.699219 1093.152344 6383.050781 1081.902344 C 6353.296875 1072.25 6324.347656 1066.550781 6290.042969 1063.5 C 6284.246094 1063 6244.144531 1062.5 6239.042969 1062.851562 Z M 6239.042969 1062.851562 "/>
<path style=" stroke:none;fill-rule:nonzero;fill:rgb(0%,0%,0%);fill-opacity:1;" d="M 7498.101562 2778.429688 C 7463.75 2780.582031 7429.597656 2786.980469 7397.945312 2797.179688 C 7308.84375 2825.933594 5705.066406 3347.355469 5700.515625 3349.058594 C 5659.464844 3364.609375 5624.414062 3384.308594 5591.261719 3410.609375 C 5578.8125 3420.460938 5569.960938 3428.410156 5556.960938 3441.359375 C 5537.507812 3460.8125 5523.359375 3477.863281 5508.609375 3499.464844 C 5441.554688 3597.820312 5420.902344 3721.125 5452.503906 3834.429688 C 5455.304688 3844.480469 5471.15625 3893.683594 5475.304688 3905.28125 C 5490.90625 3948.785156 5514.808594 3990.386719 5544.808594 4026.1875 C 5611.414062 4105.742188 5706.765625 4156.945312 5810.171875 4168.695312 C 5826.773438 4170.546875 5834.273438 4170.945312 5855.023438 4170.945312 C 5875.925781 4170.945312 5883.625 4170.546875 5900.277344 4168.644531 C 5922.976562 4166.046875 5944.578125 4161.746094 5966.03125 4155.542969 C 5980.179688 4151.394531 7665.660156 3603.617188 7675.761719 3599.867188 C 7784.914062 3559.015625 7870.417969 3473.511719 7911.820312 3363.707031 C 7925.671875 3327.105469 7933.570312 3290.855469 7936.972656 3248.902344 C 7937.921875 3236.851562 7937.773438 3203.449219 7936.671875 3190.648438 C 7934.121094 3160.546875 7928.820312 3132.148438 7920.871094 3106.144531 C 7918.121094 3097.144531 7906.070312 3059.992188 7902.519531 3049.644531 C 7874.320312 2966.839844 7818.316406 2894.535156 7744.863281 2845.882812 C 7704.609375 2819.28125 7662.359375 2800.78125 7615.855469 2789.429688 C 7595.105469 2784.332031 7578.105469 2781.582031 7552.605469 2779.082031 C 7547.304688 2778.582031 7504.25 2778.082031 7498.101562 2778.429688 Z M 7498.101562 2778.429688 "/>
<path style=" stroke:none;fill-rule:nonzero;fill:rgb(0%,0%,0%);fill-opacity:1;" d="M 5830.273438 4363.203125 C 5716.917969 4370.804688 5613.164062 4424.058594 5541.507812 4511.460938 C 5513.160156 4546.011719 5489.457031 4588.113281 5474.554688 4630.46875 C 5472.105469 4637.515625 5459.257812 4676.917969 5455.554688 4688.820312 C 5438.855469 4742.671875 5433.953125 4802.375 5441.554688 4859.226562 C 5454.957031 4959.582031 5505.957031 5052.136719 5583.613281 5116.988281 C 5617.261719 5145.089844 5656.316406 5167.84375 5698.167969 5183.792969 C 5704.265625 5186.144531 7365.59375 5726.320312 7401.296875 5737.570312 C 7428.648438 5746.21875 7458.300781 5751.96875 7488.699219 5754.570312 C 7501.453125 5755.621094 7527.402344 5756.019531 7540.601562 5755.320312 C 7631.957031 5750.417969 7715.910156 5716.617188 7786.363281 5656.363281 C 7795.617188 5648.414062 7819.714844 5624.214844 7827.765625 5614.714844 C 7859.917969 5576.863281 7884.269531 5535.160156 7900.320312 5490.355469 C 7903.371094 5481.855469 7917.570312 5438.355469 7920.921875 5427.355469 C 7929.222656 5399.902344 7934.421875 5371.453125 7936.972656 5340 C 7937.921875 5327.949219 7937.773438 5294.097656 7936.671875 5281.246094 C 7932.171875 5227.695312 7918.421875 5178.34375 7895.121094 5131.742188 C 7848.867188 5039.1875 7769.964844 4968.332031 7674.257812 4933.28125 C 7667.308594 4930.78125 5992.53125 4386.355469 5971.78125 4379.90625 C 5947.078125 4372.203125 5918.726562 4366.703125 5889.277344 4363.90625 C 5879.277344 4362.953125 5840.773438 4362.503906 5830.273438 4363.203125 Z M 5830.273438 4363.203125 "/>
</g>
</svg>
