<?xml version="1.0" encoding="UTF-8"?>
<svg xmlns="http://www.w3.org/2000/svg" xmlns:xlink="http://www.w3.org/1999/xlink" width="px" height="px" viewBox="0 0 8534 8534" version="1.1">
<g>
<path style=" stroke:none;fill-rule:nonzero;fill:rgb(0%,0%,0%);fill-opacity:1;" d="M 4328.703125 784.535156 C 4178.546875 786.9375 4033.6875 800.085938 3887.433594 824.589844 C 3512.664062 887.339844 3153.398438 1023.347656 2830.132812 1224.957031 C 2629.125 1350.3125 2443.964844 1499.570312 2278.90625 1669.328125 C 2111.648438 1841.386719 1966.992188 2031.84375 1846.738281 2238.355469 C 1793.882812 2329.160156 1744.632812 2425.414062 1702.28125 2520.769531 C 1558.773438 2843.734375 1475.769531 3188.050781 1456.117188 3541.914062 C 1452.566406 3604.867188 1451.269531 3659.820312 1451.71875 3725.925781 C 1452.019531 3768.027344 1452.367188 3784.777344 1453.566406 3817.429688 C 1464.917969 4121.34375 1522.621094 4417.757812 1625.476562 4700.71875 C 1677.980469 4845.128906 1744.132812 4990.132812 1818.984375 5124.738281 C 1932.140625 5328.300781 2072.746094 5521.910156 2231.15625 5692.265625 C 2237.40625 5699.015625 2693.328125 6155.238281 3244.253906 6706.113281 C 3996.636719 7458.449219 4247.300781 7708.8125 4251.449219 7712.0625 C 4263.351562 7721.460938 4272.601562 7727.414062 4285.699219 7734.0625 C 4308 7745.363281 4330.203125 7751.8125 4355.953125 7754.414062 C 4364.703125 7755.3125 4384.855469 7755.214844 4394.054688 7754.164062 C 4438.257812 7749.363281 4476.160156 7731.8125 4508.761719 7701.210938 C 4512.710938 7697.460938 4963.734375 7246.589844 5511.058594 6699.214844 C 6294.296875 5915.878906 6509.105469 5700.765625 6520.15625 5688.765625 C 6580.058594 5623.5625 6632.410156 5561.8125 6682.363281 5497.507812 C 6843.371094 5290.148438 6972.125 5069.085938 7073.582031 4825.976562 C 7206.039062 4508.5625 7280.242188 4171.894531 7294.09375 3825.679688 C 7295.84375 3781.726562 7296.09375 3766.476562 7296.09375 3706.421875 C 7296.09375 3640.921875 7295.59375 3618.269531 7293.09375 3564.917969 C 7270.390625 3085.59375 7129.785156 2619.824219 6883.671875 2208.605469 C 6776.617188 2029.796875 6652.113281 1864.4375 6509.355469 1711.582031 C 6468.652344 1668.027344 6411.402344 1610.777344 6368.296875 1570.523438 C 6233.441406 1444.667969 6087.285156 1331.863281 5931.777344 1233.707031 C 5647.765625 1054.398438 5335.101562 925.59375 5008.484375 853.339844 C 4834.375 814.789062 4658.417969 792.488281 4478.460938 786.035156 C 4435.308594 784.488281 4370.605469 783.835938 4328.703125 784.535156 Z M 4434.707031 1175.054688 C 4716.722656 1182.207031 4985.582031 1233.15625 5246.496094 1328.8125 C 5506.15625 1424.015625 5752.46875 1564.125 5968.03125 1739.28125 C 6064.183594 1817.433594 6154.539062 1902.339844 6238.292969 1993.34375 C 6423.902344 2194.953125 6576.257812 2426.5625 6688.0625 2677.125 C 6814.519531 2960.488281 6887.621094 3266.554688 6903.074219 3577.417969 C 6905.472656 3626.269531 6906.023438 3650.421875 6906.023438 3706.421875 C 6906.023438 3756.675781 6905.722656 3774.726562 6904.074219 3814.179688 C 6888.972656 4174.195312 6799.417969 4518.960938 6637.0625 4841.976562 C 6536.65625 5041.6875 6411.152344 5225.746094 6260.59375 5394.003906 C 6229.640625 5428.554688 6251.542969 5406.601562 5299.546875 6358.699219 L 4373.953125 7284.390625 L 3449.011719 6359.199219 C 2940.335938 5850.324219 2519.066406 5428.605469 2512.917969 5422.003906 C 2476.765625 5383.152344 2435.265625 5335 2399.164062 5289.996094 C 2246.855469 5100.289062 2126.25 4896.628906 2032.59375 4670.96875 C 1922.488281 4405.804688 1859.238281 4124.144531 1844.835938 3834.929688 C 1842.535156 3787.976562 1841.886719 3760.828125 1841.886719 3706.671875 C 1841.886719 3660.570312 1842.238281 3641.269531 1843.585938 3606.167969 C 1859.289062 3209.851562 1965.84375 2827.734375 2157 2482.367188 C 2322.910156 2182.601562 2549.320312 1918.140625 2820.882812 1706.78125 C 3178.949219 1428.066406 3604.269531 1251.257812 4052.691406 1194.605469 C 4141.492188 1183.355469 4228 1177.003906 4319.953125 1174.90625 C 4336.304688 1174.503906 4418.207031 1174.65625 4434.707031 1175.054688 Z M 4434.707031 1175.054688 "/>
<path style=" stroke:none;fill-rule:nonzero;fill:rgb(0%,0%,0%);fill-opacity:1;" d="M 4334.453125 2538.117188 C 4143.792969 2545.070312 3964.1875 2595.421875 3799.929688 2687.875 C 3633.269531 2781.730469 3489.5625 2918.085938 3386.808594 3079.894531 C 3353.558594 3132.296875 3324.15625 3187.949219 3299.304688 3245.550781 C 3246.402344 3368.257812 3214.851562 3501.964844 3206.898438 3636.671875 C 3204.300781 3681.574219 3204.300781 3731.523438 3206.949219 3776.675781 C 3221.699219 4028.640625 3317.503906 4268.148438 3480.964844 4461.507812 C 3517.863281 4505.160156 3559.515625 4547.5625 3602.667969 4585.515625 C 3719.722656 4688.320312 3855.929688 4766.625 4003.1875 4815.777344 C 4099.542969 4847.878906 4198.445312 4867.179688 4299.453125 4873.476562 C 4344.355469 4876.277344 4396.40625 4876.429688 4440.207031 4873.976562 C 4615.667969 4863.976562 4783.425781 4815.976562 4936.730469 4731.820312 C 5055.636719 4666.570312 5163.792969 4579.566406 5253.894531 4476.710938 C 5386.953125 4324.851562 5478.507812 4140.894531 5519.007812 3943.933594 C 5549.359375 3796.429688 5551.058594 3643.269531 5524.007812 3495.164062 C 5487.855469 3297.605469 5401.503906 3113.296875 5272.347656 2958.238281 C 5233.496094 2911.636719 5188.894531 2865.984375 5143.242188 2826.132812 C 4973.03125 2677.476562 4765.125 2581.769531 4542.714844 2549.667969 C 4503.8125 2544.070312 4470.210938 2540.867188 4425.457031 2538.570312 C 4411.757812 2537.867188 4349.855469 2537.570312 4334.453125 2538.117188 Z M 4400.457031 2928.136719 C 4450.507812 2929.988281 4496.0625 2935.738281 4543.464844 2946.1875 C 4715.671875 2984.289062 4870.878906 3081.195312 4982.484375 3220.402344 C 5037.285156 3288.753906 5081.238281 3368.207031 5109.890625 3450.660156 C 5136.691406 3527.664062 5150.992188 3607.417969 5152.691406 3689.324219 C 5155.390625 3817.777344 5127.992188 3940.632812 5071.289062 4054.191406 C 5017.035156 4162.84375 4938.03125 4257.449219 4840.476562 4330.554688 C 4685.417969 4446.757812 4493.859375 4500.460938 4299.703125 4482.160156 C 4094.941406 4462.859375 3907.332031 4363.503906 3774.328125 4203.847656 C 3715.972656 4133.792969 3670.273438 4053.339844 3639.21875 3965.984375 C 3617.417969 3904.78125 3603.117188 3837.78125 3597.71875 3771.675781 C 3595.667969 3746.726562 3595.417969 3740.023438 3595.417969 3706.921875 C 3595.417969 3673.722656 3595.71875 3665.472656 3597.71875 3641.421875 C 3607.617188 3522.816406 3644.269531 3408.761719 3705.222656 3307.105469 C 3811.429688 3129.945312 3983.6875 3001.589844 4182.546875 2951.4375 C 4253.699219 2933.488281 4328.402344 2925.488281 4400.457031 2928.136719 Z M 4400.457031 2928.136719 "/>
</g>
</svg>
