<?xml version="1.0" encoding="UTF-8"?>
<svg xmlns="http://www.w3.org/2000/svg" xmlns:xlink="http://www.w3.org/1999/xlink" width="px" height="px" viewBox="0 0 8534 8534" version="1.1">
<g>
<path style=" stroke:none;fill-rule:nonzero;fill:rgb(0%,0%,0%);fill-opacity:1;" d="M 4254.847656 515.023438 C 4078.441406 518.925781 3909.285156 545.027344 3742.675781 594.128906 C 3539.816406 653.878906 3345.65625 747.984375 3171.796875 870.839844 C 2889.585938 1070.351562 2664.675781 1341.664062 2521.769531 1655.078125 C 2444.863281 1823.636719 2392.761719 2001.644531 2366.660156 2184.851562 C 2355.910156 2260.105469 2349.960938 2330.359375 2347.609375 2408.863281 C 2347.308594 2419.3125 2347.109375 2646.925781 2347.109375 3028.441406 L 2347.109375 3631.519531 L 2330.257812 3631.871094 C 2227.90625 3633.921875 2133.398438 3650.070312 2038.59375 3681.621094 C 1958.390625 3708.375 1882.886719 3745.027344 1811.585938 3791.925781 C 1732.082031 3844.179688 1659.027344 3909.535156 1597.773438 3983.1875 C 1498.570312 4102.492188 1428.917969 4244.347656 1395.867188 4394.457031 C 1383.066406 4452.609375 1376.316406 4505.261719 1373.464844 4568.464844 C 1372.515625 4589.914062 1372.515625 7154.636719 1373.464844 7176.085938 C 1375.664062 7224.839844 1379.914062 7264.992188 1387.613281 7308.59375 C 1430.566406 7552.804688 1565.773438 7771.613281 1765.683594 7920.519531 C 1890.386719 8013.425781 2035.644531 8075.078125 2188.601562 8100.078125 C 2225.65625 8106.128906 2260.355469 8109.78125 2302.109375 8111.980469 C 2320.207031 8112.929688 6270.09375 8112.929688 6288.292969 8111.980469 C 6348.597656 8108.78125 6399.5 8102.078125 6454.050781 8090.078125 C 6615.808594 8054.476562 6766.71875 7977.375 6890.773438 7866.867188 C 6929.375 7832.515625 6967.027344 7793.214844 6999.078125 7753.863281 C 7072.929688 7663.058594 7129.585938 7560.605469 7166.636719 7450.597656 C 7197.789062 7358.246094 7214.289062 7265.890625 7217.339844 7166.835938 C 7217.988281 7145.035156 7217.988281 4599.765625 7217.339844 4577.964844 C 7216.789062 4560.765625 7215.789062 4541.5625 7214.589844 4526.710938 C 7196.886719 4307.652344 7106.082031 4102.390625 6955.375 3940.734375 C 6945.675781 3930.285156 6918.574219 3903.183594 6908.324219 3893.683594 C 6739.914062 3737.074219 6526.304688 3645.972656 6297.796875 3633.171875 C 6285.195312 3632.46875 6260.695312 3631.671875 6251.441406 3631.671875 L 6243.792969 3631.671875 L 6243.792969 3039.992188 C 6243.792969 2468.214844 6243.691406 2424.613281 6242.292969 2388.363281 C 6230.640625 2085.597656 6150.738281 1794.984375 6006.382812 1530.320312 C 5897.328125 1330.363281 5752.371094 1149.355469 5580.261719 998.246094 C 5399.351562 839.390625 5190.59375 715.382812 4965.234375 632.878906 C 4778.472656 564.476562 4581.714844 525.273438 4381.707031 516.523438 C 4345.203125 514.925781 4288.800781 514.273438 4254.847656 515.023438 Z M 4343.703125 905.59375 C 4510.460938 910.441406 4676.46875 942.496094 4832.976562 1000.046875 C 5130.242188 1109.351562 5388.402344 1308.160156 5571.511719 1568.824219 C 5629.164062 1650.878906 5679.117188 1739.132812 5720.117188 1831.335938 C 5791.019531 1990.644531 5834.574219 2162.300781 5848.472656 2337.109375 C 5850.425781 2361.3125 5851.425781 2378.660156 5852.875 2412.863281 C 5853.324219 2422.8125 5853.472656 2585.320312 5853.625 3028.992188 L 5853.773438 3631.671875 L 2737.128906 3631.671875 L 2737.277344 3022.492188 C 2737.429688 2576.472656 2737.578125 2410.464844 2738.027344 2402.613281 C 2738.328125 2396.710938 2738.828125 2387.113281 2739.128906 2381.363281 C 2753.179688 2109.597656 2837.234375 1848.835938 2984.539062 1620.074219 C 3100.246094 1440.417969 3253.253906 1284.910156 3431.410156 1166.054688 C 3505.8125 1116.402344 3582.867188 1074 3664.671875 1037.699219 C 3809.179688 973.546875 3964.1875 931.742188 4122.191406 914.34375 C 4196.148438 906.140625 4267.550781 903.34375 4343.703125 905.59375 Z M 6276.292969 4022.589844 C 6303.144531 4024.589844 6320.097656 4026.488281 6340.546875 4029.9375 C 6462.351562 4050.390625 6573.859375 4108.742188 6660.710938 4197.445312 C 6747.867188 4286.5 6803.867188 4399.457031 6821.570312 4521.960938 C 6824.917969 4545.214844 6826.519531 4564.5625 6827.320312 4590.863281 C 6828.121094 4617.265625 6827.71875 7158.535156 6826.921875 7169.835938 C 6825.871094 7184.585938 6824.769531 7196.9375 6823.769531 7205.835938 C 6811.269531 7314.792969 6768.367188 7417.449219 6699.5625 7503.351562 C 6666.960938 7544.054688 6629.0625 7580.253906 6586.558594 7611.355469 C 6577.507812 7617.957031 6554.257812 7633.40625 6544.308594 7639.40625 C 6475.152344 7681.011719 6397.449219 7708.011719 6318.046875 7718.0625 C 6307.996094 7719.3125 6292.496094 7720.8125 6277.542969 7721.960938 C 6266.695312 7722.761719 2347.859375 7723.210938 2326.359375 7722.363281 C 2241.453125 7719.160156 2163.25 7699.410156 2088.347656 7662.359375 C 1948.640625 7593.207031 1841.785156 7470.550781 1792.785156 7323.09375 C 1775.535156 7271.191406 1766.132812 7220.289062 1763.582031 7165.085938 C 1762.734375 7147.335938 1763.132812 4578.265625 1763.984375 4568.464844 C 1766.832031 4534.460938 1769.28125 4516.261719 1774.332031 4490.960938 C 1784.632812 4439.40625 1801.683594 4390.105469 1825.386719 4343.203125 C 1879.039062 4237.046875 1964.042969 4149.445312 2068.597656 4092.492188 C 2147.152344 4049.640625 2235.253906 4025.539062 2325.359375 4022.238281 C 2331.160156 4022.039062 3220.601562 4021.886719 4301.953125 4021.9375 C 5838.023438 4021.988281 6269.84375 4022.136719 6276.292969 4022.589844 Z M 6276.292969 4022.589844 "/>
</g>
</svg>
