<?xml version="1.0" encoding="UTF-8"?>
<svg xmlns="http://www.w3.org/2000/svg" xmlns:xlink="http://www.w3.org/1999/xlink" width="px" height="px" viewBox="0 0 8534 8534" version="1.1">
<g>
<path style=" stroke:none;fill-rule:nonzero;fill:rgb(0%,0%,0%);fill-opacity:1;" d="M 4197.445312 514.824219 C 4105.09375 516.523438 4019.589844 523.625 3932.734375 536.824219 C 3662.570312 577.828125 3405.109375 675.082031 3174.898438 823.039062 C 2920.6875 986.445312 2707.078125 1207.457031 2552.371094 1467.070312 C 2516.71875 1526.921875 2481.867188 1593.523438 2453.015625 1657.078125 C 2359.5625 1862.636719 2302.90625 2082.246094 2285.105469 2308.109375 C 2283.105469 2333.558594 2282.007812 2352.511719 2280.007812 2396.613281 C 2279.558594 2406.0625 2279.40625 2566.769531 2279.257812 3020.441406 L 2279.105469 3631.519531 L 2262.207031 3631.871094 C 2210.804688 3632.871094 2164.652344 3637.171875 2115.347656 3645.472656 C 1942.089844 3674.671875 1778.832031 3751.375 1644.878906 3866.480469 C 1610.875 3895.683594 1576.125 3930.035156 1546.773438 3963.4375 C 1505.570312 4010.339844 1467.320312 4063.589844 1435.96875 4117.691406 C 1403.265625 4174.144531 1376.613281 4233.046875 1355.761719 4294.953125 C 1325.613281 4384.355469 1309.210938 4474.910156 1305.5625 4571.714844 C 1304.859375 4589.863281 1304.859375 7154.433594 1305.5625 7172.835938 C 1312.210938 7351.246094 1364.863281 7519.003906 1461.019531 7667.859375 C 1509.171875 7742.363281 1570.222656 7812.917969 1637.578125 7871.867188 C 1783.785156 7999.824219 1963.59375 8080.777344 2155.601562 8105.128906 C 2186.003906 8108.980469 2214.453125 8111.230469 2246.105469 8112.378906 C 2265.707031 8113.082031 6189.539062 8113.082031 6208.789062 8112.378906 C 6260.792969 8110.480469 6309.046875 8105.128906 6358.046875 8095.828125 C 6612.210938 8047.675781 6836.71875 7899.820312 6982.925781 7684.359375 C 7016.679688 7634.65625 7047.332031 7578.554688 7071.179688 7522.851562 C 7119.082031 7411.148438 7145.234375 7293.390625 7149.335938 7170.835938 C 7150.183594 7146.136719 7149.785156 4571.414062 7148.933594 4558.714844 C 7148.585938 4553.613281 7147.984375 4544.414062 7147.585938 4538.210938 C 7132.882812 4322.652344 7046.628906 4118.394531 6901.972656 3956.535156 C 6877.472656 3929.085938 6845.722656 3897.683594 6817.71875 3873.132812 C 6751.964844 3815.429688 6676.5625 3765.527344 6598.757812 3728.175781 C 6474.652344 3668.523438 6344.449219 3636.71875 6206.039062 3632.171875 C 6196.289062 3631.871094 5574.160156 3631.671875 4430.058594 3631.671875 L 2669.125 3631.671875 L 2669.273438 3025.492188 C 2669.375 2575.722656 2669.574219 2416.261719 2670.023438 2407.363281 C 2670.324219 2400.761719 2670.824219 2390.511719 2671.125 2384.613281 C 2683.777344 2130.101562 2757.878906 1884.738281 2888.035156 1666.328125 C 3012.640625 1457.316406 3185.347656 1279.359375 3390.957031 1148.152344 C 3570.46875 1033.648438 3772.027344 957.195312 3981.835938 924.042969 C 4037.089844 915.34375 4091.839844 909.644531 4147.695312 906.792969 C 4198.648438 904.242188 4256.300781 904.242188 4307.203125 906.792969 C 4499.261719 916.542969 4685.621094 960.996094 4860.226562 1038.699219 C 5056.6875 1126.101562 5233.796875 1254.058594 5379.203125 1413.566406 C 5600.664062 1656.527344 5739.070312 1961.042969 5775.722656 2285.855469 C 5780.171875 2325.058594 5782.570312 2357.308594 5784.871094 2407.863281 C 5785.171875 2415.3125 5785.472656 2464.816406 5785.621094 2538.96875 L 5785.820312 2658.125 L 6175.839844 2658.125 L 6175.640625 2534.21875 C 6175.488281 2454.164062 6175.238281 2405.664062 6174.839844 2397.113281 C 6173.339844 2361.160156 6172.140625 2339.960938 6170.289062 2314.859375 C 6155.789062 2121.550781 6112.535156 1931.742188 6041.882812 1751.582031 C 5999.082031 1642.425781 5944.179688 1533.121094 5882.527344 1434.316406 C 5811.773438 1320.960938 5732.269531 1218.257812 5639.515625 1120.300781 C 5615.714844 1095.152344 5572.109375 1052.347656 5544.261719 1026.796875 C 5392.351562 887.339844 5218.644531 772.585938 5030.234375 687.183594 C 4805.675781 585.378906 4561.515625 527.226562 4313.703125 516.523438 C 4281.851562 515.175781 4224.796875 514.324219 4197.445312 514.824219 Z M 6195.289062 4022.1875 C 6301.796875 4026.1875 6400.449219 4056.691406 6489.054688 4113.09375 C 6529.804688 4139.042969 6568.707031 4171.394531 6602.507812 4207.445312 C 6665.164062 4274.351562 6711.714844 4356.355469 6737.066406 4444.308594 C 6748.964844 4485.511719 6755.816406 4525.914062 6758.917969 4573.214844 C 6759.867188 4587.664062 6759.867188 7156.785156 6758.917969 7171.585938 C 6756.917969 7202.835938 6753.515625 7228.539062 6747.765625 7256.640625 C 6712.816406 7427.546875 6601.660156 7574.804688 6445.953125 7656.507812 C 6380.550781 7690.859375 6308.09375 7712.511719 6234.242188 7719.863281 C 6228.640625 7720.410156 6219.089844 7721.261719 6213.042969 7721.710938 C 6202.691406 7722.511719 6087.886719 7722.5625 4237.449219 7722.761719 C 2824.03125 7722.863281 2268.804688 7722.761719 2258.355469 7722.363281 C 2231.054688 7721.363281 2207.503906 7718.960938 2181.601562 7714.613281 C 2023.59375 7688.109375 1882.9375 7596.757812 1793.132812 7462.351562 C 1732.929688 7372.195312 1699.828125 7269.941406 1695.578125 7160.585938 C 1694.730469 7139.433594 1695.128906 4581.914062 1695.980469 4571.214844 C 1696.328125 4566.964844 1697.03125 4558.414062 1697.578125 4552.214844 C 1708.230469 4434.859375 1754.582031 4323.152344 1830.335938 4232.449219 C 1842.6875 4217.648438 1849.835938 4209.847656 1866.289062 4193.398438 C 1889.6875 4170.046875 1905.890625 4155.894531 1930.339844 4137.644531 C 1970.140625 4107.890625 2014.445312 4082.890625 2059.898438 4064.492188 C 2124.75 4038.238281 2193.304688 4023.9375 2263.605469 4022.039062 C 2266.207031 4021.9375 3148.949219 4021.839844 4225.199219 4021.789062 C 5512.160156 4021.738281 6186.589844 4021.886719 6195.289062 4022.1875 Z M 6195.289062 4022.1875 "/>
</g>
</svg>
