<?xml version="1.0" encoding="UTF-8"?>
<svg xmlns="http://www.w3.org/2000/svg" xmlns:xlink="http://www.w3.org/1999/xlink" width="px" height="px" viewBox="0 0 8534 8534" version="1.1">
<g>
<path style=" stroke:none;fill-rule:nonzero;fill:rgb(0%,0%,0%);fill-opacity:1;" d="M 3401.007812 2083.699219 C 3400.910156 3019.941406 3400.808594 3071.695312 3400.007812 3077.394531 C 3395.507812 3108.445312 3386.207031 3133.597656 3370.457031 3157.398438 C 3353.40625 3183.148438 3331.707031 3203.25 3304.65625 3218.351562 C 3300.953125 3220.402344 3155.046875 3300.65625 2980.390625 3396.609375 L 2662.875 3571.167969 L 1640.578125 3571.167969 L 1640.578125 3784.675781 L 1957.292969 3784.777344 L 2274.007812 3784.925781 L 1961.191406 3956.886719 C 1789.132812 4051.441406 1648.226562 4128.894531 1648.128906 4128.992188 C 1648.027344 4129.09375 1671.078125 4171.195312 1699.378906 4222.648438 L 1750.78125 4316.152344 L 1752.28125 4315.351562 C 1759.03125 4311.851562 3414.058594 3401.859375 3419.410156 3398.660156 C 3495.765625 3353.40625 3555.964844 3282.105469 3587.816406 3199.148438 C 3601.71875 3162.898438 3609.417969 3129.148438 3613.519531 3086.394531 C 3614.320312 3077.945312 3614.371094 3019.140625 3614.519531 2086.699219 L 3614.667969 1096.050781 L 3401.160156 1096.050781 Z M 3401.007812 2083.699219 "/>
<path style=" stroke:none;fill-rule:nonzero;fill:rgb(0%,0%,0%);fill-opacity:1;" d="M 3891.832031 2088.199219 C 3891.933594 2858.785156 3892.132812 3081.746094 3892.582031 3086.394531 C 3894.03125 3100.945312 3895.382812 3111.195312 3897.183594 3122.046875 C 3913.132812 3216.449219 3962.636719 3302.105469 4036.6875 3363.457031 C 4052.839844 3376.808594 4072.742188 3390.660156 4091.191406 3401.257812 C 4098.992188 3405.757812 5754.417969 4315.753906 5754.96875 4315.851562 C 5755.46875 4315.953125 5857.773438 4130.394531 5857.773438 4129.394531 C 5857.773438 4129.09375 5717.019531 4051.441406 5544.960938 3956.886719 L 5232.144531 3784.925781 L 5557.710938 3784.777344 L 5883.277344 3784.675781 L 5883.277344 3571.167969 L 4843.277344 3571.167969 L 4521.613281 3394.359375 C 4344.703125 3297.105469 4197.546875 3216.101562 4194.546875 3214.300781 C 4182.046875 3206.800781 4171.496094 3198.449219 4159.894531 3186.898438 C 4129.34375 3156.449219 4111.792969 3120.046875 4105.84375 3074.894531 C 4105.042969 3068.792969 4104.992188 3009.441406 4104.84375 2082.199219 L 4104.691406 1096.050781 L 3891.683594 1096.050781 Z M 3891.832031 2088.199219 "/>
<path style=" stroke:none;fill-rule:nonzero;fill:rgb(0%,0%,0%);fill-opacity:1;" d="M 2733.128906 2007.59375 C 2696.476562 2010.195312 2662.226562 2016.996094 2628.125 2028.496094 C 2610.921875 2034.296875 2597.722656 2039.746094 2576.972656 2049.546875 C 2476.417969 2097.097656 2378.863281 2149.652344 2284.605469 2207.101562 C 2035.394531 2358.960938 1810.285156 2543.167969 1611.824219 2757.628906 C 1396.164062 2990.640625 1214.855469 3258.804688 1078.699219 3546.167969 C 913.792969 3894.132812 814.636719 4266.699219 784.835938 4650.46875 C 779.9375 4713.269531 777.1875 4772.125 775.785156 4843.226562 C 775.285156 4869.476562 766.4375 6484.902344 766.734375 6505.054688 C 766.984375 6524.707031 767.285156 6530.15625 769.085938 6546.558594 C 775.4375 6604.859375 794.9375 6662.3125 825.4375 6712.566406 C 881.839844 6805.417969 973.34375 6872.722656 1078.652344 6898.824219 C 1101.25 6904.421875 1122.703125 6907.875 1148.304688 6909.925781 C 1158.703125 6910.773438 1195.207031 6910.773438 1205.304688 6909.925781 C 1238.859375 6907.074219 1267.308594 6901.773438 1296.8125 6892.824219 C 1307.660156 6889.523438 2840.683594 6348.449219 2851.382812 6344.148438 C 2895.136719 6326.546875 2934.289062 6302.445312 2970.140625 6271.09375 C 2977.691406 6264.492188 2995.289062 6247.191406 3002.492188 6239.191406 C 3046.144531 6190.941406 3077.59375 6133.738281 3094.644531 6071.335938 C 3102.996094 6040.78125 3107.84375 6008.53125 3108.894531 5976.78125 C 3109.246094 5966.480469 3125.296875 4350.652344 3125.046875 4350.453125 C 3124.847656 4350.203125 2912.085938 4348.105469 2911.9375 4348.304688 C 2911.835938 4348.402344 2908.285156 4706.570312 2903.984375 5144.242188 C 2899.636719 5581.910156 2895.9375 5949.128906 2895.636719 5960.28125 C 2895.136719 5982.332031 2894.484375 5989.28125 2891.636719 6003.03125 C 2881.535156 6051.433594 2853.234375 6094.734375 2812.632812 6123.785156 C 2801.230469 6131.9375 2784.332031 6141.136719 2771.628906 6146.136719 C 2761.980469 6149.886719 1241.40625 6686.464844 1233.558594 6688.863281 C 1220.355469 6692.863281 1208.15625 6695.265625 1194.054688 6696.613281 C 1184.207031 6697.5625 1162.554688 6697.3125 1153.804688 6696.113281 C 1130.304688 6692.964844 1109.753906 6686.714844 1089.550781 6676.613281 C 1031.046875 6647.363281 990.847656 6592.109375 981.847656 6528.554688 C 980.296875 6517.605469 980.046875 6511.054688 980.046875 6482.054688 C 980.046875 6425.601562 989.195312 4837.875 989.597656 4822.226562 C 992.796875 4698.71875 1003.195312 4579.316406 1021.097656 4459.710938 C 1090.351562 3996.539062 1270.210938 3555.867188 1545.074219 3175.648438 C 1688.027344 2977.890625 1855.1875 2798.679688 2041.847656 2642.875 C 2204.554688 2507.066406 2378.3125 2391.3125 2567.871094 2292.359375 C 2600.570312 2275.308594 2666.726562 2242.804688 2682.527344 2236.054688 C 2699.675781 2228.703125 2719.378906 2223.554688 2738.878906 2221.304688 C 2749.179688 2220.105469 2768.679688 2220.105469 2778.878906 2221.304688 C 2824.230469 2226.554688 2864.734375 2245.804688 2897.234375 2277.558594 C 2929.9375 2309.507812 2948.9375 2348.210938 2954.988281 2395.363281 C 2955.839844 2402.011719 2955.886719 2420.011719 2955.988281 2774.230469 L 2956.136719 3146.148438 L 3169.648438 3146.148438 L 3169.5 2771.730469 C 3169.347656 2490.417969 3169.199219 2395.664062 3168.75 2390.613281 C 3166.949219 2370.210938 3165.898438 2361.609375 3163.347656 2346.609375 C 3150.347656 2270.355469 3115.945312 2200.101562 3063.34375 2142.101562 C 3055.59375 2133.550781 3039.242188 2117.449219 3031.140625 2110.300781 C 2989.738281 2073.945312 2941.738281 2046.144531 2890.386719 2028.796875 C 2857.582031 2017.695312 2829.183594 2011.746094 2791.128906 2008.09375 C 2783.832031 2007.34375 2741.429688 2007.042969 2733.128906 2007.59375 Z M 2733.128906 2007.59375 "/>
<path style=" stroke:none;fill-rule:nonzero;fill:rgb(0%,0%,0%);fill-opacity:1;" d="M 4737.972656 2017.445312 C 4653.867188 2020.246094 4572.714844 2048.847656 4505.011719 2099.546875 C 4435.808594 2151.351562 4384.753906 2223.503906 4359.703125 2304.859375 C 4351.152344 2332.808594 4346.253906 2357.710938 4342.855469 2390.863281 C 4342.054688 2398.863281 4342.003906 2422.5625 4341.851562 2774.980469 L 4341.703125 3150.648438 L 4554.714844 3150.648438 L 4554.714844 2786.230469 C 4554.714844 2548.167969 4554.914062 2419.261719 4555.214844 2414.363281 C 4558.363281 2367.261719 4576.566406 2325.507812 4608.414062 2292.257812 C 4641.21875 2258.003906 4684.46875 2236.753906 4731.972656 2231.503906 C 4739.621094 2230.65625 4762.625 2230.65625 4769.972656 2231.503906 C 4791.523438 2234.003906 4811.925781 2239.554688 4830.226562 2247.855469 C 4838.976562 2251.855469 4863.878906 2263.90625 4890.078125 2276.855469 C 5074.289062 2367.859375 5251.546875 2480.515625 5412.753906 2609.023438 C 5528.109375 2700.976562 5637.015625 2802.230469 5736.269531 2909.636719 C 5959.480469 3151.296875 6139.539062 3427.3125 6270.644531 3728.925781 C 6423.199219 4079.792969 6505.355469 4458.859375 6511.957031 4841.828125 C 6512.003906 4845.578125 6512.207031 4848.828125 6512.40625 4849.027344 C 6512.804688 4849.378906 6724.863281 4846.378906 6725.265625 4845.976562 C 6725.914062 4845.277344 6723.664062 4772.773438 6721.816406 4735.222656 C 6694.863281 4196.148438 6529.40625 3674.070312 6240.792969 3217.402344 C 6146.839844 3068.695312 6039.683594 2927.1875 5921.578125 2795.882812 C 5907.476562 2780.179688 5904.328125 2776.78125 5886.777344 2757.878906 C 5819.472656 2685.375 5743.167969 2610.972656 5667.765625 2544.320312 C 5482.855469 2380.960938 5279.496094 2240.253906 5061.488281 2124.75 C 5004.882812 2094.75 4927.929688 2056.847656 4903.730469 2047.097656 C 4850.976562 2025.796875 4793.773438 2015.542969 4737.972656 2017.445312 Z M 4737.972656 2017.445312 "/>
<path style=" stroke:none;fill-rule:nonzero;fill:rgb(0%,0%,0%);fill-opacity:1;" d="M 3748.675781 3554.214844 C 3692.523438 3556.167969 3637.21875 3570.167969 3586.667969 3595.21875 C 3576.917969 3600.070312 1898.988281 4522.0625 1898.039062 4523.113281 C 1897.839844 4523.3125 1920.738281 4565.3125 1948.890625 4616.464844 C 1976.992188 4667.617188 2000.144531 4709.671875 2000.195312 4709.921875 C 2000.292969 4710.171875 2092.5 4659.667969 2205.101562 4597.765625 L 2409.863281 4485.210938 L 2410.011719 4736.972656 L 2410.113281 4988.734375 L 2623.121094 4988.734375 L 2623.121094 4367.953125 L 3147.449219 4079.691406 C 3435.8125 3921.132812 3674.871094 3789.828125 3678.671875 3787.878906 C 3729.875 3761.527344 3791.078125 3760.476562 3842.730469 3785.027344 C 3846.480469 3786.777344 4084.742188 3917.582031 4372.253906 4075.640625 L 4894.980469 4363.003906 L 4895.128906 4675.871094 L 4895.230469 4988.734375 L 5108.738281 4988.734375 L 5108.738281 4734.722656 C 5108.738281 4595.015625 5108.789062 4480.710938 5108.890625 4480.710938 C 5108.988281 4480.710938 5202.992188 4532.363281 5317.75 4595.464844 C 5432.554688 4658.566406 5526.660156 4710.019531 5526.808594 4709.820312 C 5527.410156 4709.222656 5629.265625 4523.761719 5629.265625 4523.3125 C 5629.214844 4522.761719 3953.234375 3601.46875 3942.035156 3595.917969 C 3896.683594 3573.367188 3848.429688 3559.765625 3798.179688 3555.417969 C 3790.175781 3554.714844 3765.328125 3553.617188 3761.175781 3553.765625 C 3760.226562 3553.816406 3754.574219 3554.015625 3748.675781 3554.214844 Z M 3748.675781 3554.214844 "/>
<path style=" stroke:none;fill-rule:nonzero;fill:rgb(0%,0%,0%);fill-opacity:1;" d="M 4475.460938 4350.804688 C 4426.257812 4351.304688 4385.90625 4351.855469 4385.804688 4351.953125 C 4385.40625 4352.355469 4401.804688 5971.179688 4402.257812 5979.28125 C 4407.15625 6064.585938 4438.40625 6145.988281 4491.761719 6212.542969 C 4509.363281 6234.492188 4531.113281 6256.441406 4552.714844 6274.042969 C 4585.863281 6301.09375 4626.667969 6324.597656 4665.71875 6339.195312 C 4671.46875 6341.347656 5250.894531 6545.808594 5262.496094 6549.808594 L 5266.546875 6551.15625 L 5301.949219 6450.703125 C 5322.25 6393.300781 5337.199219 6350.097656 5336.949219 6349.847656 C 5336.699219 6349.648438 5203.84375 6302.695312 5041.734375 6245.542969 C 4879.628906 6188.441406 4744.074219 6140.539062 4740.472656 6139.1875 C 4676.519531 6114.4375 4629.71875 6057.332031 4617.964844 5989.679688 C 4617.316406 5985.730469 4616.417969 5979.378906 4615.964844 5975.53125 C 4615.316406 5969.578125 4613.964844 5845.125 4607.015625 5159.242188 C 4602.515625 4714.121094 4598.816406 4349.902344 4598.765625 4349.804688 C 4598.664062 4349.605469 4563.8125 4349.855469 4475.460938 4350.804688 Z M 4475.460938 4350.804688 "/>
<path style=" stroke:none;fill-rule:nonzero;fill:rgb(0%,0%,0%);fill-opacity:1;" d="M 7072.832031 5073.789062 C 7044.679688 5144.492188 7021.480469 5202.394531 7021.328125 5202.492188 C 7021.179688 5202.59375 7016.679688 5201.445312 7011.328125 5199.945312 C 6885.121094 5164.640625 6752.464844 5152.492188 6622.058594 5164.292969 C 6550.257812 5170.792969 6474.601562 5185.34375 6408.300781 5205.445312 C 6404.300781 5206.644531 6400.898438 5207.492188 6400.699219 5207.292969 C 6400.550781 5207.144531 6376.199219 5150.640625 6346.597656 5081.789062 C 6317.046875 5012.933594 6292.746094 4956.480469 6292.59375 4956.382812 C 6292.195312 4955.980469 6097.234375 5039.835938 6096.984375 5040.484375 C 6096.835938 5040.785156 6120.785156 5097.039062 6150.1875 5165.492188 L 6203.691406 5289.949219 L 6196.839844 5293.648438 C 6135.585938 5327.050781 6074.835938 5368.453125 6020.53125 5413.804688 C 5916.027344 5501.207031 5828.171875 5608.5625 5763.519531 5727.867188 C 5761.921875 5730.867188 5760.421875 5733.269531 5760.171875 5733.269531 C 5759.96875 5733.269531 5705.066406 5711.46875 5638.214844 5684.765625 C 5571.359375 5658.113281 5516.507812 5636.265625 5516.308594 5636.265625 C 5515.957031 5636.265625 5437.253906 5833.171875 5437.253906 5834.023438 C 5437.253906 5834.324219 5491.457031 5856.125 5557.660156 5882.476562 C 5623.863281 5908.878906 5678.117188 5930.527344 5678.214844 5930.628906 C 5678.316406 5930.679688 5676.816406 5936.226562 5674.867188 5942.878906 C 5652.664062 6018.832031 5638.8125 6096.285156 5633.515625 6174.289062 C 5631.914062 6198.289062 5631.664062 6205.640625 5631.414062 6238.140625 C 5631.113281 6278.394531 5631.664062 6297.394531 5634.3125 6331.546875 C 5640.0625 6407 5654.015625 6482.554688 5675.714844 6556.308594 C 5677.417969 6561.90625 5678.566406 6566.65625 5678.367188 6566.859375 C 5678.167969 6567.007812 5626.214844 6589.410156 5562.910156 6616.558594 C 5499.609375 6643.761719 5447.855469 6666.113281 5447.957031 6666.261719 C 5448.054688 6666.414062 5466.957031 6710.515625 5490.007812 6764.21875 C 5513.058594 6817.871094 5532.160156 6861.820312 5532.410156 6861.820312 C 5532.660156 6861.820312 5583.960938 6839.871094 5646.464844 6813.019531 C 5708.917969 6786.167969 5760.269531 6764.117188 5760.570312 6763.96875 C 5760.921875 6763.867188 5762.320312 6765.96875 5763.769531 6768.667969 C 5776.871094 6793.167969 5796.273438 6825.320312 5814.824219 6853.070312 C 5846.125 6900.023438 5878.476562 6941.273438 5918.175781 6984.828125 C 5930.828125 6998.679688 5969.429688 7037.28125 5983.28125 7049.929688 C 6052.582031 7113.082031 6125.035156 7164.386719 6205.492188 7207.335938 C 6212.941406 7211.339844 6218.742188 7214.738281 6218.640625 7215.039062 C 6212.492188 7230.1875 6127.886719 7442.550781 6127.9375 7442.597656 C 6127.988281 7442.648438 6172.539062 7460.398438 6226.941406 7482.101562 C 6285.144531 7505.300781 6325.996094 7521.351562 6326.246094 7521.050781 C 6326.445312 7520.800781 6346.949219 7469.601562 6371.847656 7407.195312 C 6396.699219 7344.84375 6417.300781 7293.84375 6417.601562 7293.84375 C 6417.949219 7293.84375 6422.652344 7295.09375 6428.152344 7296.59375 C 6506.605469 7318.492188 6583.410156 7330.84375 6669.8125 7335.34375 C 6686.363281 7336.242188 6732.964844 7336.542969 6752.066406 7335.894531 C 6853.671875 7332.492188 6949.976562 7316.191406 7045.582031 7286.140625 C 7052.980469 7283.839844 7059.179688 7281.992188 7059.332031 7282.089844 C 7059.53125 7282.191406 7081.683594 7333.59375 7108.632812 7396.347656 C 7152.234375 7497.953125 7157.683594 7510.402344 7158.585938 7510.203125 C 7159.386719 7510.050781 7353.195312 7427 7353.746094 7426.546875 C 7353.84375 7426.5 7331.742188 7374.746094 7304.59375 7311.59375 C 7277.492188 7248.441406 7255.191406 7196.488281 7255.039062 7196.136719 C 7254.890625 7195.6875 7257.738281 7193.738281 7263.691406 7190.335938 C 7322.742188 7156.183594 7377.496094 7117.382812 7428.546875 7073.53125 C 7481.5 7028.128906 7531.101562 6976.378906 7573.855469 6922.074219 C 7617.707031 6866.371094 7653.660156 6810.320312 7687.558594 6744.667969 C 7690.511719 6738.964844 7693.109375 6734.414062 7693.261719 6734.515625 C 7695.109375 6735.566406 7933.671875 6830.320312 7934.070312 6830.171875 C 7934.671875 6829.921875 8013.527344 6632.761719 8013.125 6632.410156 C 8013.027344 6632.3125 7958.074219 6610.308594 7891.019531 6583.558594 C 7805.914062 6549.605469 7769.164062 6534.707031 7769.265625 6534.207031 C 7773.015625 6519.957031 7779.964844 6491.453125 7782.066406 6482.054688 C 7794.566406 6425.351562 7802.617188 6366.75 7805.867188 6309.296875 C 7808.015625 6270.695312 7807.914062 6222.640625 7805.617188 6183.539062 C 7800.214844 6093.1875 7783.214844 6002.480469 7755.414062 5915.777344 C 7754.011719 5911.527344 7752.964844 5908.027344 7753.011719 5907.976562 C 7753.0625 5907.925781 7809.015625 5883.875 7877.371094 5854.523438 C 7945.722656 5825.222656 8001.824219 5801.023438 8002.023438 5800.820312 C 8002.375 5800.472656 7919.320312 5606.164062 7918.371094 5605.113281 C 7918.171875 5604.914062 7861.917969 5628.8125 7793.316406 5658.316406 C 7724.710938 5687.765625 7668.160156 5712.066406 7667.609375 5712.269531 C 7666.710938 5712.617188 7666.109375 5711.816406 7662.359375 5705.316406 C 7565.503906 5536.960938 7427 5398.953125 7258.839844 5303.148438 C 7246.039062 5295.847656 7228.089844 5286.097656 7222.6875 5283.449219 C 7220.6875 5282.449219 7219.839844 5281.796875 7219.988281 5281.246094 C 7220.136719 5280.847656 7243.191406 5222.894531 7271.289062 5152.542969 C 7299.390625 5082.136719 7322.191406 5024.433594 7321.992188 5024.183594 C 7321.59375 5023.835938 7126.382812 4945.832031 7124.832031 4945.433594 C 7124.234375 4945.28125 7112.285156 4974.78125 7072.832031 5073.789062 Z M 6749.316406 5373.75 C 6852.269531 5377.652344 6949.125 5398.152344 7044.28125 5436.203125 C 7136.484375 5473.105469 7221.386719 5525.058594 7295.542969 5589.960938 C 7323.144531 5614.113281 7352.644531 5643.613281 7376.597656 5671.015625 C 7528.753906 5845.023438 7606.605469 6072.132812 7592.554688 6300.796875 C 7583.957031 6441.5 7541.351562 6578.257812 7468.199219 6700.0625 C 7419.648438 6780.917969 7357.042969 6854.421875 7284.542969 6915.675781 C 7240.9375 6952.527344 7194.539062 6984.527344 7143.335938 7013.078125 C 7128.335938 7021.429688 7094.632812 7038.328125 7079.082031 7045.28125 C 6974.925781 7091.933594 6868.820312 7117.132812 6754.566406 7122.332031 C 6740.367188 7122.984375 6697.765625 7122.984375 6683.5625 7122.332031 C 6599.757812 7118.535156 6521.957031 7104.234375 6444.300781 7078.332031 C 6326.996094 7039.28125 6222.792969 6978.476562 6130.789062 6895.421875 C 6118.238281 6884.074219 6084.035156 6849.871094 6072.683594 6837.320312 C 6031.582031 6791.769531 5996.429688 6744.117188 5966.179688 6692.8125 C 5937.527344 6644.261719 5913.128906 6591.910156 5894.527344 6539.054688 C 5845.425781 6399.851562 5832.171875 6251.894531 5855.824219 6107.785156 C 5881.527344 5951.328125 5949.777344 5803.121094 6051.535156 5683.015625 C 6078.886719 5650.714844 6110.6875 5618.363281 6142.589844 5590.460938 C 6288.84375 5462.457031 6474.554688 5386.300781 6668.5625 5374.75 C 6693.015625 5373.300781 6726.214844 5372.902344 6749.316406 5373.75 Z M 6749.316406 5373.75 "/>
<path style=" stroke:none;fill-rule:nonzero;fill:rgb(0%,0%,0%);fill-opacity:1;" d="M 6508.054688 5653.316406 C 6471.054688 5656.816406 6436.953125 5673.617188 6413.050781 5700.117188 C 6403 5711.167969 6396.5 5720.867188 6389.800781 5734.519531 C 6367.046875 5780.820312 6370.546875 5836.125 6399 5878.925781 C 6404.800781 5887.675781 6410.050781 5894.027344 6417.800781 5901.777344 C 6442.402344 5926.277344 6473.902344 5940.777344 6509.054688 5943.777344 C 6553.058594 5947.527344 6598.558594 5929.628906 6628.0625 5896.925781 C 6638.109375 5885.875 6644.613281 5876.175781 6651.3125 5862.523438 C 6658.210938 5848.523438 6662.414062 5834.921875 6664.914062 5818.773438 C 6666.460938 5808.320312 6666.460938 5788.820312 6664.863281 5778.269531 C 6662.414062 5761.871094 6658.210938 5748.46875 6651.0625 5734.019531 C 6643.460938 5718.617188 6635.511719 5707.417969 6623.558594 5695.515625 C 6601.109375 5673.015625 6573.007812 5658.964844 6541.054688 5654.265625 C 6532.90625 5653.066406 6515.804688 5652.566406 6508.054688 5653.316406 Z M 6508.054688 5653.316406 "/>
<path style=" stroke:none;fill-rule:nonzero;fill:rgb(0%,0%,0%);fill-opacity:1;" d="M 7133.984375 5905.527344 C 7101.234375 5909.675781 7071.679688 5924.027344 7048.582031 5947.027344 C 7013.128906 5982.332031 6998.527344 6032.832031 7009.328125 6082.484375 C 7013.828125 6103.1875 7024.828125 6125.738281 7038.679688 6142.539062 C 7062.980469 6172.140625 7097.234375 6190.640625 7135.835938 6195.089844 C 7144.835938 6196.089844 7163.6875 6195.839844 7171.835938 6194.539062 C 7196.835938 6190.640625 7217.738281 6182.191406 7236.839844 6168.339844 C 7280.992188 6136.386719 7303.640625 6082.535156 7295.59375 6028.683594 C 7291.890625 6003.980469 7282.140625 5981.28125 7266.390625 5960.53125 C 7261.640625 5954.230469 7248.089844 5940.578125 7241.839844 5935.777344 C 7221.136719 5919.828125 7199.085938 5910.378906 7172.484375 5905.976562 C 7165.585938 5904.828125 7141.683594 5904.578125 7133.984375 5905.527344 Z M 7133.984375 5905.527344 "/>
<path style=" stroke:none;fill-rule:nonzero;fill:rgb(0%,0%,0%);fill-opacity:1;" d="M 6257.792969 6284.144531 C 6231.292969 6286.644531 6209.292969 6294.195312 6188.589844 6307.796875 C 6153.1875 6331.097656 6130.488281 6367.5 6124.1875 6411.050781 C 6123.285156 6417.199219 6123.335938 6441.5 6124.1875 6447.800781 C 6128.085938 6475.351562 6138.6875 6500.15625 6155.589844 6521.304688 C 6160.1875 6527.054688 6171.4375 6538.207031 6177.539062 6543.058594 C 6193.039062 6555.457031 6212.792969 6565.40625 6231.59375 6570.308594 C 6258.34375 6577.308594 6287.144531 6576.558594 6313.296875 6568.207031 C 6335.347656 6561.15625 6354.898438 6549.257812 6371.347656 6532.855469 C 6380.199219 6523.957031 6384 6519.355469 6390.347656 6509.855469 C 6404.601562 6488.453125 6412.902344 6463.351562 6414.25 6437.300781 C 6416.449219 6395.5 6401 6355.246094 6371.597656 6326.046875 C 6347.398438 6302.046875 6316.496094 6287.644531 6281.84375 6284.292969 C 6277.09375 6283.84375 6261.945312 6283.746094 6257.792969 6284.144531 Z M 6257.792969 6284.144531 "/>
</g>
</svg>
