<?xml version="1.0" encoding="UTF-8"?>
<svg xmlns="http://www.w3.org/2000/svg" xmlns:xlink="http://www.w3.org/1999/xlink" viewBox="0 0 24 24" version="1.1">
<g>
<path style=" stroke:none;fill-rule:nonzero;fill:rgb(0%,0%,0%);fill-opacity:1;" d="M 4.074219 7.5625 C 3.496094 7.589844 2.976562 7.917969 2.699219 8.429688 C 2.582031 8.640625 2.519531 8.878906 2.503906 9.128906 C 2.503906 9.167969 2.503906 11.707031 2.503906 11.78125 C 2.515625 12.089844 2.539062 12.375 2.589844 12.664062 C 2.722656 13.472656 3.015625 14.246094 3.445312 14.941406 C 3.753906 15.4375 4.128906 15.890625 4.5625 16.285156 C 4.644531 16.359375 4.648438 16.363281 5.085938 16.730469 L 5.425781 17.019531 L 5.429688 17.03125 C 5.46875 17.101562 5.527344 17.191406 5.582031 17.257812 C 5.777344 17.507812 6.039062 17.703125 6.332031 17.820312 C 6.363281 17.832031 6.464844 17.871094 6.546875 17.902344 C 7.3125 18.179688 8.097656 18.398438 8.898438 18.550781 C 9.71875 18.710938 10.546875 18.800781 11.390625 18.820312 C 11.621094 18.828125 11.9375 18.828125 12.164062 18.820312 C 13.742188 18.78125 15.289062 18.5 16.769531 17.988281 C 16.847656 17.960938 17.230469 17.824219 17.261719 17.8125 C 17.414062 17.753906 17.570312 17.671875 17.703125 17.570312 C 17.824219 17.480469 17.933594 17.371094 18.027344 17.253906 C 18.078125 17.191406 18.128906 17.121094 18.164062 17.0625 L 18.175781 17.039062 L 18.546875 16.726562 C 18.75 16.554688 18.929688 16.402344 18.945312 16.386719 C 19.136719 16.21875 19.332031 16.03125 19.503906 15.839844 C 19.964844 15.324219 20.339844 14.742188 20.613281 14.105469 C 20.894531 13.445312 21.0625 12.742188 21.105469 12.023438 C 21.113281 11.917969 21.117188 11.839844 21.117188 11.714844 C 21.121094 11.574219 21.121094 9.148438 21.117188 9.117188 C 21.113281 9.070312 21.113281 9.054688 21.109375 9.023438 C 21.070312 8.683594 20.933594 8.371094 20.703125 8.113281 C 20.675781 8.082031 20.597656 8.003906 20.570312 7.980469 C 20.460938 7.882812 20.347656 7.804688 20.21875 7.742188 C 19.945312 7.601562 19.636719 7.539062 19.324219 7.566406 C 19.222656 7.578125 19.117188 7.597656 19.015625 7.625 C 18.816406 7.683594 18.628906 7.777344 18.464844 7.90625 C 18.363281 7.984375 18.265625 8.078125 18.1875 8.175781 C 18.089844 8.300781 18.011719 8.429688 17.953125 8.574219 C 17.890625 8.71875 17.851562 8.878906 17.835938 9.035156 C 17.828125 9.109375 17.828125 9.097656 17.828125 9.382812 L 17.824219 9.648438 L 17.808594 9.632812 C 17.65625 9.5 17.480469 9.390625 17.292969 9.316406 C 17.242188 9.296875 17.015625 9.214844 16.894531 9.171875 C 16.066406 8.878906 15.203125 8.65625 14.332031 8.511719 C 12.648438 8.230469 10.929688 8.234375 9.25 8.523438 C 8.40625 8.667969 7.585938 8.878906 6.773438 9.164062 C 6.699219 9.191406 6.378906 9.304688 6.351562 9.316406 C 6.15625 9.390625 5.964844 9.507812 5.808594 9.644531 L 5.796875 9.65625 L 5.796875 9.417969 C 5.796875 9.183594 5.796875 9.140625 5.792969 9.082031 C 5.769531 8.769531 5.660156 8.472656 5.472656 8.222656 C 5.332031 8.035156 5.15625 7.882812 4.949219 7.765625 C 4.917969 7.75 4.851562 7.714844 4.820312 7.703125 C 4.722656 7.660156 4.625 7.625 4.519531 7.601562 C 4.425781 7.582031 4.324219 7.566406 4.222656 7.5625 C 4.1875 7.5625 4.109375 7.5625 4.074219 7.5625 Z M 4.214844 8.164062 C 4.398438 8.175781 4.574219 8.234375 4.722656 8.332031 C 4.933594 8.472656 5.089844 8.679688 5.15625 8.917969 C 5.179688 8.996094 5.191406 9.066406 5.195312 9.148438 C 5.199219 9.175781 5.199219 16.039062 5.195312 16.039062 C 5.195312 16.039062 5.128906 15.984375 5.078125 15.9375 C 4.886719 15.773438 4.695312 15.585938 4.527344 15.394531 C 4.148438 14.964844 3.839844 14.484375 3.601562 13.960938 C 3.3125 13.320312 3.144531 12.617188 3.109375 11.914062 C 3.101562 11.753906 3.101562 11.734375 3.105469 10.382812 C 3.105469 9.238281 3.105469 9.15625 3.105469 9.128906 C 3.117188 9.015625 3.140625 8.917969 3.179688 8.820312 C 3.308594 8.5 3.589844 8.257812 3.925781 8.1875 C 3.972656 8.175781 4.023438 8.167969 4.066406 8.164062 C 4.078125 8.164062 4.089844 8.164062 4.09375 8.164062 C 4.109375 8.160156 4.195312 8.160156 4.214844 8.164062 Z M 19.539062 8.164062 C 19.769531 8.179688 19.984375 8.265625 20.160156 8.417969 C 20.183594 8.441406 20.230469 8.484375 20.25 8.507812 C 20.398438 8.671875 20.484375 8.871094 20.511719 9.085938 C 20.519531 9.140625 20.519531 9.054688 20.519531 10.410156 C 20.519531 11.652344 20.519531 11.746094 20.515625 11.851562 C 20.507812 12.035156 20.492188 12.207031 20.46875 12.382812 C 20.316406 13.515625 19.828125 14.578125 19.066406 15.425781 C 18.992188 15.507812 18.9375 15.566406 18.855469 15.652344 C 18.726562 15.78125 18.640625 15.859375 18.484375 15.992188 L 18.425781 16.039062 L 18.425781 12.621094 C 18.425781 10.160156 18.425781 9.191406 18.425781 9.164062 C 18.429688 9.125 18.429688 9.09375 18.4375 9.058594 C 18.464844 8.855469 18.554688 8.667969 18.691406 8.511719 C 18.710938 8.488281 18.757812 8.441406 18.785156 8.421875 C 18.847656 8.363281 18.917969 8.316406 18.992188 8.277344 C 19.121094 8.210938 19.265625 8.171875 19.414062 8.164062 C 19.433594 8.160156 19.519531 8.160156 19.539062 8.164062 Z M 12.132812 8.90625 C 12.164062 8.910156 12.214844 8.910156 12.242188 8.910156 C 13.789062 8.957031 15.320312 9.242188 16.777344 9.765625 C 16.859375 9.796875 17.042969 9.863281 17.066406 9.875 C 17.339844 9.980469 17.5625 10.1875 17.695312 10.449219 C 17.765625 10.589844 17.804688 10.734375 17.820312 10.894531 C 17.820312 10.921875 17.824219 11.050781 17.820312 11.046875 C 17.820312 11.046875 17.09375 10.78125 17.03125 10.757812 C 16.816406 10.679688 16.5625 10.59375 16.339844 10.527344 C 14.488281 9.953125 12.542969 9.738281 10.609375 9.890625 C 9.476562 9.980469 8.363281 10.195312 7.277344 10.535156 C 7.179688 10.566406 7.117188 10.585938 6.996094 10.625 C 6.804688 10.6875 6.808594 10.6875 6.253906 10.890625 C 6.015625 10.972656 5.816406 11.046875 5.808594 11.046875 L 5.800781 11.050781 L 5.800781 10.992188 C 5.800781 10.910156 5.804688 10.859375 5.816406 10.792969 C 5.851562 10.589844 5.9375 10.402344 6.066406 10.242188 C 6.117188 10.179688 6.183594 10.113281 6.246094 10.0625 C 6.339844 9.988281 6.4375 9.929688 6.550781 9.882812 C 6.570312 9.875 6.824219 9.78125 6.921875 9.75 C 7.300781 9.617188 7.660156 9.503906 8.039062 9.402344 C 9.0625 9.128906 10.117188 8.964844 11.175781 8.917969 C 11.320312 8.914062 11.445312 8.910156 11.628906 8.90625 C 11.683594 8.90625 12.078125 8.90625 12.132812 8.90625 Z M 12.121094 10.445312 C 12.246094 10.449219 12.359375 10.453125 12.453125 10.457031 C 13.914062 10.519531 15.351562 10.796875 16.730469 11.289062 C 16.804688 11.3125 16.8125 11.316406 17.347656 11.515625 L 17.820312 11.6875 L 17.820312 15.519531 L 17.3125 15.703125 C 17.035156 15.804688 16.773438 15.898438 16.734375 15.910156 C 15.375 16.394531 13.949219 16.679688 12.507812 16.75 C 12.074219 16.769531 11.632812 16.773438 11.199219 16.753906 C 9.722656 16.695312 8.265625 16.410156 6.871094 15.914062 C 6.832031 15.898438 6.683594 15.84375 6.542969 15.792969 C 6.402344 15.742188 6.175781 15.660156 6.042969 15.609375 L 5.800781 15.519531 L 5.800781 11.6875 L 6.300781 11.507812 C 7.023438 11.25 7 11.257812 7.183594 11.195312 C 7.300781 11.15625 7.363281 11.136719 7.46875 11.105469 C 8.785156 10.695312 10.15625 10.472656 11.535156 10.445312 C 11.660156 10.441406 11.65625 10.441406 11.863281 10.441406 C 11.972656 10.445312 12.085938 10.445312 12.121094 10.445312 Z M 17.820312 16.1875 C 17.820312 16.226562 17.816406 16.257812 17.8125 16.289062 C 17.773438 16.589844 17.617188 16.863281 17.382812 17.058594 C 17.285156 17.136719 17.171875 17.203125 17.054688 17.25 C 17.03125 17.257812 16.65625 17.390625 16.570312 17.421875 C 16.246094 17.53125 15.886719 17.644531 15.550781 17.730469 C 14.445312 18.027344 13.320312 18.1875 12.175781 18.21875 C 11.933594 18.226562 11.625 18.226562 11.382812 18.21875 C 9.824219 18.175781 8.300781 17.890625 6.835938 17.367188 C 6.734375 17.332031 6.589844 17.277344 6.546875 17.261719 C 6.25 17.140625 6.007812 16.898438 5.886719 16.59375 C 5.84375 16.488281 5.816406 16.378906 5.804688 16.261719 C 5.804688 16.234375 5.800781 16.160156 5.800781 16.160156 C 5.800781 16.160156 5.957031 16.21875 6.148438 16.289062 C 6.339844 16.359375 6.53125 16.429688 6.578125 16.445312 C 8.03125 16.972656 9.550781 17.277344 11.097656 17.351562 C 11.480469 17.367188 11.871094 17.371094 12.257812 17.359375 C 13.851562 17.3125 15.433594 17.011719 16.933594 16.476562 C 16.96875 16.464844 17.183594 16.386719 17.410156 16.304688 C 17.636719 16.222656 17.820312 16.15625 17.820312 16.15625 C 17.820312 16.160156 17.820312 16.171875 17.820312 16.1875 Z M 17.820312 16.1875 "/>
<path style=" stroke:none;fill-rule:nonzero;fill:rgb(0%,0%,0%);fill-opacity:1;" d="M 10.6875 11.882812 L 10.6875 12.539062 L 9.378906 12.539062 L 9.378906 14.738281 L 10.6875 14.738281 L 10.6875 16.042969 L 12.886719 16.042969 L 12.886719 14.738281 L 14.167969 14.738281 L 14.167969 12.539062 L 12.886719 12.539062 L 12.886719 11.230469 L 10.6875 11.230469 Z M 12.285156 12.484375 L 12.285156 13.136719 L 13.570312 13.136719 L 13.570312 14.136719 L 12.285156 14.136719 L 12.285156 15.445312 L 11.285156 15.445312 L 11.285156 14.136719 L 9.976562 14.136719 L 9.976562 13.136719 L 11.285156 13.136719 L 11.285156 11.832031 L 12.285156 11.832031 Z M 12.285156 12.484375 "/>
</g>
</svg>
