<?xml version="1.0" encoding="UTF-8"?>
<svg xmlns="http://www.w3.org/2000/svg" xmlns:xlink="http://www.w3.org/1999/xlink" width="px" height="px" viewBox="0 0 8534 8534" version="1.1">
<g>
<path style=" stroke:none;fill-rule:nonzero;fill:rgb(0%,0%,0%);fill-opacity:1;" d="M 1834.085938 1033.597656 C 1653.828125 1041.347656 1481.121094 1103.75 1350.5625 1208.355469 C 1329.164062 1225.507812 1313.613281 1239.457031 1293.011719 1260.007812 C 1261.160156 1291.910156 1236.707031 1321.460938 1212.457031 1357.3125 C 1168.503906 1422.367188 1135.804688 1497.96875 1120.550781 1569.574219 C 1113.003906 1605.125 1109.152344 1639.027344 1106.453125 1694.328125 C 1106 1703.480469 1105.800781 2131.898438 1105.550781 3502.664062 C 1105.300781 4870.328125 1105.101562 5303.449219 1104.652344 5317.75 C 1103.902344 5342.152344 1102.203125 5406.402344 1101.550781 5437.253906 C 1100.453125 5486.605469 1100.902344 5554.460938 1102.550781 5591.011719 C 1109.003906 5733.46875 1134.101562 5839.824219 1182.304688 5928.527344 C 1223.65625 6004.679688 1279.261719 6070.933594 1348.964844 6126.988281 C 1469.320312 6223.792969 1626.777344 6284.292969 1795.085938 6298.496094 C 1805.734375 6299.394531 1816.335938 6300.09375 1830.585938 6300.84375 C 1838.386719 6301.246094 2042.894531 6301.394531 2579.769531 6301.296875 L 3318.15625 6301.195312 L 3318.15625 6722.414062 L 3101.296875 6722.164062 C 2942.9375 6721.964844 2867.382812 6721.714844 2821.382812 6721.113281 C 2643.023438 6718.914062 2469.964844 6719.964844 2423.113281 6723.566406 C 2333.308594 6730.515625 2249.554688 6764.316406 2183.351562 6820.371094 C 2173.25 6828.921875 2155 6846.722656 2145.949219 6856.820312 C 2095 6913.773438 2063.347656 6983.527344 2053.597656 7060.332031 C 2050.097656 7088.183594 2049.597656 7121.332031 2052.394531 7149.085938 C 2059.597656 7220.839844 2088.097656 7289.390625 2134.050781 7345.34375 C 2146.101562 7359.996094 2163.851562 7378.445312 2177.101562 7390.046875 C 2248.65625 7452.75 2337.507812 7488.351562 2435.363281 7493.601562 C 2442.214844 7493.953125 2491.765625 7495.601562 2526.617188 7496.601562 C 2723.175781 7502.25 2939.085938 7503.902344 3211.902344 7501.851562 C 3307.90625 7501.101562 3345.757812 7500.703125 3568.917969 7498.101562 C 3870.179688 7494.550781 3963.785156 7493.851562 4128.195312 7493.851562 C 4272.699219 7493.851562 4404.304688 7494.5 4708.46875 7496.601562 C 5042.988281 7498.953125 5133.839844 7499.351562 5316 7499.351562 C 5545.710938 7499.351562 5724.71875 7497.902344 5873.523438 7494.800781 C 5887.824219 7494.5 5915.378906 7494.101562 5934.777344 7493.851562 C 5973.078125 7493.453125 5976.980469 7493.203125 6000.78125 7489.550781 C 6107.386719 7473.25 6203.242188 7416.148438 6267.59375 7330.695312 C 6275.394531 7320.394531 6286.792969 7303.34375 6293.09375 7292.59375 C 6299.195312 7282.242188 6310.347656 7259.941406 6314.996094 7248.890625 C 6340.847656 7187.636719 6349.796875 7123.382812 6341.496094 7058.582031 C 6333.496094 6995.628906 6306.796875 6930.425781 6267.742188 6878.324219 C 6221.589844 6816.667969 6158.488281 6772.015625 6081.285156 6746.316406 C 6043.785156 6733.867188 6003.882812 6726.367188 5959.03125 6723.316406 C 5933.628906 6721.613281 5756.917969 6721.214844 5355.402344 6722.015625 L 5124.738281 6722.464844 L 5124.738281 6302.394531 L 5706.167969 6302.144531 C 6271.09375 6301.84375 6316.496094 6301.746094 6341.296875 6300.296875 C 6404.101562 6296.695312 6459.003906 6288.542969 6516.554688 6274.195312 C 6680.964844 6233.292969 6823.167969 6148.988281 6922.625 6033.433594 C 6971.476562 5976.628906 7009.929688 5911.777344 7035.730469 5842.773438 C 7059.480469 5779.070312 7072.730469 5712.019531 7075.832031 5639.964844 C 7076.980469 5612.363281 7077.433594 5468.105469 7077.03125 5259.746094 C 7076.78125 5144.941406 7076.582031 4410.605469 7076.582031 3627.921875 C 7076.582031 2485.015625 7076.730469 2193.351562 7077.230469 2146.351562 C 7078.183594 2060.945312 7078.582031 1847.1875 7077.882812 1792.835938 C 7077.183594 1738.78125 7076.53125 1704.679688 7075.832031 1689.328125 C 7070.929688 1580.824219 7042.378906 1482.070312 6990.277344 1393.464844 C 6951.875 1328.210938 6899.523438 1268.359375 6836.820312 1218.007812 C 6696.8125 1105.601562 6507.703125 1040.25 6303.046875 1033.546875 C 6284.792969 1032.949219 1848.035156 1033 1834.085938 1033.597656 Z M 6306.046875 1248.507812 C 6355.296875 1249.707031 6370 1250.410156 6390.550781 1252.558594 C 6498.40625 1264.058594 6602.007812 1304.609375 6683.0625 1367.113281 C 6712.015625 1389.414062 6738.964844 1415.214844 6761.066406 1441.816406 C 6798.320312 1486.519531 6825.96875 1537.421875 6842.070312 1590.824219 C 6852.371094 1625.027344 6857.871094 1656.976562 6859.820312 1694.078125 C 6860.171875 1700.78125 6860.371094 2268.257812 6860.320312 3505.664062 C 6860.320312 4721.769531 6860.472656 5314.648438 6860.820312 5329.5 C 6861.121094 5341.601562 6861.871094 5370.75 6862.570312 5394.253906 C 6865.621094 5499.257812 6865.523438 5541.558594 6862.023438 5595.011719 C 6853.019531 5734.269531 6816.46875 5834.472656 6746.667969 5911.675781 C 6743.515625 5915.175781 6735.765625 5923.078125 6729.515625 5929.277344 C 6652.3125 6005.28125 6556.355469 6051.535156 6433.550781 6071.984375 C 6362.699219 6083.785156 6285.84375 6087.886719 6166.539062 6086.183594 C 6127.636719 6085.636719 5734.867188 6085.535156 3993.1875 6085.484375 C 2380.410156 6085.433594 1864.039062 6085.285156 1853.585938 6084.835938 C 1807.234375 6082.886719 1767.984375 6078.234375 1727.632812 6070.035156 C 1598.125 6043.632812 1492.019531 5982.582031 1417.316406 5891.527344 C 1360.214844 5821.972656 1330.511719 5739.71875 1323.5625 5632.015625 C 1323.261719 5627.3125 1322.761719 5619.5625 1322.460938 5614.761719 C 1322.0625 5608.363281 1321.8125 5289.496094 1321.5625 4424.707031 C 1321.3125 3601.070312 1321.0625 3223.5 1320.660156 3177.648438 C 1320.363281 3141.496094 1319.863281 3082.292969 1319.5625 3046.144531 C 1319.261719 3009.992188 1318.710938 2940.539062 1318.3125 2891.886719 C 1315.460938 2547.71875 1315.3125 2527.71875 1315.3125 2308.109375 C 1315.3125 2106.398438 1315.511719 2061.996094 1317.0625 1945.339844 C 1318.613281 1829.234375 1321.261719 1702.078125 1322.5625 1683.828125 C 1331.011719 1565.625 1385.316406 1461.769531 1479.917969 1382.714844 C 1559.625 1316.113281 1664.179688 1271.308594 1776.832031 1255.359375 C 1791.984375 1253.207031 1804.734375 1251.859375 1826.085938 1250.207031 C 1836.136719 1249.410156 1975.691406 1249.308594 3930.683594 1248.957031 C 5082.289062 1248.757812 6038.832031 1248.359375 6056.285156 1248.160156 C 6099.484375 1247.609375 6278.195312 1247.859375 6306.046875 1248.507812 Z M 4908.730469 6525.554688 L 4908.730469 6722.316406 L 3534.164062 6722.316406 L 3534.164062 6328.796875 L 4908.730469 6328.796875 Z M 2593.871094 6931.324219 C 2612.023438 6931.976562 2631.273438 6932.925781 2668.875 6935.074219 C 2685.675781 6936.023438 2704.578125 6937.074219 2710.878906 6937.425781 C 2727.878906 6938.375 5673.367188 6938.375 5690.765625 6937.425781 C 5697.21875 6937.074219 5716.46875 6936.023438 5733.519531 6935.074219 C 5810.074219 6930.824219 5847.574219 6930.023438 5886.777344 6931.875 C 5972.378906 6935.773438 6031.382812 6952.675781 6071.785156 6984.777344 C 6077.933594 6989.628906 6089.585938 7001.277344 6094.386719 7007.328125 C 6112.4375 7030.078125 6124.085938 7059.03125 6127.886719 7090.582031 C 6128.636719 7097.132812 6128.636719 7116.734375 6127.835938 7123.082031 C 6126.335938 7135.433594 6124.238281 7144.933594 6120.4375 7156.585938 C 6108.6875 7192.738281 6083.535156 7225.289062 6050.535156 7247.191406 C 6024.480469 7264.492188 5995.332031 7274.640625 5963.980469 7277.292969 C 5955.328125 7278.042969 2465.066406 7278.089844 2453.363281 7277.339844 C 2421.964844 7275.339844 2393.761719 7267.941406 2366.261719 7254.390625 C 2313.757812 7228.539062 2277.207031 7184.835938 2267.355469 7136.132812 C 2264.757812 7123.183594 2263.855469 7106.933594 2265.105469 7094.28125 C 2267.457031 7070.429688 2276.058594 7045.679688 2290.15625 7022.078125 C 2306.058594 6995.476562 2328.910156 6975.675781 2360.5625 6961.078125 C 2412.964844 6936.875 2486.015625 6927.574219 2593.871094 6931.324219 Z M 2593.871094 6931.324219 "/>
<path style=" stroke:none;fill-rule:nonzero;fill:rgb(0%,0%,0%);fill-opacity:1;" d="M 2913.886719 2764.429688 C 2913.085938 2764.53125 2909.785156 2764.980469 2906.636719 2765.429688 C 2893.9375 2767.179688 2880.886719 2771.230469 2868.335938 2777.378906 C 2842.535156 2790.03125 2823.230469 2810.632812 2814.230469 2835.132812 C 2813.332031 2837.484375 2796.582031 2893.035156 2776.929688 2958.640625 C 2722.777344 3139.496094 2561.269531 3678.273438 2559.570312 3683.722656 L 2558.121094 3688.574219 L 2541.96875 3688.871094 C 2515.917969 3689.421875 2305.15625 3692.421875 2204.851562 3693.671875 C 2182.300781 3693.972656 2161.25 3694.421875 2158.101562 3694.722656 C 2108.898438 3699.171875 2073.398438 3733.976562 2065.546875 3785.425781 C 2063.996094 3795.429688 2063.996094 3811.578125 2065.496094 3821.429688 C 2073.648438 3874.132812 2110.097656 3907.933594 2161.101562 3910.035156 C 2169.652344 3910.382812 2241.003906 3909.484375 2448.613281 3906.433594 C 2494.96875 3905.734375 2556.96875 3904.832031 2586.371094 3904.433594 C 2615.824219 3904.03125 2642.824219 3903.433594 2646.375 3903.132812 C 2684.476562 3900.03125 2717.628906 3877.832031 2735.378906 3843.53125 C 2737.078125 3840.179688 2739.429688 3834.929688 2740.578125 3831.929688 C 2741.679688 3828.878906 2756.777344 3779.175781 2774.078125 3721.425781 C 2791.378906 3663.671875 2823.933594 3555.015625 2846.433594 3479.914062 L 2887.335938 3343.457031 L 2889.035156 3353.40625 C 2912.085938 3491.863281 3104.59375 4629.566406 3105.644531 4633.617188 C 3108.34375 4643.867188 3112.695312 4653.46875 3118.847656 4662.46875 C 3122.746094 4668.269531 3132.945312 4678.46875 3139.148438 4682.820312 C 3151.199219 4691.320312 3165.898438 4696.96875 3182.648438 4699.570312 C 3190.648438 4700.820312 3209.050781 4700.769531 3217.152344 4699.570312 C 3246.152344 4695.070312 3270.203125 4683.167969 3288.402344 4664.167969 C 3290.902344 4661.570312 3293.953125 4658.117188 3295.203125 4656.46875 C 3301.65625 4648.066406 3307.554688 4637.015625 3310.554688 4627.71875 C 3311.855469 4623.867188 3516.363281 3909.285156 3563.765625 3743.175781 C 3570.96875 3718.023438 3576.96875 3697.273438 3577.117188 3697.074219 C 3577.269531 3696.875 3623.269531 3899.734375 3679.324219 4147.84375 C 3735.375 4395.957031 3800.976562 4686.46875 3825.179688 4793.476562 C 3849.332031 4900.429688 3878.230469 5028.484375 3889.433594 5077.988281 C 3902.433594 5135.640625 3910.433594 5170.140625 3911.734375 5173.941406 C 3920.683594 5200.945312 3941.984375 5222.144531 3971.4375 5233.496094 C 3981.386719 5237.296875 3989.9375 5239.445312 4001.6875 5241.046875 C 4009.738281 5242.144531 4026.1875 5242.144531 4033.9375 5241.09375 C 4059.039062 5237.59375 4079.140625 5228.046875 4094.191406 5212.394531 C 4100.59375 5205.792969 4104.691406 5200.042969 4108.59375 5192.34375 C 4111.992188 5185.691406 4114.242188 5179.644531 4115.894531 5172.742188 C 4116.542969 5170.140625 4181.496094 4763.722656 4260.25 4269.550781 C 4345.203125 3736.726562 4403.605469 3371.507812 4403.855469 3372.007812 C 4404.054688 3372.507812 4425.609375 3446.363281 4451.757812 3536.164062 C 4642.917969 4192.796875 4668.320312 4279.800781 4670.367188 4284.800781 C 4680.019531 4308.203125 4699.46875 4328.003906 4724.972656 4340.453125 C 4733.972656 4344.855469 4740.070312 4347.152344 4748.972656 4349.503906 C 4779.273438 4357.453125 4809.527344 4353.605469 4832.226562 4338.804688 C 4844.777344 4330.652344 4854.878906 4319.402344 4861.929688 4305.703125 C 4863.679688 4302.25 4945.480469 4124.492188 5043.738281 3910.683594 C 5141.992188 3696.875 5222.542969 3521.613281 5222.746094 3521.214844 C 5222.945312 3520.816406 5242.097656 3577.519531 5271.746094 3666.472656 C 5331.550781 3845.929688 5329.351562 3839.53125 5334 3848.929688 C 5351.75 3885.183594 5384.550781 3908.734375 5421.855469 3912.132812 C 5425.304688 3912.433594 5487.757812 3912.433594 5596.363281 3912.183594 C 5869.726562 3911.484375 6014.230469 3910.632812 6024.53125 3909.632812 C 6040.332031 3908.132812 6056.035156 3903.03125 6068.683594 3895.382812 C 6091.386719 3881.632812 6108.1875 3857.230469 6114.535156 3828.878906 C 6116.835938 3818.730469 6117.4375 3812.828125 6117.4375 3800.929688 C 6117.4375 3781.328125 6113.988281 3765.828125 6105.984375 3749.226562 C 6092.785156 3721.875 6069.835938 3703.523438 6040.683594 3696.972656 C 6027.484375 3694.023438 6028.933594 3694.023438 5945.777344 3694.671875 C 5869.625 3695.222656 5624.113281 3696.125 5549.410156 3696.171875 L 5509.359375 3696.171875 L 5425.554688 3444.761719 C 5337.148438 3179.648438 5340 3187.949219 5333.75 3177.898438 C 5325.550781 3164.75 5312.300781 3151.148438 5299.148438 3142.246094 C 5286.597656 3133.746094 5272.097656 3127.246094 5257.644531 3123.597656 C 5239.894531 3119.097656 5220.246094 3118.847656 5204.292969 3122.847656 C 5180.144531 3128.945312 5160.390625 3144.746094 5148.792969 3167.148438 C 5146.089844 3172.398438 5072.335938 3332.757812 4868.929688 3775.527344 C 4827.976562 3864.730469 4794.324219 3937.683594 4794.175781 3937.683594 C 4794.023438 3937.683594 4786.425781 3911.984375 4777.273438 3880.53125 C 4768.125 3849.128906 4696.871094 3604.367188 4618.917969 3336.65625 C 4540.960938 3068.945312 4476.460938 2847.832031 4475.609375 2845.382812 C 4464.910156 2814.832031 4438.109375 2790.429688 4403.207031 2779.378906 C 4377.355469 2771.230469 4348.054688 2771.429688 4325.203125 2779.980469 C 4296.101562 2790.832031 4276.402344 2814.03125 4269.949219 2844.882812 C 4269.300781 2847.882812 4207.296875 3236.203125 4132.144531 3707.773438 C 4056.988281 4179.347656 3995.335938 4565.015625 3995.1875 4564.8125 C 3994.988281 4564.613281 3956.535156 4394.804688 3909.734375 4187.445312 C 3709.824219 3302.355469 3692.722656 3226.703125 3690.921875 3221.152344 C 3684.222656 3200.25 3671.121094 3183.050781 3652.921875 3171 C 3640.570312 3162.847656 3626.121094 3157.648438 3608.917969 3155.097656 C 3602.21875 3154.097656 3583.867188 3154.199219 3576.667969 3155.296875 C 3534.367188 3161.75 3501.5625 3186.898438 3488.011719 3223.152344 C 3486.464844 3227.351562 3448.261719 3360.609375 3279.402344 3950.933594 C 3255.003906 4036.1875 3234.902344 4106.191406 3234.703125 4106.542969 C 3234.550781 4106.84375 3186.148438 3821.328125 3127.195312 3472.011719 C 3068.242188 3122.695312 3019.339844 2834.484375 3018.589844 2831.582031 C 3009.140625 2795.429688 2982.890625 2772.078125 2944.136719 2765.328125 C 2939.585938 2764.578125 2917.738281 2763.878906 2913.886719 2764.429688 Z M 2913.886719 2764.429688 "/>
</g>
</svg>
