<?xml version="1.0" encoding="UTF-8"?>
<svg xmlns="http://www.w3.org/2000/svg" xmlns:xlink="http://www.w3.org/1999/xlink" width="px" height="px" viewBox="0 0 8534 8534" version="1.1">
<g>
<path style=" stroke:none;fill-rule:nonzero;fill:rgb(0%,0%,0%);fill-opacity:1;" d="M 1164.304688 1272.058594 C 1001.898438 1278.011719 850.140625 1348.863281 739.734375 1470.320312 C 680.980469 1534.972656 635.78125 1614.375 610.277344 1697.828125 C 596.628906 1742.632812 588.925781 1784.035156 585.175781 1833.585938 C 584.328125 1844.835938 584.277344 1891.238281 584.277344 2899.636719 C 584.277344 3908.03125 584.328125 3954.433594 585.175781 3965.6875 C 587.476562 3996.136719 591.175781 4022.589844 596.828125 4049.441406 C 610.480469 4114.242188 635.128906 4176.894531 669.679688 4234.449219 C 720.183594 4318.652344 791.835938 4390.40625 876.292969 4441.308594 C 926.742188 4471.757812 982.695312 4495.0625 1039.148438 4509.210938 C 1047.5 4511.3125 1068.949219 4516.210938 1069.800781 4516.210938 C 1069.949219 4516.210938 1070.050781 4910.582031 1070.050781 5392.601562 C 1070.050781 5958.429688 1070.25 6273.542969 1070.550781 6281.792969 C 1071.851562 6315.746094 1074.898438 6346.398438 1080.101562 6378.300781 C 1109.453125 6557.957031 1203.40625 6722.066406 1344.3125 6839.820312 C 1439.417969 6919.273438 1550.921875 6973.875 1671.578125 7000.027344 C 1785.382812 7024.679688 1905.6875 7022.679688 2018.84375 6994.226562 C 2210.054688 6946.226562 2375.910156 6824.917969 2480.964844 6656.3125 C 2555.769531 6536.257812 2595.523438 6397.25 2595.621094 6255.542969 C 2595.671875 6158.386719 2623.722656 6065.933594 2677.277344 5985.929688 C 2695.425781 5958.828125 2713.777344 5936.578125 2737.628906 5912.777344 C 2761.429688 5888.925781 2783.679688 5870.574219 2810.78125 5852.425781 C 2884.183594 5803.273438 2967.839844 5775.671875 3056.894531 5771.269531 C 3063.992188 5770.921875 3311.753906 5770.769531 3832.28125 5770.769531 L 4597.214844 5770.769531 L 4597.214844 5964.878906 C 4597.214844 6158.4375 4597.316406 6169.789062 4598.964844 6193.039062 C 4609.464844 6339.046875 4667.617188 6472.351562 4771.921875 6589.558594 C 4791.925781 6612.011719 4819.625 6639.609375 4843.476562 6660.8125 C 4940.832031 6747.316406 5065.488281 6822.121094 5214.84375 6883.621094 C 5448.753906 6979.976562 5736.617188 7038.078125 6038.78125 7050.082031 C 6078.886719 7051.679688 6090.984375 7051.929688 6142.789062 7052.179688 C 6205.789062 7052.53125 6240.140625 7051.929688 6293.296875 7049.582031 C 6512.054688 7039.878906 6721.765625 7006.476562 6911.125 6951.125 C 7049.230469 6910.722656 7177.085938 6857.871094 7284.089844 6796.917969 C 7405.898438 6727.515625 7503.800781 6646.910156 7575.855469 6556.558594 C 7661.308594 6449.453125 7709.960938 6329.148438 7720.5625 6198.539062 C 7722.710938 6172.488281 7722.613281 6216.242188 7722.613281 5171.242188 C 7722.613281 4147.292969 7722.660156 4170.644531 7720.863281 4147.695312 C 7718.410156 4116.941406 7714.261719 4088.191406 7708.0625 4059.691406 C 7673.910156 3902.382812 7581.304688 3763.175781 7432.597656 3645.421875 C 7312.59375 3550.417969 7153.335938 3469.3125 6970.078125 3409.910156 C 6769.265625 3344.855469 6543.308594 3305.453125 6304.796875 3293.90625 C 6249.792969 3291.253906 6208.339844 3290.453125 6142.539062 3290.804688 C 6092.085938 3291.054688 6079.585938 3291.304688 6044.285156 3292.65625 C 5787.621094 3302.453125 5542.710938 3344.957031 5329.75 3416.609375 C 5136.390625 3481.664062 4973.683594 3569.417969 4853.277344 3673.621094 C 4825.425781 3697.722656 4794.675781 3727.875 4772.023438 3753.324219 C 4672.417969 3865.28125 4615.214844 3990.886719 4600.714844 4129.695312 C 4599.464844 4141.894531 4598.316406 4157.695312 4597.714844 4172.195312 C 4597.367188 4179.894531 4597.214844 4420.105469 4597.214844 4873.078125 L 4597.214844 5562.261719 L 3832.828125 5562.261719 C 3332.957031 5562.261719 3063.792969 5562.460938 3055.144531 5562.761719 C 3023.140625 5563.960938 2994.742188 5566.8125 2964.988281 5571.761719 C 2879.335938 5586.0625 2798.382812 5615.964844 2723.226562 5661.066406 C 2647.523438 5706.515625 2579.371094 5767.96875 2526.167969 5838.722656 C 2481.765625 5897.777344 2446.914062 5963.730469 2423.511719 6032.78125 C 2405.5625 6085.886719 2394.3125 6140.289062 2389.613281 6196.539062 C 2388.113281 6215.140625 2387.613281 6226.140625 2387.113281 6255.191406 C 2386.5625 6287.34375 2385.761719 6300.296875 2382.8125 6323.796875 C 2361.0625 6498.40625 2255.65625 6653.613281 2100.25 6739.714844 C 2006.042969 6791.96875 1897.488281 6815.519531 1789.832031 6807.070312 C 1673.679688 6797.917969 1564.472656 6752.964844 1475.070312 6677.363281 C 1463.519531 6667.613281 1453.917969 6658.660156 1441.265625 6646.0625 C 1427.71875 6632.5625 1418.617188 6622.609375 1407.117188 6608.859375 C 1339.113281 6527.355469 1295.859375 6428 1282.859375 6323.546875 C 1281.710938 6314.394531 1281.160156 6309.046875 1279.460938 6289.792969 C 1279.011719 6284.59375 1278.808594 6078.933594 1278.710938 5405.351562 L 1278.558594 4527.710938 L 2311.457031 4527.710938 C 2984.738281 4527.710938 3349.007812 4527.511719 3357.65625 4527.210938 C 3428.011719 4524.5625 3493.964844 4510.8125 3558.167969 4485.359375 C 3654.820312 4447.058594 3740.726562 4383.65625 3806.226562 4302.203125 C 3870.980469 4221.746094 3913.832031 4126.59375 3930.882812 4025.4375 C 3934.984375 4001.085938 3937.335938 3978.835938 3938.683594 3952.183594 C 3939.335938 3938.785156 3939.335938 1860.488281 3938.683594 1847.085938 C 3934.335938 1760.683594 3913.984375 1682.179688 3876.382812 1606.574219 C 3832.980469 1519.472656 3769.425781 1444.316406 3690.671875 1386.964844 C 3603.167969 1323.210938 3501.015625 1284.511719 3393.410156 1274.359375 C 3381.660156 1273.257812 3371.457031 1272.609375 3357.15625 1272.058594 C 3342.105469 1271.507812 1179.855469 1271.507812 1164.304688 1272.058594 Z M 3367.40625 1481.21875 C 3381.058594 1482.519531 3394.460938 1484.269531 3405.660156 1486.269531 C 3503.765625 1503.769531 3591.566406 1558.023438 3652.070312 1638.527344 C 3676.871094 1671.527344 3696.972656 1709.679688 3710.273438 1749.082031 C 3721.472656 1782.234375 3728.125 1816.535156 3730.175781 1851.835938 C 3730.574219 1858.738281 3730.675781 2026.546875 3730.574219 2463.867188 C 3730.425781 3028.09375 3730.324219 3066.894531 3729.523438 3074.59375 C 3726.875 3100.09375 3723.472656 3119.746094 3718.175781 3139.945312 C 3702.375 3200.351562 3672.871094 3255.300781 3630.769531 3302.90625 C 3619.519531 3315.605469 3601.917969 3332.554688 3587.167969 3344.90625 C 3573.867188 3356.058594 3550.964844 3372.058594 3534.914062 3381.457031 C 3525.765625 3386.808594 3505.914062 3397.007812 3496.414062 3401.210938 C 3452.011719 3420.859375 3406.507812 3431.8125 3357.40625 3434.660156 C 3345.707031 3435.359375 1177.503906 3435.359375 1165.804688 3434.660156 C 1122.453125 3432.160156 1081.449219 3423.210938 1042.648438 3407.859375 C 911.792969 3356.058594 817.839844 3238.453125 796.835938 3100.144531 C 794.238281 3083.09375 793.136719 3070.792969 792.539062 3051.394531 C 791.886719 3031.941406 791.886719 1883.289062 792.539062 1863.835938 C 793.136719 1844.386719 794.238281 1832.035156 796.835938 1815.085938 C 805.488281 1758.433594 826.089844 1705.28125 857.988281 1657.078125 C 880.042969 1623.824219 908.042969 1593.023438 939.394531 1567.722656 C 1004.195312 1515.371094 1083.199219 1485.019531 1166.304688 1480.621094 C 1170.453125 1480.417969 1665.226562 1480.21875 2265.855469 1480.269531 C 3309.054688 1480.320312 3358.355469 1480.371094 3367.40625 1481.21875 Z M 802.289062 3504.664062 C 859.691406 3552.316406 924.84375 3588.71875 994.296875 3611.917969 C 1050.699219 3630.820312 1103.351562 3640.46875 1164.554688 3643.171875 C 1180.605469 3643.871094 3342.757812 3643.871094 3358.65625 3643.171875 C 3364.859375 3642.871094 3374.65625 3642.320312 3380.410156 3641.921875 C 3502.113281 3633.070312 3618.167969 3587.417969 3712.925781 3511.113281 C 3717.625 3507.3125 3723.472656 3502.5625 3725.925781 3500.464844 L 3730.425781 3496.714844 L 3730.574219 3717.324219 C 3730.675781 3874.332031 3730.574219 3940.683594 3730.175781 3947.433594 C 3725.625 4025.136719 3698.625 4098.792969 3651.722656 4161.195312 C 3621.46875 4201.496094 3582.21875 4237 3539.664062 4262.550781 C 3483.011719 4296.550781 3422.261719 4315.101562 3355.65625 4318.703125 C 3349.507812 4319.050781 2998.890625 4319.203125 2312.507812 4319.203125 L 1278.558594 4319.203125 L 1278.558594 4159.796875 C 1278.558594 4050.941406 1278.410156 3998.636719 1278.011719 3994.886719 C 1275.359375 3967.4375 1262.210938 3942.335938 1241.359375 3924.832031 C 1226.457031 3912.285156 1208.507812 3904.332031 1188.855469 3901.433594 C 1181.457031 3900.332031 1167.253906 3900.382812 1159.605469 3901.484375 C 1137.804688 3904.582031 1118.152344 3914.132812 1102.203125 3929.382812 C 1088 3942.933594 1078.050781 3959.984375 1073.300781 3978.886719 C 1069.851562 3992.4375 1070.050781 3982.738281 1070.050781 4150.042969 C 1070.050781 4233.199219 1069.851562 4301.203125 1069.601562 4301.203125 C 1068.851562 4301.203125 1051.847656 4295.351562 1045.300781 4292.800781 C 976.296875 4266.199219 915.84375 4220.347656 871.089844 4160.695312 C 826.140625 4100.792969 800.039062 4031.890625 793.539062 3956.183594 C 792.238281 3941.132812 792.085938 3910.933594 792.039062 3708.472656 L 792.039062 3496.015625 L 793.1875 3497.015625 C 793.789062 3497.5625 797.886719 3501.015625 802.289062 3504.664062 Z M 6224.042969 3499.664062 C 6414.449219 3504.265625 6604.359375 3529.316406 6775.816406 3572.417969 C 6988.675781 3625.96875 7165.9375 3704.875 7292.34375 3802.328125 C 7418.796875 3899.832031 7492.199219 4013.238281 7510.050781 4138.695312 C 7513.101562 4160.09375 7514.050781 4174.195312 7514.050781 4198.945312 C 7514.101562 4223.898438 7513.203125 4237.25 7510.050781 4259.449219 C 7487.300781 4420.105469 7372.394531 4561.8125 7174.335938 4673.320312 C 6947.074219 4801.273438 6620.609375 4882.128906 6271.292969 4896.980469 C 6230.792969 4898.679688 6214.542969 4898.980469 6159.539062 4898.980469 C 6096.386719 4898.980469 6066.535156 4898.179688 6013.03125 4895.230469 C 5675.164062 4876.429688 5362.402344 4796.125 5142.992188 4671.820312 C 5081.4375 4636.96875 5029.835938 4600.515625 4982.734375 4558.664062 C 4971.03125 4548.261719 4941.679688 4519.0625 4931.730469 4507.960938 C 4870.726562 4439.707031 4832.527344 4368.105469 4815.277344 4289.699219 C 4812.027344 4274.898438 4809.425781 4258.25 4807.726562 4241.699219 C 4804.773438 4212.097656 4805.125 4176.644531 4808.726562 4147.195312 C 4823.324219 4028.140625 4887.128906 3920.183594 4998.933594 3825.53125 C 5094.738281 3744.375 5225.34375 3674.472656 5382.503906 3620.269531 C 5601.8125 3544.667969 5865.675781 3501.964844 6132.289062 3498.964844 C 6151.636719 3498.765625 6201.589844 3499.164062 6224.042969 3499.664062 Z M 4827.726562 4701.769531 C 5003.183594 4865.476562 5279.847656 4990.382812 5612.261719 5055.988281 C 5829.171875 5098.789062 6064.585938 5115.339844 6300.296875 5104.488281 C 6534.457031 5093.640625 6764.667969 5054.1875 6960.226562 4991.332031 L 6966.328125 4989.332031 L 6966.328125 6712.265625 L 6963.476562 6713.316406 C 6955.625 6716.265625 6931.824219 6724.515625 6917.324219 6729.316406 C 6661.960938 6814.121094 6351.746094 6854.371094 6050.285156 6841.820312 C 5787.269531 6830.871094 5533.109375 6781.867188 5326.25 6702.214844 C 5139.039062 6630.109375 4996.585938 6535.757812 4908.980469 6425.851562 C 4872.328125 6379.847656 4845.378906 6331.496094 4828.277344 6281.09375 C 4816.976562 6247.792969 4810.574219 6217.140625 4806.875 6178.539062 C 4806.074219 6170.089844 4806.023438 6124.535156 4805.875 5425.054688 L 4805.726562 4680.570312 L 4813.375 4688.019531 C 4817.574219 4692.121094 4824.027344 4698.320312 4827.726562 4701.769531 Z M 7514.203125 5470.507812 C 7514.101562 6002.480469 7513.902344 6169.039062 7513.453125 6173.789062 C 7511.953125 6189.539062 7511.253906 6196.140625 7510.050781 6204.289062 C 7497.351562 6293.445312 7456.699219 6376.300781 7388.296875 6452.601562 C 7378.746094 6463.253906 7356.84375 6485.355469 7345.09375 6496.203125 C 7299.992188 6537.804688 7245.640625 6577.109375 7184.335938 6612.359375 L 7175.085938 6617.710938 L 7174.9375 5763.320312 C 7174.886719 5293.449219 7174.9375 4908.730469 7175.035156 4908.480469 C 7175.136719 4908.179688 7181.488281 4905.03125 7189.136719 4901.480469 C 7232.539062 4881.328125 7284.941406 4852.828125 7328.34375 4825.828125 C 7384.496094 4790.875 7436.847656 4751.824219 7481.351562 4711.722656 C 7488.300781 4705.421875 7509.003906 4685.96875 7512.101562 4682.71875 L 7514.101562 4680.667969 L 7514.253906 4727.070312 C 7514.300781 4752.574219 7514.300781 5087.136719 7514.203125 5470.507812 Z M 7514.203125 5470.507812 "/>
<path style=" stroke:none;fill-rule:nonzero;fill:rgb(0%,0%,0%);fill-opacity:1;" d="M 1162.054688 1744.132812 C 1155.554688 1744.882812 1148.054688 1746.582031 1141.152344 1748.882812 C 1114.402344 1757.78125 1092.953125 1776.683594 1080.5 1802.335938 C 1075 1813.636719 1071.851562 1824.886719 1070.550781 1837.535156 C 1069.851562 1844.738281 1069.851562 2522.46875 1070.550781 2529.667969 C 1071.851562 2542.371094 1075 2553.570312 1080.5 2564.871094 C 1090.902344 2586.320312 1107.402344 2602.921875 1128.304688 2613.074219 C 1137.152344 2617.371094 1145.503906 2620.121094 1157.054688 2622.472656 C 1161.054688 2623.273438 1196.257812 2623.324219 1781.082031 2623.472656 C 2349.511719 2623.621094 2401.414062 2623.574219 2407.363281 2622.871094 C 2423.214844 2620.871094 2438.8125 2615.074219 2451.863281 2606.371094 C 2458.714844 2601.773438 2463.066406 2598.070312 2469.617188 2591.269531 C 2485.214844 2575.070312 2494.667969 2555.167969 2497.71875 2531.867188 C 2498.667969 2524.46875 2498.667969 1842.738281 2497.71875 1835.335938 C 2495.066406 1815.136719 2487.515625 1797.335938 2475.214844 1782.035156 C 2471.265625 1777.183594 2461.867188 1768.03125 2457.015625 1764.433594 C 2442.414062 1753.53125 2425.515625 1746.683594 2407.710938 1744.382812 C 2402.0625 1743.632812 2345.460938 1743.582031 1783.683594 1743.632812 C 1440.816406 1743.683594 1164.15625 1743.882812 1162.054688 1744.132812 Z M 2290.105469 2183.601562 L 2290.105469 2415.113281 L 1278.558594 2415.113281 L 1278.558594 1952.089844 L 2290.105469 1952.089844 Z M 2290.105469 2183.601562 "/>
<path style=" stroke:none;fill-rule:nonzero;fill:rgb(0%,0%,0%);fill-opacity:1;" d="M 3033.390625 1991.644531 C 2874.035156 1998.445312 2736.628906 2055.296875 2660.625 2145.851562 C 2624.824219 2188.503906 2604.421875 2236.503906 2600.121094 2288.058594 C 2599.472656 2296.109375 2599.472656 2318.609375 2600.121094 2326.660156 C 2602.121094 2350.710938 2607.523438 2373.460938 2616.671875 2396.613281 C 2620.421875 2406.113281 2630.222656 2425.414062 2635.972656 2434.765625 C 2648.824219 2455.464844 2660.324219 2469.816406 2679.125 2488.667969 C 2695.726562 2505.316406 2710.226562 2517.417969 2729.628906 2530.867188 C 2782.03125 2567.121094 2849.582031 2594.671875 2922.085938 2609.371094 C 2947.039062 2614.421875 2977.589844 2618.921875 2997.390625 2620.421875 C 2999.890625 2620.621094 3002.289062 2620.921875 3002.789062 2621.074219 C 3003.242188 2621.273438 2999.339844 2621.773438 2994.039062 2622.273438 C 2957.4375 2625.625 2915.6875 2633.222656 2880.636719 2642.925781 C 2774.179688 2672.425781 2689.675781 2727.429688 2642.175781 2797.980469 C 2629.125 2817.382812 2617.472656 2841.132812 2610.871094 2861.632812 C 2605.371094 2878.734375 2601.722656 2897.234375 2600.121094 2915.585938 C 2599.472656 2923.535156 2599.472656 2946.039062 2600.121094 2954.1875 C 2608.273438 3052.394531 2675.375 3137.597656 2787.878906 3192.449219 C 2858.882812 3227.101562 2941.738281 3246.652344 3034.59375 3250.703125 C 3051.941406 3251.453125 3097.84375 3251.003906 3113.144531 3249.953125 C 3167.546875 3246.152344 3212.351562 3238.550781 3257.851562 3225.402344 C 3402.460938 3183.699219 3502.914062 3094.796875 3526.867188 2987.339844 C 3531.117188 2968.339844 3532.367188 2956.238281 3532.367188 2934.886719 C 3532.367188 2912.285156 3530.714844 2898.386719 3525.664062 2877.886719 C 3511.765625 2821.53125 3477.011719 2770.03125 3424.410156 2727.878906 C 3364.65625 2680.027344 3284.152344 2645.875 3192.648438 2629.671875 C 3174.046875 2626.375 3146.398438 2622.722656 3132.945312 2621.824219 C 3127.246094 2621.421875 3127.796875 2620.921875 3134.398438 2620.421875 C 3147.199219 2619.523438 3169.699219 2616.574219 3188.5 2613.371094 C 3284.203125 2597.121094 3368.457031 2561.121094 3429.460938 2510.367188 C 3484.761719 2464.316406 3519.113281 2408.113281 3529.367188 2346.859375 C 3531.816406 2332.308594 3532.367188 2325.058594 3532.367188 2307.359375 C 3532.367188 2289.65625 3531.816406 2282.40625 3529.367188 2267.855469 C 3519.164062 2206.851562 3484.964844 2150.699219 3430.160156 2104.796875 C 3354.457031 2041.445312 3243.402344 2001.492188 3119.144531 1992.84375 C 3094.144531 1991.144531 3057.742188 1990.59375 3033.390625 1991.644531 Z M 3093.394531 2200.101562 C 3143.996094 2202.851562 3190.347656 2212.402344 3230.703125 2228.355469 C 3281.554688 2248.503906 3318.40625 2277.90625 3323.707031 2302.65625 C 3327.105469 2318.558594 3310.855469 2340.757812 3281.402344 2360.3125 C 3238.703125 2388.660156 3178.25 2407.511719 3111.144531 2413.363281 C 3082.945312 2415.8125 3048.84375 2415.8125 3020.640625 2413.363281 C 2958.589844 2407.960938 2901.484375 2391.113281 2859.335938 2365.8125 C 2829.933594 2348.160156 2810.832031 2327.660156 2808.132812 2310.859375 C 2805.582031 2295.058594 2821.683594 2273.757812 2850.882812 2254.253906 C 2884.886719 2231.503906 2932.539062 2214.304688 2984.890625 2205.851562 C 3004.691406 2202.652344 3015.890625 2201.503906 3042.394531 2199.953125 C 3049.09375 2199.554688 3085.042969 2199.652344 3093.394531 2200.101562 Z M 3091.144531 2827.632812 C 3166.847656 2831.484375 3234.351562 2850.785156 3281.152344 2881.886719 C 3295.355469 2891.335938 3307.105469 2901.785156 3314.304688 2911.386719 C 3318.15625 2916.488281 3322.304688 2924.4375 3323.40625 2928.886719 C 3326.355469 2940.636719 3320.605469 2953.1875 3305.15625 2968.640625 C 3271.003906 3002.839844 3205.449219 3029.292969 3131.148438 3038.84375 C 3083.644531 3044.941406 3030.691406 3044.09375 2984.140625 3036.390625 C 2944.289062 3029.792969 2909.1875 3018.992188 2878.636719 3003.839844 C 2866.035156 2997.640625 2860.632812 2994.539062 2850.632812 2987.890625 C 2825.78125 2971.339844 2810.480469 2953.4375 2808.082031 2938.136719 C 2807.332031 2933.1875 2808.429688 2927.9375 2811.632812 2921.335938 C 2815.03125 2914.335938 2819.082031 2909.035156 2827.332031 2900.886719 C 2860.433594 2868.035156 2922.535156 2842.332031 2993.539062 2832.132812 C 3009.542969 2829.832031 3025.390625 2828.382812 3044.394531 2827.484375 C 3052.292969 2827.082031 3082.496094 2827.183594 3091.144531 2827.632812 Z M 3091.144531 2827.632812 "/>
<path style=" stroke:none;fill-rule:nonzero;fill:rgb(0%,0%,0%);fill-opacity:1;" d="M 6108.035156 3856.730469 C 5832.875 3862.179688 5582.511719 3911.734375 5390.253906 3998.835938 C 5367.351562 4009.1875 5335.550781 4025.4375 5314.800781 4037.339844 C 5294.597656 4048.890625 5270.496094 4064.390625 5254.746094 4075.890625 C 5222.792969 4099.242188 5196.144531 4125.292969 5184.242188 4144.695312 C 5176.542969 4157.292969 5171.492188 4172.144531 5169.691406 4187.347656 C 5168.941406 4193.847656 5169.34375 4210.546875 5170.441406 4216.449219 C 5175.09375 4241.75 5185.292969 4259.5 5209.195312 4283.851562 C 5238.945312 4314.152344 5279.996094 4343.203125 5334 4372.105469 C 5343 4376.90625 5362.550781 4386.707031 5363.152344 4386.707031 C 5363.402344 4386.707031 5371 4371.554688 5380.050781 4353.003906 C 5389.101562 4334.453125 5396.554688 4319.300781 5396.601562 4319.402344 C 5396.652344 4319.453125 5389.953125 4334.554688 5381.703125 4352.953125 C 5373.453125 4371.40625 5366.601562 4386.90625 5366.453125 4387.457031 C 5366.152344 4388.65625 5365.402344 4388.253906 5384.503906 4397.054688 C 5452.105469 4428.257812 5531.160156 4455.707031 5617.0625 4477.910156 C 5737.46875 4509.0625 5873.125 4529.511719 6012.78125 4537.710938 C 6095.136719 4542.511719 6192.941406 4543.164062 6272.542969 4539.460938 C 6359.398438 4535.414062 6435.652344 4528.0625 6512.40625 4516.460938 C 6684.0625 4490.410156 6840.621094 4444.558594 6960.328125 4385.15625 C 6994.878906 4368.054688 7027.980469 4348.902344 7053.082031 4331.601562 C 7086.183594 4308.753906 7113.132812 4284.300781 7129.785156 4262.101562 C 7141.085938 4247 7147.683594 4230.546875 7150.136719 4211.597656 C 7151.136719 4203.695312 7150.886719 4189.796875 7149.585938 4182.195312 C 7146.386719 4163.144531 7138.433594 4146.144531 7125.332031 4130.445312 C 7085.53125 4082.640625 7008.179688 4032.390625 6907.773438 3989.1875 C 6796.320312 3941.132812 6662.761719 3904.632812 6516.554688 3882.230469 C 6388.898438 3862.632812 6249.09375 3853.929688 6108.035156 3856.730469 Z M 6232.542969 4065.640625 C 6275.84375 4067.191406 6305.34375 4068.789062 6340.046875 4071.492188 C 6519.457031 4085.441406 6682.511719 4121.191406 6812.871094 4175.246094 C 6833.46875 4183.796875 6865.320312 4198.347656 6865.320312 4199.195312 C 6865.320312 4199.695312 6837.421875 4212.597656 6823.121094 4218.699219 C 6788.816406 4233.347656 6748.316406 4247.800781 6705.5625 4260.699219 C 6686.011719 4266.601562 6615.710938 4284.75 6594.308594 4289.449219 C 6560.609375 4296.851562 6532.90625 4302 6492.152344 4308.453125 C 6431.75 4317.953125 6395.300781 4322.152344 6328.296875 4327.152344 C 6267.195312 4331.753906 6223.941406 4333.351562 6160.039062 4333.351562 C 6096.035156 4333.351562 6053.132812 4331.804688 5991.78125 4327.152344 C 5924.527344 4322.101562 5890.625 4318.253906 5829.273438 4308.652344 C 5788.972656 4302.351562 5753.21875 4295.703125 5722.21875 4288.75 C 5703.96875 4284.652344 5634.164062 4266.601562 5618.761719 4262.050781 C 5562.609375 4245.300781 5513.558594 4227.046875 5469.605469 4206.496094 C 5462.804688 4203.347656 5456.503906 4200.347656 5455.65625 4199.898438 L 5454.054688 4199.046875 L 5460.257812 4196.097656 C 5611.613281 4123.84375 5812.574219 4079.191406 6038.28125 4067.691406 C 6060.484375 4066.589844 6084.535156 4065.742188 6115.035156 4064.992188 C 6128.835938 4064.640625 6218.742188 4065.191406 6232.542969 4065.640625 Z M 6232.542969 4065.640625 "/>
</g>
</svg>
