<?xml version="1.0" encoding="UTF-8"?>
<svg xmlns="http://www.w3.org/2000/svg" xmlns:xlink="http://www.w3.org/1999/xlink" width="px" height="px" viewBox="0 0 8534 8534" version="1.1">
<g>
<path style=" stroke:none;fill-rule:nonzero;fill:rgb(0%,0%,0%);fill-opacity:1;" d="M 4374.703125 1111.851562 C 4372.355469 1111.953125 4363.605469 1112.253906 4355.203125 1112.550781 C 4280.152344 1115.203125 4203.546875 1123.003906 4127.445312 1135.804688 C 3928.683594 1169.203125 3738.523438 1235.757812 3562.316406 1333.613281 C 3466.863281 1386.613281 3376.507812 1448.46875 3292.15625 1518.570312 C 3285.703125 1523.972656 3259.851562 1545.972656 3234.800781 1567.472656 L 3189.148438 1606.574219 L 3178.300781 1607.074219 C 3072.394531 1612.027344 2972.289062 1633.777344 2875.636719 1672.828125 C 2725.476562 1733.480469 2593.523438 1833.386719 2493.71875 1961.992188 C 2385.5625 2101.347656 2320.058594 2268.40625 2304.90625 2443.613281 C 2303.707031 2457.464844 2303.207031 2465.066406 2302.007812 2485.867188 C 2301.558594 2493.21875 2301.40625 2650.972656 2301.257812 3078.246094 L 2301.109375 3660.671875 L 2299.957031 3660.921875 C 2299.359375 3661.023438 2293.808594 3662.171875 2287.605469 3663.371094 C 2239.804688 3672.972656 2193.203125 3693.023438 2152.601562 3721.625 C 2067.695312 3781.328125 2012.542969 3874.179688 2000.894531 3976.9375 C 1998.792969 3995.488281 1998.84375 3985.535156 1998.84375 4269.199219 C 1998.84375 4527.164062 1998.894531 4540.960938 1999.742188 4550.214844 C 2001.394531 4567.765625 2003.644531 4582.664062 2006.894531 4597.464844 C 2030.144531 4703.121094 2099.347656 4792.824219 2195.351562 4841.777344 C 2232.253906 4860.628906 2269.105469 4872.277344 2309.457031 4877.929688 C 2332.308594 4881.128906 2346.660156 4881.679688 2405.511719 4881.730469 L 2449.613281 4881.730469 L 2449.613281 4890.328125 C 2449.613281 4910.480469 2451.664062 4947.382812 2454.414062 4977.734375 C 2466.464844 5110.890625 2500.917969 5242.746094 2555.519531 5365 C 2571.121094 5400.003906 2590.371094 5438.054688 2609.023438 5470.757812 C 2656.023438 5553.410156 2709.378906 5626.363281 2774.578125 5697.265625 C 2786.582031 5710.316406 2823.382812 5747.417969 2836.132812 5759.320312 C 2870.085938 5790.972656 2902.6875 5818.273438 2939.386719 5845.773438 C 2970.4375 5869.023438 2976.441406 5873.125 3066.644531 5932.128906 C 3105.296875 5957.378906 3137.496094 5978.480469 3138.195312 5978.929688 L 3139.496094 5979.832031 L 3197.601562 5890.976562 C 3229.601562 5842.125 3255.851562 5801.871094 3255.953125 5801.523438 C 3256.101562 5801.171875 3231.203125 5784.570312 3189.800781 5757.519531 C 3116.246094 5709.417969 3101.394531 5699.566406 3085.644531 5688.265625 C 3032.890625 5650.566406 2982.039062 5606.164062 2938.136719 5559.511719 C 2869.734375 5486.757812 2813.980469 5407.003906 2769.480469 5318 C 2707.925781 5194.894531 2672.726562 5063.238281 2664.375 4924.980469 C 2662.523438 4894.078125 2662.425781 4876.929688 2663.523438 4783.472656 C 2664.125 4734.773438 2664.726562 4688.96875 2664.925781 4681.621094 L 2665.226562 4668.21875 L 2506.265625 4668.070312 C 2331.257812 4667.917969 2345.308594 4668.167969 2329.660156 4664.917969 C 2299.65625 4658.769531 2270.105469 4641.667969 2250.054688 4618.964844 C 2228.304688 4594.316406 2215.402344 4565.015625 2212.605469 4533.710938 C 2212.203125 4529.164062 2212.105469 4456.007812 2212.203125 4265.199219 L 2212.355469 4002.9375 L 2213.503906 3995.988281 C 2217.203125 3973.636719 2224.804688 3954.085938 2236.953125 3935.734375 C 2258.457031 3903.382812 2292.609375 3880.183594 2330.109375 3872.480469 C 2345.359375 3869.382812 2340.507812 3869.53125 2431.515625 3869.332031 L 2514.617188 3869.132812 L 2514.617188 3192 C 2514.617188 2758.878906 2514.816406 2510.019531 2515.117188 2501.367188 C 2517.21875 2443.363281 2525.269531 2390.261719 2540.117188 2336.359375 C 2557.71875 2272.457031 2585.621094 2208.953125 2621.273438 2151.851562 C 2643.675781 2115.949219 2669.425781 2081.996094 2698.828125 2049.597656 C 2708.726562 2038.695312 2734.179688 2013.246094 2744.980469 2003.445312 C 2806.679688 1947.589844 2874.433594 1904.488281 2949.886719 1873.085938 C 3010.140625 1847.988281 3075.746094 1831.136719 3141.148438 1823.886719 C 3172 1820.433594 3184 1819.886719 3228.703125 1819.835938 L 3268.453125 1819.785156 L 3343.207031 1755.78125 C 3426.460938 1684.480469 3430.8125 1680.777344 3451.660156 1664.128906 C 3526.914062 1603.925781 3607.320312 1551.074219 3692.921875 1505.570312 C 3706.421875 1498.421875 3745.875 1478.71875 3759.425781 1472.367188 C 3942.933594 1386.414062 4138.59375 1337.3125 4339.203125 1326.8125 C 4391.503906 1324.113281 4447.558594 1324.113281 4500.210938 1326.8125 C 4671.117188 1335.710938 4837.175781 1372.0625 4994.984375 1435.21875 C 5311.097656 1561.625 5578.363281 1790.035156 5753.371094 2083.347656 C 5882.027344 2298.957031 5955.980469 2542.371094 5969.28125 2793.882812 C 5969.578125 2799.382812 5970.078125 2808.730469 5970.378906 2814.632812 C 5970.828125 2822.632812 5970.980469 2959.839844 5971.128906 3347.257812 L 5971.28125 3869.179688 L 6045.683594 3869.179688 C 6088.835938 3869.179688 6123.035156 3869.382812 6127.1875 3869.679688 C 6141.085938 3870.632812 6151.9375 3872.730469 6164.539062 3876.933594 C 6187.191406 3884.480469 6205.789062 3896.03125 6222.792969 3913.132812 C 6231.292969 3921.632812 6235.09375 3926.285156 6241.542969 3935.933594 C 6253.992188 3954.585938 6261.394531 3974.136719 6265.144531 3998.488281 C 6265.945312 4003.539062 6266.042969 4022.488281 6266.195312 4263.949219 C 6266.292969 4452.957031 6266.195312 4525.960938 6265.792969 4531.210938 C 6262.992188 4567.515625 6247.542969 4600.367188 6221.242188 4626.015625 C 6197.839844 4648.769531 6170.988281 4661.867188 6136.789062 4667.070312 C 6131.4375 4667.867188 6120.585938 4667.917969 5972.980469 4668.070312 L 5814.921875 4668.21875 L 5814.621094 4742.871094 C 5814.421875 4783.875 5814.273438 4836.277344 5814.273438 4859.226562 C 5814.273438 4911.480469 5813.671875 4934.28125 5811.472656 4964.234375 C 5800.621094 5114.640625 5756.320312 5260.398438 5681.367188 5392.003906 C 5621.914062 5496.457031 5543.308594 5590.363281 5451.003906 5667.265625 C 5412.804688 5699.117188 5378.300781 5723.917969 5333.5 5751.871094 C 5323.898438 5757.871094 5315.800781 5763.070312 5315.550781 5763.421875 C 5315.300781 5763.871094 5333.449219 5793.523438 5371.25 5854.273438 C 5402.152344 5903.925781 5427.453125 5944.578125 5427.554688 5944.679688 C 5427.804688 5945.078125 5466.257812 5920.726562 5482.757812 5909.726562 C 5580.0625 5844.925781 5667.367188 5766.621094 5742.167969 5677.117188 C 5900.476562 5487.808594 5997.832031 5255.597656 6021.730469 5010.234375 C 6025.382812 4973.082031 6027.28125 4935.480469 6027.28125 4901.078125 L 6027.28125 4881.730469 L 6072.183594 4881.730469 C 6131.6875 4881.679688 6146.289062 4881.128906 6168.789062 4877.929688 C 6238.390625 4868.128906 6302.644531 4838.726562 6356.046875 4792.273438 C 6364.199219 4785.175781 6379.550781 4769.972656 6387.199219 4761.472656 C 6437.351562 4705.46875 6469.003906 4635.21875 6477.253906 4561.464844 C 6479.652344 4540.164062 6479.554688 4551.363281 6479.554688 4268.699219 C 6479.554688 3986.035156 6479.652344 3997.238281 6477.253906 3975.9375 C 6468.453125 3896.984375 6432.703125 3822.027344 6376.550781 3764.726562 C 6324.894531 3712.023438 6260.34375 3677.121094 6187.691406 3662.671875 L 6184.789062 3662.121094 L 6184.640625 3244.253906 C 6184.488281 2934.289062 6184.339844 2823.230469 6183.890625 2814.132812 C 6182.441406 2783.878906 6181.691406 2769.878906 6180.789062 2756.378906 C 6155.1875 2376.5625 6007.980469 2017.09375 5759.320312 1727.332031 C 5588.660156 1528.523438 5375.851562 1369.914062 5136.492188 1263.210938 C 4972.433594 1190.054688 4796.023438 1142.253906 4616.714844 1122.351562 C 4572.5625 1117.453125 4537.414062 1114.800781 4485.960938 1112.503906 C 4474.960938 1112.003906 4384.554688 1111.503906 4374.703125 1111.851562 Z M 4374.703125 1111.851562 "/>
<path style=" stroke:none;fill-rule:nonzero;fill:rgb(0%,0%,0%);fill-opacity:1;" d="M 3517.414062 2597.972656 C 3501.214844 2646.824219 3486.414062 2690.726562 3484.613281 2695.578125 C 3469.511719 2735.777344 3443.363281 2789.230469 3416.308594 2835.28125 C 3364.507812 2923.488281 3300.855469 3002.890625 3231.152344 3066.394531 C 3095.195312 3190.25 2934.539062 3258.753906 2751.878906 3270.902344 C 2735.578125 3271.953125 2719.277344 3272.652344 2709.277344 3272.652344 L 2700.625 3272.652344 L 2700.625 3283.503906 C 2700.675781 3292.203125 2702.527344 3485.5625 2702.625 3486.011719 C 2702.675781 3486.5625 2733.828125 3485.664062 2752.378906 3484.664062 C 2913.738281 3475.761719 3060.542969 3433.0625 3195.351562 3355.808594 C 3307.355469 3291.605469 3409.710938 3202.699219 3496.964844 3093.894531 C 3539.617188 3040.691406 3581.066406 2978.988281 3613.917969 2919.886719 C 3616.070312 2916.035156 3618.121094 2912.386719 3618.46875 2911.785156 C 3619.167969 2910.6875 3619.820312 2911.285156 3640.070312 2931.539062 C 3806.878906 3098.445312 3970.6875 3214.902344 4134.945312 3283.402344 C 4298.652344 3351.65625 4459.507812 3371.308594 4622.367188 3342.90625 C 4701.46875 3329.105469 4780.625 3304.554688 4877.277344 3263.902344 C 4904.03125 3252.601562 4926.03125 3242.902344 4975.234375 3220.652344 C 4989.933594 3214 5010.085938 3204.949219 5019.984375 3200.550781 C 5128.789062 3152.097656 5187.691406 3133.648438 5250.996094 3128.097656 C 5261.148438 3127.195312 5287.546875 3127.347656 5298.148438 3128.347656 C 5320.75 3130.445312 5340.601562 3134.546875 5362 3141.496094 C 5423.855469 3161.648438 5480.257812 3200.601562 5533.007812 3259.703125 C 5583.3125 3315.957031 5630.265625 3392.257812 5670.265625 3482.664062 C 5673.367188 3489.664062 5675.964844 3495.464844 5676.015625 3495.5625 C 5676.214844 3495.8125 5870.925781 3411.660156 5871.476562 3411.109375 C 5872.375 3410.261719 5854.125 3370.257812 5838.773438 3339.40625 C 5767.171875 3195.5 5680.066406 3086.746094 5578.761719 3014.839844 C 5525.910156 2977.289062 5468.40625 2949.4375 5409.105469 2932.6875 C 5377.902344 2923.835938 5346.851562 2918.285156 5311.75 2915.285156 C 5298.699219 2914.1875 5251.296875 2913.988281 5238.246094 2915.035156 C 5181.09375 2919.535156 5129.789062 2930.4375 5068.738281 2951.089844 C 5021.636719 2966.988281 4979.785156 2984.238281 4892.730469 3023.640625 C 4809.226562 3061.445312 4770.222656 3077.945312 4727.371094 3093.59375 C 4617.617188 3133.597656 4523.761719 3148.097656 4427.207031 3139.898438 C 4355.152344 3133.746094 4280.101562 3113.945312 4205.195312 3081.292969 C 4046.039062 3011.890625 3881.582031 2883.933594 3712.375 2697.875 C 3694.171875 2677.824219 3680.921875 2662.726562 3613.667969 2585.121094 C 3577.566406 2543.46875 3547.765625 2509.316406 3547.464844 2509.269531 C 3547.167969 2509.167969 3534.566406 2546.371094 3517.414062 2597.972656 Z M 3517.414062 2597.972656 "/>
<path style=" stroke:none;fill-rule:nonzero;fill:rgb(0%,0%,0%);fill-opacity:1;" d="M 3031.140625 4022.488281 C 3031.140625 4030.238281 3031.890625 4040.9375 3033.140625 4051.441406 C 3041.742188 4122.59375 3076.042969 4188.945312 3132.496094 4243.75 C 3205.898438 4314.953125 3312.707031 4361.105469 3429.160156 4371.90625 C 3460.914062 4374.90625 3495.914062 4375.253906 3527.164062 4372.953125 C 3637.570312 4364.804688 3739.125 4325.902344 3814.429688 4263 C 3890.582031 4199.347656 3934.285156 4114.941406 3937.035156 4026.289062 L 3937.335938 4016.1875 L 3830.628906 4016.289062 L 3723.925781 4016.4375 L 3723.574219 4021.9375 C 3721.824219 4051.039062 3701.875 4081.390625 3667.972656 4106.542969 C 3591.46875 4163.34375 3466.210938 4177.546875 3365.457031 4140.894531 C 3305.105469 4118.941406 3260.253906 4080.292969 3247.953125 4039.539062 C 3246.152344 4033.640625 3244.652344 4025.390625 3244.652344 4021.589844 C 3244.652344 4020.339844 3244.503906 4018.589844 3244.351562 4017.738281 L 3244.050781 4016.1875 L 3031.140625 4016.1875 Z M 3031.140625 4022.488281 "/>
<path style=" stroke:none;fill-rule:nonzero;fill:rgb(0%,0%,0%);fill-opacity:1;" d="M 4655.917969 4025.9375 C 4658.066406 4088.941406 4679.820312 4148.59375 4719.871094 4201.648438 C 4745.023438 4235 4776.824219 4264.601562 4814.527344 4289.800781 C 4832.175781 4301.652344 4846.675781 4310.003906 4867.226562 4320.152344 C 4954.632812 4363.40625 5059.039062 4381.65625 5163.742188 4371.953125 C 5275.097656 4361.605469 5377.703125 4319.003906 5450.804688 4252.800781 C 5464.605469 4240.296875 5480.257812 4223.847656 5491.058594 4210.449219 C 5534.910156 4156.09375 5559.910156 4091.292969 5561.609375 4027.539062 L 5561.910156 4016.1875 L 5348.902344 4016.1875 L 5348.300781 4022.539062 C 5347.25 4034.039062 5344.851562 4042.390625 5339.5 4053.441406 C 5328.949219 4075.289062 5309 4096.292969 5282.148438 4113.894531 C 5221.894531 4153.34375 5135.742188 4169.546875 5053.238281 4156.894531 C 4996.335938 4148.144531 4946.433594 4126.492188 4910.832031 4095.042969 C 4885.878906 4072.992188 4870.679688 4046.039062 4869.378906 4021.539062 L 4869.078125 4016.1875 L 4655.566406 4016.1875 Z M 4655.917969 4025.9375 "/>
<path style=" stroke:none;fill-rule:nonzero;fill:rgb(0%,0%,0%);fill-opacity:1;" d="M 4294.453125 4455.207031 C 4259.601562 4458.007812 4227.949219 4466.007812 4197.195312 4479.960938 C 4144.84375 4503.609375 4100.140625 4544.464844 4070.941406 4595.214844 C 4068.789062 4598.914062 3920.132812 4891.429688 3740.523438 5245.246094 C 3560.96875 5599.0625 3329.257812 6055.484375 3225.652344 6259.542969 C 3122.046875 6463.601562 3036.042969 6633.460938 3034.542969 6637.0625 C 3028.140625 6652.011719 3023.691406 6669.0625 3021.542969 6686.5625 C 3020.542969 6694.714844 3020.691406 6718.265625 3021.792969 6726.566406 C 3027.191406 6767.015625 3044.292969 6801.96875 3072.644531 6830.371094 C 3086.644531 6844.421875 3100.84375 6854.671875 3118.644531 6863.570312 C 3136.597656 6872.570312 3154.246094 6877.871094 3176.648438 6880.921875 C 3183.050781 6881.773438 3209.601562 6881.773438 3216.652344 6880.921875 C 3219.550781 6880.574219 3228.300781 6879.171875 3236.152344 6877.824219 C 3297.503906 6867.171875 3349.707031 6861.523438 3416.410156 6858.269531 C 3445.363281 6856.921875 3507.613281 6857.171875 3540.664062 6858.820312 C 3712.175781 6867.472656 3877.730469 6907.023438 4033.589844 6976.527344 C 4070.890625 6993.179688 4097.140625 7006.429688 4170.394531 7045.78125 C 4202.246094 7062.882812 4228.546875 7076.78125 4228.847656 7076.683594 C 4229.296875 7076.53125 4329.652344 6890.023438 4329.703125 6889.273438 C 4329.703125 6888.921875 4224.996094 6832.671875 4203.695312 6821.519531 C 4173.394531 6805.71875 4134.84375 6787.46875 4100.691406 6772.816406 C 3867.53125 6672.664062 3614.121094 6629.859375 3360.15625 6647.8125 C 3333.15625 6649.761719 3291.953125 6653.8125 3270.402344 6656.761719 C 3266.554688 6657.261719 3263.351562 6657.613281 3263.253906 6657.5625 C 3263.152344 6657.511719 3340.757812 6504.453125 3435.710938 6317.496094 C 3530.664062 6130.488281 3753.976562 5690.566406 3931.984375 5339.851562 C 4158.894531 4892.828125 4256.648438 4700.621094 4259.050781 4697.070312 C 4264.851562 4688.320312 4274.300781 4679.917969 4283.699219 4675.21875 C 4294.703125 4669.667969 4308.5 4667.117188 4320.851562 4668.21875 C 4346.105469 4670.570312 4365.90625 4684.417969 4376.707031 4707.371094 C 4378.003906 4710.171875 4504.210938 4989.882812 4657.117188 5329 C 4810.074219 5668.066406 5040.136719 6178.089844 5168.390625 6462.304688 C 5296.648438 6746.515625 5401.402344 6979.128906 5401.203125 6979.226562 C 5400.953125 6979.328125 5396.101562 6979.027344 5390.402344 6978.628906 C 5356.199219 6976.027344 5327.148438 6975.125 5289.246094 6975.476562 C 5253.796875 6975.828125 5232.945312 6976.726562 5201.992188 6979.378906 C 5008.335938 6995.628906 4823.875 7058.582031 4660.320312 7164.234375 C 4655.019531 7167.636719 4650.617188 7170.386719 4650.519531 7170.285156 C 4650.367188 7170.035156 4568.363281 6108.035156 4552.414062 5899.277344 C 4545.964844 5814.722656 4540.5625 5745.46875 4540.414062 5745.320312 C 4540.210938 5745.121094 4328.101562 5761.171875 4327.902344 5761.421875 C 4327.652344 5761.769531 4442.308594 7248.390625 4443.257812 7256.839844 C 4450.359375 7321.191406 4491.160156 7375.695312 4551.011719 7400.796875 C 4565.515625 7406.847656 4580.664062 7410.847656 4597.964844 7413.148438 C 4605.867188 7414.199219 4625.015625 7414.597656 4633.21875 7413.898438 C 4666.320312 7410.996094 4696.96875 7399.648438 4722.871094 7380.644531 C 4754.222656 7357.644531 4782.425781 7338.894531 4810.777344 7322.242188 C 4929.53125 7252.289062 5061.488281 7208.636719 5197.992188 7194.085938 C 5234.144531 7190.238281 5262.945312 7188.785156 5301.25 7188.785156 C 5346.699219 7188.785156 5383.152344 7191.136719 5429.503906 7197.085938 C 5436.953125 7198.039062 5446.40625 7199.085938 5450.503906 7199.386719 C 5458.503906 7199.988281 5472.15625 7199.738281 5480.507812 7198.835938 C 5549.210938 7191.335938 5606.511719 7145.433594 5629.015625 7079.832031 C 5635.363281 7061.332031 5638.265625 7043.582031 5638.265625 7023.179688 C 5638.265625 6996.929688 5633.414062 6974.078125 5622.613281 6949.777344 C 5620.8125 6945.824219 5502.15625 6682.8125 5358.851562 6365.296875 C 5215.59375 6047.785156 4979.285156 5523.957031 4833.726562 5201.242188 C 4688.21875 4878.527344 4567.214844 4610.816406 4564.914062 4606.316406 C 4525.210938 4529.511719 4453.910156 4476.109375 4369.203125 4459.757812 C 4360.105469 4458.007812 4353.203125 4457.007812 4343.203125 4455.910156 C 4334.703125 4455.007812 4303 4454.558594 4294.453125 4455.207031 Z M 4294.453125 4455.207031 "/>
<path style=" stroke:none;fill-rule:nonzero;fill:rgb(0%,0%,0%);fill-opacity:1;" d="M 2497.367188 5845.625 C 2469.515625 5848.925781 2448.316406 5857.523438 2428.265625 5873.726562 C 2422.363281 5878.476562 2412.511719 5888.476562 2408.011719 5894.277344 C 2393.460938 5913.128906 2384.160156 5935.976562 2381.660156 5959.378906 C 2380.960938 5965.628906 2380.960938 5980.429688 2381.660156 5986.679688 C 2387.363281 6038.53125 2423.261719 6081.433594 2473.214844 6096.035156 C 2485.265625 6099.535156 2495.566406 6100.984375 2509.117188 6100.9375 C 2519.769531 6100.9375 2527.46875 6100.136719 2537.117188 6097.984375 C 2574.019531 6089.785156 2606.121094 6064.734375 2623.171875 6030.78125 C 2644.875 5987.628906 2640.523438 5935.828125 2611.972656 5897.125 C 2590.972656 5868.625 2559.070312 5850.175781 2523.667969 5846.023438 C 2518.019531 5845.375 2501.617188 5845.074219 2497.367188 5845.625 Z M 2497.367188 5845.625 "/>
<path style=" stroke:none;fill-rule:nonzero;fill:rgb(0%,0%,0%);fill-opacity:1;" d="M 6029.53125 5845.574219 C 6028.734375 5845.675781 6026.234375 5846.023438 6024.03125 5846.324219 C 5975.929688 5852.675781 5935.078125 5886.625 5919.878906 5932.777344 C 5915.328125 5946.628906 5913.628906 5957.378906 5913.578125 5972.78125 C 5913.527344 5984.230469 5913.925781 5988.628906 5915.828125 5998.28125 C 5922.476562 6031.78125 5942.527344 6061.382812 5971.53125 6080.386719 C 6003.78125 6101.585938 6044.734375 6106.785156 6081.785156 6094.484375 C 6120.488281 6081.585938 6150.039062 6051.984375 6162.789062 6013.28125 C 6167.488281 5999.132812 6169.039062 5988.980469 6169.039062 5972.78125 C 6168.988281 5959.28125 6168.339844 5953.480469 6165.289062 5941.476562 C 6162.839844 5931.929688 6160.640625 5925.929688 6156.039062 5916.527344 C 6143.738281 5891.324219 6123.785156 5871.226562 6098.734375 5858.773438 C 6086.636719 5852.824219 6075.886719 5849.222656 6062.785156 5846.925781 C 6056.582031 5845.824219 6053.785156 5845.625 6043.285156 5845.523438 C 6036.53125 5845.425781 6030.382812 5845.472656 6029.53125 5845.574219 Z M 6029.53125 5845.574219 "/>
<path style=" stroke:none;fill-rule:nonzero;fill:rgb(0%,0%,0%);fill-opacity:1;" d="M 2858.382812 6080.085938 C 2842.683594 6081.683594 2830.03125 6084.835938 2817.132812 6090.386719 C 2782.679688 6105.136719 2755.777344 6135.738281 2745.328125 6171.988281 C 2733.679688 6212.390625 2742.527344 6256.09375 2768.878906 6288.542969 C 2773.78125 6294.59375 2784.78125 6305.246094 2790.730469 6309.695312 C 2800.632812 6317.144531 2812.980469 6323.894531 2824.332031 6328.046875 C 2851.382812 6337.996094 2882.835938 6338.195312 2910.6875 6328.496094 C 2949.089844 6315.144531 2979.390625 6283.394531 2990.839844 6244.542969 C 2994.691406 6231.390625 2995.890625 6222.742188 2995.890625 6207.789062 C 2995.890625 6192.890625 2994.691406 6184.191406 2990.839844 6171.1875 C 2982.140625 6141.539062 2962.539062 6115.785156 2935.886719 6099.035156 C 2930.289062 6095.484375 2918.988281 6089.933594 2912.4375 6087.535156 C 2905.984375 6085.136719 2893.886719 6082.136719 2886.636719 6081.035156 C 2881.136719 6080.234375 2862.984375 6079.636719 2858.382812 6080.085938 Z M 2858.382812 6080.085938 "/>
<path style=" stroke:none;fill-rule:nonzero;fill:rgb(0%,0%,0%);fill-opacity:1;" d="M 5669.515625 6080.335938 C 5631.714844 6083.933594 5596.761719 6104.886719 5575.511719 6136.789062 C 5564.410156 6153.386719 5557.558594 6172.039062 5555.011719 6192.289062 C 5554.160156 6199.390625 5554.011719 6214.742188 5554.761719 6221.542969 C 5563.011719 6295.746094 5632.0625 6347.046875 5705.566406 6333.546875 C 5752.621094 6324.894531 5791.121094 6290.195312 5804.722656 6244.292969 C 5808.273438 6232.191406 5809.773438 6221.542969 5809.773438 6207.890625 C 5809.773438 6189.738281 5806.972656 6174.988281 5800.472656 6159.039062 C 5790.570312 6134.835938 5771.921875 6112.785156 5749.769531 6099.035156 C 5726.070312 6084.386719 5697.367188 6077.683594 5669.515625 6080.335938 Z M 5669.515625 6080.335938 "/>
<path style=" stroke:none;fill-rule:nonzero;fill:rgb(0%,0%,0%);fill-opacity:1;" d="M 2598.472656 6415.851562 C 2567.519531 6417.699219 2538.070312 6430.953125 2516.117188 6452.902344 C 2496.46875 6472.554688 2484.066406 6497.203125 2479.816406 6525.054688 C 2478.667969 6532.605469 2478.515625 6553.105469 2479.515625 6560.058594 C 2484.066406 6590.308594 2496.417969 6614.910156 2517.167969 6635.0625 C 2533.019531 6650.410156 2550.667969 6660.710938 2571.269531 6666.5625 C 2584.621094 6670.3125 2595.070312 6671.5625 2610.324219 6671.164062 C 2629.875 6670.664062 2645.375 6666.914062 2662.875 6658.363281 C 2676.074219 6651.910156 2686.625 6644.363281 2696.925781 6634.109375 C 2717.027344 6614.011719 2729.429688 6588.957031 2733.476562 6560.058594 C 2734.429688 6553.257812 2734.578125 6535.507812 2733.679688 6528.804688 C 2731.027344 6508.054688 2724.128906 6489.203125 2713.175781 6472.753906 C 2693.527344 6443.203125 2662.875 6423.25 2628.023438 6417.300781 C 2623.371094 6416.550781 2606.222656 6415.101562 2605.121094 6415.402344 C 2604.972656 6415.402344 2602.023438 6415.601562 2598.472656 6415.851562 Z M 2598.472656 6415.851562 "/>
<path style=" stroke:none;fill-rule:nonzero;fill:rgb(0%,0%,0%);fill-opacity:1;" d="M 5935.777344 6415.800781 C 5903.875 6417.652344 5874.476562 6431.25 5851.773438 6454.601562 C 5827.472656 6479.605469 5814.722656 6512.753906 5815.921875 6547.808594 C 5816.773438 6571.957031 5823.621094 6593.660156 5836.671875 6613.558594 C 5856.773438 6644.261719 5887.875 6664.261719 5924.527344 6670.113281 C 5931.378906 6671.164062 5949.078125 6671.613281 5956.578125 6670.863281 C 6014.832031 6665.011719 6061.835938 6620.160156 6070.285156 6562.359375 C 6072.835938 6544.855469 6071.933594 6528.40625 6067.535156 6511.003906 C 6064.183594 6498.003906 6058.082031 6484.304688 6050.382812 6472.804688 C 6024.78125 6434.402344 5981.980469 6413.101562 5935.777344 6415.800781 Z M 5935.777344 6415.800781 "/>
</g>
</svg>
