<?xml version="1.0" encoding="UTF-8"?>
<svg xmlns="http://www.w3.org/2000/svg" xmlns:xlink="http://www.w3.org/1999/xlink" width="px" height="px" viewBox="0 0 8534 8534" version="1.1">
<g>
<path style=" stroke:none;fill-rule:nonzero;fill:rgb(0%,0%,0%);fill-opacity:1;" d="M 4388.707031 893.59375 C 4289.449219 896.140625 4192.746094 919.242188 4101.441406 962.144531 C 4033.640625 994.046875 3967.285156 1039.796875 3912.683594 1092.453125 C 3872.332031 1131.351562 3841.179688 1168.605469 3810.929688 1214.058594 C 3756.125 1296.460938 3719.425781 1388.015625 3702.222656 1485.070312 C 3693.875 1532.371094 3689.972656 1585.722656 3691.621094 1631.078125 C 3691.921875 1639.476562 3693.722656 1673.679688 3695.671875 1707.078125 C 3701.671875 1811.886719 3701.921875 1819.136719 3701.921875 1889.839844 C 3701.921875 1945.742188 3701.722656 1956.441406 3699.921875 1995.34375 C 3691.121094 2183.203125 3659.421875 2368.910156 3605.617188 2547.871094 C 3572.066406 2659.425781 3559.21875 2700.976562 3548.214844 2733.628906 C 3448.160156 3031.390625 3288.503906 3304.453125 3078.09375 3537.664062 C 3049.84375 3568.96875 3029.59375 3590.269531 2996.941406 3622.917969 C 2957.988281 3661.820312 2928.238281 3689.773438 2889.386719 3723.972656 C 2837.234375 3769.777344 2788.980469 3808.378906 2724.878906 3855.679688 C 2685.277344 3884.882812 2648.675781 3918.882812 2616.324219 3956.433594 C 2529.070312 4057.789062 2474.015625 4185.296875 2460.117188 4318.203125 C 2457.214844 4346.152344 2456.414062 4365.105469 2456.765625 4396.957031 C 2457.066406 4421.457031 2457.316406 4428.359375 2458.867188 4447.457031 C 2470.714844 4593.164062 2527.117188 4732.773438 2619.824219 4845.976562 C 2646.523438 4878.578125 2676.824219 4909.628906 2708.375 4936.78125 C 2803.78125 5018.785156 2918.585938 5074.238281 3042.394531 5098.1875 C 3053.492188 5100.339844 3269.753906 5137.789062 3269.953125 5137.589844 C 3270.203125 5137.339844 3306.253906 4927.679688 3306.105469 4927.53125 C 3306.003906 4927.429688 3256.851562 4918.878906 3196.898438 4908.53125 C 3081.394531 4888.578125 3074.695312 4887.328125 3055.992188 4882.679688 C 2937.988281 4853.128906 2834.882812 4782.722656 2764.128906 4683.21875 C 2714.628906 4613.617188 2683.425781 4532.710938 2673.375 4447.957031 C 2664.023438 4368.554688 2673.324219 4293.800781 2701.375 4222.949219 C 2727.976562 4155.84375 2771.128906 4095.09375 2825.132812 4048.738281 C 2836.332031 4039.140625 2843.535156 4033.488281 2862.882812 4019.1875 C 2993.992188 3922.433594 3113.347656 3815.277344 3222.351562 3696.472656 C 3469.113281 3427.5625 3654.320312 3107.496094 3764.175781 2760.128906 C 3772.675781 2733.277344 3812.527344 2601.320312 3819.128906 2578.171875 C 3874.082031 2385.863281 3905.582031 2190.003906 3913.683594 1990.84375 C 3916.082031 1931.390625 3916.285156 1858.539062 3914.183594 1800.835938 C 3913.285156 1777.035156 3912.234375 1757.132812 3908.582031 1694.578125 C 3905.03125 1634.328125 3904.984375 1632.925781 3904.984375 1609.824219 C 3904.984375 1586.074219 3905.484375 1575.625 3907.484375 1556.824219 C 3917.785156 1460.570312 3955.585938 1369.714844 4016.839844 1293.910156 C 4036.289062 1269.859375 4062.539062 1243.207031 4086.390625 1223.308594 C 4164.996094 1157.902344 4261.199219 1117.902344 4361.953125 1108.800781 C 4392.707031 1106.050781 4431.058594 1105.851562 4460.960938 1108.351562 C 4527.613281 1113.851562 4591.414062 1132.054688 4649.96875 1162.253906 C 4757.773438 1217.90625 4842.078125 1310.363281 4887.480469 1422.816406 C 4912.378906 1484.371094 4924.730469 1550.972656 4923.582031 1617.574219 C 4923.378906 1629.476562 4922.332031 1649.828125 4920.03125 1687.828125 C 4914.878906 1771.78125 4914.082031 1790.535156 4913.230469 1846.6875 C 4912.480469 1892.890625 4913.28125 1943.390625 4915.480469 1993.09375 C 4924.332031 2191.101562 4957.382812 2390.363281 5012.984375 2580.621094 C 5017.785156 2597.070312 5056.035156 2724.078125 5062.289062 2744.378906 C 5120.941406 2934.488281 5203.445312 3119.496094 5306.25 3291.152344 C 5473.105469 3569.867188 5694.066406 3814.777344 5953.277344 4008.335938 C 5964.679688 4016.886719 5977.878906 4026.738281 5982.53125 4030.238281 C 6013.082031 4053.089844 6042.683594 4082.339844 6066.835938 4113.441406 C 6118.035156 4179.394531 6150.4375 4260.699219 6158.539062 4343.453125 C 6160.140625 4359.953125 6160.390625 4365.054688 6160.640625 4389.457031 C 6160.9375 4414.957031 6160.488281 4430.558594 6158.988281 4448.457031 C 6148.089844 4580.515625 6086.183594 4702.820312 5985.980469 4790.574219 C 5925.128906 4843.828125 5851.523438 4882.128906 5772.519531 4901.53125 C 5766.46875 4902.980469 5724.417969 4911.980469 5679.066406 4921.480469 C 5633.714844 4930.980469 5596.460938 4938.882812 5596.3125 4938.980469 C 5596.113281 4939.230469 5639.515625 5147.140625 5639.863281 5147.492188 C 5640.0625 5147.691406 5789.871094 5116.488281 5808.023438 5112.441406 C 5904.875 5091.089844 5997.882812 5048.886719 6078.535156 4989.832031 C 6122.335938 4957.730469 6163.6875 4919.429688 6199.339844 4877.980469 C 6294.894531 4766.824219 6354.648438 4628.816406 6370 4483.710938 C 6373.148438 4454.058594 6374 4436.359375 6374 4398.207031 C 6374.046875 4365.15625 6373.699219 4355.054688 6371.75 4332.203125 C 6363 4227.75 6329.746094 4127.492188 6274.144531 4037.9375 C 6230.742188 3968.035156 6171.988281 3904.433594 6105.886719 3855.730469 C 6056.183594 3819.179688 6015.582031 3787.277344 5975.179688 3753.074219 C 5759.519531 3570.617188 5580.160156 3350.90625 5444.65625 3103.144531 C 5421.054688 3060.042969 5394.304688 3006.839844 5373.652344 2961.890625 C 5334.199219 2876.183594 5299.398438 2786.179688 5270.746094 2695.625 C 5265.148438 2677.976562 5225.546875 2546.917969 5217.996094 2521.019531 C 5145.941406 2274.804688 5115.839844 2015.445312 5129.539062 1759.332031 C 5129.941406 1751.632812 5131.640625 1723.179688 5133.242188 1696.078125 C 5134.890625 1668.976562 5136.492188 1639.625 5136.789062 1630.828125 C 5137.589844 1607.875 5136.941406 1580.023438 5134.992188 1554.574219 C 5123.339844 1402.914062 5063.335938 1258.609375 4963.632812 1142.804688 C 4845.328125 1005.347656 4679.667969 917.691406 4500.710938 897.792969 C 4477.710938 895.242188 4461.960938 894.191406 4437.058594 893.542969 C 4417.257812 892.992188 4410.105469 893.042969 4388.707031 893.59375 Z M 4388.707031 893.59375 "/>
<path style=" stroke:none;fill-rule:nonzero;fill:rgb(0%,0%,0%);fill-opacity:1;" d="M 3284.902344 4479.808594 C 3283.855469 4483.960938 3241.703125 4687.46875 3241.851562 4687.570312 C 3241.953125 4687.667969 3286.902344 4697.070312 3341.707031 4708.46875 C 3396.558594 4719.871094 3446.460938 4730.472656 3452.660156 4732.023438 C 3465.113281 4735.121094 3484.863281 4741.472656 3496.414062 4746.074219 C 3554.265625 4769.273438 3603.96875 4806.074219 3642.421875 4854.226562 C 3674.320312 4894.179688 3695.722656 4937.082031 3709.175781 4988.234375 C 3721.125 5033.535156 3734.925781 5070.039062 3754.625 5108.488281 C 3777.078125 5152.242188 3804.378906 5191.742188 3838.378906 5229.695312 C 3847.429688 5239.796875 3868.730469 5261.097656 3878.933594 5270.246094 C 3946.433594 5330.75 4025.089844 5373.652344 4111.191406 5396.953125 C 4149.292969 5407.253906 4186.144531 5413.152344 4228.699219 5415.855469 C 4243.597656 5416.804688 4583.816406 5416.804688 4598.464844 5415.855469 C 4629.71875 5413.855469 4654.917969 5410.605469 4682.371094 5404.953125 C 4773.523438 5386.253906 4859.429688 5344.902344 4931.03125 5285.199219 C 4962.234375 5259.246094 4992.585938 5227.796875 5016.636719 5196.59375 C 5025.4375 5185.191406 5031.4375 5176.792969 5039.984375 5163.992188 C 5073.335938 5114.089844 5098.839844 5058.488281 5114.691406 5000.984375 C 5116.039062 4996.035156 5118.191406 4988.285156 5119.441406 4983.734375 C 5133.339844 4933.28125 5159.09375 4885.828125 5194.59375 4845.128906 C 5201.445312 4837.226562 5218.746094 4819.925781 5226.644531 4813.074219 C 5267.945312 4777.023438 5315.898438 4751.273438 5367.75 4737.222656 C 5372 4736.023438 5422.804688 4724.371094 5480.605469 4711.222656 C 5538.460938 4698.121094 5585.863281 4687.269531 5586.011719 4687.167969 C 5586.210938 4686.96875 5539.308594 4479.660156 5539.007812 4479.308594 C 5538.808594 4479.109375 5333.800781 4525.613281 5323 4528.261719 C 5268.847656 4541.761719 5216.792969 4563.3125 5168.242188 4592.414062 C 5136.640625 4611.316406 5108.390625 4632.265625 5079.238281 4658.417969 C 5070.585938 4666.167969 5049.6875 4686.917969 5041.6875 4695.71875 C 4989.933594 4752.574219 4950.933594 4817.625 4925.332031 4889.777344 C 4920.03125 4904.730469 4915.878906 4918.332031 4910.480469 4938.429688 C 4899.78125 4978.332031 4883.929688 5013.433594 4861.628906 5046.636719 C 4813.324219 5118.441406 4739.621094 5170.542969 4656.019531 5191.992188 C 4632.667969 5197.992188 4611.066406 5201.292969 4586.515625 5202.742188 C 4574.613281 5203.394531 4252.847656 5203.445312 4240.699219 5202.742188 C 4156.996094 5197.992188 4079.589844 5165.042969 4017.9375 5107.890625 C 3983.6875 5076.1875 3954.785156 5035.6875 3935.984375 4993.132812 C 3927.234375 4973.234375 3921.632812 4956.933594 3914.933594 4931.382812 C 3904.882812 4892.929688 3891.582031 4857.777344 3873.582031 4821.726562 C 3850.53125 4775.523438 3823.777344 4736.070312 3788.925781 4696.71875 C 3775.125 4681.167969 3748.527344 4655.417969 3731.675781 4641.21875 C 3667.121094 4587.015625 3592.917969 4548.363281 3511.914062 4526.8125 C 3496.914062 4522.8125 3490.664062 4521.460938 3386.160156 4499.761719 C 3331.855469 4488.460938 3286.902344 4479.109375 3286.304688 4478.960938 C 3285.453125 4478.761719 3285.105469 4478.960938 3284.902344 4479.808594 Z M 3284.902344 4479.808594 "/>
<path style=" stroke:none;fill-rule:nonzero;fill:rgb(0%,0%,0%);fill-opacity:1;" d="M 3461.8125 5462.054688 C 3460.164062 5464.804688 3358.058594 5633.414062 3234.851562 5836.773438 C 3078.195312 6095.335938 3009.941406 6208.441406 3007.890625 6212.792969 C 2966.6875 6300.796875 2951.9375 6400.75 2965.9375 6498.054688 C 2979.140625 6590.109375 3018.441406 6678.261719 3077.84375 6749.066406 C 3092.546875 6766.617188 3115.996094 6790.667969 3131.898438 6804.570312 C 3213.902344 6876.171875 3312.355469 6918.273438 3420.660156 6928.023438 C 3450.261719 6930.726562 3489.261719 6930.324219 3519.214844 6927.074219 C 3591.917969 6919.125 3660.621094 6896.171875 3723.175781 6858.921875 C 3857.378906 6778.96875 3947.035156 6640.609375 3965.4375 6485.054688 C 3968.085938 6462.304688 3968.4375 6456.050781 3968.4375 6425.800781 C 3968.4375 6396.148438 3968.136719 6389.800781 3965.636719 6368.296875 C 3959.484375 6314.847656 3944.484375 6261.542969 3921.933594 6213.292969 C 3918.933594 6206.890625 3879.382812 6141.238281 3693.074219 5833.773438 C 3569.167969 5629.265625 3467.113281 5460.90625 3466.3125 5459.554688 L 3464.8125 5457.15625 Z M 3597.46875 6088.035156 C 3739.773438 6322.894531 3731.625 6309.097656 3738.074219 6326.898438 C 3760.425781 6388.449219 3761.328125 6455.050781 3740.675781 6517.304688 C 3716.125 6591.308594 3663.023438 6652.363281 3593.417969 6686.5625 C 3542.714844 6711.515625 3485.511719 6721.316406 3430.160156 6714.515625 C 3373.109375 6707.515625 3321.15625 6684.863281 3277.152344 6647.8125 C 3268.402344 6640.460938 3250.351562 6622.410156 3243.152344 6613.808594 C 3172.347656 6529.554688 3154.597656 6415.5 3196.5 6314.296875 C 3199.050781 6308.144531 3211.351562 6287.59375 3332.054688 6088.386719 C 3405.058594 5967.878906 3464.863281 5869.324219 3464.914062 5869.375 C 3465.011719 5869.476562 3524.613281 5967.828125 3597.46875 6088.035156 Z M 3597.46875 6088.035156 "/>
<path style=" stroke:none;fill-rule:nonzero;fill:rgb(0%,0%,0%);fill-opacity:1;" d="M 5297.898438 5581.113281 C 5295.449219 5585.160156 5162.292969 5804.921875 5002.035156 6069.484375 C 4726.722656 6523.855469 4710.371094 6550.957031 4706.21875 6560.058594 C 4656.417969 6668.3125 4636.96875 6786.367188 4649.519531 6904.824219 C 4670.820312 7106.132812 4783.925781 7286.441406 4956.230469 7393.695312 C 5012.734375 7428.847656 5077.136719 7456.199219 5141.539062 7472.300781 C 5183.441406 7482.75 5222.59375 7488.652344 5268.746094 7491.449219 C 5290.996094 7492.75 5330.550781 7492.152344 5356.25 7490.050781 C 5479.65625 7480.050781 5597.414062 7435.546875 5696.015625 7361.644531 C 5778.222656 7300.042969 5844.175781 7221.238281 5889.925781 7129.835938 C 5940.976562 7027.980469 5964.628906 6915.222656 5958.730469 6801.320312 C 5954.328125 6714.964844 5932.777344 6630.210938 5895.476562 6552.058594 C 5894.027344 6549.007812 5303.296875 5574.011719 5302.796875 5573.859375 C 5302.546875 5573.761719 5300.347656 5577.0625 5297.898438 5581.113281 Z M 5504.507812 6318.347656 C 5694.265625 6631.511719 5706.21875 6651.410156 5709.667969 6659.210938 C 5727.367188 6699.664062 5739.519531 6746.066406 5743.96875 6790.566406 C 5745.667969 6807.167969 5745.96875 6814.167969 5745.96875 6835.070312 C 5745.96875 6860.222656 5745.070312 6874.121094 5741.96875 6896.574219 C 5725.667969 7013.578125 5663.316406 7119.132812 5568.160156 7190.585938 C 5500.15625 7241.6875 5420.355469 7271.289062 5332.75 7277.941406 C 5321.5 7278.792969 5283.347656 7278.792969 5272.746094 7277.941406 C 5231.445312 7274.640625 5198.042969 7267.992188 5161.742188 7255.839844 C 5096.488281 7234.039062 5038.484375 7198.085938 4989.234375 7148.835938 C 4954.480469 7114.082031 4927.679688 7076.832031 4905.78125 7032.828125 C 4878.128906 6977.226562 4863.128906 6919.925781 4859.679688 6856.570312 C 4858.976562 6843.421875 4859.378906 6814.519531 4860.476562 6801.320312 C 4864.578125 6751.367188 4875.777344 6705.914062 4895.230469 6660.5625 C 4899.03125 6651.613281 4900.730469 6648.761719 5100.738281 6318.644531 C 5211.644531 6135.585938 5302.546875 5985.78125 5302.699219 5985.78125 C 5302.847656 5985.78125 5393.703125 6135.4375 5504.507812 6318.347656 Z M 5504.507812 6318.347656 "/>
</g>
</svg>
