<?xml version="1.0" encoding="UTF-8"?>
<svg xmlns="http://www.w3.org/2000/svg" xmlns:xlink="http://www.w3.org/1999/xlink" width="px" height="px" viewBox="0 0 8534 8534" version="1.1">
<g>
<path style=" stroke:none;fill-rule:nonzero;fill:rgb(0%,0%,0%);fill-opacity:1;" d="M 4243.347656 536.574219 C 4137.84375 538.125 4067.492188 543.175781 4004.1875 553.777344 C 3926.632812 566.726562 3859.230469 588.277344 3793.429688 621.179688 C 3728.476562 653.628906 3657.472656 699.683594 3592.269531 751.636719 L 3578.667969 762.535156 L 3567.765625 762.535156 C 3530.765625 762.535156 3462.414062 765.785156 3414.660156 769.785156 C 3348.457031 775.386719 3277.902344 784.738281 3240.152344 793.039062 C 3150.546875 812.6875 3075.746094 851.441406 3006.140625 914.394531 C 2963.6875 952.746094 2918.085938 1006.246094 2873.734375 1069.648438 C 2746.027344 1252.308594 2676.277344 1472.417969 2661.925781 1738.332031 C 2658.472656 1801.882812 2658.023438 1874.136719 2660.625 1943.339844 C 2665.074219 2060.246094 2677.476562 2187.953125 2700.125 2350.109375 C 2706.078125 2392.710938 2719.128906 2480.964844 2721.175781 2492.566406 C 2721.726562 2495.667969 2722.078125 2498.316406 2722.027344 2498.417969 C 2721.925781 2498.46875 2718.476562 2498.21875 2714.378906 2497.816406 C 2697.078125 2496.167969 2669.324219 2496.066406 2651.375 2497.617188 C 2585.921875 2503.21875 2524.316406 2522.519531 2472.617188 2553.519531 C 2396.710938 2599.023438 2341.757812 2669.175781 2312.457031 2757.878906 C 2299.15625 2798.03125 2291.90625 2838.382812 2289.558594 2885.136719 C 2288.507812 2906.1875 2289.308594 2946.738281 2291.355469 2976.390625 C 2308.007812 3215.402344 2412.613281 3453.160156 2585.320312 3644.671875 C 2679.324219 3748.875 2789.480469 3834.578125 2911.386719 3898.382812 L 2922.386719 3904.132812 L 2925.289062 3916.535156 C 2960.839844 4069.640625 3010.992188 4197.097656 3077.792969 4304.203125 C 3101.34375 4341.953125 3126.195312 4376.304688 3154.699219 4410.457031 C 3167.699219 4426.109375 3208.902344 4468.359375 3235.550781 4493.410156 C 3245.152344 4502.460938 3247.652344 4505.109375 3247.652344 4506.109375 C 3247.652344 4506.8125 3237.050781 4590.613281 3224.152344 4692.421875 C 3211.199219 4794.226562 3199.050781 4891.527344 3197.148438 4908.730469 C 3192.398438 4951.730469 3190 4968.832031 3186.097656 4987.734375 C 3174.546875 5043.785156 3152.148438 5087.738281 3116.894531 5123.640625 C 3086.996094 5154.140625 3049.542969 5177.644531 2997.640625 5198.492188 C 2978.238281 5206.292969 2969.089844 5209.394531 2908.636719 5228.746094 C 2452.964844 5374.601562 2113.648438 5516.507812 1822.835938 5682.917969 C 1691.128906 5758.269531 1594.175781 5823.472656 1513.070312 5891.226562 C 1450.019531 5943.929688 1396.765625 5998.730469 1356.011719 6053.035156 C 1279.761719 6154.589844 1239.957031 6259.445312 1235.058594 6371.546875 C 1233.957031 6396.851562 1232.757812 6449.953125 1232.007812 6506.804688 C 1231.359375 6555.105469 1231.65625 6746.566406 1232.507812 6815.070312 C 1234.808594 6998.527344 1235.058594 7065.980469 1235.058594 7499.203125 C 1235.058594 7853.019531 1235.15625 7891.871094 1235.859375 7896.96875 C 1238.40625 7915.421875 1246.007812 7933.273438 1257.660156 7948.472656 C 1262.257812 7954.421875 1271.507812 7963.671875 1277.460938 7968.273438 C 1292.660156 7979.925781 1311.0625 7987.675781 1329.511719 7990.125 C 1334.0625 7990.773438 1743.78125 7990.875 4288.550781 7990.875 C 6926.476562 7990.875 7242.890625 7990.773438 7248.089844 7990.125 C 7272.089844 7986.972656 7294.792969 7975.324219 7312.09375 7957.324219 C 7329.894531 7938.871094 7340.242188 7916.121094 7342.34375 7891.019531 C 7343.195312 7880.769531 7343.34375 6411.300781 7342.445312 6391.300781 C 7341.09375 6359.75 7338.34375 6334.246094 7333.542969 6308.296875 C 7305.542969 6157.136719 7216.6875 6021.683594 7059.082031 5889.726562 C 6959.578125 5806.472656 6816.871094 5713.167969 6658.5625 5627.863281 C 6600.460938 5596.613281 6530.804688 5561.710938 6466.304688 5531.609375 C 6275.195312 5442.457031 6055.832031 5357.449219 5774.269531 5263.546875 C 5729.617188 5248.644531 5723.46875 5246.746094 5681.765625 5234.746094 C 5647.566406 5224.894531 5633.714844 5220.695312 5616.011719 5214.894531 C 5556.558594 5195.34375 5515.558594 5174.542969 5482.757812 5147.191406 C 5474.757812 5140.539062 5459.457031 5125.238281 5452.804688 5117.238281 C 5419.003906 5076.6875 5399.554688 5029.484375 5388.050781 4959.984375 C 5385.203125 4942.882812 5383.902344 4932.980469 5356.5 4716.972656 C 5342.101562 4603.117188 5330.148438 4509.363281 5330.050781 4508.660156 C 5329.851562 4507.511719 5330.75 4506.511719 5337.648438 4500.160156 C 5348.652344 4490.109375 5387.300781 4451.359375 5397.753906 4439.957031 C 5465.105469 4366.355469 5514.160156 4293.300781 5548.960938 4214.746094 C 5564.761719 4179.195312 5590.863281 4108.941406 5607.914062 4056.140625 C 5623.363281 4008.4375 5634.515625 3969.734375 5648.816406 3914.332031 L 5650.914062 3906.183594 L 5662.566406 3900.183594 C 5792.621094 3833.328125 5913.078125 3737.476562 6011.980469 3622.121094 C 6068.433594 3556.367188 6116.785156 3486.0625 6157.539062 3410.660156 C 6166.089844 3394.808594 6183.238281 3360.359375 6190.539062 3344.40625 C 6245.042969 3225 6277.042969 3102.34375 6285.996094 2978.640625 C 6289.542969 2930.238281 6289.246094 2886.335938 6285.246094 2850.382812 C 6268.945312 2704.027344 6190.289062 2589.722656 6067.632812 2534.117188 C 5999.332031 2503.21875 5919.476562 2490.167969 5851.824219 2498.867188 C 5848.675781 2499.265625 5846.074219 2499.566406 5845.972656 2499.46875 C 5845.925781 2499.417969 5846.175781 2497.917969 5846.574219 2496.117188 C 5847.222656 2492.765625 5861.523438 2399.761719 5868.773438 2351.359375 C 5895.125 2175.601562 5908.027344 2055.546875 5912.777344 1942.839844 C 5914.976562 1889.886719 5914.976562 1826.335938 5912.777344 1779.082031 C 5904.925781 1612.425781 5873.226562 1471.167969 5814.523438 1341.5625 C 5737.117188 1170.554688 5611.113281 1012.046875 5450.253906 883.242188 C 5306.25 767.886719 5143.390625 682.230469 4959.984375 625.28125 C 4753.273438 561.078125 4521.761719 532.425781 4243.347656 536.574219 Z M 4255.449219 750.535156 C 4280.601562 750.984375 4338.101562 752.484375 4372.953125 753.535156 C 4757.574219 765.285156 5054.488281 854.839844 5285.496094 1028.75 C 5330.351562 1062.5 5371.402344 1098.550781 5413.253906 1140.851562 C 5511.109375 1239.808594 5583.761719 1346.511719 5631.664062 1461.570312 C 5653.113281 1513.171875 5670.265625 1570.773438 5680.214844 1624.824219 C 5691.464844 1685.980469 5697.617188 1746.832031 5699.816406 1818.085938 C 5700.46875 1839.535156 5700.167969 1908.039062 5699.316406 1927.839844 C 5695.816406 2008.894531 5690.015625 2075.546875 5678.464844 2166.101562 C 5676.667969 2180.253906 5675.066406 2193.054688 5674.914062 2194.503906 C 5674.765625 2195.953125 5674.464844 2197.253906 5674.265625 2197.351562 C 5673.816406 2197.601562 5640.363281 2129.75 5630.613281 2108.847656 C 5620.8125 2087.847656 5619.664062 2085.097656 5612.3125 2065.695312 C 5602.261719 2039.246094 5599.511719 2033.09375 5597.710938 2033.09375 C 5597.511719 2033.09375 5597.210938 2033.496094 5597.113281 2033.945312 C 5596.960938 2034.496094 5596.863281 2034.34375 5596.8125 2033.496094 C 5596.710938 2031.195312 5594.3125 2020.292969 5592.460938 2013.996094 C 5581.960938 1977.492188 5557.460938 1949.890625 5525.757812 1938.839844 C 5512.660156 1934.289062 5503.707031 1932.839844 5488.507812 1932.839844 C 5475.207031 1932.839844 5473.207031 1933.089844 5452.253906 1937.089844 C 5364.601562 1953.992188 5285.246094 1965.542969 5196.742188 1974.34375 C 5011.535156 1992.695312 4807.773438 1994.34375 4607.964844 1979.09375 C 4354.003906 1959.640625 4130.042969 1904.539062 3934.433594 1813.335938 C 3921.132812 1807.132812 3914.785156 1804.484375 3906.433594 1801.585938 C 3856.03125 1784.183594 3799.328125 1785.035156 3723.925781 1804.335938 C 3701.472656 1810.085938 3678.972656 1816.835938 3636.421875 1830.585938 C 3582.71875 1847.9375 3568.46875 1852.1875 3530.664062 1861.835938 C 3356.15625 1906.640625 3224.652344 1927.589844 3096.394531 1931.089844 C 3073.792969 1931.691406 3065.742188 1932.441406 3056.394531 1934.839844 C 3037.542969 1939.589844 3022.640625 1948.042969 3009.140625 1961.59375 C 2991.488281 1979.292969 2980.191406 2002.945312 2974.9375 2033.246094 C 2974.738281 2034.296875 2974.390625 2034.996094 2974.1875 2034.894531 C 2972.6875 2033.945312 2969.4375 2041.394531 2957.789062 2072.597656 C 2948.039062 2098.796875 2938.886719 2118.648438 2904.484375 2188.601562 C 2898.234375 2201.253906 2896.6875 2204.101562 2896.4375 2203.101562 C 2896.285156 2202.402344 2895.035156 2192.152344 2893.636719 2180.351562 C 2882.386719 2083.046875 2877.035156 2016.945312 2873.585938 1930.839844 C 2872.734375 1909.941406 2872.433594 1833.585938 2873.085938 1810.835938 C 2874.882812 1748.730469 2879.085938 1695.179688 2886.433594 1641.578125 C 2908.285156 1481.71875 2956.6875 1342.261719 3032.792969 1220.058594 C 3044.644531 1201.007812 3065.59375 1169.90625 3080.792969 1148.804688 C 3126.898438 1084.800781 3169.097656 1043.597656 3209.152344 1023.546875 C 3235.953125 1010.097656 3269.953125 1001.546875 3321.15625 995.296875 C 3333.40625 993.796875 3375.859375 989.394531 3388.160156 988.347656 C 3414.558594 986.046875 3442.3125 985.046875 3498.164062 984.296875 C 3570.265625 983.347656 3614.46875 980.296875 3636.171875 974.796875 C 3649.472656 971.394531 3662.421875 965.894531 3674.921875 958.292969 C 3685.023438 952.195312 3692.574219 946.59375 3715.925781 928.09375 C 3793.726562 866.441406 3883.832031 811.738281 3945.433594 788.785156 C 4025.136719 759.085938 4115.644531 747.933594 4255.449219 750.535156 Z M 3847.082031 2009.894531 C 3882.683594 2026.644531 3915.582031 2040.84375 3952.183594 2055.347656 C 4261.050781 2177.800781 4631.816406 2229.304688 5035.734375 2205.851562 C 5154.242188 2198.953125 5280.546875 2184.851562 5399.402344 2165.152344 C 5413.804688 2162.75 5413.855469 2162.75 5414.304688 2163.800781 C 5414.503906 2164.402344 5416.554688 2169.453125 5418.804688 2175.101562 C 5435.40625 2216.804688 5458.457031 2263.65625 5498.40625 2337.109375 C 5535.910156 2406.0625 5543.109375 2419.664062 5556.960938 2447.613281 C 5568.109375 2470.015625 5573.410156 2481.617188 5578.511719 2494.515625 C 5598.8125 2546.320312 5604.261719 2593.121094 5597.960938 2661.875 C 5596.8125 2674.824219 5594.511719 2694.527344 5591.460938 2717.828125 C 5585.511719 2763.628906 5581.761719 2794.332031 5581.011719 2803.632812 C 5575.613281 2870.734375 5564.5625 2983.640625 5553.960938 3079.394531 C 5542.261719 3185.550781 5532.210938 3269.652344 5504.558594 3491.914062 C 5489.558594 3612.519531 5484.257812 3655.671875 5477.808594 3709.675781 C 5475.304688 3730.425781 5473.054688 3749.125 5472.804688 3751.226562 C 5472.507812 3753.277344 5471.605469 3757.324219 5470.804688 3760.226562 C 5469.957031 3763.078125 5466.957031 3774.527344 5464.105469 3785.675781 C 5450.503906 3838.578125 5430.054688 3914.984375 5421.804688 3943.933594 C 5398.402344 4026.089844 5376.152344 4086.140625 5349.5 4139.144531 C 5323.300781 4191.296875 5294.898438 4232.25 5251.796875 4280.199219 C 5241.144531 4292.101562 5207.894531 4325.402344 5195.242188 4337.003906 C 5145.542969 4382.355469 5090.339844 4425.007812 5024.234375 4469.058594 C 4783.074219 4629.765625 4525.414062 4715.269531 4282.449219 4715.222656 C 4067.539062 4715.171875 3837.28125 4646.667969 3627.671875 4520.460938 C 3544.367188 4470.308594 3466.5625 4412.207031 3396.160156 4347.753906 C 3365.757812 4319.851562 3323.304688 4277 3307.855469 4258.449219 C 3258.652344 4199.597656 3218.101562 4130.445312 3185.898438 4050.441406 C 3148.199219 3956.886719 3121.445312 3848.980469 3101.144531 3708.421875 C 3093.246094 3653.519531 3088.144531 3611.570312 3075.894531 3499.164062 C 3071.894531 3462.664062 3000.390625 2834.632812 2994.839844 2787.378906 C 2993.890625 2779.128906 2990.839844 2754.578125 2988.140625 2732.878906 C 2980.140625 2669.125 2977.640625 2645.625 2975.039062 2608.371094 C 2974.089844 2594.773438 2974.238281 2568.421875 2975.289062 2560.46875 C 2978.089844 2539.46875 2983.289062 2524.066406 3000.441406 2485.464844 C 3018.191406 2445.613281 3031.890625 2418.464844 3076.746094 2334.609375 C 3122.246094 2249.457031 3145.746094 2199.402344 3162.449219 2152.101562 C 3164.046875 2147.550781 3165.347656 2143.800781 3165.347656 2143.75 C 3165.398438 2143.75 3168.796875 2143.449219 3172.898438 2143.152344 C 3246.101562 2137.648438 3328.007812 2125.949219 3414.660156 2108.597656 C 3495.113281 2092.5 3576.117188 2072.898438 3709.074219 2037.34375 C 3756.925781 2024.59375 3820.527344 2007.542969 3827.429688 2005.644531 C 3830.480469 2004.84375 3833.328125 2004.144531 3833.828125 2004.144531 C 3834.28125 2004.09375 3840.230469 2006.695312 3847.082031 2009.894531 Z M 5917.777344 2712.328125 C 5956.429688 2717.128906 5993.28125 2731.726562 6019.132812 2752.578125 C 6026.03125 2758.128906 6036.234375 2768.730469 6041.78125 2776.230469 C 6082.386719 2830.484375 6088.484375 2920.035156 6060.234375 3046.894531 C 6054.832031 3071.09375 6044.882812 3109.246094 6037.03125 3135.648438 C 6005.230469 3242.753906 5955.878906 3341.105469 5888.777344 3430.910156 C 5843.925781 3490.964844 5791.269531 3546.367188 5732.519531 3595.21875 C 5720.917969 3604.867188 5714.71875 3609.769531 5714.46875 3609.570312 C 5714.367188 3609.417969 5715.519531 3599.917969 5717.019531 3588.367188 C 5730.019531 3490.261719 5744.21875 3363.808594 5759.269531 3213.152344 C 5761.21875 3193.75 5763.570312 3171.25 5764.519531 3163.148438 C 5779.070312 3039.390625 5789.070312 2931.988281 5795.773438 2827.632812 L 5797.222656 2804.882812 L 5799.523438 2794.679688 C 5806.671875 2763.179688 5813.921875 2746.929688 5826.472656 2734.328125 C 5839.671875 2721.128906 5857.222656 2714.128906 5883.125 2711.628906 C 5889.574219 2711.027344 5910.527344 2711.425781 5917.777344 2712.328125 Z M 2700.828125 2712.378906 C 2716.726562 2714.226562 2729.226562 2718.476562 2740.128906 2725.777344 C 2745.527344 2729.378906 2754.230469 2738.328125 2758.277344 2744.378906 C 2766.828125 2757.328125 2773.480469 2775.332031 2779.128906 2800.882812 C 2781.082031 2809.632812 2781.230469 2811.03125 2784.628906 2852.132812 C 2809.632812 3152.746094 2839.332031 3442.660156 2861.785156 3604.519531 C 2862.183594 3607.070312 2862.335938 3609.167969 2862.234375 3609.167969 C 2861.984375 3609.167969 2850.933594 3600.167969 2841.382812 3592.21875 C 2804.679688 3561.515625 2766.980469 3524.613281 2734.777344 3487.8125 C 2663.726562 3406.660156 2607.320312 3314.40625 2567.871094 3214.902344 C 2554.667969 3181.550781 2545.21875 3153.046875 2533.617188 3111.347656 C 2514.117188 3041.441406 2503.96875 2987.191406 2500.566406 2935.136719 C 2499.816406 2923.6875 2499.816406 2895.035156 2500.566406 2884.886719 C 2503.21875 2849.535156 2509.617188 2823.433594 2521.667969 2799.132812 C 2528.96875 2784.378906 2536.917969 2773.328125 2548.371094 2761.828125 C 2559.871094 2750.328125 2571.070312 2742.328125 2587.371094 2734.078125 C 2611.324219 2721.976562 2638.421875 2714.476562 2667.375 2711.976562 C 2673.574219 2711.425781 2694.925781 2711.675781 2700.828125 2712.378906 Z M 5133.242188 4657.816406 C 5133.242188 4658.820312 5162.492188 4888.980469 5164.792969 4905.980469 C 5174.640625 4979.582031 5185.09375 5033.984375 5197.394531 5076.089844 L 5198.644531 5080.1875 L 4741.371094 5567.359375 C 4489.859375 5835.324219 4283.050781 6055.632812 4281.699219 6056.984375 L 4279.351562 6059.382812 L 3827.929688 5578.460938 C 3579.667969 5313.898438 3375.609375 5096.539062 3374.507812 5095.390625 L 3372.507812 5093.289062 L 3376.359375 5082.386719 C 3396.058594 5026.085938 3411.960938 4958.832031 3423.859375 4881.230469 C 3431.960938 4828.527344 3438.160156 4774.574219 3445.8125 4690.371094 L 3448.410156 4661.820312 L 3458.160156 4668.167969 C 3548.714844 4727.421875 3649.070312 4779.675781 3750.675781 4820.476562 C 3862.480469 4865.378906 3979.886719 4898.128906 4086.542969 4914.179688 C 4130.242188 4920.78125 4170.644531 4924.679688 4221.949219 4927.332031 C 4239 4928.230469 4316.253906 4928.230469 4333.953125 4927.332031 C 4360.355469 4926.03125 4381.503906 4924.53125 4403.707031 4922.429688 C 4603.367188 4903.578125 4805.273438 4840.078125 5000.984375 4734.570312 C 5043.136719 4711.871094 5088.488281 4685.371094 5122.441406 4663.667969 C 5127.992188 4660.167969 5132.640625 4657.269531 5132.890625 4657.21875 C 5133.089844 4657.21875 5133.242188 4657.519531 5133.242188 4657.816406 Z M 5318.449219 5288.597656 C 5340.851562 5310.449219 5362.203125 5327.75 5388.152344 5344.949219 C 5442.003906 5380.652344 5506.007812 5409.902344 5595.761719 5439.753906 C 5627.265625 5450.253906 5658.066406 5459.707031 5716.269531 5476.757812 C 5732.367188 5481.457031 5747.371094 5485.90625 5749.667969 5486.558594 L 5753.769531 5487.808594 L 5753.769531 6238.691406 L 5748.417969 6239.992188 C 5731.519531 6244.191406 5707.566406 6251.894531 5690.765625 6258.542969 C 5638.8125 6278.996094 5591.863281 6307.746094 5548.511719 6345.546875 C 5537.960938 6354.796875 5513.207031 6379.449219 5504.207031 6389.800781 C 5473.605469 6424.800781 5450.957031 6458.703125 5431.203125 6499.054688 C 5408.304688 6545.808594 5393.753906 6593.859375 5387.003906 6645.0625 C 5384.003906 6668.0625 5383.050781 6685.511719 5383.402344 6711.566406 C 5383.652344 6731.515625 5384.300781 6741.816406 5386.253906 6758.566406 C 5398.652344 6864.121094 5447.355469 6963.777344 5524.257812 7040.828125 C 5622.714844 7139.535156 5755.371094 7190.6875 5891.027344 7182.285156 C 5981.082031 7176.738281 6065.984375 7146.035156 6138.1875 7092.933594 C 6194.640625 7051.429688 6241.992188 6997.128906 6277.042969 6933.574219 C 6309.496094 6874.773438 6331.296875 6804.269531 6337.796875 6737.066406 C 6338.097656 6734.015625 6338.695312 6728.964844 6339.148438 6725.816406 C 6340.246094 6718.613281 6340.398438 6691.863281 6339.398438 6685.5625 C 6339.046875 6683.363281 6338.296875 6677.164062 6337.746094 6671.8125 C 6327.445312 6571.757812 6289.34375 6478.453125 6227.640625 6402.148438 C 6216.839844 6388.800781 6207.289062 6378.25 6193.339844 6364.25 C 6171.6875 6342.648438 6153.339844 6327.195312 6129.4375 6310.394531 C 6084.183594 6278.695312 6031.683594 6254.59375 5978.480469 6241.042969 C 5973.578125 6239.792969 5969.480469 6238.792969 5969.429688 6238.792969 C 5969.328125 6238.792969 5969.28125 6086.335938 5969.28125 5900.027344 C 5969.28125 5713.71875 5969.378906 5561.261719 5969.480469 5561.261719 C 5969.929688 5561.261719 6023.230469 5581.5625 6044.785156 5589.910156 C 6183.988281 5643.914062 6306.894531 5696.917969 6426.25 5754.417969 C 6463.554688 5772.371094 6527.65625 5804.621094 6565.808594 5824.671875 C 6741.265625 5916.726562 6863.121094 5998.78125 6965.328125 6093.734375 C 6976.828125 6104.4375 7008.527344 6136.289062 7017.429688 6146.136719 C 7084.382812 6219.992188 7118.082031 6286.195312 7125.535156 6358.296875 C 7126.984375 6372.25 7128.433594 6414.949219 7129.933594 6490.804688 C 7130.734375 6530.90625 7130.734375 6713.613281 7129.933594 6776.816406 C 7126.882812 7012.480469 7126.835938 7021.480469 7126.835938 7414.199219 L 7126.835938 7775.363281 L 1450.71875 7775.363281 L 1450.417969 7455 C 1449.96875 7052.429688 1450.066406 6617.660156 1450.566406 6488.554688 C 1450.96875 6382.699219 1450.917969 6384.597656 1453.566406 6363.949219 C 1463.117188 6288.945312 1496.46875 6217.492188 1554.324219 6148.039062 C 1615.625 6074.484375 1704.03125 6003.78125 1829.535156 5928.078125 C 1876.839844 5899.527344 1957.992188 5853.722656 2012.34375 5824.921875 C 2181.101562 5735.417969 2373.011719 5654.265625 2650.273438 5555.261719 L 2655.625 5553.308594 L 2655.523438 5723.417969 L 2655.375 5893.527344 L 2652.625 5893.875 C 2639.472656 5895.726562 2612.871094 5901.226562 2593.621094 5906.027344 C 2465.316406 5938.027344 2350.359375 6004.929688 2251.605469 6105.085938 C 2166.800781 6191.089844 2096.347656 6300.144531 2044.597656 6425.550781 C 1995.695312 6544.105469 1965.59375 6674.5625 1955.589844 6811.820312 C 1951.691406 6865.371094 1951.140625 6907.523438 1953.890625 6937.324219 C 1959.492188 6998.527344 1975.742188 7057.128906 2009.042969 7136.183594 L 2014.144531 7148.335938 L 2011.394531 7156.785156 C 2005.292969 7175.234375 2001.695312 7193.289062 2000.042969 7213.589844 C 1999.292969 7222.6875 1999.742188 7248.390625 2000.792969 7256.839844 C 2007.492188 7310.441406 2031.394531 7358.246094 2070.648438 7396.597656 C 2090.148438 7415.648438 2110.847656 7430.296875 2134.851562 7442.046875 C 2162.5 7455.648438 2191.050781 7463.550781 2222.605469 7466.398438 C 2231.105469 7467.148438 2252.355469 7467.148438 2260.605469 7466.398438 C 2289.15625 7463.75 2314.660156 7456.800781 2339.257812 7444.898438 C 2401.8125 7414.796875 2450.113281 7354.042969 2468.617188 7282.339844 C 2469.765625 7277.792969 2471.464844 7271.492188 2472.414062 7268.339844 C 2476.367188 7254.789062 2477.117188 7248.640625 2477.117188 7228.738281 C 2477.117188 7211.039062 2476.515625 7204.386719 2474.066406 7195.085938 C 2473.265625 7192.035156 2471.714844 7185.988281 2470.566406 7181.585938 C 2464.664062 7158.183594 2458.414062 7140.882812 2449.164062 7122.433594 C 2432.214844 7088.582031 2408.8125 7059.929688 2379.363281 7037.078125 C 2347.109375 7012.027344 2307.207031 6995.929688 2265.105469 6991.078125 C 2240.90625 6988.277344 2210.902344 6989.828125 2188.402344 6995.027344 C 2186.453125 6995.476562 2184.753906 6995.679688 2184.503906 6995.429688 C 2183.800781 6994.726562 2178.402344 6972.675781 2176.152344 6961.328125 C 2172.601562 6943.625 2170.25 6926.324219 2169.101562 6909.074219 C 2167.101562 6879.824219 2170.300781 6821.570312 2176.851562 6768.066406 C 2199.601562 6582.410156 2264.207031 6422.101562 2364.8125 6301.296875 C 2420.164062 6234.890625 2483.117188 6184.089844 2552.871094 6149.539062 C 2590.972656 6130.6875 2627.472656 6117.9375 2667.625 6109.535156 C 2714.128906 6099.785156 2766.429688 6097.335938 2815.132812 6102.535156 C 2956.6875 6117.785156 3087.292969 6198.539062 3186.75 6332.296875 C 3264.601562 6437 3318.15625 6568.808594 3343.105469 6717.363281 C 3353.457031 6778.816406 3359.859375 6852.371094 3358.207031 6890.121094 C 3357.007812 6916.875 3353.90625 6940.726562 3348.355469 6965.828125 C 3346.40625 6974.675781 3341.257812 6995.226562 3340.855469 6995.726562 C 3340.804688 6995.828125 3337.957031 6995.328125 3334.554688 6994.628906 C 3310.503906 6989.628906 3283.253906 6988.328125 3259.503906 6991.078125 C 3195 6998.578125 3135.898438 7032.828125 3095.945312 7085.832031 C 3054.542969 7140.835938 3038.140625 7210.539062 3051.394531 7275.640625 C 3059.09375 7313.542969 3076.34375 7348.84375 3102.046875 7379.597656 C 3107.246094 7385.746094 3125.796875 7404.246094 3131.898438 7409.296875 C 3150.296875 7424.546875 3170.046875 7436.898438 3190.699219 7446 C 3254.703125 7474.351562 3325.15625 7474.148438 3385.707031 7445.449219 C 3449.210938 7415.398438 3498.765625 7352.746094 3516.714844 7279.839844 C 3517.863281 7275.289062 3519.414062 7269.539062 3520.164062 7267.089844 C 3523.964844 7254.839844 3524.863281 7246.390625 3524.515625 7224.738281 C 3524.214844 7206.289062 3523.765625 7202.539062 3520.515625 7191.085938 C 3519.566406 7187.785156 3518.066406 7182.136719 3517.214844 7178.585938 C 3516.363281 7174.984375 3514.714844 7169.035156 3513.613281 7165.285156 L 3511.566406 7158.484375 L 3517.414062 7145.285156 C 3552.714844 7065.632812 3569.015625 7008.679688 3574.117188 6947.324219 C 3575.867188 6926.175781 3576.21875 6917.773438 3576.519531 6891.324219 C 3577.117188 6835.320312 3573.015625 6781.867188 3563.367188 6719.816406 C 3551.214844 6641.359375 3528.714844 6550.957031 3503.8125 6480.054688 C 3456.011719 6344.046875 3388.308594 6227.390625 3300.703125 6130.289062 C 3289.855469 6118.285156 3264.601562 6092.636719 3252.152344 6081.035156 C 3168.148438 6002.78125 3076.445312 5948.679688 2973.640625 5916.726562 C 2951.4375 5909.828125 2925.738281 5903.277344 2902.886719 5898.726562 C 2893.6875 5896.875 2873.285156 5893.277344 2872.132812 5893.277344 C 2871.785156 5893.277344 2871.632812 5822.371094 2871.632812 5684.867188 L 2871.632812 5476.457031 L 2887.535156 5470.804688 C 2969.738281 5441.40625 3071.09375 5404.003906 3097.144531 5393.554688 C 3128.898438 5380.703125 3156.199219 5366.351562 3183.648438 5348 C 3207.601562 5332 3226.851562 5316.300781 3247.550781 5296.046875 C 3257.453125 5286.296875 3257.703125 5286.097656 3258.601562 5287.046875 C 3259.101562 5287.546875 3472.960938 5515.359375 3733.824219 5793.273438 C 4055.289062 6135.738281 4209.449219 6299.59375 4212.148438 6301.796875 C 4226.949219 6313.644531 4245.75 6321.347656 4266.199219 6323.796875 C 4272.25 6324.496094 4286.652344 6324.496094 4292.5 6323.796875 C 4315.902344 6320.945312 4336.753906 6311.496094 4352.304688 6296.695312 C 4354.402344 6294.695312 4456.109375 6186.488281 4578.316406 6056.285156 C 4700.519531 5926.078125 4909.03125 5703.867188 5041.734375 5562.511719 C 5174.390625 5421.152344 5288.597656 5299.5 5295.5 5292.148438 C 5302.347656 5284.796875 5308.097656 5278.796875 5308.199219 5278.746094 C 5308.296875 5278.746094 5312.898438 5283.148438 5318.449219 5288.597656 Z M 5877.777344 6451.300781 C 5918.578125 6454.351562 5956.128906 6464.753906 5989.730469 6482.355469 C 6048.082031 6513.003906 6089.636719 6561.707031 6110.085938 6623.558594 C 6120.488281 6655.160156 6125.789062 6693.3125 6123.335938 6719.816406 C 6121.238281 6742.714844 6116.988281 6764.265625 6110.738281 6783.617188 C 6093.234375 6838.019531 6059.382812 6882.671875 6012.28125 6913.574219 C 5956.980469 6949.875 5887.925781 6965.125 5819.023438 6956.277344 C 5768.921875 6949.824219 5723.46875 6930.875 5686.316406 6900.972656 C 5643.113281 6866.222656 5614.261719 6816.71875 5603.8125 6759.566406 C 5597.960938 6727.367188 5597.414062 6691.363281 5602.3125 6658.8125 C 5614.261719 6579.410156 5659.464844 6516.105469 5729.617188 6480.402344 C 5762.519531 6463.703125 5799.921875 6453.652344 5838.523438 6451.152344 C 5844.722656 6450.753906 5871.675781 6450.851562 5877.777344 6451.300781 Z M 5877.777344 6451.300781 "/>
</g>
</svg>
