<?xml version="1.0" encoding="UTF-8"?>
<svg xmlns="http://www.w3.org/2000/svg" xmlns:xlink="http://www.w3.org/1999/xlink" width="px" height="px" viewBox="0 0 8534 8534" version="1.1">
<g>
<path style=" stroke:none;fill-rule:nonzero;fill:rgb(0%,0%,0%);fill-opacity:1;" d="M 4390.707031 609.378906 C 4366.40625 609.628906 4326.503906 610.777344 4299.703125 612.027344 C 3959.535156 628.128906 3620.417969 711.433594 3296.605469 858.441406 C 3238.203125 884.992188 3170.847656 918.441406 3114.144531 949.144531 C 2991.691406 1015.496094 2874.382812 1089.902344 2762.878906 1172.003906 C 2748.078125 1182.855469 2740.976562 1189.054688 2733.476562 1197.507812 C 2717.425781 1215.605469 2707.925781 1234.859375 2705.078125 1255.058594 C 2704.125 1261.808594 2704.375 1274.308594 2705.578125 1281.058594 C 2706.828125 1288.261719 2706.976562 1288.710938 2719.027344 1326.8125 C 2797.382812 1573.875 2878.433594 1841.9375 2954.089844 2104.347656 C 2974.238281 2174.351562 3008.640625 2295.257812 3008.742188 2296.609375 C 3008.792969 2297.007812 3003.890625 2304.65625 2997.839844 2313.609375 C 2969.1875 2355.808594 2937.039062 2406.210938 2906.785156 2456.113281 C 2807.78125 2619.472656 2741.476562 2761.378906 2698.226562 2902.386719 C 2622.074219 3150.597656 2580.070312 3433.710938 2567.371094 3784.675781 C 2561.070312 3958.785156 2561.070312 4170.945312 2567.371094 4370.703125 C 2583.019531 4868.027344 2636.324219 5374.453125 2726.429688 5883.027344 C 2733.429688 5922.628906 2736.078125 5936.828125 2737.179688 5940.726562 C 2737.726562 5942.730469 2738.027344 5944.578125 2737.777344 5944.777344 C 2737.578125 5945.027344 2730.078125 5948.230469 2721.128906 5951.929688 C 2566.671875 6016.03125 2421.914062 6086.386719 2294.257812 6159.339844 C 2202.753906 6211.640625 2130.800781 6260.195312 2070.695312 6310.144531 C 1949.589844 6410.800781 1878.289062 6516.753906 1854.636719 6631.3125 C 1849.835938 6654.613281 1847.238281 6676.863281 1846.136719 6705.0625 C 1843.136719 6778.316406 1842.136719 6861.222656 1842.988281 6962.578125 C 1843.335938 7001.628906 1843.835938 7047.878906 1844.085938 7065.332031 C 1846.386719 7221.539062 1846.585938 7258.488281 1846.585938 7634.609375 C 1846.585938 8007.125 1846.4375 7983.625 1849.035156 7994.574219 C 1851.535156 8005.023438 1857.488281 8018.574219 1863.488281 8027.527344 C 1875.988281 8046.226562 1894.289062 8060.726562 1914.988281 8068.328125 C 1919.488281 8069.976562 1926.289062 8071.828125 1933.089844 8073.226562 C 1937.140625 8074.027344 2063.296875 8074.128906 4427.207031 8074.277344 C 6224.839844 8074.378906 6918.625 8074.277344 6922.574219 8073.878906 C 6960.777344 8070.078125 6994.328125 8044.628906 7008.726562 8008.523438 C 7011.328125 8002.023438 7013.179688 7995.574219 7014.628906 7987.875 C 7015.328125 7984.074219 7015.480469 7966.773438 7016.078125 7817.867188 C 7016.429688 7726.710938 7016.980469 7605.65625 7017.277344 7548.855469 C 7019.230469 7182.035156 7018.980469 6950.875 7016.328125 6754.316406 C 7015.679688 6706.265625 7015.078125 6693.714844 7012.277344 6671.5625 C 7001.726562 6587.507812 6967.425781 6508.203125 6909.125 6433.050781 C 6875.171875 6389.25 6830.671875 6344.796875 6778.066406 6301.996094 C 6697.265625 6236.242188 6582.859375 6163.738281 6447.300781 6092.335938 C 6428 6082.136719 6364.75 6050.433594 6343.546875 6040.28125 C 6285.496094 6012.582031 6216.640625 5981.929688 6155.789062 5956.777344 C 6146.289062 5952.828125 6138.4375 5949.578125 6138.335938 5949.480469 C 6138.289062 5949.429688 6138.886719 5947.230469 6139.738281 5944.679688 C 6141.886719 5938.179688 6142.988281 5933.078125 6148.738281 5904.277344 C 6223.339844 5528.359375 6269.792969 5144.839844 6289.292969 4744.972656 C 6301.046875 4503.5625 6302.296875 4245.148438 6292.796875 4014.1875 C 6276.996094 3629.171875 6229.890625 3304.253906 6147.988281 3014.640625 C 6077.734375 2766.429688 5976.480469 2531.96875 5855.722656 2338.007812 C 5850.773438 2330.160156 5846.625 2323.359375 5846.472656 2322.910156 C 5845.875 2321.410156 5903.828125 2118.398438 5944.578125 1979.09375 C 6010.433594 1754.183594 6082.035156 1519.269531 6147.039062 1314.8125 C 6157.539062 1281.761719 6158.089844 1279.011719 6157.636719 1263.160156 C 6157.339844 1252.558594 6156.4375 1247.457031 6153.289062 1238.058594 C 6148.039062 1222.257812 6138.886719 1207.804688 6125.285156 1193.90625 C 6121.585938 1190.054688 6116.386719 1185.207031 6113.785156 1183.054688 C 6103.886719 1174.855469 6056.082031 1139.851562 6026.28125 1119.003906 C 5888.476562 1022.398438 5741.019531 937.742188 5587.261719 866.890625 C 5256.246094 714.484375 4898.378906 627.328125 4539.710938 611.777344 C 4511.5625 610.578125 4492.710938 610.027344 4460.710938 609.527344 C 4432.757812 609.078125 4423.15625 609.078125 4390.707031 609.378906 Z M 4481.210938 815.539062 C 4886.128906 825.339844 5286.996094 932.945312 5652.515625 1129.902344 C 5744.371094 1179.40625 5834.171875 1234.808594 5920.828125 1295.359375 L 5934.628906 1305.011719 L 5924.425781 1337.414062 C 5823.472656 1658.378906 5721.117188 2004.34375 5625.214844 2349.109375 C 5619.414062 2369.859375 5614.613281 2386.960938 5614.511719 2387.0625 C 5614.414062 2387.160156 5604.664062 2384.613281 5592.914062 2381.410156 C 5321.5 2308.007812 5049.535156 2261.15625 4769.472656 2239.65625 C 4642.667969 2229.90625 4506.910156 2225.453125 4383.605469 2227.003906 C 4335.152344 2227.65625 4316.550781 2228.054688 4278.449219 2229.355469 C 3937.335938 2241.003906 3596.769531 2292.40625 3267.503906 2381.910156 C 3256.800781 2384.8125 3247.953125 2387.0625 3247.800781 2386.910156 C 3247.652344 2386.761719 3245.300781 2378.613281 3242.550781 2368.761719 C 3145.699219 2019.894531 3041.992188 1668.726562 2939.335938 1342.113281 C 2933.136719 1322.460938 2928.1875 1306.109375 2928.335938 1305.761719 C 2928.6875 1304.910156 2950.089844 1290.160156 2980.140625 1270.109375 C 3345.65625 1026.296875 3746.425781 875.640625 4151.445312 829.839844 C 4260.398438 817.488281 4368.304688 812.839844 4481.210938 815.539062 Z M 4532.460938 2433.5625 C 4595.566406 2435.414062 4633.667969 2437.015625 4681.46875 2439.863281 C 5007.984375 2459.265625 5331.101562 2516.367188 5646.464844 2610.472656 C 5655.265625 2613.074219 5664.714844 2615.671875 5667.464844 2616.171875 C 5695.617188 2621.621094 5726.320312 2613.574219 5750.269531 2594.421875 C 5752.621094 2592.523438 5755.46875 2590.121094 5756.570312 2589.019531 L 5758.667969 2587.019531 L 5761.171875 2591.722656 C 5777.222656 2621.671875 5803.523438 2674.773438 5821.921875 2714.628906 C 5945.730469 2982.539062 6024.230469 3297.753906 6063.285156 3683.671875 C 6078.386719 3833.078125 6088.386719 4002.085938 6092.785156 4180.945312 C 6094.335938 4244.898438 6094.535156 4265.5 6094.535156 4364.953125 C 6094.535156 4464.257812 6094.335938 4485.261719 6092.785156 4549.214844 C 6082.683594 4965.632812 6039.734375 5376.902344 5964.730469 5775.269531 C 5959.078125 5805.371094 5946.128906 5871.675781 5945.480469 5873.875 C 5945.230469 5874.625 5944.730469 5874.574219 5940.378906 5872.976562 C 5870.375 5847.324219 5785.972656 5817.921875 5696.515625 5787.972656 C 5643.164062 5770.070312 5634.964844 5767.621094 5574.261719 5751.21875 C 5487.507812 5727.769531 5450.957031 5716.816406 5409.753906 5701.917969 C 5291.949219 5659.367188 5223.496094 5608.261719 5198.242188 5544.011719 C 5190.542969 5524.359375 5186.34375 5501.207031 5184.691406 5469.257812 C 5184.042969 5456.65625 5184.34375 5419.253906 5185.191406 5404.503906 C 5186.84375 5376.902344 5188.492188 5356.652344 5192.992188 5309.5 C 5196.644531 5271.398438 5198.542969 5249.097656 5199.042969 5239.59375 L 5199.394531 5233.144531 L 5208.195312 5226.644531 C 5285.699219 5168.992188 5356 5102.589844 5413.054688 5032.984375 C 5426.804688 5016.234375 5436.105469 5003.683594 5446.503906 4987.984375 C 5493.058594 4917.582031 5524.207031 4833.777344 5547.210938 4717.222656 C 5553.511719 4685.320312 5559.8125 4647.519531 5570.261719 4579.714844 C 5574.160156 4554.5625 5579.910156 4518.5625 5583.0625 4499.710938 C 5604.511719 4371.703125 5612.914062 4320.902344 5625.515625 4242.449219 C 5646.464844 4112.144531 5670.617188 3955.933594 5694.015625 3799.429688 C 5701.066406 3752.226562 5702.167969 3745.425781 5709.519531 3703.921875 C 5721.167969 3637.96875 5724.46875 3612.417969 5725.867188 3577.316406 C 5726.519531 3560.96875 5726.070312 3543.867188 5724.519531 3527.914062 C 5712.019531 3397.609375 5668.015625 3274.902344 5579.5625 3123.546875 C 5555.808594 3082.84375 5508.257812 3006.640625 5498.558594 2993.640625 C 5494.308594 2987.941406 5485.90625 2979.140625 5480.757812 2974.988281 C 5456.503906 2955.4375 5426.953125 2948.738281 5388.753906 2954.136719 C 5374.601562 2956.136719 5324.449219 2960.339844 5290.246094 2962.390625 C 5229.09375 2965.988281 5132.589844 2966.738281 5052.488281 2964.140625 C 4843.078125 2957.339844 4652.617188 2932.136719 4473.210938 2887.386719 C 4395.105469 2867.882812 4324.351562 2846.082031 4258.597656 2821.183594 C 4234.699219 2812.183594 4219.546875 2805.632812 4184.195312 2789.128906 C 4146.84375 2771.679688 4131.644531 2765.230469 4113.992188 2759.179688 C 4071.941406 2744.777344 4034.589844 2742.578125 3995.9375 2752.179688 C 3969.636719 2758.730469 3921.035156 2777.628906 3870.679688 2800.882812 C 3834.53125 2817.582031 3804.527344 2832.734375 3733.925781 2869.882812 C 3670.023438 2903.535156 3628.171875 2924.835938 3600.417969 2937.835938 C 3549.066406 2961.9375 3506.015625 2979.089844 3464.414062 2992.140625 C 3431.0625 3002.539062 3416.011719 3005.941406 3372.65625 3012.640625 C 3334.507812 3018.542969 3318.804688 3022.140625 3301.40625 3028.992188 C 3275.902344 3038.992188 3255.703125 3053.992188 3236.351562 3077.144531 C 3231.550781 3082.945312 3220.699219 3097.09375 3211.300781 3109.894531 C 3152.746094 3189.699219 3125.648438 3252.550781 3116.644531 3329.40625 C 3113.195312 3358.957031 3112.796875 3394.109375 3115.394531 3430.160156 C 3117.746094 3462.011719 3122.246094 3496.3125 3131.945312 3555.667969 C 3137.398438 3589.117188 3140.046875 3606.367188 3145.449219 3643.921875 C 3171.546875 3825.730469 3196 3985.835938 3230.652344 4202.445312 C 3271.902344 4460.210938 3294.203125 4591.316406 3317.40625 4712.472656 C 3330.40625 4780.273438 3338.855469 4816.277344 3350.257812 4852.726562 C 3365.558594 4901.578125 3386.507812 4945.832031 3413.058594 4985.183594 C 3419.710938 4995.085938 3426.261719 5004.085938 3429.859375 5008.234375 C 3431.410156 5010.035156 3434.011719 5013.433594 3435.660156 5015.785156 C 3441.109375 5023.585938 3463.914062 5050.785156 3479.164062 5067.738281 C 3498.8125 5089.589844 3529.164062 5120.441406 3549.417969 5139.242188 C 3583.816406 5171.140625 3615.871094 5198.042969 3652.371094 5225.496094 L 3664.171875 5234.394531 L 3664.171875 5237.195312 C 3664.171875 5241.59375 3666.421875 5271.296875 3669.671875 5310 C 3674.472656 5367.550781 3675.773438 5387.601562 3676.722656 5418.503906 C 3677.871094 5457.957031 3675.371094 5498.007812 3670.121094 5524.359375 C 3662.171875 5564.460938 3634.570312 5600.414062 3587.617188 5631.8125 C 3550.816406 5656.414062 3502.714844 5678.367188 3436.910156 5700.566406 C 3418.058594 5706.96875 3399.058594 5712.96875 3362.859375 5724.019531 C 3314.707031 5738.769531 3249.851562 5759.671875 3170.898438 5786.019531 C 3086.34375 5814.171875 3022.441406 5836.375 2954.386719 5861.226562 C 2942.339844 5865.625 2932.386719 5869.175781 2932.289062 5869.074219 C 2932.039062 5868.824219 2927.636719 5844.324219 2921.636719 5810.023438 C 2842.785156 5357.449219 2793.832031 4879.828125 2774.128906 4370.953125 C 2767.378906 4196.746094 2765.480469 4032.539062 2768.628906 3895.933594 C 2773.878906 3668.472656 2791.28125 3468.664062 2821.882812 3284.105469 C 2853.082031 3096.296875 2906.9375 2918.738281 2983.140625 2752.378906 C 2999.191406 2717.277344 3021.839844 2671.425781 3038.691406 2639.875 C 3054.644531 2609.921875 3082.394531 2560.570312 3083.496094 2560.269531 C 3083.695312 2560.21875 3085.292969 2562.570312 3087.042969 2565.519531 C 3097.394531 2583.269531 3113.097656 2597.820312 3131.898438 2607.121094 C 3152.046875 2617.121094 3174.546875 2620.324219 3195.050781 2616.121094 C 3197.75 2615.574219 3208.699219 2612.523438 3219.402344 2609.371094 C 3542.917969 2513.269531 3872.082031 2456.265625 4206.945312 2438.363281 C 4250.800781 2436.015625 4302.550781 2434.164062 4350.703125 2433.113281 C 4376.554688 2432.5625 4509.910156 2432.914062 4532.460938 2433.5625 Z M 4066.691406 2961.640625 C 4282.050781 3061.644531 4529.613281 3124.546875 4826.226562 3154.648438 C 4908.929688 3163 4988.933594 3168.796875 5061.238281 3171.648438 C 5122.738281 3174.046875 5197.195312 3174.046875 5251.246094 3171.648438 C 5286.648438 3170.046875 5326.25 3167.199219 5354.5 3164.199219 C 5359.203125 3163.699219 5363.152344 3163.398438 5363.351562 3163.5 C 5363.75 3163.699219 5381.003906 3191.347656 5391.101562 3207.898438 C 5428.253906 3268.953125 5457.003906 3324.753906 5476.757812 3374.15625 C 5499.40625 3430.761719 5514.058594 3487.363281 5519.507812 3539.164062 C 5520.757812 3551.367188 5522.109375 3561.46875 5522.457031 3562.117188 C 5522.558594 3562.265625 5522.457031 3563.515625 5522.207031 3564.765625 C 5522.007812 3566.066406 5518.757812 3588.117188 5515.007812 3613.769531 C 5485.355469 3817.328125 5446.957031 4066.140625 5413.503906 4271.199219 C 5405.351562 4321.203125 5402.054688 4343.402344 5391.003906 4422.855469 C 5379.402344 4506.410156 5375.300781 4534.164062 5368.75 4573.964844 C 5355.902344 4651.96875 5341.398438 4717.570312 5324.949219 4772.472656 C 5316.75 4799.824219 5311.648438 4814.574219 5306.449219 4825.875 C 5282.246094 4878.527344 5224.996094 4944.132812 5145.242188 5010.535156 C 5003.382812 5128.691406 4828.976562 5217.644531 4652.96875 5261.695312 C 4544.863281 5288.746094 4429.65625 5295 4311.851562 5280.246094 C 4122.09375 5256.445312 3933.785156 5179.042969 3776.175781 5060.085938 C 3711.023438 5010.886719 3653.820312 4957.03125 3602.269531 4896.328125 C 3591.367188 4883.527344 3578.917969 4863.128906 3566.71875 4838.175781 C 3551.515625 4807.125 3540.066406 4774.523438 3529.664062 4732.722656 C 3521.816406 4701.019531 3516.414062 4672.917969 3505.464844 4605.816406 C 3502.5625 4588.113281 3496.8125 4554.464844 3492.714844 4531.0625 C 3467.113281 4385.457031 3446.011719 4257 3412.410156 4041.9375 C 3384.207031 3861.382812 3359.65625 3698.972656 3341.207031 3570.566406 C 3338.707031 3553.265625 3336.457031 3538.765625 3336.15625 3538.316406 C 3335.554688 3537.265625 3328.605469 3499.515625 3325.65625 3481.664062 C 3323.304688 3467.011719 3321.554688 3453.410156 3320.304688 3440.160156 C 3319.054688 3426.410156 3319.054688 3390.058594 3320.304688 3378.410156 C 3325.65625 3329.15625 3339.507812 3290.554688 3368.308594 3244.601562 C 3373.757812 3235.902344 3385.859375 3218.199219 3386.757812 3217.601562 C 3387.058594 3217.402344 3388.808594 3217.152344 3390.757812 3216.949219 C 3396.757812 3216.402344 3412.410156 3214.199219 3423.410156 3212.351562 C 3490.8125 3201.148438 3561.417969 3178.199219 3643.671875 3140.796875 C 3677.421875 3125.445312 3719.925781 3104.34375 3779.675781 3073.394531 C 3832.328125 3046.09375 3862.480469 3030.640625 3880.683594 3021.742188 C 3941.882812 2991.789062 3984.136719 2973.589844 4031.4375 2956.886719 L 4045.941406 2951.738281 L 4049.238281 2953.386719 C 4051.039062 2954.339844 4058.941406 2958.039062 4066.691406 2961.640625 Z M 4987.535156 5364.601562 C 4987.132812 5370.25 4985.933594 5398.804688 4985.132812 5420.503906 C 4983.933594 5455.707031 4984.535156 5518.558594 4986.285156 5538.757812 C 4991.785156 5602.5625 5020.484375 5663.617188 5071.238281 5719.519531 C 5078.9375 5728.019531 5096.1875 5745.121094 5104.738281 5752.769531 C 5116.691406 5763.46875 5135.992188 5779.171875 5147.140625 5787.269531 C 5150.390625 5789.621094 5150.691406 5789.972656 5150.089844 5790.722656 C 5148.089844 5793.023438 4443.660156 6579.359375 4427.90625 6596.859375 L 4421.308594 6604.210938 L 4067.140625 6197.242188 C 3872.332031 5973.429688 3712.875 5790.121094 3712.824219 5789.921875 C 3712.773438 5789.722656 3716.875 5786.472656 3721.972656 5782.769531 C 3798.628906 5727.070312 3848.03125 5661.464844 3867.679688 5589.261719 C 3876.28125 5557.710938 3878.882812 5528.210938 3878.882812 5462.757812 C 3878.882812 5429.054688 3878.53125 5415.503906 3876.882812 5380.101562 C 3876.480469 5370.75 3876.230469 5363.050781 3876.382812 5362.851562 C 3876.53125 5362.703125 3880.882812 5364.652344 3886.03125 5367.101562 C 3976.835938 5411.003906 4079.191406 5446.65625 4176.195312 5468.15625 C 4246.699219 5483.855469 4309.550781 5492.308594 4381.957031 5495.859375 C 4398.457031 5496.65625 4452.859375 5496.65625 4469.210938 5495.859375 C 4567.464844 5491.007812 4657.816406 5476.15625 4754.472656 5448.957031 C 4829.175781 5427.90625 4909.929688 5397.503906 4976.734375 5365.300781 C 4982.382812 5362.550781 4987.183594 5360.351562 4987.433594 5360.300781 C 4987.632812 5360.25 4987.683594 5362.203125 4987.535156 5364.601562 Z M 3922.382812 6343.746094 L 4317.703125 6797.96875 L 4317.703125 7868.867188 L 2052.246094 7868.867188 L 2051.945312 7711.710938 C 2051.496094 7495.601562 2051.597656 6812.417969 2052.097656 6753.316406 C 2052.546875 6704.765625 2052.597656 6702.714844 2054.644531 6688.3125 C 2062.648438 6632.0625 2090.597656 6576.957031 2138.550781 6523.054688 C 2145.652344 6515.105469 2168.5 6492.105469 2177.351562 6484.054688 C 2233.304688 6433.050781 2305.808594 6384.449219 2408.863281 6328.945312 C 2459.816406 6301.496094 2559.96875 6250.34375 2605.371094 6228.59375 C 2822.53125 6124.535156 3059.84375 6034.882812 3411.660156 5924.027344 C 3475.210938 5903.976562 3487.613281 5899.875 3513.164062 5890.375 L 3523.914062 5886.375 L 3525.515625 5887.976562 C 3526.367188 5888.824219 3704.972656 6093.9375 3922.382812 6343.746094 Z M 5357.75 5895.625 C 5440.054688 5927.078125 5510.859375 5951.878906 5687.765625 6011.28125 C 5789.070312 6045.285156 5824.574219 6057.332031 5869.273438 6072.933594 C 6015.730469 6124.035156 6127.886719 6168.539062 6229.042969 6215.691406 C 6446.851562 6317.144531 6576.058594 6395.550781 6684.5625 6492.054688 C 6749.917969 6550.15625 6787.71875 6603.308594 6802.867188 6658.261719 C 6805.320312 6667.261719 6808.019531 6680.511719 6809.019531 6688.8125 C 6810.820312 6703.214844 6813.417969 6750.765625 6814.820312 6794.070312 C 6816.46875 6845.972656 6816.71875 6938.976562 6815.320312 7007.078125 C 6814.570312 7044.28125 6811.917969 7166.1875 6811.21875 7193.835938 C 6810.820312 7210.4375 6810.621094 7315.394531 6810.46875 7543.253906 L 6810.269531 7868.867188 L 4523.210938 7868.867188 L 4523.210938 6798.570312 L 4694.570312 6607.308594 C 4788.824219 6502.105469 4970.332031 6299.496094 5097.9375 6157.039062 C 5225.546875 6014.582031 5331.949219 5895.828125 5334.398438 5893.175781 L 5338.800781 5888.324219 L 5341.398438 5889.324219 C 5342.851562 5889.925781 5350.199219 5892.726562 5357.75 5895.625 Z M 5357.75 5895.625 "/>
<path style=" stroke:none;fill-rule:nonzero;fill:rgb(0%,0%,0%);fill-opacity:1;" d="M 4278.199219 960.546875 C 4259 960.894531 4255.75 961.246094 4246.398438 964.34375 C 4217.496094 973.84375 4195.898438 999.898438 4192.746094 1029.046875 C 4192.496094 1031.796875 4192.847656 1078.550781 4193.746094 1160.253906 C 4194.546875 1230.109375 4195.097656 1287.308594 4194.996094 1287.410156 C 4194.898438 1287.511719 4177.996094 1287.808594 4157.394531 1288.058594 C 4109.691406 1288.660156 4056.390625 1289.460938 4019.6875 1290.058594 C 3926.132812 1291.660156 3928.585938 1291.558594 3918.933594 1294.0625 C 3886.78125 1302.359375 3862.980469 1328.414062 3859.582031 1359.0625 C 3859.082031 1363.613281 3859.730469 1384.714844 3864.632812 1520.820312 C 3868.429688 1627.476562 3870.480469 1678.929688 3870.980469 1682.328125 C 3873.582031 1700.480469 3881.132812 1715.53125 3894.183594 1728.632812 C 3905.734375 1740.230469 3918.984375 1747.230469 3934.433594 1749.832031 C 3939.835938 1750.78125 3954.136719 1750.730469 4037.9375 1749.582031 C 4110.792969 1748.582031 4199.746094 1747.933594 4200.148438 1748.382812 C 4200.347656 1748.632812 4201.148438 1805.285156 4201.898438 1874.335938 C 4202.648438 1943.339844 4203.496094 2001.644531 4203.746094 2003.84375 C 4205.195312 2016.695312 4209.449219 2028.445312 4216.796875 2039.445312 C 4221.296875 2046.246094 4230.949219 2056.046875 4237.5 2060.445312 C 4248.550781 2067.945312 4260.648438 2072.398438 4273.050781 2073.496094 C 4275.5 2073.695312 4347.902344 2073.847656 4433.957031 2073.796875 C 4589.214844 2073.695312 4590.515625 2073.695312 4595.566406 2072.695312 C 4620.015625 2067.796875 4640.066406 2052.246094 4650.96875 2029.84375 C 4656.066406 2019.34375 4658.019531 2011.792969 4658.71875 1999.34375 C 4659.019531 1994.644531 4659.820312 1936.289062 4660.519531 1869.585938 C 4661.269531 1802.882812 4661.917969 1748.230469 4662.019531 1748.132812 C 4662.269531 1747.882812 4773.472656 1748.882812 4824.675781 1749.582031 C 4905.628906 1750.683594 4922.128906 1750.730469 4927.230469 1749.882812 C 4943.332031 1747.230469 4956.632812 1740.28125 4968.484375 1728.332031 C 4974.683594 1722.082031 4979.285156 1715.628906 4983.234375 1707.828125 C 4988.234375 1697.828125 4990.785156 1688.878906 4991.785156 1677.828125 C 4992.433594 1670.226562 5002.785156 1381.464844 5002.882812 1367.3125 C 5002.933594 1360.515625 5002.734375 1355.511719 5002.335938 1353.0625 C 4999.484375 1337.011719 4993.484375 1325.164062 4983.082031 1314.960938 C 4978.082031 1310.0625 4972.433594 1306.210938 4963.234375 1301.410156 C 4955.382812 1297.359375 4950.03125 1295.261719 4942.980469 1293.660156 C 4934.230469 1291.609375 4935.03125 1291.660156 4842.726562 1290.058594 C 4808.925781 1289.460938 4755.621094 1288.710938 4704.769531 1288.058594 C 4684.320312 1287.808594 4667.46875 1287.511719 4667.320312 1287.359375 C 4667.21875 1287.210938 4667.667969 1234.957031 4668.417969 1171.203125 C 4669.96875 1034.847656 4669.96875 1031.25 4668.96875 1025.25 C 4666.019531 1008.398438 4658.667969 994.796875 4645.667969 982.296875 C 4635.015625 972.09375 4622.015625 965.195312 4607.316406 961.996094 C 4603.066406 961.046875 4599.964844 960.894531 4581.714844 960.546875 C 4558.164062 960.09375 4305.300781 960.09375 4278.199219 960.546875 Z M 4514.710938 1127.402344 C 4514.710938 1134.804688 4514.261719 1178.355469 4513.710938 1224.308594 C 4512.011719 1372.914062 4512.011719 1368.964844 4512.660156 1373.714844 C 4514.363281 1386.316406 4519.410156 1398.664062 4527.113281 1409.066406 C 4530.460938 1413.667969 4539.363281 1422.515625 4543.613281 1425.566406 C 4555.113281 1433.867188 4567.8125 1438.917969 4580.964844 1440.515625 C 4583.664062 1440.816406 4608.316406 1441.265625 4642.21875 1441.566406 C 4673.417969 1441.867188 4714.820312 1442.316406 4734.222656 1442.566406 C 4792.726562 1443.367188 4845.976562 1444.167969 4846.128906 1444.316406 C 4846.378906 1444.519531 4840.828125 1595.125 4840.578125 1595.425781 C 4840.425781 1595.574219 4818.625 1595.425781 4792.125 1595.125 C 4711.121094 1594.175781 4642.015625 1593.574219 4609.167969 1593.574219 C 4574.0625 1593.574219 4573.015625 1593.675781 4562.613281 1597.074219 C 4549.761719 1601.324219 4540.363281 1607.375 4530.414062 1617.675781 C 4521.011719 1627.425781 4514.410156 1639.328125 4510.960938 1652.578125 C 4508.710938 1661.226562 4508.761719 1659.527344 4507.210938 1792.433594 C 4506.410156 1862.238281 4505.710938 1919.390625 4505.710938 1919.441406 C 4505.710938 1919.539062 4472.210938 1919.589844 4431.257812 1919.589844 L 4356.804688 1919.589844 L 4356.503906 1913.941406 C 4356.355469 1910.890625 4355.652344 1853.988281 4354.953125 1787.582031 C 4354.203125 1721.179688 4353.402344 1665.128906 4353.152344 1663.078125 C 4350.902344 1644.527344 4343.453125 1629.277344 4330.253906 1616.027344 C 4321.101562 1606.925781 4311.851562 1601.074219 4300.5 1597.324219 C 4289.351562 1593.625 4293.601562 1593.824219 4228.949219 1593.925781 C 4176.144531 1593.976562 4108.492188 1594.523438 4045.441406 1595.375 L 4021.4375 1595.726562 L 4018.738281 1520.121094 C 4017.238281 1478.570312 4016.136719 1444.46875 4016.238281 1444.367188 C 4016.636719 1444.019531 4140.59375 1442.316406 4219.199219 1441.566406 C 4249.597656 1441.316406 4276.25 1440.96875 4278.449219 1440.765625 C 4288 1440.117188 4298.550781 1437.015625 4308.203125 1432.015625 C 4330.851562 1420.265625 4346.703125 1397.765625 4349.652344 1373.0625 C 4350.105469 1369.414062 4349.953125 1342.664062 4349.003906 1257.058594 C 4348.304688 1195.855469 4347.605469 1138.652344 4347.453125 1129.902344 L 4347.152344 1114.050781 L 4514.710938 1114.050781 Z M 4514.710938 1127.402344 "/>
<path style=" stroke:none;fill-rule:nonzero;fill:rgb(0%,0%,0%);fill-opacity:1;" d="M 5363.75 6855.320312 C 5320.25 6858.519531 5287.699219 6886.273438 5277.046875 6929.375 C 5274.597656 6939.273438 5273.746094 6946.574219 5273.746094 6957.824219 C 5273.746094 6976.726562 5276.996094 6991.675781 5284.546875 7007.328125 C 5294 7026.929688 5307.75 7041.078125 5326.351562 7050.332031 C 5336.449219 7055.332031 5346.199219 7058.230469 5358.75 7059.929688 C 5365.800781 7060.882812 6232.742188 7060.882812 6239.792969 7059.929688 C 6252.59375 7058.179688 6262.292969 7055.28125 6272.742188 7050.03125 C 6290.292969 7041.179688 6303.746094 7027.578125 6312.996094 7009.328125 C 6328.945312 6977.878906 6329.097656 6938.625 6313.445312 6907.074219 C 6303.996094 6888.074219 6289.695312 6873.722656 6271.292969 6864.871094 C 6261.695312 6860.273438 6254.441406 6858.070312 6241.542969 6855.921875 C 6236.890625 6855.171875 6205.691406 6855.070312 5802.773438 6855.019531 C 5564.210938 6854.972656 5366.652344 6855.121094 5363.75 6855.320312 Z M 5363.75 6855.320312 "/>
</g>
</svg>
