<?xml version="1.0" encoding="UTF-8"?>
<svg xmlns="http://www.w3.org/2000/svg" xmlns:xlink="http://www.w3.org/1999/xlink" width="px" height="px" viewBox="0 0 8534 8534" version="1.1">
<g>
<path style=" stroke:none;fill-rule:nonzero;fill:rgb(0%,0%,0%);fill-opacity:1;" d="M 4047.191406 763.386719 C 3905.882812 767.835938 3769.828125 801.789062 3643.921875 864.089844 C 3435.109375 967.394531 3268.351562 1143.304688 3176.898438 1356.8125 C 3139.597656 1443.816406 3115.394531 1534.871094 3104.644531 1628.375 C 3101.195312 1658.828125 3099.496094 1683.480469 3098.34375 1720.582031 L 3098.046875 1730.832031 L 3089.292969 1739.082031 C 3076.59375 1751.082031 3034.640625 1793.382812 3021.792969 1807.183594 C 2993.890625 1837.085938 2967.339844 1867.488281 2942.886719 1897.339844 C 2838.832031 2024.59375 2749.878906 2168.851562 2678.476562 2326.109375 C 2625.523438 2442.765625 2582.222656 2567.71875 2550.167969 2696.125 C 2528.019531 2784.832031 2512.566406 2867.933594 2500.917969 2961.390625 C 2484.417969 3093.246094 2479.214844 3222.152344 2485.117188 3352.90625 C 2506.515625 3827.628906 2672.824219 4276.101562 2952.089844 4611.964844 C 2976.238281 4641.015625 3002.691406 4670.71875 3029.890625 4699.46875 C 3042.59375 4712.871094 3080.894531 4751.074219 3092.296875 4761.722656 C 3096.84375 4765.972656 3100.546875 4769.523438 3100.445312 4769.574219 C 3100.394531 4769.625 2904.636719 4841.828125 2665.375 4929.980469 C 2426.113281 5018.183594 2225.40625 5092.238281 2219.355469 5094.589844 C 2083.148438 5147.390625 1957.542969 5224.34375 1847.488281 5322.347656 C 1822.835938 5344.300781 1784.582031 5381.753906 1763.882812 5404.253906 C 1685.429688 5489.355469 1622.175781 5579.460938 1570.171875 5680.066406 C 1489.417969 5836.421875 1443.566406 6006.28125 1434.566406 6182.289062 C 1433.066406 6211.941406 1433.015625 6239.390625 1433.167969 6913.824219 C 1433.316406 7557.203125 1433.367188 7595.90625 1434.21875 7600.855469 C 1437.21875 7619.207031 1441.167969 7631.757812 1448.269531 7645.757812 C 1455.316406 7659.558594 1462.519531 7669.359375 1474.019531 7680.859375 C 1486.46875 7693.261719 1495.921875 7700.0625 1511.320312 7707.660156 C 1524.421875 7714.0625 1537.121094 7718.0625 1552.324219 7720.511719 L 1559.324219 7721.613281 L 6599.558594 7721.613281 L 6606.757812 7720.460938 C 6644.511719 7714.460938 6675.964844 7695.660156 6698.414062 7665.757812 C 6711.816406 7647.910156 6720.414062 7627.308594 6724.464844 7603.507812 L 6725.515625 7597.105469 L 6725.714844 6910.324219 C 6725.867188 6228.492188 6725.816406 6208.140625 6724.316406 6179.539062 C 6719.964844 6098.835938 6708.414062 6021.980469 6689.0625 5945.078125 C 6639.511719 5748.070312 6541.105469 5564.660156 6404.050781 5414.003906 C 6377.847656 5385.152344 6342.699219 5350.300781 6313.046875 5323.699219 C 6276.945312 5291.347656 6236.59375 5259.445312 6196.039062 5231.195312 C 6119.835938 5178.09375 6037.382812 5133.589844 5951.277344 5099.140625 C 5933.976562 5092.238281 5947.679688 5097.289062 5490.257812 4928.730469 C 5252.796875 4841.226562 5058.488281 4769.625 5058.4375 4769.574219 C 5058.386719 4769.523438 5061.4375 4766.671875 5065.136719 4763.222656 C 5075.988281 4753.222656 5122.488281 4706.570312 5135.039062 4693.21875 C 5157.042969 4669.667969 5171.441406 4653.617188 5189.992188 4631.96875 C 5357.050781 4437.15625 5487.105469 4199.847656 5570.5625 3937.433594 C 5630.113281 3750.226562 5665.015625 3552.816406 5673.964844 3352.40625 C 5675.714844 3314.15625 5676.015625 3298.855469 5676.015625 3249.152344 C 5676.015625 3201.300781 5675.714844 3186.148438 5674.265625 3152.898438 C 5667.816406 3008.441406 5647.363281 2860.734375 5614.511719 2721.828125 C 5583.011719 2588.472656 5539.960938 2460.414062 5485.605469 2338.359375 C 5463.304688 2288.207031 5435.304688 2231.753906 5409.652344 2185.101562 C 5336 2051.347656 5248.445312 1928.640625 5150.242188 1821.585938 C 5127.039062 1796.285156 5085.589844 1754.183594 5064.6875 1734.632812 L 5055.386719 1725.980469 L 5055.035156 1713.878906 C 5053.238281 1650.976562 5045.6875 1589.472656 5032.1875 1528.570312 C 5009.484375 1426.167969 4969.882812 1327.3125 4915.128906 1236.707031 C 4828.875 1093.851562 4706.421875 974.195312 4561.714844 891.441406 C 4538.210938 877.992188 4504.660156 860.789062 4481.460938 850.289062 C 4363.203125 796.835938 4241.648438 768.335938 4111.441406 763.535156 C 4099.59375 763.085938 4059.089844 762.984375 4047.191406 763.386719 Z M 4102.191406 1042.300781 C 4159.046875 1043.847656 4222.246094 1054.347656 4279.949219 1071.800781 C 4417.507812 1113.503906 4540.210938 1198.007812 4629.265625 1312.410156 C 4709.070312 1414.964844 4758.421875 1536.570312 4772.421875 1665.328125 C 4775.171875 1690.730469 4776.324219 1711.78125 4776.425781 1740.082031 C 4776.472656 1757.632812 4776.324219 1762.433594 4775.625 1767.582031 C 4775.125 1771.03125 4774.523438 1778.082031 4774.222656 1783.332031 C 4765.773438 1934.992188 4708.570312 2078.648438 4610.765625 2194.101562 C 4588.015625 2220.953125 4558.5625 2250.605469 4531.960938 2273.355469 C 4420.507812 2368.859375 4282.25 2426.613281 4135.695312 2438.863281 C 4122.191406 2439.964844 4051.039062 2440.914062 4037.789062 2440.164062 C 3927.335938 2433.765625 3822.429688 2402.261719 3727.425781 2346.960938 C 3586.867188 2265.15625 3478.5625 2135.800781 3421.660156 1981.84375 C 3399.007812 1920.539062 3383.660156 1850.535156 3379.410156 1788.832031 C 3379.007812 1782.785156 3378.308594 1774.332031 3377.859375 1770.082031 C 3377.160156 1763.582031 3377.109375 1758.03125 3377.308594 1735.582031 C 3377.558594 1709.429688 3377.859375 1702.730469 3379.457031 1683.328125 C 3391.308594 1537.921875 3449.3125 1399.164062 3544.917969 1287.558594 C 3627.320312 1191.304688 3733.523438 1119.300781 3852.929688 1078.75 C 3914.832031 1057.699219 3980.136719 1045.449219 4045.941406 1042.550781 C 4065.742188 1041.648438 4076.292969 1041.597656 4102.191406 1042.300781 Z M 5004.183594 2079.199219 C 5104.640625 2203.351562 5186.941406 2343.410156 5251.246094 2499.367188 C 5264.148438 2530.71875 5279.648438 2571.820312 5290.046875 2602.273438 C 5292.199219 2608.722656 5292.546875 2610.121094 5291.847656 2609.921875 C 5274.996094 2604.621094 5238.796875 2593.921875 5213.496094 2586.671875 C 5061.585938 2543.269531 4902.378906 2508.46875 4747.972656 2484.867188 C 4736.171875 2483.066406 4724.871094 2481.316406 4722.921875 2480.964844 L 4719.371094 2480.367188 L 4727.671875 2473.015625 C 4810.425781 2399.613281 4881.527344 2310.257812 4935.230469 2212.105469 C 4958.230469 2170.050781 4979.683594 2122.597656 4995.234375 2079.449219 C 4996.734375 2075.398438 4998.035156 2072.097656 4998.183594 2072.097656 C 4998.335938 2072.148438 5001.085938 2075.347656 5004.183594 2079.199219 Z M 3160.398438 2083.949219 C 3178.847656 2133.851562 3204.351562 2187.503906 3232.800781 2236.105469 C 3288.253906 2330.859375 3363.308594 2419.8125 3447.363281 2490.265625 L 3456.460938 2497.917969 L 3439.261719 2500.765625 C 3259.804688 2530.96875 3066.992188 2576.171875 2884.386719 2630.875 C 2870.085938 2635.171875 2857.882812 2638.773438 2857.285156 2638.921875 C 2856.234375 2639.222656 2856.734375 2637.523438 2863.085938 2618.574219 C 2925.289062 2432.964844 3011.441406 2267.355469 3121.796875 2121.097656 C 3130.648438 2109.398438 3135.546875 2103.097656 3152.746094 2081.347656 C 3155.046875 2078.496094 3157.046875 2076.148438 3157.199219 2076.148438 C 3157.347656 2076.097656 3158.796875 2079.648438 3160.398438 2083.949219 Z M 4172.695312 2719.128906 C 4478.261719 2723.726562 4758.722656 2759.230469 5034.234375 2828.132812 C 5148.441406 2856.683594 5247.046875 2886.683594 5367.75 2929.539062 L 5371.5 2930.886719 L 5372.851562 2939.636719 C 5384.402344 3013.042969 5392.253906 3090.195312 5395.503906 3162.398438 C 5397.851562 3214.5 5397.953125 3280.253906 5395.753906 3332.90625 C 5377.953125 3759.777344 5229.046875 4158.695312 4978.785156 4450.207031 C 4938.582031 4497.011719 4890.828125 4545.714844 4845.976562 4585.664062 C 4769.171875 4654.066406 4687.570312 4711.722656 4601.714844 4758.222656 C 4575.816406 4772.222656 4537.011719 4790.972656 4508.710938 4803.074219 C 4347.304688 4872.277344 4174.945312 4901.730469 4003.6875 4889.480469 C 3830.980469 4877.078125 3662.121094 4822.875 3508.914062 4730.621094 C 3245.402344 4572.015625 3031.542969 4309.550781 2901.234375 3984.9375 C 2820.832031 3784.578125 2774.429688 3568.21875 2763.878906 3344.65625 C 2762.230469 3309.054688 2761.929688 3294.203125 2761.929688 3248.902344 C 2761.878906 3203.398438 2762.179688 3189.398438 2763.929688 3153.648438 C 2766.929688 3090.246094 2773.480469 3021.742188 2782.28125 2960.6875 L 2782.878906 2956.539062 L 2786.832031 2955.089844 C 2794.429688 2952.339844 2849.035156 2934.1875 2871.484375 2926.9375 C 3243.652344 2807.179688 3620.019531 2738.078125 3985.6875 2722.378906 C 4024.039062 2720.726562 4030.839844 2720.578125 4072.191406 2720.078125 C 4095.691406 2719.777344 4117.992188 2719.378906 4121.691406 2719.175781 C 4131.894531 2718.628906 4137.695312 2718.578125 4172.695312 2719.128906 Z M 3374.859375 4975.683594 C 3431.960938 5009.386719 3493.164062 5040.035156 3553.167969 5065.085938 C 3695.921875 5124.738281 3845.28125 5159.84375 3996.1875 5169.191406 C 4028.238281 5171.191406 4038.339844 5171.492188 4079.441406 5171.492188 C 4119.292969 5171.492188 4130.09375 5171.191406 4159.195312 5169.441406 C 4375.90625 5156.441406 4588.113281 5090.886719 4781.625 4977.132812 L 4794.273438 4969.683594 L 4881.527344 5001.835938 C 4929.480469 5019.484375 4968.683594 5034.136719 4968.632812 5034.285156 C 4968.53125 5034.484375 4768.472656 5219.746094 4524.0625 5446.003906 L 4079.589844 5857.324219 L 4077.292969 5855.175781 C 4043.988281 5824.773438 3190.148438 5033.984375 3190.449219 5033.886719 C 3190.699219 5033.785156 3229.851562 5019.335938 3277.402344 5001.785156 C 3325.003906 4984.183594 3364.109375 4969.832031 3364.359375 4969.78125 C 3364.558594 4969.734375 3369.308594 4972.382812 3374.859375 4975.683594 Z M 3442.910156 5648.515625 C 3741.523438 5924.878906 3987.785156 6152.589844 3990.136719 6154.488281 C 4005.738281 6167.089844 4027.390625 6177.289062 4048.339844 6181.988281 C 4082.992188 6189.789062 4117.242188 6185.191406 4147.945312 6168.640625 C 4153.996094 6165.339844 4162.496094 6159.738281 4167.796875 6155.4375 C 4170.195312 6153.539062 4417.605469 5924.828125 4717.519531 5647.214844 C 5017.484375 5369.601562 5263.148438 5142.542969 5263.445312 5142.640625 C 5266.097656 5143.339844 5834.625 5353.101562 5844.523438 5357 C 5888.226562 5374.351562 5933.226562 5396.203125 5973.179688 5419.605469 C 6069.132812 5475.707031 6153.488281 5547.261719 6225.242188 5633.265625 C 6301.046875 5724.117188 6359.546875 5828.625 6397.351562 5940.628906 C 6424.601562 6021.433594 6440.550781 6103.886719 6445.550781 6189.539062 C 6446.003906 6196.691406 6446.550781 6212.191406 6446.800781 6224.042969 C 6447.101562 6237.191406 6447.300781 6477.453125 6447.300781 6844.171875 L 6447.300781 7442.847656 L 1712.082031 7442.847656 L 1712.082031 6831.671875 C 1712.082031 6435.203125 1712.28125 6216.140625 1712.582031 6208.039062 C 1718.832031 6051.183594 1762.082031 5902.027344 1840.6875 5766.269531 C 1896.890625 5669.265625 1970.292969 5582.210938 2056.847656 5510.007812 C 2134.398438 5445.304688 2222.105469 5393.304688 2315.457031 5356.5 C 2321.558594 5354.101562 2454.664062 5304.949219 2611.222656 5247.296875 L 2895.886719 5142.390625 L 2897.9375 5144.191406 C 2899.035156 5145.191406 3144.296875 5372.101562 3442.910156 5648.515625 Z M 3442.910156 5648.515625 "/>
</g>
</svg>
