<?xml version="1.0" encoding="UTF-8"?>
<svg xmlns="http://www.w3.org/2000/svg" xmlns:xlink="http://www.w3.org/1999/xlink" width="px" height="px" viewBox="0 0 8534 8534" version="1.1">
<g>
<path style=" stroke:none;fill-rule:nonzero;fill:rgb(0%,0%,0%);fill-opacity:1;" d="M 4247.949219 1152.605469 C 4177.996094 1158.253906 4115.042969 1193.105469 4073.140625 1249.308594 C 4045.539062 1286.359375 4029.4375 1330.164062 4026.238281 1376.964844 C 4025.488281 1387.765625 4025.488281 4096.992188 4026.238281 4107.792969 C 4029.839844 4160.445312 4049.691406 4208.949219 4084.042969 4249 C 4090.691406 4256.847656 4104.84375 4270.75 4112.742188 4277.25 C 4145.644531 4304.351562 4183.746094 4322.003906 4224.949219 4329.203125 C 4247.398438 4333.101562 4274.898438 4333.753906 4297.203125 4330.902344 C 4343.503906 4325.003906 4385.804688 4306.5 4422.207031 4276.25 C 4429.957031 4269.800781 4445.308594 4254.449219 4451.910156 4246.449219 C 4486.109375 4205.296875 4504.960938 4156.84375 4507.710938 4103.191406 C 4508.511719 4087.191406 4508.109375 1379.363281 4507.3125 1372.0625 C 4504.859375 1350.3125 4501.511719 1334.113281 4495.910156 1317.210938 C 4486.359375 1288.359375 4471.757812 1262.257812 4451.507812 1237.707031 C 4445.410156 1230.359375 4429.308594 1214.355469 4421.707031 1208.054688 C 4405.957031 1195.007812 4391.457031 1185.605469 4373.503906 1176.707031 C 4345.554688 1162.953125 4316.753906 1155.054688 4285 1152.554688 C 4277.601562 1151.953125 4255.347656 1152.003906 4247.949219 1152.605469 Z M 4247.949219 1152.605469 "/>
<path style=" stroke:none;fill-rule:nonzero;fill:rgb(0%,0%,0%);fill-opacity:1;" d="M 3259.652344 2063.898438 C 3234.75 2065.597656 3214.601562 2069.296875 3193.148438 2076.199219 C 3182.398438 2079.699219 3174.597656 2082.796875 3154.898438 2091.496094 C 3064.84375 2131.199219 2978.441406 2174.800781 2893.636719 2223.355469 C 2614.222656 2383.363281 2365.011719 2590.921875 2157.050781 2836.632812 C 1996.292969 3026.640625 1861.886719 3237.550781 1757.480469 3463.664062 C 1605.726562 3792.328125 1520.121094 4148.542969 1506.070312 4510.210938 C 1504.769531 4544.0625 1504.519531 4556.664062 1504.21875 4601.964844 C 1503.769531 4679.320312 1505.570312 4739.121094 1510.570312 4811.476562 C 1547.171875 5341.699219 1735.632812 5847.222656 2055.796875 6274.042969 C 2343.660156 6657.8125 2726.679688 6961.226562 3164.898438 7152.585938 C 3461.8125 7282.242188 3778.726562 7357.996094 4103.941406 7377.097656 C 4152.792969 7379.945312 4193.148438 7381.246094 4247.449219 7381.644531 C 4338.753906 7382.394531 4428.207031 7378.695312 4519.960938 7370.296875 C 4889.730469 7336.644531 5246.644531 7229.089844 5574.011719 7052.679688 C 5757.121094 6954.074219 5930.726562 6833.269531 6087.785156 6695.363281 C 6270.542969 6534.855469 6430.652344 6352.199219 6565.558594 6150.289062 C 6725.714844 5910.628906 6845.972656 5650.964844 6924.574219 5375.25 C 7005.628906 5090.839844 7040.179688 4794.574219 7027.078125 4496.210938 C 7007.378906 4048.441406 6878.421875 3611.96875 6651.460938 3224.699219 C 6442.503906 2868.234375 6156.089844 2562.871094 5814.023438 2331.808594 C 5694.46875 2251.054688 5571.410156 2181.152344 5439.253906 2119 C 5410.902344 2105.648438 5366.351562 2085.746094 5355 2081.347656 C 5298.347656 2059.445312 5235.796875 2057.945312 5178.042969 2077.148438 C 5156.492188 2084.347656 5133.941406 2095.398438 5114.988281 2108.097656 C 5050.6875 2151.152344 5009.484375 2219.753906 5000.882812 2298.109375 C 5000.183594 2304.609375 4999.984375 2310.257812 4999.984375 2324.609375 C 5000.035156 2344.109375 5000.484375 2350.511719 5002.984375 2366.0625 C 5014.636719 2437.863281 5055.386719 2501.367188 5115.488281 2541.46875 C 5128.589844 2550.21875 5141.839844 2557.320312 5158.492188 2564.621094 C 5213.246094 2588.671875 5260.398438 2611.324219 5309.25 2637.023438 C 5541.410156 2759.179688 5749.96875 2920.636719 5926.078125 3114.394531 C 6116.488281 3323.957031 6266.242188 3569.117188 6365.449219 3833.429688 C 6439.050781 4029.589844 6484.402344 4233.199219 6501.003906 4442.207031 C 6503.703125 4475.710938 6505.203125 4502.710938 6506.90625 4545.714844 C 6507.804688 4567.8125 6507.804688 4669.917969 6506.90625 4692.46875 C 6505.605469 4726.023438 6504.15625 4753.523438 6502.304688 4779.722656 C 6479.355469 5099.640625 6389.097656 5407.351562 6235.542969 5689.015625 C 6108.886719 5921.328125 5940.078125 6131.585938 5739.769531 6306.59375 C 5534.609375 6485.804688 5299.648438 6625.960938 5045.988281 6720.316406 C 4825.125 6802.46875 4591.914062 6849.070312 4355.453125 6858.320312 C 4314.902344 6859.871094 4246.449219 6860.371094 4208.699219 6859.320312 C 3965.636719 6852.570312 3733.875 6809.121094 3508.914062 6728.066406 C 3400.160156 6688.914062 3292.105469 6640.011719 3189.148438 6583.410156 C 2966.488281 6461.003906 2762.03125 6297.695312 2592.320312 6106.734375 C 2375.0625 5862.273438 2214.753906 5576.261719 2120.898438 5265.746094 C 2068.296875 5091.589844 2037.046875 4910.082031 2028.34375 4727.972656 C 2027.046875 4700.171875 2026.644531 4687.371094 2025.996094 4652.769531 C 2025.042969 4597.617188 2026.445312 4537.261719 2030.09375 4478.710938 C 2052.546875 4120.292969 2161.152344 3772.675781 2347.011719 3464.414062 C 2479.464844 3244.753906 2649.023438 3049.09375 2847.882812 2886.335938 C 2994.640625 2766.28125 3157.796875 2664.273438 3330.40625 2584.769531 C 3337.855469 2581.320312 3352.808594 2574.570312 3363.65625 2569.769531 C 3374.507812 2564.96875 3386.757812 2559.320312 3390.910156 2557.269531 C 3487.863281 2508.71875 3544.617188 2403.613281 3532.367188 2295.109375 C 3525.816406 2236.65625 3499.3125 2181.703125 3457.710938 2140.050781 C 3412.660156 2095.046875 3353.058594 2068.195312 3288.902344 2064.097656 C 3281.703125 2063.648438 3265.351562 2063.546875 3259.652344 2063.898438 Z M 3259.652344 2063.898438 "/>
</g>
</svg>
