<?xml version="1.0" encoding="UTF-8"?>
<svg xmlns="http://www.w3.org/2000/svg" xmlns:xlink="http://www.w3.org/1999/xlink" width="px" height="px" viewBox="0 0 8534 8534" version="1.1">
<g>
<path style=" stroke:none;fill-rule:nonzero;fill:rgb(0%,0%,0%);fill-opacity:1;" d="M 4065.191406 2780.378906 L 4065.191406 4525.210938 L 4455.207031 4525.210938 L 4455.207031 1035.546875 L 4065.191406 1035.546875 Z M 4065.191406 2780.378906 "/>
<path style=" stroke:none;fill-rule:nonzero;fill:rgb(0%,0%,0%);fill-opacity:1;" d="M 2478.117188 2003.445312 C 2294.757812 2131.398438 2129.75 2274.304688 1979.542969 2435.113281 C 1747.132812 2683.976562 1557.421875 2968.488281 1417.714844 3277.652344 C 1250.660156 3647.320312 1158.105469 4046.089844 1144.554688 4454.457031 C 1142.453125 4517.3125 1142.453125 4602.117188 1144.554688 4664.96875 C 1150.953125 4857.925781 1174.855469 5048.1875 1216.308594 5235.746094 C 1279.410156 5521.457031 1382.613281 5796.472656 1523.421875 6054.035156 C 1649.425781 6284.496094 1805.484375 6499.855469 1985.542969 6691.8125 C 2028.144531 6737.214844 2082.699219 6791.769531 2127.851562 6834.121094 C 2374.609375 7065.480469 2656.175781 7254.691406 2962.640625 7395.195312 C 3330.257812 7563.703125 3728.023438 7658.558594 4134.445312 7674.609375 C 4175.695312 7676.210938 4186.695312 7676.460938 4243 7676.710938 C 4310.753906 7677.011719 4342.304688 7676.511719 4397.957031 7674.109375 C 4806.824219 7656.457031 5207.542969 7558.605469 5577.011719 7386.195312 C 5629.0625 7361.945312 5687.167969 7332.742188 5737.617188 7305.542969 C 6040.582031 7142.183594 6315.296875 6929.125 6549.507812 6675.8125 C 6818.871094 6384.5 7029.480469 6046.132812 7171.1875 5677.265625 C 7202.789062 5594.960938 7232.238281 5507.007812 7256.589844 5422.253906 C 7326.394531 5178.992188 7365.996094 4929.632812 7375.34375 4674.21875 C 7376.796875 4634.066406 7377.046875 4616.316406 7377.046875 4559.964844 C 7377.097656 4503.609375 7376.796875 4484.910156 7375.34375 4445.207031 C 7366.445312 4202.847656 7330.34375 3965.835938 7267.089844 3734.675781 C 7198.4375 3483.8125 7098.332031 3242.453125 6969.175781 3016.390625 C 6848.222656 2804.582031 6702.164062 2607.023438 6535.054688 2429.113281 C 6511.605469 2404.164062 6499.804688 2392.0625 6466.601562 2358.8125 C 6433.300781 2325.558594 6420.902344 2313.457031 6396.550781 2290.605469 C 6297.34375 2197.503906 6194.339844 2112.648438 6083.535156 2032.796875 C 6059.484375 2015.445312 6037.183594 1999.992188 6036.582031 2000.242188 C 6035.882812 2000.542969 5814.773438 2319.707031 5814.773438 2320.410156 C 5814.773438 2320.660156 5816.421875 2321.957031 5818.421875 2323.359375 C 5820.371094 2324.707031 5828.574219 2330.410156 5836.523438 2336.058594 C 5937.726562 2407.511719 6038.433594 2489.714844 6129.039062 2574.820312 C 6170.289062 2613.621094 6218.640625 2662.175781 6257.09375 2703.375 C 6588.808594 3059.144531 6818.519531 3495.515625 6923.023438 3968.4375 C 6976.527344 4210.648438 6996.929688 4463.007812 6983.078125 4712.222656 C 6959.828125 5130.691406 6842.871094 5531.808594 6637.960938 5896.175781 C 6493.105469 6153.738281 6305.046875 6388.398438 6084.035156 6587.359375 C 5774.519531 6865.921875 5405.851562 7070.082031 5008.234375 7183.085938 C 4799.726562 7242.339844 4585.066406 7276.492188 4368.703125 7284.839844 C 4334.152344 7286.191406 4322.453125 7286.390625 4277.199219 7286.691406 C 4220.097656 7287.042969 4184.796875 7286.390625 4133.945312 7284.089844 C 3793.179688 7268.691406 3459.960938 7189.886719 3149.398438 7051.332031 C 3035.09375 7000.328125 2921.1875 6939.625 2815.132812 6873.171875 C 2529.820312 6694.414062 2280.207031 6465.054688 2077.996094 6195.890625 C 1962.742188 6042.433594 1864.386719 5877.976562 1783.734375 5703.765625 C 1637.527344 5388.101562 1553.574219 5046.386719 1536.320312 4696.71875 C 1533.820312 4645.917969 1533.320312 4623.265625 1533.320312 4559.964844 C 1533.320312 4494.960938 1534.023438 4466.460938 1536.820312 4413.207031 C 1558.574219 4004.789062 1669.726562 3612.320312 1864.835938 3254.902344 C 2028.34375 2955.386719 2248.804688 2687.277344 2511.867188 2468.066406 C 2569.171875 2420.3125 2631.824219 2372.3125 2690.625 2331.160156 C 2698.175781 2325.859375 2704.675781 2321.257812 2705.027344 2320.910156 C 2705.527344 2320.410156 2684.175781 2289.308594 2594.871094 2160.300781 C 2533.96875 2072.347656 2483.816406 2000.292969 2483.464844 2000.242188 C 2483.167969 2000.144531 2480.714844 2001.59375 2478.117188 2003.445312 Z M 2478.117188 2003.445312 "/>
</g>
</svg>
