<?xml version="1.0" encoding="UTF-8"?>
<svg xmlns="http://www.w3.org/2000/svg" xmlns:xlink="http://www.w3.org/1999/xlink" width="px" height="px" viewBox="0 0 8534 8534" version="1.1">
<g>
<path style=" stroke:none;fill-rule:nonzero;fill:rgb(0%,0%,0%);fill-opacity:1;" d="M 7506.101562 1770.933594 C 7477.25 1772.28125 7452.398438 1775.785156 7426.847656 1782.082031 C 7365.09375 1797.335938 7310.441406 1826.085938 7261.089844 1869.1875 C 7256.390625 1873.289062 6478.152344 2651.175781 5180.894531 3948.386719 L 3108.144531 6021.03125 L 2139.5 5052.4375 C 1599.476562 4512.460938 1167.503906 4080.890625 1163.304688 4077.191406 C 1095.652344 4017.386719 1013.996094 3983.585938 924.042969 3978.1875 C 913.394531 3977.535156 889.589844 3977.535156 879.042969 3978.1875 C 768.9375 3984.9375 670.03125 4034.789062 599.679688 4119.042969 C 546.425781 4182.796875 515.175781 4262.148438 509.972656 4346.605469 C 509.222656 4359.203125 509.675781 4393.457031 510.722656 4404.457031 C 514.375 4441.507812 521.574219 4473.660156 533.324219 4505.5625 C 550.425781 4552.011719 574.078125 4591.566406 608.179688 4630.71875 C 614.777344 4638.316406 2838.984375 6862.472656 2847.382812 6869.921875 C 2882.136719 6900.625 2919.636719 6923.925781 2961.488281 6940.726562 C 3032.242188 6969.226562 3109.644531 6976.378906 3185.398438 6961.527344 C 3228.800781 6953.027344 3271.953125 6936.375 3310.15625 6913.425781 C 3332.355469 6900.125 3352.808594 6884.972656 3372.15625 6867.523438 C 3377.808594 6862.472656 4786.925781 5453.355469 6993.128906 3246.652344 C 7441.699219 2797.980469 7811.617188 2427.613281 7815.117188 2423.613281 C 7870.269531 2361.109375 7903.421875 2285.457031 7911.820312 2203.054688 C 7915.921875 2163.25 7913.621094 2120.25 7905.371094 2081.496094 C 7886.820312 1994.695312 7840.667969 1918.140625 7772.363281 1861.085938 C 7717.960938 1815.636719 7649.257812 1785.035156 7578.855469 1774.882812 C 7555.105469 1771.433594 7527.101562 1769.933594 7506.101562 1770.933594 Z M 7506.101562 1770.933594 "/>
</g>
</svg>
