<?xml version="1.0" encoding="UTF-8"?>
<svg xmlns="http://www.w3.org/2000/svg" xmlns:xlink="http://www.w3.org/1999/xlink" width="px" height="px" viewBox="0 0 8534 8534" version="1.1">
<g>
<path style=" stroke:none;fill-rule:nonzero;fill:rgb(0%,0%,0%);fill-opacity:1;" d="M 4196.695312 762.886719 C 4154.945312 763.335938 4098.84375 765.1875 4053.941406 767.535156 C 3604.269531 791.335938 3166.898438 900.242188 2760.628906 1089.652344 C 2703.726562 1116.203125 2636.875 1149.804688 2580.871094 1179.90625 C 2309.410156 1326.0625 2057.246094 1508.371094 1832.335938 1721.03125 C 1787.582031 1763.332031 1735.332031 1815.585938 1693.03125 1860.335938 C 1474.21875 2091.746094 1288.109375 2351.261719 1139.703125 2631.875 C 894.441406 3095.546875 757.484375 3606.367188 737.285156 4132.445312 C 732.234375 4265.148438 734.433594 4395.605469 744.035156 4528.210938 C 779.335938 5014.984375 916.394531 5489.257812 1145.953125 5919.027344 C 1292.660156 6193.691406 1474.71875 6446.953125 1689.078125 6674.5625 C 1728.28125 6716.164062 1780.734375 6768.917969 1822.335938 6808.570312 C 2108.25 7080.980469 2436.863281 7302.792969 2795.382812 7465.351562 C 3022.042969 7568.105469 3259.902344 7646.457031 3503.265625 7698.5625 C 3811.628906 7764.613281 4127.34375 7788.714844 4445.707031 7770.5625 C 4892.328125 7745.164062 5329.851562 7634.257812 5733.519531 7444.199219 C 5783.472656 7420.699219 5842.125 7391.296875 5889.527344 7365.996094 C 6245.34375 7176.085938 6565.109375 6927.074219 6837.070312 6628.0625 C 7032.78125 6412.851562 7200.835938 6174.488281 7337.992188 5917.527344 C 7363.246094 5870.226562 7392.445312 5811.921875 7415.996094 5762.019531 C 7614.058594 5341.5 7725.613281 4886.777344 7745.363281 4419.207031 C 7747.664062 4364.90625 7748.113281 4339.851562 7748.113281 4269.449219 C 7748.113281 4199.046875 7747.664062 4173.996094 7745.363281 4119.691406 C 7731.460938 3791.378906 7672.507812 3469.863281 7569.355469 3160.148438 C 7411.347656 2685.625 7152.234375 2249.40625 6809.570312 1881.089844 C 6759.117188 1826.835938 6699.464844 1766.832031 6645.5625 1716.082031 C 6312.796875 1402.765625 5923.527344 1157.902344 5499.007812 994.796875 C 5183.492188 873.589844 4852.277344 799.039062 4513.960938 773.035156 C 4409.007812 764.984375 4305.203125 761.6875 4196.695312 762.886719 Z M 4282.199219 1153.054688 C 4317.453125 1153.554688 4337.601562 1154.105469 4368.453125 1155.304688 C 4771.421875 1171.355469 5165.542969 1264.859375 5530.757812 1431.066406 C 5592.664062 1459.269531 5659.316406 1492.371094 5719.269531 1524.671875 C 5889.675781 1616.625 6052.484375 1725.230469 6203.289062 1847.535156 C 6608.359375 2176.101562 6925.324219 2600.773438 7123.382812 3080.246094 C 7251.988281 3391.609375 7328.742188 3721.125 7351.34375 4058.941406 C 7358.695312 4169.445312 7360.246094 4285.652344 7355.84375 4395.707031 C 7336.695312 4870.878906 7211.488281 5329.550781 6987.226562 5745.769531 C 6799.070312 6094.984375 6544.65625 6406.550781 6239.292969 6661.863281 C 5985.832031 6873.722656 5700.71875 7043.980469 5395.753906 7165.585938 C 5083.789062 7289.992188 4755.921875 7362.34375 4418.707031 7381.347656 C 4319.203125 7386.945312 4215.996094 7387.796875 4116.441406 7383.847656 C 3783.578125 7370.644531 3458.011719 7305.140625 3148.148438 7189.085938 C 2763.378906 7044.980469 2410.214844 6825.121094 2108.347656 6541.804688 C 2063.398438 6499.605469 2004.894531 6440.902344 1962.09375 6395.050781 C 1673.878906 6086.285156 1450.519531 5720.917969 1308.210938 5325.5 C 1211.957031 5057.988281 1153.304688 4780.222656 1132.851562 4494.960938 C 1123.800781 4369.003906 1122.402344 4236.648438 1128.804688 4109.941406 C 1148.203125 3726.726562 1237.058594 3353.605469 1392.066406 3004.890625 C 1529.121094 2696.578125 1715.878906 2412.113281 1945.140625 2162.351562 C 1995.195312 2107.796875 2051.046875 2051.296875 2105.796875 1999.644531 C 2354.511719 1765.28125 2642.875 1571.671875 2953.136719 1430.71875 C 3343.65625 1253.308594 3765.578125 1159.105469 4196.445312 1153.105469 C 4235.847656 1152.554688 4246.097656 1152.554688 4282.199219 1153.054688 Z M 4282.199219 1153.054688 "/>
<path style=" stroke:none;fill-rule:nonzero;fill:rgb(0%,0%,0%);fill-opacity:1;" d="M 4756.972656 4062.691406 L 3851.929688 4967.734375 L 3433.8125 4549.613281 L 3015.640625 4131.445312 L 2739.628906 4407.457031 L 3230 4897.78125 C 3583.519531 5251.246094 3722.175781 5389.550781 3726.726562 5393.304688 C 3739.523438 5403.851562 3751.675781 5411.753906 3765.925781 5418.753906 C 3785.027344 5428.105469 3804.976562 5434.15625 3826.179688 5436.953125 C 3881.632812 5444.355469 3937.484375 5427.65625 3979.9375 5391.003906 C 3982.4375 5388.851562 4424.105469 4947.480469 4961.484375 4410.15625 L 5938.527344 3433.160156 L 5800.773438 3295.40625 C 5725.019531 3219.652344 5662.816406 3157.648438 5662.515625 3157.648438 C 5662.265625 3157.648438 5254.746094 3564.917969 4756.972656 4062.691406 Z M 4756.972656 4062.691406 "/>
</g>
</svg>
