<?xml version="1.0" encoding="UTF-8"?>
<svg xmlns="http://www.w3.org/2000/svg" xmlns:xlink="http://www.w3.org/1999/xlink" viewBox="0 0 24 24" version="1.1">
<g>
<path style=" stroke:none;fill-rule:nonzero;fill:rgb(0%,0%,0%);fill-opacity:1;" d="M 2.03125 2.660156 C 2.027344 2.660156 2.015625 2.660156 2.003906 2.660156 C 1.957031 2.667969 1.914062 2.683594 1.871094 2.703125 C 1.792969 2.746094 1.726562 2.808594 1.6875 2.886719 C 1.65625 2.945312 1.644531 3 1.640625 3.066406 C 1.636719 3.167969 1.671875 3.265625 1.738281 3.347656 C 1.75 3.363281 1.78125 3.394531 1.796875 3.40625 C 1.867188 3.460938 1.945312 3.492188 2.035156 3.5 C 2.046875 3.5 2.835938 3.535156 3.792969 3.578125 C 4.746094 3.621094 5.527344 3.65625 5.527344 3.65625 C 5.527344 3.65625 6.238281 6.128906 7.109375 9.148438 C 7.976562 12.167969 8.691406 14.648438 8.695312 14.660156 C 8.738281 14.789062 8.84375 14.890625 8.980469 14.929688 C 9.046875 14.949219 9.117188 14.949219 9.183594 14.933594 C 9.207031 14.929688 9.246094 14.917969 9.269531 14.90625 C 9.355469 14.867188 9.425781 14.796875 9.472656 14.710938 C 9.503906 14.644531 9.515625 14.585938 9.515625 14.511719 C 9.511719 14.46875 9.507812 14.441406 9.492188 14.390625 C 9.488281 14.375 8.757812 11.832031 7.867188 8.738281 C 6.976562 5.644531 6.246094 3.109375 6.246094 3.101562 C 6.222656 3.042969 6.191406 2.996094 6.148438 2.953125 C 6.082031 2.886719 5.996094 2.84375 5.902344 2.832031 C 5.882812 2.828125 2.09375 2.65625 2.058594 2.65625 C 2.046875 2.65625 2.035156 2.660156 2.03125 2.660156 Z M 2.03125 2.660156 "/>
<path style=" stroke:none;fill-rule:nonzero;fill:rgb(0%,0%,0%);fill-opacity:1;" d="M 18.671875 3.898438 C 18.652344 3.902344 18.632812 3.902344 18.613281 3.910156 C 18.597656 3.910156 15.109375 4.914062 15.074219 4.925781 C 15.023438 4.941406 14.976562 4.964844 14.933594 5 C 14.917969 5.015625 14.886719 5.042969 14.871094 5.0625 C 14.824219 5.121094 14.796875 5.1875 14.785156 5.257812 C 14.773438 5.3125 14.777344 5.367188 14.789062 5.421875 C 14.789062 5.429688 14.886719 5.769531 15.007812 6.179688 C 15.210938 6.898438 15.21875 6.925781 15.21875 6.925781 C 15.199219 6.933594 13.335938 7.464844 13.335938 7.464844 C 13.335938 7.464844 13.238281 7.128906 13.121094 6.71875 C 13.003906 6.308594 12.902344 5.964844 12.898438 5.953125 C 12.867188 5.867188 12.804688 5.789062 12.722656 5.742188 C 12.632812 5.6875 12.523438 5.667969 12.417969 5.691406 C 12.398438 5.695312 8.617188 6.78125 8.589844 6.792969 C 8.542969 6.808594 8.496094 6.835938 8.457031 6.871094 C 8.390625 6.929688 8.339844 7.007812 8.320312 7.097656 C 8.316406 7.128906 8.3125 7.148438 8.3125 7.1875 C 8.3125 7.226562 8.316406 7.246094 8.320312 7.277344 C 8.324219 7.292969 10.535156 14.980469 10.539062 14.980469 C 10.539062 14.984375 11.210938 14.789062 11.335938 14.753906 C 11.347656 14.75 11.347656 14.75 11.347656 14.746094 C 11.34375 14.746094 10.875 13.109375 10.300781 11.113281 C 9.726562 9.117188 9.257812 7.480469 9.257812 7.480469 L 9.253906 7.476562 L 10.734375 7.050781 C 11.550781 6.816406 12.214844 6.625 12.214844 6.625 C 12.21875 6.625 12.3125 6.960938 12.433594 7.375 C 12.550781 7.785156 12.648438 8.128906 12.652344 8.136719 C 12.703125 8.265625 12.808594 8.363281 12.941406 8.398438 C 12.980469 8.40625 13.011719 8.410156 13.058594 8.410156 C 13.09375 8.40625 13.117188 8.40625 13.144531 8.398438 C 13.171875 8.390625 15.871094 7.613281 15.890625 7.609375 C 15.949219 7.585938 16.011719 7.546875 16.054688 7.496094 C 16.121094 7.421875 16.160156 7.328125 16.164062 7.226562 C 16.164062 7.1875 16.160156 7.148438 16.152344 7.113281 C 16.148438 7.105469 16.050781 6.765625 15.933594 6.359375 C 15.816406 5.953125 15.722656 5.617188 15.722656 5.617188 C 15.722656 5.613281 18.414062 4.839844 18.414062 4.84375 C 18.414062 4.84375 18.988281 6.84375 19.691406 9.289062 C 20.394531 11.730469 20.972656 13.730469 20.972656 13.730469 C 20.972656 13.730469 21.78125 13.5 21.78125 13.5 C 21.78125 13.5 19.109375 4.210938 19.101562 4.1875 C 19.050781 4.03125 18.914062 3.921875 18.753906 3.902344 C 18.730469 3.898438 18.695312 3.898438 18.671875 3.898438 Z M 18.671875 3.898438 "/>
<path style=" stroke:none;fill-rule:nonzero;fill:rgb(0%,0%,0%);fill-opacity:1;" d="M 14.953125 9.464844 C 14.882812 9.472656 14.816406 9.5 14.757812 9.539062 C 14.714844 9.570312 14.675781 9.617188 14.644531 9.660156 C 14.628906 9.691406 14.609375 9.730469 14.601562 9.765625 C 14.589844 9.796875 13.988281 12.285156 13.984375 12.300781 C 13.976562 12.355469 13.976562 12.414062 13.988281 12.464844 C 14.027344 12.640625 14.179688 12.773438 14.359375 12.792969 C 14.386719 12.792969 14.4375 12.792969 14.464844 12.789062 C 14.488281 12.785156 14.519531 12.777344 14.542969 12.769531 C 14.582031 12.753906 14.632812 12.726562 14.667969 12.699219 C 14.683594 12.683594 14.714844 12.65625 14.730469 12.636719 C 14.761719 12.597656 14.789062 12.546875 14.804688 12.496094 C 14.804688 12.488281 14.863281 12.246094 14.933594 11.953125 C 15.007812 11.660156 15.0625 11.421875 15.066406 11.421875 C 15.066406 11.421875 15.28125 11.976562 15.546875 12.660156 C 15.8125 13.339844 16.03125 13.902344 16.035156 13.914062 C 16.054688 13.957031 16.082031 13.996094 16.121094 14.03125 C 16.144531 14.054688 16.15625 14.066406 16.183594 14.085938 C 16.234375 14.117188 16.289062 14.136719 16.347656 14.148438 C 16.433594 14.164062 16.527344 14.148438 16.609375 14.105469 C 16.679688 14.070312 16.738281 14.015625 16.78125 13.945312 C 16.808594 13.898438 16.828125 13.84375 16.835938 13.789062 C 16.835938 13.765625 16.839844 13.722656 16.835938 13.699219 C 16.832031 13.664062 16.828125 13.628906 16.816406 13.597656 C 16.8125 13.589844 16.589844 13.011719 16.320312 12.320312 C 15.757812 10.878906 15.820312 11.039062 15.824219 11.039062 C 15.851562 11.0625 16.71875 11.722656 16.730469 11.730469 C 16.828125 11.796875 16.957031 11.816406 17.074219 11.785156 C 17.160156 11.761719 17.238281 11.707031 17.292969 11.636719 C 17.363281 11.546875 17.390625 11.4375 17.378906 11.328125 C 17.367188 11.234375 17.324219 11.144531 17.257812 11.078125 C 17.25 11.070312 17.234375 11.058594 17.226562 11.050781 C 17.195312 11.023438 15.257812 9.546875 15.242188 9.535156 C 15.183594 9.496094 15.121094 9.472656 15.050781 9.464844 C 15.027344 9.460938 14.976562 9.460938 14.953125 9.464844 Z M 14.953125 9.464844 "/>
<path style=" stroke:none;fill-rule:nonzero;fill:rgb(0%,0%,0%);fill-opacity:1;" d="M 21.90625 14.636719 C 21.882812 14.640625 21.851562 14.644531 21.828125 14.652344 C 21.757812 14.671875 13.988281 16.90625 13.976562 16.910156 C 13.957031 16.917969 13.9375 16.925781 13.921875 16.9375 C 13.839844 16.980469 13.777344 17.050781 13.738281 17.136719 C 13.691406 17.242188 13.691406 17.363281 13.734375 17.472656 C 13.796875 17.613281 13.929688 17.710938 14.085938 17.726562 C 14.097656 17.726562 14.113281 17.726562 14.136719 17.726562 C 14.171875 17.726562 14.195312 17.722656 14.222656 17.714844 C 14.238281 17.710938 21.902344 15.507812 22.035156 15.46875 C 22.097656 15.449219 22.128906 15.4375 22.171875 15.410156 C 22.230469 15.367188 22.28125 15.3125 22.3125 15.246094 C 22.34375 15.183594 22.359375 15.125 22.359375 15.058594 C 22.359375 14.988281 22.34375 14.933594 22.3125 14.871094 C 22.25 14.742188 22.128906 14.65625 21.988281 14.640625 C 21.96875 14.636719 21.925781 14.636719 21.90625 14.636719 Z M 21.90625 14.636719 "/>
<path style=" stroke:none;fill-rule:nonzero;fill:rgb(0%,0%,0%);fill-opacity:1;" d="M 9.683594 15.882812 C 9.59375 15.886719 9.5625 15.890625 9.503906 15.894531 C 9.222656 15.921875 8.945312 15.988281 8.683594 16.089844 C 8.5625 16.140625 8.445312 16.195312 8.332031 16.257812 C 7.914062 16.492188 7.550781 16.839844 7.289062 17.25 C 7.089844 17.5625 6.953125 17.90625 6.878906 18.269531 C 6.851562 18.40625 6.835938 18.535156 6.828125 18.691406 C 6.824219 18.734375 6.824219 18.886719 6.828125 18.9375 C 6.832031 19.09375 6.851562 19.242188 6.878906 19.390625 C 6.964844 19.839844 7.148438 20.246094 7.417969 20.609375 C 7.5 20.71875 7.582031 20.808594 7.679688 20.90625 C 7.746094 20.976562 7.792969 21.023438 7.859375 21.078125 C 8.269531 21.429688 8.765625 21.660156 9.292969 21.75 L 9.335938 21.757812 L 10.230469 21.757812 L 10.273438 21.75 C 10.753906 21.671875 11.203125 21.472656 11.589844 21.171875 C 11.878906 20.945312 12.125 20.667969 12.3125 20.351562 C 12.648438 19.796875 12.789062 19.148438 12.71875 18.511719 C 12.652344 17.953125 12.4375 17.429688 12.085938 16.996094 C 11.972656 16.851562 11.84375 16.71875 11.699219 16.597656 C 11.472656 16.398438 11.210938 16.238281 10.933594 16.117188 C 10.683594 16.011719 10.417969 15.941406 10.148438 15.90625 C 10.082031 15.898438 10.003906 15.890625 9.921875 15.886719 C 9.898438 15.882812 9.707031 15.882812 9.683594 15.882812 Z M 9.898438 16.726562 C 9.96875 16.734375 10.019531 16.738281 10.078125 16.746094 C 10.425781 16.796875 10.761719 16.9375 11.042969 17.148438 C 11.128906 17.210938 11.195312 17.269531 11.273438 17.351562 C 11.324219 17.398438 11.347656 17.421875 11.382812 17.46875 C 11.636719 17.761719 11.800781 18.113281 11.863281 18.496094 C 11.875 18.570312 11.882812 18.632812 11.890625 18.722656 C 11.890625 18.734375 11.890625 18.777344 11.890625 18.8125 C 11.894531 18.90625 11.890625 18.960938 11.882812 19.042969 C 11.839844 19.480469 11.65625 19.898438 11.363281 20.234375 C 11.316406 20.285156 11.246094 20.359375 11.195312 20.402344 C 10.988281 20.59375 10.746094 20.738281 10.476562 20.832031 C 10.183594 20.933594 9.855469 20.972656 9.542969 20.933594 C 9.238281 20.902344 8.945312 20.796875 8.679688 20.636719 C 8.417969 20.476562 8.191406 20.257812 8.019531 20 C 7.761719 19.617188 7.640625 19.148438 7.671875 18.6875 C 7.691406 18.445312 7.75 18.203125 7.851562 17.976562 C 7.867188 17.945312 7.902344 17.875 7.917969 17.839844 C 8.113281 17.480469 8.40625 17.183594 8.757812 16.988281 C 8.792969 16.96875 8.863281 16.933594 8.898438 16.917969 C 9.140625 16.804688 9.402344 16.742188 9.664062 16.726562 C 9.683594 16.726562 9.699219 16.726562 9.703125 16.726562 C 9.722656 16.726562 9.875 16.726562 9.898438 16.726562 Z M 9.898438 16.726562 "/>
</g>
</svg>
