<?xml version="1.0" encoding="UTF-8"?>
<svg xmlns="http://www.w3.org/2000/svg" xmlns:xlink="http://www.w3.org/1999/xlink" viewBox="0 0 24 24" version="1.1">
<g>
<path style=" stroke:none;fill-rule:nonzero;fill:rgb(0%,0%,0%);fill-opacity:1;" d="M 13.117188 1.195312 C 13.085938 1.195312 13.054688 1.203125 13.019531 1.214844 C 12.996094 1.222656 7.03125 3.695312 7.007812 3.707031 C 6.972656 3.722656 6.945312 3.742188 6.917969 3.769531 C 6.855469 3.824219 6.820312 3.894531 6.808594 3.976562 C 6.804688 4.003906 6.804688 4.054688 6.808594 4.078125 C 6.8125 4.101562 6.816406 4.125 6.824219 4.144531 C 6.828125 4.164062 9.515625 10.652344 9.527344 10.679688 C 9.574219 10.773438 9.660156 10.84375 9.765625 10.867188 C 9.796875 10.875 9.8125 10.878906 9.855469 10.878906 C 9.886719 10.878906 9.894531 10.878906 9.910156 10.875 C 9.933594 10.871094 9.953125 10.867188 9.972656 10.859375 C 10.003906 10.847656 15.976562 8.371094 15.996094 8.363281 C 16.074219 8.324219 16.132812 8.257812 16.167969 8.175781 C 16.175781 8.148438 16.183594 8.117188 16.191406 8.085938 C 16.191406 8.066406 16.191406 8.011719 16.1875 7.988281 C 16.1875 7.964844 16.175781 7.933594 16.167969 7.910156 C 16.152344 7.871094 13.476562 1.40625 13.46875 1.390625 C 13.429688 1.320312 13.367188 1.257812 13.292969 1.226562 C 13.265625 1.214844 13.234375 1.203125 13.203125 1.199219 C 13.191406 1.195312 13.148438 1.191406 13.140625 1.191406 C 13.136719 1.191406 13.128906 1.191406 13.117188 1.195312 Z M 14.148438 4.9375 C 14.8125 6.535156 15.351562 7.84375 15.351562 7.84375 C 15.355469 7.84375 13.964844 8.417969 13.964844 8.417969 C 13.964844 8.417969 13.808594 8.042969 13.621094 7.585938 C 13.429688 7.132812 13.273438 6.75 13.269531 6.742188 C 13.230469 6.65625 13.152344 6.589844 13.058594 6.558594 C 13.015625 6.542969 12.988281 6.539062 12.941406 6.539062 C 12.898438 6.539062 12.867188 6.542969 12.828125 6.558594 C 12.800781 6.566406 10.953125 7.332031 10.925781 7.34375 C 10.816406 7.402344 10.742188 7.507812 10.726562 7.636719 C 10.726562 7.65625 10.726562 7.703125 10.730469 7.722656 C 10.734375 7.742188 10.738281 7.765625 10.742188 7.78125 C 10.746094 7.792969 10.902344 8.171875 11.09375 8.632812 C 11.285156 9.089844 11.4375 9.464844 11.4375 9.464844 C 11.4375 9.464844 10.050781 10.039062 10.050781 10.039062 C 10.050781 10.039062 7.933594 4.925781 7.644531 4.230469 L 7.644531 4.226562 L 8.335938 3.941406 L 9.03125 3.652344 L 9.035156 3.660156 C 9.035156 3.664062 9.191406 4.035156 9.378906 4.488281 C 9.566406 4.941406 9.722656 5.320312 9.726562 5.328125 C 9.769531 5.421875 9.859375 5.492188 9.960938 5.519531 C 10.027344 5.539062 10.101562 5.535156 10.171875 5.515625 C 10.191406 5.507812 12.050781 4.734375 12.070312 4.726562 C 12.179688 4.671875 12.253906 4.5625 12.269531 4.441406 C 12.269531 4.421875 12.269531 4.378906 12.269531 4.359375 C 12.265625 4.332031 12.261719 4.3125 12.253906 4.285156 C 12.25 4.28125 12.09375 3.898438 11.902344 3.441406 C 11.714844 2.980469 11.558594 2.605469 11.558594 2.605469 C 11.558594 2.605469 12.945312 2.03125 12.945312 2.03125 C 12.945312 2.03125 13.488281 3.339844 14.148438 4.9375 Z M 11.160156 3.546875 C 11.308594 3.90625 11.433594 4.207031 11.433594 4.207031 C 11.429688 4.207031 10.25 4.695312 10.25 4.695312 C 10.25 4.691406 9.703125 3.375 9.703125 3.375 C 9.707031 3.371094 10.882812 2.886719 10.882812 2.886719 C 10.886719 2.886719 10.964844 3.074219 11.160156 3.546875 Z M 13.019531 8.035156 C 13.167969 8.398438 13.292969 8.695312 13.292969 8.695312 C 13.292969 8.699219 12.113281 9.1875 12.113281 9.1875 C 12.109375 9.183594 11.566406 7.867188 11.566406 7.867188 C 11.570312 7.863281 12.746094 7.378906 12.746094 7.378906 C 12.746094 7.378906 12.871094 7.675781 13.019531 8.035156 Z M 13.019531 8.035156 "/>
<path style=" stroke:none;fill-rule:nonzero;fill:rgb(0%,0%,0%);fill-opacity:1;" d="M 5.132812 2.617188 C 5.105469 2.621094 5.070312 2.625 5.042969 2.636719 C 5.015625 2.644531 2.457031 3.707031 2.441406 3.714844 C 2.375 3.746094 2.320312 3.800781 2.285156 3.863281 C 2.253906 3.921875 2.238281 3.984375 2.242188 4.050781 C 2.242188 4.082031 2.246094 4.101562 2.25 4.128906 C 2.257812 4.15625 2.265625 4.171875 2.277344 4.199219 C 2.296875 4.238281 2.3125 4.261719 2.34375 4.292969 C 2.402344 4.351562 2.472656 4.386719 2.558594 4.398438 C 2.578125 4.402344 2.632812 4.402344 2.652344 4.398438 C 2.679688 4.394531 2.699219 4.390625 2.722656 4.382812 C 2.730469 4.378906 3.242188 4.167969 3.851562 3.914062 C 4.464844 3.664062 4.964844 3.457031 4.964844 3.457031 C 4.96875 3.457031 11 18.015625 11 18.019531 C 11 18.019531 10.992188 18.023438 10.984375 18.03125 C 10.726562 18.1875 10.503906 18.378906 10.316406 18.609375 C 10.011719 18.980469 9.816406 19.441406 9.757812 19.921875 C 9.722656 20.1875 9.734375 20.464844 9.785156 20.726562 C 9.875 21.179688 10.085938 21.605469 10.390625 21.945312 C 10.453125 22.015625 10.535156 22.101562 10.605469 22.164062 C 11.027344 22.535156 11.5625 22.757812 12.125 22.800781 C 12.183594 22.804688 12.207031 22.804688 12.28125 22.804688 C 12.398438 22.808594 12.484375 22.800781 12.597656 22.789062 C 13.128906 22.730469 13.644531 22.5 14.042969 22.136719 C 14.316406 21.890625 14.527344 21.589844 14.675781 21.246094 C 14.789062 20.980469 14.855469 20.695312 14.875 20.410156 C 14.882812 20.324219 14.882812 20.199219 14.878906 20.125 C 14.871094 19.945312 14.847656 19.785156 14.808594 19.625 C 14.804688 19.609375 14.800781 19.597656 14.800781 19.597656 C 14.800781 19.597656 16.316406 18.96875 18.171875 18.199219 C 20.023438 17.433594 21.546875 16.800781 21.558594 16.796875 C 21.648438 16.75 21.714844 16.667969 21.746094 16.574219 C 21.777344 16.460938 21.753906 16.34375 21.683594 16.25 C 21.671875 16.234375 21.640625 16.203125 21.625 16.1875 C 21.589844 16.160156 21.542969 16.136719 21.496094 16.121094 C 21.460938 16.109375 21.433594 16.109375 21.394531 16.109375 C 21.351562 16.109375 21.320312 16.113281 21.28125 16.125 C 21.273438 16.128906 19.746094 16.757812 17.894531 17.527344 C 16.039062 18.296875 14.523438 18.921875 14.523438 18.921875 C 14.523438 18.921875 14.519531 18.917969 14.511719 18.910156 C 14.425781 18.757812 14.3125 18.609375 14.1875 18.476562 C 14.164062 18.449219 14.097656 18.382812 14.070312 18.355469 L 14.050781 18.335938 L 16.628906 17.269531 C 18.050781 16.679688 19.222656 16.195312 19.230469 16.191406 C 19.289062 16.160156 19.34375 16.113281 19.378906 16.058594 C 19.414062 16 19.433594 15.933594 19.433594 15.863281 C 19.433594 15.820312 19.425781 15.789062 19.414062 15.75 C 19.40625 15.730469 16.734375 9.273438 16.714844 9.230469 C 16.699219 9.191406 16.671875 9.152344 16.640625 9.125 C 16.585938 9.066406 16.511719 9.03125 16.433594 9.019531 C 16.410156 9.015625 16.355469 9.015625 16.335938 9.019531 C 16.3125 9.023438 16.289062 9.027344 16.269531 9.035156 C 16.25 9.042969 10.265625 11.519531 10.246094 11.53125 C 10.210938 11.546875 10.183594 11.566406 10.15625 11.59375 C 10.105469 11.644531 10.070312 11.703125 10.054688 11.769531 C 10.046875 11.800781 10.046875 11.8125 10.046875 11.855469 C 10.046875 11.890625 10.046875 11.898438 10.050781 11.914062 C 10.054688 11.933594 10.058594 11.953125 10.0625 11.972656 C 10.066406 11.976562 10.597656 13.261719 11.246094 14.824219 C 11.890625 16.386719 12.421875 17.664062 12.421875 17.664062 C 12.421875 17.664062 12.390625 17.664062 12.355469 17.664062 C 12.140625 17.65625 11.921875 17.683594 11.707031 17.734375 C 11.6875 17.738281 11.671875 17.742188 11.671875 17.742188 C 11.671875 17.742188 10.28125 14.386719 8.582031 10.285156 C 6.886719 6.1875 5.492188 2.828125 5.488281 2.820312 C 5.441406 2.722656 5.351562 2.648438 5.242188 2.625 C 5.207031 2.617188 5.167969 2.613281 5.132812 2.617188 Z M 17.390625 12.761719 C 18.050781 14.359375 18.59375 15.667969 18.59375 15.667969 C 18.59375 15.667969 17.207031 16.242188 17.207031 16.242188 C 17.207031 16.242188 17.050781 15.867188 16.863281 15.414062 C 16.671875 14.957031 16.515625 14.578125 16.511719 14.570312 C 16.472656 14.484375 16.398438 14.417969 16.308594 14.386719 C 16.265625 14.371094 16.21875 14.363281 16.171875 14.363281 C 16.132812 14.363281 16.101562 14.371094 16.070312 14.382812 C 16.042969 14.390625 14.183594 15.160156 14.164062 15.171875 C 14.09375 15.207031 14.035156 15.269531 14 15.34375 C 13.960938 15.429688 13.957031 15.527344 13.988281 15.613281 C 13.992188 15.621094 14.148438 16.003906 14.335938 16.457031 C 14.523438 16.914062 14.679688 17.289062 14.679688 17.289062 C 14.679688 17.289062 13.289062 17.851562 13.285156 17.851562 C 13.285156 17.851562 10.882812 12.050781 10.882812 12.050781 C 10.882812 12.050781 11.195312 11.921875 11.578125 11.765625 C 11.957031 11.609375 12.269531 11.476562 12.269531 11.476562 C 12.273438 11.476562 12.324219 11.597656 12.617188 12.308594 C 12.808594 12.769531 12.964844 13.148438 12.972656 13.160156 C 13.027344 13.265625 13.128906 13.339844 13.25 13.355469 C 13.277344 13.355469 13.328125 13.355469 13.355469 13.351562 C 13.375 13.347656 13.398438 13.34375 13.414062 13.335938 C 13.441406 13.328125 15.300781 12.554688 15.316406 12.550781 C 15.332031 12.539062 15.359375 12.523438 15.375 12.507812 C 15.390625 12.496094 15.417969 12.46875 15.429688 12.453125 C 15.507812 12.359375 15.53125 12.226562 15.492188 12.113281 C 15.488281 12.101562 15.332031 11.714844 15.140625 11.261719 C 14.953125 10.804688 14.800781 10.429688 14.800781 10.429688 C 14.800781 10.429688 16.183594 9.855469 16.1875 9.855469 C 16.1875 9.855469 16.730469 11.164062 17.390625 12.761719 Z M 14.398438 11.367188 C 14.546875 11.730469 14.671875 12.027344 14.671875 12.027344 C 14.671875 12.027344 14.539062 12.085938 14.105469 12.265625 C 13.792969 12.394531 13.527344 12.503906 13.515625 12.507812 L 13.492188 12.519531 L 13.21875 11.859375 C 13.066406 11.496094 12.945312 11.199219 12.945312 11.199219 C 12.945312 11.199219 14.125 10.707031 14.125 10.707031 C 14.125 10.707031 14.25 11.003906 14.398438 11.367188 Z M 16.261719 15.863281 C 16.410156 16.222656 16.53125 16.519531 16.53125 16.519531 C 16.535156 16.519531 16.300781 16.617188 15.941406 16.765625 C 15.617188 16.902344 15.351562 17.011719 15.351562 17.011719 C 15.351562 17.007812 14.804688 15.691406 14.804688 15.691406 C 14.804688 15.691406 15.070312 15.582031 15.398438 15.445312 C 15.96875 15.210938 15.988281 15.203125 15.988281 15.203125 C 15.988281 15.207031 16.113281 15.503906 16.261719 15.863281 Z M 12.414062 18.390625 C 12.519531 18.398438 12.613281 18.410156 12.707031 18.433594 C 13 18.496094 13.28125 18.636719 13.507812 18.832031 C 13.558594 18.875 13.632812 18.945312 13.675781 18.992188 C 13.773438 19.101562 13.847656 19.207031 13.921875 19.335938 C 13.941406 19.371094 13.980469 19.457031 14 19.492188 C 14.089844 19.699219 14.136719 19.898438 14.152344 20.128906 C 14.152344 20.144531 14.152344 20.183594 14.152344 20.234375 C 14.152344 20.316406 14.152344 20.335938 14.148438 20.398438 C 14.113281 20.769531 13.964844 21.128906 13.726562 21.414062 C 13.691406 21.457031 13.664062 21.488281 13.613281 21.539062 C 13.550781 21.601562 13.507812 21.640625 13.445312 21.691406 C 13.300781 21.800781 13.128906 21.894531 12.957031 21.960938 C 12.78125 22.027344 12.613281 22.0625 12.417969 22.078125 C 12.382812 22.078125 12.238281 22.078125 12.203125 22.078125 C 12.105469 22.070312 12.03125 22.058594 11.945312 22.042969 C 11.738281 22 11.539062 21.925781 11.359375 21.816406 C 11.234375 21.742188 11.121094 21.652344 11.019531 21.550781 C 10.921875 21.457031 10.84375 21.363281 10.773438 21.253906 C 10.585938 20.972656 10.484375 20.652344 10.464844 20.316406 C 10.464844 20.273438 10.464844 20.152344 10.46875 20.113281 C 10.480469 19.933594 10.515625 19.773438 10.574219 19.609375 C 10.679688 19.316406 10.855469 19.058594 11.085938 18.851562 C 11.339844 18.628906 11.65625 18.476562 11.992188 18.417969 C 12.074219 18.402344 12.144531 18.394531 12.246094 18.390625 C 12.265625 18.390625 12.394531 18.390625 12.414062 18.390625 Z M 12.414062 18.390625 "/>
<path style=" stroke:none;fill-rule:nonzero;fill:rgb(0%,0%,0%);fill-opacity:1;" d="M 12.257812 18.941406 C 11.992188 18.949219 11.730469 19.046875 11.515625 19.210938 C 11.238281 19.425781 11.058594 19.753906 11.023438 20.105469 C 11.011719 20.195312 11.011719 20.292969 11.023438 20.378906 C 11.0625 20.734375 11.246094 21.054688 11.53125 21.269531 C 11.71875 21.414062 11.945312 21.5 12.179688 21.523438 C 12.226562 21.527344 12.257812 21.527344 12.3125 21.527344 C 12.363281 21.527344 12.394531 21.527344 12.441406 21.523438 C 12.738281 21.492188 13.015625 21.363281 13.226562 21.152344 C 13.378906 20.996094 13.492188 20.804688 13.554688 20.59375 C 13.578125 20.503906 13.59375 20.417969 13.601562 20.316406 C 13.605469 20.285156 13.605469 20.179688 13.601562 20.148438 C 13.589844 19.96875 13.546875 19.8125 13.46875 19.65625 C 13.425781 19.570312 13.375 19.492188 13.316406 19.417969 C 13.265625 19.355469 13.199219 19.289062 13.140625 19.238281 C 12.890625 19.03125 12.582031 18.925781 12.257812 18.941406 Z M 12.34375 19.667969 C 12.4375 19.671875 12.527344 19.699219 12.605469 19.75 C 12.644531 19.773438 12.675781 19.796875 12.710938 19.832031 C 12.746094 19.867188 12.769531 19.898438 12.792969 19.9375 C 12.839844 20.011719 12.867188 20.089844 12.875 20.175781 C 12.878906 20.199219 12.878906 20.273438 12.875 20.296875 C 12.859375 20.410156 12.820312 20.503906 12.753906 20.589844 C 12.734375 20.613281 12.691406 20.65625 12.667969 20.675781 C 12.59375 20.734375 12.507812 20.773438 12.417969 20.792969 C 12.386719 20.796875 12.371094 20.800781 12.328125 20.800781 C 12.277344 20.800781 12.238281 20.796875 12.195312 20.789062 C 12.019531 20.75 11.875 20.636719 11.800781 20.480469 C 11.769531 20.421875 11.753906 20.363281 11.746094 20.292969 C 11.742188 20.269531 11.742188 20.207031 11.746094 20.183594 C 11.753906 20.109375 11.769531 20.042969 11.800781 19.980469 C 11.839844 19.910156 11.886719 19.847656 11.949219 19.796875 C 12.058594 19.707031 12.203125 19.65625 12.34375 19.667969 Z M 12.34375 19.667969 "/>
</g>
</svg>
