<?xml version="1.0" encoding="UTF-8"?>
<svg xmlns="http://www.w3.org/2000/svg" xmlns:xlink="http://www.w3.org/1999/xlink" viewBox="0 0 24 24" version="1.1">
<g>
<path style=" stroke:none;fill-rule:nonzero;fill:rgb(0%,0%,0%);fill-opacity:1;" d="M 7.835938 1.339844 C 7.816406 1.339844 7.800781 1.34375 7.773438 1.351562 C 7.746094 1.363281 7.742188 1.363281 7.71875 1.375 C 7.699219 1.386719 7.683594 1.398438 7.667969 1.410156 C 7.660156 1.417969 6.773438 2.300781 5.699219 3.378906 C 4.175781 4.902344 3.738281 5.339844 3.730469 5.351562 C 3.722656 5.363281 3.707031 5.386719 3.699219 5.40625 C 3.691406 5.417969 3.679688 5.457031 3.675781 5.476562 C 3.675781 5.484375 3.671875 5.5 3.671875 5.511719 C 3.671875 5.527344 3.671875 7.800781 3.671875 13.339844 C 3.671875 20.847656 3.671875 21.148438 3.671875 21.164062 C 3.683594 21.222656 3.707031 21.269531 3.746094 21.316406 C 3.769531 21.34375 3.800781 21.367188 3.835938 21.386719 C 3.863281 21.398438 3.898438 21.410156 3.929688 21.414062 C 3.9375 21.414062 6.339844 21.414062 11.824219 21.414062 C 18.867188 21.414062 19.710938 21.414062 19.726562 21.410156 C 19.753906 21.40625 19.792969 21.398438 19.816406 21.382812 C 19.851562 21.367188 19.886719 21.339844 19.910156 21.308594 C 19.925781 21.289062 19.9375 21.273438 19.949219 21.25 C 19.964844 21.214844 19.976562 21.183594 19.976562 21.148438 C 19.980469 21.136719 19.980469 18.238281 19.980469 11.363281 L 19.980469 1.597656 L 19.976562 1.582031 C 19.964844 1.519531 19.9375 1.472656 19.898438 1.429688 C 19.851562 1.382812 19.800781 1.351562 19.730469 1.339844 C 19.714844 1.339844 19.445312 1.339844 13.78125 1.335938 C 10.519531 1.335938 7.84375 1.339844 7.835938 1.339844 Z M 19.394531 11.375 L 19.394531 20.828125 L 4.257812 20.828125 L 4.257812 5.820312 L 6.070312 5.820312 C 7.273438 5.820312 7.886719 5.820312 7.894531 5.820312 C 7.992188 5.808594 8.074219 5.75 8.121094 5.664062 C 8.132812 5.640625 8.144531 5.613281 8.152344 5.582031 L 8.152344 5.566406 L 8.15625 3.746094 L 8.15625 1.921875 L 19.394531 1.921875 Z M 7.566406 3.789062 L 7.566406 5.234375 L 4.671875 5.234375 L 6.121094 3.789062 C 6.914062 2.992188 7.566406 2.339844 7.566406 2.339844 C 7.566406 2.339844 7.566406 2.992188 7.566406 3.789062 Z M 7.566406 3.789062 "/>
<path style=" stroke:none;fill-rule:nonzero;fill:rgb(0%,0%,0%);fill-opacity:1;" d="M 11.457031 3.710938 C 11.351562 3.726562 11.265625 3.796875 11.226562 3.894531 C 11.222656 3.910156 11.214844 3.929688 11.210938 3.949219 L 11.207031 3.964844 L 11.207031 5.398438 L 10.5 5.398438 C 10.011719 5.398438 9.789062 5.398438 9.777344 5.398438 C 9.703125 5.40625 9.632812 5.445312 9.585938 5.503906 C 9.558594 5.535156 9.539062 5.578125 9.527344 5.617188 C 9.519531 5.652344 9.519531 5.59375 9.519531 6.371094 C 9.519531 6.859375 9.519531 7.082031 9.519531 7.089844 C 9.523438 7.125 9.535156 7.15625 9.546875 7.183594 C 9.59375 7.277344 9.679688 7.335938 9.785156 7.347656 C 9.792969 7.347656 10.03125 7.347656 10.503906 7.347656 L 11.207031 7.347656 L 11.207031 8.058594 C 11.207031 8.6875 11.207031 8.769531 11.210938 8.78125 C 11.21875 8.863281 11.261719 8.933594 11.324219 8.980469 C 11.367188 9.011719 11.417969 9.03125 11.472656 9.035156 C 11.480469 9.039062 11.683594 9.039062 12.191406 9.039062 C 12.859375 9.035156 12.898438 9.035156 12.910156 9.035156 C 12.929688 9.03125 12.957031 9.023438 12.96875 9.019531 C 13.074219 8.976562 13.144531 8.882812 13.15625 8.769531 C 13.15625 8.757812 13.15625 8.53125 13.15625 8.050781 L 13.15625 7.347656 L 13.871094 7.347656 C 14.527344 7.347656 14.585938 7.347656 14.597656 7.34375 C 14.628906 7.339844 14.65625 7.332031 14.683594 7.320312 C 14.773438 7.273438 14.835938 7.1875 14.84375 7.085938 C 14.847656 7.074219 14.847656 6.847656 14.847656 6.371094 C 14.847656 5.621094 14.847656 5.660156 14.839844 5.625 C 14.828125 5.570312 14.792969 5.511719 14.75 5.472656 C 14.703125 5.433594 14.652344 5.410156 14.589844 5.402344 C 14.574219 5.398438 14.492188 5.398438 13.867188 5.398438 L 13.15625 5.398438 L 13.15625 3.972656 L 13.152344 3.953125 C 13.148438 3.921875 13.140625 3.894531 13.125 3.871094 C 13.082031 3.78125 13 3.722656 12.902344 3.710938 C 12.890625 3.710938 12.800781 3.710938 12.179688 3.710938 C 11.5 3.710938 11.472656 3.710938 11.457031 3.710938 Z M 12.570312 5 C 12.570312 5.460938 12.570312 5.710938 12.574219 5.722656 C 12.582031 5.789062 12.609375 5.847656 12.65625 5.894531 C 12.699219 5.941406 12.753906 5.96875 12.820312 5.980469 C 12.835938 5.984375 12.871094 5.984375 13.546875 5.984375 L 14.261719 5.984375 L 14.261719 6.761719 L 13.554688 6.761719 C 13.070312 6.761719 12.84375 6.761719 12.835938 6.765625 C 12.757812 6.773438 12.683594 6.8125 12.636719 6.871094 C 12.609375 6.90625 12.585938 6.949219 12.578125 6.992188 C 12.570312 7.023438 12.570312 6.984375 12.570312 7.746094 L 12.570312 8.453125 L 11.792969 8.453125 L 11.792969 7.738281 C 11.792969 7.066406 11.792969 7.027344 11.789062 7.011719 C 11.78125 6.960938 11.761719 6.917969 11.734375 6.878906 C 11.722656 6.863281 11.691406 6.832031 11.675781 6.820312 C 11.632812 6.789062 11.582031 6.769531 11.527344 6.765625 C 11.519531 6.761719 11.285156 6.761719 10.808594 6.761719 L 10.105469 6.761719 L 10.105469 5.984375 L 10.804688 5.984375 C 11.273438 5.984375 11.511719 5.984375 11.523438 5.984375 C 11.640625 5.972656 11.742188 5.894531 11.777344 5.785156 C 11.785156 5.765625 11.785156 5.757812 11.789062 5.734375 C 11.792969 5.722656 11.792969 5.664062 11.792969 5.007812 L 11.792969 4.292969 L 12.570312 4.292969 Z M 12.570312 5 "/>
<path style=" stroke:none;fill-rule:nonzero;fill:rgb(0%,0%,0%);fill-opacity:1;" d="M 6.988281 10.371094 C 6.921875 10.375 6.855469 10.40625 6.808594 10.453125 C 6.765625 10.496094 6.738281 10.550781 6.726562 10.613281 C 6.726562 10.625 6.726562 10.667969 6.726562 11.367188 C 6.722656 11.898438 6.726562 12.109375 6.726562 12.121094 C 6.730469 12.175781 6.753906 12.230469 6.789062 12.277344 C 6.800781 12.289062 6.824219 12.3125 6.839844 12.324219 C 6.878906 12.355469 6.929688 12.375 6.980469 12.382812 C 6.988281 12.382812 8.574219 12.382812 12.183594 12.382812 C 16.75 12.382812 17.375 12.382812 17.386719 12.382812 C 17.523438 12.363281 17.628906 12.25 17.640625 12.113281 C 17.640625 12.085938 17.640625 10.664062 17.640625 10.636719 C 17.628906 10.507812 17.535156 10.402344 17.40625 10.375 C 17.398438 10.371094 17.382812 10.371094 17.375 10.371094 C 17.351562 10.367188 7.007812 10.367188 6.988281 10.371094 Z M 17.054688 11.375 L 17.054688 11.796875 L 7.3125 11.796875 L 7.3125 10.953125 L 17.054688 10.953125 Z M 17.054688 11.375 "/>
<path style=" stroke:none;fill-rule:nonzero;fill:rgb(0%,0%,0%);fill-opacity:1;" d="M 6.980469 13.714844 C 6.917969 13.722656 6.859375 13.753906 6.816406 13.792969 C 6.765625 13.84375 6.734375 13.90625 6.726562 13.976562 C 6.726562 13.988281 6.722656 14.199219 6.726562 14.730469 C 6.726562 15.429688 6.726562 15.472656 6.726562 15.484375 C 6.742188 15.566406 6.785156 15.636719 6.855469 15.679688 C 6.886719 15.703125 6.925781 15.71875 6.96875 15.726562 L 6.984375 15.730469 L 12.167969 15.730469 C 15.898438 15.730469 17.359375 15.730469 17.371094 15.726562 C 17.429688 15.722656 17.480469 15.703125 17.527344 15.667969 C 17.539062 15.65625 17.570312 15.628906 17.582031 15.613281 C 17.613281 15.570312 17.636719 15.515625 17.640625 15.457031 C 17.640625 15.441406 17.640625 15.21875 17.640625 14.707031 C 17.640625 14.027344 17.640625 13.980469 17.636719 13.964844 C 17.632812 13.933594 17.625 13.90625 17.613281 13.882812 C 17.570312 13.792969 17.484375 13.730469 17.386719 13.71875 C 17.371094 13.714844 16.773438 13.714844 12.179688 13.714844 C 9.324219 13.714844 6.984375 13.714844 6.980469 13.714844 Z M 17.054688 14.722656 L 17.054688 15.144531 L 7.3125 15.144531 L 7.3125 14.300781 L 17.054688 14.300781 Z M 17.054688 14.722656 "/>
<path style=" stroke:none;fill-rule:nonzero;fill:rgb(0%,0%,0%);fill-opacity:1;" d="M 6.992188 17.0625 C 6.902344 17.070312 6.820312 17.117188 6.773438 17.191406 C 6.75 17.222656 6.738281 17.257812 6.726562 17.300781 L 6.726562 18.058594 C 6.722656 18.589844 6.726562 18.804688 6.726562 18.8125 C 6.742188 18.953125 6.847656 19.058594 6.988281 19.074219 C 6.996094 19.074219 7.714844 19.074219 9.609375 19.074219 C 12.097656 19.074219 12.21875 19.074219 12.230469 19.070312 C 12.238281 19.070312 12.25 19.066406 12.257812 19.066406 C 12.363281 19.039062 12.445312 18.953125 12.46875 18.847656 C 12.476562 18.8125 12.476562 18.859375 12.476562 18.066406 C 12.476562 17.363281 12.476562 17.328125 12.472656 17.3125 C 12.460938 17.246094 12.4375 17.195312 12.394531 17.152344 C 12.367188 17.125 12.34375 17.105469 12.3125 17.089844 C 12.28125 17.074219 12.25 17.066406 12.21875 17.0625 C 12.203125 17.058594 11.8125 17.058594 9.597656 17.058594 C 8.167969 17.058594 6.992188 17.0625 6.992188 17.0625 Z M 11.890625 18.066406 L 11.890625 18.488281 L 7.3125 18.488281 L 7.3125 17.644531 L 11.890625 17.644531 Z M 11.890625 18.066406 "/>
</g>
</svg>
