<?xml version="1.0" encoding="UTF-8"?>
<svg xmlns="http://www.w3.org/2000/svg" xmlns:xlink="http://www.w3.org/1999/xlink" viewBox="0 0 24 24" version="1.1">
<g>
<path style=" stroke:none;fill-rule:nonzero;fill:rgb(0%,0%,0%);fill-opacity:1;" d="M 7.722656 2.785156 C 7.460938 2.792969 7.226562 2.820312 6.980469 2.867188 C 6.082031 3.050781 5.265625 3.519531 4.648438 4.207031 C 4.371094 4.515625 4.136719 4.867188 3.957031 5.242188 C 3.734375 5.714844 3.601562 6.21875 3.5625 6.738281 C 3.550781 6.863281 3.546875 6.972656 3.550781 7.109375 C 3.550781 7.199219 3.550781 7.230469 3.554688 7.308594 C 3.589844 7.941406 3.769531 8.566406 4.078125 9.128906 C 4.316406 9.558594 4.625 9.949219 4.992188 10.273438 C 5.035156 10.3125 5.078125 10.351562 5.113281 10.378906 C 5.128906 10.390625 5.140625 10.402344 5.140625 10.402344 C 5.140625 10.402344 5.132812 10.40625 5.125 10.410156 C 4.585938 10.707031 4.085938 11.101562 3.671875 11.5625 C 3.273438 12.007812 2.949219 12.511719 2.710938 13.058594 C 2.496094 13.546875 2.355469 14.0625 2.289062 14.59375 C 2.265625 14.792969 2.25 14.980469 2.246094 15.1875 C 2.242188 15.28125 2.242188 17.25 2.246094 17.273438 C 2.257812 17.402344 2.328125 17.507812 2.4375 17.570312 C 2.507812 17.609375 2.597656 17.625 2.679688 17.613281 C 2.828125 17.589844 2.949219 17.476562 2.980469 17.328125 C 2.984375 17.316406 2.988281 17.304688 2.988281 17.296875 C 2.988281 17.28125 2.992188 17.21875 2.992188 16.21875 C 2.992188 15.429688 2.992188 15.148438 2.992188 15.125 C 3 15.007812 3.003906 14.957031 3.007812 14.890625 C 3.039062 14.5 3.117188 14.121094 3.242188 13.753906 C 3.503906 12.964844 3.96875 12.257812 4.589844 11.699219 C 5.007812 11.328125 5.484375 11.027344 6.007812 10.816406 C 6.054688 10.796875 6.082031 10.785156 6.109375 10.761719 C 6.175781 10.710938 6.21875 10.644531 6.246094 10.566406 C 6.261719 10.511719 6.261719 10.441406 6.25 10.382812 C 6.234375 10.3125 6.199219 10.246094 6.148438 10.199219 C 6.121094 10.167969 6.105469 10.15625 6.046875 10.121094 C 5.644531 9.886719 5.292969 9.574219 5.011719 9.199219 C 4.847656 8.980469 4.710938 8.75 4.601562 8.5 C 4.425781 8.109375 4.324219 7.695312 4.300781 7.269531 C 4.296875 7.199219 4.296875 7.152344 4.296875 7.074219 C 4.296875 6.953125 4.300781 6.863281 4.308594 6.753906 C 4.378906 6 4.683594 5.289062 5.191406 4.71875 C 5.273438 4.628906 5.378906 4.519531 5.472656 4.4375 C 5.882812 4.066406 6.375 3.796875 6.90625 3.652344 C 7.28125 3.550781 7.671875 3.511719 8.066406 3.535156 C 8.816406 3.585938 9.527344 3.867188 10.105469 4.347656 C 10.191406 4.421875 10.246094 4.472656 10.335938 4.5625 C 10.441406 4.671875 10.507812 4.742188 10.609375 4.867188 C 10.640625 4.90625 10.667969 4.933594 10.703125 4.953125 C 10.789062 5.011719 10.898438 5.03125 11 5.003906 C 11.046875 4.992188 11.097656 4.964844 11.140625 4.933594 C 11.15625 4.921875 11.183594 4.890625 11.199219 4.875 C 11.238281 4.824219 11.265625 4.765625 11.277344 4.695312 C 11.28125 4.671875 11.28125 4.613281 11.277344 4.589844 C 11.265625 4.53125 11.246094 4.480469 11.214844 4.433594 C 11.195312 4.402344 11.101562 4.289062 11.027344 4.207031 C 10.933594 4.105469 10.8125 3.980469 10.707031 3.886719 C 10.304688 3.519531 9.828125 3.230469 9.3125 3.042969 C 8.882812 2.886719 8.433594 2.800781 7.964844 2.785156 C 7.925781 2.78125 7.757812 2.78125 7.722656 2.785156 Z M 7.722656 2.785156 "/>
<path style=" stroke:none;fill-rule:nonzero;fill:rgb(0%,0%,0%);fill-opacity:1;" d="M 15.90625 2.785156 C 15.632812 2.792969 15.378906 2.820312 15.125 2.875 C 14.242188 3.0625 13.441406 3.523438 12.835938 4.199219 C 12.757812 4.285156 12.660156 4.402344 12.636719 4.4375 C 12.597656 4.5 12.574219 4.566406 12.574219 4.640625 C 12.574219 4.742188 12.613281 4.839844 12.6875 4.910156 C 12.746094 4.964844 12.8125 5 12.894531 5.011719 C 12.921875 5.015625 12.96875 5.015625 12.996094 5.011719 C 13.054688 5.003906 13.109375 4.984375 13.15625 4.953125 C 13.191406 4.929688 13.214844 4.90625 13.253906 4.855469 C 13.429688 4.640625 13.625 4.445312 13.839844 4.277344 C 14.128906 4.050781 14.453125 3.871094 14.796875 3.746094 C 14.875 3.714844 14.992188 3.679688 15.078125 3.65625 C 15.527344 3.53125 16 3.5 16.460938 3.554688 C 17.132812 3.640625 17.761719 3.917969 18.285156 4.351562 C 18.449219 4.488281 18.597656 4.640625 18.734375 4.800781 C 18.863281 4.957031 18.976562 5.117188 19.078125 5.289062 C 19.355469 5.765625 19.519531 6.300781 19.550781 6.855469 C 19.558594 6.933594 19.558594 6.960938 19.558594 7.070312 C 19.558594 7.183594 19.558594 7.207031 19.550781 7.289062 C 19.503906 8.082031 19.183594 8.84375 18.644531 9.441406 C 18.601562 9.488281 18.578125 9.511719 18.511719 9.578125 C 18.410156 9.679688 18.332031 9.75 18.222656 9.835938 C 18.085938 9.945312 17.949219 10.039062 17.78125 10.140625 C 17.679688 10.199219 17.613281 10.300781 17.597656 10.417969 C 17.59375 10.445312 17.59375 10.496094 17.601562 10.527344 C 17.609375 10.566406 17.617188 10.597656 17.636719 10.632812 C 17.671875 10.703125 17.730469 10.761719 17.800781 10.796875 C 17.8125 10.800781 17.835938 10.8125 17.851562 10.816406 C 18.011719 10.882812 18.203125 10.972656 18.359375 11.0625 C 18.894531 11.355469 19.359375 11.738281 19.746094 12.199219 C 20.402344 12.988281 20.789062 13.964844 20.855469 14.992188 C 20.855469 15.035156 20.859375 15.050781 20.863281 15.136719 C 20.863281 15.160156 20.863281 15.464844 20.863281 16.226562 C 20.863281 17.210938 20.863281 17.285156 20.867188 17.296875 C 20.875 17.347656 20.886719 17.375 20.90625 17.414062 C 20.921875 17.449219 20.945312 17.480469 20.972656 17.507812 C 21.050781 17.585938 21.152344 17.625 21.257812 17.617188 C 21.3125 17.613281 21.355469 17.601562 21.402344 17.578125 C 21.4375 17.5625 21.46875 17.539062 21.496094 17.511719 C 21.527344 17.480469 21.550781 17.449219 21.570312 17.414062 C 21.589844 17.375 21.601562 17.335938 21.609375 17.285156 C 21.609375 17.277344 21.609375 17.046875 21.609375 16.304688 C 21.609375 15.238281 21.609375 15.175781 21.605469 15.03125 C 21.5625 14.144531 21.3125 13.292969 20.878906 12.527344 C 20.667969 12.160156 20.414062 11.808594 20.128906 11.503906 C 20.058594 11.429688 19.945312 11.3125 19.878906 11.25 C 19.59375 10.980469 19.289062 10.746094 18.953125 10.542969 C 18.890625 10.5 18.796875 10.449219 18.734375 10.414062 C 18.722656 10.40625 18.714844 10.402344 18.714844 10.402344 C 18.714844 10.402344 18.730469 10.386719 18.75 10.371094 C 18.960938 10.195312 19.160156 9.996094 19.335938 9.78125 C 19.589844 9.472656 19.800781 9.125 19.960938 8.753906 C 20.230469 8.117188 20.347656 7.429688 20.292969 6.742188 C 20.261719 6.328125 20.171875 5.925781 20.019531 5.535156 C 19.953125 5.355469 19.867188 5.171875 19.773438 5.003906 C 19.597656 4.6875 19.382812 4.394531 19.132812 4.128906 C 19.078125 4.070312 18.976562 3.96875 18.914062 3.910156 C 18.507812 3.535156 18.027344 3.242188 17.515625 3.050781 C 17.074219 2.886719 16.621094 2.800781 16.144531 2.785156 C 16.109375 2.78125 15.941406 2.78125 15.90625 2.785156 Z M 15.90625 2.785156 "/>
<path style=" stroke:none;fill-rule:nonzero;fill:rgb(0%,0%,0%);fill-opacity:1;" d="M 11.953125 5.714844 C 11.945312 5.714844 11.921875 5.714844 11.898438 5.714844 C 11.582031 5.726562 11.269531 5.777344 10.945312 5.863281 C 10.34375 6.023438 9.785156 6.3125 9.3125 6.710938 C 9.085938 6.898438 8.875 7.113281 8.691406 7.347656 C 8.464844 7.636719 8.273438 7.957031 8.128906 8.296875 C 7.867188 8.910156 7.75 9.578125 7.785156 10.25 C 7.8125 10.714844 7.917969 11.183594 8.097656 11.617188 C 8.179688 11.816406 8.277344 12.011719 8.386719 12.195312 C 8.640625 12.625 8.96875 13.003906 9.355469 13.320312 L 9.371094 13.332031 L 9.367188 13.335938 C 9.351562 13.34375 9.273438 13.386719 9.234375 13.410156 C 8.4375 13.875 7.769531 14.527344 7.292969 15.3125 C 6.800781 16.117188 6.523438 17.03125 6.480469 17.976562 C 6.476562 18.089844 6.476562 18.125 6.476562 19.179688 C 6.476562 20.175781 6.476562 20.21875 6.480469 20.234375 C 6.484375 20.253906 6.492188 20.285156 6.496094 20.304688 C 6.507812 20.335938 6.53125 20.378906 6.554688 20.40625 C 6.566406 20.421875 6.597656 20.453125 6.613281 20.464844 C 6.703125 20.539062 6.824219 20.566406 6.941406 20.535156 C 7.039062 20.511719 7.125 20.445312 7.175781 20.355469 C 7.195312 20.316406 7.207031 20.277344 7.21875 20.230469 C 7.21875 20.214844 7.21875 20.15625 7.222656 19.160156 C 7.222656 18.402344 7.222656 18.09375 7.222656 18.070312 C 7.226562 17.984375 7.226562 17.964844 7.230469 17.921875 C 7.269531 17.328125 7.414062 16.746094 7.660156 16.207031 C 7.996094 15.476562 8.507812 14.84375 9.152344 14.359375 C 9.480469 14.113281 9.855469 13.902344 10.238281 13.746094 C 10.304688 13.71875 10.34375 13.691406 10.382812 13.652344 C 10.410156 13.621094 10.429688 13.59375 10.449219 13.554688 C 10.46875 13.519531 10.476562 13.488281 10.484375 13.445312 C 10.488281 13.417969 10.488281 13.371094 10.484375 13.34375 C 10.472656 13.257812 10.433594 13.183594 10.375 13.125 C 10.34375 13.097656 10.332031 13.089844 10.261719 13.046875 C 9.890625 12.824219 9.554688 12.535156 9.285156 12.191406 C 8.738281 11.496094 8.472656 10.621094 8.535156 9.746094 C 8.570312 9.238281 8.710938 8.753906 8.949219 8.3125 C 9.15625 7.929688 9.433594 7.585938 9.761719 7.308594 C 10.136719 6.988281 10.570312 6.753906 11.042969 6.609375 C 11.269531 6.542969 11.5 6.496094 11.722656 6.476562 C 11.898438 6.457031 12.089844 6.453125 12.269531 6.464844 C 13.003906 6.507812 13.707031 6.777344 14.285156 7.242188 C 14.621094 7.515625 14.90625 7.847656 15.125 8.21875 C 15.410156 8.707031 15.570312 9.246094 15.601562 9.8125 C 15.609375 9.933594 15.609375 10.082031 15.601562 10.203125 C 15.566406 10.792969 15.386719 11.363281 15.070312 11.871094 C 14.96875 12.035156 14.839844 12.207031 14.71875 12.34375 C 14.617188 12.460938 14.519531 12.554688 14.414062 12.648438 C 14.25 12.796875 14.070312 12.925781 13.882812 13.039062 C 13.816406 13.078125 13.808594 13.082031 13.792969 13.09375 C 13.773438 13.109375 13.746094 13.140625 13.730469 13.15625 C 13.695312 13.203125 13.667969 13.257812 13.65625 13.3125 C 13.640625 13.378906 13.644531 13.453125 13.667969 13.523438 C 13.679688 13.554688 13.707031 13.597656 13.726562 13.625 C 13.738281 13.640625 13.765625 13.667969 13.78125 13.679688 C 13.816406 13.707031 13.84375 13.722656 13.894531 13.746094 C 14.371094 13.941406 14.792969 14.195312 15.179688 14.515625 C 15.296875 14.613281 15.382812 14.695312 15.5 14.808594 C 15.566406 14.878906 15.59375 14.90625 15.644531 14.960938 C 16.023438 15.375 16.324219 15.847656 16.542969 16.367188 C 16.632812 16.589844 16.707031 16.816406 16.765625 17.050781 C 16.847656 17.378906 16.894531 17.695312 16.910156 18.035156 C 16.910156 18.128906 16.914062 18.238281 16.914062 19.195312 C 16.914062 20.28125 16.910156 20.210938 16.917969 20.25 C 16.9375 20.347656 17 20.4375 17.085938 20.492188 C 17.105469 20.503906 17.136719 20.519531 17.15625 20.527344 C 17.296875 20.574219 17.449219 20.539062 17.554688 20.433594 C 17.605469 20.378906 17.640625 20.316406 17.652344 20.234375 L 17.65625 20.21875 L 17.65625 19.179688 C 17.65625 18.058594 17.65625 18.070312 17.648438 17.921875 C 17.625 17.425781 17.53125 16.933594 17.371094 16.457031 C 17.253906 16.101562 17.105469 15.769531 16.917969 15.445312 C 16.515625 14.742188 15.957031 14.128906 15.289062 13.660156 C 15.128906 13.546875 14.945312 13.433594 14.78125 13.34375 C 14.773438 13.339844 14.765625 13.332031 14.765625 13.332031 C 14.765625 13.332031 14.777344 13.320312 14.792969 13.308594 C 15.226562 12.949219 15.585938 12.507812 15.855469 12.007812 C 15.875 11.964844 15.929688 11.851562 15.953125 11.8125 C 16.117188 11.453125 16.230469 11.085938 16.296875 10.703125 C 16.324219 10.523438 16.34375 10.34375 16.351562 10.144531 C 16.355469 10.050781 16.351562 9.882812 16.347656 9.773438 C 16.308594 9.003906 16.0625 8.269531 15.632812 7.625 C 15.414062 7.296875 15.148438 7 14.847656 6.742188 C 14.445312 6.398438 13.984375 6.128906 13.488281 5.957031 C 13.15625 5.839844 12.816406 5.765625 12.460938 5.730469 C 12.394531 5.726562 12.328125 5.71875 12.238281 5.714844 C 12.210938 5.714844 11.980469 5.714844 11.953125 5.714844 Z M 11.953125 5.714844 "/>
</g>
</svg>
