<?xml version="1.0" encoding="UTF-8"?>
<svg xmlns="http://www.w3.org/2000/svg" xmlns:xlink="http://www.w3.org/1999/xlink" viewBox="0 0 24 24" version="1.1">
<g>
<path style=" stroke:none;fill-rule:nonzero;fill:rgb(0%,0%,0%);fill-opacity:1;" d="M 16.03125 1.96875 C 15.410156 1.976562 14.792969 2.089844 14.207031 2.304688 C 14.011719 2.375 13.824219 2.457031 13.632812 2.550781 C 13.492188 2.621094 13.382812 2.683594 13.257812 2.757812 C 12.285156 3.34375 11.511719 4.203125 11.042969 5.234375 C 11.003906 5.316406 10.972656 5.394531 10.9375 5.484375 C 10.640625 6.226562 10.507812 7.023438 10.550781 7.832031 C 10.578125 8.402344 10.695312 8.964844 10.894531 9.5 C 11 9.777344 11.125 10.046875 11.273438 10.304688 C 11.480469 10.671875 11.730469 11.011719 12.023438 11.328125 C 12.125 11.4375 12.253906 11.566406 12.367188 11.671875 C 12.835938 12.097656 13.375 12.441406 13.957031 12.6875 C 13.996094 12.703125 14.105469 12.746094 14.132812 12.757812 L 14.144531 12.761719 L 14.140625 12.773438 C 13.636719 14.4375 13.34375 15.414062 13.339844 15.425781 C 13.335938 15.457031 13.332031 15.46875 13.332031 15.503906 C 13.332031 15.542969 13.332031 15.5625 13.339844 15.59375 C 13.359375 15.699219 13.425781 15.792969 13.515625 15.851562 C 13.535156 15.863281 13.570312 15.882812 13.59375 15.890625 C 13.667969 15.917969 13.753906 15.921875 13.832031 15.902344 C 13.867188 15.890625 13.90625 15.875 13.9375 15.855469 C 13.949219 15.847656 14.285156 15.617188 14.914062 15.179688 C 17.570312 13.339844 19.183594 12.214844 19.492188 11.984375 C 19.507812 11.972656 19.527344 11.960938 19.539062 11.953125 C 19.566406 11.933594 19.582031 11.921875 19.597656 11.90625 C 19.605469 11.898438 19.621094 11.882812 19.636719 11.875 C 19.890625 11.664062 20.140625 11.421875 20.359375 11.167969 C 20.851562 10.59375 21.222656 9.929688 21.445312 9.210938 C 21.589844 8.75 21.675781 8.269531 21.695312 7.78125 C 21.699219 7.640625 21.699219 7.457031 21.695312 7.3125 C 21.664062 6.59375 21.496094 5.890625 21.199219 5.238281 C 21.140625 5.109375 21.074219 4.972656 21.007812 4.851562 C 20.800781 4.480469 20.550781 4.128906 20.265625 3.8125 C 20.132812 3.664062 19.988281 3.523438 19.84375 3.390625 C 19.402344 2.996094 18.898438 2.671875 18.355469 2.433594 C 17.8125 2.195312 17.230469 2.046875 16.632812 1.992188 C 16.53125 1.980469 16.433594 1.976562 16.324219 1.972656 C 16.289062 1.96875 16.117188 1.96875 16.105469 1.96875 C 16.105469 1.96875 16.070312 1.96875 16.03125 1.96875 Z M 16.28125 2.769531 C 16.6875 2.785156 17.058594 2.84375 17.4375 2.949219 C 18.3125 3.199219 19.105469 3.703125 19.710938 4.390625 C 20.429688 5.207031 20.84375 6.234375 20.894531 7.320312 C 20.902344 7.46875 20.902344 7.640625 20.894531 7.785156 C 20.871094 8.277344 20.773438 8.757812 20.601562 9.214844 C 20.386719 9.789062 20.058594 10.320312 19.644531 10.773438 C 19.582031 10.839844 19.46875 10.953125 19.40625 11.011719 C 19.289062 11.125 19.148438 11.242188 19.042969 11.324219 C 18.820312 11.492188 17.429688 12.464844 15.117188 14.070312 C 14.546875 14.464844 14.445312 14.535156 14.445312 14.535156 C 14.445312 14.535156 14.574219 14.101562 14.734375 13.574219 C 14.890625 13.042969 15.023438 12.605469 15.027344 12.597656 C 15.042969 12.515625 15.039062 12.433594 15.007812 12.355469 C 14.964844 12.257812 14.886719 12.175781 14.785156 12.136719 C 14.777344 12.132812 14.753906 12.125 14.734375 12.121094 C 14.097656 11.925781 13.515625 11.605469 13.007812 11.171875 C 12.863281 11.046875 12.71875 10.90625 12.589844 10.765625 C 12.136719 10.269531 11.796875 9.6875 11.585938 9.058594 C 11.386719 8.457031 11.304688 7.816406 11.355469 7.179688 C 11.417969 6.363281 11.6875 5.582031 12.140625 4.898438 C 12.398438 4.511719 12.710938 4.167969 13.066406 3.871094 C 13.421875 3.574219 13.820312 3.332031 14.242188 3.148438 C 14.789062 2.917969 15.367188 2.789062 15.964844 2.769531 C 15.992188 2.769531 16.023438 2.765625 16.03125 2.765625 C 16.070312 2.765625 16.242188 2.765625 16.28125 2.769531 Z M 16.28125 2.769531 "/>
<path style=" stroke:none;fill-rule:nonzero;fill:rgb(0%,0%,0%);fill-opacity:1;" d="M 15.472656 5.558594 C 15.464844 5.5625 15.464844 5.566406 15.460938 5.570312 L 15.457031 5.578125 L 15.457031 6.882812 L 14.152344 6.882812 L 14.148438 6.886719 C 14.144531 6.886719 14.136719 6.890625 14.136719 6.894531 C 14.128906 6.90625 14.128906 6.855469 14.128906 7.546875 C 14.128906 8.25 14.128906 8.191406 14.136719 8.199219 C 14.140625 8.203125 14.144531 8.207031 14.148438 8.207031 C 14.152344 8.210938 14.175781 8.210938 14.804688 8.210938 L 15.457031 8.210938 L 15.457031 9.515625 L 15.460938 9.519531 C 15.464844 9.53125 15.472656 9.535156 15.484375 9.539062 C 15.488281 9.539062 15.667969 9.539062 16.125 9.539062 L 16.761719 9.539062 L 16.765625 9.535156 C 16.773438 9.53125 16.78125 9.523438 16.785156 9.519531 C 16.785156 9.511719 16.785156 9.445312 16.785156 8.863281 L 16.785156 8.210938 L 17.4375 8.210938 C 17.894531 8.210938 18.085938 8.210938 18.089844 8.210938 C 18.097656 8.207031 18.109375 8.199219 18.113281 8.191406 C 18.113281 8.183594 18.113281 8.15625 18.113281 7.546875 L 18.113281 6.90625 L 18.109375 6.902344 C 18.105469 6.894531 18.101562 6.886719 18.09375 6.882812 C 18.089844 6.882812 18.023438 6.882812 17.4375 6.882812 L 16.785156 6.882812 L 16.785156 6.230469 C 16.785156 5.597656 16.785156 5.578125 16.785156 5.574219 C 16.78125 5.566406 16.773438 5.558594 16.765625 5.558594 C 16.761719 5.554688 16.695312 5.554688 16.121094 5.554688 L 15.480469 5.554688 Z M 15.472656 5.558594 "/>
<path style=" stroke:none;fill-rule:nonzero;fill:rgb(0%,0%,0%);fill-opacity:1;" d="M 5.253906 8.34375 C 4.980469 8.355469 4.726562 8.402344 4.480469 8.484375 C 4.105469 8.609375 3.769531 8.808594 3.472656 9.082031 C 3.441406 9.109375 3.355469 9.195312 3.324219 9.230469 C 3.109375 9.457031 2.941406 9.71875 2.8125 10 C 2.679688 10.304688 2.601562 10.628906 2.578125 10.964844 C 2.574219 11.070312 2.574219 11.230469 2.578125 11.425781 C 2.605469 12.367188 2.761719 13.285156 3.046875 14.175781 C 3.246094 14.792969 3.503906 15.394531 3.820312 15.960938 C 4.210938 16.664062 4.6875 17.320312 5.238281 17.914062 C 5.398438 18.085938 5.582031 18.269531 5.753906 18.429688 C 6.503906 19.125 7.359375 19.703125 8.28125 20.140625 C 8.992188 20.480469 9.746094 20.730469 10.519531 20.890625 C 10.976562 20.984375 11.4375 21.042969 11.90625 21.074219 C 12.199219 21.09375 12.535156 21.097656 12.703125 21.089844 C 13.273438 21.054688 13.808594 20.851562 14.257812 20.496094 C 14.5 20.308594 14.710938 20.078125 14.875 19.824219 C 14.960938 19.691406 15.039062 19.546875 15.101562 19.402344 C 15.222656 19.117188 15.296875 18.8125 15.320312 18.5 C 15.324219 18.425781 15.324219 18.402344 15.324219 18.304688 C 15.324219 18.191406 15.320312 18.144531 15.3125 18.050781 C 15.304688 17.957031 15.285156 17.8125 15.269531 17.742188 C 15.234375 17.578125 15.152344 17.425781 15.039062 17.300781 C 15.019531 17.277344 14.980469 17.238281 14.957031 17.21875 C 14.828125 17.105469 14.667969 17.027344 14.5 16.992188 C 14.484375 16.992188 10.964844 16.390625 10.914062 16.382812 C 10.855469 16.375 10.785156 16.375 10.722656 16.386719 C 10.550781 16.414062 10.398438 16.523438 10.308594 16.675781 C 10.304688 16.683594 10.269531 16.75 10.234375 16.824219 C 10.097656 17.105469 9.957031 17.390625 9.957031 17.394531 C 9.953125 17.394531 9.941406 17.386719 9.867188 17.359375 C 9.632812 17.257812 9.402344 17.144531 9.179688 17.015625 C 8.734375 16.761719 8.320312 16.457031 7.941406 16.109375 C 7.828125 16.003906 7.691406 15.867188 7.585938 15.753906 C 7.042969 15.171875 6.601562 14.492188 6.292969 13.753906 C 6.28125 13.730469 6.273438 13.707031 6.273438 13.707031 C 6.273438 13.707031 6.488281 13.601562 6.859375 13.421875 C 6.921875 13.390625 6.980469 13.363281 6.988281 13.359375 C 7.15625 13.265625 7.261719 13.101562 7.285156 12.910156 C 7.289062 12.878906 7.289062 12.804688 7.285156 12.773438 C 7.28125 12.742188 6.675781 9.179688 6.671875 9.152344 C 6.664062 9.128906 6.65625 9.097656 6.648438 9.066406 C 6.59375 8.882812 6.476562 8.714844 6.328125 8.59375 C 6.253906 8.53125 6.167969 8.484375 6.082031 8.449219 C 6.003906 8.417969 5.941406 8.398438 5.828125 8.382812 C 5.714844 8.363281 5.625 8.351562 5.503906 8.34375 C 5.472656 8.34375 5.289062 8.34375 5.253906 8.34375 Z M 5.425781 9.140625 C 5.511719 9.144531 5.585938 9.152344 5.671875 9.164062 C 5.722656 9.171875 5.757812 9.179688 5.769531 9.183594 C 5.796875 9.191406 5.820312 9.207031 5.839844 9.226562 C 5.863281 9.25 5.878906 9.28125 5.886719 9.3125 C 5.890625 9.320312 6.023438 10.089844 6.179688 11.023438 C 6.335938 11.953125 6.46875 12.71875 6.46875 12.71875 C 6.46875 12.722656 6.464844 12.726562 6.382812 12.765625 C 6.039062 12.929688 5.742188 13.074219 5.714844 13.089844 C 5.566406 13.175781 5.460938 13.320312 5.425781 13.488281 C 5.417969 13.53125 5.417969 13.550781 5.417969 13.601562 C 5.417969 13.652344 5.417969 13.671875 5.425781 13.710938 C 5.433594 13.753906 5.441406 13.78125 5.46875 13.851562 C 5.59375 14.179688 5.746094 14.5 5.914062 14.804688 C 6.3125 15.519531 6.824219 16.164062 7.429688 16.722656 C 7.785156 17.046875 8.175781 17.339844 8.59375 17.597656 C 8.894531 17.78125 9.222656 17.949219 9.546875 18.089844 C 9.671875 18.144531 9.839844 18.207031 9.882812 18.222656 C 9.917969 18.234375 9.949219 18.238281 9.992188 18.246094 C 10.019531 18.25 10.089844 18.25 10.121094 18.246094 C 10.253906 18.230469 10.371094 18.171875 10.464844 18.082031 C 10.507812 18.039062 10.542969 17.996094 10.570312 17.949219 C 10.585938 17.917969 10.789062 17.507812 10.902344 17.277344 L 10.941406 17.199219 L 10.945312 17.199219 C 10.949219 17.199219 11.71875 17.332031 12.652344 17.488281 C 13.820312 17.6875 14.359375 17.78125 14.367188 17.78125 C 14.402344 17.792969 14.441406 17.820312 14.460938 17.851562 C 14.472656 17.867188 14.480469 17.890625 14.484375 17.90625 C 14.496094 17.933594 14.511719 18.058594 14.519531 18.128906 C 14.53125 18.257812 14.53125 18.390625 14.515625 18.519531 C 14.484375 18.804688 14.394531 19.078125 14.242188 19.328125 C 14.09375 19.578125 13.882812 19.796875 13.640625 19.960938 C 13.351562 20.152344 13.027344 20.265625 12.679688 20.289062 C 12.617188 20.292969 12.582031 20.292969 12.460938 20.292969 C 12.296875 20.292969 12.175781 20.289062 12.019531 20.28125 C 10.847656 20.214844 9.707031 19.929688 8.652344 19.433594 C 8.507812 19.367188 8.34375 19.285156 8.199219 19.207031 C 7.816406 19 7.4375 18.757812 7.082031 18.496094 C 6.558594 18.109375 6.078125 17.664062 5.648438 17.175781 C 5.1875 16.648438 4.789062 16.074219 4.457031 15.460938 C 4.375 15.308594 4.285156 15.125 4.210938 14.964844 C 3.765625 14 3.492188 12.964844 3.40625 11.90625 C 3.390625 11.730469 3.382812 11.574219 3.375 11.378906 C 3.375 11.300781 3.375 11.050781 3.375 11.019531 C 3.382812 10.929688 3.390625 10.863281 3.402344 10.789062 C 3.484375 10.304688 3.75 9.863281 4.144531 9.558594 C 4.273438 9.460938 4.414062 9.375 4.558594 9.308594 C 4.828125 9.191406 5.132812 9.132812 5.425781 9.140625 Z M 5.425781 9.140625 "/>
</g>
</svg>
