<?xml version="1.0" encoding="UTF-8"?>
<svg xmlns="http://www.w3.org/2000/svg" xmlns:xlink="http://www.w3.org/1999/xlink" width="px" height="px" viewBox="0 0 8534 8534" version="1.1">
<g>
<path style=" stroke:none;fill-rule:nonzero;fill:rgb(0%,0%,0%);fill-opacity:1;" d="M 3295.15625 625.53125 C 3144.546875 628.328125 3002.242188 640.128906 2857.882812 661.78125 C 2494.96875 716.234375 2150.101562 831.488281 1846.835938 999.695312 C 1664.628906 1100.75 1499.871094 1219.308594 1355.5625 1353.261719 C 1319.863281 1386.414062 1276.910156 1429.167969 1243.808594 1464.570312 C 1125.453125 1591.074219 1025.347656 1728.582031 946.644531 1872.585938 C 923.492188 1914.941406 899.742188 1962.941406 880.691406 2005.84375 C 769.585938 2255.605469 720.484375 2519.769531 735.285156 2787.878906 C 746.636719 2993.492188 796.789062 3196.851562 883.792969 3390.410156 C 901.59375 3430.011719 924.992188 3477.0625 945.945312 3515.414062 C 1052.449219 3710.472656 1195.605469 3890.433594 1372.3125 4051.441406 C 1513.320312 4179.894531 1674.929688 4294.800781 1851.585938 4392.304688 C 1970.890625 4458.109375 2096.148438 4515.613281 2227.855469 4565.0625 C 2533.019531 4679.570312 2864.632812 4746.121094 3203.398438 4760.972656 C 3258.902344 4763.375 3286.605469 4763.972656 3350.65625 4763.972656 C 3415.609375 4763.921875 3448.210938 4763.222656 3503.414062 4760.472656 C 3578.816406 4756.722656 3664.871094 4749.371094 3737.375 4740.472656 C 3745.277344 4739.523438 3747.476562 4739.371094 3748.125 4739.871094 C 3748.574219 4740.222656 3754.574219 4744.972656 3761.425781 4750.523438 C 4030.589844 4966.683594 4364.105469 5181.792969 4748.972656 5387.351562 C 4827.027344 5429.054688 4872.726562 5452.554688 4895.980469 5462.957031 C 4972.683594 5497.257812 5035.535156 5508.957031 5092.488281 5499.507812 C 5165.042969 5487.40625 5222.59375 5438.804688 5245.746094 5369.953125 C 5257.144531 5336.199219 5259.847656 5299.296875 5253.945312 5258.296875 C 5248.496094 5220.246094 5234.59375 5176.941406 5212.246094 5128.492188 C 5207.644531 5118.589844 5195.492188 5094.339844 5183.992188 5072.238281 C 5170.640625 5046.535156 5153.140625 5010.386719 5138.742188 4978.734375 C 5047.136719 4777.175781 4988.234375 4565.714844 4960.082031 4337.453125 C 4959.433594 4332.203125 4958.933594 4327.902344 4958.933594 4327.902344 C 4958.984375 4327.851562 4965.882812 4323.550781 4974.28125 4318.300781 C 5161.792969 4201.746094 5331.148438 4062.742188 5472.257812 3909.683594 C 5584.511719 3787.925781 5678.667969 3658.171875 5754.917969 3520.164062 C 5777.371094 3479.464844 5802.371094 3429.460938 5821.523438 3386.910156 C 5907.675781 3195.351562 5957.480469 2993.390625 5969.03125 2788.378906 C 5970.328125 2765.28125 5970.730469 2753.828125 5971.378906 2723.726562 C 5972.378906 2674.226562 5970.730469 2617.773438 5966.78125 2566.621094 C 5947.128906 2313.507812 5870.675781 2069.195312 5739.117188 1839.335938 C 5734.71875 1831.636719 5726.46875 1817.585938 5720.769531 1808.085938 C 5589.511719 1589.023438 5410.804688 1390.265625 5191.492188 1219.558594 C 5083.886719 1135.804688 4966.683594 1059.199219 4841.125 990.597656 C 4792.726562 964.144531 4727.222656 931.195312 4675.71875 907.390625 C 4366.253906 764.386719 4022.636719 673.230469 3666.671875 639.828125 C 3588.96875 632.53125 3516.363281 628.230469 3432.160156 626.03125 C 3406.210938 625.328125 3322.105469 625.027344 3295.15625 625.53125 Z M 3436.160156 930.492188 C 3459.5625 931.242188 3478.511719 931.992188 3496.164062 932.792969 C 3914.632812 952.445312 4316.152344 1058.25 4662.21875 1240.207031 C 4834.425781 1330.710938 4991.535156 1439.765625 5126.242188 1562.273438 C 5164.292969 1596.925781 5207.292969 1639.375 5241.09375 1675.679688 C 5406.703125 1853.6875 5526.660156 2051.347656 5596.761719 2261.605469 C 5659.414062 2449.613281 5680.667969 2647.273438 5659.214844 2842.632812 C 5638.464844 3031.890625 5577.160156 3217.402344 5477.855469 3391.609375 C 5417.105469 3498.265625 5340.648438 3602.617188 5253.996094 3697.171875 C 5220.445312 3733.824219 5178.191406 3776.328125 5141.742188 3810.179688 C 5034.984375 3909.285156 4912.03125 4001.039062 4779.375 4080.640625 C 4752.222656 4096.890625 4741.871094 4102.84375 4667.117188 4144.945312 L 4638.71875 4160.945312 L 4638.71875 4162.644531 C 4638.71875 4165.644531 4647.667969 4276.449219 4649.519531 4295.703125 C 4675.96875 4577.914062 4743.121094 4838.625 4853.226562 5086.238281 C 4856.578125 5093.789062 4859.476562 5100.289062 4859.628906 5100.6875 C 4859.777344 5101.089844 4858.476562 5100.589844 4856.675781 5099.589844 C 4854.925781 5098.640625 4842.226562 5091.738281 4828.476562 5084.238281 C 4506.910156 4909.128906 4221.398438 4724.769531 3987.6875 4541.261719 C 3950.085938 4511.710938 3922.484375 4489.359375 3876.433594 4451.007812 C 3859.929688 4437.257812 3844.679688 4424.605469 3842.53125 4422.808594 L 3838.679688 4419.605469 L 3806.027344 4424.207031 C 3756.777344 4431.15625 3743.777344 4432.90625 3721.925781 4435.65625 C 3633.121094 4446.859375 3550.765625 4453.910156 3467.414062 4457.457031 C 3424.058594 4459.257812 3413.359375 4459.460938 3349.90625 4459.460938 C 3286.753906 4459.460938 3274.253906 4459.257812 3229.152344 4457.457031 C 2882.035156 4443.558594 2545.96875 4370.554688 2241.203125 4242.898438 C 1984.492188 4135.34375 1753.933594 3989.585938 1566.574219 3816.429688 C 1540.570312 3792.378906 1504.621094 3757.074219 1480.621094 3731.925781 C 1405.765625 3653.570312 1341.113281 3573.015625 1284.359375 3487.414062 C 1142.003906 3272.753906 1059.351562 3038.742188 1041.046875 2798.882812 C 1038.097656 2759.929688 1037.296875 2737.828125 1037.296875 2694.125 C 1037.347656 2657.324219 1037.648438 2645.074219 1039.347656 2615.871094 C 1051.25 2409.511719 1110.253906 2207.953125 1214.457031 2017.59375 C 1373.714844 1726.53125 1635.425781 1470.71875 1968.34375 1280.710938 C 2160.25 1171.15625 2372.710938 1085.050781 2597.320312 1025.796875 C 2819.230469 967.296875 3046.691406 935.695312 3287.402344 930.042969 C 3310.054688 929.542969 3415.761719 929.84375 3436.160156 930.492188 Z M 3436.160156 930.492188 "/>
<path style=" stroke:none;fill-rule:nonzero;fill:rgb(0%,0%,0%);fill-opacity:1;" d="M 2301.859375 1537.121094 C 2196.152344 1542.773438 2096.597656 1584.273438 2018.84375 1655.078125 C 2010.84375 1662.378906 1993.492188 1679.777344 1986.492188 1687.578125 C 1945.792969 1732.730469 1913.640625 1787.484375 1894.039062 1845.085938 C 1880.988281 1883.4375 1873.738281 1919.691406 1870.488281 1962.59375 C 1869.539062 1975.59375 1869.539062 3376.660156 1870.488281 3389.660156 C 1873.738281 3432.5625 1880.988281 3468.8125 1894.039062 3507.164062 C 1913.640625 3564.867188 1945.691406 3619.417969 1986.441406 3664.671875 C 1993.542969 3672.523438 2010.894531 3689.921875 2018.84375 3697.171875 C 2097.648438 3768.777344 2197.304688 3809.980469 2304.359375 3815.179688 C 2312.757812 3815.578125 2608.121094 3815.679688 3396.410156 3815.578125 C 4416.65625 3815.429688 4477.511719 3815.378906 4486.710938 3814.527344 C 4505.960938 3812.828125 4521.3125 3810.777344 4536.664062 3807.878906 C 4626.816406 3790.925781 4709.320312 3747.425781 4774.222656 3682.671875 C 4835.925781 3621.167969 4878.628906 3543.667969 4897.429688 3459.011719 C 4901.929688 3438.859375 4904.730469 3420.058594 4907.078125 3394.910156 C 4907.878906 3386.558594 4907.929688 3336.355469 4908.128906 2683.375 C 4908.230469 2185.402344 4908.128906 1977.691406 4907.730469 1970.09375 C 4904.480469 1905.488281 4888.378906 1844.488281 4859.429688 1787.035156 C 4798.476562 1666.226562 4686.417969 1578.324219 4554.714844 1548.121094 C 4533.0625 1543.171875 4512.511719 1540.023438 4486.710938 1537.722656 C 4477.511719 1536.871094 4416.957031 1536.820312 3393.160156 1536.773438 C 2797.082031 1536.773438 2306.007812 1536.921875 2301.859375 1537.121094 Z M 4474.710938 1842.4375 C 4491.410156 1845.238281 4505.511719 1849.738281 4519.761719 1856.835938 C 4534.710938 1864.386719 4546.613281 1872.9375 4558.765625 1885.089844 C 4567.613281 1893.839844 4572.664062 1899.9375 4578.566406 1908.738281 C 4582.214844 1914.191406 4588.863281 1925.890625 4589.414062 1927.890625 C 4589.714844 1928.839844 4529.863281 1968.941406 4023.589844 2307.207031 C 3712.175781 2515.269531 3455.410156 2686.675781 3452.910156 2688.125 C 3394.910156 2721.578125 3310.304688 2721.675781 3251.652344 2688.277344 C 3247.601562 2685.976562 2177.453125 1971.140625 2176.253906 1969.941406 C 2175.550781 1969.191406 2176.453125 1963.742188 2178.851562 1954.339844 C 2183.800781 1934.890625 2194.101562 1914.441406 2207.101562 1898.089844 C 2212.453125 1891.339844 2224.355469 1879.4375 2231.105469 1874.085938 C 2243.355469 1864.335938 2260.304688 1854.835938 2274.355469 1849.835938 C 2285.605469 1845.785156 2299.359375 1842.738281 2312.109375 1841.4375 C 2313.058594 1841.335938 2798.53125 1841.285156 3390.910156 1841.285156 L 4467.960938 1841.335938 Z M 4604.066406 2861.882812 C 4603.914062 3340.605469 4603.867188 3371.257812 4603.066406 3377.160156 C 4598.714844 3408.460938 4587.464844 3434.359375 4568.113281 3457.410156 C 4562.265625 3464.414062 4551.0625 3474.960938 4543.613281 3480.5625 C 4522.863281 3496.164062 4500.910156 3505.464844 4474.710938 3509.816406 L 4467.960938 3510.914062 L 3391.910156 3511.066406 C 2417.414062 3511.164062 2315.207031 3511.113281 2308.859375 3510.414062 C 2290.65625 3508.363281 2275.65625 3503.964844 2258.855469 3495.664062 C 2243.253906 3487.964844 2231.003906 3479.164062 2218.554688 3466.710938 C 2205.953125 3454.113281 2197.253906 3442.011719 2189.601562 3426.410156 C 2181.101562 3409.210938 2176.351562 3392.410156 2174.601562 3373.65625 C 2174.203125 3369.609375 2174.101562 3215.800781 2174.203125 2851.484375 L 2174.351562 2335.058594 L 2540.367188 2579.671875 C 3082.894531 2942.238281 3082.644531 2942.039062 3092.644531 2947.988281 C 3148.746094 2981.289062 3209.902344 3002.640625 3276.902344 3012.339844 C 3314.707031 3017.839844 3357.355469 3019.089844 3396.410156 3015.839844 C 3477.113281 3009.191406 3555.015625 2983.738281 3620.167969 2942.738281 C 3624.167969 2940.238281 3847.128906 2791.378906 4115.691406 2611.921875 L 4603.964844 2285.707031 L 4604.117188 2319.257812 C 4604.164062 2337.757812 4604.164062 2581.921875 4604.066406 2861.882812 Z M 4604.066406 2861.882812 "/>
<path style=" stroke:none;fill-rule:nonzero;fill:rgb(0%,0%,0%);fill-opacity:1;" d="M 6173.140625 1926.191406 C 6169.9375 1934.640625 6070.335938 2208.703125 6070.183594 2209.355469 C 6070.085938 2210.003906 6170.1875 2246.605469 6606.808594 2405.5625 C 6902.023438 2513.019531 7146.535156 2602.171875 7150.085938 2603.621094 C 7158.785156 2607.121094 7177.035156 2616.023438 7185.886719 2621.121094 C 7203.835938 2631.375 7221.4375 2644.074219 7236.539062 2657.625 C 7273.839844 2691.074219 7301.742188 2732.027344 7319.394531 2779.179688 C 7342.894531 2842.183594 7344.496094 2912.4375 7323.894531 2976.191406 C 7322.492188 2980.441406 7308.84375 3018.390625 7293.492188 3060.542969 C 7271.089844 3122.046875 7265.441406 3137.097656 7264.839844 3136.847656 C 7260.941406 3135.296875 6307.796875 2788.429688 6307.046875 2788.28125 C 6306.144531 2788.128906 6301.246094 2801.28125 6254.09375 2930.886719 C 6225.542969 3009.441406 6202.289062 3073.792969 6202.390625 3073.945312 C 6202.539062 3074.042969 6418.25 3152.648438 6681.714844 3248.550781 C 6945.226562 3344.457031 7160.9375 3423.058594 7161.085938 3423.261719 C 7161.335938 3423.460938 5971.980469 6692.363281 5969.730469 6697.664062 L 5969.03125 6699.265625 L 4542.214844 6179.941406 C 3757.476562 5894.328125 3115.246094 5660.515625 3115.097656 5660.367188 C 3114.945312 5660.164062 3162.097656 5530.058594 3219.949219 5371.25 C 3277.804688 5212.445312 3325.054688 5082.488281 3325.003906 5082.488281 C 3323.90625 5081.9375 3039.742188 4978.734375 3039.390625 4978.734375 C 3038.84375 4978.734375 2569.320312 6267.945312 2563.371094 6285.792969 C 2530.019531 6385.347656 2523.367188 6492.605469 2544.121094 6596.308594 C 2577.472656 6762.96875 2678.277344 6908.023438 2822.132812 6996.429688 C 2851.933594 7014.730469 2886.984375 7032.128906 2918.886719 7044.480469 C 2936.886719 7051.429688 5224.59375 7883.96875 5235.496094 7887.519531 C 5285.246094 7903.769531 5333.300781 7912.769531 5389.503906 7916.472656 C 5402.003906 7917.269531 5443.15625 7917.269531 5456.003906 7916.472656 C 5497.507812 7913.820312 5532.910156 7908.46875 5570.460938 7899.070312 C 5667.617188 7874.769531 5756.417969 7827.566406 5831.574219 7760.3125 C 5841.421875 7751.511719 5867.375 7725.613281 5876.125 7715.863281 C 5913.878906 7673.757812 5944.078125 7629.308594 5968.730469 7579.605469 C 5979.28125 7558.304688 5987.832031 7538.304688 5996.929688 7513.351562 C 6041.382812 7391.894531 7609.507812 3082.195312 7611.957031 3074.894531 C 7626.707031 3030.390625 7636.859375 2980.691406 7640.609375 2934.636719 C 7643.308594 2901.335938 7643.308594 2865.984375 7640.609375 2833.882812 C 7626.058594 2660.875 7538.304688 2501.96875 7400.097656 2398.3125 C 7355.292969 2364.710938 7305.542969 2337.058594 7254.589844 2317.507812 C 7248.691406 2315.207031 6174.390625 1924.089844 6174.039062 1924.089844 C 6173.988281 1924.089844 6173.589844 1925.039062 6173.140625 1926.191406 Z M 4438.207031 6466.054688 C 5222.394531 6751.464844 5864.226562 6985.128906 5864.476562 6985.378906 C 5864.976562 6985.828125 5709.769531 7412.949219 5704.417969 7425.847656 C 5692.117188 7455.5 5675.367188 7482.449219 5653.566406 7507.851562 C 5647.765625 7514.601562 5631.015625 7531.351562 5624.261719 7537.152344 C 5574.660156 7579.753906 5516.757812 7604.757812 5451.503906 7611.605469 C 5441.203125 7612.707031 5415.703125 7613.15625 5404.753906 7612.40625 C 5381.902344 7610.855469 5361 7607.257812 5339.5 7601.054688 C 5334.148438 7599.507812 5311.648438 7591.65625 5288.246094 7583.105469 C 5150.042969 7532.902344 3035.292969 6763.015625 3030.191406 6761.066406 C 2979.191406 6741.664062 2932.636719 6706.414062 2898.835938 6661.664062 C 2878.636719 6634.910156 2863.234375 6605.660156 2852.632812 6573.808594 C 2844.785156 6550.308594 2840.382812 6529.707031 2837.78125 6504.304688 C 2836.582031 6492.203125 2836.582031 6461.703125 2837.78125 6449.800781 C 2840.082031 6427.652344 2843.984375 6408.351562 2850.132812 6388.449219 C 2851.433594 6384.25 2887.984375 6283.195312 2931.4375 6163.789062 C 3003.039062 5966.929688 3010.492188 5946.777344 3011.390625 5946.929688 C 3011.941406 5947.027344 3654.019531 6180.640625 4438.207031 6466.054688 Z M 4438.207031 6466.054688 "/>
<path style=" stroke:none;fill-rule:nonzero;fill:rgb(0%,0%,0%);fill-opacity:1;" d="M 4099.742188 6505.40625 C 4095.792969 6515.957031 3996.238281 6790.019531 3996.335938 6790.117188 C 3996.636719 6790.417969 4566.863281 6997.828125 4567.414062 6997.828125 C 4567.914062 6997.828125 4672.019531 6712.464844 4671.617188 6712.066406 C 4671.367188 6711.816406 4101.042969 6504.304688 4100.59375 6504.304688 C 4100.34375 6504.304688 4099.992188 6504.804688 4099.742188 6505.40625 Z M 4099.742188 6505.40625 "/>
</g>
</svg>
