<?xml version="1.0" encoding="UTF-8"?>
<svg xmlns="http://www.w3.org/2000/svg" xmlns:xlink="http://www.w3.org/1999/xlink" viewBox="0 0 24 24" version="1.1">
<g>
<path style=" stroke:none;fill-rule:nonzero;fill:rgb(0%,0%,0%);fill-opacity:1;" d="M 9.894531 2.132812 C 9.480469 2.152344 9.089844 2.304688 8.769531 2.570312 C 8.5625 2.742188 8.390625 2.964844 8.277344 3.207031 C 8.164062 3.4375 8.105469 3.679688 8.09375 3.945312 C 8.09375 3.964844 8.089844 4.871094 8.089844 6.5 L 8.089844 9.023438 L 8.722656 9.023438 L 8.722656 6.515625 C 8.722656 4.921875 8.722656 3.996094 8.722656 3.972656 C 8.722656 3.933594 8.726562 3.898438 8.730469 3.863281 C 8.773438 3.527344 8.953125 3.21875 9.226562 3.015625 C 9.398438 2.882812 9.605469 2.800781 9.820312 2.773438 C 9.890625 2.765625 9.933594 2.761719 10.089844 2.761719 L 10.214844 2.761719 L 10.328125 3.15625 C 10.390625 3.371094 10.445312 3.558594 10.453125 3.574219 C 10.550781 3.886719 10.78125 4.132812 11.085938 4.257812 C 11.199219 4.304688 11.320312 4.328125 11.445312 4.335938 C 11.46875 4.335938 11.898438 4.335938 12.988281 4.335938 C 14.386719 4.335938 14.5 4.335938 14.523438 4.332031 C 14.625 4.324219 14.703125 4.308594 14.785156 4.28125 C 14.839844 4.261719 14.882812 4.246094 14.933594 4.21875 C 15.015625 4.175781 15.085938 4.128906 15.160156 4.066406 C 15.179688 4.046875 15.234375 3.996094 15.253906 3.972656 C 15.355469 3.859375 15.433594 3.726562 15.480469 3.585938 C 15.484375 3.574219 15.539062 3.382812 15.605469 3.164062 L 15.722656 2.765625 L 15.863281 2.765625 C 15.964844 2.765625 16.015625 2.765625 16.03125 2.765625 C 16.152344 2.773438 16.25 2.792969 16.351562 2.828125 C 16.515625 2.882812 16.660156 2.964844 16.789062 3.082031 C 16.8125 3.097656 16.875 3.160156 16.890625 3.179688 C 17.066406 3.375 17.171875 3.613281 17.203125 3.867188 C 17.214844 3.941406 17.210938 3.910156 17.214844 4.371094 L 17.214844 4.792969 L 17.84375 4.792969 L 17.84375 4.371094 C 17.84375 4.070312 17.84375 3.941406 17.84375 3.925781 C 17.839844 3.878906 17.835938 3.84375 17.832031 3.8125 C 17.796875 3.476562 17.671875 3.160156 17.46875 2.890625 C 17.1875 2.515625 16.78125 2.261719 16.324219 2.167969 C 16.242188 2.152344 16.179688 2.144531 16.066406 2.136719 C 16.050781 2.132812 15.347656 2.132812 12.980469 2.132812 C 11.296875 2.132812 9.910156 2.132812 9.894531 2.132812 Z M 15.0625 2.765625 C 15.0625 2.765625 14.886719 3.375 14.882812 3.386719 C 14.851562 3.480469 14.789062 3.5625 14.707031 3.621094 C 14.640625 3.667969 14.570312 3.691406 14.488281 3.703125 C 14.46875 3.707031 14.40625 3.707031 12.96875 3.707031 C 11.375 3.707031 11.460938 3.707031 11.421875 3.699219 C 11.25 3.671875 11.109375 3.550781 11.054688 3.386719 C 11.050781 3.375 10.871094 2.765625 10.871094 2.765625 C 10.871094 2.761719 11.816406 2.761719 12.96875 2.761719 C 14.371094 2.761719 15.0625 2.761719 15.0625 2.765625 Z M 15.0625 2.765625 "/>
<path style=" stroke:none;fill-rule:nonzero;fill:rgb(0%,0%,0%);fill-opacity:1;" d="M 18.332031 5.097656 C 18.058594 5.105469 17.792969 5.207031 17.582031 5.394531 C 17.5625 5.414062 16.953125 6.023438 16.933594 6.042969 C 16.90625 6.074219 16.886719 6.101562 16.863281 6.132812 C 16.722656 6.347656 16.691406 6.617188 16.785156 6.855469 C 16.824219 6.960938 16.875 7.0625 16.933594 7.152344 C 17.078125 7.382812 17.273438 7.574219 17.503906 7.710938 C 17.519531 7.71875 17.535156 7.730469 17.542969 7.734375 L 17.554688 7.738281 L 17.242188 8.050781 C 16.925781 8.367188 16.917969 8.375 16.890625 8.414062 C 16.820312 8.507812 16.769531 8.617188 16.746094 8.730469 C 16.738281 8.785156 16.730469 8.828125 16.730469 8.886719 C 16.730469 9.03125 16.761719 9.140625 16.847656 9.3125 C 16.964844 9.554688 17.140625 9.769531 17.359375 9.929688 C 17.386719 9.949219 17.421875 9.976562 17.445312 9.992188 L 17.460938 10.003906 L 17.203125 10.261719 C 17.0625 10.402344 16.941406 10.527344 16.933594 10.53125 C 16.855469 10.621094 16.796875 10.726562 16.765625 10.835938 C 16.714844 11.007812 16.722656 11.1875 16.789062 11.351562 C 16.835938 11.472656 16.890625 11.578125 16.957031 11.679688 C 17.023438 11.777344 17.089844 11.859375 17.171875 11.941406 C 17.257812 12.027344 17.34375 12.097656 17.441406 12.160156 L 17.460938 12.175781 L 17.199219 12.4375 C 17.054688 12.582031 16.933594 12.707031 16.925781 12.714844 C 16.847656 12.804688 16.792969 12.902344 16.761719 13.015625 C 16.722656 13.15625 16.722656 13.308594 16.761719 13.453125 C 16.785156 13.535156 16.847656 13.667969 16.90625 13.769531 C 17.0625 14.035156 17.28125 14.25 17.550781 14.402344 C 17.585938 14.417969 17.65625 14.453125 17.6875 14.46875 C 17.785156 14.511719 17.847656 14.53125 17.929688 14.542969 C 17.972656 14.546875 17.992188 14.550781 18.039062 14.550781 C 18.097656 14.550781 18.140625 14.546875 18.1875 14.535156 C 18.335938 14.507812 18.46875 14.441406 18.578125 14.339844 C 18.613281 14.304688 19.210938 13.707031 19.230469 13.683594 C 19.332031 13.566406 19.40625 13.4375 19.457031 13.292969 C 19.488281 13.195312 19.507812 13.105469 19.515625 12.996094 C 19.519531 12.945312 19.515625 12.855469 19.511719 12.800781 C 19.488281 12.558594 19.390625 12.335938 19.230469 12.152344 C 19.136719 12.046875 19.011719 11.949219 18.886719 11.886719 C 18.878906 11.882812 18.867188 11.878906 18.867188 11.878906 C 18.867188 11.878906 18.945312 11.796875 19.039062 11.703125 C 19.230469 11.515625 19.242188 11.5 19.289062 11.4375 C 19.414062 11.273438 19.492188 11.074219 19.511719 10.867188 C 19.519531 10.789062 19.519531 10.703125 19.511719 10.625 C 19.480469 10.308594 19.3125 10.015625 19.054688 9.820312 C 19 9.78125 18.9375 9.738281 18.882812 9.710938 C 18.875 9.707031 18.867188 9.703125 18.867188 9.703125 C 18.867188 9.703125 18.945312 9.625 19.042969 9.527344 C 19.214844 9.359375 19.230469 9.339844 19.265625 9.296875 C 19.5 9.003906 19.578125 8.609375 19.472656 8.246094 C 19.4375 8.132812 19.382812 8.015625 19.3125 7.917969 C 19.214844 7.773438 19.085938 7.652344 18.933594 7.566406 C 18.890625 7.542969 18.832031 7.515625 18.785156 7.496094 L 18.765625 7.488281 L 18.984375 7.269531 C 19.199219 7.054688 19.222656 7.035156 19.253906 6.996094 C 19.53125 6.65625 19.597656 6.183594 19.417969 5.78125 C 19.335938 5.601562 19.210938 5.445312 19.050781 5.328125 C 18.84375 5.171875 18.59375 5.09375 18.332031 5.097656 Z M 18.398438 5.730469 C 18.546875 5.742188 18.679688 5.8125 18.773438 5.929688 C 18.835938 6.007812 18.871094 6.09375 18.882812 6.199219 C 18.886719 6.222656 18.886719 6.296875 18.882812 6.320312 C 18.871094 6.410156 18.839844 6.488281 18.792969 6.558594 C 18.765625 6.597656 18.765625 6.59375 18.445312 6.917969 C 18.15625 7.203125 18.136719 7.226562 18.125 7.234375 C 18.109375 7.242188 18.09375 7.25 18.078125 7.253906 C 18.066406 7.257812 18.0625 7.257812 18.039062 7.257812 C 18.019531 7.257812 18.015625 7.257812 18.003906 7.253906 C 17.96875 7.242188 17.882812 7.203125 17.824219 7.167969 C 17.664062 7.070312 17.535156 6.9375 17.445312 6.777344 C 17.417969 6.734375 17.382812 6.652344 17.371094 6.621094 C 17.359375 6.582031 17.359375 6.539062 17.378906 6.503906 C 17.390625 6.480469 17.382812 6.488281 17.699219 6.171875 C 17.882812 5.984375 18.007812 5.859375 18.019531 5.851562 C 18.101562 5.78125 18.207031 5.738281 18.316406 5.730469 C 18.335938 5.730469 18.378906 5.730469 18.398438 5.730469 Z M 18.425781 8.050781 C 18.53125 8.0625 18.621094 8.105469 18.699219 8.171875 C 18.707031 8.175781 18.722656 8.191406 18.730469 8.199219 C 18.816406 8.285156 18.867188 8.386719 18.882812 8.511719 C 18.886719 8.539062 18.886719 8.609375 18.882812 8.636719 C 18.867188 8.75 18.824219 8.847656 18.75 8.929688 C 18.742188 8.9375 18.601562 9.078125 18.4375 9.242188 C 18.207031 9.472656 18.136719 9.542969 18.128906 9.546875 C 18.085938 9.574219 18.039062 9.582031 17.996094 9.566406 C 17.96875 9.558594 17.890625 9.523438 17.847656 9.5 C 17.671875 9.398438 17.527344 9.25 17.429688 9.066406 C 17.40625 9.027344 17.378906 8.957031 17.367188 8.933594 C 17.359375 8.90625 17.359375 8.875 17.367188 8.851562 C 17.371094 8.832031 17.382812 8.808594 17.394531 8.796875 C 17.402344 8.785156 17.976562 8.207031 18.003906 8.183594 C 18.058594 8.132812 18.121094 8.097656 18.1875 8.074219 C 18.226562 8.058594 18.269531 8.050781 18.316406 8.046875 C 18.332031 8.046875 18.410156 8.046875 18.425781 8.050781 Z M 18.414062 10.222656 C 18.539062 10.234375 18.652344 10.289062 18.742188 10.382812 C 18.820312 10.464844 18.871094 10.570312 18.882812 10.6875 C 18.886719 10.710938 18.886719 10.785156 18.882812 10.8125 C 18.867188 10.917969 18.828125 11.011719 18.757812 11.089844 C 18.753906 11.097656 18.609375 11.242188 18.441406 11.410156 C 18.113281 11.738281 18.128906 11.722656 18.105469 11.734375 C 18.070312 11.75 18.03125 11.75 18 11.742188 C 17.972656 11.734375 17.894531 11.699219 17.851562 11.671875 C 17.714844 11.59375 17.597656 11.492188 17.503906 11.363281 C 17.484375 11.332031 17.457031 11.289062 17.4375 11.253906 C 17.410156 11.207031 17.375 11.125 17.367188 11.097656 C 17.355469 11.054688 17.367188 11.003906 17.394531 10.96875 C 17.398438 10.960938 17.503906 10.851562 17.707031 10.652344 C 18.027344 10.332031 18.023438 10.335938 18.0625 10.308594 C 18.117188 10.273438 18.171875 10.246094 18.234375 10.234375 C 18.265625 10.226562 18.296875 10.222656 18.339844 10.21875 C 18.351562 10.21875 18.394531 10.21875 18.414062 10.222656 Z M 18.417969 12.394531 C 18.527344 12.40625 18.621094 12.449219 18.703125 12.519531 C 18.738281 12.546875 18.773438 12.589844 18.796875 12.625 C 18.84375 12.695312 18.871094 12.765625 18.882812 12.855469 C 18.886719 12.878906 18.886719 12.941406 18.886719 12.96875 C 18.875 13.0625 18.847656 13.140625 18.792969 13.21875 C 18.769531 13.253906 18.769531 13.253906 18.449219 13.574219 C 18.28125 13.742188 18.140625 13.882812 18.132812 13.886719 C 18.125 13.894531 18.101562 13.90625 18.089844 13.910156 C 18.0625 13.921875 18.03125 13.921875 18.003906 13.914062 C 17.996094 13.914062 17.980469 13.90625 17.96875 13.902344 C 17.742188 13.808594 17.554688 13.640625 17.4375 13.425781 C 17.410156 13.378906 17.375 13.296875 17.367188 13.269531 C 17.355469 13.226562 17.367188 13.175781 17.394531 13.140625 C 17.402344 13.125 18.003906 12.527344 18.023438 12.511719 C 18.054688 12.484375 18.089844 12.460938 18.125 12.445312 C 18.191406 12.414062 18.253906 12.398438 18.328125 12.390625 C 18.34375 12.390625 18.398438 12.390625 18.417969 12.394531 Z M 18.417969 12.394531 "/>
<path style=" stroke:none;fill-rule:nonzero;fill:rgb(0%,0%,0%);fill-opacity:1;" d="M 11.75 7.847656 L 11.75 8.578125 L 10.289062 8.578125 L 10.289062 11 L 11.75 11 L 11.75 12.460938 L 14.171875 12.460938 L 14.171875 11 L 15.773438 11 L 15.773438 8.578125 L 14.171875 8.578125 L 14.171875 7.117188 L 11.75 7.117188 Z M 13.539062 8.480469 L 13.539062 9.210938 L 15.140625 9.210938 L 15.140625 10.371094 L 13.539062 10.371094 L 13.539062 11.832031 L 12.378906 11.832031 L 12.378906 10.371094 L 10.917969 10.371094 L 10.917969 9.210938 L 12.378906 9.210938 L 12.378906 7.75 L 13.539062 7.75 Z M 13.539062 8.480469 "/>
<path style=" stroke:none;fill-rule:nonzero;fill:rgb(0%,0%,0%);fill-opacity:1;" d="M 8.019531 9.425781 C 7.804688 9.433594 7.605469 9.535156 7.46875 9.699219 C 7.421875 9.75 7.382812 9.816406 7.355469 9.871094 C 7.34375 9.902344 5.945312 13.15625 5.929688 13.195312 C 5.84375 13.398438 5.769531 13.621094 5.710938 13.835938 C 5.617188 14.195312 5.558594 14.566406 5.542969 14.941406 C 5.535156 15.078125 5.535156 15.261719 5.542969 15.398438 C 5.570312 16.070312 5.730469 16.722656 6.011719 17.332031 L 6.023438 17.359375 L 6.019531 17.363281 C 6.019531 17.367188 5.789062 17.699219 5.515625 18.101562 C 5.238281 18.507812 5.011719 18.835938 5.011719 18.835938 C 5.011719 18.839844 5.128906 18.917969 5.273438 19.015625 L 5.53125 19.191406 L 5.539062 19.183594 C 5.5625 19.148438 6.753906 17.410156 6.753906 17.40625 C 6.753906 17.40625 6.730469 17.363281 6.707031 17.3125 C 6.636719 17.179688 6.617188 17.140625 6.585938 17.070312 C 6.25 16.347656 6.113281 15.546875 6.1875 14.753906 C 6.230469 14.28125 6.347656 13.824219 6.535156 13.382812 C 6.589844 13.253906 7.929688 10.140625 7.933594 10.132812 C 7.949219 10.101562 7.972656 10.078125 8.007812 10.066406 C 8.027344 10.058594 8.035156 10.054688 8.058594 10.054688 C 8.085938 10.054688 8.09375 10.058594 8.121094 10.070312 C 8.148438 10.078125 8.207031 10.109375 8.234375 10.125 C 8.449219 10.25 8.609375 10.449219 8.691406 10.6875 C 8.773438 10.929688 8.765625 11.195312 8.664062 11.425781 C 8.660156 11.4375 8.457031 11.863281 8.214844 12.375 C 7.972656 12.882812 7.777344 13.300781 7.777344 13.300781 C 7.777344 13.300781 7.828125 13.335938 7.886719 13.375 C 8.019531 13.46875 8.03125 13.476562 8.09375 13.527344 C 8.277344 13.671875 8.480469 13.863281 8.660156 14.0625 C 9.1875 14.644531 9.582031 15.320312 9.8125 16.03125 C 9.953125 16.46875 10.03125 16.910156 10.054688 17.375 C 10.058594 17.476562 10.058594 17.625 10.054688 17.734375 L 10.054688 17.78125 L 10.070312 17.78125 C 10.074219 17.78125 10.21875 17.785156 10.382812 17.792969 C 10.550781 17.796875 10.683594 17.800781 10.683594 17.800781 C 10.683594 17.800781 10.6875 17.765625 10.6875 17.722656 C 10.691406 17.605469 10.6875 17.460938 10.683594 17.332031 C 10.652344 16.660156 10.503906 16.007812 10.246094 15.390625 C 10.113281 15.070312 9.953125 14.761719 9.761719 14.464844 C 9.441406 13.96875 9.039062 13.503906 8.605469 13.132812 C 8.585938 13.117188 8.570312 13.101562 8.570312 13.101562 C 8.570312 13.097656 8.71875 12.785156 8.898438 12.40625 C 9.082031 12.023438 9.234375 11.703125 9.238281 11.6875 C 9.308594 11.523438 9.355469 11.347656 9.371094 11.171875 C 9.375 11.121094 9.375 11.109375 9.378906 11.042969 C 9.378906 10.976562 9.378906 10.9375 9.371094 10.882812 C 9.359375 10.730469 9.324219 10.578125 9.269531 10.429688 C 9.210938 10.273438 9.128906 10.128906 9.027344 9.996094 C 8.878906 9.804688 8.691406 9.652344 8.476562 9.539062 C 8.425781 9.511719 8.363281 9.484375 8.324219 9.46875 C 8.226562 9.433594 8.125 9.417969 8.019531 9.425781 Z M 8.019531 9.425781 "/>
<path style=" stroke:none;fill-rule:nonzero;fill:rgb(0%,0%,0%);fill-opacity:1;" d="M 17.214844 15.480469 C 17.210938 15.917969 17.210938 16.050781 17.210938 16.066406 C 17.203125 16.144531 17.195312 16.210938 17.175781 16.273438 C 17.128906 16.472656 17.03125 16.65625 16.894531 16.8125 C 16.875 16.835938 16.824219 16.886719 16.800781 16.90625 C 16.652344 17.039062 16.480469 17.132812 16.292969 17.1875 C 16.210938 17.210938 16.132812 17.222656 16.03125 17.230469 C 16.015625 17.230469 15.5 17.230469 13.621094 17.234375 L 11.234375 17.234375 L 11.234375 17.863281 L 14.210938 17.863281 L 14.179688 17.898438 C 14.050781 18.042969 13.894531 18.214844 13.777344 18.335938 C 13.597656 18.523438 13.460938 18.652344 13.339844 18.757812 C 12.882812 19.152344 12.351562 19.472656 11.789062 19.699219 C 11.722656 19.726562 11.757812 19.710938 11.191406 19.925781 C 10.914062 20.03125 10.683594 20.117188 10.683594 20.117188 C 10.679688 20.117188 9.703125 21.546875 9.703125 21.550781 C 9.703125 21.550781 9.816406 21.628906 9.960938 21.730469 L 10.222656 21.90625 L 10.222656 21.902344 C 10.226562 21.902344 10.421875 21.617188 10.65625 21.269531 L 11.089844 20.640625 L 11.488281 20.488281 C 12 20.296875 11.992188 20.300781 12.097656 20.253906 C 12.695312 20.003906 13.257812 19.660156 13.753906 19.234375 C 13.941406 19.074219 14.1875 18.828125 14.453125 18.539062 C 14.648438 18.324219 14.847656 18.09375 14.992188 17.90625 L 15.027344 17.863281 L 15.535156 17.863281 C 15.8125 17.863281 16.046875 17.863281 16.050781 17.859375 C 16.058594 17.859375 16.074219 17.859375 16.09375 17.859375 C 16.601562 17.824219 17.074219 17.578125 17.402344 17.1875 C 17.5 17.070312 17.582031 16.949219 17.648438 16.8125 C 17.761719 16.585938 17.824219 16.347656 17.839844 16.09375 C 17.84375 16.039062 17.84375 15.957031 17.84375 15.449219 L 17.84375 14.917969 L 17.214844 14.917969 Z M 17.214844 15.480469 "/>
<path style=" stroke:none;fill-rule:nonzero;fill:rgb(0%,0%,0%);fill-opacity:1;" d="M 12.023438 15.976562 L 12.023438 16.289062 L 13.910156 16.289062 L 13.910156 15.660156 L 12.023438 15.660156 Z M 12.023438 15.976562 "/>
</g>
</svg>
