<?xml version="1.0" encoding="UTF-8"?>
<svg xmlns="http://www.w3.org/2000/svg" xmlns:xlink="http://www.w3.org/1999/xlink" viewBox="0 0 24 24" version="1.1">
<g>
<path style=" stroke:none;fill-rule:nonzero;fill:rgb(0%,0%,0%);fill-opacity:1;" d="M 5.636719 2.695312 C 5.121094 2.710938 4.628906 2.871094 4.203125 3.15625 C 3.636719 3.53125 3.234375 4.109375 3.070312 4.761719 C 3.023438 4.945312 3 5.109375 2.988281 5.316406 C 2.984375 5.367188 2.984375 18.648438 2.988281 18.699219 C 2.988281 18.742188 2.992188 18.769531 2.996094 18.804688 C 3.035156 19.320312 3.222656 19.808594 3.53125 20.222656 C 3.609375 20.328125 3.6875 20.417969 3.785156 20.515625 C 3.835938 20.566406 3.859375 20.589844 3.902344 20.628906 C 4.253906 20.941406 4.675781 21.15625 5.132812 21.257812 C 5.300781 21.292969 5.464844 21.316406 5.640625 21.320312 C 5.699219 21.324219 18.898438 21.324219 18.957031 21.320312 C 19.515625 21.304688 20.039062 21.125 20.488281 20.796875 C 20.605469 20.710938 20.707031 20.625 20.8125 20.519531 C 20.867188 20.464844 20.894531 20.433594 20.9375 20.386719 C 21.222656 20.0625 21.425781 19.671875 21.53125 19.257812 C 21.582031 19.0625 21.605469 18.871094 21.613281 18.664062 C 21.617188 18.589844 21.613281 5.34375 21.613281 5.304688 C 21.605469 5.21875 21.601562 5.167969 21.597656 5.109375 C 21.503906 4.34375 21.09375 3.648438 20.464844 3.199219 C 20.300781 3.085938 20.121094 2.984375 19.9375 2.90625 C 19.679688 2.796875 19.40625 2.730469 19.128906 2.703125 C 19.09375 2.703125 19.0625 2.699219 19 2.695312 C 18.96875 2.695312 5.695312 2.691406 5.636719 2.695312 Z M 18.964844 3.792969 C 18.976562 3.792969 19 3.796875 19.011719 3.796875 C 19.355469 3.824219 19.675781 3.957031 19.9375 4.179688 C 19.984375 4.222656 20.054688 4.289062 20.09375 4.332031 C 20.3125 4.578125 20.453125 4.875 20.5 5.195312 C 20.507812 5.238281 20.511719 5.269531 20.515625 5.339844 C 20.515625 5.359375 20.515625 6.464844 20.515625 10.292969 L 20.519531 15.21875 L 19.152344 14.082031 C 18.398438 13.453125 17.78125 12.941406 17.78125 12.9375 C 17.777344 12.9375 17.613281 13.074219 16.144531 14.300781 C 15.246094 15.050781 14.507812 15.660156 14.507812 15.660156 C 14.507812 15.660156 13.136719 14.417969 11.464844 12.898438 C 9.796875 11.378906 8.425781 10.136719 8.425781 10.136719 C 8.425781 10.136719 4.125 14.910156 4.085938 14.957031 L 4.082031 14.960938 L 4.082031 10.164062 C 4.082031 6.445312 4.082031 5.363281 4.085938 5.34375 C 4.085938 5.332031 4.085938 5.308594 4.089844 5.296875 C 4.125 4.867188 4.324219 4.472656 4.652344 4.191406 C 4.9375 3.941406 5.304688 3.800781 5.683594 3.789062 C 5.695312 3.789062 8.679688 3.789062 12.320312 3.789062 C 17.402344 3.789062 18.945312 3.789062 18.964844 3.792969 Z M 11.488281 14.402344 C 13.128906 15.894531 14.472656 17.117188 14.476562 17.117188 C 14.476562 17.117188 15.21875 16.5 16.128906 15.742188 L 17.777344 14.367188 L 17.785156 14.371094 C 17.789062 14.375 18.40625 14.890625 19.15625 15.511719 L 20.519531 16.648438 L 20.519531 17.625 C 20.519531 18.257812 20.515625 18.613281 20.515625 18.640625 C 20.511719 18.78125 20.492188 18.910156 20.453125 19.039062 C 20.363281 19.34375 20.1875 19.621094 19.945312 19.828125 C 19.6875 20.050781 19.367188 20.1875 19.03125 20.21875 C 18.996094 20.222656 18.96875 20.222656 18.929688 20.222656 C 18.875 20.226562 5.722656 20.226562 5.671875 20.222656 C 5.613281 20.222656 5.570312 20.21875 5.519531 20.210938 C 5.15625 20.167969 4.8125 19.996094 4.554688 19.734375 C 4.320312 19.496094 4.167969 19.199219 4.109375 18.871094 C 4.097656 18.808594 4.089844 18.757812 4.085938 18.671875 C 4.082031 18.652344 4.082031 18.394531 4.082031 17.625 L 4.082031 16.601562 L 6.292969 14.144531 C 7.507812 12.796875 8.503906 11.691406 8.503906 11.691406 C 8.503906 11.691406 9.847656 12.910156 11.488281 14.402344 Z M 11.488281 14.402344 "/>
<path style=" stroke:none;fill-rule:nonzero;fill:rgb(0%,0%,0%);fill-opacity:1;" d="M 16.050781 5.433594 C 15.675781 5.445312 15.324219 5.527344 14.988281 5.683594 C 14.933594 5.707031 14.847656 5.753906 14.792969 5.785156 C 14.519531 5.9375 14.273438 6.136719 14.066406 6.375 C 13.992188 6.460938 13.917969 6.558594 13.851562 6.660156 C 13.625 7 13.476562 7.386719 13.421875 7.792969 C 13.410156 7.871094 13.402344 7.945312 13.398438 8.042969 C 13.394531 8.085938 13.394531 8.257812 13.398438 8.300781 C 13.40625 8.445312 13.417969 8.5625 13.445312 8.691406 C 13.558594 9.285156 13.871094 9.832031 14.328125 10.230469 C 14.710938 10.566406 15.175781 10.789062 15.675781 10.875 C 15.820312 10.898438 15.953125 10.910156 16.105469 10.910156 C 16.210938 10.914062 16.28125 10.910156 16.375 10.902344 C 17.121094 10.839844 17.8125 10.46875 18.28125 9.878906 C 18.523438 9.574219 18.699219 9.21875 18.792969 8.84375 C 18.867188 8.554688 18.890625 8.246094 18.867188 7.949219 C 18.828125 7.460938 18.660156 6.996094 18.375 6.59375 C 18.253906 6.421875 18.105469 6.257812 17.949219 6.117188 C 17.730469 5.925781 17.480469 5.765625 17.214844 5.652344 C 16.929688 5.53125 16.625 5.457031 16.320312 5.4375 C 16.238281 5.433594 16.125 5.429688 16.050781 5.433594 Z M 16.222656 6.53125 C 16.574219 6.550781 16.910156 6.679688 17.183594 6.910156 C 17.257812 6.96875 17.339844 7.050781 17.398438 7.121094 C 17.503906 7.25 17.589844 7.390625 17.652344 7.542969 C 17.789062 7.867188 17.816406 8.234375 17.726562 8.578125 C 17.6875 8.734375 17.628906 8.878906 17.542969 9.019531 C 17.382812 9.285156 17.144531 9.507812 16.859375 9.648438 C 16.554688 9.796875 16.207031 9.847656 15.867188 9.792969 C 15.382812 9.714844 14.957031 9.417969 14.710938 8.988281 C 14.59375 8.785156 14.519531 8.558594 14.5 8.324219 C 14.496094 8.265625 14.492188 8.242188 14.492188 8.171875 C 14.492188 8.09375 14.496094 8.046875 14.503906 7.980469 C 14.542969 7.640625 14.6875 7.324219 14.917969 7.066406 C 14.941406 7.042969 15.011719 6.972656 15.039062 6.949219 C 15.207031 6.800781 15.398438 6.6875 15.605469 6.617188 C 15.804688 6.550781 16.007812 6.519531 16.222656 6.53125 Z M 16.222656 6.53125 "/>
</g>
</svg>
