<?xml version="1.0" encoding="UTF-8"?>
<svg xmlns="http://www.w3.org/2000/svg" xmlns:xlink="http://www.w3.org/1999/xlink" viewBox="0 0 24 24" version="1.1">
<g>
<path style=" stroke:none;fill-rule:nonzero;fill:rgb(0%,0%,0%);fill-opacity:1;" d="M 7.851562 3.484375 C 7.71875 3.484375 7.621094 3.492188 7.515625 3.496094 C 6.617188 3.5625 5.769531 3.804688 4.992188 4.222656 C 4.847656 4.300781 4.683594 4.394531 4.550781 4.480469 C 4.257812 4.667969 3.980469 4.878906 3.726562 5.105469 C 3.589844 5.230469 3.441406 5.375 3.320312 5.507812 C 3.039062 5.8125 2.792969 6.140625 2.578125 6.492188 C 2.472656 6.660156 2.398438 6.796875 2.304688 6.980469 C 1.964844 7.664062 1.75 8.410156 1.675781 9.167969 C 1.652344 9.40625 1.640625 9.625 1.644531 9.867188 C 1.648438 10.039062 1.652344 10.175781 1.667969 10.339844 C 1.722656 10.976562 1.875 11.597656 2.121094 12.199219 C 2.328125 12.699219 2.59375 13.167969 2.914062 13.597656 C 3.152344 13.910156 3.414062 14.199219 3.707031 14.464844 C 4.179688 14.894531 4.726562 15.257812 5.3125 15.53125 C 6.015625 15.855469 6.777344 16.046875 7.546875 16.097656 C 7.84375 16.113281 8.125 16.113281 8.421875 16.089844 C 8.652344 16.074219 8.871094 16.046875 9.09375 16.003906 C 9.132812 16 9.261719 15.972656 9.261719 15.972656 C 9.265625 15.972656 9.269531 15.988281 9.277344 16.019531 C 9.328125 16.234375 9.402344 16.46875 9.480469 16.679688 C 9.691406 17.25 9.980469 17.78125 10.34375 18.265625 C 10.609375 18.621094 10.929688 18.964844 11.265625 19.257812 C 11.933594 19.839844 12.714844 20.269531 13.574219 20.53125 C 14.046875 20.675781 14.542969 20.761719 15.046875 20.792969 C 15.246094 20.800781 15.46875 20.804688 15.667969 20.796875 C 16.0625 20.777344 16.460938 20.722656 16.847656 20.632812 C 17.023438 20.59375 17.140625 20.558594 17.320312 20.503906 C 17.390625 20.480469 17.4375 20.464844 17.503906 20.441406 C 17.957031 20.28125 18.390625 20.070312 18.800781 19.808594 C 19.300781 19.492188 19.761719 19.097656 20.15625 18.648438 C 20.664062 18.070312 21.058594 17.410156 21.324219 16.6875 C 21.550781 16.078125 21.683594 15.425781 21.710938 14.765625 C 21.71875 14.660156 21.71875 14.621094 21.71875 14.476562 C 21.71875 14.332031 21.71875 14.292969 21.710938 14.1875 C 21.679688 13.488281 21.535156 12.808594 21.277344 12.164062 C 21.058594 11.605469 20.757812 11.085938 20.386719 10.605469 C 19.8125 9.867188 19.074219 9.265625 18.234375 8.84375 C 17.257812 8.355469 16.175781 8.128906 15.085938 8.183594 C 14.777344 8.195312 14.46875 8.234375 14.160156 8.296875 C 14.125 8.304688 14.097656 8.308594 14.097656 8.308594 C 14.097656 8.308594 14.089844 8.289062 14.082031 8.261719 C 14.011719 7.984375 13.929688 7.726562 13.824219 7.464844 C 13.628906 6.976562 13.386719 6.527344 13.085938 6.109375 C 12.75 5.644531 12.355469 5.226562 11.910156 4.867188 C 11.609375 4.628906 11.289062 4.414062 10.949219 4.230469 C 10.828125 4.167969 10.683594 4.097656 10.558594 4.039062 C 9.855469 3.722656 9.105469 3.539062 8.335938 3.492188 C 8.285156 3.488281 8.214844 3.484375 8.164062 3.484375 C 8.125 3.484375 7.886719 3.480469 7.851562 3.484375 Z M 8.171875 4.070312 C 8.328125 4.078125 8.421875 4.085938 8.546875 4.097656 C 8.820312 4.125 9.101562 4.175781 9.367188 4.242188 C 9.425781 4.257812 9.449219 4.261719 9.519531 4.285156 C 9.578125 4.300781 9.582031 4.300781 9.578125 4.304688 C 9.574219 4.3125 4.105469 14.03125 4.101562 14.03125 C 4.101562 14.03125 4.066406 14 4.015625 13.953125 C 3.847656 13.792969 3.703125 13.636719 3.558594 13.464844 C 3.222656 13.0625 2.945312 12.613281 2.730469 12.132812 C 2.4375 11.472656 2.269531 10.765625 2.238281 10.050781 C 2.230469 9.886719 2.230469 9.691406 2.234375 9.535156 C 2.277344 8.644531 2.519531 7.789062 2.957031 7.003906 C 3.175781 6.609375 3.445312 6.238281 3.753906 5.902344 C 3.84375 5.808594 3.957031 5.691406 4.050781 5.605469 C 4.65625 5.042969 5.371094 4.621094 6.152344 4.359375 C 6.675781 4.1875 7.226562 4.089844 7.769531 4.070312 C 7.796875 4.070312 7.820312 4.070312 7.828125 4.070312 C 7.859375 4.066406 8.140625 4.070312 8.171875 4.070312 Z M 10.1875 4.519531 C 10.546875 4.671875 10.886719 4.855469 11.207031 5.078125 C 11.246094 5.105469 11.339844 5.171875 11.347656 5.175781 L 11.351562 5.179688 L 8.5625 10.136719 C 7.03125 12.859375 5.773438 15.089844 5.773438 15.089844 C 5.773438 15.09375 5.714844 15.066406 5.667969 15.046875 C 5.289062 14.878906 4.929688 14.675781 4.59375 14.433594 C 4.566406 14.410156 4.5625 14.410156 4.566406 14.40625 C 4.566406 14.40625 5.820312 12.179688 7.351562 9.457031 C 8.882812 6.738281 10.136719 4.507812 10.136719 4.503906 C 10.140625 4.503906 10.140625 4.5 10.140625 4.5 C 10.144531 4.5 10.164062 4.507812 10.1875 4.519531 Z M 11.84375 5.585938 C 11.957031 5.691406 12.078125 5.8125 12.179688 5.921875 C 12.960938 6.773438 13.464844 7.847656 13.628906 9 C 13.675781 9.339844 13.695312 9.699219 13.679688 10.039062 C 13.660156 10.527344 13.578125 11.015625 13.429688 11.484375 C 13.414062 11.542969 13.371094 11.667969 13.351562 11.726562 C 13.214844 12.109375 13.039062 12.476562 12.820312 12.820312 C 12.785156 12.878906 12.695312 13.011719 12.648438 13.082031 C 12.351562 13.503906 12.003906 13.882812 11.613281 14.207031 C 11.4375 14.351562 11.242188 14.496094 11.058594 14.613281 C 10.867188 14.734375 10.707031 14.824219 10.511719 14.921875 C 9.785156 15.28125 8.992188 15.484375 8.175781 15.519531 C 8.0625 15.523438 7.859375 15.523438 7.761719 15.519531 C 7.367188 15.503906 7.027344 15.460938 6.664062 15.375 C 6.554688 15.351562 6.339844 15.292969 6.335938 15.289062 C 6.335938 15.289062 11.8125 5.558594 11.8125 5.558594 C 11.8125 5.558594 11.828125 5.570312 11.84375 5.585938 Z M 15.597656 8.761719 C 15.6875 8.765625 15.742188 8.769531 15.808594 8.773438 C 16.679688 8.835938 17.527344 9.097656 18.28125 9.535156 C 18.941406 9.917969 19.523438 10.4375 19.980469 11.039062 C 20.027344 11.105469 20.070312 11.164062 20.132812 11.257812 C 20.238281 11.410156 20.355469 11.601562 20.449219 11.773438 C 20.949219 12.703125 21.179688 13.757812 21.121094 14.816406 C 21.078125 15.539062 20.902344 16.242188 20.601562 16.894531 C 20.417969 17.292969 20.191406 17.664062 19.925781 18 L 19.90625 18.027344 L 19.886719 18.007812 C 19.847656 17.960938 14.183594 10.929688 14.179688 10.925781 L 14.171875 10.917969 L 14.179688 10.886719 C 14.183594 10.867188 14.1875 10.835938 14.191406 10.8125 C 14.238281 10.519531 14.265625 10.246094 14.273438 9.941406 C 14.273438 9.871094 14.273438 9.648438 14.269531 9.589844 C 14.261719 9.363281 14.25 9.203125 14.222656 9.015625 C 14.210938 8.921875 14.207031 8.886719 14.207031 8.886719 C 14.210938 8.882812 14.320312 8.863281 14.371094 8.851562 C 14.648438 8.804688 14.929688 8.773438 15.203125 8.761719 C 15.226562 8.761719 15.253906 8.761719 15.261719 8.761719 C 15.289062 8.761719 15.566406 8.761719 15.597656 8.761719 Z M 16.75 15.050781 C 18.257812 16.921875 19.5 18.460938 19.503906 18.46875 L 19.511719 18.476562 L 19.453125 18.535156 C 19.210938 18.78125 18.972656 18.980469 18.699219 19.171875 C 18.628906 19.222656 18.472656 19.324219 18.4375 19.347656 L 18.429688 19.347656 L 18.429688 19.34375 C 18.417969 19.332031 13.363281 13.0625 13.363281 13.0625 C 13.363281 13.0625 13.375 13.039062 13.390625 13.015625 C 13.453125 12.90625 13.5 12.828125 13.5625 12.703125 C 13.730469 12.382812 13.875 12.03125 13.984375 11.691406 C 13.992188 11.664062 13.996094 11.640625 14 11.640625 C 14 11.640625 15.238281 13.175781 16.75 15.050781 Z M 15.464844 16.605469 C 16.808594 18.269531 17.90625 19.632812 17.90625 19.636719 C 17.910156 19.636719 17.90625 19.636719 17.882812 19.652344 C 17.738281 19.71875 17.601562 19.78125 17.464844 19.832031 C 16.71875 20.121094 15.917969 20.246094 15.121094 20.207031 C 14.511719 20.175781 13.917969 20.050781 13.355469 19.835938 C 12.671875 19.574219 12.050781 19.1875 11.515625 18.695312 C 11.339844 18.53125 11.152344 18.335938 11 18.148438 C 10.640625 17.722656 10.347656 17.234375 10.125 16.714844 C 10.011719 16.445312 9.917969 16.160156 9.84375 15.878906 C 9.832031 15.820312 9.832031 15.824219 9.835938 15.824219 C 9.839844 15.824219 10.109375 15.734375 10.148438 15.71875 C 10.175781 15.707031 10.246094 15.679688 10.324219 15.648438 C 10.410156 15.613281 10.527344 15.566406 10.625 15.519531 C 11.503906 15.113281 12.277344 14.507812 12.878906 13.753906 C 12.929688 13.691406 12.96875 13.640625 13 13.597656 L 13.019531 13.574219 L 13.023438 13.574219 C 13.023438 13.578125 14.125 14.941406 15.464844 16.605469 Z M 15.464844 16.605469 "/>
</g>
</svg>
