<?xml version="1.0" encoding="UTF-8"?>
<svg xmlns="http://www.w3.org/2000/svg" xmlns:xlink="http://www.w3.org/1999/xlink" viewBox="0 0 24 24" version="1.1">
<g>
<path style=" stroke:none;fill-rule:nonzero;fill:rgb(0%,0%,0%);fill-opacity:1;" d="M 12.183594 2.15625 C 11.695312 2.183594 11.25 2.433594 10.976562 2.84375 C 10.847656 3.03125 10.769531 3.242188 10.734375 3.464844 C 10.726562 3.503906 10.722656 3.535156 10.71875 3.589844 C 10.714844 3.617188 10.714844 3.90625 10.714844 8.882812 L 10.714844 14.148438 L 10.707031 14.152344 C 10.640625 14.191406 10.589844 14.230469 10.539062 14.28125 C 10.4375 14.382812 10.367188 14.507812 10.335938 14.648438 C 10.328125 14.679688 10.324219 14.710938 10.320312 14.753906 C 10.320312 14.765625 10.316406 14.929688 10.316406 15.460938 L 10.316406 16.152344 L 10.296875 16.160156 C 9.714844 16.347656 9.167969 16.625 8.671875 16.976562 C 7.945312 17.492188 7.351562 18.15625 6.929688 18.917969 C 6.863281 19.039062 6.789062 19.191406 6.730469 19.320312 C 6.601562 19.605469 6.5 19.898438 6.421875 20.203125 L 6.414062 20.230469 L 6.398438 20.230469 C 6.265625 20.238281 6.125 20.285156 6.011719 20.363281 C 5.75 20.539062 5.617188 20.847656 5.664062 21.160156 C 5.699219 21.363281 5.808594 21.546875 5.972656 21.671875 C 6.054688 21.730469 6.144531 21.777344 6.238281 21.804688 C 6.296875 21.820312 6.355469 21.828125 6.421875 21.832031 C 6.460938 21.835938 18.0625 21.835938 18.101562 21.832031 C 18.214844 21.828125 18.320312 21.800781 18.417969 21.75 C 18.550781 21.6875 18.65625 21.59375 18.734375 21.472656 C 18.761719 21.429688 18.792969 21.375 18.808594 21.332031 C 18.882812 21.148438 18.886719 20.941406 18.820312 20.757812 C 18.722656 20.484375 18.484375 20.285156 18.199219 20.238281 C 18.171875 20.234375 18.144531 20.230469 18.121094 20.230469 L 18.105469 20.230469 L 18.101562 20.203125 C 18.042969 19.976562 17.972656 19.757812 17.882812 19.539062 C 17.566406 18.738281 17.0625 18.015625 16.40625 17.421875 C 16.058594 17.105469 15.667969 16.828125 15.25 16.601562 C 15.164062 16.554688 15.03125 16.488281 14.949219 16.449219 C 14.71875 16.339844 14.503906 16.253906 14.265625 16.171875 L 14.207031 16.152344 L 14.207031 15.460938 C 14.203125 14.929688 14.203125 14.761719 14.203125 14.75 C 14.199219 14.722656 14.195312 14.691406 14.191406 14.671875 C 14.164062 14.523438 14.09375 14.390625 13.984375 14.28125 C 13.933594 14.230469 13.882812 14.191406 13.8125 14.152344 L 13.808594 14.148438 L 13.808594 8.882812 C 13.808594 3.878906 13.808594 3.613281 13.804688 3.589844 C 13.792969 3.449219 13.769531 3.339844 13.730469 3.21875 C 13.566406 2.722656 13.164062 2.339844 12.660156 2.207031 C 12.554688 2.179688 12.449219 2.164062 12.332031 2.15625 C 12.300781 2.15625 12.21875 2.15625 12.183594 2.15625 Z M 12.34375 2.871094 C 12.371094 2.875 12.40625 2.878906 12.433594 2.886719 C 12.628906 2.925781 12.804688 3.039062 12.925781 3.199219 C 12.960938 3.246094 12.984375 3.28125 13.007812 3.332031 C 13.0625 3.4375 13.089844 3.546875 13.09375 3.667969 C 13.09375 3.6875 13.097656 5.03125 13.097656 7.378906 L 13.097656 11.0625 L 11.425781 11.0625 L 11.425781 7.359375 C 11.425781 4.488281 11.429688 3.652344 11.429688 3.640625 C 11.441406 3.519531 11.464844 3.429688 11.515625 3.332031 C 11.574219 3.214844 11.65625 3.113281 11.761719 3.035156 C 11.886719 2.941406 12.035156 2.882812 12.1875 2.871094 C 12.195312 2.871094 12.207031 2.871094 12.210938 2.871094 C 12.226562 2.867188 12.324219 2.871094 12.34375 2.871094 Z M 13.097656 11.914062 L 13.097656 12.058594 L 11.425781 12.058594 L 11.425781 11.773438 L 13.097656 11.773438 Z M 13.097656 12.910156 L 13.097656 13.050781 L 11.425781 13.050781 L 11.425781 12.769531 L 13.097656 12.769531 Z M 13.097656 13.914062 L 13.097656 14.0625 L 11.425781 14.0625 L 11.425781 13.765625 L 13.097656 13.765625 Z M 13.46875 14.777344 C 13.476562 14.78125 13.484375 14.789062 13.488281 14.796875 L 13.492188 14.804688 L 13.492188 15.386719 C 13.492188 15.703125 13.492188 15.964844 13.492188 15.964844 C 13.492188 15.964844 13.480469 15.964844 13.464844 15.960938 C 13.285156 15.925781 13.066406 15.894531 12.871094 15.875 C 12.265625 15.816406 11.648438 15.847656 11.066406 15.960938 C 11.046875 15.964844 11.03125 15.964844 11.03125 15.964844 C 11.03125 15.964844 11.03125 15.703125 11.03125 15.386719 L 11.03125 14.804688 L 11.035156 14.796875 C 11.039062 14.789062 11.046875 14.78125 11.054688 14.777344 L 11.0625 14.773438 L 13.460938 14.773438 Z M 12.453125 16.5625 C 12.519531 16.566406 12.582031 16.566406 12.625 16.570312 C 13.46875 16.625 14.28125 16.867188 15.003906 17.28125 C 15.347656 17.476562 15.675781 17.714844 15.960938 17.980469 C 16.066406 18.078125 16.175781 18.1875 16.269531 18.289062 C 16.558594 18.605469 16.808594 18.957031 17.007812 19.335938 C 17.03125 19.382812 17.085938 19.492188 17.109375 19.539062 C 17.207031 19.753906 17.289062 19.96875 17.355469 20.1875 C 17.363281 20.210938 17.367188 20.226562 17.367188 20.226562 C 17.367188 20.226562 15.070312 20.226562 12.261719 20.226562 L 7.15625 20.226562 L 7.15625 20.222656 C 7.15625 20.222656 7.160156 20.203125 7.167969 20.183594 C 7.230469 19.980469 7.304688 19.785156 7.390625 19.589844 C 7.4375 19.488281 7.503906 19.355469 7.558594 19.253906 C 7.878906 18.679688 8.3125 18.164062 8.839844 17.742188 C 9.183594 17.46875 9.558594 17.238281 9.960938 17.054688 C 10.621094 16.753906 11.339844 16.585938 12.074219 16.5625 C 12.101562 16.5625 12.128906 16.5625 12.136719 16.558594 C 12.167969 16.558594 12.421875 16.5625 12.453125 16.5625 Z M 18.085938 20.945312 C 18.097656 20.945312 18.113281 20.957031 18.125 20.964844 C 18.148438 20.984375 18.160156 21.023438 18.152344 21.054688 C 18.144531 21.085938 18.117188 21.109375 18.089844 21.117188 C 18.082031 21.121094 17.90625 21.121094 12.261719 21.121094 C 6.617188 21.121094 6.441406 21.121094 6.433594 21.117188 C 6.402344 21.109375 6.378906 21.085938 6.371094 21.054688 C 6.355469 21.007812 6.386719 20.957031 6.433594 20.945312 C 6.441406 20.941406 6.730469 20.941406 12.261719 20.941406 C 17.570312 20.941406 18.078125 20.941406 18.085938 20.945312 Z M 18.085938 20.945312 "/>
<path style=" stroke:none;fill-rule:nonzero;fill:rgb(0%,0%,0%);fill-opacity:1;" d="M 14.410156 17.433594 C 14.410156 17.433594 14.398438 17.4375 14.390625 17.4375 C 14.335938 17.445312 14.277344 17.46875 14.230469 17.503906 C 14.210938 17.519531 14.183594 17.546875 14.167969 17.566406 C 14.082031 17.671875 14.0625 17.8125 14.121094 17.9375 C 14.136719 17.980469 14.171875 18.023438 14.203125 18.054688 C 14.222656 18.070312 14.230469 18.074219 14.261719 18.097656 C 14.597656 18.328125 14.921875 18.699219 15.183594 19.148438 C 15.253906 19.269531 15.320312 19.398438 15.378906 19.519531 C 15.398438 19.558594 15.402344 19.570312 15.417969 19.589844 C 15.429688 19.609375 15.441406 19.621094 15.457031 19.640625 C 15.511719 19.695312 15.578125 19.726562 15.652344 19.742188 C 15.679688 19.746094 15.722656 19.746094 15.753906 19.742188 C 15.832031 19.734375 15.90625 19.699219 15.964844 19.640625 C 16.019531 19.589844 16.054688 19.519531 16.066406 19.441406 C 16.070312 19.417969 16.070312 19.367188 16.066406 19.347656 C 16.058594 19.300781 16.050781 19.273438 16.027344 19.222656 C 15.824219 18.789062 15.574219 18.398438 15.289062 18.074219 C 15.191406 17.960938 15.082031 17.851562 14.980469 17.757812 C 14.871094 17.660156 14.746094 17.5625 14.644531 17.496094 C 14.597656 17.464844 14.554688 17.445312 14.496094 17.4375 C 14.484375 17.433594 14.421875 17.433594 14.410156 17.433594 Z M 14.410156 17.433594 "/>
</g>
</svg>
