<?xml version="1.0" encoding="UTF-8"?>
<svg xmlns="http://www.w3.org/2000/svg" xmlns:xlink="http://www.w3.org/1999/xlink" viewBox="0 0 24 24" version="1.1">
<g>
<path style=" stroke:none;fill-rule:nonzero;fill:rgb(0%,0%,0%);fill-opacity:1;" d="M 7.15625 2.535156 C 7.089844 2.539062 7.03125 2.554688 6.972656 2.585938 C 6.894531 2.625 6.828125 2.6875 6.78125 2.757812 C 6.746094 2.816406 6.722656 2.882812 6.710938 2.957031 C 6.710938 2.972656 6.710938 3.078125 6.710938 4.96875 L 6.710938 6.96875 L 5.242188 6.96875 C 4.273438 6.96875 3.765625 6.96875 3.746094 6.96875 C 3.628906 6.976562 3.519531 6.992188 3.410156 7.015625 C 2.996094 7.105469 2.621094 7.335938 2.347656 7.667969 C 2.300781 7.71875 2.265625 7.769531 2.222656 7.832031 C 2.117188 7.992188 2.035156 8.167969 1.980469 8.351562 C 1.9375 8.496094 1.910156 8.640625 1.902344 8.804688 C 1.898438 8.847656 1.898438 15.765625 1.902344 15.8125 C 1.90625 15.882812 1.910156 15.933594 1.921875 15.992188 C 1.984375 16.449219 2.214844 16.871094 2.566406 17.175781 C 2.730469 17.316406 2.917969 17.433594 3.117188 17.511719 C 3.320312 17.59375 3.53125 17.636719 3.746094 17.644531 C 3.773438 17.648438 3.996094 17.648438 4.515625 17.648438 L 5.25 17.648438 L 5.269531 17.644531 C 5.324219 17.636719 5.367188 17.621094 5.414062 17.597656 C 5.519531 17.546875 5.605469 17.453125 5.652344 17.34375 C 5.695312 17.234375 5.695312 17.109375 5.652344 16.996094 C 5.644531 16.976562 5.628906 16.9375 5.617188 16.917969 C 5.539062 16.792969 5.414062 16.710938 5.269531 16.691406 C 5.257812 16.6875 5.242188 16.6875 5.226562 16.6875 C 5.210938 16.683594 4.941406 16.683594 4.496094 16.683594 C 4.042969 16.683594 3.78125 16.683594 3.769531 16.683594 C 3.601562 16.671875 3.441406 16.617188 3.300781 16.527344 C 3.164062 16.4375 3.054688 16.316406 2.976562 16.171875 C 2.960938 16.140625 2.945312 16.109375 2.933594 16.074219 C 2.894531 15.976562 2.871094 15.871094 2.863281 15.761719 C 2.863281 15.722656 2.863281 8.894531 2.863281 8.855469 C 2.875 8.636719 2.953125 8.4375 3.097656 8.269531 C 3.121094 8.242188 3.167969 8.195312 3.195312 8.167969 C 3.359375 8.027344 3.554688 7.949219 3.769531 7.933594 C 3.800781 7.933594 20.195312 7.933594 20.226562 7.933594 C 20.253906 7.9375 20.292969 7.941406 20.316406 7.945312 C 20.625 7.992188 20.894531 8.191406 21.035156 8.472656 C 21.09375 8.59375 21.125 8.71875 21.132812 8.855469 C 21.132812 8.894531 21.132812 15.722656 21.132812 15.757812 C 21.125 15.917969 21.082031 16.066406 21.003906 16.199219 C 20.839844 16.480469 20.550781 16.660156 20.226562 16.683594 C 20.214844 16.683594 19.953125 16.683594 19.5 16.683594 C 19.054688 16.683594 18.78125 16.683594 18.765625 16.6875 C 18.714844 16.6875 18.671875 16.699219 18.625 16.714844 C 18.601562 16.722656 18.558594 16.746094 18.535156 16.757812 C 18.441406 16.820312 18.367188 16.910156 18.335938 17.015625 C 18.300781 17.121094 18.304688 17.238281 18.34375 17.339844 C 18.367188 17.402344 18.402344 17.457031 18.449219 17.503906 C 18.519531 17.574219 18.605469 17.621094 18.707031 17.640625 C 18.746094 17.648438 18.703125 17.648438 19.492188 17.648438 C 19.960938 17.648438 20.234375 17.648438 20.253906 17.644531 C 20.578125 17.632812 20.882812 17.539062 21.15625 17.375 C 21.351562 17.257812 21.527344 17.101562 21.671875 16.921875 C 21.875 16.671875 22.007812 16.378906 22.066406 16.0625 C 22.078125 15.984375 22.089844 15.902344 22.09375 15.8125 C 22.097656 15.765625 22.097656 8.84375 22.09375 8.800781 C 22.089844 8.691406 22.078125 8.605469 22.058594 8.511719 C 21.996094 8.210938 21.867188 7.933594 21.675781 7.695312 C 21.601562 7.605469 21.511719 7.511719 21.425781 7.433594 C 21.128906 7.179688 20.773438 7.023438 20.386719 6.980469 C 20.359375 6.976562 20.339844 6.976562 20.28125 6.972656 C 20.269531 6.96875 19.882812 6.96875 18.777344 6.96875 L 17.289062 6.96875 L 17.289062 4.988281 C 17.289062 3.664062 17.289062 3 17.289062 2.984375 C 17.28125 2.863281 17.230469 2.753906 17.144531 2.667969 C 17.0625 2.589844 16.960938 2.542969 16.847656 2.535156 C 16.835938 2.53125 15.25 2.53125 11.996094 2.53125 C 9.339844 2.53125 7.160156 2.535156 7.15625 2.535156 Z M 16.328125 5.234375 L 16.328125 6.96875 L 7.671875 6.96875 L 7.671875 3.496094 L 16.328125 3.496094 Z M 16.328125 5.234375 "/>
<path style=" stroke:none;fill-rule:nonzero;fill:rgb(0%,0%,0%);fill-opacity:1;" d="M 17.589844 9.140625 C 17.570312 9.144531 17.535156 9.148438 17.515625 9.15625 C 17.367188 9.191406 17.246094 9.300781 17.1875 9.445312 C 17.171875 9.484375 17.164062 9.519531 17.15625 9.566406 C 17.15625 9.585938 17.15625 9.65625 17.15625 9.675781 C 17.167969 9.773438 17.207031 9.859375 17.265625 9.929688 C 17.28125 9.949219 17.3125 9.980469 17.332031 9.996094 C 17.402344 10.054688 17.484375 10.089844 17.582031 10.101562 C 17.601562 10.101562 17.644531 10.101562 18.464844 10.101562 C 19.292969 10.101562 19.332031 10.101562 19.351562 10.101562 C 19.464844 10.085938 19.558594 10.039062 19.636719 9.960938 C 19.710938 9.886719 19.757812 9.796875 19.773438 9.691406 C 19.777344 9.664062 19.78125 9.605469 19.777344 9.578125 C 19.761719 9.410156 19.660156 9.265625 19.507812 9.191406 C 19.460938 9.164062 19.417969 9.152344 19.359375 9.144531 C 19.34375 9.140625 19.296875 9.140625 18.472656 9.140625 C 17.984375 9.140625 17.597656 9.140625 17.589844 9.140625 Z M 17.589844 9.140625 "/>
<path style=" stroke:none;fill-rule:nonzero;fill:rgb(0%,0%,0%);fill-opacity:1;" d="M 5.832031 13.496094 C 5.625 13.507812 5.445312 13.65625 5.394531 13.859375 C 5.386719 13.898438 5.382812 13.929688 5.382812 13.976562 C 5.382812 14.015625 5.382812 14.039062 5.390625 14.074219 C 5.425781 14.242188 5.550781 14.378906 5.714844 14.433594 C 5.746094 14.445312 5.785156 14.453125 5.820312 14.457031 C 5.828125 14.457031 5.945312 14.457031 6.148438 14.457031 L 6.460938 14.457031 L 6.460938 17.746094 C 6.460938 20.875 6.460938 21.03125 6.464844 21.046875 C 6.46875 21.074219 6.472656 21.085938 6.476562 21.109375 C 6.507812 21.222656 6.578125 21.324219 6.679688 21.390625 C 6.742188 21.433594 6.816406 21.460938 6.898438 21.46875 C 6.917969 21.46875 17.078125 21.46875 17.097656 21.46875 C 17.257812 21.449219 17.398438 21.359375 17.476562 21.21875 C 17.503906 21.167969 17.523438 21.117188 17.53125 21.046875 C 17.535156 21.03125 17.535156 20.78125 17.535156 17.742188 L 17.535156 14.457031 L 17.851562 14.457031 C 18.117188 14.457031 18.167969 14.457031 18.183594 14.457031 C 18.277344 14.445312 18.359375 14.414062 18.433594 14.355469 C 18.453125 14.339844 18.5 14.292969 18.515625 14.273438 C 18.570312 14.199219 18.605469 14.117188 18.613281 14.027344 C 18.617188 14.003906 18.617188 13.953125 18.617188 13.929688 C 18.605469 13.835938 18.574219 13.753906 18.515625 13.679688 C 18.5 13.65625 18.453125 13.613281 18.433594 13.597656 C 18.359375 13.539062 18.285156 13.507812 18.183594 13.496094 C 18.175781 13.496094 16.847656 13.496094 12.011719 13.496094 C 8.625 13.496094 5.84375 13.496094 5.832031 13.496094 Z M 16.570312 17.480469 L 16.570312 20.503906 L 7.425781 20.503906 L 7.425781 14.457031 L 16.570312 14.457031 Z M 16.570312 17.480469 "/>
<path style=" stroke:none;fill-rule:nonzero;fill:rgb(0%,0%,0%);fill-opacity:1;" d="M 8.953125 15.957031 C 8.890625 15.960938 8.835938 15.972656 8.78125 15.996094 C 8.722656 16.023438 8.675781 16.054688 8.628906 16.101562 C 8.585938 16.148438 8.554688 16.199219 8.527344 16.257812 C 8.496094 16.335938 8.484375 16.425781 8.5 16.511719 C 8.527344 16.710938 8.683594 16.871094 8.882812 16.910156 C 8.890625 16.914062 8.902344 16.914062 8.914062 16.917969 C 8.929688 16.917969 9.0625 16.917969 12 16.917969 C 14.933594 16.917969 15.066406 16.917969 15.082031 16.917969 C 15.121094 16.910156 15.140625 16.90625 15.171875 16.894531 C 15.339844 16.839844 15.464844 16.699219 15.496094 16.527344 C 15.5 16.492188 15.503906 16.480469 15.503906 16.4375 C 15.503906 16.382812 15.5 16.355469 15.484375 16.308594 C 15.445312 16.15625 15.324219 16.03125 15.175781 15.980469 C 15.140625 15.972656 15.109375 15.964844 15.070312 15.957031 C 15.0625 15.957031 14.417969 15.957031 12.007812 15.957031 C 10.332031 15.957031 8.957031 15.957031 8.953125 15.957031 Z M 8.953125 15.957031 "/>
<path style=" stroke:none;fill-rule:nonzero;fill:rgb(0%,0%,0%);fill-opacity:1;" d="M 8.925781 18.378906 C 8.8125 18.390625 8.710938 18.441406 8.628906 18.523438 C 8.554688 18.597656 8.511719 18.6875 8.496094 18.796875 C 8.492188 18.820312 8.492188 18.894531 8.496094 18.917969 C 8.503906 18.957031 8.511719 18.988281 8.523438 19.023438 C 8.582031 19.195312 8.742188 19.316406 8.921875 19.335938 C 8.941406 19.335938 9.261719 19.339844 12 19.339844 C 14.746094 19.339844 15.058594 19.335938 15.078125 19.335938 C 15.160156 19.328125 15.238281 19.296875 15.304688 19.25 C 15.472656 19.132812 15.542969 18.921875 15.488281 18.722656 C 15.464844 18.640625 15.414062 18.5625 15.351562 18.503906 C 15.273438 18.433594 15.179688 18.390625 15.074219 18.378906 C 15.054688 18.375 14.746094 18.375 11.996094 18.375 C 10.3125 18.375 8.933594 18.378906 8.925781 18.378906 Z M 8.925781 18.378906 "/>
</g>
</svg>
