<?xml version="1.0" encoding="UTF-8"?>
<svg xmlns="http://www.w3.org/2000/svg" xmlns:xlink="http://www.w3.org/1999/xlink" viewBox="0 0 24 24" version="1.1">
<g>
<path style=" stroke:none;fill-rule:nonzero;fill:rgb(0%,0%,0%);fill-opacity:1;" d="M 11.769531 2.390625 C 11.6875 2.390625 11.566406 2.394531 11.472656 2.398438 C 10.269531 2.449219 9.097656 2.71875 8 3.199219 C 7.003906 3.632812 6.089844 4.230469 5.289062 4.96875 C 5.121094 5.125 4.933594 5.308594 4.777344 5.472656 C 3.753906 6.566406 3 7.871094 2.566406 9.292969 C 2.199219 10.488281 2.070312 11.753906 2.179688 13.011719 C 2.300781 14.367188 2.703125 15.675781 3.359375 16.867188 C 3.9375 17.90625 4.703125 18.835938 5.613281 19.601562 C 6.261719 20.148438 6.976562 20.605469 7.742188 20.96875 C 8.917969 21.519531 10.191406 21.832031 11.496094 21.882812 C 11.886719 21.898438 12.277344 21.890625 12.660156 21.863281 C 14.167969 21.746094 15.617188 21.28125 16.910156 20.503906 C 17.734375 20.011719 18.484375 19.394531 19.125 18.6875 C 19.71875 18.03125 20.21875 17.300781 20.613281 16.511719 C 21.226562 15.289062 21.574219 13.960938 21.636719 12.589844 C 21.644531 12.441406 21.644531 12.367188 21.648438 12.199219 C 21.648438 11.832031 21.632812 11.503906 21.597656 11.152344 C 21.46875 9.863281 21.082031 8.617188 20.460938 7.480469 C 19.925781 6.492188 19.21875 5.605469 18.375 4.855469 C 17.679688 4.234375 16.898438 3.71875 16.058594 3.320312 C 15.023438 2.832031 13.917969 2.53125 12.773438 2.425781 C 12.441406 2.398438 12.113281 2.386719 11.769531 2.390625 Z M 12.121094 3.667969 C 12.238281 3.671875 12.324219 3.675781 12.421875 3.683594 C 13.78125 3.765625 15.09375 4.175781 16.261719 4.875 C 16.777344 5.1875 17.257812 5.550781 17.703125 5.96875 C 17.820312 6.082031 17.960938 6.222656 18.078125 6.347656 C 18.433594 6.726562 18.765625 7.148438 19.046875 7.59375 C 19.792969 8.761719 20.234375 10.089844 20.34375 11.472656 C 20.371094 11.828125 20.375 12.199219 20.359375 12.550781 C 20.308594 13.644531 20.046875 14.699219 19.59375 15.6875 C 19.523438 15.839844 19.4375 16.007812 19.359375 16.15625 C 18.925781 16.960938 18.359375 17.695312 17.695312 18.316406 C 16.5 19.441406 15.007812 20.191406 13.402344 20.480469 C 12.960938 20.558594 12.527344 20.601562 12.070312 20.613281 C 11.988281 20.613281 11.71875 20.613281 11.648438 20.609375 C 11.542969 20.605469 11.472656 20.605469 11.390625 20.597656 C 10.050781 20.519531 8.757812 20.128906 7.601562 19.449219 C 6.765625 18.957031 6.019531 18.324219 5.394531 17.582031 C 4.886719 16.972656 4.46875 16.300781 4.148438 15.582031 C 3.722656 14.621094 3.476562 13.589844 3.429688 12.535156 C 3.421875 12.386719 3.421875 12.308594 3.421875 12.140625 C 3.421875 12 3.421875 11.941406 3.425781 11.832031 C 3.464844 10.703125 3.726562 9.613281 4.195312 8.59375 C 4.246094 8.484375 4.328125 8.316406 4.382812 8.210938 C 4.730469 7.550781 5.160156 6.941406 5.664062 6.394531 C 5.808594 6.242188 5.972656 6.078125 6.125 5.9375 C 6.652344 5.441406 7.25 5.015625 7.882812 4.675781 C 8.023438 4.597656 8.1875 4.515625 8.332031 4.449219 C 9.121094 4.082031 9.964844 3.839844 10.828125 3.730469 C 11.136719 3.695312 11.417969 3.675781 11.753906 3.667969 C 11.796875 3.664062 12.078125 3.667969 12.121094 3.667969 Z M 12.121094 3.667969 "/>
<path style=" stroke:none;fill-rule:nonzero;fill:rgb(0%,0%,0%);fill-opacity:1;" d="M 11.875 5.257812 C 11.113281 5.269531 10.414062 5.417969 9.808594 5.691406 C 9.457031 5.851562 9.097656 6.074219 8.789062 6.320312 C 8.617188 6.457031 8.453125 6.609375 8.308594 6.765625 C 8.148438 6.945312 8.007812 7.132812 7.882812 7.335938 C 7.78125 7.503906 7.691406 7.667969 7.617188 7.835938 C 7.5 8.105469 7.417969 8.382812 7.375 8.644531 C 7.359375 8.765625 7.347656 8.867188 7.347656 8.996094 C 7.34375 9.078125 7.347656 9.132812 7.355469 9.1875 C 7.382812 9.394531 7.476562 9.589844 7.644531 9.78125 C 7.726562 9.875 7.808594 9.945312 7.902344 10.007812 C 8.058594 10.109375 8.230469 10.171875 8.425781 10.1875 C 8.484375 10.195312 8.585938 10.195312 8.640625 10.191406 C 8.769531 10.183594 8.878906 10.160156 8.984375 10.117188 C 9.042969 10.097656 9.082031 10.074219 9.132812 10.042969 C 9.203125 10.003906 9.265625 9.957031 9.328125 9.894531 C 9.496094 9.726562 9.628906 9.488281 9.726562 9.183594 C 9.742188 9.136719 9.777344 9.027344 9.8125 8.941406 C 9.917969 8.652344 10.035156 8.40625 10.160156 8.1875 C 10.285156 7.972656 10.425781 7.789062 10.5625 7.648438 C 10.691406 7.519531 10.84375 7.421875 11.023438 7.34375 C 11.207031 7.265625 11.421875 7.214844 11.664062 7.191406 C 11.855469 7.171875 12.0625 7.171875 12.234375 7.1875 C 12.671875 7.222656 13.042969 7.371094 13.347656 7.628906 C 13.414062 7.683594 13.484375 7.757812 13.546875 7.828125 C 13.769531 8.085938 13.894531 8.382812 13.929688 8.71875 C 13.9375 8.785156 13.9375 8.808594 13.9375 8.894531 C 13.9375 8.953125 13.9375 8.988281 13.9375 9.003906 C 13.921875 9.171875 13.890625 9.316406 13.828125 9.457031 C 13.777344 9.578125 13.679688 9.742188 13.578125 9.882812 C 13.511719 9.96875 13.453125 10.039062 13.371094 10.125 C 13.25 10.25 12.894531 10.578125 12.464844 10.953125 C 12.164062 11.222656 11.917969 11.449219 11.683594 11.679688 C 11.542969 11.820312 11.441406 11.925781 11.375 12.003906 C 11.148438 12.261719 10.957031 12.566406 10.8125 12.898438 C 10.648438 13.277344 10.566406 13.71875 10.566406 14.234375 C 10.566406 14.339844 10.566406 14.394531 10.578125 14.472656 C 10.605469 14.722656 10.679688 14.921875 10.804688 15.078125 C 10.867188 15.15625 10.953125 15.234375 11.042969 15.296875 C 11.089844 15.324219 11.15625 15.363281 11.203125 15.382812 C 11.300781 15.425781 11.40625 15.453125 11.515625 15.46875 C 11.625 15.480469 11.75 15.480469 11.867188 15.46875 C 12.15625 15.433594 12.375 15.316406 12.53125 15.113281 C 12.640625 14.96875 12.71875 14.785156 12.765625 14.550781 C 12.773438 14.496094 12.828125 14.265625 12.855469 14.144531 C 12.910156 13.914062 12.949219 13.792969 13.007812 13.664062 C 13.050781 13.5625 13.101562 13.472656 13.160156 13.390625 C 13.253906 13.25 13.375 13.113281 13.546875 12.9375 C 13.660156 12.824219 13.746094 12.746094 13.929688 12.578125 C 14.882812 11.726562 15.328125 11.3125 15.515625 11.109375 C 15.738281 10.863281 15.941406 10.582031 16.117188 10.261719 C 16.300781 9.929688 16.410156 9.539062 16.4375 9.113281 C 16.441406 9.03125 16.441406 9.007812 16.441406 8.886719 C 16.441406 8.765625 16.441406 8.742188 16.4375 8.664062 C 16.410156 8.257812 16.3125 7.875 16.140625 7.503906 C 16.007812 7.222656 15.835938 6.953125 15.628906 6.714844 C 15.53125 6.601562 15.417969 6.484375 15.300781 6.378906 C 15.082031 6.183594 14.832031 6.007812 14.554688 5.859375 C 14.410156 5.78125 14.246094 5.699219 14.101562 5.640625 C 13.480469 5.382812 12.773438 5.253906 11.992188 5.253906 C 11.941406 5.253906 11.886719 5.253906 11.875 5.257812 Z M 11.875 5.257812 "/>
<path style=" stroke:none;fill-rule:nonzero;fill:rgb(0%,0%,0%);fill-opacity:1;" d="M 11.726562 16.304688 C 11.71875 16.304688 11.703125 16.304688 11.6875 16.304688 C 11.375 16.324219 11.101562 16.433594 10.867188 16.632812 C 10.804688 16.6875 10.738281 16.757812 10.6875 16.820312 C 10.53125 17.015625 10.4375 17.238281 10.410156 17.488281 C 10.394531 17.613281 10.398438 17.761719 10.414062 17.890625 C 10.445312 18.136719 10.53125 18.347656 10.667969 18.515625 C 10.703125 18.558594 10.765625 18.625 10.804688 18.660156 C 11.039062 18.863281 11.300781 18.980469 11.597656 19.015625 C 11.667969 19.023438 11.71875 19.023438 11.804688 19.023438 C 11.871094 19.023438 11.898438 19.023438 11.949219 19.015625 C 12.207031 18.988281 12.4375 18.894531 12.644531 18.734375 C 12.726562 18.667969 12.804688 18.59375 12.863281 18.523438 C 13.011719 18.339844 13.101562 18.121094 13.128906 17.855469 C 13.136719 17.785156 13.140625 17.726562 13.140625 17.640625 C 13.136719 17.578125 13.136719 17.558594 13.132812 17.511719 C 13.101562 17.191406 12.972656 16.917969 12.742188 16.691406 C 12.636719 16.585938 12.527344 16.507812 12.398438 16.441406 C 12.238281 16.363281 12.074219 16.320312 11.878906 16.304688 C 11.855469 16.304688 11.746094 16.304688 11.726562 16.304688 Z M 11.726562 16.304688 "/>
</g>
</svg>
