<?xml version="1.0" encoding="UTF-8"?>
<svg xmlns="http://www.w3.org/2000/svg" xmlns:xlink="http://www.w3.org/1999/xlink" viewBox="0 0 24 24" version="1.1">
<g>
<path style=" stroke:none;fill-rule:nonzero;fill:rgb(0%,0%,0%);fill-opacity:1;" d="M 13.152344 3.371094 C 12.980469 3.375 12.867188 3.378906 12.734375 3.390625 C 11.867188 3.449219 11.023438 3.636719 10.21875 3.949219 C 9.632812 4.179688 9.058594 4.480469 8.542969 4.832031 C 7.832031 5.3125 7.210938 5.882812 6.671875 6.550781 C 6.226562 7.097656 5.847656 7.710938 5.554688 8.355469 C 5.226562 9.070312 5 9.824219 4.878906 10.601562 C 4.871094 10.652344 4.859375 10.734375 4.855469 10.769531 C 4.855469 10.78125 4.855469 10.789062 4.851562 10.789062 L 4.851562 10.792969 L 3.449219 10.792969 C 2.480469 10.792969 2.042969 10.792969 2.03125 10.796875 C 1.90625 10.808594 1.800781 10.898438 1.773438 11.019531 C 1.769531 11.027344 1.769531 11.039062 1.765625 11.050781 C 1.765625 11.0625 1.765625 11.316406 1.765625 13.386719 C 1.765625 15.464844 1.765625 15.707031 1.765625 15.722656 C 1.785156 15.855469 1.894531 15.960938 2.03125 15.972656 C 2.039062 15.976562 2.671875 15.976562 3.933594 15.976562 L 5.820312 15.976562 L 5.832031 15.996094 C 5.835938 16.003906 5.855469 16.035156 5.867188 16.0625 C 6.363281 16.945312 7.003906 17.730469 7.765625 18.382812 C 8.695312 19.179688 9.785156 19.765625 10.957031 20.101562 C 11.859375 20.359375 12.796875 20.464844 13.738281 20.417969 C 14.597656 20.378906 15.4375 20.207031 16.242188 19.910156 C 16.617188 19.773438 16.992188 19.605469 17.347656 19.414062 C 18.199219 18.953125 18.96875 18.351562 19.621094 17.636719 C 20.117188 17.089844 20.539062 16.488281 20.878906 15.832031 C 20.925781 15.746094 21 15.589844 21.042969 15.5 C 21.613281 14.277344 21.882812 12.949219 21.835938 11.59375 C 21.816406 11.070312 21.75 10.550781 21.636719 10.042969 C 21.445312 9.183594 21.121094 8.363281 20.679688 7.605469 C 20.066406 6.5625 19.242188 5.65625 18.257812 4.953125 C 17.105469 4.132812 15.773438 3.609375 14.375 3.4375 C 14.105469 3.402344 13.859375 3.382812 13.550781 3.375 C 13.511719 3.371094 13.191406 3.371094 13.152344 3.371094 Z M 13.449219 3.957031 C 13.648438 3.960938 13.878906 3.972656 14.097656 3.996094 C 14.941406 4.078125 15.761719 4.296875 16.535156 4.640625 C 17.527344 5.082031 18.421875 5.726562 19.160156 6.53125 C 19.632812 7.042969 20.03125 7.613281 20.355469 8.234375 C 20.386719 8.289062 20.464844 8.449219 20.492188 8.503906 C 20.664062 8.867188 20.804688 9.230469 20.917969 9.613281 C 21.101562 10.214844 21.210938 10.84375 21.242188 11.476562 C 21.25 11.632812 21.253906 11.722656 21.253906 11.898438 C 21.253906 12.066406 21.253906 12.140625 21.246094 12.285156 C 21.1875 13.496094 20.851562 14.675781 20.265625 15.734375 C 19.71875 16.726562 18.964844 17.585938 18.058594 18.265625 C 17.570312 18.628906 17.042969 18.9375 16.484375 19.179688 C 15.742188 19.507812 14.949219 19.71875 14.136719 19.800781 C 13.828125 19.832031 13.503906 19.847656 13.203125 19.84375 C 13.039062 19.839844 12.917969 19.835938 12.773438 19.824219 C 11.875 19.765625 10.992188 19.554688 10.167969 19.199219 C 9.925781 19.09375 9.675781 18.96875 9.441406 18.839844 C 8.726562 18.441406 8.070312 17.929688 7.511719 17.328125 C 7.148438 16.941406 6.824219 16.515625 6.546875 16.0625 C 6.527344 16.03125 6.5 15.984375 6.496094 15.980469 C 6.496094 15.976562 6.5 15.976562 7.578125 15.976562 L 8.660156 15.976562 L 8.675781 15.992188 C 8.8125 16.148438 8.992188 16.328125 9.15625 16.480469 C 9.941406 17.191406 10.890625 17.691406 11.917969 17.925781 C 12.28125 18.011719 12.644531 18.0625 13.019531 18.078125 C 13.125 18.082031 13.15625 18.085938 13.3125 18.085938 C 13.460938 18.085938 13.492188 18.082031 13.589844 18.078125 C 14.574219 18.035156 15.523438 17.761719 16.378906 17.269531 C 16.792969 17.03125 17.191406 16.738281 17.542969 16.410156 C 18.441406 15.5625 19.066406 14.476562 19.339844 13.285156 C 19.472656 12.707031 19.523438 12.109375 19.484375 11.511719 C 19.4375 10.761719 19.257812 10.03125 18.945312 9.347656 C 18.890625 9.226562 18.816406 9.082031 18.753906 8.960938 C 18.5 8.496094 18.1875 8.0625 17.824219 7.675781 C 17.746094 7.589844 17.644531 7.488281 17.558594 7.410156 C 17.003906 6.882812 16.359375 6.464844 15.652344 6.175781 C 15 5.90625 14.304688 5.753906 13.59375 5.722656 C 13.429688 5.714844 13.234375 5.710938 13.078125 5.71875 C 12.195312 5.753906 11.351562 5.972656 10.5625 6.363281 C 9.898438 6.695312 9.292969 7.148438 8.785156 7.695312 C 8.460938 8.039062 8.175781 8.425781 7.941406 8.835938 C 7.90625 8.898438 7.878906 8.945312 7.832031 9.035156 C 7.800781 9.089844 7.742188 9.214844 7.707031 9.289062 C 7.484375 9.761719 7.324219 10.253906 7.230469 10.769531 L 7.226562 10.792969 L 5.445312 10.792969 L 5.445312 10.777344 C 5.46875 10.628906 5.492188 10.472656 5.519531 10.335938 C 5.675781 9.546875 5.949219 8.789062 6.332031 8.089844 C 6.777344 7.269531 7.363281 6.535156 8.066406 5.917969 C 8.691406 5.371094 9.398438 4.925781 10.160156 4.597656 C 11.121094 4.1875 12.15625 3.96875 13.207031 3.957031 C 13.289062 3.957031 13.328125 3.957031 13.449219 3.957031 Z M 13.503906 6.304688 C 13.59375 6.308594 13.648438 6.3125 13.714844 6.316406 C 14.5625 6.375 15.386719 6.628906 16.121094 7.058594 C 16.476562 7.265625 16.808594 7.511719 17.113281 7.792969 C 17.214844 7.886719 17.332031 8.003906 17.425781 8.105469 C 17.90625 8.628906 18.289062 9.238281 18.542969 9.902344 C 18.816406 10.621094 18.941406 11.394531 18.902344 12.175781 C 18.863281 13.019531 18.632812 13.839844 18.226562 14.582031 C 18.007812 14.976562 17.742188 15.347656 17.4375 15.679688 C 17.324219 15.804688 17.1875 15.941406 17.0625 16.054688 C 16.445312 16.613281 15.71875 17.023438 14.925781 17.261719 C 14.265625 17.460938 13.566406 17.535156 12.875 17.484375 C 12.050781 17.417969 11.253906 17.171875 10.53125 16.757812 C 10.164062 16.550781 9.816406 16.292969 9.503906 16.003906 L 9.476562 15.976562 L 16.8125 15.976562 L 16.828125 15.972656 C 16.878906 15.960938 16.917969 15.945312 16.957031 15.917969 C 16.972656 15.90625 17.003906 15.875 17.015625 15.859375 C 17.046875 15.8125 17.066406 15.765625 17.074219 15.707031 C 17.074219 15.6875 17.074219 13.492188 17.074219 13.46875 C 17.0625 13.367188 17.003906 13.277344 16.910156 13.230469 C 16.882812 13.21875 16.859375 13.210938 16.824219 13.203125 C 16.816406 13.203125 16.703125 13.203125 16.410156 13.203125 L 16.003906 13.199219 L 16.015625 13.183594 C 16.089844 13.078125 16.164062 12.945312 16.21875 12.824219 C 16.378906 12.464844 16.445312 12.082031 16.40625 11.6875 C 16.367188 11.242188 16.191406 10.8125 15.902344 10.464844 C 15.824219 10.371094 15.734375 10.277344 15.644531 10.199219 C 15.375 9.960938 15.050781 9.792969 14.703125 9.703125 C 14.582031 9.675781 14.453125 9.652344 14.328125 9.644531 C 14.273438 9.640625 14.253906 9.640625 14.179688 9.636719 C 14.109375 9.636719 14.058594 9.640625 14 9.644531 C 13.605469 9.671875 13.230469 9.796875 12.902344 10.015625 C 12.777344 10.101562 12.667969 10.191406 12.558594 10.300781 C 12.445312 10.414062 12.355469 10.523438 12.269531 10.652344 C 12.089844 10.925781 11.96875 11.226562 11.917969 11.554688 L 11.914062 11.578125 L 11.886719 11.550781 C 11.457031 11.164062 10.925781 10.910156 10.363281 10.828125 C 10.246094 10.808594 10.132812 10.800781 10.011719 10.796875 C 9.980469 10.792969 9.566406 10.792969 8.894531 10.792969 L 7.824219 10.792969 L 7.828125 10.761719 C 7.945312 10.195312 8.152344 9.648438 8.441406 9.140625 C 8.761719 8.582031 9.175781 8.078125 9.667969 7.660156 C 10.480469 6.960938 11.46875 6.507812 12.519531 6.359375 C 12.730469 6.328125 12.9375 6.308594 13.160156 6.300781 C 13.210938 6.300781 13.460938 6.300781 13.503906 6.304688 Z M 14.238281 10.226562 C 14.371094 10.234375 14.492188 10.253906 14.613281 10.289062 C 14.921875 10.375 15.203125 10.554688 15.414062 10.796875 C 15.554688 10.957031 15.664062 11.140625 15.734375 11.34375 C 15.800781 11.53125 15.832031 11.722656 15.832031 11.921875 C 15.828125 11.984375 15.828125 12.019531 15.820312 12.074219 C 15.777344 12.507812 15.5625 12.90625 15.230469 13.1875 L 15.210938 13.203125 L 13.097656 13.203125 L 13.082031 13.1875 C 13.007812 13.125 12.9375 13.054688 12.871094 12.976562 C 12.539062 12.582031 12.410156 12.058594 12.515625 11.554688 C 12.613281 11.085938 12.910156 10.679688 13.332031 10.441406 C 13.550781 10.316406 13.800781 10.242188 14.050781 10.226562 C 14.0625 10.226562 14.078125 10.226562 14.082031 10.226562 C 14.101562 10.222656 14.214844 10.226562 14.238281 10.226562 Z M 10.046875 11.382812 C 10.136719 11.390625 10.195312 11.394531 10.257812 11.402344 C 10.710938 11.46875 11.136719 11.667969 11.480469 11.972656 C 11.550781 12.035156 11.617188 12.101562 11.675781 12.167969 C 11.917969 12.4375 12.089844 12.757812 12.183594 13.101562 C 12.191406 13.121094 12.207031 13.183594 12.210938 13.199219 L 12.210938 13.203125 L 2.351562 13.203125 L 2.351562 11.378906 L 6.1875 11.378906 C 9.179688 11.382812 10.027344 11.382812 10.046875 11.382812 Z M 16.488281 14.589844 L 16.488281 15.390625 L 2.351562 15.390625 L 2.351562 13.789062 L 16.488281 13.789062 Z M 16.488281 14.589844 "/>
</g>
</svg>
