<?xml version="1.0" encoding="UTF-8"?>
<svg xmlns="http://www.w3.org/2000/svg" xmlns:xlink="http://www.w3.org/1999/xlink" viewBox="0 0 24 24" version="1.1">
<g>
<path style=" stroke:none;fill-rule:nonzero;fill:rgb(0%,0%,0%);fill-opacity:1;" d="M 10.386719 2.695312 C 10.15625 2.699219 9.960938 2.707031 9.746094 2.726562 C 8.152344 2.871094 6.640625 3.480469 5.382812 4.480469 C 4.949219 4.828125 4.550781 5.214844 4.195312 5.640625 C 3.339844 6.664062 2.746094 7.875 2.46875 9.171875 C 2.289062 10.007812 2.238281 10.875 2.324219 11.734375 C 2.4375 12.863281 2.78125 13.953125 3.339844 14.945312 C 3.644531 15.484375 4.015625 15.996094 4.433594 16.457031 C 4.589844 16.625 4.765625 16.800781 4.929688 16.953125 C 5.636719 17.605469 6.449219 18.125 7.332031 18.496094 C 8.1875 18.855469 9.097656 19.066406 10.03125 19.117188 C 10.210938 19.128906 10.339844 19.128906 10.550781 19.128906 C 10.695312 19.128906 10.726562 19.128906 10.828125 19.125 C 11.820312 19.085938 12.792969 18.867188 13.703125 18.484375 C 14.492188 18.148438 15.234375 17.6875 15.878906 17.128906 C 15.898438 17.113281 15.910156 17.101562 15.914062 17.101562 C 15.914062 17.097656 16.476562 17.660156 17.945312 19.128906 L 19.976562 21.160156 L 20.367188 20.773438 L 20.753906 20.386719 L 16.691406 16.324219 L 16.71875 16.289062 C 17.019531 15.945312 17.296875 15.5625 17.535156 15.171875 C 18.089844 14.25 18.460938 13.238281 18.625 12.175781 C 18.675781 11.847656 18.703125 11.53125 18.71875 11.179688 C 18.722656 11.035156 18.722656 10.78125 18.714844 10.625 C 18.671875 9.316406 18.320312 8.058594 17.691406 6.921875 C 17.339844 6.292969 16.90625 5.707031 16.402344 5.191406 C 16.277344 5.058594 16.132812 4.921875 16 4.800781 C 15.398438 4.261719 14.726562 3.8125 13.996094 3.46875 C 13.136719 3.066406 12.207031 2.8125 11.257812 2.726562 C 11.074219 2.710938 10.910156 2.703125 10.714844 2.695312 C 10.664062 2.695312 10.433594 2.691406 10.386719 2.695312 Z M 10.683594 3.792969 C 11.265625 3.808594 11.828125 3.890625 12.378906 4.039062 C 13.449219 4.332031 14.4375 4.871094 15.265625 5.617188 C 15.367188 5.710938 15.453125 5.789062 15.5625 5.902344 C 15.957031 6.296875 16.300781 6.738281 16.59375 7.21875 C 16.734375 7.449219 16.867188 7.703125 16.980469 7.953125 C 17.234375 8.507812 17.417969 9.09375 17.519531 9.695312 C 17.574219 9.996094 17.605469 10.308594 17.617188 10.617188 C 17.621094 10.710938 17.621094 10.742188 17.625 10.867188 C 17.625 11.023438 17.621094 11.117188 17.617188 11.253906 C 17.578125 12.078125 17.394531 12.890625 17.078125 13.648438 C 16.902344 14.074219 16.683594 14.480469 16.429688 14.863281 C 15.976562 15.539062 15.414062 16.132812 14.761719 16.621094 C 14.363281 16.917969 13.9375 17.171875 13.488281 17.378906 C 12.644531 17.769531 11.730469 17.988281 10.796875 18.027344 C 10.703125 18.03125 10.671875 18.03125 10.550781 18.03125 C 10.367188 18.035156 10.234375 18.03125 10.070312 18.019531 C 8.691406 17.9375 7.378906 17.460938 6.269531 16.640625 C 6.054688 16.480469 5.84375 16.304688 5.648438 16.121094 C 5.566406 16.046875 5.464844 15.945312 5.386719 15.867188 C 4.5625 15.015625 3.960938 13.972656 3.644531 12.839844 C 3.492188 12.300781 3.40625 11.734375 3.386719 11.179688 C 3.386719 11.15625 3.382812 11.132812 3.382812 11.121094 C 3.382812 11.113281 3.382812 11.0625 3.382812 11.007812 C 3.378906 10.84375 3.382812 10.664062 3.394531 10.492188 C 3.460938 9.34375 3.800781 8.238281 4.390625 7.253906 C 4.742188 6.667969 5.175781 6.136719 5.679688 5.671875 C 6.25 5.148438 6.898438 4.71875 7.601562 4.40625 C 8.230469 4.125 8.890625 3.9375 9.574219 3.851562 C 9.9375 3.804688 10.320312 3.78125 10.683594 3.792969 Z M 10.683594 3.792969 "/>
</g>
</svg>
