<?xml version="1.0" encoding="UTF-8"?>
<svg xmlns="http://www.w3.org/2000/svg" xmlns:xlink="http://www.w3.org/1999/xlink" viewBox="0 0 24 24" version="1.1">
<g>
<path style=" stroke:none;fill-rule:nonzero;fill:rgb(0%,0%,0%);fill-opacity:1;" d="M 10.050781 2.34375 C 9.929688 2.917969 9.832031 3.382812 9.832031 3.386719 C 9.832031 3.386719 9.824219 3.390625 9.8125 3.390625 C 9.75 3.40625 9.636719 3.4375 9.554688 3.460938 C 8.878906 3.65625 8.230469 3.929688 7.617188 4.28125 C 7.5625 4.308594 7.554688 4.316406 7.492188 4.351562 L 7.441406 4.378906 L 6.554688 3.796875 C 6.066406 3.476562 5.664062 3.214844 5.664062 3.214844 C 5.664062 3.214844 3.214844 5.664062 3.214844 5.664062 C 3.214844 5.664062 3.476562 6.066406 3.796875 6.554688 C 4.117188 7.039062 4.378906 7.441406 4.378906 7.441406 C 4.378906 7.441406 4.371094 7.457031 4.363281 7.46875 C 3.9375 8.1875 3.605469 8.976562 3.402344 9.777344 C 3.394531 9.804688 3.386719 9.832031 3.386719 9.832031 C 3.386719 9.832031 2.953125 9.925781 2.421875 10.035156 C 1.886719 10.144531 1.421875 10.242188 1.378906 10.25 L 1.304688 10.265625 L 1.308594 12 L 1.308594 13.734375 L 2.34375 13.949219 C 2.914062 14.066406 3.382812 14.164062 3.382812 14.164062 C 3.386719 14.164062 3.390625 14.175781 3.390625 14.1875 C 3.433594 14.339844 3.457031 14.433594 3.496094 14.5625 C 3.699219 15.234375 3.984375 15.882812 4.34375 16.496094 C 4.359375 16.523438 4.375 16.546875 4.375 16.550781 L 4.378906 16.554688 L 3.796875 17.445312 C 3.476562 17.933594 3.214844 18.332031 3.214844 18.332031 C 3.210938 18.335938 5.664062 20.785156 5.664062 20.785156 C 5.667969 20.785156 6.066406 20.523438 6.554688 20.203125 C 7.042969 19.882812 7.441406 19.621094 7.441406 19.621094 C 7.441406 19.621094 7.460938 19.628906 7.484375 19.644531 C 7.78125 19.820312 8.101562 19.984375 8.421875 20.125 C 8.855469 20.320312 9.300781 20.472656 9.761719 20.59375 C 9.792969 20.601562 9.820312 20.609375 9.824219 20.609375 C 9.832031 20.613281 9.832031 20.613281 9.835938 20.617188 C 9.835938 20.617188 10.261719 22.667969 10.265625 22.683594 L 10.265625 22.691406 L 12 22.691406 C 13.648438 22.691406 13.734375 22.691406 13.734375 22.6875 C 13.734375 22.6875 13.832031 22.222656 13.949219 21.652344 C 14.066406 21.082031 14.164062 20.613281 14.164062 20.613281 C 14.167969 20.613281 14.179688 20.609375 14.199219 20.605469 C 14.242188 20.59375 14.316406 20.574219 14.371094 20.558594 C 15.074219 20.363281 15.746094 20.082031 16.382812 19.71875 C 16.429688 19.691406 16.503906 19.648438 16.535156 19.632812 C 16.546875 19.625 16.554688 19.621094 16.554688 19.621094 C 16.554688 19.621094 16.957031 19.882812 17.445312 20.203125 C 17.933594 20.523438 18.335938 20.785156 18.335938 20.785156 C 18.335938 20.785156 18.886719 20.234375 19.5625 19.558594 L 20.785156 18.335938 L 20.203125 17.445312 C 19.882812 16.957031 19.621094 16.558594 19.621094 16.554688 C 19.621094 16.554688 19.628906 16.539062 19.640625 16.519531 C 20.035156 15.855469 20.339844 15.148438 20.546875 14.410156 C 20.566406 14.347656 20.589844 14.257812 20.601562 14.203125 L 20.613281 14.164062 L 20.632812 14.160156 C 20.648438 14.15625 21.113281 14.0625 21.675781 13.945312 L 22.691406 13.734375 L 22.691406 10.265625 L 22.6875 10.265625 C 22.683594 10.265625 22.21875 10.167969 21.648438 10.050781 L 20.613281 9.835938 L 20.609375 9.816406 C 20.605469 9.804688 20.597656 9.773438 20.589844 9.75 C 20.394531 8.988281 20.082031 8.230469 19.679688 7.542969 C 19.660156 7.515625 19.625 7.449219 19.621094 7.445312 C 19.621094 7.445312 19.664062 7.378906 20.203125 6.554688 L 20.785156 5.664062 L 20.347656 5.226562 C 19.425781 4.304688 18.335938 3.210938 18.332031 3.214844 C 18.332031 3.214844 16.617188 4.339844 16.566406 4.375 L 16.554688 4.378906 L 16.527344 4.363281 C 16.265625 4.207031 15.96875 4.050781 15.6875 3.921875 C 15.210938 3.703125 14.722656 3.53125 14.210938 3.398438 C 14.1875 3.390625 14.164062 3.386719 14.164062 3.386719 C 14.164062 3.386719 14.066406 2.917969 13.949219 2.347656 C 13.832031 1.777344 13.734375 1.3125 13.734375 1.308594 L 13.734375 1.304688 L 10.265625 1.304688 Z M 13.03125 2.171875 C 13.03125 2.175781 13.429688 4.105469 13.433594 4.105469 C 13.433594 4.105469 13.484375 4.121094 13.550781 4.132812 C 13.734375 4.171875 13.742188 4.175781 13.804688 4.1875 C 14.640625 4.382812 15.445312 4.710938 16.183594 5.167969 C 16.246094 5.203125 16.289062 5.234375 16.433594 5.324219 L 16.5625 5.410156 L 16.582031 5.398438 C 16.589844 5.390625 16.964844 5.148438 17.410156 4.855469 L 18.21875 4.324219 L 18.445312 4.542969 C 18.566406 4.667969 18.894531 4.996094 19.171875 5.273438 L 19.675781 5.777344 L 19.136719 6.605469 C 18.835938 7.058594 18.59375 7.433594 18.589844 7.433594 C 18.589844 7.433594 18.632812 7.5 18.683594 7.578125 C 18.800781 7.761719 18.824219 7.796875 18.882812 7.898438 C 19.3125 8.613281 19.625 9.390625 19.808594 10.195312 C 19.816406 10.226562 19.839844 10.324219 19.855469 10.410156 C 19.875 10.496094 19.890625 10.566406 19.890625 10.566406 C 19.894531 10.570312 21.824219 10.96875 21.828125 10.96875 C 21.828125 10.96875 21.828125 11.433594 21.828125 12 L 21.828125 13.027344 L 20.914062 13.21875 C 20.414062 13.324219 19.976562 13.414062 19.945312 13.417969 L 19.890625 13.429688 L 19.855469 13.589844 C 19.804688 13.839844 19.78125 13.933594 19.738281 14.089844 C 19.566406 14.734375 19.308594 15.359375 18.972656 15.945312 C 18.882812 16.105469 18.832031 16.191406 18.679688 16.429688 C 18.628906 16.5 18.59375 16.5625 18.59375 16.5625 C 18.59375 16.566406 18.835938 16.9375 19.132812 17.394531 C 19.433594 17.847656 19.675781 18.21875 19.675781 18.222656 C 19.675781 18.222656 19.347656 18.550781 18.949219 18.949219 L 18.222656 19.675781 L 17.398438 19.136719 C 16.945312 18.839844 16.570312 18.59375 16.566406 18.59375 L 16.5625 18.589844 L 16.4375 18.671875 C 16.246094 18.792969 16.199219 18.824219 16.09375 18.886719 C 15.382812 19.3125 14.617188 19.621094 13.824219 19.804688 C 13.765625 19.820312 13.707031 19.832031 13.550781 19.867188 L 13.429688 19.890625 L 13.03125 21.828125 L 10.96875 21.828125 L 10.769531 20.863281 C 10.660156 20.332031 10.566406 19.894531 10.566406 19.894531 C 10.566406 19.890625 10.523438 19.882812 10.4375 19.863281 C 10.230469 19.820312 10.167969 19.804688 10.058594 19.777344 C 9.285156 19.585938 8.542969 19.273438 7.851562 18.855469 C 7.785156 18.8125 7.71875 18.773438 7.578125 18.679688 C 7.5 18.632812 7.4375 18.589844 7.433594 18.589844 C 7.433594 18.589844 7.070312 18.828125 6.625 19.121094 C 6.179688 19.414062 5.808594 19.65625 5.796875 19.664062 L 5.777344 19.675781 L 5.050781 18.949219 C 4.648438 18.550781 4.324219 18.222656 4.324219 18.222656 C 4.324219 18.222656 4.566406 17.847656 4.867188 17.394531 C 5.164062 16.9375 5.410156 16.566406 5.410156 16.5625 C 5.410156 16.5625 5.371094 16.503906 5.324219 16.429688 C 5.203125 16.246094 5.175781 16.203125 5.121094 16.109375 C 4.695312 15.398438 4.382812 14.636719 4.199219 13.839844 C 4.183594 13.777344 4.171875 13.734375 4.136719 13.558594 L 4.109375 13.429688 L 4.101562 13.429688 C 4.09375 13.429688 3.660156 13.339844 3.132812 13.226562 L 2.171875 13.027344 L 2.171875 10.96875 L 2.179688 10.96875 C 2.183594 10.96875 2.621094 10.878906 3.148438 10.765625 L 4.109375 10.566406 L 4.140625 10.417969 C 4.1875 10.203125 4.199219 10.152344 4.226562 10.039062 C 4.425781 9.257812 4.738281 8.511719 5.164062 7.816406 C 5.207031 7.75 5.222656 7.726562 5.320312 7.570312 C 5.40625 7.4375 5.410156 7.433594 5.40625 7.433594 C 5.40625 7.429688 5.164062 7.0625 4.871094 6.617188 C 4.578125 6.167969 4.335938 5.796875 4.332031 5.792969 L 4.320312 5.777344 L 5.050781 5.050781 C 5.480469 4.617188 5.777344 4.324219 5.777344 4.324219 C 5.78125 4.324219 6.152344 4.566406 6.609375 4.867188 L 7.433594 5.410156 L 7.558594 5.328125 C 7.746094 5.210938 7.789062 5.179688 7.886719 5.125 C 8.59375 4.699219 9.363281 4.382812 10.160156 4.195312 C 10.226562 4.179688 10.261719 4.171875 10.417969 4.140625 C 10.5 4.121094 10.566406 4.109375 10.566406 4.105469 C 10.566406 4.105469 10.65625 3.671875 10.769531 3.140625 C 10.878906 2.609375 10.96875 2.175781 10.96875 2.171875 C 10.96875 2.171875 11.175781 2.171875 12 2.171875 C 12.566406 2.171875 13.03125 2.171875 13.03125 2.171875 Z M 13.03125 2.171875 "/>
<path style=" stroke:none;fill-rule:nonzero;fill:rgb(0%,0%,0%);fill-opacity:1;" d="M 11.878906 7.625 C 11.402344 7.636719 10.949219 7.722656 10.507812 7.882812 C 9.78125 8.148438 9.136719 8.601562 8.636719 9.199219 C 8.027344 9.933594 7.675781 10.832031 7.628906 11.78125 C 7.625 11.867188 7.621094 11.933594 7.625 12.035156 C 7.625 12.136719 7.625 12.164062 7.628906 12.242188 C 7.667969 12.917969 7.859375 13.574219 8.195312 14.164062 C 8.429688 14.578125 8.738281 14.953125 9.09375 15.273438 C 9.453125 15.589844 9.855469 15.84375 10.289062 16.03125 C 10.726562 16.214844 11.183594 16.328125 11.660156 16.363281 C 11.789062 16.375 11.898438 16.378906 12.035156 16.375 C 12.132812 16.375 12.164062 16.375 12.242188 16.371094 C 12.90625 16.335938 13.546875 16.148438 14.125 15.824219 C 14.4375 15.652344 14.734375 15.433594 15 15.1875 C 15.0625 15.125 15.167969 15.019531 15.230469 14.953125 C 15.648438 14.496094 15.964844 13.953125 16.15625 13.367188 C 16.34375 12.800781 16.414062 12.199219 16.359375 11.597656 C 16.300781 10.976562 16.113281 10.382812 15.804688 9.835938 C 15.628906 9.527344 15.40625 9.230469 15.15625 8.96875 C 15.101562 8.914062 15.019531 8.832031 14.960938 8.78125 C 14.570312 8.417969 14.109375 8.128906 13.613281 7.933594 C 13.273438 7.796875 12.914062 7.703125 12.550781 7.65625 C 12.421875 7.640625 12.300781 7.632812 12.160156 7.625 C 12.113281 7.625 11.929688 7.621094 11.878906 7.625 Z M 12.105469 8.488281 C 12.335938 8.496094 12.550781 8.523438 12.769531 8.574219 C 13.582031 8.753906 14.304688 9.222656 14.808594 9.894531 C 15.195312 10.410156 15.433594 11.015625 15.496094 11.652344 C 15.507812 11.78125 15.511719 11.859375 15.511719 12 C 15.511719 12.101562 15.511719 12.136719 15.503906 12.214844 C 15.480469 12.632812 15.378906 13.042969 15.207031 13.425781 C 15.164062 13.527344 15.105469 13.644531 15.050781 13.738281 C 14.746094 14.273438 14.304688 14.714844 13.777344 15.027344 C 13.410156 15.246094 13.003906 15.394531 12.585938 15.464844 C 12.441406 15.488281 12.316406 15.5 12.15625 15.507812 C 12.109375 15.511719 11.941406 15.511719 11.886719 15.511719 C 11.714844 15.503906 11.558594 15.488281 11.398438 15.460938 C 10.582031 15.320312 9.839844 14.890625 9.304688 14.25 C 8.835938 13.6875 8.554688 13 8.496094 12.269531 C 8.488281 12.164062 8.488281 12.089844 8.488281 11.96875 C 8.488281 11.875 8.488281 11.851562 8.496094 11.777344 C 8.546875 10.921875 8.917969 10.113281 9.53125 9.503906 C 9.796875 9.242188 10.09375 9.027344 10.425781 8.859375 C 10.882812 8.632812 11.375 8.507812 11.886719 8.488281 C 11.9375 8.488281 12.058594 8.488281 12.105469 8.488281 Z M 12.105469 8.488281 "/>
</g>
</svg>
