<?xml version="1.0" encoding="UTF-8"?>
<svg xmlns="http://www.w3.org/2000/svg" xmlns:xlink="http://www.w3.org/1999/xlink" viewBox="0 0 24 24" version="1.1">
<g>
<path style=" stroke:none;fill-rule:nonzero;fill:rgb(0%,0%,0%);fill-opacity:1;" d="M 11.339844 1.597656 C 10.929688 1.617188 10.542969 1.789062 10.25 2.078125 C 9.996094 2.335938 9.832031 2.664062 9.785156 3.023438 C 9.78125 3.050781 9.769531 3.152344 9.660156 4.234375 C 9.632812 4.511719 9.609375 4.742188 9.609375 4.742188 C 9.609375 4.742188 9.589844 4.75 9.5625 4.757812 C 9.277344 4.855469 9.003906 4.96875 8.726562 5.105469 L 8.671875 5.128906 L 8.015625 4.597656 C 7.65625 4.304688 7.351562 4.058594 7.339844 4.046875 C 7.210938 3.945312 7.0625 3.863281 6.910156 3.804688 C 6.65625 3.710938 6.378906 3.679688 6.113281 3.71875 C 5.804688 3.757812 5.519531 3.886719 5.28125 4.082031 C 5.265625 4.09375 5.246094 4.113281 5.230469 4.125 C 5.214844 4.136719 5.039062 4.3125 4.800781 4.554688 C 4.363281 4.988281 4.210938 5.144531 4.179688 5.175781 C 4.082031 5.285156 4.003906 5.402344 3.9375 5.535156 C 3.914062 5.585938 3.902344 5.609375 3.882812 5.65625 C 3.824219 5.800781 3.789062 5.953125 3.773438 6.109375 C 3.761719 6.199219 3.761719 6.308594 3.769531 6.402344 C 3.789062 6.65625 3.867188 6.898438 4 7.117188 C 4.03125 7.167969 4.070312 7.230469 4.105469 7.277344 C 4.117188 7.289062 5.164062 8.574219 5.1875 8.601562 L 5.191406 8.609375 L 5.164062 8.664062 C 5.027344 8.945312 4.925781 9.199219 4.808594 9.527344 L 4.804688 9.546875 L 4.796875 9.546875 C 4.792969 9.550781 4.414062 9.585938 3.953125 9.632812 C 3.496094 9.679688 3.105469 9.722656 3.089844 9.722656 C 2.9375 9.742188 2.789062 9.785156 2.644531 9.847656 C 2.609375 9.863281 2.539062 9.898438 2.503906 9.914062 C 2.40625 9.96875 2.316406 10.035156 2.230469 10.105469 C 2.164062 10.164062 2.09375 10.238281 2.035156 10.304688 C 1.882812 10.492188 1.769531 10.710938 1.710938 10.941406 C 1.679688 11.066406 1.664062 11.179688 1.660156 11.3125 C 1.65625 11.386719 1.65625 12.71875 1.660156 12.75 C 1.660156 12.761719 1.664062 12.785156 1.664062 12.800781 C 1.691406 13.136719 1.824219 13.457031 2.042969 13.71875 C 2.101562 13.785156 2.179688 13.867188 2.25 13.925781 C 2.378906 14.03125 2.535156 14.125 2.691406 14.1875 C 2.820312 14.238281 2.953125 14.273438 3.089844 14.292969 C 3.105469 14.292969 3.496094 14.332031 3.953125 14.378906 C 4.414062 14.425781 4.792969 14.464844 4.796875 14.464844 L 4.804688 14.46875 L 4.808594 14.480469 C 4.875 14.679688 4.925781 14.804688 4.992188 14.96875 C 5.046875 15.101562 5.128906 15.277344 5.183594 15.386719 L 5.191406 15.40625 L 4.65625 16.0625 C 4.363281 16.421875 4.113281 16.726562 4.105469 16.738281 C 4.003906 16.871094 3.921875 17.019531 3.867188 17.171875 C 3.820312 17.300781 3.785156 17.441406 3.773438 17.578125 C 3.761719 17.671875 3.761719 17.785156 3.769531 17.875 C 3.792969 18.160156 3.882812 18.421875 4.039062 18.65625 C 4.097656 18.742188 4.15625 18.8125 4.234375 18.894531 C 4.296875 18.960938 5.203125 19.867188 5.226562 19.886719 C 5.316406 19.964844 5.390625 20.023438 5.484375 20.078125 C 5.808594 20.273438 6.191406 20.351562 6.570312 20.296875 C 6.847656 20.253906 7.113281 20.144531 7.335938 19.96875 C 7.347656 19.964844 7.648438 19.714844 8.011719 19.421875 C 8.371094 19.128906 8.667969 18.886719 8.667969 18.886719 C 8.671875 18.886719 8.6875 18.894531 8.707031 18.902344 C 8.953125 19.023438 9.191406 19.121094 9.445312 19.214844 C 9.496094 19.234375 9.578125 19.261719 9.597656 19.269531 L 9.609375 19.273438 L 9.679688 19.976562 C 9.71875 20.363281 9.757812 20.742188 9.765625 20.820312 C 9.773438 20.898438 9.78125 20.976562 9.785156 20.992188 C 9.804688 21.132812 9.839844 21.273438 9.894531 21.40625 C 9.917969 21.457031 9.949219 21.523438 9.976562 21.570312 C 10.140625 21.863281 10.382812 22.097656 10.679688 22.246094 C 10.886719 22.347656 11.113281 22.40625 11.347656 22.417969 C 11.371094 22.417969 11.59375 22.417969 12.09375 22.417969 C 12.871094 22.417969 12.8125 22.417969 12.894531 22.410156 C 13.207031 22.375 13.507812 22.253906 13.753906 22.054688 C 13.835938 21.988281 13.917969 21.90625 13.984375 21.828125 C 14.195312 21.578125 14.324219 21.273438 14.359375 20.949219 C 14.359375 20.929688 14.398438 20.550781 14.445312 20.101562 C 14.488281 19.652344 14.527344 19.28125 14.527344 19.277344 L 14.53125 19.273438 L 14.539062 19.269531 C 14.546875 19.265625 14.574219 19.257812 14.605469 19.246094 C 14.882812 19.152344 15.148438 19.039062 15.429688 18.902344 L 15.46875 18.882812 L 15.476562 18.894531 C 15.523438 18.929688 16.785156 19.957031 16.796875 19.964844 C 16.886719 20.035156 16.992188 20.101562 17.097656 20.152344 C 17.53125 20.359375 18.035156 20.367188 18.472656 20.171875 C 18.636719 20.097656 18.785156 20 18.917969 19.878906 C 18.929688 19.867188 19.164062 19.632812 19.4375 19.363281 C 19.945312 18.855469 19.953125 18.84375 20 18.785156 C 20.273438 18.453125 20.402344 18.03125 20.367188 17.605469 C 20.339844 17.289062 20.222656 16.984375 20.03125 16.738281 C 20.023438 16.726562 19.777344 16.421875 19.480469 16.0625 L 18.945312 15.40625 L 18.964844 15.367188 C 19.101562 15.089844 19.222656 14.796875 19.320312 14.507812 C 19.328125 14.484375 19.335938 14.46875 19.335938 14.46875 C 19.335938 14.46875 19.714844 14.429688 20.175781 14.382812 C 21.011719 14.296875 21.042969 14.292969 21.089844 14.285156 C 21.542969 14.214844 21.949219 13.957031 22.203125 13.570312 C 22.359375 13.339844 22.449219 13.078125 22.472656 12.800781 C 22.480469 12.734375 22.480469 12.746094 22.480469 12.007812 C 22.480469 11.269531 22.480469 11.28125 22.472656 11.214844 C 22.433594 10.738281 22.1875 10.304688 21.800781 10.023438 C 21.585938 9.867188 21.332031 9.761719 21.066406 9.726562 C 21.023438 9.71875 21.128906 9.730469 20.164062 9.632812 C 19.707031 9.585938 19.335938 9.546875 19.335938 9.546875 C 19.335938 9.546875 19.328125 9.527344 19.320312 9.503906 C 19.222656 9.21875 19.101562 8.929688 18.964844 8.644531 L 18.945312 8.609375 L 18.949219 8.605469 C 18.953125 8.601562 19.191406 8.308594 19.480469 7.953125 C 20.050781 7.257812 20.027344 7.28125 20.050781 7.25 C 20.144531 7.125 20.21875 6.984375 20.273438 6.835938 C 20.375 6.5625 20.398438 6.265625 20.347656 5.976562 C 20.3125 5.789062 20.246094 5.601562 20.144531 5.4375 C 20.089844 5.335938 20.019531 5.246094 19.941406 5.160156 C 19.914062 5.128906 18.925781 4.140625 18.902344 4.121094 C 18.890625 4.113281 18.871094 4.09375 18.859375 4.082031 C 18.464844 3.753906 17.941406 3.628906 17.4375 3.746094 C 17.203125 3.796875 16.980469 3.902344 16.792969 4.050781 C 16.78125 4.058594 16.476562 4.308594 16.121094 4.597656 L 15.46875 5.128906 L 15.425781 5.109375 C 15.183594 4.992188 14.925781 4.882812 14.664062 4.789062 C 14.613281 4.773438 14.539062 4.746094 14.53125 4.742188 C 14.53125 4.742188 14.527344 4.742188 14.527344 4.738281 C 14.527344 4.734375 14.492188 4.367188 14.445312 3.921875 C 14.351562 2.988281 14.355469 3.050781 14.351562 3.019531 C 14.328125 2.839844 14.277344 2.671875 14.195312 2.511719 C 14.128906 2.375 14.046875 2.253906 13.941406 2.136719 C 13.917969 2.109375 13.851562 2.046875 13.824219 2.019531 C 13.59375 1.8125 13.320312 1.679688 13.015625 1.625 C 12.945312 1.609375 12.871094 1.601562 12.792969 1.597656 C 12.757812 1.597656 11.375 1.597656 11.339844 1.597656 Z M 12.777344 2.695312 C 12.820312 2.703125 12.863281 2.710938 12.898438 2.722656 C 12.980469 2.75 13.054688 2.796875 13.117188 2.863281 C 13.195312 2.945312 13.246094 3.046875 13.265625 3.160156 C 13.265625 3.167969 13.3125 3.636719 13.371094 4.203125 C 13.429688 4.769531 13.476562 5.238281 13.476562 5.246094 C 13.492188 5.339844 13.53125 5.425781 13.59375 5.503906 C 13.609375 5.523438 13.65625 5.570312 13.675781 5.585938 C 13.738281 5.636719 13.808594 5.671875 13.890625 5.691406 C 13.902344 5.695312 13.929688 5.703125 13.953125 5.710938 C 14.414062 5.851562 14.84375 6.03125 15.238281 6.25 C 15.308594 6.289062 15.34375 6.304688 15.398438 6.316406 C 15.445312 6.328125 15.480469 6.332031 15.53125 6.332031 C 15.582031 6.332031 15.621094 6.328125 15.664062 6.316406 C 15.710938 6.308594 15.738281 6.296875 15.78125 6.273438 C 15.808594 6.261719 15.828125 6.25 15.851562 6.230469 C 15.859375 6.226562 16.222656 5.929688 16.65625 5.578125 C 17.089844 5.222656 17.453125 4.929688 17.460938 4.921875 C 17.496094 4.894531 17.527344 4.875 17.570312 4.855469 C 17.71875 4.78125 17.894531 4.78125 18.042969 4.855469 C 18.082031 4.875 18.117188 4.894531 18.152344 4.925781 C 18.167969 4.9375 19.113281 5.882812 19.136719 5.90625 C 19.171875 5.945312 19.199219 5.984375 19.21875 6.027344 C 19.246094 6.082031 19.265625 6.140625 19.273438 6.207031 C 19.277344 6.234375 19.277344 6.308594 19.273438 6.335938 C 19.257812 6.441406 19.21875 6.535156 19.15625 6.613281 C 19.148438 6.621094 18.855469 6.984375 18.5 7.417969 C 18.144531 7.855469 17.851562 8.21875 17.84375 8.226562 C 17.792969 8.292969 17.761719 8.375 17.75 8.457031 C 17.742188 8.492188 17.742188 8.511719 17.742188 8.542969 C 17.742188 8.632812 17.761719 8.714844 17.800781 8.792969 C 17.808594 8.808594 17.820312 8.824219 17.824219 8.832031 C 17.832031 8.847656 17.859375 8.894531 17.886719 8.953125 C 18.097656 9.351562 18.265625 9.769531 18.378906 10.171875 C 18.386719 10.195312 18.394531 10.21875 18.394531 10.226562 C 18.410156 10.277344 18.4375 10.328125 18.46875 10.371094 C 18.554688 10.492188 18.683594 10.574219 18.832031 10.597656 C 18.839844 10.601562 19.308594 10.648438 19.875 10.707031 C 20.484375 10.769531 20.914062 10.8125 20.925781 10.816406 C 21.058594 10.835938 21.179688 10.90625 21.261719 11.015625 C 21.332031 11.097656 21.371094 11.199219 21.378906 11.308594 C 21.382812 11.324219 21.382812 11.515625 21.382812 12.019531 L 21.378906 12.710938 L 21.378906 12.734375 C 21.367188 12.796875 21.351562 12.851562 21.324219 12.90625 C 21.269531 13.011719 21.183594 13.097656 21.082031 13.148438 C 21.027344 13.175781 20.96875 13.195312 20.90625 13.203125 C 20.898438 13.203125 20.433594 13.253906 19.875 13.308594 C 19.316406 13.367188 18.851562 13.414062 18.84375 13.414062 C 18.667969 13.4375 18.511719 13.546875 18.429688 13.703125 C 18.410156 13.746094 18.394531 13.785156 18.382812 13.828125 C 18.371094 13.882812 18.320312 14.042969 18.277344 14.164062 C 18.152344 14.519531 18.007812 14.851562 17.832031 15.167969 C 17.816406 15.195312 17.800781 15.226562 17.796875 15.234375 C 17.769531 15.289062 17.753906 15.34375 17.746094 15.40625 C 17.742188 15.433594 17.742188 15.507812 17.746094 15.539062 C 17.757812 15.636719 17.796875 15.730469 17.855469 15.804688 C 17.859375 15.8125 18.15625 16.171875 18.507812 16.605469 C 18.859375 17.039062 19.152344 17.398438 19.160156 17.40625 C 19.21875 17.484375 19.257812 17.574219 19.273438 17.675781 C 19.277344 17.703125 19.277344 17.78125 19.273438 17.808594 C 19.261719 17.898438 19.230469 17.976562 19.183594 18.050781 C 19.152344 18.09375 19.175781 18.070312 18.660156 18.585938 C 18.394531 18.851562 18.171875 19.074219 18.160156 19.082031 C 18.144531 19.101562 18.117188 19.121094 18.09375 19.132812 C 18.074219 19.144531 18.019531 19.171875 17.996094 19.179688 C 17.898438 19.214844 17.796875 19.226562 17.695312 19.203125 C 17.617188 19.1875 17.535156 19.152344 17.472656 19.101562 C 17.464844 19.09375 17.105469 18.800781 16.671875 18.449219 C 15.75 17.699219 15.867188 17.792969 15.847656 17.78125 C 15.695312 17.675781 15.503906 17.652344 15.328125 17.71875 C 15.304688 17.730469 15.273438 17.746094 15.246094 17.761719 C 15.1875 17.796875 14.988281 17.898438 14.871094 17.953125 C 14.546875 18.105469 14.238281 18.222656 13.90625 18.316406 C 13.847656 18.335938 13.828125 18.339844 13.804688 18.351562 C 13.632812 18.425781 13.507812 18.582031 13.476562 18.769531 C 13.476562 18.777344 13.429688 19.246094 13.371094 19.8125 C 13.3125 20.378906 13.265625 20.851562 13.261719 20.859375 C 13.238281 21.011719 13.152344 21.144531 13.027344 21.230469 C 12.953125 21.277344 12.875 21.304688 12.78125 21.316406 C 12.761719 21.320312 12.730469 21.320312 12.070312 21.320312 C 11.507812 21.320312 11.375 21.320312 11.363281 21.320312 C 11.210938 21.300781 11.082031 21.230469 10.984375 21.113281 C 10.972656 21.09375 10.945312 21.054688 10.933594 21.035156 C 10.902344 20.976562 10.878906 20.90625 10.871094 20.839844 C 10.871094 20.832031 10.824219 20.367188 10.765625 19.804688 C 10.710938 19.246094 10.660156 18.78125 10.660156 18.765625 C 10.625 18.550781 10.464844 18.378906 10.25 18.324219 C 10.238281 18.320312 10.210938 18.3125 10.1875 18.304688 C 9.726562 18.167969 9.300781 17.988281 8.90625 17.769531 C 8.851562 17.738281 8.851562 17.738281 8.835938 17.730469 C 8.785156 17.707031 8.730469 17.691406 8.671875 17.683594 C 8.644531 17.679688 8.566406 17.679688 8.539062 17.683594 C 8.441406 17.699219 8.351562 17.734375 8.277344 17.789062 C 8.269531 17.796875 7.914062 18.085938 7.484375 18.4375 C 6.605469 19.152344 6.664062 19.105469 6.644531 19.117188 C 6.566406 19.171875 6.480469 19.203125 6.382812 19.214844 C 6.359375 19.214844 6.300781 19.214844 6.273438 19.210938 C 6.15625 19.199219 6.054688 19.152344 5.96875 19.074219 C 5.957031 19.066406 5.738281 18.847656 5.476562 18.585938 C 5.144531 18.253906 5 18.105469 4.988281 18.09375 C 4.917969 18.007812 4.878906 17.914062 4.863281 17.804688 C 4.859375 17.777344 4.859375 17.710938 4.863281 17.683594 C 4.875 17.585938 4.910156 17.503906 4.960938 17.425781 C 4.96875 17.417969 5.269531 17.046875 5.628906 16.605469 C 5.988281 16.164062 6.289062 15.796875 6.296875 15.785156 C 6.375 15.671875 6.410156 15.539062 6.390625 15.398438 C 6.382812 15.324219 6.355469 15.25 6.3125 15.179688 C 6.28125 15.128906 6.191406 14.949219 6.136719 14.835938 C 5.976562 14.5 5.855469 14.179688 5.753906 13.835938 C 5.746094 13.808594 5.738281 13.773438 5.734375 13.765625 C 5.722656 13.738281 5.703125 13.699219 5.691406 13.679688 C 5.605469 13.535156 5.460938 13.4375 5.296875 13.414062 C 5.285156 13.414062 4.816406 13.367188 4.257812 13.308594 C 3.695312 13.25 3.226562 13.203125 3.214844 13.203125 C 3.121094 13.1875 3.035156 13.148438 2.960938 13.089844 C 2.925781 13.0625 2.878906 13.011719 2.851562 12.972656 C 2.800781 12.894531 2.765625 12.800781 2.757812 12.707031 C 2.757812 12.695312 2.757812 12.460938 2.757812 12.007812 C 2.757812 11.414062 2.757812 11.320312 2.757812 11.304688 C 2.769531 11.203125 2.804688 11.113281 2.863281 11.03125 C 2.882812 11.003906 2.917969 10.964844 2.945312 10.941406 C 3.023438 10.875 3.113281 10.832031 3.210938 10.8125 C 3.222656 10.8125 3.679688 10.765625 4.261719 10.707031 C 4.828125 10.648438 5.300781 10.601562 5.308594 10.597656 C 5.5 10.566406 5.65625 10.441406 5.730469 10.265625 C 5.738281 10.238281 5.746094 10.21875 5.753906 10.191406 C 5.765625 10.140625 5.800781 10.023438 5.832031 9.929688 C 5.964844 9.539062 6.128906 9.164062 6.316406 8.828125 C 6.34375 8.785156 6.355469 8.757812 6.367188 8.71875 C 6.425781 8.546875 6.394531 8.355469 6.285156 8.214844 C 6.28125 8.207031 5.988281 7.847656 5.632812 7.414062 C 5.28125 6.980469 4.984375 6.617188 4.976562 6.609375 C 4.886719 6.496094 4.847656 6.339844 4.867188 6.195312 C 4.882812 6.089844 4.925781 5.996094 4.992188 5.914062 C 5.011719 5.894531 5.949219 4.957031 5.972656 4.9375 C 6.011719 4.902344 6.050781 4.875 6.097656 4.855469 C 6.242188 4.785156 6.40625 4.78125 6.554688 4.847656 C 6.589844 4.863281 6.632812 4.886719 6.664062 4.910156 C 6.667969 4.914062 7.027344 5.207031 7.460938 5.558594 C 7.890625 5.910156 8.25 6.207031 8.261719 6.214844 C 8.441406 6.359375 8.691406 6.375 8.890625 6.253906 C 8.941406 6.222656 9.113281 6.136719 9.234375 6.078125 C 9.570312 5.917969 9.902344 5.792969 10.25 5.691406 C 10.304688 5.675781 10.335938 5.664062 10.375 5.644531 C 10.527344 5.5625 10.632812 5.414062 10.660156 5.246094 C 10.660156 5.234375 10.710938 4.769531 10.765625 4.207031 C 10.824219 3.648438 10.871094 3.183594 10.871094 3.175781 C 10.890625 3.035156 10.960938 2.902344 11.074219 2.8125 C 11.09375 2.800781 11.132812 2.773438 11.152344 2.761719 C 11.222656 2.722656 11.300781 2.699219 11.386719 2.695312 C 11.390625 2.695312 11.703125 2.695312 12.078125 2.695312 C 12.605469 2.695312 12.769531 2.695312 12.777344 2.695312 Z M 12.777344 2.695312 "/>
<path style=" stroke:none;fill-rule:nonzero;fill:rgb(0%,0%,0%);fill-opacity:1;" d="M 11.996094 8.171875 C 11.957031 8.171875 11.890625 8.175781 11.851562 8.179688 C 10.984375 8.226562 10.164062 8.566406 9.515625 9.144531 C 9.425781 9.226562 9.3125 9.335938 9.230469 9.429688 C 8.835938 9.863281 8.542969 10.382812 8.382812 10.941406 C 8.304688 11.214844 8.257812 11.5 8.238281 11.785156 C 8.234375 11.867188 8.234375 11.902344 8.234375 12.007812 C 8.234375 12.113281 8.234375 12.148438 8.238281 12.230469 C 8.277344 12.914062 8.5 13.570312 8.878906 14.136719 C 9.28125 14.742188 9.851562 15.222656 10.515625 15.515625 C 10.9375 15.703125 11.386719 15.8125 11.851562 15.835938 C 11.929688 15.839844 11.972656 15.84375 12.070312 15.84375 C 12.164062 15.84375 12.207031 15.839844 12.285156 15.835938 C 13.109375 15.792969 13.894531 15.480469 14.527344 14.953125 C 14.621094 14.875 14.691406 14.808594 14.78125 14.71875 C 14.914062 14.585938 15.027344 14.457031 15.136719 14.308594 C 15.589844 13.707031 15.851562 12.992188 15.898438 12.242188 C 15.90625 12.097656 15.90625 11.925781 15.898438 11.785156 C 15.875 11.40625 15.800781 11.042969 15.671875 10.691406 C 15.371094 9.871094 14.796875 9.171875 14.042969 8.71875 C 13.910156 8.636719 13.761719 8.5625 13.617188 8.496094 C 13.425781 8.414062 13.210938 8.335938 13.003906 8.285156 C 12.742188 8.222656 12.488281 8.183594 12.210938 8.175781 C 12.171875 8.171875 12.03125 8.171875 11.996094 8.171875 Z M 12.175781 9.269531 C 12.804688 9.296875 13.402344 9.535156 13.875 9.949219 C 13.957031 10.019531 14.039062 10.105469 14.113281 10.1875 C 14.507812 10.628906 14.746094 11.183594 14.796875 11.769531 C 14.804688 11.863281 14.808594 11.933594 14.808594 12.039062 C 14.804688 12.113281 14.804688 12.136719 14.800781 12.199219 C 14.769531 12.644531 14.632812 13.074219 14.394531 13.453125 C 14.046875 14.015625 13.503906 14.433594 12.875 14.625 C 12.550781 14.726562 12.210938 14.761719 11.871094 14.738281 C 11.371094 14.703125 10.890625 14.53125 10.480469 14.238281 C 10.027344 13.917969 9.683594 13.460938 9.492188 12.941406 C 9.4375 12.785156 9.398438 12.632812 9.371094 12.472656 C 9.339844 12.300781 9.328125 12.113281 9.332031 11.945312 C 9.332031 11.859375 9.335938 11.800781 9.34375 11.722656 C 9.402344 11.183594 9.617188 10.671875 9.96875 10.25 C 10.0625 10.140625 10.175781 10.023438 10.285156 9.929688 C 10.769531 9.515625 11.371094 9.285156 12.003906 9.269531 C 12.058594 9.269531 12.121094 9.269531 12.175781 9.269531 Z M 12.175781 9.269531 "/>
</g>
</svg>
