<?xml version="1.0" encoding="UTF-8"?>
<svg xmlns="http://www.w3.org/2000/svg" xmlns:xlink="http://www.w3.org/1999/xlink" viewBox="0 0 24 24" version="1.1">
<g>
<path style=" stroke:none;fill-rule:nonzero;fill:rgb(0%,0%,0%);fill-opacity:1;" d="M 17.742188 2.148438 C 17.617188 2.152344 17.53125 2.15625 17.425781 2.167969 C 16.503906 2.273438 15.648438 2.707031 15.019531 3.398438 C 14.742188 3.703125 14.515625 4.050781 14.347656 4.425781 C 14.160156 4.851562 14.050781 5.300781 14.023438 5.769531 C 14.019531 5.898438 14.015625 6.050781 14.023438 6.179688 C 14.042969 6.515625 14.101562 6.839844 14.203125 7.160156 C 14.207031 7.175781 14.210938 7.1875 14.210938 7.1875 C 14.210938 7.1875 8.953125 9.816406 8.953125 9.816406 C 8.953125 9.816406 8.945312 9.8125 8.941406 9.804688 C 8.9375 9.796875 8.917969 9.773438 8.902344 9.75 C 8.734375 9.519531 8.542969 9.308594 8.324219 9.117188 C 8.03125 8.863281 7.699219 8.652344 7.339844 8.492188 C 7.152344 8.410156 6.945312 8.339844 6.742188 8.289062 C 6.5 8.226562 6.253906 8.191406 6.007812 8.175781 C 5.875 8.171875 5.71875 8.171875 5.585938 8.179688 C 4.863281 8.21875 4.171875 8.460938 3.582031 8.878906 C 2.992188 9.300781 2.53125 9.875 2.253906 10.542969 C 2.097656 10.921875 2.003906 11.324219 1.976562 11.738281 C 1.964844 11.894531 1.964844 12.070312 1.972656 12.230469 C 1.992188 12.570312 2.054688 12.90625 2.164062 13.226562 C 2.460938 14.113281 3.078125 14.867188 3.890625 15.332031 C 4.375 15.613281 4.910156 15.78125 5.464844 15.828125 C 5.585938 15.839844 5.671875 15.84375 5.800781 15.84375 C 5.921875 15.84375 5.992188 15.839844 6.101562 15.832031 C 7.03125 15.761719 7.90625 15.347656 8.558594 14.675781 C 8.695312 14.53125 8.835938 14.363281 8.9375 14.21875 C 8.945312 14.207031 8.953125 14.195312 8.953125 14.195312 C 8.953125 14.195312 14.210938 16.828125 14.210938 16.828125 C 14.210938 16.828125 14.207031 16.839844 14.203125 16.855469 C 14.101562 17.167969 14.042969 17.5 14.023438 17.835938 C 14.015625 17.964844 14.019531 18.117188 14.023438 18.246094 C 14.046875 18.675781 14.140625 19.089844 14.304688 19.484375 C 14.523438 20.027344 14.871094 20.515625 15.3125 20.90625 C 15.90625 21.433594 16.648438 21.761719 17.4375 21.847656 C 17.558594 21.859375 17.664062 21.867188 17.789062 21.871094 C 18.015625 21.871094 18.234375 21.859375 18.457031 21.824219 C 18.925781 21.75 19.378906 21.589844 19.789062 21.347656 C 20.195312 21.109375 20.5625 20.792969 20.855469 20.421875 C 21.308594 19.855469 21.589844 19.171875 21.667969 18.453125 C 21.699219 18.171875 21.699219 17.882812 21.667969 17.605469 C 21.605469 17.074219 21.4375 16.5625 21.167969 16.101562 C 20.945312 15.71875 20.65625 15.375 20.3125 15.089844 C 19.921875 14.765625 19.472656 14.519531 18.992188 14.371094 C 18.609375 14.25 18.21875 14.195312 17.816406 14.199219 C 17.714844 14.199219 17.652344 14.203125 17.558594 14.210938 C 16.945312 14.257812 16.351562 14.453125 15.828125 14.777344 C 15.605469 14.914062 15.402344 15.070312 15.214844 15.253906 C 15.175781 15.289062 15.089844 15.375 15.058594 15.410156 C 14.9375 15.535156 14.828125 15.671875 14.730469 15.808594 C 14.714844 15.828125 14.707031 15.84375 14.703125 15.84375 C 14.703125 15.84375 9.445312 13.214844 9.445312 13.214844 C 9.445312 13.214844 9.449219 13.195312 9.457031 13.171875 C 9.542969 12.898438 9.597656 12.621094 9.625 12.339844 C 9.632812 12.21875 9.636719 12.136719 9.636719 12.007812 C 9.636719 11.902344 9.632812 11.839844 9.628906 11.75 C 9.609375 11.433594 9.550781 11.132812 9.453125 10.828125 C 9.449219 10.8125 9.445312 10.800781 9.445312 10.800781 C 9.445312 10.800781 14.703125 8.167969 14.703125 8.171875 C 14.707031 8.171875 14.714844 8.1875 14.730469 8.207031 C 14.824219 8.335938 14.925781 8.464844 15.042969 8.589844 C 15.078125 8.628906 15.191406 8.742188 15.230469 8.777344 C 15.433594 8.96875 15.648438 9.128906 15.878906 9.269531 C 16.351562 9.554688 16.875 9.730469 17.421875 9.792969 C 17.628906 9.816406 17.847656 9.824219 18.054688 9.8125 C 18.640625 9.78125 19.207031 9.617188 19.71875 9.332031 C 20.335938 8.988281 20.847656 8.480469 21.195312 7.867188 C 21.261719 7.746094 21.328125 7.617188 21.382812 7.492188 C 21.5 7.210938 21.589844 6.914062 21.640625 6.613281 C 21.746094 5.972656 21.6875 5.3125 21.472656 4.707031 C 21.316406 4.257812 21.078125 3.847656 20.765625 3.484375 C 20.664062 3.367188 20.546875 3.242188 20.433594 3.140625 C 19.960938 2.714844 19.398438 2.414062 18.789062 2.261719 C 18.523438 2.195312 18.261719 2.15625 17.984375 2.148438 C 17.949219 2.144531 17.769531 2.144531 17.742188 2.148438 Z M 17.988281 3.246094 C 18.058594 3.25 18.105469 3.253906 18.164062 3.257812 C 18.722656 3.320312 19.25 3.558594 19.675781 3.933594 C 19.71875 3.972656 19.742188 3.996094 19.792969 4.046875 C 19.84375 4.097656 19.875 4.132812 19.914062 4.179688 C 20.3125 4.632812 20.546875 5.199219 20.585938 5.800781 C 20.59375 5.917969 20.59375 6.046875 20.585938 6.164062 C 20.570312 6.449219 20.503906 6.730469 20.398438 6.996094 C 20.195312 7.507812 19.839844 7.945312 19.382812 8.253906 C 19.074219 8.460938 18.726562 8.605469 18.363281 8.671875 C 18.042969 8.730469 17.714844 8.734375 17.394531 8.679688 C 16.910156 8.597656 16.460938 8.390625 16.085938 8.070312 C 15.984375 7.984375 15.875 7.878906 15.785156 7.777344 C 15.523438 7.472656 15.328125 7.113281 15.21875 6.726562 C 15.160156 6.519531 15.125 6.304688 15.117188 6.082031 C 15.117188 6.023438 15.117188 5.882812 15.121094 5.832031 C 15.125 5.730469 15.136719 5.632812 15.152344 5.542969 C 15.257812 4.871094 15.613281 4.269531 16.148438 3.839844 C 16.472656 3.578125 16.855469 3.394531 17.261719 3.308594 C 17.421875 3.269531 17.582031 3.25 17.75 3.242188 C 17.789062 3.242188 17.957031 3.242188 17.988281 3.246094 Z M 5.855469 9.269531 C 5.917969 9.269531 5.949219 9.273438 6 9.277344 C 6.441406 9.308594 6.871094 9.445312 7.246094 9.679688 C 7.832031 10.046875 8.261719 10.621094 8.445312 11.285156 C 8.492188 11.453125 8.519531 11.636719 8.535156 11.816406 C 8.539062 11.886719 8.539062 11.910156 8.539062 12.007812 C 8.539062 12.105469 8.539062 12.128906 8.535156 12.199219 C 8.503906 12.628906 8.375 13.042969 8.152344 13.414062 C 8.003906 13.65625 7.820312 13.878906 7.605469 14.066406 C 7.199219 14.425781 6.699219 14.652344 6.167969 14.722656 C 5.964844 14.75 5.753906 14.753906 5.550781 14.734375 C 5.167969 14.699219 4.804688 14.585938 4.472656 14.402344 C 4.136719 14.214844 3.839844 13.957031 3.605469 13.644531 C 3.382812 13.34375 3.222656 13 3.136719 12.636719 C 3.097656 12.472656 3.074219 12.3125 3.066406 12.125 C 3.0625 12.050781 3.0625 11.910156 3.070312 11.824219 C 3.097656 11.375 3.238281 10.941406 3.476562 10.5625 C 3.65625 10.273438 3.886719 10.019531 4.160156 9.816406 C 4.617188 9.472656 5.167969 9.28125 5.738281 9.269531 C 5.761719 9.269531 5.789062 9.269531 5.792969 9.269531 C 5.796875 9.269531 5.824219 9.269531 5.855469 9.269531 Z M 17.976562 15.296875 C 18.15625 15.308594 18.316406 15.328125 18.484375 15.367188 C 18.757812 15.433594 19.019531 15.539062 19.261719 15.683594 C 19.585938 15.878906 19.867188 16.140625 20.085938 16.445312 C 20.328125 16.785156 20.488281 17.171875 20.554688 17.578125 C 20.605469 17.886719 20.605469 18.207031 20.550781 18.515625 C 20.511719 18.742188 20.441406 18.960938 20.34375 19.179688 C 20.324219 19.21875 20.273438 19.316406 20.253906 19.359375 C 20.144531 19.550781 20.019531 19.722656 19.867188 19.890625 C 19.835938 19.925781 19.746094 20.015625 19.710938 20.046875 C 19.636719 20.117188 19.570312 20.171875 19.492188 20.230469 C 19.089844 20.53125 18.609375 20.714844 18.109375 20.761719 C 18.027344 20.769531 17.976562 20.769531 17.882812 20.773438 C 17.800781 20.773438 17.75 20.773438 17.683594 20.765625 C 17.148438 20.734375 16.636719 20.546875 16.207031 20.222656 C 16.078125 20.125 15.96875 20.027344 15.851562 19.898438 C 15.8125 19.859375 15.753906 19.789062 15.710938 19.738281 C 15.390625 19.335938 15.191406 18.851562 15.132812 18.34375 C 15.121094 18.246094 15.117188 18.171875 15.117188 18.0625 C 15.117188 17.925781 15.121094 17.828125 15.136719 17.707031 C 15.199219 17.179688 15.410156 16.6875 15.75 16.28125 C 15.84375 16.171875 15.953125 16.058594 16.058594 15.96875 C 16.332031 15.730469 16.640625 15.554688 16.976562 15.4375 C 17.234375 15.351562 17.496094 15.304688 17.773438 15.296875 C 17.8125 15.296875 17.933594 15.296875 17.976562 15.296875 Z M 17.976562 15.296875 "/>
</g>
</svg>
