<?xml version="1.0" encoding="UTF-8"?>
<svg xmlns="http://www.w3.org/2000/svg" xmlns:xlink="http://www.w3.org/1999/xlink" viewBox="0 0 24 24" version="1.1">
<g>
<path style=" stroke:none;fill-rule:nonzero;fill:rgb(0%,0%,0%);fill-opacity:1;" d="M 20.355469 7.714844 C 19.808594 7.730469 19.230469 7.878906 18.671875 8.144531 C 18.519531 8.21875 18.335938 8.320312 18.230469 8.386719 L 18.214844 8.398438 L 18.214844 8.875 L 18.222656 8.878906 C 18.375 8.980469 18.585938 9.09375 18.796875 9.1875 C 18.851562 9.210938 18.929688 9.242188 18.96875 9.257812 C 18.976562 9.261719 18.980469 9.261719 18.980469 9.261719 C 18.984375 9.265625 18.554688 9.265625 18.035156 9.265625 L 17.085938 9.265625 L 17.085938 9.101562 C 17.085938 8.925781 17.085938 8.929688 17.074219 8.871094 C 17.042969 8.640625 16.925781 8.429688 16.75 8.277344 C 16.585938 8.140625 16.386719 8.058594 16.171875 8.050781 C 16.148438 8.046875 15.496094 8.046875 13.886719 8.046875 C 11.761719 8.046875 11.632812 8.046875 11.609375 8.050781 C 11.523438 8.058594 11.460938 8.074219 11.390625 8.097656 C 11.171875 8.167969 10.984375 8.316406 10.867188 8.519531 C 10.847656 8.546875 10.820312 8.601562 10.808594 8.632812 C 10.765625 8.734375 10.742188 8.835938 10.734375 8.949219 C 10.734375 8.960938 10.730469 9.03125 10.730469 9.117188 L 10.730469 9.265625 L 5.085938 9.265625 L 5.085938 11.160156 L 9.542969 11.160156 L 11.402344 12.089844 C 12.429688 12.597656 13.265625 13.015625 13.269531 13.015625 C 13.269531 13.019531 12.410156 13.445312 11.359375 13.96875 C 10.304688 14.492188 9.421875 14.933594 9.394531 14.949219 L 9.34375 14.972656 L 9.324219 14.960938 C 9.296875 14.949219 9.242188 14.917969 9.210938 14.90625 C 8.925781 14.777344 8.601562 14.734375 8.289062 14.792969 C 8.003906 14.84375 7.734375 14.972656 7.515625 15.171875 C 7.488281 15.195312 7.417969 15.265625 7.394531 15.292969 C 7.246094 15.457031 7.140625 15.640625 7.074219 15.84375 C 7.027344 15.980469 7.003906 16.113281 6.996094 16.261719 C 6.992188 16.304688 6.992188 16.417969 6.996094 16.457031 C 7.015625 16.667969 7.066406 16.855469 7.15625 17.039062 C 7.378906 17.492188 7.8125 17.8125 8.3125 17.894531 C 8.488281 17.925781 8.671875 17.921875 8.847656 17.890625 C 9.074219 17.851562 9.289062 17.757812 9.476562 17.625 C 9.585938 17.546875 9.691406 17.449219 9.777344 17.347656 C 9.824219 17.289062 9.871094 17.222656 9.90625 17.164062 L 9.917969 17.144531 L 17.898438 17.144531 L 17.910156 17.164062 C 17.925781 17.191406 17.960938 17.242188 17.984375 17.273438 C 18.101562 17.433594 18.25 17.570312 18.417969 17.675781 C 18.503906 17.730469 18.605469 17.78125 18.699219 17.816406 C 18.921875 17.898438 19.15625 17.929688 19.394531 17.910156 C 19.824219 17.871094 20.214844 17.65625 20.484375 17.320312 C 20.675781 17.078125 20.792969 16.78125 20.820312 16.476562 C 20.824219 16.421875 20.824219 16.390625 20.824219 16.320312 C 20.824219 16.257812 20.824219 16.242188 20.816406 16.191406 C 20.796875 15.972656 20.730469 15.753906 20.621094 15.5625 C 20.566406 15.46875 20.5 15.378906 20.425781 15.292969 C 20.398438 15.265625 20.328125 15.191406 20.296875 15.167969 C 20.167969 15.050781 20.027344 14.960938 19.871094 14.894531 C 19.507812 14.738281 19.09375 14.726562 18.722656 14.859375 C 18.648438 14.886719 18.570312 14.921875 18.503906 14.957031 L 18.480469 14.96875 L 18.335938 14.898438 C 18.257812 14.859375 17.378906 14.421875 16.378906 13.921875 C 15.378906 13.425781 14.558594 13.015625 14.558594 13.015625 C 14.558594 13.015625 15.398438 12.597656 16.421875 12.089844 L 18.285156 11.160156 L 22.722656 11.160156 L 22.722656 9.265625 L 21.953125 9.265625 L 21.984375 9.25 C 22.171875 9.175781 22.351562 9.089844 22.519531 8.996094 C 22.585938 8.960938 22.664062 8.914062 22.707031 8.882812 L 22.722656 8.875 L 22.722656 8.398438 L 22.699219 8.382812 C 22.570312 8.300781 22.375 8.195312 22.195312 8.109375 C 21.6875 7.878906 21.15625 7.742188 20.65625 7.714844 C 20.566406 7.710938 20.441406 7.710938 20.355469 7.714844 Z M 20.5625 8.285156 C 20.976562 8.300781 21.402344 8.398438 21.835938 8.582031 C 21.890625 8.605469 21.960938 8.636719 21.957031 8.636719 C 21.957031 8.636719 21.878906 8.671875 21.839844 8.691406 C 21.4375 8.859375 21.03125 8.957031 20.648438 8.980469 C 20.578125 8.988281 20.53125 8.988281 20.441406 8.988281 C 20.351562 8.984375 20.316406 8.984375 20.238281 8.980469 C 19.847656 8.949219 19.433594 8.839844 19.023438 8.65625 L 18.976562 8.636719 L 18.984375 8.632812 C 19.390625 8.449219 19.808594 8.332031 20.203125 8.296875 C 20.265625 8.292969 20.324219 8.289062 20.386719 8.285156 C 20.417969 8.285156 20.53125 8.285156 20.5625 8.285156 Z M 16.15625 8.621094 C 16.25 8.632812 16.332031 8.667969 16.394531 8.734375 C 16.457031 8.792969 16.492188 8.863281 16.507812 8.953125 C 16.511719 8.964844 16.511719 8.980469 16.511719 9.113281 L 16.511719 9.265625 L 11.304688 9.265625 L 11.304688 9.125 C 11.304688 8.972656 11.304688 8.96875 11.3125 8.933594 C 11.339844 8.789062 11.453125 8.671875 11.59375 8.632812 C 11.613281 8.628906 11.640625 8.625 11.660156 8.621094 C 11.679688 8.621094 16.136719 8.621094 16.15625 8.621094 Z M 22.152344 10.214844 L 22.152344 10.585938 L 5.660156 10.585938 L 5.660156 9.839844 L 22.152344 9.839844 Z M 16.972656 11.171875 C 16.960938 11.179688 16.265625 11.527344 15.429688 11.941406 L 13.914062 12.695312 L 13.855469 12.667969 C 13.824219 12.652344 13.171875 12.328125 12.410156 11.949219 C 11.648438 11.566406 10.980469 11.234375 10.925781 11.210938 L 10.828125 11.160156 L 16.996094 11.160156 Z M 16.070312 14.410156 C 17.136719 14.941406 18.007812 15.378906 18.007812 15.378906 C 18.007812 15.378906 17.996094 15.390625 17.988281 15.40625 C 17.957031 15.441406 17.925781 15.492188 17.902344 15.527344 L 17.898438 15.535156 L 9.917969 15.535156 L 9.902344 15.511719 C 9.875 15.46875 9.847656 15.429688 9.824219 15.394531 L 9.8125 15.382812 L 10.070312 15.25 C 10.214844 15.179688 11.136719 14.722656 12.121094 14.230469 L 13.914062 13.339844 L 14.023438 13.394531 C 14.082031 13.421875 15.003906 13.882812 16.070312 14.410156 Z M 8.644531 15.34375 C 8.796875 15.355469 8.933594 15.398438 9.0625 15.472656 C 9.335938 15.628906 9.519531 15.90625 9.558594 16.214844 C 9.570312 16.289062 9.570312 16.371094 9.5625 16.441406 C 9.539062 16.671875 9.4375 16.886719 9.273438 17.050781 C 9.035156 17.285156 8.699219 17.386719 8.371094 17.324219 C 8.128906 17.273438 7.914062 17.140625 7.765625 16.941406 C 7.664062 16.804688 7.601562 16.648438 7.574219 16.480469 C 7.570312 16.429688 7.566406 16.410156 7.566406 16.339844 C 7.566406 16.273438 7.570312 16.257812 7.574219 16.203125 C 7.597656 16.035156 7.667969 15.875 7.769531 15.738281 C 7.925781 15.53125 8.160156 15.390625 8.414062 15.351562 C 8.453125 15.347656 8.488281 15.34375 8.527344 15.339844 C 8.550781 15.339844 8.621094 15.339844 8.644531 15.34375 Z M 19.296875 15.339844 C 19.542969 15.355469 19.773438 15.453125 19.949219 15.625 C 20.050781 15.726562 20.132812 15.847656 20.183594 15.976562 C 20.214844 16.0625 20.238281 16.152344 20.246094 16.25 C 20.25 16.269531 20.25 16.289062 20.25 16.339844 C 20.25 16.394531 20.25 16.410156 20.246094 16.429688 C 20.238281 16.523438 20.21875 16.601562 20.191406 16.683594 C 20.164062 16.753906 20.128906 16.828125 20.085938 16.894531 C 19.984375 17.046875 19.839844 17.171875 19.671875 17.25 C 19.441406 17.355469 19.179688 17.371094 18.9375 17.292969 C 18.648438 17.195312 18.421875 16.976562 18.3125 16.691406 C 18.238281 16.488281 18.230469 16.261719 18.292969 16.050781 C 18.367188 15.808594 18.53125 15.601562 18.753906 15.472656 C 18.917969 15.378906 19.109375 15.332031 19.296875 15.339844 Z M 17.695312 16.113281 C 17.6875 16.144531 17.683594 16.210938 17.679688 16.253906 C 17.675781 16.292969 17.675781 16.398438 17.679688 16.4375 C 17.683594 16.472656 17.6875 16.511719 17.691406 16.546875 C 17.691406 16.558594 17.695312 16.570312 17.695312 16.570312 C 17.695312 16.570312 15.992188 16.570312 13.910156 16.570312 C 11.828125 16.570312 10.125 16.570312 10.125 16.570312 C 10.125 16.570312 10.125 16.5625 10.125 16.550781 C 10.144531 16.425781 10.144531 16.3125 10.132812 16.195312 C 10.132812 16.175781 10.125 16.125 10.125 16.113281 L 10.121094 16.109375 L 17.695312 16.109375 Z M 17.695312 16.113281 "/>
<path style=" stroke:none;fill-rule:nonzero;fill:rgb(0%,0%,0%);fill-opacity:1;" d="M 8.535156 16.054688 C 8.421875 16.070312 8.328125 16.144531 8.292969 16.25 C 8.269531 16.324219 8.277344 16.402344 8.308594 16.46875 C 8.367188 16.585938 8.496094 16.648438 8.628906 16.621094 C 8.746094 16.597656 8.835938 16.496094 8.851562 16.375 C 8.851562 16.367188 8.851562 16.355469 8.851562 16.339844 C 8.851562 16.328125 8.851562 16.3125 8.851562 16.308594 C 8.84375 16.234375 8.808594 16.167969 8.753906 16.125 C 8.710938 16.089844 8.664062 16.066406 8.613281 16.058594 C 8.597656 16.054688 8.550781 16.054688 8.535156 16.054688 Z M 8.535156 16.054688 "/>
<path style=" stroke:none;fill-rule:nonzero;fill:rgb(0%,0%,0%);fill-opacity:1;" d="M 19.226562 16.054688 C 19.222656 16.054688 19.214844 16.058594 19.210938 16.058594 C 19.191406 16.058594 19.164062 16.066406 19.144531 16.074219 C 19.046875 16.113281 18.980469 16.203125 18.964844 16.308594 C 18.964844 16.3125 18.964844 16.328125 18.964844 16.339844 C 18.964844 16.386719 18.972656 16.425781 18.992188 16.464844 C 19.050781 16.589844 19.1875 16.652344 19.324219 16.617188 C 19.402344 16.597656 19.46875 16.542969 19.507812 16.46875 C 19.546875 16.390625 19.546875 16.296875 19.511719 16.21875 C 19.46875 16.132812 19.390625 16.074219 19.296875 16.058594 C 19.285156 16.054688 19.234375 16.054688 19.226562 16.054688 Z M 19.226562 16.054688 "/>
<path style=" stroke:none;fill-rule:nonzero;fill:rgb(0%,0%,0%);fill-opacity:1;" d="M 1.421875 10.921875 L 1.421875 11.207031 L 3.757812 11.207031 L 3.757812 10.636719 L 1.421875 10.636719 Z M 1.421875 10.921875 "/>
<path style=" stroke:none;fill-rule:nonzero;fill:rgb(0%,0%,0%);fill-opacity:1;" d="M 3.058594 12.625 L 3.058594 12.914062 L 6.226562 12.914062 L 6.226562 12.339844 L 3.058594 12.339844 Z M 3.058594 12.625 "/>
</g>
</svg>
