<?xml version="1.0" encoding="UTF-8"?>
<svg xmlns="http://www.w3.org/2000/svg" xmlns:xlink="http://www.w3.org/1999/xlink" viewBox="0 0 24 24" version="1.1">
<g>
<path style=" stroke:none;fill-rule:nonzero;fill:rgb(0%,0%,0%);fill-opacity:1;" d="M 7.179688 2.582031 C 7.078125 2.585938 7.015625 2.59375 6.9375 2.605469 C 6.644531 2.65625 6.371094 2.773438 6.132812 2.949219 C 5.726562 3.25 5.464844 3.695312 5.398438 4.191406 C 5.355469 4.519531 5.402344 4.855469 5.535156 5.15625 C 5.707031 5.554688 6.019531 5.882812 6.40625 6.078125 C 6.558594 6.152344 6.714844 6.207031 6.875 6.238281 C 7.28125 6.320312 7.695312 6.265625 8.0625 6.085938 C 8.324219 5.953125 8.550781 5.765625 8.726562 5.53125 C 8.792969 5.4375 8.847656 5.351562 8.898438 5.25 C 8.929688 5.183594 8.953125 5.136719 8.976562 5.074219 C 9.078125 4.796875 9.113281 4.488281 9.074219 4.203125 C 9.054688 4.042969 9.007812 3.878906 8.945312 3.730469 C 8.871094 3.550781 8.773438 3.386719 8.667969 3.257812 C 8.628906 3.214844 8.554688 3.132812 8.503906 3.085938 C 8.25 2.851562 7.953125 2.691406 7.625 2.621094 C 7.539062 2.601562 7.453125 2.589844 7.347656 2.585938 C 7.328125 2.582031 7.199219 2.582031 7.179688 2.582031 Z M 7.3125 3.199219 C 7.429688 3.207031 7.542969 3.230469 7.648438 3.265625 C 8.035156 3.402344 8.332031 3.726562 8.433594 4.121094 C 8.460938 4.230469 8.476562 4.335938 8.472656 4.449219 C 8.472656 4.496094 8.472656 4.519531 8.464844 4.5625 C 8.433594 4.867188 8.285156 5.148438 8.050781 5.355469 C 7.914062 5.476562 7.746094 5.566406 7.566406 5.617188 C 7.425781 5.652344 7.277344 5.667969 7.128906 5.652344 C 6.886719 5.632812 6.652344 5.535156 6.464844 5.382812 C 6.398438 5.332031 6.335938 5.265625 6.285156 5.207031 C 6.128906 5.019531 6.03125 4.792969 6.007812 4.554688 C 6.003906 4.507812 6.003906 4.488281 6.003906 4.429688 C 6.003906 4.355469 6.003906 4.320312 6.011719 4.257812 C 6.046875 4.023438 6.148438 3.808594 6.308594 3.625 C 6.328125 3.601562 6.386719 3.539062 6.410156 3.519531 C 6.5 3.441406 6.597656 3.375 6.703125 3.324219 C 6.851562 3.25 7.011719 3.210938 7.179688 3.199219 C 7.203125 3.199219 7.292969 3.199219 7.3125 3.199219 Z M 7.3125 3.199219 "/>
<path style=" stroke:none;fill-rule:nonzero;fill:rgb(0%,0%,0%);fill-opacity:1;" d="M 5.878906 6.890625 C 5.640625 6.90625 5.417969 6.988281 5.230469 7.128906 C 5.179688 7.167969 5.144531 7.199219 5.097656 7.242188 C 4.960938 7.382812 4.859375 7.550781 4.800781 7.742188 C 4.796875 7.75 4.554688 8.65625 4.261719 9.753906 C 3.972656 10.851562 3.726562 11.765625 3.722656 11.785156 C 3.628906 12.132812 3.570312 12.539062 3.550781 13 C 3.542969 13.222656 3.542969 13.304688 3.539062 14.5 L 3.539062 15.476562 L 2.671875 17.175781 C 2.191406 18.113281 1.796875 18.890625 1.789062 18.90625 C 1.695312 19.109375 1.667969 19.34375 1.714844 19.566406 C 1.765625 19.835938 1.921875 20.074219 2.148438 20.234375 C 2.308594 20.347656 2.5 20.417969 2.699219 20.429688 C 2.726562 20.429688 2.808594 20.429688 2.835938 20.429688 C 2.96875 20.421875 3.097656 20.390625 3.214844 20.335938 C 3.425781 20.238281 3.597656 20.082031 3.710938 19.882812 C 3.71875 19.863281 5.570312 16.226562 5.585938 16.195312 C 5.636719 16.089844 5.671875 15.972656 5.683594 15.863281 C 5.695312 15.796875 5.691406 15.886719 5.695312 14.800781 L 5.695312 13.8125 L 7.125 15.992188 L 7.332031 17.707031 C 7.449219 18.648438 7.542969 19.433594 7.546875 19.453125 C 7.554688 19.519531 7.566406 19.570312 7.582031 19.628906 C 7.652344 19.867188 7.796875 20.074219 8.003906 20.214844 C 8.242188 20.378906 8.53125 20.441406 8.816406 20.386719 C 9.082031 20.339844 9.316406 20.191406 9.476562 19.976562 C 9.601562 19.8125 9.671875 19.625 9.691406 19.414062 C 9.695312 19.378906 9.695312 19.285156 9.691406 19.246094 C 9.6875 19.214844 9.234375 15.484375 9.230469 15.449219 C 9.207031 15.296875 9.152344 15.15625 9.070312 15.027344 C 9.0625 15.015625 8.621094 14.34375 8.089844 13.539062 C 7.5625 12.730469 7.125 12.070312 7.125 12.070312 C 7.125 12.066406 7.597656 10.140625 7.597656 10.140625 C 7.597656 10.140625 7.609375 10.15625 7.621094 10.171875 C 7.644531 10.214844 7.671875 10.257812 7.695312 10.285156 C 7.769531 10.378906 7.859375 10.460938 7.964844 10.523438 C 7.988281 10.539062 10.136719 11.703125 10.164062 11.714844 C 10.351562 11.808594 10.566406 11.835938 10.777344 11.796875 C 10.984375 11.753906 11.179688 11.636719 11.316406 11.476562 C 11.363281 11.421875 11.410156 11.347656 11.433594 11.296875 L 11.441406 11.28125 L 11.460938 11.300781 C 11.554688 11.394531 11.6875 11.457031 11.820312 11.476562 C 11.855469 11.480469 11.875 11.480469 11.980469 11.480469 L 12.085938 11.480469 L 12.085938 13.421875 L 11.054688 13.421875 L 11.054688 13.890625 L 12.085938 13.890625 L 12.085938 14.457031 L 11.054688 14.457031 L 11.054688 17.972656 L 10.847656 17.972656 L 10.847656 19.265625 L 10.996094 19.265625 C 11.078125 19.265625 11.148438 19.265625 11.148438 19.265625 C 11.148438 19.265625 11.144531 19.273438 11.140625 19.277344 C 11.128906 19.304688 11.109375 19.347656 11.097656 19.382812 C 11.058594 19.5 11.046875 19.625 11.058594 19.75 C 11.074219 19.882812 11.121094 20.011719 11.195312 20.125 C 11.285156 20.257812 11.414062 20.371094 11.5625 20.433594 C 11.648438 20.472656 11.738281 20.496094 11.835938 20.503906 C 11.867188 20.507812 11.953125 20.507812 11.984375 20.503906 C 12.128906 20.492188 12.257812 20.445312 12.375 20.367188 C 12.484375 20.296875 12.574219 20.203125 12.640625 20.089844 C 12.773438 19.871094 12.796875 19.605469 12.710938 19.367188 C 12.699219 19.339844 12.691406 19.3125 12.675781 19.285156 L 12.667969 19.265625 L 19.835938 19.265625 L 19.828125 19.28125 C 19.789062 19.367188 19.761719 19.449219 19.75 19.539062 C 19.738281 19.609375 19.738281 19.683594 19.746094 19.753906 C 19.785156 20.09375 20.027344 20.378906 20.359375 20.476562 C 20.480469 20.511719 20.609375 20.515625 20.734375 20.496094 C 21.046875 20.445312 21.308594 20.222656 21.40625 19.921875 C 21.4375 19.828125 21.449219 19.730469 21.449219 19.636719 C 21.449219 19.597656 21.445312 19.578125 21.441406 19.542969 C 21.429688 19.453125 21.402344 19.359375 21.363281 19.28125 L 21.355469 19.265625 L 21.65625 19.265625 L 21.65625 17.972656 L 21.449219 17.972656 L 21.449219 13.890625 L 21.65625 13.890625 L 21.65625 12.59375 L 18.761719 12.59375 L 18.761719 10.320312 L 17.261719 10.320312 L 17.261719 12.59375 L 16.898438 12.59375 L 16.898438 10.941406 L 14.777344 10.941406 L 14.777344 12.59375 L 14.417969 12.59375 L 14.417969 10.734375 L 13.949219 10.734375 L 13.949219 12.59375 L 13.742188 12.59375 L 13.742188 13.421875 L 13.382812 13.421875 L 13.382812 12.203125 C 13.378906 11.0625 13.378906 10.984375 13.378906 10.960938 C 13.371094 10.890625 13.359375 10.835938 13.335938 10.773438 C 13.304688 10.671875 13.253906 10.578125 13.179688 10.492188 C 13.160156 10.46875 13.105469 10.410156 13.078125 10.390625 C 12.996094 10.324219 12.914062 10.273438 12.816406 10.238281 C 12.746094 10.210938 12.664062 10.195312 12.585938 10.191406 C 12.570312 10.191406 12.453125 10.1875 12.207031 10.191406 C 11.878906 10.191406 11.851562 10.191406 11.832031 10.191406 C 11.753906 10.203125 11.6875 10.222656 11.621094 10.253906 C 11.558594 10.285156 11.503906 10.324219 11.453125 10.375 C 11.4375 10.390625 11.425781 10.402344 11.425781 10.402344 C 11.425781 10.402344 11.417969 10.394531 11.414062 10.386719 C 11.332031 10.242188 11.210938 10.117188 11.066406 10.035156 C 11.054688 10.027344 10.617188 9.789062 10.089844 9.503906 L 9.132812 8.988281 L 8.8125 8.457031 C 8.242188 7.511719 8.230469 7.492188 8.203125 7.453125 C 8.136719 7.355469 8.046875 7.261719 7.957031 7.1875 C 7.8125 7.066406 7.636719 6.976562 7.453125 6.929688 C 7.367188 6.910156 7.292969 6.898438 7.203125 6.890625 C 7.171875 6.890625 5.90625 6.890625 5.878906 6.890625 Z M 7.164062 7.507812 C 7.257812 7.511719 7.347656 7.535156 7.429688 7.578125 C 7.5 7.613281 7.558594 7.652344 7.617188 7.710938 C 7.648438 7.746094 7.675781 7.777344 7.699219 7.8125 C 7.707031 7.824219 7.933594 8.195312 8.203125 8.640625 L 8.691406 9.449219 L 9.726562 10.007812 C 10.292969 10.316406 10.765625 10.574219 10.773438 10.578125 C 10.839844 10.625 10.890625 10.691406 10.910156 10.773438 C 10.917969 10.804688 10.921875 10.847656 10.921875 10.875 C 10.917969 10.882812 10.917969 10.894531 10.917969 10.898438 C 10.917969 10.914062 10.914062 10.941406 10.90625 10.960938 C 10.875 11.078125 10.769531 11.167969 10.648438 11.191406 C 10.625 11.195312 10.605469 11.199219 10.574219 11.195312 C 10.527344 11.195312 10.484375 11.183594 10.441406 11.164062 C 10.410156 11.148438 8.28125 9.992188 8.265625 9.984375 C 8.230469 9.960938 8.195312 9.925781 8.171875 9.894531 C 8.167969 9.886719 8.074219 9.730469 7.964844 9.546875 C 7.851562 9.363281 7.757812 9.207031 7.75 9.199219 C 7.730469 9.171875 7.699219 9.140625 7.671875 9.125 C 7.574219 9.054688 7.441406 9.046875 7.335938 9.101562 C 7.253906 9.144531 7.191406 9.21875 7.167969 9.304688 C 7.164062 9.316406 6.554688 11.800781 6.53125 11.910156 C 6.515625 11.96875 6.511719 12.003906 6.507812 12.058594 C 6.507812 12.140625 6.523438 12.21875 6.550781 12.296875 C 6.5625 12.324219 6.582031 12.363281 6.597656 12.386719 C 6.601562 12.394531 7.042969 13.066406 7.578125 13.878906 C 8.113281 14.691406 8.554688 15.363281 8.558594 15.371094 C 8.589844 15.421875 8.609375 15.480469 8.617188 15.535156 C 8.621094 15.546875 8.722656 16.394531 8.847656 17.421875 C 9.054688 19.113281 9.074219 19.292969 9.078125 19.316406 C 9.082031 19.496094 8.980469 19.660156 8.820312 19.742188 C 8.765625 19.769531 8.714844 19.78125 8.652344 19.789062 C 8.617188 19.789062 8.59375 19.789062 8.570312 19.789062 C 8.4375 19.773438 8.320312 19.703125 8.242188 19.59375 C 8.203125 19.542969 8.175781 19.476562 8.164062 19.410156 C 8.160156 19.402344 8.0625 18.582031 7.941406 17.589844 C 7.820312 16.59375 7.722656 15.78125 7.71875 15.777344 C 7.71875 15.773438 7.332031 15.183594 6.800781 14.375 C 6.296875 13.605469 5.878906 12.964844 5.871094 12.953125 C 5.847656 12.921875 5.839844 12.910156 5.8125 12.882812 C 5.742188 12.8125 5.648438 12.769531 5.550781 12.761719 C 5.527344 12.757812 5.480469 12.757812 5.460938 12.761719 C 5.3125 12.777344 5.183594 12.867188 5.121094 13 C 5.097656 13.042969 5.085938 13.085938 5.078125 13.136719 C 5.078125 13.152344 5.078125 13.234375 5.078125 14.460938 C 5.074219 15.675781 5.074219 15.773438 5.074219 15.785156 C 5.066406 15.835938 5.050781 15.875 5.03125 15.917969 C 5.027344 15.933594 3.234375 19.457031 3.183594 19.554688 C 3.160156 19.605469 3.132812 19.640625 3.097656 19.675781 C 3.023438 19.75 2.929688 19.796875 2.820312 19.8125 C 2.796875 19.8125 2.742188 19.816406 2.722656 19.8125 C 2.617188 19.800781 2.523438 19.757812 2.449219 19.683594 C 2.363281 19.601562 2.3125 19.488281 2.308594 19.367188 C 2.308594 19.296875 2.320312 19.230469 2.347656 19.167969 C 2.351562 19.160156 2.757812 18.359375 3.253906 17.390625 L 4.15625 15.625 L 4.15625 14.460938 C 4.15625 13.644531 4.15625 13.285156 4.15625 13.25 C 4.164062 13.097656 4.164062 13.042969 4.167969 12.960938 C 4.191406 12.601562 4.234375 12.289062 4.300781 12.015625 C 4.316406 11.949219 5.386719 7.933594 5.394531 7.914062 C 5.402344 7.882812 5.414062 7.859375 5.429688 7.828125 C 5.457031 7.769531 5.492188 7.722656 5.535156 7.679688 C 5.640625 7.574219 5.777344 7.515625 5.925781 7.507812 C 5.949219 7.507812 7.140625 7.507812 7.164062 7.507812 Z M 12.558594 10.65625 C 12.695312 10.667969 12.816406 10.75 12.875 10.871094 C 12.894531 10.914062 12.90625 10.945312 12.914062 10.996094 C 12.914062 11.011719 12.914062 11.15625 12.914062 14.492188 L 12.914062 17.972656 L 12.554688 17.972656 L 12.554688 11.015625 L 12.226562 11.015625 C 12 11.015625 11.894531 11.015625 11.886719 11.015625 C 11.824219 11.007812 11.773438 10.96875 11.746094 10.917969 C 11.726562 10.871094 11.722656 10.824219 11.734375 10.78125 C 11.742188 10.765625 11.75 10.75 11.757812 10.734375 C 11.769531 10.722656 11.789062 10.699219 11.804688 10.6875 C 11.824219 10.671875 11.855469 10.660156 11.878906 10.65625 C 11.890625 10.65625 11.949219 10.65625 12.21875 10.65625 C 12.433594 10.65625 12.550781 10.65625 12.558594 10.65625 Z M 18.292969 10.964844 L 18.292969 11.148438 L 17.726562 11.148438 L 17.726562 10.785156 L 18.292969 10.785156 Z M 16.429688 12 L 16.429688 12.59375 L 15.242188 12.59375 L 15.242188 11.40625 L 16.429688 11.40625 Z M 18.292969 12.105469 L 18.292969 12.59375 L 17.726562 12.59375 L 17.726562 11.613281 L 18.292969 11.613281 Z M 21.191406 13.242188 L 21.191406 13.421875 L 14.207031 13.421875 L 14.207031 13.0625 L 21.191406 13.0625 Z M 13.949219 14.171875 L 13.949219 14.457031 L 13.382812 14.457031 L 13.382812 13.890625 L 13.949219 13.890625 Z M 14.777344 15.214844 C 14.777344 16.003906 14.777344 16.558594 14.777344 16.582031 C 14.78125 16.628906 14.78125 16.644531 14.785156 16.6875 C 14.828125 17.039062 15.054688 17.351562 15.375 17.507812 C 15.507812 17.570312 15.644531 17.605469 15.792969 17.609375 C 15.835938 17.613281 19.5625 17.613281 19.605469 17.609375 C 19.875 17.597656 20.121094 17.492188 20.308594 17.300781 C 20.445312 17.164062 20.542969 17 20.589844 16.8125 C 20.605469 16.753906 20.613281 16.699219 20.621094 16.625 C 20.621094 16.609375 20.621094 16.285156 20.621094 15.246094 L 20.621094 13.890625 L 20.984375 13.890625 L 20.984375 17.972656 L 14.417969 17.972656 L 14.417969 13.890625 L 14.777344 13.890625 Z M 15.605469 14.097656 L 15.605469 14.300781 L 16.070312 14.300781 L 16.070312 13.890625 L 16.429688 13.890625 L 16.429688 14.921875 L 16.898438 14.921875 L 16.898438 13.890625 L 18.085938 13.890625 L 18.085938 14.300781 L 18.554688 14.300781 L 18.554688 13.890625 L 19.328125 13.890625 L 19.328125 15.128906 L 19.792969 15.128906 L 19.792969 13.890625 L 20.15625 13.890625 L 20.15625 15.246094 C 20.15625 16.511719 20.152344 16.601562 20.152344 16.617188 C 20.140625 16.71875 20.109375 16.800781 20.054688 16.882812 C 19.972656 17.003906 19.847656 17.09375 19.703125 17.128906 C 19.679688 17.132812 19.660156 17.136719 19.632812 17.140625 L 19.609375 17.144531 L 15.789062 17.144531 L 15.765625 17.140625 C 15.722656 17.136719 15.679688 17.125 15.644531 17.113281 C 15.453125 17.046875 15.308594 16.890625 15.261719 16.695312 C 15.253906 16.660156 15.246094 16.628906 15.246094 16.59375 C 15.242188 16.578125 15.242188 16.125 15.242188 15.230469 L 15.242188 13.890625 L 15.605469 13.890625 Z M 12.085938 16.449219 L 12.085938 17.972656 L 11.519531 17.972656 L 11.519531 14.921875 L 12.085938 14.921875 Z M 13.949219 16.449219 L 13.949219 17.972656 L 13.382812 17.972656 L 13.382812 14.921875 L 13.949219 14.921875 Z M 21.191406 18.621094 L 21.191406 18.800781 L 11.3125 18.800781 L 11.3125 18.441406 L 21.191406 18.441406 Z M 11.933594 19.269531 C 11.964844 19.269531 12.007812 19.277344 12.039062 19.292969 C 12.058594 19.296875 12.097656 19.316406 12.113281 19.328125 C 12.183594 19.371094 12.238281 19.4375 12.269531 19.515625 C 12.304688 19.605469 12.304688 19.710938 12.265625 19.796875 C 12.21875 19.917969 12.113281 20.007812 11.984375 20.035156 C 11.933594 20.042969 11.875 20.042969 11.828125 20.035156 C 11.78125 20.023438 11.734375 20.003906 11.695312 19.976562 C 11.667969 19.960938 11.65625 19.949219 11.632812 19.925781 C 11.601562 19.894531 11.578125 19.863281 11.558594 19.824219 C 11.542969 19.785156 11.53125 19.75 11.523438 19.707031 C 11.519531 19.683594 11.519531 19.632812 11.523438 19.613281 C 11.535156 19.523438 11.570312 19.445312 11.632812 19.382812 C 11.695312 19.320312 11.769531 19.285156 11.851562 19.269531 C 11.867188 19.269531 11.902344 19.265625 11.910156 19.265625 C 11.914062 19.265625 11.925781 19.269531 11.933594 19.269531 Z M 20.621094 19.269531 C 20.648438 19.269531 20.683594 19.277344 20.714844 19.285156 C 20.902344 19.347656 21.015625 19.539062 20.976562 19.730469 C 20.945312 19.875 20.835938 19.992188 20.695312 20.027344 C 20.640625 20.042969 20.585938 20.046875 20.535156 20.035156 C 20.4375 20.019531 20.34375 19.964844 20.285156 19.886719 C 20.253906 19.847656 20.234375 19.800781 20.21875 19.753906 C 20.203125 19.691406 20.203125 19.628906 20.21875 19.566406 C 20.257812 19.398438 20.40625 19.277344 20.574219 19.269531 C 20.585938 19.265625 20.597656 19.265625 20.597656 19.265625 C 20.601562 19.265625 20.609375 19.269531 20.621094 19.269531 Z M 20.621094 19.269531 "/>
</g>
</svg>
