<?xml version="1.0" encoding="UTF-8"?>
<svg xmlns="http://www.w3.org/2000/svg" xmlns:xlink="http://www.w3.org/1999/xlink" viewBox="0 0 24 24" version="1.1">
<g>
<path style=" stroke:none;fill-rule:nonzero;fill:rgb(0%,0%,0%);fill-opacity:1;" d="M 14.90625 4.925781 C 14.859375 4.933594 14.8125 4.960938 14.785156 4.996094 C 14.757812 5.023438 14.742188 5.054688 14.734375 5.09375 C 14.730469 5.105469 14.730469 5.109375 14.730469 5.226562 L 14.730469 5.347656 L 13.539062 5.351562 L 12.335938 5.351562 C 12.28125 5.367188 12.242188 5.394531 12.210938 5.433594 C 12.152344 5.503906 12.152344 5.605469 12.199219 5.679688 C 12.234375 5.730469 12.28125 5.761719 12.34375 5.773438 C 12.351562 5.777344 12.390625 5.777344 12.792969 5.777344 L 13.234375 5.777344 L 13.234375 6.203125 L 13.128906 6.203125 C 13.011719 6.207031 13.011719 6.207031 12.96875 6.214844 C 12.929688 6.222656 12.894531 6.234375 12.851562 6.253906 C 12.804688 6.277344 12.765625 6.308594 12.726562 6.347656 C 12.652344 6.421875 12.609375 6.515625 12.597656 6.621094 C 12.59375 6.640625 12.59375 6.675781 12.59375 7.273438 C 12.59375 7.875 12.59375 7.90625 12.597656 7.925781 C 12.605469 8.011719 12.636719 8.085938 12.6875 8.15625 C 12.761719 8.253906 12.871094 8.320312 12.996094 8.339844 C 13.027344 8.34375 13.058594 8.34375 13.148438 8.34375 L 13.234375 8.34375 L 13.234375 9.023438 C 13.234375 9.671875 13.234375 9.703125 13.238281 9.710938 C 13.25 9.757812 13.265625 9.789062 13.296875 9.820312 C 13.328125 9.851562 13.363281 9.871094 13.402344 9.878906 C 13.417969 9.882812 13.421875 9.882812 13.449219 9.882812 C 13.472656 9.882812 13.480469 9.882812 13.492188 9.878906 C 13.585938 9.859375 13.652344 9.785156 13.664062 9.6875 C 13.664062 9.679688 13.664062 9.425781 13.664062 9.007812 L 13.664062 8.34375 L 13.765625 8.34375 C 13.867188 8.34375 13.878906 8.34375 13.914062 8.335938 C 14.058594 8.3125 14.1875 8.21875 14.253906 8.085938 C 14.28125 8.035156 14.296875 7.984375 14.304688 7.921875 C 14.304688 7.898438 14.304688 6.648438 14.304688 6.625 C 14.296875 6.5625 14.28125 6.511719 14.253906 6.460938 C 14.21875 6.394531 14.167969 6.335938 14.109375 6.292969 C 14.050781 6.25 13.976562 6.21875 13.902344 6.210938 C 13.871094 6.203125 13.855469 6.203125 13.761719 6.203125 L 13.664062 6.203125 L 13.664062 5.777344 L 14.730469 5.777344 L 14.730469 10.492188 L 14.722656 10.492188 C 14.714844 10.492188 14.5625 10.484375 14.382812 10.472656 C 14.203125 10.464844 14.039062 10.457031 14.023438 10.453125 C 13.988281 10.453125 13.902344 10.453125 13.867188 10.457031 C 13.757812 10.464844 13.65625 10.484375 13.554688 10.519531 C 13.300781 10.601562 13.082031 10.757812 12.921875 10.96875 C 12.78125 11.15625 12.691406 11.386719 12.667969 11.621094 C 12.664062 11.671875 12.664062 11.683594 12.664062 11.828125 L 12.664062 11.976562 L 12.179688 11.628906 C 11.800781 11.359375 11.695312 11.285156 11.699219 11.285156 C 11.703125 11.285156 11.71875 11.28125 11.734375 11.277344 C 12.039062 11.214844 12.316406 11.054688 12.519531 10.816406 C 12.683594 10.625 12.792969 10.390625 12.832031 10.144531 C 12.847656 10.066406 12.851562 10 12.851562 9.917969 C 12.851562 9.847656 12.847656 9.800781 12.839844 9.738281 C 12.785156 9.296875 12.515625 8.90625 12.121094 8.695312 C 11.953125 8.601562 11.769531 8.546875 11.578125 8.53125 C 11.507812 8.527344 11.417969 8.527344 11.34375 8.53125 C 11.15625 8.546875 10.96875 8.601562 10.800781 8.695312 C 10.410156 8.90625 10.140625 9.292969 10.082031 9.730469 C 10.074219 9.800781 10.070312 9.855469 10.070312 9.9375 C 10.074219 10.023438 10.078125 10.089844 10.09375 10.171875 C 10.097656 10.179688 10.097656 10.1875 10.097656 10.1875 C 10.097656 10.1875 10.089844 10.1875 10.082031 10.183594 C 9.949219 10.152344 9.820312 10.15625 9.691406 10.199219 C 9.589844 10.234375 9.5 10.289062 9.421875 10.367188 C 9.402344 10.390625 9.382812 10.410156 9.367188 10.429688 C 9.351562 10.449219 9.15625 10.726562 9.144531 10.742188 C 9.085938 10.832031 9.046875 10.933594 9.03125 11.039062 C 9.023438 11.097656 9.027344 11.171875 9.035156 11.234375 C 9.0625 11.410156 9.160156 11.566406 9.300781 11.675781 C 9.3125 11.683594 9.511719 11.828125 9.746094 11.992188 L 10.164062 12.292969 L 9.914062 12.292969 C 9.660156 12.296875 9.660156 12.296875 9.617188 12.300781 C 9.34375 12.335938 9.117188 12.542969 9.046875 12.8125 C 9.039062 12.851562 9.03125 12.886719 9.027344 12.929688 C 9.027344 12.957031 9.027344 13.769531 9.027344 13.796875 C 9.042969 13.996094 9.140625 14.175781 9.300781 14.296875 C 9.398438 14.371094 9.515625 14.417969 9.648438 14.429688 C 9.667969 14.433594 9.746094 14.433594 10.875 14.433594 L 12.082031 14.433594 L 13.507812 14.875 C 14.449219 15.167969 14.929688 15.316406 14.929688 15.316406 C 14.925781 15.320312 14.433594 15.472656 13.832031 15.65625 C 13.230469 15.84375 12.738281 15.996094 12.738281 15.996094 C 12.734375 15.996094 12.730469 15.988281 12.71875 15.972656 C 12.617188 15.78125 12.472656 15.621094 12.296875 15.503906 C 12.050781 15.339844 11.757812 15.269531 11.460938 15.300781 C 11.257812 15.320312 11.0625 15.390625 10.890625 15.5 C 10.640625 15.667969 10.453125 15.917969 10.367188 16.203125 C 10.308594 16.394531 10.296875 16.597656 10.328125 16.796875 C 10.394531 17.167969 10.625 17.496094 10.953125 17.6875 C 11.234375 17.84375 11.5625 17.894531 11.878906 17.824219 C 12.070312 17.78125 12.253906 17.691406 12.40625 17.566406 C 12.453125 17.527344 12.515625 17.46875 12.554688 17.425781 C 12.695312 17.265625 12.789062 17.082031 12.839844 16.878906 C 12.84375 16.847656 12.855469 16.800781 12.855469 16.792969 L 18.457031 16.792969 C 18.457031 16.796875 18.460938 16.8125 18.464844 16.828125 C 18.503906 17.027344 18.59375 17.214844 18.722656 17.378906 C 18.753906 17.417969 18.773438 17.4375 18.816406 17.480469 C 18.867188 17.53125 18.898438 17.558594 18.953125 17.601562 C 19.230469 17.808594 19.582031 17.894531 19.929688 17.839844 C 20.132812 17.804688 20.324219 17.722656 20.492188 17.597656 C 20.546875 17.558594 20.578125 17.53125 20.628906 17.476562 C 20.679688 17.429688 20.710938 17.394531 20.746094 17.34375 C 20.882812 17.164062 20.96875 16.957031 20.992188 16.734375 C 21 16.679688 21.003906 16.65625 21.003906 16.59375 C 21.003906 16.503906 21 16.441406 20.984375 16.359375 C 20.917969 15.960938 20.660156 15.613281 20.296875 15.429688 C 20.050781 15.304688 19.765625 15.261719 19.492188 15.3125 C 19.324219 15.34375 19.160156 15.410156 19.011719 15.507812 C 18.835938 15.628906 18.6875 15.792969 18.589844 15.976562 C 18.582031 15.996094 18.578125 16 18.578125 15.996094 C 18.558594 15.992188 16.386719 15.320312 16.386719 15.316406 C 16.382812 15.316406 17.023438 15.117188 17.808594 14.875 L 19.230469 14.433594 L 20.421875 14.433594 C 21.222656 14.433594 21.621094 14.433594 21.636719 14.433594 C 21.734375 14.429688 21.820312 14.40625 21.902344 14.363281 C 22.109375 14.261719 22.253906 14.0625 22.28125 13.835938 C 22.285156 13.789062 22.285156 13.777344 22.285156 13.347656 C 22.285156 12.894531 22.285156 12.921875 22.277344 12.871094 C 22.257812 12.746094 22.207031 12.636719 22.125 12.539062 C 22.105469 12.515625 22.066406 12.476562 22.042969 12.457031 C 21.941406 12.371094 21.820312 12.316406 21.6875 12.300781 C 21.648438 12.296875 21.628906 12.292969 21.527344 12.292969 L 21.433594 12.292969 L 21.433594 11.828125 C 21.433594 11.363281 21.429688 11.316406 21.425781 11.269531 C 21.410156 11.070312 21.335938 10.886719 21.21875 10.730469 C 21.179688 10.679688 21.136719 10.628906 21.085938 10.582031 C 20.925781 10.433594 20.714844 10.335938 20.496094 10.3125 C 20.445312 10.304688 20.429688 10.304688 20.371094 10.304688 C 20.292969 10.304688 20.253906 10.308594 20.1875 10.320312 C 20.117188 10.332031 20.070312 10.347656 19.964844 10.382812 C 19.695312 10.480469 19.523438 10.539062 19.363281 10.582031 C 19.105469 10.65625 18.878906 10.695312 18.636719 10.710938 C 18.566406 10.714844 18.539062 10.71875 18.445312 10.71875 C 18.3125 10.71875 18.207031 10.714844 18.058594 10.707031 C 17.996094 10.699219 15.167969 10.519531 15.164062 10.519531 L 15.160156 10.519531 L 15.160156 5.777344 L 15.28125 5.777344 C 15.398438 5.777344 15.398438 5.777344 15.414062 5.773438 C 15.492188 5.757812 15.554688 5.703125 15.578125 5.628906 C 15.585938 5.601562 15.585938 5.59375 15.585938 5.5625 C 15.585938 5.539062 15.585938 5.53125 15.582031 5.519531 C 15.566406 5.441406 15.507812 5.378906 15.433594 5.355469 C 15.40625 5.347656 15.402344 5.347656 15.277344 5.347656 L 15.160156 5.347656 L 15.160156 5.226562 C 15.160156 5.109375 15.160156 5.105469 15.15625 5.09375 C 15.136719 5.007812 15.074219 4.945312 14.992188 4.925781 C 14.972656 4.921875 14.925781 4.921875 14.90625 4.925781 Z M 13.730469 6.636719 C 13.800781 6.644531 13.859375 6.699219 13.875 6.773438 C 13.875 6.785156 13.875 6.804688 13.875 7.273438 C 13.875 7.738281 13.875 7.761719 13.875 7.773438 C 13.867188 7.808594 13.851562 7.839844 13.824219 7.863281 C 13.800781 7.890625 13.769531 7.90625 13.734375 7.910156 C 13.71875 7.914062 13.179688 7.914062 13.164062 7.910156 C 13.132812 7.90625 13.101562 7.890625 13.078125 7.871094 C 13.050781 7.84375 13.035156 7.8125 13.027344 7.777344 L 13.023438 7.761719 L 13.023438 7.277344 C 13.023438 6.746094 13.023438 6.777344 13.03125 6.75 C 13.050781 6.6875 13.105469 6.644531 13.167969 6.632812 C 13.175781 6.632812 13.300781 6.632812 13.449219 6.632812 C 13.679688 6.632812 13.71875 6.632812 13.730469 6.636719 Z M 11.539062 8.957031 C 11.550781 8.960938 11.566406 8.960938 11.582031 8.964844 C 11.929688 9.007812 12.226562 9.238281 12.355469 9.570312 C 12.414062 9.710938 12.433594 9.871094 12.417969 10.023438 C 12.394531 10.242188 12.296875 10.441406 12.140625 10.59375 C 11.992188 10.742188 11.804688 10.839844 11.597656 10.867188 C 11.546875 10.875 11.527344 10.878906 11.460938 10.878906 C 11.394531 10.878906 11.378906 10.875 11.324219 10.867188 C 11.152344 10.84375 10.992188 10.773438 10.855469 10.664062 C 10.800781 10.621094 10.746094 10.5625 10.703125 10.507812 C 10.546875 10.308594 10.476562 10.058594 10.507812 9.808594 C 10.535156 9.546875 10.671875 9.308594 10.882812 9.148438 C 11.027344 9.039062 11.207031 8.972656 11.382812 8.957031 C 11.394531 8.957031 11.40625 8.957031 11.410156 8.957031 C 11.425781 8.957031 11.523438 8.957031 11.539062 8.957031 Z M 9.945312 10.59375 C 9.980469 10.597656 10.011719 10.609375 10.042969 10.628906 C 10.046875 10.628906 10.570312 11.007812 11.207031 11.464844 L 12.367188 12.292969 L 10.902344 12.292969 L 10.234375 11.8125 C 9.863281 11.546875 9.558594 11.328125 9.550781 11.324219 C 9.503906 11.285156 9.472656 11.234375 9.460938 11.175781 C 9.457031 11.15625 9.457031 11.152344 9.457031 11.125 C 9.457031 11.09375 9.457031 11.085938 9.464844 11.058594 C 9.472656 11.035156 9.484375 11.007812 9.496094 10.988281 C 9.503906 10.976562 9.707031 10.695312 9.714844 10.683594 C 9.757812 10.632812 9.8125 10.605469 9.878906 10.59375 C 9.894531 10.589844 9.929688 10.589844 9.945312 10.59375 Z M 20.433594 10.734375 C 20.613281 10.753906 20.777344 10.851562 20.882812 10.996094 C 20.945312 11.082031 20.984375 11.175781 21 11.292969 C 21 11.308594 21 11.367188 21 12.183594 C 21 13.046875 21 13.054688 21 13.066406 C 20.988281 13.105469 20.957031 13.136719 20.914062 13.148438 C 20.90625 13.148438 20.648438 13.148438 18.003906 13.148438 L 15.105469 13.148438 L 15.097656 13.144531 C 15.058594 13.132812 15.027344 13.101562 15.019531 13.066406 C 15.015625 13.054688 15.015625 13.046875 15.015625 12.886719 L 15.015625 12.722656 L 15.886719 12.722656 C 16.46875 12.722656 16.761719 12.722656 16.773438 12.722656 C 16.902344 12.710938 17.023438 12.664062 17.128906 12.582031 C 17.253906 12.480469 17.339844 12.332031 17.363281 12.167969 C 17.367188 12.136719 17.367188 12.117188 17.367188 12.082031 C 17.367188 12.023438 17.363281 11.976562 17.347656 11.917969 C 17.300781 11.742188 17.175781 11.585938 17.007812 11.503906 C 16.941406 11.472656 16.875 11.453125 16.796875 11.441406 C 16.777344 11.441406 16.730469 11.441406 15.898438 11.441406 L 15.015625 11.441406 L 15.015625 10.945312 L 15.023438 10.945312 C 15.03125 10.945312 15.695312 10.988281 16.507812 11.039062 C 17.316406 11.089844 18 11.132812 18.019531 11.132812 C 18.179688 11.144531 18.296875 11.148438 18.449219 11.148438 C 18.550781 11.144531 18.574219 11.144531 18.652344 11.140625 C 18.835938 11.128906 19.015625 11.105469 19.195312 11.066406 C 19.441406 11.015625 19.695312 10.9375 20.097656 10.792969 C 20.136719 10.777344 20.175781 10.765625 20.183594 10.761719 C 20.234375 10.746094 20.28125 10.738281 20.34375 10.734375 C 20.359375 10.730469 20.414062 10.734375 20.433594 10.734375 Z M 13.984375 10.882812 C 14 10.882812 14.140625 10.890625 14.296875 10.902344 C 14.453125 10.910156 14.582031 10.917969 14.582031 10.917969 L 14.585938 10.917969 L 14.585938 11.441406 L 14.257812 11.441406 C 13.96875 11.441406 13.929688 11.441406 13.914062 11.441406 C 13.824219 11.457031 13.753906 11.523438 13.734375 11.613281 C 13.730469 11.632812 13.730469 11.667969 13.734375 11.691406 C 13.746094 11.757812 13.789062 11.816406 13.851562 11.847656 C 13.863281 11.851562 13.890625 11.863281 13.90625 11.863281 C 13.917969 11.867188 13.992188 11.867188 15.335938 11.867188 L 16.753906 11.867188 L 16.765625 11.871094 C 16.835938 11.886719 16.886719 11.929688 16.917969 11.988281 C 16.941406 12.039062 16.945312 12.09375 16.929688 12.144531 C 16.917969 12.171875 16.902344 12.199219 16.886719 12.222656 C 16.851562 12.257812 16.8125 12.28125 16.765625 12.289062 L 16.75 12.292969 L 13.28125 12.292969 L 13.265625 12.289062 C 13.222656 12.28125 13.1875 12.261719 13.15625 12.230469 C 13.125 12.199219 13.105469 12.164062 13.097656 12.121094 L 13.09375 12.105469 L 13.09375 11.902344 C 13.09375 11.679688 13.09375 11.683594 13.101562 11.625 C 13.121094 11.480469 13.175781 11.347656 13.261719 11.230469 C 13.324219 11.152344 13.402344 11.074219 13.488281 11.023438 C 13.617188 10.9375 13.761719 10.890625 13.917969 10.882812 C 13.953125 10.882812 13.953125 10.882812 13.984375 10.882812 Z M 14.585938 12.953125 C 14.585938 13.199219 14.585938 13.191406 14.597656 13.234375 C 14.601562 13.269531 14.613281 13.304688 14.632812 13.339844 C 14.6875 13.449219 14.785156 13.527344 14.898438 13.5625 C 14.921875 13.570312 14.953125 13.574219 14.976562 13.578125 C 14.988281 13.578125 15.910156 13.578125 18.019531 13.578125 C 20.933594 13.578125 21.046875 13.578125 21.0625 13.574219 C 21.117188 13.566406 21.152344 13.554688 21.199219 13.53125 C 21.238281 13.511719 21.273438 13.484375 21.304688 13.453125 C 21.375 13.382812 21.414062 13.300781 21.429688 13.199219 C 21.429688 13.183594 21.429688 13.15625 21.429688 12.953125 L 21.433594 12.722656 L 21.53125 12.722656 C 21.625 12.722656 21.628906 12.722656 21.644531 12.726562 C 21.699219 12.738281 21.742188 12.761719 21.78125 12.800781 C 21.820312 12.839844 21.84375 12.882812 21.855469 12.941406 C 21.855469 12.953125 21.855469 12.984375 21.859375 13.351562 C 21.859375 13.632812 21.859375 13.757812 21.855469 13.769531 C 21.847656 13.859375 21.796875 13.9375 21.714844 13.976562 C 21.6875 13.992188 21.65625 14 21.617188 14.003906 C 21.59375 14.007812 9.722656 14.007812 9.695312 14.003906 C 9.671875 14.003906 9.652344 14 9.632812 13.992188 C 9.539062 13.960938 9.46875 13.875 9.457031 13.777344 C 9.457031 13.765625 9.457031 13.636719 9.457031 13.363281 C 9.457031 12.925781 9.457031 12.949219 9.464844 12.914062 C 9.472656 12.878906 9.492188 12.847656 9.515625 12.816406 C 9.527344 12.804688 9.550781 12.78125 9.566406 12.769531 C 9.597656 12.746094 9.644531 12.730469 9.6875 12.726562 C 9.691406 12.722656 10.796875 12.722656 12.140625 12.722656 L 14.585938 12.722656 Z M 17.769531 14.4375 C 17.765625 14.4375 17.289062 14.585938 16.710938 14.765625 L 15.65625 15.09375 L 14.605469 14.765625 C 14.027344 14.585938 13.546875 14.4375 13.542969 14.4375 C 13.535156 14.433594 13.574219 14.433594 15.65625 14.433594 C 17.742188 14.433594 17.777344 14.433594 17.769531 14.4375 Z M 16.980469 15.953125 L 18.296875 16.359375 L 16.976562 16.359375 C 16.25 16.359375 15.0625 16.359375 14.335938 16.359375 L 13.015625 16.359375 L 14.335938 15.953125 C 15.242188 15.671875 15.65625 15.542969 15.65625 15.542969 C 15.660156 15.542969 16.257812 15.726562 16.980469 15.953125 Z M 11.667969 15.726562 C 11.84375 15.742188 12.003906 15.808594 12.144531 15.921875 C 12.167969 15.941406 12.226562 16.003906 12.246094 16.027344 C 12.355469 16.15625 12.421875 16.308594 12.441406 16.472656 C 12.449219 16.523438 12.449219 16.597656 12.445312 16.640625 C 12.4375 16.746094 12.410156 16.84375 12.367188 16.9375 C 12.320312 17.039062 12.25 17.132812 12.164062 17.214844 C 11.914062 17.433594 11.5625 17.492188 11.257812 17.363281 C 11.074219 17.28125 10.921875 17.140625 10.832031 16.960938 C 10.78125 16.859375 10.753906 16.761719 10.742188 16.648438 C 10.738281 16.613281 10.738281 16.542969 10.742188 16.507812 C 10.753906 16.394531 10.78125 16.292969 10.828125 16.195312 C 10.9375 15.980469 11.132812 15.816406 11.367188 15.753906 C 11.425781 15.734375 11.492188 15.726562 11.558594 15.722656 C 11.578125 15.722656 11.644531 15.722656 11.667969 15.726562 Z M 19.761719 15.722656 C 19.878906 15.730469 19.992188 15.757812 20.097656 15.808594 C 20.359375 15.9375 20.535156 16.191406 20.570312 16.480469 C 20.574219 16.519531 20.574219 16.546875 20.574219 16.59375 C 20.574219 16.652344 20.570312 16.691406 20.558594 16.742188 C 20.515625 16.949219 20.402344 17.132812 20.234375 17.257812 C 20.0625 17.386719 19.859375 17.445312 19.648438 17.425781 C 19.386719 17.40625 19.152344 17.265625 19.003906 17.042969 C 18.984375 17.011719 18.96875 16.984375 18.953125 16.949219 C 18.875 16.789062 18.847656 16.613281 18.878906 16.4375 C 18.890625 16.355469 18.914062 16.277344 18.953125 16.203125 C 18.972656 16.164062 18.984375 16.140625 19.003906 16.109375 C 19.066406 16.015625 19.144531 15.933594 19.238281 15.871094 C 19.390625 15.765625 19.578125 15.714844 19.761719 15.722656 Z M 19.761719 15.722656 "/>
<path style=" stroke:none;fill-rule:nonzero;fill:rgb(0%,0%,0%);fill-opacity:1;" d="M 11.574219 16.148438 C 11.535156 16.152344 11.511719 16.15625 11.488281 16.160156 C 11.324219 16.203125 11.203125 16.335938 11.171875 16.5 C 11.167969 16.527344 11.167969 16.546875 11.167969 16.578125 C 11.167969 16.628906 11.175781 16.675781 11.191406 16.726562 C 11.199219 16.746094 11.222656 16.792969 11.234375 16.8125 C 11.269531 16.859375 11.3125 16.902344 11.359375 16.933594 C 11.417969 16.972656 11.480469 16.996094 11.550781 17.003906 C 11.574219 17.003906 11.621094 17.003906 11.644531 17 C 11.804688 16.980469 11.9375 16.878906 11.996094 16.730469 C 12.011719 16.679688 12.023438 16.632812 12.023438 16.578125 C 12.023438 16.542969 12.019531 16.53125 12.015625 16.5 C 11.996094 16.386719 11.929688 16.285156 11.832031 16.21875 C 11.777344 16.183594 11.714844 16.160156 11.648438 16.152344 C 11.628906 16.148438 11.585938 16.148438 11.574219 16.148438 Z M 11.574219 16.148438 "/>
<path style=" stroke:none;fill-rule:nonzero;fill:rgb(0%,0%,0%);fill-opacity:1;" d="M 19.6875 16.148438 C 19.578125 16.15625 19.472656 16.207031 19.402344 16.289062 C 19.304688 16.398438 19.269531 16.542969 19.304688 16.683594 C 19.347656 16.847656 19.484375 16.972656 19.652344 17 C 19.707031 17.007812 19.761719 17.003906 19.8125 16.996094 C 19.933594 16.96875 20.039062 16.890625 20.097656 16.777344 C 20.121094 16.738281 20.136719 16.6875 20.144531 16.636719 C 20.148438 16.621094 20.148438 16.613281 20.148438 16.578125 C 20.148438 16.542969 20.148438 16.53125 20.144531 16.515625 C 20.132812 16.4375 20.101562 16.371094 20.054688 16.308594 C 20.042969 16.292969 20.003906 16.253906 19.988281 16.242188 C 19.960938 16.21875 19.917969 16.195312 19.882812 16.179688 C 19.824219 16.15625 19.757812 16.144531 19.6875 16.148438 Z M 19.6875 16.148438 "/>
<path style=" stroke:none;fill-rule:nonzero;fill:rgb(0%,0%,0%);fill-opacity:1;" d="M 6.128906 5.953125 C 5.894531 5.964844 5.667969 6.039062 5.476562 6.167969 C 5.3125 6.28125 5.175781 6.429688 5.078125 6.605469 C 4.921875 6.894531 4.886719 7.238281 4.980469 7.550781 C 5.0625 7.828125 5.242188 8.070312 5.484375 8.230469 C 5.730469 8.394531 6.019531 8.464844 6.3125 8.4375 C 6.515625 8.414062 6.710938 8.34375 6.878906 8.230469 C 6.976562 8.164062 7.070312 8.078125 7.148438 7.984375 C 7.289062 7.8125 7.378906 7.601562 7.414062 7.378906 C 7.4375 7.199219 7.425781 7.03125 7.371094 6.851562 C 7.335938 6.726562 7.28125 6.609375 7.207031 6.5 C 7.167969 6.441406 7.140625 6.40625 7.078125 6.34375 C 6.898438 6.152344 6.664062 6.023438 6.410156 5.972656 C 6.320312 5.957031 6.222656 5.949219 6.128906 5.953125 Z M 6.253906 6.371094 C 6.425781 6.386719 6.585938 6.453125 6.71875 6.570312 C 6.742188 6.585938 6.792969 6.640625 6.8125 6.660156 C 6.882812 6.746094 6.933594 6.835938 6.96875 6.9375 C 7.027344 7.121094 7.023438 7.316406 6.957031 7.492188 C 6.886719 7.671875 6.757812 7.824219 6.59375 7.917969 C 6.320312 8.074219 5.984375 8.0625 5.71875 7.886719 C 5.613281 7.816406 5.519531 7.71875 5.457031 7.609375 C 5.441406 7.582031 5.414062 7.527344 5.402344 7.5 C 5.371094 7.421875 5.351562 7.34375 5.347656 7.257812 C 5.34375 7.214844 5.34375 7.148438 5.351562 7.101562 C 5.363281 7.003906 5.390625 6.90625 5.4375 6.820312 C 5.574219 6.558594 5.839844 6.386719 6.136719 6.371094 C 6.164062 6.367188 6.222656 6.371094 6.253906 6.371094 Z M 6.253906 6.371094 "/>
<path style=" stroke:none;fill-rule:nonzero;fill:rgb(0%,0%,0%);fill-opacity:1;" d="M 18.503906 6.027344 C 18.410156 6.03125 18.332031 6.101562 18.3125 6.195312 C 18.308594 6.207031 18.308594 6.226562 18.308594 6.667969 C 18.308594 7.101562 18.308594 7.125 18.3125 7.136719 C 18.328125 7.222656 18.394531 7.289062 18.484375 7.304688 C 18.5 7.308594 18.539062 7.308594 18.558594 7.304688 C 18.625 7.292969 18.683594 7.25 18.714844 7.191406 C 18.726562 7.164062 18.730469 7.140625 18.734375 7.113281 C 18.734375 7.101562 18.734375 6.957031 18.734375 6.65625 C 18.734375 6.160156 18.738281 6.207031 18.726562 6.171875 C 18.714844 6.140625 18.699219 6.113281 18.671875 6.089844 C 18.625 6.042969 18.570312 6.019531 18.503906 6.027344 Z M 18.503906 6.027344 "/>
<path style=" stroke:none;fill-rule:nonzero;fill:rgb(0%,0%,0%);fill-opacity:1;" d="M 17.039062 6.703125 C 16.988281 6.710938 16.945312 6.730469 16.910156 6.765625 C 16.878906 6.796875 16.859375 6.832031 16.851562 6.871094 C 16.847656 6.886719 16.847656 6.890625 16.847656 6.917969 C 16.847656 6.945312 16.847656 6.949219 16.851562 6.964844 C 16.859375 6.992188 16.867188 7.015625 16.882812 7.039062 C 16.890625 7.050781 16.921875 7.082031 17.207031 7.367188 C 17.378906 7.539062 17.527344 7.6875 17.535156 7.691406 C 17.609375 7.753906 17.722656 7.753906 17.800781 7.691406 C 17.835938 7.660156 17.863281 7.617188 17.875 7.566406 C 17.878906 7.546875 17.878906 7.5 17.875 7.480469 C 17.871094 7.449219 17.859375 7.425781 17.84375 7.402344 C 17.832031 7.386719 17.828125 7.378906 17.515625 7.070312 C 17.273438 6.824219 17.195312 6.75 17.1875 6.742188 C 17.164062 6.726562 17.132812 6.714844 17.101562 6.707031 C 17.085938 6.703125 17.050781 6.703125 17.039062 6.703125 Z M 17.039062 6.703125 "/>
<path style=" stroke:none;fill-rule:nonzero;fill:rgb(0%,0%,0%);fill-opacity:1;" d="M 20.003906 6.703125 C 19.96875 6.707031 19.929688 6.722656 19.898438 6.742188 C 19.890625 6.75 19.816406 6.824219 19.574219 7.0625 C 19.40625 7.234375 19.261719 7.378906 19.257812 7.382812 C 19.234375 7.410156 19.21875 7.441406 19.210938 7.476562 C 19.207031 7.492188 19.203125 7.53125 19.207031 7.550781 C 19.214844 7.617188 19.253906 7.675781 19.3125 7.710938 C 19.390625 7.75 19.484375 7.746094 19.550781 7.691406 C 19.558594 7.6875 19.707031 7.539062 19.878906 7.367188 C 20.21875 7.023438 20.199219 7.046875 20.214844 7.015625 C 20.246094 6.953125 20.246094 6.878906 20.214844 6.820312 C 20.199219 6.792969 20.171875 6.757812 20.148438 6.742188 C 20.105469 6.710938 20.054688 6.699219 20.003906 6.703125 Z M 20.003906 6.703125 "/>
<path style=" stroke:none;fill-rule:nonzero;fill:rgb(0%,0%,0%);fill-opacity:1;" d="M 18.484375 7.738281 C 18.390625 7.742188 18.316406 7.765625 18.238281 7.800781 C 18.195312 7.824219 18.164062 7.84375 18.128906 7.871094 C 18.003906 7.96875 17.917969 8.109375 17.890625 8.265625 C 17.878906 8.316406 17.878906 8.34375 17.878906 8.492188 L 17.878906 8.613281 L 17.886719 8.613281 C 17.894531 8.613281 17.984375 8.613281 18.09375 8.609375 C 18.199219 8.609375 18.292969 8.605469 18.296875 8.605469 L 18.308594 8.605469 L 18.308594 8.476562 C 18.308594 8.347656 18.308594 8.347656 18.3125 8.335938 C 18.320312 8.296875 18.339844 8.265625 18.363281 8.238281 C 18.394531 8.203125 18.4375 8.175781 18.488281 8.167969 C 18.503906 8.164062 18.539062 8.164062 18.554688 8.167969 C 18.640625 8.183594 18.707031 8.25 18.730469 8.332031 C 18.734375 8.355469 18.734375 8.371094 18.734375 8.496094 L 18.734375 8.617188 L 18.75 8.617188 C 18.761719 8.617188 18.851562 8.617188 18.953125 8.613281 C 19.058594 8.613281 19.144531 8.609375 19.152344 8.609375 L 19.164062 8.609375 L 19.164062 8.488281 C 19.164062 8.359375 19.164062 8.332031 19.15625 8.296875 C 19.136719 8.125 19.042969 7.96875 18.902344 7.863281 C 18.8125 7.792969 18.707031 7.753906 18.589844 7.738281 C 18.570312 7.738281 18.5 7.734375 18.484375 7.738281 Z M 18.484375 7.738281 "/>
<path style=" stroke:none;fill-rule:nonzero;fill:rgb(0%,0%,0%);fill-opacity:1;" d="M 16.355469 8.164062 C 16.289062 8.175781 16.230469 8.214844 16.195312 8.273438 C 16.164062 8.324219 16.160156 8.394531 16.183594 8.453125 C 16.210938 8.527344 16.273438 8.578125 16.351562 8.589844 C 16.363281 8.589844 16.414062 8.59375 16.816406 8.589844 L 17.28125 8.589844 C 17.347656 8.574219 17.398438 8.53125 17.429688 8.476562 C 17.445312 8.445312 17.449219 8.421875 17.453125 8.386719 C 17.453125 8.359375 17.453125 8.347656 17.445312 8.324219 C 17.425781 8.25 17.367188 8.191406 17.296875 8.171875 C 17.265625 8.164062 17.289062 8.164062 16.808594 8.164062 C 16.453125 8.164062 16.363281 8.164062 16.355469 8.164062 Z M 16.355469 8.164062 "/>
<path style=" stroke:none;fill-rule:nonzero;fill:rgb(0%,0%,0%);fill-opacity:1;" d="M 19.820312 8.164062 C 19.75 8.175781 19.6875 8.21875 19.65625 8.28125 C 19.640625 8.3125 19.636719 8.335938 19.632812 8.371094 C 19.632812 8.398438 19.636719 8.414062 19.640625 8.4375 C 19.648438 8.457031 19.664062 8.488281 19.675781 8.503906 C 19.707031 8.546875 19.753906 8.578125 19.804688 8.589844 L 20.746094 8.589844 C 20.832031 8.570312 20.894531 8.503906 20.914062 8.421875 C 20.917969 8.402344 20.917969 8.367188 20.914062 8.347656 C 20.90625 8.300781 20.886719 8.257812 20.851562 8.222656 C 20.816406 8.191406 20.777344 8.171875 20.730469 8.164062 C 20.714844 8.164062 20.65625 8.164062 20.273438 8.164062 C 19.917969 8.164062 19.828125 8.164062 19.820312 8.164062 Z M 19.820312 8.164062 "/>
<path style=" stroke:none;fill-rule:nonzero;fill:rgb(0%,0%,0%);fill-opacity:1;" d="M 5.265625 8.855469 C 5.261719 8.855469 5.25 8.859375 5.238281 8.859375 C 5.175781 8.863281 5.109375 8.878906 5.046875 8.898438 C 4.976562 8.921875 4.90625 8.960938 4.847656 9 C 4.714844 9.09375 4.617188 9.21875 4.558594 9.363281 C 4.546875 9.386719 4.539062 9.414062 4.53125 9.4375 C 4.523438 9.464844 3.8125 12.136719 3.796875 12.191406 C 3.734375 12.4375 3.703125 12.710938 3.691406 13.046875 C 3.6875 13.148438 3.6875 13.28125 3.683594 13.941406 L 3.683594 14.640625 L 3.097656 15.792969 C 2.773438 16.425781 2.507812 16.949219 2.503906 16.957031 C 2.46875 17.03125 2.449219 17.117188 2.441406 17.207031 C 2.4375 17.234375 2.441406 17.300781 2.441406 17.332031 C 2.460938 17.480469 2.519531 17.617188 2.617188 17.730469 C 2.632812 17.75 2.675781 17.792969 2.695312 17.8125 C 2.808594 17.90625 2.941406 17.960938 3.085938 17.976562 C 3.132812 17.984375 3.199219 17.984375 3.246094 17.976562 C 3.445312 17.953125 3.625 17.851562 3.746094 17.691406 C 3.773438 17.65625 3.792969 17.625 3.820312 17.574219 C 3.882812 17.449219 5.050781 15.152344 5.0625 15.132812 C 5.101562 15.054688 5.121094 14.972656 5.132812 14.882812 C 5.136719 14.863281 5.136719 14.820312 5.136719 14.191406 L 5.136719 13.523438 L 5.617188 14.257812 L 6.101562 14.992188 L 6.238281 16.128906 C 6.402344 17.457031 6.386719 17.339844 6.390625 17.363281 C 6.394531 17.394531 6.40625 17.4375 6.417969 17.46875 C 6.445312 17.558594 6.488281 17.632812 6.550781 17.707031 C 6.566406 17.726562 6.617188 17.777344 6.636719 17.792969 C 6.753906 17.890625 6.886719 17.949219 7.039062 17.960938 C 7.066406 17.964844 7.136719 17.964844 7.167969 17.964844 C 7.320312 17.949219 7.457031 17.894531 7.574219 17.792969 C 7.597656 17.773438 7.640625 17.730469 7.660156 17.707031 C 7.761719 17.585938 7.820312 17.445312 7.832031 17.285156 C 7.832031 17.253906 7.832031 17.195312 7.828125 17.167969 C 7.828125 17.144531 7.523438 14.644531 7.519531 14.628906 C 7.511719 14.578125 7.496094 14.515625 7.476562 14.464844 C 7.46875 14.441406 7.4375 14.382812 7.425781 14.359375 C 7.417969 14.351562 7.121094 13.894531 6.757812 13.347656 C 6.398438 12.796875 6.105469 12.347656 6.101562 12.347656 C 6.101562 12.34375 6.417969 11.050781 6.421875 11.050781 C 6.421875 11.050781 6.429688 11.058594 6.433594 11.070312 C 6.453125 11.101562 6.464844 11.117188 6.480469 11.136719 C 6.53125 11.203125 6.597656 11.265625 6.667969 11.304688 C 6.691406 11.320312 8.128906 12.097656 8.148438 12.109375 C 8.214844 12.140625 8.28125 12.160156 8.359375 12.171875 C 8.386719 12.175781 8.472656 12.175781 8.5 12.171875 C 8.671875 12.152344 8.828125 12.070312 8.933594 11.933594 C 8.972656 11.886719 9 11.839844 9.019531 11.789062 L 9.03125 11.765625 L 9.039062 11.558594 L 9.050781 11.347656 L 9.042969 11.332031 C 9.023438 11.265625 8.988281 11.199219 8.949219 11.144531 C 8.902344 11.082031 8.839844 11.023438 8.773438 10.984375 C 8.761719 10.976562 8.460938 10.8125 8.105469 10.621094 L 7.457031 10.269531 L 7.242188 9.914062 C 6.894531 9.339844 6.851562 9.273438 6.835938 9.246094 C 6.734375 9.097656 6.59375 8.980469 6.421875 8.914062 C 6.347656 8.886719 6.269531 8.867188 6.179688 8.859375 C 6.167969 8.859375 6.054688 8.855469 5.71875 8.855469 C 5.472656 8.855469 5.269531 8.855469 5.265625 8.855469 Z M 6.144531 9.273438 C 6.226562 9.28125 6.3125 9.3125 6.378906 9.363281 C 6.421875 9.394531 6.460938 9.433594 6.488281 9.480469 C 6.496094 9.488281 6.648438 9.738281 6.828125 10.039062 C 7.007812 10.335938 7.15625 10.578125 7.15625 10.582031 C 7.160156 10.582031 7.472656 10.753906 7.855469 10.960938 C 8.238281 11.167969 8.554688 11.339844 8.558594 11.34375 C 8.605469 11.375 8.640625 11.425781 8.652344 11.484375 C 8.65625 11.5 8.660156 11.527344 8.660156 11.539062 C 8.660156 11.546875 8.65625 11.554688 8.65625 11.558594 C 8.65625 11.570312 8.652344 11.59375 8.644531 11.609375 C 8.625 11.675781 8.570312 11.726562 8.503906 11.746094 C 8.449219 11.765625 8.386719 11.761719 8.335938 11.738281 C 8.320312 11.726562 6.882812 10.949219 6.875 10.945312 C 6.851562 10.929688 6.824219 10.902344 6.808594 10.882812 C 6.804688 10.875 6.742188 10.773438 6.667969 10.648438 C 6.59375 10.527344 6.53125 10.421875 6.527344 10.414062 C 6.523438 10.410156 6.511719 10.398438 6.5 10.386719 C 6.46875 10.355469 6.433594 10.335938 6.386719 10.328125 C 6.375 10.324219 6.371094 10.324219 6.34375 10.324219 C 6.3125 10.324219 6.300781 10.324219 6.273438 10.335938 C 6.207031 10.355469 6.15625 10.410156 6.132812 10.472656 C 6.128906 10.488281 5.695312 12.257812 5.691406 12.277344 C 5.6875 12.3125 5.683594 12.363281 5.6875 12.394531 C 5.695312 12.457031 5.71875 12.519531 5.75 12.570312 C 5.753906 12.578125 6.050781 13.027344 6.410156 13.574219 C 6.765625 14.117188 7.0625 14.566406 7.066406 14.574219 C 7.089844 14.609375 7.101562 14.652344 7.109375 14.695312 C 7.109375 14.703125 7.179688 15.273438 7.261719 15.960938 L 7.414062 17.210938 L 7.414062 17.238281 C 7.414062 17.269531 7.414062 17.285156 7.40625 17.3125 C 7.386719 17.402344 7.328125 17.472656 7.246094 17.515625 C 7.207031 17.535156 7.171875 17.546875 7.121094 17.546875 C 7.015625 17.554688 6.90625 17.5 6.847656 17.40625 C 6.835938 17.390625 6.820312 17.355469 6.8125 17.335938 C 6.808594 17.328125 6.804688 17.3125 6.800781 17.300781 C 6.800781 17.292969 6.734375 16.734375 6.652344 16.066406 C 6.570312 15.398438 6.503906 14.847656 6.503906 14.847656 C 6.5 14.839844 5.257812 12.945312 5.242188 12.925781 C 5.234375 12.910156 5.210938 12.886719 5.195312 12.875 C 5.152344 12.839844 5.097656 12.816406 5.039062 12.8125 C 5.019531 12.808594 4.984375 12.8125 4.964844 12.8125 C 4.871094 12.828125 4.792969 12.886719 4.753906 12.96875 C 4.738281 12.996094 4.730469 13.019531 4.722656 13.050781 L 4.722656 13.066406 L 4.71875 13.957031 L 4.71875 14.859375 C 4.710938 14.898438 4.699219 14.925781 4.675781 14.96875 C 4.453125 15.414062 3.4375 17.402344 3.433594 17.414062 C 3.363281 17.535156 3.222656 17.589844 3.085938 17.554688 C 3.007812 17.535156 2.941406 17.484375 2.898438 17.414062 C 2.863281 17.355469 2.851562 17.28125 2.859375 17.21875 C 2.863281 17.179688 2.871094 17.152344 2.890625 17.113281 C 2.898438 17.097656 3.171875 16.558594 3.5 15.914062 L 4.101562 14.742188 L 4.101562 13.9375 C 4.101562 13.367188 4.101562 13.117188 4.101562 13.089844 C 4.109375 12.976562 4.109375 12.933594 4.113281 12.867188 C 4.128906 12.664062 4.15625 12.480469 4.195312 12.320312 C 4.210938 12.253906 4.929688 9.554688 4.9375 9.539062 C 4.96875 9.449219 5.03125 9.375 5.113281 9.324219 C 5.164062 9.296875 5.214844 9.28125 5.277344 9.273438 C 5.28125 9.273438 5.472656 9.273438 5.703125 9.273438 C 5.996094 9.273438 6.132812 9.273438 6.144531 9.273438 Z M 6.144531 9.273438 "/>
<path style=" stroke:none;fill-rule:nonzero;fill:rgb(0%,0%,0%);fill-opacity:1;" d="M 2.3125 11.601562 C 2.273438 11.605469 2.242188 11.617188 2.210938 11.640625 C 2.191406 11.652344 2.164062 11.679688 2.15625 11.695312 C 2.144531 11.710938 2.132812 11.730469 2.128906 11.746094 C 2.121094 11.773438 2.117188 11.78125 2.117188 11.816406 C 2.117188 11.84375 2.117188 11.847656 2.121094 11.863281 C 2.136719 11.921875 2.175781 11.976562 2.230469 12.007812 C 2.25 12.015625 2.269531 12.023438 2.285156 12.027344 L 2.300781 12.03125 L 2.757812 12.03125 C 3.195312 12.03125 3.21875 12.027344 3.230469 12.027344 C 3.316406 12.007812 3.382812 11.941406 3.398438 11.855469 C 3.402344 11.835938 3.402344 11.796875 3.398438 11.777344 C 3.382812 11.683594 3.304688 11.613281 3.207031 11.601562 C 3.191406 11.601562 2.328125 11.601562 2.3125 11.601562 Z M 2.3125 11.601562 "/>
<path style=" stroke:none;fill-rule:nonzero;fill:rgb(0%,0%,0%);fill-opacity:1;" d="M 1.6875 12.632812 C 1.65625 12.636719 1.617188 12.652344 1.589844 12.671875 C 1.574219 12.683594 1.550781 12.707031 1.539062 12.722656 C 1.480469 12.804688 1.488281 12.921875 1.558594 12.996094 C 1.59375 13.03125 1.632812 13.050781 1.683594 13.058594 C 1.695312 13.0625 1.769531 13.0625 2.378906 13.0625 C 2.988281 13.0625 3.0625 13.0625 3.078125 13.058594 C 3.125 13.050781 3.167969 13.03125 3.199219 12.996094 C 3.253906 12.9375 3.273438 12.855469 3.25 12.777344 C 3.238281 12.746094 3.222656 12.71875 3.195312 12.695312 C 3.167969 12.664062 3.132812 12.644531 3.085938 12.636719 L 3.074219 12.632812 L 2.386719 12.632812 C 2.003906 12.632812 1.691406 12.632812 1.6875 12.632812 Z M 1.6875 12.632812 "/>
<path style=" stroke:none;fill-rule:nonzero;fill:rgb(0%,0%,0%);fill-opacity:1;" d="M 2.203125 13.699219 C 2.152344 13.707031 2.109375 13.722656 2.074219 13.761719 C 2.054688 13.78125 2.042969 13.796875 2.03125 13.820312 C 2.015625 13.851562 2.011719 13.871094 2.011719 13.90625 C 2.011719 13.925781 2.011719 13.933594 2.011719 13.949219 C 2.027344 14.035156 2.09375 14.101562 2.179688 14.121094 L 2.195312 14.125 L 2.644531 14.125 C 2.96875 14.125 3.097656 14.125 3.105469 14.125 C 3.15625 14.121094 3.199219 14.097656 3.234375 14.058594 C 3.273438 14.019531 3.292969 13.976562 3.292969 13.921875 C 3.296875 13.855469 3.273438 13.800781 3.226562 13.757812 C 3.199219 13.730469 3.164062 13.710938 3.121094 13.703125 L 3.109375 13.699219 L 2.660156 13.699219 C 2.410156 13.699219 2.207031 13.699219 2.203125 13.699219 Z M 2.203125 13.699219 "/>
</g>
</svg>
