<?xml version="1.0" encoding="UTF-8"?>
<svg xmlns="http://www.w3.org/2000/svg" xmlns:xlink="http://www.w3.org/1999/xlink" viewBox="0 0 24 24" version="1.1">
<g>
<path style=" stroke:none;fill-rule:nonzero;fill:rgb(0%,0%,0%);fill-opacity:1;" d="M 7.179688 2.582031 C 7.078125 2.585938 7.015625 2.59375 6.9375 2.605469 C 6.644531 2.65625 6.371094 2.773438 6.132812 2.949219 C 5.726562 3.25 5.464844 3.695312 5.398438 4.191406 C 5.355469 4.519531 5.402344 4.855469 5.535156 5.15625 C 5.707031 5.554688 6.019531 5.882812 6.40625 6.078125 C 6.558594 6.152344 6.714844 6.207031 6.875 6.238281 C 7.28125 6.320312 7.695312 6.265625 8.0625 6.085938 C 8.324219 5.953125 8.550781 5.765625 8.726562 5.53125 C 8.792969 5.4375 8.847656 5.351562 8.898438 5.25 C 8.929688 5.183594 8.953125 5.136719 8.976562 5.074219 C 9.078125 4.796875 9.113281 4.488281 9.074219 4.203125 C 9.054688 4.042969 9.007812 3.878906 8.945312 3.730469 C 8.871094 3.550781 8.773438 3.386719 8.667969 3.257812 C 8.628906 3.214844 8.554688 3.132812 8.503906 3.085938 C 8.25 2.851562 7.953125 2.691406 7.625 2.621094 C 7.539062 2.601562 7.453125 2.589844 7.347656 2.585938 C 7.328125 2.582031 7.199219 2.582031 7.179688 2.582031 Z M 7.3125 3.199219 C 7.429688 3.207031 7.542969 3.230469 7.648438 3.265625 C 8.035156 3.402344 8.332031 3.726562 8.433594 4.121094 C 8.460938 4.230469 8.476562 4.335938 8.472656 4.449219 C 8.472656 4.496094 8.472656 4.519531 8.464844 4.5625 C 8.433594 4.867188 8.285156 5.148438 8.050781 5.355469 C 7.914062 5.476562 7.746094 5.566406 7.566406 5.617188 C 7.425781 5.652344 7.277344 5.667969 7.128906 5.652344 C 6.886719 5.632812 6.652344 5.535156 6.464844 5.382812 C 6.398438 5.332031 6.335938 5.265625 6.285156 5.207031 C 6.128906 5.019531 6.03125 4.792969 6.007812 4.554688 C 6.003906 4.507812 6.003906 4.488281 6.003906 4.429688 C 6.003906 4.355469 6.003906 4.320312 6.011719 4.257812 C 6.046875 4.023438 6.148438 3.808594 6.308594 3.625 C 6.328125 3.601562 6.386719 3.539062 6.410156 3.519531 C 6.5 3.441406 6.597656 3.375 6.703125 3.324219 C 6.851562 3.25 7.011719 3.210938 7.179688 3.199219 C 7.203125 3.199219 7.292969 3.199219 7.3125 3.199219 Z M 7.3125 3.199219 "/>
<path style=" stroke:none;fill-rule:nonzero;fill:rgb(0%,0%,0%);fill-opacity:1;" d="M 5.878906 6.890625 C 5.640625 6.90625 5.417969 6.988281 5.230469 7.128906 C 5.179688 7.167969 5.144531 7.199219 5.097656 7.242188 C 4.960938 7.382812 4.859375 7.550781 4.800781 7.742188 C 4.796875 7.75 4.554688 8.65625 4.261719 9.753906 C 3.972656 10.851562 3.726562 11.765625 3.722656 11.785156 C 3.628906 12.132812 3.570312 12.539062 3.550781 13 C 3.542969 13.222656 3.542969 13.304688 3.539062 14.5 L 3.539062 15.476562 L 2.671875 17.175781 C 2.191406 18.113281 1.796875 18.890625 1.789062 18.90625 C 1.695312 19.109375 1.667969 19.34375 1.714844 19.566406 C 1.765625 19.835938 1.921875 20.074219 2.148438 20.234375 C 2.308594 20.347656 2.5 20.417969 2.699219 20.429688 C 2.726562 20.429688 2.808594 20.429688 2.835938 20.429688 C 2.96875 20.421875 3.097656 20.390625 3.214844 20.335938 C 3.425781 20.238281 3.597656 20.082031 3.710938 19.882812 C 3.71875 19.863281 5.570312 16.226562 5.585938 16.195312 C 5.636719 16.089844 5.671875 15.972656 5.683594 15.863281 C 5.695312 15.796875 5.691406 15.886719 5.695312 14.800781 L 5.695312 13.8125 L 7.125 15.992188 L 7.332031 17.707031 C 7.449219 18.648438 7.542969 19.433594 7.546875 19.453125 C 7.554688 19.519531 7.566406 19.570312 7.582031 19.628906 C 7.652344 19.867188 7.796875 20.074219 8.003906 20.214844 C 8.242188 20.378906 8.53125 20.441406 8.816406 20.386719 C 9.082031 20.339844 9.316406 20.191406 9.476562 19.976562 C 9.601562 19.8125 9.671875 19.625 9.691406 19.414062 C 9.695312 19.378906 9.695312 19.285156 9.691406 19.246094 C 9.6875 19.214844 9.234375 15.484375 9.230469 15.449219 C 9.207031 15.296875 9.152344 15.15625 9.070312 15.027344 C 9.0625 15.015625 8.621094 14.34375 8.089844 13.539062 C 7.5625 12.730469 7.125 12.070312 7.125 12.070312 C 7.125 12.066406 7.597656 10.140625 7.597656 10.140625 C 7.597656 10.140625 7.609375 10.15625 7.621094 10.171875 C 7.644531 10.214844 7.671875 10.257812 7.695312 10.285156 C 7.769531 10.378906 7.859375 10.460938 7.964844 10.523438 C 7.988281 10.539062 10.136719 11.703125 10.164062 11.714844 C 10.261719 11.765625 10.371094 11.796875 10.480469 11.808594 C 10.550781 11.816406 10.636719 11.816406 10.707031 11.808594 L 10.71875 11.804688 L 10.71875 11.808594 C 10.71875 11.816406 10.714844 11.921875 10.71875 11.953125 C 10.722656 12.0625 10.738281 12.164062 10.769531 12.265625 C 10.78125 12.308594 10.792969 12.34375 10.851562 12.5 L 10.902344 12.644531 L 11.519531 13.019531 C 11.859375 13.226562 12.136719 13.394531 12.140625 13.398438 C 12.140625 13.398438 12.1875 13.523438 12.242188 13.679688 C 12.300781 13.832031 12.347656 13.960938 12.347656 13.960938 C 12.347656 13.960938 12.492188 13.910156 12.667969 13.84375 C 12.84375 13.78125 12.992188 13.726562 12.992188 13.726562 C 12.992188 13.730469 13.375 14.703125 13.847656 15.894531 L 14.699219 18.058594 L 14.6875 18.082031 C 14.574219 18.28125 14.503906 18.5 14.484375 18.722656 C 14.476562 18.78125 14.476562 18.792969 14.476562 18.871094 C 14.476562 18.957031 14.480469 18.980469 14.484375 19.046875 C 14.53125 19.441406 14.71875 19.804688 15.019531 20.066406 C 15.207031 20.230469 15.4375 20.351562 15.683594 20.410156 C 15.773438 20.433594 15.859375 20.445312 15.964844 20.453125 C 15.996094 20.457031 16.128906 20.457031 16.160156 20.453125 C 16.308594 20.445312 16.433594 20.417969 16.558594 20.378906 C 16.597656 20.367188 20.4375 18.96875 20.472656 18.953125 C 20.585938 18.910156 20.6875 18.828125 20.761719 18.730469 C 20.875 18.578125 20.921875 18.382812 20.882812 18.195312 C 20.878906 18.160156 20.867188 18.128906 20.832031 18.019531 C 20.8125 17.957031 20.328125 16.496094 19.757812 14.773438 C 19.128906 12.863281 18.726562 11.640625 18.726562 11.640625 C 18.726562 11.640625 18.871094 11.585938 19.046875 11.523438 C 19.222656 11.457031 19.367188 11.40625 19.367188 11.40625 C 19.367188 11.402344 19.296875 11.210938 19.214844 10.980469 C 19.128906 10.746094 19.058594 10.554688 19.058594 10.554688 C 19.058594 10.554688 19.203125 10.503906 19.378906 10.4375 C 19.550781 10.375 19.695312 10.324219 19.695312 10.324219 C 19.695312 10.320312 19.613281 10.09375 19.542969 9.898438 C 19.542969 9.894531 19.398438 9.949219 19.222656 10.011719 C 19.046875 10.074219 18.902344 10.128906 18.902344 10.128906 C 18.902344 10.128906 18.890625 10.09375 18.875 10.050781 C 18.683594 9.527344 18.484375 8.976562 18.484375 8.976562 C 18.484375 8.976562 18.25 8.867188 17.964844 8.734375 C 17.597656 8.5625 17.445312 8.492188 17.441406 8.492188 C 17.4375 8.492188 11.605469 10.617188 11.574219 10.628906 C 11.554688 10.636719 11.53125 10.644531 11.519531 10.652344 C 11.507812 10.65625 11.496094 10.660156 11.496094 10.660156 C 11.496094 10.660156 11.5 10.644531 11.5 10.625 L 11.5 10.589844 L 11.492188 10.558594 C 11.417969 10.335938 11.265625 10.152344 11.066406 10.035156 C 11.054688 10.027344 10.617188 9.789062 10.089844 9.503906 L 9.132812 8.988281 L 8.8125 8.457031 C 8.242188 7.511719 8.230469 7.492188 8.203125 7.453125 C 8.136719 7.355469 8.046875 7.261719 7.957031 7.1875 C 7.8125 7.066406 7.636719 6.976562 7.453125 6.929688 C 7.367188 6.910156 7.292969 6.898438 7.203125 6.890625 C 7.171875 6.890625 5.90625 6.890625 5.878906 6.890625 Z M 7.164062 7.507812 C 7.257812 7.511719 7.347656 7.535156 7.429688 7.578125 C 7.5 7.613281 7.558594 7.652344 7.617188 7.710938 C 7.648438 7.746094 7.675781 7.777344 7.699219 7.8125 C 7.707031 7.824219 7.933594 8.195312 8.203125 8.640625 L 8.691406 9.449219 L 9.726562 10.007812 C 10.292969 10.316406 10.765625 10.574219 10.773438 10.578125 C 10.839844 10.625 10.890625 10.691406 10.910156 10.773438 C 10.917969 10.804688 10.921875 10.847656 10.921875 10.875 C 10.917969 10.882812 10.917969 10.894531 10.917969 10.898438 C 10.917969 10.914062 10.914062 10.941406 10.90625 10.960938 C 10.875 11.078125 10.769531 11.167969 10.648438 11.191406 C 10.625 11.195312 10.605469 11.199219 10.574219 11.195312 C 10.527344 11.195312 10.484375 11.183594 10.441406 11.164062 C 10.410156 11.148438 8.28125 9.992188 8.265625 9.984375 C 8.230469 9.960938 8.195312 9.925781 8.171875 9.894531 C 8.167969 9.886719 8.074219 9.730469 7.964844 9.546875 C 7.851562 9.363281 7.757812 9.207031 7.75 9.199219 C 7.730469 9.171875 7.699219 9.140625 7.671875 9.125 C 7.574219 9.054688 7.441406 9.046875 7.335938 9.101562 C 7.253906 9.144531 7.191406 9.21875 7.167969 9.304688 C 7.164062 9.316406 6.554688 11.800781 6.53125 11.910156 C 6.515625 11.96875 6.511719 12.003906 6.507812 12.058594 C 6.507812 12.140625 6.523438 12.21875 6.550781 12.296875 C 6.5625 12.324219 6.582031 12.363281 6.597656 12.386719 C 6.601562 12.394531 7.042969 13.066406 7.578125 13.878906 C 8.113281 14.691406 8.554688 15.363281 8.558594 15.371094 C 8.589844 15.421875 8.609375 15.480469 8.617188 15.535156 C 8.621094 15.546875 8.722656 16.394531 8.847656 17.421875 C 9.054688 19.113281 9.074219 19.292969 9.078125 19.316406 C 9.082031 19.496094 8.980469 19.660156 8.820312 19.742188 C 8.765625 19.769531 8.714844 19.78125 8.652344 19.789062 C 8.617188 19.789062 8.59375 19.789062 8.570312 19.789062 C 8.4375 19.773438 8.320312 19.703125 8.242188 19.59375 C 8.203125 19.542969 8.175781 19.476562 8.164062 19.410156 C 8.160156 19.402344 8.0625 18.582031 7.941406 17.589844 C 7.820312 16.59375 7.722656 15.78125 7.71875 15.777344 C 7.71875 15.773438 7.332031 15.183594 6.800781 14.375 C 6.296875 13.605469 5.878906 12.964844 5.871094 12.953125 C 5.847656 12.921875 5.839844 12.910156 5.8125 12.882812 C 5.742188 12.8125 5.648438 12.769531 5.550781 12.761719 C 5.527344 12.757812 5.480469 12.757812 5.460938 12.761719 C 5.3125 12.777344 5.183594 12.867188 5.121094 13 C 5.097656 13.042969 5.085938 13.085938 5.078125 13.136719 C 5.078125 13.152344 5.078125 13.234375 5.078125 14.460938 C 5.074219 15.675781 5.074219 15.773438 5.074219 15.785156 C 5.066406 15.835938 5.050781 15.875 5.03125 15.917969 C 5.027344 15.933594 3.234375 19.457031 3.183594 19.554688 C 3.160156 19.605469 3.132812 19.640625 3.097656 19.675781 C 3.023438 19.75 2.929688 19.796875 2.820312 19.8125 C 2.796875 19.8125 2.742188 19.816406 2.722656 19.8125 C 2.617188 19.800781 2.523438 19.757812 2.449219 19.683594 C 2.363281 19.601562 2.3125 19.488281 2.308594 19.367188 C 2.308594 19.296875 2.320312 19.230469 2.347656 19.167969 C 2.351562 19.160156 2.757812 18.359375 3.253906 17.390625 L 4.15625 15.625 L 4.15625 14.460938 C 4.15625 13.644531 4.15625 13.285156 4.15625 13.25 C 4.164062 13.097656 4.164062 13.042969 4.167969 12.960938 C 4.191406 12.601562 4.234375 12.289062 4.300781 12.015625 C 4.316406 11.949219 5.386719 7.933594 5.394531 7.914062 C 5.402344 7.882812 5.414062 7.859375 5.429688 7.828125 C 5.457031 7.769531 5.492188 7.722656 5.535156 7.679688 C 5.640625 7.574219 5.777344 7.515625 5.925781 7.507812 C 5.949219 7.507812 7.140625 7.507812 7.164062 7.507812 Z M 17.769531 9.144531 L 18.121094 9.308594 L 18.183594 9.476562 C 18.214844 9.566406 18.242188 9.644531 18.242188 9.644531 C 18.242188 9.644531 17.609375 9.875 17.605469 9.875 C 17.605469 9.875 17.570312 9.78125 17.53125 9.664062 C 17.488281 9.550781 17.453125 9.453125 17.453125 9.453125 C 17.449219 9.453125 17.027344 9.605469 17.027344 9.609375 C 17.027344 9.609375 17.0625 9.703125 17.101562 9.820312 C 17.144531 9.9375 17.179688 10.03125 17.179688 10.03125 C 17.179688 10.035156 16.761719 10.183594 16.757812 10.183594 C 16.757812 10.1875 16.742188 10.148438 16.679688 9.972656 C 16.613281 9.796875 16.601562 9.761719 16.597656 9.761719 C 16.597656 9.761719 16.179688 9.914062 16.175781 9.917969 C 16.175781 9.917969 16.199219 9.984375 16.25 10.128906 C 16.292969 10.246094 16.328125 10.34375 16.328125 10.34375 C 16.328125 10.34375 15.90625 10.496094 15.90625 10.496094 C 15.90625 10.496094 15.871094 10.398438 15.828125 10.28125 C 15.785156 10.167969 15.75 10.070312 15.75 10.070312 C 15.75 10.070312 15.324219 10.226562 15.324219 10.226562 C 15.324219 10.226562 15.359375 10.320312 15.402344 10.4375 C 15.441406 10.554688 15.476562 10.652344 15.476562 10.652344 C 15.476562 10.652344 15.058594 10.804688 15.054688 10.804688 C 15.054688 10.804688 15.019531 10.710938 14.976562 10.59375 C 14.914062 10.417969 14.898438 10.378906 14.898438 10.382812 C 14.894531 10.382812 14.800781 10.417969 14.683594 10.457031 C 14.566406 10.5 14.472656 10.535156 14.472656 10.535156 C 14.472656 10.535156 14.507812 10.632812 14.550781 10.746094 C 14.589844 10.863281 14.625 10.957031 14.625 10.960938 C 14.625 10.960938 14.566406 10.984375 14.417969 11.039062 C 14.304688 11.078125 14.207031 11.113281 14.207031 11.113281 C 14.203125 11.113281 14.203125 11.113281 14.128906 10.910156 C 14.042969 10.667969 14.050781 10.691406 14.046875 10.691406 C 14.046875 10.691406 13.625 10.84375 13.621094 10.84375 C 13.621094 10.84375 13.65625 10.941406 13.699219 11.058594 C 13.742188 11.175781 13.777344 11.269531 13.773438 11.269531 C 13.773438 11.273438 13.351562 11.425781 13.351562 11.425781 C 13.351562 11.425781 13.316406 11.328125 13.273438 11.214844 C 13.234375 11.097656 13.199219 11 13.199219 11 C 13.195312 11 12.773438 11.152344 12.773438 11.15625 C 12.769531 11.15625 12.804688 11.25 12.847656 11.367188 C 12.921875 11.574219 12.925781 11.582031 12.921875 11.582031 C 12.902344 11.589844 12.503906 11.734375 12.5 11.734375 C 12.5 11.734375 12.464844 11.640625 12.425781 11.523438 C 12.382812 11.40625 12.347656 11.308594 12.347656 11.308594 C 12.347656 11.308594 11.925781 11.464844 11.921875 11.464844 C 11.921875 11.464844 11.945312 11.53125 11.996094 11.679688 L 12.074219 11.890625 L 11.863281 11.96875 C 11.714844 12.019531 11.648438 12.046875 11.648438 12.046875 C 11.652344 12.046875 11.703125 12.191406 11.765625 12.367188 C 11.832031 12.542969 11.882812 12.691406 11.886719 12.699219 C 11.890625 12.714844 11.890625 12.714844 11.890625 12.710938 C 11.886719 12.710938 11.75 12.625 11.582031 12.523438 L 11.277344 12.339844 L 11.246094 12.253906 C 11.214844 12.167969 11.207031 12.144531 11.195312 12.105469 C 11.179688 12.039062 11.171875 11.980469 11.171875 11.90625 C 11.171875 11.851562 11.171875 11.808594 11.179688 11.753906 C 11.191406 11.695312 11.207031 11.625 11.226562 11.574219 C 11.234375 11.5625 11.234375 11.5625 11.25 11.546875 C 11.3125 11.488281 11.371094 11.410156 11.414062 11.335938 C 11.429688 11.304688 11.441406 11.285156 11.453125 11.25 L 11.464844 11.222656 L 11.480469 11.207031 C 11.570312 11.132812 11.65625 11.082031 11.765625 11.042969 C 11.800781 11.027344 17.417969 8.984375 17.421875 8.984375 C 17.421875 8.984375 17.578125 9.054688 17.769531 9.144531 Z M 18.59375 10.601562 C 18.699219 10.894531 18.785156 11.132812 18.785156 11.132812 C 18.78125 11.136719 12.617188 13.378906 12.617188 13.378906 C 12.617188 13.375 12.234375 12.320312 12.234375 12.316406 C 12.234375 12.316406 18.394531 10.074219 18.398438 10.074219 C 18.398438 10.074219 18.484375 10.3125 18.59375 10.601562 Z M 19.367188 15.03125 C 20.070312 17.164062 20.4375 18.273438 20.4375 18.28125 C 20.4375 18.289062 20.441406 18.304688 20.441406 18.316406 C 20.445312 18.402344 20.394531 18.488281 20.3125 18.527344 C 20.304688 18.53125 19.667969 18.761719 18.898438 19.042969 C 18.128906 19.324219 17.496094 19.554688 17.496094 19.554688 C 17.492188 19.554688 17.496094 19.550781 17.5 19.542969 C 17.613281 19.296875 17.664062 19.015625 17.644531 18.746094 C 17.609375 18.308594 17.394531 17.90625 17.054688 17.632812 C 16.84375 17.464844 16.585938 17.351562 16.320312 17.308594 C 16.238281 17.292969 16.171875 17.289062 16.085938 17.285156 C 15.886719 17.285156 15.699219 17.316406 15.507812 17.386719 C 15.34375 17.445312 15.183594 17.539062 15.054688 17.648438 C 15.042969 17.65625 15.035156 17.664062 15.035156 17.664062 C 15.03125 17.664062 13.417969 13.570312 13.417969 13.570312 C 13.429688 13.566406 18.292969 11.796875 18.296875 11.796875 C 18.296875 11.796875 18.777344 13.253906 19.367188 15.03125 Z M 16.152344 17.746094 C 16.300781 17.757812 16.4375 17.796875 16.570312 17.863281 C 16.714844 17.933594 16.84375 18.039062 16.945312 18.164062 C 17.128906 18.394531 17.21875 18.691406 17.1875 18.980469 C 17.167969 19.1875 17.089844 19.382812 16.96875 19.550781 C 16.914062 19.621094 16.847656 19.691406 16.78125 19.746094 C 16.617188 19.882812 16.414062 19.96875 16.203125 19.996094 C 16.140625 20.003906 16.058594 20.003906 16.003906 20.003906 C 15.796875 19.988281 15.601562 19.925781 15.433594 19.8125 C 15.34375 19.75 15.261719 19.679688 15.191406 19.59375 C 15.054688 19.433594 14.964844 19.226562 14.941406 19.011719 C 14.933594 18.960938 14.933594 18.941406 14.933594 18.875 C 14.933594 18.792969 14.933594 18.757812 14.945312 18.6875 C 14.996094 18.378906 15.171875 18.105469 15.429688 17.933594 C 15.597656 17.820312 15.792969 17.753906 16 17.742188 C 16.027344 17.742188 16.121094 17.742188 16.152344 17.746094 Z M 16.152344 17.746094 "/>
<path style=" stroke:none;fill-rule:nonzero;fill:rgb(0%,0%,0%);fill-opacity:1;" d="M 16.660156 13.164062 C 16.617188 13.167969 16.574219 13.175781 16.539062 13.1875 C 16.519531 13.191406 15.683594 13.496094 15.660156 13.507812 C 15.625 13.519531 15.582031 13.546875 15.550781 13.566406 C 15.4375 13.648438 15.359375 13.773438 15.335938 13.910156 C 15.332031 13.929688 15.214844 14.753906 15.214844 14.753906 C 15.21875 14.757812 15.519531 14.796875 15.519531 14.796875 C 15.519531 14.796875 15.546875 14.609375 15.578125 14.378906 C 15.613281 14.144531 15.640625 13.957031 15.640625 13.949219 C 15.652344 13.910156 15.671875 13.875 15.703125 13.84375 C 15.722656 13.824219 15.738281 13.8125 15.757812 13.800781 C 15.832031 13.761719 15.921875 13.769531 15.988281 13.8125 C 15.996094 13.816406 16.023438 13.839844 16.054688 13.863281 C 16.089844 13.894531 16.105469 13.910156 16.105469 13.910156 C 16.105469 13.914062 15.972656 14.851562 15.972656 14.859375 C 15.972656 14.863281 15.933594 14.828125 15.882812 14.789062 C 15.828125 14.742188 15.796875 14.714844 15.792969 14.714844 C 15.792969 14.714844 15.585938 14.78125 15.335938 14.863281 C 15.085938 14.945312 14.882812 15.011719 14.878906 15.011719 C 14.878906 15.015625 14.820312 15.328125 14.820312 15.328125 C 14.820312 15.328125 14.886719 15.34375 14.96875 15.359375 C 15.050781 15.375 15.117188 15.386719 15.117188 15.386719 C 15.117188 15.390625 15.105469 15.449219 15.089844 15.53125 C 15.054688 15.710938 15.058594 15.707031 15.054688 15.730469 C 15.042969 15.832031 15.058594 15.929688 15.105469 16.023438 C 15.132812 16.078125 15.175781 16.140625 15.21875 16.179688 C 15.226562 16.1875 15.378906 16.324219 15.554688 16.480469 C 15.730469 16.640625 15.882812 16.773438 15.886719 16.78125 C 15.960938 16.847656 16.054688 16.894531 16.152344 16.914062 C 16.1875 16.917969 16.210938 16.921875 16.25 16.921875 C 16.308594 16.921875 16.351562 16.914062 16.402344 16.898438 C 16.414062 16.898438 17.285156 16.582031 17.289062 16.578125 C 17.289062 16.578125 17.265625 16.515625 17.234375 16.4375 C 17.207031 16.355469 17.183594 16.292969 17.183594 16.292969 C 17.183594 16.292969 17.300781 16.394531 17.445312 16.519531 C 17.589844 16.644531 17.707031 16.746094 17.710938 16.746094 C 17.710938 16.75 17.734375 16.742188 17.863281 16.695312 C 17.945312 16.664062 18.011719 16.640625 18.011719 16.640625 C 18.015625 16.640625 17.996094 16.589844 17.960938 16.496094 L 17.910156 16.351562 L 18.058594 16.296875 C 18.222656 16.238281 18.222656 16.238281 18.25 16.222656 C 18.355469 16.171875 18.4375 16.09375 18.488281 15.992188 C 18.507812 15.953125 18.523438 15.910156 18.535156 15.871094 C 18.539062 15.851562 18.710938 14.96875 18.714844 14.945312 C 18.71875 14.917969 18.71875 14.898438 18.71875 14.867188 C 18.71875 14.777344 18.699219 14.699219 18.660156 14.621094 C 18.632812 14.570312 18.605469 14.53125 18.5625 14.488281 C 18.535156 14.464844 18.519531 14.449219 18.167969 14.164062 C 17.964844 14 17.796875 13.867188 17.796875 13.867188 C 17.796875 13.867188 17.753906 13.921875 17.703125 13.984375 C 17.648438 14.050781 17.605469 14.101562 17.605469 14.101562 C 17.605469 14.105469 17.605469 14.101562 17.605469 14.097656 C 17.628906 13.964844 17.722656 13.441406 17.722656 13.4375 C 17.722656 13.4375 17.6875 13.40625 17.601562 13.335938 C 17.53125 13.28125 17.476562 13.238281 17.476562 13.238281 C 17.472656 13.234375 17.472656 13.234375 17.375 13.351562 C 17.285156 13.460938 17.277344 13.472656 17.273438 13.472656 C 17.257812 13.457031 17.023438 13.265625 17.011719 13.257812 C 16.9375 13.207031 16.847656 13.175781 16.753906 13.164062 C 16.738281 13.164062 16.675781 13.160156 16.660156 13.164062 Z M 16.726562 13.472656 C 16.765625 13.476562 16.808594 13.492188 16.839844 13.519531 C 16.851562 13.527344 17.3125 13.898438 17.316406 13.90625 C 17.320312 13.90625 17.320312 13.90625 17.324219 13.902344 C 17.328125 13.898438 17.328125 13.898438 17.328125 13.902344 C 17.324219 13.902344 17.316406 13.964844 17.304688 14.035156 C 17.289062 14.105469 17.28125 14.164062 17.28125 14.164062 C 17.28125 14.164062 17.066406 14.25 17.039062 14.261719 C 17.035156 14.261719 17.03125 14.261719 17.03125 14.261719 C 17.03125 14.261719 16.855469 14.117188 16.640625 13.941406 C 16.421875 13.765625 16.246094 13.621094 16.246094 13.621094 C 16.246094 13.621094 16.601562 13.492188 16.625 13.484375 C 16.660156 13.472656 16.691406 13.46875 16.726562 13.472656 Z M 17.972656 14.40625 C 18.246094 14.625 18.332031 14.695312 18.34375 14.707031 C 18.378906 14.746094 18.402344 14.789062 18.40625 14.839844 C 18.414062 14.878906 18.410156 14.914062 18.394531 14.953125 C 18.375 14.996094 18.34375 15.035156 18.300781 15.0625 C 18.285156 15.070312 18.269531 15.078125 18.203125 15.101562 L 18.136719 15.125 L 17.738281 14.800781 C 17.515625 14.621094 17.335938 14.476562 17.335938 14.472656 C 17.335938 14.472656 17.386719 14.453125 17.445312 14.429688 C 17.539062 14.390625 17.554688 14.386719 17.554688 14.382812 C 17.554688 14.378906 17.566406 14.320312 17.578125 14.246094 C 17.59375 14.171875 17.601562 14.113281 17.605469 14.109375 C 17.605469 14.105469 17.605469 14.105469 17.609375 14.113281 C 17.613281 14.113281 17.777344 14.246094 17.972656 14.40625 Z M 16.492188 14.21875 C 16.550781 14.265625 16.597656 14.304688 16.597656 14.304688 C 16.601562 14.308594 16.582031 14.332031 16.507812 14.425781 C 16.433594 14.515625 16.414062 14.542969 16.414062 14.546875 C 16.414062 14.546875 16.46875 14.589844 16.539062 14.644531 L 16.660156 14.746094 L 16.722656 14.722656 C 16.753906 14.707031 16.90625 14.648438 17.054688 14.585938 C 17.207031 14.527344 17.332031 14.476562 17.332031 14.476562 C 17.332031 14.476562 17.289062 14.53125 17.234375 14.59375 C 17.183594 14.660156 17.140625 14.710938 17.140625 14.714844 C 17.140625 14.714844 17.289062 14.835938 17.46875 14.980469 L 17.800781 15.25 L 17.796875 15.25 C 17.789062 15.253906 17.546875 15.339844 17.546875 15.34375 C 17.542969 15.34375 17.535156 15.320312 17.492188 15.199219 C 17.460938 15.121094 17.4375 15.058594 17.4375 15.058594 C 17.4375 15.054688 17.371094 15.082031 17.285156 15.109375 C 17.167969 15.152344 17.136719 15.164062 17.136719 15.167969 C 17.136719 15.167969 17.109375 15.324219 17.082031 15.511719 C 17.050781 15.703125 17.023438 15.855469 17.023438 15.855469 C 17.023438 15.855469 17 15.789062 16.972656 15.710938 C 16.945312 15.632812 16.921875 15.570312 16.921875 15.570312 C 16.921875 15.570312 16.742188 15.636719 16.519531 15.714844 C 16.300781 15.796875 16.121094 15.859375 16.121094 15.859375 C 16.121094 15.859375 16.171875 15.59375 16.171875 15.59375 C 16.171875 15.59375 16.242188 15.605469 16.324219 15.621094 C 16.40625 15.636719 16.472656 15.652344 16.472656 15.652344 C 16.472656 15.648438 16.535156 15.335938 16.535156 15.335938 C 16.53125 15.335938 16.410156 15.230469 16.261719 15.105469 C 16.074219 14.949219 15.988281 14.875 15.992188 14.875 C 15.992188 14.875 16.058594 14.882812 16.136719 14.894531 L 16.277344 14.914062 L 16.277344 14.910156 C 16.277344 14.910156 16.300781 14.734375 16.332031 14.519531 C 16.363281 14.308594 16.386719 14.136719 16.386719 14.136719 C 16.386719 14.136719 16.433594 14.171875 16.492188 14.21875 Z M 15.828125 15.144531 L 15.929688 15.230469 L 15.925781 15.242188 C 15.925781 15.25 15.882812 15.472656 15.828125 15.738281 C 15.777344 16.003906 15.734375 16.222656 15.734375 16.226562 C 15.734375 16.226562 15.433594 15.957031 15.417969 15.941406 C 15.390625 15.910156 15.371094 15.871094 15.363281 15.832031 C 15.359375 15.816406 15.359375 15.78125 15.359375 15.765625 C 15.363281 15.753906 15.480469 15.144531 15.480469 15.144531 C 15.480469 15.140625 15.726562 15.0625 15.730469 15.0625 C 15.730469 15.0625 15.773438 15.101562 15.828125 15.144531 Z M 18.3125 15.394531 C 18.3125 15.394531 18.292969 15.484375 18.273438 15.597656 C 18.230469 15.8125 18.230469 15.816406 18.214844 15.84375 C 18.191406 15.894531 18.148438 15.933594 18.105469 15.953125 C 18.097656 15.953125 17.964844 16.003906 17.804688 16.0625 C 17.648438 16.117188 17.515625 16.167969 17.515625 16.167969 C 17.515625 16.167969 17.488281 16.144531 17.414062 16.082031 C 17.320312 16 17.316406 15.996094 17.316406 15.992188 C 17.316406 15.992188 17.328125 15.933594 17.335938 15.863281 C 17.347656 15.796875 17.355469 15.742188 17.355469 15.742188 C 17.355469 15.738281 17.359375 15.738281 17.363281 15.738281 C 17.367188 15.734375 17.582031 15.660156 17.839844 15.5625 C 18.097656 15.46875 18.308594 15.394531 18.3125 15.390625 C 18.3125 15.390625 18.3125 15.394531 18.3125 15.394531 Z M 17.023438 15.859375 C 17.023438 15.863281 17.015625 15.917969 17.003906 15.988281 L 16.984375 16.117188 L 16.988281 16.121094 C 16.992188 16.125 17.035156 16.164062 17.085938 16.207031 C 17.136719 16.25 17.179688 16.289062 17.179688 16.289062 C 17.179688 16.289062 16.324219 16.601562 16.308594 16.605469 C 16.285156 16.613281 16.269531 16.613281 16.242188 16.613281 C 16.21875 16.613281 16.199219 16.609375 16.179688 16.601562 C 16.097656 16.574219 16.039062 16.503906 16.023438 16.417969 C 16.023438 16.402344 16.023438 16.371094 16.023438 16.355469 C 16.03125 16.324219 16.050781 16.214844 16.054688 16.214844 C 16.054688 16.214844 17.023438 15.859375 17.023438 15.859375 Z M 17.023438 15.859375 "/>
<path style=" stroke:none;fill-rule:nonzero;fill:rgb(0%,0%,0%);fill-opacity:1;" d="M 16.015625 18.195312 C 15.875 18.203125 15.742188 18.253906 15.636719 18.34375 C 15.558594 18.402344 15.5 18.480469 15.453125 18.566406 C 15.417969 18.636719 15.394531 18.714844 15.386719 18.792969 C 15.382812 18.839844 15.382812 18.910156 15.386719 18.957031 C 15.402344 19.074219 15.449219 19.1875 15.519531 19.28125 C 15.558594 19.332031 15.605469 19.378906 15.65625 19.417969 C 15.753906 19.488281 15.867188 19.535156 15.992188 19.546875 C 16.019531 19.550781 16.078125 19.550781 16.105469 19.550781 C 16.253906 19.539062 16.386719 19.484375 16.5 19.390625 C 16.519531 19.375 16.554688 19.339844 16.574219 19.320312 C 16.664062 19.21875 16.71875 19.089844 16.738281 18.957031 C 16.753906 18.8125 16.726562 18.664062 16.652344 18.535156 C 16.621094 18.480469 16.589844 18.4375 16.542969 18.390625 C 16.515625 18.363281 16.492188 18.34375 16.464844 18.324219 C 16.335938 18.230469 16.175781 18.183594 16.015625 18.195312 Z M 16.085938 18.648438 C 16.113281 18.652344 16.144531 18.660156 16.171875 18.675781 C 16.230469 18.707031 16.269531 18.761719 16.285156 18.832031 C 16.289062 18.851562 16.289062 18.890625 16.285156 18.910156 C 16.277344 18.957031 16.253906 19 16.21875 19.03125 C 16.175781 19.078125 16.117188 19.101562 16.054688 19.097656 C 15.949219 19.09375 15.863281 19.019531 15.839844 18.914062 C 15.839844 18.902344 15.835938 18.898438 15.835938 18.871094 C 15.835938 18.847656 15.835938 18.84375 15.839844 18.828125 C 15.847656 18.796875 15.859375 18.769531 15.875 18.746094 C 15.886719 18.726562 15.917969 18.699219 15.9375 18.683594 C 15.964844 18.664062 16.003906 18.652344 16.039062 18.648438 C 16.050781 18.644531 16.074219 18.644531 16.085938 18.648438 Z M 16.085938 18.648438 "/>
</g>
</svg>
