<?xml version="1.0" encoding="UTF-8"?>
<svg xmlns="http://www.w3.org/2000/svg" xmlns:xlink="http://www.w3.org/1999/xlink" width="px" height="px" viewBox="0 0 8534 8534" version="1.1">
<g>
<path style=" stroke:none;fill-rule:nonzero;fill:rgb(0%,0%,0%);fill-opacity:1;" d="M 2552.871094 918.34375 C 2516.417969 920.144531 2495.316406 922.242188 2466.464844 927.042969 C 2363.160156 944.292969 2265.554688 985.746094 2181.402344 1048.25 C 2036.84375 1155.554688 1942.890625 1314.660156 1920.140625 1490.570312 C 1904.988281 1607.523438 1921.539062 1725.929688 1967.992188 1833.085938 C 2029.496094 1974.890625 2139.800781 2091.398438 2278.605469 2161.050781 C 2332.507812 2188.152344 2387.0625 2207.003906 2444.914062 2218.605469 C 2588.820312 2247.40625 2736.726562 2228.203125 2866.734375 2163.800781 C 2960.488281 2117.300781 3040.542969 2050.496094 3102.996094 1966.542969 C 3127.246094 1933.992188 3146.199219 1903.039062 3164.398438 1866.335938 C 3175.597656 1843.738281 3183.148438 1826.4375 3191.597656 1803.734375 C 3228.402344 1705.179688 3240.902344 1595.425781 3226.851562 1494.320312 C 3219.050781 1438.117188 3202.800781 1378.914062 3180.550781 1325.863281 C 3153.996094 1262.507812 3119.746094 1204.40625 3081.84375 1158.554688 C 3068.59375 1142.503906 3041.742188 1114.300781 3023.640625 1097.300781 C 2934.238281 1013.496094 2828.484375 957.542969 2711.726562 932.34375 C 2680.925781 925.695312 2649.574219 921.441406 2613.371094 918.992188 C 2606.023438 918.542969 2559.71875 917.992188 2552.871094 918.34375 Z M 2600.621094 1138.054688 C 2642.273438 1140.554688 2681.925781 1148.503906 2719.976562 1161.855469 C 2857.484375 1210.15625 2962.789062 1324.660156 2999.140625 1465.320312 C 3009.191406 1504.171875 3013.691406 1542.371094 3012.992188 1582.324219 C 3012.691406 1599.324219 3012.242188 1606.625 3010.589844 1621.824219 C 2998.992188 1730.582031 2946.4375 1831.335938 2863.382812 1904.089844 C 2813.832031 1947.492188 2754.378906 1979.441406 2691.125 1996.742188 C 2640.773438 2010.542969 2588.121094 2015.09375 2535.367188 2010.292969 C 2449.265625 2002.492188 2366.011719 1968.640625 2298.109375 1913.890625 C 2275.855469 1895.9375 2252.503906 1872.9375 2234.355469 1851.035156 C 2179.300781 1784.734375 2145.199219 1704.179688 2136.398438 1619.824219 C 2134.648438 1603.273438 2134.351562 1596.425781 2134.351562 1574.574219 C 2134.398438 1548.921875 2135.25 1535.972656 2138.351562 1514.222656 C 2150.402344 1430.765625 2185.902344 1354.0625 2242.855469 1288.710938 C 2250.15625 1280.359375 2271.605469 1258.660156 2279.757812 1251.410156 C 2311.558594 1223.058594 2345.710938 1200.054688 2382.863281 1182.003906 C 2436.363281 1155.953125 2493.316406 1141.253906 2553.621094 1137.902344 C 2560.671875 1137.503906 2593.273438 1137.601562 2600.621094 1138.054688 Z M 2600.621094 1138.054688 "/>
<path style=" stroke:none;fill-rule:nonzero;fill:rgb(0%,0%,0%);fill-opacity:1;" d="M 2089.847656 2450.664062 C 2005.695312 2455.964844 1926.289062 2485.117188 1859.738281 2535.070312 C 1841.6875 2548.621094 1829.035156 2559.621094 1813.085938 2575.570312 C 1763.484375 2625.273438 1727.980469 2684.425781 1707.03125 2752.378906 C 1705.929688 2755.929688 1619.976562 3078.042969 1516.070312 3468.164062 C 1412.117188 3858.28125 1325.511719 4183.394531 1323.5625 4190.695312 C 1290.160156 4314.902344 1270.007812 4458.308594 1262.859375 4623.214844 C 1259.410156 4702.269531 1259.160156 4731.320312 1258.558594 5155.589844 L 1258.109375 5503.15625 L 949.496094 6107.886719 C 779.738281 6440.453125 638.878906 6716.816406 636.480469 6722.066406 C 602.777344 6795.617188 593.179688 6877.671875 609.078125 6957.027344 C 628.429688 7053.582031 683.582031 7138.585938 763.535156 7194.9375 C 821.589844 7235.839844 888.992188 7259.640625 960.296875 7264.339844 C 969.996094 7264.992188 999.148438 7264.992188 1008.796875 7264.339844 C 1056.097656 7261.191406 1101.050781 7249.941406 1143.804688 7230.589844 C 1217.855469 7197.039062 1279.261719 7140.585938 1319.0625 7069.582031 C 1322.910156 7062.679688 1980.992188 5769.71875 1986.492188 5758.269531 C 2004.09375 5721.367188 2016.445312 5680.015625 2021.542969 5640.515625 C 2024.542969 5617.363281 2024.292969 5649.566406 2024.59375 5263.496094 L 2024.84375 4911.480469 L 2279.207031 5299.148438 L 2533.617188 5686.765625 L 2607.621094 6295.945312 C 2648.324219 6630.960938 2682.324219 6910.472656 2683.175781 6917.074219 C 2686.175781 6941.273438 2689.824219 6959.527344 2695.828125 6980.078125 C 2720.425781 7064.929688 2773.03125 7137.933594 2845.832031 7188.335938 C 2930.1875 7246.738281 3034.042969 7268.691406 3135.648438 7249.539062 C 3229.203125 7231.9375 3312.40625 7180.136719 3370.15625 7103.582031 C 3413.960938 7045.53125 3439.511719 6978.175781 3446.011719 6903.824219 C 3447.160156 6890.171875 3447.160156 6856.921875 3446.011719 6843.320312 C 3445.011719 6831.921875 3283.804688 5505.609375 3281.902344 5493.007812 C 3273.804688 5439.753906 3254.503906 5388.902344 3225.199219 5343.5 C 3222.5 5339.351562 3065.945312 5101.039062 2877.234375 4813.875 C 2688.527344 4526.664062 2534.117188 4291.550781 2534.117188 4291.351562 C 2534.117188 4290.550781 2701.828125 3606.417969 2702.078125 3606.070312 C 2702.277344 3605.867188 2705.527344 3610.917969 2709.378906 3617.320312 C 2718.128906 3631.921875 2728.429688 3647.269531 2735.726562 3656.722656 C 2762.328125 3691.171875 2795.28125 3720.324219 2832.632812 3742.277344 C 2840.78125 3747.074219 3604.667969 4161.445312 3613.667969 4165.945312 C 3680.171875 4199.246094 3757.726562 4209.347656 3831.679688 4194.398438 C 3872.632812 4186.097656 3914.582031 4168.996094 3948.636719 4146.695312 C 3954.433594 4142.894531 3955.484375 4142.34375 3955.785156 4143.09375 C 3956.183594 4144.042969 4023.6875 4481.558594 4023.6875 4482.558594 C 4023.6875 4483.058594 4021.789062 4483.210938 4015.839844 4483.210938 C 4003.4375 4483.261719 3994.386719 4484.761719 3984.1875 4488.558594 C 3960.4375 4497.410156 3942.035156 4516.660156 3934.183594 4540.710938 C 3930.183594 4553.0625 3930.433594 4546.8125 3930.433594 4626.21875 C 3930.433594 4703.121094 3930.335938 4700.421875 3933.234375 4715.722656 C 3946.785156 4787.074219 3998.335938 4845.027344 4067.441406 4866.679688 C 4077.792969 4869.929688 4090.890625 4872.777344 4100.792969 4873.976562 L 4103.640625 4874.328125 L 4103.890625 4876.429688 C 4104.042969 4877.527344 4128.195312 5238.246094 4157.542969 5678.015625 L 4210.949219 6477.554688 L 4211.199219 6596.308594 L 4211.496094 6715.066406 L 4212.597656 6719.914062 C 4214.398438 6727.714844 4216.496094 6733.617188 4219.949219 6740.566406 C 4224.199219 6749.066406 4228.699219 6755.316406 4235.449219 6762.066406 C 4247.898438 6774.566406 4261.949219 6781.96875 4280.199219 6785.667969 C 4284.101562 6786.417969 4291 6786.519531 4360.105469 6786.667969 L 4435.707031 6786.867188 L 4435.707031 6863.570312 L 4430.359375 6866.273438 C 4406.355469 6878.121094 4383.855469 6896.523438 4365.90625 6918.824219 C 4360.804688 6925.175781 4352.054688 6938.375 4347.703125 6946.324219 C 4316.753906 7002.476562 4315.402344 7071.082031 4344.105469 7128.585938 C 4353.605469 7147.636719 4364.503906 7162.984375 4379.40625 7178.238281 C 4434.957031 7235.140625 4519.710938 7252.691406 4594.066406 7222.589844 C 4619.867188 7212.1875 4646.269531 7193.636719 4664.917969 7172.9375 C 4693.269531 7141.335938 4709.671875 7104.78125 4714.820312 7061.582031 C 4715.820312 7052.980469 4715.671875 7026.828125 4714.519531 7018.078125 C 4709.820312 6981.675781 4697.269531 6950.527344 4675.769531 6922.074219 C 4658.316406 6898.921875 4634.167969 6878.824219 4608.164062 6865.773438 L 4603.214844 6863.320312 L 4603.214844 6786.816406 L 6684.3125 6786.816406 L 6684.3125 6863.320312 L 6680.714844 6865.121094 C 6646.261719 6882.421875 6618.058594 6908.824219 6598.558594 6941.976562 C 6594.308594 6949.277344 6587.257812 6964.125 6584.308594 6971.976562 C 6571.90625 7005.328125 6568.707031 7041.378906 6575.109375 7076.332031 C 6581.109375 7109.082031 6595.160156 7139.484375 6616.210938 7165.335938 C 6621.609375 7171.9375 6633.011719 7183.636719 6639.609375 7189.285156 C 6670.761719 7216.238281 6708.164062 7232.1875 6750.066406 7236.390625 C 6764.265625 7237.839844 6786.46875 7236.9375 6801.667969 7234.289062 C 6857.519531 7224.6875 6906.921875 7190.835938 6936.324219 7142.085938 C 6970.226562 7085.832031 6973.476562 7014.527344 6944.777344 6955.574219 C 6926.023438 6917.023438 6896.625 6886.824219 6858.121094 6866.570312 L 6851.820312 6863.222656 L 6851.820312 6786.816406 L 6924.972656 6786.816406 C 7002.878906 6786.816406 7002.726562 6786.816406 7013.027344 6784.367188 C 7035.378906 6779.066406 7055.429688 6763.515625 7066.730469 6742.816406 C 7070.679688 6735.617188 7073.832031 6726.316406 7075.730469 6716.566406 C 7076.433594 6713.066406 7076.53125 6698.214844 7076.832031 6592.058594 L 7077.132812 6471.554688 L 7130.484375 5673.117188 C 7159.835938 5233.945312 7183.835938 4874.578125 7183.835938 4874.527344 C 7183.835938 4874.429688 7185.9375 4874.078125 7188.488281 4873.777344 C 7222.988281 4869.128906 7256.339844 4854.777344 7284.542969 4832.328125 C 7292.390625 4826.125 7308.292969 4810.175781 7314.644531 4802.226562 C 7335.292969 4776.273438 7348.644531 4746.921875 7354.542969 4714.722656 C 7357.542969 4698.171875 7357.496094 4699.671875 7357.746094 4629.46875 C 7357.894531 4562.5625 7357.792969 4558.113281 7355.84375 4549.164062 C 7349.195312 4518.511719 7325.742188 4494.109375 7295.34375 4485.960938 C 7288.492188 4484.160156 7280.441406 4483.210938 7271.539062 4483.210938 C 7267.339844 4483.210938 7263.839844 4483.160156 7263.839844 4483.058594 C 7263.839844 4483.011719 7284.792969 4378.304688 7310.34375 4250.449219 C 7346.894531 4067.890625 7356.996094 4016.488281 7357.445312 4011.289062 C 7358.394531 4000.738281 7356.996094 3989.035156 7353.542969 3978.4375 C 7351.746094 3972.886719 7346.445312 3962.1875 7343.246094 3957.585938 C 7330.59375 3939.382812 7312.394531 3927.285156 7290.589844 3922.683594 C 7284.191406 3921.332031 7270.941406 3920.785156 7263.992188 3921.632812 C 7239.738281 3924.535156 7217.839844 3937.984375 7204.085938 3958.433594 C 7200.886719 3963.234375 7196.1875 3972.9375 7194.289062 3978.6875 C 7193.335938 3981.738281 7182.285156 4035.6875 7163.535156 4129.445312 C 7147.484375 4209.746094 7134.234375 4275.949219 7134.085938 4276.550781 C 7133.835938 4277.550781 7133.234375 4277.050781 7129.183594 4272.351562 C 7116.632812 4257.800781 7096.03125 4236.648438 7083.03125 4225.046875 C 7054.628906 4199.695312 7026.53125 4178.296875 6997.027344 4159.546875 C 6972.675781 4144.09375 6953.324219 4133.242188 6923.574219 4118.441406 C 6900.472656 4106.941406 6888.121094 4101.492188 6865.820312 4092.941406 C 6830.320312 4079.339844 6803.117188 4070.539062 6774.566406 4063.390625 C 6737.265625 4054.039062 6713.964844 4049.339844 6676.5625 4043.738281 C 6650.410156 4039.839844 6639.359375 4038.589844 6615.558594 4036.9375 C 6609.511719 4036.539062 6603.160156 4036.089844 6601.507812 4035.988281 C 6598.660156 4035.738281 6598.007812 4035.488281 6593.257812 4032.089844 C 6577.109375 4020.839844 6547.15625 4001.539062 6527.304688 3989.6875 C 6484.953125 3964.386719 6436.25 3939.535156 6391.050781 3920.183594 C 6239.640625 3855.28125 6068.535156 3819.828125 5863.773438 3810.929688 C 5825.023438 3809.277344 5808.371094 3808.980469 5756.519531 3808.980469 C 5704.867188 3808.980469 5686.667969 3809.277344 5645.265625 3810.929688 C 5503.757812 3816.628906 5357.550781 3832.378906 5222.496094 3856.480469 C 5011.433594 3894.132812 4838.125 3949.285156 4723.019531 4015.539062 C 4712.269531 4021.738281 4699.570312 4029.4375 4693.921875 4033.238281 C 4690.519531 4035.488281 4690.121094 4035.640625 4685.417969 4036.140625 C 4682.71875 4036.390625 4678.21875 4036.789062 4675.46875 4036.9375 C 4637.71875 4039.238281 4592.367188 4045.738281 4548.5625 4055.191406 C 4532.164062 4058.691406 4499.0625 4066.992188 4486.960938 4070.640625 C 4460.507812 4078.542969 4428.257812 4090.191406 4397.207031 4102.992188 C 4385.054688 4107.992188 4345.402344 4127.59375 4329.453125 4136.492188 C 4314.253906 4144.945312 4293.101562 4157.746094 4280.699219 4165.945312 C 4234.597656 4196.496094 4191.097656 4234.347656 4158.292969 4272.351562 C 4155.746094 4275.300781 4153.59375 4277.449219 4153.496094 4277.101562 C 4153.34375 4276.75 4140.09375 4210.398438 4124.042969 4129.695312 C 4103.59375 4027.238281 4094.292969 3981.488281 4093.191406 3978.1875 C 4090.890625 3971.4375 4087.390625 3964.234375 4083.589844 3958.585938 L 4080.339844 3953.785156 L 4084.992188 3859.332031 L 4089.589844 3764.925781 L 4086.191406 3754.675781 C 4060.089844 3675.773438 4006.238281 3609.371094 3935.132812 3568.265625 C 3931.183594 3565.96875 3774.925781 3481.113281 3587.917969 3379.757812 L 3247.902344 3195.398438 L 3133.796875 3006.890625 C 2930.136719 2670.574219 2926.488281 2664.523438 2916.4375 2649.875 C 2893.1875 2615.921875 2861.984375 2581.921875 2829.382812 2555.121094 C 2777.429688 2512.417969 2715.976562 2481.265625 2650.875 2464.617188 C 2620.273438 2456.765625 2592.871094 2452.515625 2560.769531 2450.613281 C 2550.320312 2450.015625 2099.699219 2450.066406 2089.847656 2450.664062 Z M 2547.121094 2669.625 C 2580.820312 2671.476562 2612.371094 2679.675781 2642.375 2694.425781 C 2667.226562 2706.578125 2688.074219 2721.527344 2707.875 2741.378906 C 2720.277344 2753.730469 2729.378906 2764.828125 2738.378906 2778.429688 C 2740.578125 2781.730469 2820.78125 2913.988281 2916.636719 3072.242188 L 3090.894531 3359.957031 L 3458.363281 3559.21875 C 3660.472656 3668.773438 3827.980469 3759.875 3830.628906 3761.625 C 3854.53125 3777.527344 3872.082031 3802.328125 3879.480469 3830.628906 C 3882.480469 3842.28125 3884.03125 3857.53125 3883.082031 3866.929688 C 3882.78125 3869.679688 3882.480469 3873.730469 3882.433594 3875.933594 C 3882.230469 3880.683594 3880.382812 3890.433594 3878.230469 3897.933594 C 3866.429688 3938.683594 3829.878906 3971.285156 3786.527344 3979.636719 C 3777.878906 3981.335938 3770.777344 3981.835938 3760.277344 3981.535156 C 3742.777344 3981.085938 3727.675781 3977.386719 3712.675781 3969.984375 C 3701.222656 3964.285156 2944.089844 3553.316406 2939.539062 3550.316406 C 2926.835938 3541.964844 2914.6875 3530.117188 2906.1875 3517.816406 C 2904.484375 3515.414062 2870.882812 3460.011719 2831.484375 3394.808594 C 2792.132812 3329.554688 2758.179688 3273.902344 2756.128906 3271.101562 C 2749.277344 3261.804688 2737.726562 3250.652344 2728.277344 3244.253906 C 2692.578125 3220.050781 2646.523438 3217.152344 2608.273438 3236.703125 C 2579.722656 3251.300781 2557.769531 3278.003906 2549.167969 3308.503906 C 2547.917969 3312.855469 2331.359375 4195.695312 2321.808594 4235.199219 C 2316.757812 4256.199219 2315.160156 4267.949219 2314.757812 4287.199219 C 2314.160156 4317.300781 2319.007812 4344.503906 2329.960938 4372.453125 C 2333.558594 4381.605469 2340.558594 4395.804688 2345.460938 4403.957031 C 2347.660156 4407.507812 2504.765625 4646.816406 2694.625 4935.730469 C 2884.484375 5224.644531 3041.292969 5463.355469 3043.042969 5466.257812 C 3053.742188 5483.808594 3061.242188 5504.007812 3064.59375 5524.359375 C 3065.144531 5527.757812 3101.996094 5829.523438 3146.449219 6195.039062 C 3219.5 6796.167969 3227.25 6860.472656 3227.5 6869.121094 C 3229.351562 6932.125 3193.699219 6991.175781 3136.648438 7019.628906 C 3117.046875 7029.378906 3098.496094 7034.480469 3076.644531 7036.078125 C 3064.144531 7037.03125 3055.894531 7037.03125 3046.84375 7036.078125 C 3000.140625 7031.179688 2958.039062 7006.527344 2930.289062 6967.828125 C 2916.738281 6948.976562 2906.785156 6925.273438 2902.6875 6901.824219 C 2902.136719 6898.671875 2866.585938 6607.160156 2823.683594 6254.042969 C 2780.78125 5900.925781 2745.480469 5611.214844 2745.230469 5610.261719 C 2745.027344 5609.214844 2607.070312 5398.453125 2418.613281 5111.238281 C 2239.203125 4837.726562 2089.996094 4610.367188 2087.046875 4605.964844 C 2079.546875 4594.816406 2076.148438 4590.714844 2066.648438 4581.164062 C 2041.34375 4555.914062 2009.144531 4540.761719 1973.140625 4537.210938 C 1965.441406 4536.460938 1949.339844 4536.613281 1941.589844 4537.511719 C 1888.886719 4543.5625 1843.585938 4575.566406 1820.585938 4622.964844 C 1813.285156 4638.066406 1808.683594 4653.417969 1806.234375 4671.269531 C 1805.433594 4677.070312 1805.335938 4706.269531 1805.085938 5142.742188 C 1804.835938 5574.710938 1804.734375 5608.363281 1803.984375 5613.0625 C 1801.035156 5630.664062 1796.585938 5645.515625 1789.632812 5660.765625 C 1787.433594 5665.617188 1149.753906 6919.273438 1132.304688 6953.074219 C 1123.050781 6970.976562 1114.351562 6983.328125 1101.800781 6996.277344 C 1075.550781 7023.328125 1041.898438 7039.878906 1003.546875 7044.628906 C 995.195312 7045.679688 975.644531 7045.832031 967.796875 7044.878906 C 930.195312 7040.53125 897.390625 7025.128906 871.140625 6999.628906 C 840.039062 6969.375 822.488281 6929.476562 821.1875 6886.074219 C 820.4375 6861.972656 825.089844 6838.019531 834.6875 6816.320312 C 836.089844 6813.167969 981.296875 6528.355469 1157.402344 6183.441406 L 1477.519531 5556.261719 L 1477.71875 5142.640625 C 1477.871094 4851.425781 1478.070312 4723.621094 1478.46875 4710.972656 C 1480.121094 4657.769531 1480.917969 4638.117188 1482.570312 4608.214844 C 1489.71875 4480.761719 1505.121094 4370.054688 1529.320312 4272.300781 C 1534.921875 4249.550781 1915.339844 2821.332031 1917.789062 2813.632812 C 1921.140625 2803.28125 1924.839844 2794.28125 1930.089844 2783.878906 C 1940.441406 2763.378906 1952.492188 2746.679688 1968.792969 2730.328125 C 2005.742188 2693.375 2053.796875 2672.226562 2107.097656 2669.476562 C 2115.597656 2669.023438 2539.019531 2669.175781 2547.121094 2669.625 Z M 5802.023438 3976.6875 C 5997.230469 3980.988281 6156.386719 4008.488281 6294.046875 4061.691406 C 6298.445312 4063.390625 6302.195312 4064.941406 6302.445312 4065.140625 C 6302.644531 4065.339844 6301.644531 4065.789062 6300.195312 4066.140625 C 6281.34375 4070.941406 6232.34375 4087.390625 6220.292969 4092.992188 C 6200.539062 4102.242188 6184.339844 4120.492188 6177.140625 4141.695312 C 6173.738281 4151.695312 6173.089844 4156.042969 6173.089844 4168.695312 C 6173.089844 4178.496094 6173.238281 4180.597656 6174.1875 4185.195312 C 6176.589844 4196.246094 6180.890625 4206.445312 6187.191406 4215.949219 C 6191.941406 4223.097656 6202.289062 4233.398438 6209.441406 4238.097656 C 6224.042969 4247.648438 6238.941406 4252.25 6255.792969 4252.300781 C 6268.195312 4252.347656 6275.746094 4250.898438 6289.34375 4245.898438 C 6360.046875 4219.898438 6433.351562 4205.148438 6508.957031 4201.695312 C 6523.207031 4201.046875 6551.355469 4201.046875 6560.308594 4201.695312 C 6564.007812 4201.945312 6573.609375 4202.496094 6581.558594 4202.945312 C 6614.210938 4204.695312 6640.5625 4207.546875 6671.3125 4212.699219 C 6692.164062 4216.148438 6728.714844 4224.648438 6753.316406 4231.75 C 6827.21875 4253.097656 6897.574219 4290.449219 6956.574219 4339.703125 C 6978.578125 4358.105469 6994.628906 4373.953125 7010.527344 4392.957031 C 7030.628906 4417.058594 7046.730469 4444.308594 7058.582031 4474.160156 C 7062.179688 4483.261719 7067.679688 4499.5625 7067.28125 4499.960938 C 7067.132812 4500.0625 7062.429688 4501.761719 7056.832031 4503.710938 C 7008.128906 4520.710938 6955.625 4546.964844 6883.074219 4590.464844 C 6848.421875 4611.214844 6822.019531 4627.816406 6747.816406 4675.46875 C 6662.210938 4730.421875 6629.109375 4751.171875 6582.308594 4779.222656 C 6499.90625 4828.675781 6426.453125 4867.578125 6359.046875 4897.578125 C 6213.292969 4962.484375 6083.285156 4992.285156 5961.378906 4988.785156 C 5932.726562 4987.984375 5916.226562 4986.882812 5892.027344 4984.183594 C 5793.671875 4973.28125 5702.46875 4944.132812 5607.363281 4893.179688 C 5557.558594 4866.476562 5502.609375 4831.476562 5433.253906 4782.273438 C 5389.300781 4751.121094 5367.800781 4735.371094 5363.203125 4731.023438 C 5357.199219 4725.320312 5352 4721.570312 5344.449219 4717.570312 C 5340.699219 4715.570312 5332.5 4710.171875 5322.25 4702.921875 C 5277.046875 4670.820312 5236.796875 4643.96875 5201.742188 4622.464844 C 5054.886719 4532.414062 4922.28125 4489.410156 4774.222656 4483.710938 C 4765.722656 4483.410156 4665.21875 4483.210938 4493.359375 4483.210938 L 4225.796875 4483.210938 L 4228.449219 4476.308594 C 4246 4430.609375 4274.949219 4389.753906 4315.703125 4353.203125 C 4379.105469 4296.300781 4455.707031 4254.050781 4537.261719 4231 C 4559.8125 4224.648438 4600.515625 4215.148438 4614.964844 4212.949219 C 4617.464844 4212.597656 4623.867188 4211.597656 4629.21875 4210.746094 C 4652.617188 4207.148438 4677.46875 4204.546875 4701.96875 4203.195312 C 4707.21875 4202.898438 4717.121094 4202.347656 4723.972656 4201.898438 C 4744.074219 4200.597656 4776.472656 4201.246094 4804.726562 4203.445312 C 4866.476562 4208.347656 4929.730469 4221.597656 4985.183594 4241.25 C 5081.039062 4275.300781 5158.84375 4327.003906 5211.792969 4391.957031 C 5224.894531 4408.007812 5237.59375 4416.957031 5254.597656 4422.15625 C 5264.195312 4425.105469 5266.945312 4425.457031 5279.746094 4425.457031 C 5290.847656 4425.40625 5291.847656 4425.359375 5297.5 4424.007812 C 5307.796875 4421.605469 5316.800781 4417.808594 5325.25 4412.308594 C 5363.902344 4387.253906 5374.902344 4334.902344 5349.601562 4296.300781 C 5338.800781 4279.800781 5295.398438 4235.546875 5263.996094 4208.949219 C 5195.84375 4151.246094 5117.640625 4107.042969 5033.4375 4078.542969 C 5030.035156 4077.390625 5027.234375 4076.339844 5027.234375 4076.191406 C 5027.234375 4075.589844 5074.136719 4062.992188 5107.238281 4054.738281 C 5301.949219 4006.039062 5499.859375 3979.9375 5700.515625 3976.535156 C 5721.46875 3976.1875 5782.972656 3976.285156 5802.023438 3976.6875 Z M 4660.71875 4679.46875 L 4660.71875 4708.21875 L 4391.105469 4708.121094 L 4121.441406 4707.96875 L 4117.542969 4706.570312 C 4110.09375 4703.96875 4104.34375 4699.171875 4100.992188 4692.769531 C 4097.890625 4686.820312 4097.691406 4685.417969 4097.691406 4667.117188 L 4097.691406 4650.71875 L 4660.71875 4650.71875 Z M 7190.238281 4667.570312 C 7190.035156 4682.019531 7189.886719 4684.871094 7189.136719 4687.21875 C 7185.6875 4697.871094 7176.886719 4705.671875 7166.234375 4707.519531 C 7162.734375 4708.121094 7150.183594 4708.21875 7088.132812 4708.121094 L 7014.230469 4707.96875 L 7026.378906 4701.320312 C 7042.28125 4692.621094 7070.53125 4678.519531 7082.832031 4673.117188 C 7111.183594 4660.667969 7134.632812 4653.269531 7152.335938 4651.269531 C 7154.386719 4651.019531 7163.785156 4650.816406 7173.234375 4650.769531 L 7190.4375 4650.71875 Z M 4842.476562 4659.96875 C 4881.628906 4666.320312 4924.730469 4677.371094 4962.734375 4690.820312 C 4972.882812 4694.421875 4999.085938 4704.621094 5004.734375 4707.171875 L 5006.984375 4708.21875 L 4828.226562 4708.21875 L 4828.226562 4657.667969 L 4829.875 4657.917969 C 4830.726562 4658.066406 4836.425781 4659.019531 4842.476562 4659.96875 Z M 6760.765625 4875.179688 C 6764.21875 4875.578125 6806.96875 4875.730469 6890.921875 4875.730469 L 7015.878906 4875.730469 L 7015.628906 4878.328125 C 7015.480469 4879.777344 6992.726562 5220.746094 6965.078125 5636.015625 C 6937.425781 6051.285156 6914.675781 6391.800781 6914.523438 6392.648438 L 6914.273438 6394.300781 L 6739.316406 6394.300781 L 6739.414062 5636.914062 L 6739.566406 4879.527344 L 6744.464844 4876.480469 L 6749.316406 4873.378906 L 6752.464844 4874.027344 C 6754.167969 4874.378906 6757.917969 4874.929688 6760.765625 4875.179688 Z M 4548.214844 5635.015625 L 4548.214844 6394.300781 L 4460.710938 6394.300781 C 4412.605469 6394.300781 4373.203125 6394.148438 4373.203125 6393.898438 C 4373.15625 6393.699219 4350.355469 6052.035156 4322.550781 5634.613281 L 4271.898438 4875.730469 L 4548.214844 4875.730469 Z M 5297.296875 4891.277344 C 5387.851562 4956.480469 5442.15625 4992.433594 5499.109375 5024.886719 C 5536.410156 5046.1875 5576.960938 5066.488281 5612.714844 5081.839844 C 5709.816406 5123.539062 5809.421875 5147.441406 5915.027344 5154.492188 C 6014.933594 5161.09375 6108.585938 5152.542969 6209.339844 5127.492188 C 6306.046875 5103.4375 6407.101562 5064.1875 6515.707031 5008.535156 C 6535.707031 4998.285156 6565.40625 4982.535156 6570.207031 4979.632812 L 6571.808594 4978.632812 L 6571.808594 6394.300781 L 4715.722656 6394.300781 L 4715.722656 4875.730469 L 5275.699219 4875.730469 Z M 6909.324219 6590.558594 L 6909.324219 6619.308594 L 4378.707031 6619.308594 L 4378.707031 6561.808594 L 6909.324219 6561.808594 Z M 4526.710938 7012.578125 C 4531.761719 7013.929688 4535.710938 7016.277344 4539.710938 7020.277344 C 4551.0625 7031.730469 4551.0625 7048.980469 4539.710938 7060.332031 C 4528.363281 7071.679688 4511.113281 7071.679688 4499.710938 7060.332031 C 4493.660156 7054.378906 4491.210938 7048.53125 4491.210938 7040.328125 C 4491.210938 7037.980469 4491.558594 7034.730469 4491.960938 7033.128906 C 4494.460938 7023.578125 4502.761719 7015.179688 4512.261719 7012.628906 C 4515.761719 7011.679688 4523.261719 7011.628906 4526.710938 7012.578125 Z M 6777.167969 7013.277344 C 6786.066406 7016.378906 6792.96875 7023.578125 6795.617188 7032.578125 C 6796.917969 7036.980469 6796.820312 7044.582031 6795.367188 7048.832031 C 6792.320312 7057.628906 6785.566406 7064.429688 6776.917969 7067.429688 C 6774.21875 7068.382812 6772.515625 7068.582031 6768.066406 7068.582031 C 6761.617188 7068.582031 6757.765625 7067.480469 6752.867188 7064.332031 C 6744.316406 7058.78125 6739.566406 7050.230469 6739.617188 7040.328125 C 6739.664062 7029.078125 6745.464844 7019.730469 6755.667969 7014.628906 C 6759.515625 7012.679688 6763.117188 7011.878906 6768.316406 7011.878906 C 6772.265625 7011.828125 6773.71875 7012.078125 6777.167969 7013.277344 Z M 6777.167969 7013.277344 "/>
</g>
</svg>
