<?xml version="1.0" encoding="UTF-8"?>
<svg xmlns="http://www.w3.org/2000/svg" xmlns:xlink="http://www.w3.org/1999/xlink" viewBox="0 0 24 24" version="1.1">
<g>
<path style=" stroke:none;fill-rule:nonzero;fill:rgb(0%,0%,0%);fill-opacity:1;" d="M 14.617188 2.695312 L 14.617188 3.242188 L 19.867188 3.242188 L 15.40625 7.707031 L 10.945312 12.167969 L 11.332031 12.554688 L 11.71875 12.945312 L 20.644531 4.019531 L 20.644531 9.269531 L 21.742188 9.269531 L 21.742188 6.222656 C 21.742188 3.863281 21.742188 3.171875 21.738281 3.160156 C 21.730469 3.050781 21.714844 2.984375 21.6875 2.898438 C 21.667969 2.84375 21.652344 2.804688 21.625 2.75 C 21.582031 2.664062 21.539062 2.597656 21.476562 2.523438 C 21.453125 2.5 21.40625 2.449219 21.378906 2.425781 C 21.195312 2.261719 20.964844 2.164062 20.714844 2.148438 C 20.703125 2.144531 19.648438 2.144531 17.65625 2.144531 L 14.617188 2.144531 Z M 14.617188 2.695312 "/>
<path style=" stroke:none;fill-rule:nonzero;fill:rgb(0%,0%,0%);fill-opacity:1;" d="M 4.652344 3.242188 C 4.1875 3.261719 3.742188 3.394531 3.347656 3.632812 C 2.808594 3.957031 2.394531 4.457031 2.179688 5.050781 C 2.085938 5.308594 2.035156 5.570312 2.019531 5.859375 C 2.019531 5.910156 2.019531 19.199219 2.019531 19.253906 C 2.027344 19.40625 2.042969 19.53125 2.070312 19.671875 C 2.203125 20.328125 2.574219 20.917969 3.113281 21.324219 C 3.515625 21.625 3.992188 21.808594 4.492188 21.855469 C 4.566406 21.863281 4.625 21.867188 4.714844 21.871094 C 4.828125 21.871094 17.976562 21.871094 18.019531 21.867188 C 18.117188 21.863281 18.179688 21.859375 18.25 21.847656 C 18.523438 21.816406 18.78125 21.742188 19.03125 21.628906 C 19.070312 21.609375 19.167969 21.5625 19.207031 21.542969 C 19.53125 21.367188 19.816406 21.128906 20.046875 20.839844 C 20.140625 20.722656 20.226562 20.59375 20.300781 20.464844 C 20.464844 20.175781 20.570312 19.855469 20.617188 19.527344 C 20.632812 19.433594 20.636719 19.371094 20.644531 19.25 C 20.644531 19.230469 20.648438 18.296875 20.648438 15.339844 L 20.648438 11.460938 L 19.550781 11.460938 L 19.550781 15.296875 C 19.550781 17.796875 19.550781 19.148438 19.550781 19.175781 C 19.546875 19.300781 19.53125 19.410156 19.5 19.527344 C 19.351562 20.136719 18.855469 20.613281 18.242188 20.738281 C 18.171875 20.753906 18.109375 20.761719 18.011719 20.769531 C 17.984375 20.773438 4.734375 20.773438 4.683594 20.769531 C 4.453125 20.761719 4.230469 20.703125 4.027344 20.601562 C 3.804688 20.492188 3.613281 20.332031 3.460938 20.136719 C 3.265625 19.890625 3.148438 19.589844 3.121094 19.277344 C 3.121094 19.261719 3.117188 19.234375 3.117188 19.21875 C 3.113281 19.175781 3.113281 5.9375 3.117188 5.894531 C 3.128906 5.695312 3.171875 5.519531 3.242188 5.347656 C 3.460938 4.828125 3.933594 4.453125 4.484375 4.359375 C 4.539062 4.351562 4.585938 4.347656 4.660156 4.339844 C 4.675781 4.339844 5.53125 4.339844 8.554688 4.339844 L 12.429688 4.339844 L 12.429688 3.242188 L 8.554688 3.242188 C 6.425781 3.242188 4.667969 3.242188 4.652344 3.242188 Z M 4.652344 3.242188 "/>
</g>
</svg>
