<?xml version="1.0" encoding="UTF-8"?>
<svg xmlns="http://www.w3.org/2000/svg" xmlns:xlink="http://www.w3.org/1999/xlink" viewBox="0 0 24 24" version="1.1">
<g>
<path style=" stroke:none;fill-rule:nonzero;fill:rgb(0%,0%,0%);fill-opacity:1;" d="M 11.941406 2.582031 C 11.84375 2.589844 11.746094 2.617188 11.671875 2.660156 C 11.664062 2.667969 11.652344 2.671875 11.648438 2.675781 C 11.644531 2.675781 11.640625 2.679688 11.640625 2.679688 C 11.636719 2.683594 11.617188 2.699219 11.613281 2.699219 C 11.613281 2.699219 11.597656 2.710938 11.589844 2.71875 C 11.582031 2.722656 11.578125 2.726562 11.578125 2.726562 C 11.574219 2.726562 7.945312 6.355469 7.921875 6.378906 C 7.84375 6.464844 7.792969 6.574219 7.773438 6.691406 C 7.757812 6.785156 7.765625 6.886719 7.796875 6.976562 C 7.816406 7.035156 7.847656 7.097656 7.882812 7.144531 C 7.910156 7.183594 7.945312 7.222656 7.980469 7.25 C 8.074219 7.332031 8.183594 7.378906 8.304688 7.394531 C 8.332031 7.394531 8.386719 7.398438 8.414062 7.394531 C 8.546875 7.386719 8.667969 7.335938 8.769531 7.25 C 8.777344 7.242188 9.367188 6.65625 10.074219 5.949219 L 11.367188 4.660156 L 11.367188 9.320312 C 11.367188 11.882812 11.367188 13.980469 11.367188 13.984375 C 11.367188 13.988281 11.371094 14 11.371094 14.007812 C 11.382812 14.070312 11.398438 14.128906 11.425781 14.183594 C 11.511719 14.359375 11.671875 14.484375 11.863281 14.519531 C 11.902344 14.527344 11.921875 14.527344 11.972656 14.527344 C 12.023438 14.527344 12.03125 14.527344 12.074219 14.519531 C 12.234375 14.496094 12.382812 14.398438 12.476562 14.265625 C 12.53125 14.179688 12.5625 14.097656 12.578125 13.992188 C 12.582031 13.972656 12.582031 13.726562 12.582031 9.316406 L 12.582031 4.660156 L 13.871094 5.949219 C 14.582031 6.65625 15.167969 7.242188 15.175781 7.25 C 15.269531 7.332031 15.386719 7.378906 15.515625 7.394531 C 15.535156 7.398438 15.609375 7.398438 15.632812 7.394531 C 15.8125 7.375 15.96875 7.285156 16.074219 7.136719 C 16.160156 7.011719 16.195312 6.855469 16.175781 6.703125 C 16.160156 6.589844 16.109375 6.484375 16.035156 6.394531 C 16.019531 6.375 12.425781 2.777344 12.390625 2.746094 C 12.355469 2.714844 12.347656 2.707031 12.328125 2.695312 C 12.320312 2.691406 12.3125 2.683594 12.308594 2.679688 C 12.304688 2.679688 12.300781 2.675781 12.296875 2.671875 C 12.292969 2.671875 12.285156 2.667969 12.277344 2.660156 C 12.25 2.644531 12.210938 2.625 12.171875 2.613281 C 12.117188 2.59375 12.066406 2.585938 12.003906 2.582031 C 11.972656 2.582031 11.972656 2.582031 11.941406 2.582031 Z M 11.941406 2.582031 "/>
<path style=" stroke:none;fill-rule:nonzero;fill:rgb(0%,0%,0%);fill-opacity:1;" d="M 3.269531 13.609375 C 3.070312 13.621094 2.890625 13.726562 2.785156 13.898438 C 2.738281 13.972656 2.707031 14.0625 2.695312 14.15625 C 2.695312 14.171875 2.695312 14.503906 2.695312 15.957031 C 2.695312 17.820312 2.695312 17.75 2.699219 17.839844 C 2.742188 18.433594 2.964844 18.996094 3.351562 19.457031 C 3.445312 19.570312 3.554688 19.683594 3.667969 19.785156 C 3.78125 19.882812 3.90625 19.976562 4.039062 20.058594 C 4.183594 20.148438 4.351562 20.230469 4.511719 20.292969 C 4.808594 20.410156 5.121094 20.472656 5.445312 20.480469 C 5.519531 20.484375 18.511719 20.484375 18.546875 20.480469 C 18.640625 20.476562 18.695312 20.46875 18.753906 20.464844 C 19.148438 20.414062 19.527344 20.285156 19.867188 20.082031 C 20.105469 19.9375 20.324219 19.761719 20.511719 19.554688 C 20.929688 19.097656 21.183594 18.523438 21.242188 17.914062 C 21.246094 17.847656 21.25 17.789062 21.253906 17.71875 C 21.253906 17.648438 21.253906 14.214844 21.253906 14.183594 C 21.242188 14.046875 21.195312 13.925781 21.109375 13.824219 C 21.09375 13.804688 21.054688 13.765625 21.035156 13.75 C 20.96875 13.695312 20.894531 13.65625 20.816406 13.632812 C 20.707031 13.601562 20.589844 13.601562 20.484375 13.632812 C 20.34375 13.671875 20.21875 13.757812 20.140625 13.878906 C 20.078125 13.96875 20.046875 14.066406 20.039062 14.175781 C 20.039062 14.1875 20.035156 14.804688 20.035156 15.9375 C 20.035156 17.097656 20.035156 17.695312 20.035156 17.714844 C 20.035156 17.730469 20.035156 17.757812 20.03125 17.773438 C 20.007812 18.066406 19.902344 18.351562 19.726562 18.59375 C 19.675781 18.664062 19.625 18.726562 19.558594 18.789062 C 19.480469 18.871094 19.402344 18.933594 19.308594 18.996094 C 19.0625 19.160156 18.785156 19.25 18.492188 19.265625 C 18.46875 19.265625 16.664062 19.265625 11.953125 19.265625 C 5.832031 19.265625 5.441406 19.265625 5.417969 19.261719 C 5.316406 19.253906 5.253906 19.246094 5.171875 19.226562 C 4.972656 19.179688 4.78125 19.097656 4.613281 18.980469 C 4.441406 18.863281 4.296875 18.714844 4.179688 18.539062 C 4.019531 18.292969 3.925781 18.019531 3.910156 17.726562 C 3.910156 17.707031 3.910156 17.113281 3.910156 15.953125 C 3.910156 14.816406 3.910156 14.199219 3.910156 14.183594 C 3.90625 14.101562 3.886719 14.027344 3.851562 13.953125 C 3.746094 13.734375 3.515625 13.597656 3.269531 13.609375 Z M 3.269531 13.609375 "/>
</g>
</svg>
