<?xml version="1.0" encoding="UTF-8"?>
<svg xmlns="http://www.w3.org/2000/svg" xmlns:xlink="http://www.w3.org/1999/xlink" viewBox="0 0 24 24" version="1.1">
<g>
<path style=" stroke:none;fill-rule:nonzero;fill:rgb(0%,0%,0%);fill-opacity:1;" d="M 13.351562 2.726562 C 13.117188 2.734375 12.890625 2.757812 12.664062 2.796875 C 12.144531 2.890625 11.652344 3.070312 11.191406 3.332031 C 10.898438 3.5 10.617188 3.707031 10.367188 3.9375 C 10.277344 4.019531 10.175781 4.121094 10.097656 4.207031 C 9.765625 4.570312 9.492188 4.980469 9.292969 5.421875 C 9.25 5.523438 9.203125 5.632812 9.164062 5.738281 C 9.160156 5.75 9.15625 5.761719 9.15625 5.765625 C 9.15625 5.765625 9.136719 5.757812 9.113281 5.75 C 9.039062 5.730469 8.933594 5.699219 8.847656 5.683594 C 8.65625 5.640625 8.484375 5.617188 8.273438 5.605469 C 8.226562 5.601562 8.054688 5.601562 8.003906 5.605469 C 7.84375 5.609375 7.699219 5.625 7.546875 5.648438 C 6.910156 5.757812 6.3125 6.046875 5.832031 6.484375 C 5.75 6.558594 5.65625 6.65625 5.582031 6.738281 C 5.277344 7.082031 5.042969 7.484375 4.898438 7.921875 C 4.847656 8.070312 4.8125 8.210938 4.78125 8.371094 C 4.777344 8.390625 4.773438 8.40625 4.773438 8.40625 C 4.773438 8.40625 4.757812 8.410156 4.738281 8.417969 C 4.355469 8.519531 3.996094 8.671875 3.660156 8.875 C 3.546875 8.941406 3.421875 9.027344 3.320312 9.105469 C 2.917969 9.410156 2.582031 9.78125 2.324219 10.210938 C 2.019531 10.714844 1.832031 11.285156 1.769531 11.890625 C 1.742188 12.152344 1.742188 12.417969 1.761719 12.667969 C 1.832031 13.449219 2.144531 14.207031 2.652344 14.839844 C 2.824219 15.054688 3.023438 15.257812 3.238281 15.433594 C 3.914062 16 4.734375 16.324219 5.589844 16.367188 C 5.703125 16.375 5.824219 16.375 5.863281 16.367188 C 5.914062 16.363281 5.960938 16.351562 6.007812 16.332031 C 6.191406 16.261719 6.324219 16.097656 6.363281 15.90625 C 6.378906 15.832031 6.378906 15.757812 6.363281 15.683594 C 6.316406 15.441406 6.117188 15.253906 5.878906 15.222656 C 5.847656 15.21875 5.832031 15.214844 5.757812 15.214844 C 5.714844 15.214844 5.675781 15.214844 5.671875 15.214844 C 5.664062 15.210938 5.648438 15.210938 5.632812 15.210938 C 5.496094 15.203125 5.339844 15.183594 5.199219 15.148438 C 4.691406 15.039062 4.214844 14.78125 3.824219 14.410156 C 3.289062 13.898438 2.960938 13.214844 2.910156 12.511719 C 2.902344 12.398438 2.902344 12.265625 2.910156 12.140625 C 2.945312 11.53125 3.152344 10.96875 3.515625 10.511719 C 3.75 10.214844 4.054688 9.964844 4.402344 9.78125 C 4.695312 9.625 5.015625 9.519531 5.351562 9.46875 C 5.410156 9.457031 5.421875 9.457031 5.441406 9.449219 C 5.523438 9.429688 5.601562 9.394531 5.667969 9.339844 C 5.6875 9.324219 5.722656 9.289062 5.738281 9.269531 C 5.816406 9.183594 5.863281 9.074219 5.875 8.957031 C 5.878906 8.945312 5.878906 8.917969 5.878906 8.898438 C 5.882812 8.753906 5.910156 8.585938 5.945312 8.4375 C 5.964844 8.367188 5.992188 8.273438 6.019531 8.207031 C 6.152344 7.855469 6.371094 7.542969 6.660156 7.292969 C 6.828125 7.152344 7.015625 7.035156 7.214844 6.945312 C 7.632812 6.761719 8.105469 6.710938 8.554688 6.800781 C 8.792969 6.851562 9.003906 6.929688 9.222656 7.054688 C 9.265625 7.078125 9.28125 7.085938 9.308594 7.097656 C 9.355469 7.117188 9.40625 7.128906 9.457031 7.136719 C 9.488281 7.140625 9.550781 7.140625 9.582031 7.140625 C 9.65625 7.132812 9.726562 7.113281 9.792969 7.078125 C 9.90625 7.019531 9.996094 6.929688 10.054688 6.808594 C 10.082031 6.761719 10.097656 6.710938 10.105469 6.652344 C 10.109375 6.628906 10.117188 6.589844 10.128906 6.539062 C 10.296875 5.8125 10.699219 5.15625 11.28125 4.675781 C 11.675781 4.347656 12.136719 4.113281 12.628906 3.988281 C 12.832031 3.9375 13.046875 3.902344 13.253906 3.890625 C 13.335938 3.886719 13.363281 3.882812 13.46875 3.882812 C 13.59375 3.882812 13.652344 3.886719 13.757812 3.894531 C 14.433594 3.953125 15.070312 4.207031 15.601562 4.628906 C 16.148438 5.0625 16.550781 5.65625 16.753906 6.324219 C 16.828125 6.578125 16.875 6.835938 16.890625 7.097656 C 16.894531 7.179688 16.894531 7.210938 16.894531 7.324219 C 16.894531 7.46875 16.894531 7.523438 16.882812 7.640625 C 16.878906 7.6875 16.875 7.75 16.878906 7.785156 C 16.902344 7.980469 17.019531 8.148438 17.191406 8.238281 C 17.25 8.269531 17.308594 8.285156 17.375 8.296875 C 17.394531 8.296875 17.402344 8.296875 17.445312 8.296875 C 17.46875 8.296875 17.496094 8.296875 17.5 8.296875 C 17.507812 8.296875 17.511719 8.296875 17.511719 8.296875 C 17.511719 8.296875 17.53125 8.296875 17.550781 8.292969 C 17.589844 8.289062 17.628906 8.285156 17.664062 8.285156 C 17.699219 8.28125 17.945312 8.28125 17.996094 8.28125 C 18.097656 8.285156 18.191406 8.292969 18.285156 8.304688 C 18.941406 8.378906 19.5625 8.640625 20.078125 9.0625 C 20.375 9.304688 20.632812 9.597656 20.835938 9.925781 C 21.121094 10.390625 21.296875 10.921875 21.339844 11.464844 C 21.347656 11.570312 21.347656 11.628906 21.351562 11.746094 C 21.351562 11.851562 21.347656 11.878906 21.34375 11.960938 C 21.3125 12.472656 21.167969 12.96875 20.921875 13.417969 C 20.796875 13.644531 20.644531 13.863281 20.472656 14.058594 C 20.414062 14.121094 20.316406 14.222656 20.257812 14.277344 C 19.699219 14.796875 19.003906 15.117188 18.253906 15.195312 C 18.144531 15.207031 18.050781 15.214844 17.925781 15.214844 C 17.847656 15.214844 17.832031 15.21875 17.800781 15.222656 C 17.679688 15.238281 17.5625 15.296875 17.472656 15.386719 C 17.34375 15.511719 17.285156 15.691406 17.308594 15.871094 C 17.332031 16.046875 17.433594 16.199219 17.585938 16.289062 C 17.65625 16.332031 17.730469 16.359375 17.816406 16.367188 C 17.859375 16.375 18.019531 16.371094 18.15625 16.363281 C 18.851562 16.324219 19.519531 16.128906 20.128906 15.792969 C 20.554688 15.554688 20.953125 15.242188 21.285156 14.882812 C 21.671875 14.460938 21.976562 13.976562 22.183594 13.449219 C 22.449219 12.777344 22.554688 12.050781 22.488281 11.320312 C 22.421875 10.601562 22.191406 9.910156 21.804688 9.296875 C 21.585938 8.945312 21.320312 8.621094 21.015625 8.34375 C 20.628906 7.988281 20.1875 7.703125 19.707031 7.496094 C 19.527344 7.417969 19.34375 7.351562 19.152344 7.300781 C 18.855469 7.214844 18.542969 7.160156 18.230469 7.136719 C 18.175781 7.132812 18.117188 7.128906 18.082031 7.128906 C 18.066406 7.125 18.054688 7.125 18.054688 7.125 C 18.050781 7.125 18.050781 7.125 18.046875 7.085938 C 18.015625 6.339844 17.792969 5.605469 17.40625 4.960938 C 17.023438 4.320312 16.488281 3.78125 15.851562 3.394531 C 15.6875 3.292969 15.503906 3.199219 15.328125 3.117188 C 14.917969 2.9375 14.488281 2.816406 14.039062 2.761719 C 13.90625 2.746094 13.777344 2.734375 13.628906 2.730469 C 13.578125 2.726562 13.40625 2.726562 13.351562 2.726562 Z M 13.351562 2.726562 "/>
<path style=" stroke:none;fill-rule:nonzero;fill:rgb(0%,0%,0%);fill-opacity:1;" d="M 12.085938 11.292969 C 12.007812 11.300781 11.933594 11.320312 11.867188 11.351562 C 11.847656 11.363281 11.832031 11.371094 11.808594 11.386719 C 11.769531 11.414062 11.769531 11.414062 11.753906 11.425781 C 11.734375 11.445312 8.839844 14.339844 8.824219 14.355469 C 8.757812 14.433594 8.710938 14.527344 8.695312 14.628906 C 8.6875 14.667969 8.683594 14.683594 8.683594 14.734375 C 8.683594 14.78125 8.6875 14.800781 8.695312 14.839844 C 8.722656 14.992188 8.8125 15.128906 8.941406 15.214844 C 9.019531 15.265625 9.105469 15.296875 9.199219 15.308594 C 9.230469 15.3125 9.296875 15.3125 9.328125 15.308594 C 9.40625 15.300781 9.484375 15.273438 9.550781 15.238281 C 9.570312 15.222656 9.605469 15.203125 9.625 15.183594 C 9.640625 15.171875 9.734375 15.078125 10.144531 14.667969 C 10.421875 14.394531 10.851562 13.964844 11.097656 13.71875 L 11.546875 13.265625 L 11.550781 16.863281 C 11.550781 20.246094 11.550781 20.460938 11.550781 20.476562 C 11.5625 20.546875 11.578125 20.601562 11.605469 20.660156 C 11.617188 20.6875 11.625 20.703125 11.644531 20.730469 C 11.734375 20.863281 11.875 20.953125 12.027344 20.980469 C 12.066406 20.988281 12.082031 20.988281 12.128906 20.988281 C 12.171875 20.988281 12.191406 20.988281 12.226562 20.980469 C 12.339844 20.960938 12.449219 20.90625 12.53125 20.824219 C 12.632812 20.726562 12.695312 20.59375 12.703125 20.449219 C 12.707031 20.4375 12.707031 19.191406 12.707031 16.847656 L 12.707031 13.265625 L 13.652344 14.210938 C 14.171875 14.730469 14.605469 15.164062 14.613281 15.171875 C 14.703125 15.25 14.808594 15.292969 14.929688 15.308594 C 14.957031 15.3125 15.027344 15.3125 15.058594 15.308594 C 15.1875 15.292969 15.304688 15.238281 15.394531 15.148438 C 15.492188 15.054688 15.550781 14.9375 15.566406 14.800781 C 15.570312 14.769531 15.570312 14.699219 15.566406 14.667969 C 15.558594 14.597656 15.542969 14.539062 15.511719 14.480469 C 15.488281 14.429688 15.453125 14.378906 15.417969 14.34375 C 15.390625 14.3125 12.511719 11.4375 12.5 11.425781 C 12.480469 11.410156 12.472656 11.402344 12.441406 11.382812 C 12.371094 11.335938 12.289062 11.304688 12.195312 11.296875 C 12.179688 11.292969 12.105469 11.292969 12.085938 11.292969 Z M 12.085938 11.292969 "/>
</g>
</svg>
