<?xml version="1.0" encoding="UTF-8"?>
<svg xmlns="http://www.w3.org/2000/svg" xmlns:xlink="http://www.w3.org/1999/xlink" viewBox="0 0 24 24" version="1.1">
<g>
<path style=" stroke:none;fill-rule:nonzero;fill:rgb(0%,0%,0%);fill-opacity:1;" d="M 11.65625 3.269531 C 11.394531 3.273438 11.105469 3.289062 10.835938 3.316406 C 9.644531 3.4375 8.492188 3.800781 7.445312 4.378906 C 6.652344 4.820312 5.925781 5.378906 5.300781 6.042969 C 4.457031 6.925781 3.804688 7.976562 3.386719 9.121094 C 3.070312 9.996094 2.890625 10.910156 2.855469 11.847656 C 2.851562 11.960938 2.851562 12.011719 2.851562 12.175781 C 2.851562 12.339844 2.851562 12.386719 2.855469 12.503906 C 2.90625 13.882812 3.269531 15.21875 3.929688 16.425781 C 4.453125 17.394531 5.160156 18.261719 6.003906 18.972656 C 7.050781 19.859375 8.28125 20.492188 9.605469 20.816406 C 10.210938 20.96875 10.824219 21.054688 11.453125 21.074219 C 11.636719 21.082031 11.875 21.082031 12.058594 21.074219 C 12.984375 21.042969 13.878906 20.875 14.746094 20.566406 C 15.90625 20.152344 16.976562 19.496094 17.878906 18.640625 C 18.023438 18.503906 18.179688 18.34375 18.316406 18.195312 C 18.929688 17.527344 19.4375 16.773438 19.820312 15.957031 C 20.320312 14.890625 20.601562 13.734375 20.652344 12.550781 C 20.6875 11.722656 20.609375 10.902344 20.417969 10.101562 C 20.226562 9.296875 19.917969 8.515625 19.511719 7.796875 C 18.691406 6.347656 17.480469 5.152344 16.019531 4.355469 C 15.210938 3.914062 14.34375 3.601562 13.441406 3.429688 C 12.921875 3.332031 12.414062 3.277344 11.878906 3.269531 C 11.796875 3.269531 11.75 3.269531 11.65625 3.269531 Z M 11.90625 3.871094 C 12.070312 3.875 12.21875 3.882812 12.371094 3.890625 C 13.59375 3.980469 14.773438 4.339844 15.835938 4.941406 C 16.324219 5.21875 16.789062 5.546875 17.214844 5.914062 C 17.445312 6.117188 17.667969 6.335938 17.875 6.5625 C 18.5625 7.308594 19.105469 8.171875 19.476562 9.109375 C 19.828125 9.996094 20.023438 10.929688 20.054688 11.890625 C 20.0625 12.0625 20.0625 12.285156 20.054688 12.457031 C 20.019531 13.488281 19.796875 14.492188 19.394531 15.4375 C 19.300781 15.660156 19.183594 15.898438 19.070312 16.113281 C 18.753906 16.699219 18.363281 17.25 17.914062 17.746094 L 17.875 17.789062 L 12.007812 11.921875 C 8.78125 8.695312 6.140625 6.054688 6.140625 6.054688 C 6.140625 6.054688 6.246094 5.957031 6.316406 5.898438 C 6.777344 5.5 7.273438 5.15625 7.8125 4.863281 C 7.957031 4.785156 8.132812 4.699219 8.285156 4.628906 C 9.242188 4.1875 10.277344 3.933594 11.335938 3.878906 C 11.515625 3.871094 11.730469 3.867188 11.90625 3.871094 Z M 17.453125 18.214844 C 17.453125 18.21875 17.34375 18.316406 17.28125 18.375 C 16.253906 19.289062 15.027344 19.933594 13.699219 20.25 C 12.960938 20.429688 12.199219 20.503906 11.433594 20.472656 C 10.070312 20.421875 8.753906 20.039062 7.574219 19.351562 C 6.667969 18.824219 5.867188 18.125 5.214844 17.296875 C 4.625 16.539062 4.167969 15.6875 3.867188 14.78125 C 3.625 14.050781 3.488281 13.289062 3.457031 12.519531 C 3.453125 12.390625 3.453125 12.359375 3.453125 12.175781 C 3.453125 11.992188 3.453125 11.960938 3.457031 11.832031 C 3.480469 11.257812 3.5625 10.691406 3.703125 10.136719 C 4.03125 8.832031 4.675781 7.625 5.582031 6.621094 C 5.625 6.570312 5.664062 6.527344 5.695312 6.5 L 5.714844 6.476562 L 11.582031 12.347656 C 14.8125 15.574219 17.453125 18.214844 17.453125 18.214844 Z M 17.453125 18.214844 "/>
<path style=" stroke:none;fill-rule:nonzero;fill:rgb(0%,0%,0%);fill-opacity:1;" d="M 13.539062 5.875 C 13.382812 5.878906 13.199219 5.90625 13.097656 5.941406 C 12.890625 6.011719 12.730469 6.160156 12.644531 6.363281 C 12.625 6.410156 12.609375 6.46875 12.597656 6.519531 C 12.585938 6.582031 12.585938 6.652344 12.589844 6.714844 C 12.589844 6.722656 12.601562 6.816406 12.617188 6.925781 C 12.652344 7.195312 12.652344 7.210938 12.660156 7.328125 C 12.660156 7.371094 12.660156 7.527344 12.660156 7.570312 C 12.652344 7.699219 12.640625 7.804688 12.621094 7.917969 C 12.609375 7.96875 12.59375 8.050781 12.59375 8.050781 C 12.59375 8.054688 12.570312 8.050781 12.546875 8.046875 C 12.378906 8.019531 12.234375 8.007812 12.054688 8 C 12.039062 7.996094 11.984375 7.996094 11.933594 7.996094 C 11.683594 7.992188 11.441406 8.011719 11.195312 8.054688 C 11.167969 8.058594 11.148438 8.0625 11.148438 8.0625 C 11.148438 8.0625 11.144531 8.058594 11.144531 8.054688 C 11.117188 7.886719 11.105469 7.769531 11.109375 7.613281 C 11.109375 7.492188 11.113281 7.46875 11.140625 7.230469 C 11.148438 7.144531 11.160156 7.070312 11.160156 7.058594 C 11.160156 7.035156 11.160156 6.972656 11.160156 6.945312 C 11.136719 6.703125 10.992188 6.492188 10.777344 6.386719 C 10.703125 6.351562 10.640625 6.332031 10.527344 6.316406 C 10.378906 6.292969 10.21875 6.289062 10.070312 6.304688 C 9.703125 6.34375 9.359375 6.492188 9.078125 6.734375 C 8.960938 6.835938 8.863281 6.953125 8.773438 7.082031 C 8.746094 7.125 8.730469 7.148438 8.714844 7.1875 C 8.648438 7.320312 8.628906 7.46875 8.65625 7.613281 C 8.675781 7.734375 8.730469 7.84375 8.808594 7.9375 C 8.828125 7.957031 8.867188 7.996094 8.886719 8.015625 C 8.894531 8.019531 8.960938 8.070312 9.03125 8.125 C 9.105469 8.179688 9.175781 8.238281 9.195312 8.25 C 9.375 8.398438 9.535156 8.570312 9.664062 8.761719 C 9.695312 8.8125 9.730469 8.867188 9.757812 8.914062 C 9.761719 8.925781 9.769531 8.933594 9.769531 8.933594 C 9.769531 8.933594 9.886719 8.871094 10.03125 8.789062 C 10.21875 8.6875 10.292969 8.644531 10.292969 8.644531 C 10.292969 8.640625 10.285156 8.628906 10.277344 8.613281 C 10.09375 8.292969 9.855469 8.011719 9.570312 7.785156 C 9.554688 7.769531 9.480469 7.710938 9.40625 7.65625 C 9.328125 7.597656 9.273438 7.554688 9.265625 7.546875 C 9.246094 7.527344 9.238281 7.5 9.246094 7.472656 C 9.25 7.453125 9.265625 7.421875 9.308594 7.367188 C 9.34375 7.320312 9.375 7.285156 9.417969 7.242188 C 9.511719 7.148438 9.613281 7.074219 9.730469 7.019531 C 9.863281 6.949219 10 6.910156 10.15625 6.898438 C 10.191406 6.894531 10.28125 6.894531 10.316406 6.894531 C 10.367188 6.898438 10.414062 6.90625 10.464844 6.914062 C 10.5 6.917969 10.507812 6.921875 10.523438 6.929688 C 10.542969 6.945312 10.558594 6.972656 10.5625 7 C 10.5625 7.003906 10.558594 7.046875 10.542969 7.167969 C 10.523438 7.34375 10.519531 7.351562 10.515625 7.402344 C 10.492188 7.699219 10.515625 7.996094 10.582031 8.285156 C 10.59375 8.347656 10.617188 8.429688 10.632812 8.484375 C 10.648438 8.527344 10.726562 8.777344 10.726562 8.777344 C 10.726562 8.777344 10.785156 8.765625 10.859375 8.746094 C 11.039062 8.699219 11.078125 8.6875 11.136719 8.675781 C 11.347656 8.632812 11.554688 8.605469 11.777344 8.597656 C 11.828125 8.597656 11.964844 8.597656 12.015625 8.597656 C 12.199219 8.605469 12.367188 8.621094 12.539062 8.65625 C 12.621094 8.671875 12.660156 8.679688 12.84375 8.722656 C 12.929688 8.746094 12.996094 8.761719 13 8.761719 C 13 8.761719 13.007812 8.742188 13.050781 8.621094 C 13.109375 8.445312 13.121094 8.40625 13.144531 8.320312 C 13.207031 8.097656 13.242188 7.875 13.257812 7.636719 C 13.261719 7.523438 13.261719 7.378906 13.257812 7.261719 C 13.25 7.15625 13.246094 7.113281 13.210938 6.851562 C 13.199219 6.742188 13.1875 6.652344 13.1875 6.648438 C 13.1875 6.625 13.195312 6.59375 13.210938 6.574219 C 13.226562 6.542969 13.253906 6.523438 13.285156 6.511719 C 13.3125 6.5 13.40625 6.484375 13.46875 6.480469 C 13.523438 6.472656 13.542969 6.472656 13.605469 6.472656 C 13.671875 6.472656 13.691406 6.472656 13.746094 6.480469 C 13.949219 6.5 14.152344 6.566406 14.328125 6.671875 C 14.464844 6.753906 14.585938 6.859375 14.6875 6.980469 C 14.730469 7.03125 14.777344 7.101562 14.789062 7.125 C 14.8125 7.179688 14.800781 7.246094 14.761719 7.285156 C 14.753906 7.292969 14.691406 7.34375 14.621094 7.398438 C 14.4375 7.542969 14.417969 7.558594 14.355469 7.613281 C 14.253906 7.703125 14.144531 7.808594 14.054688 7.910156 C 13.894531 8.097656 13.75 8.300781 13.632812 8.515625 C 13.601562 8.574219 13.554688 8.671875 13.492188 8.808594 C 13.457031 8.878906 13.429688 8.9375 13.429688 8.9375 C 13.429688 8.9375 13.492188 8.972656 13.566406 9.019531 C 13.691406 9.09375 13.734375 9.117188 13.777344 9.144531 C 13.957031 9.261719 14.125 9.390625 14.285156 9.539062 C 14.316406 9.570312 14.398438 9.652344 14.429688 9.683594 C 14.582031 9.84375 14.714844 10.015625 14.832031 10.203125 C 14.847656 10.230469 14.90625 10.328125 15 10.480469 C 15.011719 10.496094 15.019531 10.511719 15.019531 10.515625 C 15.023438 10.515625 15.050781 10.5 15.152344 10.445312 C 15.304688 10.363281 15.328125 10.347656 15.378906 10.316406 C 15.636719 10.164062 15.863281 9.972656 16.0625 9.746094 C 16.117188 9.683594 16.136719 9.660156 16.265625 9.492188 C 16.324219 9.417969 16.375 9.351562 16.378906 9.347656 C 16.398438 9.328125 16.433594 9.320312 16.460938 9.328125 C 16.472656 9.328125 16.492188 9.339844 16.519531 9.359375 C 16.644531 9.445312 16.75 9.550781 16.832031 9.675781 C 17 9.925781 17.066406 10.230469 17.015625 10.527344 C 17.007812 10.578125 17.003906 10.585938 16.996094 10.601562 C 16.988281 10.613281 16.972656 10.625 16.964844 10.632812 C 16.953125 10.636719 16.9375 10.640625 16.925781 10.640625 C 16.921875 10.640625 16.84375 10.632812 16.757812 10.625 C 16.582031 10.601562 16.570312 10.601562 16.523438 10.597656 C 16.230469 10.574219 15.949219 10.59375 15.664062 10.65625 C 15.617188 10.664062 15.542969 10.683594 15.5 10.699219 C 15.46875 10.707031 15.152344 10.804688 15.148438 10.804688 C 15.148438 10.804688 15.167969 10.867188 15.191406 10.949219 C 15.214844 11.027344 15.238281 11.105469 15.242188 11.125 C 15.355469 11.515625 15.394531 11.914062 15.367188 12.3125 C 15.359375 12.429688 15.347656 12.550781 15.324219 12.671875 C 15.3125 12.734375 15.300781 12.796875 15.265625 12.949219 C 15.25 13.027344 15.234375 13.089844 15.234375 13.089844 C 15.234375 13.089844 15.53125 13.183594 15.554688 13.191406 C 15.792969 13.261719 16.050781 13.308594 16.300781 13.320312 C 16.429688 13.328125 16.566406 13.328125 16.699219 13.320312 C 16.804688 13.316406 16.839844 13.3125 17.097656 13.277344 C 17.203125 13.261719 17.292969 13.253906 17.296875 13.253906 C 17.34375 13.253906 17.390625 13.277344 17.417969 13.316406 C 17.429688 13.339844 17.4375 13.355469 17.445312 13.398438 C 17.515625 13.765625 17.441406 14.140625 17.238281 14.449219 C 17.183594 14.53125 17.128906 14.597656 17.054688 14.667969 C 16.988281 14.734375 16.929688 14.785156 16.851562 14.835938 C 16.816406 14.859375 16.800781 14.863281 16.769531 14.867188 C 16.753906 14.867188 16.746094 14.867188 16.734375 14.863281 C 16.707031 14.859375 16.675781 14.84375 16.65625 14.820312 C 16.652344 14.816406 16.605469 14.757812 16.550781 14.6875 C 16.496094 14.621094 16.445312 14.554688 16.433594 14.539062 C 16.222656 14.277344 15.972656 14.046875 15.691406 13.859375 C 15.601562 13.796875 15.515625 13.746094 15.425781 13.695312 C 15.386719 13.675781 15.332031 13.648438 15.328125 13.648438 C 15.328125 13.648438 15.0625 14.183594 15.0625 14.183594 C 15.0625 14.183594 15.078125 14.191406 15.101562 14.203125 C 15.382812 14.351562 15.632812 14.542969 15.847656 14.777344 C 15.90625 14.839844 15.9375 14.882812 16.066406 15.046875 C 16.191406 15.203125 16.195312 15.210938 16.226562 15.242188 C 16.34375 15.363281 16.5 15.441406 16.667969 15.460938 C 16.734375 15.46875 16.808594 15.46875 16.875 15.460938 C 16.964844 15.445312 17.058594 15.414062 17.136719 15.367188 C 17.191406 15.335938 17.300781 15.253906 17.375 15.191406 C 17.433594 15.140625 17.511719 15.0625 17.5625 15.007812 C 17.695312 14.859375 17.800781 14.695312 17.886719 14.515625 C 18.058594 14.140625 18.113281 13.71875 18.039062 13.3125 C 18.019531 13.199219 18 13.136719 17.960938 13.0625 C 17.898438 12.933594 17.800781 12.832031 17.675781 12.753906 C 17.652344 12.742188 17.597656 12.714844 17.574219 12.707031 C 17.472656 12.664062 17.367188 12.648438 17.265625 12.652344 C 17.226562 12.65625 17.234375 12.652344 17.015625 12.683594 C 16.910156 12.695312 16.8125 12.710938 16.796875 12.710938 C 16.542969 12.738281 16.289062 12.730469 16.039062 12.6875 C 16.007812 12.683594 15.933594 12.667969 15.933594 12.667969 C 15.933594 12.667969 15.933594 12.660156 15.9375 12.648438 C 15.957031 12.519531 15.96875 12.375 15.976562 12.222656 C 15.976562 12.167969 15.976562 11.984375 15.976562 11.929688 C 15.96875 11.765625 15.957031 11.636719 15.933594 11.488281 C 15.921875 11.414062 15.90625 11.316406 15.890625 11.246094 L 15.886719 11.222656 L 15.902344 11.21875 C 15.929688 11.214844 15.992188 11.207031 16.027344 11.203125 C 16.167969 11.1875 16.316406 11.183594 16.457031 11.195312 C 16.503906 11.199219 16.527344 11.199219 16.695312 11.21875 C 16.871094 11.242188 16.871094 11.242188 16.90625 11.242188 C 16.980469 11.246094 17.0625 11.234375 17.132812 11.210938 C 17.335938 11.144531 17.492188 10.992188 17.570312 10.792969 C 17.582031 10.75 17.59375 10.714844 17.601562 10.65625 C 17.617188 10.578125 17.625 10.5 17.632812 10.417969 C 17.632812 10.375 17.632812 10.253906 17.628906 10.210938 C 17.613281 10 17.5625 9.800781 17.480469 9.609375 C 17.464844 9.578125 17.429688 9.503906 17.410156 9.472656 C 17.277344 9.230469 17.089844 9.023438 16.867188 8.867188 C 16.8125 8.832031 16.78125 8.8125 16.730469 8.789062 C 16.691406 8.769531 16.65625 8.757812 16.609375 8.746094 C 16.523438 8.722656 16.4375 8.71875 16.351562 8.730469 C 16.234375 8.746094 16.121094 8.789062 16.027344 8.859375 C 15.988281 8.890625 15.941406 8.933594 15.910156 8.96875 C 15.902344 8.976562 15.847656 9.046875 15.789062 9.125 C 15.730469 9.199219 15.671875 9.273438 15.664062 9.289062 C 15.539062 9.441406 15.394531 9.578125 15.242188 9.691406 C 15.230469 9.699219 15.222656 9.703125 15.222656 9.703125 C 15.21875 9.703125 15.210938 9.691406 15.203125 9.679688 C 14.992188 9.390625 14.734375 9.117188 14.457031 8.894531 C 14.382812 8.835938 14.289062 8.765625 14.222656 8.71875 C 14.21875 8.714844 14.210938 8.710938 14.214844 8.710938 C 14.3125 8.542969 14.414062 8.410156 14.542969 8.265625 C 14.574219 8.234375 14.667969 8.136719 14.703125 8.109375 C 14.777344 8.039062 14.789062 8.027344 14.996094 7.867188 C 15.136719 7.753906 15.152344 7.742188 15.179688 7.714844 C 15.3125 7.585938 15.386719 7.417969 15.402344 7.234375 C 15.402344 7.199219 15.402344 7.132812 15.398438 7.101562 C 15.386719 7.015625 15.367188 6.9375 15.328125 6.859375 C 15.304688 6.808594 15.265625 6.75 15.210938 6.679688 C 15.089844 6.511719 14.941406 6.367188 14.773438 6.246094 C 14.414062 5.992188 13.980469 5.859375 13.539062 5.875 Z M 13.539062 5.875 "/>
<path style=" stroke:none;fill-rule:nonzero;fill:rgb(0%,0%,0%);fill-opacity:1;" d="M 11.367188 9.320312 C 11.128906 9.332031 10.898438 9.417969 10.714844 9.570312 C 10.683594 9.597656 10.632812 9.644531 10.632812 9.648438 C 10.632812 9.648438 11.054688 10.070312 11.054688 10.070312 C 11.054688 10.070312 11.0625 10.0625 11.070312 10.058594 C 11.152344 9.980469 11.246094 9.9375 11.359375 9.925781 C 11.371094 9.921875 11.386719 9.921875 11.414062 9.921875 C 11.464844 9.921875 11.492188 9.925781 11.539062 9.9375 C 11.65625 9.964844 11.757812 10.035156 11.828125 10.136719 C 11.898438 10.234375 11.933594 10.363281 11.917969 10.484375 C 11.90625 10.59375 11.863281 10.6875 11.789062 10.769531 L 11.773438 10.785156 L 11.789062 10.800781 C 11.796875 10.808594 11.890625 10.902344 12 11.011719 L 12.199219 11.210938 L 12.210938 11.195312 C 12.21875 11.1875 12.234375 11.171875 12.246094 11.160156 C 12.398438 10.988281 12.492188 10.769531 12.515625 10.539062 C 12.523438 10.46875 12.523438 10.386719 12.515625 10.316406 C 12.488281 10.023438 12.34375 9.757812 12.113281 9.570312 C 12.015625 9.488281 11.898438 9.421875 11.773438 9.378906 C 11.671875 9.34375 11.566406 9.328125 11.457031 9.320312 C 11.417969 9.320312 11.410156 9.320312 11.367188 9.320312 Z M 11.367188 9.320312 "/>
<path style=" stroke:none;fill-rule:nonzero;fill:rgb(0%,0%,0%);fill-opacity:1;" d="M 13.402344 11.347656 C 13.152344 11.355469 12.914062 11.449219 12.722656 11.609375 C 12.699219 11.628906 12.65625 11.671875 12.65625 11.671875 C 12.65625 11.671875 13.078125 12.09375 13.078125 12.09375 C 13.082031 12.09375 13.085938 12.089844 13.097656 12.082031 C 13.152344 12.03125 13.210938 11.996094 13.28125 11.972656 C 13.367188 11.941406 13.464844 11.9375 13.554688 11.960938 C 13.699219 11.992188 13.824219 12.089844 13.890625 12.222656 C 13.914062 12.269531 13.929688 12.316406 13.9375 12.367188 C 13.945312 12.398438 13.945312 12.414062 13.945312 12.453125 C 13.945312 12.472656 13.945312 12.496094 13.945312 12.503906 C 13.929688 12.617188 13.890625 12.710938 13.8125 12.796875 L 13.796875 12.8125 L 13.816406 12.828125 C 13.828125 12.839844 13.921875 12.9375 14.03125 13.042969 L 14.222656 13.234375 L 14.238281 13.21875 C 14.316406 13.136719 14.378906 13.046875 14.429688 12.949219 C 14.488281 12.832031 14.527344 12.703125 14.539062 12.574219 C 14.542969 12.53125 14.546875 12.5 14.546875 12.453125 C 14.546875 12.40625 14.542969 12.375 14.539062 12.332031 C 14.507812 12.046875 14.371094 11.785156 14.148438 11.601562 C 14.109375 11.570312 14.050781 11.527344 14.007812 11.503906 C 13.824219 11.394531 13.617188 11.339844 13.402344 11.347656 Z M 13.402344 11.347656 "/>
<path style=" stroke:none;fill-rule:nonzero;fill:rgb(0%,0%,0%);fill-opacity:1;" d="M 6.789062 8.84375 C 6.664062 8.847656 6.542969 8.882812 6.4375 8.949219 C 6.378906 8.980469 6.277344 9.054688 6.214844 9.113281 C 6.136719 9.179688 6.050781 9.261719 5.988281 9.339844 C 5.753906 9.613281 5.59375 9.953125 5.535156 10.308594 C 5.515625 10.421875 5.507812 10.515625 5.507812 10.636719 C 5.507812 10.726562 5.511719 10.785156 5.519531 10.863281 C 5.53125 10.9375 5.546875 11.03125 5.5625 11.09375 C 5.605469 11.277344 5.726562 11.441406 5.886719 11.542969 C 5.984375 11.605469 6.09375 11.640625 6.21875 11.65625 C 6.242188 11.65625 6.335938 11.65625 6.355469 11.65625 C 6.363281 11.652344 6.457031 11.640625 6.558594 11.628906 C 6.785156 11.597656 6.804688 11.597656 6.875 11.589844 C 6.988281 11.582031 7.128906 11.582031 7.242188 11.585938 C 7.34375 11.59375 7.453125 11.605469 7.550781 11.625 C 7.566406 11.625 7.582031 11.628906 7.585938 11.628906 C 7.589844 11.628906 7.589844 11.628906 7.589844 11.632812 C 7.589844 11.632812 7.585938 11.648438 7.585938 11.660156 C 7.523438 12 7.507812 12.367188 7.535156 12.71875 C 7.546875 12.832031 7.558594 12.941406 7.578125 13.058594 C 7.582031 13.078125 7.585938 13.09375 7.585938 13.09375 C 7.582031 13.097656 7.539062 13.101562 7.507812 13.105469 C 7.355469 13.121094 7.207031 13.125 7.054688 13.109375 C 7.039062 13.109375 6.949219 13.097656 6.859375 13.085938 C 6.765625 13.078125 6.683594 13.066406 6.675781 13.066406 C 6.652344 13.066406 6.597656 13.066406 6.574219 13.066406 C 6.503906 13.070312 6.4375 13.085938 6.371094 13.113281 C 6.347656 13.121094 6.292969 13.148438 6.269531 13.164062 C 6.132812 13.246094 6.035156 13.367188 5.980469 13.515625 C 5.945312 13.601562 5.925781 13.726562 5.914062 13.878906 C 5.910156 13.941406 5.914062 14.046875 5.917969 14.117188 C 5.945312 14.421875 6.046875 14.710938 6.214844 14.960938 C 6.324219 15.128906 6.464844 15.277344 6.625 15.398438 C 6.699219 15.449219 6.761719 15.492188 6.808594 15.511719 C 6.886719 15.550781 6.96875 15.574219 7.058594 15.582031 C 7.085938 15.582031 7.15625 15.582031 7.183594 15.578125 C 7.328125 15.5625 7.457031 15.503906 7.566406 15.410156 C 7.585938 15.390625 7.621094 15.355469 7.636719 15.335938 C 7.644531 15.328125 7.695312 15.261719 7.75 15.191406 C 7.804688 15.121094 7.855469 15.054688 7.863281 15.042969 C 7.921875 14.976562 8.023438 14.878906 8.152344 14.773438 C 8.171875 14.753906 8.242188 14.699219 8.246094 14.695312 C 8.246094 14.695312 8.253906 14.699219 8.261719 14.710938 C 8.304688 14.773438 8.386719 14.882812 8.433594 14.941406 C 8.574219 15.113281 8.703125 15.25 8.851562 15.386719 C 8.980469 15.503906 9.128906 15.621094 9.261719 15.714844 C 9.273438 15.722656 9.285156 15.730469 9.285156 15.730469 C 9.285156 15.730469 9.238281 15.800781 9.203125 15.84375 C 9.074219 16.015625 8.917969 16.179688 8.746094 16.316406 C 8.734375 16.328125 8.660156 16.386719 8.585938 16.445312 C 8.511719 16.503906 8.445312 16.554688 8.4375 16.5625 C 8.402344 16.589844 8.355469 16.640625 8.328125 16.679688 C 8.199219 16.855469 8.148438 17.078125 8.195312 17.289062 C 8.214844 17.359375 8.242188 17.4375 8.28125 17.5 C 8.3125 17.558594 8.386719 17.65625 8.445312 17.730469 C 8.511719 17.808594 8.601562 17.894531 8.679688 17.960938 C 8.914062 18.160156 9.191406 18.304688 9.492188 18.378906 C 9.75 18.441406 10.023438 18.453125 10.285156 18.414062 C 10.402344 18.394531 10.480469 18.375 10.550781 18.34375 C 10.703125 18.273438 10.828125 18.160156 10.90625 18.011719 C 10.976562 17.886719 11.003906 17.738281 10.992188 17.59375 C 10.992188 17.582031 10.976562 17.480469 10.964844 17.367188 C 10.929688 17.097656 10.925781 17.066406 10.921875 16.945312 C 10.917969 16.898438 10.917969 16.773438 10.921875 16.730469 C 10.929688 16.617188 10.9375 16.519531 10.957031 16.414062 L 10.960938 16.398438 L 10.964844 16.398438 C 10.972656 16.402344 11.035156 16.410156 11.070312 16.414062 C 11.183594 16.429688 11.292969 16.441406 11.429688 16.445312 C 11.476562 16.449219 11.667969 16.449219 11.726562 16.449219 C 11.953125 16.441406 12.167969 16.417969 12.386719 16.371094 C 12.40625 16.371094 12.421875 16.367188 12.421875 16.367188 C 12.421875 16.367188 12.429688 16.425781 12.429688 16.457031 C 12.4375 16.539062 12.441406 16.605469 12.441406 16.699219 C 12.4375 16.816406 12.4375 16.839844 12.410156 17.078125 C 12.398438 17.164062 12.390625 17.238281 12.386719 17.25 C 12.386719 17.273438 12.386719 17.335938 12.386719 17.359375 C 12.394531 17.421875 12.40625 17.472656 12.421875 17.523438 C 12.46875 17.660156 12.554688 17.777344 12.667969 17.859375 C 12.75 17.917969 12.847656 17.960938 12.941406 17.976562 C 13.070312 18 13.15625 18.011719 13.269531 18.011719 C 13.554688 18.019531 13.839844 17.953125 14.097656 17.820312 C 14.308594 17.714844 14.492188 17.570312 14.644531 17.394531 C 14.714844 17.308594 14.796875 17.195312 14.828125 17.128906 C 14.871094 17.050781 14.894531 16.960938 14.902344 16.867188 C 14.902344 16.84375 14.902344 16.773438 14.898438 16.75 C 14.882812 16.601562 14.828125 16.46875 14.730469 16.359375 C 14.710938 16.339844 14.675781 16.304688 14.65625 16.289062 C 14.648438 16.28125 14.582031 16.230469 14.507812 16.175781 C 14.4375 16.121094 14.367188 16.0625 14.347656 16.050781 C 14.148438 15.890625 13.976562 15.695312 13.835938 15.46875 C 13.828125 15.457031 13.820312 15.445312 13.820312 15.445312 C 13.820312 15.445312 13.308594 15.753906 13.308594 15.753906 C 13.308594 15.753906 13.3125 15.765625 13.320312 15.777344 C 13.488281 16.046875 13.691406 16.285156 13.925781 16.480469 C 13.96875 16.515625 14 16.539062 14.136719 16.644531 C 14.207031 16.699219 14.269531 16.75 14.273438 16.753906 C 14.300781 16.777344 14.308594 16.816406 14.296875 16.847656 C 14.289062 16.867188 14.238281 16.941406 14.203125 16.988281 C 14.128906 17.070312 14.054688 17.144531 13.964844 17.203125 C 13.886719 17.257812 13.796875 17.304688 13.710938 17.335938 C 13.605469 17.378906 13.5 17.402344 13.378906 17.410156 C 13.351562 17.414062 13.242188 17.414062 13.210938 17.410156 C 13.160156 17.40625 13.125 17.402344 13.074219 17.390625 C 13.035156 17.386719 13.027344 17.382812 13.011719 17.363281 C 13.003906 17.355469 13 17.351562 12.996094 17.34375 C 12.992188 17.332031 12.984375 17.316406 12.984375 17.308594 C 12.984375 17.304688 12.996094 17.230469 13.003906 17.140625 C 13.027344 16.949219 13.03125 16.910156 13.035156 16.824219 C 13.050781 16.542969 13.023438 16.25 12.957031 15.976562 C 12.949219 15.949219 12.863281 15.628906 12.859375 15.625 C 12.859375 15.625 12.800781 15.644531 12.726562 15.664062 C 12.519531 15.726562 12.488281 15.734375 12.417969 15.75 C 11.921875 15.875 11.402344 15.882812 10.902344 15.777344 C 10.855469 15.769531 10.828125 15.761719 10.660156 15.722656 C 10.582031 15.703125 10.523438 15.691406 10.519531 15.691406 C 10.519531 15.691406 10.515625 15.707031 10.507812 15.730469 C 10.503906 15.75 10.484375 15.820312 10.464844 15.882812 C 10.425781 16.03125 10.40625 16.097656 10.390625 16.179688 C 10.320312 16.507812 10.300781 16.835938 10.332031 17.164062 C 10.339844 17.214844 10.34375 17.25 10.371094 17.46875 C 10.398438 17.675781 10.398438 17.667969 10.390625 17.695312 C 10.386719 17.714844 10.382812 17.722656 10.371094 17.738281 C 10.351562 17.765625 10.328125 17.789062 10.292969 17.796875 C 10.269531 17.808594 10.191406 17.820312 10.128906 17.828125 C 10.074219 17.835938 10.046875 17.835938 9.976562 17.835938 C 9.90625 17.835938 9.886719 17.835938 9.832031 17.828125 C 9.585938 17.804688 9.351562 17.714844 9.148438 17.566406 C 9.050781 17.496094 8.957031 17.40625 8.882812 17.3125 C 8.847656 17.269531 8.804688 17.210938 8.792969 17.191406 C 8.777344 17.160156 8.773438 17.125 8.785156 17.089844 C 8.789062 17.066406 8.800781 17.042969 8.820312 17.027344 C 8.824219 17.019531 8.894531 16.964844 8.972656 16.902344 C 9.132812 16.777344 9.152344 16.761719 9.199219 16.71875 C 9.410156 16.542969 9.59375 16.339844 9.75 16.117188 C 9.816406 16.019531 9.875 15.925781 9.929688 15.824219 C 9.960938 15.769531 10.09375 15.519531 10.09375 15.519531 C 10.09375 15.519531 10.035156 15.484375 9.964844 15.441406 C 9.785156 15.339844 9.753906 15.320312 9.675781 15.269531 C 9.25 14.988281 8.894531 14.613281 8.628906 14.175781 C 8.617188 14.15625 8.566406 14.066406 8.515625 13.980469 C 8.464844 13.890625 8.421875 13.820312 8.421875 13.820312 C 8.421875 13.820312 8.148438 14.015625 8.113281 14.039062 C 7.84375 14.238281 7.597656 14.449219 7.460938 14.59375 C 7.40625 14.652344 7.394531 14.664062 7.269531 14.828125 C 7.214844 14.902344 7.171875 14.957031 7.167969 14.960938 C 7.148438 14.976562 7.121094 14.984375 7.097656 14.980469 C 7.078125 14.980469 7.070312 14.976562 7.039062 14.953125 C 6.96875 14.90625 6.917969 14.867188 6.859375 14.804688 C 6.8125 14.757812 6.785156 14.726562 6.746094 14.675781 C 6.628906 14.519531 6.554688 14.332031 6.527344 14.140625 C 6.515625 14.078125 6.515625 14.039062 6.515625 13.96875 C 6.515625 13.894531 6.519531 13.839844 6.53125 13.773438 C 6.539062 13.722656 6.542969 13.710938 6.558594 13.691406 C 6.582031 13.671875 6.605469 13.664062 6.640625 13.667969 C 6.652344 13.667969 6.726562 13.675781 6.808594 13.6875 C 6.886719 13.695312 6.96875 13.703125 6.984375 13.707031 C 7.160156 13.722656 7.34375 13.722656 7.523438 13.707031 C 7.621094 13.699219 7.714844 13.683594 7.808594 13.664062 C 7.878906 13.652344 7.914062 13.644531 8.007812 13.621094 C 8.015625 13.617188 8.085938 13.597656 8.164062 13.578125 C 8.242188 13.558594 8.304688 13.539062 8.308594 13.539062 C 8.308594 13.539062 8.289062 13.472656 8.269531 13.390625 C 8.222656 13.214844 8.21875 13.191406 8.207031 13.132812 C 8.132812 12.804688 8.105469 12.476562 8.128906 12.144531 C 8.140625 11.949219 8.171875 11.75 8.21875 11.5625 C 8.222656 11.542969 8.246094 11.453125 8.269531 11.367188 C 8.292969 11.277344 8.3125 11.207031 8.3125 11.203125 C 8.308594 11.203125 8.015625 11.117188 7.972656 11.105469 C 7.59375 10.996094 7.1875 10.960938 6.792969 10.996094 C 6.734375 11 6.683594 11.007812 6.492188 11.03125 C 6.390625 11.046875 6.300781 11.058594 6.292969 11.058594 C 6.289062 11.058594 6.28125 11.058594 6.273438 11.058594 C 6.234375 11.054688 6.210938 11.039062 6.183594 11.015625 C 6.15625 10.988281 6.148438 10.96875 6.136719 10.921875 C 6.117188 10.816406 6.109375 10.726562 6.109375 10.617188 C 6.109375 10.5625 6.113281 10.527344 6.117188 10.484375 C 6.148438 10.214844 6.253906 9.964844 6.421875 9.753906 C 6.476562 9.6875 6.554688 9.609375 6.621094 9.554688 C 6.675781 9.507812 6.738281 9.464844 6.761719 9.453125 C 6.785156 9.445312 6.796875 9.445312 6.820312 9.445312 C 6.839844 9.445312 6.84375 9.445312 6.855469 9.449219 C 6.878906 9.453125 6.902344 9.464844 6.917969 9.480469 C 6.921875 9.484375 6.945312 9.511719 6.96875 9.542969 C 6.992188 9.574219 7.042969 9.636719 7.082031 9.6875 C 7.121094 9.738281 7.164062 9.789062 7.175781 9.804688 C 7.289062 9.941406 7.417969 10.074219 7.550781 10.195312 C 7.726562 10.347656 7.921875 10.484375 8.121094 10.59375 C 8.171875 10.621094 8.25 10.664062 8.25 10.660156 C 8.25 10.660156 8.515625 10.128906 8.515625 10.125 C 8.515625 10.125 8.511719 10.121094 8.5 10.117188 C 8.402344 10.066406 8.28125 9.992188 8.183594 9.925781 C 8.046875 9.832031 7.9375 9.738281 7.820312 9.621094 C 7.710938 9.515625 7.679688 9.476562 7.511719 9.261719 C 7.449219 9.179688 7.390625 9.109375 7.382812 9.097656 C 7.367188 9.078125 7.320312 9.035156 7.300781 9.019531 C 7.210938 8.941406 7.109375 8.890625 7 8.863281 C 6.929688 8.847656 6.855469 8.839844 6.789062 8.84375 Z M 6.789062 8.84375 "/>
<path style=" stroke:none;fill-rule:nonzero;fill:rgb(0%,0%,0%);fill-opacity:1;" d="M 9.273438 11.25 C 9.246094 11.253906 9.210938 11.257812 9.1875 11.261719 C 8.964844 11.289062 8.757812 11.386719 8.59375 11.535156 C 8.582031 11.546875 8.570312 11.558594 8.5625 11.566406 L 8.550781 11.578125 L 8.570312 11.597656 C 8.585938 11.609375 8.679688 11.707031 8.785156 11.8125 L 8.976562 12 L 8.992188 11.988281 C 9.039062 11.941406 9.105469 11.902344 9.167969 11.878906 C 9.261719 11.847656 9.355469 11.84375 9.449219 11.863281 C 9.546875 11.886719 9.632812 11.933594 9.699219 12.007812 C 9.769531 12.078125 9.820312 12.171875 9.835938 12.269531 C 9.839844 12.304688 9.839844 12.316406 9.839844 12.359375 C 9.839844 12.402344 9.839844 12.417969 9.832031 12.453125 C 9.816406 12.546875 9.769531 12.636719 9.707031 12.703125 C 9.699219 12.710938 9.695312 12.714844 9.695312 12.714844 C 9.695312 12.714844 9.789062 12.8125 9.90625 12.925781 L 10.121094 13.140625 L 10.136719 13.121094 C 10.171875 13.085938 10.207031 13.042969 10.238281 12.996094 C 10.433594 12.726562 10.492188 12.375 10.398438 12.050781 C 10.363281 11.921875 10.300781 11.800781 10.222656 11.691406 C 10.066406 11.488281 9.847656 11.34375 9.601562 11.28125 C 9.546875 11.269531 9.496094 11.261719 9.425781 11.253906 C 9.410156 11.253906 9.289062 11.25 9.273438 11.25 Z M 9.273438 11.25 "/>
<path style=" stroke:none;fill-rule:nonzero;fill:rgb(0%,0%,0%);fill-opacity:1;" d="M 11.292969 13.277344 C 11.074219 13.289062 10.867188 13.367188 10.695312 13.496094 C 10.65625 13.527344 10.613281 13.566406 10.585938 13.59375 L 10.574219 13.601562 L 10.597656 13.625 C 10.613281 13.636719 10.707031 13.734375 10.8125 13.835938 L 11 14.027344 L 11.011719 14.015625 C 11.121094 13.910156 11.277344 13.859375 11.425781 13.878906 C 11.539062 13.894531 11.644531 13.949219 11.722656 14.027344 C 11.804688 14.109375 11.851562 14.210938 11.863281 14.324219 C 11.867188 14.347656 11.867188 14.421875 11.863281 14.445312 C 11.851562 14.527344 11.824219 14.597656 11.78125 14.667969 C 11.765625 14.6875 11.746094 14.710938 11.730469 14.726562 C 11.726562 14.734375 11.71875 14.738281 11.71875 14.738281 C 11.71875 14.742188 11.816406 14.835938 11.933594 14.953125 L 12.144531 15.164062 L 12.15625 15.152344 C 12.160156 15.144531 12.175781 15.132812 12.183594 15.121094 C 12.335938 14.953125 12.433594 14.742188 12.460938 14.511719 C 12.464844 14.460938 12.464844 14.441406 12.464844 14.382812 C 12.464844 14.308594 12.464844 14.265625 12.453125 14.203125 C 12.421875 14.015625 12.34375 13.84375 12.230469 13.695312 C 12.199219 13.660156 12.179688 13.636719 12.144531 13.601562 C 12.09375 13.550781 12.054688 13.519531 12.003906 13.480469 C 11.835938 13.359375 11.636719 13.289062 11.425781 13.277344 C 11.398438 13.277344 11.316406 13.277344 11.292969 13.277344 Z M 11.292969 13.277344 "/>
</g>
</svg>
