<?xml version="1.0" encoding="UTF-8"?>
<svg xmlns="http://www.w3.org/2000/svg" xmlns:xlink="http://www.w3.org/1999/xlink" viewBox="0 0 24 24" version="1.1">
<g>
<path style=" stroke:none;fill-rule:nonzero;fill:rgb(0%,0%,0%);fill-opacity:1;" d="M 14.410156 4.335938 C 14.292969 4.339844 14.148438 4.355469 14.023438 4.378906 C 13.964844 4.390625 13.875 4.410156 13.832031 4.421875 C 13.65625 4.472656 13.503906 4.574219 13.386719 4.714844 C 13.304688 4.816406 13.242188 4.941406 13.210938 5.070312 C 13.195312 5.136719 13.1875 5.195312 13.1875 5.269531 C 13.183594 5.332031 13.1875 5.371094 13.199219 5.429688 C 13.238281 5.691406 13.28125 5.953125 13.285156 5.980469 C 13.328125 6.253906 13.335938 6.535156 13.3125 6.8125 C 13.277344 7.230469 13.171875 7.640625 12.996094 8.023438 C 12.992188 8.039062 12.980469 8.0625 12.976562 8.070312 C 12.972656 8.082031 12.964844 8.09375 12.964844 8.09375 C 12.964844 8.09375 13.507812 8.351562 13.507812 8.351562 C 13.511719 8.347656 13.535156 8.292969 13.554688 8.246094 C 13.765625 7.773438 13.890625 7.261719 13.917969 6.746094 C 13.921875 6.671875 13.921875 6.636719 13.925781 6.542969 C 13.925781 6.351562 13.917969 6.183594 13.894531 5.996094 C 13.886719 5.921875 13.875 5.859375 13.832031 5.585938 L 13.785156 5.3125 L 13.785156 5.285156 C 13.785156 5.25 13.789062 5.222656 13.800781 5.191406 C 13.824219 5.117188 13.878906 5.054688 13.945312 5.019531 C 13.976562 5.003906 13.996094 5 14.058594 4.984375 C 14.3125 4.925781 14.566406 4.917969 14.820312 4.960938 C 15.320312 5.042969 15.769531 5.3125 16.074219 5.71875 C 16.113281 5.769531 16.132812 5.800781 16.144531 5.835938 C 16.167969 5.890625 16.167969 5.957031 16.152344 6.015625 C 16.140625 6.0625 16.113281 6.105469 16.078125 6.140625 C 16.074219 6.148438 16.046875 6.171875 16.019531 6.195312 C 15.992188 6.21875 15.910156 6.285156 15.835938 6.347656 C 15.617188 6.53125 15.578125 6.566406 15.460938 6.6875 C 15.363281 6.78125 15.300781 6.851562 15.21875 6.945312 C 14.964844 7.25 14.75 7.589844 14.585938 7.953125 C 14.496094 8.144531 14.421875 8.347656 14.367188 8.554688 C 14.351562 8.597656 14.335938 8.660156 14.335938 8.660156 C 14.335938 8.660156 14.914062 8.808594 14.917969 8.808594 C 14.917969 8.808594 14.921875 8.796875 14.925781 8.78125 C 15.039062 8.34375 15.238281 7.921875 15.507812 7.550781 C 15.664062 7.332031 15.855469 7.125 16.058594 6.945312 C 16.074219 6.933594 16.167969 6.851562 16.273438 6.765625 C 16.378906 6.675781 16.472656 6.59375 16.484375 6.585938 C 16.609375 6.464844 16.703125 6.304688 16.742188 6.132812 C 16.757812 6.058594 16.765625 5.996094 16.761719 5.914062 C 16.761719 5.816406 16.742188 5.722656 16.710938 5.628906 C 16.675781 5.539062 16.636719 5.464844 16.570312 5.375 C 16.355469 5.085938 16.078125 4.84375 15.765625 4.664062 C 15.503906 4.515625 15.214844 4.414062 14.917969 4.367188 C 14.8125 4.351562 14.710938 4.339844 14.601562 4.335938 C 14.574219 4.335938 14.445312 4.332031 14.410156 4.335938 Z M 14.410156 4.335938 "/>
<path style=" stroke:none;fill-rule:nonzero;fill:rgb(0%,0%,0%);fill-opacity:1;" d="M 9.84375 4.640625 C 9.609375 4.652344 9.386719 4.691406 9.167969 4.761719 C 8.648438 4.9375 8.203125 5.28125 7.910156 5.742188 C 7.847656 5.839844 7.816406 5.902344 7.792969 5.976562 C 7.75 6.09375 7.738281 6.21875 7.75 6.34375 C 7.773438 6.558594 7.882812 6.757812 8.046875 6.898438 C 8.074219 6.921875 8.082031 6.925781 8.28125 7.066406 C 8.386719 7.144531 8.492188 7.21875 8.515625 7.234375 C 8.769531 7.425781 9 7.65625 9.191406 7.910156 C 9.226562 7.957031 9.238281 7.972656 9.234375 7.972656 C 9.234375 7.976562 9.214844 7.988281 9.191406 8.003906 C 8.820312 8.265625 8.480469 8.578125 8.183594 8.925781 C 8.132812 8.980469 8.101562 9.019531 8.101562 9.023438 C 8.101562 9.023438 8.5625 9.402344 8.566406 9.402344 C 8.566406 9.402344 8.574219 9.390625 8.585938 9.375 C 8.878906 9.027344 9.207031 8.726562 9.578125 8.464844 C 9.707031 8.378906 9.875 8.273438 10.011719 8.195312 C 10.488281 7.929688 11.023438 7.738281 11.574219 7.640625 C 11.808594 7.597656 12.027344 7.574219 12.285156 7.566406 C 12.335938 7.5625 12.554688 7.5625 12.578125 7.5625 L 12.59375 7.566406 L 12.601562 7.265625 C 12.605469 7.101562 12.609375 6.964844 12.609375 6.964844 C 12.609375 6.964844 12.574219 6.964844 12.527344 6.964844 C 12.191406 6.957031 11.859375 6.984375 11.523438 7.039062 C 11.390625 7.0625 11.226562 7.09375 11.113281 7.125 L 11.09375 7.128906 L 11.09375 7.125 C 11.089844 7.121094 11.085938 7.097656 11.078125 7.074219 C 10.996094 6.738281 10.964844 6.390625 10.988281 6.042969 C 10.988281 6.027344 10.996094 5.914062 11.007812 5.792969 C 11.019531 5.671875 11.027344 5.558594 11.027344 5.542969 C 11.035156 5.363281 10.984375 5.1875 10.882812 5.035156 C 10.773438 4.871094 10.601562 4.746094 10.40625 4.691406 C 10.324219 4.667969 10.179688 4.652344 10.035156 4.644531 C 9.996094 4.640625 9.882812 4.640625 9.84375 4.640625 Z M 10.027344 5.242188 C 10.105469 5.25 10.175781 5.257812 10.226562 5.265625 C 10.265625 5.273438 10.304688 5.292969 10.335938 5.316406 C 10.351562 5.328125 10.375 5.355469 10.386719 5.371094 C 10.410156 5.410156 10.421875 5.449219 10.425781 5.492188 L 10.429688 5.511719 L 10.410156 5.742188 C 10.386719 6.019531 10.386719 6.039062 10.382812 6.148438 C 10.378906 6.203125 10.382812 6.375 10.382812 6.425781 C 10.394531 6.6875 10.425781 6.90625 10.480469 7.144531 C 10.488281 7.179688 10.511719 7.273438 10.515625 7.296875 L 10.519531 7.304688 L 10.5 7.3125 C 10.265625 7.398438 10.007812 7.515625 9.777344 7.640625 C 9.761719 7.648438 9.75 7.65625 9.746094 7.65625 C 9.746094 7.65625 9.738281 7.640625 9.726562 7.628906 C 9.507812 7.320312 9.242188 7.039062 8.945312 6.808594 C 8.878906 6.753906 8.855469 6.738281 8.636719 6.582031 C 8.535156 6.511719 8.445312 6.449219 8.441406 6.441406 C 8.386719 6.402344 8.351562 6.335938 8.347656 6.265625 C 8.34375 6.226562 8.351562 6.179688 8.371094 6.140625 C 8.390625 6.105469 8.441406 6.023438 8.488281 5.960938 C 8.636719 5.757812 8.832031 5.589844 9.054688 5.46875 C 9.089844 5.449219 9.160156 5.410156 9.199219 5.394531 C 9.402344 5.304688 9.617188 5.253906 9.84375 5.242188 C 9.875 5.242188 10 5.242188 10.027344 5.242188 Z M 10.027344 5.242188 "/>
<path style=" stroke:none;fill-rule:nonzero;fill:rgb(0%,0%,0%);fill-opacity:1;" d="M 18.664062 7.769531 C 18.476562 7.777344 18.300781 7.851562 18.15625 7.972656 C 18.117188 8.007812 18.066406 8.058594 18.035156 8.097656 C 18.03125 8.109375 17.960938 8.203125 17.882812 8.3125 C 17.804688 8.421875 17.730469 8.527344 17.710938 8.546875 C 17.546875 8.769531 17.347656 8.972656 17.128906 9.148438 C 17.082031 9.1875 17.042969 9.214844 16.980469 9.261719 L 16.972656 9.265625 L 16.949219 9.234375 C 16.703125 8.898438 16.417969 8.589844 16.101562 8.316406 C 16.039062 8.265625 15.917969 8.164062 15.914062 8.164062 C 15.914062 8.164062 15.546875 8.632812 15.542969 8.636719 C 15.542969 8.636719 15.5625 8.652344 15.582031 8.667969 C 15.863281 8.894531 16.125 9.15625 16.351562 9.4375 C 16.671875 9.839844 16.929688 10.285156 17.113281 10.761719 C 17.339844 11.34375 17.453125 11.957031 17.453125 12.578125 L 17.453125 12.636719 L 17.503906 12.636719 C 17.621094 12.640625 18.050781 12.644531 18.050781 12.640625 C 18.050781 12.640625 18.050781 12.472656 18.050781 12.414062 C 18.039062 11.980469 17.976562 11.566406 17.871094 11.152344 C 17.863281 11.128906 17.855469 11.105469 17.859375 11.105469 C 17.859375 11.105469 17.941406 11.085938 17.976562 11.078125 C 18.164062 11.039062 18.339844 11.015625 18.546875 11.003906 C 18.59375 11 18.753906 11 18.804688 11.003906 C 18.898438 11.003906 18.894531 11.003906 19.183594 11.027344 L 19.402344 11.046875 L 19.449219 11.046875 C 19.5 11.046875 19.527344 11.046875 19.570312 11.039062 C 19.675781 11.023438 19.78125 10.988281 19.871094 10.9375 C 20.085938 10.8125 20.234375 10.601562 20.28125 10.359375 C 20.285156 10.347656 20.289062 10.332031 20.289062 10.324219 C 20.289062 10.320312 20.292969 10.296875 20.296875 10.277344 C 20.304688 10.203125 20.3125 10.144531 20.316406 10.066406 C 20.316406 10.054688 20.316406 10.007812 20.316406 9.96875 C 20.320312 9.894531 20.316406 9.847656 20.3125 9.78125 C 20.296875 9.515625 20.230469 9.25 20.125 9.003906 C 19.96875 8.640625 19.726562 8.316406 19.414062 8.070312 C 19.285156 7.96875 19.140625 7.875 19.042969 7.835938 C 18.925781 7.785156 18.792969 7.761719 18.664062 7.769531 Z M 18.757812 8.371094 C 18.789062 8.378906 18.816406 8.386719 18.855469 8.414062 C 19.003906 8.503906 19.140625 8.613281 19.257812 8.742188 C 19.417969 8.921875 19.546875 9.140625 19.625 9.367188 C 19.675781 9.527344 19.707031 9.683594 19.714844 9.855469 C 19.71875 9.890625 19.71875 9.992188 19.714844 10.027344 C 19.714844 10.089844 19.707031 10.144531 19.699219 10.199219 C 19.695312 10.214844 19.695312 10.234375 19.695312 10.238281 C 19.6875 10.273438 19.675781 10.304688 19.65625 10.339844 C 19.640625 10.359375 19.609375 10.390625 19.589844 10.40625 C 19.558594 10.425781 19.523438 10.4375 19.492188 10.445312 C 19.460938 10.449219 19.457031 10.449219 19.230469 10.429688 C 18.992188 10.410156 18.960938 10.410156 18.898438 10.40625 C 18.554688 10.386719 18.214844 10.414062 17.878906 10.484375 C 17.820312 10.5 17.734375 10.519531 17.675781 10.535156 C 17.671875 10.535156 17.667969 10.535156 17.667969 10.535156 C 17.667969 10.535156 17.660156 10.511719 17.648438 10.484375 C 17.554688 10.253906 17.441406 10.015625 17.320312 9.800781 C 17.308594 9.78125 17.300781 9.769531 17.304688 9.769531 C 17.304688 9.769531 17.316406 9.757812 17.335938 9.746094 C 17.558594 9.589844 17.769531 9.398438 17.957031 9.195312 C 18.046875 9.09375 18.132812 8.988281 18.214844 8.882812 C 18.226562 8.867188 18.296875 8.765625 18.375 8.660156 C 18.449219 8.550781 18.519531 8.457031 18.523438 8.453125 C 18.5625 8.40625 18.617188 8.378906 18.679688 8.367188 C 18.699219 8.367188 18.738281 8.367188 18.757812 8.371094 Z M 18.757812 8.371094 "/>
<path style=" stroke:none;fill-rule:nonzero;fill:rgb(0%,0%,0%);fill-opacity:1;" d="M 5.855469 8.199219 C 5.703125 8.207031 5.554688 8.257812 5.421875 8.34375 C 5.410156 8.351562 5.398438 8.359375 5.394531 8.359375 C 5.382812 8.367188 5.320312 8.414062 5.273438 8.453125 C 4.933594 8.726562 4.664062 9.085938 4.5 9.492188 C 4.351562 9.863281 4.289062 10.257812 4.320312 10.65625 C 4.332031 10.785156 4.351562 10.917969 4.382812 11.050781 C 4.394531 11.101562 4.402344 11.128906 4.414062 11.164062 C 4.503906 11.4375 4.71875 11.648438 4.996094 11.734375 C 5.109375 11.769531 5.242188 11.78125 5.359375 11.769531 C 5.371094 11.769531 5.492188 11.75 5.628906 11.726562 C 5.769531 11.703125 5.898438 11.683594 5.921875 11.679688 C 6.167969 11.640625 6.417969 11.628906 6.660156 11.640625 C 7.128906 11.660156 7.582031 11.769531 8.007812 11.964844 C 8.03125 11.972656 8.046875 11.980469 8.046875 11.980469 C 8.050781 11.980469 8.300781 11.4375 8.300781 11.4375 C 8.300781 11.4375 8.234375 11.40625 8.175781 11.382812 C 7.542969 11.109375 6.851562 10.996094 6.164062 11.046875 C 6.066406 11.054688 5.949219 11.066406 5.851562 11.082031 C 5.835938 11.085938 5.707031 11.105469 5.566406 11.128906 C 5.421875 11.152344 5.300781 11.171875 5.296875 11.171875 C 5.28125 11.175781 5.242188 11.175781 5.222656 11.171875 C 5.125 11.160156 5.039062 11.09375 4.996094 11.003906 C 4.984375 10.980469 4.976562 10.957031 4.964844 10.902344 C 4.917969 10.707031 4.902344 10.511719 4.917969 10.316406 C 4.945312 9.9375 5.082031 9.570312 5.3125 9.265625 C 5.417969 9.128906 5.539062 9.007812 5.675781 8.902344 C 5.699219 8.878906 5.710938 8.871094 5.730469 8.859375 C 5.738281 8.855469 5.746094 8.847656 5.753906 8.84375 C 5.820312 8.800781 5.90625 8.785156 5.984375 8.804688 C 6.039062 8.820312 6.089844 8.847656 6.125 8.886719 C 6.132812 8.890625 6.203125 8.976562 6.285156 9.070312 C 6.4375 9.257812 6.460938 9.285156 6.503906 9.332031 C 6.601562 9.441406 6.71875 9.554688 6.828125 9.652344 C 7.296875 10.074219 7.855469 10.390625 8.460938 10.570312 C 8.507812 10.585938 8.609375 10.613281 8.609375 10.613281 C 8.609375 10.613281 8.757812 10.035156 8.757812 10.035156 C 8.757812 10.035156 8.742188 10.027344 8.71875 10.023438 C 8.105469 9.855469 7.539062 9.527344 7.085938 9.070312 C 6.984375 8.96875 6.949219 8.929688 6.738281 8.679688 C 6.65625 8.582031 6.578125 8.492188 6.570312 8.480469 C 6.492188 8.398438 6.394531 8.328125 6.292969 8.28125 C 6.191406 8.234375 6.085938 8.207031 5.976562 8.199219 C 5.957031 8.195312 5.875 8.195312 5.855469 8.199219 Z M 5.855469 8.199219 "/>
<path style=" stroke:none;fill-rule:nonzero;fill:rgb(0%,0%,0%);fill-opacity:1;" d="M 11.304688 8.957031 C 10.828125 8.976562 10.394531 9.261719 10.1875 9.691406 C 10.058594 9.949219 10.019531 10.242188 10.078125 10.523438 C 10.125 10.769531 10.242188 10.992188 10.414062 11.171875 C 10.597656 11.367188 10.839844 11.5 11.101562 11.550781 C 11.183594 11.570312 11.253906 11.578125 11.34375 11.578125 C 11.429688 11.578125 11.496094 11.574219 11.582031 11.558594 C 11.804688 11.523438 12.019531 11.425781 12.195312 11.28125 C 12.242188 11.242188 12.304688 11.183594 12.34375 11.140625 C 12.421875 11.050781 12.484375 10.957031 12.535156 10.851562 C 12.613281 10.699219 12.65625 10.539062 12.671875 10.367188 C 12.675781 10.308594 12.675781 10.214844 12.667969 10.152344 C 12.644531 9.867188 12.527344 9.597656 12.335938 9.386719 C 12.308594 9.359375 12.253906 9.304688 12.230469 9.285156 C 12.128906 9.195312 12.015625 9.121094 11.894531 9.070312 C 11.710938 8.988281 11.507812 8.949219 11.304688 8.957031 Z M 11.433594 9.558594 C 11.578125 9.574219 11.710938 9.632812 11.820312 9.722656 C 11.839844 9.738281 11.878906 9.777344 11.898438 9.800781 C 11.960938 9.871094 12.007812 9.953125 12.039062 10.042969 C 12.054688 10.101562 12.066406 10.15625 12.074219 10.214844 C 12.074219 10.246094 12.074219 10.320312 12.070312 10.34375 C 12.0625 10.402344 12.050781 10.460938 12.03125 10.511719 C 11.972656 10.667969 11.867188 10.792969 11.726562 10.878906 C 11.652344 10.921875 11.558594 10.957031 11.472656 10.96875 C 11.328125 10.992188 11.179688 10.96875 11.042969 10.902344 C 10.832031 10.796875 10.6875 10.589844 10.65625 10.351562 C 10.652344 10.308594 10.652344 10.242188 10.65625 10.195312 C 10.671875 10.03125 10.75 9.875 10.867188 9.761719 C 10.988281 9.640625 11.144531 9.570312 11.3125 9.558594 C 11.339844 9.554688 11.410156 9.558594 11.433594 9.558594 Z M 11.433594 9.558594 "/>
<path style=" stroke:none;fill-rule:nonzero;fill:rgb(0%,0%,0%);fill-opacity:1;" d="M 14.675781 10.1875 C 14.664062 10.191406 14.644531 10.191406 14.628906 10.191406 C 14.269531 10.226562 13.9375 10.40625 13.710938 10.691406 C 13.632812 10.792969 13.566406 10.914062 13.519531 11.035156 C 13.472656 11.164062 13.445312 11.292969 13.4375 11.433594 C 13.433594 11.472656 13.433594 11.566406 13.4375 11.601562 C 13.457031 11.832031 13.53125 12.039062 13.65625 12.226562 C 13.832031 12.492188 14.097656 12.683594 14.410156 12.765625 C 14.570312 12.808594 14.742188 12.820312 14.910156 12.800781 C 15.132812 12.773438 15.347656 12.6875 15.53125 12.550781 C 15.578125 12.511719 15.625 12.472656 15.671875 12.425781 C 15.722656 12.375 15.753906 12.339844 15.792969 12.289062 C 16.007812 12.003906 16.097656 11.640625 16.039062 11.289062 C 16 11.042969 15.894531 10.816406 15.726562 10.628906 C 15.707031 10.605469 15.652344 10.550781 15.628906 10.527344 C 15.492188 10.40625 15.339844 10.316406 15.167969 10.257812 C 15.0625 10.222656 14.957031 10.199219 14.839844 10.191406 C 14.8125 10.1875 14.703125 10.1875 14.675781 10.1875 Z M 14.785156 10.789062 C 14.875 10.792969 14.972656 10.820312 15.0625 10.863281 C 15.128906 10.894531 15.1875 10.933594 15.238281 10.988281 C 15.300781 11.046875 15.34375 11.105469 15.378906 11.179688 C 15.421875 11.261719 15.445312 11.339844 15.453125 11.429688 C 15.457031 11.457031 15.457031 11.535156 15.453125 11.558594 C 15.441406 11.695312 15.394531 11.820312 15.316406 11.925781 C 15.285156 11.964844 15.242188 12.011719 15.207031 12.042969 C 15.085938 12.140625 14.945312 12.199219 14.789062 12.207031 C 14.761719 12.210938 14.703125 12.210938 14.675781 12.207031 C 14.433594 12.179688 14.226562 12.039062 14.113281 11.824219 C 14.046875 11.691406 14.019531 11.542969 14.042969 11.398438 C 14.054688 11.308594 14.089844 11.210938 14.136719 11.132812 C 14.167969 11.082031 14.199219 11.039062 14.242188 10.996094 C 14.269531 10.96875 14.292969 10.949219 14.320312 10.929688 C 14.4375 10.84375 14.574219 10.792969 14.714844 10.789062 C 14.738281 10.789062 14.75 10.789062 14.785156 10.789062 Z M 14.785156 10.789062 "/>
<path style=" stroke:none;fill-rule:nonzero;fill:rgb(0%,0%,0%);fill-opacity:1;" d="M 10.117188 12.171875 C 9.90625 12.183594 9.703125 12.246094 9.523438 12.355469 C 9.367188 12.445312 9.234375 12.570312 9.128906 12.714844 C 9.007812 12.886719 8.925781 13.085938 8.894531 13.292969 C 8.875 13.429688 8.878906 13.566406 8.902344 13.699219 C 8.929688 13.871094 8.992188 14.035156 9.085938 14.183594 C 9.179688 14.328125 9.300781 14.457031 9.441406 14.554688 C 9.585938 14.65625 9.757812 14.730469 9.933594 14.765625 C 10.070312 14.792969 10.214844 14.800781 10.355469 14.78125 C 10.625 14.75 10.875 14.632812 11.078125 14.449219 C 11.101562 14.429688 11.152344 14.375 11.175781 14.351562 C 11.351562 14.152344 11.460938 13.90625 11.496094 13.640625 C 11.5 13.589844 11.503906 13.5625 11.503906 13.5 C 11.503906 13.441406 11.503906 13.40625 11.5 13.359375 C 11.472656 13.097656 11.371094 12.847656 11.203125 12.644531 C 11.167969 12.601562 11.117188 12.546875 11.074219 12.511719 C 10.851562 12.308594 10.570312 12.191406 10.269531 12.171875 C 10.242188 12.171875 10.144531 12.171875 10.117188 12.171875 Z M 10.257812 12.773438 C 10.347656 12.78125 10.425781 12.804688 10.507812 12.84375 C 10.582031 12.878906 10.636719 12.917969 10.695312 12.976562 C 10.734375 13.015625 10.757812 13.046875 10.789062 13.089844 C 10.878906 13.230469 10.917969 13.402344 10.898438 13.566406 C 10.871094 13.804688 10.726562 14.011719 10.511719 14.117188 C 10.386719 14.179688 10.246094 14.203125 10.109375 14.1875 C 10 14.171875 9.894531 14.136719 9.804688 14.074219 C 9.671875 13.988281 9.570312 13.859375 9.519531 13.710938 C 9.464844 13.550781 9.46875 13.382812 9.53125 13.222656 C 9.597656 13.054688 9.71875 12.921875 9.878906 12.84375 C 9.964844 12.800781 10.054688 12.777344 10.152344 12.769531 C 10.175781 12.769531 10.230469 12.769531 10.257812 12.773438 Z M 10.257812 12.773438 "/>
<path style=" stroke:none;fill-rule:nonzero;fill:rgb(0%,0%,0%);fill-opacity:1;" d="M 6.84375 12.320312 C 6.839844 12.34375 6.839844 12.410156 6.839844 12.488281 C 6.832031 12.75 6.851562 13.023438 6.886719 13.292969 C 6.910156 13.480469 6.945312 13.679688 6.988281 13.863281 L 6.996094 13.894531 L 6.992188 13.894531 C 6.953125 13.902344 6.851562 13.925781 6.789062 13.933594 C 6.648438 13.957031 6.527344 13.972656 6.371094 13.976562 C 6.324219 13.980469 6.164062 13.980469 6.113281 13.976562 C 6.027344 13.972656 6.027344 13.972656 5.761719 13.949219 C 5.648438 13.941406 5.539062 13.933594 5.523438 13.929688 C 5.433594 13.925781 5.339844 13.9375 5.25 13.964844 C 5.1875 13.984375 5.117188 14.015625 5.0625 14.046875 C 4.917969 14.128906 4.804688 14.253906 4.730469 14.402344 C 4.683594 14.492188 4.660156 14.574219 4.644531 14.699219 C 4.617188 14.890625 4.613281 15.085938 4.632812 15.277344 C 4.695312 15.914062 5.015625 16.5 5.511719 16.898438 C 5.597656 16.96875 5.683594 17.027344 5.78125 17.085938 C 5.832031 17.117188 5.851562 17.125 5.894531 17.144531 C 6.074219 17.21875 6.269531 17.234375 6.457031 17.183594 C 6.632812 17.132812 6.789062 17.027344 6.902344 16.882812 C 6.90625 16.875 6.972656 16.78125 7.046875 16.675781 C 7.125 16.570312 7.195312 16.472656 7.207031 16.457031 C 7.371094 16.234375 7.5625 16.03125 7.773438 15.859375 C 7.796875 15.84375 7.839844 15.808594 7.855469 15.796875 L 7.859375 15.792969 L 7.863281 15.796875 C 7.863281 15.800781 7.878906 15.820312 7.894531 15.839844 C 8.167969 16.226562 8.5 16.582031 8.871094 16.886719 C 8.910156 16.921875 8.964844 16.964844 8.964844 16.964844 C 8.964844 16.964844 9.335938 16.496094 9.335938 16.492188 C 9.335938 16.492188 9.320312 16.480469 9.304688 16.46875 C 9.082031 16.289062 8.851562 16.070312 8.65625 15.839844 C 8.464844 15.621094 8.304688 15.394531 8.140625 15.121094 C 7.910156 14.734375 7.726562 14.300781 7.609375 13.863281 C 7.476562 13.375 7.421875 12.863281 7.441406 12.375 C 7.441406 12.355469 7.441406 12.339844 7.441406 12.339844 C 7.441406 12.339844 7.3125 12.332031 7.15625 12.324219 C 6.996094 12.316406 6.863281 12.3125 6.855469 12.3125 L 6.84375 12.308594 Z M 7.171875 14.472656 C 7.171875 14.476562 7.238281 14.644531 7.265625 14.714844 C 7.339844 14.894531 7.433594 15.089844 7.523438 15.253906 C 7.53125 15.265625 7.539062 15.28125 7.539062 15.28125 C 7.539062 15.28125 7.527344 15.289062 7.515625 15.300781 C 7.265625 15.488281 7.023438 15.71875 6.820312 15.972656 C 6.753906 16.054688 6.722656 16.097656 6.558594 16.328125 C 6.484375 16.433594 6.417969 16.523438 6.414062 16.53125 C 6.378906 16.566406 6.332031 16.597656 6.28125 16.605469 C 6.230469 16.617188 6.1875 16.613281 6.136719 16.59375 C 6.101562 16.582031 6.003906 16.519531 5.925781 16.460938 C 5.765625 16.339844 5.632812 16.195312 5.519531 16.023438 C 5.296875 15.6875 5.191406 15.289062 5.226562 14.890625 C 5.234375 14.808594 5.246094 14.730469 5.253906 14.699219 C 5.285156 14.609375 5.367188 14.542969 5.464844 14.53125 C 5.472656 14.53125 5.484375 14.53125 5.488281 14.53125 C 5.496094 14.53125 5.597656 14.539062 5.714844 14.550781 C 6.011719 14.574219 6.035156 14.578125 6.171875 14.578125 C 6.367188 14.582031 6.574219 14.570312 6.769531 14.546875 C 6.898438 14.527344 7.039062 14.5 7.152344 14.472656 C 7.167969 14.46875 7.171875 14.46875 7.171875 14.472656 Z M 7.171875 14.472656 "/>
<path style=" stroke:none;fill-rule:nonzero;fill:rgb(0%,0%,0%);fill-opacity:1;" d="M 16.730469 13.253906 C 16.660156 13.402344 16.601562 13.523438 16.601562 13.527344 C 16.601562 13.527344 16.664062 13.554688 16.699219 13.570312 C 17.375 13.871094 18.113281 13.992188 18.847656 13.925781 C 19 13.914062 19.050781 13.90625 19.515625 13.828125 L 19.648438 13.804688 L 19.675781 13.804688 C 19.707031 13.804688 19.722656 13.808594 19.746094 13.8125 C 19.847656 13.839844 19.925781 13.910156 19.957031 14.007812 C 19.972656 14.050781 19.996094 14.171875 20.007812 14.25 C 20.019531 14.339844 20.023438 14.402344 20.023438 14.5 C 20.027344 14.570312 20.023438 14.613281 20.019531 14.667969 C 19.992188 15.066406 19.839844 15.445312 19.59375 15.753906 C 19.542969 15.816406 19.507812 15.855469 19.449219 15.914062 C 19.371094 15.992188 19.3125 16.042969 19.230469 16.101562 C 19.214844 16.113281 19.199219 16.125 19.195312 16.128906 C 19.175781 16.148438 19.136719 16.164062 19.105469 16.171875 C 19.078125 16.179688 19.054688 16.183594 19.023438 16.183594 C 18.949219 16.183594 18.878906 16.15625 18.824219 16.105469 C 18.816406 16.097656 18.753906 16.023438 18.667969 15.925781 C 18.511719 15.738281 18.480469 15.699219 18.449219 15.664062 C 18.203125 15.386719 17.921875 15.144531 17.613281 14.941406 C 17.347656 14.761719 17.054688 14.613281 16.757812 14.5 C 16.640625 14.457031 16.519531 14.417969 16.402344 14.382812 C 16.359375 14.371094 16.300781 14.355469 16.300781 14.359375 C 16.300781 14.359375 16.152344 14.9375 16.152344 14.9375 C 16.152344 14.9375 16.164062 14.941406 16.179688 14.945312 C 16.847656 15.121094 17.457031 15.484375 17.929688 15.988281 C 17.996094 16.058594 18.007812 16.074219 18.199219 16.300781 C 18.285156 16.402344 18.363281 16.492188 18.375 16.503906 C 18.4375 16.570312 18.519531 16.636719 18.605469 16.679688 C 18.710938 16.738281 18.824219 16.769531 18.949219 16.78125 C 18.980469 16.785156 19.078125 16.785156 19.109375 16.78125 C 19.261719 16.765625 19.398438 16.71875 19.523438 16.632812 C 19.539062 16.625 19.554688 16.613281 19.558594 16.609375 C 19.5625 16.605469 19.578125 16.59375 19.597656 16.578125 C 19.734375 16.476562 19.863281 16.355469 19.976562 16.230469 C 20.355469 15.804688 20.578125 15.273438 20.621094 14.703125 C 20.625 14.640625 20.625 14.609375 20.625 14.523438 C 20.625 14.40625 20.621094 14.339844 20.609375 14.230469 C 20.59375 14.074219 20.554688 13.890625 20.519531 13.792969 C 20.480469 13.691406 20.425781 13.597656 20.355469 13.515625 C 20.324219 13.476562 20.269531 13.425781 20.226562 13.394531 C 20.105469 13.296875 19.957031 13.234375 19.804688 13.214844 C 19.734375 13.203125 19.640625 13.203125 19.574219 13.210938 C 19.5625 13.210938 19.441406 13.230469 19.300781 13.253906 C 19.03125 13.300781 19.003906 13.304688 18.949219 13.3125 C 18.390625 13.386719 17.820312 13.332031 17.285156 13.15625 C 17.144531 13.109375 17.023438 13.058594 16.871094 12.988281 L 16.859375 12.984375 Z M 16.730469 13.253906 "/>
<path style=" stroke:none;fill-rule:nonzero;fill:rgb(0%,0%,0%);fill-opacity:1;" d="M 13.511719 13.402344 C 13.328125 13.414062 13.15625 13.457031 12.992188 13.539062 C 12.886719 13.59375 12.796875 13.652344 12.707031 13.730469 C 12.683594 13.75 12.613281 13.820312 12.59375 13.84375 C 12.453125 14.007812 12.355469 14.195312 12.304688 14.398438 C 12.285156 14.472656 12.273438 14.542969 12.265625 14.628906 C 12.265625 14.640625 12.265625 14.675781 12.265625 14.710938 C 12.265625 14.773438 12.265625 14.796875 12.273438 14.847656 C 12.304688 15.179688 12.46875 15.488281 12.71875 15.703125 C 12.925781 15.882812 13.183594 15.992188 13.460938 16.019531 C 13.539062 16.027344 13.640625 16.023438 13.714844 16.015625 C 13.835938 16.003906 13.945312 15.976562 14.058594 15.929688 C 14.503906 15.757812 14.816406 15.351562 14.878906 14.878906 C 14.898438 14.71875 14.886719 14.550781 14.847656 14.394531 C 14.800781 14.207031 14.707031 14.023438 14.585938 13.875 C 14.546875 13.832031 14.5 13.78125 14.457031 13.742188 C 14.304688 13.601562 14.121094 13.503906 13.917969 13.445312 C 13.835938 13.425781 13.753906 13.410156 13.660156 13.402344 C 13.632812 13.402344 13.542969 13.402344 13.511719 13.402344 Z M 13.625 14.003906 C 13.746094 14.011719 13.863281 14.050781 13.964844 14.117188 C 14.039062 14.167969 14.105469 14.230469 14.160156 14.304688 C 14.230469 14.410156 14.277344 14.535156 14.285156 14.664062 C 14.289062 14.691406 14.285156 14.757812 14.285156 14.78125 C 14.269531 14.894531 14.234375 15 14.175781 15.09375 C 14.054688 15.28125 13.851562 15.402344 13.628906 15.421875 C 13.605469 15.421875 13.546875 15.421875 13.523438 15.421875 C 13.320312 15.40625 13.132812 15.304688 13.011719 15.144531 C 12.933594 15.039062 12.882812 14.921875 12.867188 14.785156 C 12.863281 14.753906 12.863281 14.667969 12.867188 14.640625 C 12.878906 14.550781 12.902344 14.472656 12.9375 14.398438 C 12.992188 14.292969 13.066406 14.203125 13.164062 14.132812 C 13.269531 14.058594 13.394531 14.011719 13.523438 14.003906 C 13.546875 14 13.601562 14 13.625 14.003906 Z M 13.625 14.003906 "/>
<path style=" stroke:none;fill-rule:nonzero;fill:rgb(0%,0%,0%);fill-opacity:1;" d="M 16.398438 15.640625 C 16.199219 15.898438 15.960938 16.148438 15.710938 16.367188 C 15.277344 16.738281 14.785156 17.03125 14.257812 17.234375 C 14.125 17.285156 13.945312 17.34375 13.796875 17.386719 C 13.4375 17.488281 13.074219 17.550781 12.699219 17.570312 C 12.613281 17.574219 12.585938 17.574219 12.441406 17.574219 L 12.292969 17.574219 L 12.292969 17.578125 C 12.292969 17.578125 12.289062 17.714844 12.285156 17.875 C 12.28125 18.039062 12.277344 18.171875 12.277344 18.171875 C 12.28125 18.175781 12.550781 18.175781 12.636719 18.171875 C 12.839844 18.164062 13.015625 18.148438 13.199219 18.125 C 13.414062 18.09375 13.652344 18.046875 13.851562 17.996094 C 13.867188 17.992188 13.878906 17.988281 13.878906 17.988281 C 13.878906 17.988281 13.878906 17.992188 13.882812 17.996094 C 13.882812 18 13.886719 18.015625 13.890625 18.03125 C 13.941406 18.273438 13.964844 18.539062 13.960938 18.785156 C 13.957031 18.898438 13.957031 18.894531 13.933594 19.191406 C 13.921875 19.308594 13.914062 19.421875 13.914062 19.441406 C 13.910156 19.492188 13.914062 19.554688 13.921875 19.609375 C 13.945312 19.734375 13.996094 19.859375 14.070312 19.964844 C 14.1875 20.125 14.355469 20.242188 14.550781 20.292969 C 14.574219 20.296875 14.605469 20.304688 14.628906 20.308594 C 14.636719 20.308594 14.664062 20.3125 14.683594 20.316406 C 14.945312 20.351562 15.195312 20.347656 15.453125 20.300781 C 15.742188 20.246094 16.027344 20.136719 16.277344 19.980469 C 16.511719 19.832031 16.714844 19.652344 16.886719 19.4375 C 16.949219 19.355469 17.007812 19.273438 17.0625 19.179688 C 17.097656 19.125 17.113281 19.09375 17.132812 19.042969 C 17.164062 18.960938 17.183594 18.878906 17.191406 18.789062 C 17.191406 18.765625 17.191406 18.695312 17.191406 18.671875 C 17.179688 18.507812 17.121094 18.351562 17.023438 18.222656 C 16.992188 18.179688 16.945312 18.128906 16.910156 18.097656 C 16.878906 18.066406 16.851562 18.050781 16.652344 17.90625 C 16.445312 17.761719 16.394531 17.722656 16.339844 17.679688 C 16.242188 17.597656 16.164062 17.53125 16.070312 17.4375 C 15.980469 17.347656 15.910156 17.269531 15.832031 17.171875 C 15.804688 17.140625 15.765625 17.089844 15.765625 17.089844 C 15.765625 17.089844 15.785156 17.074219 15.8125 17.054688 C 15.976562 16.929688 16.148438 16.785156 16.285156 16.65625 C 16.480469 16.46875 16.648438 16.289062 16.804688 16.09375 C 16.851562 16.035156 16.902344 15.972656 16.898438 15.972656 C 16.878906 15.953125 16.421875 15.609375 16.421875 15.609375 C 16.421875 15.609375 16.410156 15.625 16.398438 15.640625 Z M 15.285156 17.453125 C 15.398438 17.601562 15.511719 17.730469 15.648438 17.863281 C 15.757812 17.972656 15.855469 18.0625 15.972656 18.152344 C 16.046875 18.210938 16.066406 18.226562 16.296875 18.390625 C 16.398438 18.464844 16.492188 18.53125 16.496094 18.535156 C 16.511719 18.546875 16.53125 18.566406 16.542969 18.582031 C 16.585938 18.640625 16.601562 18.714844 16.585938 18.78125 C 16.582031 18.8125 16.570312 18.832031 16.550781 18.871094 C 16.429688 19.070312 16.28125 19.238281 16.097656 19.375 C 15.828125 19.578125 15.503906 19.703125 15.167969 19.734375 C 15.0625 19.742188 14.949219 19.742188 14.84375 19.730469 C 14.800781 19.726562 14.726562 19.714844 14.703125 19.710938 C 14.675781 19.703125 14.640625 19.691406 14.617188 19.671875 C 14.597656 19.660156 14.570312 19.628906 14.558594 19.613281 C 14.546875 19.597656 14.53125 19.570312 14.527344 19.550781 C 14.515625 19.527344 14.511719 19.496094 14.511719 19.472656 C 14.511719 19.46875 14.519531 19.359375 14.53125 19.234375 C 14.558594 18.910156 14.558594 18.878906 14.558594 18.71875 C 14.558594 18.527344 14.550781 18.375 14.523438 18.191406 C 14.507812 18.070312 14.480469 17.921875 14.457031 17.8125 C 14.453125 17.804688 14.453125 17.800781 14.457031 17.800781 C 14.464844 17.796875 14.523438 17.777344 14.558594 17.761719 C 14.734375 17.691406 14.917969 17.605469 15.09375 17.511719 C 15.128906 17.492188 15.21875 17.445312 15.242188 17.429688 C 15.25 17.421875 15.257812 17.417969 15.257812 17.417969 C 15.261719 17.417969 15.269531 17.433594 15.285156 17.453125 Z M 15.285156 17.453125 "/>
<path style=" stroke:none;fill-rule:nonzero;fill:rgb(0%,0%,0%);fill-opacity:1;" d="M 10.011719 16.207031 C 10.003906 16.234375 9.988281 16.289062 9.980469 16.324219 C 9.824219 16.839844 9.554688 17.320312 9.195312 17.722656 C 9.113281 17.8125 9.015625 17.914062 8.921875 17.996094 C 8.878906 18.035156 8.84375 18.066406 8.660156 18.21875 C 8.5625 18.304688 8.472656 18.378906 8.464844 18.386719 C 8.246094 18.585938 8.140625 18.878906 8.183594 19.175781 C 8.203125 19.304688 8.25 19.433594 8.324219 19.539062 C 8.347656 19.578125 8.390625 19.632812 8.429688 19.683594 C 8.867188 20.226562 9.507812 20.570312 10.203125 20.636719 C 10.335938 20.648438 10.476562 20.648438 10.613281 20.640625 C 10.773438 20.628906 10.941406 20.601562 11.089844 20.5625 C 11.304688 20.507812 11.484375 20.375 11.605469 20.191406 C 11.691406 20.0625 11.738281 19.925781 11.75 19.769531 C 11.753906 19.746094 11.753906 19.648438 11.75 19.621094 C 11.75 19.589844 11.746094 19.578125 11.703125 19.308594 C 11.679688 19.164062 11.65625 19.03125 11.65625 19.015625 C 11.636719 18.886719 11.625 18.773438 11.617188 18.628906 C 11.617188 18.613281 11.617188 18.558594 11.617188 18.507812 C 11.613281 18.417969 11.617188 18.355469 11.621094 18.277344 C 11.644531 17.816406 11.753906 17.367188 11.945312 16.949219 C 11.957031 16.925781 11.964844 16.90625 11.964844 16.90625 C 11.960938 16.90625 11.425781 16.652344 11.421875 16.652344 C 11.421875 16.652344 11.417969 16.660156 11.40625 16.6875 C 11.113281 17.324219 10.980469 18.027344 11.023438 18.730469 C 11.03125 18.855469 11.042969 18.976562 11.0625 19.105469 C 11.066406 19.136719 11.105469 19.378906 11.136719 19.554688 C 11.152344 19.660156 11.152344 19.660156 11.152344 19.6875 C 11.15625 19.71875 11.152344 19.738281 11.148438 19.761719 C 11.136719 19.816406 11.105469 19.867188 11.066406 19.90625 C 11.042969 19.929688 11.019531 19.945312 10.992188 19.960938 C 10.964844 19.976562 10.945312 19.980469 10.886719 19.996094 C 10.660156 20.046875 10.425781 20.058594 10.195312 20.03125 C 9.757812 19.976562 9.355469 19.78125 9.046875 19.472656 C 8.976562 19.402344 8.921875 19.335938 8.863281 19.261719 C 8.820312 19.203125 8.808594 19.183594 8.796875 19.152344 C 8.78125 19.113281 8.773438 19.0625 8.777344 19.023438 C 8.78125 18.953125 8.808594 18.890625 8.855469 18.84375 C 8.863281 18.835938 8.925781 18.78125 9 18.71875 C 9.222656 18.53125 9.230469 18.523438 9.265625 18.496094 C 9.398438 18.378906 9.53125 18.246094 9.648438 18.113281 C 10.078125 17.632812 10.394531 17.054688 10.570312 16.4375 C 10.589844 16.375 10.59375 16.355469 10.59375 16.355469 C 10.59375 16.355469 10.464844 16.320312 10.304688 16.277344 C 10.148438 16.238281 10.015625 16.203125 10.015625 16.203125 C 10.015625 16.203125 10.011719 16.203125 10.011719 16.207031 Z M 10.011719 16.207031 "/>
</g>
</svg>
