<?xml version="1.0" encoding="UTF-8"?>
<svg xmlns="http://www.w3.org/2000/svg" xmlns:xlink="http://www.w3.org/1999/xlink" viewBox="0 0 24 24" version="1.1">
<g>
<path style=" stroke:none;fill-rule:nonzero;fill:rgb(0%,0%,0%);fill-opacity:1;" d="M 9.320312 3.300781 C 9.261719 3.300781 9.179688 3.304688 9.136719 3.304688 C 8.242188 3.34375 7.351562 3.550781 6.539062 3.910156 C 6.367188 3.988281 6.179688 4.078125 6.015625 4.167969 C 5.339844 4.535156 4.734375 5.007812 4.210938 5.570312 C 3.671875 6.148438 3.230469 6.8125 2.910156 7.539062 C 2.558594 8.328125 2.351562 9.171875 2.304688 10.03125 C 2.296875 10.175781 2.292969 10.269531 2.292969 10.429688 C 2.292969 10.550781 2.296875 10.609375 2.300781 10.707031 C 2.339844 11.78125 2.625 12.839844 3.128906 13.785156 C 3.550781 14.582031 4.125 15.289062 4.816406 15.875 C 5.363281 16.339844 5.976562 16.71875 6.632812 16.996094 C 7.273438 17.269531 7.949219 17.449219 8.636719 17.523438 C 8.707031 17.53125 8.730469 17.535156 8.730469 17.535156 C 8.730469 17.535156 8.746094 17.398438 8.761719 17.234375 C 8.789062 16.941406 8.789062 16.9375 8.785156 16.9375 C 8.785156 16.9375 8.777344 16.9375 8.765625 16.933594 C 8.679688 16.925781 8.511719 16.90625 8.398438 16.886719 C 7.617188 16.761719 6.867188 16.496094 6.179688 16.101562 C 5.535156 15.730469 4.953125 15.25 4.46875 14.6875 C 4.074219 14.230469 3.75 13.726562 3.496094 13.175781 C 3.425781 13.019531 3.351562 12.839844 3.292969 12.679688 L 3.285156 12.65625 L 4.113281 11.824219 L 4.945312 10.992188 L 4.945312 9.855469 L 5.167969 9.636719 L 5.386719 9.414062 L 6.546875 9.414062 L 7.667969 8.292969 L 7.667969 6.765625 L 6.300781 5.398438 L 6.089844 5.609375 C 5.972656 5.726562 5.878906 5.824219 5.878906 5.824219 C 5.878906 5.824219 6.144531 6.09375 6.472656 6.421875 L 7.070312 7.015625 L 7.070312 8.042969 L 6.296875 8.816406 L 5.136719 8.816406 L 4.34375 9.609375 L 4.34375 10.742188 L 3.714844 11.375 C 3.371094 11.71875 3.085938 12.003906 3.085938 12.003906 C 3.085938 12 3.0625 11.902344 3.050781 11.847656 C 2.960938 11.4375 2.914062 11.058594 2.898438 10.625 C 2.894531 10.519531 2.894531 10.308594 2.898438 10.1875 C 2.925781 9.449219 3.074219 8.738281 3.34375 8.050781 C 3.441406 7.804688 3.558594 7.550781 3.6875 7.316406 C 4.117188 6.523438 4.710938 5.824219 5.417969 5.273438 C 6.273438 4.609375 7.277344 4.171875 8.355469 3.988281 C 8.59375 3.949219 8.839844 3.921875 9.085938 3.910156 C 9.21875 3.902344 9.332031 3.898438 9.480469 3.898438 C 9.59375 3.902344 9.628906 3.902344 9.714844 3.90625 C 10.753906 3.949219 11.757812 4.242188 12.667969 4.757812 L 12.71875 4.789062 L 11.890625 5.617188 L 10.433594 5.617188 L 8.792969 7.257812 L 8.792969 9.386719 L 9.957031 10.550781 L 11.222656 10.550781 L 11.441406 10.769531 C 11.558594 10.890625 11.660156 10.988281 11.660156 10.988281 C 11.660156 10.988281 11.757812 10.894531 11.871094 10.777344 L 12.085938 10.566406 L 11.472656 9.953125 L 10.207031 9.953125 L 9.390625 9.136719 L 9.390625 7.507812 L 10.039062 6.863281 L 10.683594 6.21875 L 12.140625 6.21875 L 12.6875 5.671875 L 13.234375 5.121094 L 13.265625 5.144531 C 13.660156 5.429688 14.023438 5.761719 14.34375 6.125 C 14.757812 6.59375 15.101562 7.125 15.363281 7.691406 C 15.644531 8.304688 15.832031 8.96875 15.914062 9.636719 C 15.917969 9.667969 15.921875 9.699219 15.921875 9.703125 C 15.925781 9.707031 15.925781 9.707031 15.929688 9.707031 C 15.929688 9.707031 16.0625 9.695312 16.226562 9.675781 C 16.386719 9.65625 16.519531 9.640625 16.519531 9.640625 C 16.519531 9.640625 16.519531 9.636719 16.511719 9.566406 C 16.390625 8.597656 16.082031 7.671875 15.59375 6.839844 C 15.175781 6.125 14.636719 5.488281 14 4.957031 C 13.464844 4.511719 12.871094 4.144531 12.230469 3.871094 C 11.957031 3.753906 11.671875 3.652344 11.382812 3.570312 C 11 3.460938 10.605469 3.382812 10.210938 3.339844 C 10.019531 3.320312 9.84375 3.308594 9.636719 3.300781 C 9.59375 3.300781 9.363281 3.300781 9.320312 3.300781 Z M 9.320312 3.300781 "/>
<path style=" stroke:none;fill-rule:nonzero;fill:rgb(0%,0%,0%);fill-opacity:1;" d="M 16.289062 10.457031 C 16.152344 10.460938 16.003906 10.484375 15.882812 10.519531 C 15.683594 10.570312 15.519531 10.707031 15.433594 10.894531 C 15.375 11.015625 15.351562 11.15625 15.367188 11.285156 C 15.367188 11.292969 15.382812 11.378906 15.394531 11.472656 C 15.429688 11.679688 15.433594 11.695312 15.4375 11.738281 C 15.464844 11.957031 15.464844 12.175781 15.433594 12.394531 C 15.425781 12.425781 15.417969 12.484375 15.417969 12.484375 C 15.414062 12.484375 15.40625 12.484375 15.378906 12.480469 C 15.070312 12.445312 14.753906 12.445312 14.4375 12.484375 C 14.347656 12.496094 14.207031 12.519531 14.140625 12.535156 C 14.132812 12.535156 14.128906 12.539062 14.128906 12.535156 C 14.128906 12.535156 14.121094 12.488281 14.113281 12.453125 C 14.101562 12.386719 14.09375 12.304688 14.085938 12.222656 C 14.085938 12.183594 14.085938 12.074219 14.085938 12.03125 C 14.089844 11.976562 14.089844 11.960938 14.101562 11.800781 C 14.113281 11.667969 14.113281 11.664062 14.113281 11.621094 C 14.113281 11.5625 14.113281 11.53125 14.101562 11.480469 C 14.082031 11.394531 14.046875 11.308594 13.996094 11.238281 C 13.914062 11.125 13.796875 11.039062 13.664062 10.996094 C 13.59375 10.972656 13.492188 10.957031 13.371094 10.949219 C 13.335938 10.949219 13.214844 10.949219 13.183594 10.953125 C 13.03125 10.964844 12.902344 10.988281 12.769531 11.03125 C 12.550781 11.105469 12.355469 11.21875 12.179688 11.375 C 12.15625 11.398438 12.085938 11.464844 12.066406 11.488281 C 11.960938 11.605469 11.863281 11.746094 11.824219 11.84375 C 11.773438 11.964844 11.757812 12.101562 11.785156 12.226562 C 11.816406 12.378906 11.898438 12.515625 12.019531 12.613281 C 12.027344 12.617188 12.09375 12.664062 12.164062 12.71875 C 12.238281 12.769531 12.308594 12.820312 12.324219 12.832031 C 12.429688 12.914062 12.527344 13.003906 12.617188 13.105469 C 12.640625 13.128906 12.683594 13.179688 12.6875 13.1875 L 12.691406 13.191406 L 12.65625 13.214844 C 12.339844 13.457031 12.0625 13.742188 11.835938 14.070312 C 11.820312 14.09375 11.808594 14.109375 11.804688 14.109375 C 11.804688 14.113281 11.75 14.078125 11.710938 14.050781 C 11.601562 13.980469 11.503906 13.902344 11.40625 13.8125 C 11.371094 13.78125 11.289062 13.699219 11.257812 13.667969 C 11.222656 13.625 11.207031 13.609375 11.097656 13.480469 C 11.039062 13.410156 10.984375 13.347656 10.976562 13.335938 C 10.933594 13.289062 10.878906 13.246094 10.820312 13.210938 C 10.585938 13.070312 10.292969 13.078125 10.066406 13.226562 C 10.015625 13.261719 9.9375 13.324219 9.878906 13.375 C 9.847656 13.402344 9.769531 13.480469 9.746094 13.507812 C 9.582031 13.6875 9.464844 13.882812 9.382812 14.105469 C 9.324219 14.257812 9.289062 14.417969 9.269531 14.582031 C 9.261719 14.679688 9.261719 14.796875 9.269531 14.898438 C 9.277344 15.011719 9.296875 15.132812 9.324219 15.234375 C 9.363281 15.378906 9.449219 15.507812 9.566406 15.605469 C 9.699219 15.710938 9.871094 15.765625 10.042969 15.757812 C 10.058594 15.757812 10.085938 15.753906 10.097656 15.753906 C 10.109375 15.753906 10.195312 15.738281 10.289062 15.722656 C 10.503906 15.6875 10.539062 15.679688 10.621094 15.671875 C 10.703125 15.667969 10.761719 15.664062 10.851562 15.664062 C 10.96875 15.664062 11.0625 15.667969 11.183594 15.6875 C 11.199219 15.6875 11.199219 15.6875 11.199219 15.691406 C 11.199219 15.691406 11.195312 15.707031 11.195312 15.726562 C 11.179688 15.851562 11.167969 15.96875 11.164062 16.097656 C 11.160156 16.148438 11.160156 16.300781 11.164062 16.347656 C 11.171875 16.558594 11.195312 16.75 11.234375 16.953125 C 11.238281 16.972656 11.238281 16.988281 11.242188 16.988281 C 11.242188 16.992188 11.238281 16.992188 11.191406 17 C 11.136719 17.007812 11.089844 17.011719 11.027344 17.015625 C 11 17.019531 10.972656 17.019531 10.902344 17.019531 C 10.789062 17.019531 10.808594 17.019531 10.578125 17 C 10.507812 16.992188 10.441406 16.988281 10.429688 16.988281 C 10.378906 16.984375 10.308594 16.992188 10.253906 17.007812 C 10.09375 17.046875 9.957031 17.144531 9.867188 17.277344 C 9.8125 17.355469 9.78125 17.433594 9.765625 17.527344 C 9.738281 17.667969 9.734375 17.839844 9.75 17.996094 C 9.800781 18.457031 10.042969 18.871094 10.414062 19.148438 C 10.472656 19.1875 10.558594 19.242188 10.601562 19.265625 C 10.714844 19.320312 10.84375 19.34375 10.972656 19.324219 C 11.144531 19.304688 11.300781 19.214844 11.410156 19.078125 C 11.414062 19.070312 11.460938 19.007812 11.511719 18.9375 C 11.5625 18.867188 11.609375 18.796875 11.621094 18.785156 C 11.660156 18.734375 11.703125 18.679688 11.746094 18.632812 C 11.777344 18.601562 11.847656 18.527344 11.875 18.503906 C 11.890625 18.492188 11.902344 18.480469 11.90625 18.476562 L 11.910156 18.472656 L 11.933594 18.5 C 12.015625 18.605469 12.085938 18.695312 12.175781 18.789062 C 12.238281 18.855469 12.351562 18.96875 12.425781 19.03125 C 12.558594 19.152344 12.71875 19.273438 12.855469 19.363281 C 12.867188 19.371094 12.878906 19.378906 12.878906 19.378906 C 12.878906 19.378906 12.871094 19.390625 12.859375 19.40625 C 12.742188 19.585938 12.597656 19.753906 12.429688 19.898438 C 12.421875 19.90625 12.355469 19.964844 12.285156 20.023438 C 12.152344 20.136719 12.125 20.160156 12.09375 20.195312 C 12 20.300781 11.941406 20.433594 11.921875 20.570312 C 11.917969 20.625 11.914062 20.6875 11.921875 20.734375 C 11.933594 20.859375 11.976562 20.972656 12.046875 21.070312 C 12.128906 21.191406 12.238281 21.308594 12.355469 21.40625 C 12.621094 21.636719 12.949219 21.785156 13.296875 21.835938 C 13.386719 21.851562 13.449219 21.855469 13.542969 21.855469 C 13.632812 21.855469 13.691406 21.855469 13.769531 21.847656 C 13.859375 21.835938 13.960938 21.816406 14.039062 21.796875 C 14.277344 21.730469 14.464844 21.550781 14.535156 21.3125 C 14.5625 21.222656 14.574219 21.125 14.5625 21.03125 C 14.5625 21.019531 14.546875 20.925781 14.527344 20.820312 C 14.488281 20.589844 14.484375 20.550781 14.476562 20.457031 C 14.472656 20.394531 14.472656 20.371094 14.46875 20.300781 C 14.46875 20.210938 14.472656 20.152344 14.476562 20.066406 C 14.480469 20.03125 14.488281 19.960938 14.488281 19.960938 C 14.488281 19.960938 14.503906 19.960938 14.519531 19.964844 C 14.601562 19.972656 14.671875 19.976562 14.769531 19.984375 C 14.816406 19.984375 15.042969 19.984375 15.089844 19.984375 C 15.328125 19.96875 15.527344 19.945312 15.738281 19.898438 C 15.78125 19.886719 15.789062 19.886719 15.789062 19.886719 C 15.789062 19.886719 15.789062 19.902344 15.792969 19.917969 C 15.800781 19.96875 15.804688 20.027344 15.808594 20.089844 C 15.8125 20.125 15.8125 20.28125 15.808594 20.320312 C 15.808594 20.335938 15.800781 20.417969 15.792969 20.5 C 15.78125 20.648438 15.78125 20.652344 15.78125 20.695312 C 15.78125 20.757812 15.785156 20.796875 15.800781 20.851562 C 15.835938 21 15.921875 21.132812 16.046875 21.222656 C 16.128906 21.28125 16.226562 21.324219 16.320312 21.339844 C 16.363281 21.347656 16.425781 21.355469 16.472656 21.359375 C 16.550781 21.363281 16.652344 21.363281 16.730469 21.359375 C 17.078125 21.332031 17.402344 21.199219 17.671875 20.972656 C 17.808594 20.859375 17.929688 20.714844 18.023438 20.558594 C 18.042969 20.523438 18.054688 20.503906 18.066406 20.480469 C 18.105469 20.386719 18.125 20.296875 18.121094 20.199219 C 18.117188 20 18.027344 19.820312 17.871094 19.695312 C 17.867188 19.691406 17.800781 19.644531 17.726562 19.589844 C 17.582031 19.488281 17.566406 19.476562 17.523438 19.441406 C 17.4375 19.371094 17.355469 19.292969 17.277344 19.207031 C 17.265625 19.191406 17.253906 19.179688 17.253906 19.179688 C 17.253906 19.179688 17.265625 19.171875 17.277344 19.160156 C 17.472656 19.003906 17.65625 18.820312 17.816406 18.632812 C 17.925781 18.503906 18.023438 18.371094 18.109375 18.230469 C 18.125 18.207031 18.128906 18.207031 18.128906 18.207031 C 18.132812 18.207031 18.144531 18.214844 18.160156 18.226562 C 18.359375 18.351562 18.550781 18.511719 18.707031 18.691406 C 18.71875 18.703125 18.773438 18.769531 18.832031 18.839844 C 18.925781 18.945312 18.945312 18.96875 18.96875 18.996094 C 19.027344 19.050781 19.078125 19.089844 19.148438 19.125 C 19.242188 19.171875 19.339844 19.199219 19.441406 19.203125 C 19.578125 19.207031 19.707031 19.175781 19.820312 19.109375 C 19.859375 19.085938 19.90625 19.054688 19.96875 19.003906 C 20.054688 18.933594 20.140625 18.851562 20.214844 18.765625 C 20.503906 18.429688 20.664062 17.996094 20.664062 17.554688 C 20.664062 17.398438 20.644531 17.25 20.609375 17.105469 C 20.59375 17.039062 20.582031 17.003906 20.554688 16.949219 C 20.507812 16.855469 20.445312 16.777344 20.363281 16.710938 C 20.21875 16.59375 20.03125 16.539062 19.847656 16.558594 C 19.835938 16.558594 19.742188 16.574219 19.636719 16.589844 C 19.453125 16.621094 19.402344 16.628906 19.351562 16.636719 C 19.253906 16.644531 19.179688 16.648438 19.078125 16.648438 C 18.964844 16.648438 18.878906 16.644531 18.769531 16.632812 C 18.734375 16.625 18.675781 16.617188 18.671875 16.617188 C 18.671875 16.617188 18.675781 16.601562 18.675781 16.578125 C 18.6875 16.457031 18.691406 16.355469 18.691406 16.222656 C 18.691406 16.132812 18.691406 16.085938 18.6875 16.007812 C 18.675781 15.792969 18.640625 15.5625 18.59375 15.355469 C 18.589844 15.34375 18.585938 15.332031 18.585938 15.332031 C 18.589844 15.332031 18.628906 15.324219 18.660156 15.320312 C 18.730469 15.308594 18.800781 15.300781 18.886719 15.296875 C 18.925781 15.292969 19.070312 15.292969 19.109375 15.296875 C 19.125 15.296875 19.203125 15.300781 19.289062 15.308594 C 19.453125 15.324219 19.484375 15.324219 19.527344 15.320312 C 19.585938 15.316406 19.636719 15.308594 19.691406 15.289062 C 19.851562 15.238281 19.988281 15.125 20.066406 14.972656 C 20.101562 14.910156 20.128906 14.824219 20.136719 14.761719 C 20.136719 14.753906 20.136719 14.738281 20.140625 14.722656 C 20.15625 14.597656 20.160156 14.484375 20.148438 14.367188 C 20.113281 13.882812 19.859375 13.4375 19.460938 13.152344 C 19.386719 13.097656 19.3125 13.054688 19.257812 13.03125 C 19.203125 13.007812 19.140625 12.992188 19.078125 12.984375 C 19.054688 12.980469 18.984375 12.980469 18.957031 12.980469 C 18.820312 12.992188 18.699219 13.042969 18.589844 13.125 C 18.558594 13.15625 18.511719 13.199219 18.484375 13.234375 C 18.480469 13.238281 18.4375 13.304688 18.382812 13.375 C 18.332031 13.445312 18.28125 13.515625 18.273438 13.53125 C 18.171875 13.664062 18.050781 13.789062 17.921875 13.894531 C 17.910156 13.902344 17.902344 13.910156 17.902344 13.910156 C 17.902344 13.910156 17.890625 13.894531 17.878906 13.878906 C 17.820312 13.804688 17.753906 13.730469 17.683594 13.652344 C 17.644531 13.609375 17.539062 13.503906 17.496094 13.464844 C 17.339844 13.320312 17.191406 13.199219 17.019531 13.085938 C 16.996094 13.070312 16.976562 13.058594 16.976562 13.058594 C 16.976562 13.054688 16.980469 13.042969 16.988281 13.03125 C 17.078125 12.878906 17.179688 12.742188 17.300781 12.605469 C 17.328125 12.574219 17.421875 12.480469 17.453125 12.453125 C 17.488281 12.417969 17.507812 12.402344 17.644531 12.285156 C 17.777344 12.175781 17.804688 12.152344 17.835938 12.113281 C 17.933594 12.003906 17.988281 11.871094 18.007812 11.722656 C 18.007812 11.6875 18.007812 11.613281 18.007812 11.578125 C 17.996094 11.476562 17.964844 11.378906 17.914062 11.296875 C 17.859375 11.203125 17.757812 11.078125 17.652344 10.976562 C 17.289062 10.625 16.792969 10.4375 16.289062 10.457031 Z M 16.457031 11.058594 C 16.53125 11.066406 16.59375 11.074219 16.664062 11.09375 C 16.941406 11.160156 17.1875 11.320312 17.359375 11.550781 C 17.375 11.566406 17.394531 11.59375 17.398438 11.605469 C 17.410156 11.625 17.410156 11.652344 17.40625 11.675781 C 17.402344 11.691406 17.390625 11.710938 17.382812 11.722656 C 17.378906 11.726562 17.316406 11.777344 17.246094 11.835938 C 17.113281 11.949219 17.085938 11.976562 17.039062 12.015625 C 17.007812 12.046875 16.910156 12.144531 16.878906 12.175781 C 16.652344 12.421875 16.472656 12.691406 16.335938 12.992188 C 16.324219 13.015625 16.226562 13.242188 16.203125 13.304688 C 16.199219 13.308594 16.253906 13.335938 16.316406 13.371094 C 16.453125 13.445312 16.488281 13.464844 16.527344 13.484375 C 16.820312 13.65625 17.082031 13.875 17.308594 14.132812 C 17.390625 14.226562 17.464844 14.324219 17.539062 14.429688 C 17.550781 14.445312 17.597656 14.519531 17.644531 14.59375 C 17.691406 14.664062 17.730469 14.726562 17.730469 14.726562 C 17.734375 14.726562 17.988281 14.578125 18.039062 14.546875 C 18.3125 14.375 18.558594 14.148438 18.753906 13.886719 C 18.769531 13.871094 18.820312 13.796875 18.871094 13.730469 C 18.917969 13.660156 18.960938 13.601562 18.964844 13.597656 C 18.980469 13.582031 19 13.578125 19.023438 13.582031 C 19.03125 13.585938 19.09375 13.625 19.128906 13.652344 C 19.238281 13.734375 19.332031 13.835938 19.402344 13.953125 C 19.484375 14.09375 19.535156 14.238281 19.550781 14.40625 C 19.554688 14.4375 19.554688 14.527344 19.554688 14.5625 C 19.550781 14.617188 19.542969 14.679688 19.535156 14.691406 C 19.527344 14.707031 19.507812 14.722656 19.488281 14.722656 C 19.484375 14.722656 19.414062 14.71875 19.335938 14.710938 C 19.253906 14.703125 19.175781 14.699219 19.15625 14.695312 C 18.8125 14.675781 18.46875 14.722656 18.136719 14.835938 C 18.09375 14.847656 17.835938 14.9375 17.835938 14.9375 C 17.835938 14.9375 17.859375 15.011719 17.890625 15.105469 C 17.957031 15.300781 17.976562 15.359375 18 15.460938 C 18.050781 15.667969 18.078125 15.863281 18.089844 16.089844 C 18.09375 16.136719 18.09375 16.304688 18.089844 16.351562 C 18.085938 16.480469 18.074219 16.59375 18.054688 16.707031 C 18.050781 16.746094 18.042969 16.785156 18.011719 16.949219 C 18 17.011719 17.992188 17.0625 17.992188 17.0625 C 17.992188 17.0625 18.203125 17.125 18.273438 17.140625 C 18.5 17.203125 18.722656 17.238281 18.964844 17.25 C 19.011719 17.25 19.144531 17.25 19.191406 17.25 C 19.304688 17.242188 19.417969 17.234375 19.523438 17.21875 C 19.535156 17.214844 19.628906 17.199219 19.726562 17.183594 C 19.898438 17.15625 19.910156 17.152344 19.921875 17.15625 C 19.9375 17.15625 19.949219 17.160156 19.964844 17.164062 C 19.996094 17.179688 20.015625 17.207031 20.027344 17.246094 C 20.042969 17.316406 20.058594 17.402344 20.0625 17.480469 C 20.0625 17.511719 20.0625 17.597656 20.0625 17.625 C 20.042969 17.914062 19.933594 18.179688 19.742188 18.394531 C 19.695312 18.449219 19.632812 18.503906 19.578125 18.546875 C 19.523438 18.589844 19.511719 18.597656 19.488281 18.601562 C 19.457031 18.605469 19.421875 18.597656 19.398438 18.574219 C 19.394531 18.570312 19.34375 18.511719 19.285156 18.445312 C 19.230469 18.378906 19.171875 18.3125 19.160156 18.296875 C 18.980469 18.09375 18.773438 17.910156 18.550781 17.765625 C 18.429688 17.683594 18.296875 17.609375 18.171875 17.546875 C 18.136719 17.53125 17.875 17.414062 17.875 17.414062 C 17.871094 17.414062 17.839844 17.476562 17.800781 17.550781 C 17.726562 17.695312 17.707031 17.734375 17.679688 17.785156 C 17.464844 18.15625 17.164062 18.496094 16.808594 18.765625 C 16.753906 18.804688 16.703125 18.839844 16.5625 18.933594 C 16.484375 18.988281 16.417969 19.03125 16.417969 19.03125 C 16.417969 19.03125 16.582031 19.285156 16.609375 19.324219 C 16.765625 19.554688 16.957031 19.761719 17.175781 19.933594 C 17.214844 19.964844 17.230469 19.972656 17.371094 20.074219 C 17.441406 20.125 17.503906 20.167969 17.507812 20.171875 C 17.515625 20.183594 17.523438 20.195312 17.523438 20.210938 C 17.523438 20.222656 17.519531 20.230469 17.507812 20.253906 C 17.433594 20.378906 17.332031 20.488281 17.210938 20.570312 C 17 20.71875 16.742188 20.785156 16.488281 20.757812 C 16.445312 20.75 16.417969 20.746094 16.410156 20.742188 C 16.394531 20.734375 16.382812 20.714844 16.382812 20.699219 C 16.382812 20.695312 16.386719 20.625 16.394531 20.546875 C 16.398438 20.46875 16.40625 20.386719 16.40625 20.371094 C 16.414062 20.257812 16.414062 20.136719 16.40625 20.019531 C 16.394531 19.839844 16.359375 19.652344 16.3125 19.480469 C 16.304688 19.453125 16.207031 19.132812 16.203125 19.132812 C 16.203125 19.132812 16.132812 19.152344 16.050781 19.183594 C 15.875 19.238281 15.855469 19.246094 15.796875 19.261719 C 15.324219 19.398438 14.824219 19.421875 14.339844 19.328125 C 14.328125 19.328125 14.253906 19.3125 14.171875 19.296875 C 14.09375 19.28125 14.027344 19.265625 14.027344 19.265625 C 14.023438 19.269531 13.953125 19.570312 13.941406 19.609375 C 13.902344 19.785156 13.882812 19.953125 13.871094 20.148438 C 13.871094 20.195312 13.871094 20.347656 13.871094 20.394531 C 13.875 20.492188 13.882812 20.558594 13.894531 20.644531 C 13.898438 20.703125 13.90625 20.730469 13.9375 20.921875 C 13.960938 21.078125 13.964844 21.09375 13.964844 21.109375 C 13.964844 21.132812 13.964844 21.140625 13.953125 21.160156 C 13.945312 21.179688 13.925781 21.195312 13.90625 21.207031 C 13.890625 21.214844 13.859375 21.222656 13.8125 21.234375 C 13.691406 21.257812 13.570312 21.261719 13.445312 21.25 C 13.089844 21.21875 12.757812 21.027344 12.546875 20.738281 C 12.523438 20.707031 12.515625 20.6875 12.519531 20.660156 C 12.519531 20.628906 12.527344 20.609375 12.546875 20.589844 C 12.550781 20.585938 12.609375 20.535156 12.679688 20.472656 C 12.851562 20.332031 12.863281 20.320312 12.933594 20.25 C 13.027344 20.164062 13.117188 20.0625 13.203125 19.957031 C 13.324219 19.804688 13.425781 19.648438 13.519531 19.46875 C 13.539062 19.4375 13.679688 19.144531 13.679688 19.144531 C 13.679688 19.140625 13.625 19.113281 13.554688 19.074219 C 13.375 18.980469 13.351562 18.964844 13.289062 18.925781 C 13.105469 18.816406 12.941406 18.691406 12.777344 18.542969 C 12.742188 18.507812 12.644531 18.410156 12.609375 18.371094 C 12.5 18.257812 12.40625 18.136719 12.316406 18.007812 C 12.289062 17.964844 12.261719 17.921875 12.207031 17.835938 C 12.179688 17.792969 12.160156 17.761719 12.160156 17.761719 C 12.160156 17.757812 11.914062 17.746094 11.894531 17.746094 L 11.886719 17.746094 L 11.832031 17.78125 C 11.773438 17.820312 11.75 17.835938 11.714844 17.863281 C 11.496094 18.019531 11.296875 18.214844 11.128906 18.4375 C 11.121094 18.449219 11.074219 18.515625 11.023438 18.582031 C 10.976562 18.652344 10.929688 18.714844 10.929688 18.714844 C 10.917969 18.726562 10.910156 18.730469 10.894531 18.730469 C 10.878906 18.730469 10.871094 18.730469 10.851562 18.714844 C 10.570312 18.546875 10.382812 18.257812 10.347656 17.933594 C 10.339844 17.859375 10.335938 17.78125 10.34375 17.710938 C 10.351562 17.660156 10.355469 17.628906 10.359375 17.621094 C 10.367188 17.605469 10.386719 17.589844 10.402344 17.589844 C 10.40625 17.585938 10.457031 17.589844 10.546875 17.597656 C 10.761719 17.617188 10.777344 17.617188 10.898438 17.617188 C 10.988281 17.617188 11.019531 17.617188 11.085938 17.613281 C 11.242188 17.601562 11.390625 17.578125 11.542969 17.539062 C 11.601562 17.527344 11.683594 17.503906 11.707031 17.492188 C 11.722656 17.488281 11.964844 17.375 11.964844 17.371094 C 11.964844 17.371094 11.949219 17.308594 11.925781 17.238281 C 11.878906 17.082031 11.871094 17.050781 11.855469 16.992188 C 11.742188 16.535156 11.730469 16.0625 11.824219 15.605469 C 11.832031 15.566406 11.832031 15.558594 11.871094 15.386719 C 11.890625 15.304688 11.90625 15.238281 11.90625 15.238281 C 11.90625 15.234375 11.597656 15.15625 11.566406 15.148438 C 11.242188 15.070312 10.902344 15.046875 10.566406 15.074219 C 10.46875 15.085938 10.417969 15.09375 10.195312 15.128906 C 10.074219 15.148438 10.015625 15.160156 10.007812 15.160156 C 9.964844 15.160156 9.925781 15.132812 9.910156 15.09375 C 9.902344 15.078125 9.890625 15.023438 9.882812 14.976562 C 9.867188 14.898438 9.863281 14.839844 9.863281 14.757812 C 9.863281 14.710938 9.863281 14.679688 9.867188 14.636719 C 9.902344 14.300781 10.066406 13.992188 10.328125 13.78125 C 10.355469 13.757812 10.394531 13.730469 10.402344 13.726562 C 10.441406 13.703125 10.492188 13.707031 10.527344 13.734375 C 10.53125 13.738281 10.570312 13.785156 10.636719 13.867188 C 10.789062 14.046875 10.816406 14.074219 10.90625 14.164062 C 10.992188 14.25 11.0625 14.3125 11.148438 14.382812 C 11.324219 14.523438 11.503906 14.640625 11.707031 14.742188 C 11.753906 14.765625 12.039062 14.894531 12.042969 14.894531 C 12.042969 14.894531 12.074219 14.835938 12.113281 14.765625 C 12.15625 14.695312 12.195312 14.621094 12.207031 14.601562 C 12.457031 14.179688 12.808594 13.816406 13.226562 13.550781 C 13.242188 13.539062 13.480469 13.394531 13.515625 13.371094 L 13.523438 13.371094 L 13.4375 13.230469 C 13.347656 13.078125 13.335938 13.058594 13.304688 13.011719 C 13.160156 12.792969 12.980469 12.59375 12.78125 12.425781 C 12.714844 12.375 12.679688 12.347656 12.519531 12.234375 C 12.449219 12.183594 12.390625 12.140625 12.386719 12.136719 C 12.378906 12.125 12.371094 12.105469 12.371094 12.09375 C 12.375 12.082031 12.378906 12.074219 12.390625 12.054688 C 12.480469 11.90625 12.609375 11.78125 12.757812 11.691406 C 12.785156 11.675781 12.847656 11.644531 12.878906 11.632812 C 13.046875 11.5625 13.230469 11.535156 13.410156 11.554688 C 13.445312 11.558594 13.472656 11.5625 13.480469 11.566406 C 13.5 11.574219 13.515625 11.59375 13.515625 11.617188 C 13.515625 11.621094 13.507812 11.691406 13.503906 11.769531 C 13.496094 11.847656 13.492188 11.929688 13.488281 11.949219 C 13.476562 12.171875 13.492188 12.402344 13.535156 12.621094 C 13.558594 12.738281 13.589844 12.859375 13.625 12.964844 C 13.644531 13.015625 13.730469 13.265625 13.734375 13.265625 C 13.734375 13.265625 13.800781 13.25 13.878906 13.226562 C 14.074219 13.167969 14.113281 13.15625 14.199219 13.136719 C 14.390625 13.09375 14.574219 13.070312 14.785156 13.058594 C 14.835938 13.054688 15.019531 13.054688 15.066406 13.058594 C 15.210938 13.066406 15.324219 13.078125 15.453125 13.097656 C 15.507812 13.109375 15.539062 13.113281 15.699219 13.148438 C 15.78125 13.164062 15.847656 13.179688 15.847656 13.179688 C 15.851562 13.179688 15.863281 13.140625 15.894531 13.035156 C 15.917969 12.957031 15.941406 12.878906 15.945312 12.859375 C 16 12.667969 16.03125 12.476562 16.046875 12.28125 C 16.054688 12.191406 16.054688 12.140625 16.054688 12.042969 C 16.054688 11.925781 16.050781 11.84375 16.042969 11.738281 C 16.03125 11.652344 16.027344 11.621094 15.992188 11.394531 C 15.96875 11.261719 15.960938 11.207031 15.960938 11.199219 C 15.960938 11.167969 15.976562 11.136719 16.003906 11.117188 C 16.019531 11.105469 16.03125 11.097656 16.0625 11.089844 C 16.132812 11.074219 16.210938 11.0625 16.292969 11.058594 C 16.320312 11.054688 16.425781 11.054688 16.457031 11.058594 Z M 16.457031 11.058594 "/>
<path style=" stroke:none;fill-rule:nonzero;fill:rgb(0%,0%,0%);fill-opacity:1;" d="M 15.316406 13.550781 C 15.109375 13.769531 14.976562 14.035156 14.933594 14.328125 C 14.925781 14.40625 14.921875 14.453125 14.921875 14.535156 C 14.921875 14.617188 14.921875 14.664062 14.933594 14.738281 C 14.988281 15.132812 15.207031 15.484375 15.539062 15.710938 C 15.621094 15.769531 15.71875 15.820312 15.8125 15.859375 C 15.941406 15.910156 16.078125 15.941406 16.214844 15.953125 C 16.296875 15.960938 16.390625 15.960938 16.476562 15.953125 C 16.695312 15.933594 16.910156 15.863281 17.097656 15.746094 C 17.179688 15.695312 17.265625 15.625 17.332031 15.5625 L 17.351562 15.542969 L 17.140625 15.328125 L 16.929688 15.117188 L 16.910156 15.132812 C 16.875 15.167969 16.839844 15.199219 16.796875 15.226562 C 16.628906 15.335938 16.425781 15.378906 16.226562 15.351562 C 16.097656 15.332031 15.96875 15.28125 15.863281 15.207031 C 15.683594 15.074219 15.5625 14.878906 15.53125 14.660156 C 15.523438 14.613281 15.519531 14.597656 15.519531 14.535156 C 15.519531 14.472656 15.523438 14.457031 15.53125 14.410156 C 15.535156 14.363281 15.546875 14.320312 15.5625 14.273438 C 15.601562 14.160156 15.664062 14.054688 15.746094 13.964844 L 15.761719 13.953125 L 15.550781 13.738281 C 15.433594 13.621094 15.335938 13.527344 15.335938 13.527344 C 15.335938 13.527344 15.328125 13.539062 15.316406 13.550781 Z M 15.316406 13.550781 "/>
<path style=" stroke:none;fill-rule:nonzero;fill:rgb(0%,0%,0%);fill-opacity:1;" d="M 13.6875 14.125 L 13.476562 14.339844 L 13.488281 14.351562 C 13.554688 14.425781 13.59375 14.515625 13.605469 14.613281 C 13.605469 14.640625 13.605469 14.691406 13.601562 14.714844 C 13.589844 14.78125 13.566406 14.84375 13.53125 14.898438 C 13.46875 14.992188 13.371094 15.0625 13.257812 15.085938 C 13.203125 15.097656 13.144531 15.101562 13.089844 15.089844 C 13.003906 15.078125 12.921875 15.035156 12.859375 14.976562 C 12.855469 14.972656 12.847656 14.96875 12.847656 14.96875 C 12.847656 14.96875 12.75 15.0625 12.632812 15.179688 L 12.421875 15.390625 L 12.441406 15.40625 C 12.574219 15.535156 12.75 15.632812 12.9375 15.671875 C 13.011719 15.691406 13.078125 15.695312 13.164062 15.695312 C 13.21875 15.695312 13.246094 15.695312 13.292969 15.6875 C 13.574219 15.652344 13.828125 15.507812 13.996094 15.277344 C 14.105469 15.136719 14.171875 14.96875 14.195312 14.789062 C 14.203125 14.738281 14.203125 14.714844 14.203125 14.652344 C 14.203125 14.589844 14.203125 14.570312 14.195312 14.519531 C 14.167969 14.304688 14.078125 14.105469 13.929688 13.945312 C 13.917969 13.933594 13.90625 13.921875 13.90625 13.917969 L 13.898438 13.914062 Z M 13.6875 14.125 "/>
<path style=" stroke:none;fill-rule:nonzero;fill:rgb(0%,0%,0%);fill-opacity:1;" d="M 13.503906 16.355469 C 13.179688 16.371094 12.878906 16.496094 12.640625 16.707031 C 12.621094 16.726562 12.578125 16.765625 12.574219 16.769531 C 12.574219 16.769531 12.996094 17.195312 12.996094 17.195312 C 13 17.195312 13.007812 17.183594 13.019531 17.175781 C 13.046875 17.148438 13.078125 17.125 13.105469 17.105469 C 13.34375 16.933594 13.660156 16.902344 13.929688 17.03125 C 14.054688 17.085938 14.160156 17.175781 14.242188 17.285156 C 14.324219 17.394531 14.378906 17.523438 14.398438 17.660156 C 14.40625 17.707031 14.40625 17.71875 14.40625 17.777344 C 14.40625 17.835938 14.40625 17.847656 14.398438 17.894531 C 14.375 18.0625 14.300781 18.214844 14.183594 18.34375 C 14.175781 18.351562 14.167969 18.359375 14.167969 18.363281 C 14.167969 18.363281 14.261719 18.457031 14.378906 18.574219 L 14.589844 18.785156 L 14.601562 18.773438 C 14.644531 18.726562 14.667969 18.699219 14.695312 18.664062 C 14.800781 18.53125 14.882812 18.382812 14.9375 18.222656 C 14.972656 18.109375 14.996094 17.996094 15.003906 17.871094 C 15.007812 17.835938 15.007812 17.71875 15.003906 17.683594 C 14.996094 17.59375 14.984375 17.511719 14.964844 17.433594 C 14.902344 17.179688 14.773438 16.953125 14.589844 16.769531 C 14.398438 16.578125 14.15625 16.445312 13.898438 16.386719 C 13.828125 16.371094 13.761719 16.363281 13.6875 16.355469 C 13.65625 16.355469 13.539062 16.351562 13.503906 16.355469 Z M 13.503906 16.355469 "/>
<path style=" stroke:none;fill-rule:nonzero;fill:rgb(0%,0%,0%);fill-opacity:1;" d="M 16.554688 16.464844 C 16.34375 16.476562 16.148438 16.550781 15.984375 16.675781 C 15.660156 16.917969 15.507812 17.324219 15.59375 17.722656 C 15.628906 17.898438 15.710938 18.0625 15.828125 18.195312 C 15.847656 18.21875 15.875 18.246094 15.875 18.246094 C 15.878906 18.246094 15.972656 18.148438 16.089844 18.035156 L 16.300781 17.824219 L 16.289062 17.8125 C 16.242188 17.761719 16.207031 17.699219 16.1875 17.628906 C 16.148438 17.492188 16.179688 17.339844 16.269531 17.230469 C 16.34375 17.136719 16.449219 17.078125 16.570312 17.066406 C 16.597656 17.0625 16.648438 17.0625 16.675781 17.070312 C 16.765625 17.082031 16.84375 17.121094 16.914062 17.179688 C 16.921875 17.1875 16.929688 17.195312 16.929688 17.195312 C 16.929688 17.195312 17.023438 17.097656 17.140625 16.980469 L 17.351562 16.769531 L 17.339844 16.757812 C 17.226562 16.648438 17.097656 16.570312 16.949219 16.519531 C 16.867188 16.492188 16.785156 16.472656 16.691406 16.464844 C 16.667969 16.464844 16.582031 16.464844 16.554688 16.464844 Z M 16.554688 16.464844 "/>
<path style=" stroke:none;fill-rule:nonzero;fill:rgb(0%,0%,0%);fill-opacity:1;" d="M 4.734375 12.28125 L 3.964844 13.050781 L 4.179688 13.261719 L 4.390625 13.472656 L 5.75 12.113281 L 7.019531 12.113281 L 7.855469 12.949219 L 7.855469 13.988281 L 7.042969 14.800781 L 7.042969 16.03125 L 7.644531 16.03125 L 7.644531 15.050781 L 8.050781 14.644531 L 8.457031 14.234375 L 8.457031 12.699219 L 7.269531 11.511719 L 5.5 11.511719 Z M 4.734375 12.28125 "/>
</g>
</svg>
