<?xml version="1.0" encoding="UTF-8"?>
<svg xmlns="http://www.w3.org/2000/svg" xmlns:xlink="http://www.w3.org/1999/xlink" viewBox="0 0 24 24" version="1.1">
<g>
<path style=" stroke:none;fill-rule:nonzero;fill:rgb(0%,0%,0%);fill-opacity:1;" d="M 4.980469 3.425781 L 4.980469 4.882812 L 5.867188 4.882812 L 5.867188 11.617188 C 5.867188 16.089844 5.867188 18.363281 5.867188 18.382812 C 5.871094 18.5 5.882812 18.601562 5.902344 18.707031 C 5.953125 19.015625 6.0625 19.3125 6.21875 19.578125 C 6.390625 19.867188 6.613281 20.113281 6.878906 20.3125 C 7.363281 20.675781 7.953125 20.851562 8.558594 20.816406 C 8.871094 20.796875 9.171875 20.71875 9.460938 20.589844 C 9.488281 20.574219 9.570312 20.535156 9.601562 20.519531 C 9.902344 20.355469 10.164062 20.136719 10.375 19.871094 C 10.660156 19.515625 10.84375 19.089844 10.90625 18.640625 C 10.917969 18.558594 10.925781 18.476562 10.929688 18.386719 C 10.929688 18.363281 10.933594 16.128906 10.933594 11.617188 L 10.933594 4.882812 L 11.816406 4.882812 L 11.816406 1.96875 L 4.980469 1.96875 Z M 6.992188 3.425781 L 6.992188 4.253906 L 5.613281 4.253906 L 5.613281 2.597656 L 6.992188 2.597656 Z M 9.140625 3.425781 L 9.140625 4.253906 L 7.621094 4.253906 L 7.621094 2.597656 L 9.140625 2.597656 Z M 11.1875 3.425781 L 11.1875 4.253906 L 9.773438 4.253906 L 9.773438 2.597656 L 11.1875 2.597656 Z M 10.300781 11.625 C 10.300781 16.875 10.300781 18.371094 10.300781 18.390625 C 10.292969 18.46875 10.289062 18.503906 10.28125 18.554688 C 10.21875 19.011719 9.988281 19.429688 9.636719 19.730469 C 9.386719 19.945312 9.089844 20.089844 8.769531 20.152344 C 8.644531 20.179688 8.53125 20.1875 8.398438 20.1875 C 8.289062 20.1875 8.195312 20.179688 8.089844 20.164062 C 7.746094 20.109375 7.425781 19.957031 7.160156 19.730469 C 7.089844 19.671875 7.015625 19.59375 6.957031 19.523438 C 6.769531 19.3125 6.636719 19.058594 6.5625 18.789062 C 6.539062 18.695312 6.519531 18.597656 6.507812 18.5 C 6.503906 18.46875 6.503906 18.441406 6.5 18.390625 C 6.496094 18.371094 6.496094 18.167969 6.496094 17.566406 L 6.496094 16.761719 L 8.667969 16.761719 L 8.667969 6.863281 L 6.496094 6.863281 L 6.496094 4.882812 L 10.300781 4.882812 Z M 8.039062 11.8125 L 8.039062 16.132812 L 6.496094 16.132812 L 6.496094 7.496094 L 8.039062 7.496094 Z M 8.039062 11.8125 "/>
<path style=" stroke:none;fill-rule:nonzero;fill:rgb(0%,0%,0%);fill-opacity:1;" d="M 16.285156 8.84375 C 16.152344 8.851562 16.03125 8.871094 15.914062 8.898438 C 15.847656 8.917969 15.804688 8.929688 15.753906 8.957031 C 15.699219 8.984375 15.648438 9.015625 15.601562 9.054688 C 15.578125 9.074219 15.527344 9.125 15.511719 9.144531 C 15.472656 9.191406 15.445312 9.234375 15.421875 9.28125 C 15.378906 9.363281 15.351562 9.449219 15.339844 9.542969 C 15.335938 9.570312 15.335938 9.644531 15.339844 9.675781 C 15.339844 9.707031 15.34375 9.714844 15.375 9.917969 C 15.410156 10.136719 15.410156 10.136719 15.417969 10.179688 C 15.449219 10.429688 15.441406 10.679688 15.398438 10.925781 C 15.398438 10.941406 15.394531 10.953125 15.394531 10.953125 C 15.394531 10.953125 15.382812 10.953125 15.371094 10.949219 C 15.273438 10.9375 15.171875 10.929688 15.046875 10.925781 C 14.996094 10.921875 14.78125 10.921875 14.730469 10.925781 C 14.5 10.933594 14.3125 10.957031 14.105469 11 C 14.082031 11.003906 14.0625 11.007812 14.0625 11.003906 C 14.058594 11.003906 14.042969 10.914062 14.039062 10.867188 C 14.019531 10.753906 14.015625 10.625 14.015625 10.511719 C 14.019531 10.441406 14.019531 10.425781 14.035156 10.246094 L 14.046875 10.09375 L 14.046875 10.046875 C 14.046875 10.011719 14.046875 9.992188 14.042969 9.980469 C 14.027344 9.839844 13.972656 9.714844 13.886719 9.613281 C 13.871094 9.59375 13.832031 9.554688 13.816406 9.539062 C 13.773438 9.503906 13.722656 9.46875 13.671875 9.441406 C 13.597656 9.40625 13.53125 9.386719 13.433594 9.371094 C 13.292969 9.351562 13.152344 9.351562 13.007812 9.363281 C 12.46875 9.421875 11.988281 9.726562 11.707031 10.191406 C 11.648438 10.296875 11.613281 10.398438 11.605469 10.511719 C 11.59375 10.722656 11.679688 10.929688 11.835938 11.066406 C 11.863281 11.089844 11.871094 11.097656 12.015625 11.199219 C 12.09375 11.253906 12.167969 11.308594 12.179688 11.316406 C 12.308594 11.414062 12.425781 11.53125 12.535156 11.65625 C 12.554688 11.683594 12.558594 11.6875 12.558594 11.6875 C 12.558594 11.6875 12.542969 11.703125 12.519531 11.71875 C 12.164062 11.984375 11.847656 12.328125 11.605469 12.703125 C 11.554688 12.785156 11.480469 12.902344 11.484375 12.90625 C 11.488281 12.910156 12.027344 13.214844 12.03125 13.214844 C 12.03125 13.214844 12.035156 13.207031 12.042969 13.199219 C 12.148438 13.015625 12.265625 12.847656 12.402344 12.6875 C 12.496094 12.582031 12.609375 12.464844 12.71875 12.371094 C 12.847656 12.257812 12.996094 12.148438 13.140625 12.054688 C 13.160156 12.042969 13.230469 12 13.304688 11.957031 C 13.375 11.914062 13.433594 11.878906 13.433594 11.875 C 13.433594 11.875 13.273438 11.609375 13.246094 11.566406 C 13.078125 11.296875 12.863281 11.054688 12.613281 10.855469 C 12.570312 10.820312 12.527344 10.789062 12.394531 10.695312 C 12.320312 10.640625 12.253906 10.59375 12.253906 10.59375 C 12.242188 10.582031 12.238281 10.570312 12.238281 10.558594 C 12.238281 10.542969 12.238281 10.535156 12.253906 10.511719 C 12.386719 10.292969 12.59375 10.125 12.835938 10.046875 C 12.925781 10.015625 13.007812 9.996094 13.105469 9.988281 C 13.140625 9.984375 13.230469 9.984375 13.261719 9.988281 C 13.324219 9.992188 13.375 10 13.386719 10.007812 C 13.402344 10.015625 13.414062 10.03125 13.417969 10.050781 C 13.417969 10.054688 13.414062 10.113281 13.40625 10.210938 C 13.386719 10.429688 13.382812 10.476562 13.386719 10.597656 C 13.386719 10.671875 13.386719 10.699219 13.394531 10.765625 C 13.410156 10.992188 13.453125 11.214844 13.523438 11.425781 C 13.535156 11.464844 13.644531 11.769531 13.644531 11.773438 C 13.644531 11.773438 13.707031 11.757812 13.777344 11.734375 C 13.847656 11.714844 13.929688 11.691406 13.957031 11.683594 C 14.460938 11.539062 15.011719 11.511719 15.515625 11.613281 C 15.535156 11.617188 15.621094 11.632812 15.703125 11.652344 C 15.785156 11.667969 15.851562 11.683594 15.851562 11.683594 C 15.851562 11.679688 15.945312 11.367188 15.953125 11.339844 C 16.007812 11.132812 16.046875 10.921875 16.058594 10.710938 C 16.066406 10.632812 16.066406 10.613281 16.066406 10.496094 C 16.066406 10.382812 16.066406 10.363281 16.058594 10.285156 C 16.054688 10.199219 16.042969 10.105469 16.03125 10.019531 C 16.027344 10.007812 16.011719 9.914062 15.996094 9.8125 C 15.980469 9.710938 15.96875 9.625 15.96875 9.621094 C 15.96875 9.605469 15.972656 9.582031 15.980469 9.570312 C 15.996094 9.542969 16.019531 9.523438 16.050781 9.515625 C 16.085938 9.503906 16.15625 9.492188 16.203125 9.484375 C 16.335938 9.46875 16.472656 9.46875 16.601562 9.492188 C 16.839844 9.535156 17.058594 9.640625 17.246094 9.800781 C 17.269531 9.824219 17.332031 9.886719 17.355469 9.910156 C 17.410156 9.972656 17.453125 10.03125 17.460938 10.054688 C 17.46875 10.074219 17.46875 10.097656 17.460938 10.121094 C 17.457031 10.132812 17.445312 10.152344 17.4375 10.160156 C 17.433594 10.164062 17.371094 10.21875 17.300781 10.28125 C 17.226562 10.339844 17.15625 10.402344 17.140625 10.414062 C 16.878906 10.644531 16.660156 10.914062 16.484375 11.214844 C 16.433594 11.304688 16.378906 11.414062 16.339844 11.507812 C 16.304688 11.582031 16.210938 11.8125 16.210938 11.8125 C 16.210938 11.8125 16.273438 11.847656 16.347656 11.890625 C 16.425781 11.929688 16.503906 11.972656 16.523438 11.984375 C 16.910156 12.207031 17.246094 12.5 17.511719 12.859375 C 17.570312 12.933594 17.597656 12.976562 17.710938 13.148438 C 17.761719 13.226562 17.804688 13.289062 17.804688 13.289062 C 17.804688 13.292969 18.015625 13.167969 18.09375 13.121094 C 18.371094 12.953125 18.625 12.730469 18.828125 12.472656 C 18.863281 12.429688 18.894531 12.386719 18.988281 12.253906 C 19.039062 12.179688 19.085938 12.117188 19.089844 12.117188 C 19.09375 12.113281 19.101562 12.105469 19.105469 12.105469 C 19.113281 12.101562 19.117188 12.101562 19.125 12.097656 C 19.140625 12.097656 19.144531 12.101562 19.167969 12.113281 C 19.414062 12.261719 19.589844 12.503906 19.664062 12.777344 C 19.699219 12.921875 19.707031 13.070312 19.683594 13.21875 C 19.679688 13.238281 19.679688 13.246094 19.675781 13.25 C 19.667969 13.265625 19.652344 13.277344 19.636719 13.277344 C 19.628906 13.28125 19.601562 13.277344 19.484375 13.269531 C 19.308594 13.253906 19.3125 13.253906 19.269531 13.25 C 19.21875 13.25 19.078125 13.246094 19.023438 13.25 C 18.753906 13.257812 18.511719 13.304688 18.253906 13.386719 C 18.207031 13.402344 17.910156 13.503906 17.910156 13.507812 C 17.910156 13.507812 17.9375 13.585938 17.96875 13.683594 C 18 13.777344 18.03125 13.875 18.039062 13.898438 C 18.113281 14.148438 18.15625 14.394531 18.171875 14.652344 C 18.175781 14.714844 18.175781 14.757812 18.175781 14.839844 C 18.175781 14.996094 18.167969 15.117188 18.148438 15.269531 C 18.136719 15.347656 18.136719 15.367188 18.097656 15.570312 C 18.082031 15.652344 18.070312 15.71875 18.070312 15.71875 C 18.070312 15.71875 18.125 15.734375 18.332031 15.792969 C 18.386719 15.808594 18.441406 15.820312 18.488281 15.832031 C 18.875 15.921875 19.269531 15.9375 19.660156 15.878906 C 19.679688 15.878906 19.78125 15.863281 19.882812 15.84375 C 20.023438 15.820312 20.070312 15.8125 20.078125 15.8125 C 20.121094 15.8125 20.160156 15.839844 20.179688 15.878906 C 20.183594 15.894531 20.199219 15.964844 20.210938 16.015625 C 20.226562 16.121094 20.230469 16.234375 20.21875 16.34375 C 20.191406 16.679688 20.027344 17 19.769531 17.21875 C 19.730469 17.25 19.671875 17.296875 19.660156 17.300781 C 19.644531 17.308594 19.632812 17.3125 19.613281 17.3125 C 19.59375 17.3125 19.589844 17.308594 19.578125 17.308594 C 19.566406 17.300781 19.550781 17.292969 19.542969 17.285156 C 19.53125 17.277344 19.53125 17.277344 19.414062 17.140625 C 19.359375 17.074219 19.304688 17.011719 19.292969 16.996094 C 19.042969 16.714844 18.75 16.476562 18.421875 16.296875 C 18.382812 16.277344 18.3125 16.242188 18.273438 16.222656 C 18.203125 16.191406 17.949219 16.074219 17.949219 16.074219 C 17.949219 16.074219 17.914062 16.144531 17.867188 16.230469 C 17.777344 16.410156 17.757812 16.445312 17.710938 16.523438 C 17.480469 16.910156 17.15625 17.261719 16.78125 17.527344 C 16.738281 17.558594 16.703125 17.582031 16.5625 17.675781 C 16.476562 17.734375 16.4375 17.761719 16.4375 17.761719 C 16.4375 17.765625 16.601562 18.019531 16.628906 18.0625 C 16.699219 18.167969 16.789062 18.28125 16.871094 18.375 C 16.941406 18.449219 17.03125 18.535156 17.105469 18.601562 C 17.191406 18.679688 17.238281 18.714844 17.429688 18.847656 C 17.5 18.902344 17.5625 18.949219 17.566406 18.949219 C 17.582031 18.964844 17.589844 18.988281 17.582031 19.007812 C 17.574219 19.023438 17.539062 19.082031 17.507812 19.121094 C 17.476562 19.164062 17.453125 19.191406 17.414062 19.230469 C 17.292969 19.351562 17.148438 19.445312 16.988281 19.5 C 16.898438 19.53125 16.808594 19.546875 16.710938 19.554688 C 16.679688 19.558594 16.585938 19.558594 16.558594 19.554688 C 16.5 19.550781 16.445312 19.542969 16.433594 19.539062 C 16.417969 19.53125 16.40625 19.511719 16.402344 19.496094 C 16.402344 19.492188 16.410156 19.417969 16.414062 19.335938 C 16.433594 19.125 16.433594 19.117188 16.433594 19.011719 C 16.4375 18.878906 16.429688 18.757812 16.414062 18.625 C 16.394531 18.480469 16.363281 18.328125 16.320312 18.183594 C 16.296875 18.117188 16.21875 17.863281 16.21875 17.863281 C 16.21875 17.863281 16.167969 17.878906 16.101562 17.898438 C 15.925781 17.957031 15.867188 17.976562 15.828125 17.988281 C 15.582031 18.0625 15.320312 18.109375 15.066406 18.121094 C 14.957031 18.128906 14.820312 18.128906 14.714844 18.121094 C 14.578125 18.113281 14.445312 18.097656 14.308594 18.074219 C 14.296875 18.070312 14.210938 18.054688 14.117188 18.035156 C 14.027344 18.015625 13.949219 18.003906 13.949219 18.003906 C 13.949219 18.003906 13.878906 18.28125 13.867188 18.335938 C 13.828125 18.5 13.804688 18.675781 13.792969 18.847656 C 13.789062 18.914062 13.789062 18.9375 13.785156 19.015625 C 13.785156 19.152344 13.792969 19.265625 13.804688 19.390625 C 13.8125 19.476562 13.816406 19.503906 13.855469 19.730469 C 13.886719 19.910156 13.886719 19.914062 13.886719 19.929688 C 13.886719 19.941406 13.882812 19.949219 13.882812 19.957031 C 13.867188 19.996094 13.839844 20.019531 13.792969 20.03125 C 13.585938 20.085938 13.371094 20.085938 13.164062 20.035156 C 12.894531 19.96875 12.65625 19.820312 12.476562 19.609375 C 12.464844 19.597656 12.453125 19.578125 12.445312 19.570312 C 12.394531 19.507812 12.386719 19.492188 12.386719 19.457031 C 12.386719 19.425781 12.398438 19.402344 12.421875 19.378906 C 12.425781 19.375 12.484375 19.324219 12.554688 19.265625 C 12.722656 19.125 12.746094 19.101562 12.8125 19.039062 C 13.066406 18.796875 13.277344 18.515625 13.4375 18.203125 C 13.457031 18.164062 13.597656 17.878906 13.597656 17.875 C 13.597656 17.875 13.574219 17.863281 13.546875 17.847656 C 13.375 17.757812 13.296875 17.714844 13.269531 17.699219 C 12.847656 17.460938 12.480469 17.125 12.199219 16.726562 C 12.175781 16.6875 12.128906 16.625 12.113281 16.59375 C 12.105469 16.585938 12.101562 16.578125 12.097656 16.578125 C 12.097656 16.578125 11.566406 16.90625 11.566406 16.90625 C 11.5625 16.910156 11.566406 16.914062 11.585938 16.945312 C 11.8125 17.296875 12.089844 17.609375 12.410156 17.871094 C 12.507812 17.953125 12.636719 18.046875 12.734375 18.109375 C 12.746094 18.117188 12.753906 18.125 12.753906 18.125 C 12.753906 18.128906 12.710938 18.191406 12.683594 18.226562 C 12.605469 18.339844 12.523438 18.433594 12.425781 18.53125 C 12.347656 18.613281 12.332031 18.628906 12.144531 18.785156 C 12.070312 18.847656 12 18.910156 11.992188 18.917969 C 11.960938 18.945312 11.933594 18.976562 11.90625 19.011719 C 11.824219 19.121094 11.777344 19.246094 11.761719 19.378906 C 11.757812 19.40625 11.757812 19.480469 11.757812 19.507812 C 11.765625 19.605469 11.789062 19.695312 11.832031 19.78125 C 11.859375 19.835938 11.886719 19.878906 11.9375 19.945312 C 12.085938 20.140625 12.269531 20.300781 12.476562 20.425781 C 12.738281 20.582031 13.03125 20.675781 13.332031 20.695312 C 13.417969 20.703125 13.523438 20.703125 13.609375 20.699219 C 13.722656 20.691406 13.832031 20.671875 13.941406 20.644531 C 14.007812 20.628906 14.058594 20.609375 14.113281 20.582031 C 14.386719 20.441406 14.546875 20.148438 14.511719 19.839844 C 14.511719 19.828125 14.496094 19.734375 14.476562 19.625 C 14.445312 19.433594 14.441406 19.40625 14.4375 19.363281 C 14.421875 19.242188 14.414062 19.109375 14.417969 18.992188 C 14.421875 18.894531 14.421875 18.851562 14.4375 18.738281 C 14.4375 18.734375 14.4375 18.730469 14.4375 18.730469 C 14.4375 18.730469 14.453125 18.730469 14.46875 18.734375 C 14.886719 18.78125 15.328125 18.753906 15.734375 18.664062 C 15.777344 18.65625 15.78125 18.652344 15.78125 18.65625 C 15.78125 18.65625 15.78125 18.667969 15.785156 18.679688 C 15.800781 18.792969 15.808594 18.921875 15.804688 19.035156 C 15.800781 19.101562 15.800781 19.121094 15.785156 19.292969 C 15.78125 19.371094 15.773438 19.449219 15.773438 19.464844 C 15.769531 19.582031 15.796875 19.707031 15.855469 19.816406 C 15.953125 20 16.128906 20.125 16.335938 20.164062 C 16.34375 20.167969 16.359375 20.167969 16.367188 20.167969 C 16.371094 20.167969 16.390625 20.171875 16.402344 20.175781 C 16.484375 20.183594 16.53125 20.1875 16.632812 20.1875 C 16.722656 20.1875 16.742188 20.1875 16.808594 20.179688 C 17.140625 20.148438 17.453125 20.015625 17.710938 19.808594 C 17.796875 19.742188 17.878906 19.664062 17.945312 19.582031 C 18.007812 19.507812 18.066406 19.429688 18.117188 19.34375 C 18.167969 19.253906 18.199219 19.167969 18.210938 19.0625 C 18.214844 19.046875 18.214844 19.03125 18.214844 18.988281 C 18.214844 18.9375 18.210938 18.917969 18.207031 18.875 C 18.175781 18.707031 18.085938 18.554688 17.949219 18.445312 C 17.941406 18.441406 17.878906 18.394531 17.800781 18.339844 C 17.726562 18.289062 17.65625 18.234375 17.640625 18.226562 C 17.550781 18.15625 17.460938 18.078125 17.386719 18 C 17.355469 17.96875 17.3125 17.917969 17.3125 17.917969 C 17.488281 17.777344 17.652344 17.625 17.800781 17.457031 C 17.910156 17.339844 18.007812 17.214844 18.101562 17.082031 C 18.128906 17.042969 18.179688 16.96875 18.199219 16.933594 C 18.207031 16.917969 18.214844 16.910156 18.214844 16.910156 C 18.21875 16.90625 18.328125 16.976562 18.375 17.011719 C 18.5 17.097656 18.609375 17.195312 18.714844 17.300781 C 18.78125 17.367188 18.800781 17.390625 18.945312 17.5625 C 19.0625 17.699219 19.066406 17.703125 19.09375 17.730469 C 19.148438 17.785156 19.207031 17.828125 19.277344 17.863281 C 19.472656 17.960938 19.699219 17.96875 19.902344 17.882812 C 19.945312 17.863281 20 17.835938 20.035156 17.808594 C 20.164062 17.71875 20.289062 17.605469 20.390625 17.488281 C 20.777344 17.035156 20.933594 16.429688 20.820312 15.847656 C 20.796875 15.730469 20.777344 15.664062 20.738281 15.59375 C 20.703125 15.519531 20.660156 15.460938 20.601562 15.402344 C 20.539062 15.339844 20.480469 15.296875 20.402344 15.257812 C 20.351562 15.234375 20.308594 15.21875 20.253906 15.207031 C 20.167969 15.183594 20.082031 15.175781 19.992188 15.1875 C 19.984375 15.1875 19.886719 15.203125 19.777344 15.222656 C 19.542969 15.261719 19.5 15.269531 19.398438 15.277344 C 19.332031 15.28125 19.316406 15.28125 19.230469 15.28125 C 19.109375 15.285156 19.019531 15.277344 18.910156 15.265625 C 18.882812 15.261719 18.796875 15.25 18.789062 15.25 C 18.785156 15.25 18.785156 15.25 18.789062 15.222656 C 18.808594 15.042969 18.8125 14.824219 18.800781 14.632812 C 18.789062 14.40625 18.757812 14.183594 18.707031 13.957031 C 18.703125 13.9375 18.699219 13.921875 18.699219 13.921875 C 18.703125 13.917969 18.792969 13.902344 18.851562 13.894531 C 18.980469 13.878906 19.128906 13.875 19.253906 13.882812 C 19.265625 13.882812 19.34375 13.890625 19.425781 13.894531 C 19.621094 13.914062 19.648438 13.914062 19.71875 13.90625 C 19.898438 13.878906 20.0625 13.785156 20.175781 13.636719 C 20.234375 13.558594 20.28125 13.460938 20.300781 13.359375 C 20.304688 13.332031 20.3125 13.292969 20.316406 13.234375 C 20.328125 13.136719 20.328125 13.011719 20.320312 12.910156 C 20.285156 12.457031 20.070312 12.039062 19.726562 11.742188 C 19.632812 11.660156 19.519531 11.582031 19.4375 11.539062 C 19.246094 11.445312 19.019531 11.445312 18.824219 11.539062 C 18.792969 11.554688 18.777344 11.5625 18.75 11.582031 C 18.6875 11.621094 18.628906 11.675781 18.585938 11.734375 C 18.578125 11.742188 18.527344 11.8125 18.476562 11.886719 C 18.375 12.027344 18.355469 12.050781 18.320312 12.09375 C 18.273438 12.152344 18.230469 12.199219 18.175781 12.257812 C 18.113281 12.320312 18.0625 12.367188 18 12.417969 L 17.980469 12.433594 L 17.976562 12.425781 C 17.832031 12.238281 17.667969 12.0625 17.492188 11.90625 C 17.355469 11.785156 17.199219 11.664062 17.046875 11.566406 L 17.023438 11.550781 L 17.023438 11.546875 C 17.03125 11.535156 17.0625 11.480469 17.082031 11.449219 C 17.1875 11.28125 17.308594 11.128906 17.449219 10.988281 C 17.515625 10.921875 17.535156 10.90625 17.710938 10.757812 C 17.851562 10.640625 17.863281 10.628906 17.890625 10.601562 C 18.003906 10.480469 18.074219 10.332031 18.09375 10.160156 C 18.097656 10.132812 18.097656 10.050781 18.09375 10.023438 C 18.082031 9.898438 18.042969 9.785156 17.976562 9.6875 C 17.972656 9.675781 17.964844 9.667969 17.960938 9.664062 C 17.957031 9.652344 17.914062 9.597656 17.890625 9.566406 C 17.800781 9.457031 17.703125 9.359375 17.59375 9.269531 C 17.484375 9.183594 17.371094 9.109375 17.242188 9.046875 C 17.117188 8.984375 16.992188 8.9375 16.859375 8.902344 C 16.742188 8.875 16.632812 8.855469 16.496094 8.847656 C 16.46875 8.84375 16.316406 8.84375 16.285156 8.84375 Z M 16.285156 8.84375 "/>
<path style=" stroke:none;fill-rule:nonzero;fill:rgb(0%,0%,0%);fill-opacity:1;" d="M 15.234375 12.097656 C 15.21875 12.109375 15.203125 12.128906 15.195312 12.140625 C 15 12.359375 14.871094 12.636719 14.835938 12.929688 C 14.824219 13.003906 14.820312 13.058594 14.824219 13.144531 C 14.824219 13.210938 14.824219 13.234375 14.832031 13.289062 C 14.875 13.667969 15.0625 14.019531 15.355469 14.265625 C 15.585938 14.457031 15.871094 14.574219 16.171875 14.601562 C 16.222656 14.605469 16.257812 14.609375 16.328125 14.605469 C 16.390625 14.605469 16.421875 14.605469 16.472656 14.597656 C 16.773438 14.566406 17.058594 14.441406 17.285156 14.238281 C 17.308594 14.21875 17.355469 14.175781 17.355469 14.171875 C 17.355469 14.171875 17.257812 14.070312 17.132812 13.949219 L 16.910156 13.726562 L 16.898438 13.738281 C 16.765625 13.863281 16.605469 13.941406 16.425781 13.96875 C 16.382812 13.976562 16.359375 13.976562 16.308594 13.976562 C 16.257812 13.976562 16.238281 13.976562 16.191406 13.96875 C 15.964844 13.9375 15.761719 13.820312 15.625 13.636719 C 15.507812 13.484375 15.449219 13.296875 15.453125 13.105469 C 15.457031 13.023438 15.464844 12.957031 15.488281 12.878906 C 15.527344 12.753906 15.601562 12.625 15.691406 12.53125 L 15.703125 12.519531 L 15.480469 12.296875 C 15.359375 12.175781 15.257812 12.074219 15.257812 12.074219 C 15.257812 12.074219 15.246094 12.085938 15.234375 12.097656 Z M 15.234375 12.097656 "/>
<path style=" stroke:none;fill-rule:nonzero;fill:rgb(0%,0%,0%);fill-opacity:1;" d="M 13.703125 12.855469 L 13.480469 13.078125 L 13.488281 13.089844 C 13.523438 13.128906 13.554688 13.175781 13.578125 13.222656 C 13.625 13.339844 13.625 13.472656 13.574219 13.589844 C 13.53125 13.683594 13.457031 13.761719 13.367188 13.808594 C 13.300781 13.84375 13.230469 13.859375 13.15625 13.859375 C 13.125 13.859375 13.105469 13.859375 13.078125 13.855469 C 12.992188 13.839844 12.902344 13.796875 12.839844 13.738281 L 12.832031 13.726562 L 12.386719 14.171875 L 12.402344 14.191406 C 12.492188 14.277344 12.609375 14.355469 12.726562 14.40625 C 12.949219 14.5 13.195312 14.519531 13.425781 14.457031 C 13.761719 14.371094 14.035156 14.132812 14.164062 13.8125 C 14.207031 13.710938 14.230469 13.613281 14.238281 13.496094 C 14.242188 13.460938 14.242188 13.347656 14.238281 13.308594 C 14.230469 13.214844 14.214844 13.132812 14.183594 13.050781 C 14.132812 12.902344 14.050781 12.761719 13.941406 12.648438 L 13.925781 12.632812 Z M 13.703125 12.855469 "/>
<path style=" stroke:none;fill-rule:nonzero;fill:rgb(0%,0%,0%);fill-opacity:1;" d="M 13.351562 15.011719 C 12.996094 15.03125 12.660156 15.179688 12.40625 15.425781 L 12.386719 15.445312 L 12.832031 15.890625 L 12.847656 15.875 C 12.976562 15.753906 13.144531 15.671875 13.320312 15.648438 C 13.363281 15.640625 13.386719 15.640625 13.4375 15.640625 C 13.488281 15.640625 13.511719 15.640625 13.554688 15.648438 C 13.765625 15.679688 13.953125 15.785156 14.089844 15.949219 C 14.269531 16.160156 14.332031 16.453125 14.257812 16.722656 C 14.222656 16.855469 14.15625 16.972656 14.058594 17.074219 C 14.050781 17.085938 14.039062 17.097656 14.039062 17.097656 C 14.039062 17.097656 14.140625 17.199219 14.261719 17.320312 L 14.484375 17.542969 L 14.503906 17.523438 C 14.640625 17.382812 14.753906 17.203125 14.824219 17.015625 C 14.890625 16.839844 14.921875 16.660156 14.917969 16.472656 C 14.917969 16.40625 14.914062 16.363281 14.90625 16.304688 C 14.84375 15.8125 14.539062 15.382812 14.09375 15.164062 C 13.914062 15.074219 13.722656 15.023438 13.511719 15.011719 C 13.484375 15.007812 13.382812 15.007812 13.351562 15.011719 Z M 13.351562 15.011719 "/>
<path style=" stroke:none;fill-rule:nonzero;fill:rgb(0%,0%,0%);fill-opacity:1;" d="M 16.527344 15.125 C 16.3125 15.136719 16.105469 15.214844 15.933594 15.339844 C 15.890625 15.375 15.859375 15.402344 15.816406 15.445312 C 15.71875 15.542969 15.640625 15.65625 15.585938 15.785156 C 15.539062 15.898438 15.511719 16.011719 15.5 16.140625 C 15.5 16.171875 15.5 16.257812 15.5 16.285156 C 15.511719 16.449219 15.558594 16.601562 15.632812 16.738281 C 15.679688 16.824219 15.738281 16.902344 15.800781 16.964844 L 15.816406 16.984375 L 16.261719 16.539062 L 16.253906 16.527344 C 16.179688 16.449219 16.140625 16.363281 16.132812 16.257812 C 16.128906 16.230469 16.128906 16.175781 16.132812 16.148438 C 16.148438 16.046875 16.195312 15.957031 16.269531 15.886719 C 16.34375 15.8125 16.4375 15.769531 16.542969 15.757812 C 16.5625 15.753906 16.609375 15.753906 16.628906 15.757812 C 16.734375 15.769531 16.824219 15.808594 16.898438 15.878906 L 16.910156 15.890625 L 17.132812 15.667969 L 17.359375 15.445312 L 17.347656 15.433594 C 17.28125 15.371094 17.21875 15.324219 17.144531 15.28125 C 16.960938 15.167969 16.746094 15.113281 16.527344 15.125 Z M 16.527344 15.125 "/>
</g>
</svg>
