<?xml version="1.0" encoding="UTF-8"?>
<svg xmlns="http://www.w3.org/2000/svg" xmlns:xlink="http://www.w3.org/1999/xlink" viewBox="0 0 24 24" version="1.1">
<g>
<path style=" stroke:none;fill-rule:nonzero;fill:rgb(0%,0%,0%);fill-opacity:1;" d="M 12.375 2.757812 C 12.195312 2.765625 12.027344 2.789062 11.851562 2.832031 C 11.777344 2.847656 11.726562 2.867188 11.664062 2.898438 C 11.546875 2.957031 11.441406 3.042969 11.363281 3.148438 C 11.242188 3.3125 11.183594 3.507812 11.195312 3.714844 C 11.195312 3.75 11.199219 3.769531 11.203125 3.8125 C 11.207031 3.832031 11.226562 3.945312 11.246094 4.066406 C 11.289062 4.339844 11.296875 4.382812 11.304688 4.484375 C 11.320312 4.613281 11.320312 4.699219 11.320312 4.839844 C 11.320312 4.929688 11.320312 4.953125 11.316406 5.015625 C 11.289062 5.4375 11.1875 5.851562 11.011719 6.230469 C 11.003906 6.25 10.996094 6.269531 10.992188 6.273438 C 10.992188 6.277344 10.988281 6.285156 10.992188 6.285156 C 10.992188 6.285156 11.113281 6.34375 11.261719 6.414062 L 11.53125 6.542969 L 11.539062 6.523438 C 11.546875 6.511719 11.558594 6.484375 11.566406 6.464844 C 11.734375 6.089844 11.84375 5.691406 11.894531 5.28125 C 11.90625 5.179688 11.914062 5.082031 11.917969 4.960938 C 11.921875 4.910156 11.921875 4.707031 11.917969 4.65625 C 11.914062 4.523438 11.90625 4.425781 11.890625 4.308594 C 11.882812 4.238281 11.878906 4.210938 11.835938 3.945312 C 11.796875 3.707031 11.792969 3.695312 11.792969 3.671875 C 11.792969 3.640625 11.796875 3.613281 11.804688 3.582031 C 11.820312 3.53125 11.855469 3.488281 11.898438 3.457031 C 11.917969 3.445312 11.945312 3.429688 11.960938 3.421875 C 11.996094 3.410156 12.074219 3.394531 12.144531 3.382812 C 12.253906 3.363281 12.351562 3.355469 12.464844 3.359375 C 12.53125 3.359375 12.546875 3.359375 12.605469 3.363281 C 12.875 3.390625 13.144531 3.476562 13.378906 3.617188 C 13.574219 3.734375 13.742188 3.882812 13.878906 4.058594 C 13.9375 4.132812 13.957031 4.167969 13.96875 4.210938 C 13.980469 4.261719 13.976562 4.308594 13.960938 4.355469 C 13.949219 4.394531 13.921875 4.433594 13.890625 4.460938 C 13.886719 4.46875 13.808594 4.535156 13.71875 4.609375 C 13.554688 4.75 13.515625 4.78125 13.476562 4.816406 C 13.359375 4.921875 13.246094 5.035156 13.144531 5.152344 C 12.769531 5.582031 12.488281 6.085938 12.320312 6.632812 C 12.296875 6.703125 12.265625 6.816406 12.269531 6.816406 C 12.269531 6.816406 12.398438 6.851562 12.558594 6.890625 C 12.714844 6.933594 12.847656 6.964844 12.847656 6.964844 C 12.847656 6.964844 12.851562 6.964844 12.855469 6.949219 C 12.902344 6.757812 12.964844 6.585938 13.042969 6.414062 C 13.238281 5.976562 13.519531 5.585938 13.875 5.265625 C 13.914062 5.230469 13.9375 5.207031 14.113281 5.0625 C 14.207031 4.980469 14.296875 4.90625 14.308594 4.894531 C 14.414062 4.796875 14.496094 4.664062 14.539062 4.523438 C 14.554688 4.464844 14.566406 4.410156 14.574219 4.339844 C 14.574219 4.3125 14.574219 4.226562 14.570312 4.195312 C 14.5625 4.082031 14.53125 3.984375 14.484375 3.886719 C 14.457031 3.832031 14.429688 3.792969 14.382812 3.730469 C 14.105469 3.359375 13.730469 3.078125 13.296875 2.914062 C 13.023438 2.808594 12.726562 2.757812 12.433594 2.757812 C 12.410156 2.757812 12.382812 2.757812 12.375 2.757812 Z M 12.375 2.757812 "/>
<path style=" stroke:none;fill-rule:nonzero;fill:rgb(0%,0%,0%);fill-opacity:1;" d="M 8.113281 3.046875 C 7.578125 3.058594 7.0625 3.261719 6.664062 3.617188 C 6.59375 3.679688 6.511719 3.761719 6.449219 3.832031 C 6.371094 3.925781 6.292969 4.035156 6.230469 4.140625 C 6.160156 4.253906 6.125 4.363281 6.113281 4.496094 C 6.109375 4.527344 6.109375 4.605469 6.113281 4.640625 C 6.121094 4.722656 6.136719 4.792969 6.167969 4.867188 C 6.179688 4.898438 6.203125 4.949219 6.21875 4.972656 C 6.269531 5.0625 6.335938 5.140625 6.414062 5.203125 C 6.425781 5.210938 6.515625 5.277344 6.617188 5.347656 C 6.8125 5.488281 6.828125 5.5 6.867188 5.53125 C 7.105469 5.714844 7.308594 5.921875 7.488281 6.167969 L 7.492188 6.175781 L 7.457031 6.199219 C 7.089844 6.460938 6.761719 6.765625 6.472656 7.113281 C 6.457031 7.132812 6.445312 7.144531 6.445312 7.144531 C 6.445312 7.148438 6.90625 7.523438 6.910156 7.523438 C 6.910156 7.523438 6.921875 7.511719 6.9375 7.496094 C 7.066406 7.339844 7.210938 7.1875 7.363281 7.050781 C 7.5625 6.867188 7.773438 6.703125 8 6.558594 C 8.164062 6.453125 8.292969 6.378906 8.445312 6.304688 C 8.695312 6.179688 8.945312 6.082031 9.222656 6 C 9.527344 5.910156 9.847656 5.851562 10.164062 5.828125 C 10.300781 5.816406 10.464844 5.8125 10.589844 5.816406 C 10.628906 5.816406 10.65625 5.816406 10.65625 5.816406 C 10.65625 5.816406 10.675781 5.21875 10.675781 5.21875 C 10.671875 5.214844 10.429688 5.214844 10.378906 5.21875 C 10.007812 5.226562 9.652344 5.273438 9.296875 5.359375 C 9.285156 5.363281 9.269531 5.367188 9.269531 5.363281 C 9.269531 5.363281 9.242188 5.246094 9.230469 5.1875 C 9.179688 4.933594 9.160156 4.667969 9.175781 4.414062 C 9.175781 4.363281 9.175781 4.367188 9.195312 4.136719 L 9.214844 3.933594 L 9.214844 3.875 C 9.214844 3.816406 9.214844 3.800781 9.207031 3.753906 C 9.179688 3.578125 9.09375 3.417969 8.96875 3.296875 C 8.851562 3.179688 8.707031 3.105469 8.542969 3.078125 C 8.414062 3.054688 8.253906 3.042969 8.113281 3.046875 Z M 8.230469 3.644531 C 8.328125 3.652344 8.433594 3.664062 8.472656 3.675781 C 8.539062 3.699219 8.59375 3.757812 8.609375 3.832031 C 8.613281 3.847656 8.617188 3.871094 8.613281 3.886719 C 8.613281 3.890625 8.605469 3.988281 8.597656 4.097656 C 8.582031 4.300781 8.578125 4.339844 8.574219 4.390625 C 8.570312 4.503906 8.570312 4.65625 8.574219 4.769531 C 8.585938 5.019531 8.625 5.273438 8.6875 5.507812 C 8.691406 5.527344 8.695312 5.542969 8.695312 5.542969 C 8.695312 5.542969 8.675781 5.550781 8.652344 5.558594 C 8.4375 5.640625 8.21875 5.742188 8.015625 5.851562 L 8.003906 5.855469 L 7.992188 5.839844 C 7.800781 5.570312 7.570312 5.324219 7.3125 5.113281 C 7.234375 5.050781 7.183594 5.015625 6.972656 4.863281 C 6.871094 4.792969 6.785156 4.730469 6.78125 4.722656 C 6.746094 4.695312 6.722656 4.65625 6.714844 4.609375 C 6.707031 4.589844 6.707031 4.546875 6.714844 4.527344 C 6.722656 4.488281 6.734375 4.460938 6.78125 4.390625 C 6.960938 4.121094 7.214844 3.90625 7.511719 3.777344 C 7.699219 3.699219 7.898438 3.652344 8.105469 3.644531 C 8.132812 3.644531 8.203125 3.644531 8.230469 3.644531 Z M 8.230469 3.644531 "/>
<path style=" stroke:none;fill-rule:nonzero;fill:rgb(0%,0%,0%);fill-opacity:1;" d="M 16.328125 5.96875 C 16.253906 5.972656 16.1875 5.984375 16.117188 6.007812 C 16.019531 6.039062 15.933594 6.089844 15.851562 6.15625 C 15.828125 6.175781 15.769531 6.234375 15.753906 6.253906 C 15.730469 6.28125 15.726562 6.289062 15.582031 6.488281 C 15.453125 6.671875 15.421875 6.714844 15.386719 6.757812 C 15.210938 6.980469 15.007812 7.175781 14.78125 7.34375 C 14.769531 7.351562 14.757812 7.359375 14.757812 7.359375 C 14.757812 7.359375 14.746094 7.347656 14.734375 7.332031 C 14.472656 6.976562 14.160156 6.652344 13.8125 6.375 C 13.792969 6.359375 13.773438 6.34375 13.773438 6.34375 C 13.773438 6.34375 13.40625 6.8125 13.402344 6.8125 C 13.402344 6.816406 13.417969 6.824219 13.433594 6.835938 C 13.734375 7.082031 14 7.355469 14.234375 7.664062 C 14.523438 8.050781 14.753906 8.472656 14.914062 8.925781 C 15.070312 9.367188 15.15625 9.820312 15.175781 10.285156 C 15.179688 10.339844 15.179688 10.46875 15.179688 10.503906 L 15.179688 10.535156 L 15.195312 10.535156 C 15.207031 10.535156 15.332031 10.539062 15.476562 10.539062 C 15.625 10.542969 15.75 10.542969 15.761719 10.542969 L 15.777344 10.542969 L 15.777344 10.460938 C 15.777344 10.03125 15.722656 9.585938 15.613281 9.167969 C 15.605469 9.144531 15.601562 9.121094 15.601562 9.121094 C 15.605469 9.121094 15.6875 9.101562 15.738281 9.089844 C 15.882812 9.0625 16.03125 9.042969 16.183594 9.03125 C 16.25 9.027344 16.308594 9.027344 16.394531 9.027344 C 16.515625 9.03125 16.519531 9.03125 16.792969 9.050781 C 16.910156 9.0625 17.019531 9.070312 17.035156 9.070312 C 17.070312 9.074219 17.117188 9.070312 17.15625 9.066406 C 17.460938 9.03125 17.71875 8.832031 17.828125 8.542969 C 17.847656 8.488281 17.867188 8.410156 17.871094 8.367188 C 17.871094 8.359375 17.875 8.335938 17.878906 8.316406 C 17.890625 8.214844 17.898438 8.125 17.898438 8.019531 C 17.898438 7.953125 17.894531 7.914062 17.890625 7.859375 C 17.847656 7.234375 17.542969 6.652344 17.054688 6.261719 C 16.972656 6.195312 16.886719 6.136719 16.796875 6.082031 C 16.6875 6.019531 16.582031 5.984375 16.457031 5.96875 C 16.4375 5.96875 16.347656 5.964844 16.328125 5.96875 Z M 16.410156 6.570312 C 16.449219 6.574219 16.480469 6.589844 16.558594 6.644531 C 16.800781 6.804688 16.992188 7.019531 17.121094 7.28125 C 17.222656 7.480469 17.277344 7.6875 17.292969 7.917969 C 17.296875 7.960938 17.296875 8.066406 17.296875 8.109375 C 17.292969 8.167969 17.285156 8.226562 17.277344 8.277344 C 17.273438 8.292969 17.273438 8.304688 17.273438 8.308594 C 17.273438 8.3125 17.265625 8.335938 17.253906 8.355469 C 17.226562 8.414062 17.171875 8.457031 17.105469 8.46875 C 17.074219 8.472656 17.078125 8.472656 16.847656 8.453125 C 16.644531 8.4375 16.601562 8.433594 16.542969 8.429688 C 16.421875 8.425781 16.277344 8.425781 16.148438 8.433594 C 15.914062 8.445312 15.683594 8.480469 15.453125 8.539062 C 15.433594 8.546875 15.414062 8.550781 15.414062 8.546875 C 15.414062 8.546875 15.402344 8.527344 15.394531 8.5 C 15.3125 8.300781 15.210938 8.089844 15.105469 7.902344 L 15.085938 7.863281 L 15.089844 7.859375 C 15.089844 7.859375 15.105469 7.847656 15.117188 7.839844 C 15.386719 7.644531 15.632812 7.414062 15.839844 7.152344 C 15.898438 7.078125 15.914062 7.058594 16.078125 6.832031 C 16.203125 6.652344 16.207031 6.648438 16.226562 6.628906 C 16.238281 6.617188 16.246094 6.609375 16.257812 6.601562 C 16.300781 6.574219 16.355469 6.5625 16.410156 6.570312 Z M 16.410156 6.570312 "/>
<path style=" stroke:none;fill-rule:nonzero;fill:rgb(0%,0%,0%);fill-opacity:1;" d="M 4.378906 6.367188 C 4.21875 6.375 4.078125 6.421875 3.949219 6.507812 C 3.9375 6.515625 3.925781 6.523438 3.921875 6.523438 C 3.921875 6.523438 3.910156 6.53125 3.902344 6.539062 C 3.832031 6.589844 3.761719 6.644531 3.695312 6.707031 C 3.664062 6.734375 3.570312 6.828125 3.542969 6.855469 C 3.410156 7 3.300781 7.152344 3.203125 7.324219 C 3.179688 7.371094 3.132812 7.464844 3.109375 7.511719 C 3.046875 7.65625 3 7.800781 2.964844 7.945312 C 2.90625 8.191406 2.886719 8.4375 2.90625 8.691406 C 2.917969 8.824219 2.941406 8.960938 2.972656 9.09375 C 3.007812 9.230469 3.0625 9.339844 3.152344 9.445312 C 3.171875 9.472656 3.226562 9.527344 3.253906 9.550781 C 3.382812 9.65625 3.53125 9.722656 3.691406 9.742188 C 3.730469 9.746094 3.746094 9.75 3.789062 9.75 C 3.859375 9.75 3.890625 9.75 3.984375 9.734375 C 4.015625 9.726562 4.132812 9.710938 4.238281 9.691406 C 4.449219 9.65625 4.46875 9.65625 4.527344 9.648438 C 4.722656 9.621094 4.933594 9.613281 5.128906 9.625 C 5.558594 9.648438 5.980469 9.75 6.371094 9.929688 C 6.386719 9.9375 6.402344 9.941406 6.402344 9.941406 C 6.40625 9.9375 6.65625 9.398438 6.652344 9.398438 C 6.652344 9.398438 6.605469 9.375 6.550781 9.351562 C 6.117188 9.164062 5.652344 9.054688 5.179688 9.027344 C 5.097656 9.023438 5.058594 9.023438 4.953125 9.023438 C 4.804688 9.023438 4.707031 9.027344 4.574219 9.039062 C 4.449219 9.050781 4.414062 9.054688 4.089844 9.109375 L 3.839844 9.148438 L 3.808594 9.148438 C 3.769531 9.148438 3.757812 9.148438 3.730469 9.136719 C 3.652344 9.113281 3.59375 9.054688 3.566406 8.984375 C 3.5625 8.96875 3.554688 8.945312 3.546875 8.90625 C 3.5 8.707031 3.488281 8.503906 3.511719 8.300781 C 3.550781 7.945312 3.695312 7.609375 3.921875 7.335938 C 3.980469 7.261719 4.054688 7.1875 4.125 7.125 C 4.160156 7.09375 4.222656 7.046875 4.242188 7.035156 C 4.246094 7.03125 4.257812 7.023438 4.265625 7.015625 C 4.304688 6.988281 4.339844 6.976562 4.382812 6.96875 C 4.460938 6.960938 4.535156 6.984375 4.589844 7.039062 C 4.601562 7.046875 4.648438 7.101562 4.742188 7.214844 C 4.894531 7.390625 4.902344 7.40625 4.945312 7.449219 C 5.050781 7.570312 5.171875 7.691406 5.296875 7.800781 C 5.761719 8.203125 6.304688 8.496094 6.898438 8.65625 C 6.914062 8.660156 6.925781 8.664062 6.925781 8.664062 C 6.929688 8.664062 6.957031 8.566406 7.003906 8.378906 C 7.046875 8.222656 7.078125 8.089844 7.078125 8.089844 C 7.082031 8.085938 7.082031 8.085938 7.066406 8.082031 C 7.035156 8.074219 6.957031 8.050781 6.921875 8.039062 C 6.578125 7.929688 6.253906 7.769531 5.960938 7.558594 C 5.769531 7.425781 5.59375 7.269531 5.433594 7.097656 C 5.378906 7.035156 5.371094 7.027344 5.191406 6.816406 C 5.0625 6.664062 5.054688 6.652344 5.023438 6.617188 C 5.003906 6.601562 4.980469 6.578125 4.96875 6.570312 C 4.828125 6.453125 4.667969 6.386719 4.484375 6.371094 C 4.464844 6.367188 4.394531 6.367188 4.378906 6.367188 Z M 4.378906 6.367188 "/>
<path style=" stroke:none;fill-rule:nonzero;fill:rgb(0%,0%,0%);fill-opacity:1;" d="M 9.441406 7.078125 C 9.230469 7.09375 9.039062 7.152344 8.863281 7.257812 C 8.707031 7.355469 8.570312 7.480469 8.472656 7.632812 C 8.304688 7.882812 8.234375 8.183594 8.273438 8.480469 C 8.300781 8.707031 8.394531 8.925781 8.539062 9.105469 C 8.589844 9.171875 8.664062 9.242188 8.726562 9.292969 C 8.839844 9.382812 8.96875 9.453125 9.109375 9.503906 C 9.207031 9.535156 9.300781 9.554688 9.40625 9.5625 C 9.460938 9.570312 9.566406 9.570312 9.625 9.5625 C 9.976562 9.527344 10.292969 9.351562 10.503906 9.074219 C 10.652344 8.875 10.738281 8.636719 10.753906 8.386719 C 10.753906 8.347656 10.753906 8.261719 10.75 8.226562 C 10.734375 8.058594 10.695312 7.910156 10.621094 7.765625 C 10.53125 7.582031 10.398438 7.429688 10.230469 7.308594 C 10.0625 7.191406 9.863281 7.113281 9.660156 7.085938 C 9.605469 7.082031 9.589844 7.078125 9.519531 7.078125 C 9.480469 7.078125 9.445312 7.078125 9.441406 7.078125 Z M 9.570312 7.679688 C 9.722656 7.695312 9.859375 7.761719 9.964844 7.867188 C 10.140625 8.046875 10.199219 8.308594 10.113281 8.542969 C 10.066406 8.675781 9.980469 8.785156 9.863281 8.863281 C 9.742188 8.941406 9.597656 8.976562 9.453125 8.964844 C 9.347656 8.957031 9.238281 8.917969 9.148438 8.855469 C 9.03125 8.777344 8.941406 8.660156 8.894531 8.523438 C 8.859375 8.410156 8.851562 8.285156 8.882812 8.167969 C 8.921875 8.011719 9.015625 7.875 9.152344 7.785156 C 9.179688 7.769531 9.195312 7.757812 9.226562 7.746094 C 9.300781 7.707031 9.382812 7.683594 9.46875 7.679688 C 9.492188 7.675781 9.546875 7.679688 9.570312 7.679688 Z M 9.570312 7.679688 "/>
<path style=" stroke:none;fill-rule:nonzero;fill:rgb(0%,0%,0%);fill-opacity:1;" d="M 12.613281 8.230469 C 12.554688 8.234375 12.53125 8.234375 12.492188 8.242188 C 12.304688 8.269531 12.125 8.339844 11.96875 8.445312 C 11.746094 8.59375 11.578125 8.816406 11.492188 9.070312 C 11.441406 9.214844 11.421875 9.355469 11.425781 9.511719 C 11.433594 9.757812 11.515625 10 11.660156 10.203125 C 11.746094 10.324219 11.855469 10.429688 11.980469 10.511719 C 12.230469 10.675781 12.53125 10.746094 12.828125 10.707031 C 13.054688 10.679688 13.273438 10.585938 13.453125 10.441406 C 13.515625 10.390625 13.585938 10.320312 13.636719 10.257812 C 13.695312 10.1875 13.742188 10.109375 13.78125 10.035156 C 13.851562 9.898438 13.894531 9.75 13.910156 9.597656 C 13.914062 9.546875 13.914062 9.515625 13.914062 9.457031 C 13.914062 9.382812 13.910156 9.339844 13.898438 9.269531 C 13.855469 9.015625 13.734375 8.777344 13.550781 8.59375 C 13.394531 8.4375 13.203125 8.328125 12.992188 8.269531 C 12.921875 8.253906 12.847656 8.238281 12.765625 8.234375 C 12.742188 8.230469 12.632812 8.230469 12.613281 8.230469 Z M 12.726562 8.832031 C 12.816406 8.839844 12.90625 8.867188 12.984375 8.910156 C 13.007812 8.925781 13.050781 8.953125 13.070312 8.96875 C 13.152344 9.03125 13.214844 9.117188 13.257812 9.207031 C 13.324219 9.359375 13.332031 9.523438 13.28125 9.679688 C 13.230469 9.828125 13.132812 9.949219 12.996094 10.03125 C 12.972656 10.042969 12.929688 10.066406 12.90625 10.074219 C 12.78125 10.121094 12.644531 10.132812 12.515625 10.101562 C 12.328125 10.054688 12.175781 9.929688 12.09375 9.757812 C 12.011719 9.59375 12.003906 9.40625 12.070312 9.234375 C 12.148438 9.039062 12.320312 8.894531 12.527344 8.84375 C 12.59375 8.832031 12.660156 8.824219 12.726562 8.832031 Z M 12.726562 8.832031 "/>
<path style=" stroke:none;fill-rule:nonzero;fill:rgb(0%,0%,0%);fill-opacity:1;" d="M 8.359375 10.082031 C 8.007812 10.097656 7.679688 10.261719 7.453125 10.535156 C 7.367188 10.636719 7.296875 10.761719 7.25 10.886719 C 7.179688 11.078125 7.15625 11.28125 7.179688 11.484375 C 7.210938 11.714844 7.308594 11.941406 7.457031 12.121094 C 7.492188 12.164062 7.550781 12.226562 7.589844 12.261719 C 7.777344 12.421875 8 12.527344 8.242188 12.558594 C 8.304688 12.570312 8.339844 12.570312 8.414062 12.570312 C 8.492188 12.570312 8.527344 12.566406 8.59375 12.558594 C 8.8125 12.527344 9.019531 12.4375 9.191406 12.300781 C 9.457031 12.089844 9.625 11.777344 9.65625 11.4375 C 9.664062 11.34375 9.660156 11.238281 9.648438 11.144531 C 9.597656 10.820312 9.425781 10.527344 9.164062 10.332031 C 8.933594 10.160156 8.648438 10.070312 8.359375 10.082031 Z M 8.480469 10.683594 C 8.605469 10.699219 8.722656 10.746094 8.816406 10.824219 C 8.921875 10.90625 9 11.019531 9.035156 11.152344 C 9.054688 11.210938 9.0625 11.273438 9.058594 11.339844 C 9.058594 11.421875 9.042969 11.488281 9.015625 11.566406 C 8.925781 11.789062 8.714844 11.945312 8.472656 11.96875 C 8.441406 11.972656 8.371094 11.972656 8.34375 11.96875 C 8.226562 11.953125 8.117188 11.910156 8.027344 11.84375 C 7.992188 11.816406 7.949219 11.773438 7.921875 11.742188 C 7.832031 11.636719 7.78125 11.507812 7.773438 11.371094 C 7.769531 11.34375 7.769531 11.28125 7.773438 11.257812 C 7.796875 11.054688 7.910156 10.878906 8.082031 10.773438 C 8.105469 10.761719 8.152344 10.738281 8.175781 10.726562 C 8.238281 10.703125 8.308594 10.6875 8.378906 10.683594 C 8.394531 10.679688 8.460938 10.683594 8.480469 10.683594 Z M 8.480469 10.683594 "/>
<path style=" stroke:none;fill-rule:nonzero;fill:rgb(0%,0%,0%);fill-opacity:1;" d="M 5.265625 10.253906 C 5.261719 10.332031 5.261719 10.375 5.261719 10.476562 C 5.261719 10.695312 5.269531 10.875 5.296875 11.089844 C 5.320312 11.28125 5.355469 11.496094 5.398438 11.675781 C 5.402344 11.6875 5.402344 11.695312 5.402344 11.695312 C 5.402344 11.699219 5.355469 11.707031 5.3125 11.714844 C 5.171875 11.742188 5.035156 11.761719 4.878906 11.769531 C 4.828125 11.773438 4.679688 11.773438 4.621094 11.773438 C 4.535156 11.769531 4.53125 11.769531 4.277344 11.746094 C 4.054688 11.726562 4.035156 11.726562 3.988281 11.726562 C 3.925781 11.730469 3.882812 11.738281 3.828125 11.75 C 3.535156 11.820312 3.308594 12.046875 3.234375 12.335938 C 3.203125 12.453125 3.183594 12.660156 3.1875 12.8125 C 3.191406 13.058594 3.230469 13.269531 3.300781 13.492188 C 3.453125 13.941406 3.738281 14.332031 4.125 14.609375 C 4.195312 14.660156 4.292969 14.722656 4.34375 14.746094 C 4.535156 14.84375 4.761719 14.859375 4.96875 14.792969 C 5.109375 14.746094 5.234375 14.660156 5.328125 14.550781 C 5.351562 14.523438 5.351562 14.519531 5.492188 14.324219 C 5.5625 14.226562 5.632812 14.128906 5.648438 14.105469 C 5.8125 13.886719 6.003906 13.691406 6.21875 13.523438 L 6.230469 13.515625 L 6.234375 13.523438 C 6.304688 13.621094 6.363281 13.695312 6.425781 13.777344 C 6.660156 14.070312 6.925781 14.332031 7.21875 14.570312 C 7.25 14.59375 7.253906 14.597656 7.257812 14.59375 C 7.261719 14.589844 7.625 14.128906 7.625 14.125 C 7.625 14.125 7.613281 14.113281 7.597656 14.105469 C 7.539062 14.054688 7.476562 14.003906 7.417969 13.949219 C 7.238281 13.789062 7.0625 13.605469 6.914062 13.421875 C 6.765625 13.242188 6.640625 13.058594 6.515625 12.847656 C 6.394531 12.652344 6.292969 12.445312 6.203125 12.226562 C 6.003906 11.738281 5.886719 11.207031 5.863281 10.675781 C 5.859375 10.554688 5.859375 10.398438 5.863281 10.28125 C 5.863281 10.269531 5.863281 10.261719 5.863281 10.261719 C 5.863281 10.261719 5.273438 10.230469 5.269531 10.230469 C 5.265625 10.230469 5.265625 10.230469 5.265625 10.253906 Z M 5.59375 12.316406 C 5.679688 12.542969 5.785156 12.777344 5.898438 12.980469 C 5.902344 12.992188 5.910156 13.003906 5.910156 13.003906 C 5.910156 13.003906 5.894531 13.015625 5.878906 13.027344 C 5.625 13.21875 5.386719 13.457031 5.1875 13.722656 C 5.152344 13.769531 5.132812 13.792969 4.996094 13.984375 C 4.882812 14.144531 4.875 14.15625 4.859375 14.171875 C 4.820312 14.210938 4.773438 14.230469 4.71875 14.234375 C 4.691406 14.234375 4.664062 14.230469 4.632812 14.21875 C 4.597656 14.207031 4.496094 14.136719 4.425781 14.082031 C 4.339844 14.015625 4.257812 13.941406 4.1875 13.859375 C 4.046875 13.695312 3.9375 13.503906 3.871094 13.300781 C 3.816406 13.132812 3.785156 12.953125 3.785156 12.78125 C 3.785156 12.691406 3.796875 12.582031 3.8125 12.503906 C 3.824219 12.433594 3.863281 12.378906 3.929688 12.347656 C 3.957031 12.335938 3.980469 12.328125 4.011719 12.328125 C 4.027344 12.328125 4.054688 12.328125 4.230469 12.34375 C 4.421875 12.359375 4.480469 12.367188 4.542969 12.367188 C 4.660156 12.375 4.808594 12.375 4.929688 12.367188 C 5.117188 12.355469 5.308594 12.332031 5.492188 12.292969 C 5.519531 12.285156 5.546875 12.28125 5.554688 12.277344 C 5.566406 12.277344 5.574219 12.273438 5.574219 12.273438 C 5.578125 12.273438 5.578125 12.277344 5.59375 12.316406 Z M 5.59375 12.316406 "/>
<path style=" stroke:none;fill-rule:nonzero;fill:rgb(0%,0%,0%);fill-opacity:1;" d="M 15.046875 11.136719 C 14.90625 11.148438 14.777344 11.179688 14.652344 11.242188 C 14.496094 11.320312 14.363281 11.4375 14.265625 11.582031 C 14.242188 11.613281 10.058594 18.269531 10.042969 18.292969 C 9.96875 18.421875 9.925781 18.558594 9.914062 18.707031 C 9.910156 18.738281 9.910156 18.820312 9.910156 18.855469 C 9.921875 19.050781 9.988281 19.238281 10.105469 19.402344 C 10.199219 19.53125 10.328125 19.636719 10.46875 19.710938 C 10.585938 19.769531 10.699219 19.800781 10.839844 19.816406 C 10.863281 19.816406 11.09375 19.820312 15.089844 19.820312 C 18.132812 19.820312 19.324219 19.820312 19.34375 19.816406 C 19.546875 19.804688 19.738281 19.738281 19.898438 19.617188 C 20.0625 19.496094 20.1875 19.324219 20.253906 19.128906 C 20.351562 18.839844 20.320312 18.53125 20.164062 18.273438 C 20.144531 18.242188 15.96875 11.605469 15.957031 11.585938 C 15.871094 11.457031 15.753906 11.347656 15.621094 11.273438 C 15.488281 11.195312 15.351562 11.152344 15.199219 11.140625 C 15.171875 11.136719 15.074219 11.136719 15.046875 11.136719 Z M 15.140625 11.738281 C 15.171875 11.738281 15.214844 11.746094 15.25 11.757812 C 15.308594 11.78125 15.359375 11.8125 15.402344 11.855469 C 15.425781 11.878906 15.441406 11.898438 15.457031 11.917969 C 15.460938 11.925781 19.550781 18.425781 19.644531 18.570312 C 19.6875 18.644531 19.710938 18.71875 19.710938 18.796875 C 19.710938 18.890625 19.675781 18.988281 19.613281 19.0625 C 19.597656 19.082031 19.566406 19.113281 19.550781 19.128906 C 19.480469 19.183594 19.398438 19.214844 19.308594 19.21875 C 19.273438 19.21875 10.945312 19.21875 10.910156 19.21875 C 10.859375 19.214844 10.816406 19.207031 10.773438 19.1875 C 10.742188 19.175781 10.699219 19.152344 10.671875 19.128906 C 10.65625 19.117188 10.617188 19.078125 10.605469 19.0625 C 10.59375 19.046875 10.570312 19.015625 10.5625 19 C 10.535156 18.949219 10.519531 18.894531 10.511719 18.835938 C 10.507812 18.816406 10.507812 18.769531 10.511719 18.75 C 10.519531 18.6875 10.539062 18.632812 10.570312 18.582031 C 10.589844 18.550781 14.753906 11.929688 14.761719 11.921875 C 14.828125 11.820312 14.933594 11.757812 15.054688 11.738281 C 15.082031 11.734375 15.105469 11.734375 15.140625 11.738281 Z M 15.140625 11.738281 "/>
<path style=" stroke:none;fill-rule:nonzero;fill:rgb(0%,0%,0%);fill-opacity:1;" d="M 14.835938 15.273438 L 14.835938 17.09375 L 15.433594 17.09375 L 15.433594 13.457031 L 14.835938 13.457031 Z M 14.835938 15.273438 "/>
<path style=" stroke:none;fill-rule:nonzero;fill:rgb(0%,0%,0%);fill-opacity:1;" d="M 14.835938 18.070312 L 14.835938 18.390625 L 15.433594 18.390625 L 15.433594 17.75 L 14.835938 17.75 Z M 14.835938 18.070312 "/>
<path style=" stroke:none;fill-rule:nonzero;fill:rgb(0%,0%,0%);fill-opacity:1;" d="M 11.5 11.234375 C 11.226562 11.25 10.964844 11.359375 10.753906 11.542969 C 10.710938 11.578125 10.644531 11.648438 10.609375 11.695312 C 10.398438 11.953125 10.300781 12.289062 10.339844 12.621094 C 10.371094 12.871094 10.472656 13.105469 10.640625 13.300781 C 10.664062 13.328125 10.726562 13.390625 10.753906 13.414062 C 10.839844 13.488281 10.925781 13.542969 11.023438 13.59375 C 11.167969 13.664062 11.3125 13.703125 11.476562 13.71875 C 11.515625 13.722656 11.636719 13.722656 11.675781 13.71875 C 11.84375 13.703125 11.988281 13.664062 12.132812 13.589844 C 12.480469 13.417969 12.726562 13.09375 12.800781 12.714844 C 12.808594 12.667969 12.8125 12.621094 12.820312 12.5625 C 12.820312 12.53125 12.820312 12.421875 12.820312 12.394531 C 12.816406 12.335938 12.808594 12.289062 12.796875 12.238281 C 12.714844 11.816406 12.421875 11.464844 12.019531 11.3125 C 11.902344 11.269531 11.777344 11.242188 11.648438 11.234375 C 11.625 11.234375 11.527344 11.234375 11.5 11.234375 Z M 11.613281 11.832031 C 11.703125 11.839844 11.785156 11.859375 11.863281 11.898438 C 11.964844 11.949219 12.050781 12.027344 12.113281 12.121094 C 12.171875 12.207031 12.203125 12.300781 12.21875 12.40625 C 12.222656 12.4375 12.222656 12.515625 12.21875 12.546875 C 12.210938 12.605469 12.195312 12.660156 12.175781 12.71875 C 12.164062 12.742188 12.140625 12.792969 12.125 12.816406 C 12.035156 12.957031 11.898438 13.058594 11.738281 13.101562 C 11.585938 13.140625 11.429688 13.125 11.289062 13.054688 C 11.226562 13.023438 11.179688 12.988281 11.128906 12.9375 C 11.019531 12.832031 10.953125 12.699219 10.933594 12.546875 C 10.933594 12.519531 10.929688 12.464844 10.933594 12.433594 C 10.9375 12.347656 10.960938 12.269531 11 12.191406 C 11.03125 12.128906 11.066406 12.074219 11.121094 12.023438 C 11.175781 11.964844 11.234375 11.925781 11.304688 11.890625 C 11.402344 11.847656 11.511719 11.828125 11.613281 11.832031 Z M 11.613281 11.832031 "/>
<path style=" stroke:none;fill-rule:nonzero;fill:rgb(0%,0%,0%);fill-opacity:1;" d="M 8.226562 13.878906 C 8.222656 13.882812 8.214844 13.90625 8.210938 13.929688 C 8.109375 14.277344 7.957031 14.605469 7.757812 14.90625 C 7.589844 15.152344 7.390625 15.375 7.167969 15.574219 C 7.152344 15.585938 7.0625 15.664062 6.96875 15.742188 C 6.875 15.820312 6.789062 15.894531 6.777344 15.902344 C 6.675781 16 6.601562 16.113281 6.558594 16.242188 C 6.535156 16.3125 6.519531 16.382812 6.511719 16.457031 C 6.507812 16.484375 6.507812 16.570312 6.511719 16.597656 C 6.519531 16.667969 6.53125 16.730469 6.554688 16.796875 C 6.585938 16.890625 6.621094 16.960938 6.691406 17.054688 C 6.855469 17.28125 7.0625 17.480469 7.296875 17.636719 C 7.644531 17.867188 8.039062 18.003906 8.453125 18.035156 C 8.5 18.039062 8.523438 18.039062 8.585938 18.042969 C 8.734375 18.046875 8.890625 18.035156 9.046875 18.007812 C 9.128906 17.996094 9.238281 17.972656 9.292969 17.953125 C 9.515625 17.882812 9.699219 17.730469 9.800781 17.523438 C 9.855469 17.414062 9.886719 17.304688 9.894531 17.183594 C 9.894531 17.140625 9.894531 17.082031 9.890625 17.039062 C 9.886719 17.023438 9.859375 16.855469 9.8125 16.582031 C 9.78125 16.394531 9.769531 16.246094 9.765625 16.0625 C 9.761719 15.882812 9.773438 15.683594 9.800781 15.496094 C 9.847656 15.179688 9.941406 14.859375 10.070312 14.574219 C 10.078125 14.554688 10.085938 14.539062 10.085938 14.539062 C 10.085938 14.535156 9.996094 14.492188 9.816406 14.410156 C 9.671875 14.339844 9.546875 14.28125 9.546875 14.28125 C 9.542969 14.28125 9.539062 14.289062 9.527344 14.324219 C 9.34375 14.726562 9.226562 15.152344 9.183594 15.585938 C 9.167969 15.730469 9.164062 15.84375 9.164062 15.996094 C 9.164062 16.152344 9.171875 16.28125 9.1875 16.433594 C 9.199219 16.539062 9.203125 16.566406 9.265625 16.945312 C 9.292969 17.109375 9.292969 17.113281 9.292969 17.132812 C 9.292969 17.179688 9.285156 17.214844 9.265625 17.253906 C 9.238281 17.304688 9.199219 17.34375 9.152344 17.367188 C 9.128906 17.375 9.117188 17.378906 9.082031 17.390625 C 8.976562 17.414062 8.871094 17.433594 8.746094 17.441406 C 8.710938 17.441406 8.578125 17.441406 8.542969 17.441406 C 8.417969 17.433594 8.320312 17.417969 8.210938 17.390625 C 7.800781 17.289062 7.4375 17.050781 7.183594 16.710938 C 7.136719 16.652344 7.125 16.621094 7.113281 16.578125 C 7.109375 16.554688 7.109375 16.515625 7.113281 16.492188 C 7.121094 16.433594 7.144531 16.386719 7.1875 16.34375 C 7.195312 16.335938 7.273438 16.269531 7.363281 16.195312 C 7.453125 16.117188 7.539062 16.046875 7.550781 16.035156 C 7.671875 15.929688 7.800781 15.804688 7.910156 15.679688 C 8.3125 15.234375 8.605469 14.707031 8.777344 14.132812 C 8.789062 14.085938 8.808594 14.019531 8.808594 14.019531 C 8.808594 14.015625 8.285156 13.878906 8.234375 13.867188 L 8.226562 13.863281 Z M 8.226562 13.878906 "/>
</g>
</svg>
