<?xml version="1.0" encoding="UTF-8"?>
<svg xmlns="http://www.w3.org/2000/svg" xmlns:xlink="http://www.w3.org/1999/xlink" viewBox="0 0 24 23" version="1.1">
<g>
<path style="fill-rule:nonzero;fill:rgb(0%,0%,0%);fill-opacity:1;stroke-width:1;stroke-linecap:butt;stroke-linejoin:miter;stroke:rgb(0%,0%,0%);stroke-opacity:1;stroke-miterlimit:4;" d="M 455.078125 891.983696 L 455.078125 899.116848 L 398.111979 899.116848 L 398.111979 913.043478 L 355.143229 913.043478 L 355.143229 927.98913 L 327.148438 927.98913 L 327.148438 941.915761 L 311.848958 941.915761 L 311.848958 955.842391 L 283.854167 955.842391 L 283.854167 969.769022 L 269.53125 970.44837 L 269.205729 977.581522 L 268.880208 985.054348 L 239.908854 985.054348 L 239.908854 1000 L 225.911458 1000 L 225.911458 1013.92663 L 210.9375 1013.92663 L 210.9375 1027.853261 L 196.940104 1027.853261 L 196.940104 1057.065217 L 182.942708 1057.065217 L 182.942708 1070.991848 L 168.945313 1070.991848 L 168.945313 1085.9375 L 153.971354 1085.9375 L 153.971354 1114.130435 L 139.973958 1114.130435 L 139.973958 1143.002717 L 125.976563 1143.002717 L 125.976563 1170.855978 L 111.979167 1170.855978 L 111.979167 1213.994565 L 97.005208 1213.994565 L 97.005208 1457.880435 L 111.979167 1457.880435 L 111.979167 1501.019022 L 125.976563 1501.019022 L 125.976563 1544.157609 L 139.973958 1544.157609 L 139.973958 1572.01087 L 153.971354 1572.01087 L 153.971354 1586.956522 L 168.945313 1586.956522 L 168.945313 1615.149457 L 182.942708 1615.149457 L 182.942708 1630.095109 L 196.940104 1630.095109 L 196.940104 1644.021739 L 210.9375 1644.021739 L 210.9375 1657.94837 L 225.911458 1657.94837 L 225.911458 1671.875 L 239.908854 1671.875 L 239.908854 1687.160326 L 253.90625 1687.160326 L 253.90625 1701.086957 L 268.880208 1701.086957 L 268.880208 1716.032609 L 297.851563 1716.032609 L 297.851563 1729.959239 L 311.848958 1729.959239 L 311.848958 1744.904891 L 341.145833 1744.904891 L 341.145833 1758.831522 L 370.117188 1758.831522 L 370.117188 1773.097826 L 412.109375 1773.097826 L 412.109375 1787.024457 L 670.898438 1787.024457 L 670.898438 1773.097826 L 713.867188 1773.097826 L 713.867188 1758.831522 L 742.838542 1758.831522 L 742.838542 1744.904891 L 771.158854 1744.904891 L 771.158854 1729.959239 L 800.130208 1729.959239 L 800.130208 1716.032609 L 814.127604 1716.032609 L 814.127604 1701.086957 L 843.098958 1701.086957 L 843.098958 1687.160326 L 857.096354 1687.160326 L 857.096354 1671.875 L 871.09375 1671.875 L 871.09375 1657.94837 L 886.067708 1657.94837 L 886.067708 1644.021739 L 900.065104 1644.021739 L 900.065104 1630.095109 L 914.0625 1630.095109 L 914.0625 1600.883152 L 929.036458 1600.883152 L 929.036458 1586.956522 L 943.033854 1586.956522 L 943.033854 1558.084239 L 957.03125 1558.084239 L 957.03125 1529.891304 L 971.028646 1529.891304 L 971.028646 1487.092391 L 986.002604 1487.092391 L 986.002604 1443.953804 L 1000 1443.953804 L 1000 1241.847826 L 986.002604 1241.847826 L 986.002604 1185.122283 L 971.028646 1185.122283 L 971.028646 1156.929348 L 957.03125 1156.929348 L 957.03125 1128.057065 L 943.033854 1128.057065 L 943.033854 1099.86413 L 929.036458 1099.86413 L 929.036458 1070.991848 L 914.0625 1070.991848 L 914.0625 1057.065217 L 900.065104 1057.065217 L 900.065104 1043.138587 L 886.067708 1043.138587 L 886.067708 1027.853261 L 871.09375 1027.853261 L 871.09375 1013.92663 L 857.096354 1013.92663 L 857.096354 1000 L 843.098958 1000 L 843.098958 985.054348 L 829.101563 985.054348 L 829.101563 970.108696 L 814.127604 970.108696 L 814.127604 955.842391 L 786.132813 955.842391 L 786.132813 941.915761 L 757.161458 941.915761 L 757.161458 927.98913 L 728.841146 927.98913 L 728.841146 913.043478 L 699.869792 913.043478 L 699.869792 899.116848 L 641.927083 899.116848 L 641.927083 884.850543 L 455.078125 884.850543 L 455.078125 891.983696 M 611.979167 978.600543 L 611.979167 986.07337 L 669.921875 986.07337 L 669.921875 1000 L 698.893229 1000 L 698.893229 1014.945652 L 727.864583 1014.945652 L 727.864583 1028.872283 L 755.859375 1028.872283 L 755.859375 1044.157609 L 769.856771 1044.157609 L 769.856771 1058.084239 L 785.15625 1058.084239 L 785.15625 1072.01087 L 799.153646 1072.01087 L 799.153646 1086.956522 L 813.151042 1086.956522 L 813.151042 1100.883152 L 828.125 1100.883152 L 828.125 1115.149457 L 842.122396 1115.149457 L 842.122396 1129.076087 L 856.119792 1129.076087 L 856.119792 1157.94837 L 870.117188 1157.94837 L 870.117188 1186.141304 L 885.091146 1186.141304 L 885.091146 1215.013587 L 899.088542 1215.013587 L 899.088542 1272.078804 L 913.085938 1272.078804 L 913.085938 1415.081522 L 899.088542 1415.081522 L 899.088542 1456.861413 L 885.091146 1456.861413 L 885.091146 1500 L 870.117188 1500 L 870.117188 1528.872283 L 856.119792 1528.872283 L 856.119792 1543.138587 L 842.122396 1543.138587 L 842.122396 1570.991848 L 828.125 1570.991848 L 828.125 1585.9375 L 813.151042 1585.9375 L 813.151042 1599.86413 L 799.153646 1599.86413 L 799.153646 1614.130435 L 785.15625 1614.130435 L 785.15625 1629.076087 L 755.859375 1629.076087 L 755.859375 1643.002717 L 741.861979 1643.002717 L 741.861979 1656.929348 L 712.890625 1656.929348 L 712.890625 1671.875 L 684.895833 1671.875 L 684.895833 1687.160326 L 641.927083 1687.160326 L 641.927083 1701.086957 L 569.986979 1701.086957 L 569.986979 1715.013587 L 527.994792 1715.013587 L 527.994792 1701.086957 L 442.057292 1701.086957 L 442.057292 1687.160326 L 413.085938 1687.160326 L 413.085938 1671.875 L 385.091146 1671.875 L 385.091146 1656.929348 L 356.119792 1656.929348 L 356.119792 1643.002717 L 328.125 1643.002717 L 328.125 1629.076087 L 313.151042 1629.076087 L 313.151042 1614.130435 L 297.851563 1614.130435 L 297.851563 1599.86413 L 283.854167 1599.86413 L 283.854167 1585.9375 L 269.856771 1585.9375 L 269.856771 1570.991848 L 254.882813 1570.991848 L 254.882813 1557.065217 L 240.885417 1557.065217 L 240.885417 1528.872283 L 226.888021 1528.872283 L 226.888021 1500 L 211.914063 1500 L 211.914063 1472.146739 L 197.916667 1472.146739 L 197.916667 1429.008152 L 183.919271 1429.008152 L 183.919271 1242.866848 L 197.916667 1242.866848 L 197.916667 1201.086957 L 211.914063 1201.086957 L 211.914063 1171.875 L 226.888021 1171.875 L 226.888021 1144.021739 L 240.885417 1144.021739 L 240.885417 1129.076087 L 254.882813 1129.076087 L 254.882813 1115.149457 L 269.856771 1115.149457 L 269.856771 1100.883152 L 283.854167 1100.883152 L 283.854167 1086.956522 L 297.851563 1086.956522 L 297.851563 1072.01087 L 313.151042 1072.01087 L 313.151042 1058.084239 L 328.125 1058.084239 L 328.125 1044.157609 L 342.122396 1044.157609 L 342.122396 1028.872283 L 371.09375 1028.872283 L 371.09375 1014.945652 L 399.088542 1014.945652 L 399.088542 1000 L 428.059896 1000 L 428.059896 986.07337 L 485.026042 986.07337 L 485.026042 971.127717 L 611.979167 971.127717 L 611.979167 978.600543 " transform="matrix(0.012,0,0,0.0115,0,0)"/>
<path style="fill-rule:nonzero;fill:rgb(0%,0%,0%);fill-opacity:1;stroke-width:1;stroke-linecap:butt;stroke-linejoin:miter;stroke:rgb(0%,0%,0%);stroke-opacity:1;stroke-miterlimit:4;" d="M 210.9375 248.980978 L 210.9375 284.986413 L 239.908854 284.986413 L 239.908854 298.913043 L 427.083333 298.913043 L 427.083333 312.839674 L 455.078125 312.839674 L 455.078125 328.125 L 470.052083 328.125 L 470.052083 343.070652 L 484.049479 343.070652 L 484.049479 370.923913 L 498.046875 370.923913 L 498.046875 856.997283 L 655.924479 856.997283 L 655.924479 871.942935 L 698.893229 871.942935 L 698.893229 885.869565 L 741.861979 885.869565 L 741.861979 900.13587 L 769.856771 900.13587 L 769.856771 914.0625 L 799.153646 914.0625 L 799.153646 929.008152 L 813.151042 929.008152 L 813.151042 942.934783 L 842.122396 942.934783 L 842.122396 956.861413 L 856.119792 956.861413 L 856.119792 971.127717 L 870.117188 971.127717 L 870.117188 986.07337 L 885.091146 986.07337 L 885.091146 1000 L 899.088542 1000 L 899.088542 1014.945652 L 913.085938 1014.945652 L 913.085938 1028.872283 L 928.059896 1028.872283 L 928.059896 1044.157609 L 942.057292 1044.157609 L 942.057292 1072.01087 L 956.054688 1072.01087 L 956.054688 1086.956522 L 970.052083 1086.956522 L 970.052083 1115.149457 L 985.026042 1115.149457 L 985.026042 1144.021739 L 1300.130208 1144.021739 L 1300.130208 1416.100543 L 1388.020833 1416.100543 L 1388.020833 1144.021739 L 1472.005208 1144.021739 L 1472.005208 1157.94837 L 1500.976563 1157.94837 L 1500.976563 1171.875 L 1514.973958 1171.875 L 1514.973958 1186.141304 L 1528.971354 1186.141304 L 1528.971354 1215.013587 L 1543.945313 1215.013587 L 1543.945313 1242.866848 L 1557.942708 1242.866848 L 1557.942708 1286.005435 L 1571.940104 1286.005435 L 1571.940104 1329.144022 L 1585.9375 1329.144022 L 1585.9375 1372.961957 L 1600.911458 1372.961957 L 1600.911458 1416.100543 L 1614.908854 1416.100543 L 1614.908854 1457.880435 L 1628.90625 1457.880435 L 1628.90625 1487.092391 L 1643.880208 1487.092391 L 1643.880208 1529.891304 L 1657.877604 1529.891304 L 1657.877604 1544.157609 L 1686.848958 1544.157609 L 1686.848958 1558.084239 L 1774.088542 1558.084239 L 1774.088542 1544.157609 L 1846.028646 1544.157609 L 1846.028646 1529.891304 L 1902.994792 1529.891304 L 1902.994792 1442.934783 L 1816.080729 1442.934783 L 1816.080729 1456.861413 L 1745.117188 1456.861413 L 1745.117188 1472.146739 L 1731.119792 1472.146739 L 1731.119792 1456.861413 L 1716.145833 1456.861413 L 1716.145833 1415.081522 L 1702.148438 1415.081522 L 1702.148438 1385.869565 L 1688.151042 1385.869565 L 1688.151042 1343.070652 L 1672.851563 1343.070652 L 1672.851563 1298.913043 L 1658.854167 1298.913043 L 1658.854167 1257.133152 L 1644.856771 1257.133152 L 1644.856771 1213.994565 L 1629.882813 1213.994565 L 1629.882813 1185.122283 L 1615.885417 1185.122283 L 1615.885417 1156.929348 L 1601.888021 1156.929348 L 1601.888021 1128.057065 L 1586.914063 1128.057065 L 1586.914063 1114.130435 L 1572.916667 1114.130435 L 1572.916667 1099.86413 L 1558.919271 1099.86413 L 1558.919271 1085.9375 L 1529.947917 1085.9375 L 1529.947917 1070.991848 L 1501.953125 1070.991848 L 1501.953125 1057.065217 L 1388.020833 1057.065217 L 1388.020833 613.111413 L 1373.046875 613.111413 L 1373.046875 583.899457 L 1358.072917 583.899457 L 1358.072917 556.046196 L 1344.075521 556.046196 L 1344.075521 542.119565 L 1315.104167 542.119565 L 1315.104167 526.834239 L 584.960938 526.834239 L 584.960938 342.05163 L 570.963542 342.05163 L 570.963542 298.913043 L 555.989583 298.913043 L 555.989583 283.967391 L 541.992188 283.967391 L 541.992188 270.040761 L 527.994792 270.040761 L 527.994792 255.095109 L 513.020833 255.095109 L 513.020833 241.168478 L 499.023438 241.168478 L 499.023438 226.902174 L 471.028646 226.902174 L 471.028646 212.975543 L 210.9375 212.975543 L 210.9375 248.980978 M 1271.158854 620.923913 L 1271.158854 628.057065 L 1286.132813 628.057065 L 1286.132813 656.929348 L 1300.130208 656.929348 L 1300.130208 741.847826 L 584.960938 741.847826 L 584.960938 614.130435 L 1271.158854 614.130435 L 1271.158854 620.923913 " transform="matrix(0.012,0,0,0.0115,0,0)"/>
<path style="fill-rule:nonzero;fill:rgb(0%,0%,0%);fill-opacity:1;stroke-width:1;stroke-linecap:butt;stroke-linejoin:miter;stroke:rgb(0%,0%,0%);stroke-opacity:1;stroke-miterlimit:4;" d="M 1271.158854 1464.334239 L 1271.158854 1472.146739 L 1242.838542 1472.146739 L 1242.838542 1486.07337 L 1228.841146 1486.07337 L 1228.841146 1500 L 1213.867188 1500 L 1213.867188 1513.92663 L 1199.869792 1513.92663 L 1199.869792 1528.872283 L 1185.872396 1528.872283 L 1185.872396 1557.065217 L 1170.898438 1557.065217 L 1170.898438 1687.160326 L 1185.872396 1687.160326 L 1185.872396 1716.032609 L 1199.869792 1716.032609 L 1199.869792 1744.904891 L 1213.867188 1744.904891 L 1213.867188 1758.831522 L 1242.838542 1758.831522 L 1242.838542 1773.097826 L 1257.161458 1773.097826 L 1257.161458 1787.024457 L 1416.015625 1787.024457 L 1416.015625 1773.097826 L 1444.986979 1773.097826 L 1444.986979 1758.831522 L 1458.984375 1758.831522 L 1458.984375 1744.904891 L 1472.981771 1744.904891 L 1472.981771 1729.959239 L 1487.955729 1729.959239 L 1487.955729 1701.086957 L 1501.953125 1701.086957 L 1501.953125 1671.875 L 1515.950521 1671.875 L 1515.950521 1585.9375 L 1501.953125 1585.9375 L 1501.953125 1543.138587 L 1487.955729 1543.138587 L 1487.955729 1513.92663 L 1472.981771 1513.92663 L 1472.981771 1500 L 1458.984375 1500 L 1458.984375 1486.07337 L 1444.986979 1486.07337 L 1444.986979 1472.146739 L 1416.015625 1472.146739 L 1416.015625 1456.861413 L 1271.158854 1456.861413 L 1271.158854 1464.334239 M 1387.044271 1550.951087 L 1387.044271 1558.084239 L 1401.041667 1558.084239 L 1401.041667 1572.01087 L 1415.039063 1572.01087 L 1415.039063 1600.883152 L 1429.036458 1600.883152 L 1429.036458 1643.002717 L 1415.039063 1643.002717 L 1415.039063 1671.875 L 1401.041667 1671.875 L 1401.041667 1687.160326 L 1387.044271 1687.160326 L 1387.044271 1701.086957 L 1358.072917 1701.086957 L 1358.072917 1715.013587 L 1329.101563 1715.013587 L 1329.101563 1701.086957 L 1301.106771 1701.086957 L 1301.106771 1687.160326 L 1272.135417 1687.160326 L 1272.135417 1656.929348 L 1258.138021 1656.929348 L 1258.138021 1586.956522 L 1272.135417 1586.956522 L 1272.135417 1572.01087 L 1287.109375 1572.01087 L 1287.109375 1558.084239 L 1301.106771 1558.084239 L 1301.106771 1544.157609 L 1387.044271 1544.157609 L 1387.044271 1550.951087 " transform="matrix(0.012,0,0,0.0115,0,0)"/>
<path style="fill-rule:nonzero;fill:rgb(0%,0%,0%);fill-opacity:1;stroke-width:1;stroke-linecap:butt;stroke-linejoin:miter;stroke:rgb(0%,0%,0%);stroke-opacity:1;stroke-miterlimit:4;" d="M 527.018229 1177.98913 L 527.018229 1185.122283 L 470.052083 1185.122283 L 470.052083 1200.067935 L 441.080729 1200.067935 L 441.080729 1213.994565 L 427.083333 1213.994565 L 427.083333 1227.921196 L 412.109375 1227.921196 L 412.109375 1257.133152 L 398.111979 1257.133152 L 398.111979 1284.986413 L 384.114583 1284.986413 L 384.114583 1401.154891 L 398.111979 1401.154891 L 398.111979 1430.027174 L 412.109375 1430.027174 L 412.109375 1443.953804 L 427.083333 1443.953804 L 427.083333 1457.880435 L 441.080729 1457.880435 L 441.080729 1473.165761 L 455.078125 1473.165761 L 455.078125 1487.092391 L 484.049479 1487.092391 L 484.049479 1501.019022 L 612.955729 1501.019022 L 612.955729 1487.092391 L 641.927083 1487.092391 L 641.927083 1473.165761 L 656.901042 1473.165761 L 656.901042 1457.880435 L 670.898438 1457.880435 L 670.898438 1443.953804 L 685.872396 1443.953804 L 685.872396 1416.100543 L 699.869792 1416.100543 L 699.869792 1386.888587 L 713.867188 1386.888587 L 713.867188 1298.913043 L 699.869792 1298.913043 L 699.869792 1257.133152 L 685.872396 1257.133152 L 685.872396 1241.847826 L 670.898438 1241.847826 L 670.898438 1227.921196 L 656.901042 1227.921196 L 656.901042 1213.994565 L 641.927083 1213.994565 L 641.927083 1200.067935 L 627.929688 1200.067935 L 627.929688 1185.122283 L 570.963542 1185.122283 L 570.963542 1170.855978 L 527.018229 1170.855978 L 527.018229 1177.98913 M 583.984375 1278.872283 L 583.984375 1286.005435 L 597.981771 1286.005435 L 597.981771 1299.932065 L 611.979167 1299.932065 L 611.979167 1329.144022 L 626.953125 1329.144022 L 626.953125 1343.070652 L 611.979167 1343.070652 L 611.979167 1385.869565 L 597.981771 1385.869565 L 597.981771 1400.13587 L 569.986979 1400.13587 L 569.986979 1415.081522 L 513.020833 1415.081522 L 513.020833 1400.13587 L 499.023438 1400.13587 L 499.023438 1385.869565 L 485.026042 1385.869565 L 485.026042 1358.016304 L 471.028646 1358.016304 L 471.028646 1314.877717 L 485.026042 1314.877717 L 485.026042 1286.005435 L 513.020833 1286.005435 L 513.020833 1272.078804 L 583.984375 1272.078804 L 583.984375 1278.872283 " transform="matrix(0.012,0,0,0.0115,0,0)"/>
<path style="fill-rule:nonzero;fill:rgb(0%,0%,0%);fill-opacity:1;stroke-width:1;stroke-linecap:butt;stroke-linejoin:miter;stroke:rgb(0%,0%,0%);stroke-opacity:1;stroke-miterlimit:4;" d="M 1314.127604 1593.070652 L 1314.127604 1599.86413 L 1300.130208 1599.86413 L 1300.130208 1644.021739 L 1314.127604 1644.021739 L 1314.127604 1657.94837 L 1373.046875 1657.94837 L 1373.046875 1585.9375 L 1314.127604 1585.9375 L 1314.127604 1593.070652 " transform="matrix(0.012,0,0,0.0115,0,0)"/>
</g>
</svg>
