<?xml version="1.0" encoding="UTF-8"?>
<svg xmlns="http://www.w3.org/2000/svg" xmlns:xlink="http://www.w3.org/1999/xlink" viewBox="0 0 24 23" version="1.1">
<g>
<path style="fill-rule:nonzero;fill:rgb(0%,0%,0%);fill-opacity:1;stroke-width:1;stroke-linecap:butt;stroke-linejoin:miter;stroke:rgb(0%,0%,0%);stroke-opacity:1;stroke-miterlimit:4;" d="M 741.536458 508.491848 C 730.794271 510.190217 720.703125 513.247283 707.356771 519.021739 C 697.591146 523.097826 688.476563 528.192935 686.848958 529.891304 C 685.872396 531.25 678.059896 537.024457 677.408854 537.024457 C 676.106771 537.024457 656.901042 556.38587 656.901042 557.404891 C 656.901042 558.084239 654.947917 561.141304 652.669271 563.858696 C 646.809896 571.671196 643.880208 576.766304 638.671875 589.673913 C 630.208333 610.054348 627.278646 626.69837 628.255208 646.399457 C 629.231771 660.326087 629.882813 663.722826 636.71875 691.576087 C 639.648438 702.445652 642.578125 715.692935 643.880208 720.44837 C 644.856771 725.543478 648.111979 739.809783 651.367188 752.377717 C 664.713542 806.38587 668.294271 820.991848 670.247396 829.483696 C 671.223958 834.578804 675.130208 850.883152 679.036458 866.168478 C 682.942708 881.453804 686.523438 897.078804 687.5 901.154891 C 688.151042 905.230978 691.40625 919.157609 694.986979 932.404891 C 698.567708 945.652174 701.497396 958.899457 702.148438 961.956522 C 702.473958 965.013587 705.729167 978.600543 709.309896 992.527174 C 712.890625 1006.11413 715.820313 1018.342391 716.145833 1019.361413 C 716.145833 1020.720109 718.098958 1030.230978 721.028646 1041.100543 C 725.585938 1058.423913 728.190104 1069.633152 732.421875 1088.654891 C 733.072917 1091.711957 736.653646 1105.638587 739.908854 1118.88587 C 743.164063 1132.472826 746.744792 1146.399457 747.395833 1149.796196 C 749.348958 1156.929348 757.486979 1176.290761 759.765625 1177.98913 C 760.416667 1178.668478 761.067708 1180.027174 761.067708 1180.706522 C 761.067708 1186.820652 790.690104 1218.75 800.78125 1223.505435 C 802.734375 1224.524457 805.989583 1226.5625 808.59375 1227.921196 C 814.127604 1231.997283 827.148438 1238.111413 831.705729 1239.130435 C 833.984375 1239.470109 839.84375 1241.168478 845.377604 1242.527174 L 855.46875 1245.584239 L 994.791667 1245.923913 L 1133.789063 1246.603261 L 1138.997396 1252.377717 C 1141.927083 1255.774457 1145.182292 1260.190217 1146.809896 1262.567935 C 1148.4375 1264.605978 1152.34375 1270.380435 1155.924479 1274.796196 C 1159.505208 1279.55163 1163.085938 1283.967391 1163.411458 1284.986413 C 1165.039063 1287.024457 1172.526042 1296.875 1175.78125 1300.951087 C 1177.734375 1302.98913 1179.036458 1305.027174 1179.036458 1305.706522 C 1179.036458 1306.046196 1181.315104 1309.103261 1183.919271 1312.5 C 1186.848958 1315.896739 1190.429688 1320.3125 1191.731771 1322.350543 C 1193.359375 1324.728261 1197.591146 1330.502717 1201.497396 1335.597826 C 1205.403646 1340.353261 1209.635417 1346.467391 1211.263021 1348.505435 C 1212.565104 1350.543478 1216.145833 1355.298913 1219.075521 1358.355978 C 1221.679688 1361.752717 1223.958333 1364.809783 1223.958333 1365.48913 C 1223.958333 1366.168478 1225.260417 1368.206522 1227.213542 1369.904891 C 1230.46875 1373.980978 1237.955729 1383.831522 1239.583333 1386.209239 C 1239.908854 1387.228261 1243.489583 1391.644022 1247.070313 1396.059783 C 1250.651042 1400.815217 1254.882813 1406.25 1256.184896 1408.627717 C 1257.8125 1410.665761 1261.067708 1415.081522 1263.997396 1418.478261 C 1266.601563 1421.875 1268.880208 1424.932065 1268.880208 1425.611413 C 1268.880208 1425.951087 1270.507813 1427.98913 1272.135417 1430.027174 C 1275.716146 1434.103261 1283.203125 1443.953804 1284.505208 1446.331522 C 1285.15625 1447.01087 1288.411458 1451.42663 1291.992188 1456.182065 C 1295.572917 1460.597826 1299.804688 1466.372283 1301.432292 1468.75 C 1303.059896 1471.127717 1305.989583 1474.86413 1307.942708 1477.241848 C 1309.895833 1479.619565 1312.5 1483.016304 1313.151042 1484.375 C 1314.127604 1486.07337 1316.40625 1489.130435 1318.359375 1491.508152 C 1320.3125 1493.546196 1323.567708 1497.961957 1325.846354 1501.019022 C 1327.799479 1504.076087 1330.078125 1507.133152 1330.729167 1507.8125 C 1331.380208 1508.491848 1333.984375 1511.888587 1336.588542 1515.625 C 1339.192708 1519.021739 1341.796875 1522.078804 1342.122396 1522.078804 C 1342.773438 1522.078804 1343.098958 1522.418478 1343.098958 1523.097826 C 1343.098958 1524.456522 1349.934896 1534.307065 1353.841146 1538.043478 C 1355.143229 1539.402174 1357.096354 1542.119565 1358.072917 1543.817935 C 1359.049479 1545.855978 1361.002604 1548.913043 1362.304688 1550.271739 C 1366.536458 1554.6875 1373.046875 1563.519022 1373.046875 1564.877717 C 1373.046875 1565.557065 1373.697917 1566.236413 1374.348958 1566.576087 C 1375 1567.255435 1377.929688 1570.3125 1380.533854 1574.048913 C 1383.138021 1577.445652 1385.742188 1580.842391 1386.393229 1581.521739 C 1387.044271 1582.201087 1388.020833 1583.559783 1388.997396 1585.258152 C 1391.601563 1590.353261 1414.0625 1612.092391 1416.666667 1612.092391 C 1417.317708 1612.092391 1417.96875 1612.432065 1418.294271 1612.771739 C 1418.945313 1615.149457 1437.5 1625.339674 1443.359375 1627.038043 C 1445.3125 1627.717391 1450.520833 1629.415761 1455.403646 1631.11413 C 1469.726563 1635.869565 1480.794271 1637.228261 1499.348958 1636.888587 C 1513.346354 1636.209239 1516.927083 1635.869565 1526.367188 1633.152174 C 1545.572917 1628.057065 1556.315104 1623.30163 1566.080729 1616.508152 C 1568.359375 1614.809783 1571.940104 1612.432065 1573.567708 1611.752717 C 1575.195313 1610.733696 1580.078125 1607.336957 1584.309896 1603.600543 C 1588.541667 1599.86413 1592.447917 1597.146739 1593.098958 1597.146739 C 1593.424479 1597.146739 1595.052083 1595.788043 1596.679688 1594.429348 C 1599.934896 1591.711957 1626.627604 1571.671196 1631.184896 1568.61413 C 1632.8125 1567.255435 1636.393229 1564.538043 1638.997396 1562.5 C 1641.927083 1560.461957 1646.809896 1556.38587 1650.390625 1554.008152 C 1665.690104 1542.798913 1687.825521 1526.154891 1688.476563 1525.13587 C 1688.802083 1524.456522 1690.755208 1523.097826 1692.708333 1522.078804 C 1694.986979 1521.059783 1697.591146 1519.021739 1699.21875 1518.002717 C 1704.101563 1513.247283 1711.914063 1507.133152 1712.565104 1507.133152 C 1713.541667 1507.133152 1730.46875 1488.790761 1731.770833 1486.07337 C 1732.421875 1484.714674 1734.700521 1481.317935 1736.979167 1478.600543 C 1741.536458 1472.486413 1743.489583 1468.410326 1748.697917 1455.163043 C 1758.463542 1429.6875 1760.742188 1408.627717 1756.510417 1383.152174 C 1754.882813 1374.660326 1750.651042 1359.714674 1749.023438 1357.336957 C 1748.697917 1356.997283 1747.395833 1354.279891 1746.419271 1351.5625 C 1744.791667 1346.127717 1736.653646 1332.201087 1733.398438 1328.804348 C 1732.421875 1327.445652 1730.794271 1325.407609 1730.143229 1323.709239 C 1728.515625 1320.3125 1708.658854 1300.951087 1704.752604 1298.913043 C 1703.450521 1298.233696 1699.869792 1295.855978 1696.940104 1293.817935 C 1690.755208 1289.741848 1680.989583 1284.646739 1676.106771 1282.94837 C 1661.458333 1277.853261 1657.226563 1276.494565 1648.763021 1274.796196 C 1636.71875 1272.418478 1616.210938 1272.418478 1603.841146 1274.456522 C 1583.984375 1277.853261 1562.5 1286.345109 1550.130208 1295.855978 C 1548.177083 1297.214674 1545.247396 1299.252717 1543.945313 1299.932065 C 1542.643229 1300.611413 1539.388021 1302.98913 1537.109375 1305.027174 C 1534.505208 1307.404891 1530.273438 1310.80163 1527.34375 1312.5 C 1522.786458 1315.557065 1521.809896 1315.896739 1520.182292 1314.877717 C 1519.53125 1314.19837 1513.671875 1306.725543 1507.486979 1298.233696 C 1501.302083 1290.081522 1495.768229 1282.94837 1495.117188 1282.608696 C 1494.466146 1282.269022 1493.489583 1280.570652 1492.513021 1278.872283 C 1491.536458 1276.834239 1488.606771 1272.418478 1485.351563 1269.021739 C 1482.421875 1265.285326 1478.841146 1260.869565 1477.864583 1258.831522 C 1476.888021 1256.793478 1475.585938 1254.755435 1474.934896 1254.415761 C 1474.283854 1254.076087 1469.401042 1247.622283 1463.867188 1240.149457 C 1458.333333 1232.67663 1452.799479 1225.203804 1451.171875 1223.845109 C 1449.869792 1222.486413 1448.242188 1219.769022 1447.265625 1218.070652 C 1446.289063 1216.372283 1443.033854 1212.296196 1440.104167 1208.559783 C 1437.174479 1205.163043 1433.59375 1200.407609 1432.617188 1198.709239 C 1431.315104 1196.671196 1425.130208 1188.179348 1418.619792 1179.6875 C 1411.783854 1170.855978 1405.598958 1162.36413 1404.622396 1161.005435 C 1403.320313 1159.307065 1400.716146 1155.570652 1398.4375 1152.853261 C 1396.158854 1150.13587 1392.578125 1145.040761 1389.973958 1141.644022 C 1387.369792 1138.247283 1380.208333 1128.396739 1373.372396 1119.565217 C 1366.861979 1111.07337 1360.677083 1102.581522 1359.375 1100.883152 C 1358.398438 1099.184783 1355.794271 1095.788043 1353.515625 1092.730978 C 1351.236979 1090.013587 1347.330729 1084.918478 1345.052083 1081.521739 C 1333.984375 1066.236413 1317.057292 1044.157609 1316.080729 1043.478261 C 1315.429688 1043.138587 1314.127604 1041.100543 1313.151042 1039.0625 C 1311.848958 1037.024457 1308.268229 1032.269022 1304.6875 1028.192935 C 1301.106771 1024.456522 1298.177083 1021.059783 1298.177083 1020.380435 C 1297.851563 1019.701087 1296.549479 1018.002717 1294.596354 1016.644022 C 1292.643229 1015.285326 1288.411458 1011.888587 1285.15625 1008.831522 C 1278.971354 1003.396739 1275.390625 1001.019022 1259.114583 992.527174 C 1250.325521 988.111413 1246.09375 986.752717 1230.46875 982.67663 L 1221.354167 980.638587 L 981.119792 979.959239 L 978.190104 968.070652 C 976.5625 961.616848 973.958333 951.766304 972.65625 945.991848 C 971.354167 940.217391 968.098958 926.630435 965.169271 915.421196 L 960.286458 895.380435 L 972.981771 892.663043 C 979.817708 891.304348 994.791667 887.907609 1005.859375 885.529891 C 1016.927083 883.152174 1027.018229 881.11413 1027.994792 881.11413 C 1029.296875 881.11413 1043.619792 878.057065 1059.895833 874.320652 C 1076.171875 870.584239 1092.122396 867.1875 1095.377604 866.847826 C 1102.213542 865.828804 1125 861.07337 1151.367188 854.959239 C 1161.458333 852.921196 1170.572917 850.883152 1171.549479 850.883152 C 1172.851563 850.883152 1180.664063 849.524457 1189.127604 847.486413 C 1212.565104 842.391304 1230.143229 835.258152 1242.838542 826.086957 C 1246.744792 823.369565 1250 820.991848 1250.651042 820.991848 C 1251.302083 820.991848 1264.648438 808.423913 1267.578125 805.027174 C 1273.763021 797.894022 1283.203125 784.986413 1283.528646 782.94837 C 1284.179688 781.589674 1285.481771 778.872283 1286.458333 776.834239 C 1287.760417 775.13587 1290.690104 769.021739 1292.96875 763.247283 C 1301.106771 743.206522 1303.385417 715.353261 1299.153646 689.538043 C 1294.921875 665.081522 1281.901042 640.285326 1263.671875 621.603261 C 1256.510417 614.470109 1238.28125 600.543478 1233.072917 598.165761 C 1231.119792 597.486413 1226.888021 595.44837 1223.632813 594.089674 C 1205.729167 585.597826 1194.335938 582.880435 1172.526042 582.201087 C 1152.669271 581.861413 1152.34375 581.861413 1102.539063 593.070652 C 1092.773438 595.108696 1083.658854 597.146739 1082.356771 597.146739 C 1081.380208 597.146739 1065.104167 600.543478 1046.549479 604.619565 C 1027.994792 608.695652 1011.71875 612.092391 1010.416667 612.092391 C 1009.114583 612.092391 996.09375 614.809783 981.445313 618.206522 C 966.471354 621.263587 950.520833 624.660326 945.963542 625.679348 C 941.40625 626.358696 928.385417 629.076087 917.643229 631.453804 L 897.460938 635.869565 L 896.809896 631.453804 C 890.950521 602.241848 882.161458 578.464674 870.442708 562.839674 C 856.770833 544.157609 836.914063 528.192935 818.033854 519.701087 C 807.617188 514.945652 804.361979 513.92663 795.898438 511.548913 C 779.622396 506.793478 758.463542 505.774457 741.536458 508.491848 M 775.390625 576.42663 C 789.713542 580.163043 799.153646 585.258152 807.617188 593.75 C 815.104167 601.5625 818.684896 606.317935 821.940104 614.809783 C 824.869792 622.282609 834.309896 658.627717 837.565104 674.932065 C 840.820313 691.236413 846.679688 700.067935 857.747396 705.502717 C 866.210938 709.918478 875.651042 709.578804 896.484375 704.82337 C 905.273438 702.785326 913.736979 701.086957 915.039063 701.086957 C 916.341146 701.086957 931.315104 697.690217 948.567708 693.953804 C 965.820313 690.217391 981.119792 687.160326 982.421875 686.820652 C 983.398438 686.820652 994.466146 684.782609 1007.161458 682.065217 C 1019.53125 679.347826 1035.481771 675.951087 1042.643229 674.252717 C 1049.804688 672.894022 1070.963542 668.478261 1089.84375 664.402174 C 1125 656.929348 1144.856771 652.853261 1159.505208 650.475543 C 1172.200521 648.097826 1184.895833 650.475543 1200.195313 657.94837 C 1207.03125 661.005435 1222.330729 675.271739 1223.632813 679.347826 C 1223.958333 680.366848 1224.934896 682.744565 1226.236979 684.103261 C 1227.213542 685.461957 1229.492188 690.896739 1231.119792 695.991848 C 1235.026042 708.220109 1235.351563 721.467391 1232.096354 732.336957 C 1229.166667 741.847826 1222.330729 754.076087 1218.098958 758.491848 C 1216.145833 760.190217 1212.890625 763.247283 1210.9375 764.945652 C 1205.729167 770.040761 1197.591146 774.456522 1190.104167 776.834239 C 1181.966146 779.55163 1130.533854 791.100543 1127.604167 791.100543 C 1125.651042 791.100543 1106.445313 795.17663 1082.356771 800.611413 C 1079.101563 801.290761 1071.614583 802.98913 1066.080729 804.008152 C 1043.945313 808.423913 1028.971354 811.480978 1000.651042 817.934783 C 993.164063 819.633152 986.002604 820.991848 984.375 820.991848 C 983.072917 820.991848 967.122396 824.388587 948.567708 828.464674 C 930.013021 832.540761 913.736979 835.9375 912.434896 835.9375 C 907.877604 835.9375 899.414063 840.692935 895.507813 845.788043 C 893.229167 848.505435 890.950521 851.222826 890.299479 851.902174 C 889.648438 852.581522 888.346354 855.298913 887.369792 858.016304 C 884.765625 865.828804 885.742188 875.679348 891.276042 897.418478 C 906.25 956.861413 909.505208 970.108696 910.15625 974.524457 C 911.132813 981.657609 921.549479 1022.758152 923.828125 1027.513587 C 927.734375 1037.024457 935.546875 1043.478261 945.3125 1045.516304 C 950.195313 1046.535326 978.190104 1046.875 1080.403646 1046.875 C 1225.260417 1046.875 1215.494792 1046.535326 1231.119792 1054.6875 C 1242.1875 1060.461957 1248.046875 1065.557065 1257.8125 1078.464674 C 1262.044271 1083.899457 1265.950521 1089.334239 1266.601563 1090.013587 C 1267.578125 1090.692935 1269.53125 1093.410326 1271.158854 1096.127717 C 1272.460938 1098.505435 1275.716146 1102.581522 1277.994792 1104.959239 C 1280.273438 1107.336957 1282.552083 1110.733696 1283.528646 1112.432065 C 1284.179688 1114.130435 1286.132813 1116.847826 1287.434896 1118.206522 C 1288.736979 1119.565217 1294.270833 1126.69837 1300.130208 1134.51087 C 1305.664063 1142.32337 1310.872396 1148.777174 1311.523438 1149.456522 C 1312.5 1149.796196 1313.151042 1150.475543 1313.151042 1151.154891 C 1313.151042 1152.513587 1319.335938 1161.005435 1323.567708 1165.76087 C 1324.869792 1167.119565 1327.148438 1170.17663 1328.125 1171.875 C 1329.101563 1173.913043 1331.054688 1176.630435 1332.356771 1177.98913 C 1333.658854 1179.347826 1339.192708 1186.480978 1344.401042 1193.953804 C 1349.934896 1201.42663 1354.817708 1208.220109 1355.794271 1208.899457 C 1356.445313 1209.918478 1358.398438 1212.63587 1360.026042 1215.013587 C 1361.653646 1217.391304 1364.583333 1221.467391 1366.861979 1223.845109 C 1369.140625 1226.5625 1371.744792 1229.959239 1372.395833 1231.657609 C 1373.372396 1233.355978 1375 1236.07337 1376.627604 1237.432065 C 1378.255208 1239.130435 1383.789063 1246.603261 1389.322917 1254.076087 C 1394.856771 1261.548913 1400.065104 1268.342391 1400.716146 1269.021739 C 1401.367188 1269.701087 1403.320313 1272.418478 1404.947917 1275.13587 C 1406.575521 1277.513587 1409.830729 1281.589674 1411.783854 1283.967391 C 1414.0625 1286.345109 1416.666667 1289.741848 1417.317708 1291.440217 C 1418.294271 1293.138587 1419.921875 1295.855978 1421.223958 1297.214674 C 1422.526042 1298.57337 1428.385417 1305.706522 1433.919271 1313.179348 C 1439.453125 1320.652174 1444.661458 1327.785326 1445.638021 1328.804348 C 1446.614583 1329.82337 1448.567708 1332.540761 1449.869792 1334.578804 C 1451.171875 1336.616848 1454.101563 1340.692935 1456.705729 1343.410326 C 1458.984375 1346.127717 1461.588542 1349.86413 1462.565104 1351.5625 C 1463.216146 1353.26087 1464.84375 1355.638587 1466.471354 1356.997283 C 1467.773438 1358.355978 1472.65625 1364.809783 1477.539063 1371.603261 C 1492.1875 1391.644022 1499.023438 1397.078804 1512.695313 1397.758152 C 1521.158854 1398.4375 1527.994792 1396.399457 1534.505208 1391.304348 C 1537.109375 1389.605978 1539.388021 1387.907609 1539.713542 1387.907609 C 1540.039063 1387.907609 1549.479167 1380.774457 1555.013021 1376.019022 C 1556.966146 1374.320652 1558.919271 1372.961957 1559.570313 1372.961957 C 1560.221354 1372.961957 1563.151042 1370.584239 1566.40625 1367.866848 C 1569.661458 1365.149457 1574.869792 1361.413043 1577.473958 1359.375 C 1580.403646 1357.67663 1584.960938 1354.279891 1587.890625 1351.902174 C 1596.028646 1346.467391 1600.585938 1344.429348 1609.049479 1342.391304 C 1623.372396 1339.673913 1642.578125 1341.372283 1652.669271 1346.467391 C 1660.807292 1350.543478 1670.898438 1358.355978 1675.455729 1364.470109 C 1678.059896 1367.866848 1680.664063 1371.263587 1681.640625 1372.282609 C 1683.919271 1375.339674 1685.872396 1379.415761 1688.151042 1387.907609 C 1690.755208 1398.4375 1691.080729 1413.722826 1688.476563 1421.535326 C 1687.825521 1424.252717 1687.174479 1427.309783 1686.848958 1428.328804 C 1686.848958 1431.046196 1679.6875 1442.934783 1674.153646 1449.388587 C 1669.270833 1455.163043 1660.15625 1462.975543 1658.203125 1462.975543 C 1657.552083 1462.975543 1656.901042 1463.315217 1656.901042 1463.654891 C 1656.575521 1464.334239 1653.645833 1466.711957 1650.065104 1469.429348 C 1646.484375 1472.146739 1642.903646 1474.86413 1641.927083 1475.883152 C 1641.276042 1476.5625 1638.346354 1478.26087 1636.067708 1479.959239 C 1633.463542 1481.657609 1629.557292 1484.714674 1626.953125 1486.752717 C 1624.674479 1489.130435 1621.09375 1491.508152 1619.466146 1492.527174 C 1617.838542 1493.206522 1614.583333 1495.584239 1612.630208 1497.622283 C 1610.351563 1499.320652 1606.119792 1502.717391 1602.864583 1504.755435 C 1597.981771 1508.152174 1589.192708 1514.945652 1572.591146 1527.513587 C 1568.684896 1530.230978 1562.825521 1534.646739 1558.919271 1537.36413 C 1555.338542 1540.081522 1547.851563 1545.855978 1542.317708 1549.932065 C 1526.041667 1562.5 1520.182292 1565.557065 1508.138021 1567.934783 C 1497.070313 1569.972826 1478.190104 1568.61413 1468.75 1564.538043 C 1464.84375 1562.839674 1454.101563 1555.706522 1449.869792 1551.970109 C 1446.289063 1548.57337 1435.872396 1535.326087 1433.268229 1531.25 C 1431.966146 1529.211957 1429.036458 1525.13587 1426.432292 1522.078804 C 1423.828125 1519.021739 1420.572917 1514.605978 1418.945313 1512.567935 C 1417.643229 1510.190217 1416.015625 1507.8125 1415.364583 1507.133152 C 1414.713542 1506.453804 1412.109375 1503.057065 1409.505208 1499.660326 C 1406.901042 1495.923913 1404.296875 1492.866848 1403.645833 1492.866848 C 1403.320313 1492.866848 1402.994792 1492.527174 1402.994792 1491.847826 C 1402.994792 1490.48913 1395.833333 1480.978261 1392.252604 1476.902174 C 1390.950521 1475.543478 1388.997396 1472.826087 1388.020833 1471.127717 C 1387.044271 1469.089674 1384.440104 1465.692935 1382.486979 1463.654891 C 1380.533854 1461.277174 1377.278646 1456.861413 1375.325521 1454.144022 C 1373.046875 1451.086957 1371.09375 1448.029891 1370.442708 1447.350543 C 1369.791667 1446.671196 1367.1875 1443.274457 1364.257813 1439.538043 C 1361.653646 1435.80163 1359.375 1433.084239 1358.723958 1433.084239 C 1358.398438 1433.084239 1358.072917 1432.404891 1358.072917 1431.725543 C 1358.072917 1430.706522 1350.911458 1420.855978 1347.330729 1417.119565 C 1346.028646 1415.76087 1344.075521 1413.043478 1343.098958 1411.005435 C 1342.122396 1408.967391 1339.518229 1405.570652 1337.565104 1403.532609 C 1335.611979 1401.154891 1332.356771 1397.078804 1330.078125 1394.021739 C 1328.125 1390.964674 1325.846354 1387.907609 1325.195313 1387.228261 C 1324.869792 1386.548913 1321.940104 1383.152174 1319.335938 1379.415761 C 1316.731771 1376.019022 1314.127604 1372.961957 1313.802083 1372.961957 C 1313.476563 1372.961957 1313.151042 1372.622283 1313.151042 1371.942935 C 1313.151042 1370.584239 1305.989583 1360.733696 1302.083333 1356.997283 C 1300.78125 1355.638587 1298.828125 1352.921196 1297.851563 1350.883152 C 1296.875 1349.184783 1294.921875 1346.127717 1293.294271 1344.429348 C 1291.992188 1343.070652 1283.854167 1332.201087 1275.390625 1320.991848 C 1267.252604 1309.782609 1259.114583 1299.252717 1257.486979 1297.554348 C 1256.184896 1295.855978 1254.231771 1293.138587 1253.580729 1291.440217 C 1252.604167 1289.741848 1250.325521 1286.684783 1248.046875 1284.307065 C 1245.768229 1281.929348 1242.838542 1277.853261 1241.210938 1275.815217 C 1236.979167 1269.361413 1225.585938 1254.415761 1224.609375 1254.076087 C 1224.283854 1254.076087 1223.958333 1253.396739 1223.958333 1252.717391 C 1223.958333 1251.69837 1216.471354 1241.508152 1212.239583 1237.092391 C 1210.9375 1235.733696 1209.309896 1233.016304 1208.333333 1231.317935 C 1207.682292 1229.619565 1205.729167 1226.902174 1204.101563 1225.543478 C 1201.497396 1222.486413 1195.3125 1214.673913 1193.359375 1211.956522 C 1191.40625 1208.559783 1180.664063 1194.633152 1179.6875 1194.293478 C 1179.361979 1193.953804 1179.036458 1193.274457 1179.036458 1192.595109 C 1179.036458 1190.557065 1171.549479 1184.442935 1165.690104 1181.38587 L 1160.481771 1179.008152 L 1013.997396 1179.008152 C 869.140625 1179.008152 867.513021 1179.008152 860.026042 1176.970109 C 847.005208 1173.233696 833.658854 1164.741848 825.195313 1154.55163 C 818.359375 1146.399457 813.476563 1135.190217 809.570313 1118.546196 C 807.617188 1110.394022 804.361979 1096.807065 802.408854 1088.994565 C 800.455729 1081.182065 796.875 1066.915761 794.921875 1058.084239 C 792.643229 1048.913043 788.736979 1032.269022 785.807292 1021.059783 C 782.877604 1009.850543 779.622396 995.923913 778.320313 990.149457 C 777.018229 984.375 773.4375 970.108696 770.833333 958.899457 C 767.903646 947.690217 764.648438 933.763587 763.346354 928.328804 C 762.044271 922.554348 760.091146 913.383152 758.463542 907.608696 C 755.859375 895.720109 748.372396 865.149457 739.908854 830.842391 C 736.328125 817.595109 733.072917 802.98913 732.096354 798.913043 C 731.445313 794.836957 727.539063 778.532609 723.632813 762.567935 C 719.401042 746.603261 715.494792 729.959239 714.84375 725.883152 C 713.867188 721.807065 710.611979 707.540761 707.03125 693.953804 C 696.940104 652.173913 696.614583 650.475543 696.614583 638.92663 C 696.614583 631.11413 697.265625 627.038043 698.893229 622.622283 C 700.195313 619.225543 700.846354 616.168478 700.846354 615.48913 C 700.846354 610.394022 716.796875 591.372283 725.585938 585.597826 C 730.46875 582.540761 743.489583 577.105978 749.348958 576.086957 C 756.184896 574.728261 769.205729 575.067935 775.390625 576.42663 " transform="matrix(0.012,0,0,0.0115,0,0)"/>
<path style="fill-rule:nonzero;fill:rgb(0%,0%,0%);fill-opacity:1;stroke-width:1;stroke-linecap:butt;stroke-linejoin:miter;stroke:rgb(0%,0%,0%);stroke-opacity:1;stroke-miterlimit:4;" d="M 530.924479 834.918478 C 526.041667 836.616848 509.440104 846.467391 506.184896 849.524457 C 505.533854 850.543478 504.557292 850.883152 503.90625 850.883152 C 502.604167 850.883152 494.140625 856.657609 492.513021 858.695652 C 491.861979 859.375 488.932292 861.413043 486.002604 863.451087 C 483.072917 865.149457 479.817708 867.527174 478.841146 868.206522 C 478.190104 868.88587 472.65625 873.30163 467.122396 878.057065 C 446.614583 894.701087 421.875 918.817935 405.273438 939.19837 C 398.763021 946.671196 392.578125 954.483696 390.950521 956.182065 C 389.322917 957.880435 388.020833 959.918478 388.020833 960.258152 C 388.020833 961.277174 383.463542 967.730978 380.859375 970.108696 C 380.208333 971.127717 377.929688 973.845109 376.302083 976.5625 C 374.674479 979.279891 373.046875 982.336957 372.395833 983.016304 C 371.09375 985.733696 366.210938 992.866848 361.979167 999.320652 C 359.700521 1002.377717 358.072917 1005.434783 358.072917 1006.11413 C 358.072917 1006.793478 355.794271 1010.869565 353.190104 1015.285326 C 345.052083 1028.872283 343.098958 1032.94837 343.098958 1033.967391 C 343.098958 1034.646739 340.820313 1039.741848 338.541667 1044.836957 C 330.729167 1061.141304 330.078125 1062.160326 327.799479 1069.633152 C 326.497396 1073.369565 322.916667 1083.559783 319.661458 1092.05163 C 316.731771 1100.883152 313.802083 1109.714674 313.476563 1112.092391 C 313.151042 1114.470109 311.523438 1121.263587 309.895833 1127.038043 C 306.640625 1139.945652 301.432292 1164.741848 300.130208 1175.951087 C 297.851563 1194.293478 296.549479 1224.86413 297.200521 1249.660326 C 298.502604 1293.817935 300.455729 1310.80163 308.919271 1345.788043 C 311.197917 1354.959239 313.476563 1364.470109 314.127604 1366.847826 C 314.453125 1369.565217 317.708333 1379.076087 320.963542 1387.907609 C 324.544271 1397.078804 327.473958 1405.570652 327.799479 1406.929348 C 328.125 1408.288043 331.054688 1415.76087 334.635417 1423.57337 C 338.216146 1431.046196 341.796875 1439.19837 342.773438 1441.236413 C 344.075521 1445.652174 348.632813 1453.464674 354.166667 1462.63587 C 356.119792 1466.032609 358.072917 1469.429348 358.072917 1470.108696 C 358.072917 1470.788043 359.375 1473.845109 361.328125 1476.5625 C 367.1875 1485.054348 372.395833 1493.546196 374.023438 1496.263587 C 374.674479 1497.961957 377.604167 1501.69837 380.208333 1505.095109 C 383.138021 1508.491848 386.393229 1513.247283 388.020833 1515.625 C 393.880208 1524.796196 419.921875 1554.6875 436.523438 1570.991848 C 453.125 1587.296196 476.236979 1606.997283 484.375 1612.092391 C 486.653646 1613.451087 491.536458 1616.847826 494.791667 1619.565217 C 498.046875 1622.282609 502.278646 1625.339674 503.580729 1626.019022 C 506.510417 1627.717391 514.973958 1632.8125 523.4375 1638.586957 C 526.367188 1640.625 528.971354 1641.983696 529.947917 1641.983696 C 530.598958 1641.983696 533.528646 1643.342391 536.458333 1645.380435 C 545.898438 1651.494565 580.403646 1668.138587 589.518229 1670.855978 C 591.796875 1671.535326 594.726563 1672.554348 596.028646 1673.233696 C 606.119792 1677.309783 633.138021 1686.141304 637.369792 1686.820652 C 640.299479 1687.5 646.809896 1688.858696 652.34375 1690.557065 C 686.523438 1699.388587 718.75 1703.125 761.393229 1703.125 C 805.338542 1703.125 838.867188 1699.048913 873.046875 1689.877717 C 878.90625 1688.519022 885.416667 1686.820652 887.369792 1686.480978 C 892.252604 1685.80163 916.341146 1677.649457 923.828125 1674.252717 C 926.757813 1673.233696 930.013021 1671.875 930.664063 1671.875 C 932.291667 1671.875 942.708333 1667.798913 954.427083 1662.024457 C 958.984375 1659.986413 965.169271 1656.929348 968.424479 1655.570652 C 971.679688 1654.211957 978.515625 1650.475543 983.398438 1647.418478 C 988.606771 1644.361413 993.164063 1641.983696 993.489583 1641.983696 C 994.466146 1641.983696 1008.138021 1633.491848 1013.020833 1630.095109 C 1014.322917 1629.076087 1017.252604 1627.038043 1019.53125 1626.019022 C 1021.809896 1625 1027.018229 1621.263587 1030.924479 1617.866848 C 1035.15625 1614.809783 1039.0625 1612.092391 1039.388021 1612.092391 C 1040.039063 1612.092391 1041.666667 1611.07337 1042.96875 1609.714674 C 1044.596354 1608.355978 1049.479167 1604.279891 1054.036458 1600.543478 C 1079.752604 1579.82337 1103.190104 1556.046196 1122.721354 1531.929348 C 1126.627604 1527.173913 1130.208333 1522.418478 1131.184896 1521.399457 C 1132.161458 1520.380435 1134.765625 1516.983696 1136.71875 1513.92663 C 1138.671875 1510.869565 1140.625 1508.152174 1141.276042 1507.472826 C 1143.229167 1506.11413 1149.088542 1497.282609 1149.088542 1496.263587 C 1149.088542 1495.584239 1149.739583 1494.565217 1150.716146 1493.546196 C 1151.367188 1492.527174 1154.947917 1487.432065 1158.203125 1482.336957 L 1164.0625 1472.486413 L 1164.0625 1461.616848 C 1164.0625 1451.086957 1164.0625 1450.747283 1160.481771 1444.972826 C 1155.924479 1437.839674 1152.669271 1434.782609 1145.507813 1431.38587 C 1140.299479 1429.008152 1138.346354 1428.668478 1130.859375 1428.668478 C 1124.348958 1428.668478 1121.744792 1429.008152 1118.164063 1430.706522 C 1115.885417 1432.065217 1113.606771 1433.084239 1112.630208 1433.084239 C 1110.351563 1433.084239 1105.794271 1438.858696 1093.424479 1457.201087 C 1086.914063 1467.05163 1080.729167 1475.883152 1079.427083 1477.241848 C 1078.450521 1478.600543 1076.171875 1481.317935 1074.869792 1483.355978 C 1073.567708 1485.733696 1069.661458 1490.48913 1066.080729 1493.88587 C 1062.825521 1497.622283 1059.895833 1500.679348 1059.895833 1501.358696 C 1059.895833 1502.377717 1027.669271 1534.307065 1021.809896 1538.722826 C 1018.880208 1541.100543 1015.299479 1544.157609 1013.997396 1545.516304 C 1012.695313 1547.214674 1009.765625 1549.592391 1007.486979 1550.951087 C 1005.208333 1552.309783 1001.953125 1555.027174 999.674479 1556.725543 C 994.791667 1561.141304 965.820313 1580.163043 959.960938 1582.880435 C 957.682292 1583.899457 950.846354 1587.63587 945.638021 1591.032609 C 940.104167 1594.089674 934.570313 1596.807065 933.59375 1596.807065 C 932.617188 1597.146739 929.6875 1598.165761 927.734375 1599.524457 C 916.341146 1605.978261 871.419271 1621.942935 854.492188 1625.339674 C 843.75 1627.717391 825.520833 1630.774457 814.453125 1632.472826 C 778.971354 1637.567935 734.375 1637.228261 699.869792 1631.11413 C 693.684896 1629.755435 685.221354 1628.396739 681.640625 1627.717391 C 673.502604 1626.69837 661.132813 1623.641304 652.018229 1620.923913 C 630.859375 1614.130435 615.234375 1608.695652 607.421875 1604.959239 C 602.539063 1602.921196 596.679688 1600.203804 594.401042 1599.184783 C 584.309896 1594.429348 577.799479 1591.032609 570.638021 1586.616848 C 566.080729 1584.23913 562.174479 1581.861413 561.848958 1581.861413 C 560.221354 1581.861413 527.018229 1559.442935 522.460938 1555.706522 C 520.182292 1553.668478 517.903646 1551.970109 517.578125 1551.970109 C 515.950521 1551.970109 492.513021 1531.25 480.794271 1519.361413 C 468.75 1507.472826 447.916667 1484.035326 447.916667 1482.67663 C 447.916667 1481.997283 446.289063 1479.619565 444.335938 1477.581522 C 440.429688 1473.165761 417.96875 1439.877717 417.96875 1438.179348 C 417.96875 1437.839674 416.015625 1433.763587 413.411458 1429.347826 C 407.552083 1419.836957 402.34375 1409.646739 393.554688 1389.605978 C 390.625 1382.8125 384.440104 1364.130435 377.604167 1342.391304 C 374.674479 1332.880435 369.466146 1306.38587 366.536458 1283.967391 C 365.559896 1277.513587 364.583333 1261.548913 364.257813 1247.961957 C 363.606771 1216.032609 364.908854 1197.350543 371.09375 1164.0625 C 374.674479 1143.342391 376.302083 1137.567935 382.161458 1119.565217 C 385.416667 1109.714674 388.346354 1099.86413 388.997396 1098.165761 C 390.299479 1094.089674 391.601563 1091.372283 398.4375 1076.766304 C 401.041667 1071.331522 402.994792 1066.576087 402.994792 1065.896739 C 402.994792 1065.217391 405.924479 1059.782609 409.179688 1054.008152 C 412.434896 1048.233696 416.341146 1041.779891 417.317708 1039.402174 C 419.270833 1035.665761 427.408854 1023.097826 435.872396 1010.190217 C 437.825521 1007.133152 441.080729 1002.717391 443.033854 1000.679348 C 444.986979 998.30163 447.265625 995.244565 448.242188 993.546196 C 449.21875 991.847826 452.799479 987.432065 456.380208 983.355978 C 459.960938 979.619565 462.890625 976.222826 462.890625 975.543478 C 462.890625 974.86413 470.377604 967.05163 480.46875 957.201087 C 481.770833 955.842391 486.328125 951.086957 490.559896 947.350543 C 494.466146 943.274457 498.046875 939.877717 498.697917 939.877717 C 499.023438 939.877717 502.278646 937.160326 505.859375 933.763587 C 509.440104 930.366848 514.322917 926.630435 516.601563 925.271739 C 518.554688 923.913043 521.484375 921.535326 522.786458 920.516304 C 525.716146 917.798913 555.989583 897.418478 561.523438 894.361413 C 567.382813 891.644022 574.544271 880.434783 576.171875 872.282609 C 577.799479 862.771739 576.171875 855.298913 570.3125 846.807065 C 565.104167 838.994565 563.476563 837.975543 555.338542 834.918478 C 548.177083 832.540761 538.411458 832.540761 530.924479 834.918478 " transform="matrix(0.012,0,0,0.0115,0,0)"/>
<path style="fill-rule:nonzero;fill:rgb(0%,0%,0%);fill-opacity:1;stroke-width:1;stroke-linecap:butt;stroke-linejoin:miter;stroke:rgb(0%,0%,0%);stroke-opacity:1;stroke-miterlimit:4;" d="M 671.223958 110.394022 C 662.109375 111.752717 642.903646 116.847826 641.601563 118.206522 C 640.950521 118.546196 639.648438 118.88587 638.346354 118.88587 C 635.416667 118.88587 618.815104 126.69837 612.630208 130.774457 C 610.351563 132.133152 606.770833 134.171196 605.143229 135.190217 C 603.190104 136.209239 598.307292 139.605978 594.401042 143.002717 C 590.494792 146.399457 586.914063 149.116848 586.588542 149.116848 C 586.263021 149.116848 581.705729 153.192935 576.822917 158.627717 C 552.408854 183.423913 538.411458 210.597826 531.25 246.603261 C 529.296875 257.133152 528.645833 282.94837 529.947917 294.497283 C 531.25 304.008152 536.783854 328.125 539.0625 334.578804 C 541.341146 340.013587 550.130208 357.336957 551.106771 357.67663 C 551.757813 358.016304 552.083333 358.695652 552.083333 359.714674 C 552.083333 361.413043 556.315104 368.546196 561.523438 374.660326 C 563.802083 377.377717 566.080729 380.434783 566.731771 381.11413 C 568.359375 384.171196 583.658854 399.796196 589.192708 403.872283 C 592.122396 405.910326 596.028646 409.307065 597.981771 411.005435 C 599.609375 412.703804 603.841146 415.421196 606.770833 416.779891 C 632.486979 430.706522 633.789063 431.046196 646.484375 434.782609 C 663.736979 439.19837 674.479167 441.236413 688.476563 441.576087 C 705.403646 442.255435 719.075521 440.896739 734.375 436.820652 C 740.559896 435.122283 747.395833 433.423913 750 433.084239 C 756.184896 431.725543 785.15625 417.119565 790.039063 412.703804 C 791.015625 411.684783 795.247396 408.627717 799.153646 405.570652 C 811.848958 396.059783 830.078125 375.679348 836.263021 364.130435 C 837.890625 361.07337 839.518229 358.355978 839.84375 358.016304 C 841.471354 356.997283 850.260417 338.654891 851.5625 333.899457 C 852.213542 331.521739 854.166667 324.728261 855.794271 318.953804 C 860.677083 302.649457 862.304688 288.383152 861.653646 269.361413 C 860.677083 240.149457 854.166667 218.410326 837.565104 188.179348 C 827.799479 170.855978 799.804688 142.663043 783.528646 133.831522 C 780.598958 132.472826 774.088542 129.076087 768.880208 126.019022 C 763.671875 123.30163 756.510417 119.904891 752.929688 118.88587 C 749.348958 117.866848 742.513021 115.828804 737.630208 114.470109 C 732.747396 113.111413 724.609375 111.413043 719.075521 110.394022 C 707.356771 108.695652 682.617188 108.695652 671.223958 110.394022 M 714.518229 178.328804 C 719.401042 179.347826 724.283854 180.366848 725.260417 180.706522 C 729.817708 182.065217 743.489583 188.858696 747.070313 191.236413 C 748.697917 192.934783 750.976563 193.953804 751.627604 193.953804 C 753.580729 193.953804 773.4375 213.315217 775.065104 216.711957 C 775.716146 218.070652 777.34375 220.788043 778.645833 222.826087 C 783.528646 229.279891 790.039063 244.565217 791.666667 252.377717 C 795.898438 275.815217 793.619792 298.913043 785.15625 316.576087 C 782.552083 322.01087 779.296875 327.445652 777.994792 328.804348 C 777.018229 330.163043 776.041667 331.861413 776.041667 332.540761 C 776.041667 334.578804 754.882813 355.298913 750 358.016304 C 724.609375 371.942935 719.726563 373.30163 694.986979 373.30163 C 678.710938 373.30163 675.78125 372.961957 668.945313 370.923913 C 648.763021 364.809783 629.231771 351.5625 616.536458 334.918478 C 611.328125 328.464674 603.841146 314.19837 600.260417 304.008152 C 597.981771 297.214674 597.65625 294.836957 597.330729 277.853261 C 597.005208 260.529891 597.005208 258.831522 599.283854 250.339674 C 602.213542 240.48913 607.096354 229.619565 613.28125 220.108696 C 618.164063 212.63587 633.138021 197.350543 637.695313 194.972826 C 639.322917 194.293478 641.927083 192.595109 643.554688 191.236413 C 647.460938 188.519022 659.179688 182.744565 664.388021 181.046196 C 675.78125 177.309783 699.21875 175.951087 714.518229 178.328804 " transform="matrix(0.012,0,0,0.0115,0,0)"/>
</g>
</svg>
